<svg width="300" height="50" viewBox="0 0 300 50" fill="none" xmlns="http://www.w3.org/2000/svg">
<path d="M7 13.9427H101.22C105.517 13.9427 109 17.4258 109 21.7223V35.3141H14.7797C10.4831 35.3141 7 31.831 7 27.5345V13.9427Z" fill="white"/>
<path d="M18.1189 26.8304C18.1189 27.5948 17.9226 28.1871 17.5301 28.6072C17.141 29.0238 16.5832 29.2321 15.8566 29.2321H13.9508V21.681H17.5352V22.9051H15.3556V24.6302H15.7998C16.5642 24.6302 17.141 24.8144 17.5301 25.1828C17.9226 25.5512 18.1189 26.1004 18.1189 26.8304ZM15.3556 28.0132H15.7895C16.3989 28.0132 16.7037 27.6362 16.7037 26.8821C16.7037 26.5205 16.6262 26.2606 16.4713 26.1022C16.3197 25.9403 16.0615 25.8594 15.6965 25.8594H15.3556V28.0132ZM23.2218 24.0052C23.2218 24.8075 23.0187 25.4238 22.6124 25.8543C22.2095 26.2812 21.6259 26.4947 20.8614 26.4947H20.5102V29.2321H19.1054V21.681H21.0216C22.4884 21.681 23.2218 22.4557 23.2218 24.0052ZM20.5102 25.2758H20.7788C21.1231 25.2758 21.3797 25.1811 21.5484 24.9917C21.7171 24.8023 21.8015 24.4924 21.8015 24.062C21.8015 23.666 21.724 23.3734 21.569 23.184C21.4141 22.9912 21.1748 22.8947 20.8511 22.8947H20.5102V25.2758ZM29.3732 25.4462C29.3732 26.6961 29.1391 27.6568 28.6708 28.3283C28.2025 28.9997 27.5328 29.3354 26.6617 29.3354C25.7871 29.3354 25.1156 29.0014 24.6473 28.3334C24.179 27.662 23.9449 26.6961 23.9449 25.4359C23.9449 24.186 24.179 23.2287 24.6473 22.5642C25.1156 21.8962 25.7905 21.5622 26.672 21.5622C27.5431 21.5622 28.2111 21.8979 28.676 22.5694C29.1408 23.2374 29.3732 24.1963 29.3732 25.4462ZM25.3808 25.4462C25.3808 26.307 25.4892 26.963 25.7061 27.4141C25.9231 27.8651 26.2416 28.0907 26.6617 28.0907C27.5087 28.0907 27.9322 27.2092 27.9322 25.4462C27.9322 23.6833 27.5121 22.8018 26.672 22.8018C26.245 22.8018 25.9231 23.0273 25.7061 23.4784C25.4892 23.926 25.3808 24.582 25.3808 25.4462ZM35.1425 29.2321H33.7376V25.9214H31.8834V29.2321H30.4785V21.681H31.8834V24.6818H33.7376V21.681H35.1425V29.2321ZM36.4802 21.681H37.7818V25.8284C37.7818 26.2588 37.749 26.6841 37.6836 27.1042H37.7404L40.044 21.681H41.7691V29.2321H40.4778V25.095C40.4778 24.5854 40.5174 24.1378 40.5966 23.7521H40.5295L38.2156 29.2321H36.4802V21.681ZM47.2181 24.0052C47.2181 24.8075 47.0149 25.4238 46.6086 25.8543C46.2058 26.2812 45.6221 26.4947 44.8577 26.4947H44.5065V29.2321H43.1016V21.681H45.0178C46.4847 21.681 47.2181 22.4557 47.2181 24.0052ZM44.5065 25.2758H44.7751C45.1194 25.2758 45.3759 25.1811 45.5446 24.9917C45.7134 24.8023 45.7977 24.4924 45.7977 24.062C45.7977 23.666 45.7202 23.3734 45.5653 23.184C45.4104 22.9912 45.171 22.8947 44.8474 22.8947H44.5065V25.2758ZM48.6178 29.3354C48.2562 29.3354 47.9532 29.2872 47.7087 29.1908V27.9409C47.9601 28.0407 48.2201 28.0907 48.4887 28.0907C48.9018 28.0907 49.2204 27.7067 49.4442 26.9389L47.5073 21.681H48.9793L49.94 24.6302C50.0192 24.9022 50.0691 25.1346 50.0898 25.3274H50.1311L50.2034 24.9762L50.2809 24.6302L51.1021 21.681H52.5225L50.8387 27.0215C50.5701 27.8651 50.2619 28.4625 49.9142 28.8138C49.5698 29.1615 49.1377 29.3354 48.6178 29.3354ZM53.1939 21.681H54.4955V25.8284C54.4955 26.2588 54.4628 26.6841 54.3973 27.1042H54.4541L56.7577 21.681H58.4828V29.2321H57.1916V25.095C57.1916 24.5854 57.2312 24.1378 57.3104 23.7521H57.2432L54.9293 29.2321H53.1939V21.681ZM57.7235 19.4033C57.6547 19.9817 57.4653 20.4053 57.1554 20.6738C56.849 20.9424 56.3962 21.0767 55.797 21.0767C55.2117 21.0767 54.7727 20.9458 54.48 20.6842C54.1873 20.419 54.0134 19.9921 53.9583 19.4033H55.0998C55.1376 19.7476 55.21 19.98 55.3167 20.1005C55.4269 20.221 55.5973 20.2813 55.828 20.2813C56.0553 20.2813 56.224 20.2124 56.3342 20.0747C56.4478 19.937 56.5236 19.7132 56.5614 19.4033H57.7235ZM62.1344 29.2321H60.7347V22.9154H59.2885V21.681H63.5806V22.9154H62.1344V29.2321ZM67.7952 29.2321H64.3915V21.681H67.7952V22.8947H65.7963V24.6921H67.6505V25.9111H65.7963V28.0029H67.7952V29.2321ZM74.0137 22.8018C73.6109 22.8018 73.2924 23.0376 73.0582 23.5094C72.8275 23.9811 72.7122 24.6371 72.7122 25.4772C72.7122 27.2264 73.1684 28.101 74.0809 28.101C74.4803 28.101 74.8987 27.9736 75.336 27.7188V28.9687C74.9675 29.2132 74.4958 29.3354 73.9208 29.3354C73.0703 29.3354 72.4161 28.998 71.9581 28.3231C71.5036 27.6448 71.2763 26.6927 71.2763 25.4669C71.2763 24.2411 71.5105 23.2856 71.9788 22.6003C72.4505 21.9151 73.1047 21.5725 73.9414 21.5725C74.2169 21.5725 74.4803 21.6104 74.7317 21.6862C74.9865 21.7619 75.2585 21.8945 75.5477 22.0839L75.0829 23.2253C74.9279 23.1186 74.7627 23.0221 74.587 22.9361C74.4114 22.8465 74.2203 22.8018 74.0137 22.8018ZM79.8088 29.2321H76.4051V21.681H79.8088V22.8947H77.81V24.6921H79.6642V25.9111H77.81V28.0029H79.8088V29.2321ZM80.9089 21.681H82.2105V25.8284C82.2105 26.2588 82.1778 26.6841 82.1123 27.1042H82.1692L84.4727 21.681H86.1978V29.2321H84.9066V25.095C84.9066 24.5854 84.9462 24.1378 85.0254 23.7521H84.9582L82.6443 29.2321H80.9089V21.681ZM85.4386 19.4033C85.3697 19.9817 85.1803 20.4053 84.8704 20.6738C84.564 20.9424 84.1112 21.0767 83.512 21.0767C82.9267 21.0767 82.4877 20.9458 82.195 20.6842C81.9023 20.419 81.7284 19.9921 81.6733 19.4033H82.8148C82.8527 19.7476 82.925 19.98 83.0317 20.1005C83.1419 20.221 83.3123 20.2813 83.543 20.2813C83.7703 20.2813 83.939 20.2124 84.0492 20.0747C84.1628 19.937 84.2386 19.7132 84.2765 19.4033H85.4386ZM92.1633 29.2321H90.7584V26.3036C90.2764 26.5997 89.7892 26.7478 89.2968 26.7478C88.7286 26.7478 88.2879 26.5756 87.9745 26.2313C87.6647 25.8835 87.5097 25.3997 87.5097 24.7799V21.681H88.9146V24.4701C88.9146 24.8316 88.9679 25.095 89.0747 25.2603C89.1849 25.4256 89.3639 25.5082 89.6118 25.5082C89.8184 25.5082 90.013 25.4738 90.1955 25.4049C90.378 25.3326 90.5656 25.2362 90.7584 25.1157V21.681H92.1633V29.2321ZM97.0752 29.2321L96.6413 27.3263H94.6735L94.2396 29.2321H92.8347L94.7045 21.65H96.6103L98.4852 29.2321H97.0752ZM96.3779 26.0815L95.975 24.3254C95.9509 24.2187 95.8958 23.9518 95.8097 23.5249C95.7271 23.0945 95.6772 22.8069 95.66 22.6623C95.6152 22.9584 95.5584 23.2856 95.4895 23.6437C95.4207 23.9983 95.2416 24.8109 94.9524 26.0815H96.3779ZM101.656 22.8018C101.254 22.8018 100.935 23.0376 100.701 23.5094C100.47 23.9811 100.355 24.6371 100.355 25.4772C100.355 27.2264 100.811 28.101 101.724 28.101C102.123 28.101 102.541 27.9736 102.979 27.7188V28.9687C102.61 29.2132 102.138 29.3354 101.563 29.3354C100.713 29.3354 100.059 28.998 99.6008 28.3231C99.1463 27.6448 98.919 26.6927 98.919 25.4669C98.919 24.2411 99.1532 23.2856 99.6215 22.6003C100.093 21.9151 100.747 21.5725 101.584 21.5725C101.86 21.5725 102.123 21.6104 102.374 21.6862C102.629 21.7619 102.901 21.8945 103.19 22.0839L102.726 23.2253C102.571 23.1186 102.405 23.0221 102.23 22.9361C102.054 22.8465 101.863 22.8018 101.656 22.8018Z" fill="#0090D7"/>
</svg>
