<svg width="300" height="600" viewBox="0 0 300 600" fill="none" xmlns="http://www.w3.org/2000/svg">
<path d="M53 429H233.003C241.212 429 247.866 435.654 247.866 443.863V469.829H67.8627C59.6542 469.829 53 463.175 53 454.966V429Z" fill="white"/>
<path d="M64.2397 458.439C63.3912 458.439 62.6801 458.326 62.1064 458.1V455.167C62.6963 455.401 63.3064 455.518 63.9367 455.518C64.9063 455.518 65.6537 454.617 66.179 452.815L61.6337 440.476H65.0881L67.3426 447.397C67.5284 448.036 67.6456 448.581 67.6941 449.034H67.791L67.9607 448.209L68.1425 447.397L70.0697 440.476H73.4029L69.4515 453.009C68.8213 454.989 68.0981 456.391 67.2819 457.215C66.4739 458.031 65.4598 458.439 64.2397 458.439ZM84.166 444.67C84.166 445.769 83.8388 446.682 83.1842 447.409C82.5378 448.129 81.6045 448.613 80.3844 448.864V448.961C81.7096 449.122 82.7358 449.567 83.463 450.294C84.1983 451.013 84.566 451.975 84.566 453.179C84.566 454.811 84.0408 456.096 82.9903 457.033C81.9479 457.971 80.5258 458.439 78.7238 458.439C76.8169 458.439 75.3301 458.16 74.2634 457.603V454.718C75.4593 455.381 76.732 455.712 78.0814 455.712C80.1985 455.712 81.2571 454.787 81.2571 452.936C81.2571 452.096 80.95 451.458 80.3359 451.021C79.7299 450.577 78.8289 450.355 77.633 450.355H76.4452V447.652H77.5118C78.6834 447.652 79.548 447.45 80.1056 447.046C80.6631 446.634 80.9419 445.999 80.9419 445.143C80.9419 444.456 80.7561 443.931 80.3844 443.567C80.0127 443.195 79.4753 443.01 78.7723 443.01C77.6976 443.01 76.6795 443.446 75.7179 444.319L74.1544 442.113C74.9543 441.426 75.7664 440.941 76.5906 440.658C77.4148 440.367 78.3319 440.222 79.342 440.222C80.8045 440.222 81.9722 440.63 82.8449 441.446C83.7256 442.254 84.166 443.329 84.166 444.67ZM97.9472 458.197H94.6504V450.427H90.2991V458.197H87.0022V440.476H90.2991V447.518H94.6504V440.476H97.9472V458.197ZM109.474 458.197L108.456 453.724H103.838L102.82 458.197H99.5229L103.911 440.404H108.383L112.783 458.197H109.474ZM107.838 450.803L106.892 446.682C106.836 446.432 106.706 445.805 106.504 444.803C106.31 443.793 106.193 443.119 106.153 442.779C106.048 443.474 105.914 444.242 105.753 445.082C105.591 445.915 105.171 447.822 104.492 450.803H107.838ZM114.346 440.476H117.401V450.209C117.401 451.219 117.324 452.217 117.171 453.203H117.304L122.71 440.476H126.758V458.197H123.728V448.488C123.728 447.292 123.821 446.242 124.007 445.337H123.849L118.419 458.197H114.346V440.476ZM124.976 435.131C124.815 436.489 124.37 437.483 123.643 438.113C122.924 438.743 121.861 439.058 120.455 439.058C119.082 439.058 118.051 438.751 117.364 438.137C116.678 437.515 116.27 436.513 116.14 435.131H118.819C118.908 435.939 119.078 436.485 119.328 436.767C119.587 437.05 119.987 437.192 120.528 437.192C121.061 437.192 121.457 437.03 121.716 436.707C121.982 436.384 122.16 435.858 122.249 435.131H124.976ZM135.327 458.197H132.043V443.373H128.649V440.476H138.721V443.373H135.327V458.197ZM148.611 458.197H140.624V440.476H148.611V443.325H143.921V447.543H148.272V450.403H143.921V455.312H148.611V458.197ZM167.108 452.561C167.108 454.355 166.647 455.744 165.726 456.73C164.813 457.708 163.504 458.197 161.799 458.197H157.326V440.476H165.738V443.349H160.623V447.397H161.665C163.459 447.397 164.813 447.83 165.726 448.694C166.647 449.559 167.108 450.848 167.108 452.561ZM160.623 455.336H161.641C163.071 455.336 163.787 454.451 163.787 452.682C163.787 451.833 163.605 451.223 163.241 450.852C162.886 450.472 162.28 450.282 161.423 450.282H160.623V455.336ZM181.616 449.312C181.616 452.246 181.067 454.5 179.968 456.076C178.869 457.651 177.297 458.439 175.253 458.439C173.2 458.439 171.625 457.655 170.526 456.088C169.427 454.512 168.877 452.246 168.877 449.288C168.877 446.355 169.427 444.109 170.526 442.549C171.625 440.981 173.208 440.198 175.277 440.198C177.321 440.198 178.889 440.985 179.98 442.561C181.071 444.129 181.616 446.379 181.616 449.312ZM172.247 449.312C172.247 451.332 172.501 452.872 173.01 453.93C173.519 454.989 174.267 455.518 175.253 455.518C177.24 455.518 178.234 453.45 178.234 449.312C178.234 445.175 177.249 443.107 175.277 443.107C174.275 443.107 173.519 443.636 173.01 444.694C172.501 445.745 172.247 447.284 172.247 449.312ZM195.155 458.197H191.858V443.373H189.204C188.84 447.462 188.476 450.84 188.113 453.506C187.87 455.211 187.43 456.459 186.792 457.251C186.161 458.043 185.317 458.439 184.258 458.439C183.604 458.439 183.066 458.35 182.646 458.173V455.445C182.889 455.542 183.188 455.591 183.543 455.591C183.996 455.591 184.339 455.235 184.573 454.524C184.816 453.813 185.087 452.217 185.386 449.737C185.693 447.256 186.012 444.169 186.343 440.476H195.155V458.197ZM207.954 452.561C207.954 454.346 207.481 455.732 206.536 456.718C205.591 457.704 204.249 458.197 202.512 458.197H198.294V440.476H201.591V447.397H202.439C206.116 447.397 207.954 449.118 207.954 452.561ZM201.591 455.336H202.415C203.886 455.336 204.621 454.451 204.621 452.682C204.621 451.825 204.439 451.211 204.076 450.84C203.72 450.468 203.11 450.282 202.245 450.282H201.591V455.336ZM220.62 455.288H224.45V440.476H227.747V458.197H210.221V440.476H213.518V455.288H217.348V440.476H220.62V455.288ZM238.862 458.197H230.874V440.476H238.862V443.325H234.171V447.543H238.522V450.403H234.171V455.312H238.862V458.197Z" fill="#0090D7"/>
</svg>
