<svg width="300" height="600" viewBox="0 0 300 600" fill="none" xmlns="http://www.w3.org/2000/svg">
<g clip-path="url(#clip0_4008_221)">
<path d="M104.48 512H88V552.986H104.48C106.662 553.003 108.762 552.16 110.319 550.642C111.877 549.125 112.766 547.056 112.791 544.889V520.222C112.791 518.044 111.92 515.955 110.371 514.414C108.822 512.872 106.72 512.004 104.527 512M96.232 544.889V520.222H100.38C100.919 520.22 101.453 520.324 101.951 520.528C102.45 520.732 102.902 521.032 103.283 521.41C103.665 521.789 103.966 522.238 104.172 522.733C104.377 523.228 104.482 523.759 104.48 524.294V540.754C104.486 541.295 104.384 541.832 104.18 542.333C103.976 542.834 103.674 543.291 103.291 543.675C102.908 544.06 102.452 544.365 101.95 544.573C101.447 544.782 100.908 544.889 100.364 544.889H96.232Z" fill="white"/>
<path d="M203.784 516.103C203.78 515.025 204.205 513.988 204.967 513.219C205.729 512.451 206.766 512.012 207.852 512H212V548.977C212 550.062 211.567 551.104 210.795 551.873C210.024 552.642 208.977 553.076 207.884 553.08H203.784V516.103Z" fill="white"/>
<path d="M168.427 534.349C166.529 536.232 164.135 537.545 161.52 538.139C161.942 538.646 162.235 539.247 162.374 539.891C162.513 540.534 162.495 541.201 162.319 541.836C162.144 542.471 161.818 543.055 161.368 543.538C160.918 544.021 160.357 544.39 159.734 544.613C159.11 544.836 158.442 544.906 157.785 544.819C157.128 544.731 156.502 544.488 155.959 544.11C155.417 543.731 154.974 543.229 154.669 542.645C154.363 542.061 154.203 541.412 154.203 540.754V538.483H145.86V548.976C145.893 550.051 146.346 551.071 147.123 551.819C147.901 552.568 148.941 552.986 150.024 552.986H158.271C160.508 552.988 162.705 552.39 164.627 551.255C166.55 550.119 168.128 548.489 169.195 546.536C170.261 544.583 170.776 542.38 170.686 540.16C170.595 537.941 169.902 535.786 168.68 533.926L168.364 534.239" fill="white"/>
<path d="M154.14 524.326C154.139 523.56 154.352 522.808 154.756 522.156C155.159 521.503 155.738 520.975 156.426 520.629V512H145.86V526.581H154.124L154.14 524.326Z" fill="white"/>
<path d="M125.186 528.225V512H121.117C120.024 511.996 118.974 512.422 118.197 513.185C117.419 513.948 116.978 514.986 116.97 516.072V526.612H121.117C122.648 526.576 124.132 527.138 125.249 528.178" fill="white"/>
<path d="M141.745 526.581V516.103C141.736 515.015 141.296 513.974 140.52 513.205C139.743 512.437 138.693 512.004 137.597 512H133.465V528.225C134.587 527.192 136.068 526.631 137.597 526.659L141.745 526.581Z" fill="white"/>
<path d="M174.893 552.986H179.009C179.553 552.988 180.092 552.883 180.595 552.678C181.098 552.473 181.555 552.171 181.941 551.79C182.326 551.408 182.632 550.955 182.841 550.456C183.049 549.958 183.157 549.423 183.157 548.883V538.483H174.893V552.986Z" fill="white"/>
<path d="M183.093 526.581V516.103C183.093 514.575 183.686 513.105 184.749 512H183.093C180.911 512.021 178.826 512.896 177.29 514.436C175.754 515.975 174.893 518.055 174.893 520.222V528.225C176.01 527.195 177.485 526.633 179.009 526.659L183.093 526.581Z" fill="white"/>
<path d="M191.499 538.483H191.373V548.977C191.373 550.066 191.808 551.112 192.582 551.884C193.357 552.656 194.407 553.091 195.505 553.095H199.636V534.302C198.727 535.616 197.513 536.694 196.097 537.446C194.681 538.198 193.105 538.602 191.499 538.624" fill="white"/>
<path d="M158.272 512V520.222C159.339 520.226 160.364 520.638 161.133 521.373C161.902 522.108 162.357 523.11 162.401 524.169C162.446 525.228 162.078 526.264 161.373 527.06C160.669 527.856 159.682 528.352 158.619 528.444H137.597C137.055 528.442 136.518 528.547 136.017 528.751C135.516 528.956 135.06 529.256 134.676 529.636C134.293 530.016 133.988 530.467 133.78 530.964C133.572 531.461 133.465 531.994 133.465 532.532V544.889H129.27C128.175 544.889 127.124 544.457 126.349 543.687C125.574 542.918 125.139 541.874 125.139 540.786V532.532C125.139 531.448 124.705 530.408 123.933 529.642C123.161 528.875 122.114 528.444 121.023 528.444H116.907V544.889C116.932 547.053 117.815 549.121 119.365 550.642C120.915 552.164 123.007 553.017 125.186 553.017H133.465C135.661 553.017 137.767 552.151 139.32 550.609C140.872 549.067 141.745 546.976 141.745 544.795V536.573H158.272C161.364 536.364 164.267 535.016 166.41 532.792C168.552 530.568 169.781 527.628 169.854 524.551C169.927 521.473 168.839 518.48 166.805 516.158C164.77 513.836 161.934 512.353 158.855 512H158.272Z" fill="white"/>
<path d="M156.032 538.421V540.692C156.032 541.265 156.261 541.815 156.669 542.22C157.077 542.625 157.631 542.853 158.208 542.853C158.803 542.862 159.378 542.642 159.813 542.239C160.248 541.836 160.509 541.282 160.542 540.692C160.572 540.121 160.373 539.562 159.989 539.136C159.605 538.71 159.067 538.453 158.492 538.421H156.032Z" fill="white"/>
<path d="M129.996 554.677V556.823C129.993 557.252 130.118 557.672 130.356 558.03C130.594 558.387 130.933 558.667 131.332 558.832C131.73 558.998 132.169 559.042 132.593 558.959C133.016 558.876 133.405 558.67 133.711 558.367C134.016 558.064 134.224 557.677 134.307 557.256C134.391 556.836 134.346 556.4 134.179 556.004C134.013 555.609 133.731 555.271 133.371 555.035C133.011 554.799 132.588 554.674 132.156 554.677H129.996Z" fill="white"/>
<path d="M123.877 554.677V556.823C123.874 557.251 123.999 557.67 124.236 558.028C124.473 558.385 124.812 558.665 125.209 558.831C125.607 558.997 126.045 559.042 126.468 558.96C126.891 558.879 127.281 558.674 127.586 558.372C127.892 558.071 128.101 557.686 128.187 557.266C128.272 556.846 128.23 556.411 128.065 556.015C127.901 555.619 127.622 555.281 127.264 555.043C126.906 554.804 126.484 554.677 126.053 554.677H123.877Z" fill="white"/>
<path d="M174.893 532.532C174.893 531.448 175.327 530.408 176.099 529.642C176.87 528.875 177.917 528.444 179.009 528.444H187.351C188.45 528.523 189.534 528.166 190.367 527.451C191.199 526.736 191.711 525.721 191.791 524.631C191.87 523.541 191.51 522.464 190.79 521.637C190.07 520.81 189.049 520.301 187.951 520.222H185.112V516.103C185.111 515.042 185.525 514.021 186.266 513.256C187.007 512.491 188.018 512.041 189.086 512H191.373C193.562 512 195.661 512.862 197.211 514.398C198.76 515.934 199.632 518.017 199.637 520.191V528.444C199.632 530.62 198.76 532.705 197.212 534.243C195.663 535.781 193.563 536.647 191.373 536.651H174.893V532.532Z" fill="white"/>
</g>
<defs>
<clipPath id="clip0_4008_221">
<rect width="124" height="47" fill="white" transform="translate(88 512)"/>
</clipPath>
</defs>
</svg>
