<svg width="120" height="600" viewBox="0 0 120 600" fill="none" xmlns="http://www.w3.org/2000/svg">
<path d="M39.0103 76.6943H36.0454V72H28.6782V76.6943H25.7134V69.3047H26.6792C28.2215 65.2093 29.2098 60.6348 29.644 55.5811H37.146V69.3047H39.0103V76.6943ZM34.0913 69.3047V58.2651H32.2271C32.0399 60.0845 31.7367 61.9749 31.3174 63.9365C30.9056 65.8906 30.4189 67.68 29.8574 69.3047H34.0913ZM41.7842 72.2246C40.998 72.2246 40.3392 72.1198 39.8076 71.9102V69.1924C40.3542 69.4095 40.9194 69.5181 41.5034 69.5181C42.4019 69.5181 43.0944 68.6833 43.5811 67.0137L39.3696 55.5811H42.5703L44.6592 61.9937C44.8314 62.5851 44.9399 63.0905 44.9849 63.5098H45.0747L45.2319 62.7461L45.4004 61.9937L47.186 55.5811H50.2744L46.6133 67.1934C46.0293 69.0277 45.3592 70.3267 44.603 71.0903C43.8543 71.8465 42.9147 72.2246 41.7842 72.2246ZM60.7974 66.7778C60.7974 68.4399 60.3706 69.7277 59.5171 70.6411C58.6711 71.547 57.4582 72 55.8784 72H51.7344V55.5811H59.5283V58.2427H54.7891V61.9937H55.7549C57.417 61.9937 58.6711 62.3942 59.5171 63.1953C60.3706 63.9964 60.7974 65.1906 60.7974 66.7778ZM54.7891 69.3496H55.7324C57.0576 69.3496 57.7202 68.5298 57.7202 66.8901C57.7202 66.104 57.5518 65.5387 57.2148 65.1943C56.8854 64.8424 56.3239 64.6665 55.5303 64.6665H54.7891V69.3496ZM70.7139 72L69.7705 67.856H65.4917L64.5483 72H61.4937L65.5591 55.5137H69.7031L73.7798 72H70.7139ZM69.1978 65.1494L68.3218 61.3311C68.2694 61.099 68.1496 60.5187 67.9624 59.5903C67.7827 58.6545 67.6742 58.0293 67.6367 57.7148C67.5394 58.3587 67.4159 59.07 67.2661 59.8486C67.1164 60.6198 66.7271 62.3867 66.0981 65.1494H69.1978ZM75.2285 55.5811H78.0586V64.5991C78.0586 65.535 77.9875 66.4596 77.8452 67.373H77.9688L82.9775 55.5811H86.7285V72H83.9209V63.0044C83.9209 61.8963 84.007 60.923 84.1792 60.0845H84.0332L79.002 72H75.2285V55.5811ZM85.0776 50.6284C84.9279 51.8862 84.5161 52.8071 83.8423 53.3911C83.1759 53.9751 82.1914 54.2671 80.8887 54.2671C79.6159 54.2671 78.6613 53.9826 78.0249 53.4136C77.3885 52.8371 77.0104 51.9087 76.8906 50.6284H79.3726C79.4549 51.3771 79.6121 51.8825 79.8442 52.1445C80.0838 52.4066 80.4544 52.5376 80.9561 52.5376C81.4502 52.5376 81.8171 52.3879 82.0566 52.0884C82.3037 51.7889 82.4684 51.3022 82.5508 50.6284H85.0776ZM89.4238 70.4614C89.4238 69.8774 89.5773 69.4245 89.8843 69.1025C90.1987 68.7806 90.6629 68.6196 91.2769 68.6196C91.8908 68.6196 92.355 68.7806 92.6694 69.1025C92.9839 69.417 93.1411 69.87 93.1411 70.4614C93.1411 71.0454 92.9764 71.4984 92.647 71.8203C92.325 72.1423 91.8683 72.3032 91.2769 72.3032C90.6704 72.3032 90.21 72.1423 89.8955 71.8203C89.5811 71.4909 89.4238 71.0379 89.4238 70.4614ZM41.2114 104.694H38.2466V100H30.8794V104.694H27.9146V97.3047H28.8804C30.4227 93.2093 31.411 88.6348 31.8452 83.5811H39.3472V97.3047H41.2114V104.694ZM36.2925 97.3047V86.2651H34.4282C34.241 88.0845 33.9378 89.9749 33.5186 91.9365C33.1068 93.8906 32.6201 95.68 32.0586 97.3047H36.2925ZM50.791 100L49.8477 95.856H45.5688L44.6255 100H41.5708L45.6362 83.5137H49.7803L53.8569 100H50.791ZM49.2749 93.1494L48.3989 89.3311C48.3465 89.099 48.2267 88.5187 48.0396 87.5903C47.8599 86.6545 47.7513 86.0293 47.7139 85.7148C47.6165 86.3587 47.493 87.07 47.3433 87.8486C47.1935 88.6198 46.8042 90.3867 46.1753 93.1494H49.2749ZM55.3057 83.5811H59.4946C61.2017 83.5811 62.4445 83.9142 63.2231 84.5806C64.0018 85.2394 64.3911 86.2913 64.3911 87.7363C64.3911 88.6872 64.1852 89.4845 63.7734 90.1284C63.3617 90.7648 62.8001 91.1504 62.0889 91.2852V91.3975C63.0173 91.6296 63.6873 92.0638 64.0991 92.7002C64.5109 93.3366 64.7168 94.1826 64.7168 95.2383C64.7168 96.7282 64.3162 97.8962 63.5151 98.7422C62.7215 99.5807 61.6322 100 60.2471 100H55.3057V83.5811ZM58.1807 90.1846H59.5845C60.2284 90.1846 60.6813 90.0124 60.9434 89.668C61.2054 89.3236 61.3364 88.8107 61.3364 88.1294C61.3364 87.4481 61.1867 86.9614 60.8872 86.6694C60.5877 86.37 60.116 86.2202 59.4722 86.2202H58.1807V90.1846ZM58.1807 92.7339V97.3271H59.7192C60.3556 97.3271 60.8273 97.1325 61.1343 96.7432C61.4487 96.3538 61.606 95.7511 61.606 94.9351C61.606 93.4676 60.9621 92.7339 59.6743 92.7339H58.1807ZM74.7344 100L73.791 95.856H69.5122L68.5688 100H65.5142L69.5796 83.5137H73.7236L77.8003 100H74.7344ZM73.2183 93.1494L72.3423 89.3311C72.2899 89.099 72.1701 88.5187 71.9829 87.5903C71.8032 86.6545 71.6947 86.0293 71.6572 85.7148C71.5599 86.3587 71.4364 87.07 71.2866 87.8486C71.1369 88.6198 70.7476 90.3867 70.1187 93.1494H73.2183ZM79.249 83.5811H82.0791V92.5991C82.0791 93.535 82.008 94.4596 81.8657 95.373H81.9893L86.998 83.5811H90.749V100H87.9414V91.0044C87.9414 89.8963 88.0275 88.923 88.1997 88.0845H88.0537L83.0225 100H79.249V83.5811ZM89.0981 78.6284C88.9484 79.8862 88.5366 80.8071 87.8628 81.3911C87.1965 81.9751 86.2119 82.2671 84.9092 82.2671C83.6364 82.2671 82.6818 81.9826 82.0454 81.4136C81.409 80.8371 81.0309 79.9087 80.9111 78.6284H83.3931C83.4754 79.3771 83.6326 79.8825 83.8647 80.1445C84.1043 80.4066 84.4749 80.5376 84.9766 80.5376C85.4707 80.5376 85.8376 80.3879 86.0771 80.0884C86.3242 79.7889 86.4889 79.3022 86.5713 78.6284H89.0981ZM19.0088 128H15.9766V114.265H11.9224V128H8.86768V111.581H19.0088V128ZM33.2153 119.768C33.2153 122.486 32.7062 124.575 31.688 126.035C30.6698 127.495 29.2135 128.225 27.3193 128.225C25.4176 128.225 23.9577 127.498 22.9395 126.046C21.9212 124.586 21.4121 122.486 21.4121 119.746C21.4121 117.028 21.9212 114.946 22.9395 113.501C23.9577 112.049 25.4251 111.323 27.3418 111.323C29.236 111.323 30.6885 112.053 31.6992 113.513C32.71 114.965 33.2153 117.05 33.2153 119.768ZM24.5342 119.768C24.5342 121.64 24.77 123.066 25.2417 124.047C25.7134 125.028 26.4059 125.518 27.3193 125.518C29.1611 125.518 30.082 123.601 30.082 119.768C30.082 115.935 29.1686 114.018 27.3418 114.018C26.4134 114.018 25.7134 114.508 25.2417 115.489C24.77 116.463 24.5342 117.889 24.5342 119.768ZM51.4424 128H48.3877V120.801H44.356V128H41.3013V111.581H44.356V118.106H48.3877V111.581H51.4424V128ZM65.6489 119.768C65.6489 122.486 65.1398 124.575 64.1216 126.035C63.1034 127.495 61.6471 128.225 59.7529 128.225C57.8512 128.225 56.3913 127.498 55.373 126.046C54.3548 124.586 53.8457 122.486 53.8457 119.746C53.8457 117.028 54.3548 114.946 55.373 113.501C56.3913 112.049 57.8587 111.323 59.7754 111.323C61.6696 111.323 63.1221 112.053 64.1328 113.513C65.1436 114.965 65.6489 117.05 65.6489 119.768ZM56.9678 119.768C56.9678 121.64 57.2036 123.066 57.6753 124.047C58.147 125.028 58.8395 125.518 59.7529 125.518C61.5947 125.518 62.5156 123.601 62.5156 119.768C62.5156 115.935 61.6022 114.018 59.7754 114.018C58.847 114.018 58.147 114.508 57.6753 115.489C57.2036 116.463 56.9678 117.889 56.9678 119.768ZM68.0522 111.581H72.2412C73.9482 111.581 75.1911 111.914 75.9697 112.581C76.7484 113.239 77.1377 114.291 77.1377 115.736C77.1377 116.687 76.9318 117.485 76.52 118.128C76.1082 118.765 75.5467 119.15 74.8354 119.285V119.397C75.7638 119.63 76.4339 120.064 76.8457 120.7C77.2575 121.337 77.4634 122.183 77.4634 123.238C77.4634 124.728 77.0628 125.896 76.2617 126.742C75.4681 127.581 74.3787 128 72.9937 128H68.0522V111.581ZM70.9272 118.185H72.3311C72.9749 118.185 73.4279 118.012 73.6899 117.668C73.952 117.324 74.083 116.811 74.083 116.129C74.083 115.448 73.9333 114.961 73.6338 114.669C73.3343 114.37 72.8626 114.22 72.2188 114.22H70.9272V118.185ZM70.9272 120.734V125.327H72.4658C73.1022 125.327 73.5739 125.132 73.8809 124.743C74.1953 124.354 74.3525 123.751 74.3525 122.935C74.3525 121.468 73.7087 120.734 72.4209 120.734H70.9272ZM91.0073 119.768C91.0073 122.486 90.4982 124.575 89.48 126.035C88.4618 127.495 87.0055 128.225 85.1113 128.225C83.2096 128.225 81.7497 127.498 80.7314 126.046C79.7132 124.586 79.2041 122.486 79.2041 119.746C79.2041 117.028 79.7132 114.946 80.7314 113.501C81.7497 112.049 83.2171 111.323 85.1338 111.323C87.028 111.323 88.4805 112.053 89.4912 113.513C90.502 114.965 91.0073 117.05 91.0073 119.768ZM82.3262 119.768C82.3262 121.64 82.562 123.066 83.0337 124.047C83.5054 125.028 84.1979 125.518 85.1113 125.518C86.9531 125.518 87.874 123.601 87.874 119.768C87.874 115.935 86.9606 114.018 85.1338 114.018C84.2054 114.018 83.5054 114.508 83.0337 115.489C82.562 116.463 82.3262 117.889 82.3262 119.768ZM93.4106 111.581H96.2407V120.599C96.2407 121.535 96.1696 122.46 96.0273 123.373H96.1509L101.16 111.581H104.911V128H102.103V119.004C102.103 117.896 102.189 116.923 102.361 116.084H102.215L97.1841 128H93.4106V111.581ZM103.26 106.628C103.11 107.886 102.698 108.807 102.024 109.391C101.358 109.975 100.374 110.267 99.0708 110.267C97.798 110.267 96.8434 109.983 96.207 109.414C95.5706 108.837 95.1925 107.909 95.0728 106.628H97.5547C97.637 107.377 97.7943 107.882 98.0264 108.145C98.266 108.407 98.6366 108.538 99.1382 108.538C99.6323 108.538 99.9992 108.388 100.239 108.088C100.486 107.789 100.651 107.302 100.733 106.628H103.26ZM107.606 126.461C107.606 125.877 107.759 125.424 108.066 125.103C108.381 124.781 108.845 124.62 109.459 124.62C110.073 124.62 110.537 124.781 110.852 125.103C111.166 125.417 111.323 125.87 111.323 126.461C111.323 127.045 111.159 127.498 110.829 127.82C110.507 128.142 110.05 128.303 109.459 128.303C108.853 128.303 108.392 128.142 108.078 127.82C107.763 127.491 107.606 127.038 107.606 126.461Z" fill="white"/>
</svg>
