<svg width="320" height="50" viewBox="0 0 320 50" fill="none" xmlns="http://www.w3.org/2000/svg">
<path d="M19.313 16.6313C19.313 18.4038 18.981 19.7661 18.3169 20.7183C17.6528 21.6704 16.7031 22.1465 15.4678 22.1465C14.2275 22.1465 13.2754 21.6729 12.6113 20.7256C11.9473 19.7734 11.6152 18.4038 11.6152 16.6167C11.6152 14.8442 11.9473 13.4868 12.6113 12.5444C13.2754 11.5972 14.2324 11.1235 15.4824 11.1235C16.7178 11.1235 17.665 11.5996 18.3242 12.5518C18.9834 13.499 19.313 14.8589 19.313 16.6313ZM13.6514 16.6313C13.6514 17.8521 13.8052 18.7822 14.1128 19.4219C14.4204 20.0615 14.8721 20.3813 15.4678 20.3813C16.6689 20.3813 17.2695 19.1313 17.2695 16.6313C17.2695 14.1313 16.6738 12.8813 15.4824 12.8813C14.877 12.8813 14.4204 13.2012 14.1128 13.8408C13.8052 14.4756 13.6514 15.4058 13.6514 16.6313ZM20.8804 11.292H22.7261V17.1733C22.7261 17.7837 22.6797 18.3867 22.5869 18.9824H22.6675L25.9341 11.292H28.3804V22H26.5493V16.1333C26.5493 15.4106 26.6055 14.7759 26.7178 14.229H26.6226L23.3413 22H20.8804V11.292ZM27.3037 8.06201C27.2061 8.88232 26.9375 9.48291 26.498 9.86377C26.0635 10.2446 25.4214 10.4351 24.5718 10.4351C23.7417 10.4351 23.1191 10.2495 22.7041 9.87842C22.2891 9.50244 22.0425 8.89697 21.9644 8.06201H23.583C23.6367 8.55029 23.7393 8.87988 23.8906 9.05078C24.0469 9.22168 24.2886 9.30713 24.6157 9.30713C24.938 9.30713 25.1772 9.20947 25.3335 9.01416C25.4946 8.81885 25.6021 8.50146 25.6558 8.06201H27.3037ZM36.1807 18.5942C36.1807 19.6782 35.9023 20.5181 35.3457 21.1138C34.7939 21.7046 34.0029 22 32.9727 22H30.27V11.292H35.353V13.0278H32.2622V15.4741H32.8921C33.9761 15.4741 34.7939 15.7354 35.3457 16.2578C35.9023 16.7803 36.1807 17.5591 36.1807 18.5942ZM32.2622 20.2715H32.8774C33.7417 20.2715 34.1738 19.7368 34.1738 18.6675C34.1738 18.1548 34.064 17.7861 33.8442 17.5615C33.6294 17.332 33.2632 17.2173 32.7456 17.2173H32.2622V20.2715ZM42.6479 22L42.0327 19.2974H39.2422L38.627 22H36.6348L39.2861 11.248H41.9888L44.6475 22H42.6479ZM41.6592 17.5322L41.0879 15.042C41.0537 14.8906 40.9756 14.5122 40.8535 13.9067C40.7363 13.2964 40.6655 12.8887 40.6411 12.6836C40.5776 13.1035 40.4971 13.5674 40.3994 14.0752C40.3018 14.5781 40.0479 15.7305 39.6377 17.5322H41.6592ZM45.5923 11.292H47.438V17.1733C47.438 17.7837 47.3916 18.3867 47.2988 18.9824H47.3794L50.646 11.292H53.0923V22H51.2612V16.1333C51.2612 15.4106 51.3174 14.7759 51.4297 14.229H51.3345L48.0532 22H45.5923V11.292ZM52.0156 8.06201C51.918 8.88232 51.6494 9.48291 51.21 9.86377C50.7754 10.2446 50.1333 10.4351 49.2837 10.4351C48.4536 10.4351 47.8311 10.2495 47.416 9.87842C47.001 9.50244 46.7544 8.89697 46.6763 8.06201H48.2949C48.3486 8.55029 48.4512 8.87988 48.6025 9.05078C48.7588 9.22168 49.0005 9.30713 49.3276 9.30713C49.6499 9.30713 49.8892 9.20947 50.0454 9.01416C50.2065 8.81885 50.314 8.50146 50.3677 8.06201H52.0156ZM56.8716 18.5503H55.2676L54.9087 11.292H57.2451L56.8716 18.5503ZM54.8501 20.9966C54.8501 20.6157 54.9502 20.3203 55.1504 20.1104C55.3555 19.9004 55.6582 19.7954 56.0586 19.7954C56.459 19.7954 56.7617 19.9004 56.9668 20.1104C57.1719 20.3154 57.2744 20.6108 57.2744 20.9966C57.2744 21.3774 57.167 21.6729 56.9521 21.8828C56.7422 22.0928 56.4443 22.1978 56.0586 22.1978C55.6631 22.1978 55.3628 22.0928 55.1577 21.8828C54.9526 21.668 54.8501 21.3726 54.8501 20.9966ZM19.7451 43.0615H17.8115V40H13.0068V43.0615H11.0732V38.2422H11.7031C12.709 35.5713 13.3535 32.5879 13.6367 29.292H18.5293V38.2422H19.7451V43.0615ZM16.5371 38.2422V31.0425H15.3213C15.1992 32.229 15.0015 33.4619 14.728 34.7412C14.4595 36.0156 14.1421 37.1826 13.7759 38.2422H16.5371ZM25.9927 40L25.3774 37.2974H22.5869L21.9717 40H19.9795L22.6309 29.248H25.3335L27.9922 40H25.9927ZM25.0039 35.5322L24.4326 33.042C24.3984 32.8906 24.3203 32.5122 24.1982 31.9067C24.0811 31.2964 24.0103 30.8887 23.9858 30.6836C23.9224 31.1035 23.8418 31.5674 23.7441 32.0752C23.6465 32.5781 23.3926 33.7305 22.9824 35.5322H25.0039ZM28.937 29.292H31.6689C32.7822 29.292 33.5928 29.5093 34.1006 29.9438C34.6084 30.3735 34.8623 31.0596 34.8623 32.002C34.8623 32.6221 34.728 33.1421 34.4595 33.562C34.1909 33.9771 33.8247 34.2285 33.3608 34.3164V34.3896C33.9663 34.541 34.4033 34.8242 34.6719 35.2393C34.9404 35.6543 35.0747 36.2061 35.0747 36.8945C35.0747 37.8662 34.8135 38.6279 34.291 39.1797C33.7734 39.7266 33.063 40 32.1597 40H28.937V29.292ZM30.812 33.5986H31.7275C32.1475 33.5986 32.4429 33.4863 32.6138 33.2617C32.7847 33.0371 32.8701 32.7026 32.8701 32.2583C32.8701 31.814 32.7725 31.4966 32.5771 31.3062C32.3818 31.1108 32.0742 31.0132 31.6543 31.0132H30.812V33.5986ZM30.812 35.2612V38.2568H31.8154C32.2305 38.2568 32.5381 38.1299 32.7383 37.876C32.9434 37.6221 33.0459 37.229 33.0459 36.6968C33.0459 35.7397 32.626 35.2612 31.7861 35.2612H30.812ZM41.6079 40L40.9927 37.2974H38.2021L37.5869 40H35.5947L38.2461 29.248H40.9487L43.6074 40H41.6079ZM40.6191 35.5322L40.0479 33.042C40.0137 32.8906 39.9355 32.5122 39.8135 31.9067C39.6963 31.2964 39.6255 30.8887 39.6011 30.6836C39.5376 31.1035 39.457 31.5674 39.3594 32.0752C39.2617 32.5781 39.0078 33.7305 38.5977 35.5322H40.6191ZM44.5522 29.292H46.3979V35.1733C46.3979 35.7837 46.3516 36.3867 46.2588 36.9824H46.3394L49.606 29.292H52.0522V40H50.2212V34.1333C50.2212 33.4106 50.2773 32.7759 50.3896 32.229H50.2944L47.0132 40H44.5522V29.292ZM50.9756 26.062C50.8779 26.8823 50.6094 27.4829 50.1699 27.8638C49.7354 28.2446 49.0933 28.4351 48.2437 28.4351C47.4136 28.4351 46.791 28.2495 46.376 27.8784C45.9609 27.5024 45.7144 26.897 45.6362 26.062H47.2549C47.3086 26.5503 47.4111 26.8799 47.5625 27.0508C47.7188 27.2217 47.9604 27.3071 48.2876 27.3071C48.6099 27.3071 48.8491 27.2095 49.0054 27.0142C49.1665 26.8188 49.2739 26.5015 49.3276 26.062H50.9756ZM57.6479 29.292H60.3799C61.4932 29.292 62.3037 29.5093 62.8115 29.9438C63.3193 30.3735 63.5732 31.0596 63.5732 32.002C63.5732 32.6221 63.439 33.1421 63.1704 33.562C62.9019 33.9771 62.5356 34.2285 62.0718 34.3164V34.3896C62.6772 34.541 63.1143 34.8242 63.3828 35.2393C63.6514 35.6543 63.7856 36.2061 63.7856 36.8945C63.7856 37.8662 63.5244 38.6279 63.002 39.1797C62.4844 39.7266 61.7739 40 60.8706 40H57.6479V29.292ZM59.5229 33.5986H60.4385C60.8584 33.5986 61.1538 33.4863 61.3247 33.2617C61.4956 33.0371 61.5811 32.7026 61.5811 32.2583C61.5811 31.814 61.4834 31.4966 61.2881 31.3062C61.0928 31.1108 60.7852 31.0132 60.3652 31.0132H59.5229V33.5986ZM59.5229 35.2612V38.2568H60.5264C60.9414 38.2568 61.249 38.1299 61.4492 37.876C61.6543 37.6221 61.7568 37.229 61.7568 36.6968C61.7568 35.7397 61.3369 35.2612 60.4971 35.2612H59.5229ZM76.7568 43.0615H74.8232V40H70.0186V43.0615H68.085V38.2422H68.7148C69.7207 35.5713 70.3652 32.5879 70.6484 29.292H75.541V38.2422H76.7568V43.0615ZM73.5488 38.2422V31.0425H72.333C72.2109 32.229 72.0132 33.4619 71.7397 34.7412C71.4712 36.0156 71.1538 37.1826 70.7876 38.2422H73.5488ZM78.5659 40.1465C78.0532 40.1465 77.6235 40.0781 77.2769 39.9414V38.1689C77.6333 38.3105 78.002 38.3813 78.3828 38.3813C78.9688 38.3813 79.4204 37.8369 79.7378 36.748L76.9912 29.292H79.0786L80.4409 33.4741C80.5532 33.8599 80.624 34.1895 80.6533 34.4629H80.7119L80.8145 33.9648L80.9243 33.4741L82.0889 29.292H84.103L81.7153 36.8652C81.3345 38.0615 80.8975 38.9087 80.4043 39.4067C79.916 39.8999 79.3032 40.1465 78.5659 40.1465ZM90.9658 36.5942C90.9658 37.6782 90.6875 38.5181 90.1309 39.1138C89.5791 39.7046 88.7881 40 87.7578 40H85.0552V29.292H90.1382V31.0278H87.0474V33.4741H87.6772C88.7612 33.4741 89.5791 33.7354 90.1309 34.2578C90.6875 34.7803 90.9658 35.5591 90.9658 36.5942ZM87.0474 38.2715H87.6626C88.5269 38.2715 88.959 37.7368 88.959 36.6675C88.959 36.1548 88.8491 35.7861 88.6294 35.5615C88.4146 35.332 88.0483 35.2173 87.5308 35.2173H87.0474V38.2715ZM97.4331 40L96.8179 37.2974H94.0273L93.4121 40H91.4199L94.0713 29.248H96.7739L99.4326 40H97.4331ZM96.4443 35.5322L95.873 33.042C95.8389 32.8906 95.7607 32.5122 95.6387 31.9067C95.5215 31.2964 95.4507 30.8887 95.4263 30.6836C95.3628 31.1035 95.2822 31.5674 95.1846 32.0752C95.0869 32.5781 94.833 33.7305 94.4229 35.5322H96.4443ZM100.377 29.292H102.223V35.1733C102.223 35.7837 102.177 36.3867 102.084 36.9824H102.165L105.431 29.292H107.877V40H106.046V34.1333C106.046 33.4106 106.103 32.7759 106.215 32.229H106.12L102.838 40H100.377V29.292ZM106.801 26.062C106.703 26.8823 106.435 27.4829 105.995 27.8638C105.561 28.2446 104.918 28.4351 104.069 28.4351C103.239 28.4351 102.616 28.2495 102.201 27.8784C101.786 27.5024 101.54 26.897 101.461 26.062H103.08C103.134 26.5503 103.236 26.8799 103.388 27.0508C103.544 27.2217 103.786 27.3071 104.113 27.3071C104.435 27.3071 104.674 27.2095 104.831 27.0142C104.992 26.8188 105.099 26.5015 105.153 26.062H106.801ZM111.657 36.5503H110.053L109.694 29.292H112.03L111.657 36.5503ZM109.635 38.9966C109.635 38.6157 109.735 38.3203 109.936 38.1104C110.141 37.9004 110.443 37.7954 110.844 37.7954C111.244 37.7954 111.547 37.9004 111.752 38.1104C111.957 38.3154 112.06 38.6108 112.06 38.9966C112.06 39.3774 111.952 39.6729 111.737 39.8828C111.527 40.0928 111.229 40.1978 110.844 40.1978C110.448 40.1978 110.148 40.0928 109.943 39.8828C109.738 39.668 109.635 39.3726 109.635 38.9966Z" fill="white"/>
</svg>
