<svg width="320" height="50" viewBox="0 0 320 50" fill="none" xmlns="http://www.w3.org/2000/svg">
<g clip-path="url(#clip0_4017_3561)">
<path d="M254.708 15H247V34.1709H254.708C255.729 34.1787 256.711 33.7845 257.44 33.0747C258.168 32.3648 258.584 31.3972 258.596 30.3836V18.8459C258.596 17.8272 258.189 16.8501 257.464 16.129C256.739 15.408 255.756 15.0019 254.73 15M250.85 30.3836V18.8459H252.79C253.043 18.8449 253.292 18.8935 253.526 18.9889C253.759 19.0843 253.97 19.2245 254.149 19.4016C254.327 19.5786 254.468 19.789 254.564 20.0205C254.66 20.252 254.709 20.5001 254.708 20.7505V28.4496C254.711 28.7026 254.664 28.9535 254.568 29.1881C254.473 29.4226 254.331 29.636 254.152 29.8158C253.973 29.9957 253.76 30.1385 253.525 30.2359C253.29 30.3334 253.038 30.3836 252.783 30.3836H250.85Z" fill="white"/>
<path d="M301.157 16.9193C301.155 16.4147 301.354 15.9298 301.711 15.5703C302.067 15.2108 302.552 15.0058 303.06 15H305V32.2956C305 32.8033 304.798 33.2904 304.437 33.6501C304.076 34.0098 303.586 34.2129 303.075 34.2148H301.157V16.9193Z" fill="white"/>
<path d="M284.619 25.4535C283.731 26.3343 282.612 26.9487 281.388 27.2263C281.586 27.4637 281.723 27.7447 281.788 28.0457C281.853 28.3468 281.844 28.6589 281.762 28.9558C281.68 29.2528 281.527 29.5258 281.317 29.7518C281.106 29.9778 280.844 30.1502 280.553 30.2545C280.261 30.3588 279.948 30.3918 279.641 30.3508C279.334 30.3099 279.041 30.1961 278.787 30.0191C278.534 29.8421 278.327 29.6072 278.183 29.334C278.041 29.0609 277.966 28.7575 277.966 28.4497V27.3875H274.063V32.2956C274.079 32.7983 274.291 33.2752 274.654 33.6253C275.018 33.9754 275.504 34.1711 276.011 34.1709H279.869C280.915 34.172 281.942 33.8923 282.842 33.3612C283.741 32.8302 284.479 32.0676 284.978 31.1542C285.477 30.2407 285.718 29.2103 285.675 28.172C285.633 27.1337 285.309 26.1261 284.737 25.2557L284.589 25.4023" fill="white"/>
<path d="M277.936 20.7652C277.936 20.4069 278.035 20.0555 278.224 19.7503C278.413 19.445 278.684 19.1979 279.006 19.0364V15H274.063V21.8201H277.929L277.936 20.7652Z" fill="white"/>
<path d="M264.393 22.5893V15H262.49C261.979 14.9981 261.488 15.1974 261.124 15.5544C260.761 15.9114 260.554 16.3969 260.55 16.9046V21.8347H262.49C263.206 21.8176 263.9 22.0807 264.423 22.5673" fill="white"/>
<path d="M272.139 21.8201V16.9193C272.135 16.4102 271.929 15.9231 271.566 15.5638C271.203 15.2045 270.711 15.0019 270.199 15H268.266V22.5893C268.791 22.106 269.483 21.8434 270.199 21.8567L272.139 21.8201Z" fill="white"/>
<path d="M287.644 34.1708H289.569C289.823 34.1717 290.075 34.1228 290.311 34.0267C290.546 33.9307 290.76 33.7895 290.94 33.6112C291.12 33.4329 291.263 33.221 291.361 32.9877C291.459 32.7543 291.509 32.5041 291.509 32.2515V27.3873H287.644V34.1708Z" fill="white"/>
<path d="M291.479 21.8201V16.9193C291.479 16.2044 291.756 15.5169 292.254 15H291.479C290.459 15.0097 289.483 15.4191 288.765 16.1393C288.046 16.8595 287.644 17.8322 287.644 18.8459V22.5893C288.166 22.1072 288.856 21.8446 289.569 21.8567L291.479 21.8201Z" fill="white"/>
<path d="M295.411 27.3874H295.352V32.2955C295.352 32.8052 295.556 33.2942 295.918 33.6553C296.28 34.0164 296.771 34.2202 297.285 34.2221H299.217V25.4315C298.792 26.0461 298.224 26.5504 297.562 26.9022C296.899 27.2539 296.162 27.4429 295.411 27.4533" fill="white"/>
<path d="M279.869 15V18.8459C280.368 18.8476 280.848 19.0404 281.208 19.3842C281.567 19.728 281.78 20.1964 281.801 20.6918C281.822 21.1872 281.649 21.6716 281.32 22.0441C280.99 22.4167 280.529 22.6486 280.031 22.6918H270.199C269.945 22.6908 269.694 22.7396 269.46 22.8352C269.225 22.9309 269.012 23.0715 268.833 23.2492C268.653 23.4268 268.511 23.6379 268.413 23.8704C268.316 24.1028 268.266 24.352 268.266 24.6038V30.3836H266.304C265.791 30.3836 265.3 30.1814 264.937 29.8214C264.575 29.4615 264.371 28.9733 264.371 28.4643V24.6038C264.371 24.0966 264.169 23.6103 263.808 23.2518C263.446 22.8932 262.957 22.6918 262.446 22.6918H260.521V30.3836C260.533 31.3959 260.946 32.3629 261.671 33.0747C262.396 33.7864 263.374 34.1856 264.394 34.1855H268.266C269.293 34.1855 270.278 33.7804 271.004 33.0591C271.731 32.3378 272.139 31.3596 272.139 30.3396V26.4937H279.869C281.316 26.3963 282.673 25.7655 283.676 24.7252C284.678 23.6848 285.253 22.31 285.287 20.8705C285.321 19.4311 284.812 18.0309 283.86 16.9448C282.908 15.8587 281.582 15.165 280.142 15H279.869Z" fill="white"/>
<path d="M278.821 27.3582V28.4204C278.821 28.6885 278.929 28.9456 279.119 29.1352C279.31 29.3248 279.569 29.4313 279.839 29.4313C280.117 29.4355 280.387 29.3326 280.59 29.1441C280.794 28.9557 280.916 28.6963 280.931 28.4204C280.945 28.1534 280.852 27.8917 280.672 27.6926C280.493 27.4936 280.241 27.3733 279.972 27.3582H278.821Z" fill="white"/>
<path d="M266.643 34.9619V35.9655C266.642 36.1661 266.7 36.3625 266.812 36.5299C266.923 36.6973 267.082 36.828 267.268 36.9054C267.454 36.9828 267.66 37.0034 267.858 36.9647C268.056 36.9259 268.238 36.8295 268.381 36.6877C268.524 36.5459 268.621 36.365 268.66 36.1682C268.699 35.9715 268.678 35.7676 268.6 35.5826C268.522 35.3976 268.39 35.2398 268.222 35.1293C268.053 35.0187 267.856 34.9605 267.654 34.9619H266.643Z" fill="white"/>
<path d="M263.781 34.9619V35.9655C263.78 36.1658 263.838 36.362 263.949 36.5291C264.06 36.6963 264.219 36.8271 264.404 36.9047C264.59 36.9823 264.795 37.0034 264.993 36.9653C265.191 36.927 265.373 36.8314 265.516 36.6903C265.659 36.5492 265.757 36.3691 265.797 36.1728C265.837 35.9765 265.817 35.7728 265.74 35.5877C265.664 35.4026 265.533 35.2442 265.365 35.1328C265.198 35.0214 265.001 34.962 264.799 34.9619H263.781Z" fill="white"/>
<path d="M287.644 24.6038C287.644 24.0966 287.846 23.6103 288.207 23.2518C288.568 22.8932 289.058 22.6918 289.569 22.6918H293.471C293.985 22.7287 294.492 22.5615 294.881 22.227C295.27 21.8925 295.51 21.418 295.547 20.908C295.584 20.398 295.416 19.8943 295.079 19.5075C294.742 19.1208 294.265 18.8828 293.751 18.8459H292.423V16.9193C292.423 16.4227 292.616 15.9453 292.963 15.5874C293.31 15.2295 293.783 15.019 294.282 15H295.352C296.376 15 297.357 15.4034 298.082 16.1217C298.807 16.84 299.215 17.8145 299.217 18.8312V22.6918C299.215 23.7093 298.807 24.6845 298.083 25.4039C297.358 26.1234 296.376 26.5284 295.352 26.5304H287.644V24.6038Z" fill="white"/>
</g>
<defs>
<clipPath id="clip0_4017_3561">
<rect width="58" height="22" fill="white" transform="translate(247 15)"/>
</clipPath>
</defs>
</svg>
