<svg width="120" height="600" viewBox="0 0 120 600" fill="none" xmlns="http://www.w3.org/2000/svg">
<path d="M7 465H105.839C110.346 465 114 468.654 114 473.161V487.419H15.161C10.6538 487.419 7 483.765 7 479.258V465Z" fill="white"/>
<path d="M13.0278 481.536C12.5619 481.536 12.1715 481.474 11.8565 481.349V479.739C12.1803 479.867 12.5153 479.932 12.8614 479.932C13.3938 479.932 13.8043 479.437 14.0927 478.448L11.5969 471.672H13.4937L14.7316 475.473C14.8336 475.823 14.898 476.123 14.9246 476.371H14.9778L15.071 475.919L15.1708 475.473L16.229 471.672H18.0593L15.8896 478.554C15.5435 479.641 15.1464 480.411 14.6983 480.863C14.2546 481.312 13.6978 481.536 13.0278 481.536ZM23.9693 473.975C23.9693 474.579 23.7896 475.08 23.4302 475.479C23.0752 475.874 22.5627 476.14 21.8928 476.278V476.331C22.6204 476.42 23.1839 476.664 23.5832 477.063C23.987 477.458 24.1889 477.986 24.1889 478.647C24.1889 479.543 23.9005 480.249 23.3237 480.764C22.7513 481.278 21.9704 481.536 20.981 481.536C19.9339 481.536 19.1175 481.383 18.5318 481.076V479.492C19.1885 479.856 19.8873 480.038 20.6282 480.038C21.7907 480.038 22.372 479.53 22.372 478.514C22.372 478.053 22.2034 477.702 21.8662 477.463C21.5334 477.219 21.0387 477.097 20.382 477.097H19.7298V475.612H20.3154C20.9588 475.612 21.4336 475.501 21.7397 475.28C22.0458 475.053 22.1989 474.705 22.1989 474.235C22.1989 473.858 22.0969 473.569 21.8928 473.37C21.6887 473.165 21.3936 473.063 21.0076 473.063C20.4175 473.063 19.8584 473.303 19.3305 473.782L18.4719 472.571C18.9112 472.194 19.3571 471.928 19.8096 471.772C20.2622 471.612 20.7658 471.533 21.3204 471.533C22.1235 471.533 22.7646 471.757 23.2438 472.205C23.7274 472.649 23.9693 473.239 23.9693 473.975ZM31.5364 481.403H29.7262V477.136H27.3369V481.403H25.5266V471.672H27.3369V475.539H29.7262V471.672H31.5364V481.403ZM37.8657 481.403L37.3066 478.947H34.7709L34.2119 481.403H32.4016L34.8109 471.632H37.2667L39.6826 481.403H37.8657ZM36.9672 477.343L36.4481 475.08C36.417 474.942 36.346 474.599 36.2351 474.048C36.1286 473.494 36.0643 473.123 36.0421 472.937C35.9844 473.318 35.9112 473.74 35.8225 474.201C35.7338 474.658 35.503 475.706 35.1303 477.343H36.9672ZM40.5412 471.672H42.2183V477.017C42.2183 477.571 42.1762 478.119 42.0919 478.661H42.1651L45.1334 471.672H47.3563V481.403H45.6924V476.072C45.6924 475.415 45.7435 474.838 45.8455 474.341H45.759L42.7774 481.403H40.5412V471.672ZM46.3779 468.737C46.2892 469.483 46.0452 470.029 45.6458 470.375C45.251 470.721 44.6675 470.894 43.8955 470.894C43.1412 470.894 42.5755 470.725 42.1984 470.388C41.8212 470.046 41.5971 469.496 41.5262 468.737H42.997C43.0458 469.181 43.139 469.481 43.2765 469.636C43.4185 469.791 43.6381 469.869 43.9354 469.869C44.2282 469.869 44.4457 469.78 44.5876 469.603C44.7341 469.425 44.8317 469.137 44.8805 468.737H46.3779ZM52.0616 481.403H50.258V473.263H48.3945V471.672H53.9251V473.263H52.0616V481.403ZM59.3559 481.403H54.97V471.672H59.3559V473.236H56.7803V475.552H59.1696V477.123H56.7803V479.819H59.3559V481.403ZM69.512 478.308C69.512 479.293 69.2591 480.056 68.7533 480.597C68.252 481.134 67.5332 481.403 66.597 481.403H64.1412V471.672H68.76V473.25H65.9514V475.473H66.5238C67.5088 475.473 68.252 475.71 68.7533 476.185C69.2591 476.659 69.512 477.367 69.512 478.308ZM65.9514 479.832H66.5105C67.2958 479.832 67.6885 479.346 67.6885 478.374C67.6885 477.908 67.5886 477.574 67.389 477.369C67.1938 477.161 66.861 477.057 66.3907 477.057H65.9514V479.832ZM77.4785 476.524C77.4785 478.135 77.1768 479.373 76.5734 480.238C75.97 481.103 75.107 481.536 73.9845 481.536C72.8575 481.536 71.9923 481.105 71.3889 480.245C70.7854 479.379 70.4837 478.135 70.4837 476.511C70.4837 474.9 70.7854 473.667 71.3889 472.81C71.9923 471.95 72.8619 471.519 73.9978 471.519C75.1203 471.519 75.9811 471.952 76.5801 472.817C77.1791 473.678 77.4785 474.914 77.4785 476.524ZM72.3339 476.524C72.3339 477.633 72.4737 478.479 72.7532 479.06C73.0327 479.641 73.4432 479.932 73.9845 479.932C75.076 479.932 75.6217 478.796 75.6217 476.524C75.6217 474.252 75.0804 473.117 73.9978 473.117C73.4476 473.117 73.0327 473.407 72.7532 473.988C72.4737 474.565 72.3339 475.411 72.3339 476.524ZM84.9126 481.403H83.1023V473.263H81.6448C81.4452 475.508 81.2455 477.363 81.0458 478.827C80.9127 479.763 80.6709 480.449 80.3204 480.883C79.9743 481.318 79.5107 481.536 78.9294 481.536C78.57 481.536 78.275 481.487 78.0443 481.389V479.892C78.1774 479.945 78.3415 479.972 78.5367 479.972C78.7852 479.972 78.9738 479.776 79.1025 479.386C79.2356 478.996 79.3842 478.119 79.5484 476.757C79.717 475.395 79.8922 473.7 80.0741 471.672H84.9126V481.403ZM91.9407 478.308C91.9407 479.288 91.6811 480.049 91.162 480.591C90.6429 481.132 89.9064 481.403 88.9524 481.403H86.6364V471.672H88.4466V475.473H88.9125C90.9313 475.473 91.9407 476.418 91.9407 478.308ZM88.4466 479.832H88.8992C89.7067 479.832 90.1105 479.346 90.1105 478.374C90.1105 477.904 90.0106 477.567 89.811 477.363C89.6157 477.159 89.2808 477.057 88.806 477.057H88.4466V479.832ZM98.8956 479.805H100.999V471.672H102.809V481.403H93.1853V471.672H94.9955V479.805H97.0986V471.672H98.8956V479.805ZM108.912 481.403H104.526V471.672H108.912V473.236H106.336V475.552H108.726V477.123H106.336V479.819H108.912V481.403Z" fill="#0090D7"/>
</svg>
