<svg width="300" height="600" viewBox="0 0 300 600" fill="none" xmlns="http://www.w3.org/2000/svg">
<path d="M82.6406 61.1152C82.6406 65.3691 81.8438 68.6387 80.25 70.9238C78.6562 73.209 76.377 74.3516 73.4121 74.3516C70.4355 74.3516 68.1504 73.2148 66.5566 70.9414C64.9629 68.6562 64.166 65.3691 64.166 61.0801C64.166 56.8262 64.9629 53.5684 66.5566 51.3066C68.1504 49.0332 70.4473 47.8965 73.4473 47.8965C76.4121 47.8965 78.6855 49.0391 80.2676 51.3242C81.8496 53.5977 82.6406 56.8613 82.6406 61.1152ZM69.0527 61.1152C69.0527 64.0449 69.4219 66.2773 70.1602 67.8125C70.8984 69.3477 71.9824 70.1152 73.4121 70.1152C76.2949 70.1152 77.7363 67.1152 77.7363 61.1152C77.7363 55.1152 76.3066 52.1152 73.4473 52.1152C71.9941 52.1152 70.8984 52.8828 70.1602 54.418C69.4219 55.9414 69.0527 58.1738 69.0527 61.1152ZM86.4023 48.3008H90.832V62.416C90.832 63.8809 90.7207 65.3281 90.498 66.7578H90.6914L98.5312 48.3008H104.402V74H100.008V59.9199C100.008 58.1855 100.143 56.6621 100.412 55.3496H100.184L92.3086 74H86.4023V48.3008ZM101.818 40.5488C101.584 42.5176 100.939 43.959 99.8848 44.873C98.8418 45.7871 97.3008 46.2441 95.2617 46.2441C93.2695 46.2441 91.7754 45.7988 90.7793 44.9082C89.7832 44.0059 89.1914 42.5527 89.0039 40.5488H92.8887C93.0176 41.7207 93.2637 42.5117 93.627 42.9219C94.002 43.332 94.582 43.5371 95.3672 43.5371C96.1406 43.5371 96.7148 43.3027 97.0898 42.834C97.4766 42.3652 97.7344 41.6035 97.8633 40.5488H101.818ZM123.123 65.8262C123.123 68.4277 122.455 70.4434 121.119 71.873C119.795 73.291 117.896 74 115.424 74H108.938V48.3008H121.137V52.4668H113.719V58.3379H115.23C117.832 58.3379 119.795 58.9648 121.119 60.2188C122.455 61.4727 123.123 63.3418 123.123 65.8262ZM113.719 69.8516H115.195C117.27 69.8516 118.307 68.5684 118.307 66.002C118.307 64.7715 118.043 63.8867 117.516 63.3477C117 62.7969 116.121 62.5215 114.879 62.5215H113.719V69.8516ZM138.645 74L137.168 67.5137H130.471L128.994 74H124.213L130.576 48.1953H137.062L143.443 74H138.645ZM136.271 63.2773L134.9 57.3008C134.818 56.9375 134.631 56.0293 134.338 54.5762C134.057 53.1113 133.887 52.1328 133.828 51.6406C133.676 52.6484 133.482 53.7617 133.248 54.9805C133.014 56.1875 132.404 58.9531 131.42 63.2773H136.271ZM145.711 48.3008H150.141V62.416C150.141 63.8809 150.029 65.3281 149.807 66.7578H150L157.84 48.3008H163.711V74H159.316V59.9199C159.316 58.1855 159.451 56.6621 159.721 55.3496H159.492L151.617 74H145.711V48.3008ZM161.127 40.5488C160.893 42.5176 160.248 43.959 159.193 44.873C158.15 45.7871 156.609 46.2441 154.57 46.2441C152.578 46.2441 151.084 45.7988 150.088 44.9082C149.092 44.0059 148.5 42.5527 148.312 40.5488H152.197C152.326 41.7207 152.572 42.5117 152.936 42.9219C153.311 43.332 153.891 43.5371 154.676 43.5371C155.449 43.5371 156.023 43.3027 156.398 42.834C156.785 42.3652 157.043 41.6035 157.172 40.5488H161.127ZM172.781 65.7207H168.932L168.07 48.3008H173.678L172.781 65.7207ZM167.93 71.5918C167.93 70.6777 168.17 69.9688 168.65 69.4648C169.143 68.9609 169.869 68.709 170.83 68.709C171.791 68.709 172.518 68.9609 173.01 69.4648C173.502 69.957 173.748 70.666 173.748 71.5918C173.748 72.5059 173.49 73.2148 172.975 73.7188C172.471 74.2227 171.756 74.4746 170.83 74.4746C169.881 74.4746 169.16 74.2227 168.668 73.7188C168.176 73.2031 167.93 72.4941 167.93 71.5918ZM190.693 52.1152C189.533 52.1152 188.273 52.5957 186.914 53.5566L185.297 49.6719C186.141 49.1211 186.996 48.6875 187.863 48.3711C188.742 48.0547 189.732 47.8965 190.834 47.8965C193.705 47.8965 195.92 49.0391 197.479 51.3242C199.049 53.5977 199.834 56.8262 199.834 61.0098C199.834 65.1934 199.037 68.4629 197.443 70.8184C195.861 73.1738 193.623 74.3516 190.729 74.3516C188.748 74.3516 187.143 73.9355 185.912 73.1035V68.8496C187.377 69.7168 188.865 70.1504 190.377 70.1504C193.107 70.1504 194.607 67.7715 194.877 63.0137H188.145V58.8828H194.842C194.537 54.3711 193.154 52.1152 190.693 52.1152ZM211.154 74H206.391V52.502H201.469V48.3008H216.076V52.502H211.154V74ZM235.816 61.1152C235.816 65.3691 235.02 68.6387 233.426 70.9238C231.832 73.209 229.553 74.3516 226.588 74.3516C223.611 74.3516 221.326 73.2148 219.732 70.9414C218.139 68.6562 217.342 65.3691 217.342 61.0801C217.342 56.8262 218.139 53.5684 219.732 51.3066C221.326 49.0332 223.623 47.8965 226.623 47.8965C229.588 47.8965 231.861 49.0391 233.443 51.3242C235.025 53.5977 235.816 56.8613 235.816 61.1152ZM222.229 61.1152C222.229 64.0449 222.598 66.2773 223.336 67.8125C224.074 69.3477 225.158 70.1152 226.588 70.1152C229.471 70.1152 230.912 67.1152 230.912 61.1152C230.912 55.1152 229.482 52.1152 226.623 52.1152C225.17 52.1152 224.074 52.8828 223.336 54.418C222.598 55.9414 222.229 58.1738 222.229 61.1152ZM40.541 91.3008H47.0977C49.7695 91.3008 51.7148 91.8223 52.9336 92.8652C54.1523 93.8965 54.7617 95.543 54.7617 97.8047C54.7617 99.293 54.4395 100.541 53.7949 101.549C53.1504 102.545 52.2715 103.148 51.1582 103.359V103.535C52.6113 103.898 53.6602 104.578 54.3047 105.574C54.9492 106.57 55.2715 107.895 55.2715 109.547C55.2715 111.879 54.6445 113.707 53.3906 115.031C52.1484 116.344 50.4434 117 48.2754 117H40.541V91.3008ZM45.041 101.637H47.2383C48.2461 101.637 48.9551 101.367 49.3652 100.828C49.7754 100.289 49.9805 99.4863 49.9805 98.4199C49.9805 97.3535 49.7461 96.5918 49.2773 96.1348C48.8086 95.666 48.0703 95.4316 47.0625 95.4316H45.041V101.637ZM45.041 105.627V112.816H47.4492C48.4453 112.816 49.1836 112.512 49.6641 111.902C50.1562 111.293 50.4023 110.35 50.4023 109.072C50.4023 106.775 49.3945 105.627 47.3789 105.627H45.041ZM67.3125 95.1152C65.9414 95.1152 64.8574 95.918 64.0605 97.5234C63.2754 99.1289 62.8828 101.361 62.8828 104.221C62.8828 110.174 64.4355 113.15 67.541 113.15C68.9004 113.15 70.3242 112.717 71.8125 111.85V116.104C70.5586 116.936 68.9531 117.352 66.9961 117.352C64.1016 117.352 61.875 116.203 60.3164 113.906C58.7695 111.598 57.9961 108.357 57.9961 104.186C57.9961 100.014 58.793 96.7617 60.3867 94.4297C61.9922 92.0977 64.2188 90.9316 67.0664 90.9316C68.0039 90.9316 68.9004 91.0605 69.7559 91.3184C70.623 91.5762 71.5488 92.0273 72.5332 92.6719L70.9512 96.5566C70.4238 96.1934 69.8613 95.8652 69.2637 95.5723C68.666 95.2676 68.0156 95.1152 67.3125 95.1152ZM87.0352 117H75.4512V91.3008H87.0352V95.4316H80.2324V101.549H86.543V105.697H80.2324V112.816H87.0352V117ZM75.4688 86.3965C75.4688 85.6816 75.6738 85.125 76.084 84.7266C76.4941 84.3281 77.0625 84.1289 77.7891 84.1289C78.5156 84.1289 79.084 84.3398 79.4941 84.7617C79.916 85.1719 80.127 85.7168 80.127 86.3965C80.127 87.0645 79.916 87.6035 79.4941 88.0137C79.084 88.4238 78.5156 88.6289 77.7891 88.6289C77.0625 88.6289 76.4941 88.4355 76.084 88.0488C75.6738 87.6504 75.4688 87.0996 75.4688 86.3965ZM82.4648 86.3965C82.4648 85.6934 82.6699 85.1426 83.0801 84.7441C83.4902 84.334 84.0645 84.1289 84.8027 84.1289C85.5176 84.1289 86.0859 84.3281 86.5078 84.7266C86.9297 85.125 87.1406 85.6816 87.1406 86.3965C87.1406 87.0879 86.9297 87.6328 86.5078 88.0312C86.0977 88.4297 85.5293 88.6289 84.8027 88.6289C84.0762 88.6289 83.502 88.4297 83.0801 88.0312C82.6699 87.6211 82.4648 87.0762 82.4648 86.3965ZM98.6367 109.23V105.416H123.896V109.23H98.6367ZM136.342 91.3008H142.898C145.57 91.3008 147.516 91.8223 148.734 92.8652C149.953 93.8965 150.562 95.543 150.562 97.8047C150.562 99.293 150.24 100.541 149.596 101.549C148.951 102.545 148.072 103.148 146.959 103.359V103.535C148.412 103.898 149.461 104.578 150.105 105.574C150.75 106.57 151.072 107.895 151.072 109.547C151.072 111.879 150.445 113.707 149.191 115.031C147.949 116.344 146.244 117 144.076 117H136.342V91.3008ZM140.842 101.637H143.039C144.047 101.637 144.756 101.367 145.166 100.828C145.576 100.289 145.781 99.4863 145.781 98.4199C145.781 97.3535 145.547 96.5918 145.078 96.1348C144.609 95.666 143.871 95.4316 142.863 95.4316H140.842V101.637ZM140.842 105.627V112.816H143.25C144.246 112.816 144.984 112.512 145.465 111.902C145.957 111.293 146.203 110.35 146.203 109.072C146.203 106.775 145.195 105.627 143.18 105.627H140.842ZM182.203 124.348H177.562V117H166.031V124.348H161.391V112.781H162.902C165.316 106.371 166.863 99.2109 167.543 91.3008H179.285V112.781H182.203V124.348ZM174.504 112.781V95.502H171.586C171.293 98.3496 170.818 101.309 170.162 104.379C169.518 107.438 168.756 110.238 167.877 112.781H174.504ZM186.545 117.352C185.314 117.352 184.283 117.188 183.451 116.859V112.605C184.307 112.945 185.191 113.115 186.105 113.115C187.512 113.115 188.596 111.809 189.357 109.195L182.766 91.3008H187.775L191.045 101.338C191.314 102.264 191.484 103.055 191.555 103.711H191.695L191.941 102.516L192.205 101.338L195 91.3008H199.834L194.104 109.477C193.189 112.348 192.141 114.381 190.957 115.576C189.785 116.76 188.314 117.352 186.545 117.352ZM216.305 108.826C216.305 111.428 215.637 113.443 214.301 114.873C212.977 116.291 211.078 117 208.605 117H202.119V91.3008H214.318V95.4668H206.9V101.338H208.412C211.014 101.338 212.977 101.965 214.301 103.219C215.637 104.473 216.305 106.342 216.305 108.826ZM206.9 112.852H208.377C210.451 112.852 211.488 111.568 211.488 109.002C211.488 107.771 211.225 106.887 210.697 106.348C210.182 105.797 209.303 105.521 208.061 105.521H206.9V112.852ZM231.826 117L230.35 110.514H223.652L222.176 117H217.395L223.758 91.1953H230.244L236.625 117H231.826ZM229.453 106.277L228.082 100.301C228 99.9375 227.812 99.0293 227.52 97.5762C227.238 96.1113 227.068 95.1328 227.01 94.6406C226.857 95.6484 226.664 96.7617 226.43 97.9805C226.195 99.1875 225.586 101.953 224.602 106.277H229.453ZM250.477 117H238.893V91.3008H250.477V95.4316H243.674V101.549H249.984V105.697H243.674V112.816H250.477V117ZM258.756 108.721H254.906L254.045 91.3008H259.652L258.756 108.721ZM253.904 114.592C253.904 113.678 254.145 112.969 254.625 112.465C255.117 111.961 255.844 111.709 256.805 111.709C257.766 111.709 258.492 111.961 258.984 112.465C259.477 112.957 259.723 113.666 259.723 114.592C259.723 115.506 259.465 116.215 258.949 116.719C258.445 117.223 257.73 117.475 256.805 117.475C255.855 117.475 255.135 117.223 254.643 116.719C254.15 116.203 253.904 115.494 253.904 114.592Z" fill="white"/>
</svg>
