<svg width="250" height="250" viewBox="0 0 250 250" fill="none" xmlns="http://www.w3.org/2000/svg">
<path d="M33.0718 34.6206C33.0718 38.0474 32.4299 40.6812 31.146 42.522C29.8621 44.3628 28.026 45.2832 25.6377 45.2832C23.2399 45.2832 21.3991 44.3675 20.1152 42.5361C18.8314 40.6953 18.1895 38.0474 18.1895 34.5923C18.1895 31.1655 18.8314 28.5412 20.1152 26.7192C21.3991 24.8879 23.2493 23.9722 25.666 23.9722C28.0544 23.9722 29.8857 24.8926 31.1602 26.7334C32.4346 28.5648 33.0718 31.1938 33.0718 34.6206ZM22.126 34.6206C22.126 36.9806 22.4233 38.779 23.0181 40.0156C23.6128 41.2523 24.486 41.8706 25.6377 41.8706C27.96 41.8706 29.1211 39.4539 29.1211 34.6206C29.1211 29.7873 27.9694 27.3706 25.666 27.3706C24.4954 27.3706 23.6128 27.9889 23.0181 29.2256C22.4233 30.4528 22.126 32.2511 22.126 34.6206ZM36.1021 24.2979H39.6704V35.6685C39.6704 36.8485 39.5807 38.0143 39.4014 39.166H39.5571L45.8726 24.2979H50.6021V45H47.062V33.6577C47.062 32.2606 47.1706 31.0334 47.3877 29.9761H47.2036L40.8599 45H36.1021V24.2979ZM48.5205 18.0532C48.3317 19.6392 47.8125 20.8003 46.9629 21.5366C46.1227 22.2729 44.8813 22.6411 43.2388 22.6411C41.634 22.6411 40.4303 22.2824 39.6279 21.5649C38.8255 20.8381 38.3488 19.6675 38.1978 18.0532H41.3271C41.431 18.9972 41.6292 19.6344 41.9219 19.9648C42.224 20.2952 42.6912 20.4604 43.3237 20.4604C43.9468 20.4604 44.4093 20.2716 44.7114 19.894C45.0229 19.5164 45.2306 18.9028 45.3345 18.0532H48.5205ZM65.6826 38.4155C65.6826 40.5112 65.1445 42.1349 64.0684 43.2866C63.0016 44.4289 61.4723 45 59.4805 45H54.2554V24.2979H64.0825V27.6538H58.1069V32.3833H59.3247C61.4204 32.3833 63.0016 32.8883 64.0684 33.8984C65.1445 34.9085 65.6826 36.4142 65.6826 38.4155ZM58.1069 41.6582H59.2964C60.9673 41.6582 61.8027 40.6245 61.8027 38.5571C61.8027 37.5659 61.5903 36.8532 61.1655 36.4189C60.7502 35.9753 60.0422 35.7534 59.0415 35.7534H58.1069V41.6582ZM78.186 45L76.9966 39.7749H71.6016L70.4121 45H66.5605L71.6865 24.2129H76.9116L82.0518 45H78.186ZM76.2744 36.3623L75.1699 31.5479C75.1038 31.2552 74.9528 30.5236 74.7168 29.353C74.4902 28.173 74.3534 27.3848 74.3062 26.9883C74.1834 27.8001 74.0277 28.6969 73.8389 29.6787C73.6501 30.651 73.1592 32.8789 72.3662 36.3623H76.2744ZM83.8784 24.2979H87.4468V35.6685C87.4468 36.8485 87.3571 38.0143 87.1777 39.166H87.3335L93.6489 24.2979H98.3784V45H94.8384V33.6577C94.8384 32.2606 94.9469 31.0334 95.1641 29.9761H94.98L88.6362 45H83.8784V24.2979ZM96.2969 18.0532C96.1081 19.6392 95.5889 20.8003 94.7393 21.5366C93.8991 22.2729 92.6577 22.6411 91.0151 22.6411C89.4103 22.6411 88.2067 22.2824 87.4043 21.5649C86.6019 20.8381 86.1252 19.6675 85.9741 18.0532H89.1035C89.2074 18.9972 89.4056 19.6344 89.6982 19.9648C90.0003 20.2952 90.4676 20.4604 91.1001 20.4604C91.7231 20.4604 92.1857 20.2716 92.4878 19.894C92.7993 19.5164 93.007 18.9028 93.1108 18.0532H96.2969ZM106.294 41.9556C105.803 43.8625 104.972 46.1234 103.802 48.7383H100.927C101.541 46.2272 102.018 43.8577 102.357 41.6299H106.096L106.294 41.9556ZM132.122 50.9189H128.384V45H119.095V50.9189H115.356V41.6016H116.574C118.519 36.4378 119.765 30.6699 120.312 24.2979H129.771V41.6016H132.122V50.9189ZM125.92 41.6016V27.6821H123.569C123.333 29.9761 122.951 32.3597 122.422 34.833C121.903 37.2969 121.29 39.5531 120.582 41.6016H125.92ZM135.62 45.2832C134.628 45.2832 133.798 45.151 133.127 44.8867V41.46C133.817 41.7337 134.529 41.8706 135.266 41.8706C136.398 41.8706 137.272 40.818 137.885 38.7129L132.575 24.2979H136.611L139.245 32.3833C139.462 33.1291 139.599 33.7663 139.655 34.2949H139.769L139.967 33.332L140.179 32.3833L142.431 24.2979H146.325L141.708 38.9395C140.972 41.2523 140.127 42.8901 139.174 43.853C138.23 44.8065 137.045 45.2832 135.62 45.2832ZM159.593 38.4155C159.593 40.5112 159.055 42.1349 157.979 43.2866C156.912 44.4289 155.382 45 153.391 45H148.166V24.2979H157.993V27.6538H152.017V32.3833H153.235C155.331 32.3833 156.912 32.8883 157.979 33.8984C159.055 34.9085 159.593 36.4142 159.593 38.4155ZM152.017 41.6582H153.207C154.877 41.6582 155.713 40.6245 155.713 38.5571C155.713 37.5659 155.5 36.8532 155.076 36.4189C154.66 35.9753 153.952 35.7534 152.952 35.7534H152.017V41.6582ZM172.096 45L170.907 39.7749H165.512L164.322 45H160.471L165.597 24.2129H170.822L175.962 45H172.096ZM170.185 36.3623L169.08 31.5479C169.014 31.2552 168.863 30.5236 168.627 29.353C168.4 28.173 168.264 27.3848 168.216 26.9883C168.094 27.8001 167.938 28.6969 167.749 29.6787C167.56 30.651 167.069 32.8789 166.276 36.3623H170.185ZM177.789 24.2979H181.357V35.6685C181.357 36.8485 181.267 38.0143 181.088 39.166H181.244L187.559 24.2979H192.289V45H188.749V33.6577C188.749 32.2606 188.857 31.0334 189.074 29.9761H188.89L182.546 45H177.789V24.2979ZM190.207 18.0532C190.018 19.6392 189.499 20.8003 188.649 21.5366C187.809 22.2729 186.568 22.6411 184.925 22.6411C183.32 22.6411 182.117 22.2824 181.314 21.5649C180.512 20.8381 180.035 19.6675 179.884 18.0532H183.014C183.118 18.9972 183.316 19.6344 183.608 19.9648C183.91 20.2952 184.378 20.4604 185.01 20.4604C185.633 20.4604 186.096 20.2716 186.398 19.894C186.709 19.5164 186.917 18.9028 187.021 18.0532H190.207ZM199.595 38.3306H196.494L195.8 24.2979H200.317L199.595 38.3306ZM195.687 43.0601C195.687 42.3237 195.881 41.7526 196.268 41.3467C196.664 40.9408 197.249 40.7378 198.023 40.7378C198.798 40.7378 199.383 40.9408 199.779 41.3467C200.176 41.7432 200.374 42.3143 200.374 43.0601C200.374 43.7964 200.166 44.3675 199.751 44.7734C199.345 45.1794 198.769 45.3823 198.023 45.3823C197.259 45.3823 196.678 45.1794 196.282 44.7734C195.885 44.3581 195.687 43.7869 195.687 43.0601Z" fill="white"/>
</svg>
