<svg width="728" height="90" viewBox="0 0 728 90" fill="none" xmlns="http://www.w3.org/2000/svg">
<path d="M36.6562 44.5312H32.5312V38H22.2812V44.5312H18.1562V34.25H19.5C21.6458 28.5521 23.0208 22.1875 23.625 15.1562H34.0625V34.25H36.6562V44.5312ZM29.8125 34.25V18.8906H27.2188C26.9583 21.4219 26.5365 24.0521 25.9531 26.7812C25.3802 29.5 24.7031 31.9896 23.9219 34.25H29.8125ZM40.5156 38.3125C39.4219 38.3125 38.5052 38.1667 37.7656 37.875V34.0938C38.526 34.3958 39.3125 34.5469 40.125 34.5469C41.375 34.5469 42.3385 33.3854 43.0156 31.0625L37.1562 15.1562H41.6094L44.5156 24.0781C44.7552 24.901 44.9062 25.6042 44.9688 26.1875H45.0938L45.3125 25.125L45.5469 24.0781L48.0312 15.1562H52.3281L47.2344 31.3125C46.4219 33.8646 45.4896 35.6719 44.4375 36.7344C43.3958 37.7865 42.0885 38.3125 40.5156 38.3125ZM66.9688 30.7344C66.9688 33.0469 66.375 34.8385 65.1875 36.1094C64.0104 37.3698 62.3229 38 60.125 38H54.3594V15.1562H65.2031V18.8594H58.6094V24.0781H59.9531C62.2656 24.0781 64.0104 24.6354 65.1875 25.75C66.375 26.8646 66.9688 28.526 66.9688 30.7344ZM58.6094 34.3125H59.9219C61.7656 34.3125 62.6875 33.1719 62.6875 30.8906C62.6875 29.7969 62.4531 29.0104 61.9844 28.5312C61.526 28.0417 60.7448 27.7969 59.6406 27.7969H58.6094V34.3125ZM80.7656 38L79.4531 32.2344H73.5L72.1875 38H67.9375L73.5938 15.0625H79.3594L85.0312 38H80.7656ZM78.6562 28.4688L77.4375 23.1562C77.3646 22.8333 77.1979 22.026 76.9375 20.7344C76.6875 19.4323 76.5365 18.5625 76.4844 18.125C76.349 19.0208 76.1771 20.0104 75.9688 21.0938C75.7604 22.1667 75.2188 24.625 74.3438 28.4688H78.6562ZM87.0469 15.1562H90.9844V27.7031C90.9844 29.0052 90.8854 30.2917 90.6875 31.5625H90.8594L97.8281 15.1562H103.047V38H99.1406V25.4844C99.1406 23.9427 99.2604 22.5885 99.5 21.4219H99.2969L92.2969 38H87.0469V15.1562ZM100.75 8.26562C100.542 10.0156 99.9688 11.2969 99.0312 12.1094C98.1042 12.9219 96.7344 13.3281 94.9219 13.3281C93.151 13.3281 91.8229 12.9323 90.9375 12.1406C90.0521 11.3385 89.526 10.0469 89.3594 8.26562H92.8125C92.9271 9.30729 93.1458 10.0104 93.4688 10.375C93.8021 10.7396 94.3177 10.9219 95.0156 10.9219C95.7031 10.9219 96.2135 10.7135 96.5469 10.2969C96.8906 9.88021 97.1198 9.20312 97.2344 8.26562H100.75ZM106.797 35.8594C106.797 35.0469 107.01 34.4167 107.438 33.9688C107.875 33.5208 108.521 33.2969 109.375 33.2969C110.229 33.2969 110.875 33.5208 111.312 33.9688C111.75 34.4062 111.969 35.0365 111.969 35.8594C111.969 36.6719 111.74 37.3021 111.281 37.75C110.833 38.1979 110.198 38.4219 109.375 38.4219C108.531 38.4219 107.891 38.1979 107.453 37.75C107.016 37.2917 106.797 36.6615 106.797 35.8594ZM140.281 44.5312H136.156V38H125.906V44.5312H121.781V34.25H123.125C125.271 28.5521 126.646 22.1875 127.25 15.1562H137.688V34.25H140.281V44.5312ZM133.438 34.25V18.8906H130.844C130.583 21.4219 130.161 24.0521 129.578 26.7812C129.005 29.5 128.328 31.9896 127.547 34.25H133.438ZM153.609 38L152.297 32.2344H146.344L145.031 38H140.781L146.438 15.0625H152.203L157.875 38H153.609ZM151.5 28.4688L150.281 23.1562C150.208 22.8333 150.042 22.026 149.781 20.7344C149.531 19.4323 149.38 18.5625 149.328 18.125C149.193 19.0208 149.021 20.0104 148.812 21.0938C148.604 22.1667 148.062 24.625 147.188 28.4688H151.5ZM159.891 15.1562H165.719C168.094 15.1562 169.823 15.6198 170.906 16.5469C171.99 17.4635 172.531 18.9271 172.531 20.9375C172.531 22.2604 172.245 23.3698 171.672 24.2656C171.099 25.151 170.318 25.6875 169.328 25.875V26.0312C170.62 26.3542 171.552 26.9583 172.125 27.8438C172.698 28.7292 172.984 29.9062 172.984 31.375C172.984 33.4479 172.427 35.0729 171.312 36.25C170.208 37.4167 168.693 38 166.766 38H159.891V15.1562ZM163.891 24.3438H165.844C166.74 24.3438 167.37 24.1042 167.734 23.625C168.099 23.1458 168.281 22.4323 168.281 21.4844C168.281 20.5365 168.073 19.8594 167.656 19.4531C167.24 19.0365 166.583 18.8281 165.688 18.8281H163.891V24.3438ZM163.891 27.8906V34.2812H166.031C166.917 34.2812 167.573 34.0104 168 33.4688C168.438 32.9271 168.656 32.0885 168.656 30.9531C168.656 28.9115 167.76 27.8906 165.969 27.8906H163.891ZM186.922 38L185.609 32.2344H179.656L178.344 38H174.094L179.75 15.0625H185.516L191.188 38H186.922ZM184.812 28.4688L183.594 23.1562C183.521 22.8333 183.354 22.026 183.094 20.7344C182.844 19.4323 182.693 18.5625 182.641 18.125C182.505 19.0208 182.333 20.0104 182.125 21.0938C181.917 22.1667 181.375 24.625 180.5 28.4688H184.812ZM193.203 15.1562H197.141V27.7031C197.141 29.0052 197.042 30.2917 196.844 31.5625H197.016L203.984 15.1562H209.203V38H205.297V25.4844C205.297 23.9427 205.417 22.5885 205.656 21.4219H205.453L198.453 38H193.203V15.1562ZM206.906 8.26562C206.698 10.0156 206.125 11.2969 205.188 12.1094C204.26 12.9219 202.891 13.3281 201.078 13.3281C199.307 13.3281 197.979 12.9323 197.094 12.1406C196.208 11.3385 195.682 10.0469 195.516 8.26562H198.969C199.083 9.30729 199.302 10.0104 199.625 10.375C199.958 10.7396 200.474 10.9219 201.172 10.9219C201.859 10.9219 202.37 10.7135 202.703 10.2969C203.047 9.88021 203.276 9.20312 203.391 8.26562H206.906ZM34.125 76H29.9062V56.8906H24.2656V76H20.0156V53.1562H34.125V76ZM53.8906 64.5469C53.8906 68.3281 53.1823 71.2344 51.7656 73.2656C50.349 75.2969 48.3229 76.3125 45.6875 76.3125C43.0417 76.3125 41.0104 75.3021 39.5938 73.2812C38.1771 71.25 37.4688 68.3281 37.4688 64.5156C37.4688 60.7344 38.1771 57.8385 39.5938 55.8281C41.0104 53.8073 43.0521 52.7969 45.7188 52.7969C48.3542 52.7969 50.375 53.8125 51.7812 55.8438C53.1875 57.8646 53.8906 60.7656 53.8906 64.5469ZM41.8125 64.5469C41.8125 67.151 42.1406 69.1354 42.7969 70.5C43.4531 71.8646 44.4167 72.5469 45.6875 72.5469C48.25 72.5469 49.5312 69.8802 49.5312 64.5469C49.5312 59.2135 48.2604 56.5469 45.7188 56.5469C44.4271 56.5469 43.4531 57.2292 42.7969 58.5938C42.1406 59.9479 41.8125 61.9323 41.8125 64.5469ZM56.3438 69.25V65.5938H64.2031V69.25H56.3438ZM81.4688 76H77.2188V65.9844H71.6094V76H67.3594V53.1562H71.6094V62.2344H77.2188V53.1562H81.4688V76ZM101.234 64.5469C101.234 68.3281 100.526 71.2344 99.1094 73.2656C97.6927 75.2969 95.6667 76.3125 93.0312 76.3125C90.3854 76.3125 88.3542 75.3021 86.9375 73.2812C85.5208 71.25 84.8125 68.3281 84.8125 64.5156C84.8125 60.7344 85.5208 57.8385 86.9375 55.8281C88.3542 53.8073 90.3958 52.7969 93.0625 52.7969C95.6979 52.7969 97.7188 53.8125 99.125 55.8438C100.531 57.8646 101.234 60.7656 101.234 64.5469ZM89.1562 64.5469C89.1562 67.151 89.4844 69.1354 90.1406 70.5C90.7969 71.8646 91.7604 72.5469 93.0312 72.5469C95.5938 72.5469 96.875 69.8802 96.875 64.5469C96.875 59.2135 95.6042 56.5469 93.0625 56.5469C91.7708 56.5469 90.7969 57.2292 90.1406 58.5938C89.4844 59.9479 89.1562 61.9323 89.1562 64.5469ZM104.578 53.1562H110.406C112.781 53.1562 114.51 53.6198 115.594 54.5469C116.677 55.4635 117.219 56.9271 117.219 58.9375C117.219 60.2604 116.932 61.3698 116.359 62.2656C115.786 63.151 115.005 63.6875 114.016 63.875V64.0312C115.307 64.3542 116.24 64.9583 116.812 65.8438C117.385 66.7292 117.672 67.9062 117.672 69.375C117.672 71.4479 117.115 73.0729 116 74.25C114.896 75.4167 113.38 76 111.453 76H104.578V53.1562ZM108.578 62.3438H110.531C111.427 62.3438 112.057 62.1042 112.422 61.625C112.786 61.1458 112.969 60.4323 112.969 59.4844C112.969 58.5365 112.76 57.8594 112.344 57.4531C111.927 57.0365 111.271 56.8281 110.375 56.8281H108.578V62.3438ZM108.578 65.8906V72.2812H110.719C111.604 72.2812 112.26 72.0104 112.688 71.4688C113.125 70.9271 113.344 70.0885 113.344 68.9531C113.344 66.9115 112.448 65.8906 110.656 65.8906H108.578ZM136.516 64.5469C136.516 68.3281 135.807 71.2344 134.391 73.2656C132.974 75.2969 130.948 76.3125 128.312 76.3125C125.667 76.3125 123.635 75.3021 122.219 73.2812C120.802 71.25 120.094 68.3281 120.094 64.5156C120.094 60.7344 120.802 57.8385 122.219 55.8281C123.635 53.8073 125.677 52.7969 128.344 52.7969C130.979 52.7969 133 53.8125 134.406 55.8438C135.812 57.8646 136.516 60.7656 136.516 64.5469ZM124.438 64.5469C124.438 67.151 124.766 69.1354 125.422 70.5C126.078 71.8646 127.042 72.5469 128.312 72.5469C130.875 72.5469 132.156 69.8802 132.156 64.5469C132.156 59.2135 130.885 56.5469 128.344 56.5469C127.052 56.5469 126.078 57.2292 125.422 58.5938C124.766 59.9479 124.438 61.9323 124.438 64.5469ZM139.859 53.1562H143.797V65.7031C143.797 67.0052 143.698 68.2917 143.5 69.5625H143.672L150.641 53.1562H155.859V76H151.953V63.4844C151.953 61.9427 152.073 60.5885 152.312 59.4219H152.109L145.109 76H139.859V53.1562ZM153.562 46.2656C153.354 48.0156 152.781 49.2969 151.844 50.1094C150.917 50.9219 149.547 51.3281 147.734 51.3281C145.964 51.3281 144.635 50.9323 143.75 50.1406C142.865 49.3385 142.339 48.0469 142.172 46.2656H145.625C145.74 47.3073 145.958 48.0104 146.281 48.375C146.615 48.7396 147.13 48.9219 147.828 48.9219C148.516 48.9219 149.026 48.7135 149.359 48.2969C149.703 47.8802 149.932 47.2031 150.047 46.2656H153.562ZM159.609 73.8594C159.609 73.0469 159.823 72.4167 160.25 71.9688C160.688 71.5208 161.333 71.2969 162.188 71.2969C163.042 71.2969 163.688 71.5208 164.125 71.9688C164.562 72.4062 164.781 73.0365 164.781 73.8594C164.781 74.6719 164.552 75.3021 164.094 75.75C163.646 76.1979 163.01 76.4219 162.188 76.4219C161.344 76.4219 160.703 76.1979 160.266 75.75C159.828 75.2917 159.609 74.6615 159.609 73.8594Z" fill="white"/>
</svg>
