<svg width="970" height="250" viewBox="0 0 970 250" fill="none" xmlns="http://www.w3.org/2000/svg">
<path d="M74.8506 124.851H67.366V113H48.7681V124.851H41.2835V106.196H43.7217C47.6151 95.8574 50.11 84.3092 51.2062 71.5515H70.1444V106.196H74.8506V124.851ZM62.433 106.196V78.3273H57.7268C57.2543 82.9201 56.4889 87.6924 55.4304 92.6443C54.3909 97.5773 53.1624 102.094 51.7449 106.196H62.433ZM81.8532 113.567C79.8686 113.567 78.2054 113.302 76.8635 112.773V105.912C78.2432 106.46 79.6702 106.735 81.1444 106.735C83.4124 106.735 85.1607 104.627 86.3892 100.412L75.7578 71.5515H83.8377L89.1109 87.7397C89.5456 89.2328 89.8197 90.5086 89.9331 91.567H90.1599L90.5568 89.6391L90.982 87.7397L95.4898 71.5515H103.286L94.0439 100.866C92.5697 105.497 90.8781 108.776 88.9691 110.704C87.0791 112.613 84.7071 113.567 81.8532 113.567ZM129.851 99.817C129.851 104.013 128.773 107.264 126.619 109.57C124.483 111.857 121.421 113 117.433 113H106.972V71.5515H126.647V78.2706H114.683V87.7397H117.121C121.317 87.7397 124.483 88.7508 126.619 90.7732C128.773 92.7955 129.851 95.8101 129.851 99.817ZM114.683 106.309H117.065C120.41 106.309 122.083 104.24 122.083 100.1C122.083 98.116 121.657 96.689 120.807 95.8196C119.975 94.9312 118.558 94.4871 116.554 94.4871H114.683V106.309ZM154.884 113L152.503 102.539H141.701L139.32 113H131.608L141.871 71.3814H152.333L162.624 113H154.884ZM151.057 95.7062L148.846 86.067C148.713 85.4811 148.411 84.0163 147.938 81.6726C147.485 79.3101 147.211 77.7319 147.116 76.9381C146.87 78.5635 146.559 80.3591 146.181 82.3247C145.803 84.2714 144.82 88.7319 143.232 95.7062H151.057ZM166.281 71.5515H173.425V94.317C173.425 96.6795 173.246 99.0137 172.887 101.32H173.199L185.843 71.5515H195.312V113H188.224V90.2912C188.224 87.4939 188.442 85.0369 188.877 82.9201H188.508L175.807 113H166.281V71.5515ZM191.145 59.0489C190.767 62.2241 189.727 64.5489 188.026 66.0231C186.344 67.4974 183.858 68.2345 180.57 68.2345C177.357 68.2345 174.947 67.5163 173.34 66.0798C171.734 64.6245 170.779 62.2808 170.477 59.0489H176.742C176.95 60.9389 177.347 62.2147 177.933 62.8762C178.538 63.5377 179.474 63.8685 180.74 63.8685C181.987 63.8685 182.913 63.4905 183.518 62.7345C184.142 61.9784 184.558 60.7499 184.766 59.0489H191.145ZM202.116 109.116C202.116 107.642 202.504 106.498 203.279 105.686C204.072 104.873 205.244 104.466 206.794 104.466C208.344 104.466 209.516 104.873 210.31 105.686C211.103 106.479 211.5 107.623 211.5 109.116C211.5 110.59 211.084 111.734 210.253 112.546C209.44 113.359 208.287 113.765 206.794 113.765C205.263 113.765 204.101 113.359 203.307 112.546C202.513 111.715 202.116 110.571 202.116 109.116ZM262.871 124.851H255.387V113H236.789V124.851H229.304V106.196H231.743C235.636 95.8574 238.131 84.3092 239.227 71.5515H258.165V106.196H262.871V124.851ZM250.454 106.196V78.3273H245.748C245.275 82.9201 244.51 87.6924 243.451 92.6443C242.412 97.5773 241.183 102.094 239.766 106.196H250.454ZM287.055 113L284.673 102.539H273.872L271.49 113H263.779L274.042 71.3814H284.503L294.794 113H287.055ZM283.227 95.7062L281.016 86.067C280.884 85.4811 280.581 84.0163 280.109 81.6726C279.655 79.3101 279.381 77.7319 279.286 76.9381C279.041 78.5635 278.729 80.3591 278.351 82.3247C277.973 84.2714 276.99 88.7319 275.402 95.7062H283.227ZM298.451 71.5515H309.026C313.335 71.5515 316.473 72.3925 318.439 74.0747C320.404 75.7379 321.387 78.3934 321.387 82.0412C321.387 84.4415 320.867 86.4544 319.828 88.0799C318.788 89.6864 317.371 90.6598 315.575 91V91.2835C317.919 91.8694 319.61 92.9656 320.65 94.5721C321.689 96.1787 322.209 98.3144 322.209 100.979C322.209 104.741 321.198 107.689 319.176 109.825C317.172 111.942 314.422 113 310.926 113H298.451V71.5515ZM305.709 88.2216H309.253C310.878 88.2216 312.022 87.7869 312.683 86.9175C313.345 86.0481 313.676 84.7534 313.676 83.0335C313.676 81.3135 313.298 80.085 312.542 79.3479C311.786 78.5919 310.595 78.2139 308.969 78.2139H305.709V88.2216ZM305.709 94.6572V106.253H309.593C311.2 106.253 312.39 105.761 313.165 104.778C313.959 103.796 314.356 102.274 314.356 100.214C314.356 96.5094 312.731 94.6572 309.48 94.6572H305.709ZM347.498 113L345.116 102.539H334.315L331.933 113H324.222L334.485 71.3814H344.946L355.238 113H347.498ZM343.671 95.7062L341.459 86.067C341.327 85.4811 341.025 84.0163 340.552 81.6726C340.098 79.3101 339.824 77.7319 339.73 76.9381C339.484 78.5635 339.172 80.3591 338.794 82.3247C338.416 84.2714 337.433 88.7319 335.846 95.7062H343.671ZM358.895 71.5515H366.039V94.317C366.039 96.6795 365.86 99.0137 365.501 101.32H365.812L378.457 71.5515H387.926V113H380.838V90.2912C380.838 87.4939 381.056 85.0369 381.49 82.9201H381.122L368.421 113H358.895V71.5515ZM383.758 59.0489C383.38 62.2241 382.341 64.5489 380.64 66.0231C378.958 67.4974 376.472 68.2345 373.184 68.2345C369.97 68.2345 367.561 67.5163 365.954 66.0798C364.348 64.6245 363.393 62.2808 363.091 59.0489H369.356C369.564 60.9389 369.961 62.2147 370.547 62.8762C371.152 63.5377 372.087 63.8685 373.354 63.8685C374.601 63.8685 375.527 63.4905 376.132 62.7345C376.756 61.9784 377.171 60.7499 377.379 59.0489H383.758ZM70.2578 183H62.6031V148.327H52.3686V183H44.6572V141.551H70.2578V183ZM106.121 162.219C106.121 169.08 104.836 174.353 102.266 178.039C99.6951 181.724 96.019 183.567 91.2372 183.567C86.4365 183.567 82.7509 181.734 80.1805 178.067C77.61 174.381 76.3248 169.08 76.3248 162.162C76.3248 155.302 77.61 150.047 80.1805 146.399C82.7509 142.733 86.4554 140.899 91.2939 140.899C96.0757 140.899 99.7424 142.742 102.294 146.428C104.845 150.094 106.121 155.358 106.121 162.219ZM84.2063 162.219C84.2063 166.944 84.8016 170.545 85.9923 173.021C87.1831 175.497 88.9313 176.735 91.2372 176.735C95.8867 176.735 98.2114 171.896 98.2114 162.219C98.2114 152.542 95.9056 147.704 91.2939 147.704C88.9502 147.704 87.1831 148.942 85.9923 151.417C84.8016 153.875 84.2063 157.475 84.2063 162.219ZM110.572 170.753V164.119H124.833V170.753H110.572ZM156.16 183H148.449V164.827H138.271V183H130.559V141.551H138.271V158.023H148.449V141.551H156.16V183ZM192.023 162.219C192.023 169.08 190.738 174.353 188.168 178.039C185.597 181.724 181.921 183.567 177.139 183.567C172.339 183.567 168.653 181.734 166.083 178.067C163.512 174.381 162.227 169.08 162.227 162.162C162.227 155.302 163.512 150.047 166.083 146.399C168.653 142.733 172.358 140.899 177.196 140.899C181.978 140.899 185.645 142.742 188.196 146.428C190.748 150.094 192.023 155.358 192.023 162.219ZM170.108 162.219C170.108 166.944 170.704 170.545 171.895 173.021C173.085 175.497 174.834 176.735 177.139 176.735C181.789 176.735 184.114 171.896 184.114 162.219C184.114 152.542 181.808 147.704 177.196 147.704C174.852 147.704 173.085 148.942 171.895 151.417C170.704 153.875 170.108 157.475 170.108 162.219ZM198.09 141.551H208.665C212.974 141.551 216.112 142.393 218.078 144.075C220.043 145.738 221.026 148.393 221.026 152.041C221.026 154.442 220.506 156.454 219.467 158.08C218.427 159.686 217.01 160.66 215.214 161V161.283C217.558 161.869 219.249 162.966 220.289 164.572C221.328 166.179 221.848 168.314 221.848 170.979C221.848 174.741 220.837 177.689 218.815 179.825C216.811 181.942 214.061 183 210.565 183H198.09V141.551ZM205.348 158.222H208.892C210.517 158.222 211.661 157.787 212.322 156.917C212.984 156.048 213.315 154.753 213.315 153.033C213.315 151.314 212.937 150.085 212.181 149.348C211.425 148.592 210.234 148.214 208.609 148.214H205.348V158.222ZM205.348 164.657V176.253H209.232C210.839 176.253 212.029 175.761 212.804 174.778C213.598 173.796 213.995 172.274 213.995 170.214C213.995 166.509 212.37 164.657 209.119 164.657H205.348ZM256.039 162.219C256.039 169.08 254.754 174.353 252.183 178.039C249.613 181.724 245.937 183.567 241.155 183.567C236.354 183.567 232.669 181.734 230.098 178.067C227.528 174.381 226.243 169.08 226.243 162.162C226.243 155.302 227.528 150.047 230.098 146.399C232.669 142.733 236.373 140.899 241.212 140.899C245.993 140.899 249.66 142.742 252.212 146.428C254.763 150.094 256.039 155.358 256.039 162.219ZM234.124 162.219C234.124 166.944 234.719 170.545 235.91 173.021C237.101 175.497 238.849 176.735 241.155 176.735C245.804 176.735 248.129 171.896 248.129 162.219C248.129 152.542 245.823 147.704 241.212 147.704C238.868 147.704 237.101 148.942 235.91 151.417C234.719 153.875 234.124 157.475 234.124 162.219ZM262.106 141.551H269.25V164.317C269.25 166.68 269.071 169.014 268.712 171.32H269.024L281.668 141.551H291.137V183H284.049V160.291C284.049 157.494 284.267 155.037 284.701 152.92H284.333L271.632 183H262.106V141.551ZM286.969 129.049C286.591 132.224 285.552 134.549 283.851 136.023C282.169 137.497 279.683 138.234 276.395 138.234C273.182 138.234 270.772 137.516 269.165 136.08C267.559 134.624 266.604 132.281 266.302 129.049H272.567C272.775 130.939 273.172 132.215 273.758 132.876C274.363 133.538 275.298 133.868 276.565 133.868C277.812 133.868 278.738 133.49 279.343 132.734C279.967 131.978 280.383 130.75 280.591 129.049H286.969ZM297.941 179.116C297.941 177.642 298.329 176.498 299.104 175.686C299.897 174.873 301.069 174.466 302.619 174.466C304.169 174.466 305.341 174.873 306.134 175.686C306.928 176.479 307.325 177.623 307.325 179.116C307.325 180.59 306.909 181.734 306.078 182.546C305.265 183.359 304.112 183.765 302.619 183.765C301.088 183.765 299.926 183.359 299.132 182.546C298.338 181.715 297.941 180.571 297.941 179.116Z" fill="white"/>
</svg>
