<svg width="120" height="600" viewBox="0 0 120 600" fill="none" xmlns="http://www.w3.org/2000/svg">
<path d="M7 465H105.839C110.346 465 114 468.654 114 473.161V487.419H15.161C10.6538 487.419 7 483.765 7 479.258V465Z" fill="white"/>
<path d="M14.7451 480.51C14.3691 480.51 14.054 480.46 13.7998 480.36V479.06C14.0612 479.164 14.3315 479.216 14.6108 479.216C15.0405 479.216 15.3717 478.816 15.6045 478.018L13.5903 472.55H15.1211L16.1201 475.617C16.2025 475.9 16.2544 476.141 16.2759 476.342H16.3188L16.394 475.977L16.4746 475.617L17.3286 472.55H18.8057L17.0547 478.104C16.7754 478.981 16.4549 479.602 16.0933 479.967C15.7352 480.329 15.2858 480.51 14.7451 480.51ZM23.5752 474.408C23.5752 474.895 23.4302 475.3 23.1401 475.622C22.8537 475.941 22.4401 476.156 21.8994 476.267V476.31C22.4867 476.381 22.9414 476.578 23.2637 476.901C23.5895 477.219 23.7524 477.645 23.7524 478.179C23.7524 478.902 23.5197 479.472 23.0542 479.887C22.5923 480.302 21.9621 480.51 21.1636 480.51C20.3185 480.51 19.6597 480.386 19.187 480.139V478.861C19.717 479.155 20.2809 479.301 20.8789 479.301C21.8171 479.301 22.2861 478.891 22.2861 478.072C22.2861 477.699 22.1501 477.416 21.8779 477.223C21.6094 477.026 21.2101 476.927 20.6802 476.927H20.1538V475.73H20.6265C21.1457 475.73 21.5288 475.64 21.7759 475.461C22.0229 475.279 22.1465 474.997 22.1465 474.618C22.1465 474.314 22.0641 474.081 21.8994 473.92C21.7347 473.755 21.4966 473.673 21.1851 473.673C20.7088 473.673 20.2576 473.866 19.8315 474.253L19.1387 473.275C19.4932 472.971 19.853 472.756 20.2183 472.631C20.5835 472.502 20.9899 472.437 21.4375 472.437C22.0856 472.437 22.603 472.618 22.9897 472.98C23.38 473.338 23.5752 473.814 23.5752 474.408ZM29.6821 480.403H28.2212V476.96H26.293V480.403H24.832V472.55H26.293V475.671H28.2212V472.55H29.6821V480.403ZM34.79 480.403L34.3389 478.421H32.2925L31.8413 480.403H30.3804L32.3247 472.518H34.3066L36.2563 480.403H34.79ZM34.0649 477.126L33.646 475.3C33.6209 475.189 33.5636 474.912 33.4741 474.467C33.3882 474.02 33.3363 473.721 33.3184 473.571C33.2718 473.878 33.2127 474.219 33.1411 474.591C33.0695 474.96 32.8833 475.805 32.5825 477.126H34.0649ZM36.9492 472.55H38.3027V476.863C38.3027 477.311 38.2687 477.753 38.2007 478.19H38.2598L40.6553 472.55H42.4492V480.403H41.1064V476.1C41.1064 475.57 41.1476 475.105 41.23 474.704H41.1602L38.7539 480.403H36.9492V472.55ZM41.6597 470.181C41.5881 470.783 41.3911 471.223 41.0688 471.503C40.7502 471.782 40.2793 471.922 39.6562 471.922C39.0475 471.922 38.591 471.786 38.2866 471.513C37.9823 471.238 37.8014 470.794 37.7441 470.181H38.9312C38.9705 470.539 39.0457 470.781 39.1567 470.906C39.2713 471.032 39.4486 471.094 39.6885 471.094C39.9248 471.094 40.1003 471.023 40.2148 470.88C40.333 470.736 40.4118 470.504 40.4512 470.181H41.6597ZM46.2466 480.403H44.791V473.834H43.2871V472.55H47.7505V473.834H46.2466V480.403ZM52.1333 480.403H48.5938V472.55H52.1333V473.812H50.0547V475.681H51.9829V476.949H50.0547V479.124H52.1333V480.403ZM60.8452 480.403H59.395V473.834H57.4561V480.403H55.9951V472.55H60.8452V480.403ZM67.6396 476.466C67.6396 477.765 67.3962 478.764 66.9092 479.463C66.4222 480.161 65.7257 480.51 64.8198 480.51C63.9103 480.51 63.2121 480.163 62.7251 479.468C62.2381 478.77 61.9946 477.765 61.9946 476.455C61.9946 475.155 62.2381 474.16 62.7251 473.468C63.2121 472.774 63.9139 472.426 64.8306 472.426C65.7365 472.426 66.4312 472.776 66.9146 473.474C67.3979 474.169 67.6396 475.166 67.6396 476.466ZM63.4878 476.466C63.4878 477.361 63.6006 478.043 63.8262 478.512C64.0518 478.981 64.383 479.216 64.8198 479.216C65.7007 479.216 66.1411 478.299 66.1411 476.466C66.1411 474.632 65.7043 473.716 64.8306 473.716C64.3866 473.716 64.0518 473.95 63.8262 474.419C63.6006 474.885 63.4878 475.567 63.4878 476.466ZM74.5093 482.648H73.0913V480.403H69.5679V482.648H68.1499V479.113H68.6118C69.3494 477.155 69.8221 474.967 70.0298 472.55H73.6177V479.113H74.5093V482.648ZM72.1567 479.113V473.834H71.2651C71.1756 474.704 71.0306 475.608 70.8301 476.546C70.6331 477.481 70.4004 478.336 70.1318 479.113H72.1567ZM79.6548 474.967C79.6548 475.801 79.4435 476.442 79.021 476.89C78.6021 477.334 77.9951 477.556 77.2002 477.556H76.835V480.403H75.374V472.55H77.3667C78.8921 472.55 79.6548 473.356 79.6548 474.967ZM76.835 476.288H77.1143C77.4723 476.288 77.7391 476.19 77.9146 475.993C78.09 475.796 78.1777 475.474 78.1777 475.026C78.1777 474.614 78.0972 474.31 77.936 474.113C77.7749 473.912 77.526 473.812 77.1895 473.812H76.835V476.288ZM86.0518 476.466C86.0518 477.765 85.8083 478.764 85.3213 479.463C84.8343 480.161 84.1379 480.51 83.2319 480.51C82.3224 480.51 81.6242 480.163 81.1372 479.468C80.6502 478.77 80.4067 477.765 80.4067 476.455C80.4067 475.155 80.6502 474.16 81.1372 473.468C81.6242 472.774 82.326 472.426 83.2427 472.426C84.1486 472.426 84.8433 472.776 85.3267 473.474C85.8101 474.169 86.0518 475.166 86.0518 476.466ZM81.8999 476.466C81.8999 477.361 82.0127 478.043 82.2383 478.512C82.4639 478.981 82.7951 479.216 83.2319 479.216C84.1128 479.216 84.5532 478.299 84.5532 476.466C84.5532 474.632 84.1164 473.716 83.2427 473.716C82.7987 473.716 82.4639 473.95 82.2383 474.419C82.0127 474.885 81.8999 475.567 81.8999 476.466ZM91.5356 477.905C91.5356 478.7 91.3315 479.316 90.9233 479.753C90.5187 480.186 89.9386 480.403 89.1831 480.403H87.2012V472.55H90.9287V473.823H88.6621V475.617H89.124C89.9189 475.617 90.5187 475.808 90.9233 476.192C91.3315 476.575 91.5356 477.146 91.5356 477.905ZM88.6621 479.135H89.1133C89.7471 479.135 90.064 478.743 90.064 477.959C90.064 477.583 89.9834 477.312 89.8223 477.148C89.6647 476.979 89.3962 476.895 89.0166 476.895H88.6621V479.135ZM97.4116 480.403H95.9507V476.96H94.0225V480.403H92.5615V472.55H94.0225V475.671H95.9507V472.55H97.4116V480.403ZM102.342 480.403H98.8027V472.55H102.342V473.812H100.264V475.681H102.192V476.949H100.264V479.124H102.342V480.403ZM107.026 480.403H103.486V472.55H107.026V473.812H104.947V475.681H106.875V476.949H104.947V479.124H107.026V480.403Z" fill="#0090D7"/>
</svg>
