<svg width="728" height="90" viewBox="0 0 728 90" fill="none" xmlns="http://www.w3.org/2000/svg">
<path d="M435 31H585.703C591.39 31 596 35.6099 596 41.2966V59H445.297C439.61 59 435 54.3901 435 48.7034V31Z" fill="white"/>
<path d="M443.916 51.4609C443.328 51.4609 442.835 51.3825 442.438 51.2258V49.1937C442.847 49.3561 443.269 49.4372 443.706 49.4372C444.378 49.4372 444.895 48.8131 445.259 47.5647L442.11 39.0166H444.504L446.065 43.8113C446.194 44.2535 446.275 44.6314 446.309 44.9449H446.376L446.494 44.3739L446.62 43.8113L447.955 39.0166H450.264L447.526 47.6991C447.09 49.0706 446.589 50.0418 446.023 50.6128C445.464 51.1782 444.761 51.4609 443.916 51.4609ZM457.72 41.9219C457.72 42.6833 457.494 43.3158 457.04 43.8197C456.592 44.3179 455.946 44.6538 455.101 44.8273V44.8945C456.019 45.0064 456.73 45.3143 457.233 45.8181C457.743 46.3164 457.997 46.9825 457.997 47.8166C457.997 48.9474 457.634 49.8375 456.906 50.4869C456.184 51.1362 455.198 51.4609 453.95 51.4609C452.629 51.4609 451.599 51.2678 450.86 50.8815V48.883C451.689 49.3421 452.57 49.5716 453.505 49.5716C454.972 49.5716 455.705 48.9306 455.705 47.6487C455.705 47.0665 455.492 46.6242 455.067 46.322C454.647 46.0141 454.023 45.8601 453.194 45.8601H452.372V43.9876H453.11C453.922 43.9876 454.521 43.8476 454.907 43.5677C455.294 43.2823 455.487 42.8428 455.487 42.2494C455.487 41.7736 455.358 41.4097 455.101 41.1578C454.843 40.9003 454.471 40.7716 453.984 40.7716C453.239 40.7716 452.534 41.0738 451.868 41.6784L450.784 40.1502C451.339 39.6743 451.901 39.3385 452.472 39.1425C453.043 38.941 453.679 38.8402 454.378 38.8402C455.392 38.8402 456.201 39.1229 456.805 39.6883C457.415 40.2481 457.72 40.9927 457.72 41.9219ZM467.268 51.293H464.984V45.9105H461.969V51.293H459.685V39.0166H461.969V43.8952H464.984V39.0166H467.268V51.293ZM475.253 51.293L474.548 48.1945H471.349L470.643 51.293H468.359L471.399 38.9662H474.498L477.546 51.293H475.253ZM474.12 46.1708L473.465 43.3158C473.426 43.1423 473.336 42.7085 473.196 42.0143C473.062 41.3146 472.98 40.8471 472.953 40.612C472.88 41.0934 472.787 41.6252 472.675 42.2074C472.563 42.784 472.272 44.1052 471.802 46.1708H474.12ZM478.629 39.0166H480.745V45.7594C480.745 46.4591 480.692 47.1505 480.585 47.8334H480.678L484.423 39.0166H487.227V51.293H485.128V44.567C485.128 43.7385 485.192 43.0107 485.321 42.3838H485.212L481.45 51.293H478.629V39.0166ZM485.993 35.3135C485.881 36.254 485.573 36.9425 485.069 37.3792C484.571 37.8158 483.835 38.0341 482.861 38.0341C481.909 38.0341 481.196 37.8214 480.72 37.396C480.244 36.9649 479.961 36.2708 479.872 35.3135H481.727C481.789 35.8733 481.906 36.2512 482.08 36.4471C482.259 36.643 482.536 36.741 482.911 36.741C483.281 36.741 483.555 36.629 483.734 36.4051C483.919 36.1812 484.042 35.8173 484.104 35.3135H485.993ZM493.164 51.293H490.888V41.0235H488.537V39.0166H495.515V41.0235H493.164V51.293ZM502.367 51.293H496.834V39.0166H502.367V40.9899H499.117V43.912H502.132V45.8937H499.117V49.2945H502.367V51.293ZM515.987 51.293H513.72V41.0235H510.689V51.293H508.405V39.0166H515.987V51.293ZM526.609 45.138C526.609 47.1701 526.229 48.7319 525.467 49.8235C524.706 50.9151 523.617 51.4609 522.201 51.4609C520.779 51.4609 519.687 50.9179 518.926 49.8319C518.165 48.7403 517.784 47.1701 517.784 45.1212C517.784 43.0891 518.165 41.5329 518.926 40.4525C519.687 39.3665 520.784 38.8235 522.218 38.8235C523.634 38.8235 524.72 39.3693 525.476 40.4609C526.231 41.5469 526.609 43.1059 526.609 45.138ZM520.118 45.138C520.118 46.5375 520.295 47.6039 520.647 48.3372C521 49.0706 521.518 49.4372 522.201 49.4372C523.578 49.4372 524.266 48.0042 524.266 45.138C524.266 42.2718 523.583 40.8387 522.218 40.8387C521.523 40.8387 521 41.2054 520.647 41.9387C520.295 42.6665 520.118 43.7329 520.118 45.138ZM537.349 54.8029H535.132V51.293H529.624V54.8029H527.407V49.2777H528.129C529.282 46.2156 530.021 42.7952 530.346 39.0166H535.955V49.2777H537.349V54.8029ZM533.671 49.2777V41.0235H532.277C532.137 42.3838 531.91 43.7973 531.597 45.2639C531.289 46.725 530.925 48.0629 530.505 49.2777H533.671ZM545.393 42.7952C545.393 44.0996 545.063 45.1016 544.402 45.8013C543.747 46.4955 542.799 46.8426 541.556 46.8426H540.985V51.293H538.701V39.0166H541.816C544.201 39.0166 545.393 40.2761 545.393 42.7952ZM540.985 44.8609H541.421C541.981 44.8609 542.398 44.7069 542.673 44.399C542.947 44.0912 543.084 43.5873 543.084 42.8876C543.084 42.2438 542.958 41.768 542.706 41.4601C542.454 41.1466 542.065 40.9899 541.539 40.9899H540.985V44.8609ZM555.394 45.138C555.394 47.1701 555.013 48.7319 554.252 49.8235C553.491 50.9151 552.402 51.4609 550.986 51.4609C549.564 51.4609 548.472 50.9179 547.711 49.8319C546.949 48.7403 546.569 47.1701 546.569 45.1212C546.569 43.0891 546.949 41.5329 547.711 40.4525C548.472 39.3665 549.569 38.8235 551.002 38.8235C552.419 38.8235 553.505 39.3693 554.26 40.4609C555.016 41.5469 555.394 43.1059 555.394 45.138ZM548.903 45.138C548.903 46.5375 549.08 47.6039 549.432 48.3372C549.785 49.0706 550.303 49.4372 550.986 49.4372C552.363 49.4372 553.051 48.0042 553.051 45.138C553.051 42.2718 552.368 40.8387 551.002 40.8387C550.308 40.8387 549.785 41.2054 549.432 41.9387C549.08 42.6665 548.903 43.7329 548.903 45.138ZM563.967 47.3884C563.967 48.6311 563.648 49.594 563.01 50.2769C562.378 50.9543 561.471 51.293 560.289 51.293H557.191V39.0166H563.019V41.0067H559.475V43.8113H560.197C561.44 43.8113 562.378 44.1108 563.01 44.7097C563.648 45.3087 563.967 46.2016 563.967 47.3884ZM559.475 49.3113H560.18C561.171 49.3113 561.667 48.6983 561.667 47.4723C561.667 46.8846 561.541 46.4619 561.289 46.2044C561.042 45.9413 560.623 45.8097 560.029 45.8097H559.475V49.3113ZM573.154 51.293H570.87V45.9105H567.855V51.293H565.571V39.0166H567.855V43.8952H570.87V39.0166H573.154V51.293ZM580.862 51.293H575.328V39.0166H580.862V40.9899H577.612V43.912H580.627V45.8937H577.612V49.2945H580.862V51.293ZM588.184 51.293H582.651V39.0166H588.184V40.9899H584.935V43.912H587.949V45.8937H584.935V49.2945H588.184V51.293Z" fill="#0090D7"/>
</svg>
