<svg width="984" height="544" viewBox="0 0 984 544" fill="none" xmlns="http://www.w3.org/2000/svg">
<rect width="984" height="543.862" fill="#0C2E26"/>
<path d="M471.699 271.931C471.699 285.952 460.333 297.317 446.312 297.317C432.292 297.317 420.926 285.952 420.926 271.931C420.926 257.91 432.292 246.545 446.312 246.545C460.333 246.545 471.699 257.91 471.699 271.931Z" fill="#E33D35"/>
<path d="M412.004 273.929V269.855L335.536 246.545V297.239L412.004 273.929Z" fill="#E33D35"/>
<path d="M494.354 295.428H502.647V261.514L517.683 282.28H518.896L533.797 261.312V295.428H542.023V248.232H534.201L518.829 270.279L502.715 248.232H494.354V295.428Z" fill="#E33D35"/>
<path d="M551.621 271.83C551.621 286.528 562.139 296.17 576.164 296.17C590.188 296.17 600.773 285.989 600.773 271.83C600.773 257.131 590.188 247.49 576.164 247.49C561.668 247.49 551.621 258.143 551.621 271.83ZM560.386 271.83C560.386 262.053 567.129 255.244 576.164 255.244C585.063 255.244 592.008 262.053 592.008 271.83C592.008 281.134 586.075 288.416 576.164 288.416C567.331 288.416 560.386 281.269 560.386 271.83Z" fill="#E33D35"/>
<path d="M610.37 295.428H618.663V271.088L637.946 295.428H648.464L627.832 270.212L647.25 248.232H637.272L618.663 270.616V248.232H610.37V295.428Z" fill="#E33D35"/>
</svg>
