<svg width="320" height="480" viewBox="0 0 320 480" fill="none" xmlns="http://www.w3.org/2000/svg">
<path d="M63 345H245.644C252.468 345 258 350.532 258 357.356V379H75.3559C68.5319 379 63 373.468 63 366.644V345Z" fill="white"/>
<path d="M82.5453 366.314C82.5453 367.806 82.1624 368.961 81.3966 369.781C80.6375 370.594 79.5493 371 78.1319 371H74.4137V356.268H81.4067V358.656H77.1545V362.022H78.021C79.5124 362.022 80.6375 362.381 81.3966 363.1C82.1624 363.819 82.5453 364.89 82.5453 366.314ZM77.1545 368.622H78.0009C79.1899 368.622 79.7844 367.886 79.7844 366.415C79.7844 365.71 79.6333 365.203 79.331 364.894C79.0354 364.578 78.5316 364.42 77.8195 364.42H77.1545V368.622ZM92.5008 360.803C92.5008 362.368 92.1045 363.57 91.3118 364.41C90.5258 365.243 89.3872 365.66 87.8959 365.66H87.2107V371H84.4699V356.268H88.2083C91.07 356.268 92.5008 357.78 92.5008 360.803ZM87.2107 363.281H87.7347C88.4064 363.281 88.9069 363.097 89.2361 362.727C89.5652 362.358 89.7298 361.753 89.7298 360.914C89.7298 360.141 89.5787 359.57 89.2764 359.201C88.9741 358.824 88.5072 358.636 87.8757 358.636H87.2107V363.281ZM104.502 363.614C104.502 366.052 104.045 367.927 103.131 369.237C102.218 370.547 100.911 371.202 99.2117 371.202C97.5054 371.202 96.1955 370.55 95.2819 369.247C94.3683 367.937 93.9115 366.052 93.9115 363.594C93.9115 361.155 94.3683 359.288 95.2819 357.991C96.1955 356.688 97.5121 356.037 99.2318 356.037C100.931 356.037 102.235 356.692 103.141 358.001C104.048 359.305 104.502 361.176 104.502 363.614ZM96.7127 363.614C96.7127 365.293 96.9243 366.573 97.3475 367.453C97.7707 368.333 98.3921 368.773 99.2117 368.773C100.864 368.773 101.69 367.053 101.69 363.614C101.69 360.175 100.871 358.455 99.2318 358.455C98.3988 358.455 97.7707 358.895 97.3475 359.775C96.9243 360.648 96.7127 361.928 96.7127 363.614ZM115.757 371H113.016V364.541H109.399V371H106.658V356.268H109.399V362.123H113.016V356.268H115.757V371ZM118.367 356.268H120.906V364.36C120.906 365.199 120.842 366.029 120.715 366.849H120.825L125.32 356.268H128.685V371H126.166V362.929C126.166 361.935 126.243 361.061 126.398 360.309H126.267L121.753 371H118.367V356.268ZM139.316 360.803C139.316 362.368 138.919 363.57 138.127 364.41C137.341 365.243 136.202 365.66 134.711 365.66H134.026V371H131.285V356.268H135.023C137.885 356.268 139.316 357.78 139.316 360.803ZM134.026 363.281H134.55C135.221 363.281 135.722 363.097 136.051 362.727C136.38 362.358 136.545 361.753 136.545 360.914C136.545 360.141 136.393 359.57 136.091 359.201C135.789 358.824 135.322 358.636 134.691 358.636H134.026V363.281ZM142.046 371.202C141.341 371.202 140.75 371.107 140.273 370.919V368.481C140.763 368.676 141.27 368.773 141.794 368.773C142.601 368.773 143.222 368.024 143.659 366.526L139.88 356.268H142.752L144.626 362.022C144.78 362.553 144.878 363.006 144.918 363.382H144.999L145.14 362.697L145.291 362.022L146.893 356.268H149.664L146.379 366.687C145.855 368.333 145.254 369.499 144.576 370.184C143.904 370.862 143.061 371.202 142.046 371.202ZM150.974 356.268H153.513V364.36C153.513 365.199 153.449 366.029 153.322 366.849H153.433L157.927 356.268H161.292V371H158.773V362.929C158.773 361.935 158.85 361.061 159.005 360.309H158.874L154.36 371H150.974V356.268ZM159.811 351.825C159.677 352.953 159.307 353.779 158.703 354.303C158.105 354.827 157.221 355.089 156.053 355.089C154.911 355.089 154.054 354.834 153.483 354.324C152.912 353.806 152.573 352.973 152.465 351.825H154.692C154.766 352.496 154.907 352.95 155.115 353.185C155.33 353.42 155.663 353.538 156.113 353.538C156.556 353.538 156.885 353.403 157.1 353.135C157.322 352.866 157.47 352.429 157.544 351.825H159.811ZM168.416 371H165.686V358.677H162.864V356.268H171.238V358.677H168.416V371ZM179.46 371H172.82V356.268H179.46V358.636H175.56V362.143H179.178V364.521H175.56V368.602H179.46V371ZM191.592 358.455C190.806 358.455 190.185 358.915 189.728 359.835C189.278 360.756 189.053 362.035 189.053 363.674C189.053 367.087 189.943 368.793 191.723 368.793C192.502 368.793 193.318 368.545 194.171 368.048V370.486C193.453 370.963 192.532 371.202 191.411 371.202C189.751 371.202 188.475 370.543 187.581 369.227C186.695 367.903 186.251 366.046 186.251 363.654C186.251 361.263 186.708 359.399 187.622 358.062C188.542 356.725 189.818 356.057 191.451 356.057C191.988 356.057 192.502 356.131 192.992 356.278C193.49 356.426 194.02 356.685 194.585 357.054L193.678 359.281C193.375 359.073 193.053 358.885 192.71 358.717C192.368 358.542 191.995 358.455 191.592 358.455ZM202.898 371H196.257V356.268H202.898V358.636H198.998V362.143H202.615V364.521H198.998V368.602H202.898V371ZM205.044 356.268H207.583V364.36C207.583 365.199 207.519 366.029 207.392 366.849H207.502L211.997 356.268H215.362V371H212.843V362.929C212.843 361.935 212.92 361.061 213.075 360.309H212.944L208.43 371H205.044V356.268ZM213.881 351.825C213.746 352.953 213.377 353.779 212.772 354.303C212.175 354.827 211.291 355.089 210.122 355.089C208.98 355.089 208.124 354.834 207.553 354.324C206.982 353.806 206.643 352.973 206.535 351.825H208.762C208.836 352.496 208.977 352.95 209.185 353.185C209.4 353.42 209.733 353.538 210.183 353.538C210.626 353.538 210.955 353.403 211.17 353.135C211.392 352.866 211.54 352.429 211.614 351.825H213.881ZM227 371H224.259V365.287C223.319 365.864 222.368 366.153 221.408 366.153C220.299 366.153 219.44 365.817 218.828 365.146C218.224 364.467 217.921 363.523 217.921 362.314V356.268H220.662V361.71C220.662 362.415 220.766 362.929 220.975 363.251C221.19 363.574 221.539 363.735 222.023 363.735C222.426 363.735 222.805 363.668 223.161 363.533C223.517 363.392 223.883 363.204 224.259 362.969V356.268H227V371ZM236.583 371L235.736 367.282H231.897L231.051 371H228.31L231.958 356.208H235.676L239.334 371H236.583ZM235.223 364.853L234.437 361.427C234.39 361.219 234.282 360.699 234.114 359.866C233.953 359.026 233.856 358.465 233.822 358.183C233.735 358.761 233.624 359.399 233.489 360.097C233.355 360.789 233.006 362.375 232.441 364.853H235.223ZM245.521 358.455C244.735 358.455 244.113 358.915 243.657 359.835C243.206 360.756 242.981 362.035 242.981 363.674C242.981 367.087 243.871 368.793 245.652 368.793C246.431 368.793 247.247 368.545 248.1 368.048V370.486C247.381 370.963 246.461 371.202 245.339 371.202C243.68 371.202 242.404 370.543 241.51 369.227C240.624 367.903 240.18 366.046 240.18 363.654C240.18 361.263 240.637 359.399 241.551 358.062C242.471 356.725 243.747 356.057 245.38 356.057C245.917 356.057 246.431 356.131 246.921 356.278C247.418 356.426 247.949 356.685 248.513 357.054L247.606 359.281C247.304 359.073 246.982 358.885 246.639 358.717C246.297 358.542 245.924 358.455 245.521 358.455Z" fill="#0090D7"/>
</svg>
