<?xml version="1.0" encoding="utf-8"?>
<!-- Generator: Adobe Illustrator 14.0.0, SVG Export Plug-In  -->
<!DOCTYPE svg PUBLIC "-//W3C//DTD SVG 1.1//EN" "http://www.w3.org/Graphics/SVG/1.1/DTD/svg11.dtd" [
	<!ENTITY ns_flows "http://ns.adobe.com/Flows/1.0/">
]>
<svg version="1.1"
	 xmlns="http://www.w3.org/2000/svg" xmlns:xlink="http://www.w3.org/1999/xlink" xmlns:a="http://ns.adobe.com/AdobeSVGViewerExtensions/3.0/"
	 x="0px" y="0px" width="2037px" height="3062px" viewBox="31.504 0 2037 3062" enable-background="new 31.504 0 2037 3062"
	 xml:space="preserve">
<defs>
</defs>
<g>
	<defs>
		<rect id="SVGID_6_" width="2036.991" height="3061.944"/>
	</defs>
	<clipPath id="SVGID_7_">
		<use xlink:href="#SVGID_6_"  overflow="visible"/>
	</clipPath>
	<path clip-path="url(#SVGID_7_)" fill="#40BEEA" d="M1795.094,271.694h-26.191h-55.543h-25.339h-8.078h-14.901
		c-57.638,0-104.363,51.836-104.363,115.778c0,63.942,46.726,115.777,104.363,115.777h14.901v256.543h33.417V296.53h55.543v463.262
		h33.416V271.694H1795.094z"/>
	<path clip-path="url(#SVGID_7_)" fill="#40BEEA" d="M1295.581,2670.694h-20.994h-44.523h-20.311h-6.475h-11.944
		c-46.202,0-83.656,41.551-83.656,92.806s37.454,92.805,83.656,92.805h11.944v205.64h26.785v-371.342h44.523v371.342h26.786v-391.25
		H1295.581z"/>
</g>
<polygon fill="#40BEEA" points="1047.725,1394.015 997.455,1439.024 947.187,1394.015 891.344,1394.015 976.983,1470.694 
	989.068,1470.694 997.455,1470.694 1017.927,1470.694 1103.567,1394.015 "/>
<g>
	<defs>
		<rect id="SVGID_5_" width="2036.991" height="3061.944"/>
	</defs>
	<clipPath id="SVGID_8_">
		<use xlink:href="#SVGID_5_"  overflow="visible"/>
	</clipPath>
	<path clip-path="url(#SVGID_8_)" fill="#40BEEA" d="M1484.595,912.267c-2.284,0-4.513,0.231-6.668,0.669l8.197-15.118l8.714,16.067
		C1491.607,912.843,1488.172,912.267,1484.595,912.267 M1661.57,1129.028l-155.164-286.161h-6.393h-13.89h-20.282l-155.164,286.161
		h50.076l92.84-171.215c4.875,12.367,16.901,21.132,31.001,21.132c15.401,0,28.327-10.458,32.153-24.648l94.745,174.731H1661.57z"/>
</g>
<path fill="#40BEEA" d="M1705.011,2186.837h-160.634l57.699-203.21h160.633L1705.011,2186.837z M2019.143,1983.627l17.85-67.489
	h-177.774l91.008-320.522h-77.343l-91.007,320.522h-160.633l91.007-320.522h-77.342l-91.008,320.522h-173.74l-17.85,67.489h172.423
	l-57.698,203.21h-176.199l-17.848,67.488h174.885l-94.318,332.175h77.343l94.318-332.175h160.633L1591.53,2586.5h77.342
	l94.319-332.175h176.623l17.848-67.488h-175.311l57.699-203.21H2019.143z"/>
<path fill="#40BEEA" d="M292.047,344.34h142.555l-51.205,180.337H240.844L292.047,344.34z M532.375,0.001L451.61,284.447H309.057
	L389.82,0.001h-68.636L240.42,284.447H86.234L70.396,344.34h153.016l-51.205,180.337H15.839L0,584.568h155.201L71.499,879.356
	h68.637l83.702-294.788h142.555l-83.703,294.788h68.637l83.702-294.788h156.743l15.84-59.891H452.033l51.205-180.337h158.934
	l15.839-59.893H520.247L601.012,0.001H532.375z"/>
<g>
	<defs>
		<rect id="SVGID_4_" width="2036.991" height="3061.944"/>
	</defs>
	<clipPath id="SVGID_9_">
		<use xlink:href="#SVGID_4_"  overflow="visible"/>
	</clipPath>
	<path clip-path="url(#SVGID_9_)" fill="#40BEEA" d="M285.275,1888.028c0-17.951-14.554-32.505-32.506-32.505
		s-32.506,14.554-32.506,32.505c0,17.952,14.554,32.505,32.506,32.505S285.275,1905.98,285.275,1888.028"/>
	<path clip-path="url(#SVGID_9_)" fill="#40BEEA" d="M1734.688,2760.891c0-17.952-14.554-32.505-32.505-32.505
		c-17.953,0-32.506,14.553-32.506,32.505s14.553,32.505,32.506,32.505C1720.135,2793.396,1734.688,2778.843,1734.688,2760.891"/>
</g>
<polygon fill="#40BEEA" points="1098.866,744.086 1058.586,780.15 1018.308,744.086 973.563,744.086 1042.184,805.527 
	1051.866,805.527 1058.586,805.527 1074.99,805.527 1143.611,744.086 "/>
<g>
	<defs>
		<rect id="SVGID_3_" width="2036.991" height="3061.944"/>
	</defs>
	<clipPath id="SVGID_10_">
		<use xlink:href="#SVGID_3_"  overflow="visible"/>
	</clipPath>
	<path clip-path="url(#SVGID_10_)" fill="#40BEEA" d="M1083.714,1011.396c0-13.876-11.25-25.125-25.128-25.125
		c-13.876,0-25.124,11.249-25.124,25.125c0,13.879,11.248,25.128,25.124,25.128
		C1072.464,1036.524,1083.714,1025.275,1083.714,1011.396"/>
</g>
<polygon fill="#40BEEA" points="1177.791,256.464 945.677,256.464 945.677,288.999 1177.791,288.999 1177.791,395.694 
	1212.229,395.694 1212.229,288.999 1212.229,256.464 "/>
<path fill="#40BEEA" d="M517.088,1331.453v-130.025l65.193,65.013L517.088,1331.453z M517.088,1153.078V945.695h-36.116V1231
	l-95.294-92.618v47.787l82.592,80.272l-82.592,80.273v47.787l95.294-92.62v285.309h36.116v-207.386l99.323-96.833v-16.026v-8.145
	v-8.889L517.088,1153.078z"/>
<polygon fill="#40BEEA" points="1013.658,1816.004 929.94,1820.388 929.927,1820.038 935.727,1729.62 909.497,1729.62 
	905.84,1729.62 879.609,1729.62 885.411,1820.038 885.396,1820.388 801.678,1816.004 801.678,1857.872 884.065,1852.97 
	880.745,1934.291 890.582,2208.195 905.84,2208.195 909.497,2208.195 924.756,2208.195 934.592,1934.291 931.271,1852.97 
	1013.658,1857.872 "/>
<rect x="1272.422" y="1311.695" fill="#40BEEA" width="50.313" height="73.972"/>
<rect x="1427.696" y="1311.695" fill="#40BEEA" width="50.314" height="73.972"/>
<g>
	<defs>
		<rect id="SVGID_2_" width="2036.991" height="3061.944"/>
	</defs>
	<clipPath id="SVGID_11_">
		<use xlink:href="#SVGID_2_"  overflow="visible"/>
	</clipPath>
	<path clip-path="url(#SVGID_11_)" fill="#40BEEA" d="M1407.87,1657.565c0-18.034-14.62-32.655-32.654-32.655
		c-18.035,0-32.655,14.621-32.655,32.655c0,18.035,14.62,32.655,32.655,32.655C1393.25,1690.221,1407.87,1675.601,1407.87,1657.565"
		/>
</g>
<polygon fill="#40BEEA" points="489.808,2423.503 485.999,2423.503 478.376,2423.503 456.098,2423.503 329.495,2656.927 
	371.501,2656.927 472.953,2469.874 574.405,2656.927 616.411,2656.927 "/>
<g>
	<defs>
		<rect id="SVGID_1_" width="2036.991" height="3061.944"/>
	</defs>
	<clipPath id="SVGID_12_">
		<use xlink:href="#SVGID_1_"  overflow="visible"/>
	</clipPath>
	<path clip-path="url(#SVGID_12_)" fill="#40BEEA" d="M472.953,2766.991c-14.83,0-26.853,12.022-26.853,26.853
		c0,14.829,12.022,26.851,26.853,26.851s26.852-12.021,26.852-26.851C499.805,2779.014,487.783,2766.991,472.953,2766.991"/>
</g>
</svg>
