<?xml version="1.0" encoding="utf-8"?>
<!-- Generator: Adobe Illustrator 14.0.0, SVG Export Plug-In . SVG Version: 6.00 Build 43363)  -->
<!DOCTYPE svg PUBLIC "-//W3C//DTD SVG 1.1//EN" "http://www.w3.org/Graphics/SVG/1.1/DTD/svg11.dtd">
<svg version="1.1" id="Слой_1" xmlns="http://www.w3.org/2000/svg" xmlns:xlink="http://www.w3.org/1999/xlink" x="0px" y="0px"
	 width="2100px" height="2885px" viewBox="0 0 2100 2885" enable-background="new 0 0 2100 2885" xml:space="preserve">
<g>
	<g>
		<defs>
			<rect id="SVGID_1_" x="0" y="49" width="2100" height="4000"/>
		</defs>
		<clipPath id="SVGID_2_">
			<use xlink:href="#SVGID_1_"  overflow="visible"/>
		</clipPath>
		<path clip-path="url(#SVGID_2_)" fill="#3FBFEB" d="M1489.917,640.572c-2.284,0-4.513,0.23-6.668,0.669l8.198-15.118l8.713,16.067
			C1496.929,641.148,1493.494,640.572,1489.917,640.572 M1666.892,857.333l-155.164-286.161h-6.393h-13.889h-20.283L1316,857.333
			h50.077l92.839-171.215c4.875,12.367,16.901,21.132,31.001,21.132c15.401,0,28.327-10.458,32.153-24.648l94.744,174.731H1666.892
			L1666.892,857.333z"/>
	</g>
</g>
<path fill="#3FBFEB" d="M1710.333,1915.142h-160.634l57.699-203.209h160.633L1710.333,1915.142z M2024.465,1711.933l17.85-67.488
	H1864.54l91.008-320.523h-77.343l-91.007,320.522h-160.633l91.007-320.522h-77.342l-91.009,320.522h-173.739l-17.851,67.489h172.423
	l-57.697,203.209h-176.199l-17.848,67.489h174.885l-94.318,332.175h77.343l94.318-332.175h160.633l-94.317,332.175h77.342
	l94.318-332.175h176.623l17.849-67.489h-175.312l57.699-203.209H2024.465L2024.465,1711.933z"/>
<path fill="#3FBFEB" d="M297.369,72.646h142.554l-51.205,180.337H246.166L297.369,72.646z M81.971,49l-6.254,23.645h153.016
	l-51.205,180.337H21.162L5.323,312.875h155.201L76.821,607.662h68.637l83.702-294.787h142.554L288.01,607.662h68.638l83.702-294.787
	h156.743l15.839-59.892H457.355l51.204-180.337h158.935L673.747,49H81.971z"/>
<polygon fill="#3FBFEB" points="495.13,2151.809 491.321,2151.809 483.698,2151.809 461.42,2151.809 334.817,2385.23 
	376.823,2385.23 478.275,2198.179 579.728,2385.23 621.733,2385.23 "/>
<g>
	<g>
		<defs>
			<rect id="SVGID_3_" x="0" y="49" width="2100" height="4000"/>
		</defs>
		<clipPath id="SVGID_4_">
			<use xlink:href="#SVGID_3_"  overflow="visible"/>
		</clipPath>
		<path clip-path="url(#SVGID_4_)" fill="#3FBFEB" d="M478.275,2495.297c-14.83,0-26.853,12.021-26.853,26.853
			S463.445,2549,478.275,2549s26.852-12.021,26.852-26.852C505.127,2507.316,493.105,2495.297,478.275,2495.297"/>
	</g>
</g>
</svg>
