<?xml-stylesheet type="text/css" href="/pgk/main.css" ?><svg xmlns="http://www.w3.org/2000/svg" xmlns:xlink="http://www.w3.org/1999/xlink" id="4390b72b-f04c-4fed-a02a-b45ca5756a81" data-name="Layer 1" viewBox="0 0 1920 1080"><defs><style>.\34 45103ef-9996-4b75-8b6e-5ce3d382aa40,.\36 c0f8d48-89c1-4a1e-9ecc-6e3d24e34ca1{fill:none;}.\37 b69c7eb-2d8c-4627-8d2e-545575f17307{clip-path:url(#db1b93a4-984f-47b3-b3a9-51f278664e59);}.a592a8c4-6d4c-4cf2-a88a-57bacda8bd7c{fill:#fff;}.e57f2209-4fe9-4ba6-9eff-78a7fd6d6ca7{fill:#e8e8ed;}.\39 046641d-d210-4582-a9aa-d342a70cc5b7{font-size:38px;}.\39 046641d-d210-4582-a9aa-d342a70cc5b7,.df0094f3-5d8b-46cb-8bf1-497234bebad7{font-family:ProstoOne-Regular, Prosto One;}.\38 60b817e-d66e-48bf-b30c-332f14043786,.ab0682ef-a662-41fa-8fe2-628788a7cdcb{font-size:20px;font-family:Rubik-Light, Rubik;}.\36 2ffc9b3-0ba8-409d-a5aa-c6a66514a30b,.ab0682ef-a662-41fa-8fe2-628788a7cdcb{letter-spacing:-0.03em;}.b826adfd-4c38-4f1d-9e54-6f49be5b797c{letter-spacing:0em;}.c4a3551f-38e4-4f29-99b2-539d9227982f{letter-spacing:-0.03em;}.\35 c8328e8-5ed3-448a-aceb-7d17317ef8ca{letter-spacing:-0.01em;}.\38 500a278-380b-47f6-885c-2a7e0e5a7b5a{letter-spacing:-0.06em;}.\30 219739f-7184-44ff-8f3e-ddb4a13c87f2{letter-spacing:0em;}.c799749d-94d6-4146-b10d-f0b10b68a52c{letter-spacing:-0.02em;}.\30 8392cdf-7faf-4f64-9196-73c44b9904cd{letter-spacing:-0.03em;}.\35 592f8a2-2452-4805-93e0-e1e07ab351fd{letter-spacing:-0.06em;}.a6405d51-5990-499e-994e-5bd979006577{letter-spacing:-0.01em;}.\39 89af7ab-0a67-455b-9d98-2c905bb6ded9{letter-spacing:0em;}.\31 7c3bb49-4789-40cf-867f-a6bad8f401a7{letter-spacing:-0.02em;}.\38 2531c2f-cc6f-4a72-b371-624dbd7f3fb7{letter-spacing:-0.02em;}.d165a99a-7543-4505-8caa-7e51e267d240{letter-spacing:-0.02em;}.\36 18841ea-cf9d-4f73-b17a-45f86e3bf9e5{letter-spacing:-0.03em;}.\33 4097b37-14ba-4c93-a090-9d2e9fa7f80b{letter-spacing:-0.01em;}.\33 5fe0cd1-e454-434f-888d-140035046631{letter-spacing:-0.02em;}.d3a58afa-039d-4051-aff1-322d2b3f4621{letter-spacing:-0.02em;}.\36 0640db5-e840-400d-9f84-be112d1acbbf{letter-spacing:-0.01em;}.d7d57167-ab4e-4527-94dc-5d94bec72b32{letter-spacing:-0.02em;}.\39 2dacec3-bbae-44f5-9625-19e09182ab90{letter-spacing:-0.03em;}.e9089d7b-b1c0-4758-9b85-8bf591a31b07{letter-spacing:-0.01em;}.a318ff92-3121-4c01-b091-6d044a39591f{letter-spacing:-0.04em;}.c6a1349b-3f97-43b0-af86-6eec6a411bfd{font-size:28px;font-family:Rubik-Medium, Rubik;}.\31 dfcbc3c-671a-45b0-909f-bfd085aad343{letter-spacing:-0.02em;}.adc66945-9c80-4334-bb7a-c45832f23369{letter-spacing:-0.02em;}.\36 3efffa6-d071-46cb-8411-ce1f48e481a6{letter-spacing:0em;}.e3dfe35c-a6a2-4bee-b721-883b2749af40{letter-spacing:-0.01em;}.a8957467-05f8-4a7b-b3ff-1598d4313d8d{letter-spacing:-0.03em;}.\32 a1c5bef-a328-4892-8501-2263c1b8aa73{letter-spacing:-0.01em;}.\39 f436361-5950-4581-817c-720b36481b96{letter-spacing:-0.03em;}.\36 edd873a-a0cf-4257-a07a-b46efa1df9bd{letter-spacing:0em;}.\33 9f157c2-11a5-49a5-b1f4-ace9f9699938{letter-spacing:0em;}.\39 4b655a5-3bd6-407e-9860-70b2eaf92175{letter-spacing:-0.01em;}.\38 4c9bcf8-25a2-4519-8850-95b5c34fd5c3{letter-spacing:-0.03em;}.\34 494f748-02c7-446e-8827-88d3f85db39b{letter-spacing:-0.02em;}.f86945df-9dfc-46f1-92d7-7a3cc64f7739{letter-spacing:-0.01em;}.bd68ae0d-ded7-47f5-ad10-c0935453265a{letter-spacing:-0.06em;}.\36 2ddc070-9644-4d50-b939-4eb5434a1451{letter-spacing:0em;}.df0094f3-5d8b-46cb-8bf1-497234bebad7,.dfdb9337-f3d7-4318-88b9-aed8d5172a6b{fill:#faaa2d;}.\36 c0f8d48-89c1-4a1e-9ecc-6e3d24e34ca1{stroke:#e3ebe9;stroke-width:4px;}.df0094f3-5d8b-46cb-8bf1-497234bebad7{font-size:123px;}</style><clipPath id="db1b93a4-984f-47b3-b3a9-51f278664e59"><rect class="445103ef-9996-4b75-8b6e-5ce3d382aa40" width="1920" height="1080"/></clipPath></defs><title>12</title><g class="7b69c7eb-2d8c-4627-8d2e-545575f17307"><rect class="a592a8c4-6d4c-4cf2-a88a-57bacda8bd7c" width="1920" height="1080"/></g><rect class="e57f2209-4fe9-4ba6-9eff-78a7fd6d6ca7" width="831" height="1080"/><text class="9046641d-d210-4582-a9aa-d342a70cc5b7" transform="translate(99 126.6)">УПРАВЛЕНИЕ</text><text class="9046641d-d210-4582-a9aa-d342a70cc5b7" transform="translate(402.81 126.6)"> </text><text class="9046641d-d210-4582-a9aa-d342a70cc5b7" transform="translate(99 172.2)">УСТОЙЧИВЫМ</text><text class="9046641d-d210-4582-a9aa-d342a70cc5b7" transform="translate(427.32 172.2)"> </text><text class="9046641d-d210-4582-a9aa-d342a70cc5b7" transform="translate(99 217.8)">РАЗВИТИЕМ</text><text class="ab0682ef-a662-41fa-8fe2-628788a7cdcb" transform="translate(99 296.5)">К<tspan class="b826adfd-4c38-4f1d-9e54-6f49be5b797c" x="11.7" y="0">омпания осознает свою ответственность перед обществом, </tspan></text><text class="860b817e-d66e-48bf-b30c-332f14043786" transform="translate(99 322.5)">природой и будущими по<tspan class="c4a3551f-38e4-4f29-99b2-539d9227982f" x="239.56" y="0">к</tspan><tspan class="5c8328e8-5ed3-448a-aceb-7d17317ef8ca" x="249.18" y="0">о</tspan><tspan x="260.16" y="0">лениями. </tspan><tspan class="8500a278-380b-47f6-885c-2a7e0e5a7b5a" x="351.64" y="0">У</tspan><tspan x="361.62" y="0">стойчивое развитие </tspan></text><text class="860b817e-d66e-48bf-b30c-332f14043786" transform="translate(99 348.5)">было и остается ключевым стратегическим приоритетом </text><text class="860b817e-d66e-48bf-b30c-332f14043786" transform="translate(99 374.5)">на протяжении всей нашей деят<tspan class="0219739f-7184-44ff-8f3e-ddb4a13c87f2" x="307.58" y="0">е</tspan><tspan x="318.42" y="0">льности, мотиви</tspan><tspan class="c799749d-94d6-4146-b10d-f0b10b68a52c" x="473.77" y="0">р</tspan><tspan x="485.01" y="0">уя </tspan></text><text class="860b817e-d66e-48bf-b30c-332f14043786" transform="translate(99 400.5)">к постоянным <tspan class="08392cdf-7faf-4f64-9196-73c44b9904cd" x="135.62" y="0">у</tspan><tspan x="145.62" y="0">лучшениям по всем направлениям.</tspan></text><text class="860b817e-d66e-48bf-b30c-332f14043786" transform="translate(99 439.5)"><tspan class="5592f8a2-2452-4805-93e0-e1e07ab351fd">У</tspan><tspan x="10" y="0">стойчивое развитие ПГК основано на заботе о здоровье </tspan></text><text class="860b817e-d66e-48bf-b30c-332f14043786" transform="translate(99 465.5)">и бла<tspan class="a6405d51-5990-499e-994e-5bd979006577" x="50.36" y="0">г</tspan><tspan x="58.5" y="0">оп</tspan><tspan class="5c8328e8-5ed3-448a-aceb-7d17317ef8ca" x="81.18" y="0">о</tspan><tspan class="989af7ab-0a67-455b-9d98-2c905bb6ded9" x="92.16" y="0">лучии сот</tspan><tspan class="17c3bb49-4789-40cf-867f-a6bad8f401a7" x="185.32" y="0">р</tspan><tspan x="196.56" y="0">удни</tspan><tspan class="82531c2f-cc6f-4a72-b371-624dbd7f3fb7" x="242.5" y="0">к</tspan><tspan x="252.14" y="0">ов, соблюдении требований </tspan></text><text class="860b817e-d66e-48bf-b30c-332f14043786" transform="translate(99 491.5)">и норм к охране ок<tspan class="c799749d-94d6-4146-b10d-f0b10b68a52c" x="178.64" y="0">р</tspan><tspan class="b826adfd-4c38-4f1d-9e54-6f49be5b797c" x="189.88" y="0">ужающей среды, где </tspan><tspan class="17c3bb49-4789-40cf-867f-a6bad8f401a7" x="389.14" y="0">ф</tspan><tspan class="989af7ab-0a67-455b-9d98-2c905bb6ded9" x="402.33" y="0">ункциони</tspan><tspan class="d165a99a-7543-4505-8caa-7e51e267d240" x="493.89" y="0">р</tspan><tspan class="b826adfd-4c38-4f1d-9e54-6f49be5b797c" x="505.13" y="0">уют </tspan></text><text class="860b817e-d66e-48bf-b30c-332f14043786" transform="translate(99 517.5)">ее промышленные площадки, на уважении к региональным </text><text class="860b817e-d66e-48bf-b30c-332f14043786" transform="translate(99 543.5)">нормам и правилам, эти<tspan class="618841ea-cf9d-4f73-b17a-45f86e3bf9e5" x="228.54" y="0">к</tspan><tspan x="238.16" y="0">е бизнеса, обеспечении </tspan></text><text class="860b817e-d66e-48bf-b30c-332f14043786" transform="translate(99 569.5)">взаимовы<tspan class="34097b37-14ba-4c93-a090-9d2e9fa7f80b" x="91.78" y="0">г</tspan><tspan class="b826adfd-4c38-4f1d-9e54-6f49be5b797c" x="99.92" y="0">одных </tspan><tspan class="35fe0cd1-e454-434f-888d-140035046631" x="163.22" y="0">у</tspan><tspan x="173.46" y="0">словий сот</tspan><tspan class="17c3bb49-4789-40cf-867f-a6bad8f401a7" x="278.22" y="0">р</tspan><tspan x="289.46" y="0">удничества для партнеров, </tspan></text><text class="860b817e-d66e-48bf-b30c-332f14043786" transform="translate(99 595.5)">прозрачности и информационной открытости.</text><text class="860b817e-d66e-48bf-b30c-332f14043786" transform="translate(99 634.5)">Принципы <tspan class="d3a58afa-039d-4051-aff1-322d2b3f4621" x="103.26" y="0">к</tspan><tspan x="112.9" y="0">орпоративно</tspan><tspan class="60640db5-e840-400d-9f84-be112d1acbbf" x="236.48" y="0">г</tspan><tspan x="244.6" y="0">о управления ПГК сформ</tspan><tspan class="62ffc9b3-0ba8-409d-a5aa-c6a66514a30b" x="479.61" y="0">у</tspan><tspan x="489.61" y="0">лированы </tspan></text><text class="860b817e-d66e-48bf-b30c-332f14043786" transform="translate(99 660.5)">с учетом Принципов <tspan class="c4a3551f-38e4-4f29-99b2-539d9227982f" x="199.54" y="0">к</tspan><tspan class="b826adfd-4c38-4f1d-9e54-6f49be5b797c" x="209.16" y="0">орпоративно</tspan><tspan class="60640db5-e840-400d-9f84-be112d1acbbf" x="332.74" y="0">г</tspan><tspan x="340.86" y="0">о управления </tspan></text><text class="860b817e-d66e-48bf-b30c-332f14043786" transform="translate(99 686.5)">Организации э<tspan class="618841ea-cf9d-4f73-b17a-45f86e3bf9e5" x="140.08" y="0">к</tspan><tspan x="149.7" y="0">ономичес</tspan><tspan class="82531c2f-cc6f-4a72-b371-624dbd7f3fb7" x="241.32" y="0">к</tspan><tspan x="250.96" y="0">о</tspan><tspan class="34097b37-14ba-4c93-a090-9d2e9fa7f80b" x="262.12" y="0">г</tspan><tspan class="b826adfd-4c38-4f1d-9e54-6f49be5b797c" x="270.26" y="0">о сот</tspan><tspan class="d7d57167-ab4e-4527-94dc-5d94bec72b32" x="318.4" y="0">р</tspan><tspan class="b826adfd-4c38-4f1d-9e54-6f49be5b797c" x="329.66" y="0">удничества и развития </tspan></text><text class="860b817e-d66e-48bf-b30c-332f14043786" transform="translate(99 712.5)"><tspan class="92dacec3-bbae-44f5-9625-19e09182ab90">(</tspan><tspan x="5.76" y="0">ОЭСР), п</tspan><tspan class="e9089d7b-b1c0-4758-9b85-8bf591a31b07" x="84.78" y="0">о</tspan><tspan x="95.74" y="0">ложений </tspan><tspan class="62ffc9b3-0ba8-409d-a5aa-c6a66514a30b" x="184.94" y="0">К</tspan><tspan class="b826adfd-4c38-4f1d-9e54-6f49be5b797c" x="196.64" y="0">оде</tspan><tspan class="618841ea-cf9d-4f73-b17a-45f86e3bf9e5" x="230.24" y="0">к</tspan><tspan class="989af7ab-0a67-455b-9d98-2c905bb6ded9" x="239.86" y="0">са управления, одобренно</tspan><tspan class="60640db5-e840-400d-9f84-be112d1acbbf" x="490.71" y="0">г</tspan><tspan x="498.83" y="0">о </tspan></text><text class="860b817e-d66e-48bf-b30c-332f14043786" transform="translate(99 738.5)">Советом директоров Банка России 21 марта 2014 <tspan class="60640db5-e840-400d-9f84-be112d1acbbf" x="471.19" y="0">г</tspan><tspan x="479.31" y="0">ода, </tspan></text><text class="860b817e-d66e-48bf-b30c-332f14043786" transform="translate(99 764.5)">а также <tspan class="35fe0cd1-e454-434f-888d-140035046631" x="77.72" y="0">у</tspan><tspan x="87.96" y="0">спешных мировых и отечественных практик </tspan></text><text class="860b817e-d66e-48bf-b30c-332f14043786" transform="translate(99 790.5)">в области <tspan class="c4a3551f-38e4-4f29-99b2-539d9227982f" x="98.18" y="0">к</tspan><tspan class="b826adfd-4c38-4f1d-9e54-6f49be5b797c" x="107.8" y="0">орпоративно</tspan><tspan class="34097b37-14ba-4c93-a090-9d2e9fa7f80b" x="231.38" y="0">г</tspan><tspan class="b826adfd-4c38-4f1d-9e54-6f49be5b797c" x="239.52" y="0">о управления.</tspan></text><text class="860b817e-d66e-48bf-b30c-332f14043786" transform="translate(99 829.5)"><tspan class="a318ff92-3121-4c01-b091-6d044a39591f">У</tspan><tspan x="10.5" y="0">правление аспектами </tspan><tspan class="35fe0cd1-e454-434f-888d-140035046631" x="222.28" y="0">у</tspan><tspan x="232.52" y="0">стойчиво</tspan><tspan class="60640db5-e840-400d-9f84-be112d1acbbf" x="320.72" y="0">г</tspan><tspan class="b826adfd-4c38-4f1d-9e54-6f49be5b797c" x="328.84" y="0">о развития интегрировано </tspan></text><text class="860b817e-d66e-48bf-b30c-332f14043786" transform="translate(99 855.5)">в систему <tspan class="618841ea-cf9d-4f73-b17a-45f86e3bf9e5" x="99.24" y="0">к</tspan><tspan x="108.86" y="0">орпоративно</tspan><tspan class="a6405d51-5990-499e-994e-5bd979006577" x="232.44" y="0">г</tspan><tspan x="240.58" y="0">о управления </tspan><tspan class="618841ea-cf9d-4f73-b17a-45f86e3bf9e5" x="373.7" y="0">к</tspan><tspan x="383.32" y="0">омпании </tspan></text><text class="860b817e-d66e-48bf-b30c-332f14043786" transform="translate(99 881.5)">и осуществляется на всех ее производственных площадках, </text><text class="860b817e-d66e-48bf-b30c-332f14043786" transform="translate(99 907.5)">в том числе за<tspan class="c799749d-94d6-4146-b10d-f0b10b68a52c" x="136.58" y="0">р</tspan><tspan x="147.82" y="0">убежных. Вопросы </tspan><tspan class="35fe0cd1-e454-434f-888d-140035046631" x="328.6" y="0">у</tspan><tspan class="989af7ab-0a67-455b-9d98-2c905bb6ded9" x="338.84" y="0">стойчиво</tspan><tspan class="34097b37-14ba-4c93-a090-9d2e9fa7f80b" x="427.03" y="0">г</tspan><tspan x="435.17" y="0">о развития </tspan></text><text class="860b817e-d66e-48bf-b30c-332f14043786" transform="translate(99 933.5)">находятся в зоне постоянно<tspan class="60640db5-e840-400d-9f84-be112d1acbbf" x="267.14" y="0">г</tspan><tspan class="b826adfd-4c38-4f1d-9e54-6f49be5b797c" x="275.26" y="0">о внимания </tspan><tspan class="c799749d-94d6-4146-b10d-f0b10b68a52c" x="389.64" y="0">р</tspan><tspan x="400.88" y="0">у</tspan><tspan class="82531c2f-cc6f-4a72-b371-624dbd7f3fb7" x="411.46" y="0">к</tspan><tspan x="421.1" y="0">оводства ПГК.</tspan></text><text class="c6a1349b-3f97-43b0-af86-6eec6a411bfd" transform="translate(1089 126.18)">Ок<tspan class="1dfcbc3c-671a-45b0-909f-bfd085aad343" x="35.5" y="0">р</tspan><tspan x="52.14" y="0">ужающая среда</tspan></text><text class="860b817e-d66e-48bf-b30c-332f14043786" transform="translate(1089 178.18)">Забота об ок<tspan class="adc66945-9c80-4334-bb7a-c45832f23369" x="119.96" y="0">р</tspan><tspan x="131.2" y="0">ужающей среде является частью </tspan><tspan class="c4a3551f-38e4-4f29-99b2-539d9227982f" x="449.29" y="0">к</tspan><tspan class="63efffa6-d071-46cb-8411-ce1f48e481a6" x="458.92" y="0">орпоративной </tspan></text><text class="860b817e-d66e-48bf-b30c-332f14043786" transform="translate(1089 204.18)">п<tspan class="e3dfe35c-a6a2-4bee-b721-883b2749af40" x="11.52" y="0">о</tspan><tspan x="22.5" y="0">литики ПГК. </tspan><tspan class="a8957467-05f8-4a7b-b3ff-1598d4313d8d" x="141" y="0">К</tspan><tspan class="63efffa6-d071-46cb-8411-ce1f48e481a6" x="152.68" y="0">омпания еже</tspan><tspan class="2a1c5bef-a328-4892-8501-2263c1b8aa73" x="275.56" y="0">г</tspan><tspan x="283.68" y="0">одно тратит миллионы </tspan><tspan class="adc66945-9c80-4334-bb7a-c45832f23369" x="504.81" y="0">р</tspan><tspan x="516.05" y="0">ублей </tspan></text><text class="860b817e-d66e-48bf-b30c-332f14043786" transform="translate(1089 230.18)">на защиту ок<tspan class="17c3bb49-4789-40cf-867f-a6bad8f401a7" x="123.14" y="0">р</tspan><tspan class="63efffa6-d071-46cb-8411-ce1f48e481a6" x="134.38" y="0">ужающей среды и прод</tspan><tspan class="e9089d7b-b1c0-4758-9b85-8bf591a31b07" x="355.84" y="0">о</tspan><tspan x="366.8" y="0">лжает инвестировать </tspan></text><text class="860b817e-d66e-48bf-b30c-332f14043786" transform="translate(1089 256.18)">в э<tspan class="82531c2f-cc6f-4a72-b371-624dbd7f3fb7" x="26.72" y="0">к</tspan><tspan class="e9089d7b-b1c0-4758-9b85-8bf591a31b07" x="36.36" y="0">о</tspan><tspan x="47.32" y="0">логические проекты и </tspan><tspan class="9f436361-5950-4581-817c-720b36481b96" x="260.98" y="0">у</tspan><tspan x="270.98" y="0">лучшение техн</tspan><tspan class="e9089d7b-b1c0-4758-9b85-8bf591a31b07" x="412.67" y="0">о</tspan><tspan x="423.63" y="0">логий на своих </tspan></text><text class="860b817e-d66e-48bf-b30c-332f14043786" transform="translate(1089 282.18)">предприятиях.</text><text class="860b817e-d66e-48bf-b30c-332f14043786" transform="translate(1089 321.18)">В ПГК бережно относятся к природным ресурсам, сохраняют </text><text class="860b817e-d66e-48bf-b30c-332f14043786" transform="translate(1089 347.18)">их и д<tspan class="6edd873a-a0cf-4257-a07a-b46efa1df9bd" x="56.04" y="0">е</tspan><tspan class="39f157c2-11a5-49a5-b1f4-ace9f9699938" x="66.9" y="0">лают все необходимое для то</tspan><tspan class="2a1c5bef-a328-4892-8501-2263c1b8aa73" x="347.04" y="0">г</tspan><tspan class="94b655a5-3bd6-407e-9860-70b2eaf92175" x="355.16" y="0">о</tspan><tspan x="366.09" y="0">, чтобы исключить вредное </tspan></text><text class="860b817e-d66e-48bf-b30c-332f14043786" transform="translate(1089 373.18)">воздействие на них. Все промышленные площадки ПГК проходят </text><text class="860b817e-d66e-48bf-b30c-332f14043786" transform="translate(1089 399.18)">рег<tspan class="84c9bcf8-25a2-4519-8850-95b5c34fd5c3" x="30.9" y="0">у</tspan><tspan x="40.92" y="0">лярную модернизаци</tspan><tspan class="2a1c5bef-a328-4892-8501-2263c1b8aa73" x="243.9" y="0">ю</tspan><tspan class="39f157c2-11a5-49a5-b1f4-ace9f9699938" x="258.92" y="0">. Новое обо</tspan><tspan class="4494f748-02c7-446e-8827-88d3f85db39b" x="365.74" y="0">р</tspan><tspan x="377" y="0">удование на промывочно-</tspan></text><text class="860b817e-d66e-48bf-b30c-332f14043786" transform="translate(1089 425.18)">пропарочных станциях <tspan class="2a1c5bef-a328-4892-8501-2263c1b8aa73" x="223.62" y="0">(</tspan><tspan x="229.76" y="0">ППС) ПГК обеспечивает замкнутый цикл </tspan></text><text class="860b817e-d66e-48bf-b30c-332f14043786" transform="translate(1089 451.18)">пропарки, что исключает попадание нефтешлама в ок<tspan class="17c3bb49-4789-40cf-867f-a6bad8f401a7" x="511.53" y="0">р</tspan><tspan x="522.77" y="0">ужаю</tspan><tspan class="f86945df-9dfc-46f1-92d7-7a3cc64f7739" x="574.31" y="0">щ</tspan><tspan x="590.09" y="0">ую </tspan></text><text class="860b817e-d66e-48bf-b30c-332f14043786" transform="translate(1089 477.18)">сред<tspan class="bd68ae0d-ded7-47f5-ad10-c0935453265a" x="44.78" y="0">у</tspan><tspan class="39f157c2-11a5-49a5-b1f4-ace9f9699938" x="54.18" y="0">. Помимо это</tspan><tspan class="2a1c5bef-a328-4892-8501-2263c1b8aa73" x="175.88" y="0">г</tspan><tspan class="94b655a5-3bd6-407e-9860-70b2eaf92175" x="184" y="0">о</tspan><tspan x="194.94" y="0">, оснащение предприятий современной </tspan></text><text class="860b817e-d66e-48bf-b30c-332f14043786" transform="translate(1089 503.18)">техни<tspan class="82531c2f-cc6f-4a72-b371-624dbd7f3fb7" x="55.06" y="0">к</tspan><tspan x="64.7" y="0">ой сводит к минимуму ч</tspan><tspan class="62ddc070-9644-4d50-b939-4eb5434a1451" x="291.94" y="0">е</tspan><tspan class="39f157c2-11a5-49a5-b1f4-ace9f9699938" x="302.78" y="0">ловеческий фактор и позв</tspan><tspan class="e9089d7b-b1c0-4758-9b85-8bf591a31b07" x="550.95" y="0">о</tspan><tspan x="561.91" y="0">ляет </tspan></text><text class="860b817e-d66e-48bf-b30c-332f14043786" transform="translate(1089 529.18)">э<tspan class="82531c2f-cc6f-4a72-b371-624dbd7f3fb7" x="10.72" y="0">к</tspan><tspan x="20.36" y="0">ономить природные ресурсы.</tspan></text><text class="860b817e-d66e-48bf-b30c-332f14043786" transform="translate(1089 568.18)">Предприятия ПГК считаются одними из передовых на сети </text><text class="860b817e-d66e-48bf-b30c-332f14043786" transform="translate(1089 594.18)">РЖД и принимают г<tspan class="17c3bb49-4789-40cf-867f-a6bad8f401a7" x="189.08" y="0">р</tspan><tspan x="200.32" y="0">уппы студентов, изучающих современные </tspan></text><text class="860b817e-d66e-48bf-b30c-332f14043786" transform="translate(1089 620.18)">практики под<tspan class="2a1c5bef-a328-4892-8501-2263c1b8aa73" x="127.24" y="0">г</tspan><tspan x="135.36" y="0">отовки ва</tspan><tspan class="94b655a5-3bd6-407e-9860-70b2eaf92175" x="227.22" y="0">г</tspan><tspan x="235.36" y="0">онов под налив.</tspan></text><text class="c6a1349b-3f97-43b0-af86-6eec6a411bfd" transform="translate(1087.5 912)">ПРЕДПРИЯТИЯ ПГК СЧИТАЮТСЯ </text><text class="c6a1349b-3f97-43b0-af86-6eec6a411bfd" transform="translate(1087.5 945.99)">ОДНИМИ ИЗ ПЕРЕДОВЫХ </text><text class="c6a1349b-3f97-43b0-af86-6eec6a411bfd" transform="translate(1087.5 979.98)">НА СЕТИ РЖД</text><g class="7b69c7eb-2d8c-4627-8d2e-545575f17307"><path class="dfdb9337-f3d7-4318-88b9-aed8d5172a6b" d="M1065.4,895.25a6.91,6.91,0,0,0-5.9-2.85,7,7,0,0,0-5.45,2.25,7.54,7.54,0,0,0-2,5.25,7.67,7.67,0,0,0,2,5.25,6.41,6.41,0,0,0,5,2.25,7.56,7.56,0,0,0,1.8-.2,2.35,2.35,0,0,0,.7-.3,7,7,0,0,1-2.65,4.75,7.73,7.73,0,0,1-4.85,1.75v3.5a14.63,14.63,0,0,0,4.85-.85,11.78,11.78,0,0,0,4.35-2.7,14,14,0,0,0,3.1-4.7,17.32,17.32,0,0,0,1.2-6.75,10.91,10.91,0,0,0-2.1-6.65m-20,0a6.91,6.91,0,0,0-5.9-2.85,7,7,0,0,0-5.45,2.25,7.54,7.54,0,0,0-2,5.25,7.67,7.67,0,0,0,2,5.25,6.41,6.41,0,0,0,5,2.25,7.56,7.56,0,0,0,1.8-.2,2.35,2.35,0,0,0,.7-.3,7,7,0,0,1-2.65,4.75,7.73,7.73,0,0,1-4.85,1.75v3.5a14.63,14.63,0,0,0,4.85-.85,11.78,11.78,0,0,0,4.35-2.7,14,14,0,0,0,3.1-4.7,17.32,17.32,0,0,0,1.2-6.75,10.91,10.91,0,0,0-2.1-6.65"/></g><line class="6c0f8d48-89c1-4a1e-9ecc-6e3d24e34ca1" x1="891" y1="976.88" x2="1029" y2="976.88"/><line class="6c0f8d48-89c1-4a1e-9ecc-6e3d24e34ca1" x1="891" y1="102" x2="1029" y2="102"/><text class="df0094f3-5d8b-46cb-8bf1-497234bebad7" transform="translate(932.53 236)">1</text><text class="860b817e-d66e-48bf-b30c-332f14043786" transform="translate(39.92 57)">12</text><g class="7b69c7eb-2d8c-4627-8d2e-545575f17307"><text class="860b817e-d66e-48bf-b30c-332f14043786" transform="translate(99 57)">О <tspan class="d3a58afa-039d-4051-aff1-322d2b3f4621" x="18.4" y="0">к</tspan><tspan x="28.04" y="0">омпании</tspan></text></g></svg>