<?xml-stylesheet type="text/css" href="/pgk/main.css" ?><svg xmlns="http://www.w3.org/2000/svg" xmlns:xlink="http://www.w3.org/1999/xlink" id="487e6649-2fd8-48da-9b16-78ff4104c1fd" data-name="Layer 1" viewBox="0 0 1920 1080"><defs><style>.\35 d427921-fa41-473b-8084-0b8b9d5eb45f,.\39 c4138a7-75bc-459a-899a-f123eead23fa,.bd503cfb-50b5-4b15-bf42-e1722f41ea98,.c9baeefe-aee8-4ad2-926b-ad53eb75c840{fill:none;}.\33 7da1f93-29d7-48db-897c-476610efb9be{clip-path:url(#6421b3b8-4fe7-474c-a156-aa5c137bc04c);}.\34 c8b9a87-46dd-46c2-9a84-03d6ce48e6a3,.\39 0bd6361-9591-4876-b231-079ba9412861{fill:#fff;}.\30 7e8bbca-a718-43c6-ac02-bc24c8f9ac1a{fill:#e8e8ed;}.bab7b962-0192-4468-a95d-e209886e9465{font-size:38px;font-family:ProstoOne-Regular, Prosto One;}.\33 fec28a3-4fea-457d-bd87-4eb8389640bd,.\36 e56e4a5-b2d7-40d4-923b-60e80113dea4,.\39 2b10091-0122-4238-81cb-f3f068d83392,.bcf3bf89-03ad-44c2-8fa6-2b12338f3fab,.d9f7fbba-baf5-4512-b555-8cb84fa6e28d{font-size:20px;}.\36 e56e4a5-b2d7-40d4-923b-60e80113dea4,.\39 08745f4-5e56-4af6-8e5c-af317bb59628,.bcf3bf89-03ad-44c2-8fa6-2b12338f3fab{font-family:Rubik-Light, Rubik;}.a17366ee-8e35-4ead-a51d-300f16ac3e66{letter-spacing:0em;}.\39 222c42d-328a-4b47-a9d5-57de919a3c10{letter-spacing:0em;}.de9b2569-53f0-4520-9761-7e3841b6254f{letter-spacing:0em;}.\32 9cc806f-a9f8-4947-aefe-a2fafca2f8a9{letter-spacing:-0.02em;}.\39 1298138-537f-4344-8f78-417ddd283ddf{letter-spacing:-0.01em;}.\30 b109fd9-a455-4507-94a2-b4b2013ca2aa{letter-spacing:0em;}.\33 777969f-ea3f-4202-bb16-6aa7db1eb9e8{letter-spacing:-0.06em;}.\34 3a8ef7f-d752-42fb-8acf-2266038d9efc{letter-spacing:-0.03em;}.a21c5d9e-c3e9-45c7-b28c-690b09f4c23b{letter-spacing:-0.02em;}.c76eff5e-ab81-4326-8c59-6ea6b498f04e{letter-spacing:0em;}.\33 8629651-f049-4f12-b1cb-8b7ffb0604db{letter-spacing:-0.02em;}.\32 ea93394-a373-484a-8fd0-87dfc40a6cec{letter-spacing:-0.01em;}.\33 c332059-511c-450c-aadb-5c6a102bc99c{letter-spacing:-0.01em;}.\36 20413d2-d667-4fc9-a07b-bf10e6481c89{letter-spacing:-0.04em;}.ac5c4851-e850-49a2-a6f0-13ff911b5198{letter-spacing:-0.01em;}.ec804640-23a1-4773-a730-f78441fbc342{letter-spacing:-0.02em;}.eb6fc962-3d6f-43b2-a2aa-c64bac8367e9{letter-spacing:-0.02em;}.\38 0414d0d-eb22-4468-aa18-c5428770b0da{letter-spacing:-0.04em;}.\36 800ab2f-7d5b-405e-a102-c36eb0a6847f{letter-spacing:0em;}.\34 5fb39de-fda4-4ce7-85e9-9e130464b06a{letter-spacing:-0.09em;}.ddc53fd8-fc8f-40a1-b3d6-53304dad030c{letter-spacing:-0.01em;}.\36 10329f4-39b9-4435-be6b-0e1dac45294f{letter-spacing:-0.03em;}.\33 7fdf5a8-d478-4408-9d39-75284b20ce09{letter-spacing:-0.03em;}.c6aea700-0c72-4858-b45c-9c484543f5fe{letter-spacing:-0.02em;}.\32 0e21f0c-b5bb-4231-b35d-967acecc038d{letter-spacing:-0.03em;}.\30 71f4088-e8f9-4901-be6e-fa3039a2f8dc{letter-spacing:-0.03em;}.\32 ada9cd0-64a6-49b4-9d6d-4f64cfc3a45d,.bcf3bf89-03ad-44c2-8fa6-2b12338f3fab{letter-spacing:-0.02em;}.f9a73d48-3cdd-420f-8997-8891f397a6ea{letter-spacing:-0.01em;}.df90a69e-513f-40bb-8c69-1136d7a3b10d{letter-spacing:-0.01em;}.\34 f40db80-50df-46c8-af96-9e671bd4aa5a{letter-spacing:-0.02em;}.cd2f0bb9-94af-46e7-943d-6391a532659c{letter-spacing:0em;}.\30 5cd4ede-a875-4ee9-9652-aff0e288a1d5{letter-spacing:-0.03em;}.ce1b87f3-f1af-457e-a5db-3e0d264a9106{letter-spacing:0em;}.c6e3e846-fb3c-4a09-a0dc-ed7e67fd7431{letter-spacing:-0.01em;}.e2c99b55-1d93-497f-8431-c9af15df3bbe{letter-spacing:-0.02em;}.\34 b86362e-70cf-47d8-aafe-f3dbbe3c6985{letter-spacing:-0.01em;}.\35 99aaf00-cdb5-4f8b-8586-f3143d15b607{font-size:28px;}.\35 99aaf00-cdb5-4f8b-8586-f3143d15b607,.\39 2b10091-0122-4238-81cb-f3f068d83392{font-family:Rubik-Medium, Rubik;}.\34 349c487-6d5c-46f1-b34e-5727f443c8be{letter-spacing:-0.01em;}.\30 5554aa2-51b5-4096-96bf-477eb8513fdc{letter-spacing:0em;}.\35 d427921-fa41-473b-8084-0b8b9d5eb45f{stroke:#e6e7e8;}.\35 d427921-fa41-473b-8084-0b8b9d5eb45f,.bd503cfb-50b5-4b15-bf42-e1722f41ea98,.c9baeefe-aee8-4ad2-926b-ad53eb75c840{stroke-miterlimit:10;}.bd503cfb-50b5-4b15-bf42-e1722f41ea98{stroke:#faaa2d;}.bd503cfb-50b5-4b15-bf42-e1722f41ea98,.c9baeefe-aee8-4ad2-926b-ad53eb75c840{stroke-width:4px;}.c9baeefe-aee8-4ad2-926b-ad53eb75c840{stroke:#e8e8ed;}.\33 fec28a3-4fea-457d-bd87-4eb8389640bd,.aedf9670-8c38-430e-af3c-073f398f06bb{fill:#faaa2d;}.\34 c8b9a87-46dd-46c2-9a84-03d6ce48e6a3,.\39 08745f4-5e56-4af6-8e5c-af317bb59628{font-size:16px;}.\34 c8b9a87-46dd-46c2-9a84-03d6ce48e6a3{font-family:Rubik-Bold, Rubik;font-weight:700;}.\36 c25ad15-9cb7-4eb7-804a-6a6189ab053a{fill:#2960a1;}.\39 d2c70c4-7337-4529-a331-9006533e83fe,.d9f7fbba-baf5-4512-b555-8cb84fa6e28d{fill:#9ea3aa;}.\38 8627231-e05a-44d5-8f17-8d37d16e3dd5{letter-spacing:-0.01em;}.\30 99a8d8b-dbfd-4e11-9a8d-6d680fe724f3{letter-spacing:-0.03em;}.\30 8e13ebe-e071-45ff-99d8-33bb7603231b{letter-spacing:-0.03em;}.\33 9e292fe-9fe6-4592-8ecf-d17aa63553ed{letter-spacing:0em;}.\33 fec28a3-4fea-457d-bd87-4eb8389640bd,.d9f7fbba-baf5-4512-b555-8cb84fa6e28d{font-family:Rubik-Regular, Rubik;}.\37 4b1e011-61ab-4bf7-accf-b8755fe2d55a{letter-spacing:-0.02em;}.\39 1a06b60-3ada-4ea7-aa24-a5d174c4e775{letter-spacing:-0.04em;}.\39 ec2727a-0302-4a58-8bd2-d8ce8890283c{letter-spacing:-0.02em;}.\35 3094f6e-30e2-4171-bf6c-3ee5dbfd43f1{letter-spacing:-0.1em;}.db80930a-c9ee-4886-a68a-04b69cb98176{letter-spacing:-0.02em;}.\36 98e2954-0717-45ed-b32e-f1bb14fcbe3c{letter-spacing:-0.03em;}.\31 3f5922f-085b-4782-af1f-b1646a5ef2c8{letter-spacing:-0.04em;}.c820e5d0-959c-4383-bf67-404e09a94eda{letter-spacing:-0.01em;}.\30 95696e6-6459-4fb5-83f3-8eb370159519{letter-spacing:-0.01em;}.bd669647-d244-44d5-a486-e617b6feafa8{letter-spacing:-0.02em;}.d5d501fb-ca79-4360-ba5d-7003304e78de{letter-spacing:0em;}</style><clipPath id="6421b3b8-4fe7-474c-a156-aa5c137bc04c"><rect class="9c4138a7-75bc-459a-899a-f123eead23fa" width="1920" height="1080"/></clipPath></defs><title>14</title><g class="37da1f93-29d7-48db-897c-476610efb9be"><rect class="90bd6361-9591-4876-b231-079ba9412861" width="1920" height="1080"/></g><rect class="07e8bbca-a718-43c6-ac02-bc24c8f9ac1a" width="633" height="1080"/><text class="bab7b962-0192-4468-a95d-e209886e9465" transform="translate(99 126.6)">ЭКОЛОГИЯ</text><text class="bab7b962-0192-4468-a95d-e209886e9465" transform="translate(347.33 126.6)"> </text><text class="bab7b962-0192-4468-a95d-e209886e9465" transform="translate(99 172.2)">И</text><text class="bab7b962-0192-4468-a95d-e209886e9465" transform="translate(131.68 172.2)"> </text><text class="bab7b962-0192-4468-a95d-e209886e9465" transform="translate(144.98 172.2)">РАЦИОНАЛЬНОЕ</text><text class="bab7b962-0192-4468-a95d-e209886e9465" transform="translate(524.03 172.2)"> </text><text class="bab7b962-0192-4468-a95d-e209886e9465" transform="translate(99 217.8)">ИСПОЛЬЗОВАНИЕ</text><text class="bab7b962-0192-4468-a95d-e209886e9465" transform="translate(505.03 217.8)"> </text><text class="bab7b962-0192-4468-a95d-e209886e9465" transform="translate(99 263.4)">РЕСУРСОВ</text><text class="6e56e4a5-b2d7-40d4-923b-60e80113dea4" transform="translate(99 358.7)">Основная ц<tspan class="a17366ee-8e35-4ead-a51d-300f16ac3e66" x="108.08" y="0">е</tspan><tspan x="118.92" y="0">ль природоохранной деят</tspan><tspan class="9222c42d-328a-4b47-a9d5-57de919a3c10" x="364.04" y="0">е</tspan><tspan class="de9b2569-53f0-4520-9761-7e3841b6254f" x="374.88" y="0">льности </tspan></text><text class="6e56e4a5-b2d7-40d4-923b-60e80113dea4" transform="translate(99 384.7)">ПГК — снижение воздействия на ок<tspan class="29cc806f-a9f8-4947-aefe-a2fafca2f8a9" x="336.66" y="0">р</tspan><tspan x="347.9" y="0">ужаю</tspan><tspan class="91298138-537f-4344-8f78-417ddd283ddf" x="399.44" y="0">щ</tspan><tspan class="0b109fd9-a455-4507-94a2-b4b2013ca2aa" x="415.24" y="0">ую </tspan></text><text class="6e56e4a5-b2d7-40d4-923b-60e80113dea4" transform="translate(99 410.7)">сред<tspan class="3777969f-ea3f-4202-bb16-6aa7db1eb9e8" x="44.78" y="0">у</tspan><tspan x="54.18" y="0">. </tspan><tspan class="43a8ef7f-d752-42fb-8acf-2266038d9efc" x="64.1" y="0">К</tspan><tspan x="75.78" y="0">омпания как один из к</tspan><tspan class="a21c5d9e-c3e9-45c7-b28c-690b09f4c23b" x="286.68" y="0">р</tspan><tspan class="0b109fd9-a455-4507-94a2-b4b2013ca2aa" x="297.92" y="0">упнейших частных </tspan></text><text class="6e56e4a5-b2d7-40d4-923b-60e80113dea4" transform="translate(99 436.7)">операторов г<tspan class="a21c5d9e-c3e9-45c7-b28c-690b09f4c23b" x="124.18" y="0">р</tspan><tspan x="135.42" y="0">узовых ж</tspan><tspan class="c76eff5e-ab81-4326-8c59-6ea6b498f04e" x="221.52" y="0">е</tspan><tspan x="232.38" y="0">лезнодорожных перевозок </tspan></text><text class="6e56e4a5-b2d7-40d4-923b-60e80113dea4" transform="translate(99 462.7)">России, понимая ме<tspan class="a21c5d9e-c3e9-45c7-b28c-690b09f4c23b" x="189.16" y="0">р</tspan><tspan x="200.4" y="0">у ответственности за будущие </tspan></text><text class="6e56e4a5-b2d7-40d4-923b-60e80113dea4" transform="translate(99 488.7)">по<tspan class="38629651-f049-4f12-b1cb-8b7ffb0604db" x="22.68" y="0">к</tspan><tspan class="2ea93394-a373-484a-8fd0-87dfc40a6cec" x="32.32" y="0">о</tspan><tspan x="43.3" y="0">ления во всех регионах свое</tspan><tspan class="3c332059-511c-450c-aadb-5c6a102bc99c" x="315.76" y="0">г</tspan><tspan class="0b109fd9-a455-4507-94a2-b4b2013ca2aa" x="323.88" y="0">о присутствия:</tspan></text><text class="6e56e4a5-b2d7-40d4-923b-60e80113dea4" transform="translate(99 527.7)">•</text><text class="6e56e4a5-b2d7-40d4-923b-60e80113dea4" transform="translate(106.6 527.7)"> </text><text class="6e56e4a5-b2d7-40d4-923b-60e80113dea4" transform="translate(117 527.7)">внедряет современные природоохранные </text><text class="6e56e4a5-b2d7-40d4-923b-60e80113dea4" transform="translate(117 553.7)">техн<tspan class="2ea93394-a373-484a-8fd0-87dfc40a6cec" x="43.14" y="0">о</tspan><tspan x="54.12" y="0">логии </tspan><tspan class="620413d2-d667-4fc9-a07b-bf10e6481c89" x="113.86" y="0">(</tspan><tspan x="119.44" y="0">наприме</tspan><tspan class="ac5c4851-e850-49a2-a6f0-13ff911b5198" x="201.34" y="0">р</tspan><tspan class="0b109fd9-a455-4507-94a2-b4b2013ca2aa" x="212.74" y="0">, модернизи</tspan><tspan class="a21c5d9e-c3e9-45c7-b28c-690b09f4c23b" x="326.74" y="0">р</tspan><tspan class="ec804640-23a1-4773-a730-f78441fbc342" x="337.98" y="0">у</tspan><tspan class="0b109fd9-a455-4507-94a2-b4b2013ca2aa" x="348.24" y="0">ет очистные </tspan></text><text class="6e56e4a5-b2d7-40d4-923b-60e80113dea4" transform="translate(117 579.7)">соо<tspan class="eb6fc962-3d6f-43b2-a2aa-c64bac8367e9" x="33.04" y="0">р</tspan><tspan class="0b109fd9-a455-4507-94a2-b4b2013ca2aa" x="44.3" y="0">ужени</tspan><tspan class="80414d0d-eb22-4468-aa18-c5428770b0da" x="104.62" y="0">я</tspan><tspan x="114.22" y="0">);</tspan></text><text class="6e56e4a5-b2d7-40d4-923b-60e80113dea4" transform="translate(99 618.7)">•</text><text class="6e56e4a5-b2d7-40d4-923b-60e80113dea4" transform="translate(106.6 618.7)"> </text><text class="6e56e4a5-b2d7-40d4-923b-60e80113dea4" transform="translate(117 618.7)">оз<tspan class="6800ab2f-7d5b-405e-a102-c36eb0a6847f" x="21" y="0">е</tspan><tspan x="31.86" y="0">леняет территории своих объектов </tspan></text><text class="6e56e4a5-b2d7-40d4-923b-60e80113dea4" transform="translate(117 644.7)">и обеспечивает разд<tspan class="a17366ee-8e35-4ead-a51d-300f16ac3e66" x="197.4" y="0">е</tspan><tspan x="208.24" y="0">льный сбор отходов </tspan></text><text class="6e56e4a5-b2d7-40d4-923b-60e80113dea4" transform="translate(117 670.7)">производства и потребления;</text><text class="6e56e4a5-b2d7-40d4-923b-60e80113dea4" transform="translate(99 709.7)">•</text><text class="6e56e4a5-b2d7-40d4-923b-60e80113dea4" transform="translate(106.6 709.7)"> </text><text class="6e56e4a5-b2d7-40d4-923b-60e80113dea4" transform="translate(117 709.7)">обеспечивает<tspan class="ac5c4851-e850-49a2-a6f0-13ff911b5198" x="131.46" y="0"> </tspan><tspan x="136.4" y="0">мониторин</tspan><tspan class="45fb39de-fda4-4ce7-85e9-9e130464b06a" x="241.24" y="0">г</tspan><tspan x="247.84" y="0">,</tspan><tspan class="ddc53fd8-fc8f-40a1-b3d6-53304dad030c" x="252.58" y="0"> </tspan><tspan class="38629651-f049-4f12-b1cb-8b7ffb0604db" x="257.52" y="0">к</tspan><tspan x="267.16" y="0">онтр</tspan><tspan class="2ea93394-a373-484a-8fd0-87dfc40a6cec" x="311.8" y="0">о</tspan><tspan x="322.78" y="0">ль</tspan><tspan class="ac5c4851-e850-49a2-a6f0-13ff911b5198" x="343.52" y="0"> </tspan><tspan x="348.46" y="0">и</tspan><tspan class="ddc53fd8-fc8f-40a1-b3d6-53304dad030c" x="360.38" y="0"> </tspan><tspan x="365.32" y="0">постоянное </tspan></text><text class="6e56e4a5-b2d7-40d4-923b-60e80113dea4" transform="translate(117 735.7)">снижение рис<tspan class="610329f4-39b9-4435-be6b-0e1dac45294f" x="134.64" y="0">к</tspan><tspan x="144.26" y="0">ов в области э</tspan><tspan class="610329f4-39b9-4435-be6b-0e1dac45294f" x="280.32" y="0">к</tspan><tspan class="2ea93394-a373-484a-8fd0-87dfc40a6cec" x="289.94" y="0">о</tspan><tspan x="300.92" y="0">логичес</tspan><tspan class="37fdf5a8-d478-4408-9d39-75284b20ce09" x="375.76" y="0">к</tspan><tspan x="385.38" y="0">ой </tspan></text><text class="6e56e4a5-b2d7-40d4-923b-60e80113dea4" transform="translate(117 761.7)">безопасности, возникающих перед ПГК;</text><text class="6e56e4a5-b2d7-40d4-923b-60e80113dea4" transform="translate(99 800.7)">•</text><text class="6e56e4a5-b2d7-40d4-923b-60e80113dea4" transform="translate(106.6 800.7)"> </text><text class="6e56e4a5-b2d7-40d4-923b-60e80113dea4" transform="translate(117 800.7)">ликвиди<tspan class="29cc806f-a9f8-4947-aefe-a2fafca2f8a9" x="79.46" y="0">р</tspan><tspan class="ec804640-23a1-4773-a730-f78441fbc342" x="90.7" y="0">у</tspan><tspan x="100.96" y="0">ет негативный ущерб, причиненный </tspan></text><text class="6e56e4a5-b2d7-40d4-923b-60e80113dea4" transform="translate(117 826.7)">ок<tspan class="eb6fc962-3d6f-43b2-a2aa-c64bac8367e9" x="21.28" y="0">р</tspan><tspan x="32.54" y="0">ужающей среде предыдущими </tspan></text><text class="6e56e4a5-b2d7-40d4-923b-60e80113dea4" transform="translate(117 852.7)">собственниками э<tspan class="610329f4-39b9-4435-be6b-0e1dac45294f" x="173.32" y="0">к</tspan><tspan x="182.94" y="0">сплуати</tspan><tspan class="c6aea700-0c72-4858-b45c-9c484543f5fe" x="259.56" y="0">р</tspan><tspan class="ec804640-23a1-4773-a730-f78441fbc342" x="270.8" y="0">у</tspan><tspan class="0b109fd9-a455-4507-94a2-b4b2013ca2aa" x="281.06" y="0">емых </tspan><tspan class="20e21f0c-b5bb-4231-b35d-967acecc038d" x="333.96" y="0">К</tspan><tspan class="0b109fd9-a455-4507-94a2-b4b2013ca2aa" x="345.66" y="0">омпанией </tspan></text><text class="6e56e4a5-b2d7-40d4-923b-60e80113dea4" transform="translate(117 878.7)">объектов;</text><text class="6e56e4a5-b2d7-40d4-923b-60e80113dea4" transform="translate(99 917.7)">•</text><text class="6e56e4a5-b2d7-40d4-923b-60e80113dea4" transform="translate(106.6 917.7)"> </text><text class="6e56e4a5-b2d7-40d4-923b-60e80113dea4" transform="translate(117 917.7)">создает стим<tspan class="071f4088-e8f9-4901-be6e-fa3039a2f8dc" x="125.84" y="0">у</tspan><tspan x="135.84" y="0">ли</tspan><tspan class="eb6fc962-3d6f-43b2-a2aa-c64bac8367e9" x="158.98" y="0">р</tspan><tspan class="0b109fd9-a455-4507-94a2-b4b2013ca2aa" x="170.24" y="0">ующие </tspan><tspan class="2ada9cd0-64a6-49b4-9d6d-4f64cfc3a45d" x="239.98" y="0">у</tspan><tspan x="250.22" y="0">словия для повышения </tspan></text><text class="6e56e4a5-b2d7-40d4-923b-60e80113dea4" transform="translate(117 943.7)">уровня навы<tspan class="37fdf5a8-d478-4408-9d39-75284b20ce09" x="118.32" y="0">к</tspan><tspan x="127.94" y="0">ов и </tspan><tspan class="38629651-f049-4f12-b1cb-8b7ffb0604db" x="172.18" y="0">к</tspan><tspan class="0b109fd9-a455-4507-94a2-b4b2013ca2aa" x="181.82" y="0">омпетенции персонала </tspan></text><text class="6e56e4a5-b2d7-40d4-923b-60e80113dea4" transform="translate(117 969.7)">в природоохранной сфере.</text><text class="6e56e4a5-b2d7-40d4-923b-60e80113dea4" transform="translate(1287 346.34)">Внедрение современных энер<tspan class="f9a73d48-3cdd-420f-8997-8891f397a6ea" x="287.06" y="0">г</tspan><tspan x="295.18" y="0">осберегающих </tspan></text><text class="6e56e4a5-b2d7-40d4-923b-60e80113dea4" transform="translate(1287 372.34)">техн<tspan class="df90a69e-513f-40bb-8c69-1136d7a3b10d" x="43.14" y="0">о</tspan><tspan x="54.12" y="0">логий является важной задачей для </tspan><tspan class="4f40db80-50df-46c8-af96-9e671bd4aa5a" x="400.12" y="0">у</tspan><tspan class="cd2f0bb9-94af-46e7-943d-6391a532659c" x="410.35" y="0">стойчиво</tspan><tspan class="ac5c4851-e850-49a2-a6f0-13ff911b5198" x="498.55" y="0">г</tspan><tspan x="506.69" y="0">о </tspan></text><text class="6e56e4a5-b2d7-40d4-923b-60e80113dea4" transform="translate(1287 398.34)">развития <tspan class="05cd4ede-a875-4ee9-9652-aff0e288a1d5" x="92.34" y="0">К</tspan><tspan x="104.02" y="0">омпании. Учитывая специфический характер </tspan></text><text class="6e56e4a5-b2d7-40d4-923b-60e80113dea4" transform="translate(1287 424.34)">ж<tspan class="ce1b87f3-f1af-457e-a5db-3e0d264a9106" x="14.98" y="0">е</tspan><tspan x="25.84" y="0">лезнодорожной отрасли, ПГК исп</tspan><tspan class="c6e3e846-fb3c-4a09-a0dc-ed7e67fd7431" x="344.4" y="0">о</tspan><tspan x="355.36" y="0">льз</tspan><tspan class="ec804640-23a1-4773-a730-f78441fbc342" x="385.94" y="0">у</tspan><tspan x="396.2" y="0">ет в качестве </tspan></text><text class="6e56e4a5-b2d7-40d4-923b-60e80113dea4" transform="translate(1287 450.34)">источни<tspan class="e2c99b55-1d93-497f-8431-c9af15df3bbe" x="78.12" y="0">к</tspan><tspan x="87.76" y="0">ов энергии топлив</tspan><tspan class="4b86362e-70cf-47d8-aafe-f3dbbe3c6985" x="264.06" y="0">о</tspan><tspan x="274.98" y="0">, пар и </tspan><tspan class="c6e3e846-fb3c-4a09-a0dc-ed7e67fd7431" x="340.98" y="0">э</tspan><tspan x="351.5" y="0">лектроэнерги</tspan><tspan class="4b86362e-70cf-47d8-aafe-f3dbbe3c6985" x="481.93" y="0">ю</tspan><tspan x="496.95" y="0">.</tspan></text><text class="599aaf00-cdb5-4f8b-8586-f3143d15b607" transform="translate(693 549.1)">Динамика исп<tspan class="4349c487-6d5c-46f1-b34e-5727f443c8be" x="198.1" y="0">о</tspan><tspan class="05554aa2-51b5-4096-96bf-477eb8513fdc" x="214.45" y="0">льзования энер</tspan><tspan class="4349c487-6d5c-46f1-b34e-5727f443c8be" x="434.67" y="0">г</tspan><tspan x="446.9" y="0">етических ресурсов</tspan></text><line class="5d427921-fa41-473b-8084-0b8b9d5eb45f" x1="692.79" y1="675.8" x2="919.79" y2="675.8"/><line class="5d427921-fa41-473b-8084-0b8b9d5eb45f" x1="919.79" y1="675.8" x2="1059.79" y2="675.8"/><line class="5d427921-fa41-473b-8084-0b8b9d5eb45f" x1="1059.79" y1="675.8" x2="1199.79" y2="675.8"/><line class="5d427921-fa41-473b-8084-0b8b9d5eb45f" x1="1199.79" y1="675.8" x2="1339.79" y2="675.8"/><line class="5d427921-fa41-473b-8084-0b8b9d5eb45f" x1="1339.79" y1="675.8" x2="1479.79" y2="675.8"/><line class="5d427921-fa41-473b-8084-0b8b9d5eb45f" x1="1479.79" y1="675.8" x2="1619.79" y2="675.8"/><line class="5d427921-fa41-473b-8084-0b8b9d5eb45f" x1="1619.79" y1="675.8" x2="1759.79" y2="675.8"/><line class="5d427921-fa41-473b-8084-0b8b9d5eb45f" x1="1759.79" y1="675.8" x2="1821" y2="675.8"/><line class="5d427921-fa41-473b-8084-0b8b9d5eb45f" x1="692.79" y1="718.5" x2="919.79" y2="718.5"/><line class="5d427921-fa41-473b-8084-0b8b9d5eb45f" x1="919.79" y1="718.5" x2="1059.79" y2="718.5"/><line class="5d427921-fa41-473b-8084-0b8b9d5eb45f" x1="1059.79" y1="718.5" x2="1199.79" y2="718.5"/><line class="5d427921-fa41-473b-8084-0b8b9d5eb45f" x1="1199.79" y1="718.5" x2="1339.79" y2="718.5"/><line class="5d427921-fa41-473b-8084-0b8b9d5eb45f" x1="1339.79" y1="718.5" x2="1479.79" y2="718.5"/><line class="5d427921-fa41-473b-8084-0b8b9d5eb45f" x1="1479.79" y1="718.5" x2="1619.79" y2="718.5"/><line class="5d427921-fa41-473b-8084-0b8b9d5eb45f" x1="1619.79" y1="718.5" x2="1759.79" y2="718.5"/><line class="5d427921-fa41-473b-8084-0b8b9d5eb45f" x1="1759.79" y1="718.5" x2="1821" y2="718.5"/><line class="5d427921-fa41-473b-8084-0b8b9d5eb45f" x1="692.79" y1="761.2" x2="919.79" y2="761.2"/><line class="5d427921-fa41-473b-8084-0b8b9d5eb45f" x1="919.79" y1="761.2" x2="1059.79" y2="761.2"/><line class="5d427921-fa41-473b-8084-0b8b9d5eb45f" x1="1059.79" y1="761.2" x2="1199.79" y2="761.2"/><line class="5d427921-fa41-473b-8084-0b8b9d5eb45f" x1="1199.79" y1="761.2" x2="1339.79" y2="761.2"/><line class="5d427921-fa41-473b-8084-0b8b9d5eb45f" x1="1339.79" y1="761.2" x2="1479.79" y2="761.2"/><line class="5d427921-fa41-473b-8084-0b8b9d5eb45f" x1="1479.79" y1="761.2" x2="1619.79" y2="761.2"/><line class="5d427921-fa41-473b-8084-0b8b9d5eb45f" x1="1619.79" y1="761.2" x2="1759.79" y2="761.2"/><line class="5d427921-fa41-473b-8084-0b8b9d5eb45f" x1="1759.79" y1="761.2" x2="1821" y2="761.2"/><line class="5d427921-fa41-473b-8084-0b8b9d5eb45f" x1="692.79" y1="803.9" x2="919.79" y2="803.9"/><line class="5d427921-fa41-473b-8084-0b8b9d5eb45f" x1="919.79" y1="803.9" x2="1059.79" y2="803.9"/><line class="5d427921-fa41-473b-8084-0b8b9d5eb45f" x1="1059.79" y1="803.9" x2="1199.79" y2="803.9"/><line class="5d427921-fa41-473b-8084-0b8b9d5eb45f" x1="1199.79" y1="803.9" x2="1339.79" y2="803.9"/><line class="5d427921-fa41-473b-8084-0b8b9d5eb45f" x1="1339.79" y1="803.9" x2="1479.79" y2="803.9"/><line class="5d427921-fa41-473b-8084-0b8b9d5eb45f" x1="1479.79" y1="803.9" x2="1619.79" y2="803.9"/><line class="5d427921-fa41-473b-8084-0b8b9d5eb45f" x1="1619.79" y1="803.9" x2="1759.79" y2="803.9"/><line class="5d427921-fa41-473b-8084-0b8b9d5eb45f" x1="1759.79" y1="803.9" x2="1821" y2="803.9"/><line class="5d427921-fa41-473b-8084-0b8b9d5eb45f" x1="692.79" y1="846.6" x2="919.79" y2="846.6"/><line class="5d427921-fa41-473b-8084-0b8b9d5eb45f" x1="919.79" y1="846.6" x2="1059.79" y2="846.6"/><line class="5d427921-fa41-473b-8084-0b8b9d5eb45f" x1="1059.79" y1="846.6" x2="1199.79" y2="846.6"/><line class="5d427921-fa41-473b-8084-0b8b9d5eb45f" x1="1199.79" y1="846.6" x2="1339.79" y2="846.6"/><line class="5d427921-fa41-473b-8084-0b8b9d5eb45f" x1="1339.79" y1="846.6" x2="1479.79" y2="846.6"/><line class="5d427921-fa41-473b-8084-0b8b9d5eb45f" x1="1479.79" y1="846.6" x2="1619.79" y2="846.6"/><line class="5d427921-fa41-473b-8084-0b8b9d5eb45f" x1="1619.79" y1="846.6" x2="1759.79" y2="846.6"/><line class="5d427921-fa41-473b-8084-0b8b9d5eb45f" x1="1759.79" y1="846.6" x2="1821" y2="846.6"/><line class="5d427921-fa41-473b-8084-0b8b9d5eb45f" x1="692.79" y1="889.3" x2="919.79" y2="889.3"/><line class="5d427921-fa41-473b-8084-0b8b9d5eb45f" x1="919.79" y1="889.3" x2="1059.79" y2="889.3"/><line class="5d427921-fa41-473b-8084-0b8b9d5eb45f" x1="1059.79" y1="889.3" x2="1199.79" y2="889.3"/><line class="5d427921-fa41-473b-8084-0b8b9d5eb45f" x1="1199.79" y1="889.3" x2="1339.79" y2="889.3"/><line class="5d427921-fa41-473b-8084-0b8b9d5eb45f" x1="1339.79" y1="889.3" x2="1479.79" y2="889.3"/><line class="5d427921-fa41-473b-8084-0b8b9d5eb45f" x1="1479.79" y1="889.3" x2="1619.79" y2="889.3"/><line class="5d427921-fa41-473b-8084-0b8b9d5eb45f" x1="1619.79" y1="889.3" x2="1759.79" y2="889.3"/><line class="5d427921-fa41-473b-8084-0b8b9d5eb45f" x1="1759.79" y1="889.3" x2="1821" y2="889.3"/><line class="bd503cfb-50b5-4b15-bf42-e1722f41ea98" x1="919.79" y1="631.8" x2="1059.79" y2="631.8"/><line class="bd503cfb-50b5-4b15-bf42-e1722f41ea98" x1="1059.79" y1="631.8" x2="1199.79" y2="631.8"/><line class="bd503cfb-50b5-4b15-bf42-e1722f41ea98" x1="1199.79" y1="631.8" x2="1339.79" y2="631.8"/><line class="c9baeefe-aee8-4ad2-926b-ad53eb75c840" x1="1339.79" y1="631.8" x2="1479.79" y2="631.8"/><line class="c9baeefe-aee8-4ad2-926b-ad53eb75c840" x1="1479.79" y1="631.8" x2="1619.79" y2="631.8"/><line class="c9baeefe-aee8-4ad2-926b-ad53eb75c840" x1="1619.79" y1="631.8" x2="1759.79" y2="631.8"/><text class="6e56e4a5-b2d7-40d4-923b-60e80113dea4" transform="translate(692.79 619.8)"> </text><text class="92b10091-0122-4238-81cb-f3f068d83392" transform="translate(1104.21 619.8)">2020</text><text class="92b10091-0122-4238-81cb-f3f068d83392" transform="translate(1526.19 619.8)">2019</text><g class="37da1f93-29d7-48db-897c-476610efb9be"><path class="aedf9670-8c38-430e-af3c-073f398f06bb" d="M1001.54,644.8H978a10,10,0,0,0,0,20h23.5a10,10,0,0,0,0-20"/></g><text class="4c8b9a87-46dd-46c2-9a84-03d6ce48e6a3" transform="translate(985.01 660.4)">1</text><g class="37da1f93-29d7-48db-897c-476610efb9be"><path class="6c25ad15-9cb7-4eb7-804a-6a6189ab053a" d="M1141.54,644.8H1118a10,10,0,0,0,0,20h23.5a10,10,0,0,0,0-20"/></g><text class="4c8b9a87-46dd-46c2-9a84-03d6ce48e6a3" transform="translate(1123.8 660.4)">2</text><g class="37da1f93-29d7-48db-897c-476610efb9be"><path class="9d2c70c4-7337-4529-a331-9006533e83fe" d="M1281.54,644.8H1258a10,10,0,0,0,0,20h23.5a10,10,0,0,0,0-20"/></g><text class="4c8b9a87-46dd-46c2-9a84-03d6ce48e6a3" transform="translate(1263.72 660.4)">3</text><g class="37da1f93-29d7-48db-897c-476610efb9be"><path class="aedf9670-8c38-430e-af3c-073f398f06bb" d="M1421.54,644.8H1398a10,10,0,0,0,0,20h23.5a10,10,0,0,0,0-20"/></g><text class="4c8b9a87-46dd-46c2-9a84-03d6ce48e6a3" transform="translate(1405.01 660.4)">1</text><g class="37da1f93-29d7-48db-897c-476610efb9be"><path class="6c25ad15-9cb7-4eb7-804a-6a6189ab053a" d="M1561.54,644.8H1538a10,10,0,0,0,0,20h23.5a10,10,0,0,0,0-20"/></g><text class="4c8b9a87-46dd-46c2-9a84-03d6ce48e6a3" transform="translate(1543.8 660.4)">2</text><g class="37da1f93-29d7-48db-897c-476610efb9be"><path class="9d2c70c4-7337-4529-a331-9006533e83fe" d="M1701.54,644.8H1678a10,10,0,0,0,0,20h23.5a10,10,0,0,0,0-20"/></g><text class="4c8b9a87-46dd-46c2-9a84-03d6ce48e6a3" transform="translate(1683.72 660.4)">3</text><text class="908745f4-5e56-4af6-8e5c-af317bb59628" transform="translate(1787.08 661.28)">Изм.</text><text class="6e56e4a5-b2d7-40d4-923b-60e80113dea4" transform="translate(692.79 706.5)"><tspan class="88627231-e05a-44d5-8f17-8d37d16e3dd5">Э</tspan><tspan x="12.12" y="0">лектроэнергия, кВт·ч</tspan></text><text class="6e56e4a5-b2d7-40d4-923b-60e80113dea4" transform="translate(945.83 706.5)">5 799 785</text><text class="6e56e4a5-b2d7-40d4-923b-60e80113dea4" transform="translate(1087.93 706.5)">2 <tspan class="099a8d8b-dbfd-4e11-9a8d-6d680fe724f3" x="16.36" y="0">7</tspan><tspan x="25.44" y="0">60 571</tspan></text><text class="6e56e4a5-b2d7-40d4-923b-60e80113dea4" transform="translate(1223.46 706.5)">8 560 356</text><text class="6e56e4a5-b2d7-40d4-923b-60e80113dea4" transform="translate(1366.04 706.5)">5 521 206</text><text class="6e56e4a5-b2d7-40d4-923b-60e80113dea4" transform="translate(1505.51 706.5)">3 2<tspan class="ac5c4851-e850-49a2-a6f0-13ff911b5198" x="27.88" y="0">9</tspan><tspan x="39.1" y="0">6 4</tspan><tspan class="08e13ebe-e071-45ff-99d8-33bb7603231b" x="67.8" y="0">6</tspan><tspan class="39e292fe-9fe6-4592-8ecf-d17aa63553ed" x="78.84" y="0">7</tspan></text><text class="6e56e4a5-b2d7-40d4-923b-60e80113dea4" transform="translate(1647.27 706.5)">8 817 <tspan class="071f4088-e8f9-4901-be6e-fa3039a2f8dc" x="52.74" y="0">6</tspan><tspan x="63.8" y="0">73</tspan></text><text class="3fec28a3-4fea-457d-bd87-4eb8389640bd" transform="translate(1784.61 706.5)"><tspan class="74b1e011-61ab-4bf7-accf-b8755fe2d55a">-</tspan><tspan x="9.24" y="0">3%</tspan></text><text class="6e56e4a5-b2d7-40d4-923b-60e80113dea4" transform="translate(692.79 749.2)">Диз. топлив<tspan class="4b86362e-70cf-47d8-aafe-f3dbbe3c6985" x="111.8" y="0">о</tspan><tspan x="122.72" y="0">, л</tspan></text><text class="6e56e4a5-b2d7-40d4-923b-60e80113dea4" transform="translate(956.15 749.2)">911 545</text><text class="6e56e4a5-b2d7-40d4-923b-60e80113dea4" transform="translate(1098.15 749.2)">36 456</text><text class="bcf3bf89-03ad-44c2-8fa6-2b12338f3fab" transform="translate(1233.25 749.2)">9<tspan class="cd2f0bb9-94af-46e7-943d-6391a532659c" x="11.1" y="0">48 001</tspan></text><text class="6e56e4a5-b2d7-40d4-923b-60e80113dea4" transform="translate(1371.97 749.2)">889 236</text><text class="6e56e4a5-b2d7-40d4-923b-60e80113dea4" transform="translate(1519.33 749.2)">43 9<tspan class="91a06b60-3ada-4ea7-aa24-a5d174c4e775" x="40.02" y="0">7</tspan><tspan x="49.06" y="0">4</tspan></text><text class="6e56e4a5-b2d7-40d4-923b-60e80113dea4" transform="translate(1654.43 749.2)"><tspan class="9ec2727a-0302-4a58-8bd2-d8ce8890283c">9</tspan><tspan x="11.08" y="0">33 210</tspan></text><text class="d9f7fbba-baf5-4512-b555-8cb84fa6e28d" transform="translate(1794.15 749.2)">2%</text><text class="6e56e4a5-b2d7-40d4-923b-60e80113dea4" transform="translate(692.81 791.9)">Бензин, л</text><text class="6e56e4a5-b2d7-40d4-923b-60e80113dea4" transform="translate(984.65 791.9)"> </text><text class="6e56e4a5-b2d7-40d4-923b-60e80113dea4" transform="translate(1094.55 791.9)">185 738</text><text class="6e56e4a5-b2d7-40d4-923b-60e80113dea4" transform="translate(1234.55 791.9)">185 738</text><text class="6e56e4a5-b2d7-40d4-923b-60e80113dea4" transform="translate(1404.65 791.9)"> </text><text class="6e56e4a5-b2d7-40d4-923b-60e80113dea4" transform="translate(1515.67 791.9)"><tspan class="a21c5d9e-c3e9-45c7-b28c-690b09f4c23b">3</tspan><tspan x="11.14" y="0">14 227</tspan></text><text class="6e56e4a5-b2d7-40d4-923b-60e80113dea4" transform="translate(1655.67 791.9)"><tspan class="a21c5d9e-c3e9-45c7-b28c-690b09f4c23b">3</tspan><tspan x="11.14" y="0">14 227</tspan></text><text class="3fec28a3-4fea-457d-bd87-4eb8389640bd" transform="translate(1775.69 791.9)">-<tspan class="a21c5d9e-c3e9-45c7-b28c-690b09f4c23b" x="9.68" y="0">4</tspan><tspan class="39e292fe-9fe6-4592-8ecf-d17aa63553ed" x="21.66" y="0">1%</tspan></text><text class="6e56e4a5-b2d7-40d4-923b-60e80113dea4" transform="translate(692.81 834.6)">Масл<tspan class="ddc53fd8-fc8f-40a1-b3d6-53304dad030c" x="48.26" y="0">о</tspan><tspan x="59.2" y="0">, л</tspan></text><text class="6e56e4a5-b2d7-40d4-923b-60e80113dea4" transform="translate(960.53 834.6)">18 <tspan class="071f4088-e8f9-4901-be6e-fa3039a2f8dc" x="25.48" y="0">6</tspan><tspan x="36.54" y="0">70</tspan></text><text class="6e56e4a5-b2d7-40d4-923b-60e80113dea4" transform="translate(1124.65 834.6)"> </text><text class="6e56e4a5-b2d7-40d4-923b-60e80113dea4" transform="translate(1240.53 834.6)">18 <tspan class="071f4088-e8f9-4901-be6e-fa3039a2f8dc" x="25.48" y="0">6</tspan><tspan x="36.54" y="0">70</tspan></text><text class="6e56e4a5-b2d7-40d4-923b-60e80113dea4" transform="translate(1377.61 834.6)">20 304</text><text class="6e56e4a5-b2d7-40d4-923b-60e80113dea4" transform="translate(1544.65 834.6)"> </text><text class="6e56e4a5-b2d7-40d4-923b-60e80113dea4" transform="translate(1657.61 834.6)">20 304</text><text class="3fec28a3-4fea-457d-bd87-4eb8389640bd" transform="translate(1783.49 834.6)">-8%</text><text class="6e56e4a5-b2d7-40d4-923b-60e80113dea4" transform="translate(692.83 877.3)">Па<tspan class="ac5c4851-e850-49a2-a6f0-13ff911b5198" x="24.72" y="0">р</tspan><tspan x="36.12" y="0">, </tspan><tspan class="53094f6e-30e2-4171-bf6c-3ee5dbfd43f1" x="46.02" y="0">Г</tspan><tspan class="0b109fd9-a455-4507-94a2-b4b2013ca2aa" x="54.14" y="0">кал</tspan></text><text class="6e56e4a5-b2d7-40d4-923b-60e80113dea4" transform="translate(954.33 877.3)">166 <tspan class="db80930a-c9ee-4886-a68a-04b69cb98176" x="36.4" y="0">9</tspan><tspan x="47.5" y="0">46</tspan></text><text class="6e56e4a5-b2d7-40d4-923b-60e80113dea4" transform="translate(1124.67 877.3)"> </text><text class="6e56e4a5-b2d7-40d4-923b-60e80113dea4" transform="translate(1234.33 877.3)">166 <tspan class="2ada9cd0-64a6-49b4-9d6d-4f64cfc3a45d" x="36.4" y="0">9</tspan><tspan x="47.5" y="0">46</tspan></text><text class="6e56e4a5-b2d7-40d4-923b-60e80113dea4" transform="translate(1376.17 877.3)">197 <tspan class="698e2954-0717-45ed-b32e-f1bb14fcbe3c" x="34.3" y="0">7</tspan><tspan x="43.38" y="0">60</tspan></text><text class="6e56e4a5-b2d7-40d4-923b-60e80113dea4" transform="translate(1544.67 877.3)"> </text><text class="6e56e4a5-b2d7-40d4-923b-60e80113dea4" transform="translate(1656.17 877.3)">197 <tspan class="698e2954-0717-45ed-b32e-f1bb14fcbe3c" x="34.3" y="0">7</tspan><tspan x="43.38" y="0">60</tspan></text><text class="3fec28a3-4fea-457d-bd87-4eb8389640bd" transform="translate(1776.43 877.3)"><tspan class="13f5922f-085b-4782-af1f-b1646a5ef2c8">-</tspan><tspan x="8.94" y="0">16%</tspan></text><text class="6e56e4a5-b2d7-40d4-923b-60e80113dea4" transform="translate(692.85 920)">Мазут, тн</text><text class="6e56e4a5-b2d7-40d4-923b-60e80113dea4" transform="translate(963.97 920)">6 209</text><text class="6e56e4a5-b2d7-40d4-923b-60e80113dea4" transform="translate(1124.69 920)"> </text><text class="6e56e4a5-b2d7-40d4-923b-60e80113dea4" transform="translate(1243.97 920)">6 209</text><text class="6e56e4a5-b2d7-40d4-923b-60e80113dea4" transform="translate(1386.41 920)">6 871</text><text class="6e56e4a5-b2d7-40d4-923b-60e80113dea4" transform="translate(1544.67 920)"> </text><text class="6e56e4a5-b2d7-40d4-923b-60e80113dea4" transform="translate(1666.41 920)">6 871</text><text class="3fec28a3-4fea-457d-bd87-4eb8389640bd" transform="translate(1775.77 920)"><tspan class="13f5922f-085b-4782-af1f-b1646a5ef2c8">-</tspan><tspan x="8.94" y="0">10%</tspan></text><g class="37da1f93-29d7-48db-897c-476610efb9be"><path class="aedf9670-8c38-430e-af3c-073f398f06bb" d="M726.29,963h-23.5a10,10,0,0,0,0,20h23.5a10,10,0,0,0,0-20"/></g><text class="4c8b9a87-46dd-46c2-9a84-03d6ce48e6a3" transform="translate(709.76 978.6)">1</text><text class="6e56e4a5-b2d7-40d4-923b-60e80113dea4" transform="translate(736.29 980)"> </text><text class="6e56e4a5-b2d7-40d4-923b-60e80113dea4" transform="translate(746.29 980)">Производственное</text><text class="6e56e4a5-b2d7-40d4-923b-60e80113dea4" transform="translate(926.69 980)"> </text><text class="6e56e4a5-b2d7-40d4-923b-60e80113dea4" transform="translate(936.69 980)">потребление </text><g class="37da1f93-29d7-48db-897c-476610efb9be"><path class="6c25ad15-9cb7-4eb7-804a-6a6189ab053a" d="M1163,963h-23.5a10,10,0,0,0,0,20H1163a10,10,0,0,0,0-20"/></g><text class="4c8b9a87-46dd-46c2-9a84-03d6ce48e6a3" transform="translate(1145.25 978.6)">2</text><text class="6e56e4a5-b2d7-40d4-923b-60e80113dea4" transform="translate(1173 980)"> </text><text class="6e56e4a5-b2d7-40d4-923b-60e80113dea4" transform="translate(1183 980)">Общехозяйственное</text><text class="6e56e4a5-b2d7-40d4-923b-60e80113dea4" transform="translate(1376.4 980)"> </text><text class="6e56e4a5-b2d7-40d4-923b-60e80113dea4" transform="translate(1386.4 980)">потребление </text><g class="37da1f93-29d7-48db-897c-476610efb9be"><path class="9d2c70c4-7337-4529-a331-9006533e83fe" d="M1612.7,963h-23.5a10,10,0,1,0,0,20h23.5a10,10,0,0,0,0-20"/></g><text class="4c8b9a87-46dd-46c2-9a84-03d6ce48e6a3" transform="translate(1594.88 978.6)">3</text><text class="6e56e4a5-b2d7-40d4-923b-60e80113dea4" transform="translate(1622.7 980)"> </text><text class="6e56e4a5-b2d7-40d4-923b-60e80113dea4" transform="translate(1632.7 980)">Ито<tspan class="c820e5d0-959c-4383-bf67-404e09a94eda" x="35.62" y="0">г</tspan><tspan x="43.76" y="0">о</tspan></text><text class="6e56e4a5-b2d7-40d4-923b-60e80113dea4" transform="translate(1687.6 980)"> </text><text class="6e56e4a5-b2d7-40d4-923b-60e80113dea4" transform="translate(1697.6 980)">потребление</text><text class="92b10091-0122-4238-81cb-f3f068d83392" transform="translate(1286.8 195.04)">В 2020 <tspan class="095696e6-6459-4fb5-83f3-8eb370159519" x="74.02" y="0">г</tspan><tspan x="82.76" y="0">оду исп</tspan><tspan class="095696e6-6459-4fb5-83f3-8eb370159519" x="159.36" y="0">о</tspan><tspan x="171.04" y="0">льзование бензина</tspan></text><text class="92b10091-0122-4238-81cb-f3f068d83392" transform="translate(1650.46 195.04)"> </text><text class="92b10091-0122-4238-81cb-f3f068d83392" transform="translate(1286.8 221.04)">по сравнению с 2019 <tspan class="095696e6-6459-4fb5-83f3-8eb370159519" x="213.58" y="0">г</tspan><tspan class="cd2f0bb9-94af-46e7-943d-6391a532659c" x="222.32" y="0">одом снизилось на </tspan><tspan class="bd669647-d244-44d5-a486-e617b6feafa8" x="415.89" y="0">4</tspan><tspan x="428.5" y="0">1</tspan></text><text class="92b10091-0122-4238-81cb-f3f068d83392" transform="translate(1724.58 221.04)"> </text><text class="92b10091-0122-4238-81cb-f3f068d83392" transform="translate(1725.4 221.04)">%, </text><text class="92b10091-0122-4238-81cb-f3f068d83392" transform="translate(1286.8 247.04)">до 185 738 литров</text><path class="aedf9670-8c38-430e-af3c-073f398f06bb" d="M1152.14,101l-84.84,59.89,22.46,32.44,59.88-32.44h5V450.35H1227V101ZM765.36,335.56,932.55,165.88h5V335.56Zm287,0h-42.42V101H920.08L693,331.07V370.5H937.54v79.85h72.37V370.5h42.42Z"/><g class="37da1f93-29d7-48db-897c-476610efb9be"><path class="07e8bbca-a718-43c6-ac02-bc24c8f9ac1a" d="M1415,101H1297a20,20,0,0,0,0,40h118a20,20,0,0,0,0-40"/></g><text class="599aaf00-cdb5-4f8b-8586-f3143d15b607" transform="translate(1297.87 128.28)">про<tspan class="d5d501fb-ca79-4360-ba5d-7003304e78de" x="50.93" y="0">ц</tspan><tspan x="68.77" y="0">ент</tspan></text><text class="6e56e4a5-b2d7-40d4-923b-60e80113dea4" transform="translate(39.57 57)">14</text><g class="37da1f93-29d7-48db-897c-476610efb9be"><text class="6e56e4a5-b2d7-40d4-923b-60e80113dea4" transform="translate(99 57)">О <tspan class="38629651-f049-4f12-b1cb-8b7ffb0604db" x="18.4" y="0">к</tspan><tspan x="28.04" y="0">омпании</tspan></text></g></svg>