<?xml-stylesheet type="text/css" href="/pgk/main.css" ?><svg xmlns="http://www.w3.org/2000/svg" xmlns:xlink="http://www.w3.org/1999/xlink" id="cce221b3-2c18-4655-86fd-b975b6c5a949" data-name="Layer 1" viewBox="0 0 1920 1080"><defs><style>.\30 f9ebdbf-5443-4c4e-b5a1-48eb63525a39,.\32 b6dada1-15b7-489e-b9fb-5404528469e7,.\34 795b727-dfed-4336-a573-97dea20a80ac,.\37 aa638ac-017e-48ed-81a2-ee98572e7cc0{fill:none;}.fb4300ad-b107-4854-973a-281a0ba9ee54{clip-path:url(#f26c81c5-d92b-41dd-bf27-fee331c7ecb0);}.\38 88cd198-5027-4109-a3ab-3ef54bed6b36,.d1ecae6d-3db5-490f-a231-5dd5ec2ec1cf{fill:#fff;}.cf277f93-9e54-4581-8440-a864bc0c40b2{fill:#e8e8ed;}.\33 35c5f65-7419-4cbd-bf04-5fffc32f81bd{font-size:28px;}.\33 35c5f65-7419-4cbd-bf04-5fffc32f81bd,.b7518b24-5b23-4b03-b5aa-bfe1e8f25a1d,.bb9bbc84-1576-45dd-8331-c841094563a2{font-family:Rubik-Medium, Rubik;}.cd526ff8-7380-410a-90ac-ea815d9571a6{letter-spacing:-0.01em;}.dd7ccead-b25b-4ab1-bee2-b80d75dbab36{letter-spacing:-0.01em;}.\39 92b3e75-5af6-4d13-8dfe-425baec0593a,.b7518b24-5b23-4b03-b5aa-bfe1e8f25a1d,.bb9bbc84-1576-45dd-8331-c841094563a2,.e1dd887f-2b2b-4f40-9a74-7f74d07efbb1{font-size:20px;}.\30 4230a8d-3273-4b15-98c8-8d8b16997aa2,.\33 7b42b0c-3b1c-486b-8fb9-fff645b63db9,.\39 92b3e75-5af6-4d13-8dfe-425baec0593a,.e1dd887f-2b2b-4f40-9a74-7f74d07efbb1{font-family:Rubik-Light, Rubik;}.\33 c001f74-3775-4608-908c-5b30cef62f39{letter-spacing:0em;}.\39 446a9c5-d9ba-4124-b257-da10ffe95bf4{letter-spacing:-0.03em;}.\31 3097572-7bb9-4ae5-b40d-e2838676030d{letter-spacing:-0.02em;}.f60d9799-4f34-4fb0-8343-b86a123894d4{letter-spacing:-0.02em;}.e81e24f4-bc71-4783-a609-28f7d9241c57{letter-spacing:-0.01em;}.\33 5eec063-4ff3-47f7-a63f-48b5706f91bf{letter-spacing:-0.03em;}.\34 8130659-1345-4899-be3b-1738fd3d1b31{letter-spacing:-0.03em;}.\34 0f9aee4-8962-4c8a-97ed-2b2eddc4d1cd{letter-spacing:0em;}.\37 b6b7de9-95a1-4d75-beec-b25b23aa8608{letter-spacing:-0.02em;}.c7016b25-d4e0-456d-b78f-ad0eae28bb19{letter-spacing:-0.01em;}.caad1f7f-0e64-4b44-a3bc-0edaed31c55c{letter-spacing:-0.01em;}.\37 36dcb51-cd6b-44e7-8c74-ddf21481d09e{letter-spacing:-0.01em;}.ce1d5f17-86e8-45d5-8f5f-162e46cf6711{letter-spacing:0em;}.e04b19e3-d1bd-43c2-9ac7-0cde0e8bce47{letter-spacing:0em;}.\32 223db7e-79e6-4954-81ea-8087715adb89{letter-spacing:0em;}.f7524914-9d94-4811-8f36-a3a1b9f96d71{letter-spacing:0em;}.e0ada692-ff1a-4057-b002-3f96fc67adb5{letter-spacing:-0.02em;}.\30 4230a8d-3273-4b15-98c8-8d8b16997aa2{font-size:11.66px;}.d3b91241-15ac-4c40-a192-1a92f1c62fd5{letter-spacing:-0.01em;}.f691c920-6b4e-4f3a-b255-a8e7cf61d122{letter-spacing:-0.02em;}.edd3bf47-9e35-4a8b-bb79-13c0061dd4f4{letter-spacing:-0.03em;}.\30 f9ebdbf-5443-4c4e-b5a1-48eb63525a39{stroke:#e6e7e8;}.\30 f9ebdbf-5443-4c4e-b5a1-48eb63525a39,.\34 795b727-dfed-4336-a573-97dea20a80ac,.\37 aa638ac-017e-48ed-81a2-ee98572e7cc0{stroke-miterlimit:10;}.\34 795b727-dfed-4336-a573-97dea20a80ac{stroke:#faaa2d;}.\34 795b727-dfed-4336-a573-97dea20a80ac,.\37 aa638ac-017e-48ed-81a2-ee98572e7cc0{stroke-width:4px;}.\37 aa638ac-017e-48ed-81a2-ee98572e7cc0{stroke:#e8e8ed;}.\38 f36f2a4-a161-43b9-b99b-0dfbe3b64956,.b7518b24-5b23-4b03-b5aa-bfe1e8f25a1d{fill:#faaa2d;}.\33 7b42b0c-3b1c-486b-8fb9-fff645b63db9,.\38 88cd198-5027-4109-a3ab-3ef54bed6b36{font-size:16px;}.\38 88cd198-5027-4109-a3ab-3ef54bed6b36{font-family:Rubik-Bold, Rubik;font-weight:700;}.\32 821b264-b267-4668-b4f3-f28c666a744b{fill:#2960a1;}.\30 d16a1b0-5321-4459-9416-c030015ddb6d{fill:#9ea3aa;}.\37 7d38849-d8f2-4df1-982e-e19643d0fe61{letter-spacing:-0.01em;}.\32 4fed6fe-33a1-42ae-b798-9dcc6dc83658{letter-spacing:-0.01em;}.dd63c13b-cdc2-413c-8c88-ba6c4e311ccb{letter-spacing:-0.02em;}.\30 9aac16e-bcb6-4336-81de-5441198f3a8e{letter-spacing:0em;}.f8e37780-e36a-4aee-8709-e01640455d8f{letter-spacing:0em;}.\39 92b3e75-5af6-4d13-8dfe-425baec0593a{letter-spacing:-0.02em;}.ade57eed-f602-47da-8635-364f17db2355{letter-spacing:0em;}.\30 985d1bc-c6f0-44ef-bc8d-78875dff386d{letter-spacing:-0.01em;}.\31 3c400e4-05c6-45a3-afdc-c0c3c449c997{letter-spacing:-0.09em;}.ce3a8988-9f58-4bfb-b99d-2cebfbcf16d2{letter-spacing:-0.01em;}.\36 db0d474-cdb2-47a5-bc8d-4dd7680566e1{letter-spacing:-0.03em;}.\31 ae8cbbf-86ca-4875-b83d-07d175db8fe4{letter-spacing:-0.02em;}.\33 fd20f99-4d89-4e04-a68e-9d74f3c12d36{letter-spacing:-0.03em;}.b6a8385e-3456-43da-ab0f-ce8fbfe8380e{letter-spacing:0em;}.f5b44c0e-f985-4bed-8176-eb7f485635db{letter-spacing:-0.02em;}</style><clipPath id="f26c81c5-d92b-41dd-bf27-fee331c7ecb0"><rect class="2b6dada1-15b7-489e-b9fb-5404528469e7" width="1920" height="1080"/></clipPath></defs><title>15</title><g class="fb4300ad-b107-4854-973a-281a0ba9ee54"><rect class="d1ecae6d-3db5-490f-a231-5dd5ec2ec1cf" width="1920" height="1080"/></g><rect class="cf277f93-9e54-4581-8440-a864bc0c40b2" x="1287" width="633" height="1080"/><text class="335c5f65-7419-4cbd-bf04-5fffc32f81bd" transform="translate(1356 126.18)">В 2020 <tspan class="cd526ff8-7380-410a-90ac-ea815d9571a6" x="103.63" y="0">г</tspan><tspan x="115.86" y="0">оду мы пров</tspan><tspan class="dd7ccead-b25b-4ab1-bee2-b80d75dbab36" x="287.39" y="0">е</tspan><tspan x="303.43" y="0">ли </tspan></text><text class="335c5f65-7419-4cbd-bf04-5fffc32f81bd" transform="translate(1356 160.17)">следующие мероприятия</text><text class="e1dd887f-2b2b-4f40-9a74-7f74d07efbb1" transform="translate(1356 212.18)">•</text><text class="e1dd887f-2b2b-4f40-9a74-7f74d07efbb1" transform="translate(1363.6 212.18)"> </text><text class="e1dd887f-2b2b-4f40-9a74-7f74d07efbb1" transform="translate(1374 212.18)">пров<tspan class="3c001f74-3775-4608-908c-5b30cef62f39" x="45.14" y="0">е</tspan><tspan x="56" y="0">ли ре</tspan><tspan class="9446a9c5-d9ba-4124-b257-da10ffe95bf4" x="106.84" y="0">к</tspan><tspan x="116.46" y="0">онст</tspan><tspan class="13097572-7bb9-4ae5-b40d-e2838676030d" x="160.2" y="0">р</tspan><tspan x="171.44" y="0">укцию очистных </tspan></text><text class="e1dd887f-2b2b-4f40-9a74-7f74d07efbb1" transform="translate(1374 238.18)">соо<tspan class="f60d9799-4f34-4fb0-8343-b86a123894d4" x="33.04" y="0">р</tspan><tspan x="44.3" y="0">ужений ППС Осенцы, что позв</tspan><tspan class="e81e24f4-bc71-4783-a609-28f7d9241c57" x="329.94" y="0">о</tspan><tspan x="340.9" y="0">лило </tspan></text><text class="e1dd887f-2b2b-4f40-9a74-7f74d07efbb1" transform="translate(1374 264.18)">снизить воздействие на атмосферный воздух </text><text class="e1dd887f-2b2b-4f40-9a74-7f74d07efbb1" transform="translate(1374 290.18)">и повысить качество очистки сточных вод;</text><text class="e1dd887f-2b2b-4f40-9a74-7f74d07efbb1" transform="translate(1356 329.18)">•</text><text class="e1dd887f-2b2b-4f40-9a74-7f74d07efbb1" transform="translate(1363.6 329.18)"> </text><text class="e1dd887f-2b2b-4f40-9a74-7f74d07efbb1" transform="translate(1374 329.18)">начали ре<tspan class="35eec063-4ff3-47f7-a63f-48b5706f91bf" x="94.74" y="0">к</tspan><tspan x="104.36" y="0">онст</tspan><tspan class="f60d9799-4f34-4fb0-8343-b86a123894d4" x="148.1" y="0">р</tspan><tspan x="159.36" y="0">укцию ППС </tspan><tspan class="48130659-1345-4899-be3b-1738fd3d1b31" x="270.6" y="0">К</tspan><tspan x="282.3" y="0">омбинатская </tspan></text><text class="e1dd887f-2b2b-4f40-9a74-7f74d07efbb1" transform="translate(1374 355.18)">с ц<tspan class="40f9aee4-8962-4c8a-97ed-2b2eddc4d1cd" x="27.9" y="0">е</tspan><tspan x="38.76" y="0">лью снижения ее воздействия </tspan></text><text class="e1dd887f-2b2b-4f40-9a74-7f74d07efbb1" transform="translate(1374 381.18)">на атмосферный воздух. О<tspan class="9446a9c5-d9ba-4124-b257-da10ffe95bf4" x="249.38" y="0">к</tspan><tspan x="259" y="0">ончание </tspan></text><text class="e1dd887f-2b2b-4f40-9a74-7f74d07efbb1" transform="translate(1374 407.18)">ре<tspan class="7b6b7de9-95a1-4d75-beec-b25b23aa8608" x="22.54" y="0">к</tspan><tspan x="32.18" y="0">онст</tspan><tspan class="f60d9799-4f34-4fb0-8343-b86a123894d4" x="75.92" y="0">р</tspan><tspan x="87.18" y="0">укции ожидается в 2021 </tspan><tspan class="c7016b25-d4e0-456d-b78f-ad0eae28bb19" x="320.16" y="0">г</tspan><tspan x="328.28" y="0">оду;</tspan></text><text class="e1dd887f-2b2b-4f40-9a74-7f74d07efbb1" transform="translate(1356 446.18)">•</text><text class="e1dd887f-2b2b-4f40-9a74-7f74d07efbb1" transform="translate(1363.6 446.18)"> </text><text class="e1dd887f-2b2b-4f40-9a74-7f74d07efbb1" transform="translate(1374 446.18)">автоматизировали рабочее место э<tspan class="35eec063-4ff3-47f7-a63f-48b5706f91bf" x="337.2" y="0">к</tspan><tspan class="caad1f7f-0e64-4b44-a3bc-0edaed31c55c" x="346.82" y="0">о</tspan><tspan x="357.8" y="0">лога, </tspan></text><text class="e1dd887f-2b2b-4f40-9a74-7f74d07efbb1" transform="translate(1374 472.18)">что позв<tspan class="736dcb51-cd6b-44e7-8c74-ddf21481d09e" x="80.16" y="0">о</tspan><tspan x="91.14" y="0">лило повысить уровень </tspan><tspan class="35eec063-4ff3-47f7-a63f-48b5706f91bf" x="317.5" y="0">к</tspan><tspan x="327.12" y="0">онтр</tspan><tspan class="caad1f7f-0e64-4b44-a3bc-0edaed31c55c" x="371.76" y="0">о</tspan><tspan x="382.74" y="0">ля </tspan></text><text class="e1dd887f-2b2b-4f40-9a74-7f74d07efbb1" transform="translate(1374 498.18)">мониторинга<tspan class="ce1d5f17-86e8-45d5-8f5f-162e46cf6711" x="123.92" y="0"> </tspan><tspan x="129" y="0">и</tspan><tspan class="e04b19e3-d1bd-43c2-9ac7-0cde0e8bce47" x="140.92" y="0"> </tspan><tspan class="2223db7e-79e6-4954-81ea-8087715adb89" x="146" y="0">состояния</tspan><tspan class="ce1d5f17-86e8-45d5-8f5f-162e46cf6711" x="244.3" y="0"> </tspan><tspan class="f7524914-9d94-4811-8f36-a3a1b9f96d71" x="249.38" y="0">охраны</tspan><tspan class="ce1d5f17-86e8-45d5-8f5f-162e46cf6711" x="318.34" y="0"> </tspan><tspan x="323.42" y="0">ок</tspan><tspan class="13097572-7bb9-4ae5-b40d-e2838676030d" x="344.7" y="0">р</tspan><tspan x="355.94" y="0">ужающей </tspan></text><text class="e1dd887f-2b2b-4f40-9a74-7f74d07efbb1" transform="translate(1374 524.18)">среды, реагировать в режиме реально<tspan class="c7016b25-d4e0-456d-b78f-ad0eae28bb19" x="362.24" y="0">г</tspan><tspan x="370.36" y="0">о </tspan></text><text class="e1dd887f-2b2b-4f40-9a74-7f74d07efbb1" transform="translate(1374 550.18)">времени;</text><text class="e1dd887f-2b2b-4f40-9a74-7f74d07efbb1" transform="translate(1356 589.18)">•</text><text class="e1dd887f-2b2b-4f40-9a74-7f74d07efbb1" transform="translate(1363.6 589.18)"> </text><text class="e1dd887f-2b2b-4f40-9a74-7f74d07efbb1" transform="translate(1374 589.18)">ликвидировали на<tspan class="9446a9c5-d9ba-4124-b257-da10ffe95bf4" x="174.74" y="0">к</tspan><tspan x="184.36" y="0">опленный ущерб </tspan></text><text class="e1dd887f-2b2b-4f40-9a74-7f74d07efbb1" transform="translate(1374 615.18)">предыдущими собственниками </text><text class="e1dd887f-2b2b-4f40-9a74-7f74d07efbb1" transform="translate(1374 641.18)">производственных объектов ок<tspan class="e0ada692-ff1a-4057-b002-3f96fc67adb5" x="297.24" y="0">р</tspan><tspan class="f7524914-9d94-4811-8f36-a3a1b9f96d71" x="308.48" y="0">ужающей </tspan></text><text class="e1dd887f-2b2b-4f40-9a74-7f74d07efbb1" transform="translate(1374 667.18)">среде в размере 1350</text><text class="e1dd887f-2b2b-4f40-9a74-7f74d07efbb1" transform="translate(1578.18 667.18)"> </text><text class="e1dd887f-2b2b-4f40-9a74-7f74d07efbb1" transform="translate(1580.68 667.18)">м</text><text class="04230a8d-3273-4b15-98c8-8d8b16997aa2" transform="translate(1593.96 660.52)">3</text><text class="e1dd887f-2b2b-4f40-9a74-7f74d07efbb1" transform="translate(1600.67 667.18)">;</text><text class="e1dd887f-2b2b-4f40-9a74-7f74d07efbb1" transform="translate(1355.99 706.18)">•</text><text class="e1dd887f-2b2b-4f40-9a74-7f74d07efbb1" transform="translate(1363.59 706.18)"> </text><text class="e1dd887f-2b2b-4f40-9a74-7f74d07efbb1" transform="translate(1373.99 706.18)">пров<tspan class="3c001f74-3775-4608-908c-5b30cef62f39" x="45.14" y="0">е</tspan><tspan x="56" y="0">ли практическую обучаю</tspan><tspan class="d3b91241-15ac-4c40-a192-1a92f1c62fd5" x="293.04" y="0">щ</tspan><tspan class="f7524914-9d94-4811-8f36-a3a1b9f96d71" x="308.82" y="0">ую сессию </tspan></text><text class="e1dd887f-2b2b-4f40-9a74-7f74d07efbb1" transform="translate(1373.99 732.18)">«Ш<tspan class="7b6b7de9-95a1-4d75-beec-b25b23aa8608" x="30.96" y="0">к</tspan><tspan class="caad1f7f-0e64-4b44-a3bc-0edaed31c55c" x="40.6" y="0">о</tspan><tspan x="51.58" y="0">ла по пожарной и э</tspan><tspan class="35eec063-4ff3-47f7-a63f-48b5706f91bf" x="234.48" y="0">к</tspan><tspan class="736dcb51-cd6b-44e7-8c74-ddf21481d09e" x="244.1" y="0">о</tspan><tspan x="255.08" y="0">логичес</tspan><tspan class="7b6b7de9-95a1-4d75-beec-b25b23aa8608" x="329.92" y="0">к</tspan><tspan x="339.56" y="0">ой </tspan></text><text class="e1dd887f-2b2b-4f40-9a74-7f74d07efbb1" transform="translate(1373.99 758.18)">безопасности», в <tspan class="35eec063-4ff3-47f7-a63f-48b5706f91bf" x="169.84" y="0">к</tspan><tspan x="179.46" y="0">оторой приняли участие </tspan></text><text class="e1dd887f-2b2b-4f40-9a74-7f74d07efbb1" transform="translate(1373.99 784.18)">б<tspan class="e81e24f4-bc71-4783-a609-28f7d9241c57" x="11.34" y="0">о</tspan><tspan x="22.3" y="0">лее 30 </tspan><tspan class="e0ada692-ff1a-4057-b002-3f96fc67adb5" x="89.52" y="0">р</tspan><tspan class="f7524914-9d94-4811-8f36-a3a1b9f96d71" x="100.76" y="0">у</tspan><tspan class="f691c920-6b4e-4f3a-b255-a8e7cf61d122" x="111.34" y="0">к</tspan><tspan x="120.98" y="0">оводит</tspan><tspan class="3c001f74-3775-4608-908c-5b30cef62f39" x="187.52" y="0">е</tspan><tspan class="2223db7e-79e6-4954-81ea-8087715adb89" x="198.38" y="0">лей и специалистов </tspan></text><text class="e1dd887f-2b2b-4f40-9a74-7f74d07efbb1" transform="translate(1373.99 810.18)"><tspan class="edd3bf47-9e35-4a8b-bb79-13c0061dd4f4">К</tspan><tspan x="11.68" y="0">омпании. В рез</tspan><tspan class="48130659-1345-4899-be3b-1738fd3d1b31" x="154.64" y="0">у</tspan><tspan x="164.64" y="0">льтате сот</tspan><tspan class="13097572-7bb9-4ae5-b40d-e2838676030d" x="263.88" y="0">р</tspan><tspan x="275.12" y="0">удники </tspan></text><text class="e1dd887f-2b2b-4f40-9a74-7f74d07efbb1" transform="translate(1373.99 836.18)">качественно повысили уровень навы<tspan class="9446a9c5-d9ba-4124-b257-da10ffe95bf4" x="350.9" y="0">к</tspan><tspan x="360.52" y="0">ов </tspan></text><text class="e1dd887f-2b2b-4f40-9a74-7f74d07efbb1" transform="translate(1373.99 862.18)">и <tspan class="7b6b7de9-95a1-4d75-beec-b25b23aa8608" x="17.08" y="0">к</tspan><tspan x="26.72" y="0">омпетенций.</tspan></text><text class="335c5f65-7419-4cbd-bf04-5fffc32f81bd" transform="translate(99.41 736.1)">Динамика потребления воды</text><line class="0f9ebdbf-5443-4c4e-b5a1-48eb63525a39" x1="99" y1="862.8" x2="356" y2="862.8"/><line class="0f9ebdbf-5443-4c4e-b5a1-48eb63525a39" x1="356" y1="862.8" x2="491" y2="862.8"/><line class="0f9ebdbf-5443-4c4e-b5a1-48eb63525a39" x1="491" y1="862.8" x2="626" y2="862.8"/><line class="0f9ebdbf-5443-4c4e-b5a1-48eb63525a39" x1="626" y1="862.8" x2="761" y2="862.8"/><line class="0f9ebdbf-5443-4c4e-b5a1-48eb63525a39" x1="761" y1="862.8" x2="896" y2="862.8"/><line class="0f9ebdbf-5443-4c4e-b5a1-48eb63525a39" x1="896" y1="862.8" x2="1031" y2="862.8"/><line class="0f9ebdbf-5443-4c4e-b5a1-48eb63525a39" x1="1031" y1="862.8" x2="1166" y2="862.8"/><line class="0f9ebdbf-5443-4c4e-b5a1-48eb63525a39" x1="1166" y1="862.8" x2="1227.2" y2="862.8"/><line class="0f9ebdbf-5443-4c4e-b5a1-48eb63525a39" x1="99" y1="905.5" x2="356" y2="905.5"/><line class="0f9ebdbf-5443-4c4e-b5a1-48eb63525a39" x1="356" y1="905.5" x2="491" y2="905.5"/><line class="0f9ebdbf-5443-4c4e-b5a1-48eb63525a39" x1="491" y1="905.5" x2="626" y2="905.5"/><line class="0f9ebdbf-5443-4c4e-b5a1-48eb63525a39" x1="626" y1="905.5" x2="761" y2="905.5"/><line class="0f9ebdbf-5443-4c4e-b5a1-48eb63525a39" x1="761" y1="905.5" x2="896" y2="905.5"/><line class="0f9ebdbf-5443-4c4e-b5a1-48eb63525a39" x1="896" y1="905.5" x2="1031" y2="905.5"/><line class="0f9ebdbf-5443-4c4e-b5a1-48eb63525a39" x1="1031" y1="905.5" x2="1166" y2="905.5"/><line class="0f9ebdbf-5443-4c4e-b5a1-48eb63525a39" x1="1166" y1="905.5" x2="1227.2" y2="905.5"/><line class="4795b727-dfed-4336-a573-97dea20a80ac" x1="356" y1="818.8" x2="491" y2="818.8"/><line class="4795b727-dfed-4336-a573-97dea20a80ac" x1="491" y1="818.8" x2="626" y2="818.8"/><line class="4795b727-dfed-4336-a573-97dea20a80ac" x1="626" y1="818.8" x2="761" y2="818.8"/><line class="7aa638ac-017e-48ed-81a2-ee98572e7cc0" x1="761" y1="818.8" x2="896" y2="818.8"/><line class="7aa638ac-017e-48ed-81a2-ee98572e7cc0" x1="896" y1="818.8" x2="1031" y2="818.8"/><line class="7aa638ac-017e-48ed-81a2-ee98572e7cc0" x1="1031" y1="818.8" x2="1166" y2="818.8"/><text class="e1dd887f-2b2b-4f40-9a74-7f74d07efbb1" transform="translate(99 806.8)"> </text><text class="bb9bbc84-1576-45dd-8331-c841094563a2" transform="translate(532.92 806.8)">2020</text><text class="bb9bbc84-1576-45dd-8331-c841094563a2" transform="translate(939.9 806.8)">2019</text><g class="fb4300ad-b107-4854-973a-281a0ba9ee54"><path class="8f36f2a4-a161-43b9-b99b-0dfbe3b64956" d="M435.25,831.8h-23.5a10,10,0,0,0,0,20h23.5a10,10,0,0,0,0-20"/></g><text class="888cd198-5027-4109-a3ab-3ef54bed6b36" transform="translate(418.72 847.4)">1</text><g class="fb4300ad-b107-4854-973a-281a0ba9ee54"><path class="2821b264-b267-4668-b4f3-f28c666a744b" d="M570.25,831.8h-23.5a10,10,0,0,0,0,20h23.5a10,10,0,0,0,0-20"/></g><text class="888cd198-5027-4109-a3ab-3ef54bed6b36" transform="translate(552.5 847.4)">2</text><g class="fb4300ad-b107-4854-973a-281a0ba9ee54"><path class="0d16a1b0-5321-4459-9416-c030015ddb6d" d="M705.25,831.8h-23.5a10,10,0,0,0,0,20h23.5a10,10,0,0,0,0-20"/></g><text class="888cd198-5027-4109-a3ab-3ef54bed6b36" transform="translate(687.43 847.4)">3</text><g class="fb4300ad-b107-4854-973a-281a0ba9ee54"><path class="8f36f2a4-a161-43b9-b99b-0dfbe3b64956" d="M840.25,831.8h-23.5a10,10,0,0,0,0,20h23.5a10,10,0,0,0,0-20"/></g><text class="888cd198-5027-4109-a3ab-3ef54bed6b36" transform="translate(823.72 847.4)">1</text><g class="fb4300ad-b107-4854-973a-281a0ba9ee54"><path class="2821b264-b267-4668-b4f3-f28c666a744b" d="M975.25,831.8h-23.5a10,10,0,0,0,0,20h23.5a10,10,0,0,0,0-20"/></g><text class="888cd198-5027-4109-a3ab-3ef54bed6b36" transform="translate(957.5 847.4)">2</text><g class="fb4300ad-b107-4854-973a-281a0ba9ee54"><path class="0d16a1b0-5321-4459-9416-c030015ddb6d" d="M1110.25,831.8h-23.5a10,10,0,0,0,0,20h23.5a10,10,0,0,0,0-20"/></g><text class="888cd198-5027-4109-a3ab-3ef54bed6b36" transform="translate(1092.43 847.4)">3</text><text class="37b42b0c-3b1c-486b-8fb9-fff645b63db9" transform="translate(1193.28 848.28)">Изм.</text><text class="e1dd887f-2b2b-4f40-9a74-7f74d07efbb1" transform="translate(99 893.5)">Водопотребление куб. м</text><text class="e1dd887f-2b2b-4f40-9a74-7f74d07efbb1" transform="translate(390.94 893.5)">191 755</text><text class="e1dd887f-2b2b-4f40-9a74-7f74d07efbb1" transform="translate(531.18 893.5)">10 777</text><text class="e1dd887f-2b2b-4f40-9a74-7f74d07efbb1" transform="translate(656.5 893.5)">202 532</text><text class="e1dd887f-2b2b-4f40-9a74-7f74d07efbb1" transform="translate(790.06 893.5)">204 860</text><text class="e1dd887f-2b2b-4f40-9a74-7f74d07efbb1" transform="translate(933.62 893.5)">14 455</text><text class="e1dd887f-2b2b-4f40-9a74-7f74d07efbb1" transform="translate(1065.38 893.5)">219 <tspan class="e0ada692-ff1a-4057-b002-3f96fc67adb5" x="35.76" y="0">3</tspan><tspan x="46.9" y="0">15</tspan></text><text class="b7518b24-5b23-4b03-b5aa-bfe1e8f25a1d" transform="translate(1188.78 893.5)">-8%</text><g class="fb4300ad-b107-4854-973a-281a0ba9ee54"><path class="8f36f2a4-a161-43b9-b99b-0dfbe3b64956" d="M132.5,937H109a10,10,0,0,0,0,20h23.5a10,10,0,0,0,0-20"/></g><text class="888cd198-5027-4109-a3ab-3ef54bed6b36" transform="translate(115.97 952.6)">1</text><text class="e1dd887f-2b2b-4f40-9a74-7f74d07efbb1" transform="translate(142.5 954)"> </text><text class="e1dd887f-2b2b-4f40-9a74-7f74d07efbb1" transform="translate(152.5 954)">Производственное</text><text class="e1dd887f-2b2b-4f40-9a74-7f74d07efbb1" transform="translate(332.9 954)"> </text><text class="e1dd887f-2b2b-4f40-9a74-7f74d07efbb1" transform="translate(342.9 954)">потребление </text><g class="fb4300ad-b107-4854-973a-281a0ba9ee54"><path class="2821b264-b267-4668-b4f3-f28c666a744b" d="M569.2,937H545.7a10,10,0,0,0,0,20h23.5a10,10,0,0,0,0-20"/></g><text class="888cd198-5027-4109-a3ab-3ef54bed6b36" transform="translate(551.46 952.6)">2</text><text class="e1dd887f-2b2b-4f40-9a74-7f74d07efbb1" transform="translate(579.2 954)"> </text><text class="e1dd887f-2b2b-4f40-9a74-7f74d07efbb1" transform="translate(589.2 954)">Общехозяйственное</text><text class="e1dd887f-2b2b-4f40-9a74-7f74d07efbb1" transform="translate(782.6 954)"> </text><text class="e1dd887f-2b2b-4f40-9a74-7f74d07efbb1" transform="translate(792.6 954)">потребление </text><g class="fb4300ad-b107-4854-973a-281a0ba9ee54"><path class="0d16a1b0-5321-4459-9416-c030015ddb6d" d="M1018.91,937h-23.5a10,10,0,1,0,0,20h23.5a10,10,0,1,0,0-20"/></g><text class="888cd198-5027-4109-a3ab-3ef54bed6b36" transform="translate(1001.09 952.6)">3</text><text class="e1dd887f-2b2b-4f40-9a74-7f74d07efbb1" transform="translate(1028.91 954)"> </text><text class="e1dd887f-2b2b-4f40-9a74-7f74d07efbb1" transform="translate(1038.91 954)">Ито<tspan class="77d38849-d8f2-4df1-982e-e19643d0fe61" x="35.62" y="0">г</tspan><tspan x="43.76" y="0">о</tspan></text><text class="e1dd887f-2b2b-4f40-9a74-7f74d07efbb1" transform="translate(1093.81 954)"> </text><text class="e1dd887f-2b2b-4f40-9a74-7f74d07efbb1" transform="translate(1103.81 954)">потребление</text><text class="e1dd887f-2b2b-4f40-9a74-7f74d07efbb1" transform="translate(99.01 118.7)">ПГК исп<tspan class="24fed6fe-33a1-42ae-b798-9dcc6dc83658" x="75.7" y="0">о</tspan><tspan x="86.68" y="0">льз</tspan><tspan class="dd63c13b-cdc2-413c-8c88-ba6c4e311ccb" x="117.26" y="0">у</tspan><tspan x="127.5" y="0">ет воду для производственной </tspan></text><text class="e1dd887f-2b2b-4f40-9a74-7f74d07efbb1" transform="translate(99.01 144.7)">деят<tspan class="09aac16e-bcb6-4336-81de-5441198f3a8e" x="42.76" y="0">е</tspan><tspan x="53.62" y="0">льности и для </tspan><tspan class="35eec063-4ff3-47f7-a63f-48b5706f91bf" x="190.54" y="0">к</tspan><tspan class="f8e37780-e36a-4aee-8709-e01640455d8f" x="200.16" y="0">оммунально-бытовых нужд.</tspan></text><text class="e1dd887f-2b2b-4f40-9a74-7f74d07efbb1" transform="translate(99.01 183.7)">Наши основные задачи по исп<tspan class="e81e24f4-bc71-4783-a609-28f7d9241c57" x="286.58" y="0">о</tspan><tspan x="297.54" y="0">льзованию водных </tspan></text><text class="e1dd887f-2b2b-4f40-9a74-7f74d07efbb1" transform="translate(99.01 209.7)">ресурсов включают:</text><text class="e1dd887f-2b2b-4f40-9a74-7f74d07efbb1" transform="translate(99.01 248.7)">•</text><text class="e1dd887f-2b2b-4f40-9a74-7f74d07efbb1" transform="translate(106.61 248.7)"> </text><text class="e1dd887f-2b2b-4f40-9a74-7f74d07efbb1" transform="translate(117.01 248.7)">предоставление безопасной питьевой воды </text><text class="e1dd887f-2b2b-4f40-9a74-7f74d07efbb1" transform="translate(117.01 274.7)">для наших сот<tspan class="e0ada692-ff1a-4057-b002-3f96fc67adb5" x="135.56" y="0">р</tspan><tspan x="146.8" y="0">удни</tspan><tspan class="7b6b7de9-95a1-4d75-beec-b25b23aa8608" x="192.74" y="0">к</tspan><tspan x="202.38" y="0">ов;</tspan></text><text class="e1dd887f-2b2b-4f40-9a74-7f74d07efbb1" transform="translate(99.01 313.7)">•</text><text class="e1dd887f-2b2b-4f40-9a74-7f74d07efbb1" transform="translate(106.61 313.7)"> </text><text class="e1dd887f-2b2b-4f40-9a74-7f74d07efbb1" transform="translate(117.01 313.7)">удаление воды и льда на производственных </text><text class="e1dd887f-2b2b-4f40-9a74-7f74d07efbb1" transform="translate(117.01 339.7)">площадках и создание стабильных и безопасных </text><text class="992b3e75-5af6-4d13-8dfe-425baec0593a" transform="translate(117.01 365.7)">у<tspan class="ade57eed-f602-47da-8635-364f17db2355" x="10.26" y="0">словий работы;</tspan></text><text class="e1dd887f-2b2b-4f40-9a74-7f74d07efbb1" transform="translate(99.01 404.7)">•</text><text class="e1dd887f-2b2b-4f40-9a74-7f74d07efbb1" transform="translate(106.61 404.7)"> </text><text class="e1dd887f-2b2b-4f40-9a74-7f74d07efbb1" transform="translate(117.01 404.7)">гарантию то<tspan class="0985d1bc-c6f0-44ef-bc8d-78875dff386d" x="116.72" y="0">го</tspan><tspan class="f8e37780-e36a-4aee-8709-e01640455d8f" x="135.8" y="0">, что возвращаемая в естественную </tspan></text><text class="e1dd887f-2b2b-4f40-9a74-7f74d07efbb1" transform="translate(117.01 430.7)">среду вода безопасна и соответств<tspan class="dd63c13b-cdc2-413c-8c88-ba6c4e311ccb" x="337.2" y="0">у</tspan><tspan x="347.44" y="0">ет </tspan></text><text class="992b3e75-5af6-4d13-8dfe-425baec0593a" transform="translate(117.01 456.7)">у<tspan class="ade57eed-f602-47da-8635-364f17db2355" x="10.26" y="0">становленным критериям качества.</tspan></text><text class="e1dd887f-2b2b-4f40-9a74-7f74d07efbb1" transform="translate(99.01 495.7)">В 2020 <tspan class="13c400e4-05c6-45a3-afdc-c0c3c449c997" x="70.42" y="0">г</tspan><tspan x="77.04" y="0">. общий объем потребления х</tspan><tspan class="e81e24f4-bc71-4783-a609-28f7d9241c57" x="355.38" y="0">о</tspan><tspan x="366.34" y="0">лодной и </tspan><tspan class="ce3a8988-9f58-4bfb-b99d-2cebfbcf16d2" x="457.47" y="0">г</tspan><tspan x="465.59" y="0">орячей </tspan></text><text class="e1dd887f-2b2b-4f40-9a74-7f74d07efbb1" transform="translate(99.01 521.7)">воды в ПГК снизился на 8</text><text class="e1dd887f-2b2b-4f40-9a74-7f74d07efbb1" transform="translate(342.37 521.7)"> </text><text class="e1dd887f-2b2b-4f40-9a74-7f74d07efbb1" transform="translate(343.21 521.7)">% по сравнению с 2019 <tspan class="ce3a8988-9f58-4bfb-b99d-2cebfbcf16d2" x="222.78" y="0">г</tspan><tspan class="f8e37780-e36a-4aee-8709-e01640455d8f" x="230.9" y="0">одом. </tspan></text><text class="e1dd887f-2b2b-4f40-9a74-7f74d07efbb1" transform="translate(99.01 547.7)"><tspan class="6db0d474-cdb2-47a5-bc8d-4dd7680566e1">К</tspan><tspan class="f8e37780-e36a-4aee-8709-e01640455d8f" x="11.7" y="0">омпания и в будущем плани</tspan><tspan class="e0ada692-ff1a-4057-b002-3f96fc67adb5" x="277.42" y="0">р</tspan><tspan class="1ae8cbbf-86ca-4875-b83d-07d175db8fe4" x="288.66" y="0">у</tspan><tspan x="298.92" y="0">ет </tspan><tspan class="3fd20f99-4d89-4e04-a68e-9d74f3c12d36" x="324.94" y="0">у</tspan><tspan x="334.96" y="0">лучшать систему </tspan></text><text class="e1dd887f-2b2b-4f40-9a74-7f74d07efbb1" transform="translate(99.01 573.7)">мониторинга для <tspan class="35eec063-4ff3-47f7-a63f-48b5706f91bf" x="167.36" y="0">к</tspan><tspan x="176.98" y="0">онтр</tspan><tspan class="24fed6fe-33a1-42ae-b798-9dcc6dc83658" x="221.62" y="0">о</tspan><tspan x="232.6" y="0">ля качества и объема </tspan></text><text class="e1dd887f-2b2b-4f40-9a74-7f74d07efbb1" transform="translate(99.01 599.7)">потребления воды.</text><g class="fb4300ad-b107-4854-973a-281a0ba9ee54"><path class="8f36f2a4-a161-43b9-b99b-0dfbe3b64956" d="M920.57,250.64q-20.07-17.92-20.07-46.29,0-30.49,20.07-48.7t60.2-18.19q40.14,0,60.2,18.19t20.07,48.7q0,28.38-20.07,46.29t-60.2,17.93q-40.14,0-60.2-17.93M908.26,436.87Q884.44,415.2,884.45,381q0-32.11,24.08-53.52T980.77,306q48.16,0,72.24,21.4T1077.1,381q0,34.24-23.82,55.92t-72.51,21.67q-48.71,0-72.51-21.67m-1.61-329.11q-30.76,7.77-50.57,21.4t-29.16,32.92a95.31,95.31,0,0,0-9.37,42.27q0,30.51,19,51.37t53.25,28.9a137.27,137.27,0,0,0-36.39,12.84,106.5,106.5,0,0,0-27.83,21.14A88,88,0,0,0,807.65,347a94.82,94.82,0,0,0,4.82,77.87q11,20.87,33.45,36.65t56.19,25.16Q935.82,496,980.77,496t78.67-9.36q33.7-9.36,56.18-25.16t33.45-36.65a94.82,94.82,0,0,0,4.82-77.87A88.36,88.36,0,0,0,1136,318.6a105.24,105.24,0,0,0-28.09-21.14,142.64,142.64,0,0,0-36.13-12.84q34.24-8,53.25-28.9t19-51.37a95.44,95.44,0,0,0-9.37-42.27q-9.36-19.28-29.16-32.92t-50.57-21.4Q1024.11,100,980.77,100t-74.12,7.76"/></g><text class="bb9bbc84-1576-45dd-8331-c841094563a2" transform="translate(801.5 553.7)">В 2020 <tspan class="24fed6fe-33a1-42ae-b798-9dcc6dc83658" x="74.02" y="0">г</tspan><tspan x="82.76" y="0">оду водопотребление</tspan></text><text class="bb9bbc84-1576-45dd-8331-c841094563a2" transform="translate(1103.38 553.7)"> </text><text class="bb9bbc84-1576-45dd-8331-c841094563a2" transform="translate(801.5 579.7)">по сравнению с 2019 <tspan class="caad1f7f-0e64-4b44-a3bc-0edaed31c55c" x="213.58" y="0">г</tspan><tspan class="2223db7e-79e6-4954-81ea-8087715adb89" x="222.32" y="0">одом снизилось </tspan></text><text class="bb9bbc84-1576-45dd-8331-c841094563a2" transform="translate(801.5 605.7)">на 8</text><text class="bb9bbc84-1576-45dd-8331-c841094563a2" transform="translate(843.12 605.7)"> </text><text class="bb9bbc84-1576-45dd-8331-c841094563a2" transform="translate(843.96 605.7)">%, до 202 532 литров</text><g class="fb4300ad-b107-4854-973a-281a0ba9ee54"><path class="cf277f93-9e54-4581-8440-a864bc0c40b2" d="M1217,100H1066a20,20,0,0,0,0,40h151a20,20,0,0,0,0-40"/></g><text class="335c5f65-7419-4cbd-bf04-5fffc32f81bd" transform="translate(1066.88 127.28)">про<tspan class="b6a8385e-3456-43da-ab0f-ce8fbfe8380e" x="50.93" y="0">ц</tspan><tspan x="68.77" y="0">ентов</tspan></text><text class="e1dd887f-2b2b-4f40-9a74-7f74d07efbb1" transform="translate(39.8 57)">15</text><g class="fb4300ad-b107-4854-973a-281a0ba9ee54"><text class="e1dd887f-2b2b-4f40-9a74-7f74d07efbb1" transform="translate(99 57)">О <tspan class="f5b44c0e-f985-4bed-8176-eb7f485635db" x="18.4" y="0">к</tspan><tspan x="28.04" y="0">омпании</tspan></text></g></svg>