<?xml-stylesheet type="text/css" href="/pgk/main.css" ?><svg xmlns="http://www.w3.org/2000/svg" xmlns:xlink="http://www.w3.org/1999/xlink" id="d02293f8-8bfa-460e-95a8-ea4632f4fb13" data-name="Layer 1" viewBox="0 0 1920 1080"><defs><style>.\34 f664c21-ec97-4916-b9d2-5f5a24208493{fill:none;}.\35 e7cca77-d7f7-41be-b09a-dc26fda5ad13{clip-path:url(#c6ac2147-8051-48bf-82e4-edc938a304de);}.cca0d01a-c73d-4ac7-b31b-202bac786c08{fill:#fff;}.\38 561ff20-b259-44b8-a5f6-fc7e69ab2b97{fill:#e8e8ed;}.\34 a51f7cc-c12b-41f2-abf8-6c8ccf69a5ed{font-size:38px;font-family:ProstoOne-Regular, Prosto One;}.\34 7081a30-738b-4eb8-8a8e-0b070d586eb0,.\35 ba0af41-dfa3-4a22-8a41-152f8e2a3eef,.b8dbdf14-2cfc-4f91-9fee-c1cafc241363,.c0ff771c-4cd2-4620-ac95-2418bc17bcea,.ebdcf119-ed6c-4720-8319-90ad8e2952be{font-size:20px;}.\34 7081a30-738b-4eb8-8a8e-0b070d586eb0,.\35 ba0af41-dfa3-4a22-8a41-152f8e2a3eef,.b8dbdf14-2cfc-4f91-9fee-c1cafc241363,.c0ff771c-4cd2-4620-ac95-2418bc17bcea{font-family:Rubik-Light, Rubik;}.\35 ec1495e-40ae-4ed0-8e49-be1c4f1621e2{letter-spacing:-0.02em;}.d7fc8c6a-91f9-4c05-a64d-fed9a9555805{letter-spacing:-0.03em;}.\37 d455066-2380-4e4f-8343-94ebbce9dbbf,.c0ff771c-4cd2-4620-ac95-2418bc17bcea{letter-spacing:-0.02em;}.\37 6d7382c-f408-45ee-9ce0-71c5007232e2{letter-spacing:-0.02em;}.\31 13f6028-6ec5-4874-9870-51d090015412{letter-spacing:0em;}.\36 423c114-446e-47d2-9fe8-b4680b658c23{letter-spacing:0em;}.\38 cfe3cea-4a00-41ed-a517-0eeb6eb7612b{letter-spacing:-0.03em;}.d8d479f8-a147-418c-8f53-b1daee0c0adf{letter-spacing:-0.01em;}.fcc20851-d31d-4013-b84a-9ffdcb6bf0b5{letter-spacing:-0.01em;}.b12597a3-08d9-43ca-b2fc-73f18c61c48a{letter-spacing:0em;}.\36 78f5cca-d8af-42d4-958a-a6366ff43107{letter-spacing:-0.02em;}.\34 0fed88a-5e1b-4810-b16f-d87f7ac765d2{letter-spacing:-0.03em;}.a0fa18e9-fd3e-40ca-b315-b6f74ae7cedc{letter-spacing:-0.02em;}.\33 645a754-a780-4593-8428-3174ffdcb0ac{letter-spacing:0em;}.\34 69e294f-18de-4907-8f77-931c9c80f60b{letter-spacing:0em;}.fb6db427-63c1-47c5-8de6-a1b0437f5201{letter-spacing:-0.04em;}.\30 ec16682-2ebd-4526-a57b-da82c9ae3c14{letter-spacing:-0.02em;}.b44ec9af-ec6e-40f0-91dd-ea4715f51aaa{letter-spacing:-0.01em;}.\34 7081a30-738b-4eb8-8a8e-0b070d586eb0,.\35 75ea587-e4a8-4e06-9eec-9f6634049053{letter-spacing:0.01em;}.e1405e0a-c76c-4059-b98a-cc598938253b{letter-spacing:-0.01em;}.ab93bd3e-d6f4-4b34-add3-fefefaf84780{letter-spacing:0em;}.e7ead294-04bd-421a-96f2-b8d98cc8200c{letter-spacing:0em;}.\35 ba0af41-dfa3-4a22-8a41-152f8e2a3eef,.\37 3247fa9-4e38-4ee7-82b1-8d554c78678f{letter-spacing:-0.02em;}.\30 95b146d-bf98-4efd-aec2-6bd8fee09533{letter-spacing:-0.01em;}.f043a700-9b14-4b47-ace7-73d3123ed355{letter-spacing:0em;}.dba2ce4a-efbf-4961-aa68-dc7b52de8d36{letter-spacing:0em;}.\38 2e7fa80-1fea-4737-9371-5b27164dd5ec{letter-spacing:-0.01em;}.\31 ad0b0c5-126f-4db9-959c-08fba8e49997{letter-spacing:0em;}.\30 1bfe326-3db3-4fe9-879a-e373923526de{letter-spacing:-0.01em;}.\37 3d15aa9-bf42-4e09-8fc0-ef17f48d64c9{letter-spacing:0.01em;}.\30 9823622-54cb-43b0-baec-358bc9f9bc08{letter-spacing:0em;}.\37 5555352-eeaf-4d2c-9016-fbdaeb154515{letter-spacing:-0.01em;}.\32 0a6e6b8-59eb-44c2-9b07-0df323e1597d{letter-spacing:-0.02em;}.\32 b4d7c3f-a4de-4e86-a84f-911ce3ca03d0{letter-spacing:-0.06em;}.e34a31b7-6b54-426c-903f-4da2f24a489c{letter-spacing:-0.01em;}.\35 1562543-ca83-4de9-937d-2a64f28068f3{letter-spacing:-0.01em;}.\38 7005da7-9e40-414e-8ace-90d8772abd65{letter-spacing:-0.02em;}.\31 3941f51-84c2-4ce1-a2c7-31ea4d9459c4{letter-spacing:-0.01em;}.\38 cb03971-a9a0-412b-9f4e-9e6bc1daa656{letter-spacing:-0.04em;}.\35 804bef0-b776-4acb-82c0-cb42d7876fa7{letter-spacing:-0.01em;}.\31 90ae442-61f1-4ff4-9ac6-af8bf784899f{letter-spacing:-0.01em;}.\35 9d4b7b1-cf3d-4010-9310-ee6c41933f57{letter-spacing:0em;}.bb8697fc-718d-4aaf-97f0-438b280f5247{letter-spacing:0em;}.cc48a3df-810a-4d91-a871-57b5459183c6{letter-spacing:-0.02em;}.e2fba571-a1ee-44c2-85a6-9f6ebde0fd77{letter-spacing:-0.02em;}.\38 b4188c5-c763-4f3b-b696-b019ca17b4c5{letter-spacing:-0.01em;}.ef138a4c-9211-461a-bd6d-f6103dbdcd74{letter-spacing:-0.01em;}.\36 0802e9e-e471-4376-992f-cacc48ae5cc5{letter-spacing:-0.02em;}.a0538b9e-5af5-4dec-ba97-1dace1077396{letter-spacing:-0.02em;}.f1aaf967-a608-4b01-a5a5-13f7c94e7499{letter-spacing:-0.03em;}.b2ca6698-dfa5-49fb-b54a-9c0327dadab9{letter-spacing:-0.03em;}.f5250888-e268-4dac-aecb-afce0deb93b0{letter-spacing:-0.01em;}.b400c130-e787-408a-9f94-02393ca17d6f{font-size:28px;}.b400c130-e787-408a-9f94-02393ca17d6f,.ebdcf119-ed6c-4720-8319-90ad8e2952be{font-family:Rubik-Medium, Rubik;}.ef1d7166-9e80-4e9a-b848-f0c4e3babad1{letter-spacing:0em;}.\34 5d7767e-22ff-4eaf-8990-f081a4919386{letter-spacing:-0.01em;}.a0340c28-085c-4e16-a78b-5b8714fa896c{letter-spacing:-0.04em;}.\33 240e38d-044e-4a69-a05e-3d8a948ef223{fill:#faaa2d;}.\35 70b7131-7b73-4cad-b1a9-e3d5e2cf4e3a{letter-spacing:-0.01em;}.de682bbc-70c3-41a2-9865-5c8e6ee59005{letter-spacing:-0.02em;}</style><clipPath id="c6ac2147-8051-48bf-82e4-edc938a304de"><rect class="4f664c21-ec97-4916-b9d2-5f5a24208493" width="1920" height="1080"/></clipPath></defs><title>16</title><g class="5e7cca77-d7f7-41be-b09a-dc26fda5ad13"><rect class="cca0d01a-c73d-4ac7-b31b-202bac786c08" width="1920" height="1080"/></g><rect class="8561ff20-b259-44b8-a5f6-fc7e69ab2b97" width="633" height="1080"/><text class="4a51f7cc-c12b-41f2-abf8-6c8ccf69a5ed" transform="translate(99 126.6)">СОЦИАЛЬНАЯ</text><text class="4a51f7cc-c12b-41f2-abf8-6c8ccf69a5ed" transform="translate(415.35 126.6)"> </text><text class="4a51f7cc-c12b-41f2-abf8-6c8ccf69a5ed" transform="translate(99 172.2)">ОТВЕТСТВЕННОСТЬ</text><text class="b8dbdf14-2cfc-4f91-9fee-c1cafc241363" transform="translate(99 250.9)">ПГК занимает лиди<tspan class="5ec1495e-40ae-4ed0-8e49-be1c4f1621e2" x="182.54" y="0">р</tspan><tspan x="193.78" y="0">ующие позиции </tspan></text><text class="b8dbdf14-2cfc-4f91-9fee-c1cafc241363" transform="translate(99 276.9)">на российс<tspan class="d7fc8c6a-91f9-4c05-a64d-fed9a9555805" x="106.58" y="0">к</tspan><tspan x="116.2" y="0">ом рын</tspan><tspan class="7d455066-2380-4e4f-8343-94ebbce9dbbf" x="182.52" y="0">к</tspan><tspan x="192.16" y="0">е г</tspan><tspan class="76d7382c-f408-45ee-9ce0-71c5007232e2" x="216.6" y="0">р</tspan><tspan class="113f6028-6ec5-4874-9870-51d090015412" x="227.86" y="0">узовых </tspan></text><text class="b8dbdf14-2cfc-4f91-9fee-c1cafc241363" transform="translate(99 302.9)">ж<tspan class="6423c114-446e-47d2-9fe8-b4680b658c23" x="14.98" y="0">е</tspan><tspan x="25.84" y="0">лезнодорожных перевозок и в своей </tspan></text><text class="b8dbdf14-2cfc-4f91-9fee-c1cafc241363" transform="translate(99 328.9)">деят<tspan class="6423c114-446e-47d2-9fe8-b4680b658c23" x="42.76" y="0">е</tspan><tspan x="53.62" y="0">льности основывается на принципах </tspan></text><text class="b8dbdf14-2cfc-4f91-9fee-c1cafc241363" transform="translate(99 354.9)">социальной ответственности. <tspan class="8cfe3cea-4a00-41ed-a517-0eeb6eb7612b" x="290.16" y="0">К</tspan><tspan class="113f6028-6ec5-4874-9870-51d090015412" x="301.84" y="0">омпания </tspan></text><text class="b8dbdf14-2cfc-4f91-9fee-c1cafc241363" transform="translate(99 380.9)">вып<tspan class="d8d479f8-a147-418c-8f53-b1daee0c0adf" x="35.54" y="0">о</tspan><tspan x="46.52" y="0">лняет нало</tspan><tspan class="fcc20851-d31d-4013-b84a-9ffdcb6bf0b5" x="151.08" y="0">г</tspan><tspan x="159.2" y="0">овые обязат</tspan><tspan class="b12597a3-08d9-43ca-b2fc-73f18c61c48a" x="273.84" y="0">е</tspan><tspan x="284.68" y="0">льства, </tspan></text><text class="b8dbdf14-2cfc-4f91-9fee-c1cafc241363" transform="translate(99 406.9)">содейств<tspan class="678f5cca-d8af-42d4-958a-a6366ff43107" x="87.74" y="0">у</tspan><tspan class="113f6028-6ec5-4874-9870-51d090015412" x="97.98" y="0">ет социально-э</tspan><tspan class="7d455066-2380-4e4f-8343-94ebbce9dbbf" x="244.82" y="0">к</tspan><tspan class="113f6028-6ec5-4874-9870-51d090015412" x="254.46" y="0">ономичес</tspan><tspan class="40fed88a-5e1b-4810-b16f-d87f7ac765d2" x="346.08" y="0">к</tspan><tspan x="355.7" y="0">ому </tspan></text><text class="b8dbdf14-2cfc-4f91-9fee-c1cafc241363" transform="translate(99 432.9)">развитию в регионах, доставляет социально </text><text class="b8dbdf14-2cfc-4f91-9fee-c1cafc241363" transform="translate(99 458.9)">значимые г<tspan class="a0fa18e9-fd3e-40ca-b315-b6f74ae7cedc" x="105.84" y="0">р</tspan><tspan class="113f6028-6ec5-4874-9870-51d090015412" x="117.08" y="0">узы по всей территории России. </tspan></text><text class="b8dbdf14-2cfc-4f91-9fee-c1cafc241363" transform="translate(99 484.9)">Значит<tspan class="3645a754-a780-4593-8428-3174ffdcb0ac" x="67.02" y="0">е</tspan><tspan class="469e294f-18de-4907-8f77-931c9c80f60b" x="77.88" y="0">льное</tspan><tspan class="fb6db427-63c1-47c5-8de6-a1b0437f5201" x="132.62" y="0"> </tspan><tspan x="137.04" y="0">внимание</tspan><tspan class="fb6db427-63c1-47c5-8de6-a1b0437f5201" x="230.48" y="0"> </tspan><tspan x="234.9" y="0">уд</tspan><tspan class="6423c114-446e-47d2-9fe8-b4680b658c23" x="257" y="0">е</tspan><tspan x="267.86" y="0">ляется</tspan><tspan class="fb6db427-63c1-47c5-8de6-a1b0437f5201" x="331.42" y="0"> </tspan><tspan class="469e294f-18de-4907-8f77-931c9c80f60b" x="335.84" y="0">соблюдению </tspan></text><text class="b8dbdf14-2cfc-4f91-9fee-c1cafc241363" transform="translate(99 510.9)">интересов сот<tspan class="a0fa18e9-fd3e-40ca-b315-b6f74ae7cedc" x="136.94" y="0">р</tspan><tspan x="148.18" y="0">удни</tspan><tspan class="7d455066-2380-4e4f-8343-94ebbce9dbbf" x="194.12" y="0">к</tspan><tspan class="113f6028-6ec5-4874-9870-51d090015412" x="203.76" y="0">ов, создаются </tspan></text><text class="c0ff771c-4cd2-4620-ac95-2418bc17bcea" transform="translate(99 536.9)">к<tspan class="113f6028-6ec5-4874-9870-51d090015412" x="9.64" y="0">омфортные </tspan><tspan class="0ec16682-2ebd-4526-a57b-da82c9ae3c14" x="121.56" y="0">у</tspan><tspan class="469e294f-18de-4907-8f77-931c9c80f60b" x="131.8" y="0">словия для эффективной работы. </tspan></text><text class="b8dbdf14-2cfc-4f91-9fee-c1cafc241363" transform="translate(99 562.9)">Общество предоставляет возможности </text><text class="b8dbdf14-2cfc-4f91-9fee-c1cafc241363" transform="translate(99 588.9)">профессионально<tspan class="b44ec9af-ec6e-40f0-91dd-ea4715f51aaa" x="169.78" y="0">г</tspan><tspan x="177.9" y="0">о развития посредством </tspan></text><text class="b8dbdf14-2cfc-4f91-9fee-c1cafc241363" transform="translate(99 614.9)">обучения и участия во внутренних проектах, </text><text class="b8dbdf14-2cfc-4f91-9fee-c1cafc241363" transform="translate(99 640.9)">а также заботится о безопасности <tspan class="d7fc8c6a-91f9-4c05-a64d-fed9a9555805" x="332.2" y="0">к</tspan><tspan x="341.82" y="0">оманды.</tspan></text><text class="b8dbdf14-2cfc-4f91-9fee-c1cafc241363" transform="translate(693 589.26)"><tspan class="575ea587-e4a8-4e06-9eec-9f6634049053">В </tspan><tspan class="e1405e0a-c76c-4059-b98a-cc598938253b" x="18.42" y="0">у</tspan><tspan class="575ea587-e4a8-4e06-9eec-9f6634049053" x="28.78" y="0">словиях нестабильной эпидеми</tspan><tspan class="ab93bd3e-d6f4-4b34-add3-fefefaf84780" x="333.52" y="0">о</tspan><tspan class="e7ead294-04bd-421a-96f2-b8d98cc8200c" x="344.58" y="0">логичес</tspan><tspan class="73247fa9-4e38-4ee7-82b1-8d554c78678f" x="420.12" y="0">к</tspan><tspan class="e7ead294-04bd-421a-96f2-b8d98cc8200c" x="429.83" y="0">о</tspan><tspan x="441.09" y="0">й </tspan></text><text class="47081a30-738b-4eb8-8a8e-0b070d586eb0" transform="translate(693 615.26)">ситуации в 2020 <tspan class="095b146d-bf98-4efd-aec2-6bd8fee09533" x="164.7" y="0">г</tspan><tspan class="e7ead294-04bd-421a-96f2-b8d98cc8200c" x="172.92" y="0">оду оператор одним из первы</tspan><tspan class="f043a700-9b14-4b47-ace7-73d3123ed355" x="457.81" y="0">х </tspan></text><text class="b8dbdf14-2cfc-4f91-9fee-c1cafc241363" transform="translate(693 641.26)"><tspan class="575ea587-e4a8-4e06-9eec-9f6634049053">перев</tspan><tspan class="dba2ce4a-efbf-4961-aa68-dc7b52de8d36" x="56.32" y="0">е</tspan><tspan class="575ea587-e4a8-4e06-9eec-9f6634049053" x="67.26" y="0">л б</tspan><tspan class="82e7fa80-1fea-4737-9371-5b27164dd5ec" x="95.28" y="0">о</tspan><tspan class="575ea587-e4a8-4e06-9eec-9f6634049053" x="106.34" y="0">льшую часть работни</tspan><tspan class="73247fa9-4e38-4ee7-82b1-8d554c78678f" x="310.58" y="0">к</tspan><tspan class="e7ead294-04bd-421a-96f2-b8d98cc8200c" x="320.3" y="0">ов на дистанционны</tspan><tspan x="515.91" y="0">й </tspan></text><text class="b8dbdf14-2cfc-4f91-9fee-c1cafc241363" transform="translate(693 667.26)"><tspan class="e7ead294-04bd-421a-96f2-b8d98cc8200c">режим работы. В соответствии с разработанно</tspan><tspan x="452.01" y="0">й </tspan></text><text class="47081a30-738b-4eb8-8a8e-0b070d586eb0" transform="translate(693 693.26)">мод<tspan class="1ad0b0c5-126f-4db9-959c-08fba8e49997" x="36.26" y="0">е</tspan><tspan x="47.2" y="0">лью управляемой удаленной ст</tspan><tspan class="01bfe326-3db3-4fe9-879a-e373923526de" x="348.17" y="0">р</tspan><tspan class="73d15aa9-bf42-4e09-8fc0-ef17f48d64c9" x="359.51" y="0">уктуры</tspan><tspan class="09823622-54cb-43b0-baec-358bc9f9bc08" x="426.13" y="0">, </tspan></text><text class="b8dbdf14-2cfc-4f91-9fee-c1cafc241363" transform="translate(693 719.26)"><tspan class="575ea587-e4a8-4e06-9eec-9f6634049053">состоящей из центрально</tspan><tspan class="75555352-eeaf-4d2c-9016-fbdaeb154515" x="248.16" y="0">г</tspan><tspan class="575ea587-e4a8-4e06-9eec-9f6634049053" x="256.38" y="0">о аппарата </tspan><tspan class="73247fa9-4e38-4ee7-82b1-8d554c78678f" x="366.44" y="0">к</tspan><tspan class="e7ead294-04bd-421a-96f2-b8d98cc8200c" x="376.16" y="0">омпани</tspan><tspan x="447.28" y="0">и </tspan></text><text class="b8dbdf14-2cfc-4f91-9fee-c1cafc241363" transform="translate(693 745.26)"><tspan class="575ea587-e4a8-4e06-9eec-9f6634049053">и 14 филиалов в различных регионах России</tspan><tspan x="427.55" y="0">, </tspan></text><text class="47081a30-738b-4eb8-8a8e-0b070d586eb0" transform="translate(693 771.26)">был обеспечен доступ к программным продукта<tspan class="f043a700-9b14-4b47-ace7-73d3123ed355" x="458.47" y="0">м </tspan></text><text class="b8dbdf14-2cfc-4f91-9fee-c1cafc241363" transform="translate(693 797.26)"><tspan class="575ea587-e4a8-4e06-9eec-9f6634049053">и ресурсам, а также предоставлена </tspan><tspan class="73247fa9-4e38-4ee7-82b1-8d554c78678f" x="347.18" y="0">к</tspan><tspan class="e7ead294-04bd-421a-96f2-b8d98cc8200c" x="356.9" y="0">омпьютерна</tspan><tspan x="473.75" y="0">я </tspan></text><text class="b8dbdf14-2cfc-4f91-9fee-c1cafc241363" transform="translate(693 823.26)"><tspan class="575ea587-e4a8-4e06-9eec-9f6634049053">техника тем, у </tspan><tspan class="20a6e6b8-59eb-44c2-9b07-0df323e1597d" x="142.34" y="0">к</tspan><tspan class="e7ead294-04bd-421a-96f2-b8d98cc8200c" x="152.06" y="0">о</tspan><tspan class="095b146d-bf98-4efd-aec2-6bd8fee09533" x="163.32" y="0">г</tspan><tspan class="e7ead294-04bd-421a-96f2-b8d98cc8200c" x="171.54" y="0">о ее дома нет. Для специалистов</tspan><tspan x="486.39" y="0">, </tspan></text><text class="b8dbdf14-2cfc-4f91-9fee-c1cafc241363" transform="translate(693 849.26)"><tspan class="575ea587-e4a8-4e06-9eec-9f6634049053">прод</tspan><tspan class="82e7fa80-1fea-4737-9371-5b27164dd5ec" x="46.22" y="0">о</tspan><tspan class="575ea587-e4a8-4e06-9eec-9f6634049053" x="57.28" y="0">лживших работать в офисах, была внедрен</tspan><tspan x="468.71" y="0">а </tspan></text><text class="47081a30-738b-4eb8-8a8e-0b070d586eb0" transform="translate(693 875.26)">система гиб<tspan class="73247fa9-4e38-4ee7-82b1-8d554c78678f" x="116.1" y="0">к</tspan><tspan x="125.82" y="0">о</tspan><tspan class="75555352-eeaf-4d2c-9016-fbdaeb154515" x="137.08" y="0">г</tspan><tspan x="145.3" y="0">о графика прибытия на работ</tspan><tspan class="2b4d7c3f-a4de-4e86-a84f-911ce3ca03d0" x="426.08" y="0">у</tspan><tspan class="73d15aa9-bf42-4e09-8fc0-ef17f48d64c9" x="435.55" y="0">. Во все</tspan><tspan class="f043a700-9b14-4b47-ace7-73d3123ed355" x="508.13" y="0">х </tspan></text><text class="b8dbdf14-2cfc-4f91-9fee-c1cafc241363" transform="translate(693 901.26)"><tspan class="575ea587-e4a8-4e06-9eec-9f6634049053">зданиях </tspan><tspan class="20a6e6b8-59eb-44c2-9b07-0df323e1597d" x="82.62" y="0">к</tspan><tspan class="e7ead294-04bd-421a-96f2-b8d98cc8200c" x="92.34" y="0">омпании проводился температурны</tspan><tspan x="436.41" y="0">й </tspan></text><text class="5ba0af41-dfa3-4a22-8a41-152f8e2a3eef" transform="translate(693 927.26)">к<tspan class="575ea587-e4a8-4e06-9eec-9f6634049053" x="9.72" y="0">онтр</tspan><tspan class="e34a31b7-6b54-426c-903f-4da2f24a489c" x="54.76" y="0">о</tspan><tspan class="575ea587-e4a8-4e06-9eec-9f6634049053" x="65.82" y="0">ль. В местах обще</tspan><tspan class="75555352-eeaf-4d2c-9016-fbdaeb154515" x="236.82" y="0">г</tspan><tspan class="575ea587-e4a8-4e06-9eec-9f6634049053" x="245.04" y="0">о п</tspan><tspan class="ab93bd3e-d6f4-4b34-add3-fefefaf84780" x="273.18" y="0">о</tspan><tspan class="e7ead294-04bd-421a-96f2-b8d98cc8200c" x="284.24" y="0">льзования </tspan><tspan class="51562543-ca83-4de9-937d-2a64f28068f3" x="387.92" y="0">у</tspan><tspan class="73d15aa9-bf42-4e09-8fc0-ef17f48d64c9" x="398.28" y="0">становлен</tspan><tspan class="f043a700-9b14-4b47-ace7-73d3123ed355" x="498.53" y="0">ы </tspan></text><text class="b8dbdf14-2cfc-4f91-9fee-c1cafc241363" transform="translate(693 953.26)"><tspan class="e7ead294-04bd-421a-96f2-b8d98cc8200c">резервуары с антисептиками и дезинфици</tspan><tspan class="01bfe326-3db3-4fe9-879a-e373923526de" x="410.05" y="0">р</tspan><tspan class="e7ead294-04bd-421a-96f2-b8d98cc8200c" x="421.39" y="0">ующим</tspan><tspan x="488.83" y="0">и </tspan></text><text class="b8dbdf14-2cfc-4f91-9fee-c1cafc241363" transform="translate(693 979.26)"><tspan class="575ea587-e4a8-4e06-9eec-9f6634049053">средствами. Организовано рег</tspan><tspan class="87005da7-9e40-414e-8ace-90d8772abd65" x="294.4" y="0">у</tspan><tspan class="e7ead294-04bd-421a-96f2-b8d98cc8200c" x="304.52" y="0">лярное бесплатно</tspan><tspan x="477.95" y="0">е </tspan></text><text class="b8dbdf14-2cfc-4f91-9fee-c1cafc241363" transform="translate(1287 589.26)"><tspan class="73d15aa9-bf42-4e09-8fc0-ef17f48d64c9">тестирование на C</tspan><tspan class="13941f51-84c2-4ce1-a2c7-31ea4d9459c4" x="180.22" y="0">O</tspan><tspan class="73d15aa9-bf42-4e09-8fc0-ef17f48d64c9" x="193.2" y="0">VID</tspan><tspan class="8cb03971-a9a0-412b-9f4e-9e6bc1daa656" x="224.82" y="0">-</tspan><tspan class="73d15aa9-bf42-4e09-8fc0-ef17f48d64c9" x="233.86" y="0">19 методом ПЦР. Помимо это</tspan><tspan class="5804bef0-b776-4acb-82c0-cb42d7876fa7" x="509.97" y="0">г</tspan><tspan class="190ae442-61f1-4ff4-9ac6-af8bf784899f" x="518.19" y="0">о</tspan><tspan x="529.23" y="0">, </tspan></text><text class="b8dbdf14-2cfc-4f91-9fee-c1cafc241363" transform="translate(1287 615.26)"><tspan class="73d15aa9-bf42-4e09-8fc0-ef17f48d64c9">мы реализовали про</tspan><tspan class="59d4b7b1-cf3d-4010-9310-ee6c41933f57" x="194.98" y="0">г</tspan><tspan class="e7ead294-04bd-421a-96f2-b8d98cc8200c" x="203.42" y="0">рамму социальной поддержк</tspan><tspan x="481.35" y="0">и </tspan></text><text class="b8dbdf14-2cfc-4f91-9fee-c1cafc241363" transform="translate(1287 641.26)"><tspan class="e7ead294-04bd-421a-96f2-b8d98cc8200c">работни</tspan><tspan class="73247fa9-4e38-4ee7-82b1-8d554c78678f" x="79.32" y="0">к</tspan><tspan class="e7ead294-04bd-421a-96f2-b8d98cc8200c" x="89.04" y="0">ов. Порядка 7</tspan><tspan x="216.68" y="0">0</tspan></text><text class="b8dbdf14-2cfc-4f91-9fee-c1cafc241363" transform="translate(1516.1 641.26)"> </text><text class="b8dbdf14-2cfc-4f91-9fee-c1cafc241363" transform="translate(1517.04 641.26)"><tspan class="e7ead294-04bd-421a-96f2-b8d98cc8200c">% сот</tspan><tspan class="01bfe326-3db3-4fe9-879a-e373923526de" x="52.3" y="0">р</tspan><tspan class="e7ead294-04bd-421a-96f2-b8d98cc8200c" x="63.64" y="0">удни</tspan><tspan class="a0fa18e9-fd3e-40ca-b315-b6f74ae7cedc" x="109.98" y="0">к</tspan><tspan class="e7ead294-04bd-421a-96f2-b8d98cc8200c" x="119.72" y="0">ов п</tspan><tspan class="ab93bd3e-d6f4-4b34-add3-fefefaf84780" x="158.8" y="0">о</tspan><tspan class="e7ead294-04bd-421a-96f2-b8d98cc8200c" x="169.86" y="0">лучил</tspan><tspan x="225.84" y="0">и </tspan></text><text class="b8dbdf14-2cfc-4f91-9fee-c1cafc241363" transform="translate(1287 667.26)"><tspan class="e7ead294-04bd-421a-96f2-b8d98cc8200c">единовременную дене</tspan><tspan class="59d4b7b1-cf3d-4010-9310-ee6c41933f57" x="217.04" y="0">ж</tspan><tspan class="e7ead294-04bd-421a-96f2-b8d98cc8200c" x="232.1" y="0">ную выплату в размере 3</tspan><tspan class="bb8697fc-718d-4aaf-97f0-438b280f5247" x="472.07" y="0">0</tspan><tspan class="e7ead294-04bd-421a-96f2-b8d98cc8200c" x="484.47" y="0" xml:space="preserve"> тыс</tspan><tspan x="523.87" y="0">. </tspan></text><text class="b8dbdf14-2cfc-4f91-9fee-c1cafc241363" transform="translate(1287 693.26)"><tspan class="01bfe326-3db3-4fe9-879a-e373923526de">р</tspan><tspan class="e7ead294-04bd-421a-96f2-b8d98cc8200c" x="11.34" y="0">ублей на ч</tspan><tspan x="111.82" y="0">е</tspan><tspan class="e7ead294-04bd-421a-96f2-b8d98cc8200c" x="122.74" y="0">ловека</tspan><tspan x="188.32" y="0">.</tspan></text><text class="b8dbdf14-2cfc-4f91-9fee-c1cafc241363" transform="translate(1287 745.26)">Оператор также бережно относится к ок<tspan class="cc48a3df-810a-4d91-a871-57b5459183c6" x="385.34" y="0">р</tspan><tspan x="396.58" y="0">ужающей </tspan></text><text class="b8dbdf14-2cfc-4f91-9fee-c1cafc241363" transform="translate(1287 771.26)">среде и соблюдает <tspan class="e2fba571-a1ee-44c2-85a6-9f6ebde0fd77" x="185.9" y="0">у</tspan><tspan class="f043a700-9b14-4b47-ace7-73d3123ed355" x="196.14" y="0">становленные э</tspan><tspan class="40fed88a-5e1b-4810-b16f-d87f7ac765d2" x="347.4" y="0">к</tspan><tspan class="8b4188c5-c763-4f3b-b696-b019ca17b4c5" x="357.02" y="0">о</tspan><tspan x="367.98" y="0">логические </tspan></text><text class="b8dbdf14-2cfc-4f91-9fee-c1cafc241363" transform="translate(1287 797.26)">стандарты. В 2020 <tspan class="b44ec9af-ec6e-40f0-91dd-ea4715f51aaa" x="180.62" y="0">г</tspan><tspan x="188.74" y="0">оду завершилась реновация </tspan></text><text class="b8dbdf14-2cfc-4f91-9fee-c1cafc241363" transform="translate(1287 823.26)">промывочно-пропарочных станций <tspan class="ef138a4c-9211-461a-bd6d-f6103dbdcd74" x="340.92" y="0">(</tspan><tspan class="09823622-54cb-43b0-baec-358bc9f9bc08" x="347.06" y="0">ППС) </tspan></text><text class="b8dbdf14-2cfc-4f91-9fee-c1cafc241363" transform="translate(1287 849.26)">в Красноярс<tspan class="40fed88a-5e1b-4810-b16f-d87f7ac765d2" x="117.14" y="0">к</tspan><tspan x="126.76" y="0">ом и Пермс</tspan><tspan class="60802e9e-e471-4376-992f-cacc48ae5cc5" x="233.98" y="0">к</tspan><tspan x="243.62" y="0">ом краях, а также стартовал </tspan></text><text class="b8dbdf14-2cfc-4f91-9fee-c1cafc241363" transform="translate(1287 875.26)">второй этап ре<tspan class="40fed88a-5e1b-4810-b16f-d87f7ac765d2" x="142.4" y="0">к</tspan><tspan x="152.02" y="0">онст</tspan><tspan class="a0538b9e-5af5-4dec-ba97-1dace1077396" x="195.76" y="0">р</tspan><tspan x="207.02" y="0">укции ППС </tspan><tspan class="f1aaf967-a608-4b01-a5a5-13f7c94e7499" x="314.92" y="0">К</tspan><tspan x="326.6" y="0">омбинатская в Омс</tspan><tspan class="40fed88a-5e1b-4810-b16f-d87f7ac765d2" x="507.21" y="0">к</tspan><tspan x="516.83" y="0">е. </tspan></text><text class="b8dbdf14-2cfc-4f91-9fee-c1cafc241363" transform="translate(1287 901.26)">Программы модернизации площадок предп<tspan class="8b4188c5-c763-4f3b-b696-b019ca17b4c5" x="411.88" y="0">о</tspan><tspan x="422.83" y="0">лагают </tspan></text><text class="b8dbdf14-2cfc-4f91-9fee-c1cafc241363" transform="translate(1287 927.26)">снижение воздействия на ок<tspan class="cc48a3df-810a-4d91-a871-57b5459183c6" x="274.62" y="0">р</tspan><tspan x="285.86" y="0">ужаю</tspan><tspan class="ab93bd3e-d6f4-4b34-add3-fefefaf84780" x="337.4" y="0">щ</tspan><tspan class="09823622-54cb-43b0-baec-358bc9f9bc08" x="353.2" y="0">ую среду за счет </tspan></text><text class="b8dbdf14-2cfc-4f91-9fee-c1cafc241363" transform="translate(1287 953.26)"><tspan class="b2ca6698-dfa5-49fb-b54a-9c0327dadab9">у</tspan><tspan x="10.02" y="0">лучшения техн</tspan><tspan class="8b4188c5-c763-4f3b-b696-b019ca17b4c5" x="151.18" y="0">о</tspan><tspan x="162.14" y="0">логии пропарки и исп</tspan><tspan class="8b4188c5-c763-4f3b-b696-b019ca17b4c5" x="368.48" y="0">о</tspan><tspan x="379.44" y="0">льзования </tspan></text><text class="b8dbdf14-2cfc-4f91-9fee-c1cafc241363" transform="translate(1287 979.26)">современно<tspan class="f5250888-e268-4dac-aecb-afce0deb93b0" x="114.46" y="0">г</tspan><tspan x="122.58" y="0">о энер</tspan><tspan class="51562543-ca83-4de9-937d-2a64f28068f3" x="184.08" y="0">г</tspan><tspan x="192.22" y="0">оэффективно</tspan><tspan class="b44ec9af-ec6e-40f0-91dd-ea4715f51aaa" x="318.08" y="0">г</tspan><tspan x="326.2" y="0">о обо</tspan><tspan class="a0538b9e-5af5-4dec-ba97-1dace1077396" x="376.18" y="0">р</tspan><tspan x="387.44" y="0">удования.</tspan></text><text class="b400c130-e787-408a-9f94-02393ca17d6f" transform="translate(97.5 844)">В 2020 <tspan class="8b4188c5-c763-4f3b-b696-b019ca17b4c5" x="103.63" y="0">Г</tspan><tspan class="ef1d7166-9e80-4e9a-b848-f0c4e3babad1" x="118.58" y="0">ОДУ ОПЕРАТОР </tspan></text><text class="b400c130-e787-408a-9f94-02393ca17d6f" transform="translate(97.5 877.99)">ОДНИМ ИЗ ПЕРВЫХ ПЕРЕВЕЛ </text><text class="b400c130-e787-408a-9f94-02393ca17d6f" transform="translate(97.5 911.98)">Б<tspan class="45d7767e-22ff-4eaf-8990-f081a4919386" x="18.17" y="0">О</tspan><tspan x="37.41" y="0">ЛЬШУЮ ЧАСТЬ РАБОТНИ</tspan><tspan class="a0340c28-085c-4e16-a78b-5b8714fa896c" x="387.49" y="0">К</tspan><tspan x="405.29" y="0">ОВ </tspan></text><text class="b400c130-e787-408a-9f94-02393ca17d6f" transform="translate(97.5 945.98)">НА ДИСТАНЦИОННЫЙ РЕЖИМ </text><text class="b400c130-e787-408a-9f94-02393ca17d6f" transform="translate(97.5 979.97)">РАБОТЫ</text><g class="5e7cca77-d7f7-41be-b09a-dc26fda5ad13"><path class="3240e38d-044e-4a69-a05e-3d8a948ef223" d="M75.4,827.25a6.91,6.91,0,0,0-5.9-2.85,7,7,0,0,0-5.45,2.25,7.54,7.54,0,0,0-2,5.25,7.67,7.67,0,0,0,2,5.25,6.41,6.41,0,0,0,5,2.25,7.56,7.56,0,0,0,1.8-.2,2.35,2.35,0,0,0,.7-.3,7,7,0,0,1-2.65,4.75A7.73,7.73,0,0,1,64,845.4v3.5a14.63,14.63,0,0,0,4.85-.85,11.78,11.78,0,0,0,4.35-2.7,14,14,0,0,0,3.1-4.7,17.32,17.32,0,0,0,1.2-6.75,10.91,10.91,0,0,0-2.1-6.65m-20,0a6.91,6.91,0,0,0-5.9-2.85,7,7,0,0,0-5.45,2.25,7.54,7.54,0,0,0-2,5.25,7.67,7.67,0,0,0,2,5.25,6.41,6.41,0,0,0,5,2.25,7.56,7.56,0,0,0,1.8-.2,2.35,2.35,0,0,0,.7-.3,7,7,0,0,1-2.65,4.75A7.73,7.73,0,0,1,44,845.4v3.5a14.63,14.63,0,0,0,4.85-.85,11.78,11.78,0,0,0,4.35-2.7,14,14,0,0,0,3.1-4.7,17.32,17.32,0,0,0,1.2-6.75,10.91,10.91,0,0,0-2.1-6.65"/></g><text class="ebdcf119-ed6c-4720-8319-90ad8e2952be" transform="translate(693 118.7)">Порядка 70</text><text class="ebdcf119-ed6c-4720-8319-90ad8e2952be" transform="translate(807.38 118.7)"> </text><text class="ebdcf119-ed6c-4720-8319-90ad8e2952be" transform="translate(808.22 118.7)">% сот<tspan class="20a6e6b8-59eb-44c2-9b07-0df323e1597d" x="54.18" y="0">р</tspan><tspan x="66.06" y="0">удни</tspan><tspan class="87005da7-9e40-414e-8ace-90d8772abd65" x="115.04" y="0">к</tspan><tspan x="126.04" y="0">ов п</tspan><tspan class="570b7131-7b73-4cad-b1a9-e3d5e2cf4e3a" x="166.4" y="0">о</tspan><tspan x="178.1" y="0">лучили единовременную денежную </tspan></text><text class="ebdcf119-ed6c-4720-8319-90ad8e2952be" transform="translate(693 144.7)">выплату в размере 30 тыс. <tspan class="de682bbc-70c3-41a2-9865-5c8e6ee59005" x="271.9" y="0">р</tspan><tspan x="283.76" y="0">ублей на ч</tspan><tspan class="b12597a3-08d9-43ca-b2fc-73f18c61c48a" x="387.9" y="0">е</tspan><tspan x="399.38" y="0">ловека</tspan></text><g class="5e7cca77-d7f7-41be-b09a-dc26fda5ad13"><path class="3240e38d-044e-4a69-a05e-3d8a948ef223" d="M1602,210.88a83.75,83.75,0,0,0-31.33,18.82q-13.19,12.65-20.47,31.74t-7.28,44.93q0,25.83,7.28,44.92T1570.63,383A83.62,83.62,0,0,0,1602,401.85a131.3,131.3,0,0,0,79.68,0A83.55,83.55,0,0,0,1713,383q13.18-12.63,20.47-31.74t7.28-44.92q0-25.83-7.28-44.93T1713,229.7a83.68,83.68,0,0,0-31.33-18.82,131.51,131.51,0,0,0-79.68,0m60.72,17.59a47.79,47.79,0,0,1,18,14.42q7.83,9.9,12.64,25.56t4.81,37.92q0,22.26-4.81,37.92t-12.64,25.55a47.73,47.73,0,0,1-18,14.43,50.39,50.39,0,0,1-41.76,0,47.73,47.73,0,0,1-18-14.43q-7.83-9.88-12.64-25.55t-4.81-37.92q0-22.26,4.81-37.92t12.64-25.56a47.79,47.79,0,0,1,18-14.42,50.28,50.28,0,0,1,41.76,0M1385.3,210.88A83.75,83.75,0,0,0,1354,229.7q-13.18,12.65-20.47,31.74t-7.28,44.93q0,25.83,7.28,44.92T1354,383a83.62,83.62,0,0,0,31.33,18.82,131.3,131.3,0,0,0,79.68,0A83.62,83.62,0,0,0,1496.31,383q13.18-12.63,20.47-31.74t7.28-44.92q0-25.83-7.28-44.93t-20.47-31.74A83.75,83.75,0,0,0,1465,210.88a131.51,131.51,0,0,0-79.68,0M1446,228.47a47.79,47.79,0,0,1,18,14.42q7.83,9.9,12.64,25.56t4.81,37.92q0,22.26-4.81,37.92T1464,369.84a47.73,47.73,0,0,1-18,14.43,50.39,50.39,0,0,1-41.76,0,47.73,47.73,0,0,1-18-14.43q-7.83-9.88-12.64-25.55t-4.81-37.92q0-22.26,4.81-37.92t12.64-25.56a47.79,47.79,0,0,1,18-14.42,50.28,50.28,0,0,1,41.76,0m-277.38-17.59a83.68,83.68,0,0,0-31.33,18.82q-13.18,12.65-20.47,31.74t-7.28,44.93q0,25.83,7.28,44.92T1137.31,383a83.55,83.55,0,0,0,31.33,18.82,131.3,131.3,0,0,0,79.68,0A83.62,83.62,0,0,0,1279.65,383q13.18-12.63,20.47-31.74t7.28-44.92q0-25.83-7.28-44.93t-20.47-31.74a83.75,83.75,0,0,0-31.33-18.82,131.51,131.51,0,0,0-79.68,0m60.72,17.59a47.79,47.79,0,0,1,18,14.42q7.83,9.9,12.64,25.56t4.81,37.92q0,22.26-4.81,37.92t-12.64,25.55a47.73,47.73,0,0,1-18,14.43,50.39,50.39,0,0,1-41.76,0,47.73,47.73,0,0,1-18-14.43q-7.83-9.88-12.64-25.55t-4.81-37.92q0-22.26,4.81-37.92t12.64-25.56a47.79,47.79,0,0,1,18-14.42,50.28,50.28,0,0,1,41.76,0M952,210.88a83.6,83.6,0,0,0-31.33,18.82q-13.18,12.65-20.47,31.74t-7.28,44.93q0,25.83,7.28,44.92T920.65,383A83.47,83.47,0,0,0,952,401.85a131.3,131.3,0,0,0,79.68,0A83.62,83.62,0,0,0,1063,383q13.18-12.63,20.47-31.74t7.28-44.92q0-25.83-7.28-44.93T1063,229.7a83.75,83.75,0,0,0-31.33-18.82,131.51,131.51,0,0,0-79.68,0m60.72,17.59a47.79,47.79,0,0,1,18,14.42q7.83,9.9,12.64,25.56t4.81,37.92q0,22.26-4.81,37.92t-12.64,25.55a47.73,47.73,0,0,1-18,14.43,50.41,50.41,0,0,1-41.77,0,47.77,47.77,0,0,1-18-14.43q-7.83-9.88-12.64-25.55t-4.81-37.92q0-22.26,4.81-37.92t12.64-25.56a47.84,47.84,0,0,1,18-14.42,50.31,50.31,0,0,1,41.77,0m-199.62,6q11.8,9.21,11.81,23.77,0,35.73-39.84,35.72H734.22v20.61h56.33q21.71,0,32.15,8.93T833.14,349q0,16.49-13,27.48t-41.91,11A109.82,109.82,0,0,1,740,381q-17.6-6.45-33.25-21L693,376.44q15.66,14.56,38.33,23.08t49.6,8.52q24.74,0,42.59-4.4t29.54-11.95q11.67-7.56,17.17-17.86a46.34,46.34,0,0,0,5.5-22.12q0-19.79-11.68-32t-32.29-17.44q18.69-6.33,27.21-17.73t8.51-29a39.63,39.63,0,0,0-5.35-20.05q-5.37-9.34-16.08-16.22T819.4,208.55q-15.95-3.86-37.1-3.85-26.92,0-48.22,7.69a117.16,117.16,0,0,0-37,21.16L709.49,250q15.66-13.46,32.56-19.1a118.24,118.24,0,0,1,37.51-5.63q21.69,0,33.52,9.2"/><path class="8561ff20-b259-44b8-a5f6-fc7e69ab2b97" d="M1811,204.7H1711a20,20,0,0,0,0,40h100a20,20,0,0,0,0-40"/></g><text class="b400c130-e787-408a-9f94-02393ca17d6f" transform="translate(1711.04 231.98)"><tspan class="73247fa9-4e38-4ee7-82b1-8d554c78678f">р</tspan><tspan x="16.63" y="0">ублей</tspan></text><text class="b8dbdf14-2cfc-4f91-9fee-c1cafc241363" transform="translate(39.7 57)">16</text><g class="5e7cca77-d7f7-41be-b09a-dc26fda5ad13"><text class="b8dbdf14-2cfc-4f91-9fee-c1cafc241363" transform="translate(99 57)">О <tspan class="7d455066-2380-4e4f-8343-94ebbce9dbbf" x="18.4" y="0">к</tspan><tspan x="28.04" y="0">омпании</tspan></text></g></svg>