<?xml-stylesheet type="text/css" href="/pgk/main.css" ?><svg xmlns="http://www.w3.org/2000/svg" xmlns:xlink="http://www.w3.org/1999/xlink" id="b70c979c-fa02-43f8-8b6e-78fba767e46d" data-name="Layer 1" viewBox="0 0 1920 1080"><defs><style>.\31 e43b892-ddca-4015-a32e-aae2923468e7,.\34 49abb44-fced-4cc3-97eb-8064f97aac94,.\37 51db29e-f03d-44ed-ad5d-c3f0bac101bf,.\37 727a012-c844-4d3e-b182-a0c901e08d03,.\38 95d0c6e-04e7-45c1-a754-c682d26df619,.\39 211f7eb-e437-4575-91c3-e603906bf48e,.cf6636aa-9490-47ff-bc42-3e1db95ea2c5,.fb6fd965-6af4-4c39-ac57-b117a76d7c87,.fc03235d-503c-4874-bfca-576c93a859c5{fill:none;}.\33 74492ac-f321-4efa-b0e6-3a834a166355{clip-path:url(#d432577b-7260-4554-833e-694130283423);}.\36 20eb150-83a9-48d8-be96-09ab182a6a18{fill:#fff;}.a587f1f3-3a34-44ab-a3d2-f52a9748e9f1{font-size:28px;}.a587f1f3-3a34-44ab-a3d2-f52a9748e9f1,.b6205cb5-fd54-4b62-a664-1cb855aab286{font-family:Rubik-Medium, Rubik;}.\37 e9f007e-f25c-4715-a92f-5b2f0acb0d10{letter-spacing:-0.02em;}.b54ede20-29d9-4b96-b1d7-655c62e4f88e{letter-spacing:0em;}.\31 6331cf3-2d4d-440b-a0b1-98ff54d8a905{letter-spacing:0em;}.a1327a49-21b2-4af3-8850-0403b170f474{letter-spacing:-0.01em;}.\32 67b9396-2b60-4084-b876-c58a3d72c579,.\32 c670cff-b6f2-47a9-9a73-89c017827d97,.\39 a2af91b-5d15-4e42-a67a-067731c92f07,.b6205cb5-fd54-4b62-a664-1cb855aab286{font-size:20px;}.\32 67b9396-2b60-4084-b876-c58a3d72c579,.\32 c670cff-b6f2-47a9-9a73-89c017827d97,.\39 a2af91b-5d15-4e42-a67a-067731c92f07{font-family:Rubik-Light, Rubik;}.\35 0e4b2c2-3307-4098-af10-91a0ade912c9{letter-spacing:-0.02em;}.\38 a92ecc9-1b50-439e-b35a-a381b6f3dee5{letter-spacing:0em;}.\32 9a37e57-12e2-4e70-802f-5a3c8e330f5c{letter-spacing:-0.01em;}.\39 fac913c-eee0-4e96-92c2-65993293d569{letter-spacing:0em;}.a55f1c94-aca8-4b69-95ce-778cba868869{letter-spacing:-0.03em;}.bb2cf33a-9670-432a-9ab5-d51eb1327638{letter-spacing:0em;}.a85366d4-25e9-4981-bf64-d6b83e2ec752{letter-spacing:-0.02em;}.\30 713db62-e5cb-459c-b3d9-ca86a2916732{letter-spacing:-0.03em;}.\36 129e17f-3b28-40cf-8336-7721728b33b2{letter-spacing:-0.02em;}.\31 e426bec-67f0-489c-9972-139f4fc2ce32{letter-spacing:-0.03em;}.ba9f660c-ae95-48c7-a6e0-a0af6627c49a{letter-spacing:-0.02em;}.df122e8e-d7d0-4995-91bd-149b804d8c83{letter-spacing:0em;}.\33 2683597-0e0f-45dc-adf3-fe1ce1cabd07{letter-spacing:0em;}.\34 5d89002-55fe-481b-8198-093550e389b3{letter-spacing:-0.02em;}.fc03235d-503c-4874-bfca-576c93a859c5{stroke:#fff;}.\34 49abb44-fced-4cc3-97eb-8064f97aac94,.\37 51db29e-f03d-44ed-ad5d-c3f0bac101bf,.\37 727a012-c844-4d3e-b182-a0c901e08d03,.cf6636aa-9490-47ff-bc42-3e1db95ea2c5,.fb6fd965-6af4-4c39-ac57-b117a76d7c87,.fc03235d-503c-4874-bfca-576c93a859c5{stroke-miterlimit:10;}.\34 49abb44-fced-4cc3-97eb-8064f97aac94,.\37 51db29e-f03d-44ed-ad5d-c3f0bac101bf,.\37 727a012-c844-4d3e-b182-a0c901e08d03,.cf6636aa-9490-47ff-bc42-3e1db95ea2c5,.fb6fd965-6af4-4c39-ac57-b117a76d7c87{stroke:#e6e7e8;}.\37 51db29e-f03d-44ed-ad5d-c3f0bac101bf{stroke-dasharray:4.01 4.01;}.fb6fd965-6af4-4c39-ac57-b117a76d7c87{stroke-dasharray:3.96 3.96;}.\37 727a012-c844-4d3e-b182-a0c901e08d03{stroke-dasharray:4.04 4.04;}.cf6636aa-9490-47ff-bc42-3e1db95ea2c5{stroke-dasharray:4.06 4.06;}.\31 6950efd-3393-4bc5-9e64-808b52b97383{letter-spacing:-0.01em;}.\39 308a9a4-7aa1-41b9-bb55-e11a63915417{letter-spacing:-0.01em;}.fc219406-2ff0-4de3-b307-37d693ff1c97{letter-spacing:-0.01em;}.ba20943e-ecd7-4bbd-85d2-36171c70c674{letter-spacing:-0.01em;}.\38 bb8c432-7945-457f-a9ea-9a09c3301409{letter-spacing:-0.03em;}.c96d4b52-5c60-4119-a756-77e37a4c426a{letter-spacing:-0.03em;}.\38 95d0c6e-04e7-45c1-a754-c682d26df619{stroke:#8c8f94;}.\38 95d0c6e-04e7-45c1-a754-c682d26df619,.\39 211f7eb-e437-4575-91c3-e603906bf48e{stroke-width:2px;}.\37 b1bbe04-3931-4bcd-942b-cbcf00fdf4c6{letter-spacing:-0.01em;}.\39 6fb0cf3-8532-45ee-a723-6b636f3ea784{letter-spacing:-0.01em;}.\38 26853eb-2862-4378-a807-52efffe3791c{letter-spacing:-0.02em;}.\32 c670cff-b6f2-47a9-9a73-89c017827d97,.c9f023ea-9308-4277-b1c8-7bbd4b056ad2{letter-spacing:-0.01em;}.\33 71c2c39-01c4-417b-af1e-a8df65b6fe37{letter-spacing:0em;}.\39 211f7eb-e437-4575-91c3-e603906bf48e{stroke:#faaa2d;}.b3cb87e2-b4db-4573-bf40-cb6486149235{letter-spacing:-0.04em;}.\38 d457d45-91d9-44be-a96e-9409e71b0eb2{letter-spacing:-0.01em;}.e1b2dc31-847a-4ae1-abc3-f00bdd0d58c1{letter-spacing:-0.07em;}.\31 55d6920-c955-463f-a223-5d49686c3485{letter-spacing:-0.07em;}.\30 c8d10a7-c841-4d23-884c-2827486ec317{letter-spacing:-0.05em;}.\35 47552d6-cf76-4291-9229-278db7c41f59{letter-spacing:-0.06em;}.\38 a6b8346-bb5c-4019-a6e3-7054d51f664a{letter-spacing:-0.01em;}.\34 abadf65-7bb1-4eee-8e9a-d065a5fcbc1e{letter-spacing:-0.03em;}.\35 a5dbe91-6c7d-420f-8a74-33da7b85d333{letter-spacing:-0.02em;}.\32 67b9396-2b60-4084-b876-c58a3d72c579{letter-spacing:-0.04em;}.\37 ebdf9ab-11ed-4c30-8a12-3c36aa26a629{letter-spacing:0em;}.\30 b809539-6f5b-42c4-b702-a10d95a88056{letter-spacing:-0.07em;}.\34 5a5b463-746f-49e2-bc5e-bfdbe2171d48{letter-spacing:-0.02em;}.\33 a0bfe1c-62e5-4ea8-ac62-006951045e25{letter-spacing:-0.04em;}.\39 f736d14-c093-45c8-a8a8-b858fbfb220d{letter-spacing:-0.03em;}.\38 b600703-1205-459e-9ad9-b4c40e70cb9f{letter-spacing:-0.01em;}.\38 cc71c4c-7a75-431e-9300-755dfb7303b5{letter-spacing:-0.02em;}.\36 aaf5d3e-b0e0-4276-a490-86ee5e6d3ea9{letter-spacing:-0.03em;}.\35 3f9280e-cb39-4314-9c1e-d9d68f4864d6{letter-spacing:-0.07em;}.\30 3a89dcc-aba2-4be2-807f-759f45235afc{letter-spacing:-0.03em;}.\35 c4fca05-3055-4c07-acae-4e88febb5cb2{letter-spacing:-0.01em;}.cf7f6e04-12e3-49b6-ad60-12e37e06fe84{letter-spacing:-0.07em;}.\37 a19d1e5-c712-4e7b-adbb-40412fd2ae59{fill:#faaa2d;}.\35 6d4b8a6-3848-472d-b053-d0d04b2b6baf{fill:#e8e8ed;}.\31 22dd593-25a1-4e84-88b4-d559067fe6f0{letter-spacing:-0.02em;}.c15e87c0-8366-42b2-8594-f62a8459dfc8{letter-spacing:-0.01em;}.\38 67f9ad2-9f97-4a58-af3d-69131012c501{letter-spacing:-0.01em;}</style><clipPath id="d432577b-7260-4554-833e-694130283423"><rect class="1e43b892-ddca-4015-a32e-aae2923468e7" width="1920" height="1080"/></clipPath></defs><title>24</title><g class="374492ac-f321-4efa-b0e6-3a834a166355"><rect class="620eb150-83a9-48d8-be96-09ab182a6a18" width="1920" height="1080"/></g><text class="a587f1f3-3a34-44ab-a3d2-f52a9748e9f1" transform="translate(99 126.18)">Обзор рынка г<tspan class="7e9f007e-f25c-4715-a92f-5b2f0acb0d10" x="198.49" y="0">р</tspan><tspan class="b54ede20-29d9-4b96-b1d7-655c62e4f88e" x="215.09" y="0">узовых </tspan></text><text class="a587f1f3-3a34-44ab-a3d2-f52a9748e9f1" transform="translate(99 160.17)">ж<tspan class="16331cf3-2d4d-440b-a0b1-98ff54d8a905" x="24.05" y="0">е</tspan><tspan x="40.12" y="0">лезнодорожных перевозок </tspan></text><text class="a587f1f3-3a34-44ab-a3d2-f52a9748e9f1" transform="translate(99 194.16)">в 2020 <tspan class="a1327a49-21b2-4af3-8850-0403b170f474" x="100.77" y="0">г</tspan><tspan x="113.01" y="0">оду</tspan></text><text class="9a2af91b-5d15-4e42-a67a-067731c92f07" transform="translate(99 272.88)">Объем пог<tspan class="50e4b2c2-3307-4098-af10-91a0ade912c9" x="95.76" y="0">р</tspan><tspan x="107" y="0">узки ж</tspan><tspan class="8a92ecc9-1b50-439e-b35a-a381b6f3dee5" x="169.6" y="0">е</tspan><tspan x="180.46" y="0">лезнодорожным </tspan></text><text class="9a2af91b-5d15-4e42-a67a-067731c92f07" transform="translate(99 298.88)">транспортом на сети ОАО «РЖД» </text><text class="9a2af91b-5d15-4e42-a67a-067731c92f07" transform="translate(99 324.88)">по итогам 2020 <tspan class="29a37e57-12e2-4e70-802f-5a3c8e330f5c" x="150.58" y="0">г</tspan><tspan class="9fac913c-eee0-4e96-92c2-65993293d569" x="158.7" y="0">ода сократился на 2</tspan><tspan class="a55f1c94-aca8-4b69-95ce-778cba868869" x="349.94" y="0">,</tspan><tspan x="354.08" y="0">7</tspan></text><text class="9a2af91b-5d15-4e42-a67a-067731c92f07" transform="translate(462.81 324.88)"> </text><text class="9a2af91b-5d15-4e42-a67a-067731c92f07" transform="translate(463.66 324.88)">% </text><text class="9a2af91b-5d15-4e42-a67a-067731c92f07" transform="translate(99 350.88)">к уровню 2019 <tspan class="29a37e57-12e2-4e70-802f-5a3c8e330f5c" x="139.9" y="0">г</tspan><tspan class="9fac913c-eee0-4e96-92c2-65993293d569" x="148.02" y="0">ода. Основная причина </tspan></text><text class="9a2af91b-5d15-4e42-a67a-067731c92f07" transform="translate(99 376.88)">отрицат<tspan class="bb2cf33a-9670-432a-9ab5-d51eb1327638" x="77.32" y="0">е</tspan><tspan x="88.18" y="0">льно</tspan><tspan class="29a37e57-12e2-4e70-802f-5a3c8e330f5c" x="132" y="0">г</tspan><tspan x="140.12" y="0">о показат</tspan><tspan class="bb2cf33a-9670-432a-9ab5-d51eb1327638" x="230.46" y="0">е</tspan><tspan x="241.32" y="0">ля — сокращение </tspan></text><text class="9a2af91b-5d15-4e42-a67a-067731c92f07" transform="translate(99 402.88)">пог<tspan class="a85366d4-25e9-4981-bf64-d6b83e2ec752" x="31.04" y="0">р</tspan><tspan class="9fac913c-eee0-4e96-92c2-65993293d569" x="42.3" y="0">узки каменно</tspan><tspan class="29a37e57-12e2-4e70-802f-5a3c8e330f5c" x="169.96" y="0">г</tspan><tspan class="9fac913c-eee0-4e96-92c2-65993293d569" x="178.08" y="0">о у</tspan><tspan class="0713db62-e5cb-459c-b3d9-ca86a2916732" x="204.98" y="0">г</tspan><tspan x="212.82" y="0">ля, черных металлов </tspan></text><text class="9a2af91b-5d15-4e42-a67a-067731c92f07" transform="translate(99 428.88)">и нефтяных г<tspan class="50e4b2c2-3307-4098-af10-91a0ade912c9" x="122.8" y="0">р</tspan><tspan x="134.04" y="0">узов. При этом отмечен рост </tspan></text><text class="9a2af91b-5d15-4e42-a67a-067731c92f07" transform="translate(99 454.88)">в пог<tspan class="6129e17f-3b28-40cf-8336-7721728b33b2" x="47.04" y="0">р</tspan><tspan x="58.3" y="0">уз</tspan><tspan class="1e426bec-67f0-489c-9972-139f4fc2ce32" x="78.72" y="0">к</tspan><tspan x="88.34" y="0">е удобрений, </tspan><tspan class="ba9f660c-ae95-48c7-a6e0-a0af6627c49a" x="217.22" y="0">к</tspan><tspan x="226.86" y="0">о</tspan><tspan class="ba9f660c-ae95-48c7-a6e0-a0af6627c49a" x="238.02" y="0">к</tspan><tspan class="df122e8e-d7d0-4995-91bd-149b804d8c83" x="247.66" y="0">са, строит</tspan><tspan class="32683597-0e0f-45dc-adf3-fe1ce1cabd07" x="344.3" y="0">е</tspan><tspan x="355.14" y="0">льных </tspan></text><text class="9a2af91b-5d15-4e42-a67a-067731c92f07" transform="translate(99 480.88)">г<tspan class="6129e17f-3b28-40cf-8336-7721728b33b2" x="8.36" y="0">р</tspan><tspan x="19.62" y="0">узов и зерна.</tspan></text><text class="b6205cb5-fd54-4b62-a664-1cb855aab286" transform="translate(693 118.7)">Динамика пог<tspan class="45d89002-55fe-481b-8198-093550e389b3" x="138.36" y="0">р</tspan><tspan x="150.22" y="0">узки по сети РЖД, млн тонн</tspan></text><line class="fc03235d-503c-4874-bfca-576c93a859c5" x1="693" y1="325.5" x2="1238" y2="325.5"/><line class="fc03235d-503c-4874-bfca-576c93a859c5" x1="1238" y1="325.5" x2="1333" y2="325.5"/><line class="fc03235d-503c-4874-bfca-576c93a859c5" x1="1333" y1="325.5" x2="1543" y2="325.5"/><line class="fc03235d-503c-4874-bfca-576c93a859c5" x1="1543" y1="325.5" x2="1753" y2="325.5"/><line class="fc03235d-503c-4874-bfca-576c93a859c5" x1="1753" y1="325.5" x2="1818" y2="325.5"/><line class="449abb44-fced-4cc3-97eb-8064f97aac94" x1="693" y1="185.4" x2="1238" y2="185.4"/><line class="449abb44-fced-4cc3-97eb-8064f97aac94" x1="1238" y1="185.4" x2="1333" y2="185.4"/><line class="449abb44-fced-4cc3-97eb-8064f97aac94" x1="1333" y1="185.4" x2="1543" y2="185.4"/><line class="449abb44-fced-4cc3-97eb-8064f97aac94" x1="1543" y1="185.4" x2="1753" y2="185.4"/><line class="449abb44-fced-4cc3-97eb-8064f97aac94" x1="1753" y1="185.4" x2="1818" y2="185.4"/><line class="449abb44-fced-4cc3-97eb-8064f97aac94" x1="693" y1="232.1" x2="1238" y2="232.1"/><line class="449abb44-fced-4cc3-97eb-8064f97aac94" x1="1238" y1="232.1" x2="1333" y2="232.1"/><line class="449abb44-fced-4cc3-97eb-8064f97aac94" x1="1333" y1="232.1" x2="1543" y2="232.1"/><line class="449abb44-fced-4cc3-97eb-8064f97aac94" x1="1543" y1="232.1" x2="1753" y2="232.1"/><line class="449abb44-fced-4cc3-97eb-8064f97aac94" x1="1753" y1="232.1" x2="1818" y2="232.1"/><line class="449abb44-fced-4cc3-97eb-8064f97aac94" x1="693" y1="278.8" x2="1238" y2="278.8"/><line class="449abb44-fced-4cc3-97eb-8064f97aac94" x1="1238" y1="278.8" x2="1333" y2="278.8"/><line class="449abb44-fced-4cc3-97eb-8064f97aac94" x1="1333" y1="278.8" x2="1543" y2="278.8"/><line class="449abb44-fced-4cc3-97eb-8064f97aac94" x1="1543" y1="278.8" x2="1753" y2="278.8"/><line class="449abb44-fced-4cc3-97eb-8064f97aac94" x1="1753" y1="278.8" x2="1818" y2="278.8"/><line class="449abb44-fced-4cc3-97eb-8064f97aac94" x1="693" y1="372.2" x2="1238" y2="372.2"/><line class="449abb44-fced-4cc3-97eb-8064f97aac94" x1="1238" y1="372.2" x2="1333" y2="372.2"/><line class="449abb44-fced-4cc3-97eb-8064f97aac94" x1="1333" y1="372.2" x2="1543" y2="372.2"/><line class="449abb44-fced-4cc3-97eb-8064f97aac94" x1="1543" y1="372.2" x2="1753" y2="372.2"/><line class="449abb44-fced-4cc3-97eb-8064f97aac94" x1="1753" y1="372.2" x2="1818" y2="372.2"/><line class="449abb44-fced-4cc3-97eb-8064f97aac94" x1="693" y1="418.9" x2="1238" y2="418.9"/><line class="449abb44-fced-4cc3-97eb-8064f97aac94" x1="1238" y1="418.9" x2="1333" y2="418.9"/><line class="449abb44-fced-4cc3-97eb-8064f97aac94" x1="1333" y1="418.9" x2="1543" y2="418.9"/><line class="449abb44-fced-4cc3-97eb-8064f97aac94" x1="1543" y1="418.9" x2="1753" y2="418.9"/><line class="449abb44-fced-4cc3-97eb-8064f97aac94" x1="1753" y1="418.9" x2="1818" y2="418.9"/><line class="449abb44-fced-4cc3-97eb-8064f97aac94" x1="693" y1="465.6" x2="1238" y2="465.6"/><line class="449abb44-fced-4cc3-97eb-8064f97aac94" x1="1238" y1="465.6" x2="1333" y2="465.6"/><line class="449abb44-fced-4cc3-97eb-8064f97aac94" x1="1333" y1="465.6" x2="1543" y2="465.6"/><line class="449abb44-fced-4cc3-97eb-8064f97aac94" x1="1543" y1="465.6" x2="1753" y2="465.6"/><line class="449abb44-fced-4cc3-97eb-8064f97aac94" x1="1753" y1="465.6" x2="1818" y2="465.6"/><line class="449abb44-fced-4cc3-97eb-8064f97aac94" x1="693" y1="512.3" x2="1238" y2="512.3"/><line class="449abb44-fced-4cc3-97eb-8064f97aac94" x1="1238" y1="512.3" x2="1333" y2="512.3"/><line class="449abb44-fced-4cc3-97eb-8064f97aac94" x1="1333" y1="512.3" x2="1543" y2="512.3"/><line class="449abb44-fced-4cc3-97eb-8064f97aac94" x1="1543" y1="512.3" x2="1753" y2="512.3"/><line class="449abb44-fced-4cc3-97eb-8064f97aac94" x1="1753" y1="512.3" x2="1818" y2="512.3"/><line class="449abb44-fced-4cc3-97eb-8064f97aac94" x1="693" y1="559" x2="1238" y2="559"/><line class="449abb44-fced-4cc3-97eb-8064f97aac94" x1="1238" y1="559" x2="1333" y2="559"/><line class="449abb44-fced-4cc3-97eb-8064f97aac94" x1="1333" y1="559" x2="1543" y2="559"/><line class="449abb44-fced-4cc3-97eb-8064f97aac94" x1="1543" y1="559" x2="1753" y2="559"/><line class="449abb44-fced-4cc3-97eb-8064f97aac94" x1="1753" y1="559" x2="1818" y2="559"/><line class="449abb44-fced-4cc3-97eb-8064f97aac94" x1="693" y1="605.7" x2="1238" y2="605.7"/><line class="449abb44-fced-4cc3-97eb-8064f97aac94" x1="1238" y1="605.7" x2="1333" y2="605.7"/><line class="449abb44-fced-4cc3-97eb-8064f97aac94" x1="1333" y1="605.7" x2="1543" y2="605.7"/><line class="449abb44-fced-4cc3-97eb-8064f97aac94" x1="1543" y1="605.7" x2="1753" y2="605.7"/><line class="449abb44-fced-4cc3-97eb-8064f97aac94" x1="1753" y1="605.7" x2="1818" y2="605.7"/><line class="449abb44-fced-4cc3-97eb-8064f97aac94" x1="693" y1="652.4" x2="1238" y2="652.4"/><line class="449abb44-fced-4cc3-97eb-8064f97aac94" x1="1238" y1="652.4" x2="1333" y2="652.4"/><line class="449abb44-fced-4cc3-97eb-8064f97aac94" x1="1333" y1="652.4" x2="1543" y2="652.4"/><line class="449abb44-fced-4cc3-97eb-8064f97aac94" x1="1543" y1="652.4" x2="1753" y2="652.4"/><line class="449abb44-fced-4cc3-97eb-8064f97aac94" x1="1753" y1="652.4" x2="1818" y2="652.4"/><line class="449abb44-fced-4cc3-97eb-8064f97aac94" x1="693" y1="699.1" x2="1238" y2="699.1"/><line class="449abb44-fced-4cc3-97eb-8064f97aac94" x1="1238" y1="699.1" x2="1333" y2="699.1"/><line class="449abb44-fced-4cc3-97eb-8064f97aac94" x1="1333" y1="699.1" x2="1543" y2="699.1"/><line class="449abb44-fced-4cc3-97eb-8064f97aac94" x1="1543" y1="699.1" x2="1753" y2="699.1"/><line class="449abb44-fced-4cc3-97eb-8064f97aac94" x1="1753" y1="699.1" x2="1818" y2="699.1"/><line class="449abb44-fced-4cc3-97eb-8064f97aac94" x1="693" y1="745.8" x2="1238" y2="745.8"/><line class="449abb44-fced-4cc3-97eb-8064f97aac94" x1="1238" y1="745.8" x2="1333" y2="745.8"/><line class="449abb44-fced-4cc3-97eb-8064f97aac94" x1="1333" y1="745.8" x2="1543" y2="745.8"/><line class="449abb44-fced-4cc3-97eb-8064f97aac94" x1="1543" y1="745.8" x2="1753" y2="745.8"/><line class="449abb44-fced-4cc3-97eb-8064f97aac94" x1="1753" y1="745.8" x2="1818" y2="745.8"/><line class="449abb44-fced-4cc3-97eb-8064f97aac94" x1="693" y1="792.5" x2="1238" y2="792.5"/><line class="449abb44-fced-4cc3-97eb-8064f97aac94" x1="1238" y1="792.5" x2="1333" y2="792.5"/><line class="449abb44-fced-4cc3-97eb-8064f97aac94" x1="1333" y1="792.5" x2="1543" y2="792.5"/><line class="449abb44-fced-4cc3-97eb-8064f97aac94" x1="1543" y1="792.5" x2="1753" y2="792.5"/><line class="449abb44-fced-4cc3-97eb-8064f97aac94" x1="1753" y1="792.5" x2="1818" y2="792.5"/><line class="449abb44-fced-4cc3-97eb-8064f97aac94" x1="693" y1="839.2" x2="1238" y2="839.2"/><line class="449abb44-fced-4cc3-97eb-8064f97aac94" x1="1238" y1="839.2" x2="1333" y2="839.2"/><line class="449abb44-fced-4cc3-97eb-8064f97aac94" x1="1333" y1="839.2" x2="1543" y2="839.2"/><line class="449abb44-fced-4cc3-97eb-8064f97aac94" x1="1543" y1="839.2" x2="1753" y2="839.2"/><line class="449abb44-fced-4cc3-97eb-8064f97aac94" x1="1753" y1="839.2" x2="1818" y2="839.2"/><line class="449abb44-fced-4cc3-97eb-8064f97aac94" x1="693" y1="885.9" x2="1238" y2="885.9"/><line class="449abb44-fced-4cc3-97eb-8064f97aac94" x1="1238" y1="885.9" x2="1333" y2="885.9"/><line class="449abb44-fced-4cc3-97eb-8064f97aac94" x1="1333" y1="885.9" x2="1543" y2="885.9"/><line class="449abb44-fced-4cc3-97eb-8064f97aac94" x1="1543" y1="885.9" x2="1753" y2="885.9"/><line class="449abb44-fced-4cc3-97eb-8064f97aac94" x1="1753" y1="885.9" x2="1818" y2="885.9"/><line class="449abb44-fced-4cc3-97eb-8064f97aac94" x1="693" y1="932.6" x2="1238" y2="932.6"/><line class="449abb44-fced-4cc3-97eb-8064f97aac94" x1="1238" y1="932.6" x2="1333" y2="932.6"/><line class="449abb44-fced-4cc3-97eb-8064f97aac94" x1="1333" y1="932.6" x2="1543" y2="932.6"/><line class="449abb44-fced-4cc3-97eb-8064f97aac94" x1="1543" y1="932.6" x2="1753" y2="932.6"/><line class="449abb44-fced-4cc3-97eb-8064f97aac94" x1="1753" y1="932.6" x2="1818" y2="932.6"/><line class="751db29e-f03d-44ed-ad5d-c3f0bac101bf" x1="699.01" y1="325.5" x2="1233.99" y2="325.5"/><path class="449abb44-fced-4cc3-97eb-8064f97aac94" d="M1236,325.5h2m-545,0h2"/><line class="fb6fd965-6af4-4c39-ac57-b117a76d7c87" x1="1243.94" y1="325.5" x2="1329.04" y2="325.5"/><path class="449abb44-fced-4cc3-97eb-8064f97aac94" d="M1331,325.5h2m-95,0h2"/><line class="7727a012-c844-4d3e-b182-a0c901e08d03" x1="1339.06" y1="325.5" x2="1538.96" y2="325.5"/><path class="449abb44-fced-4cc3-97eb-8064f97aac94" d="M1541,325.5h2m-210,0h2"/><line class="7727a012-c844-4d3e-b182-a0c901e08d03" x1="1549.06" y1="325.5" x2="1748.96" y2="325.5"/><path class="449abb44-fced-4cc3-97eb-8064f97aac94" d="M1751,325.5h2m-210,0h2"/><line class="cf6636aa-9490-47ff-bc42-3e1db95ea2c5" x1="1759.09" y1="325.5" x2="1813.94" y2="325.5"/><path class="449abb44-fced-4cc3-97eb-8064f97aac94" d="M1816,325.5h2m-65,0h2"/><text class="b6205cb5-fd54-4b62-a664-1cb855aab286" transform="translate(1281.84 171.4)">2020</text><text class="b6205cb5-fd54-4b62-a664-1cb855aab286" transform="translate(1495.78 171.4)">2019</text><text class="b6205cb5-fd54-4b62-a664-1cb855aab286" transform="translate(1707.6 171.4)">Изм. </text><text class="b6205cb5-fd54-4b62-a664-1cb855aab286" transform="translate(693 218.1)">Все<tspan class="16950efd-3393-4bc5-9e64-808b52b97383" x="36.74" y="0">г</tspan><tspan class="9308a9a4-7aa1-41b9-bb55-e11a63915417" x="45.48" y="0">о</tspan><tspan x="57.22" y="0">, в том числе:</tspan></text><text class="b6205cb5-fd54-4b62-a664-1cb855aab286" transform="translate(1263.52 218.1)">1 <tspan class="fc219406-2ff0-4de3-b307-37d693ff1c97" x="13.84" y="0">2</tspan><tspan x="26.1" y="0">43</tspan><tspan class="fc219406-2ff0-4de3-b307-37d693ff1c97" x="51.78" y="0">,</tspan><tspan x="56.94" y="0">6</tspan></text><text class="b6205cb5-fd54-4b62-a664-1cb855aab286" transform="translate(1461.58 218.1)">1 27<tspan class="fc219406-2ff0-4de3-b307-37d693ff1c97" x="37.14" y="0">8</tspan><tspan class="ba20943e-ecd7-4bbd-85d2-36171c70c674" x="50.14" y="0">,</tspan><tspan x="55.22" y="0">48</tspan></text><text class="b6205cb5-fd54-4b62-a664-1cb855aab286" transform="translate(1695.8 218.1)"><tspan class="8bb8c432-7945-457f-a9ea-9a09c3301409">-</tspan><tspan x="8.94" y="0">2</tspan><tspan class="c96d4b52-5c60-4119-a756-77e37a4c426a" x="21.34" y="0">,</tspan><tspan x="26.06" y="0">7 %</tspan></text><path class="895d0c6e-04e7-45c1-a754-c682d26df619" d="M1813.84,217.1l-11.38-.08-.08-11.39m14.91-3.44L1802.46,217"/><text class="9a2af91b-5d15-4e42-a67a-067731c92f07" transform="translate(693 264.8)">Каменный у<tspan class="7b1bbe04-3931-4bcd-942b-cbcf00fdf4c6" x="111.88" y="0">г</tspan><tspan class="96fb0cf3-8532-45ee-a723-6b636f3ea784" x="120" y="0">о</tspan><tspan x="130.98" y="0">ль</tspan></text><text class="9a2af91b-5d15-4e42-a67a-067731c92f07" transform="translate(1282.26 264.8)">353,3</text><text class="9a2af91b-5d15-4e42-a67a-067731c92f07" transform="translate(1493.86 264.8)">372<tspan class="826853eb-2862-4378-a807-52efffe3791c" x="32.46" y="0">,</tspan><tspan x="36.82" y="0">0</tspan></text><text class="2c670cff-b6f2-47a9-9a73-89c017827d97" transform="translate(1712.06 264.8)">-<tspan class="371c2c39-01c4-417b-af1e-a8df65b6fe37" x="9.52" y="0">5 %</tspan></text><path class="9211f7eb-e437-4575-91c3-e603906bf48e" d="M1805.54,249.18l11.38.08.08,11.38m-14.91,3.45,14.83-14.83"/><text class="9a2af91b-5d15-4e42-a67a-067731c92f07" transform="translate(713 311.5)"><tspan class="b3cb87e2-b4db-4573-bf40-cb6486149235">У</tspan><tspan class="8d457d45-91d9-44be-a96e-9409e71b0eb2" x="10.5" y="0">г</tspan><tspan class="96fb0cf3-8532-45ee-a723-6b636f3ea784" x="18.64" y="0">о</tspan><tspan x="29.62" y="0">ль энер</tspan><tspan class="ba20943e-ecd7-4bbd-85d2-36171c70c674" x="100.7" y="0">г</tspan><tspan x="108.84" y="0">етический</tspan></text><text class="9a2af91b-5d15-4e42-a67a-067731c92f07" transform="translate(1292.36 311.5)">27<tspan class="e1b2dc31-847a-4ae1-abc3-f00bdd0d58c1" x="20.94" y="0">7</tspan><tspan class="155d6920-c955-463f-a223-5d49686c3485" x="29.3" y="0">,</tspan><tspan x="32.7" y="0">1</tspan></text><text class="9a2af91b-5d15-4e42-a67a-067731c92f07" transform="translate(1493.72 311.5)">2<tspan class="ba20943e-ecd7-4bbd-85d2-36171c70c674" x="11.2" y="0">9</tspan><tspan x="22.42" y="0">6</tspan><tspan class="0c8d10a7-c841-4d23-884c-2827486ec317" x="34.06" y="0">,</tspan><tspan x="37.88" y="0">9</tspan></text><text class="9a2af91b-5d15-4e42-a67a-067731c92f07" transform="translate(1714.78 311.5)"><tspan class="547552d6-cf76-4291-9229-278db7c41f59">-</tspan><tspan x="8.52" y="0">7 %</tspan></text><path class="895d0c6e-04e7-45c1-a754-c682d26df619" d="M1813.84,310.5l-11.38-.08-.08-11.39m14.91-3.44-14.83,14.83"/><text class="9a2af91b-5d15-4e42-a67a-067731c92f07" transform="translate(713 358.2)"><tspan class="b3cb87e2-b4db-4573-bf40-cb6486149235">У</tspan><tspan class="8d457d45-91d9-44be-a96e-9409e71b0eb2" x="10.5" y="0">г</tspan><tspan class="96fb0cf3-8532-45ee-a723-6b636f3ea784" x="18.64" y="0">о</tspan><tspan x="29.62" y="0">ль </tspan><tspan class="ba9f660c-ae95-48c7-a6e0-a0af6627c49a" x="55.52" y="0">к</tspan><tspan x="65.16" y="0">о</tspan><tspan class="ba9f660c-ae95-48c7-a6e0-a0af6627c49a" x="76.32" y="0">к</tspan><tspan class="df122e8e-d7d0-4995-91bd-149b804d8c83" x="85.96" y="0">сующийся</tspan></text><text class="9a2af91b-5d15-4e42-a67a-067731c92f07" transform="translate(1300.94 358.2)"><tspan class="8bb8c432-7945-457f-a9ea-9a09c3301409">7</tspan><tspan x="9.08" y="0">6</tspan><tspan class="155d6920-c955-463f-a223-5d49686c3485" x="20.72" y="0">,</tspan><tspan x="24.12" y="0">1</tspan></text><text class="9a2af91b-5d15-4e42-a67a-067731c92f07" transform="translate(1510.7 358.2)">7<tspan class="8a6b8346-bb5c-4019-a6e3-7054d51f664a" x="9.74" y="0">5</tspan><tspan class="155d6920-c955-463f-a223-5d49686c3485" x="20.98" y="0">,</tspan><tspan x="24.38" y="0">1</tspan></text><text class="9a2af91b-5d15-4e42-a67a-067731c92f07" transform="translate(1725.06 358.2)">1 %</text><path class="9211f7eb-e437-4575-91c3-e603906bf48e" d="M1805.54,342.58l11.38.08L1817,354m-14.91,3.45,14.83-14.83"/><text class="9a2af91b-5d15-4e42-a67a-067731c92f07" transform="translate(693 404.9)"><tspan class="4abadf65-7bb1-4eee-8e9a-d065a5fcbc1e">К</tspan><tspan class="9fac913c-eee0-4e96-92c2-65993293d569" x="11.7" y="0">о</tspan><tspan class="5a5dbe91-6c7d-420f-8a74-33da7b85d333" x="22.86" y="0">к</tspan><tspan x="32.5" y="0">с</tspan></text><text class="9a2af91b-5d15-4e42-a67a-067731c92f07" transform="translate(1301.14 404.9)">11,2</text><text class="9a2af91b-5d15-4e42-a67a-067731c92f07" transform="translate(1498.24 404.9)">1<tspan class="826853eb-2862-4378-a807-52efffe3791c" x="7.96" y="0">0</tspan><tspan class="c96d4b52-5c60-4119-a756-77e37a4c426a" x="19.9" y="0">,</tspan><tspan class="8bb8c432-7945-457f-a9ea-9a09c3301409" x="24.06" y="0">7</tspan><tspan x="33.14" y="0">6</tspan></text><text class="9a2af91b-5d15-4e42-a67a-067731c92f07" transform="translate(1721.12 404.9)">4 %</text><path class="9211f7eb-e437-4575-91c3-e603906bf48e" d="M1805.54,389.28l11.38.08.08,11.38m-14.91,3.45,14.83-14.83"/><text class="9a2af91b-5d15-4e42-a67a-067731c92f07" transform="translate(693 451.6)">Нефтяные г<tspan class="50e4b2c2-3307-4098-af10-91a0ade912c9" x="108.36" y="0">р</tspan><tspan x="119.6" y="0">узы</tspan></text><text class="9a2af91b-5d15-4e42-a67a-067731c92f07" transform="translate(1280.5 451.6)">20<tspan class="ba20943e-ecd7-4bbd-85d2-36171c70c674" x="23.52" y="0">8,</tspan><tspan x="40.18" y="0">8</tspan></text><text class="9a2af91b-5d15-4e42-a67a-067731c92f07" transform="translate(1498.74 451.6)">21<tspan class="8a6b8346-bb5c-4019-a6e3-7054d51f664a" x="19.16" y="0">5</tspan><tspan class="c96d4b52-5c60-4119-a756-77e37a4c426a" x="30.4" y="0">,</tspan><tspan x="34.56" y="0">7</tspan></text><text class="267b9396-2b60-4084-b876-c58a3d72c579" transform="translate(1703.82 451.6)">-<tspan class="7ebdf9ab-11ed-4c30-8a12-3c36aa26a629" x="8.94" y="0">10 %</tspan></text><path class="895d0c6e-04e7-45c1-a754-c682d26df619" d="M1813.84,450.6l-11.38-.08-.08-11.39m14.91-3.44-14.83,14.83"/><text class="9a2af91b-5d15-4e42-a67a-067731c92f07" transform="translate(693 498.3)">Руда ж<tspan class="bb2cf33a-9670-432a-9ab5-d51eb1327638" x="65.52" y="0">е</tspan><tspan x="76.38" y="0">лезная и марганцевая</tspan></text><text class="9a2af91b-5d15-4e42-a67a-067731c92f07" transform="translate(1293.16 498.3)">11<tspan class="0b809539-6f5b-42c4-b702-a10d95a88056" x="15.92" y="0">9</tspan><tspan class="c96d4b52-5c60-4119-a756-77e37a4c426a" x="25.98" y="0">,</tspan><tspan x="30.14" y="0">7</tspan></text><text class="9a2af91b-5d15-4e42-a67a-067731c92f07" transform="translate(1484.44 498.3)">12<tspan class="826853eb-2862-4378-a807-52efffe3791c" x="19.16" y="0">0</tspan><tspan x="31.1" y="0">,23</tspan></text><text class="9a2af91b-5d15-4e42-a67a-067731c92f07" transform="translate(1695.08 498.3)">-<tspan class="45a5b463-746f-49e2-bc5e-bfdbe2171d48" x="9.74" y="0">0</tspan><tspan class="826853eb-2862-4378-a807-52efffe3791c" x="21.7" y="0">,</tspan><tspan class="371c2c39-01c4-417b-af1e-a8df65b6fe37" x="26.06" y="0">4 %</tspan></text><path class="895d0c6e-04e7-45c1-a754-c682d26df619" d="M1813.84,497.3l-11.38-.08-.08-11.39m14.91-3.44-14.83,14.83"/><text class="9a2af91b-5d15-4e42-a67a-067731c92f07" transform="translate(693 545)">Черные металлы</text><text class="9a2af91b-5d15-4e42-a67a-067731c92f07" transform="translate(1293.46 545)">66<tspan class="45a5b463-746f-49e2-bc5e-bfdbe2171d48" x="23.28" y="0">,</tspan><tspan class="371c2c39-01c4-417b-af1e-a8df65b6fe37" x="27.66" y="0">4</tspan></text><text class="9a2af91b-5d15-4e42-a67a-067731c92f07" transform="translate(1496.88 545)">73<tspan class="c96d4b52-5c60-4119-a756-77e37a4c426a" x="21.26" y="0">,</tspan><tspan class="8bb8c432-7945-457f-a9ea-9a09c3301409" x="25.42" y="0">7</tspan><tspan x="34.5" y="0">6</tspan></text><text class="9a2af91b-5d15-4e42-a67a-067731c92f07" transform="translate(1703.82 545)"><tspan class="3a0bfe1c-62e5-4ea8-ac62-006951045e25">-</tspan><tspan x="8.92" y="0">10 %</tspan></text><path class="895d0c6e-04e7-45c1-a754-c682d26df619" d="M1813.84,544l-11.38-.08-.08-11.39m14.91-3.44-14.83,14.83"/><text class="9a2af91b-5d15-4e42-a67a-067731c92f07" transform="translate(693 591.7)">Химические и минеральные удобрения</text><text class="9a2af91b-5d15-4e42-a67a-067731c92f07" transform="translate(1296.28 591.7)">62<tspan class="c96d4b52-5c60-4119-a756-77e37a4c426a" x="22.84" y="0">,</tspan><tspan class="7ebdf9ab-11ed-4c30-8a12-3c36aa26a629" x="27" y="0">7</tspan></text><text class="9a2af91b-5d15-4e42-a67a-067731c92f07" transform="translate(1491.92 591.7)">6<tspan class="50e4b2c2-3307-4098-af10-91a0ade912c9" x="11.64" y="0">0</tspan><tspan class="45a5b463-746f-49e2-bc5e-bfdbe2171d48" x="23.58" y="0">,</tspan><tspan class="16950efd-3393-4bc5-9e64-808b52b97383" x="27.96" y="0">4</tspan><tspan x="39.68" y="0">9</tspan></text><text class="9a2af91b-5d15-4e42-a67a-067731c92f07" transform="translate(1707.62 591.7)">3<tspan class="9f736d14-c093-45c8-a8a8-b858fbfb220d" x="11.52" y="0">,</tspan><tspan class="7ebdf9ab-11ed-4c30-8a12-3c36aa26a629" x="15.66" y="0">7 %</tspan></text><path class="9211f7eb-e437-4575-91c3-e603906bf48e" d="M1805.54,576.08l11.38.08.08,11.38M1802.09,591l14.83-14.83"/><text class="9a2af91b-5d15-4e42-a67a-067731c92f07" transform="translate(693 638.4)">Строит<tspan class="32683597-0e0f-45dc-adf3-fe1ce1cabd07" x="67.6" y="0">е</tspan><tspan x="78.44" y="0">льные г</tspan><tspan class="6129e17f-3b28-40cf-8336-7721728b33b2" x="148.72" y="0">р</tspan><tspan x="159.98" y="0">узы</tspan></text><text class="9a2af91b-5d15-4e42-a67a-067731c92f07" transform="translate(1289.86 638.4)">1<tspan class="50e4b2c2-3307-4098-af10-91a0ade912c9" x="7.96" y="0">3</tspan><tspan x="19.1" y="0">1</tspan><tspan class="8b600703-1205-459e-9ad9-b4c40e70cb9f" x="27.06" y="0">,</tspan><tspan x="31.52" y="0">6</tspan></text><text class="9a2af91b-5d15-4e42-a67a-067731c92f07" transform="translate(1484.36 638.4)">1<tspan class="c9f023ea-9308-4277-b1c8-7bbd4b056ad2" x="7.96" y="0">2</tspan><tspan class="a85366d4-25e9-4981-bf64-d6b83e2ec752" x="18.94" y="0">4,</tspan><tspan x="34.86" y="0">03</tspan></text><text class="9a2af91b-5d15-4e42-a67a-067731c92f07" transform="translate(1710.04 638.4)">6<tspan class="155d6920-c955-463f-a223-5d49686c3485" x="11.64" y="0">,</tspan><tspan x="15.04" y="0">1 %</tspan></text><path class="9211f7eb-e437-4575-91c3-e603906bf48e" d="M1805.54,622.78l11.38.08.08,11.38m-14.91,3.45,14.83-14.83"/><text class="9a2af91b-5d15-4e42-a67a-067731c92f07" transform="translate(693 685.1)"><tspan class="32683597-0e0f-45dc-adf3-fe1ce1cabd07">Ц</tspan><tspan x="14.2" y="0">емент</tspan></text><text class="9a2af91b-5d15-4e42-a67a-067731c92f07" transform="translate(1299.24 685.1)">2<tspan class="8a6b8346-bb5c-4019-a6e3-7054d51f664a" x="11.2" y="0">5</tspan><tspan class="155d6920-c955-463f-a223-5d49686c3485" x="22.44" y="0">,</tspan><tspan x="25.84" y="0">1</tspan></text><text class="9a2af91b-5d15-4e42-a67a-067731c92f07" transform="translate(1493.2 685.1)">2<tspan class="8a6b8346-bb5c-4019-a6e3-7054d51f664a" x="11.2" y="0">5</tspan><tspan x="22.44" y="0">,25</tspan></text><text class="9a2af91b-5d15-4e42-a67a-067731c92f07" transform="translate(1695.58 685.1)">-<tspan class="45a5b463-746f-49e2-bc5e-bfdbe2171d48" x="9.74" y="0">4</tspan><tspan x="21.28" y="0">,5 %</tspan></text><path class="895d0c6e-04e7-45c1-a754-c682d26df619" d="M1813.84,684.1l-11.38-.08-.08-11.39m14.91-3.44L1802.46,684"/><text class="9a2af91b-5d15-4e42-a67a-067731c92f07" transform="translate(693 731.8)">Лесные г<tspan class="50e4b2c2-3307-4098-af10-91a0ade912c9" x="84.78" y="0">р</tspan><tspan class="9fac913c-eee0-4e96-92c2-65993293d569" x="96.02" y="0">узы</tspan></text><text class="9a2af91b-5d15-4e42-a67a-067731c92f07" transform="translate(1295.28 731.8)">4<tspan class="45a5b463-746f-49e2-bc5e-bfdbe2171d48" x="11.9" y="0">0</tspan><tspan class="9f736d14-c093-45c8-a8a8-b858fbfb220d" x="23.86" y="0">,</tspan><tspan class="7ebdf9ab-11ed-4c30-8a12-3c36aa26a629" x="28" y="0">7</tspan></text><text class="9a2af91b-5d15-4e42-a67a-067731c92f07" transform="translate(1498.52 731.8)"><tspan class="8cc71c4c-7a75-431e-9300-755dfb7303b5">4</tspan><tspan x="11.56" y="0">1</tspan><tspan class="0c8d10a7-c841-4d23-884c-2827486ec317" x="19.52" y="0">,</tspan><tspan x="23.34" y="0">97</tspan></text><text class="9a2af91b-5d15-4e42-a67a-067731c92f07" transform="translate(1700.94 731.8)"><tspan class="6aaf5d3e-b0e0-4276-a490-86ee5e6d3ea9">-</tspan><tspan class="371c2c39-01c4-417b-af1e-a8df65b6fe37" x="9.22" y="0">3</tspan><tspan class="53f9280e-cb39-4314-9c1e-d9d68f4864d6" x="20.74" y="0">,</tspan><tspan x="24.14" y="0">1 %</tspan></text><path class="895d0c6e-04e7-45c1-a754-c682d26df619" d="M1813.84,730.8l-11.38-.08-.08-11.39m14.91-3.44-14.83,14.83"/><text class="9a2af91b-5d15-4e42-a67a-067731c92f07" transform="translate(693 778.5)">Зерно</text><text class="9a2af91b-5d15-4e42-a67a-067731c92f07" transform="translate(1298.2 778.5)">2<tspan class="e1b2dc31-847a-4ae1-abc3-f00bdd0d58c1" x="11.2" y="0">7</tspan><tspan class="0c8d10a7-c841-4d23-884c-2827486ec317" x="19.56" y="0">,</tspan><tspan x="23.38" y="0">9</tspan></text><text class="9a2af91b-5d15-4e42-a67a-067731c92f07" transform="translate(1495.38 778.5)">21<tspan class="8b600703-1205-459e-9ad9-b4c40e70cb9f" x="19.16" y="0">,</tspan><tspan x="23.62" y="0">68</tspan></text><text class="9a2af91b-5d15-4e42-a67a-067731c92f07" transform="translate(1695.82 778.5)">2<tspan class="c9f023ea-9308-4277-b1c8-7bbd4b056ad2" x="11.2" y="0">8</tspan><tspan class="03a89dcc-aba2-4be2-807f-759f45235afc" x="23.34" y="0">,</tspan><tspan x="27.48" y="0">7 %</tspan></text><path class="9211f7eb-e437-4575-91c3-e603906bf48e" d="M1805.54,762.88l11.38.08.08,11.38m-14.91,3.45L1816.92,763"/><text class="9a2af91b-5d15-4e42-a67a-067731c92f07" transform="translate(693 825.2)">Руды цветной и серно<tspan class="29a37e57-12e2-4e70-802f-5a3c8e330f5c" x="210.3" y="0">г</tspan><tspan x="218.42" y="0">о сырья</tspan></text><text class="9a2af91b-5d15-4e42-a67a-067731c92f07" transform="translate(1299.76 825.2)">1<tspan class="0b809539-6f5b-42c4-b702-a10d95a88056" x="7.96" y="0">9</tspan><tspan class="0c8d10a7-c841-4d23-884c-2827486ec317" x="18.02" y="0">,</tspan><tspan x="21.84" y="0">9</tspan></text><text class="9a2af91b-5d15-4e42-a67a-067731c92f07" transform="translate(1508.9 825.2)">1<tspan class="0b809539-6f5b-42c4-b702-a10d95a88056" x="7.96" y="0">9</tspan><tspan class="8b600703-1205-459e-9ad9-b4c40e70cb9f" x="18.02" y="0">,</tspan><tspan x="22.48" y="0">6</tspan></text><text class="9a2af91b-5d15-4e42-a67a-067731c92f07" transform="translate(1721.82 825.2)">2 %</text><path class="9211f7eb-e437-4575-91c3-e603906bf48e" d="M1805.54,809.58l11.38.08L1817,821m-14.91,3.45,14.83-14.83"/><text class="9a2af91b-5d15-4e42-a67a-067731c92f07" transform="translate(693 871.9)">Химикатов и соды</text><text class="9a2af91b-5d15-4e42-a67a-067731c92f07" transform="translate(1294.34 871.9)"><tspan class="c9f023ea-9308-4277-b1c8-7bbd4b056ad2">2</tspan><tspan class="a85366d4-25e9-4981-bf64-d6b83e2ec752" x="10.98" y="0">4</tspan><tspan x="22.52" y="0">,5</tspan></text><text class="9a2af91b-5d15-4e42-a67a-067731c92f07" transform="translate(1508.82 871.9)">26<tspan class="53f9280e-cb39-4314-9c1e-d9d68f4864d6" x="22.84" y="0">,</tspan><tspan x="26.24" y="0">1</tspan></text><text class="9a2af91b-5d15-4e42-a67a-067731c92f07" transform="translate(1700.3 871.9)">-6<tspan class="53f9280e-cb39-4314-9c1e-d9d68f4864d6" x="21.38" y="0">,</tspan><tspan x="24.78" y="0">1 %</tspan></text><path class="895d0c6e-04e7-45c1-a754-c682d26df619" d="M1813.84,870.9l-11.38-.08-.08-11.39m14.91-3.44-14.83,14.83"/><text class="9a2af91b-5d15-4e42-a67a-067731c92f07" transform="translate(693 918.6)">Промышленно<tspan class="7b1bbe04-3931-4bcd-942b-cbcf00fdf4c6" x="135.76" y="0">г</tspan><tspan x="143.88" y="0">о сырья и формовочных материалов</tspan></text><text class="9a2af91b-5d15-4e42-a67a-067731c92f07" transform="translate(1293.1 918.6)">33<tspan class="ba20943e-ecd7-4bbd-85d2-36171c70c674" x="23.04" y="0">,</tspan><tspan x="27.56" y="0">8</tspan></text><text class="9a2af91b-5d15-4e42-a67a-067731c92f07" transform="translate(1503.58 918.6)">3<tspan class="5c4fca05-3055-4c07-acae-4e88febb5cb2" x="11.52" y="0">5</tspan><tspan class="45a5b463-746f-49e2-bc5e-bfdbe2171d48" x="22.76" y="0">,</tspan><tspan x="27.14" y="0">0</tspan></text><text class="9a2af91b-5d15-4e42-a67a-067731c92f07" transform="translate(1696.18 918.6)"><tspan class="6aaf5d3e-b0e0-4276-a490-86ee5e6d3ea9">-</tspan><tspan class="371c2c39-01c4-417b-af1e-a8df65b6fe37" x="9.22" y="0">3</tspan><tspan class="8b600703-1205-459e-9ad9-b4c40e70cb9f" x="20.74" y="0">,</tspan><tspan x="25.2" y="0">6 %</tspan></text><path class="895d0c6e-04e7-45c1-a754-c682d26df619" d="M1813.84,917.6l-11.38-.08-.08-11.39m14.91-3.44-14.83,14.83"/><text class="9a2af91b-5d15-4e42-a67a-067731c92f07" transform="translate(693 965.3)">Остальных г<tspan class="50e4b2c2-3307-4098-af10-91a0ade912c9" x="114.34" y="0">р</tspan><tspan class="9fac913c-eee0-4e96-92c2-65993293d569" x="125.58" y="0">узов, в том числе в </tspan><tspan class="1e426bec-67f0-489c-9972-139f4fc2ce32" x="309.92" y="0">к</tspan><tspan x="319.54" y="0">онтейнерах</tspan></text><text class="9a2af91b-5d15-4e42-a67a-067731c92f07" transform="translate(1285.1 965.3)">103<tspan class="8b600703-1205-459e-9ad9-b4c40e70cb9f" x="31.8" y="0">,</tspan><tspan x="36.26" y="0">6</tspan></text><text class="9a2af91b-5d15-4e42-a67a-067731c92f07" transform="translate(1505.34 965.3)">9<tspan class="cf7f6e04-12e3-49b6-ad60-12e37e06fe84" x="11.44" y="0">9</tspan><tspan class="7ebdf9ab-11ed-4c30-8a12-3c36aa26a629" x="21.5" y="0">,5</tspan></text><text class="9a2af91b-5d15-4e42-a67a-067731c92f07" transform="translate(1710.16 965.3)"><tspan class="a85366d4-25e9-4981-bf64-d6b83e2ec752">4</tspan><tspan class="53f9280e-cb39-4314-9c1e-d9d68f4864d6" x="11.54" y="0">,</tspan><tspan x="14.94" y="0">1 %</tspan></text><path class="9211f7eb-e437-4575-91c3-e603906bf48e" d="M1805.54,949.68l11.38.08.08,11.38m-14.91,3.45,14.83-14.83"/><g class="374492ac-f321-4efa-b0e6-3a834a166355"><path class="7a19d1e5-c712-4e7b-adbb-40412fd2ae59" d="M480.69,783v18.46H623.76v-17.3H526.84l58.84-45q6.93-5.31,13.39-10.85a74.55,74.55,0,0,0,11.42-12.23,59,59,0,0,0,8-14.88,53.75,53.75,0,0,0,3-18.57,40.19,40.19,0,0,0-17.65-34q-8.89-6.35-22.27-9.81t-31.61-3.46q-22.62,0-40.5,6.46a98.58,98.58,0,0,0-31,17.77l10.39,13.85q13.16-11.31,27.34-16a99.28,99.28,0,0,1,31.5-4.73q19.15,0,28.61,8.77t9.46,23.53a32.11,32.11,0,0,1-6.57,20,66.05,66.05,0,0,1-15.35,14.66Zm-158.4,0v18.46H465.35v-17.3H368.44l58.84-45q6.92-5.31,13.38-10.85a74.12,74.12,0,0,0,11.42-12.23,58.65,58.65,0,0,0,8-14.88,53.75,53.75,0,0,0,3-18.57,40.12,40.12,0,0,0-17.65-34q-8.88-6.35-22.27-9.81t-31.61-3.46q-22.62,0-40.5,6.46a98.53,98.53,0,0,0-31,17.77l10.38,13.85a81.68,81.68,0,0,1,27.35-16,99.26,99.26,0,0,1,31.49-4.73q19.16,0,28.62,8.77t9.46,23.53a32.11,32.11,0,0,1-6.58,20,66,66,0,0,1-15.34,14.66ZM294,775.73q-4.84-6.57-13.61-6.57-7.84,0-12.58,5.19A17.43,17.43,0,0,0,263,786.46a17.66,17.66,0,0,0,4.62,12.12,14.79,14.79,0,0,0,11.54,5.19,17.57,17.57,0,0,0,4.15-.46,5.48,5.48,0,0,0,1.61-.69,16,16,0,0,1-6.11,11,17.87,17.87,0,0,1-11.19,4v8.08a34.19,34.19,0,0,0,11.19-2,27,27,0,0,0,10-6.23A32.61,32.61,0,0,0,296,806.65a39.85,39.85,0,0,0,2.77-15.57A25.19,25.19,0,0,0,294,775.73M186,712.05a34.4,34.4,0,0,1,11.65,8.19,39.19,39.19,0,0,1,7.85,12.8,48.71,48.71,0,0,1,0,33,37.26,37.26,0,0,1-8.08,12.81A35.39,35.39,0,0,1,185,787a42.48,42.48,0,0,1-15.8,2.88q-17.31,0-28.27-11.65t-11-33.34V724.16a48,48,0,0,1,10.38-7.38,80.42,80.42,0,0,1,13-5.2,60.9,60.9,0,0,1,18.11-2.42A36.23,36.23,0,0,1,186,712.05M94.17,742.62q0,30.46,18.81,47t56.19,16.5q18.69,0,32.65-4.16t23.42-11.53a47.09,47.09,0,0,0,14.19-17.89,55.29,55.29,0,0,0,4.73-23,56.44,56.44,0,0,0-4.62-23,47.7,47.7,0,0,0-13.61-17.88,65.73,65.73,0,0,0-22.15-11.54,99.56,99.56,0,0,0-30-4.15,84.83,84.83,0,0,0-18.57,1.85,105.08,105.08,0,0,0-13.73,3.92,56.94,56.94,0,0,0-11.54,5.77q0-26.77,11.42-39.35t31.27-12.57a91.09,91.09,0,0,1,11.42.81,80.17,80.17,0,0,1,13.15,2.88A87.21,87.21,0,0,1,211.05,662a68.81,68.81,0,0,1,13.5,9.12l10.38-13.85a84.31,84.31,0,0,0-30.23-16.61,115.16,115.16,0,0,0-34.38-5.31q-37.38,0-56.76,18.12T94.17,704.55Z"/><path class="56d4b8a6-3848-472d-b053-d0d04b2b6baf" d="M241.17,840h-127a20,20,0,1,0,0,40h127a20,20,0,1,0,0-40"/></g><text class="a587f1f3-3a34-44ab-a3d2-f52a9748e9f1" transform="translate(114.98 867.28)">млн<tspan class="122dd593-25a1-4e84-88b4-d559067fe6f0" x="54.1" y="0"> </tspan><tspan x="59.98" y="0">тонн</tspan></text><text class="b6205cb5-fd54-4b62-a664-1cb855aab286" transform="translate(99 928)">В 2020 <tspan class="96fb0cf3-8532-45ee-a723-6b636f3ea784" x="74.02" y="0">г</tspan><tspan x="82.76" y="0">оду пог</tspan><tspan class="45d89002-55fe-481b-8198-093550e389b3" x="156.22" y="0">р</tspan><tspan x="168.08" y="0">узка зерна по сети РЖД </tspan></text><text class="b6205cb5-fd54-4b62-a664-1cb855aab286" transform="translate(99 954)">выросла на 6,22 млн тонн, что на 2<tspan class="c15e87c0-8366-42b2-8594-f62a8459dfc8" x="346.42" y="0">8</tspan><tspan class="c96d4b52-5c60-4119-a756-77e37a4c426a" x="359.42" y="0">,</tspan><tspan x="364.14" y="0">7% б</tspan><tspan class="867f9ad2-9f97-4a58-af3d-69131012c501" x="407.25" y="0">о</tspan><tspan x="418.95" y="0">льше </tspan></text><text class="b6205cb5-fd54-4b62-a664-1cb855aab286" transform="translate(99 980)">по сравнению с предыдущим <tspan class="16950efd-3393-4bc5-9e64-808b52b97383" x="297.66" y="0">г</tspan><tspan x="306.4" y="0">одом</tspan></text><text class="9a2af91b-5d15-4e42-a67a-067731c92f07" transform="translate(38.06 57)"><tspan class="ba20943e-ecd7-4bbd-85d2-36171c70c674">2</tspan><tspan x="10.98" y="0">4</tspan></text><g class="374492ac-f321-4efa-b0e6-3a834a166355"><text class="9a2af91b-5d15-4e42-a67a-067731c92f07" transform="translate(99 57)">О <tspan class="5a5dbe91-6c7d-420f-8a74-33da7b85d333" x="18.4" y="0">к</tspan><tspan x="28.04" y="0">омпании</tspan></text></g></svg>