<?xml-stylesheet type="text/css" href="/pgk/main.css"?><svg id="4ad26a75-308b-4576-b1db-fc0c612e2639" data-name="Layer 1" xmlns="http://www.w3.org/2000/svg" xmlns:xlink="http://www.w3.org/1999/xlink" viewBox="0 0 1920 1080"><defs><style>.\39 437d1a6-787b-4028-801c-883cf9f38a5f{fill:#e8e8ed;}.a008f334-883f-4aa7-b90a-bf3ffa4d2fc8{font-size:20px;font-family:Rubik-Light, Rubik;}.\34 fbb8175-42e4-4f33-9f67-5ea951f1925b{letter-spacing:-0.01em;}.\32 ce3914d-b5f9-4541-a3a6-111de31a8c9d{letter-spacing:-0.02em;}.\30 aadeba1-495f-452e-8388-6d3a83ef3ce3{letter-spacing:0em;}.\32 dbfb687-6271-454d-9173-4d3d0961c9bc{letter-spacing:-0.01em;}.caaf2c07-f96d-42fe-9963-c12257bad3db{letter-spacing:-0.03em;}.\32 b5a517e-2bb4-46ce-b5bd-2d6cec5372a4{letter-spacing:-0.01em;}.a94d7a48-5f67-4bd6-919d-e08b6871919b{letter-spacing:-0.02em;}.\36 8647645-82db-46ee-ba56-360e9cc6f33d{letter-spacing:-0.01em;}.a886c027-3194-48a5-9266-00d78540b3fa{letter-spacing:-0.01em;}.\33 e2f113d-e010-41de-9bdc-0a7ca3b51202{letter-spacing:-0.02em;}.\37 988679e-a3d0-4242-8489-0e248f1d2e90{letter-spacing:-0.03em;}.\37 dce636b-ae89-4711-9a34-bd92e61470d9{letter-spacing:-0.01em;}.\39 b0a0b8d-27dd-42e9-8fe7-679bdc96a29e{letter-spacing:0em;}.d910c9c5-e708-4fa1-bfc2-9897cbd1a3b8{letter-spacing:-0.02em;}.\33 509b229-b812-4c68-9069-d61e6d365d18{font-size:28px;font-family:Rubik-Medium, Rubik;}.d2d3cdce-b278-41f7-a15f-03aafe488d5c{letter-spacing:0em;}.\30 8212819-fa07-44f3-984b-5f9a81ab4324{letter-spacing:-0.03em;}.fe3cd018-3cae-489d-9f1a-f6ab8fa572b8{letter-spacing:-0.01em;}.\35 34e5b8e-9c6d-4407-9e9b-cac949a4484a{letter-spacing:0em;}.\35 b54cbec-571c-45dd-9bcf-400542e9ff32{letter-spacing:-0.02em;}.\32 ec49fbc-63c6-4ad8-8aaa-ec0b9b93af40{letter-spacing:-0.01em;}.\33 c1221a9-4e40-4d1e-8447-dcd1d2d02d47{letter-spacing:-0.02em;}.\31 5a7d217-0ef7-4d99-a582-ee263ab35bc7{letter-spacing:0em;}.\39 5662324-b777-4bb3-ac73-a1e8607cc2d4{letter-spacing:-0.01em;}.\33 dc18532-b231-4a6d-a336-b1510b34e5de{letter-spacing:-0.02em;}.\34 fe026e3-a3cd-4afe-8dc4-f9c99c4a91d3{letter-spacing:-0.02em;}.\38 bb8ca30-e414-4f87-8ac7-c7ac3525da0e{letter-spacing:-0.02em;}.\35 91d53ba-3c63-4373-8076-d12c9ba74b51{letter-spacing:-0.02em;}.\37 43e71ba-779b-421b-97ef-4ee631df5db9{letter-spacing:-0.01em;}.\37 9114ebe-03b0-4694-8f2d-e96d950d65f4{letter-spacing:-0.01em;}.\34 d34367f-723b-4b6d-ac24-1bbc8b886fbd{letter-spacing:-0.01em;}.dc731af8-ec10-4ed1-b3f7-6f9d130b6b3e{letter-spacing:-0.01em;}.\31 b02f627-5f66-4cf6-b995-53b42aac69ff{letter-spacing:-0.01em;}.\31 5d52eb6-1439-4c1a-a690-f393ddbdf809{letter-spacing:0em;}.\30 903ae2b-a22c-43ba-8b93-416c98ec81ba{letter-spacing:-0.01em;}.\34 bb68072-c95b-449c-91f7-ea6431741e5f{letter-spacing:0em;}.c3e5bbee-b85d-4274-a6e2-ed6eed9bf3ba{fill:#faaa2d;}</style></defs><title>Artboard 1</title><image width="674" height="1080" xlink:href="37-lk.jpg"/><rect class="9437d1a6-787b-4028-801c-883cf9f38a5f" x="1320" y="0.5" width="599.5" height="1079"/><text class="a008f334-883f-4aa7-b90a-bf3ffa4d2fc8" transform="translate(1408 218.88)">В 2020 <tspan class="4fbb8175-42e4-4f33-9f67-5ea951f1925b" x="70.42" y="0">г</tspan><tspan x="78.56" y="0">оду стартовала промышленная </tspan></text><text class="a008f334-883f-4aa7-b90a-bf3ffa4d2fc8" transform="translate(1408 244.88)">э<tspan class="2ce3914d-b5f9-4541-a3a6-111de31a8c9d" x="10.72" y="0">к</tspan><tspan class="0aadeba1-495f-452e-8388-6d3a83ef3ce3" x="20.36" y="0">сплуатация ново</tspan><tspan class="2dbfb687-6271-454d-9173-4d3d0961c9bc" x="180.34" y="0">г</tspan><tspan x="188.46" y="0">о программно</tspan><tspan class="4fbb8175-42e4-4f33-9f67-5ea951f1925b" x="319.42" y="0">г</tspan><tspan x="327.56" y="0">о </tspan></text><text class="a008f334-883f-4aa7-b90a-bf3ffa4d2fc8" transform="translate(1408 270.88)">мод<tspan class="caaf2c07-f96d-42fe-9963-c12257bad3db" x="35.96" y="0">у</tspan><tspan x="45.98" y="0">ля — </tspan><tspan class="2b5a517e-2bb4-46ce-b5bd-2d6cec5372a4" x="93.24" y="0">S</tspan><tspan x="105.14" y="0">A</tspan><tspan class="a94d7a48-5f67-4bd6-919d-e08b6871919b" x="118.14" y="0">P</tspan><tspan x="130.24" y="0" xml:space="preserve"> Human Capital Manageme</tspan><tspan class="68647645-82db-46ee-ba56-360e9cc6f33d" x="373.58" y="0">n</tspan><tspan x="385.22" y="0">t </tspan></text><text class="a008f334-883f-4aa7-b90a-bf3ffa4d2fc8" transform="translate(1408 296.88)"><tspan class="2ce3914d-b5f9-4541-a3a6-111de31a8c9d">(</tspan><tspan class="a886c027-3194-48a5-9266-00d78540b3fa" x="5.9" y="0">S</tspan><tspan x="17.82" y="0">A</tspan><tspan class="3e2f113d-e010-41de-9bdc-0a7ca3b51202" x="30.82" y="0">P</tspan><tspan x="42.94" y="0" xml:space="preserve"> HC</tspan><tspan class="2b5a517e-2bb4-46ce-b5bd-2d6cec5372a4" x="75.12" y="0">M</tspan><tspan x="90.52" y="0">). Специализированный сервис </tspan></text><text class="a008f334-883f-4aa7-b90a-bf3ffa4d2fc8" transform="translate(1408 322.88)">позв<tspan class="2b5a517e-2bb4-46ce-b5bd-2d6cec5372a4" x="43.36" y="0">о</tspan><tspan x="54.32" y="0">лил создать централизованную </tspan></text><text class="a008f334-883f-4aa7-b90a-bf3ffa4d2fc8" transform="translate(1408 348.88)">систему с единой точ<tspan class="7988679e-a3d0-4242-8489-0e248f1d2e90" x="205.28" y="0">к</tspan><tspan x="214.9" y="0">ой входа </tspan></text><text class="a008f334-883f-4aa7-b90a-bf3ffa4d2fc8" transform="translate(1408 374.88)">и онлайн-взаимодействием с <tspan class="7dce636b-ae89-4711-9a34-bd92e61470d9" x="286.46" y="0">Ц</tspan><tspan x="300.64" y="0">ентром </tspan></text><text class="a008f334-883f-4aa7-b90a-bf3ffa4d2fc8" transform="translate(1408 400.88)"><tspan class="2ce3914d-b5f9-4541-a3a6-111de31a8c9d">к</tspan><tspan x="9.64" y="0">орпоративных решений </tspan><tspan class="2dbfb687-6271-454d-9173-4d3d0961c9bc" x="240.52" y="0">(</tspan><tspan class="9b0a0b8d-27dd-42e9-8fe7-679bdc96a29e" x="246.66" y="0">ЦКР). </tspan></text><text class="a008f334-883f-4aa7-b90a-bf3ffa4d2fc8" transform="translate(1408 426.88)">В программе осуществляется кадровое </text><text class="a008f334-883f-4aa7-b90a-bf3ffa4d2fc8" transform="translate(1408 452.88)">администрирование, учет сот<tspan class="d910c9c5-e708-4fa1-bfc2-9897cbd1a3b8" x="283.44" y="0">р</tspan><tspan class="9b0a0b8d-27dd-42e9-8fe7-679bdc96a29e" x="294.68" y="0">удни</tspan><tspan class="2ce3914d-b5f9-4541-a3a6-111de31a8c9d" x="340.62" y="0">к</tspan><tspan x="350.26" y="0">ов, </tspan></text><text class="a008f334-883f-4aa7-b90a-bf3ffa4d2fc8" transform="translate(1408 478.88)">расчет заработной платы и управление </text><text class="a008f334-883f-4aa7-b90a-bf3ffa4d2fc8" transform="translate(1408 504.88)">рабочим временем.</text><text class="3509b229-b812-4c68-9069-d61e6d365d18" transform="translate(1408 126.18)">Автоматизация внутренних </text><text class="3509b229-b812-4c68-9069-d61e6d365d18" transform="translate(1408 160.17)">про<tspan class="d2d3cdce-b278-41f7-a15f-03aafe488d5c" x="50.93" y="0">ц</tspan><tspan x="68.77" y="0">ессов</tspan></text><text class="a008f334-883f-4aa7-b90a-bf3ffa4d2fc8" transform="translate(1408 688.76)">Был реализован сервис для </text><text class="a008f334-883f-4aa7-b90a-bf3ffa4d2fc8" transform="translate(1408 714.76)">предоставления аналитики о состоянии </text><text class="a008f334-883f-4aa7-b90a-bf3ffa4d2fc8" transform="translate(1408 740.76)"><tspan class="2ce3914d-b5f9-4541-a3a6-111de31a8c9d">к</tspan><tspan class="2b5a517e-2bb4-46ce-b5bd-2d6cec5372a4" x="9.64" y="0">о</tspan><tspan x="20.6" y="0">лесных пар для блока э</tspan><tspan class="08212819-fa07-44f3-984b-5f9a81ab4324" x="241.82" y="0">к</tspan><tspan class="0aadeba1-495f-452e-8388-6d3a83ef3ce3" x="251.44" y="0">сплуатации </tspan></text><text class="a008f334-883f-4aa7-b90a-bf3ffa4d2fc8" transform="translate(1408 766.76)">подвижно<tspan class="fe3cd018-3cae-489d-9f1a-f6ab8fa572b8" x="95.02" y="0">г</tspan><tspan x="103.16" y="0">о состава. На основе </tspan></text><text class="a008f334-883f-4aa7-b90a-bf3ffa4d2fc8" transform="translate(1408 792.76)">этой информации сот<tspan class="d910c9c5-e708-4fa1-bfc2-9897cbd1a3b8" x="205.94" y="0">р</tspan><tspan x="217.18" y="0">удники могут </tspan></text><text class="a008f334-883f-4aa7-b90a-bf3ffa4d2fc8" transform="translate(1408 818.76)">минимизировать подачу непри<tspan class="2dbfb687-6271-454d-9173-4d3d0961c9bc" x="294.06" y="0">г</tspan><tspan x="302.18" y="0">одных </tspan></text><text class="a008f334-883f-4aa7-b90a-bf3ffa4d2fc8" transform="translate(1408 844.76)">клиенту ва<tspan class="2dbfb687-6271-454d-9173-4d3d0961c9bc" x="103.34" y="0">г</tspan><tspan class="9b0a0b8d-27dd-42e9-8fe7-679bdc96a29e" x="111.46" y="0">онов, сократить затраты </tspan></text><text class="a008f334-883f-4aa7-b90a-bf3ffa4d2fc8" transform="translate(1408 870.76)">на отцепки в текущий ремонт и даже </text><text class="a008f334-883f-4aa7-b90a-bf3ffa4d2fc8" transform="translate(1408 896.76)">выявлять хищения <tspan class="08212819-fa07-44f3-984b-5f9a81ab4324" x="179.94" y="0">к</tspan><tspan class="a886c027-3194-48a5-9266-00d78540b3fa" x="189.56" y="0">о</tspan><tspan x="200.54" y="0">лесных па</tspan><tspan class="4fbb8175-42e4-4f33-9f67-5ea951f1925b" x="296.26" y="0">р</tspan><tspan x="307.66" y="0">.</tspan></text><text class="3509b229-b812-4c68-9069-d61e6d365d18" transform="translate(1408 596.06)">Анализ показат<tspan class="534e5b8e-9c6d-4407-9e9b-cac949a4484a" x="220.38" y="0">е</tspan><tspan x="236.43" y="0">лей </tspan></text><text class="3509b229-b812-4c68-9069-d61e6d365d18" transform="translate(1408 630.05)"><tspan class="5b54cbec-571c-45dd-9bcf-400542e9ff32">к</tspan><tspan class="2ec49fbc-63c6-4ad8-8aaa-ec0b9b93af40" x="15.43" y="0">о</tspan><tspan x="31.81" y="0">лесных пар</tspan></text><text class="a008f334-883f-4aa7-b90a-bf3ffa4d2fc8" transform="translate(762 218.88)">В 2020 <tspan class="fe3cd018-3cae-489d-9f1a-f6ab8fa572b8" x="70.42" y="0">г</tspan><tspan x="78.56" y="0">оду ПГК интегрировала «Мо</tspan></text><text class="a008f334-883f-4aa7-b90a-bf3ffa4d2fc8" transform="translate(1107.36 218.88)">-</text><text class="a008f334-883f-4aa7-b90a-bf3ffa4d2fc8" transform="translate(762 244.88)">бильный репортер ПГК» — приложение </text><text class="a008f334-883f-4aa7-b90a-bf3ffa4d2fc8" transform="translate(762 270.88)">для <tspan class="3c1221a9-4e40-4d1e-8447-dcd1d2d02d47" x="38.28" y="0">к</tspan><tspan class="15a7d217-0ef7-4d99-a582-ee263ab35bc7" x="47.92" y="0">онтр</tspan><tspan class="95662324-b777-4bb3-ac73-a1e8607cc2d4" x="92.56" y="0">о</tspan><tspan x="103.54" y="0">ля качества ва</tspan><tspan class="2dbfb687-6271-454d-9173-4d3d0961c9bc" x="241.54" y="0">г</tspan><tspan x="249.66" y="0">онов — в «Лич</tspan></text><text class="a008f334-883f-4aa7-b90a-bf3ffa4d2fc8" transform="translate(1146.48 270.88)">-</text><text class="a008f334-883f-4aa7-b90a-bf3ffa4d2fc8" transform="translate(762 296.88)">ный кабинет клиента», <tspan class="3dc18532-b231-4a6d-a336-b1510b34e5de" x="222.94" y="0">у</tspan><tspan class="0aadeba1-495f-452e-8388-6d3a83ef3ce3" x="233.18" y="0">силив таким </tspan></text><text class="a008f334-883f-4aa7-b90a-bf3ffa4d2fc8" transform="translate(762 322.88)">образом возможности обоих сервисов. </text><text class="a008f334-883f-4aa7-b90a-bf3ffa4d2fc8" transform="translate(762 348.88)">В перспективе плани<tspan class="4fe026e3-a3cd-4afe-8dc4-f9c99c4a91d3" x="201.64" y="0">р</tspan><tspan class="8bb8ca30-e414-4f87-8ac7-c7ac3525da0e" x="212.88" y="0">у</tspan><tspan x="223.12" y="0">ется транслиро</tspan></text><text class="a008f334-883f-4aa7-b90a-bf3ffa4d2fc8" transform="translate(1133.07 348.88)">-</text><text class="a008f334-883f-4aa7-b90a-bf3ffa4d2fc8" transform="translate(762 374.88)">вать опыт работы с крытыми ва<tspan class="2dbfb687-6271-454d-9173-4d3d0961c9bc" x="296.1" y="0">г</tspan><tspan x="304.22" y="0">онами </tspan></text><text class="a008f334-883f-4aa7-b90a-bf3ffa4d2fc8" transform="translate(762 400.88)">на д<tspan class="591d53ba-3c63-4373-8076-d12c9ba74b51" x="39.32" y="0">р</tspan><tspan x="50.58" y="0">угие виды подвижно</tspan><tspan class="2dbfb687-6271-454d-9173-4d3d0961c9bc" x="245.16" y="0">г</tspan><tspan class="9b0a0b8d-27dd-42e9-8fe7-679bdc96a29e" x="253.28" y="0">о состава.</tspan></text><text class="a008f334-883f-4aa7-b90a-bf3ffa4d2fc8" transform="translate(762 439.88)">Сформированная обширная цифровая база </text><text class="a008f334-883f-4aa7-b90a-bf3ffa4d2fc8" transform="translate(762 465.88)">данных позв<tspan class="2b5a517e-2bb4-46ce-b5bd-2d6cec5372a4" x="118.14" y="0">о</tspan><tspan x="129.1" y="0">ляет следить за состоянием </tspan></text><text class="a008f334-883f-4aa7-b90a-bf3ffa4d2fc8" transform="translate(762 491.88)">подвижно<tspan class="743e71ba-779b-421b-97ef-4ee631df5db9" x="95.02" y="0">г</tspan><tspan x="103.16" y="0">о состава в динами</tspan><tspan class="7988679e-a3d0-4242-8489-0e248f1d2e90" x="286.74" y="0">к</tspan><tspan x="296.36" y="0">е, </tspan></text><text class="a008f334-883f-4aa7-b90a-bf3ffa4d2fc8" transform="translate(762 517.88)">своевременно проводить ремонты </text><text class="a008f334-883f-4aa7-b90a-bf3ffa4d2fc8" transform="translate(762 543.88)">и подавать клиентам б<tspan class="2b5a517e-2bb4-46ce-b5bd-2d6cec5372a4" x="214.72" y="0">о</tspan><tspan x="225.68" y="0">лее качественные </tspan></text><text class="a008f334-883f-4aa7-b90a-bf3ffa4d2fc8" transform="translate(762 569.88)">ва<tspan class="fe3cd018-3cae-489d-9f1a-f6ab8fa572b8" x="21.56" y="0">г</tspan><tspan x="29.7" y="0">оны. Бла</tspan><tspan class="79114ebe-03b0-4694-8f2d-e96d950d65f4" x="110.46" y="0">г</tspan><tspan x="118.58" y="0">одаря этому сервису </tspan></text><text class="a008f334-883f-4aa7-b90a-bf3ffa4d2fc8" transform="translate(762 595.88)">на <tspan class="2ce3914d-b5f9-4541-a3a6-111de31a8c9d" x="27.8" y="0">к</tspan><tspan x="37.44" y="0">онец 2020 </tspan><tspan class="79114ebe-03b0-4694-8f2d-e96d950d65f4" x="140.82" y="0">г</tspan><tspan class="15a7d217-0ef7-4d99-a582-ee263ab35bc7" x="148.94" y="0">ода оцифрованы данные </tspan></text><text class="a008f334-883f-4aa7-b90a-bf3ffa4d2fc8" transform="translate(762 621.88)">о техничес<tspan class="7988679e-a3d0-4242-8489-0e248f1d2e90" x="103.56" y="0">к</tspan><tspan class="15a7d217-0ef7-4d99-a582-ee263ab35bc7" x="113.18" y="0">ом состоянии б</tspan><tspan class="4d34367f-723b-4b6d-ac24-1bbc8b886fbd" x="259.12" y="0">о</tspan><tspan x="270.1" y="0">лее 70</tspan></text><text class="a008f334-883f-4aa7-b90a-bf3ffa4d2fc8" transform="translate(1092.36 621.88)"> </text><text class="a008f334-883f-4aa7-b90a-bf3ffa4d2fc8" transform="translate(1093.18 621.88)">% парка </text><text class="a008f334-883f-4aa7-b90a-bf3ffa4d2fc8" transform="translate(762 647.88)">крытых ва<tspan class="743e71ba-779b-421b-97ef-4ee631df5db9" x="95.12" y="0">г</tspan><tspan x="103.26" y="0">онов.</tspan></text><text class="3509b229-b812-4c68-9069-d61e6d365d18" transform="translate(762 126.18)">Мобильный</text><text class="3509b229-b812-4c68-9069-d61e6d365d18" transform="translate(923.78 126.18)"> </text><text class="3509b229-b812-4c68-9069-d61e6d365d18" transform="translate(762 160.17)">репортер ПГК</text><text class="3509b229-b812-4c68-9069-d61e6d365d18" transform="translate(761.5 843.99)">СФОРМИРОВАННАЯ </text><text class="3509b229-b812-4c68-9069-d61e6d365d18" transform="translate(761.5 877.98)">ОБШИРНАЯ ЦИФРОВАЯ БАЗА </text><text class="3509b229-b812-4c68-9069-d61e6d365d18" transform="translate(761.5 911.97)">ДАННЫХ ПОЗВ<tspan class="dc731af8-ec10-4ed1-b3f7-6f9d130b6b3e" x="208.21" y="0">О</tspan><tspan x="227.41" y="0">ЛЯЕТ СЛЕДИТЬ </tspan></text><text class="3509b229-b812-4c68-9069-d61e6d365d18" transform="translate(761.5 945.96)">ЗА<tspan class="1b02f627-5f66-4cf6-b995-53b42aac69ff" x="37.55" y="0"> </tspan><tspan class="15d52eb6-1439-4c1a-a690-f393ddbdf809" x="43.65" y="0">СОСТОЯНИЕМ</tspan><tspan class="0903ae2b-a22c-43ba-8b93-416c98ec81ba" x="238.92" y="0"> </tspan><tspan x="245.03" y="0">ПОДВИЖНО</tspan><tspan class="0903ae2b-a22c-43ba-8b93-416c98ec81ba" x="415.15" y="0">Г</tspan><tspan class="4bb68072-c95b-449c-91f7-ea6431741e5f" x="430.1" y="0">О </tspan></text><text class="3509b229-b812-4c68-9069-d61e6d365d18" transform="translate(761.5 979.96)">СОСТАВА В ДИНАМИКЕ</text><path class="c3e5bbee-b85d-4274-a6e2-ed6eed9bf3ba" d="M739.4,827.25a6.91,6.91,0,0,0-5.9-2.85,7,7,0,0,0-5.45,2.25,7.54,7.54,0,0,0-2,5.25,7.67,7.67,0,0,0,2,5.25,6.41,6.41,0,0,0,5,2.25,7.56,7.56,0,0,0,1.8-.2,2.35,2.35,0,0,0,.7-.3,7,7,0,0,1-2.65,4.75A7.73,7.73,0,0,1,728,845.4v3.5a14.63,14.63,0,0,0,4.85-.85,11.78,11.78,0,0,0,4.35-2.7,14,14,0,0,0,3.1-4.7,17.32,17.32,0,0,0,1.2-6.75,10.91,10.91,0,0,0-2.1-6.65m-20,0a6.91,6.91,0,0,0-5.9-2.85,7,7,0,0,0-5.45,2.25,7.54,7.54,0,0,0-2,5.25,7.67,7.67,0,0,0,2,5.25,6.41,6.41,0,0,0,5,2.25,7.56,7.56,0,0,0,1.8-.2,2.35,2.35,0,0,0,.7-.3,7,7,0,0,1-2.65,4.75A7.73,7.73,0,0,1,708,845.4v3.5a14.63,14.63,0,0,0,4.85-.85,11.78,11.78,0,0,0,4.35-2.7,14,14,0,0,0,3.1-4.7,17.32,17.32,0,0,0,1.2-6.75,10.91,10.91,0,0,0-2.1-6.65"/><text class="a008f334-883f-4aa7-b90a-bf3ffa4d2fc8" transform="translate(38.87 57)">37</text><text class="a008f334-883f-4aa7-b90a-bf3ffa4d2fc8" transform="translate(99 57)">О <tspan class="3c1221a9-4e40-4d1e-8447-dcd1d2d02d47" x="18.4" y="0">к</tspan><tspan x="28.04" y="0">омпании</tspan></text></svg>