<?xml version="1.0" encoding="UTF-8" standalone="no"?>
<?xml-stylesheet type="text/css" href="/pgk/main.css" ?>
<svg
   xmlns:dc="http://purl.org/dc/elements/1.1/"
   xmlns:cc="http://creativecommons.org/ns#"
   xmlns:rdf="http://www.w3.org/1999/02/22-rdf-syntax-ns#"
   xmlns:svg="http://www.w3.org/2000/svg"
   xmlns="http://www.w3.org/2000/svg"
   version="1.1"
   id="svg2"
   xml:space="preserve"
   width="2560"
   height="1440"
   viewBox="0 0 2560 1440"><metadata
     id="metadata8"><rdf:RDF><cc:Work
         rdf:about=""><dc:format>image/svg+xml</dc:format><dc:type
           rdf:resource="http://purl.org/dc/dcmitype/StillImage" /></cc:Work></rdf:RDF></metadata><defs
     id="defs6"><clipPath
       clipPathUnits="userSpaceOnUse"
       id="clipPath20"><path
         d="M 0,1080 H 1920 V 0 H 0 Z"
         id="path18" /></clipPath><clipPath
       clipPathUnits="userSpaceOnUse"
       id="clipPath202"><path
         d="M 0,0 H 1920 V 1080 H 0 Z"
         id="path200" /></clipPath><clipPath
       clipPathUnits="userSpaceOnUse"
       id="clipPath210"><path
         d="m 1514.06,114.094 h 14.95 V 99 h -14.95 z"
         id="path208" /></clipPath><clipPath
       clipPathUnits="userSpaceOnUse"
       id="clipPath224"><path
         d="m 1660.4,654.906 h 14.94 v -15.093 h -14.94 z"
         id="path222" /></clipPath><clipPath
       clipPathUnits="userSpaceOnUse"
       id="clipPath238"><path
         d="m 1660.4,114.094 h 14.94 V 99 h -14.94 z"
         id="path236" /></clipPath><clipPath
       clipPathUnits="userSpaceOnUse"
       id="clipPath270"><path
         d="M 0,0 H 1920 V 1080 H 0 Z"
         id="path268" /></clipPath><clipPath
       clipPathUnits="userSpaceOnUse"
       id="clipPath290"><path
         d="M 0,0 H 1920 V 1080 H 0 Z"
         id="path288" /></clipPath><clipPath
       clipPathUnits="userSpaceOnUse"
       id="clipPath298"><path
         d="M 1366.06,335.271 H 1822 v -37.156 h -455.94 z"
         id="path296" /></clipPath><clipPath
       clipPathUnits="userSpaceOnUse"
       id="clipPath318"><path
         d="M 0,0 H 1920 V 1080 H 0 Z"
         id="path316" /></clipPath><clipPath
       clipPathUnits="userSpaceOnUse"
       id="clipPath326"><path
         d="M 1366.06,268.093 H 1822 v -37.156 h -455.94 z"
         id="path324" /></clipPath><clipPath
       clipPathUnits="userSpaceOnUse"
       id="clipPath340"><path
         d="m 1366.06,268.078 h 92.85 v -37.156 h -92.85 z"
         id="path338" /></clipPath><clipPath
       clipPathUnits="userSpaceOnUse"
       id="clipPath358"><path
         d="M 0,0 H 1920 V 1080 H 0 Z"
         id="path356" /></clipPath><clipPath
       clipPathUnits="userSpaceOnUse"
       id="clipPath366"><path
         d="M 1366.06,200.9 H 1822 v -37.156 h -455.94 z"
         id="path364" /></clipPath><clipPath
       clipPathUnits="userSpaceOnUse"
       id="clipPath380"><path
         d="m 1366.06,200.9 h 78.97 v -37.156 h -78.97 z"
         id="path378" /></clipPath><clipPath
       clipPathUnits="userSpaceOnUse"
       id="clipPath400"><path
         d="M 0,1080 H 1920 V 0 H 0 Z"
         id="path398" /></clipPath></defs><g
     id="g10"
     transform="matrix(1.3333333,0,0,-1.3333333,0,1440)"><g
       id="g12"><g
         id="g14"><g
           id="g16"
           clip-path="url(#clipPath20)"><path
             d="M 0,0 H 1920 V 1080 H 0 Z"
             style="fill:#ffffff;fill-opacity:1;fill-rule:nonzero;stroke:none"
             id="path22" /></g></g></g><text
       transform="matrix(1,0,0,-1,99,960.4)"
       style="font-variant:normal;font-weight:500;font-stretch:normal;font-size:28px;font-family:'Rubik Medium';-inkscape-font-specification:Rubik-Medium;writing-mode:lr-tb;fill:#000000;fill-opacity:1;fill-rule:nonzero;stroke:none"
       id="text26"><tspan
         x="0 21.308001 38.779999 55.16 71.344002 87.360001 102.228 119.7 137.564 155.036 172.508 1188.012 1209.3199 1224.328 1244.04 1260.224 1277.696 1293.88 1311.3521 1328.824 1345.0081 1351.392 1367.408 1382.276 1398.8772 1414.8932 1430.9373 1445.8052 1461.8212 1479.0132 1500.5172 1506.9012 1524.5132 1540.8624 1557.7744 1570.2625 1586.2784"
         y="0"
         id="tspan24">Инвестиции Изменение структуры долга </tspan></text><text
       transform="matrix(1,0,0,-1,1287.012,926.408)"
       style="font-variant:normal;font-weight:500;font-stretch:normal;font-size:28px;font-family:'Rubik Medium';-inkscape-font-specification:Rubik-Medium;writing-mode:lr-tb;fill:#000000;fill-opacity:1;fill-rule:nonzero;stroke:none"
       id="text30"><tspan
         x="0 16.379999 22.764 40.124001 58.576 75.935997 94.388 100.772 113.008 129.612 147.224 163.24001 169.62399 178.97321 198.6852 215.5972 233.0692 239.4532 256.05719 272.07321 288.8172 296.34921"
         y="0"
         id="tspan28">в 2020 году (млн руб.)</tspan></text><text
       transform="matrix(1,0,0,-1,1287,362)"
       style="font-variant:normal;font-weight:300;font-stretch:normal;font-size:20px;font-family:'Rubik Light';-inkscape-font-specification:Rubik-Light;writing-mode:lr-tb;fill:#000000;fill-opacity:1;fill-rule:nonzero;stroke:none"
       id="text34"><tspan
         x="0 11.12 19.08 22.48 30.440001 41.639999 46.400002 57.599998 69.919998 81.120003"
         y="0"
         id="tspan32">31.12.2020</tspan></text><text
       transform="matrix(1,0,0,-1,693,960.4)"
       style="font-variant:normal;font-weight:500;font-stretch:normal;font-size:28px;font-family:'Rubik Medium';-inkscape-font-specification:Rubik-Medium;writing-mode:lr-tb;fill:#000000;fill-opacity:1;fill-rule:nonzero;stroke:none"
       id="text40"><tspan
         x="0 25.004 42.476002 59.948002 75.963997 93.435997 109.452 126.056 142.436 158.452 174.58 180.964 198.10001 214.4492 231.36121 248.83321 263.7012 281.17319 297.21719 313.23318 319.61719 337.0892 343.47321 359.4892 376.62521 393.8172 409.83319 426.2132 443.12521 459.3092 476.78119 494.2532 510.43719"
         y="0"
         id="tspan36">Финансовая политика и управление </tspan><tspan
         x="0 17.612 33.964001 50.875999 63.112 79.716003 96.096001 117.6 137.312 143.696 160.832 177.436 194.62801 209.496 230.888 246.9292 263.84119 280.02521"
         y="33.992001"
         id="tspan38">долговым портфелем</tspan></text><text
       transform="matrix(1,0,0,-1,99,902.05)"
       style="font-variant:normal;font-weight:300;font-stretch:normal;font-size:20px;font-family:'Rubik Light';-inkscape-font-specification:Rubik-Light;writing-mode:lr-tb;fill:#000000;fill-opacity:1;fill-rule:nonzero;stroke:none"
       id="text82"><tspan
         x="0 13.06 18.219999 29.42 41.740002 52.939999 65.260002 70.419998 78.540001 89.699997 101.22 111.8 116.96 128.64 139.8 153.08 164.60001 175.32001 187.24001 199.16 209.53999 214.7 226.22 237.84 249 260.51999 271.478 282.698 297.67801 309.59799 320.81799 331.53799 336.698 348.61801 360.53799 371.37799 382.298 393.01801 402.95801 414.87799 426.49799 437.65799 448.49799 459.21799 469.15799 478.67801"
         y="0"
         id="tspan42">В 2020 году Компания продолжила инвестировать </tspan><tspan
         x="0 10.84 16 27.52 39.139999 51.060001 62.220001 73.559998 85.18 96.099998 106.04 116.96 128.88 140.8 151.72 156.88 168.39999 179.12 190.74001 200.86 211.58 216.74001 227.58 232.74001 244.25999 255.88 267.79999 278.95999 290.57999 302.5 312.44 323.35999 333.29999 345.22 358.39999 368.76001 373.92001 384.64001 395.56 403.92001 417.20001 428.12 440.04001 449.98001 460.70001 471.06"
         y="26"
         id="tspan44">в приобретение парка в приоритетных сегментах </tspan><tspan
         x="0 11.34 23.26 33.099998 45.02 55.939999 66.660004 77.379997 82.139999 87.300003 100.54 111.88 127.78 139.7 151.62 156.78 167.94 179.28 190.06 200.98 214.25999 219.42 230.25999 241.48 252.64 267.62 278.54001 290.45999 302.38 314.29999 319.45999 330.29999 335.45999 346.98001 358.14001 369.66 380.5 392.42001 407.39999 419.32001 430.48001 442.39999 447.56 458.28 469.44 480.16 490.10001 500.82001 511.66"
         y="52"
         id="tspan46">бизнеса. Общий объем вложений в подвижной состав </tspan><tspan
         x="0 10.72 21.879999 32.599998 42.540001 53.259998 64.099998 76.019997 87.239998 92.400002 104.04 108.178 117.918 123.078 136.358 147.578 159.198 170.718 175.87801 187.118 197.698 209.03799 220.258 231.17799 243.09801 247.858 253.01801 264.69601 275.85599 289.13599 300.65601 311.37601 323.29599 335.216 345.59601 350.75601 362.276 373.896 385.81601 396.97601 408.31601 419.936 430.77399 441.99399 452.71399 457.87399 469.07401 473.534 485.17401 490.33401 500.27399 513.45398 524.17401 528.93402"
         y="78"
         id="tspan48">составил 6,7 млрд рублей. Компания приобрела 2,6 тыс. </tspan><tspan
         x="0 10.84 21.559999 29.68 40.84 52.759998 63.919998 74.760002 79.5 84.660004 95.5 105.62 116.84 132.10001 142.64 153.36 163.74001 168.89999 176.86 181.60001 192.8 197.96001 207.89999 221.08 231.8 236.56 241.72 252.08 263.23999 274.76001 286.28 297.20001 308.82001 319.98001 330.82001 340.56 352.57999 363.5 376.78 387.70001 399.62 409.56 420.72 431.56 442.72 452.56 463.72 474.56 479.29999 484.45999 495 504.94 516.09998"
         y="104"
         id="tspan50">вагонов, включая 1,2 тыс. хопперов-цементовозов, что </tspan><tspan
         x="0 11.52 22.68 32.52 43.360001 54.32 65.540001 77.459999 88.68 99.839996 105 114.84 126.76 137.48 148.02 159.94 169.88 180.718 191.938 201.45799 213.37801 224.53799 229.698 240.278 251.118 261.95599 273.17599 285.09601 295.63599 307.556 317.496 327.01599 332.17599 343.69601 354.65601 365.87601 381.13599 386.29599 400.29599 410.396 422.67599 427.836 438.67599 443.836 454.556 465.47601 473.836 487.116 498.03601 509.95599 519.896 530.81598"
         y="130"
         id="tspan52">позволило значительно увеличить долю ПГК в сегменте </tspan><tspan
         x="0 11.52 22.440001 34.060001 44.98 55.82 66.980003 76.82 87.980003 98.099998 103.26 115.28 126.2 139.48 150.39999 162.32001 172.25999 182.98 188.14 200.06 205.22 218.5 230.42 242.34 253.25999 264.88 275.60001 286.82001 296.34 308.26001 321.44 331.79999 336.95999 347.54001 359.06 370.22 381.56 393.17999 404.10001 416.01999 427.94 439.85999"
         y="156"
         id="tspan54">перевозок цемента и минеральных удобрений.</tspan><tspan
         x="0 13.02 24.24 35.16 46.68 57.259998 67.639999 72.800003 83.519997 93.459999 105.08 115.8 125.74 136.66 145.02 156.94 168.86 174.02 186.03999 197.96001 211.53999 223.16 234.32001 245.16 256.32001 268.23999 273.39999 283.34 294.95999 305.67999 317.60001 328.32001 341.89999 353.06 364.67999 377.95999 388.67999 400.70001 412.62 424.54001 429.28 434.44 448.44 458.54001 470.82001"
         y="208"
         id="tspan56">Следуя стратегии цифровой трансформации, ПГК </tspan><tspan
         x="0 11.92 23.84 34.68 45.599998 56.32 66.260002 78.18 89.800003 100.96 111.8 122.52 133.74001 144.46001 149.62 161.558 166.298 177.73801 182.89799 196.17799 207.39799 219.01801 230.53799 235.698 246.936 257.51599 268.85599 280.07599 290.996 302.91599 308.07599 318.91599 324.07599 329.09601 338.91599 348.65601 360.17599 371.79599 382.95599 393.87601 403.996 413.936 427.116 431.85599 437.01599 447.85599 457.97601 469.19601 484.45599 494.996 505.716 516.09601"
         y="234"
         id="tspan58">инвестировала 0,5 млрд рублей в IT-проекты, включая </tspan><tspan
         x="0 11.52 22.24 33.459999 42.98 54.900002 65.82 77.739998 93.120003 104.04 114.96 120.12 131.74001 142.46001 152.3 163.14 175.06 185 196.92 207.84 213 224.52 235.74001 246.46001 256.39999 269.98001 281.14001 292.76001 306.04001 319.22 324.38 336.276 349.276 360.276 365.01599 370.17599 382.19601 394.116 407.69601 419.31601 430.47601 441.31601 454.496 464.85599"
         y="260"
         id="tspan60">дальнейшее развитие платформы SAP, цифровых </tspan><tspan
         x="0 10.12 21.34 33.259998 44.18 56.099998 66.040001 76.760002 86.879997 98.800003 109.16 114.32 125.04 135.96001 147.58 158.42 170.34 181.06 192.22 203.06 208.22 220.14 225.3 236.82001 248.44 259.60001 270.51999 280.64001 290.57999 301.73999 312.57999 317.73999 329.26001 340.42001 345.57999 356.29999 367.14001 377.07999 388.23999 401.51999 412.23999 422.17999 434.10001 443.94 454.66 466.67999 478.60001 490.51999"
         y="286"
         id="tspan62">клиентских сервисов и проектов по автоматизации </tspan><tspan
         x="0 11.34 23.26 33.099998 45.02 55.939999 66.660004 76.400002 87.919998 99.540001 110.7 122.72 133.64 144.36 155.08 166.24001 177.08 181.82001 186.98 198.5 209.66 220.5 233.67999 249.06 259.78 275.04001 290.94 302.85999 313.22 318.38 329.89999 341.51999 352.67999 364.60001 374.44 385.28 396.44 407.95999 419.88 429.82001 440.65601 451.87601 461.396 473.31601 484.47601 495.19601 505.13599 514.65601"
         y="312"
         id="tspan64">бизнес-процессов, повышающих производительность </tspan><tspan
         x="0 9.9399996 21.18 31.76 43.279999 54 59.16 71.080002 76.239998 86.360001 97.080002 107.62 118.54 129.25999 139.2 150.03999 161.2 166.36 177.52 188.86 199.58 210.8 221.38 236.36 248.28 259.12 269.84 281.76001 293.67999 304.06 309.22 319.34 330.56 342.48001 353.39999 365.32001 375.26001 386.42001 397.26001 402.42001 414.09601 425.25601 438.53601 450.056 460.776 472.69601 484.616 496.53601"
         y="338"
         id="tspan66">труда и качество обслуживания клиентов Компании.</tspan><tspan
         x="0 13.06 18.219999 28.940001 40.099998 51.259998 61.200001 72.040001 82.959999 92.900002 103.62 113.56 124.4 136.32001 148.24001 153.39999 164.12 169.28 181.2 193.12 203.96001 214.88 225.60001 235.53999 247.46001 259.48001 271.39999 282.56 294.48001 306.39999 319.57999 332.85999 344.78 349.94 361.10001 372.44 382.82001 392.66 403.38 413.32001 424.15601 435.37601 444.896 455.616 465.556 476.396 487.116 500.396 512.31598"
         y="390"
         id="tspan68">В соответствии с инвестиционными обязательствами </tspan><tspan
         x="0 11.52 22.68 27.84 39.360001 50.52 58.639999 69.800003 80.639999 91.800003 103.42 114.14 127.42 132.58 143.3 154.92 165.84 177.75999 189.28 202.46001 207.62 219.14 230.75999 241.92 255.2 268.38 279.22 290.38 300.92001 312.84 324 333.73999 345.26001 356.88 368.04001 379.56 390.28 401.89999 413.06 423.60001 435.51999 448.70001 459.06"
         y="416"
         id="tspan70">по договорам аренды промывочно-пропарочных </tspan><tspan
         x="0 10.72 20.66 31.379999 43.299999 55.32 67.239998 79.160004 84.32 90.458 104.458 118.458 131.478 137.858 143.01801 153.858 159.01801 170.218 182.53799 193.73801 206.058 211.218 219.338 230.498 242.01801 252.59801 257.758 269.43799 280.59799 293.87799 305.39801 316.11801 328.03799 339.95801 350.33801 355.49799 365.33801 376.05801 386.89801 397.81799 409.43799 424.81799 436.73801 447.95801 458.67801"
         y="442"
         id="tspan72">станций (ППС) в 2020 году Компания завершила </tspan><tspan
         x="0 11.62 22.540001 32.16 43.32 55.240002 65.959999 75.900002 87.139999 97.720001 107.84 119.86 131.78 147.03999 152.2 162.92 174.53999 185.25999 195.10001 205.67999 210.84 222.36 233.2 243.78 254.14 259.29999 270.01999 279.95999 290.67999 302.60001 314.62 326.54001 338.45999 343.62 359.04001 364.20001 378.20001 392.20001 405.22 410.38 423.38 433.92001 445.84 457.76001 468.48001 478.60001"
         y="468"
         id="tspan74">реконструкцию сразу двух станций — ППС Ачинск </tspan><tspan
         x="0 11.92 17.08 31.08 45.080002 58.099998 63.259998 76.5 87.220001 98.139999 110.06 122.08 135.25999 140 145.16 155.88 161.03999 170.98 181.7 191.82001 206.8 217.72 222.88 232.72 243.44 254.28 265.20001 276.82001 292.20001 304.12 315.34 326.06 331.22 342.73999 353.66 365.28 376.12 389.29999 401.22 406.38 417.10001 427.04001 437.76001 449.28"
         y="494"
         id="tspan76">и ППС Осенцы, а также завершила первый этап </tspan><tspan
         x="0 11.62 22.540001 32.16 43.32 55.240002 65.959999 75.900002 87.139999 97.720001 107.84 119.86 131.78 143.7 148.86 158.98 170.218 180.798 192.31799 204.23801 215.158 227.078 242.45799 253.37801 265.298 270.45801 281.17801 291.11801 301.83801 313.758 325.77802 337.698 349.61801 354.77802 365.61801 370.77802 381.49799 393.11801 404.03799 415.95801 427.478 438.39801 443.55801 454.138"
         y="520"
         id="tspan78">реконструкции крупнейшей станции в аренде у </tspan><tspan
         x="0 14 24.1 36.380001 41.540001 56.959999 62.119999 76.120003 90.120003 103.14 108.3 119.978 131.138 144.418 155.758 167.67799 179.59801 190.31799 200.258 210.978 221.09801 231.81799 242.198 246.95799 252.118 265.358 276.698 292.59799 304.51801 316.43799 321.59799 332.758 344.09799 354.87799 365.798 379.078 384.23801 396.15799 408.078 418.918 429.83801 440.55801 450.49799 462.418 474.43799 486.358"
         y="546"
         id="tspan80">ПГК — ППС Комбинатская. Общий объем инвестиций</tspan></text><text
       transform="matrix(1,0,0,-1,597.2739,362.7101)"
       style="font-variant:normal;font-weight:300;font-stretch:normal;font-size:11.66px;font-family:'Rubik Light';-inkscape-font-specification:Rubik-Light;writing-mode:lr-tb;fill:#000000;fill-opacity:1;fill-rule:nonzero;stroke:none"
       id="text86"><tspan
         x="0 4.6406798"
         y="0"
         id="tspan84">1 </tspan></text><text
       transform="matrix(1,0,0,-1,99,330.05)"
       style="font-variant:normal;font-weight:300;font-stretch:normal;font-size:20px;font-family:'Rubik Light';-inkscape-font-specification:Rubik-Light;writing-mode:lr-tb;fill:#000000;fill-opacity:1;fill-rule:nonzero;stroke:none"
       id="text130"><tspan
         x="0 10.84 16 27.620001 38.540001 48.16 59.32 71.239998 81.959999 91.900002 103.138 113.718 123.838 135.858 147.778 163.03799 168.198 178.918 190.078 200.798 210.73801 221.45799 232.298 244.218 255.438 260.59799 272.53799 277.27802 288.478 293.638 306.918 318.138 329.758 341.27802 346.43799 357.67599 368.25601 379.59601 390.81601 401.73599 413.65601"
         y="0"
         id="tspan88">в реконструкцию составил 0,2 млрд рублей.</tspan><tspan
         x="0 13.06 24.280001 35.439999 50.419998 61.34 73.260002 85.18 95.559998 100.72 111.56 116.72 128.34 139.25999 152.53999 163.7 175.62 185.56 190.3 195.46001 205.3 216.02 226.14 236.72 248.24001 258.35999 268.94 274.10001 283.716 294.67599 305.896 316.81601 327.53601 339.45599 352.63599 362.996 368.15601 379.67599 390.396 402.01599 407.17599 419.09601 424.25601 435.47601 447.396 457.336 470.51599 480.87601"
         y="52"
         id="tspan90">Вложения в ремонт, закупку колесных пар и литых </tspan><tspan
         x="0 11.52 22.440001 32.380001 43.099998 54.32 65.239998 77.160004 82.32 93.040001 104.2 114.92 124.86 135.58 146.42 158.34 169.56 181.48 186.64 194.60001 206.53799 210.338 221.778 226.938 240.218 251.438 263.05801 274.578 279.73801 290.97601 301.556 312.896 324.116 335.03601 346.95599 351.69601 356.85599 367.396 377.336 388.496 393.65601 405.57599 416.29599 421.45599 432.97601 437.716 448.91599 454.07599 467.35599 478.57599 490.19601 501.716"
         y="78"
         id="tspan92">деталей составили 10,9 млрд рублей, что на 3,2 млрд </tspan><tspan
         x="0 11.24 21.82 33.16 44.380001 55.299999 67.220001 72.379997 85.660004 96.580002 108.5 118.02 133.39999 144.32001 149.48 161 172.16 182.28 193 202.84 213.56 223.5 234.336 245.556 255.936 261.09601 272.616 284.23599 295.396 310.776 321.996 333.15601 341.276 352.436 357.59601 365.716 376.87601 388.396 399.116"
         y="104"
         id="tspan94">рублей меньше показателя прошлого года.</tspan><tspan
         x="594 607.06 612.21997 623.41998 635.73999 646.94 659.26001 664.41998 672.53998 683.70001 695.21997 705.79999 710.96002 724.20001 735.53998 751.44 762.35999 773.08002 783.02002 793.85999 805.02002 810.17999 821.70001 833.32001 844.47998 856 866.95801 878.17798 893.15802 905.078 916.29797 927.45801 932.61798 942.73798 953.31799 964.93799 975.65802 980.81799 992.73798 1003.458 1008.618 1019.778 1031.298 1041.238 1053.158 1066.438 1078.358 1088.198 1098.918 1110.938 1122.858 1138.118"
         y="-536.26001"
         id="tspan96">В 2020 году Общество продолжило курс на оптимизацию </tspan><tspan
         x="594 604.12 615.73999 626.65997 638.17999 650.09998 660.03998 671.96002 683.12 691.23999 702.40002 707.56 719.08002 730.23999 741.85999 751.79999 765.38 776.21802 787.43799 797.81799"
         y="-510.26001"
         id="tspan98">кредитного портфеля.</tspan><tspan
         x="594 607.06 612.21997 622.94 634.46002 646.08002 656.91998 668.14001 679.06 684.21997 695.41998 707.73999 718.94 731.26001 736.41998 744.53802 755.698 767.21802 777.93799 783.09802 797.09802 807.198 819.47803 824.638 836.15802 847.11798 858.33801 870.258 881.41803 892.138 902.078 911.59802 926.85797 932.01801 943.53802 954.698 963.05798 973.77802 984.49799 996.41803 1007.638 1018.358 1023.518 1034.678 1045.3979 1055.338 1066.058 1076.8979 1092.278 1102.858 1118.118 1128.838 1139.218"
         y="-458.26001"
         id="tspan100">В апреле 2020 года ПГК полностью погасила оставшуюся </tspan><tspan
         x="594 604.53998 615.26001 625.97998 635.91998 645.44 650.59998 661.76001 673.09998 684.32001 696.23999 704.59998 715.32001 727.34003 739.26001 750.41998 762.34003 774.26001 785.41998 793.53802 804.698 809.85797 820.698 833.87799 845.39801 855.638 866.35797 876.47803 887.198 892.35797 903.078 913.99799 925.61798 937.53802 949.45801 954.61798 966.93799 978.45801 983.198 988.35797 999.97803 1010.698 1020.538 1033.818 1044.738 1060.6379 1071.558 1083.478 1095.3979 1106.558 1114.674 1125.834"
         y="-432.26001"
         id="tspan102">часть облигационного выпуска серии 03, размещенного </tspan><tspan
         x="594 604.84003 610 621.20001 633.52002 641.47998 652.91998 658.08002 666.20001 677.35999 688.88 699.46002 704.62 715.34003 720.5 730.62 741.20001 752.71997 763.88 775.79999 786.96002 800.23999 805.40002 813.35999 821.32001 825.81799 838.17798 852.99799 858.15802 866.27802 877.43799 888.95801 900.11798 910.95801 924.138 934.49799 939.23798 944.39801 956.31799 967.03802 972.198 982.91803 993.49799 1006.778 1020.058 1030.6379 1035.798 1046.998 1051.356 1063.676"
         y="-406.26001"
         id="tspan104">в 2015 году с купоном 11,8% годовых, на сумму 2,0 </tspan><tspan
         x="594 607.28003 618.5 630.41998 635.58002 646.82001 657.40002 668.73999 679.96002 690.88 702.79999 707.56 712.71997 723.85999 734.58002 744.70001 759.67999 770.59998 775.76001 787.43799 798.59802 811.87799 823.39801 834.11798 846.03802 857.95801 868.33801 873.49799 885.01801 896.638 907.79797 918.638 929.47601 940.69598 951.41602 956.57599 966.81403 977.534 989.05402 999.974 1015.354 1027.274 1040.454 1051.374"
         y="-380.26001"
         id="tspan106">млн рублей. Также Компания провела успешные </tspan><tspan
         x="594 605.52002 616.44 628.06 638.97998 647.09998 658.26001 669.09998 680.26001 691.88 705.06 710.21997 720.94 726.09998 737.32001 749.23999 759.08002 771 782.91998 791.03802 802.198 813.03802 826.21802 839.49799 851.41803 856.578 866.198 877.35797 890.638 902.15802 912.87799 924.79797 936.71802 947.09802 960.37799 972.29797 977.45801 988.97803 1000.138 1005.298 1016.018 1027.938 1039.858 1054.838 1065.7581 1077.678 1089.598 1104.858"
         y="-354.26001"
         id="tspan108">переговоры с лизинговыми компаниями по снижению </tspan><tspan
         x="594 604.71997 614.65997 625.82001 637.73999 651.02002 662.17999 672.90002 682.84003 694.76001 699.91998 711.44 723.06 734.97998 745.82001 757.03998 767.96002 778.5 789.41998 801.34003 813.26001 826.44 836.79999 841.96002 853.58002 864.5 875.21997 885.79999 897.41998 908.14001 919.29999 930.14001 935.29999 950.71997 955.88 966.59998 978.21997 989.14001 1000.66 1012.58 1022.96 1033.34 1038.5 1049.22 1059.16 1069.88 1080.72 1090.84 1101.5601"
         y="-328.26001"
         id="tspan110">стоимости привлеченных ресурсов — средняя ставка </tspan><tspan
         x="594 605.52002 616.67999 621.84003 633.35999 644.52002 656.14001 666.08002 679.65997 690.49799 701.71802 716.97803 722.138 732.85797 744.77802 756.698 766.53802 778.45801 789.67798 800.39801 811.11798 820.638 825.79797 836.51801 841.67798 849.638 861.57599 864.95599 872.91602 880.87598 895.69598 900.85602 912.37598 923.53601 928.69598 937.05603 941.79602 953.23602 962.97601 977.79602 982.55603 987.716 998.19598 1009.036 1019.876 1031.0959 1043.016 1053.556 1064.476 1076.396 1088.316 1099.236"
         y="-302.26001"
         id="tspan112">по портфелю снизилась с 10,11% до 7,57%. Увеличение </tspan><tspan
         x="594 605.52002 616.47998 627.70001 636.06 646.78003 651.94 663.46002 674.62 679.78003 693.35999 705.28003 717.20001 727.91998 739.84003 750.56 761.71997 772.56 783.71997 797 807.58002 812.73999 823.96002 835.88 845.71997 857.64001 869.56 877.91998 888.5 893.65997 904.38 915.21997 925.59998 935.44 946.15997 958.08002 969.23999 974.40002 985.12 990.28003 1001.44 1011.38 1023 1033.72 1048.7 1059.62 1071.54 1083.46 1094.38 1107.66"
         y="-276.26001"
         id="tspan114">долга по финансовому лизингу связано с отражением </tspan><tspan
         x="594 605.52002 617.14001 629.06 639.90002 651.12 662.03998 672.58002 683.5 695.41998 707.34003 718.5 726.61798 737.77802 742.93799 753.77802 758.93799 770.138 782.45801 793.65802 805.97803 811.138 819.258 830.41803 841.93799 852.51801 857.67798 869.198 879.91803 891.53802 901.65802 912.37799 917.53802 929.05798 940.01599 951.23602 961.81598 972.65601 983.37598 991.49597 1002.656 1014.576 1025.736 1036.576"
         y="-250.25999"
         id="tspan116">привлеченного в 2020 году парка полувагонов </tspan><tspan
         x="594 605.91998 611.08002 623.09998 635.02002 645.73999 655.67999 666.59998 678.21997 690.14001 695.29999 705.41998 716.14001 726.26001 731.41998 742.94 753.89801 765.11798 773.23798 784.39801 795.11798 806.73798 817.89801 828.43799 840.35797 851.51801 863.43799 868.59802 879.31799 890.93799 901.85797 913.77802 925.29797 938.47803 943.638 955.15802 966.31799 971.47803 982.198 992.138 1002.858 1014.778 1026.298 1037.0179 1048.6379 1058.578 1069.298 1082.578"
         y="-224.25999"
         id="tspan118">и цистерн как долгосрочной аренды по стандартам </tspan><tspan
         x="594 599.02002 610.41998 623.21997 635.32001 640.47998 648.44 660.08002 664.84003 670 683.06 688.21997 699.84003 710.76001 720.59998 730.59802 741.81799 751.33801 761.27802 771.99799 781.93799 792.85797 798.01801 809.17798 820.51801 836.41803 847.138 857.51801 862.67798 873.39801 883.97803 897.258 910.53802 921.258 926.41803 939.99799 951.91803 963.83801 974.55798 986.47803 997.198 1008.358 1019.198 1030.358 1042.278"
         y="-198.25999"
         id="tspan120">IFRS 16. В результате общая сумма финансовой </tspan><tspan
         x="594 603.84003 614.56 626.08002 637.03998 648.26001 663.23999 674.15997 686.08002 698 709.15997 719.88 729.82001 741.73999 746.90002 757.73999 770.91998 782.53998 793.70001 804.41998 815.64001 826.35999 831.52002 843.44 854.15997 859.32001 870.27802 882.17798 896.99799 902.15802 913.698 918.85797 929.578 934.73798 945.93799 957.138 962.29797 971.37598 983.01599 994.65601 999.81598 1011.336 1022.496 1027.656 1038.856 1051.2159 1056.376 1064.3361 1076.656 1088.0959"
         y="-172.25999"
         id="tspan122">задолженности выросла на 24% – с 22 766 до 28 105 </tspan><tspan
         x="594 607.28003 618.5 630.41998 635.58002 646.82001 657.40002 668.73999 679.96002 690.88 702.79999 707.53998 712.70001 723.41998 728.58002 740.09998 751.26001 761.38 772.09998 781.94 792.65997 802.59998 813.43597 824.65601 834.17603 839.336 850.49597 860.43597 872.35602 883.51599 898.896 909.81598 921.73602 933.65601 944.03601 949.19598 959.73602 971.65601 982.37598 992.31598 1003.476 1011.596 1022.756 1027.916 1039.436 1050.396 1061.616 1069.976 1080.696"
         y="-146.25999"
         id="tspan124">млн рублей, а показатель отношения чистого долга </tspan><tspan
         x="594 604.12 609.28003 621.12 634.17999 639.20001 650.34003 663.65997 676.12 681.28003 691.85999 702.70001 713.53802 724.758 736.67798 747.21802 759.138 770.35797 781.078 791.45801 796.61798 808.138 819.29797 824.45801 835.03802 846.65802 857.81799 868.65802 880.578 890.95801 896.11798 908.05603 912.79602 924.23602 935.75598 946.11603 951.276 962.79602 973.95599 979.11603 989.836 1000.996 1011.716 1021.656 1032.816 1043.196 1055.116 1067.036 1082.296"
         y="-120.26"
         id="tspan126">к EBITDA увеличился до уровня 0,53х по состоянию </tspan><tspan
         x="594 605.91998 616.64001 621.79999 632.91998 640.88 646.03998 657.56 668.47998 678.59998 689.32001 700.65997 712.28003 722.65997 727.82001 739.02002 751.34003 762.53998 774.85999 780.02002 786.61798"
         y="-94.260002"
         id="tspan128">на 31 декабря 2020 г.</tspan></text><text
       transform="matrix(1,0,0,-1,1287,514.275)"
       style="font-variant:normal;font-weight:500;font-stretch:normal;font-size:28px;font-family:'Rubik Medium';-inkscape-font-specification:Rubik-Medium;writing-mode:lr-tb;fill:#000000;fill-opacity:1;fill-rule:nonzero;stroke:none"
       id="text134"><tspan
         x="0 19.18 34.048 50.652 66.667999 82.711998 97.580002 113.596 130.78799 146.804 153.188 169.23199 186.424 202.608 220.22 237.692 252.56 270.03201 286.63599 298.8692 315.47321 321.85721 338.99319 355.5972 372.78922 387.6572 409.04919 425.0932 442.00519"
         y="0"
         id="tspan132">Структура кредитного портфеля</tspan></text><text
       transform="matrix(1,0,0,-1,1287,475.575)"
       style="font-variant:normal;font-weight:300;font-stretch:normal;font-size:20px;font-family:'Rubik Light';-inkscape-font-specification:Rubik-Light;writing-mode:lr-tb;fill:#000000;fill-opacity:1;fill-rule:nonzero;stroke:none"
       id="text140"><tspan
         x="0 12.96 23.780001 34.400002 43.82 48.880001 62.360001 74.18 86 96.620003 108.44 119.06 130.12 140.86 153.94 165.75999 170.82001 182.24001 193.10001 204.22 212.48 217.53999 229.12 240.17999 253.36 264.78 275.39999 287.22 299.04001 310.85999 315.92001 327.73999 338.79999 351.98001 363.79999 375.62 387.44 398.95999 410.01999 420.76001 431.38 443.20001 448.26001 459 464.06 475.20001 485.67999 496.92001 508.04001 518.32001 528.58002 533.32202"
         y="0"
         id="tspan136">Весь финансовый долг Компании номинирован в рублях, </tspan><tspan
         x="0 10.74 15.8 26.42 37.16 47.439999 57.18 69 74.059998 84.68 89.739998 100.18 111 124.18 129.24001 140.3 152.12 157.17999 169 179.82001 184.88 196.3 207.36 218.78 229.52 240.34 251.86 266.73999 277.56 289.38 294.44 305.17999 315.79999 326.92001 342.07999 351.92001 363.73999 374.79999 387.98001 398.45999 403.51999 415.04001 426.85999 437.48001 447.5 456.78"
         y="26"
         id="tspan138">в связи с чем он не подвержен валютному риску.</tspan></text><text
       transform="matrix(1,0,0,-1,1287,849.3992)"
       style="font-variant:normal;font-weight:500;font-stretch:normal;font-size:38.0759px;font-family:'Rubik Medium';-inkscape-font-specification:Rubik-Medium;writing-mode:lr-tb;fill:#000000;fill-opacity:1;fill-rule:nonzero;stroke:none"
       id="text146"><tspan
         x="0 23.607058 48.622925 57.30423 74.971451 100.06347"
         y="0"
         id="tspan142">28 105</tspan><tspan
         x="0 23.607058 47.214115 55.89542 75.580658 99.492325"
         y="111.98122"
         id="tspan144">22 766</tspan></text><text
       transform="matrix(1,0,0,-1,1415.5706,875.65)"
       style="font-variant:normal;font-weight:normal;font-stretch:normal;font-size:10px;font-family:Rubik;-inkscape-font-specification:Rubik-Regular;writing-mode:lr-tb;fill:#000000;fill-opacity:1;fill-rule:nonzero;stroke:none"
       id="text152"><tspan
         x="0 5.8000002 10.05 12.51 18.48 24.07 29.4 34.900002 40.700001 46.639999 52.060001 54.52 60.360001 66.690002 72.529999"
         y="0"
         id="tspan148">31 декабря 2020</tspan><tspan
         x="0 5.8000002 10.05 12.51 18.48 24.07 29.4 34.900002 40.700001 46.639999 52.060001 54.52 60.360001 66.690002 70.940002"
         y="115.15"
         id="tspan150">31 декабря 2019</tspan></text><text
       transform="matrix(1,0,0,-1,1306.2648,642.08)"
       style="font-variant:normal;font-weight:300;font-stretch:normal;font-size:14px;font-family:'Rubik Light';-inkscape-font-specification:Rubik-Light;writing-mode:lr-tb;fill:#000000;fill-opacity:1;fill-rule:nonzero;stroke:none"
       id="text166"><tspan
         x="0 8.8479996 16.351999 24.695999 31.43 39.242001 46.830002 54.334 61.417999 69.762001 77.405998 81.017998 88.101997 96.236 103.88 111.944 120.288 127.246"
         y="0"
         id="tspan154">Банковские кредиты</tspan><tspan
         x="0 9.4639997 17.136 24.99 30.674 38.486 45.990002 54.124001 61.936001 69.314003 77.657997 85.162003 92.428001 96.040001 103.544 111.678 119.322 127.666 135.73"
         y="540.83398"
         id="tspan156">Долгосрочная аренда</tspan><tspan
         x="222.26401 231.532 239.47 247.32401 255.668 261.51999 269.02399 277.43799 285.78201"
         y="0"
         id="tspan158">Облигации</tspan><tspan
         x="229.71201 238.308 246.442 254.086 262.14999 270.49399 277.452"
         y="540.83398"
         id="tspan160">Кредиты</tspan><tspan
         x="376.73999 388.29001 396.634 404.978 412.48199 420.82599 428.32999 436.142 443.73001 452.95599 461.29999 464.91199 472.76599 481.10999 487.99799 496.34201 504.686"
         y="0"
         id="tspan162">Финансовый лизинг</tspan><tspan
         x="376.73999 388.29001 396.634 404.978 412.48199 420.82599 428.32999 436.142 443.73001 452.95599 461.29999 464.91199 472.76599 481.10999 487.99799 496.34201 504.686"
         y="540.83398"
         id="tspan164">Финансовый лизинг</tspan></text><path
       d="m 1287,810.816 h 103.2 v 23.859 H 1287 Z"
       style="fill:#2960a1;fill-opacity:1;fill-rule:nonzero;stroke:none"
       id="path168" /><path
       d="m 1390,810.816 h 336 v 23.859 h -336 z"
       style="fill:#adbfd7;fill-opacity:1;fill-rule:nonzero;stroke:none"
       id="path170" /><text
       transform="matrix(1,0,0,-1,1318.403,817.9341)"
       style="font-variant:normal;font-weight:300;font-stretch:normal;font-size:14px;font-family:'Rubik Light';-inkscape-font-specification:Rubik-Light;writing-mode:lr-tb;fill:#57575c;fill-opacity:1;fill-rule:nonzero;stroke:none"
       id="text176"><tspan
         x="0 8.0080004 9.7580004 18.382 26.389999"
         y="0"
         id="tspan172">5 052</tspan><tspan
         x="218.42799 226.26801 234.332 236.082 244.70599 252.714"
         y="0.79799998"
         id="tspan174">23 053</tspan></text><path
       d="m 1424.906,700.316 h 249.435 v 23.855 h -249.435 z"
       style="fill:#adbfd7;fill-opacity:1;fill-rule:nonzero;stroke:none"
       id="path178" /><path
       d="m 1287,700.316 h 137.906 v 23.855 H 1287 Z"
       style="fill:#2960a1;fill-opacity:1;fill-rule:nonzero;stroke:none"
       id="path180" /><text
       transform="matrix(1,0,0,-1,1339.7811,706.6337)"
       style="font-variant:normal;font-weight:300;font-stretch:normal;font-size:14px;font-family:'Rubik Light';-inkscape-font-specification:Rubik-Light;writing-mode:lr-tb;fill:#57575c;fill-opacity:1;fill-rule:nonzero;stroke:none"
       id="text188"><tspan
         x="0 8.6520004 10.402 15.974 23.813999"
         y="0"
         id="tspan182">8 120</tspan><tspan
         x="88.045998"
         y="0.63"
         id="tspan184">2</tspan><tspan
         x="175.896 179.508 185.08 193.41 195.16 203.308 211.638 219.968"
         y="0"
         id="tspan186"> 14 644 </tspan></text><path
       d="m 1287,640.812 h 12.945 v 13.094 H 1287 Z"
       style="fill:#2960a1;fill-opacity:1;fill-rule:nonzero;stroke:none"
       id="path190" /><path
       d="m 1287,100 h 12.945 v 13.094 H 1287 Z"
       style="fill:#2960a1;fill-opacity:1;fill-rule:nonzero;stroke:none"
       id="path192" /><path
       d="m 1507.615,640.812 h 12.945 v 13.094 h -12.945 z"
       style="fill:#adbfd7;fill-opacity:1;fill-rule:nonzero;stroke:none"
       id="path194" /><g
       id="g196"><g
         id="g198"
         clip-path="url(#clipPath202)"><g
           id="g204"><g
             id="g206" /><g
             id="g216"><g
               clip-path="url(#clipPath210)"
               opacity="0.690002"
               id="g214"><path
                 d="m 1515.063,100 h 12.945 v 13.094 h -12.945 z"
                 style="fill:#2960a1;fill-opacity:1;fill-rule:nonzero;stroke:none"
                 id="path212" /></g></g></g><g
           id="g218"><g
             id="g220" /><g
             id="g230"><g
               clip-path="url(#clipPath224)"
               opacity="0.199997"
               id="g228"><path
                 d="m 1661.396,640.812 h 12.945 v 13.094 h -12.945 z"
                 style="fill:#2960a1;fill-opacity:1;fill-rule:nonzero;stroke:none"
                 id="path226" /></g></g></g><g
           id="g232"><g
             id="g234" /><g
             id="g244"><g
               clip-path="url(#clipPath238)"
               opacity="0.300003"
               id="g242"><path
                 d="m 1661.396,100 h 12.945 v 13.094 h -12.945 z"
                 style="fill:#2960a1;fill-opacity:1;fill-rule:nonzero;stroke:none"
                 id="path240" /></g></g></g></g></g><text
       transform="matrix(1,0,0,-1,99,124.848)"
       style="font-variant:normal;font-weight:300;font-stretch:normal;font-size:9.328px;font-family:'Rubik Light';-inkscape-font-specification:Rubik-Light;writing-mode:lr-tb;fill:#000000;fill-opacity:1;fill-rule:nonzero;stroke:none"
       id="text248"><tspan
         x="0"
         y="0"
         id="tspan246">4</tspan></text><text
       transform="matrix(1,0,0,-1,108.678,119.52)"
       style="font-variant:normal;font-weight:300;font-stretch:normal;font-size:16px;font-family:'Rubik Light';-inkscape-font-specification:Rubik-Light;writing-mode:lr-tb;fill:#000000;fill-opacity:1;fill-rule:nonzero;stroke:none"
       id="text254"><tspan
         x="0 11.616 21.152 29.823999 38.560001 47.136002 55.088001 64.624001 74.239998 83.776001 93.311996 97.440002 106.112 110.24 119.536 128.272 135.9664 144.89439 154.4304 163.00639 170.9584 179.95039 188.4144 196.51041 206.1264 215.6624 227.87041 231.9984 243.19839 254.39841 264.81439 268.94241 278.15839 287.0864 296.3024 305.5184 314.09439 323.31039 331.88641 344.09439 352.04639 356.17441 365.39041 374.31839 383.53439 387.66241 396.87839 405.61441 415.15039 423.72641 431.67841 440.3504 449.88641 458.62241"
         y="0"
         id="tspan250">Инвестиции в реконструкцию ППС подпадают под действие </tspan><tspan
         x="-9.6800003 -1.104 6.848 15.424 24.959999 34.175999 42.751999 52.048 60 68.575996 72.704002 76.720001 85.839996 96.080002 105.76 109.888 116.256 125.568 129.696 139.23199 143.36 152.28799 160.24001 169.536 178.112 190.09599 198.672 210.88 218.832 227.408 235.71201 239.84 248.51199 252.64 265.12 275.53601 288.73599 299.328 303.45599 312.12799 316.25601 327.12 336.65601 346.19199 354.76801 364.30399 372.88 381.80801 390.48001 399.40799 408.944 413.07199 422.28799 431.02399 439.328 447.28 455.9472 464.92319 472.53922 482.0752 491.0032 499.57919 507.53119 517.0672"
         y="20"
         id="tspan252">стандарта IFRS 16 и отражаются в МСФО в финансовой деятельности.</tspan></text><text
       transform="matrix(1,0,0,-1,698,100.3499)"
       style="font-variant:normal;font-weight:500;font-stretch:normal;font-size:20px;font-family:'Rubik Medium';-inkscape-font-specification:Rubik-Medium;writing-mode:lr-tb;fill:#000000;fill-opacity:1;fill-rule:nonzero;stroke:none"
       id="text258"><tspan
         x="0 11.44 23.719999 35.279999 47.860001 60.34 71.860001 83.379997 87.940002 99.379997 110 121.44 133.14 144.60001 156.03999 160.60001 172.84 184.7 189.25999 201.5 213.36 225.64 236.25999 251.53999 262.996 275.07599"
         y="0"
         id="tspan256">средняя ставка по портфелю</tspan></text><text
       transform="matrix(1,0,0,-1,691.6313,204.48)"
       style="font-variant:normal;font-weight:normal;font-stretch:normal;font-size:249.054px;font-family:'Prosto One';-inkscape-font-specification:ProstoOne-Regular;writing-mode:lr-tb;fill:#faaa2d;fill-opacity:1;fill-rule:nonzero;stroke:none"
       id="text262"><tspan
         x="0 131.2514 195.78127 370.01938"
         y="0"
         id="tspan260">7.57</tspan></text><g
       id="g264"><g
         id="g266"
         clip-path="url(#clipPath270)"><g
           id="g272"
           transform="translate(851,174.48)"><path
             d="m 0,0 h -138 c -11.046,0 -20,-8.954 -20,-20 0,-11.046 8.954,-20 20,-20 H 0 c 11.046,0 20,8.954 20,20 C 20,-8.954 11.046,0 0,0"
             style="fill:#e8e8ed;fill-opacity:1;fill-rule:nonzero;stroke:none"
             id="path274" /></g></g></g><text
       transform="matrix(1,0,0,-1,705.5021,147.1005)"
       style="font-variant:normal;font-weight:500;font-stretch:normal;font-size:28px;font-family:'Rubik Medium';-inkscape-font-specification:Rubik-Medium;writing-mode:lr-tb;fill:#000000;fill-opacity:1;fill-rule:nonzero;stroke:none"
       id="text278"><tspan
         x="0 17.136 34.327999 50.931999 68.739998 84.924004 102.396 117.264 133.868"
         y="0"
         id="tspan276">процентов</tspan></text><text
       transform="matrix(1,0,0,-1,1287,306.2208)"
       style="font-variant:normal;font-weight:500;font-stretch:normal;font-size:30px;font-family:'Rubik Medium';-inkscape-font-specification:Rubik-Medium;writing-mode:lr-tb;fill:#000000;fill-opacity:1;fill-rule:nonzero;stroke:none"
       id="text282"><tspan
         x="0 18.84 37.77"
         y="0"
         id="tspan280">63%</tspan></text><g
       id="g284"><g
         id="g286"
         clip-path="url(#clipPath290)"><g
           id="g292"><g
             id="g294" /><g
             id="g304"><g
               clip-path="url(#clipPath298)"
               opacity="0.160004"
               id="g302"><path
                 d="M 1821,334.271 H 1367.063 V 299.115 H 1821 Z"
                 style="fill:#2960a1;fill-opacity:1;fill-rule:nonzero;stroke:none"
                 id="path300" /></g></g></g></g></g><path
       d="m 1633.531,299.115 h -266.469 v 35.156 h 266.469 z"
       style="fill:#2960a1;fill-opacity:1;fill-rule:nonzero;stroke:none"
       id="path306" /><text
       transform="matrix(1,0,0,-1,1287,238.49)"
       style="font-variant:normal;font-weight:500;font-stretch:normal;font-size:30px;font-family:'Rubik Medium';-inkscape-font-specification:Rubik-Medium;writing-mode:lr-tb;fill:#000000;fill-opacity:1;fill-rule:nonzero;stroke:none"
       id="text310"><tspan
         x="0 13.92 32.459999"
         y="0"
         id="tspan308">19%</tspan></text><g
       id="g312"><g
         id="g314"
         clip-path="url(#clipPath318)"><g
           id="g320"><g
             id="g322" /><g
             id="g332"><g
               clip-path="url(#clipPath326)"
               opacity="0.160004"
               id="g330"><path
                 d="M 1821,267.093 H 1367.063 V 231.937 H 1821 Z"
                 style="fill:#2960a1;fill-opacity:1;fill-rule:nonzero;stroke:none"
                 id="path328" /></g></g></g><g
           id="g334"><g
             id="g336" /><g
             id="g346"><g
               clip-path="url(#clipPath340)"
               opacity="0.600006"
               id="g344"><path
                 d="m 1457.906,231.922 h -90.844 v 35.156 h 90.844 z"
                 style="fill:#2960a1;fill-opacity:1;fill-rule:nonzero;stroke:none"
                 id="path342" /></g></g></g></g></g><text
       transform="matrix(1,0,0,-1,1287,165.6678)"
       style="font-variant:normal;font-weight:500;font-stretch:normal;font-size:30px;font-family:'Rubik Medium';-inkscape-font-specification:Rubik-Medium;writing-mode:lr-tb;fill:#000000;fill-opacity:1;fill-rule:nonzero;stroke:none"
       id="text350"><tspan
         x="0 13.92 33.630001"
         y="0"
         id="tspan348">18%</tspan></text><g
       id="g352"><g
         id="g354"
         clip-path="url(#clipPath358)"><g
           id="g360"><g
             id="g362" /><g
             id="g372"><g
               clip-path="url(#clipPath366)"
               opacity="0.160004"
               id="g370"><path
                 d="M 1821,199.9 H 1367.063 V 164.744 H 1821 Z"
                 style="fill:#2960a1;fill-opacity:1;fill-rule:nonzero;stroke:none"
                 id="path368" /></g></g></g><g
           id="g374"><g
             id="g376" /><g
             id="g386"><g
               clip-path="url(#clipPath380)"
               opacity="0.300003"
               id="g384"><path
                 d="m 1444.031,164.744 h -76.969 V 199.9 h 76.969 z"
                 style="fill:#2960a1;fill-opacity:1;fill-rule:nonzero;stroke:none"
                 id="path382" /></g></g></g></g></g><text
       transform="matrix(1,0,0,-1,37.8302,1023)"
       style="font-variant:normal;font-weight:300;font-stretch:normal;font-size:20px;font-family:'Rubik Light';-inkscape-font-specification:Rubik-Light;writing-mode:lr-tb;fill:#000000;fill-opacity:1;fill-rule:nonzero;stroke:none"
       id="text390"><tspan
         x="0 11.9"
         y="0"
         id="tspan388">45</tspan></text><g
       id="g392"><g
         id="g394"><g
           id="g396"
           clip-path="url(#clipPath400)"><text
             transform="matrix(1,0,0,-1,99,1023)"
             style="font-variant:normal;font-weight:300;font-stretch:normal;font-size:20px;font-family:'Rubik Light';-inkscape-font-specification:Rubik-Light;writing-mode:lr-tb;fill:#000000;fill-opacity:1;fill-rule:nonzero;stroke:none"
             id="text404"><tspan
               x="0 13.24 18.4 28.02 39.18 52.459999 63.98 74.699997 86.620003 98.540001"
               y="0"
               id="tspan402">О компании</tspan></text></g></g></g></g></svg>
