<svg width="320" height="50" viewBox="0 0 320 50" fill="none" xmlns="http://www.w3.org/2000/svg">
<path d="M23.313 16.6313C23.313 18.4038 22.981 19.7661 22.3169 20.7183C21.6528 21.6704 20.7031 22.1465 19.4678 22.1465C18.2275 22.1465 17.2754 21.6729 16.6113 20.7256C15.9473 19.7734 15.6152 18.4038 15.6152 16.6167C15.6152 14.8442 15.9473 13.4868 16.6113 12.5444C17.2754 11.5972 18.2324 11.1235 19.4824 11.1235C20.7178 11.1235 21.665 11.5996 22.3242 12.5518C22.9834 13.499 23.313 14.8589 23.313 16.6313ZM17.6514 16.6313C17.6514 17.8521 17.8052 18.7822 18.1128 19.4219C18.4204 20.0615 18.8721 20.3813 19.4678 20.3813C20.6689 20.3813 21.2695 19.1313 21.2695 16.6313C21.2695 14.1313 20.6738 12.8813 19.4824 12.8813C18.877 12.8813 18.4204 13.2012 18.1128 13.8408C17.8052 14.4756 17.6514 15.4058 17.6514 16.6313ZM24.8804 11.292H26.7261V17.1733C26.7261 17.7837 26.6797 18.3867 26.5869 18.9824H26.6675L29.9341 11.292H32.3804V22H30.5493V16.1333C30.5493 15.4106 30.6055 14.7759 30.7178 14.229H30.6226L27.3413 22H24.8804V11.292ZM31.3037 8.06201C31.2061 8.88232 30.9375 9.48291 30.498 9.86377C30.0635 10.2446 29.4214 10.4351 28.5718 10.4351C27.7417 10.4351 27.1191 10.2495 26.7041 9.87842C26.2891 9.50244 26.0425 8.89697 25.9644 8.06201H27.583C27.6367 8.55029 27.7393 8.87988 27.8906 9.05078C28.0469 9.22168 28.2886 9.30713 28.6157 9.30713C28.938 9.30713 29.1772 9.20947 29.3335 9.01416C29.4946 8.81885 29.6021 8.50146 29.6558 8.06201H31.3037ZM40.1807 18.5942C40.1807 19.6782 39.9023 20.5181 39.3457 21.1138C38.7939 21.7046 38.0029 22 36.9727 22H34.27V11.292H39.353V13.0278H36.2622V15.4741H36.8921C37.9761 15.4741 38.7939 15.7354 39.3457 16.2578C39.9023 16.7803 40.1807 17.5591 40.1807 18.5942ZM36.2622 20.2715H36.8774C37.7417 20.2715 38.1738 19.7368 38.1738 18.6675C38.1738 18.1548 38.064 17.7861 37.8442 17.5615C37.6294 17.332 37.2632 17.2173 36.7456 17.2173H36.2622V20.2715ZM46.6479 22L46.0327 19.2974H43.2422L42.627 22H40.6348L43.2861 11.248H45.9888L48.6475 22H46.6479ZM45.6592 17.5322L45.0879 15.042C45.0537 14.8906 44.9756 14.5122 44.8535 13.9067C44.7363 13.2964 44.6655 12.8887 44.6411 12.6836C44.5776 13.1035 44.4971 13.5674 44.3994 14.0752C44.3018 14.5781 44.0479 15.7305 43.6377 17.5322H45.6592ZM49.5923 11.292H51.438V17.1733C51.438 17.7837 51.3916 18.3867 51.2988 18.9824H51.3794L54.646 11.292H57.0923V22H55.2612V16.1333C55.2612 15.4106 55.3174 14.7759 55.4297 14.229H55.3345L52.0532 22H49.5923V11.292ZM56.0156 8.06201C55.918 8.88232 55.6494 9.48291 55.21 9.86377C54.7754 10.2446 54.1333 10.4351 53.2837 10.4351C52.4536 10.4351 51.8311 10.2495 51.416 9.87842C51.001 9.50244 50.7544 8.89697 50.6763 8.06201H52.2949C52.3486 8.55029 52.4512 8.87988 52.6025 9.05078C52.7588 9.22168 53.0005 9.30713 53.3276 9.30713C53.6499 9.30713 53.8892 9.20947 54.0454 9.01416C54.2065 8.81885 54.314 8.50146 54.3677 8.06201H56.0156ZM60.8716 18.5503H59.2676L58.9087 11.292H61.2451L60.8716 18.5503ZM58.8501 20.9966C58.8501 20.6157 58.9502 20.3203 59.1504 20.1104C59.3555 19.9004 59.6582 19.7954 60.0586 19.7954C60.459 19.7954 60.7617 19.9004 60.9668 20.1104C61.1719 20.3154 61.2744 20.6108 61.2744 20.9966C61.2744 21.3774 61.167 21.6729 60.9521 21.8828C60.7422 22.0928 60.4443 22.1978 60.0586 22.1978C59.6631 22.1978 59.3628 22.0928 59.1577 21.8828C58.9526 21.668 58.8501 21.3726 58.8501 20.9966ZM68.335 12.8813C67.8516 12.8813 67.3267 13.0815 66.7603 13.4819L66.0864 11.8633C66.438 11.6338 66.7944 11.4531 67.1558 11.3213C67.522 11.1895 67.9346 11.1235 68.3936 11.1235C69.5898 11.1235 70.5127 11.5996 71.1621 12.5518C71.8164 13.499 72.1436 14.8442 72.1436 16.5874C72.1436 18.3306 71.8115 19.6929 71.1475 20.6743C70.4883 21.6558 69.5557 22.1465 68.3496 22.1465C67.5244 22.1465 66.8555 21.9731 66.3428 21.6265V19.854C66.9531 20.2153 67.5732 20.396 68.2031 20.396C69.3408 20.396 69.9658 19.4048 70.0781 17.4224H67.2729V15.7012H70.0635C69.9365 13.8213 69.3604 12.8813 68.335 12.8813ZM76.8604 22H74.8755V13.0425H72.8247V11.292H78.9111V13.0425H76.8604V22ZM87.1362 16.6313C87.1362 18.4038 86.8042 19.7661 86.1401 20.7183C85.4761 21.6704 84.5264 22.1465 83.291 22.1465C82.0508 22.1465 81.0986 21.6729 80.4346 20.7256C79.7705 19.7734 79.4385 18.4038 79.4385 16.6167C79.4385 14.8442 79.7705 13.4868 80.4346 12.5444C81.0986 11.5972 82.0557 11.1235 83.3057 11.1235C84.541 11.1235 85.4883 11.5996 86.1475 12.5518C86.8066 13.499 87.1362 14.8589 87.1362 16.6313ZM81.4746 16.6313C81.4746 17.8521 81.6284 18.7822 81.936 19.4219C82.2437 20.0615 82.6953 20.3813 83.291 20.3813C84.4922 20.3813 85.0928 19.1313 85.0928 16.6313C85.0928 14.1313 84.4971 12.8813 83.3057 12.8813C82.7002 12.8813 82.2437 13.2012 81.936 13.8408C81.6284 14.4756 81.4746 15.4058 81.4746 16.6313ZM15.9448 29.292H18.6768C19.79 29.292 20.6006 29.5093 21.1084 29.9438C21.6162 30.3735 21.8701 31.0596 21.8701 32.002C21.8701 32.6221 21.7358 33.1421 21.4673 33.562C21.1987 33.9771 20.8325 34.2285 20.3687 34.3164V34.3896C20.9741 34.541 21.4111 34.8242 21.6797 35.2393C21.9482 35.6543 22.0825 36.2061 22.0825 36.8945C22.0825 37.8662 21.8213 38.6279 21.2988 39.1797C20.7812 39.7266 20.0708 40 19.1675 40H15.9448V29.292ZM17.8198 33.5986H18.7354C19.1553 33.5986 19.4507 33.4863 19.6216 33.2617C19.7925 33.0371 19.8779 32.7026 19.8779 32.2583C19.8779 31.814 19.7803 31.4966 19.585 31.3062C19.3896 31.1108 19.082 31.0132 18.6621 31.0132H17.8198V33.5986ZM17.8198 35.2612V38.2568H18.8232C19.2383 38.2568 19.5459 38.1299 19.7461 37.876C19.9512 37.6221 20.0537 37.229 20.0537 36.6968C20.0537 35.7397 19.6338 35.2612 18.7939 35.2612H17.8198ZM27.0996 30.8813C26.5283 30.8813 26.0767 31.2158 25.7446 31.8848C25.4175 32.5537 25.2539 33.4839 25.2539 34.6753C25.2539 37.1558 25.9009 38.396 27.1948 38.396C27.7612 38.396 28.3545 38.2153 28.9746 37.854V39.6265C28.4521 39.9731 27.7832 40.1465 26.9678 40.1465C25.7617 40.1465 24.834 39.668 24.1846 38.7109C23.54 37.749 23.2178 36.3989 23.2178 34.6606C23.2178 32.9224 23.5498 31.5674 24.2139 30.5957C24.8828 29.624 25.8105 29.1382 26.9971 29.1382C27.3877 29.1382 27.7612 29.1919 28.1177 29.2993C28.479 29.4067 28.8647 29.5947 29.2749 29.8633L28.6157 31.4819C28.396 31.3306 28.1616 31.1938 27.9126 31.0718C27.6636 30.9448 27.3926 30.8813 27.0996 30.8813ZM35.3174 40H30.4907V29.292H35.3174V31.0132H32.4829V33.562H35.1123V35.2905H32.4829V38.2568H35.3174V40ZM30.498 27.2485C30.498 26.9507 30.5835 26.7188 30.7544 26.5527C30.9253 26.3867 31.1621 26.3037 31.4648 26.3037C31.7676 26.3037 32.0044 26.3916 32.1753 26.5674C32.3511 26.7383 32.439 26.9653 32.439 27.2485C32.439 27.5269 32.3511 27.7515 32.1753 27.9224C32.0044 28.0933 31.7676 28.1787 31.4648 28.1787C31.1621 28.1787 30.9253 28.0981 30.7544 27.937C30.5835 27.771 30.498 27.5415 30.498 27.2485ZM33.4131 27.2485C33.4131 26.9556 33.4985 26.7261 33.6694 26.5601C33.8403 26.3892 34.0796 26.3037 34.3872 26.3037C34.6851 26.3037 34.9219 26.3867 35.0977 26.5527C35.2734 26.7188 35.3613 26.9507 35.3613 27.2485C35.3613 27.5366 35.2734 27.7637 35.0977 27.9297C34.9268 28.0957 34.6899 28.1787 34.3872 28.1787C34.0845 28.1787 33.8452 28.0957 33.6694 27.9297C33.4985 27.7588 33.4131 27.5317 33.4131 27.2485ZM40.1514 36.7627V35.1733H50.6763V36.7627H40.1514ZM55.8618 29.292H58.5938C59.707 29.292 60.5176 29.5093 61.0254 29.9438C61.5332 30.3735 61.7871 31.0596 61.7871 32.002C61.7871 32.6221 61.6528 33.1421 61.3843 33.562C61.1157 33.9771 60.7495 34.2285 60.2856 34.3164V34.3896C60.8911 34.541 61.3281 34.8242 61.5967 35.2393C61.8652 35.6543 61.9995 36.2061 61.9995 36.8945C61.9995 37.8662 61.7383 38.6279 61.2158 39.1797C60.6982 39.7266 59.9878 40 59.0845 40H55.8618V29.292ZM57.7368 33.5986H58.6523C59.0723 33.5986 59.3677 33.4863 59.5386 33.2617C59.7095 33.0371 59.7949 32.7026 59.7949 32.2583C59.7949 31.814 59.6973 31.4966 59.502 31.3062C59.3066 31.1108 58.999 31.0132 58.5791 31.0132H57.7368V33.5986ZM57.7368 35.2612V38.2568H58.7402C59.1553 38.2568 59.4629 38.1299 59.6631 37.876C59.8682 37.6221 59.9707 37.229 59.9707 36.6968C59.9707 35.7397 59.5508 35.2612 58.7109 35.2612H57.7368ZM74.9707 43.0615H73.0371V40H68.2324V43.0615H66.2988V38.2422H66.9287C67.9346 35.5713 68.5791 32.5879 68.8623 29.292H73.7549V38.2422H74.9707V43.0615ZM71.7627 38.2422V31.0425H70.5469C70.4248 32.229 70.2271 33.4619 69.9536 34.7412C69.6851 36.0156 69.3677 37.1826 69.0015 38.2422H71.7627ZM76.7798 40.1465C76.2671 40.1465 75.8374 40.0781 75.4907 39.9414V38.1689C75.8472 38.3105 76.2158 38.3813 76.5967 38.3813C77.1826 38.3813 77.6343 37.8369 77.9517 36.748L75.2051 29.292H77.2925L78.6548 33.4741C78.7671 33.8599 78.8379 34.1895 78.8672 34.4629H78.9258L79.0283 33.9648L79.1382 33.4741L80.3027 29.292H82.3169L79.9292 36.8652C79.5483 38.0615 79.1113 38.9087 78.6182 39.4067C78.1299 39.8999 77.5171 40.1465 76.7798 40.1465ZM89.1797 36.5942C89.1797 37.6782 88.9014 38.5181 88.3447 39.1138C87.793 39.7046 87.002 40 85.9717 40H83.269V29.292H88.3521V31.0278H85.2612V33.4741H85.8911C86.9751 33.4741 87.793 33.7354 88.3447 34.2578C88.9014 34.7803 89.1797 35.5591 89.1797 36.5942ZM85.2612 38.2715H85.8765C86.7407 38.2715 87.1729 37.7368 87.1729 36.6675C87.1729 36.1548 87.063 35.7861 86.8433 35.5615C86.6284 35.332 86.2622 35.2173 85.7446 35.2173H85.2612V38.2715ZM95.647 40L95.0317 37.2974H92.2412L91.626 40H89.6338L92.2852 29.248H94.9878L97.6465 40H95.647ZM94.6582 35.5322L94.0869 33.042C94.0527 32.8906 93.9746 32.5122 93.8525 31.9067C93.7354 31.2964 93.6646 30.8887 93.6401 30.6836C93.5767 31.1035 93.4961 31.5674 93.3984 32.0752C93.3008 32.5781 93.0469 33.7305 92.6367 35.5322H94.6582ZM103.418 40H98.5913V29.292H103.418V31.0132H100.583V33.562H103.213V35.2905H100.583V38.2568H103.418V40ZM106.868 36.5503H105.264L104.905 29.292H107.241L106.868 36.5503ZM104.846 38.9966C104.846 38.6157 104.946 38.3203 105.146 38.1104C105.352 37.9004 105.654 37.7954 106.055 37.7954C106.455 37.7954 106.758 37.9004 106.963 38.1104C107.168 38.3154 107.271 38.6108 107.271 38.9966C107.271 39.3774 107.163 39.6729 106.948 39.8828C106.738 40.0928 106.44 40.1978 106.055 40.1978C105.659 40.1978 105.359 40.0928 105.154 39.8828C104.949 39.668 104.846 39.3726 104.846 38.9966Z" fill="white"/>
</svg>
