<svg width="300" height="50" viewBox="0 0 300 50" fill="none" xmlns="http://www.w3.org/2000/svg">
<path d="M20.1621 24.8574H18.3574V22H13.873V24.8574H12.0684V20.3594H12.6562C13.5951 17.8665 14.1966 15.082 14.4609 12.0059H19.0273V20.3594H20.1621V24.8574ZM17.168 20.3594V13.6396H16.0332C15.9193 14.7471 15.7347 15.8978 15.4795 17.0918C15.2288 18.2812 14.9326 19.3704 14.5908 20.3594H17.168ZM21.8506 22.1367C21.3721 22.1367 20.971 22.0729 20.6475 21.9453V20.291C20.9801 20.4232 21.3242 20.4893 21.6797 20.4893C22.2266 20.4893 22.6481 19.9811 22.9443 18.9648L20.3809 12.0059H22.3291L23.6006 15.9092C23.7054 16.2692 23.7715 16.5768 23.7988 16.832H23.8535L23.9492 16.3672L24.0518 15.9092L25.1387 12.0059H27.0186L24.79 19.0742C24.4346 20.1908 24.0267 20.9814 23.5664 21.4463C23.1107 21.9066 22.5387 22.1367 21.8506 22.1367ZM33.4238 18.8213C33.4238 19.833 33.1641 20.6169 32.6445 21.1729C32.1296 21.7243 31.3913 22 30.4297 22H27.9072V12.0059H32.6514V13.626H29.7666V15.9092H30.3545C31.3662 15.9092 32.1296 16.153 32.6445 16.6406C33.1641 17.1283 33.4238 17.8551 33.4238 18.8213ZM29.7666 20.3867H30.3408C31.1475 20.3867 31.5508 19.8877 31.5508 18.8896C31.5508 18.4111 31.4482 18.0671 31.2432 17.8574C31.0426 17.6432 30.7008 17.5361 30.2178 17.5361H29.7666V20.3867ZM39.46 22L38.8857 19.4775H36.2812L35.707 22H33.8477L36.3223 11.9648H38.8447L41.3262 22H39.46ZM38.5371 17.8301L38.0039 15.5059C37.972 15.3646 37.8991 15.0114 37.7852 14.4463C37.6758 13.8766 37.6097 13.4961 37.5869 13.3047C37.5277 13.6966 37.4525 14.1296 37.3613 14.6035C37.2702 15.0729 37.0332 16.1484 36.6504 17.8301H38.5371ZM42.208 12.0059H43.9307V17.4951C43.9307 18.0648 43.8874 18.6276 43.8008 19.1836H43.876L46.9248 12.0059H49.208V22H47.499V16.5244C47.499 15.8499 47.5514 15.2575 47.6562 14.7471H47.5674L44.5049 22H42.208V12.0059ZM48.2031 8.99121C48.112 9.75684 47.8613 10.3174 47.4512 10.6729C47.0456 11.0283 46.4463 11.2061 45.6533 11.2061C44.8786 11.2061 44.2975 11.0329 43.9102 10.6865C43.5228 10.3356 43.2926 9.77051 43.2197 8.99121H44.7305C44.7806 9.44694 44.8763 9.75456 45.0176 9.91406C45.1634 10.0736 45.389 10.1533 45.6943 10.1533C45.9951 10.1533 46.2184 10.0622 46.3643 9.87988C46.5146 9.69759 46.6149 9.40137 46.665 8.99121H48.2031ZM50.8486 21.0635C50.8486 20.708 50.9421 20.4323 51.1289 20.2363C51.3203 20.0404 51.6029 19.9424 51.9766 19.9424C52.3503 19.9424 52.6328 20.0404 52.8242 20.2363C53.0156 20.4277 53.1113 20.7035 53.1113 21.0635C53.1113 21.4189 53.0111 21.6947 52.8105 21.8906C52.6146 22.0866 52.3366 22.1846 51.9766 22.1846C51.6074 22.1846 51.3271 22.0866 51.1357 21.8906C50.9443 21.6901 50.8486 21.4144 50.8486 21.0635ZM65.498 24.8574H63.6934V22H59.209V24.8574H57.4043V20.3594H57.9922C58.931 17.8665 59.5326 15.082 59.7969 12.0059H64.3633V20.3594H65.498V24.8574ZM62.5039 20.3594V13.6396H61.3691C61.2552 14.7471 61.0706 15.8978 60.8154 17.0918C60.5648 18.2812 60.2686 19.3704 59.9268 20.3594H62.5039ZM71.3291 22L70.7549 19.4775H68.1504L67.5762 22H65.7168L68.1914 11.9648H70.7139L73.1953 22H71.3291ZM70.4062 17.8301L69.873 15.5059C69.8411 15.3646 69.7682 15.0114 69.6543 14.4463C69.5449 13.8766 69.4788 13.4961 69.4561 13.3047C69.3968 13.6966 69.3216 14.1296 69.2305 14.6035C69.1393 15.0729 68.9023 16.1484 68.5195 17.8301H70.4062ZM74.0771 12.0059H76.627C77.666 12.0059 78.4225 12.2087 78.8965 12.6143C79.3704 13.0153 79.6074 13.6556 79.6074 14.5352C79.6074 15.1139 79.4821 15.5993 79.2314 15.9912C78.9808 16.3786 78.639 16.6133 78.2061 16.6953V16.7637C78.7712 16.9049 79.179 17.1693 79.4297 17.5566C79.6803 17.944 79.8057 18.459 79.8057 19.1016C79.8057 20.0085 79.5618 20.7194 79.0742 21.2344C78.5911 21.7448 77.9281 22 77.085 22H74.0771V12.0059ZM75.8271 16.0254H76.6816C77.0736 16.0254 77.3493 15.9206 77.5088 15.7109C77.6683 15.5013 77.748 15.1891 77.748 14.7744C77.748 14.3597 77.6569 14.0635 77.4746 13.8857C77.2923 13.7035 77.0052 13.6123 76.6133 13.6123H75.8271V16.0254ZM75.8271 17.5771V20.373H76.7637C77.151 20.373 77.4382 20.2546 77.625 20.0176C77.8164 19.7806 77.9121 19.4137 77.9121 18.917C77.9121 18.0238 77.5202 17.5771 76.7363 17.5771H75.8271ZM85.9033 22L85.3291 19.4775H82.7246L82.1504 22H80.291L82.7656 11.9648H85.2881L87.7695 22H85.9033ZM84.9805 17.8301L84.4473 15.5059C84.4154 15.3646 84.3424 15.0114 84.2285 14.4463C84.1191 13.8766 84.0531 13.4961 84.0303 13.3047C83.971 13.6966 83.8958 14.1296 83.8047 14.6035C83.7135 15.0729 83.4766 16.1484 83.0938 17.8301H84.9805ZM88.6514 12.0059H90.374V17.4951C90.374 18.0648 90.3307 18.6276 90.2441 19.1836H90.3193L93.3682 12.0059H95.6514V22H93.9424V16.5244C93.9424 15.8499 93.9948 15.2575 94.0996 14.7471H94.0107L90.9482 22H88.6514V12.0059ZM94.6465 8.99121C94.5553 9.75684 94.3047 10.3174 93.8945 10.6729C93.4889 11.0283 92.8896 11.2061 92.0967 11.2061C91.3219 11.2061 90.7409 11.0329 90.3535 10.6865C89.9661 10.3356 89.736 9.77051 89.6631 8.99121H91.1738C91.224 9.44694 91.3197 9.75456 91.4609 9.91406C91.6068 10.0736 91.8324 10.1533 92.1377 10.1533C92.4385 10.1533 92.6618 10.0622 92.8076 9.87988C92.958 9.69759 93.0583 9.40137 93.1084 8.99121H94.6465ZM19.0547 39H17.209V30.6396H14.7412V39H12.8818V29.0059H19.0547V39ZM27.7021 33.9893C27.7021 35.6436 27.3923 36.915 26.7725 37.8037C26.1527 38.6924 25.2663 39.1367 24.1133 39.1367C22.9557 39.1367 22.0671 38.6947 21.4473 37.8105C20.8275 36.9219 20.5176 35.6436 20.5176 33.9756C20.5176 32.3213 20.8275 31.0544 21.4473 30.1748C22.0671 29.2907 22.9603 28.8486 24.127 28.8486C25.2799 28.8486 26.1641 29.293 26.7793 30.1816C27.3945 31.0658 27.7021 32.335 27.7021 33.9893ZM22.418 33.9893C22.418 35.1286 22.5615 35.9967 22.8486 36.5938C23.1357 37.1908 23.5573 37.4893 24.1133 37.4893C25.2344 37.4893 25.7949 36.3226 25.7949 33.9893C25.7949 31.6559 25.2389 30.4893 24.127 30.4893C23.5618 30.4893 23.1357 30.7878 22.8486 31.3848C22.5615 31.9772 22.418 32.8454 22.418 33.9893ZM28.7754 36.0469V34.4473H32.2139V36.0469H28.7754ZM39.7676 39H37.9082V34.6182H35.4541V39H33.5947V29.0059H35.4541V32.9775H37.9082V29.0059H39.7676V39ZM48.415 33.9893C48.415 35.6436 48.1051 36.915 47.4854 37.8037C46.8656 38.6924 45.9792 39.1367 44.8262 39.1367C43.6686 39.1367 42.7799 38.6947 42.1602 37.8105C41.5404 36.9219 41.2305 35.6436 41.2305 33.9756C41.2305 32.3213 41.5404 31.0544 42.1602 30.1748C42.7799 29.2907 43.6732 28.8486 44.8398 28.8486C45.9928 28.8486 46.877 29.293 47.4922 30.1816C48.1074 31.0658 48.415 32.335 48.415 33.9893ZM43.1309 33.9893C43.1309 35.1286 43.2744 35.9967 43.5615 36.5938C43.8486 37.1908 44.2702 37.4893 44.8262 37.4893C45.9473 37.4893 46.5078 36.3226 46.5078 33.9893C46.5078 31.6559 45.9518 30.4893 44.8398 30.4893C44.2747 30.4893 43.8486 30.7878 43.5615 31.3848C43.2744 31.9772 43.1309 32.8454 43.1309 33.9893ZM49.8779 29.0059H52.4277C53.4668 29.0059 54.2233 29.2087 54.6973 29.6143C55.1712 30.0153 55.4082 30.6556 55.4082 31.5352C55.4082 32.1139 55.2829 32.5993 55.0322 32.9912C54.7816 33.3786 54.4398 33.6133 54.0068 33.6953V33.7637C54.5719 33.9049 54.9798 34.1693 55.2305 34.5566C55.4811 34.944 55.6064 35.459 55.6064 36.1016C55.6064 37.0085 55.3626 37.7194 54.875 38.2344C54.3919 38.7448 53.7288 39 52.8857 39H49.8779V29.0059ZM51.6279 33.0254H52.4824C52.8743 33.0254 53.1501 32.9206 53.3096 32.7109C53.4691 32.5013 53.5488 32.1891 53.5488 31.7744C53.5488 31.3597 53.4577 31.0635 53.2754 30.8857C53.0931 30.7035 52.806 30.6123 52.4141 30.6123H51.6279V33.0254ZM51.6279 34.5771V37.373H52.5645C52.9518 37.373 53.2389 37.2546 53.4258 37.0176C53.6172 36.7806 53.7129 36.4137 53.7129 35.917C53.7129 35.0238 53.321 34.5771 52.5371 34.5771H51.6279ZM63.8506 33.9893C63.8506 35.6436 63.5407 36.915 62.9209 37.8037C62.3011 38.6924 61.4147 39.1367 60.2617 39.1367C59.1042 39.1367 58.2155 38.6947 57.5957 37.8105C56.9759 36.9219 56.666 35.6436 56.666 33.9756C56.666 32.3213 56.9759 31.0544 57.5957 30.1748C58.2155 29.2907 59.1087 28.8486 60.2754 28.8486C61.4284 28.8486 62.3125 29.293 62.9277 30.1816C63.543 31.0658 63.8506 32.335 63.8506 33.9893ZM58.5664 33.9893C58.5664 35.1286 58.71 35.9967 58.9971 36.5938C59.2842 37.1908 59.7057 37.4893 60.2617 37.4893C61.3828 37.4893 61.9434 36.3226 61.9434 33.9893C61.9434 31.6559 61.3874 30.4893 60.2754 30.4893C59.7103 30.4893 59.2842 30.7878 58.9971 31.3848C58.71 31.9772 58.5664 32.8454 58.5664 33.9893ZM65.3135 29.0059H67.0361V34.4951C67.0361 35.0648 66.9928 35.6276 66.9062 36.1836H66.9814L70.0303 29.0059H72.3135V39H70.6045V33.5244C70.6045 32.8499 70.6569 32.2575 70.7617 31.7471H70.6729L67.6104 39H65.3135V29.0059ZM71.3086 25.9912C71.2174 26.7568 70.9668 27.3174 70.5566 27.6729C70.151 28.0283 69.5518 28.2061 68.7588 28.2061C67.984 28.2061 67.403 28.0329 67.0156 27.6865C66.6283 27.3356 66.3981 26.7705 66.3252 25.9912H67.8359C67.8861 26.4469 67.9818 26.7546 68.123 26.9141C68.2689 27.0736 68.4945 27.1533 68.7998 27.1533C69.1006 27.1533 69.3239 27.0622 69.4697 26.8799C69.6201 26.6976 69.7204 26.4014 69.7705 25.9912H71.3086ZM73.9541 38.0635C73.9541 37.708 74.0475 37.4323 74.2344 37.2363C74.4258 37.0404 74.7083 36.9424 75.082 36.9424C75.4557 36.9424 75.7383 37.0404 75.9297 37.2363C76.1211 37.4277 76.2168 37.7035 76.2168 38.0635C76.2168 38.4189 76.1165 38.6947 75.916 38.8906C75.7201 39.0866 75.4421 39.1846 75.082 39.1846C74.7129 39.1846 74.4326 39.0866 74.2412 38.8906C74.0498 38.6901 73.9541 38.4144 73.9541 38.0635Z" fill="white"/>
</svg>
