<svg width="250" height="250" viewBox="0 0 250 250" fill="none" xmlns="http://www.w3.org/2000/svg">
<path d="M32.1582 47.3066H28.8066V42H20.4785V47.3066H17.127V38.9531H18.2188C19.9622 34.3236 21.0794 29.1523 21.5703 23.4395H30.0508V38.9531H32.1582V47.3066ZM26.5977 38.9531V26.4736H24.4902C24.2786 28.5303 23.9359 30.6673 23.4619 32.8848C22.9964 35.0938 22.4463 37.1165 21.8115 38.9531H26.5977ZM35.2939 42.2539C34.4053 42.2539 33.6605 42.1354 33.0596 41.8984V38.8262C33.6774 39.0716 34.3164 39.1943 34.9766 39.1943C35.9922 39.1943 36.7751 38.2507 37.3252 36.3633L32.5645 23.4395H36.1826L38.5439 30.6885C38.7386 31.3571 38.8613 31.9284 38.9121 32.4023H39.0137L39.1914 31.5391L39.3818 30.6885L41.4004 23.4395H44.8916L40.7529 36.5664C40.0928 38.64 39.3353 40.1084 38.4805 40.9717C37.6341 41.8265 36.5719 42.2539 35.2939 42.2539ZM56.7871 36.0967C56.7871 37.9756 56.3047 39.4313 55.3398 40.4639C54.3835 41.488 53.0124 42 51.2266 42H46.542V23.4395H55.3525V26.4482H49.9951V30.6885H51.0869C52.9658 30.6885 54.3835 31.1413 55.3398 32.0469C56.3047 32.9525 56.7871 34.3024 56.7871 36.0967ZM49.9951 39.0039H51.0615C52.5596 39.0039 53.3086 38.0771 53.3086 36.2236C53.3086 35.335 53.1182 34.696 52.7373 34.3066C52.3649 33.9089 51.7301 33.71 50.833 33.71H49.9951V39.0039ZM67.9971 42L66.9307 37.3154H62.0938L61.0273 42H57.5742L62.1699 23.3633H66.8545L71.4629 42H67.9971ZM66.2832 34.2559L65.293 29.9395C65.2337 29.6771 65.0983 29.0212 64.8867 27.9717C64.6836 26.9137 64.5609 26.207 64.5186 25.8516C64.4085 26.5794 64.2689 27.3835 64.0996 28.2637C63.9303 29.1354 63.4902 31.1328 62.7793 34.2559H66.2832ZM73.1006 23.4395H76.2998V33.6338C76.2998 34.6917 76.2194 35.737 76.0586 36.7695H76.1982L81.8604 23.4395H86.1006V42H82.9268V31.8311C82.9268 30.5785 83.0241 29.4782 83.2188 28.5303H83.0537L77.3662 42H73.1006V23.4395ZM84.2344 17.8408C84.0651 19.2627 83.5996 20.3037 82.8379 20.9639C82.0846 21.624 80.9717 21.9541 79.499 21.9541C78.0602 21.9541 76.9811 21.6325 76.2617 20.9893C75.5423 20.3376 75.1149 19.2881 74.9795 17.8408H77.7852C77.8783 18.6872 78.056 19.2585 78.3184 19.5547C78.5892 19.8509 79.0081 19.999 79.5752 19.999C80.1338 19.999 80.5485 19.8298 80.8193 19.4912C81.0986 19.1527 81.2848 18.6025 81.3779 17.8408H84.2344ZM89.1475 40.2607C89.1475 39.6006 89.321 39.0885 89.668 38.7246C90.0234 38.3607 90.5482 38.1787 91.2422 38.1787C91.9362 38.1787 92.4609 38.3607 92.8164 38.7246C93.1719 39.0801 93.3496 39.5921 93.3496 40.2607C93.3496 40.9209 93.1634 41.4329 92.791 41.7969C92.4271 42.1608 91.9108 42.3428 91.2422 42.3428C90.5566 42.3428 90.0361 42.1608 89.6807 41.7969C89.3252 41.4245 89.1475 40.9124 89.1475 40.2607ZM116.354 47.3066H113.002V42H104.674V47.3066H101.322V38.9531H102.414C104.158 34.3236 105.275 29.1523 105.766 23.4395H114.246V38.9531H116.354V47.3066ZM110.793 38.9531V26.4736H108.686C108.474 28.5303 108.131 30.6673 107.657 32.8848C107.192 35.0938 106.642 37.1165 106.007 38.9531H110.793ZM127.183 42L126.116 37.3154H121.279L120.213 42H116.76L121.355 23.3633H126.04L130.648 42H127.183ZM125.469 34.2559L124.479 29.9395C124.419 29.6771 124.284 29.0212 124.072 27.9717C123.869 26.9137 123.746 26.207 123.704 25.8516C123.594 26.5794 123.454 27.3835 123.285 28.2637C123.116 29.1354 122.676 31.1328 121.965 34.2559H125.469ZM132.286 23.4395H137.021C138.951 23.4395 140.356 23.8161 141.236 24.5693C142.117 25.3141 142.557 26.5033 142.557 28.1367C142.557 29.2116 142.324 30.113 141.858 30.8408C141.393 31.5602 140.758 31.9961 139.954 32.1484V32.2754C141.004 32.5378 141.761 33.0286 142.227 33.748C142.692 34.4674 142.925 35.4238 142.925 36.6172C142.925 38.3014 142.472 39.6217 141.566 40.5781C140.669 41.526 139.438 42 137.872 42H132.286V23.4395ZM135.536 30.9043H137.123C137.851 30.9043 138.363 30.7096 138.659 30.3203C138.955 29.931 139.104 29.3512 139.104 28.5811C139.104 27.8109 138.934 27.2607 138.596 26.9307C138.257 26.5921 137.724 26.4229 136.996 26.4229H135.536V30.9043ZM135.536 33.7861V38.9785H137.275C137.995 38.9785 138.528 38.7585 138.875 38.3184C139.23 37.8783 139.408 37.1969 139.408 36.2744C139.408 34.6156 138.68 33.7861 137.225 33.7861H135.536ZM154.249 42L153.183 37.3154H148.346L147.279 42H143.826L148.422 23.3633H153.106L157.715 42H154.249ZM152.535 34.2559L151.545 29.9395C151.486 29.6771 151.35 29.0212 151.139 27.9717C150.936 26.9137 150.813 26.207 150.771 25.8516C150.66 26.5794 150.521 27.3835 150.352 28.2637C150.182 29.1354 149.742 31.1328 149.031 34.2559H152.535ZM159.353 23.4395H162.552V33.6338C162.552 34.6917 162.471 35.737 162.311 36.7695H162.45L168.112 23.4395H172.353V42H169.179V31.8311C169.179 30.5785 169.276 29.4782 169.471 28.5303H169.306L163.618 42H159.353V23.4395ZM170.486 17.8408C170.317 19.2627 169.852 20.3037 169.09 20.9639C168.337 21.624 167.224 21.9541 165.751 21.9541C164.312 21.9541 163.233 21.6325 162.514 20.9893C161.794 20.3376 161.367 19.2881 161.231 17.8408H164.037C164.13 18.6872 164.308 19.2585 164.57 19.5547C164.841 19.8509 165.26 19.999 165.827 19.999C166.386 19.999 166.8 19.8298 167.071 19.4912C167.351 19.1527 167.537 18.6025 167.63 17.8408H170.486ZM30.1016 73H26.6738V57.4736H22.0908V73H18.6377V54.4395H30.1016V73ZM46.1611 63.6943C46.1611 66.7666 45.5856 69.1279 44.4346 70.7783C43.2835 72.4287 41.6374 73.2539 39.4961 73.2539C37.3464 73.2539 35.696 72.4329 34.5449 70.791C33.3939 69.1406 32.8184 66.7666 32.8184 63.6689C32.8184 60.5967 33.3939 58.2438 34.5449 56.6104C35.696 54.9684 37.3548 54.1475 39.5215 54.1475C41.6628 54.1475 43.3047 54.9727 44.4473 56.623C45.5898 58.265 46.1611 60.6221 46.1611 63.6943ZM36.3477 63.6943C36.3477 65.8102 36.6143 67.4225 37.1475 68.5312C37.6807 69.64 38.4635 70.1943 39.4961 70.1943C41.5781 70.1943 42.6191 68.0277 42.6191 63.6943C42.6191 59.361 41.5866 57.1943 39.5215 57.1943C38.472 57.1943 37.6807 57.7487 37.1475 58.8574C36.6143 59.9577 36.3477 61.57 36.3477 63.6943ZM66.7656 73H63.3125V64.8623H58.7549V73H55.3018V54.4395H58.7549V61.8154H63.3125V54.4395H66.7656V73ZM82.8252 63.6943C82.8252 66.7666 82.2497 69.1279 81.0986 70.7783C79.9476 72.4287 78.3014 73.2539 76.1602 73.2539C74.0104 73.2539 72.36 72.4329 71.209 70.791C70.0579 69.1406 69.4824 66.7666 69.4824 63.6689C69.4824 60.5967 70.0579 58.2438 71.209 56.6104C72.36 54.9684 74.0189 54.1475 76.1855 54.1475C78.3268 54.1475 79.9688 54.9727 81.1113 56.623C82.2539 58.265 82.8252 60.6221 82.8252 63.6943ZM73.0117 63.6943C73.0117 65.8102 73.2783 67.4225 73.8115 68.5312C74.3447 69.64 75.1276 70.1943 76.1602 70.1943C78.2422 70.1943 79.2832 68.0277 79.2832 63.6943C79.2832 59.361 78.2507 57.1943 76.1855 57.1943C75.1361 57.1943 74.3447 57.7487 73.8115 58.8574C73.2783 59.9577 73.0117 61.57 73.0117 63.6943ZM85.542 54.4395H90.2773C92.207 54.4395 93.612 54.8161 94.4922 55.5693C95.3724 56.3141 95.8125 57.5033 95.8125 59.1367C95.8125 60.2116 95.5798 61.113 95.1143 61.8408C94.6488 62.5602 94.014 62.9961 93.21 63.1484V63.2754C94.2594 63.5378 95.0169 64.0286 95.4824 64.748C95.9479 65.4674 96.1807 66.4238 96.1807 67.6172C96.1807 69.3014 95.7279 70.6217 94.8223 71.5781C93.9251 72.526 92.6937 73 91.1279 73H85.542V54.4395ZM88.792 61.9043H90.3789C91.1068 61.9043 91.6188 61.7096 91.915 61.3203C92.2113 60.931 92.3594 60.3512 92.3594 59.5811C92.3594 58.8109 92.1901 58.2607 91.8516 57.9307C91.513 57.5921 90.9798 57.4229 90.252 57.4229H88.792V61.9043ZM88.792 64.7861V69.9785H90.5312C91.2507 69.9785 91.7839 69.7585 92.1309 69.3184C92.4863 68.8783 92.6641 68.1969 92.6641 67.2744C92.6641 65.6156 91.9362 64.7861 90.4805 64.7861H88.792ZM111.491 63.6943C111.491 66.7666 110.916 69.1279 109.765 70.7783C108.614 72.4287 106.967 73.2539 104.826 73.2539C102.676 73.2539 101.026 72.4329 99.875 70.791C98.724 69.1406 98.1484 66.7666 98.1484 63.6689C98.1484 60.5967 98.724 58.2438 99.875 56.6104C101.026 54.9684 102.685 54.1475 104.852 54.1475C106.993 54.1475 108.635 54.9727 109.777 56.623C110.92 58.265 111.491 60.6221 111.491 63.6943ZM101.678 63.6943C101.678 65.8102 101.944 67.4225 102.478 68.5312C103.011 69.64 103.794 70.1943 104.826 70.1943C106.908 70.1943 107.949 68.0277 107.949 63.6943C107.949 59.361 106.917 57.1943 104.852 57.1943C103.802 57.1943 103.011 57.7487 102.478 58.8574C101.944 59.9577 101.678 61.57 101.678 63.6943ZM114.208 54.4395H117.407V64.6338C117.407 65.6917 117.327 66.737 117.166 67.7695H117.306L122.968 54.4395H127.208V73H124.034V62.8311C124.034 61.5785 124.132 60.4782 124.326 59.5303H124.161L118.474 73H114.208V54.4395ZM125.342 48.8408C125.173 50.2627 124.707 51.3037 123.945 51.9639C123.192 52.624 122.079 52.9541 120.606 52.9541C119.168 52.9541 118.089 52.6325 117.369 51.9893C116.65 51.3376 116.222 50.2881 116.087 48.8408H118.893C118.986 49.6872 119.163 50.2585 119.426 50.5547C119.697 50.8509 120.116 50.999 120.683 50.999C121.241 50.999 121.656 50.8298 121.927 50.4912C122.206 50.1527 122.392 49.6025 122.485 48.8408H125.342ZM130.255 71.2607C130.255 70.6006 130.428 70.0885 130.775 69.7246C131.131 69.3607 131.656 69.1787 132.35 69.1787C133.044 69.1787 133.568 69.3607 133.924 69.7246C134.279 70.0801 134.457 70.5921 134.457 71.2607C134.457 71.9209 134.271 72.4329 133.898 72.7969C133.535 73.1608 133.018 73.3428 132.35 73.3428C131.664 73.3428 131.144 73.1608 130.788 72.7969C130.433 72.4245 130.255 71.9124 130.255 71.2607Z" fill="white"/>
</svg>
