<svg width="250" height="250" viewBox="0 0 250 250" fill="none" xmlns="http://www.w3.org/2000/svg">
<path d="M30.3008 40.4102C30.3008 43.2461 29.7695 45.4258 28.707 46.9492C27.6445 48.4727 26.125 49.2344 24.1484 49.2344C22.1641 49.2344 20.6406 48.4766 19.5781 46.9609C18.5156 45.4375 17.9844 43.2461 17.9844 40.3867C17.9844 37.5508 18.5156 35.3789 19.5781 33.8711C20.6406 32.3555 22.1719 31.5977 24.1719 31.5977C26.1484 31.5977 27.6641 32.3594 28.7188 33.8828C29.7734 35.3984 30.3008 37.5742 30.3008 40.4102ZM21.2422 40.4102C21.2422 42.3633 21.4883 43.8516 21.9805 44.875C22.4727 45.8984 23.1953 46.4102 24.1484 46.4102C26.0703 46.4102 27.0312 44.4102 27.0312 40.4102C27.0312 36.4102 26.0781 34.4102 24.1719 34.4102C23.2031 34.4102 22.4727 34.9219 21.9805 35.9453C21.4883 36.9609 21.2422 38.4492 21.2422 40.4102ZM32.8086 31.8672H35.7617V41.2773C35.7617 42.2539 35.6875 43.2188 35.5391 44.1719H35.668L40.8945 31.8672H44.8086V49H41.8789V39.6133C41.8789 38.457 41.9688 37.4414 42.1484 36.5664H41.9961L36.7461 49H32.8086V31.8672ZM43.0859 26.6992C42.9297 28.0117 42.5 28.9727 41.7969 29.582C41.1016 30.1914 40.0742 30.4961 38.7148 30.4961C37.3867 30.4961 36.3906 30.1992 35.7266 29.6055C35.0625 29.0039 34.668 28.0352 34.543 26.6992H37.1328C37.2188 27.4805 37.3828 28.0078 37.625 28.2812C37.875 28.5547 38.2617 28.6914 38.7852 28.6914C39.3008 28.6914 39.6836 28.5352 39.9336 28.2227C40.1914 27.9102 40.3633 27.4023 40.4492 26.6992H43.0859ZM57.2891 43.5508C57.2891 45.2852 56.8438 46.6289 55.9531 47.582C55.0703 48.5273 53.8047 49 52.1562 49H47.832V31.8672H55.9648V34.6445H51.0195V38.5586H52.0273C53.7617 38.5586 55.0703 38.9766 55.9531 39.8125C56.8438 40.6484 57.2891 41.8945 57.2891 43.5508ZM51.0195 46.2344H52.0039C53.3867 46.2344 54.0781 45.3789 54.0781 43.668C54.0781 42.8477 53.9023 42.2578 53.5508 41.8984C53.207 41.5312 52.6211 41.3477 51.793 41.3477H51.0195V46.2344ZM67.6367 49L66.6523 44.6758H62.1875L61.2031 49H58.0156L62.2578 31.7969H66.582L70.8359 49H67.6367ZM66.0547 41.8516L65.1406 37.8672C65.0859 37.625 64.9609 37.0195 64.7656 36.0508C64.5781 35.0742 64.4648 34.4219 64.4258 34.0938C64.3242 34.7656 64.1953 35.5078 64.0391 36.3203C63.8828 37.125 63.4766 38.9688 62.8203 41.8516H66.0547ZM72.3477 31.8672H75.3008V41.2773C75.3008 42.2539 75.2266 43.2188 75.0781 44.1719H75.207L80.4336 31.8672H84.3477V49H81.418V39.6133C81.418 38.457 81.5078 37.4414 81.6875 36.5664H81.5352L76.2852 49H72.3477V31.8672ZM82.625 26.6992C82.4688 28.0117 82.0391 28.9727 81.3359 29.582C80.6406 30.1914 79.6133 30.4961 78.2539 30.4961C76.9258 30.4961 75.9297 30.1992 75.2656 29.6055C74.6016 29.0039 74.207 28.0352 74.082 26.6992H76.6719C76.7578 27.4805 76.9219 28.0078 77.1641 28.2812C77.4141 28.5547 77.8008 28.6914 78.3242 28.6914C78.8398 28.6914 79.2227 28.5352 79.4727 28.2227C79.7305 27.9102 79.9023 27.4023 79.9883 26.6992H82.625ZM90.3945 43.4805H87.8281L87.2539 31.8672H90.9922L90.3945 43.4805ZM87.1602 47.3945C87.1602 46.7852 87.3203 46.3125 87.6406 45.9766C87.9688 45.6406 88.4531 45.4727 89.0938 45.4727C89.7344 45.4727 90.2188 45.6406 90.5469 45.9766C90.875 46.3047 91.0391 46.7773 91.0391 47.3945C91.0391 48.0039 90.8672 48.4766 90.5234 48.8125C90.1875 49.1484 89.7109 49.3164 89.0938 49.3164C88.4609 49.3164 87.9805 49.1484 87.6523 48.8125C87.3242 48.4688 87.1602 47.9961 87.1602 47.3945ZM30.9922 82.8984H27.8984V78H20.2109V82.8984H17.1172V75.1875H18.125C19.7344 70.9141 20.7656 66.1406 21.2188 60.8672H29.0469V75.1875H30.9922V82.8984ZM25.8594 75.1875V63.668H23.9141C23.7188 65.5664 23.4023 67.5391 22.9648 69.5859C22.5352 71.625 22.0273 73.4922 21.4414 75.1875H25.8594ZM40.9883 78L40.0039 73.6758H35.5391L34.5547 78H31.3672L35.6094 60.7969H39.9336L44.1875 78H40.9883ZM39.4062 70.8516L38.4922 66.8672C38.4375 66.625 38.3125 66.0195 38.1172 65.0508C37.9297 64.0742 37.8164 63.4219 37.7773 63.0938C37.6758 63.7656 37.5469 64.5078 37.3906 65.3203C37.2344 66.125 36.8281 67.9688 36.1719 70.8516H39.4062ZM45.6992 60.8672H50.0703C51.8516 60.8672 53.1484 61.2148 53.9609 61.9102C54.7734 62.5977 55.1797 63.6953 55.1797 65.2031C55.1797 66.1953 54.9648 67.0273 54.5352 67.6992C54.1055 68.3633 53.5195 68.7656 52.7773 68.9062V69.0234C53.7461 69.2656 54.4453 69.7188 54.875 70.3828C55.3047 71.0469 55.5195 71.9297 55.5195 73.0312C55.5195 74.5859 55.1016 75.8047 54.2656 76.6875C53.4375 77.5625 52.3008 78 50.8555 78H45.6992V60.8672ZM48.6992 67.7578H50.1641C50.8359 67.7578 51.3086 67.5781 51.582 67.2188C51.8555 66.8594 51.9922 66.3242 51.9922 65.6133C51.9922 64.9023 51.8359 64.3945 51.5234 64.0898C51.2109 63.7773 50.7188 63.6211 50.0469 63.6211H48.6992V67.7578ZM48.6992 70.418V75.2109H50.3047C50.9688 75.2109 51.4609 75.0078 51.7812 74.6016C52.1094 74.1953 52.2734 73.5664 52.2734 72.7148C52.2734 71.1836 51.6016 70.418 50.2578 70.418H48.6992ZM65.9727 78L64.9883 73.6758H60.5234L59.5391 78H56.3516L60.5938 60.7969H64.918L69.1719 78H65.9727ZM64.3906 70.8516L63.4766 66.8672C63.4219 66.625 63.2969 66.0195 63.1016 65.0508C62.9141 64.0742 62.8008 63.4219 62.7617 63.0938C62.6602 63.7656 62.5312 64.5078 62.375 65.3203C62.2188 66.125 61.8125 67.9688 61.1562 70.8516H64.3906ZM70.6836 60.8672H73.6367V70.2773C73.6367 71.2539 73.5625 72.2188 73.4141 73.1719H73.543L78.7695 60.8672H82.6836V78H79.7539V68.6133C79.7539 67.457 79.8438 66.4414 80.0234 65.5664H79.8711L74.6211 78H70.6836V60.8672ZM80.9609 55.6992C80.8047 57.0117 80.375 57.9727 79.6719 58.582C78.9766 59.1914 77.9492 59.4961 76.5898 59.4961C75.2617 59.4961 74.2656 59.1992 73.6016 58.6055C72.9375 58.0039 72.543 57.0352 72.418 55.6992H75.0078C75.0938 56.4805 75.2578 57.0078 75.5 57.2812C75.75 57.5547 76.1367 57.6914 76.6602 57.6914C77.1758 57.6914 77.5586 57.5352 77.8086 57.2227C78.0664 56.9102 78.2383 56.4023 78.3242 55.6992H80.9609ZM91.6367 60.8672H96.0078C97.7891 60.8672 99.0859 61.2148 99.8984 61.9102C100.711 62.5977 101.117 63.6953 101.117 65.2031C101.117 66.1953 100.902 67.0273 100.473 67.6992C100.043 68.3633 99.457 68.7656 98.7148 68.9062V69.0234C99.6836 69.2656 100.383 69.7188 100.812 70.3828C101.242 71.0469 101.457 71.9297 101.457 73.0312C101.457 74.5859 101.039 75.8047 100.203 76.6875C99.375 77.5625 98.2383 78 96.793 78H91.6367V60.8672ZM94.6367 67.7578H96.1016C96.7734 67.7578 97.2461 67.5781 97.5195 67.2188C97.793 66.8594 97.9297 66.3242 97.9297 65.6133C97.9297 64.9023 97.7734 64.3945 97.4609 64.0898C97.1484 63.7773 96.6562 63.6211 95.9844 63.6211H94.6367V67.7578ZM94.6367 70.418V75.2109H96.2422C96.9062 75.2109 97.3984 75.0078 97.7188 74.6016C98.0469 74.1953 98.2109 73.5664 98.2109 72.7148C98.2109 71.1836 97.5391 70.418 96.1953 70.418H94.6367ZM122.211 82.8984H119.117V78H111.43V82.8984H108.336V75.1875H109.344C110.953 70.9141 111.984 66.1406 112.438 60.8672H120.266V75.1875H122.211V82.8984ZM117.078 75.1875V63.668H115.133C114.938 65.5664 114.621 67.5391 114.184 69.5859C113.754 71.625 113.246 73.4922 112.66 75.1875H117.078ZM125.105 78.2344C124.285 78.2344 123.598 78.125 123.043 77.9062V75.0703C123.613 75.2969 124.203 75.4102 124.812 75.4102C125.75 75.4102 126.473 74.5391 126.98 72.7969L122.586 60.8672H125.926L128.105 67.5586C128.285 68.1758 128.398 68.7031 128.445 69.1406H128.539L128.703 68.3438L128.879 67.5586L130.742 60.8672H133.965L130.145 72.9844C129.535 74.8984 128.836 76.2539 128.047 77.0508C127.266 77.8398 126.285 78.2344 125.105 78.2344ZM144.945 72.5508C144.945 74.2852 144.5 75.6289 143.609 76.582C142.727 77.5273 141.461 78 139.812 78H135.488V60.8672H143.621V63.6445H138.676V67.5586H139.684C141.418 67.5586 142.727 67.9766 143.609 68.8125C144.5 69.6484 144.945 70.8945 144.945 72.5508ZM138.676 75.2344H139.66C141.043 75.2344 141.734 74.3789 141.734 72.668C141.734 71.8477 141.559 71.2578 141.207 70.8984C140.863 70.5312 140.277 70.3477 139.449 70.3477H138.676V75.2344ZM155.293 78L154.309 73.6758H149.844L148.859 78H145.672L149.914 60.7969H154.238L158.492 78H155.293ZM153.711 70.8516L152.797 66.8672C152.742 66.625 152.617 66.0195 152.422 65.0508C152.234 64.0742 152.121 63.4219 152.082 63.0938C151.98 63.7656 151.852 64.5078 151.695 65.3203C151.539 66.125 151.133 67.9688 150.477 70.8516H153.711ZM160.004 60.8672H162.957V70.2773C162.957 71.2539 162.883 72.2188 162.734 73.1719H162.863L168.09 60.8672H172.004V78H169.074V68.6133C169.074 67.457 169.164 66.4414 169.344 65.5664H169.191L163.941 78H160.004V60.8672ZM170.281 55.6992C170.125 57.0117 169.695 57.9727 168.992 58.582C168.297 59.1914 167.27 59.4961 165.91 59.4961C164.582 59.4961 163.586 59.1992 162.922 58.6055C162.258 58.0039 161.863 57.0352 161.738 55.6992H164.328C164.414 56.4805 164.578 57.0078 164.82 57.2812C165.07 57.5547 165.457 57.6914 165.98 57.6914C166.496 57.6914 166.879 57.5352 167.129 57.2227C167.387 56.9102 167.559 56.4023 167.645 55.6992H170.281ZM178.051 72.4805H175.484L174.91 60.8672H178.648L178.051 72.4805ZM174.816 76.3945C174.816 75.7852 174.977 75.3125 175.297 74.9766C175.625 74.6406 176.109 74.4727 176.75 74.4727C177.391 74.4727 177.875 74.6406 178.203 74.9766C178.531 75.3047 178.695 75.7773 178.695 76.3945C178.695 77.0039 178.523 77.4766 178.18 77.8125C177.844 78.1484 177.367 78.3164 176.75 78.3164C176.117 78.3164 175.637 78.1484 175.309 77.8125C174.98 77.4688 174.816 76.9961 174.816 76.3945Z" fill="white"/>
</svg>
