<svg width="160" height="600" viewBox="0 0 160 600" fill="none" xmlns="http://www.w3.org/2000/svg">
<path d="M14 468H136.856C142.458 468 147 472.542 147 478.144V495.867H24.1441C18.5417 495.867 14 491.325 14 485.723V468Z" fill="white"/>
<path d="M22.3594 487.366C21.8809 487.366 21.4798 487.302 21.1562 487.175V485.52C21.4889 485.653 21.833 485.719 22.1885 485.719C22.7354 485.719 23.1569 485.21 23.4531 484.194L20.8896 477.235H22.8379L24.1094 481.139C24.2142 481.499 24.2803 481.806 24.3076 482.061H24.3623L24.458 481.597L24.5605 481.139L25.6475 477.235H27.5273L25.2988 484.304C24.9434 485.42 24.5355 486.211 24.0752 486.676C23.6195 487.136 23.0475 487.366 22.3594 487.366ZM33.5977 479.6C33.5977 480.22 33.4131 480.735 33.0439 481.145C32.6794 481.551 32.153 481.824 31.4648 481.966V482.02C32.2122 482.112 32.791 482.362 33.2012 482.772C33.6159 483.178 33.8232 483.72 33.8232 484.399C33.8232 485.32 33.527 486.044 32.9346 486.573C32.3467 487.102 31.5446 487.366 30.5283 487.366C29.4528 487.366 28.6143 487.209 28.0127 486.894V485.267C28.6872 485.641 29.4049 485.828 30.166 485.828C31.36 485.828 31.957 485.306 31.957 484.263C31.957 483.789 31.7839 483.429 31.4375 483.182C31.0957 482.932 30.5876 482.807 29.9131 482.807H29.2432V481.282H29.8447C30.5055 481.282 30.9932 481.168 31.3076 480.94C31.6221 480.708 31.7793 480.35 31.7793 479.867C31.7793 479.48 31.6745 479.183 31.4648 478.978C31.2552 478.769 30.9521 478.664 30.5557 478.664C29.9495 478.664 29.3753 478.91 28.833 479.402L27.9512 478.158C28.4023 477.771 28.8604 477.497 29.3252 477.338C29.79 477.174 30.3073 477.092 30.877 477.092C31.7018 477.092 32.3604 477.322 32.8525 477.782C33.3493 478.238 33.5977 478.844 33.5977 479.6ZM41.3701 487.229H39.5107V482.848H37.0566V487.229H35.1973V477.235H37.0566V481.207H39.5107V477.235H41.3701V487.229ZM47.8711 487.229L47.2969 484.707H44.6924L44.1182 487.229H42.2588L44.7334 477.194H47.2559L49.7373 487.229H47.8711ZM46.9482 483.059L46.415 480.735C46.3831 480.594 46.3102 480.241 46.1963 479.676C46.0869 479.106 46.0208 478.725 45.998 478.534C45.9388 478.926 45.8636 479.359 45.7725 479.833C45.6813 480.302 45.4443 481.378 45.0615 483.059H46.9482ZM50.6191 477.235H52.3418V482.724C52.3418 483.294 52.2985 483.857 52.2119 484.413H52.2871L55.3359 477.235H57.6191V487.229H55.9102V481.754C55.9102 481.079 55.9626 480.487 56.0674 479.976H55.9785L52.916 487.229H50.6191V477.235ZM56.6143 474.221C56.5231 474.986 56.2725 475.547 55.8623 475.902C55.4567 476.258 54.8574 476.435 54.0645 476.435C53.2897 476.435 52.7087 476.262 52.3213 475.916C51.9339 475.565 51.7038 475 51.6309 474.221H53.1416C53.1917 474.676 53.2874 474.984 53.4287 475.143C53.5745 475.303 53.8001 475.383 54.1055 475.383C54.4062 475.383 54.6296 475.292 54.7754 475.109C54.9258 474.927 55.026 474.631 55.0762 474.221H56.6143ZM62.4521 487.229H60.5996V478.869H58.6855V477.235H64.3662V478.869H62.4521V487.229ZM69.9443 487.229H65.4395V477.235H69.9443V478.842H67.2988V481.221H69.7529V482.834H67.2988V485.602H69.9443V487.229ZM81.0322 487.229H79.1865V478.869H76.7188V487.229H74.8594V477.235H81.0322V487.229ZM89.6797 482.219C89.6797 483.873 89.3698 485.144 88.75 486.033C88.1302 486.922 87.2438 487.366 86.0908 487.366C84.9333 487.366 84.0446 486.924 83.4248 486.04C82.805 485.151 82.4951 483.873 82.4951 482.205C82.4951 480.551 82.805 479.284 83.4248 478.404C84.0446 477.52 84.9378 477.078 86.1045 477.078C87.2575 477.078 88.1416 477.522 88.7568 478.411C89.3721 479.295 89.6797 480.564 89.6797 482.219ZM84.3955 482.219C84.3955 483.358 84.5391 484.226 84.8262 484.823C85.1133 485.42 85.5348 485.719 86.0908 485.719C87.2119 485.719 87.7725 484.552 87.7725 482.219C87.7725 479.885 87.2165 478.719 86.1045 478.719C85.5394 478.719 85.1133 479.017 84.8262 479.614C84.5391 480.207 84.3955 481.075 84.3955 482.219ZM98.4229 490.087H96.6182V487.229H92.1338V490.087H90.3291V485.589H90.917C91.8558 483.096 92.4574 480.311 92.7217 477.235H97.2881V485.589H98.4229V490.087ZM95.4287 485.589V478.869H94.2939C94.18 479.976 93.9954 481.127 93.7402 482.321C93.4896 483.511 93.1934 484.6 92.8516 485.589H95.4287ZM104.972 480.311C104.972 481.373 104.703 482.189 104.165 482.759C103.632 483.324 102.859 483.606 101.848 483.606H101.383V487.229H99.5234V477.235H102.06C104.001 477.235 104.972 478.261 104.972 480.311ZM101.383 481.993H101.738C102.194 481.993 102.534 481.868 102.757 481.617C102.98 481.366 103.092 480.956 103.092 480.387C103.092 479.863 102.989 479.475 102.784 479.224C102.579 478.969 102.262 478.842 101.834 478.842H101.383V481.993ZM113.113 482.219C113.113 483.873 112.803 485.144 112.184 486.033C111.564 486.922 110.677 487.366 109.524 487.366C108.367 487.366 107.478 486.924 106.858 486.04C106.239 485.151 105.929 483.873 105.929 482.205C105.929 480.551 106.239 479.284 106.858 478.404C107.478 477.52 108.371 477.078 109.538 477.078C110.691 477.078 111.575 477.522 112.19 478.411C112.806 479.295 113.113 480.564 113.113 482.219ZM107.829 482.219C107.829 483.358 107.973 484.226 108.26 484.823C108.547 485.42 108.968 485.719 109.524 485.719C110.646 485.719 111.206 484.552 111.206 482.219C111.206 479.885 110.65 478.719 109.538 478.719C108.973 478.719 108.547 479.017 108.26 479.614C107.973 480.207 107.829 481.075 107.829 482.219ZM120.093 484.051C120.093 485.062 119.833 485.846 119.313 486.402C118.799 486.954 118.06 487.229 117.099 487.229H114.576V477.235H119.32V478.855H116.436V481.139H117.023C118.035 481.139 118.799 481.382 119.313 481.87C119.833 482.358 120.093 483.085 120.093 484.051ZM116.436 485.616H117.01C117.816 485.616 118.22 485.117 118.22 484.119C118.22 483.641 118.117 483.296 117.912 483.087C117.712 482.873 117.37 482.766 116.887 482.766H116.436V485.616ZM127.571 487.229H125.712V482.848H123.258V487.229H121.398V477.235H123.258V481.207H125.712V477.235H127.571V487.229ZM133.847 487.229H129.342V477.235H133.847V478.842H131.201V481.221H133.655V482.834H131.201V485.602H133.847V487.229ZM139.808 487.229H135.303V477.235H139.808V478.842H137.162V481.221H139.616V482.834H137.162V485.602H139.808V487.229Z" fill="#0090D7"/>
</svg>
