<?xml version="1.0" encoding="UTF-8" standalone="no"?>
<?xml-stylesheet type="text/css" href="main.css" ?>
<svg
   xmlns:dc="http://purl.org/dc/elements/1.1/"
   xmlns:cc="http://creativecommons.org/ns#"
   xmlns:rdf="http://www.w3.org/1999/02/22-rdf-syntax-ns#"
   xmlns:svg="http://www.w3.org/2000/svg"
   xmlns="http://www.w3.org/2000/svg"
   version="1.1"
   id="svg2"
   xml:space="preserve"
   width="2560"
   height="1440"
   viewBox="0 0 2560 1440"><metadata
     id="metadata8"><rdf:RDF><cc:Work
         rdf:about=""><dc:format>image/svg+xml</dc:format><dc:type
           rdf:resource="http://purl.org/dc/dcmitype/StillImage" /></cc:Work></rdf:RDF></metadata><defs
     id="defs6"><clipPath
       clipPathUnits="userSpaceOnUse"
       id="clipPath20"><path
         d="M 0,1080 H 1920 V 0 H 0 Z"
         id="path18" /></clipPath><clipPath
       clipPathUnits="userSpaceOnUse"
       id="clipPath82"><path
         d="M 0,0 H 1920 V 1080 H 0 Z"
         id="path80" /></clipPath><linearGradient
       x1="0"
       y1="0"
       x2="1"
       y2="0"
       gradientUnits="userSpaceOnUse"
       gradientTransform="matrix(655.64813,655.64813,655.64813,-655.64813,947.35803,385.05087)"
       spreadMethod="pad"
       id="linearGradient116"><stop
         style="stop-opacity:1;stop-color:#0c50a8"
         offset="0"
         id="stop110" /><stop
         style="stop-opacity:1;stop-color:#0c50a8"
         offset="0.4854273"
         id="stop112" /><stop
         style="stop-opacity:1;stop-color:#fdb73e"
         offset="1"
         id="stop114" /></linearGradient></defs><g
     id="g10"
     transform="matrix(1.3333333,0,0,-1.3333333,0,1440)"><g
       id="g12"><g
         id="g14"><g
           id="g16"
           clip-path="url(#clipPath20)"><path
             d="M 0,0 H 1920 V 1080 H 0 Z"
             style="fill:#ffffff;fill-opacity:1;fill-rule:nonzero;stroke:none"
             id="path22" /></g></g></g><text
       transform="matrix(1,0,0,-1,99,953.4)"
       style="font-variant:normal;font-weight:normal;font-stretch:normal;font-size:38px;font-family:'Prosto One';-inkscape-font-specification:ProstoOne-Regular;writing-mode:lr-tb;fill:#000000;fill-opacity:1;fill-rule:nonzero;stroke:none"
       id="text28"><tspan
         x="0 30.4 61.560001 72.389999 97.660004 127.68 158.84 189.24001"
         y="0"
         id="tspan24">RAILCAR </tspan><tspan
         x="0 27.360001 52.630001 79.610001 106.59"
         y="45.599998"
         id="tspan26">FLEET</tspan></text><text
       transform="matrix(1,0,0,-1,99,829.1)"
       style="font-variant:normal;font-weight:300;font-stretch:normal;font-size:20px;font-family:'Rubik Light';-inkscape-font-specification:Rubik-Light;writing-mode:lr-tb;fill:#000000;fill-opacity:1;fill-rule:nonzero;stroke:none"
       id="text44"><tspan
         x="0 5.02 16.82 21.98 33.18 45.5 56.700001 68.639999 73.379997 78.540001 89.620003 96.339996 107.26 111.72 123.34 134.998 142.17799 147.338 160.578 172.37801 183.298 187.998 203.438 214.158 223.998 229.158 241.95799 253.658 263.49799 273.33801 277.798 287.896 291.418 301.258 306.418 318.01801 322.478 334.09799 345.71799 356.638 366.478 373.65799 378.81799 390.43799 397.39801 401.858 412.19601 422.81601 429.996 440.91599"
         y="0"
         id="tspan30">In 2020, Freight One was Russia’s biggest private </tspan><tspan
         x="0 6.8000002 17.52 21.98 26.48 31.639999 42.799999 54.419998 65.339996 72.138 82.758003 89.938004 101.098 107.578 112.738 123.958 134.058 139.218 151.01801 162.718 180.278 191.87801 202.798 209.278 214.438 225.45799 232.198 237.358 244.158 254.87801 259.33801 263.83801 274.55801 285.27802 292.23801 302.078 307.23801 311.698 323.49799 328.65799 339.81799 351.43799 362.358 369.15601 379.776 386.95599 391.41599 402.57599 414.37601"
         y="26"
         id="tspan32">rail operator by number of railcars in operation </tspan><tspan
         x="0 5.52 16.24 26.959999 37.68 48.84 55.540001 67.139999 71.599998 83.400002 95.019997 99.737999 106.918 118.078 123.238 128.258 141.938 153.23801 166.478 170.978 175.438 187.23801 197.278 203.658 208.418 213.17799 228.938 233.39799 240.578 252.39799 257.55801 268.71799 280.418 286.896 292.056 303.65601 308.116 318.47601 329.396 336.35599 346.19601 357.116 361.87601 369.07599 373.57599 384.496 395.33401 402.51401 407.254"
         y="52"
         id="tspan34">(according to INFOline). With our diverse fleet, </tspan><tspan
         x="0 15.46 26.379999 31.1 38.279999 45.080002 55.799999 67.599998 77.440002 89.059998 100.22 107.18 114.36 119.52 131.14 137.938 148.658 159.37801 166.558 171.01801 181.73801 192.45799 196.95799 201.45799 211.558 216.718 227.298 237.658 248.578 255.53799 265.638 270.798 281.51801 292.138 299.31799 310.23801 321.858 333.01801 339.978 350.078 355.23801 366.258 372.996"
         y="78"
         id="tspan36">we transport practically every category of </tspan><tspan
         x="0 7.1999998 13.92 24.84 29.299999 40.919998 52.580002 59.759998 64.5 69.660004 80.379997 84.879997 89.379997 100.278 115.998 120.458 132.258 143.87801 149.03799 160.73801 170.578 175.298 182.478 193.638 198.798 216.358 227.078 231.53799 243.17799 250.358 261.078 265.53799 277.33801 282.49799 292.33801 299.51801 310.23801 321.83801 326.298 330.798 335.258 342.43799 352.53601 357.69601 369.29599 380.216 390.056 401.67599 406.13599 413.31601 424.23599"
         y="104"
         id="tspan38">freight, allowing us to maintain stability despite </tspan><tspan
         x="0 10.72 22.540001 33.259998 37.759998 42.259998 53.18 64.980003 76.599998 81.059998 92.860001 104.48 109.64 120.36 131.52 143.32001 154.92 159.38 166.56 171.02 182.17999 193.98 203.82001 208.98 220.14 231.94 237.10001 241.56 253.36 264.95999 269.42001 280.14001 284.60001 296.20001 307.89999 318.62 323.12 328.28 345.84 356.56 363.51999 372.754 383.59399 390.77399 400.61401 405.354"
         y="130"
         id="tspan40">challenging conditions on individual markets, </tspan><tspan
         x="0 4.46 16.26 26.98 31.48 43.18 54.779999 59.240002 71.040001 82.660004 87.82 99.419998 111.12 118.08 122.54 134.34 145.96001 150.67799 157.858 169.67799 180.59801 185.758 198.778 211.636 224.396 229.416 242.95599 251.87601 259.836 271.276 276.436 288.056 298.776 310.57599 322.17599 333.09601 350.65601 355.116 365.836"
         y="156"
         id="tspan42">including during the COVID-19 pandemic.</tspan></text><text
       transform="matrix(1,0,0,-1,744,960.4)"
       style="font-variant:normal;font-weight:500;font-stretch:normal;font-size:28px;font-family:'Rubik Medium';-inkscape-font-specification:Rubik-Medium;writing-mode:lr-tb;fill:#000000;fill-opacity:1;fill-rule:nonzero;stroke:none"
       id="text48"><tspan
         x="0 19.459999 36.875999 48.02 54.403999 79.688004 95.704002 113.204 129.22 146.468 162.65199 179.84399 186.228 197.7332 213.74921 221.1692 228.6172 244.63319 260.6492 271.79321 277.67319 289.29321 296.74121 312.9252 329.05319 341.12119 347.50519 363.52121 378.44519 384.82919 400.70239 412.77039 419.15439 436.37439 449.36639 455.7504 475.43439 491.61841 507.6344 523.81842 549.10242 566.29437 582.47839 593.62238 600.00641 617.36639 635.81842 653.17841 671.63037 678.0144 694.0304 719.31439 735.9184 753.33441 770.66357 782.73163 797.65558 803.47961 815.54761 832.15161 838.53558 851.52759 864.51959 882.18762 887.75958 900.75159 906.57562 918.64362 936.28363 952.88757 970.30359 985.2276 1001.2436 1018.7436 1035.9355"
         y="0"
         id="tspan46">Our managed railcar fleet as at 31 December 2020 amounts to 113,1 thousand </tspan></text><text
       transform="matrix(1,0,0,-1,744,926.408)"
       style="font-variant:normal;font-weight:500;font-stretch:normal;font-size:28px;font-family:'Rubik Medium';-inkscape-font-specification:Rubik-Medium;writing-mode:lr-tb;fill:#000000;fill-opacity:1;fill-rule:nonzero;stroke:none"
       id="text52"><tspan
         x="0 11.508 27.524 34.944 42.391998 58.408001 74.424004 86.155998"
         y="0"
         id="tspan50">railcars</tspan></text><text
       transform="matrix(1,0,0,-1,844.5464,935.724)"
       style="font-variant:normal;font-weight:500;font-stretch:normal;font-size:16.324px;font-family:'Rubik Medium';-inkscape-font-specification:Rubik-Medium;writing-mode:lr-tb;fill:#000000;fill-opacity:1;fill-rule:nonzero;stroke:none"
       id="text56"><tspan
         x="0"
         y="0"
         id="tspan54">*</tspan></text><text
       transform="matrix(1,0,0,-1,858.1944,926.4)"
       style="font-variant:normal;font-weight:500;font-stretch:normal;font-size:28px;font-family:'Rubik Medium';-inkscape-font-specification:Rubik-Medium;writing-mode:lr-tb;fill:#000000;fill-opacity:1;fill-rule:nonzero;stroke:none"
       id="text74"><tspan
         x="0 10.136 27.327999 45.304001 52.723999 70.391998 76.216003 88.283997 105.924 122.528 139.944 154.868 170.884 188.384 205.576 211.96001 237.244 253.84801 265.384 281.56799 287.38919 299.45721 317.0972 333.11319 350.61319 356.99719 364.41721 381.91721 388.30121 405.66119 424.11319 437.10519 453.8772"
         y="0"
         id="tspan58">(+4,3 thousand more than in 2019)</tspan><tspan
         x="-760.70398 -737.85602 -720.41199 -714.02802 -695.54797 -676.73199 -657.85999 -638.96002 -630.56 -610.87598 -593.43201 -587.77881 -569.07483 -562.6908 -543.45477 -524.63879 -505.5708 -486.13879 -466.4548 -460.0708 -441.19879 -421.76682 -401.97079 -382.3428 -364.8988"
         y="622.41199"
         id="tspan60">WE PROVIDE A BROAD RANGE </tspan><tspan
         x="-760.70398 -741.24402 -724.80798 -718.42401 -701.56799 -682.69598 -665.25201 -656.85199 -637.224 -616.784 -600.49078 -594.77881 -577.81079 -558.93878 -539.50677 -519.71082 -501.70679 -483.22681 -463.76682 -445.1188 -430.19479 -412.8096 -395.84161 -387.44159 -367.9816 -348.18561"
         y="656.40399"
         id="tspan62">OF FREIGHT TRANSPORTATION </tspan><tspan
         x="-760.70398 -742.70001 -725.25598 -707 -688.09998 -679.70001 -660.52002 -643.07599 -625.07202 -618.68799 -601.97479 -582.51477 -563.64282 -557.25879 -548.85883 -529.06281 -509.37881 -489.38681 -471.60681 -454.63879 -436.49481 -418.6868"
         y="690.396"
         id="tspan64">SERVICES FOR INDUSTRY </tspan><tspan
         x="-760.70398 -744.43597 -726.992 -707.56 -687.87598 -670.43201 -651.56 -633.55603 -627.172 -618.77197 -598.97601 -593.32281 -573.89081 -557.6228 -542.05481 -535.67078 -517.94678 -500.50281 -482.69479 -476.31079 -453.5748 -434.14279 -415.27081 -397.54681 -380.10281 -363.8096"
         y="724.388"
         id="tspan66">LEADERS IN ALL KEY MARKET </tspan><tspan
         x="-760.70398 -742.70001 -725.42401 -705.79602 -683.06 -665.61603 -645.82001 -628.93878 -610.93481 -605.27881 -585.8468 -566.05078 -546.36682 -539.98279 -523.26678 -503.80679 -484.93481 -478.55081 -455.81479 -438.37079 -418.6868 -410.2868 -390.2948 -367.7016"
         y="758.38"
         id="tspan68">SEGMENTS AND FOR MEDIUM-</tspan><tspan
         x="-760.70398 -742.70001 -734.29999 -716.74402 -699.29999 -679.61603 -673.2348 -653.99878 -634.00677 -616.00281 -607.60278 -587.80682 -570.36279 -552.35883 -534.3548 -516.91083 -498.9068 -493.25079 -473.81879 -454.0228 -434.33881"
         y="792.37201"
         id="tspan70">SIZED BUSINESSES AND </tspan><tspan
         x="-760.70398 -742.70001 -719.96399 -700.53198 -684.26398 -667.99597 -650.552 -631.67999 -625.29602 -606.11603 -589.84802 -581.448 -564.00403 -544.20801 -527.32678"
         y="826.36401"
         id="tspan72">SMALLER CLIENTS</tspan></text><g
       id="g76"><g
         id="g78"
         clip-path="url(#clipPath82)"><g
           id="g84"
           transform="translate(55.4,320.75)"><path
             d="m 0,0 c -1.4,1.9 -3.367,2.85 -5.9,2.85 -2.267,0 -4.084,-0.75 -5.45,-2.25 -1.367,-1.5 -2.05,-3.25 -2.05,-5.25 0,-2 0.666,-3.75 2,-5.25 1.333,-1.5 3,-2.25 5,-2.25 0.666,0 1.266,0.067 1.8,0.2 0.266,0.067 0.5,0.167 0.7,0.3 -0.267,-2 -1.15,-3.583 -2.65,-4.75 -1.5,-1.166 -3.117,-1.75 -4.85,-1.75 v -3.5 c 1.6,0 3.216,0.284 4.85,0.85 1.633,0.567 3.083,1.467 4.35,2.7 1.266,1.234 2.3,2.8 3.1,4.7 0.8,1.9 1.2,4.15 1.2,6.75 C 2.1,-4.117 1.4,-1.9 0,0 M 20,0 C 18.6,1.9 16.633,2.85 14.1,2.85 11.833,2.85 10.016,2.1 8.65,0.6 7.283,-0.9 6.6,-2.65 6.6,-4.65 c 0,-2 0.666,-3.75 2,-5.25 1.333,-1.5 3,-2.25 5,-2.25 0.666,0 1.266,0.067 1.8,0.2 0.266,0.067 0.5,0.167 0.7,0.3 -0.267,-2 -1.15,-3.583 -2.65,-4.75 -1.5,-1.166 -3.117,-1.75 -4.85,-1.75 v -3.5 c 1.6,0 3.216,0.284 4.85,0.85 1.633,0.567 3.083,1.467 4.35,2.7 1.266,1.234 2.3,2.8 3.1,4.7 0.8,1.9 1.2,4.15 1.2,6.75 0,2.533 -0.7,4.75 -2.1,6.65"
             style="fill:#fdb73e;fill-opacity:1;fill-rule:nonzero;stroke:none"
             id="path86" /></g></g></g><text
       transform="matrix(1,0,0,-1,973.5568,100)"
       style="font-variant:normal;font-weight:300;font-stretch:normal;font-size:16px;font-family:'Rubik Light';-inkscape-font-specification:Rubik-Light;writing-mode:lr-tb;fill:#000000;fill-opacity:1;fill-rule:nonzero;stroke:none"
       id="text90"><tspan
         x="0 7.1360002 11.264 22.208 31.040001 36.784 40.911999 44.48 53.919998 62.495998 66.096001 75.456001 84.736 88.304001 97.744003 107.04 111.168 119.904 129.34399 138.62399 146.416 155.23039 160.39841 168.1904 171.79041 175.3584 180.9424 189.67841 193.4864 199.2464 202.84641 211.5824 220.25281 -180.672 -170.256 -160.8 -152.224 -142.784 -133.48801 -124.752 -121.056 -112.736 -104.864 -101.056 -96.928001 -87.968002 -78.112 -71.744003"
         y="0"
         id="tspan88">* Not including end-of-life fleetChange vs. 2019</tspan></text><text
       transform="matrix(1,0,0,-1,744,100)"
       style="font-variant:normal;font-weight:500;font-stretch:normal;font-size:18px;font-family:'Rubik Medium';-inkscape-font-specification:Rubik-Medium;writing-mode:lr-tb;fill:#cfd1d4;fill-opacity:1;fill-rule:nonzero;stroke:none"
       id="text96"><tspan
         x="0 11.052 15.156 24.318001"
         y="0"
         id="tspan92">+ / </tspan><tspan
         x="28.422001"
         y="0"
         id="tspan94">–</tspan></text><g
       id="g98"><g
         id="g100"><g
           id="g106"><g
             id="g108"><path
               d="m 1459.871,796.119 c -15.991,-14.948 -23.988,-36.031 -23.988,-63.254 v 0 -47.119 c 0,-25.131 7.756,-44.505 23.274,-58.114 v 0 c 15.515,-13.614 38.696,-20.418 69.537,-20.418 v 0 c 15.421,0 28.887,1.713 40.408,5.14 v 0 c 11.517,3.427 21.177,8.183 28.986,14.278 v 0 c 7.804,6.091 13.658,13.467 17.562,22.132 v 0 c 3.901,8.661 5.855,18.134 5.855,28.415 v 0 c 0,10.28 -1.906,19.749 -5.712,28.414 v 0 c -3.81,8.66 -9.423,16.037 -16.849,22.132 v 0 c -7.424,6.09 -16.562,10.851 -27.414,14.278 v 0 c -10.852,3.427 -23.229,5.14 -37.124,5.14 v 0 c -8.568,0 -16.233,-0.762 -22.989,-2.284 v 0 c -6.76,-1.527 -12.422,-3.141 -16.991,-4.855 v 0 c -5.525,-2.097 -10.281,-4.475 -14.279,-7.139 v 0 c 0,22.083 4.712,38.311 14.136,48.69 v 0 c 9.423,10.374 22.319,15.563 38.695,15.563 v 0 c 4.185,0 8.897,-0.334 14.136,-0.999 v 0 c 5.234,-0.669 10.659,-1.856 16.277,-3.57 v 0 c 5.613,-1.713 11.325,-4.046 17.134,-6.997 v 0 c 5.805,-2.953 11.374,-6.71 16.706,-11.279 v 0 l 12.851,17.134 c -10.852,9.326 -23.324,16.179 -37.409,20.561 v 0 c -14.092,4.377 -28.272,6.568 -42.551,6.568 v 0 c -30.842,0 -54.259,-7.474 -70.251,-22.417 m 33.841,-154.494 c -9.045,9.611 -13.565,23.368 -13.565,41.265 v 0 25.702 c 3.615,3.426 7.898,6.47 12.85,9.137 v 0 c 4.378,2.285 9.755,4.427 16.136,6.426 v 0 c 6.376,1.999 13.85,2.998 22.417,2.998 v 0 c 6.47,0 12.467,-1.191 17.991,-3.569 v 0 c 5.519,-2.383 10.325,-5.761 14.421,-10.138 v 0 c 4.092,-4.382 7.327,-9.665 9.71,-15.849 v 0 c 2.378,-6.189 3.569,-12.994 3.569,-20.418 v 0 c 0,-7.425 -1.191,-14.235 -3.569,-20.418 v 0 c -2.383,-6.19 -5.712,-11.473 -9.995,-15.85 v 0 c -4.284,-4.382 -9.424,-7.759 -15.421,-10.138 v 0 c -5.997,-2.382 -12.52,-3.569 -19.562,-3.569 v 0 c -14.278,0 -25.942,4.806 -34.982,14.421 M 1265.514,812.11 c -12.565,-4.283 -23.417,-10.806 -32.555,-19.561 v 0 c -9.138,-8.759 -16.233,-19.753 -21.275,-32.983 v 0 c -5.047,-13.235 -7.568,-28.798 -7.568,-46.691 v 0 c 0,-17.898 2.521,-33.461 7.568,-46.69 v 0 c 5.042,-13.235 12.137,-24.23 21.275,-32.985 v 0 c 9.138,-8.758 19.99,-15.277 32.555,-19.561 v 0 c 12.565,-4.283 26.367,-6.425 41.408,-6.425 v 0 c 15.038,0 28.843,2.142 41.408,6.425 v 0 c 12.565,4.284 23.417,10.803 32.555,19.561 v 0 c 9.138,8.755 16.228,19.75 21.274,32.985 v 0 c 5.043,13.229 7.569,28.792 7.569,46.69 v 0 c 0,17.893 -2.526,33.456 -7.569,46.691 v 0 c -5.046,13.23 -12.136,24.224 -21.274,32.983 v 0 c -9.138,8.755 -19.99,15.278 -32.555,19.561 v 0 c -12.565,4.284 -26.37,6.426 -41.408,6.426 v 0 c -15.041,0 -28.843,-2.142 -41.408,-6.426 m 19.705,-180.195 c -7.046,3.142 -13.28,8.139 -18.706,14.993 v 0 c -5.425,6.854 -9.807,15.706 -13.135,26.558 v 0 c -3.334,10.852 -4.998,23.988 -4.998,39.409 v 0 c 0,15.421 1.664,28.557 4.998,39.409 v 0 c 3.328,10.851 7.71,19.704 13.135,26.558 v 0 c 5.426,6.853 11.66,11.851 18.706,14.992 v 0 c 7.041,3.141 14.278,4.713 21.703,4.713 v 0 c 7.424,0 14.658,-1.572 21.704,-4.713 v 0 c 7.041,-3.141 13.278,-8.139 18.705,-14.992 v 0 c 5.425,-6.854 9.802,-15.707 13.135,-26.558 v 0 c 3.329,-10.852 4.998,-23.988 4.998,-39.409 v 0 c 0,-15.421 -1.669,-28.557 -4.998,-39.409 v 0 c -3.333,-10.852 -7.71,-19.704 -13.135,-26.558 v 0 c -5.427,-6.854 -11.664,-11.851 -18.705,-14.993 v 0 c -7.046,-3.141 -14.28,-4.711 -21.704,-4.711 v 0 c -7.425,0 -14.662,1.57 -21.703,4.711 M 992.655,810.54 c -14.756,-5.332 -27.557,-12.663 -38.409,-21.989 v 0 l 12.851,-17.134 c 10.851,9.326 22.132,15.943 33.84,19.847 v 0 c 11.708,3.9 24.701,5.854 38.981,5.854 v 0 c 15.036,0 26.651,-3.19 34.839,-9.567 v 0 c 8.183,-6.38 12.279,-14.612 12.279,-24.701 v 0 c 0,-24.751 -13.805,-37.124 -41.407,-37.124 v 0 h -52.831 v -21.418 h 58.542 c 15.038,0 26.174,-3.096 33.412,-9.281 v 0 c 7.232,-6.19 10.851,-14.992 10.851,-26.415 v 0 c 0,-11.423 -4.524,-20.946 -13.564,-28.558 v 0 c -9.045,-7.617 -23.56,-11.423 -43.55,-11.423 v 0 c -14.278,0 -27.513,2.236 -39.694,6.711 v 0 c -12.186,4.472 -23.703,11.753 -34.554,21.847 v 0 l -14.278,-17.135 c 10.851,-10.093 24.13,-18.089 39.836,-23.988 v 0 c 15.707,-5.898 32.885,-8.852 51.546,-8.852 v 0 c 17.134,0 31.886,1.525 44.264,4.569 v 0 c 12.373,3.043 22.604,7.184 30.699,12.422 v 0 c 8.089,5.234 14.037,11.423 17.848,18.562 v 0 c 3.806,7.139 5.711,14.801 5.711,22.989 v 0 c 0,13.707 -4.047,24.795 -12.136,33.269 v 0 c -8.095,8.469 -19.277,14.515 -33.555,18.134 v 0 c 12.945,4.376 22.368,10.516 28.272,18.419 v 0 c 5.898,7.898 8.852,17.942 8.852,30.128 v 0 c 0,7.425 -1.856,14.372 -5.568,20.846 v 0 c -3.713,6.47 -9.282,12.088 -16.706,16.849 v 0 c -7.425,4.757 -16.662,8.469 -27.701,11.137 v 0 c -11.043,2.664 -23.894,3.998 -38.552,3.998 v 0 c -18.66,0 -35.366,-2.668 -50.118,-7.996 m 653.863,2.285 V 704.308 h 31.413 c 7.233,5.711 15.371,9.754 24.416,12.137 v 0 c 9.04,2.378 17.563,3.569 25.559,3.569 v 0 c 17.892,0 31.172,-4.047 39.837,-12.137 v 0 c 8.661,-8.094 12.993,-19.275 12.993,-33.554 v 0 c 0,-14.278 -4.426,-25.465 -13.278,-33.555 v 0 c -8.854,-8.094 -22.989,-12.137 -42.408,-12.137 v 0 c -13.707,0 -26.558,2.236 -38.552,6.711 v 0 c -11.994,4.472 -23.417,11.753 -34.268,21.847 v 0 l -14.28,-17.135 c 10.853,-10.093 24.083,-18.089 39.695,-23.988 v 0 c 15.609,-5.898 32.363,-8.852 50.261,-8.852 v 0 c 33.506,0 58.065,5.997 73.677,17.991 v 0 c 15.609,11.993 23.417,28.365 23.417,49.118 v 0 c 0,20.749 -7.666,37.124 -22.989,49.118 v 0 c -15.327,11.994 -39.078,17.991 -71.25,17.991 v 0 c -6.474,0 -12.328,-0.477 -17.562,-1.428 v 0 c -5.238,-0.955 -9.758,-1.905 -13.565,-2.855 v 0 c -4.381,-1.335 -8.281,-2.763 -11.708,-4.284 v 0 59.97 h 119.94 v 19.99 z m -760.95,0 -48.547,-34.268 12.851,-18.563 34.268,18.563 h 2.856 V 612.925 h 41.407 v 199.9 z m -111.657,0 -48.547,-34.268 12.851,-18.563 34.268,18.563 h 2.856 V 612.925 h 41.408 v 199.9 z"
               style="fill:url(#linearGradient116);stroke:none"
               id="path118" /></g></g></g></g><text
       transform="matrix(1,0,0,-1,1516.1243,353.35)"
       style="font-variant:normal;font-weight:500;font-stretch:normal;font-size:18px;font-family:'Rubik Medium';-inkscape-font-specification:Rubik-Medium;writing-mode:lr-tb;fill:#cfd1d4;fill-opacity:1;fill-rule:nonzero;stroke:none"
       id="text122"><tspan
         x="0 8.0459995 19.205999 30.365999"
         y="0"
         id="tspan120">-228</tspan></text><text
       transform="matrix(1,0,0,-1,1516.1243,147.844)"
       style="font-variant:normal;font-weight:500;font-stretch:normal;font-size:18px;font-family:'Rubik Medium';-inkscape-font-specification:Rubik-Medium;writing-mode:lr-tb;fill:#cfd1d4;fill-opacity:1;fill-rule:nonzero;stroke:none"
       id="text126"><tspan
         x="0 8.6400003 20.393999"
         y="0"
         id="tspan124">-46</tspan></text><text
       transform="matrix(1,0,0,-1,1481.8668,279.85)"
       style="font-variant:normal;font-weight:bold;font-stretch:normal;font-size:20px;font-family:Rubik;-inkscape-font-specification:Rubik-Bold;writing-mode:lr-tb;fill:#000000;fill-opacity:1;fill-rule:nonzero;stroke:none"
       id="text130"><tspan
         x="0 13.3 26.92"
         y="0"
         id="tspan128">386</tspan></text><text
       transform="matrix(1,0,0,-1,1481.8668,253.85)"
       style="font-variant:normal;font-weight:normal;font-stretch:normal;font-size:20px;font-family:Rubik;-inkscape-font-specification:Rubik-Regular;writing-mode:lr-tb;fill:#000000;fill-opacity:1;fill-rule:nonzero;stroke:none"
       id="text134"><tspan
         x="0 15.86 20.66 32.740002 43.919998 51.279999 62.279999 67.099998 72.019997 84.160004 95.599998 107.48 119.36 130.53999 138.06"
         y="0"
         id="tspan132">Mineral hoppers</tspan></text><path
       d="m 1481.867,147.852 h 1.646 v 85.5 h -1.646 z"
       style="fill:#0c50a8;fill-opacity:1;fill-rule:nonzero;stroke:none"
       id="path136" /><text
       transform="matrix(1,0,0,-1,1481.8668,485.35)"
       style="font-variant:normal;font-weight:bold;font-stretch:normal;font-size:20px;font-family:Rubik;-inkscape-font-specification:Rubik-Bold;writing-mode:lr-tb;fill:#000000;fill-opacity:1;fill-rule:nonzero;stroke:none"
       id="text140"><tspan
         x="0 12.94 18.459999 31.139999 41.220001"
         y="0"
         id="tspan138">5,616</tspan></text><text
       transform="matrix(1,0,0,-1,1481.8668,459.35)"
       style="font-variant:normal;font-weight:normal;font-stretch:normal;font-size:20px;font-family:Rubik;-inkscape-font-specification:Rubik-Regular;writing-mode:lr-tb;fill:#000000;fill-opacity:1;fill-rule:nonzero;stroke:none"
       id="text144"><tspan
         x="0 11.66 16.48 27.379999 35.139999 40.060001 51.060001 62.060001 69.580002"
         y="0"
         id="tspan142">Flat cars</tspan></text><path
       d="m 1481.867,353.352 h 23.258 v 85.5 h -23.258 z"
       style="fill:#0c50a8;fill-opacity:1;fill-rule:nonzero;stroke:none"
       id="path146" /><path
       d="m 1505.124,353.352 h 1 v 85.5 h -1 z"
       style="fill:#cfd1d4;fill-opacity:1;fill-rule:nonzero;stroke:none"
       id="path148" /><text
       transform="matrix(1,0,0,-1,1744.3025,353.35)"
       style="font-variant:normal;font-weight:500;font-stretch:normal;font-size:18px;font-family:'Rubik Medium';-inkscape-font-specification:Rubik-Medium;writing-mode:lr-tb;fill:#fdb73e;fill-opacity:1;fill-rule:nonzero;stroke:none"
       id="text152"><tspan
         x="0 10.656 21.816 32.993999"
         y="0"
         id="tspan150">+254</tspan></text><text
       transform="matrix(1,0,0,-1,1729.3645,485.35)"
       style="font-variant:normal;font-weight:bold;font-stretch:normal;font-size:20px;font-family:Rubik;-inkscape-font-specification:Rubik-Bold;writing-mode:lr-tb;fill:#000000;fill-opacity:1;fill-rule:nonzero;stroke:none"
       id="text156"><tspan
         x="0 10.08 14.4 24.48 37.400002"
         y="0"
         id="tspan154">1,191</tspan></text><text
       transform="matrix(1,0,0,-1,1729.3645,459.35)"
       style="font-variant:normal;font-weight:normal;font-stretch:normal;font-size:20px;font-family:Rubik;-inkscape-font-specification:Rubik-Regular;writing-mode:lr-tb;fill:#000000;fill-opacity:1;fill-rule:nonzero;stroke:none"
       id="text160"><tspan
         x="0 13.5 21.26 33.400002 44.580002 51.639999 56.560001 67.559998 78.559998 86.080002"
         y="0"
         id="tspan158">Other cars</tspan></text><path
       d="m 1729.365,353.352 h 4.938 v 85.5 h -4.938 z"
       style="fill:#0c50a8;fill-opacity:1;fill-rule:nonzero;stroke:none"
       id="path162" /><path
       d="m 1729.365,353.352 h 4.938 v 85.5 h -4.938 z"
       style="fill:#0c50a8;fill-opacity:1;fill-rule:nonzero;stroke:none"
       id="path164" /><path
       d="m 1733.068,353.352 h 1.234 v 85.5 h -1.234 z"
       style="fill:#fdb73e;fill-opacity:1;fill-rule:nonzero;stroke:none"
       id="path166" /><text
       transform="matrix(1,0,0,-1,744,485.35)"
       style="font-variant:normal;font-weight:bold;font-stretch:normal;font-size:20px;font-family:Rubik;-inkscape-font-specification:Rubik-Bold;writing-mode:lr-tb;fill:#000000;fill-opacity:1;fill-rule:nonzero;stroke:none"
       id="text170"><tspan
         x="0 11.58 25.139999 30.66 43.080002 54.66"
         y="0"
         id="tspan168">70,671</tspan></text><text
       transform="matrix(1,0,0,-1,744,459.35)"
       style="font-variant:normal;font-weight:normal;font-stretch:normal;font-size:20px;font-family:Rubik;-inkscape-font-specification:Rubik-Regular;writing-mode:lr-tb;fill:#000000;fill-opacity:1;fill-rule:nonzero;stroke:none"
       id="text174"><tspan
         x="0 13.58 25.02 37.099998 48.98 60.419998 65.239998 76.239998 81.160004 92.160004 103.16 110.68"
         y="0"
         id="tspan172">Gondola cars</tspan></text><text
       transform="matrix(1,0,0,-1,1044.959,353.35)"
       style="font-variant:normal;font-weight:500;font-stretch:normal;font-size:18px;font-family:'Rubik Medium';-inkscape-font-specification:Rubik-Medium;writing-mode:lr-tb;fill:#fdb73e;fill-opacity:1;fill-rule:nonzero;stroke:none"
       id="text178"><tspan
         x="0 11.052 22.752001 27.378 38.681999 50.507999"
         y="0"
         id="tspan176">+8,687</tspan></text><text
       transform="matrix(1,0,0,-1,821.597,147.844)"
       style="font-variant:normal;font-weight:500;font-stretch:normal;font-size:18px;font-family:'Rubik Medium';-inkscape-font-specification:Rubik-Medium;writing-mode:lr-tb;fill:#cfd1d4;fill-opacity:1;fill-rule:nonzero;stroke:none"
       id="text182"><tspan
         x="0 8.5319996 19.601999 23.832001 33.641998 41.992199"
         y="0"
         id="tspan180">-5,719</tspan></text><path
       d="m 744,353.352 h 290.959 v 85.5 H 744 Z"
       style="fill:#0c50a8;fill-opacity:1;fill-rule:nonzero;stroke:none"
       id="path184" /><text
       transform="matrix(1,0,0,-1,744,279.85)"
       style="font-variant:normal;font-weight:bold;font-stretch:normal;font-size:20px;font-family:Rubik;-inkscape-font-specification:Rubik-Bold;writing-mode:lr-tb;fill:#000000;fill-opacity:1;fill-rule:nonzero;stroke:none"
       id="text188"><tspan
         x="0 10.08 23.639999 28.639999 40.220001 53.900002"
         y="0"
         id="tspan186">10,701</tspan></text><text
       transform="matrix(1,0,0,-1,744,253.85)"
       style="font-variant:normal;font-weight:normal;font-stretch:normal;font-size:20px;font-family:Rubik;-inkscape-font-specification:Rubik-Regular;writing-mode:lr-tb;fill:#000000;fill-opacity:1;fill-rule:nonzero;stroke:none"
       id="text192"><tspan
         x="0 9.6999998 20.700001 32.779999 42.84 47.759998 58.759998 69.760002 77.279999"
         y="0"
         id="tspan190">Tank cars</tspan></text><path
       d="m 744,147.852 h 44.035 v 85.5 H 744 Z"
       style="fill:#0c50a8;fill-opacity:1;fill-rule:nonzero;stroke:none"
       id="path194" /><path
       d="m 788.035,147.852 h 23.562 v 85.5 h -23.562 z"
       style="fill:#cfd1d4;fill-opacity:1;fill-rule:nonzero;stroke:none"
       id="path196" /><path
       d="m 999.155,353.352 h 35.804 v 85.5 h -35.804 z"
       style="fill:#fdb73e;fill-opacity:1;fill-rule:nonzero;stroke:none"
       id="path198" /><text
       transform="matrix(1,0,0,-1,1302.5735,353.35)"
       style="font-variant:normal;font-weight:500;font-stretch:normal;font-size:18px;font-family:'Rubik Medium';-inkscape-font-specification:Rubik-Medium;writing-mode:lr-tb;fill:#fdb73e;fill-opacity:1;fill-rule:nonzero;stroke:none"
       id="text204"><tspan
         x="0 10.89 22.247999 33.624001"
         y="0"
         id="tspan200">+347</tspan><tspan
         x="-39.924 -28.872 -17.747999 -7.9380002"
         y="205.506"
         id="tspan202">+977</tspan></text><text
       transform="matrix(1,0,0,-1,1222.2004,279.85)"
       style="font-variant:normal;font-weight:bold;font-stretch:normal;font-size:20px;font-family:Rubik;-inkscape-font-specification:Rubik-Bold;writing-mode:lr-tb;fill:#000000;fill-opacity:1;fill-rule:nonzero;stroke:none"
       id="text208"><tspan
         x="0 10.46 16.08 29.379999 42.48"
         y="0"
         id="tspan206">7,366</tspan></text><text
       transform="matrix(1,0,0,-1,1222.2004,253.85)"
       style="font-variant:normal;font-weight:normal;font-stretch:normal;font-size:20px;font-family:Rubik;-inkscape-font-specification:Rubik-Regular;writing-mode:lr-tb;fill:#000000;fill-opacity:1;fill-rule:nonzero;stroke:none"
       id="text212"><tspan
         x="0 13.3 24.48 42.240002 53.419998 65.360001 73.120003 78.040001 90.18 101.62 113.5 125.38 136.56 144.08"
         y="0"
         id="tspan210">Cement hoppers</tspan></text><text
       transform="matrix(1,0,0,-1,1222.2004,485.35)"
       style="font-variant:normal;font-weight:bold;font-stretch:normal;font-size:20px;font-family:Rubik;-inkscape-font-specification:Rubik-Bold;writing-mode:lr-tb;fill:#000000;fill-opacity:1;fill-rule:nonzero;stroke:none"
       id="text216"><tspan
         x="0 10.08 20.540001 24.860001 34.939999 48.240002"
         y="0"
         id="tspan214">17,134</tspan></text><text
       transform="matrix(1,0,0,-1,1222.2004,459.35)"
       style="font-variant:normal;font-weight:normal;font-stretch:normal;font-size:20px;font-family:Rubik;-inkscape-font-specification:Rubik-Regular;writing-mode:lr-tb;fill:#000000;fill-opacity:1;fill-rule:nonzero;stroke:none"
       id="text220"><tspan
         x="0 13.34 24.52 34.98 45.98 56.98 64.5"
         y="0"
         id="tspan218">Boxcars</tspan></text><path
       d="m 1222.2,353.352 h 70.373 v 85.5 H 1222.2 Z"
       style="fill:#0c50a8;fill-opacity:1;fill-rule:nonzero;stroke:none"
       id="path222" /><path
       d="m 1291.339,353.352 h 1.234 v 85.5 h -1.234 z"
       style="fill:#fdb73e;fill-opacity:1;fill-rule:nonzero;stroke:none"
       id="path224" /><path
       d="m 1222.2,147.852 h 30.454 v 85.5 H 1222.2 Z"
       style="fill:#0c50a8;fill-opacity:1;fill-rule:nonzero;stroke:none"
       id="path226" /><path
       d="m 1248.539,147.852 h 4.115 v 85.5 h -4.115 z"
       style="fill:#fdb73e;fill-opacity:1;fill-rule:nonzero;stroke:none"
       id="path228" /><text
       transform="matrix(1,0,0,-1,39.9201,1023)"
       style="font-variant:normal;font-weight:300;font-stretch:normal;font-size:20px;font-family:'Rubik Light';-inkscape-font-specification:Rubik-Light;writing-mode:lr-tb;fill:#000000;fill-opacity:1;fill-rule:nonzero;stroke:none"
       id="text232"><tspan
         x="0 7.96 59.080002 72.080002 83.68 94.839996 106.54 113.72 118.44 125.62 137.44 148.36 153.52 166.53999 177.7 195.25999 206.88 217.60001 229.09801"
         y="0"
         id="tspan230">12About the Company</tspan></text></g></svg>
