<?xml version="1.0" encoding="UTF-8" standalone="no"?>
<?xml-stylesheet type="text/css" href="main.css" ?>
<svg
   xmlns:dc="http://purl.org/dc/elements/1.1/"
   xmlns:cc="http://creativecommons.org/ns#"
   xmlns:rdf="http://www.w3.org/1999/02/22-rdf-syntax-ns#"
   xmlns:svg="http://www.w3.org/2000/svg"
   xmlns="http://www.w3.org/2000/svg"
   version="1.1"
   id="svg2"
   xml:space="preserve"
   width="2560"
   height="1440"
   viewBox="0 0 2560 1440"><metadata
     id="metadata8"><rdf:RDF><cc:Work
         rdf:about=""><dc:format>image/svg+xml</dc:format><dc:type
           rdf:resource="http://purl.org/dc/dcmitype/StillImage" /></cc:Work></rdf:RDF></metadata><defs
     id="defs6"><clipPath
       clipPathUnits="userSpaceOnUse"
       id="clipPath20"><path
         d="M 0,1080 H 1920 V 0 H 0 Z"
         id="path18" /></clipPath><clipPath
       clipPathUnits="userSpaceOnUse"
       id="clipPath252"><path
         d="M 0,0 H 1920 V 1080 H 0 Z"
         id="path250" /></clipPath></defs><g
     id="g10"
     transform="matrix(1.3333333,0,0,-1.3333333,0,1440)"><g
       id="g12"><g
         id="g14"><g
           id="g16"
           clip-path="url(#clipPath20)"><path
             d="M 0,0 H 1920 V 1080 H 0 Z"
             style="fill:#ffffff;fill-opacity:1;fill-rule:nonzero;stroke:none"
             id="path22" /></g></g></g><g
       id="g24"
       transform="translate(117,822.2201)"><path
         d="M 0,0 H 516"
         style="fill:none;stroke:#fdb73e;stroke-width:2;stroke-linecap:butt;stroke-linejoin:miter;stroke-miterlimit:10;stroke-dasharray:none;stroke-opacity:1"
         id="path26" /></g><text
       transform="matrix(1,0,0,-1,117,842.2201)"
       style="font-variant:normal;font-weight:500;font-stretch:normal;font-size:28px;font-family:'Rubik Medium';-inkscape-font-specification:Rubik-Medium;writing-mode:lr-tb;fill:#000000;fill-opacity:1;fill-rule:nonzero;stroke:none"
       id="text32"><tspan
         x="0 18.452"
         y="0"
         id="tspan28">06</tspan><tspan
         x="36.035999 50.035999 68.236 85.652 103.152"
         y="0"
         id="tspan30"> June</tspan></text><text
       transform="matrix(1,0,0,-1,99,781.2201)"
       style="font-variant:normal;font-weight:normal;font-stretch:normal;font-size:18px;font-family:Rubik;-inkscape-font-specification:Rubik-Regular;writing-mode:lr-tb;fill:#fdb73e;fill-opacity:1;fill-rule:nonzero;stroke:none"
       id="text36"><tspan
         x="0 6.678"
         y="0"
         id="tspan34">• </tspan></text><text
       transform="matrix(1,0,0,-1,117,781.2201)"
       style="font-variant:normal;font-weight:300;font-stretch:normal;font-size:20px;font-family:'Rubik Light';-inkscape-font-specification:Rubik-Light;writing-mode:lr-tb;fill:#000000;fill-opacity:1;fill-rule:nonzero;stroke:none"
       id="text48"><tspan
         x="0 15.12 25.84 30.799999 35.099998 45.619999 57.119999 68.720001 79.239998 90.860001 101.58 112.98 117.5 124.48 136.10001 146.82001 151.78 161.42 172.14 182.66 193.62 205.22 216.62 221.12 236.36 246.72 256.88 267.60001 272.56 283.38 289.92001 294.88 305.84 317.34 323.62 328.57999 345.94 356.45999 360.92001 371.88 378.16 383.12 396.16 407.57999 418.29999 424.89999 435.32001 442.29999 446.56 457.51999 469.12 479.64001 484.14001"
         y="0"
         id="tspan38">We launched the second wave of our major Operational </tspan><tspan
         x="0 11.4 18.4 25.4 29.66 40.18 44.439999 55.16 66.760002 77 86.900002 91.860001 103.76 113.9 123.54 130.52 141.24001 158.60001 163.56 174.98 181.5 192.46001 196.92 207.64 218.16 225.14 229.7 234.14 244.64 256.26001 260.51999 270.16 275.12 279.38 290.70001 300.85999 311.82001 316.12 326.28 337 348.39999 352.92001 359.89999 371.51999 378.04001 388.76001 399.48001 404.44 415.84 422.44 432.95999 444.56 455.07999 466.70001 477.42001 487.26001"
         y="26"
         id="tspan40">Efficiency System project. This involved three branches </tspan><tspan
         x="0 5.96 19.440001 30.040001 40.200001 51.16 60.799999 65.059998 76.459999 80.720001 87.480003 97.120003 106.66 111.2 115.56 126.038 136.558 143.078 154.03799 163.67799 167.978 178.338 188.858 193.158 198.118 208.638 220.23801 231.638 236.59801 248.498 255.478 260.43799 272.65799 283.298 290.27802 300.99799 307.758 317.39801 328.798 340.298 346.798 357.43799 363.61801 368.15799 373.11801 383.638 393.27802 397.77802 413.03799 423.758 428.05801 432.358 437.31799 447.83801 457.478 462.43799 471.478 481.83801 491.93799"
         y="52"
         id="tspan42">(Novosibirsk, Yaroslavl and St Petersburg), as well as key </tspan><tspan
         x="0 11.62 22.34 32.860001 44.259998 49.220001 60.040001 67.040001 74.040001 78.300003 88.82 99.540001 104.1 111.1 122.6 134.2 144.72 151.7 155.96001 166.92 178.52 188.16 192.78 197.74001 208.25999 219.22 236.58 253.94 264.66 271.17999 281.70001 292.42001 296.95999 301.51999 308.51999 312.82001 323.54001 334.17999 341.16 346.12 363.48001 374 385.60001 396.12 407.54001 418.26001 435.62 446.34 457.78 464.76001 469.5"
         y="78"
         id="tspan44">head office functions: commerce, fleet management, </tspan><tspan
         x="0 4.3000002 15.26 26.68 30.940001 40.580002 47.560001 51.82 62.34 71.980003 76.940002 87.459999 99.059998 110.46 115.42 121.94 132.66 144.08 154.60001 158.86 165.62 175.25999"
         y="104"
         id="tspan46">logistics and repairs.</tspan></text><text
       transform="matrix(1,0,0,-1,99,638.2201)"
       style="font-variant:normal;font-weight:normal;font-stretch:normal;font-size:18px;font-family:Rubik;-inkscape-font-specification:Rubik-Regular;writing-mode:lr-tb;fill:#fdb73e;fill-opacity:1;fill-rule:nonzero;stroke:none"
       id="text52"><tspan
         x="0 6.8579998"
         y="0"
         id="tspan50">• </tspan></text><text
       transform="matrix(1,0,0,-1,117,638.2201)"
       style="font-variant:normal;font-weight:300;font-stretch:normal;font-size:20px;font-family:'Rubik Light';-inkscape-font-specification:Rubik-Light;writing-mode:lr-tb;fill:#000000;fill-opacity:1;fill-rule:nonzero;stroke:none"
       id="text68"><tspan
         x="0 15.32 26.24 31.4 35.860001 47.5 54.68 65.599998 77.220001 84.019997 94.639999 101.82 112.74 124.34 129.5 140.66 152.36 158.838 163.998 175.078 181.798 192.718 197.17799 208.798 220.45799 227.638 232.798 246.03799 257.83801 268.758 273.918 289.51801 300.67801 312.27802 316.73801 321.23801 332.15799 337.31799 349.996 360.91599 372.53601 383.69601 390.65601 397.836 408.75601 415.23599 420.396 427.19601 437.91599 442.37601 446.87601 457.59601 468.31601 474.79401"
         y="0"
         id="tspan54">We integrated our Freight One Mobile Reporter railcar </tspan><tspan
         x="0 10.72 21.440001 32.16 43.080002 54.560001 61.740002 72.459999 84.260002 94.980003 105.9 111.06 121.78 133.58 145.17999 150.34 157.058 167.978 172.638 183.558 194.278 201.45799 205.918 217.078 228.87801 234.03799 243.87801 254.798 261.758 272.478 276.93799 287.65799 298.578 303.73801 308.198 319.836 327.01599 338.17599 342.896 350.07599 361.896 372.81601 377.97601 390.396 401.31601 408.276 418.116 429.276 441.07599 451.79599 456.29599 461.45599 474.47601 478.97601 483.436 494.35599 505.99399 513.17401"
         y="26"
         id="tspan56">acceptance and rejection service into the Personal Client </tspan><tspan
         x="0 13 19.719999 30.639999 41.360001 46.119999 51.279999 64.519997 76.220001 82.699997 87.860001 99.480003 110.2 117.16 124.34 136.14 147.06 154.02 163.86 169.02 179.74001 190.46001 202.25999 207.42 219.22 230.118 245.37801 250.53799 260.37799 271.298 282.21799 287.37799 299.078 310.698 320.056 327.23599 338.396 348.13599 359.73599 370.35599 377.53601 388.45599 393.616 405.23599 417.056 428.09601 435.276 446.436 458.056 464.854 475.57401 487.194 499.01401 508.854"
         y="52"
         id="tspan58">Area. Our partners can now see up-to-date photographs </tspan><tspan
         x="0 11.02 17.76 22.48 29.66 41.48 52.400002 57.560001 69.160004 80.099998 90.220001 100.94 111.66 118.62 128.46001 133.62 143.46001 154.38 166.01801 173.198 177.918 185.09801 196.258 200.978 208.158 219.978 230.89799 248.45799 253.198 258.358 269.078 273.578 284.73801 296.53799 308.15799 312.85599 328.57599 333.03601 340.216 352.03601 356.79599 363.996 375.69601 380.19601 384.69601 389.85599 401.45599 412.29599 419.47601 430.19601 434.65601 439.15601 448.996 453.73599"
         y="78"
         id="tspan60">of the boxcars sent to them, along with full details, </tspan><tspan
         x="0 4.46 16.26 26.98 31.48 43.18 54.779999 59.240002 71.040001 82.660004 87.82 98.540001 110.34 115.5 126.22 136.06 145.89999 156.82001 166.66 176.5 194.06 204.98 216.616 223.79601 228.95599 239.976 246.716 251.436 258.616 270.436 281.35599 285.81601 292.29599 297.45599 308.17599 319.336 331.13599 342.73599 347.19601 354.37601 358.836 369.996 381.79599 386.95599 397.67599 409.47601 421.07599 425.79401 432.974 444.79401 455.71399 460.17401 466.65399"
         y="104"
         id="tspan62">including an assessment of their condition and their </tspan><tspan
         x="0 7.1799998 18.1 28.82 40.639999 52.439999 56.900002 67.620003 78.339996 82.839996 88 97.839996 109.46 120.38 131.10001 135.56 142.75999 147.22 157.94 168.558 175.73801 180.198 191.358 203.158 212.998 218.158 223.73599 235.356 245.896 256.53601 261.03601 272.19601 282.91599 294.51599 299.67599 310.396 321.116 332.73599 343.45599 354.17599 358.63599 365.81601 375.23599 379.97601 385.13599 391.85599 402.776 420.336 431.056 435.51599 447.31601 451.776 463.57599 475.19601 480.35599 484.85599 489.31601 496.29401 507.21399 511.95401"
         y="130"
         id="tspan64">technical specifications (payload capacity, remaining life, </tspan><tspan
         x="0 10.72 22.52 34.119999 39.279999 49.119999 59.84 71.660004 82.580002 94.18 105.88 110.38 121.3 132.89999 138.06 144.778 155.698 167.31799 178.03799 182.498 188.978 194.138 205.73801 216.356 223.536 233.576 239.95599"
         y="156"
         id="tspan66">and scheduled repair date).</tspan></text><text
       transform="matrix(1,0,0,-1,99,443.2201)"
       style="font-variant:normal;font-weight:normal;font-stretch:normal;font-size:18px;font-family:Rubik;-inkscape-font-specification:Rubik-Regular;writing-mode:lr-tb;fill:#fdb73e;fill-opacity:1;fill-rule:nonzero;stroke:none"
       id="text72"><tspan
         x="0 6.8579998"
         y="0"
         id="tspan70">• </tspan></text><text
       transform="matrix(1,0,0,-1,117,443.2201)"
       style="font-variant:normal;font-weight:300;font-stretch:normal;font-size:20px;font-family:'Rubik Light';-inkscape-font-specification:Rubik-Light;writing-mode:lr-tb;fill:#000000;fill-opacity:1;fill-rule:nonzero;stroke:none"
       id="text80"><tspan
         x="0 15.32 26.24 31.4 42.119999 46.619999 56.459999 67.620003 72.779999 77.279999 88 99.699997 111.5 122.22 134.03999 144.96001 156.56 161.72 172.44 184.24001 195.278 202.45799 214.278 225.198 231.67799 236.838 254.39799 265.11801 269.77802 280.93799 287.41599 292.57599 304.19601 310.91599 322.07599 326.73599 337.65601 348.37601 355.556 360.716 372.31601 383.23599 393.07599 397.53601 409.15601 420.95599 431.87601 443.47601 448.194 455.37399 466.534"
         y="0"
         id="tspan74">We also launched another major project designed to </tspan><tspan
         x="0 10.72 22.32 33.919998 38.540001 48.880001 59.599998 64.099998 75.800003 86.720001 91.438004 98.617996 109.778 114.938 126.098 137.798 144.278 149.438 159.278 170.198 177.158 187.87801 192.338 203.058 213.978 223.81799 228.638 233.798 246.81799 251.31799 255.778 266.698 278.336 285.51599 290.67599 303.03601 314.19601 325.896 332.85599 344.65601 355.216 365.556 375.396 380.15601 384.79599 395.496 407.31601 411.776 421.616 426.776 437.496 441.95599 459.51599 469.35599"
         y="26"
         id="tspan76">add value to our services: Client Journeys. This aims </tspan><tspan
         x="0 7.1799998 18.34 23.1 30.08 41.240002 48.200001 65.760002 77.459999 81.959999 92.580002 99.760002 110.68 115.84 126.56 138.36 143.52 154.24001 165.86 177.48 184.198 195.358 206.078 216.798 228.618 233.338 240.51801 251.67799 256.83801 267.55801 272.05801 276.51801 287.43799 299.078 306.258 311.418 321.258 332.17801 339.138 349.858 354.31799 365.03799 375.95801 385.798 390.95801 402.55801 413.27802 423.11801 434.03799 445.638"
         y="52"
         id="tspan78">to formulate an approach to client services based </tspan></text><text
       transform="matrix(1,0,0,-1,117,365.2201)"
       style="font-variant:normal;font-weight:300;font-stretch:normal;font-size:20px;font-family:'Rubik Light';-inkscape-font-specification:Rubik-Light;writing-mode:lr-tb;fill:#000000;fill-opacity:1;fill-rule:nonzero;stroke:none"
       id="text84"><tspan
         x="0 11.16 22.959999 28.120001 38.84 50.639999 61.360001 65.860001 76.199997 86.040001 90.5 102.3 113.92 119.08 129.8 134.3 138.75999 149.67999 161.31799 168.498 173.658 185.45799 196.37801 207.298 218.89799 228.73801"
         y="0"
         id="tspan82">on analysing client needs.</tspan></text><g
       id="g86"
       transform="translate(711,822.2201)"><path
         d="M 0,0 H 516"
         style="fill:none;stroke:#fdb73e;stroke-width:2;stroke-linecap:butt;stroke-linejoin:miter;stroke-miterlimit:10;stroke-dasharray:none;stroke-opacity:1"
         id="path88" /></g><g
       id="g90"
       transform="translate(711,540.2201)"><path
         d="M 0,0 H 516"
         style="fill:none;stroke:#fdb73e;stroke-width:2;stroke-linecap:butt;stroke-linejoin:miter;stroke-miterlimit:10;stroke-dasharray:none;stroke-opacity:1"
         id="path92" /></g><text
       transform="matrix(1,0,0,-1,711,842.2201)"
       style="font-variant:normal;font-weight:500;font-stretch:normal;font-size:28px;font-family:'Rubik Medium';-inkscape-font-specification:Rubik-Medium;writing-mode:lr-tb;fill:#000000;fill-opacity:1;fill-rule:nonzero;stroke:none"
       id="text98"><tspan
         x="0 18.452"
         y="0"
         id="tspan94">07</tspan><tspan
         x="33.712002 47.712002 65.912003 83.328003 90.776001"
         y="0"
         id="tspan96"> July</tspan></text><text
       transform="matrix(1,0,0,-1,693,781.2201)"
       style="font-variant:normal;font-weight:normal;font-stretch:normal;font-size:18px;font-family:Rubik;-inkscape-font-specification:Rubik-Regular;writing-mode:lr-tb;fill:#fdb73e;fill-opacity:1;fill-rule:nonzero;stroke:none"
       id="text102"><tspan
         x="0 6.8579998"
         y="0"
         id="tspan100">• </tspan></text><text
       transform="matrix(1,0,0,-1,711,781.2201)"
       style="font-variant:normal;font-weight:300;font-stretch:normal;font-size:20px;font-family:'Rubik Light';-inkscape-font-specification:Rubik-Light;writing-mode:lr-tb;fill:#000000;fill-opacity:1;fill-rule:nonzero;stroke:none"
       id="text106"><tspan
         x="0 11.84 22.200001 33.82 44.740002 51.700001 58.880001 64.040001 76.839996 89.297997 94.458 105.178 116.338 127.958 135.158 139.618 146.578 164.138 175.058 186.658 191.81799 202.978 214.67799 221.158 226.31799 233.278 244.978 257.978 270.978 283.53799 288.698 299.418 306.13599 317.056 328.65601 333.116 340.29599 345.45599 352.25601 362.87601 370.056 374.51599 386.31601 397.936 402.63599 418.35599 422.81601 429.996 441.81601 446.97601 457.69601"
         y="0"
         id="tspan104">Expert RA confirmed our ruAA+ credit rating with a </tspan></text><text
       transform="matrix(1,0,0,-1,711,755.2201)"
       style="font-variant:normal;font-weight:300;font-stretch:normal;font-size:20px;font-family:'Rubik Light';-inkscape-font-specification:Rubik-Light;writing-mode:lr-tb;fill:#000000;fill-opacity:1;fill-rule:nonzero;stroke:none"
       id="text110"><tspan
         x="0 12.1 19.280001 30 41.599998 46.099998 57.02 62.18 75.419998 87.120003 94.300003 98.800003 109.96 121.12 130.86"
         y="0"
         id="tspan108">Stable Outlook.</tspan></text><text
       transform="matrix(1,0,0,-1,693,716.2201)"
       style="font-variant:normal;font-weight:normal;font-stretch:normal;font-size:18px;font-family:Rubik;-inkscape-font-specification:Rubik-Regular;writing-mode:lr-tb;fill:#fdb73e;fill-opacity:1;fill-rule:nonzero;stroke:none"
       id="text114"><tspan
         x="0 6.8579998"
         y="0"
         id="tspan112">• </tspan></text><text
       transform="matrix(1,0,0,-1,711,716.2201)"
       style="font-variant:normal;font-weight:300;font-stretch:normal;font-size:20px;font-family:'Rubik Light';-inkscape-font-specification:Rubik-Light;writing-mode:lr-tb;fill:#000000;fill-opacity:1;fill-rule:nonzero;stroke:none"
       id="text124"><tspan
         x="0 15.32 26.24 31.4 41.240002 45.700001 57.32 69.120003 80.040001 91.639999 96.800003 107.52 112.278 119.478 123.938 134.298 145.218 154.45799 164.758 175.67799 186.39799 192.87801 198.03799 207.87801 218.798 225.758 236.478 240.938 251.658 262.578 267.73801 278.45801 289.61801 301.25601 308.436 315.23599 325.95599 336.67599 343.85599 348.556 364.276 368.73599 375.91599 387.73599 392.45599 399.63599 411.45599 422.37601 427.53601 441.216 451.83401 459.01401 463.474 474.634 486.43399 497.15399 501.65399"
         y="0"
         id="tspan116">We signed a five-year service contract with the National </tspan><tspan
         x="0 12.88 24.5 36.119999 42.84 53.759998 65.379997 76 83.18 94.099998 103.94 109.098 122.118 133.278 150.838 162.45799 173.17799 184.67799 194.09801 198.838 203.998 215.698 227.498 239.09801 250.01801 256.49799 261.198 276.918 288.73801 293.198 303.918 315.73801 320.43799 335.89801 346.81799 351.51801 367.23801 371.698 376.198 380.698 385.418 392.59799 399.39801 410.11801 421.918 431.758 443.37799 454.53799 461.49799 468.67801"
         y="26"
         id="tspan118">Aggregates Company, under which we will transport </tspan><tspan
         x="0 17.559999 28.719999 35.439999 46.360001 51.080002 58.259998 70.080002 80.800003 92.599998 97.760002 105.72 118.04 129.978 134.338 146.658 158.978 171.298 176.01801 183.198 194.358 206.158 217.95799 228.87801 238.718 243.87801 254.89799 261.638 266.798 277.95801 289.65799 296.138 301.298 312.918 323.638 330.59799 337.77802 349.578 360.49799 367.45801 370.978 380.81799 385.978 397.59799 404.31601 415.47601 427.07599 438.776 449.496 456.67599 466.51599"
         y="52"
         id="tspan120">more than 100,000 tonnes of our partner’s products </tspan><tspan
         x="0 10.58 20.940001 31.860001 38.82 48.919998 54.080002 71.639999 82.800003 94.440002 101.62 113.44"
         y="78"
         id="tspan122">every month.</tspan></text><text
       transform="matrix(1,0,0,-1,711,560.2201)"
       style="font-variant:normal;font-weight:500;font-stretch:normal;font-size:28px;font-family:'Rubik Medium';-inkscape-font-specification:Rubik-Medium;writing-mode:lr-tb;fill:#fdb73e;fill-opacity:1;fill-rule:nonzero;stroke:none"
       id="text128"><tspan
         x="0 18.452"
         y="0"
         id="tspan126">08</tspan></text><text
       transform="matrix(1,0,0,-1,761.12,560.2201)"
       style="font-variant:normal;font-weight:500;font-stretch:normal;font-size:28px;font-family:'Rubik Medium';-inkscape-font-specification:Rubik-Medium;writing-mode:lr-tb;fill:#000000;fill-opacity:1;fill-rule:nonzero;stroke:none"
       id="text132"><tspan
         x="0 19.264 36.68 53.928001 71.344002 86.211998"
         y="0"
         id="tspan130">August</tspan></text><text
       transform="matrix(1,0,0,-1,693,499.2201)"
       style="font-variant:normal;font-weight:normal;font-stretch:normal;font-size:18px;font-family:Rubik;-inkscape-font-specification:Rubik-Regular;writing-mode:lr-tb;fill:#fdb73e;fill-opacity:1;fill-rule:nonzero;stroke:none"
       id="text136"><tspan
         x="0 6.8579998"
         y="0"
         id="tspan134">• </tspan></text><text
       transform="matrix(1,0,0,-1,711,499.2201)"
       style="font-variant:normal;font-weight:300;font-stretch:normal;font-size:20px;font-family:'Rubik Light';-inkscape-font-specification:Rubik-Light;writing-mode:lr-tb;fill:#000000;fill-opacity:1;fill-rule:nonzero;stroke:none"
       id="text146"><tspan
         x="0 15.32 26.24 31.4 43 53.919998 65.540001 76.260002 88.059998 93.220001 110.78 122.48 126.98 134.16 138.62 156.17999 167.34 178.94 189.66 194.16 198.87801 206.058 212.858 223.578 235.37801 245.218 256.83801 267.99799 274.95801 282.138 292.75601 299.936 304.396 315.556 327.35599 332.51599 343.53601 350.276 355.03601 362.23599 368.95599 379.87601 384.336 395.95599 407.616 414.79599 419.556 426.75601 433.474 444.634 462.194 466.914 474.09399 485.914 496.83401"
         y="0"
         id="tspan138">We began multimodal transportation of freight from the </tspan><tspan
         x="0 11.04 22.74 32.540001 44.139999 54.860001 64.699997 74.540001 79.260002 86.440002 97.599998 102.76 118.36 129.52 141.32001 152.94 164.10001 168.60001 173.06 183.78 188.53999 193.298 208.618 219.53799 224.698 235.418 242.37801 249.17799 259.89801 271.698 283.31799 294.23801 305.83801 310.59799 317.57599 328.73599 335.21799 340.37799 350.21799 357.39801 368.31799 379.23801 383.73801 388.89801 400.51801 407.23599 418.396 429.996 441.69601 452.41599 459.59601 469.436"
         y="26"
         id="tspan140">Kuzbass to Mongolia. We arranged for steel products </tspan><tspan
         x="0 7.1799998 18.34 23.5 35.099998 46.02 51.18 62.779999 73.699997 78.199997 82.660004 93.017998 103.938 110.658 121.578 133.17799 138.338 149.558 159.658 164.81799 171.53799 182.698 193.418 205.01801 209.778 216.978 223.696 234.856 252.416 257.57599 268.47601 279.396 296.95599 307.87601 314.59601 325.396 335.75601 346.91599 352.07599 364.75601 375.67599 387.29599 391.75601 402.91599 414.716 419.436 426.616 437.776"
         y="52"
         id="tspan142">to be delivered by road from Kemerovo Region to </tspan><tspan
         x="0 13.68 24.48 34.84 46 55.84 60.299999 71.900002 76.360001 83.32 93.160004 102.9 107.64 112.8 123.52 135.32001 146.92 151.638 158.81799 170.638 181.558 193.358 198.51801 202.978 214.778 219.938 231.53799 242.478 252.59801 263.31799 274.03799 280.99799 290.83801 295.55801 302.73801 313.89801 319.05801 334.65799 345.81799 357.61801 369.23801 380.39801 384.89801 389.358 400.078"
         y="78"
         id="tspan144">Novosibirsk, and then in boxcars to Mongolia.</tspan></text><g
       id="g148"
       transform="translate(1305,822.2201)"><path
         d="M 0,0 H 516"
         style="fill:none;stroke:#fdb73e;stroke-width:2;stroke-linecap:butt;stroke-linejoin:miter;stroke-miterlimit:10;stroke-dasharray:none;stroke-opacity:1"
         id="path150" /></g><g
       id="g152"
       transform="translate(1305,462.2201)"><path
         d="M 0,0 H 516"
         style="fill:none;stroke:#fdb73e;stroke-width:2;stroke-linecap:butt;stroke-linejoin:miter;stroke-miterlimit:10;stroke-dasharray:none;stroke-opacity:1"
         id="path154" /></g><text
       transform="matrix(1,0,0,-1,1305,842.2201)"
       style="font-variant:normal;font-weight:500;font-stretch:normal;font-size:28px;font-family:'Rubik Medium';-inkscape-font-specification:Rubik-Medium;writing-mode:lr-tb;fill:#fdb73e;fill-opacity:1;fill-rule:nonzero;stroke:none"
       id="text158"><tspan
         x="0 18.452"
         y="0"
         id="tspan156">09</tspan></text><text
       transform="matrix(1,0,0,-1,1354.756,842.2201)"
       style="font-variant:normal;font-weight:500;font-stretch:normal;font-size:28px;font-family:'Rubik Medium';-inkscape-font-specification:Rubik-Medium;writing-mode:lr-tb;fill:#000000;fill-opacity:1;fill-rule:nonzero;stroke:none"
       id="text162"><tspan
         x="0 18.004 34.188 51.268002 63.335999 79.519997 104.804 121.996 138.17999"
         y="0"
         id="tspan160">September</tspan></text><text
       transform="matrix(1,0,0,-1,1287,781.2201)"
       style="font-variant:normal;font-weight:normal;font-stretch:normal;font-size:18px;font-family:Rubik;-inkscape-font-specification:Rubik-Regular;writing-mode:lr-tb;fill:#fdb73e;fill-opacity:1;fill-rule:nonzero;stroke:none"
       id="text166"><tspan
         x="0 6.8579998"
         y="0"
         id="tspan164">• </tspan></text><text
       transform="matrix(1,0,0,-1,1305,781.2201)"
       style="font-variant:normal;font-weight:300;font-stretch:normal;font-size:20px;font-family:'Rubik Light';-inkscape-font-specification:Rubik-Light;writing-mode:lr-tb;fill:#000000;fill-opacity:1;fill-rule:nonzero;stroke:none"
       id="text174"><tspan
         x="0 15.32 26.24 31.4 41.240002 45.700001 57.32 69.120003 80.040001 91.639999 96.800003 107.52 112.68 124.48 135.138 150.39799 155.558 166.278 177.89799 184.618 195.53799 206.45799 224.01801 234.938 246.578 253.758 258.45801 274.17801 278.638 285.81799 297.638 302.35599 309.53601 321.35599 332.276 337.436 349.03601 353.496 365.116 376.73599 387.65601 397.496 404.67599"
         y="0"
         id="tspan168">We signed a new agreement with the biggest </tspan><tspan
         x="0 11.62 18.42 29.139999 33.599998 45.400002 55.139999 66.760002 73.480003 84.639999 95.360001 106.28 116.12 125.96 130.42 142.22 153.84 159 169.72 180.88 198.44 210.06 220.78 232.58 237.03999 247.96001 257.79999 262.95999 267.42001 279.22 283.836 296.836 301.336 308.51599 319.23599 323.69601 328.336 337.496 348.41599 355.37601 362.336 366.79599 373.97601 385.13599 392.09601 402.73599 407.556"
         y="26"
         id="tspan170">grain-processing companies in Altai Territory: </tspan><tspan
         x="0 13 17.5 28.059999 38.400002 48.240002 57.98 67.639999 78.559998 85.519997 97.32 108.48 120.1 126.818 137.978 149.578 161.278 171.01801 178.198 183.358 187.81799 199.618 204.23801 217.23801 221.73801 232.298 242.638 252.478 262.21799 266.95801 272.11801 282.83801 294.638 306.23801 311.39801 326.99799 337.918 342.418 354.21799 358.67801 368.418 373.15799 378.31799 382.77802 394.578 399.73801 412.53799 424.23801 435.69601 442.87601 452.716 463.51599 473.91599 483.75601 493.496"
         y="52"
         id="tspan172">Aleyskzernoprodukt in Aleysk, and Melnik, in Rubtsovsk.</tspan></text><text
       transform="matrix(1,0,0,-1,1287,690.2201)"
       style="font-variant:normal;font-weight:normal;font-stretch:normal;font-size:18px;font-family:Rubik;-inkscape-font-specification:Rubik-Regular;writing-mode:lr-tb;fill:#fdb73e;fill-opacity:1;fill-rule:nonzero;stroke:none"
       id="text178"><tspan
         x="0 6.8579998"
         y="0"
         id="tspan176">• </tspan></text><text
       transform="matrix(1,0,0,-1,1305,690.2201)"
       style="font-variant:normal;font-weight:300;font-stretch:normal;font-size:20px;font-family:'Rubik Light';-inkscape-font-specification:Rubik-Light;writing-mode:lr-tb;fill:#000000;fill-opacity:1;fill-rule:nonzero;stroke:none"
       id="text190"><tspan
         x="0 15.32 26.24 31.4 42.119999 53.279999 70.839996 82.459999 86.959999 97.797997 104.978 115.898 127.498 132.658 139.37801 150.298 162.09801 172.89799 183.23801 193.858 201.03799 205.498 216.658 228.45799 233.618 244.638 251.37801 256.09799 263.27802 275.09799 286.01801 290.638 303.51801 314.23801 326.05801 330.51801 342.31799 352.15799 361.65601 366.35599 381.79599 392.51599 402.35599 414.17599 418.63599 430.436 442.056 447.216 457.936 469.73599 481.336"
         y="0"
         id="tspan180">We completed renovation of the Achinsk washing and </tspan><tspan
         x="0 9.8400002 17.02 27.940001 38.66 56.220001 60.68 72.480003 84.099998 89.260002 99.099998 106.28 116.898 124.078 128.53799 139.698 151.498 156.658 161.118 172.918 178.078 189.578 196.37801 207.09801 216.938 228.73801 239.51801 249.798 260.51801 267.478 277.31799 286.81601 291.45801 300.616 311.53601 318.496 325.45599 329.91599 337.09601 348.25601 355.216 364.63599 369.37601 374.53601 385.25601 397.056 408.65601 413.81601 425.41599 436.336 447.95599 458.67599 470.47601 475.194 482.37399 494.194 505.11401"
         y="26"
         id="tspan182">steaming station in Krasnoyarsk Territory, and began the </tspan><tspan
         x="0 9.8400002 20.76 31.48 42.639999 54.439999 66.040001 71.160004 82.779999 94.599998 105.32 115.16 126.08 131.2 142.22 148.96001 154.08 160.8 171.72 183.52 194.32001 204.66 215.28 222.46001 226.92 238.08 249.88 255 266.01999 272.76001 277.43399 284.61401 296.43399 307.354 312.474 323.37399 334.534 352.09399 363.694 368.15399 379.95401 390.57401 397.754 407.59399 417.134 427.67401 437.95401 448.67401 453.79401 463.634 470.814 481.43399 488.61401 493.07401 504.23401 516.034"
         y="52"
         id="tspan184">second phase of renovation of the Kombinatskaya station </tspan><tspan
         x="0 4.46 16.26 21.42 34.66 52.220001 62.060001 71.800003 76.559998 81.197998 91.900002 103.72 114.64 119.8 131.5 143.12 154.74001 161.53799 172.258 183.858 194.778 199.478 214.918 225.638 235.478 240.638 251.358 262.078 269.03799 275.99799 280.45801 291.37799 302.978 308.138 319.298 330.99799 338.17801 343.33801 347.798 359.59799 364.758 375.478 386.638 404.198 415.81799 420.31799 424.77802 435.49799 447.298 458.01801 468.93799"
         y="78"
         id="tspan186">in Omsk. The upgrade was carried out in compliance </tspan><tspan
         x="0 15.72 20.18 27.360001 39.18 44.34 56.16 67.080002 77.800003 82.300003 89.480003 101.3 106.46 117.18 128.98 140.58 145.74001 155.58 166.198 173.17799 184.01801 191.198 201.298 206.45799 216.298 223.478 234.198 245.998 257.59799 268.31799 275.01599 286.616 296.45599 301.19601 305.896 321.616 326.07599 333.25601 345.07599 350.23599 362.03601 373.19601 378.35599 389.95599 394.41599 404.25601 411.216 422.91599 434.39401 441.57401 446.034 457.194 468.99399"
         y="104"
         id="tspan188">with health and safety standards, with no disruption </tspan></text><text
       transform="matrix(1,0,0,-1,1305,560.2201)"
       style="font-variant:normal;font-weight:300;font-stretch:normal;font-size:20px;font-family:'Rubik Light';-inkscape-font-specification:Rubik-Light;writing-mode:lr-tb;fill:#000000;fill-opacity:1;fill-rule:nonzero;stroke:none"
       id="text194"><tspan
         x="0 7.1799998 18.34 23.5 38.959999 50.119999 57.080002 66.82 74.019997 78.519997 89.419998 104.3"
         y="0"
         id="tspan192">to workflow.</tspan></text><text
       transform="matrix(1,0,0,-1,1305,482.2201)"
       style="font-variant:normal;font-weight:500;font-stretch:normal;font-size:28px;font-family:'Rubik Medium';-inkscape-font-specification:Rubik-Medium;writing-mode:lr-tb;fill:#fdb73e;fill-opacity:1;fill-rule:nonzero;stroke:none"
       id="text198"><tspan
         x="0 12.992"
         y="0"
         id="tspan196">10</tspan></text><text
       transform="matrix(1,0,0,-1,1350.444,482.2201)"
       style="font-variant:normal;font-weight:500;font-stretch:normal;font-size:28px;font-family:'Rubik Medium';-inkscape-font-specification:Rubik-Medium;writing-mode:lr-tb;fill:#000000;fill-opacity:1;fill-rule:nonzero;stroke:none"
       id="text202"><tspan
         x="0 19.459999 35.476002 47.543999 64.148003 81.339996 97.524002"
         y="0"
         id="tspan200">October</tspan></text><text
       transform="matrix(1,0,0,-1,1287,421.2201)"
       style="font-variant:normal;font-weight:normal;font-stretch:normal;font-size:18px;font-family:Rubik;-inkscape-font-specification:Rubik-Regular;writing-mode:lr-tb;fill:#fdb73e;fill-opacity:1;fill-rule:nonzero;stroke:none"
       id="text206"><tspan
         x="0 6.8579998"
         y="0"
         id="tspan204">• </tspan></text><text
       transform="matrix(1,0,0,-1,1305,421.2201)"
       style="font-variant:normal;font-weight:300;font-stretch:normal;font-size:20px;font-family:'Rubik Light';-inkscape-font-specification:Rubik-Light;writing-mode:lr-tb;fill:#000000;fill-opacity:1;fill-rule:nonzero;stroke:none"
       id="text210"><tspan
         x="0 11.08 17.799999 28.719999 33.18 44.799999 56.459999 63.639999 68.800003 82.040001 93.839996 104.76 109.92 119.76 124.22 135.84 147.64 158.56 170.16 175.32001 186.03999 191.2 201.03999 211.96001 218.92 229.64 234.10001 244.82001 255.74001 260.89999 271.62 282.78 294.41599 301.59601 308.396 319.116 329.836 337.01599 341.716 357.436 361.896 369.07599 380.896 386.056 397.896 409.29599 420.05399 433.29401 438.45401 451.73401 458.45401 469.61401 481.314 492.694"
         y="0"
         id="tspan208">Freight One signed a service contract with EFKO Group.</tspan></text><text
       transform="matrix(1,0,0,-1,1287,382.2201)"
       style="font-variant:normal;font-weight:normal;font-stretch:normal;font-size:18px;font-family:Rubik;-inkscape-font-specification:Rubik-Regular;writing-mode:lr-tb;fill:#fdb73e;fill-opacity:1;fill-rule:nonzero;stroke:none"
       id="text214"><tspan
         x="0 6.7680001"
         y="0"
         id="tspan212">• </tspan></text><text
       transform="matrix(1,0,0,-1,1305,382.2201)"
       style="font-variant:normal;font-weight:300;font-stretch:normal;font-size:20px;font-family:'Rubik Light';-inkscape-font-specification:Rubik-Light;writing-mode:lr-tb;fill:#000000;fill-opacity:1;fill-rule:nonzero;stroke:none"
       id="text230"><tspan
         x="0 11.74 29.200001 40.720001 45.119999 55.799999 66 76.82 87.639999 97.379997 102.04 109.14 115.76 126.82 144.28 149.34 160.39999 172 178.38 182.92 191.98 202.8 213.42 225.14 236.84 241.2 251.82001 262.44 266.84 271.89999 284.22 295.28 299.67999 304.04001 314.38 324.38 329.44 342.88 353.70001 365.22 375.84 382.70001 389.78 407.23999 418.06 429.60001 436.67999 441.28 456.64001 467.70001 479.5"
         y="0"
         id="tspan216">Employees from our Technical Policy Department won </tspan><tspan
         x="0 10.62 25.959999 36.580002 43.18 54.68 64.419998 69.080002 75.959999 87.019997 93.400002 98.019997 105.1 116.82 127.64 132.7 137 149.46001 156.16 166.78 177.39999 184.48 188.84 199.46001 210.08 214.48 219.53999 230.16 241.22 252.75999 259.84 266.70001 271.06 282.56 294.16 301.23999 305.60001 316.66 328.35999 332.98001 340.06 351.12 355.73999 362.82001 374.54001 385.35999 390.42001 401.04001 407.66 418.48001 429 436.07999 440.44 451.5 463.20001 468.26001 478.88 490.57999 502.17999"
         y="26"
         id="tspan218">awards for the ‘Practical contribution to the creation and </tspan><tspan
         x="0 4.3600001 21.82 33.34 37.740002 48.560001 66.019997 76.839996 88.379997 95.459999 105.98 113.06 117.42 128.48 140.17999 145.24001 156.16 162.8 167.86 178.48 183.08 198.44 209.5 216.36 226 237.52 241.92 252.53999 263.16 273.98001 279.04001 288.78 295.85999 306.48001 318.17999 329.67999 340.29999 346.89999 358.39999 362.76001 372.45999 382.98001 390.06 394.42001 405.48001 417.17999 422.23999 431.98001 442.79999 449.66 460.28 464.64001 475.26001 485.35999 487.38 492.14001"
         y="52"
         id="tspan220">implementation of a workplace standardization service’. </tspan><tspan
         x="0 10.6 22.32 33.139999 38.200001 50.200001 57.279999 67.900002 79.599998 91.099998 101.72 108.32 119.82 124.18 133.74001 144.56 150.94 156 166.92 173.56 178.17999 185.25999 196.98 207.8 212.25999 223.14 233.96001 244.58 250.96001 256.01999 266.64001 277.70001 295.16 306.67999 317.42001 324.5 328.85999 335.94 340.29999 351.35999 363.06 368.12 372.48001 382.22 387.28 399 409.82001 414.22 425.72 430.78 441.39999 453.10001 464.79999 476.39999 487.01999 491.42001 495.82001 505.92001"
         y="78"
         id="tspan222">The Standardizer of the Year competition is held annually </tspan><tspan
         x="0 10.62 20.360001 25.42 36.939999 47.560001 54.419998 61.5 66.559998 77.480003 84.120003 89.18 99.800003 104.86 109.42 120.48 124.84 136.38 143.46001 148.52 160.03999 166.66 177.72 182.28 193.10001 203.72 210.8 215.86 222.72 234.32001 246.02 251.08 262.20001 272.20001 276.82001 283.89999 295.62 306.44 311.5 324.20001 335.79999 345.54001 355.28 359.64001 370.26001 381.95999 387.01999 400.16 406.76001 418.28 428.89999 440.60001 444.95999 454.66 465.17999 472.26001 476.62 487.67999 499.48001"
         y="104"
         id="tspan224">as part of a joint project run by the Russian Organization </tspan><tspan
         x="0 6.8800001 17.940001 24.32 29.379999 42.52 54.119999 64.739998 69.139999 73.5 80.580002 89.900002 94.540001 99.160004 106.24 117.96 128.78 133.84 146.53999 158.14 167.88 177.62 181.98 192.60001 204.3 209.36 224.86 229.22 240.92 245.28 255.02 262.10001 268.95999 278.95999 284.01999 294.94 301.57999 306.64001 311.56 323.26001 334.76001 346.35999 356.10001 363.17999 370.04001 380.04001 385.10001 395.72 407.42001 418.92001 423.45999 432.62 439.32001 449.94 461.44 472.26001 476.89999 481.95999 492.57999 504.28 515.88"
         y="130"
         id="tspan226">for Quality, the Russian Ministry of Industry and Trade, and </tspan><tspan
         x="0 12.58 23.639999 33.380001 43.119999 50.200001 60.82 72.519997 84.019997 94.639999 101.5 108.58"
         y="156"
         id="tspan228">Rosstandart.</tspan></text><text
       transform="matrix(1,0,0,-1,99,953.4)"
       style="font-variant:normal;font-weight:normal;font-stretch:normal;font-size:38px;font-family:'Prosto One';-inkscape-font-specification:ProstoOne-Regular;writing-mode:lr-tb;fill:#000000;fill-opacity:1;fill-rule:nonzero;stroke:none"
       id="text234"><tspan
         x="0 30.209999 57.189999 87.400002 100.7 127.68 159.22 186.2 218.88 245.67 274.17001 287.47 321.67001 349.03 362.32999 388.54999 419.70999 445.92999"
         y="0"
         id="tspan232">KEY EVENTS OF 2020</tspan></text><text
       transform="matrix(1,0,0,-1,118.5,168)"
       style="font-variant:normal;font-weight:500;font-stretch:normal;font-size:28px;font-family:'Rubik Medium';-inkscape-font-specification:Rubik-Medium;writing-mode:lr-tb;fill:#000000;fill-opacity:1;fill-rule:nonzero;stroke:none"
       id="text240"><tspan
         x="0 16.856001 35.728001 53.172001 61.571999 81.199997 101.64 117.9332 124.3172 143.77721 163.5732 181.0172 187.4012 205.4052 225.3972 244.63319 262.63721 271.0372 290.72119 299.12119 318.55319 336.6944 354.50241 360.21439 377.1824 397.62241 415.06641 421.45041 441.0784 459.22241 475.71439 495.14639 512.70239 521.10242"
         y="0"
         id="tspan236">FREIGHT ONE SUBSIDIARY THE GRYAZI </tspan><tspan
         x="0 18.872 38.304001 46.703999 62.720001 81.676003 101.108 119.98 126.364 145.23599 162.67999 179.8972 199.32919 207.7292 226.6012 232.9852 252.6692 270.11319 288.5932 307.68921 323.9852 330.3692 349.54919 366.99319 383.2612 400.7052 419.94119 438.8132 456.19839 473.16641 490.61041 510.2944"
         y="33.992001"
         id="tspan238">RAILCAR REPAIR DEPOT CELEBRATED </tspan></text><text
       transform="matrix(1,0,0,-1,118.5,100.016)"
       style="font-variant:normal;font-weight:500;font-stretch:normal;font-size:28px;font-family:'Rubik Medium';-inkscape-font-specification:Rubik-Medium;writing-mode:lr-tb;fill:#000000;fill-opacity:1;fill-rule:nonzero;stroke:none"
       id="text244"><tspan
         x="0 8.3999996 25.284 43.287998 49.672001 68.068001 85.456001 102.424 122.864 128.52 147.952 167.748 187.54401 195.944 214.84399 232.28799 251.16 268.85321 288.28519 306.4292"
         y="0"
         id="tspan242">ITS 85TH ANNIVERSARY</tspan></text><g
       id="g246"><g
         id="g248"
         clip-path="url(#clipPath252)"><g
           id="g254"
           transform="translate(76.4,184.75)"><path
             d="m 0,0 c -1.4,1.9 -3.367,2.85 -5.9,2.85 -2.267,0 -4.084,-0.75 -5.45,-2.25 -1.367,-1.5 -2.05,-3.25 -2.05,-5.25 0,-2 0.666,-3.75 2,-5.25 1.333,-1.5 3,-2.25 5,-2.25 0.666,0 1.266,0.067 1.8,0.2 0.266,0.067 0.5,0.167 0.7,0.3 -0.267,-2 -1.15,-3.583 -2.65,-4.75 -1.5,-1.166 -3.117,-1.75 -4.85,-1.75 v -3.5 c 1.6,0 3.216,0.284 4.85,0.85 1.633,0.567 3.083,1.467 4.35,2.7 1.266,1.234 2.3,2.8 3.1,4.7 0.8,1.9 1.2,4.15 1.2,6.75 C 2.1,-4.117 1.4,-1.9 0,0 M 20,0 C 18.6,1.9 16.633,2.85 14.1,2.85 11.833,2.85 10.016,2.1 8.65,0.6 7.283,-0.9 6.6,-2.65 6.6,-4.65 c 0,-2 0.666,-3.75 2,-5.25 1.333,-1.5 3,-2.25 5,-2.25 0.666,0 1.266,0.067 1.8,0.2 0.266,0.067 0.5,0.167 0.7,0.3 -0.267,-2 -1.15,-3.583 -2.65,-4.75 -1.5,-1.166 -3.117,-1.75 -4.85,-1.75 v -3.5 c 1.6,0 3.216,0.284 4.85,0.85 1.633,0.567 3.083,1.467 4.35,2.7 1.266,1.234 2.3,2.8 3.1,4.7 0.8,1.9 1.2,4.15 1.2,6.75 0,2.533 -0.7,4.75 -2.1,6.65"
             style="fill:#fdb73e;fill-opacity:1;fill-rule:nonzero;stroke:none"
             id="path256" /></g><g
           id="g258"
           transform="translate(1707.7616,956.44)"><path
             d="m 0,0 v -3.04 h 23.56 v 2.85 H 7.6 l 9.69,7.41 c 0.76,0.582 1.494,1.178 2.204,1.786 0.709,0.608 1.336,1.279 1.881,2.014 0.544,0.734 0.981,1.551 1.311,2.451 0.329,0.899 0.494,1.919 0.494,3.059 0,1.14 -0.241,2.185 -0.722,3.135 -0.482,0.95 -1.21,1.773 -2.185,2.47 -0.976,0.696 -2.198,1.235 -3.667,1.615 -1.47,0.38 -3.205,0.57 -5.206,0.57 -2.483,0 -4.706,-0.355 -6.669,-1.064 C 2.767,22.546 1.064,21.571 -0.38,20.33 l 1.71,-2.28 c 1.444,1.241 2.945,2.121 4.503,2.641 1.558,0.519 3.287,0.779 5.187,0.779 2.102,0 3.673,-0.482 4.712,-1.444 1.038,-0.963 1.558,-2.255 1.558,-3.876 0,-1.242 -0.361,-2.337 -1.083,-3.287 -0.722,-0.95 -1.565,-1.755 -2.527,-2.413 z m 43.167,21.033 c 0.937,-0.418 1.767,-1.083 2.489,-1.995 0.723,-0.912 1.305,-2.09 1.749,-3.534 0.442,-1.444 0.664,-3.192 0.664,-5.244 0,-2.052 -0.222,-3.8 -0.664,-5.244 C 46.961,3.572 46.379,2.394 45.656,1.482 44.934,0.57 44.104,-0.095 43.167,-0.513 42.23,-0.931 41.267,-1.14 40.28,-1.14 c -0.988,0 -1.952,0.209 -2.889,0.627 -0.937,0.418 -1.766,1.083 -2.489,1.995 -0.721,0.912 -1.305,2.09 -1.747,3.534 -0.444,1.444 -0.665,3.192 -0.665,5.244 0,2.052 0.221,3.8 0.665,5.244 0.442,1.444 1.026,2.622 1.747,3.534 0.723,0.912 1.552,1.577 2.489,1.995 0.937,0.418 1.901,0.627 2.889,0.627 0.987,0 1.95,-0.209 2.887,-0.627 m -8.397,2.432 c -1.672,-0.57 -3.117,-1.438 -4.333,-2.603 -1.215,-1.166 -2.16,-2.629 -2.831,-4.389 -0.671,-1.761 -1.007,-3.832 -1.007,-6.213 0,-2.382 0.336,-4.453 1.007,-6.213 0.671,-1.761 1.616,-3.224 2.831,-4.389 1.216,-1.166 2.661,-2.033 4.333,-2.603 1.672,-0.57 3.508,-0.855 5.51,-0.855 2,0 3.838,0.285 5.509,0.855 1.673,0.57 3.117,1.437 4.332,2.603 1.217,1.165 2.16,2.628 2.832,4.389 0.67,1.76 1.006,3.831 1.006,6.213 0,2.381 -0.336,4.452 -1.006,6.213 -0.672,1.76 -1.615,3.223 -2.832,4.389 -1.215,1.165 -2.659,2.033 -4.332,2.603 -1.671,0.57 -3.509,0.855 -5.509,0.855 -2.002,0 -3.838,-0.285 -5.51,-0.855 M 57.379,0 v -3.04 h 23.56 v 2.85 h -15.96 l 9.69,7.41 c 0.76,0.582 1.495,1.178 2.204,1.786 0.709,0.608 1.336,1.279 1.881,2.014 0.545,0.734 0.982,1.551 1.311,2.451 0.329,0.899 0.494,1.919 0.494,3.059 0,1.14 -0.241,2.185 -0.722,3.135 -0.481,0.95 -1.21,1.773 -2.185,2.47 -0.975,0.696 -2.198,1.235 -3.667,1.615 -1.469,0.38 -3.205,0.57 -5.206,0.57 -2.483,0 -4.706,-0.355 -6.669,-1.064 -1.963,-0.71 -3.667,-1.685 -5.111,-2.926 l 1.71,-2.28 c 1.444,1.241 2.945,2.121 4.503,2.641 1.558,0.519 3.287,0.779 5.187,0.779 2.103,0 3.673,-0.482 4.712,-1.444 1.039,-0.963 1.558,-2.255 1.558,-3.876 0,-1.242 -0.361,-2.337 -1.083,-3.287 -0.722,-0.95 -1.564,-1.755 -2.527,-2.413 z m 43.168,21.033 c 0.937,-0.418 1.767,-1.083 2.489,-1.995 0.722,-0.912 1.304,-2.09 1.748,-3.534 0.443,-1.444 0.665,-3.192 0.665,-5.244 0,-2.052 -0.222,-3.8 -0.665,-5.244 -0.444,-1.444 -1.026,-2.622 -1.748,-3.534 -0.722,-0.912 -1.552,-1.577 -2.489,-1.995 -0.938,-0.418 -1.9,-0.627 -2.888,-0.627 -0.988,0 -1.951,0.209 -2.888,0.627 -0.938,0.418 -1.767,1.083 -2.489,1.995 -0.722,0.912 -1.305,2.09 -1.748,3.534 -0.444,1.444 -0.665,3.192 -0.665,5.244 0,2.052 0.221,3.8 0.665,5.244 0.443,1.444 1.026,2.622 1.748,3.534 0.722,0.912 1.551,1.577 2.489,1.995 0.937,0.418 1.9,0.627 2.888,0.627 0.988,0 1.95,-0.209 2.888,-0.627 m -8.398,2.432 c -1.672,-0.57 -3.116,-1.438 -4.332,-2.603 -1.216,-1.166 -2.16,-2.629 -2.831,-4.389 -0.672,-1.761 -1.007,-3.832 -1.007,-6.213 0,-2.382 0.335,-4.453 1.007,-6.213 0.671,-1.761 1.615,-3.224 2.831,-4.389 1.216,-1.166 2.66,-2.033 4.332,-2.603 1.672,-0.57 3.508,-0.855 5.51,-0.855 2.001,0 3.838,0.285 5.51,0.855 1.672,0.57 3.116,1.437 4.332,2.603 1.216,1.165 2.159,2.628 2.831,4.389 0.671,1.76 1.007,3.831 1.007,6.213 0,2.381 -0.336,4.452 -1.007,6.213 -0.672,1.76 -1.615,3.223 -2.831,4.389 -1.216,1.165 -2.66,2.033 -4.332,2.603 -1.672,0.57 -3.509,0.855 -5.51,0.855 -2.002,0 -3.838,-0.285 -5.51,-0.855"
             style="fill:#0c50a8;fill-opacity:1;fill-rule:nonzero;stroke:none"
             id="path260" /></g></g></g><text
       transform="matrix(1,0,0,-1,39.3401,1023)"
       style="font-variant:normal;font-weight:300;font-stretch:normal;font-size:20px;font-family:'Rubik Light';-inkscape-font-specification:Rubik-Light;writing-mode:lr-tb;fill:#000000;fill-opacity:1;fill-rule:nonzero;stroke:none"
       id="text264"><tspan
         x="0 7.96 59.66 72.660004 84.260002 95.419998 107.12 114.3 119.02 126.2 138.02 148.94 154.09801 167.118 178.278 195.838 207.45799 218.17799 229.67799"
         y="0"
         id="tspan262">18About the Company</tspan></text></g></svg>
