<?xml version="1.0" encoding="UTF-8" standalone="no"?>
<?xml-stylesheet type="text/css" href="main.css" ?>
<svg
   xmlns:dc="http://purl.org/dc/elements/1.1/"
   xmlns:cc="http://creativecommons.org/ns#"
   xmlns:rdf="http://www.w3.org/1999/02/22-rdf-syntax-ns#"
   xmlns:svg="http://www.w3.org/2000/svg"
   xmlns="http://www.w3.org/2000/svg"
   version="1.1"
   id="svg2"
   xml:space="preserve"
   width="2560"
   height="1440"
   viewBox="0 0 2560 1440"><metadata
     id="metadata8"><rdf:RDF><cc:Work
         rdf:about=""><dc:format>image/svg+xml</dc:format><dc:type
           rdf:resource="http://purl.org/dc/dcmitype/StillImage" /></cc:Work></rdf:RDF></metadata><defs
     id="defs6"><clipPath
       clipPathUnits="userSpaceOnUse"
       id="clipPath20"><path
         d="M 0,1080 H 1920 V 0 H 0 Z"
         id="path18" /></clipPath><linearGradient
       x1="0"
       y1="0"
       x2="1"
       y2="0"
       gradientUnits="userSpaceOnUse"
       gradientTransform="matrix(852.59119,29.773138,29.773138,-852.59119,691.55556,99.260977)"
       spreadMethod="pad"
       id="linearGradient176"><stop
         style="stop-opacity:1;stop-color:#0c50a8"
         offset="0"
         id="stop170" /><stop
         style="stop-opacity:1;stop-color:#0c50a8"
         offset="0.4854273"
         id="stop172" /><stop
         style="stop-opacity:1;stop-color:#fdb73e"
         offset="1"
         id="stop174" /></linearGradient><linearGradient
       x1="0"
       y1="0"
       x2="1"
       y2="0"
       gradientUnits="userSpaceOnUse"
       gradientTransform="matrix(852.59119,29.773138,29.773138,-852.59119,691.55557,99.260973)"
       spreadMethod="pad"
       id="linearGradient204"><stop
         style="stop-opacity:1;stop-color:#0c50a8"
         offset="0"
         id="stop198" /><stop
         style="stop-opacity:1;stop-color:#0c50a8"
         offset="0.4854273"
         id="stop200" /><stop
         style="stop-opacity:1;stop-color:#fdb73e"
         offset="1"
         id="stop202" /></linearGradient><linearGradient
       x1="0"
       y1="0"
       x2="1"
       y2="0"
       gradientUnits="userSpaceOnUse"
       gradientTransform="matrix(852.59119,29.773138,29.773138,-852.59119,691.55554,99.260975)"
       spreadMethod="pad"
       id="linearGradient236"><stop
         style="stop-opacity:1;stop-color:#0c50a8"
         offset="0"
         id="stop230" /><stop
         style="stop-opacity:1;stop-color:#0c50a8"
         offset="0.4854273"
         id="stop232" /><stop
         style="stop-opacity:1;stop-color:#fdb73e"
         offset="1"
         id="stop234" /></linearGradient></defs><g
     id="g10"
     transform="matrix(1.3333333,0,0,-1.3333333,0,1440)"><g
       id="g12"><g
         id="g14"><g
           id="g16"
           clip-path="url(#clipPath20)"><path
             d="M 0,0 H 1920 V 1080 H 0 Z"
             style="fill:#ffffff;fill-opacity:1;fill-rule:nonzero;stroke:none"
             id="path22" /></g></g></g><path
       d="M 0,0 H 633 V 1080 H 0 Z"
       style="fill:#f0f0f5;fill-opacity:1;fill-rule:nonzero;stroke:none"
       id="path24" /><text
       transform="matrix(1,0,0,-1,99,961.3)"
       style="font-variant:normal;font-weight:300;font-stretch:normal;font-size:20px;font-family:'Rubik Light';-inkscape-font-specification:Rubik-Light;writing-mode:lr-tb;fill:#000000;fill-opacity:1;fill-rule:nonzero;stroke:none"
       id="text56"><tspan
         x="0 11.08 17.799999 28.719999 33.18 44.799999 56.459999 63.639999 68.800003 82.040001 93.839996 104.76 109.458 124.898 135.618 145.45799 150.618 157.338 168.258 178.09801 189.718 200.87801 212.67799 222.51801 226.978 238.578 243.078 253.998 258.75601 265.73599 276.896 283.37601 288.53601 296.496 307.69601 312.45599 323.65601 338.47601 343.63599 354.65601 361.396 366.116 373.29599 384.336 391.51599 402.23599 406.73599"
         y="0"
         id="tspan26">Freight One was responsible for 12.2% of total </tspan><tspan
         x="0 7.1799998 13.98 24.700001 36.5 46.34 57.959999 69.120003 76.080002 83.260002 93.879997 101.06 105.52 116.68 128.48 133.09801 143.45799 154.618 159.118 170.81799 188.37801 199.298 209.138 214.298 225.45799 237.258 241.978 249.158 260.978 271.89801 277.05801 289.858 301.55801 311.39801 321.23801 325.698 336.418 348.21799 353.37799 366.17801 376.89801 381.358 385.858 401.29599 411.836 422.17599 432.01599"
         y="26"
         id="tspan28">transportation volumes on the Russian Railways </tspan><tspan
         x="0 11.8 22.639999 29.82 45.279999 56.439999 63.400002 72.900002 78.059998 82.519997 94.32 99.480003 110.68 123 134.2 146.14 150.88 156.03999 166.75999 178.56 190.16 194.918 201.89799 213.058 219.53799 224.698 242.258 253.418 260.138 271.05801 275.77802 282.95801 294.77802 305.49799 317.298 322.45801 330.418 338.37799 353.198 358.358 369.37799 376.11801 380.87799 388.078 394.798 405.71799 410.17801 421.798 433.45599 440.63599"
         y="52"
         id="tspan30">network in 2020, and for more than 11% of freight </tspan><tspan
         x="0 7.1799998 18.879999 25.84 37.639999 48.439999 58.799999 69.720001 75.599998 80.360001 85.519997 98.760002 109.12 120.04 126.84 137.56 142.06 146.56 151.72 162.88 174.58 181.058 186.218 193.01801 203.73801 208.198 212.698 223.418 234.138 241.09801 250.938 255.658 262.83801 269.638 280.358 292.15799 301.99799 313.61801 324.77802 331.73801 338.918 349.83801 361.43799 366.59799 374.55801 386.198 396.23599 400.716 412.35599"
         y="78"
         id="tspan32">turnover. Overall our railcars transported 169.6 </tspan><tspan
         x="0 17.559999 22.02 26.52 31.02 35.48 46.639999 58.439999 63.16 70.339996 81.5 93.300003 105.1 116.02 125.86 131.01801 142.03799 148.778 153.53799 160.73801 167.45799 178.37801 182.838 194.45799 206.118 213.298 218.03799 223.198 233.918 245.718 257.31799 262.03799 269.21799 280.258 287.43799 298.15799 302.65799 307.41599 314.616 321.336 332.25601 336.716 348.336 359.996 367.17599 371.896 379.07599 390.776 397.73599 409.53601 420.336 430.69601 441.616 448.09601"
         y="104"
         id="tspan34">million tonnes of freight, and total freight turnover </tspan><tspan
         x="0 6.7199998 17.639999 28.360001 39.080002 50.900002 61.82 73.419998 78.580002 89.779999 102.14 112.178 116.558 128.45799 133.618 145.218 149.67799 154.17799 158.67799 163.138 174.298 186.09801 190.81799 197.998 207.73801 225.298"
         y="130"
         id="tspan36">reached 289.4 billion tkm.</tspan><tspan
         x="0 15.32 26.24 31.4 35.860001 47.66 58.380001 65.099998 76.019997 86.739998 96.580002 107.5 119.1 123.818 130.998 137.798 148.51801 160.31799 170.158 181.778 192.938 199.89799 207.078 217.698 224.87801 229.338 240.498 252.298 256.918 267.27802 278.43799 282.93799 294.638 312.198 323.11801 332.95801 338.11801 342.578 354.37799 359.53799 370.258 375.418 387.21799 398.918 416.478 428.078 438.99799 445.47601"
         y="169"
         id="tspan38">We increased transportation volumes in a number </tspan><tspan
         x="0 11.02 17.76 22.92 32.759998 43.68 55.299999 72.860001 83.779999 95.419998 102.6 112.44 117.6 128.618 135.358 140.51801 151.67799 163.37801 169.858 175.01801 186.618 197.338 207.17799 218.09801 223.258 227.718 239.51801 244.67799 255.87801 268.198 279.39801 291.336 296.07599 301.23599 305.69601 317.496 328.216 332.716 344.41599 356.01599 360.47601 372.276 383.896"
         y="195"
         id="tspan40">of segments of our base in 2020, including </tspan><tspan
         x="0 10.72 21.879999 33.68 43.52 50.700001 57.66 69.360001 80.080002 87.260002 91.720001 102.88 114.68 119.84 137.39999 148.01801 155.198 166.118 173.078 177.53799 188.258 192.758 202.59801 207.758 214.138 225.356 235.45599 240.616 252.136 263.336 278.15601 284.53601 289.276 293.996 301.17599 312.996 323.91599 330.87601 348.436 359.15601 363.65601 368.81601 379.53601 390.69601 401.41599 405.91599"
         y="221"
         id="tspan42">construction materials (by 32%), thermal coal </tspan><tspan
         x="0 6.3800001 17.6 27.700001 32.860001 44.060001 53.799999 68.620003 75 79.739998 84.900002 95.620003 107.42 119.02 124.18 134.89999 146.06 155.8 160.25999 172.06 183.67999 188.84 199.56 210.72 221.44 225.94 231.10001 237.48 248.696 258.798 263.95801 275.39801 290.21799 296.59799 301.358 305.97601 318.496 325.67599 330.396 337.57599 349.396 360.31601 365.47601 375.31601 386.03601 403.59601 414.51599"
         y="247"
         id="tspan44">(by 27%), and coking coal (by 9%). At the same </tspan><tspan
         x="0 7.1799998 11.64 29.200001 40.119999 44.860001 49.580002 56.759998 63.560001 74.279999 86.080002 95.919998 107.54 118.7 125.66 132.84 143.45799 150.638 155.09801 166.258 178.058 183.218 194.23801 200.978 206.138 217.758 228.59801 235.778 242.498 253.658 258.15799 269.078 280.77802 298.33801 303.49799 315.11801 321.836 332.996 344.59601 356.29599 367.01599 374.19601 384.03601 388.79599 395.776 406.69601 411.19601 415.69601 420.85599 432.07401 442.17599"
         y="273"
         id="tspan46">time, transportation of petroleum products fell by </tspan><tspan
         x="0 10.96 22.860001 37.68 42.419998 47.580002 58.48 74.199997 78.660004 90.459999 102.08 106.8 113.98 125.14 129.86 137.03999 148.86 159.78 164.94 176.56 187.48 199.28 210.2 216.998 227.718 232.218 237.37801 248.978 259.89801 270.61801 277.33801 288.258 298.978 308.81799 319.73801 324.89801 329.358 341.15799 346.31799 356.15799 367.978 372.43799 384.05801 395.67801 400.138 411.93799 423.55801"
         y="299"
         id="tspan48">24%, owing to the general decrease in shipping </tspan><tspan
         x="0 11.02 17.76 22.92 34.540001 45.380001 52.560001 59.279999 70.440002 74.940002 85.860001 97.559998 115.12 120.28 131.89999 138.618 149.778 161.37801 173.078 183.798 190.978 200.81799 205.978 217.138 228.938 233.658 240.838 252.658 263.578 268.73801 280.53799 291.37601 298.556 314.01599 325.17599 332.13599 341.63599 346.79599 351.25601 363.056 368.216 372.716 377.17599 388.79599 400.45599 407.63599"
         y="325"
         id="tspan50">of petroleum products on the network in light </tspan><tspan
         x="0 11.02 17.76 22.48 29.66 41.48 52.400002 57.560001 64.279999 74.860001 85.580002 90.040001 100.7 115.96 121.12 132.14 138.88 143.60001 150.78 162.60001 173.52 178.67999 191.92 204.48 216.17799 229.198 241.758 246.918 257.638 269.258 275.978 286.89801 297.81799 315.37799 326.298 337.936 345.116 349.85599 355.01599 365.73599 377.53601 389.13599 393.85599 401.03601 412.85599 423.776"
         y="351"
         id="tspan52">of the review of the OPEC+ agreement, and the </tspan><tspan
         x="0 11.62 22.34 34.139999 45.740002 56.66 74.220001 78.68 89.400002 94.559998 105.28 117.08 128.67999 133.84 138.3 145.48 155.32001 160.48 171.2 181.03999 190.88 202.03999 212.75999 217.22 227.836 235.01601 245.936 257.53601 262.69601 269.41599 280.336 290.17599 297.35599 304.31601 308.776 319.496 326.67599 331.13599 342.29599 354.09601 363.936 368.69601 373.85599 386.87601 397.79599 415.35599 426.276 437.914 445.09399"
         y="377"
         id="tspan54">pandemic and its associated restrictions. Cement </tspan></text><text
       transform="matrix(1,0,0,-1,99,558.3)"
       style="font-variant:normal;font-weight:300;font-stretch:normal;font-size:20px;font-family:'Rubik Light';-inkscape-font-specification:Rubik-Light;writing-mode:lr-tb;fill:#000000;fill-opacity:1;fill-rule:nonzero;stroke:none"
       id="text62"><tspan
         x="0 7.1799998 13.98 24.700001 36.5 46.34 57.959999 69.120003 76.080002 83.260002 93.879997 101.06 105.52 116.68 128.48 133.09801 143.45799 154.618 159.118 170.81799 188.37801 199.298 209.138 213.89799 220.87801 231.798 236.298 240.798 245.95799 257.17801 267.81799 272.978 284.17801 295.698 310.51801 315.67801 326.39801 336.23801 341.39801 352.11801 357.27802 363.996 374.91599 384.75601 396.45599 400.95599 408.13599"
         y="0"
         id="tspan58">transportation volumes fell by 23% as a result </tspan><tspan
         x="0 11.02 17.76 22.48 29.66 41.48 52.400002 57.560001 69.18 80.099998 91.900002 102.82 109.618 120.338 124.838 129.998 141.59801 152.51801 163.23801 169.95799 180.87801 191.59801 201.438 212.358 217.51801 221.978 233.778 238.938 248.778 260.59799 265.05801 276.67801 288.298 292.758 304.55801 316.17801 321.33801 332.556 343.19601 348.35599 359.07599 369.996 387.556 398.47601 410.11401 417.29401"
         y="26"
         id="tspan60">of the general decrease in shipping by cement </tspan></text><text
       transform="matrix(1,0,0,-1,99,506.3)"
       style="font-variant:normal;font-weight:300;font-stretch:normal;font-size:20px;font-family:'Rubik Light';-inkscape-font-specification:Rubik-Light;writing-mode:lr-tb;fill:#000000;fill-opacity:1;fill-rule:nonzero;stroke:none"
       id="text66"><tspan
         x="0 10.72 21.879999 39.439999 51.060001 61.779999 73.580002 78.040001 88.959999 98.800003 103.96 115.56 127.26 138.17999 142.89799 150.078 161.23801 166.39799 179.418 192.278 205.03799 210.058 223.59801 232.51601 240.476 250.51601"
         y="0"
         id="tspan64">companies due to COVID-19.</tspan></text><text
       transform="matrix(1,0,0,-1,693,960.4)"
       style="font-variant:normal;font-weight:500;font-stretch:normal;font-size:28px;font-family:'Rubik Medium';-inkscape-font-specification:Rubik-Medium;writing-mode:lr-tb;fill:#000000;fill-opacity:1;fill-rule:nonzero;stroke:none"
       id="text74"><tspan
         x="0 16.912001 32.507999 47.880001 54.264 71.456001 87.108002 102.676 118.86 126.308 142.912 160.104 185.388 201.57201 218.9012 230.96919 237.3532 253.3692 264.90521 281.0892 297.10519 312.02921"
         y="0"
         id="tspan68">Key development areas </tspan><tspan
         x="0 16.016001 33.515999 50.708 57.091999 68.627998 84.811996 99.736 117.152 124.6 136.668 151.592 157.976 165.396 182.896 189.28 206.64 225.092 242.452"
         y="33.992001"
         id="tspan70">and results in 2020</tspan><tspan
         x="0 17.444 34.944 52.584 68.599998 86.099998 102.116 109.536 127.036 144.284 150.668 166.68401 174.132 181.552 197.73599 215.0652 227.13319 233.5172 248.44119 264.62521 276.35721 292.45721 299.8772 315.89319"
         y="113.596"
         id="tspan72">Enhancing client service</tspan></text><text
       transform="matrix(1,0,0,-1,693,810.8)"
       style="font-variant:normal;font-weight:300;font-stretch:normal;font-size:20px;font-family:'Rubik Light';-inkscape-font-specification:Rubik-Light;writing-mode:lr-tb;fill:#000000;fill-opacity:1;fill-rule:nonzero;stroke:none"
       id="text156"><tspan
         x="0 13.02 17.52 21.98 32.900002 44.540001 51.720001 56.880001 69.239998 80.400002 92.099998 99.059998 110.86 121.418 131.758 141.59801 146.758 151.218 161.058 166.218 176.938 182.09801 199.658 210.37801 215.03799 226.198 232.67799 237.838 249.45799 256.17599 267.336 271.996 282.91599 293.63599 300.81601 305.97601 310.47601 321.19601 332.896 344.69601 355.41599 367.23599 378.15601 389.75601 394.91599 399.37601 411.17599 416.336 427.53601 439.85599 451.056 463.37601"
         y="0"
         id="tspan76">Client Journeys is a major project launched in 2020 </tspan><tspan
         x="0 15.72 20.18 27.360001 39.18 43.900002 51.080002 62.900002 73.82 78.980003 90.599998 101.76 112.48 116.98 122.14 133.158 139.89799 145.058 154.89799 165.81799 176.73801 186.478 190.938 202.73801 214.358 219.51801 230.67799 242.37801 249.558 254.718 259.17801 270.77802 281.698 292.418 302.258 307.418 318.138 329.93799 341.53799 346.698 351.15799 368.71799 380.33801 384.83801 395.758 413.31799 424.23801 435.87399 443.05399 447.51401 459.314 470.93399"
         y="26"
         id="tspan78">with the goal of seeking out ideas and implementing </tspan><tspan
         x="0 10.82 18.02 25 35.919998 46.639999 53.82 58.279999 68.639999 79.559998 84.720001 95.440002 107.26 117.98 129.78 141.39999 152.32001 162.16 166.87801 174.058 185.218 190.37801 201.978 212.558 222.918 233.838 238.338 249.498 261.11801 266.27802 276.11801 286.83801 291.33801 302.258 312.09799 317.258 327.978 339.77802 351.37799 356.53799 367.258 371.758 376.21799 387.138 398.77399 405.95401 411.11401 420.95401 431.87399 438.83401 449.55399 454.01401 464.73401 475.65399"
         y="52"
         id="tspan80">effective changes to develop sales and client service </tspan><tspan
         x="0 17.559999 28.719999 40.32 51.240002 55.740002 65.580002 70.297997 77.477997 89.297997 96.017998 107.178 118.878 130.498 142.31799 147.078 154.058 165.218 175.938 187.638 197.478 201.938 213.73801 225.358 230.51801 241.67799 253.478 258.638 269.358 273.858 278.31799 289.23801 300.87601 308.056 313.216 324.836 331.556 342.716 354.31601 358.81601 369.73599 387.29599 397.13599 401.87601 407.03601 418.836 429.75601 440.67599 452.276 462.116 466.85599 472.01599 482.73599 494.53601 506.13599"
         y="78"
         id="tspan82">models through focusing on client problems, needs, and </tspan><tspan
         x="0 9.8400002 21.540001 33.16 44.779999 55.700001 65.540001 72.720001 77.18 88.339996 100.14 109.98 114.74 119.9 124.92 132.10001 141.94 147.10001 158.25999 169.86 174.52 185.44 196.16 203.34 207.8 218.15601 229.076 234.23599 238.696 248.536 253.256 260.436 271.59601 276.75601 287.67599 299.47601 311.29599 322.01599 333.81601 344.53601 355.45599 360.616 371.776 383.47601 389.95401 395.11401 405.83401 410.33401 414.79401 425.71399 437.354 444.534 449.694 459.534 470.45401 477.414 488.134 492.59399 503.314 514.23401 518.974"
         y="104"
         id="tspan84">suggestions. Its objective is to enhance our client service, </tspan><tspan
         x="0 4.46 22.02 33.639999 40.360001 51.16 61.52 72.440002 77.160004 84.339996 96.160004 107.08 112.24 123.86 134.78 141.74001 148.718 159.87801 166.838 184.39799 195.118 206.918 217.638 228.558 233.718 244.73801 251.478 256.638 267.798 279.49799 285.978 291.138 301.858 306.358 310.81799 321.73801 333.37601 340.556 345.716 357.336 368.496 375.45599 382.63599 389.616 400.776 405.276 409.73599 420.65601 425.396 430.556 441.276 453.07599 464.67599 469.836 480.556 492.15601 503.75601"
         y="130"
         id="tspan86">improve the performance of our client portfolio, and add </tspan><tspan
         x="0 10.34 21.059999 25.559999 37.259998 48.18 52.900002 60.080002 71.239998 76.400002 87.559998 99.260002 105.74 110.9 120.74 131.66 138.62 149.34 153.8 164.52 175.44 185.28"
         y="156"
         id="tspan88">value to our services.</tspan><tspan
         x="0 5.02 16.66 23.84 30.559999 41.720001 53.32 65.019997 75.739998 80.199997 92 103.62 108.78 119.5 130.66 142.298 149.478 160.39799 177.95799 189.578 200.73801 207.53799 218.258 225.218 235.31799 240.478 245.498 256.11801 261.27802 271.11801 282.27802 286.77802 298.478 305.65799 310.11801 321.27802 333.078 342.918 348.078 359.89801 370.61801 380.45801 385.61801 397.21799 408.138 419.05801 430.858 436.01801 446.73801 451.89801 463.51801 470.478 474.93799 486.09799 493.05801 497.51801 504.698 514.79401"
         y="195"
         id="tspan90">Introducing contemporary IT solutions has been a priority </tspan><tspan
         x="0 6.98 18.139999 24.620001 29.780001 40.860001 47.580002 58.5 62.959999 74.580002 86.239998 93.419998 98.580002 111.82 123.62 133.81799 137.338 147.17799 152.338 163.058 167.558 172.01801 182.938 194.578 201.758 206.51801 213.498 224.658 235.37801 247.078 256.918 262.078 273.698 280.418 291.578 303.198 309.99799 320.71799 338.27802 355.83801 366.758 371.51801 376.276 391.59601 402.51599 407.67599 418.396 429.556 441.19601 448.37601 452.836 464.63599 476.336 487.25601 498.85599"
         y="221"
         id="tspan92">for Freight One’s client focus programme. We continued </tspan><tspan
         x="0 7.1799998 18.34 23.5 35.099998 45.68 56.040001 66.959999 71.459999 82.620003 94.239998 98.958 106.138 117.958 128.87801 134.03799 146.45799 157.37801 164.338 174.17799 185.338 197.138 207.858 212.358 217.51801 230.53799 235.03799 239.498 250.418 262.056 269.23599 273.85599 286.85599 293.57599 304.496 315.216 320.37601 324.836 336.63599 341.79599 352.996 365.31601 376.51599 388.45599 393.216 397.85599 408.556 420.37601 431.29599 436.45599 445.95401 456.29599 466.13599 473.31601 484.23599 501.79599"
         y="247"
         id="tspan94">to develop the Personal Client Area in 2020. The system </tspan><tspan
         x="0 15.44 26.16 36 41.16 58.720001 69.519997 79.879997 90.800003 102.4 107.56 118.48 130.12 137.3 141.75999 148.478 159.39799 163.89799 173.998 179.158 189.95799 200.31799 211.23801 217.718 222.438 229.618 240.778 245.938 257.83801 270.83801 282.93799 288.09799 299.698 310.31799 317.49799 328.21799 332.95801 337.67801 344.858 356.67801 367.59799 372.758 384.358 395.27802 406.89801 411.39801 422.17599 432.81601 450.37601 461.29599 472.936 480.116"
         y="273"
         id="tspan96">was moved entirely over to SAP data, the deployment </tspan><tspan
         x="0 10.72 15.22 26.84 38 44.959999 49.419998 56.599998 68.419998 85.980003 95.82 100.518 115.978 126.898 133.618 144.53799 149.698 160.858 172.338 179.51801 183.978 201.53799 205.998 215.658 226.578 238.17799 242.918 247.638 254.81799 266.638 277.55801 282.716 293.436 305.03601 309.496 313.996 318.45599 325.63599 335.73599 340.45599 347.63599 358.79599 363.95599 373.79599 385.496 397.09601 414.65601 419.116 426.29599 431.03601 435.75601 442.936 449.73599 460.45599 471.17599 480.91599 485.65601"
         y="299"
         id="tspan98">algorithms were optimized, the ability to submit, track, </tspan><tspan
         x="0 10.72 22.52 34.119999 39.279999 50.200001 61.799999 66.260002 73.440002 78.599998 85.398003 96.117996 100.578 105.078 115.798 126.518 132.998 138.158 149.31799 156.01801 167.618 178.53799 185.498 195.338 200.498 211.658 223.45799 227.95799 232.418 244.218 255.138 259.87799 265.03799 275.758 287.55801 299.15799 303.87601 311.056 322.216 327.37601 337.216 348.91599 360.51599 378.07599 382.53601 389.716 394.87601 408.15601 421.814 430.73401 438.694 449.89401 454.65399 461.634 472.79401 479.754 497.314 507.15399"
         y="325"
         id="tspan100">and edit railcar orders online, and to submit GU-12 forms </tspan><tspan
         x="0 7.1799998 18.34 23.5 36.299999 48 57.84 67.68 72.139999 82.860001 94.660004 99.82 112.62 123.34 127.8 132.3 147.73801 158.278 168.618 178.45799 183.618 194.778 206.578 211.298 218.478 230.298 241.218 246.37801 257.09799 261.59799 266.05801 276.978 288.616 295.79599 299.31601 309.15601 314.31601 325.91599 336.836 348.65601 359.37601 363.87601 370.616 375.31601 390.75601 401.47601 411.31601 416.47601 427.19601 438.79599 450.396 461.31601 472.91599 477.65601 482.81601 493.53601 505.336 516.93597"
         y="351"
         id="tspan102">to Russian Railways on the client’s behalf was added, and </tspan><tspan
         x="0 7.1799998 19 29.92 35.080002 44.32 54.880001 64.980003 70.139999 74.599998 86.220001 93.199997 104.36 111.32 128.88 139.5 146.67999 151.14 162.3 174.10001 179.25999 190.86 201.58 211.42 223.24001 234.84 246 256.72 263.418 275.01801 279.71799 295.15799 305.87799 315.71799 320.87799 327.59799 338.17599 348.896 353.35599 363.19601 374.116 385.716 390.47601 395.63599 409.35599 419.19601 430.116 437.07599 446.91599 452.07599 462.79599 467.29599 477.13599 488.29599"
         y="377"
         id="tspan104">the key information dashboard was revised. Users also </tspan><tspan
         x="0 11.8 22.700001 37.959999 43.119999 54.939999 65.5 75.860001 86.779999 91.940002 102.66 113.38 124.1 135.02 144.86 154.7 159.418 166.59801 177.758 182.918 193.638 198.798 210.39799 221.23801 228.418 239.138 243.59801 248.09801 259.01801 270.61801 275.77802 282.496 293.41599 305.03601 316.19601 323.15601 330.336 335.496 346.65601 358.45599 363.17599 370.35599 382.17599 393.09601 398.25601 409.87601 416.59601 427.75601 439.37601 446.09601 457.01599 466.85599 476.69601 481.85599 492.87399 499.61401"
         y="403"
         id="tspan106">now have access to a detailed report on the progress of </tspan><tspan
         x="0 7.1799998 19 29.92 34.380001 40.860001 46.02 57.18 63.880001 75.480003 86.400002 93.360001 103.2 107.94 113.1 123.82 135.62 147.22 152.38 163.10001 168.25999 185.82001 196.53999 207.25999 219.08 223.53999 235.34 246.25999 251.42 255.92 266.84 277.56 284.51999 296.32001 300.78 312.57999 324.20001 329.35999 346.92001 358.07999 369.67999 380.60001 385.10001 389.854 396.83401 407.99399 414.474 419.23401 426.21399 437.37399 444.09399 455.01401 465.73401 476.45401 486.29401 493.474 497.93399 509.73401 521.354"
         y="429"
         id="tspan108">their orders, and a machine learning model for forecasting </tspan><tspan
         x="0 6.8000002 17.52 21.98 26.48 37.200001 47.919998 54.400002 59.560001 70.279999 77.239998 84.199997 88.660004 98.998001 109.718 114.218 119.378 130.978 141.59801 148.778 159.698 169.53799 174.698 186.51801 197.23801 207.078 212.23801 223.838 234.758 245.67799 257.478 262.638 267.09799 284.65799 296.27802 300.77802 311.698 329.258 340.17801 351.814 358.99399 369.914 381.51401"
         y="455"
         id="tspan110">railcar arrival dates has been implemented.</tspan><tspan
         x="0 11.14 22.84 29.799999 36.98 48.799999 59.720001 66.199997 71.360001 82.080002 92.800003 104.62 109.08 119.658 130.01801 140.938 158.498 169.418 181.058 188.23801 198.078 203.23801 207.698 219.498 230.218 234.718 246.418 258.01801 268.93799 274.09799 284.81799 291.53601 302.45599 313.07599 320.25601 324.716 336.51599 348.13599 353.29599 364.01599 369.17599 380.87601 392.67599 397.13599 404.336 408.79599 419.716 431.31601 436.47601 448.07599 458.694 465.87399 476.59399 488.194 498.914 508.754 519.67401"
         y="494"
         id="tspan112">Further achievements include creating a unified database </tspan><tspan
         x="0 6.98 18.139999 24.620001 29.34 36.52 48.34 59.259998 64.419998 75.139999 86.300003 103.86 121.42 132.34 139.058 149.778 154.23801 164.95799 169.45799 174.618 181.338 192.258 196.918 207.838 218.558 225.73801 230.198 241.358 253.158 258.31799 269.33801 276.078 281.23801 288.03601 298.75601 303.216 307.716 318.436 329.15601 336.116 345.95599 351.116 355.57599 367.37601 372.09601 379.276 391.09601 402.01599 407.17599 422.776 433.936 445.53601 449.996 454.496 465.41599"
         y="520"
         id="tspan114">for the commercial rejection of railcars in the Mobile </tspan><tspan
         x="594 606.67999 617.59998 629.21997 640.38 647.34003 654.52002 665.44 671.91998 677.08002 687.79999 699.41998 710.79797 715.53802 720.698 727.41998 738.34003 749.94 761.64001 772.35999 776.82001 788.62 800.23999 804.95801 812.138 823.95801 834.87799 840.03802 850.758 868.31799 879.47803 891.17798 902.81598 909.99597 915.15601 926.17603 932.91602 938.07599 949.67603 960.836 971.55603 983.25598 1000.816 1011.736 1023.376 1030.556 1041.176 1048.356 1052.816 1063.976 1075.776 1080.496 1087.676 1098.8361 1103.996 1115.5959 1126.516"
         y="1.4210855e-13"
         id="tspan116">Reporter app, reducing the amount of documentation to be </tspan><tspan
         x="594 603.84003 615.53998 627.15997 638.78003 643.28003 647.73999 658.65997 670.26001 675.41998 686.638 696.73798 701.89801 712.61798 717.11798 721.578 732.49799 744.138 751.31799 761.15802 766.31799 777.03802 788.83801 800.43799 805.59802 815.43799 822.61798 829.336 840.25598 850.97601 868.53601 873.03601 877.49597 889.29602 893.75598 905.55603 917.17603 922.336 933.93597 945.09601 955.81598 967.51599 985.07599 995.99597 1007.634 1014.814 1019.974 1030.694 1042.314 1053.934 1060.6541 1071.454 1081.7939 1092.514 1097.014 1101.754"
         y="26"
         id="tspan118">supplied by clients and streamlining document approval, </tspan><tspan
         x="594 598.5 609.21997 620.91998 632.71997 643.44 655.26001 659.71997 671.52002 683.14001 688.29999 699.02002 704.17999 715.79999 720.26001 724.76001 735.79797 742.97803 748.138 759.758 766.47803 777.638 782.29797 793.21802 803.93799 811.11798 815.83801 823.01801 834.17798 839.33801 850.258 862.05798 873.67798 884.39801 896.01801 906.93799 912.09802 929.65802 940.81799 952.41803 956.87799 961.37799 972.29797 977.45801 989.05798 999.99402 1010.114 1020.834 1031.554 1038.0341 1043.194 1049.9139 1060.834 1072.454 1083.174 1087.634 1094.114"
         y="52"
         id="tspan120">launching a pilot project to engage mobile boxcar repair </tspan><tspan
         x="594 601.17999 612.09998 622.82001 640.38 650.21997 654.96002 660.12 670.84003 682.64001 694.23999 699.40002 711 721.578 731.93799 742.85797 747.35797 758.51801 770.138 774.59802 786.39801 798.01801 803.17798 813.89801 819.05798 836.61798 847.53802 858.258 870.078 880.79797 892.59802 897.05798 906.89801 924.45801 929.216 936.19598 947.35602 953.836 958.99597 963.49597 974.216 985.91602 997.716 1008.436 1020.256 1024.7159 1036.516 1048.136 1053.296 1064.016 1068.516 1072.976 1083.896 1095.5341 1102.714"
         y="78"
         id="tspan122">teams, and developing a mechanism for launching client </tspan><tspan
         x="594 605.62 612.34003 623.5 641.06 652.09998 659.28003 663.73999 674.90002 686.70001 696.53998"
         y="104"
         id="tspan124">promotions.</tspan><tspan
         x="594 607.23999 618.94 625.41998 630.58002 642.20001 652.91998 659.88 667.06 678.85999 689.78003 696.73999 706.58002 711.73999 722.46002 733.17999 744.97998 750.14001 761.94 772.83801 788.09802 793.258 799.97803 810.89801 815.55798 826.47803 837.198 844.37799 849.53802 860.698 867.17798 872.33801 883.05798 893.77802 904.49799 915.41803 926.896 934.07599 939.23602 946.03601 956.75598 961.216 965.716 976.43597 987.15601 994.11603 1003.956 1009.116 1020.716 1025.176 1031.894 1042.814 1053.5341 1060.714 1065.214 1075.314"
         y="143"
         id="tspan126">Our partners can now reject or accept railcars directly </tspan><tspan
         x="594 601.17999 613 619.71997 630.88 642.58002 654.20001 666.02002 670.73999 677.91998 689.73999 700.65997 705.82001 721.41998 732.58002 744.17999 748.64001 753.14001 764.06 769.21997 781.89801 792.81799 804.43799 815.59802 822.55798 829.73798 840.65802 847.138 852.29797 863.01801 874.638 886.01599 890.776 895.93597 907.01599 913.73602 924.65601 929.11603 940.73602 952.396 959.57599 964.73602 977.97601 989.776 1000.696 1005.856 1012.574 1023.494 1034.214 1045.134 1049.594 1059.954 1070.874 1080.714"
         y="169"
         id="tspan128">through the Mobile Reporter app. Freight One receives </tspan><tspan
         x="594 598.46002 610.08002 617.06 628.21997 635.17999 652.73999 663.35999 670.53998 675 686.15997 697.96002 703.12 714.28003 726.08002 731.23999 737.95801 748.87799 753.53802 764.45801 775.17798 782.35797 786.81799 797.97803 809.77802 819.61798 824.77802 829.23798 841.03802 850.87799 858.05798 868.77802 880.41602 887.59601 892.09601 901.51599 906.25598 911.41602 922.336 934.13599 944.85602 956.45599 960.95599 965.41602 977.216 988.836 993.99597 1000.796 1011.516 1023.136 1027.5959 1039.196"
         y="195"
         id="tspan130">information on rejections instantly, enabling rapid </tspan><tspan
         x="594 605.59998 616.52002 627.23999 631.70001 641.53998 646 657.15997 668.96002 678.79999 683.96002 695.12 706.91998 712.08002 718.79797 729.95801 734.45801 738.95801 743.41803 755.21802 766.83801 771.99799 781.83801 789.01801 800.17798 810.89801 820.39801 825.55798 832.276 843.19598 854.81598 859.31598 870.03601 880.75598 891.67603 909.23602 920.15601 931.79602 938.97601 943.73602 948.49597 963.81598 974.73602 979.896 990.61603 995.11603 1004.956 1016.116 1021.276 1031.996 1043.156 1060.7159 1072.3361 1076.8361 1087.674 1094.854 1105.774 1110.274 1120.374"
         y="221"
         id="tspan132">decisions on rolling stock replacement. We also completely </tspan><tspan
         x="594 604.79999 615.15997 626.08002 633.03998 644.85999 655.58002 667.28003 671.78003 682.70001 694.29999 699.46002 710.62 722.32001 728.79797 733.95801 749.55798 760.71802 772.31799 776.77802 781.27802 792.198 797.35797 810.03802 820.95801 832.578 843.73798 850.698 857.87799 868.79797 875.276 879.97601 895.43597 906.35602 917.95599 923.11603 933.836 945.45599 957.07599 961.57599 966.03601 976.75598 987.37598 994.55603 999.01599 1010.176 1021.976 1027.136 1031.5959 1043.396 1048.556 1059.756 1072.076 1083.276 1095.214 1099.954"
         y="247"
         id="tspan134">overhauled our Mobile Reporter web application in 2020, </tspan><tspan
         x="594 604.71997 616.32001 627.91998 632.38 644.17999 655.79999 660.96002 671.67999 676.43799 683.638 695.33801 707.138 717.85797 725.03802 729.49799 740.65802 752.45801 757.17798 764.35797 776.17798 786.79797 793.97803 799.138 809.85797 814.35797 818.85797 829.758 845.23798 855.078 860.23798 871.31799 878.03802 888.95801 893.41803 905.03802 916.69598 923.87598 929.03601 942.276 954.07599 964.99597 969.716 976.896 988.05603 993.216 1004.836 1011.556 1022.716 1033.436 1044.356 1054.196 1064.036 1069.196 1075.994 1086.714 1091.174 1095.674 1106.394 1117.114 1123.594"
         y="273"
         id="tspan136">adding a function that allows Freight One to process railcar </tspan><tspan
         x="594 600.71997 611.64001 616.29999 627.21997 637.94 645.12 649.58002 660.73999 672.53998 682.38 687.12 692.28003 696.73999 708.37799 715.55798 722.27802 733.43799 745.03802 756.73798 767.45801 771.91803 783.71802 795.33801 800.49799 812.09802 822.81799 832.65802 844.47803 856.078 867.23798 877.95801 884.65601 896.25598 906.09601 910.79602 926.51599 930.97601 938.15601 949.97601 955.13599 964.37402 974.93597 985.03601 990.19598 994.65601 1006.276 1013.256 1024.416 1031.376 1048.936 1059.554 1066.734 1071.194 1082.354 1094.1541 1098.894"
         y="299"
         id="tspan138">rejections, introducing dashboards with key information, </tspan><tspan
         x="594 604.71997 616.52002 628.12 633.28003 643.12 653.96002 661.14001 668.32001 672.78003 684.58002 696.20001 701.35999 713.06 724.67999 729.84003 741.64001 752.67798 759.85797 764.31799 771.51801 775.97803 786.698 797.31799 804.49799 808.95801 820.11798 831.91803 841.758 846.51801 851.67798 856.698 868.49799 873.65802 884.37799 895.97803 907.578 912.03802 919.21802 923.67798 934.83801 946.638 951.37799 956.53802 967.698 979.39801 985.87402 991.034 1001.794 1012.154 1023.774 1034.694 1041.6541 1048.834 1058.674"
         y="325"
         id="tspan140">and setting up notifications. In addition, our experts </tspan><tspan
         x="594 598.46002 610.09998 617.28003 628.20001 639.82001 646.62 657.23999 664.41998 675.34003 686.94 691.65802 698.83801 710.65802 721.578 726.73798 737.45801 749.078 760.698 765.85797 770.31799 781.95801 789.138 800.29797 805.01801 812.198 824.01801 834.93799 840.09802 852.51801 863.43799 870.39801 880.23798 891.39801 903.198 913.91803 918.41803 923.578 936.59802 941.09802 945.55798 956.47803 968.11603 975.29602 979.91602 992.91602 999.63397 1010.554 1021.274 1026.014 1031.174 1048.734 1059.6541 1070.374 1082.174 1086.634 1098.434 1110.054"
         y="351"
         id="tspan142">integrated the app into the Personal Client Area, meaning </tspan><tspan
         x="594 601.17999 613 623.62 630.79999 635.91998 647.08002 658.78003 665.26001 670.38 682 692.71997 699.67999 706.85999 718.65997 729.58002 736.53998 746.38 751.5 762.21997 772.94 784.73999 789.85999 801.65997 812.56 827.82001 832.94 842.78003 853.70001 864.62 869.29401 876.474 888.29401 899.21399 904.33398 915.05402 926.75403 933.71399 940.43402 951.354 962.99402 970.17401 975.29401 986.01398 997.17401 1008.974 1020.574 1025.0341 1032.214 1036.674 1047.834 1059.634 1064.754 1075.774 1082.514 1087.188 1094.368 1106.188 1117.108 1121.568 1128.048"
         y="377"
         id="tspan144">that our partners can now see the current condition of their </tspan><tspan
         x="594 600.79999 611.52002 615.97998 620.47998 631.20001 641.91998 648.88 658.71997 663.47998 668.09802 681.09802 690.93799 696.09802 707.71802 718.43799 725.39801 732.578 737.73798 748.758 755.49799 760.21802 767.39801 779.21802 790.138 795.29797 806.91803 813.638 824.79797 829.45801 840.37799 851.09802 858.27802 863.01801 867.716 883.17603 894.09601 899.25598 903.716 921.276 932.896 937.396 948.31598 965.87598 976.79602 988.43402 995.61401 1006.534 1018.134 1023.294 1034.014 1039.174 1050.974 1062.674 1080.234 1091.834 1102.754 1109.234"
         y="403"
         id="tspan146">railcars. As part of the project, we implemented a number </tspan><tspan
         x="594 605.02002 611.76001 616.91998 628.53998 633 637.5 648.53998 655.71997 660.88 665.34003 677.14001 681.59998 688.78003 693.23999 703.85797 711.03802 715.49799 725.85797 736.77802 746.61798 751.77802 758.49799 769.41803 773.91803 784.53802 791.71802 796.17798 807.97803 819.59802 824.31799 831.49799 842.65802 847.81799 858.73798 870.53802 882.15802 892.87799 904.49799 908.95801 920.758 932.37799 937.53802 950.33801 962.03802 971.87799 981.71802 986.17798 996.89801 1008.698 1013.858 1026.658 1037.3781 1041.838 1046.338 1061.774 1072.314 1082.6541 1092.494"
         y="429"
         id="tspan148">of pilot initiatives relating to engaging Russian Railways </tspan><tspan
         x="594 609.46002 620.62 627.58002 636.82001 647.73999 654.70001 664.53998 669.26001 676.44 687.59998 692.76001 697.21997 709.02002 718.85999 730.47998 741.40002 752.12 759.29999 764.46002 771.258 781.97803 786.43799 790.93799 801.65802 812.37799 819.33801 829.17798 833.87799 849.59802 854.05798 861.23798 873.05798 877.776 884.95599 896.776 907.69598 912.85602 928.45599 939.61603 951.216 955.67603 960.17603 971.09601 976.25598 988.93597 999.85602 1011.476 1022.636 1029.5959 1036.776 1047.696 1054.174 1059.334 1070.054 1081.674 1093.054 1097.7939"
         y="455"
         id="tspan150">workers to inspect railcars with the Mobile Reporter app, </tspan><tspan
         x="594 604.71997 616.52002 628.12 632.84003 640.02002 651.17999 656.34003 668.14001 679.17999 686.35999 690.82001 698.02002 708.65997 713.12 724.91998 736.53998 741.70001 752.41998 763.58002 775.38 785.21997 789.67999 801.29999 813.09998 824.26001 831.21997 841.06 845.758 861.47803 873.29797 884.21802 896.01801 901.17798 907.97601 918.69598 923.15601 927.65601 938.37598 949.09601 956.05603 965.896 971.05603 981.776 988.49597 999.41602 1004.576 1009.036 1020.836 1031.556 1042.7159 1049.676 1056.394 1067.314 1078.0341 1085.214 1089.714 1099.814"
         y="481"
         id="tspan152">and to notifying consignors when railcars are incorrectly </tspan><tspan
         x="594 605.70001 617.5 622 633.15997 643.88 655.47998 666.40002 678 683.15997 694.37799 704.47803 709.638 720.35797 731.51801 743.31799 753.15802 757.61798 769.23798 781.03802 791.95801 802.87799 812.71802"
         y="507"
         id="tspan154">unloaded by consignees.</tspan></text><g
       id="g158"><g
         id="g160"><g
           id="g166"><g
             id="g168"><path
               d="m 813.399,129.505 c -1.76,-0.601 -3.28,-1.514 -4.56,-2.741 v 0 c -1.28,-1.227 -2.273,-2.767 -2.98,-4.62 v 0 c -0.706,-1.854 -1.06,-4.033 -1.06,-6.54 v 0 c 0,-2.506 0.354,-4.686 1.06,-6.539 v 0 c 0.707,-1.854 1.7,-3.394 2.98,-4.621 v 0 c 1.28,-1.227 2.8,-2.139 4.56,-2.74 v 0 c 1.76,-0.6 3.693,-0.899 5.8,-0.899 v 0 c 2.107,0 4.04,0.299 5.8,0.899 v 0 c 1.76,0.601 3.28,1.513 4.56,2.74 v 0 c 1.28,1.227 2.273,2.767 2.981,4.621 v 0 c 0.705,1.853 1.059,4.033 1.059,6.539 v 0 c 0,2.507 -0.354,4.686 -1.059,6.54 v 0 c -0.708,1.853 -1.701,3.393 -2.981,4.62 v 0 c -1.28,1.227 -2.8,2.14 -4.56,2.741 v 0 c -1.76,0.599 -3.693,0.9 -5.8,0.9 v 0 c -2.107,0 -4.04,-0.301 -5.8,-0.9 m 2.761,-25.241 c -0.988,0.44 -1.861,1.14 -2.621,2.101 v 0 c -0.76,0.959 -1.374,2.199 -1.84,3.719 v 0 c -0.467,1.521 -0.7,3.36 -0.7,5.52 v 0 c 0,2.16 0.233,4.001 0.7,5.521 v 0 c 0.466,1.52 1.08,2.759 1.84,3.719 v 0 c 0.76,0.961 1.633,1.66 2.621,2.1 v 0 c 0.985,0.44 1.999,0.661 3.039,0.661 v 0 c 1.04,0 2.054,-0.221 3.04,-0.661 v 0 c 0.986,-0.44 1.86,-1.139 2.62,-2.1 v 0 c 0.761,-0.96 1.373,-2.199 1.84,-3.719 v 0 c 0.467,-1.52 0.7,-3.361 0.7,-5.521 v 0 c 0,-2.16 -0.233,-3.999 -0.7,-5.52 v 0 c -0.467,-1.52 -1.079,-2.76 -1.84,-3.719 v 0 c -0.76,-0.961 -1.634,-1.661 -2.62,-2.101 v 0 c -0.986,-0.44 -2,-0.66 -3.04,-0.66 v 0 c -1.04,0 -2.054,0.22 -3.039,0.66 m -113.7,25.56 c -1.534,-0.387 -2.794,-0.92 -3.78,-1.599 v 0 c -0.987,-0.681 -1.714,-1.5 -2.18,-2.461 v 0 c -0.467,-0.959 -0.7,-2.013 -0.7,-3.16 v 0 c 0,-1.52 0.473,-2.8 1.42,-3.84 v 0 c 0.946,-1.039 2.273,-1.759 3.98,-2.16 v 0 c -1.014,-0.213 -1.92,-0.534 -2.72,-0.959 v 0 c -0.8,-0.428 -1.494,-0.954 -2.08,-1.581 v 0 c -0.587,-0.626 -1.034,-1.334 -1.34,-2.119 v 0 c -0.307,-0.788 -0.46,-1.635 -0.46,-2.541 v 0 c 0,-1.147 0.273,-2.239 0.82,-3.28 v 0 c 0.546,-1.04 1.38,-1.953 2.5,-2.739 v 0 c 1.12,-0.788 2.52,-1.414 4.2,-1.88 v 0 c 1.68,-0.467 3.64,-0.7 5.88,-0.7 v 0 c 2.24,0 4.2,0.233 5.88,0.7 v 0 c 1.68,0.466 3.08,1.092 4.2,1.88 v 0 c 1.12,0.786 1.953,1.699 2.5,2.739 v 0 c 0.546,1.041 0.82,2.133 0.82,3.28 v 0 c 0,0.906 -0.154,1.753 -0.46,2.541 v 0 c -0.307,0.785 -0.754,1.493 -1.34,2.119 v 0 c -0.587,0.627 -1.287,1.153 -2.1,1.581 v 0 c -0.814,0.425 -1.714,0.746 -2.7,0.959 v 0 c 1.706,0.401 3.033,1.121 3.98,2.16 v 0 c 0.946,1.04 1.42,2.32 1.42,3.84 v 0 c 0,1.147 -0.234,2.201 -0.7,3.16 v 0 c -0.467,0.961 -1.194,1.78 -2.18,2.461 v 0 c -0.987,0.679 -2.247,1.212 -3.78,1.599 v 0 c -1.534,0.387 -3.38,0.581 -5.54,0.581 v 0 c -2.16,0 -4.007,-0.194 -5.54,-0.581 m 1.04,-10.679 c -1,0.893 -1.5,2.045 -1.5,3.459 v 0 c 0,1.52 0.5,2.734 1.5,3.641 v 0 c 1,0.905 2.5,1.36 4.5,1.36 v 0 c 2,0 3.5,-0.455 4.5,-1.36 v 0 c 1,-0.907 1.5,-2.121 1.5,-3.641 v 0 c 0,-1.414 -0.5,-2.566 -1.5,-3.459 v 0 c -1,-0.894 -2.5,-1.34 -4.5,-1.34 v 0 c -2,0 -3.5,0.446 -4.5,1.34 m -0.92,-13.921 c -1.187,1.08 -1.78,2.474 -1.78,4.18 v 0 c 0,1.6 0.6,2.933 1.8,4 v 0 c 1.2,1.067 3,1.601 5.4,1.601 v 0 c 2.4,0 4.2,-0.534 5.4,-1.601 v 0 c 1.2,-1.067 1.8,-2.4 1.8,-4 v 0 c 0,-1.706 -0.594,-3.1 -1.78,-4.18 v 0 c -1.187,-1.08 -2.993,-1.62 -5.42,-1.62 v 0 c -2.427,0 -4.234,0.54 -5.42,1.62 m 91.42,24.38 -6.801,-4.799 1.8,-2.6 4.8,2.6 h 0.401 v -23.2 h 5.799 v 27.999 z m -17.401,0 L 767,101.605 h 5.2 l 9.599,27.999 z m -41.199,0 v -15.2 h 4.4 c 1.013,0.8 2.153,1.367 3.42,1.701 v 0 c 1.266,0.333 2.46,0.499 3.58,0.499 v 0 c 2.507,0 4.366,-0.566 5.58,-1.699 v 0 c 1.213,-1.134 1.82,-2.7 1.82,-4.701 v 0 c 0,-2 -0.62,-3.567 -1.86,-4.7 v 0 c -1.24,-1.134 -3.22,-1.7 -5.94,-1.7 v 0 c -1.92,0 -3.72,0.313 -5.4,0.941 v 0 c -1.68,0.625 -3.28,1.646 -4.8,3.06 v 0 l -2,-2.401 c 1.52,-1.413 3.373,-2.533 5.56,-3.359 v 0 c 2.186,-0.826 4.533,-1.24 7.04,-1.24 v 0 c 4.693,0 8.133,0.839 10.32,2.52 v 0 c 2.187,1.68 3.28,3.972 3.28,6.879 v 0 c 0,2.907 -1.074,5.2 -3.22,6.881 v 0 c -2.147,1.679 -5.474,2.52 -9.98,2.52 v 0 c -0.906,0 -1.727,-0.068 -2.46,-0.2 v 0 c -0.733,-0.134 -1.367,-0.268 -1.9,-0.401 v 0 c -0.614,-0.187 -1.16,-0.387 -1.64,-0.6 v 0 8.401 H 758 v 2.799 z m -9.58,-23.3 c -0.547,-0.6 -0.82,-1.299 -0.82,-2.099 v 0 c 0,-0.8 0.273,-1.501 0.82,-2.101 v 0 c 0.547,-0.599 1.273,-0.9 2.18,-0.9 v 0 c 0.906,0 1.633,0.301 2.18,0.9 v 0 c 0.546,0.6 0.82,1.301 0.82,2.101 v 0 c 0,0.8 -0.28,1.499 -0.84,2.099 v 0 c -0.56,0.601 -1.28,0.9 -2.16,0.9 v 0 c -0.907,0 -1.633,-0.299 -2.18,-0.9"
               style="fill:url(#linearGradient176);stroke:none"
               id="path178" /></g></g></g></g><text
       transform="matrix(1,0,0,-1,865.7985,121.4444)"
       style="font-variant:normal;font-weight:300;font-stretch:normal;font-size:16px;font-family:'Rubik Light';-inkscape-font-specification:Rubik-Light;writing-mode:lr-tb;fill:#000000;fill-opacity:1;fill-rule:nonzero;stroke:none"
       id="text184"><tspan
         x="0 8.448 16.736 25.472 30.912001 39.487999 48.784 57.52"
         y="0"
         id="tspan180">average </tspan><tspan
         x="0 9.3599997 17.232 25.968 31.152 35.279999 40.720001 49.216 54.959999 58.528 67.968002"
         y="20"
         id="tspan182">user rating</tspan></text><g
       id="g186"><g
         id="g188"><g
           id="g194"><g
             id="g196"><path
               d="m 1148.714,129.989 c -0.854,-0.28 -1.587,-0.694 -2.2,-1.24 v 0 c -0.614,-0.547 -1.1,-1.234 -1.46,-2.06 v 0 c -0.36,-0.827 -0.54,-1.787 -0.54,-2.88 v 0 c 0,-1.094 0.18,-2.054 0.54,-2.881 v 0 c 0.36,-0.826 0.846,-1.513 1.46,-2.06 v 0 c 0.613,-0.546 1.346,-0.959 2.2,-1.239 v 0 c 0.853,-0.28 1.787,-0.42 2.8,-0.42 v 0 c 0.986,0 1.913,0.14 2.78,0.42 v 0 c 0.866,0.28 1.607,0.693 2.219,1.239 v 0 c 0.614,0.547 1.101,1.234 1.461,2.06 v 0 c 0.36,0.827 0.54,1.787 0.54,2.881 v 0 c 0,1.093 -0.18,2.053 -0.54,2.88 v 0 c -0.36,0.826 -0.847,1.513 -1.461,2.06 v 0 c -0.612,0.546 -1.353,0.96 -2.219,1.24 v 0 c -0.867,0.28 -1.794,0.42 -2.78,0.42 v 0 c -1.013,0 -1.947,-0.14 -2.8,-0.42 m 0.98,-9.58 c -0.52,0.666 -0.78,1.8 -0.78,3.4 v 0 c 0,1.6 0.26,2.733 0.78,3.4 v 0 c 0.52,0.666 1.126,1 1.82,1 v 0 c 0.693,0 1.3,-0.334 1.82,-1 v 0 c 0.52,-0.667 0.78,-1.8 0.78,-3.4 v 0 c 0,-1.6 -0.26,-2.734 -0.78,-3.4 v 0 c -0.52,-0.667 -1.127,-1.001 -1.82,-1.001 v 0 c -0.694,0 -1.3,0.334 -1.82,1.001 m 17.619,9.2 -19.999,-28 h 5.8 l 20,28 z m -35.399,0 -18.2,-18.44 v -3.16 h 19.6 v -6.4 h 5.8 v 6.4 h 3.4 v 2.8 h -3.4 v 18.8 z m 1.001,-5.2 h 0.399 v -13.6 h -13.799 z m -31.4,5.2 -18.2,-18.44 v -3.16 h 19.599 v -6.4 h 5.8 v 6.4 h 3.401 v 2.8 h -3.401 v 18.8 z m 0.999,-5.2 h 0.4 v -13.6 h -13.8 z m 63.6,-10.82 c -0.853,-0.28 -1.587,-0.694 -2.2,-1.24 v 0 c -0.614,-0.547 -1.101,-1.234 -1.46,-2.06 v 0 c -0.36,-0.827 -0.541,-1.787 -0.541,-2.88 v 0 c 0,-1.094 0.181,-2.054 0.541,-2.88 v 0 c 0.359,-0.827 0.846,-1.514 1.46,-2.06 v 0 c 0.613,-0.547 1.347,-0.96 2.2,-1.241 v 0 c 0.853,-0.279 1.786,-0.419 2.8,-0.419 v 0 c 0.986,0 1.913,0.14 2.78,0.419 v 0 c 0.866,0.281 1.606,0.694 2.22,1.241 v 0 c 0.613,0.546 1.1,1.233 1.46,2.06 v 0 c 0.36,0.826 0.54,1.786 0.54,2.88 v 0 c 0,1.093 -0.18,2.053 -0.54,2.88 v 0 c -0.36,0.826 -0.847,1.513 -1.46,2.06 v 0 c -0.614,0.546 -1.354,0.96 -2.22,1.24 v 0 c -0.867,0.28 -1.794,0.419 -2.78,0.419 v 0 c -1.014,0 -1.947,-0.139 -2.8,-0.419 m 0.98,-9.581 c -0.52,0.667 -0.78,1.801 -0.78,3.401 v 0 c 0,1.6 0.26,2.733 0.78,3.4 v 0 c 0.52,0.666 1.126,1 1.82,1 v 0 c 0.693,0 1.3,-0.334 1.82,-1 v 0 c 0.52,-0.667 0.78,-1.8 0.78,-3.4 v 0 c 0,-1.6 -0.26,-2.734 -0.78,-3.401 v 0 c -0.52,-0.666 -1.127,-0.999 -1.82,-0.999 v 0 c -0.694,0 -1.3,0.333 -1.82,0.999"
               style="fill:url(#linearGradient204);stroke:none"
               id="path206" /></g></g></g></g><text
       transform="matrix(1,0,0,-1,1207.1134,121.4488)"
       style="font-variant:normal;font-weight:300;font-stretch:normal;font-size:16px;font-family:'Rubik Light';-inkscape-font-specification:Rubik-Light;writing-mode:lr-tb;fill:#000000;fill-opacity:1;fill-rule:nonzero;stroke:none"
       id="text216"><tspan
         x="0 9.9359999 18.672001 24.24 32.112 41.040001 50.48 59.056 62.655998"
         y="0"
         id="tspan208">Personal </tspan><tspan
         x="0 10.416 14.016 17.584 26.32 35.632 41.375999 45.071999 55.472 60.846401 69.582397 78.158401 82.2864 93.2304 103.2784"
         y="20"
         id="tspan210">Client Area NPS</tspan><tspan
         x="368.608 377.18399 386.54401 392.112 397.48801 406.224 415.53601 421.28 425.40799 435.34399 444.07999 449.64801 457.51999 466.448 475.888 484.46399 488.064 492.19199 502.608 506.20801 509.776 518.51202 527.82239 533.56641 537.26239 547.66241 553.03839 561.77441 570.3504 574.47839 583.83838 591.71039 600.44641 606.0144 613.88641"
         y="0.72000003"
         id="tspan212">current Personal Client Area users </tspan><tspan
         x="368.608 373.02399 382.384 391.67999 395.80801 404.76801 413.728 422.88 427.008 430.57599 440.01599 444.14401 453.104 462.95999 471.92001 481.2944"
         y="20.719999"
         id="tspan214">(up 225 in 2020)</tspan></text><g
       id="g218"><g
         id="g220"><g
           id="g226"><g
             id="g228"><path
               d="m 1495.705,128.564 c -2.068,-0.747 -3.861,-1.774 -5.381,-3.08 v 0 l 1.8,-2.4 c 1.521,1.307 3.1,2.234 4.74,2.78 v 0 c 1.641,0.546 3.46,0.82 5.46,0.82 v 0 c 2.213,0 3.866,-0.507 4.96,-1.519 v 0 c 1.093,-1.015 1.641,-2.374 1.641,-4.081 v 0 c 0,-1.307 -0.381,-2.46 -1.141,-3.459 v 0 c -0.76,-1 -1.647,-1.847 -2.66,-2.54 v 0 l -14.4,-11.001 v -3.199 h 24.8 v 2.999 h -16.8 l 10.201,7.801 c 0.799,0.613 1.572,1.24 2.319,1.88 v 0 c 0.746,0.64 1.407,1.345 1.98,2.119 v 0 c 0.573,0.773 1.033,1.634 1.381,2.58 v 0 c 0.345,0.946 0.519,2.02 0.519,3.221 v 0 c 0,1.199 -0.254,2.299 -0.76,3.299 v 0 c -0.506,1 -1.273,1.867 -2.3,2.6 v 0 c -1.027,0.734 -2.313,1.301 -3.86,1.7 v 0 c -1.546,0.401 -3.373,0.601 -5.479,0.601 v 0 c -2.615,0 -4.955,-0.375 -7.02,-1.121 m -27.241,0.401 c -1.613,-0.481 -2.966,-1.148 -4.06,-2 v 0 c -1.093,-0.854 -1.913,-1.888 -2.459,-3.101 v 0 c -0.548,-1.214 -0.82,-2.539 -0.82,-3.979 v 0 c 0,-1.44 0.266,-2.767 0.8,-3.98 v 0 c 0.533,-1.214 1.319,-2.248 2.36,-3.101 v 0 c 1.04,-0.853 2.32,-1.52 3.84,-2 v 0 c 1.519,-0.479 3.253,-0.72 5.199,-0.72 v 0 c 1.201,0 2.266,0.1 3.201,0.3 v 0 c 0.933,0.201 1.733,0.434 2.4,0.7 v 0 c 0.746,0.294 1.413,0.627 2,1 v 0 c 0,-3.093 -0.661,-5.367 -1.98,-6.82 v 0 c -1.32,-1.453 -3.128,-2.18 -5.42,-2.18 v 0 c -0.614,0 -1.281,0.047 -2.001,0.141 v 0 c -0.72,0.092 -1.473,0.26 -2.26,0.499 v 0 c -0.786,0.24 -1.586,0.566 -2.399,0.98 v 0 c -0.815,0.413 -1.594,0.941 -2.34,1.581 v 0 l -1.8,-2.401 c 1.519,-1.307 3.266,-2.267 5.24,-2.88 v 0 c 1.973,-0.613 3.96,-0.919 5.96,-0.919 v 0 c 4.32,0 7.599,1.045 9.839,3.14 v 0 c 2.24,2.092 3.361,5.046 3.361,8.859 v 0 6.601 c 0,3.52 -1.087,6.232 -3.261,8.139 v 0 c -2.173,1.907 -5.42,2.861 -9.74,2.861 v 0 c -2.16,0 -4.046,-0.241 -5.66,-0.72 m 2.741,-15.58 c -0.774,0.333 -1.447,0.805 -2.021,1.419 v 0 c -0.573,0.614 -1.027,1.354 -1.36,2.22 v 0 c -0.334,0.867 -0.499,1.82 -0.499,2.861 v 0 c 0,1.039 0.165,1.992 0.499,2.86 v 0 c 0.333,0.866 0.801,1.605 1.401,2.219 v 0 c 0.6,0.614 1.313,1.086 2.14,1.42 v 0 c 0.826,0.333 1.746,0.501 2.759,0.501 v 0 c 2,0 3.634,-0.674 4.901,-2.021 v 0 c 1.266,-1.346 1.9,-3.273 1.9,-5.78 v 0 -3.6 c -0.507,-0.506 -1.107,-0.946 -1.8,-1.32 v 0 c -0.614,-0.319 -1.367,-0.614 -2.26,-0.879 v 0 c -0.894,-0.267 -1.941,-0.401 -3.14,-0.401 v 0 c -0.907,0 -1.747,0.167 -2.52,0.501 m 47.919,15.499 v -15.2 h 4.4 c 1.013,0.8 2.152,1.367 3.42,1.701 v 0 c 1.266,0.332 2.46,0.499 3.58,0.499 v 0 c 2.506,0 4.366,-0.566 5.58,-1.699 v 0 c 1.213,-1.134 1.82,-2.7 1.82,-4.701 v 0 c 0,-2 -0.621,-3.567 -1.861,-4.7 v 0 c -1.239,-1.134 -3.219,-1.7 -5.94,-1.7 v 0 c -1.919,0 -3.719,0.313 -5.4,0.941 v 0 c -1.679,0.625 -3.279,1.646 -4.799,3.06 v 0 l -2,-2.401 c 1.52,-1.413 3.373,-2.533 5.56,-3.359 v 0 c 2.186,-0.826 4.532,-1.24 7.04,-1.24 v 0 c 4.693,0 8.133,0.839 10.32,2.52 v 0 c 2.186,1.68 3.28,3.972 3.28,6.879 v 0 c 0,2.907 -1.074,5.2 -3.221,6.881 v 0 c -2.146,1.679 -5.473,2.52 -9.98,2.52 v 0 c -0.906,0 -1.726,-0.068 -2.459,-0.2 v 0 c -0.734,-0.134 -1.367,-0.268 -1.9,-0.401 v 0 c -0.614,-0.187 -1.16,-0.387 -1.64,-0.6 v 0 8.401 h 16.799 v 2.799 z"
               style="fill:url(#linearGradient236);stroke:none"
               id="path238" /></g></g></g></g><text
       transform="matrix(1,0,0,-1,38.1801,1023)"
       style="font-variant:normal;font-weight:300;font-stretch:normal;font-size:20px;font-family:'Rubik Light';-inkscape-font-specification:Rubik-Light;writing-mode:lr-tb;fill:#000000;fill-opacity:1;fill-rule:nonzero;stroke:none"
       id="text242"><tspan
         x="0 11.2 60.82 73.82 85.419998 96.580002 108.28 115.46 120.18 127.36 139.17999 150.10001 155.25999 168.28 179.44 197 208.62 219.34 230.838"
         y="0"
         id="tspan240">29About the Company</tspan></text></g></svg>
