<?xml version="1.0" encoding="UTF-8" standalone="no"?>
<?xml-stylesheet type="text/css" href="main.css" ?>
<svg
   xmlns:dc="http://purl.org/dc/elements/1.1/"
   xmlns:cc="http://creativecommons.org/ns#"
   xmlns:rdf="http://www.w3.org/1999/02/22-rdf-syntax-ns#"
   xmlns:svg="http://www.w3.org/2000/svg"
   xmlns="http://www.w3.org/2000/svg"
   version="1.1"
   id="svg2"
   xml:space="preserve"
   width="2560"
   height="1440"
   viewBox="0 0 2560 1440"><metadata
     id="metadata8"><rdf:RDF><cc:Work
         rdf:about=""><dc:format>image/svg+xml</dc:format><dc:type
           rdf:resource="http://purl.org/dc/dcmitype/StillImage" /></cc:Work></rdf:RDF></metadata><defs
     id="defs6"><clipPath
       clipPathUnits="userSpaceOnUse"
       id="clipPath20"><path
         d="M 0,1080 H 1920 V 0 H 0 Z"
         id="path18" /></clipPath><linearGradient
       x1="0"
       y1="0"
       x2="1"
       y2="0"
       gradientUnits="userSpaceOnUse"
       gradientTransform="matrix(1401.4735,31.803883,31.803883,-1401.4735,88.449087,169.2228)"
       spreadMethod="pad"
       id="linearGradient184"><stop
         style="stop-opacity:1;stop-color:#0c50a8"
         offset="0"
         id="stop178" /><stop
         style="stop-opacity:1;stop-color:#0c50a8"
         offset="0.4854273"
         id="stop180" /><stop
         style="stop-opacity:1;stop-color:#fdb73e"
         offset="1"
         id="stop182" /></linearGradient><linearGradient
       x1="0"
       y1="0"
       x2="1"
       y2="0"
       gradientUnits="userSpaceOnUse"
       gradientTransform="matrix(1401.4735,31.803883,31.803883,-1401.4735,88.449097,169.2228)"
       spreadMethod="pad"
       id="linearGradient212"><stop
         style="stop-opacity:1;stop-color:#0c50a8"
         offset="0"
         id="stop206" /><stop
         style="stop-opacity:1;stop-color:#0c50a8"
         offset="0.4854273"
         id="stop208" /><stop
         style="stop-opacity:1;stop-color:#fdb73e"
         offset="1"
         id="stop210" /></linearGradient><linearGradient
       x1="0"
       y1="0"
       x2="1"
       y2="0"
       gradientUnits="userSpaceOnUse"
       gradientTransform="matrix(1401.4735,31.803883,31.803883,-1401.4735,88.449097,169.2228)"
       spreadMethod="pad"
       id="linearGradient244"><stop
         style="stop-opacity:1;stop-color:#0c50a8"
         offset="0"
         id="stop238" /><stop
         style="stop-opacity:1;stop-color:#0c50a8"
         offset="0.4854273"
         id="stop240" /><stop
         style="stop-opacity:1;stop-color:#fdb73e"
         offset="1"
         id="stop242" /></linearGradient></defs><g
     id="g10"
     transform="matrix(1.3333333,0,0,-1.3333333,0,1440)"><g
       id="g12"><g
         id="g14"><g
           id="g16"
           clip-path="url(#clipPath20)"><path
             d="M 0,0 H 1920 V 1080 H 0 Z"
             style="fill:#ffffff;fill-opacity:1;fill-rule:nonzero;stroke:none"
             id="path22" /></g></g></g><text
       transform="matrix(1,0,0,-1,99,960.4)"
       style="font-variant:normal;font-weight:500;font-stretch:normal;font-size:28px;font-family:'Rubik Medium';-inkscape-font-specification:Rubik-Medium;writing-mode:lr-tb;fill:#000000;fill-opacity:1;fill-rule:nonzero;stroke:none"
       id="text26"><tspan
         x="0 19.459999 36.652 52.835999 64.344002 80.220001 92.288002 99.708 117.208 134.45599 140.84 152.37601 168.56 183.48399 200.89999 208.34801 220.416"
         y="0"
         id="tspan24">Operating results</tspan></text><text
       transform="matrix(1,0,0,-1,99,908.3635)"
       style="font-variant:normal;font-weight:500;font-stretch:normal;font-size:20px;font-family:'Rubik Medium';-inkscape-font-specification:Rubik-Medium;writing-mode:lr-tb;fill:#000000;fill-opacity:1;fill-rule:nonzero;stroke:none"
       id="text30"><tspan
         x="0 14.02 25.879999 38.380001 50.66 62.52 67.839996 79.279999 83.839996 95.279999 106.72 115.1 125.76"
         y="0"
         id="tspan28">Gondola cars:</tspan></text><text
       transform="matrix(1,0,0,-1,99,869.3235)"
       style="font-variant:normal;font-weight:300;font-stretch:normal;font-size:20px;font-family:'Rubik Light';-inkscape-font-specification:Rubik-Light;writing-mode:lr-tb;fill:#000000;fill-opacity:1;fill-rule:nonzero;stroke:none"
       id="text44"><tspan
         x="0 10.7 22.52 33.439999 38.599998 48.439999 60.139999 67.099998 78.720001 83.220001 94.919998 104.76 109.92 120.938 127.678 132.838 144.45799 155.618 167.418 179.01801 190.17799 194.67799 205.39799 210.558 221.278 231.998 238.95799 248.798 253.95799 263.798 274.71799 285.638 297.43799 302.59799 307.05801 318.858 323.57599 330.75601 342.57599 353.496 358.65601 376.216 386.936 393.896 403.134 413.974 421.15399 426.314 436.15399 440.61401 452.414 463.134 474.05399 478.77399 485.95401 497.77399 508.694"
         y="0"
         id="tspan32">The surplus of gondola cars seen in the market since the </tspan><tspan
         x="0 9.8400002 20.76 31.48 42.639999 54.439999 66.040001 71.199997 82.82 94.519997 105.24 112.2 119.38 130.3 136.778 141.938 152.95799 159.698 164.858 176.058 188.37801 196.338 207.778 212.938 217.39799 229.198 239.918 246.638 257.55801 268.27802 278.11801 289.03799 300.638 305.35599 312.53601 323.69601 328.85599 340.496 351.69601 356.056 368.37601 380.69601 393.01599 398.17599 409.87601 421.67599 426.13599 433.31601 443.15601 448.31601 452.776 464.57599 469.73599 480.936 493.25601 504.45599 516.39398 521.15399"
         y="26.040001"
         id="tspan34">second quarter of 2019 increased to 62,000 units in 2020. </tspan><tspan
         x="0 13.68 24.26 34.619999 45.540001 52.5 59.68 71.5 82.419998 86.919998 97.839996 107.68 117.52 122.26 126.958 142.418 153.338 158.498 162.95799 174.758 185.478 192.198 203.118 213.838 223.67799 234.59801 246.198 251.358 262.51801 274.21799 280.69601 285.85599 295.69601 307.51599 318.23599 324.95599 335.87601 341.03601 352.056 358.79599 363.51599 370.69601 382.51599 393.436 398.59601 409.75601 421.37601 432.29599 439.09399 449.71399 456.89401 461.354 473.15399 484.77399 489.534 496.73401 501.23401 512.15399 522.99402 530.17401"
         y="52.080002"
         id="tspan36">Nevertheless, we increased our share of the operating fleet </tspan><tspan
         x="0 11.22 21.32 26.48 38.419998 43.18 54.700001 59.860001 71.480003 83.099998 87.82 95 106.82 113.538 124.698 136.39799 148.01801 159.838 164.998 169.498 180.418 191.138 200.978 205.438 217.23801 228.858 234.01801 244.73801 255.45799 262.418 272.258 277.01801 281.65601 290.81601 301.97601 313.59601 324.436 331.616 343.436 354.35599 360.836 365.53601 381.25601 385.716 392.896 404.716 409.436 416.616 428.436 439.35599 444.51599 448.97601 460.776 471.496 478.21399 489.134 499.854 509.694 520.61401"
         y="78.120003"
         id="tspan38">by 0.3 pp through leasing cars. Together with the increase </tspan><tspan
         x="0 4.46 16.26 21.02 28.219999 32.720001 43.639999 54.478001 61.658001 66.818001 78.438004 85.157997 96.318001 107.918 119.618 130.338 137.51801 141.978 152.698 157.158 164.338 173.758 178.498 183.218 190.39799 202.218 206.67799 216.51801 221.67799 232.59801 244.39799 255.118 266.71799 271.21799 282.138 293.73801 298.89801 310.59799 320.43799 325.15601 332.336 343.496 348.65601 353.116 364.91599 375.63599 382.354 393.27399 403.99399 413.83401 424.754 429.914 441.07401 452.77399 459.254 464.414 474.254 486.07401 496.79401 503.51401 514.43402"
         y="104.16"
         id="tspan40">in fleet productivity, this enabled us to increase our share </tspan><tspan
         x="0 11.02 17.76 22.48 29.66 41.48 52.400002 57.16 64.360001 71.080002 82 86.459999 98.080002 109.738 116.918 122.078 139.638 150.358 157.31799 166.558 177.39799 184.578 189.298 196.478 207.638 212.798 220.758 229.118 233.87801 245.31799 260.138 265.298 271.27802 282.478 285.87799 293.83801 298.99799 310.61801 322.23801 327.39801 344.95801 356.11801 362.836 373.75601 378.47601 385.65601 397.47601 408.19601 419.996 425.15601 429.616 441.41599 446.57599 457.776 470.09601 478.056 488.836 495.216"
         y="130.2"
         id="tspan42">of the freight market to 17.5% (2.1 pp more than in 2019).</tspan></text><text
       transform="matrix(1,0,0,-1,597.6151,745.8044)"
       style="font-variant:normal;font-weight:300;font-stretch:normal;font-size:11.66px;font-family:'Rubik Light';-inkscape-font-specification:Rubik-Light;writing-mode:lr-tb;fill:#000000;fill-opacity:1;fill-rule:nonzero;stroke:none"
       id="text48"><tspan
         x="0"
         y="0"
         id="tspan46">1</tspan></text><text
       transform="matrix(1,0,0,-1,99,700.1079)"
       style="font-variant:normal;font-weight:300;font-stretch:normal;font-size:20px;font-family:'Rubik Light';-inkscape-font-specification:Rubik-Light;writing-mode:lr-tb;fill:#000000;fill-opacity:1;fill-rule:nonzero;stroke:none"
       id="text58"><tspan
         x="0 10.7 22.52 33.439999 38.599998 49.32 61.139999 71.860001 76.360001 80.860001 91.779999 103.58 115.2 119.66 131.46001 143.08 148.24001 159.39999 171.02 181.94 188.73801 199.358 206.53799 210.998 222.798 234.418 239.578 250.298 261.45801 273.258 284.858 289.31799 296.49799 300.95801 312.11801 323.918 333.758 338.918 350.078 361.87799 366.59601 373.776 385.59601 396.51599 401.67599 413.47601 424.314 431.49399 446.95401 458.11401 465.07401 474.57401 479.73401 490.45401 500.29401"
         y="0"
         id="tspan50">The challenging operating conditions on the network as </tspan><tspan
         x="0 10.72 15.88 22.6 33.52 43.360001 55.060001 59.560001 66.739998 71.900002 82.919998 89.657997 94.379997 101.56 113.38 124.3 129.46001 133.92 145.72 156.44 163.158 174.078 184.798 194.638 199.09801 210.89799 222.51801 227.67799 234.478 245.198 249.658 254.158 264.87799 275.59799 282.07599 287.23599 297.07599 308.776 315.73599 327.35599 331.85599 343.556 353.396 358.556 363.01599 374.81601 379.97601 391.17599 403.496 414.69601 427.01599 432.17599 443.996 454.716 466.31601 471.47601 482.19601 493.996"
         y="26.040001"
         id="tspan52">a result of the increasing railcar surplus in 2020 had an </tspan><tspan
         x="0 10.72 22.32 32.68 43.599998 50.560001 60.400002 71.32 76.477997 87.297997 94.498001 101.478 112.398 123.118 130.298 135.45799 146.618 158.418 163.138 170.31799 182.01801 188.978 200.778 211.498 218.218 229.37801 241.078 252.87801 264.478 269.198 276.37799 280.83801 298.39801 309.31799 314.078 318.716 327.99799 339.698 346.65799 358.45801 369.17801 375.896 387.056 398.75601 410.556 422.15601 426.87601 434.056 438.51599 456.07599 466.996 471.75601 478.73599 489.896 496.37601 501.09601 508.276 520.09601 531.01599"
         y="52.080002"
         id="tspan54">adverse effect on turnaround time. Turnaround time for the </tspan><tspan
         x="0 11.8 22.639999 29.82 45.279999 56.439999 63.400002 72.900002 77.599998 93.040001 103.76 113.6 118.76 126.72 138.36 143.52 155.12 165.658 175.998 185.838 190.578 195.73801 203.698 207.09801 215.058 220.218 231.81799 242.358 252.698 262.53799 267.698 285.258 296.418 303.138 314.05801 318.77802 325.95801 337.77802 348.49799 360.298 365.45801 376.07599 383.25601 387.97601 395.15601 406.97601 417.896 423.056 433.97601 445.776 457.37601 462.53601 473.556 480.29599 485.45599 496.65601 508.97601 516.93597 526.97601 531.716"
         y="78.120003"
         id="tspan56">network was 16 days, 1.1 days more than at the end of 2019, </tspan></text><text
       transform="matrix(1,0,0,-1,99,595.9479)"
       style="font-variant:normal;font-weight:300;font-stretch:normal;font-size:20px;font-family:'Rubik Light';-inkscape-font-specification:Rubik-Light;writing-mode:lr-tb;fill:#000000;fill-opacity:1;fill-rule:nonzero;stroke:none"
       id="text62"><tspan
         x="0 10.72 15.22 22.4 34.220001 45.380001 57.080002 68.699997 80.519997 85.218002 100.678 111.598 116.758 123.478 134.39799 145.998 157.698 168.418 179.338 190.938 196.09801 207.258 218.95799 225.438 230.59801 241.498 257.21799 269.01801 273.73801 280.918 292.61801 299.578 311.37799 322.09799 328.81601 339.97601 351.67599 363.47601 375.07599 379.79599 386.97601 391.436 408.996 419.91599 425.07599 436.29599 446.396 451.556 463.496 468.25601 479.776 484.936 496.53601 507.07401 517.414 527.25403"
         y="0"
         id="tspan60">although we reduced our own turnaround time by 0.3 days </tspan></text><text
       transform="matrix(1,0,0,-1,99,569.9079)"
       style="font-variant:normal;font-weight:300;font-stretch:normal;font-size:20px;font-family:'Rubik Light';-inkscape-font-specification:Rubik-Light;writing-mode:lr-tb;fill:#000000;fill-opacity:1;fill-rule:nonzero;stroke:none"
       id="text72"><tspan
         x="0 7.1799998 19 29.719999 41.52 51.080002 60.919998 65.639999 72.82 83.980003 89.139999 93.599998 111.16 122.78 129.498 140.3 150.66 161.58 179.14 190.06 201.698 208.87801 218.718 223.87801 228.338 240.138 245.298 256.45801 268.078 278.99799 285.798 296.418 303.59799 308.05801 319.21799 331.01801 341.73801 346.23801 351.39801 362.216 369.41599 376.616 381.07599 391.79599 396.25601 407.17599 418.97601 429.41599 439.51599 444.67599 455.396 467.19601 478.79599"
         y="0"
         id="tspan64">thanks to improvements in operational efficiency and </tspan><tspan
         x="0 6.8000002 17.52 21.98 26.48 37.200001 47.919998 54.400002 59.560001 71.18 77.900002 89.059998 100.66 112.36 123.08 130.25999 134.72 145.44 149.89999 157.08 166.498"
         y="26.040001"
         id="tspan66">railcar productivity.</tspan><tspan
         x="0 10.7 22.52 33.439999 38.599998 49.52 67.080002 78.559998 85.739998 95.839996 101 107.96 119.66 131.46001 136.62 143.418 154.03799 161.218 172.138 177.298 183.45799 195.298 208.09801 220.418 226.798 231.95799 236.418 246.258 251.418 262.578 274.37799 285.298 290.45801 301.478 308.21799 313.37799 324.53799 336.23801 342.71799 347.87799 357.116 367.67599 377.77802 382.93799 394.09799 405.71799 416.638 423.436 434.056 441.23599 445.69601 457.496 469.116"
         y="65.080002"
         id="tspan68">The empty run rate (ERR) is one of our key operating </tspan><tspan
         x="0 4.46 16.26 27.860001 32.32 43.040001 53.66 60.84 72 78.959999 88.800003 93.959999 104.68 116.48 128.08 133.24001 137.7 147.53999 152.7 164.39999 174.24001 185.16 196.75999 201.478 208.658 219.81799 224.978 235.698 245.53799 255.37801 266.298 276.138 285.978 291.138 295.638 306.798 318.418 322.87799 332.71799 339.89801 344.358 355.078 364.918 370.078 381.698 392.61801 399.578 406.55399 417.71399 424.67401 442.23401 452.95401 464.754 475.474 486.39401 491.15399"
         y="91.120003"
         id="tspan70">indicators and is used to assess logistics performance. </tspan></text><text
       transform="matrix(1,0,0,-1,99,452.7479)"
       style="font-variant:normal;font-weight:300;font-stretch:normal;font-size:20px;font-family:'Rubik Light';-inkscape-font-specification:Rubik-Light;writing-mode:lr-tb;fill:#000000;fill-opacity:1;fill-rule:nonzero;stroke:none"
       id="text76"><tspan
         x="0 10.7 22.52 33.439999 38.599998 50.439999 63.240002 76.040001 80.800003 87.779999 98.940002 105.42 110.58 122.2 133.36 145.16 156.75999 167.92 172.42 183.14 188.3 199.02 209.74001 216.7 226.53999 231.7 236.16 247.96001 253.12 264.32001 276.64001 287.84 300.16 304.858 320.298 331.01801 340.858 346.01801 357.95801 362.43799 374.078 385.59799 390.758 396.276 407.97601 419.59601 424.75601 436.65601 441.81601 453.436 465.056"
         y="0"
         id="tspan74">The ERR for gondola cars in 2020 was 0.63 (up 4 pp </tspan></text><text
       transform="matrix(1,0,0,-1,99,426.7079)"
       style="font-variant:normal;font-weight:300;font-stretch:normal;font-size:20px;font-family:'Rubik Light';-inkscape-font-specification:Rubik-Light;writing-mode:lr-tb;fill:#000000;fill-opacity:1;fill-rule:nonzero;stroke:none"
       id="text80"><tspan
         x="0 10.72 21.879999 39.439999 51.060001 61.779999 68.5 79.419998 91.019997 95.718002 111.438 115.898 123.078 134.89799 140.058 151.258 163.578 171.53799 182.31799 188.698 193.45799 198.09801 208.798 220.618 225.078 234.918 240.078 244.53799 256.33801 267.05801 273.776 284.69601 295.41599 305.25601 316.17599 320.87601 336.31601 347.03601 356.87601 361.59601 368.776 380.59601 391.51599 396.67599 403.396 414.31601 424.15601 435.85599 440.35599 447.53601"
         y="0"
         id="tspan78">compared with 2019). This increase was the result </tspan></text><text
       transform="matrix(1,0,0,-1,693,908.3279)"
       style="font-variant:normal;font-weight:300;font-stretch:normal;font-size:20px;font-family:'Rubik Light';-inkscape-font-specification:Rubik-Light;writing-mode:lr-tb;fill:#000000;fill-opacity:1;fill-rule:nonzero;stroke:none"
       id="text84"><tspan
         x="0 11.02 18.219999 23.379999 27.879999 39.040001 50.66 55.119999 64.959999 72.139999 76.599998 87.32 97.160004 102.32 113.04 124.86 135.58 147.38 159 169.92 179.75999 184.92 195.81799 211.53799 215.998 227.798 239.418 244.138 251.31799 262.478 267.638 278.358 283.51801 295.11801 306.03799 316.758 323.47601 334.396 345.116 354.95599 365.87601 371.03601 375.496 387.29599 392.45599 402.29599 414.116 418.57599 430.19601 441.81601 446.276 458.07599 469.69601 474.45401 481.43399 492.59399 499.07401 504.23401 515.39398 527.09399 533.57397"
         y="0"
         id="tspan82">of logistics changes owing to a decrease in shipping for our </tspan></text><text
       transform="matrix(1,0,0,-1,693,881.4479)"
       style="font-variant:normal;font-weight:300;font-stretch:normal;font-size:20px;font-family:'Rubik Light';-inkscape-font-specification:Rubik-Light;writing-mode:lr-tb;fill:#000000;fill-opacity:1;fill-rule:nonzero;stroke:none"
       id="text94"><tspan
         x="0 17.559999 28.280001 32.740002 44.540001 49.700001 58.939999 69.5 79.599998 84.760002 95.480003 99.980003 104.44 115.36 127 134.17999 144.02 149.17999 159.89999 171.7 183.3 188.46001 199.62 211.32001 217.798 222.95799 233.67799 244.39799 256.01801 267.71799 272.17801 282.01801 286.478 293.65799 298.11801 309.27802 321.078 326.23801 337.25601 343.996 348.716 355.896 362.69601 373.41599 385.216 395.056 406.67599 417.836 424.79599 431.97601 437.13599 448.29599 459.91599 470.836 477.634 488.254 495.43399 499.89401 511.05399 522.854 532.69397"
         y="0"
         id="tspan86">main key clients and our acquisition of transport operations </tspan><tspan
         x="0 15.72 20.18 27.360001 39.18 44.34 55.060001 60.220001 72.040001 76.5 88.120003 99.940002 110.86 117.338 122.498 134.338 147.138 159.938 164.698 169.858 185.45799 196.37801 207.09801 216.938 228.638 235.356 246.276 256.116 260.836 268.01599 279.17599 284.336 295.056 306.85599 317.57599 322.07599 332.41599 342.25601 353.17599 358.336 370.13599 380.97601 388.15601 403.616 414.776 421.73599 431.23599 435.996 443.19601 449.91599 460.836 465.29599 476.91599 488.57401 495.754"
         y="26.879999"
         id="tspan88">with a higher ERR. Measures to analyse network freight </tspan><tspan
         x="0 10.36 21.52 26.02 37.720001 55.279999 66.199997 71.360001 82.080002 93.879997 105.48 110.64 115.1 126.7 137.62 149.258 156.438 160.89799 168.09801 178.198 183.358 194.978 206.01801 213.198 224.118 235.758 242.938 247.39799 258.11801 262.61801 267.77802 278.93799 290.41599 297.59601 302.056 319.616 324.07599 333.73599 344.65601 356.25601 361.01599 368.216 374.936 385.85599 390.31601 401.936 413.59399 420.77399 425.534 432.73401 437.23401 448.134 463.61401 473.45401 478.15399 493.61401 504.534 516.17401 523.354"
         y="53.759998"
         id="tspan90">volume and identify potential optimized freight flows went </tspan><tspan
         x="0 9.8400002 21 38.560001 49.48 54.18 69.620003 80.160004 90.260002 94.980003 102.16 113.06 128.5 139.22 145.92 157.52 167.36 172.52 183.53999 190.74001 197.94 207.78 218.618 225.798 232.978 237.438 249.23801 260.858 265.578 272.758 284.578 295.49799 300.65799 312.478 316.93799 328.55801 340.37799 351.298 357.776 362.936 374.776 387.57599 400.37601"
         y="80.639999"
         id="tspan92">some way towards offsetting the higher ERR.</tspan></text><text
       transform="matrix(1,0,0,-1,693,721.0479)"
       style="font-variant:normal;font-weight:500;font-stretch:normal;font-size:20px;font-family:'Rubik Medium';-inkscape-font-specification:Rubik-Medium;writing-mode:lr-tb;fill:#000000;fill-opacity:1;fill-rule:nonzero;stroke:none"
       id="text98"><tspan
         x="0 10.32 21.76 34.259998 45.16 49.720001 61.16 72.599998 80.980003 91.639999"
         y="0"
         id="tspan96">Tank cars:</tspan></text><text
       transform="matrix(1,0,0,-1,693,681.1679)"
       style="font-variant:normal;font-weight:300;font-stretch:normal;font-size:20px;font-family:'Rubik Light';-inkscape-font-specification:Rubik-Light;writing-mode:lr-tb;fill:#000000;fill-opacity:1;fill-rule:nonzero;stroke:none"
       id="text106"><tspan
         x="0 13.24 24.940001 31.42 36.580002 46.419998 58.240002 68.959999 75.68 86.599998 91.760002 102.78 109.518 114.278 121.478 128.198 139.118 143.578 155.198 166.858 174.03799 179.198 190.358 202.158 206.87801 214.058 225.87801 236.798 241.95799 253.758 264.59601 271.776 287.23599 298.396 305.35599 314.85599 320.01599 329.85599 341.67599 348.47601 359.19601 370.996 380.496 385.65601 396.87601 406.97601 412.13599 420.09601 424.85599 436.29599 441.45599 453.07599 464.69601"
         y="0"
         id="tspan100">Our share of freight on the network shrank by 1.5 pp </tspan><tspan
         x="0 6.7199998 17.639999 22.139999 32.759998 39.939999 44.400002 54.759998 65.68 70.400002 77.580002 88.739998 93.900002 105.1 117.42 125.38 135.418 140.158 145.31799 152.03799 162.858 170.058 174.558 185.478 196.198 203.37801 207.838 219.638 231.258 236.418 247.138 252.298 259.01801 269.93799 281.53799 293.23801 303.95801 311.138 315.59799 326.758 338.55801 343.71799 348.17801 359.978 364.69601 371.87601 383.69601 394.616 399.776 409.616 414.07599 423.73599 434.65601 439.81601 450.836 457.57401 462.73401 473.89401 485.59399 492.07401"
         y="26.879999"
         id="tspan102">relative to 2019, reflecting a reduction in the size of our </tspan><tspan
         x="0 11.16 22.780001 33.700001 40.5 51.119999 58.299999 62.759998 74.559998 86.18 90.940002 98.139999 102.64 113.56 124.398 131.578 136.338 141.498 146.51801 158.31799 163.478 179.078 189.798 196.51801 207.23801 219.058 224.218 235.418 247.73801 258.93799 270.87601 275.616 280.31799 295.77802 306.698 311.858 321.698 326.15799 337.77802 349.578 360.49799 372.09799 377.258 387.978 399.77802 404.93799 415.65799 427.27802 433.996 444.91599 455.836 473.396 484.31601 495.95401 503.134"
         y="53.759998"
         id="tspan104">operating fleet. In March 2020, we signed an agreement </tspan></text><text
       transform="matrix(1,0,0,-1,693,600.5279)"
       style="font-variant:normal;font-weight:300;font-stretch:normal;font-size:20px;font-family:'Rubik Light';-inkscape-font-specification:Rubik-Light;writing-mode:lr-tb;fill:#000000;fill-opacity:1;fill-rule:nonzero;stroke:none"
       id="text110"><tspan
         x="0 7.1799998 18.34 23.5 33.34 44.259998 48.759998 53.259998 58.419998 69.139999 80.940002 92.540001 97.690002 102.19 113.11 123.83 133.67 144.59 149.75 161.35001 172.07001 182.78999 192.28999 197.45 208.61 220.31 226.78999 231.502 238.68201 249.40199 261.202 270.702 275.862 286.582 297.302 303.78201 308.534 315.73401 320.23401 331.15399 341.99399 349.17401 353.93399 358.564 369.26401 381.08401 392.004 397.164 408.96399 420.664 438.224 449.82401 460.74399 467.224 472.384 483.40399 490.14401 494.85599 502.03601 512.75598 524.55603 534.05603"
         y="0"
         id="tspan108">to sell and lease back our tank car fleet. The number of tank </tspan></text><text
       transform="matrix(1,0,0,-1,693,573.6479)"
       style="font-variant:normal;font-weight:300;font-stretch:normal;font-size:20px;font-family:'Rubik Light';-inkscape-font-specification:Rubik-Light;writing-mode:lr-tb;fill:#000000;fill-opacity:1;fill-rule:nonzero;stroke:none"
       id="text126"><tspan
         x="0 10.72 21.440001 28.4 38.240002 43.400002 47.860001 59.66 64.82 75.980003 87.599998 98.519997 105.318 115.938 123.118 127.578 138.73801 150.53799 155.298 162.278 173.198 177.698 182.198 186.95799 194.158 200.87801 212.03799 229.59801 234.758 242.718 254.358 258.716 271.03601 283.35599 295.67599 300.396 307.57599 318.73599 323.896 331.85599 343.79599 348.15601 360.47601 372.79599 384.73599 389.47601 394.63599 405.35599 417.15601 428.75601 433.47601 440.65601 452.47601 463.396 467.85599 474.336 479.496 489.336 501.15601 511.87601 518.59399 529.51398"
         y="0"
         id="tspan112">cars in operation fell from 16,000 to 10,000, and their share </tspan><tspan
         x="0 11.02 17.76 22.48 29.66 41.48 52.400002 57.16 64.360001 68.860001 79.779999 90.617996 97.797997 102.958 114.558 125.478 136.198 140.698 145.158 156.95799 167.87801 179.478 184.23801 191.438 198.15601 209.31599 226.87601 232.036 243.476 258.29599 263.01599 270.19601 281.35599 286.51599 296.25601 311.07599"
         y="26.879999"
         id="tspan114">of the fleet declined from 9% to 7%.</tspan><tspan
         x="0 15.32 26.24 31.4 42.119999 53.279999 64.919998 72.099998 76.559998 88.360001 100.06 110.98 122.58 127.298 134.478 145.638 150.338 165.798 176.95799 183.918 193.418 198.118 213.838 218.298 225.478 237.298 242.45799 251.698 262.258 272.358 277.51801 288.23801 292.73801 297.198 308.11801 319.758 326.93799 336.77802 341.93799 346.39801 358.198 362.918 370.09799 381.918 392.83801 397.99799 409.15799 413.61801 418.11801 422.836 430.01599 440.73599 452.53601 461.776 472.69601 479.17599"
         y="66.760002"
         id="tspan116">We continued to work with key clients in the oil tanker </tspan><tspan
         x="0 9.8400002 20.76 32.380001 49.939999 60.860001 72.5 79.68 84.839996 90.998001 103.678 114.838 124.678 136.478 147.298 154.498 161.67799 166.838 177.558 189.358 200.95799 206.118 216.67799 228.37801 237.618 248.778 253.23801 257.73801 264.11801 268.87799 274.03799 287.27802 298.978 305.45599 310.616 321.37601 331.73599 343.35599 354.276 361.23599 368.41599 372.87601 382.716 393.63599 398.79599 403.25601 415.056 419.814 427.01401 431.51401 442.43399 453.27399 460.45401"
         y="93.639999"
         id="tspan118">segment (Rosneft and Lukoil). Our expertise in fleet </tspan><tspan
         x="0 17.559999 28.280001 40.080002 50.799999 62.419998 73.339996 90.900002 101.82 113.458 120.638 125.798 136.51801 148.31799 159.918 164.638 171.81799 183.638 194.558 199.278 206.45799 217.37801 228.09801 239.918 251.718 262.87799 267.37799 278.53799 290.15799 294.61801 305.33801 316.05801 320.55801 325.71799 332.436 343.35599 354.97601 366.67599 371.13599 377.85599 388.776 406.336 417.25601 428.89401 436.07401 445.914 451.07401 462.09399 468.83401"
         y="120.52"
         id="tspan120">management and the technological requirements of </tspan><tspan
         x="0 15.46 26.620001 33.580002 43.32 47.779999 59.580002 71.199997 76.360001 86.980003 94.160004 99.32 103.78 115.58 127.18 138.88 148.72 155.89999 162.86 167.32001 178.03999 182.53999 187.7 197.53999 202 209.17999 220.10001 229.94 235.10001 246.02 257.82001 268.54001 280.14001 284.64001 295.56 307.16 312.32001 324.01999 333.85999 338.57599 345.75601 356.91599 362.07599 379.63599 390.35599 394.81601 406.45401 413.634 424.354 428.814 440.61401 445.77399 456.49399 461.65399 472.854 482.59399 497.414"
         y="147.39999"
         id="tspan122">working at industrial sites enabled us to maintain a 27% </tspan><tspan
         x="594 603.84003 615.65997 626.38 633.09998 644.02002 649.17999 660.20001 666.94 672.09998 684.77802 695.93799 705.77802 717.578 728.39801 735.59802 742.77802 746.29797 756.138 760.85797 768.03802 779.078 786.258 796.97803 801.47803 806.23798 813.43799 820.15802 831.078 835.53802 847.15802 858.81799 865.99799 870.61798 880.97803 892.138 896.638 908.33801 925.89801 936.81799"
         y="-334.66"
         id="tspan124">share of Rosneft’s total freight volume.</tspan></text><text
       transform="matrix(1,0,0,-1,1287,869.2679)"
       style="font-variant:normal;font-weight:300;font-stretch:normal;font-size:20px;font-family:'Rubik Light';-inkscape-font-specification:Rubik-Light;writing-mode:lr-tb;fill:#000000;fill-opacity:1;fill-rule:nonzero;stroke:none"
       id="text134"><tspan
         x="0 11.08 17.799999 28.719999 33.18 44.799999 56.459999 63.639999 68.800003 82.040001 93.839996 104.038 107.558 117.398 122.558 132.39799 144.218 154.938 161.658 172.578 177.73801 188.358 195.53799 200.698 211.258 222.95799 232.198 243.358 247.81799 252.31799 257.478 267.31799 271.77802 278.95801 289.87799 299.71799 304.87799 309.33801 321.138 326.298 337.49799 349.81799 361.01801 373.33801 378.03601 393.47601 404.19601 414.03601 419.19601 427.15601 439.056 453.87601"
         y="0"
         id="tspan128">Freight One’s share at Lukoil sites in 2020 was 14% </tspan><tspan
         x="0 5.6799998 13.64 28.459999 33.619999 51.18 62.34 69.059998 79.980003 84.699997 91.879997 103.7 114.42 126.22 131.38 135.84 147.64 152.8 164 176.32001 184.28 195.058 201.438 206.17799 210.87801 226.59801 231.058 238.23801 250.058 254.778 261.95801 268.758 279.478 291.27802 301.11801 312.73801 323.89801 330.858 338.03799 348.65601 355.836 360.29599 371.45599 383.25601 387.87601 398.23599 409.396 413.896 425.59601 443.15601 454.07599 463.91599"
         y="26.040001"
         id="tspan130">(1% more than in 2019), with transportation volumes </tspan><tspan
         x="0 11.02 18.219999 23.379999 34.580002 38.400002 49.84 55 72.559998 77.019997 81.519997 86.019997 90.480003 101.64 113.44 118.158 125.338 136.498 148.298 160.09801 171.01801 180.858"
         y="52.080002"
         id="tspan132">of 2.9 million tonnes.</tspan></text><text
       transform="matrix(1,0,0,-1,1287,739.1079)"
       style="font-variant:normal;font-weight:500;font-stretch:normal;font-size:20px;font-family:'Rubik Medium';-inkscape-font-specification:Rubik-Medium;writing-mode:lr-tb;fill:#000000;fill-opacity:1;fill-rule:nonzero;stroke:none"
       id="text138"><tspan
         x="0 13.74 25.280001 36.240002 47.68 59.119999 67.5 78.160004"
         y="0"
         id="tspan136">Boxcars:</tspan></text><text
       transform="matrix(1,0,0,-1,1287,700.0679)"
       style="font-variant:normal;font-weight:300;font-stretch:normal;font-size:20px;font-family:'Rubik Light';-inkscape-font-specification:Rubik-Light;writing-mode:lr-tb;fill:#000000;fill-opacity:1;fill-rule:nonzero;stroke:none"
       id="text146"><tspan
         x="0 11.08 17.799999 28.719999 33.18 44.799999 56.459999 63.639999 68.800003 82.040001 93.839996 104.038 107.558 117.398 122.558 132.39799 144.218 154.938 161.658 172.578 177.73801 188.758 195.498 200.658 212.258 223.198 233.31799 244.03799 254.758 261.23801 265.99799 273.198 279.918 290.83801 295.298 306.918 318.57599 325.75601 330.91599 335.37601 347.17599 357.896 364.616 375.53601 386.25601 396.09601 407.01599 418.616 423.776 434.99399 445.09601 450.25601 462.194 466.57401 478.474 483.634 495.254 506.87399"
         y="0"
         id="tspan140">Freight One’s share of boxcar freight increased by 0.4 pp </tspan><tspan
         x="0 10.72 21.879999 39.439999 51.060001 61.779999 68.5 79.419998 91.019997 95.718002 111.438 115.898 123.078 134.89799 140.058 151.258 163.578 171.53799 182.978 188.138 193.95799 201.158 207.87801 219.03799 236.59801 241.758 253.278 264.79599 269.556 280.996 295.81601 300.53601 307.716 318.87601 324.03601 335.556 347.07599 350.896 362.336 377.15601 383.53601 388.276 393.436 404.15601 415.776 426.496 430.95599 442.75601 452.59601 459.776 464.49399 471.67401 483.49399 494.414"
         y="26.040001"
         id="tspan142">compared with 2019 (from 34.5% to 34.9%), against the </tspan><tspan
         x="0 11.6 22.32 33.040001 42.279999 53.880001 60.599998 71.760002 83.379997 88.540001 99.559998 106.298 111.458 122.178 127.338 139.23801 154.058 159.218 170.81799 181.73801 192.45799 199.17799 210.09801 220.81799 230.658 241.578 246.73801 251.198 262.99799 268.15799 279.95801 290.79599 297.97601 313.436 324.59601 331.556 341.056 345.81601 353.01599 359.73599 370.65601 375.116 386.73599 398.396 405.57599 410.19601 420.556 431.716 436.216 447.91599 465.47601 476.396"
         y="52.080002"
         id="tspan144">backdrop of a 4% decrease in network freight volume.</tspan></text><text
       transform="matrix(1,0,0,-1,1287,608.9479)"
       style="font-variant:normal;font-weight:300;font-stretch:normal;font-size:20px;font-family:'Rubik Light';-inkscape-font-specification:Rubik-Light;writing-mode:lr-tb;fill:#000000;fill-opacity:1;fill-rule:nonzero;stroke:none"
       id="text164"><tspan
         x="0 5.02 16.82 21.98 26.48 30.940001 42.740002 53.66 58.360001 74.080002 78.540001 85.720001 97.540001 102.7 113.86 125.56 132.03799 137.198 150.73801 161.31799 171.67799 182.59801 187.09801 198.258 209.87801 227.438 238.358 249.998 257.17801 262.33801 274.43799 281.61801 288.41599 299.03601 306.216 317.13599 328.75601 338.85599 344.01599 355.216 367.53601 378.73599 390.25601 394.996 399.69601 415.41599 427.23599 431.69601 442.41599 454.23599"
         y="0"
         id="tspan148">In line with our Development Strategy 2023, which </tspan><tspan
         x="0 11.82 22.540001 32.380001 37.540001 49.139999 60.060001 70.980003 82.779999 87.940002 98.660004 110.28 121.9 128.618 139.418 149.778 160.698 172.298 177.45799 188.67799 198.778 203.498 210.67799 222.498 233.418 238.578 251.638 262.798 273.51801 280.21799 291.81799 296.978 307.99799 314.73801 319.89801 333.43799 337.89801 344.616 355.53601 366.25601 373.436 384.59601 391.556 401.396 406.13599 410.836 426.29599 437.216 442.37601 453.09601 459.81601 470.73599"
         y="26.040001"
         id="tspan150">has been approved by the Board of Directors, we are </tspan><tspan
         x="0 11.7 23.32 34.939999 41.740002 52.459999 64.059998 68.519997 80.32 91.940002 97.099998 108.26 119.96 126.438 131.59801 143.198 154.138 164.258 174.978 185.698 192.17799 196.938 204.138 208.638 219.558 230.39799 237.578 242.338 247.09801 262.418 273.33801 278.49799 289.21799 299.93799 311.55801 323.258 327.71799 334.436 345.35599 356.95599 362.116 373.75601 386.07599 398.396 403.556 421.116 432.276 438.996 449.91599 455.07599 466.67599 477.61401 487.73401 498.45401 509.17401 516.13397 525.974"
         y="52.080002"
         id="tspan152">upgrading our boxcar fleet. We acquired 600 more boxcars </tspan><tspan
         x="0 4.46 16.26 21.42 32.619999 44.939999 56.139999 68.459999 73.620003 84.339996 96.139999 107.74 112.9 122.74 129.92 140.64 147.60001 154.78 165.7 177.3 182.46001 194.16 204 208.46001 220.25999 231.88 236.59801 243.778 255.59801 266.51801 284.078 289.23801 293.698 305.49799 310.216 317.396 324.19601 334.91599 346.716 356.556 368.17599 379.336 386.29599 393.47601 404.09601 411.276 415.73599 426.896 438.69601 443.45599 448.21399 463.534 474.45401"
         y="78.120003"
         id="tspan154">in 2020 and started using them in transportation. We </tspan><tspan
         x="0 10.72 15.22 25.059999 36.220001 41.380001 52.099998 63.259998 74.900002 82.080002 86.540001 98.339996 110.04 120.96 132.56 137.72 148.88 160.58 167.058 172.218 178.938 189.858 201.658 212.45799 222.798 233.418 240.59801 245.058 256.21799 268.01801 273.17801 283.89801 294.61801 301.798 306.258 316.978 321.43799 328.61801 333.078 343.99799 353.83801 358.578 363.73801 381.298 392.01801 401.758 406.21799 418.01801 429.638 434.798 442.758 446.556 457.996 470.31601 482.63599"
         y="104.16"
         id="tspan156">also continued our renovation activities, making 1,900 </tspan><tspan
         x="0 11.6 22.540001 32.66 43.380001 54.099998 61.060001 70.900002 75.660004 82.860001 87.32 94.5 99.260002 106.238 117.398 123.88 129.03999 139.75999 150.92 168.48 186.03999 196.96001 203.67799 214.39799 218.858 229.578 234.078 239.23801 250.938 260.77802 271.698 276.858 281.31799 293.11801 298.27802 309.478 321.798 332.99799 344.936 349.69601 354.85599 359.87601 377.436 389.056 393.556 404.47601 422.03601 432.95599 444.59399 451.77399 456.23401 468.034 479.65399 484.37399 491.55399 503.37399 507.83401 517.67401"
         y="130.2"
         id="tspan158">boxcars fit for commercial use in 2020. Implementing this </tspan><tspan
         x="0 11.62 18.34 29.5 41.119999 47.919998 58.639999 76.199997 93.760002 104.68 109.84 121.66 132.38 142.22 147.38 159 165.718 176.51801 186.87801 197.798 209.59801 214.758 225.578 232.778 239.758 250.67799 261.39801 268.578 273.03799 283.39801 294.31799 299.478 310.198 321.99799 333.59799 338.35599 345.556 350.01599 361.81601 372.53601 384.336 395.056 399.51599 410.23599 414.73599 419.23599 429.336 434.496 446.09601 457.01599 468.81601 479.634 486.83401 491.29401 502.01401 506.474 517.19397 521.69397"
         y="156.24001"
         id="tspan160">programme has proven effective and financially beneficial </tspan><tspan
         x="0 6.98 18.139999 24.620001 29.780001 41.48 51.32"
         y="182.28"
         id="tspan162">for us.</tspan></text><g
       id="g166"><g
         id="g168"><g
           id="g174"><g
             id="g176"><path
               d="m 163.539,199.915 c -1.614,-0.479 -2.967,-1.146 -4.06,-2 v 0 c -1.094,-0.853 -1.914,-1.886 -2.461,-3.099 v 0 c -0.546,-1.214 -0.819,-2.54 -0.819,-3.98 v 0 c 0,-1.44 0.266,-2.768 0.8,-3.981 v 0 c 0.532,-1.213 1.32,-2.246 2.359,-3.099 v 0 c 1.041,-0.854 2.321,-1.52 3.841,-2 v 0 c 1.52,-0.481 3.253,-0.72 5.2,-0.72 v 0 c 1.2,0 2.266,0.1 3.199,0.3 v 0 c 0.934,0.199 1.734,0.432 2.401,0.7 v 0 c 0.746,0.292 1.413,0.626 2,1 v 0 c 0,-3.095 -0.66,-5.367 -1.98,-6.821 v 0 c -1.32,-1.453 -3.127,-2.179 -5.42,-2.179 v 0 c -0.614,0 -1.28,0.046 -2,0.139 v 0 c -0.72,0.094 -1.474,0.26 -2.26,0.501 v 0 c -0.787,0.24 -1.588,0.566 -2.4,0.98 v 0 c -0.814,0.413 -1.594,0.939 -2.34,1.579 v 0 l -1.8,-2.399 c 1.52,-1.307 3.266,-2.267 5.24,-2.88 v 0 c 1.973,-0.613 3.96,-0.92 5.959,-0.92 v 0 c 4.32,0 7.601,1.046 9.841,3.139 v 0 c 2.24,2.094 3.36,5.046 3.36,8.861 v 0 6.599 c 0,3.52 -1.088,6.234 -3.26,8.141 v 0 c -2.174,1.906 -5.42,2.859 -9.74,2.859 v 0 c -2.16,0 -4.047,-0.239 -5.66,-0.72 m 2.74,-15.58 c -0.774,0.333 -1.447,0.807 -2.02,1.42 v 0 c -0.574,0.613 -1.027,1.354 -1.36,2.221 v 0 c -0.334,0.866 -0.5,1.82 -0.5,2.86 v 0 c 0,1.04 0.166,1.993 0.5,2.859 v 0 c 0.333,0.867 0.8,1.607 1.4,2.221 v 0 c 0.6,0.613 1.313,1.086 2.14,1.42 v 0 c 0.826,0.333 1.746,0.499 2.76,0.499 v 0 c 2,0 3.632,-0.673 4.9,-2.019 v 0 c 1.266,-1.348 1.9,-3.274 1.9,-5.78 v 0 -3.6 c -0.507,-0.508 -1.107,-0.947 -1.8,-1.32 v 0 c -0.614,-0.321 -1.368,-0.614 -2.26,-0.881 v 0 c -0.894,-0.266 -1.941,-0.399 -3.14,-0.399 v 0 c -0.907,0 -1.747,0.166 -2.52,0.499 m -34.299,15.181 c -2.068,-0.747 -3.861,-1.774 -5.381,-3.08 v 0 l 1.8,-2.401 c 1.52,1.307 3.1,2.233 4.741,2.781 v 0 c 1.639,0.546 3.459,0.819 5.459,0.819 v 0 c 2.107,0 3.733,-0.446 4.88,-1.34 v 0 c 1.146,-0.893 1.721,-2.046 1.721,-3.459 v 0 c 0,-3.467 -1.934,-5.2 -5.801,-5.2 v 0 h -7.4 v -3 h 8.2 c 2.106,0 3.667,-0.434 4.68,-1.301 v 0 c 1.014,-0.866 1.52,-2.099 1.52,-3.7 v 0 c 0,-1.6 -0.633,-2.934 -1.9,-3.999 v 0 c -1.267,-1.068 -3.3,-1.6 -6.1,-1.6 v 0 c -2,0 -3.853,0.313 -5.56,0.939 v 0 c -1.706,0.627 -3.32,1.647 -4.84,3.06 v 0 l -2,-2.399 c 1.52,-1.414 3.381,-2.534 5.58,-3.361 v 0 c 2.201,-0.826 4.606,-1.239 7.22,-1.239 v 0 c 2.4,0 4.467,0.213 6.2,0.64 v 0 c 1.733,0.426 3.166,1.006 4.3,1.74 v 0 c 1.133,0.733 1.967,1.6 2.5,2.6 v 0 c 0.533,1 0.801,2.072 0.801,3.22 v 0 c 0,1.92 -0.567,3.473 -1.701,4.659 v 0 c -1.134,1.186 -2.7,2.033 -4.699,2.541 v 0 c 1.812,0.613 3.132,1.472 3.96,2.579 v 0 c 0.826,1.107 1.239,2.514 1.239,4.22 v 0 c 0,1.041 -0.259,2.014 -0.78,2.921 v 0 c -0.52,0.906 -1.3,1.693 -2.34,2.36 v 0 c -1.04,0.666 -2.333,1.186 -3.879,1.559 v 0 c -1.548,0.374 -3.348,0.56 -5.4,0.56 v 0 c -2.614,0 -4.954,-0.373 -7.02,-1.119 m 71.218,0.32 -18.199,-18.44 v -3.16 h 19.6 v -6.401 h 5.799 v 6.401 h 3.401 v 2.8 h -3.401 v 18.8 z m 1,-5.2 h 0.401 v -13.6 h -13.801 z m -97.998,5.2 -6.8,-4.801 1.8,-2.6 4.8,2.6 h 0.4 v -23.2 h 5.8 v 28.001 z m 11.62,-23.3 c -0.547,-0.6 -0.82,-1.301 -0.82,-2.101 v 0 c 0,-0.8 0.266,-1.499 0.8,-2.099 v 0 c 0.533,-0.601 1.2,-0.9 2,-0.9 v 0 c 0.266,0 0.506,0.027 0.72,0.08 v 0 c 0.106,0.027 0.2,0.066 0.28,0.119 v 0 c -0.107,-0.8 -0.46,-1.432 -1.06,-1.9 v 0 c -0.6,-0.466 -1.247,-0.7 -1.94,-0.7 v 0 -1.399 c 0.64,0 1.286,0.113 1.94,0.34 v 0 c 0.653,0.227 1.233,0.587 1.739,1.08 v 0 c 0.507,0.493 0.921,1.12 1.24,1.879 v 0 c 0.321,0.761 0.481,1.661 0.481,2.7 v 0 c 0,1.014 -0.28,1.901 -0.841,2.661 v 0 c -0.559,0.759 -1.346,1.14 -2.359,1.14 v 0 c -0.908,0 -1.634,-0.301 -2.18,-0.9"
               style="fill:url(#linearGradient184);stroke:none"
               id="path186" /></g></g></g></g><text
       transform="matrix(1,0,0,-1,239.3986,191.6756)"
       style="font-variant:normal;font-weight:300;font-stretch:normal;font-size:16px;font-family:'Rubik Light';-inkscape-font-specification:Rubik-Light;writing-mode:lr-tb;fill:#000000;fill-opacity:1;fill-rule:nonzero;stroke:none"
       id="text192"><tspan
         x="0 9.3599997 17.232 25.968 31.535999 39.408001 43.535999 52.464001 61.903999 65.678398 71.422401 80.878403 89.614403 93.742401 101.3424 109.6144 117.4864 123.2304 131.9664 146.0144"
         y="0"
         id="tspan188">users on the system </tspan><tspan
         x="0 8.5760002 16.448 20.576 29.072001 34.816002 38.591999 44.335999 53.792 62.528 66.655998 75.391998 84.832001 94.112 98.239998 107.0544 112.4464 116.5744 125.5344 135.3904 144.3504"
         y="20"
         id="tspan190">as at the end of 2020</tspan></text><g
       id="g194"><g
         id="g196"><g
           id="g202"><g
             id="g204"><path
               d="m 805.285,197.5 c -2.24,-2.094 -3.36,-5.047 -3.36,-8.86 v 0 -6.6 c 0,-3.52 1.086,-6.234 3.26,-8.14 v 0 c 2.173,-1.907 5.42,-2.86 9.74,-2.86 v 0 c 2.16,0 4.046,0.24 5.66,0.72 v 0 c 1.613,0.48 2.966,1.146 4.06,2 v 0 c 1.093,0.853 1.913,1.886 2.459,3.1 v 0 c 0.547,1.213 0.82,2.54 0.82,3.98 v 0 c 0,1.44 -0.266,2.766 -0.799,3.98 v 0 c -0.534,1.213 -1.32,2.246 -2.361,3.1 v 0 c -1.039,0.853 -2.319,1.52 -3.839,2 v 0 c -1.52,0.48 -3.254,0.72 -5.2,0.72 v 0 c -1.2,0 -2.274,-0.107 -3.22,-0.32 v 0 c -0.947,-0.214 -1.74,-0.44 -2.38,-0.68 v 0 c -0.774,-0.294 -1.44,-0.626 -2.001,-1 v 0 c 0,3.093 0.661,5.367 1.98,6.82 v 0 c 1.321,1.453 3.127,2.18 5.421,2.18 v 0 c 0.586,0 1.246,-0.047 1.98,-0.14 v 0 c 0.733,-0.094 1.493,-0.26 2.28,-0.5 v 0 c 0.786,-0.24 1.586,-0.567 2.4,-0.98 v 0 c 0.813,-0.414 1.593,-0.94 2.34,-1.58 v 0 l 1.8,2.4 c -1.52,1.306 -3.267,2.266 -5.241,2.88 v 0 c -1.973,0.613 -3.96,0.92 -5.959,0.92 v 0 c -4.32,0 -7.6,-1.047 -9.84,-3.14 m 4.74,-21.64 c -1.267,1.346 -1.901,3.273 -1.901,5.78 v 0 3.6 c 0.507,0.48 1.107,0.906 1.8,1.28 v 0 c 0.614,0.32 1.368,0.62 2.261,0.9 v 0 c 0.893,0.28 1.94,0.42 3.139,0.42 v 0 c 0.907,0 1.747,-0.167 2.52,-0.5 v 0 c 0.773,-0.333 1.447,-0.807 2.021,-1.42 v 0 c 0.573,-0.614 1.026,-1.353 1.36,-2.22 v 0 c 0.333,-0.867 0.5,-1.82 0.5,-2.86 v 0 c 0,-1.04 -0.167,-1.994 -0.5,-2.86 v 0 c -0.334,-0.867 -0.8,-1.607 -1.401,-2.22 v 0 c -0.599,-0.614 -1.319,-1.087 -2.16,-1.42 v 0 c -0.839,-0.334 -1.753,-0.5 -2.739,-0.5 v 0 c -2,0 -3.633,0.673 -4.9,2.02 m -123.718,23.66 c -2.068,-0.747 -3.86,-1.774 -5.38,-3.08 v 0 l 1.8,-2.4 c 1.52,1.306 3.099,2.233 4.74,2.78 v 0 c 1.64,0.546 3.459,0.82 5.459,0.82 v 0 c 2.213,0 3.867,-0.507 4.96,-1.52 v 0 c 1.094,-1.014 1.641,-2.373 1.641,-4.08 v 0 c 0,-1.307 -0.381,-2.46 -1.141,-3.46 v 0 c -0.76,-1 -1.646,-1.847 -2.66,-2.54 v 0 l -14.4,-11 v -3.2 h 24.8 v 3 h -16.8 l 10.201,7.8 c 0.799,0.613 1.572,1.24 2.319,1.88 v 0 c 0.747,0.64 1.407,1.346 1.98,2.12 v 0 c 0.573,0.773 1.033,1.633 1.381,2.58 v 0 c 0.345,0.946 0.519,2.02 0.519,3.22 v 0 c 0,1.2 -0.253,2.3 -0.76,3.3 v 0 c -0.506,1 -1.273,1.867 -2.3,2.6 v 0 c -1.026,0.733 -2.313,1.3 -3.859,1.7 v 0 c -1.547,0.4 -3.374,0.6 -5.48,0.6 v 0 c -2.614,0 -4.954,-0.374 -7.02,-1.12 m 102.218,0.32 -18.2,-18.44 v -3.16 h 19.6 v -6.4 h 5.8 v 6.4 h 3.4 v 2.8 h -3.4 v 18.8 z m 1,-5.2 h 0.4 v -13.6 h -13.8 z m -45.599,5.2 v -3 h 18.999 l -13.2,-25 h 6 l 13,24.6 v 3.4 z m -36.2,0 v -3 h 19 l -13.2,-25 h 6 l 13,24.6 v 3.4 z m 28.42,-23.3 c -0.547,-0.6 -0.82,-1.3 -0.82,-2.1 v 0 c 0,-0.8 0.266,-1.5 0.799,-2.1 v 0 c 0.534,-0.6 1.201,-0.9 2.001,-0.9 v 0 c 0.265,0 0.506,0.027 0.72,0.08 v 0 c 0.106,0.027 0.2,0.067 0.28,0.12 v 0 c -0.107,-0.8 -0.46,-1.433 -1.06,-1.9 v 0 c -0.601,-0.466 -1.247,-0.7 -1.941,-0.7 v 0 -1.4 c 0.641,0 1.287,0.114 1.941,0.34 v 0 c 0.653,0.227 1.233,0.587 1.739,1.08 v 0 c 0.507,0.494 0.921,1.12 1.241,1.88 v 0 c 0.32,0.76 0.479,1.66 0.479,2.7 v 0 c 0,1.013 -0.28,1.9 -0.839,2.66 v 0 c -0.56,0.76 -1.347,1.14 -2.36,1.14 v 0 c -0.907,0 -1.634,-0.3 -2.18,-0.9"
               style="fill:url(#linearGradient212);stroke:none"
               id="path214" /></g></g></g></g><text
       transform="matrix(1,0,0,-1,854.3248,191.68)"
       style="font-variant:normal;font-weight:300;font-stretch:normal;font-size:16px;font-family:'Rubik Light';-inkscape-font-specification:Rubik-Light;writing-mode:lr-tb;fill:#000000;fill-opacity:1;fill-rule:nonzero;stroke:none"
       id="text224"><tspan
         x="0 3.5680001 13.008 20.879999 30.176001 38.911999 47.487999 53.231998 56.799999 65.727997 75.167999 83.040001 87.167999 96.463997 105.2 110.768 116.3504 125.2784 130.84641 144.89439 153.6304 162.9104 167.03841 175.6144 183.4864 187.6144 196.1088 201.8528 205.6288 211.3728 220.8288 229.5648 233.69279 242.4288 251.8688 261.1488 265.27679 274.0928 279.4848 283.61279 292.57281 302.4288 311.38879 321.24481"
         y="0"
         id="tspan216">inspections performed as at the end of 2020 </tspan><tspan
         x="0 5.1040001 8.6719999 18.112 26.688 30.288 39.647999 48.928001 52.495998 61.936001 71.232002 75.360001 84.32 93.536003 97.328003 106.288 115.6 124.752 128.88 132.448 141.888 146.01601 154.976 164.832 173.79201 183.1664"
         y="20"
         id="tspan218">(including 23,265 in 2020)</tspan><tspan
         x="661.20001 666.64001 675.216 678.784 682.38397 690.96002 699.53601 705.104 712.97601 717.10242 722.47839 731.21442 734.94238 743.67841 752.25439 757.99841 766.73438 776.0144 779.79041 785.53442 794.99042 800.36639 809.29437 818.65442 827.95038 837.40637"
         y="0.72000003"
         id="tspan220">railcars rejected through </tspan><tspan
         x="661.20001 666.94397 676.40002 685.13599 689.26398 701.74402 710.672 719.95203 723.52002 727.12 735.85602 739.98401 750.1264 758.86243 768.15839 777.08643 782.65442 788.39838 797.1344 802.31842 806.44641 815.0224 824.31842"
         y="20.719999"
         id="tspan222">the Mobile Reporter app</tspan></text><g
       id="g226"><g
         id="g228"><g
           id="g234"><g
             id="g236"><path
               d="m 1411.492,196.776 c -2.24,-2.094 -3.36,-5.047 -3.36,-8.861 v 0 -6.599 c 0,-3.52 1.086,-6.235 3.26,-8.141 v 0 c 2.173,-1.906 5.42,-2.859 9.74,-2.859 v 0 c 2.16,0 4.046,0.239 5.66,0.72 v 0 c 1.613,0.48 2.966,1.146 4.06,2 v 0 c 1.093,0.853 1.913,1.886 2.46,3.099 v 0 c 0.546,1.214 0.82,2.54 0.82,3.98 v 0 c 0,1.44 -0.266,2.767 -0.8,3.981 v 0 c -0.534,1.213 -1.32,2.246 -2.36,3.099 v 0 c -1.04,0.854 -2.32,1.521 -3.84,2 v 0 c -1.52,0.481 -3.254,0.72 -5.2,0.72 v 0 c -1.2,0 -2.274,-0.106 -3.22,-0.319 v 0 c -0.946,-0.214 -1.74,-0.44 -2.38,-0.681 v 0 c -0.773,-0.293 -1.44,-0.626 -2,-1 v 0 c 0,3.094 0.66,5.367 1.98,6.821 v 0 c 1.32,1.452 3.127,2.179 5.42,2.179 v 0 c 0.587,0 1.246,-0.046 1.98,-0.139 v 0 c 0.733,-0.094 1.493,-0.26 2.28,-0.5 v 0 c 0.786,-0.241 1.586,-0.567 2.4,-0.98 v 0 c 0.813,-0.414 1.593,-0.94 2.34,-1.58 v 0 l 1.8,2.399 c -1.52,1.307 -3.267,2.267 -5.24,2.88 v 0 c -1.974,0.613 -3.96,0.92 -5.96,0.92 v 0 c -4.32,0 -7.6,-1.047 -9.84,-3.139 m 4.74,-21.641 c -1.266,1.347 -1.9,3.274 -1.9,5.78 v 0 3.6 c 0.507,0.481 1.106,0.907 1.8,1.281 v 0 c 0.613,0.319 1.366,0.619 2.26,0.9 v 0 c 0.893,0.28 1.94,0.419 3.14,0.419 v 0 c 0.906,0 1.746,-0.166 2.52,-0.499 v 0 c 0.773,-0.334 1.446,-0.807 2.02,-1.42 v 0 c 0.573,-0.614 1.027,-1.354 1.36,-2.221 v 0 c 0.333,-0.866 0.5,-1.819 0.5,-2.86 v 0 c 0,-1.039 -0.167,-1.993 -0.5,-2.859 v 0 c -0.333,-0.868 -0.8,-1.608 -1.4,-2.22 v 0 c -0.6,-0.614 -1.32,-1.088 -2.16,-1.421 v 0 c -0.84,-0.334 -1.754,-0.499 -2.74,-0.499 v 0 c -2,0 -3.634,0.673 -4.9,2.019 m 48.9,23.981 v -3.001 h 18.999 l -13.2,-25 h 6.001 l 12.999,24.601 v 3.4 z m -27,0 v -15.2 h 4.4 c 1.013,0.8 2.152,1.366 3.42,1.7 v 0 c 1.266,0.333 2.459,0.499 3.58,0.499 v 0 c 2.505,0 4.366,-0.567 5.58,-1.7 v 0 c 1.213,-1.133 1.82,-2.7 1.82,-4.699 v 0 c 0,-2 -0.62,-3.567 -1.861,-4.7 v 0 c -1.24,-1.134 -3.22,-1.7 -5.94,-1.7 v 0 c -1.919,0 -3.719,0.313 -5.4,0.939 v 0 c -1.679,0.627 -3.279,1.647 -4.799,3.06 v 0 l -2,-2.399 c 1.52,-1.414 3.373,-2.534 5.56,-3.361 v 0 c 2.186,-0.826 4.532,-1.239 7.04,-1.239 v 0 c 4.692,0 8.133,0.84 10.319,2.52 v 0 c 2.187,1.679 3.281,3.973 3.281,6.88 v 0 c 0,2.906 -1.074,5.2 -3.22,6.879 v 0 c -2.147,1.68 -5.474,2.52 -9.98,2.52 v 0 c -0.908,0 -1.728,-0.066 -2.46,-0.2 v 0 c -0.734,-0.133 -1.367,-0.266 -1.9,-0.399 v 0 c -0.614,-0.187 -1.16,-0.387 -1.641,-0.601 v 0 8.4 h 16.8 v 2.801 z m -50.999,0 -6.8,-4.801 1.8,-2.6 4.799,2.6 h 0.401 v -23.2 h 5.799 v 28.001 z m 11.619,-23.3 c -0.546,-0.6 -0.82,-1.301 -0.82,-2.101 v 0 c 0,-0.8 0.267,-1.499 0.8,-2.099 v 0 c 0.534,-0.601 1.201,-0.9 2,-0.9 v 0 c 0.266,0 0.507,0.027 0.72,0.08 v 0 c 0.106,0.027 0.201,0.066 0.281,0.119 v 0 c -0.107,-0.8 -0.461,-1.432 -1.06,-1.899 v 0 c -0.601,-0.467 -1.248,-0.701 -1.941,-0.701 v 0 -1.399 c 0.64,0 1.286,0.113 1.941,0.34 v 0 c 0.652,0.227 1.233,0.587 1.739,1.08 v 0 c 0.507,0.493 0.92,1.12 1.241,1.879 v 0 c 0.319,0.761 0.479,1.661 0.479,2.7 v 0 c 0,1.014 -0.28,1.901 -0.839,2.661 v 0 c -0.56,0.759 -1.348,1.14 -2.36,1.14 v 0 c -0.907,0 -1.635,-0.301 -2.181,-0.9"
               style="fill:url(#linearGradient244);stroke:none"
               id="path246" /></g></g></g></g><text
       transform="matrix(1,0,0,-1,99,105.328)"
       style="font-variant:normal;font-weight:300;font-stretch:normal;font-size:9.328px;font-family:'Rubik Light';-inkscape-font-specification:Rubik-Light;writing-mode:lr-tb;fill:#000000;fill-opacity:1;fill-rule:nonzero;stroke:none"
       id="text250"><tspan
         x="0 3.712544"
         y="0"
         id="tspan248">1 </tspan></text><text
       transform="matrix(1,0,0,-1,104.8673,100)"
       style="font-variant:normal;font-weight:300;font-stretch:normal;font-size:16px;font-family:'Rubik Light';-inkscape-font-specification:Rubik-Light;writing-mode:lr-tb;fill:#000000;fill-opacity:1;fill-rule:nonzero;stroke:none"
       id="text254"><tspan
         x="0 10.304 18.879999 27.455999 36.383999 41.743999 51.023998 54.591999 64.031998 73.328003 77.103996 82.848 91.776001 95.903999 104.768 110.144 118.88 122.448 131.744 141.0704 146.81441 150.9424 161.53439 170.9744 179.7104 183.83839 193.11839 201.6144 207.3584 215.9344"
         y="0"
         id="tspan252">According to Freight One data.</tspan></text><text
       transform="matrix(1,0,0,-1,37.5801,1023)"
       style="font-variant:normal;font-weight:300;font-stretch:normal;font-size:20px;font-family:'Rubik Light';-inkscape-font-specification:Rubik-Light;writing-mode:lr-tb;fill:#000000;fill-opacity:1;fill-rule:nonzero;stroke:none"
       id="text258"><tspan
         x="0 11.52 61.419998 74.419998 86.019997 97.18 108.88 116.06 120.78 127.96 139.78 150.7 155.86 168.88 180.03999 197.60001 209.22 219.94 231.438"
         y="0"
         id="tspan256">30About the Company</tspan></text></g></svg>
