<?xml version="1.0" encoding="UTF-8" standalone="no"?>
<?xml-stylesheet type="text/css" href="main.css" ?>
<svg
   xmlns:dc="http://purl.org/dc/elements/1.1/"
   xmlns:cc="http://creativecommons.org/ns#"
   xmlns:rdf="http://www.w3.org/1999/02/22-rdf-syntax-ns#"
   xmlns:svg="http://www.w3.org/2000/svg"
   xmlns="http://www.w3.org/2000/svg"
   xmlns:sodipodi="http://sodipodi.sourceforge.net/DTD/sodipodi-0.dtd"
   xmlns:inkscape="http://www.inkscape.org/namespaces/inkscape"
   version="1.1"
   id="svg2"
   xml:space="preserve"
   width="2560"
   height="1440"
   viewBox="0 0 2560 1440"
   sodipodi:docname="34.svg"
   inkscape:version="1.0.2 (e86c8708, 2021-01-15)"><sodipodi:namedview
     pagecolor="#ffffff"
     bordercolor="#666666"
     borderopacity="1"
     objecttolerance="10"
     gridtolerance="10"
     guidetolerance="10"
     inkscape:pageopacity="0"
     inkscape:pageshadow="2"
     inkscape:window-width="2560"
     inkscape:window-height="988"
     id="namedview3690"
     showgrid="false"
     inkscape:zoom="0.57083333"
     inkscape:cx="1280"
     inkscape:cy="720"
     inkscape:window-x="0"
     inkscape:window-y="22"
     inkscape:window-maximized="1"
     inkscape:current-layer="svg2" /><metadata
     id="metadata8"><rdf:RDF><cc:Work
         rdf:about=""><dc:format>image/svg+xml</dc:format><dc:type
           rdf:resource="http://purl.org/dc/dcmitype/StillImage" /></cc:Work></rdf:RDF></metadata><defs
     id="defs6"><clipPath
       clipPathUnits="userSpaceOnUse"
       id="clipPath20"><path
         d="M 0,1080 H 1920 V 0 H 0 Z"
         id="path18" /></clipPath><clipPath
       clipPathUnits="userSpaceOnUse"
       id="clipPath30"><path
         d="M 0,0 H 1373 V 990 H 0 Z"
         id="path28" /></clipPath></defs><text
     style="font-variant:normal;font-weight:300;font-stretch:normal;font-size:26.6667px;font-family:'Rubik Light';-inkscape-font-specification:Rubik-Light;writing-mode:lr-tb;fill:#000000;fill-opacity:1;fill-rule:nonzero;stroke:none;stroke-width:1.33333"
     id="text56"
     x="1833.3333"
     y="273.17322"><tspan
       x="1833.3333 1853.76 1868.3199 1875.2 1890.96 1905.0399 1918.8533 1933.4133 1940.2933 1955.76 1969.8666 1983.6799 1998.24 2004.24 2019.12 2034.6133 2049.1733 2064.6399 2071.52 2085.8132 2092.1572 2101.4639 2116.344 2125.304 2139.864 2154.1572 2168.4507 2181.5706 2191.144 2197.0906 2212.824 2228.3174 2235.1973 2258.6106 2273.4907 2288.9573 2303.5173 2309.5173 2315.8079 2325.3813 2341.1414 2355.3013 2364.8745"
       y="273.17322"
       id="tspan38"
       style="stroke-width:1.33333">We have developed a forecasting model that </tspan><tspan
       x="1833.3333 1848.9333 1862.0533 1876.6133 1889.7333 1896.6133 1920.0266 1934.9066 1950.3733 1964.9333 1974.2133 1989.9467 1996.8267 2020.24 2034.5333 2048.8267 2064.5867 2070.5332 2086.2666 2100.8267 2107.7065 2113.7065 2128.2666 2142.5601 2151.8398 2167.5732 2173.52 2189.2532 2204.7466 2211.0347 2220.6079 2235.168 2249.4612 2265.2212 2280.9546 2295.8347 2301.8347 2316.7146 2332.208 2345.6746"
       y="307.8399"
       id="tspan40"
       style="stroke-width:1.33333">uses modern machine learning technology </tspan><tspan
       x="1833.3333 1842.9066 1857.7866 1864.6666 1880.1333 1894.5867 1904.1599 1918.72 1928 1951.4133 1957.36 1973.0933 1987.6533 1994.5333 2003.5973 2017.8906 2023.8373 2029.8373 2044.1306 2058.4241 2067.064 2073.9438 2088.2373 2097.5173 2106.7974 2112.7439 2126.5281 2140.8213 2146.8213 2153.7012 2169.168 2183.3279 2192.9014 2207.4612 2220.5813 2226.928 2236.2346 2251.1145 2259.7546 2266.6345 2280.928 2286.928 2292.8745 2307.4346 2322.9546 2332.5278 2345.6479 2351.9946"
       y="342.50656"
       id="tspan42"
       style="stroke-width:1.33333">to determine railcar arrival dates for clients. </tspan><tspan
       x="1833.3333 1850.08 1859.0399 1873.1466 1887.4399 1893.3866 1908.2666 1923.8666 1936.9866 1942.9866 1955.5466 1961.8666 1968.7466 1983.0399 1989.0399 1995.0399 2001.9199 2017.4133 2031.7067 2040.9867 2050.5601 2066.2932 2080.8533 2090.1333 2103.2534 2110.1333 2125.8933 2140.1865 2155.6533 2161.9412 2171.5146 2186.3945 2193.2747 2208.7678 2223.6479 2230.5278 2245.408 2261.1414 2267.408 2287.9946 2302.2878 2315.408 2321.7012 2331.2747 2347.0347 2361.5947"
       y="377.17322"
       id="tspan44"
       style="stroke-width:1.33333">Previously, all partners had to go on was the </tspan><tspan
       x="1833.3333 1848.7999 1862.96 1872.5333 1887.0933 1893.9733 1908.6666 1917.6533 1924.5333 1938.8267 1953.7067 1969.4399 1982.5599 1988.5066 2004 2019.7333 2043.1466 2057.7065 2073.2239 2082.7974 2089.1172 2095.9973 2111.4639 2127.064 2136.6372 2143.5173 2159.2507 2173.7839 2194.1306 2200.4238 2209.9973 2225.7573 2239.8372 2253.304 2260.1838 2269.144 2283.7039 2297.9973 2312.5574 2318.5039 2332.3147 2346.8745"
       y="411.8399"
       id="tspan46"
       style="stroke-width:1.33333">date of consignment, but now they receive </tspan><tspan
       x="1833.3333 1848.7999 1862.96 1872.5333 1886.8267 1893.12 1902.6934 1918.4532 1932.6133 1942.1866 1949.0667 1955.0133 1968.1333 1975.0133 1998.4266 2013.3066 2022.2639 2036.824 2043.704 2057.9973 2072.2905 2086.584 2102.1841 2111.2507 2125.4106 2134.9839 2149.5439 2156.4238 2170.7173 2186.4507 2201.9172 2208.7974 2224.3972 2239.8906 2252.3679 2261.9412 2276.8213 2289.8079 2305.2747 2319.4346 2329.0081 2343.5679 2349.9146 2356.1013 2370.3679 2386.1279 2392.0747 2405.1946"
       y="446.50656"
       id="tspan48"
       style="stroke-width:1.33333">data that is more accurate and up-to-date. This </tspan><tspan
       x="1833.3333 1847.8933 1863.6266 1877.9199 1893.3866 1899.3866 1913.9467 1927.0667 1933.9467 1949.4133 1963.864 1973.4373 1983.0106 1997.5707 2006.2107 2013.0906 2028.584 2034.584 2048.8772 2064.6106 2080.344 2086.2905 2102.0239 2117.5173 2124.3972 2139.0906 2148.0747 2154.4214 2164.0212 2172.9812 2187.5413 2193.488 2208.9812 2224.5278 2234.1013 2240.9812 2255.8613 2271.3545 2285.9146 2294.9812 2309.1414 2318.7146 2324.6614 2339.5413 2355.2747 2368.3945 2375.2747 2389.4346 2399.0081"
       y="481.17322"
       id="tspan50"
       style="stroke-width:1.33333">enables better planning of freight operations at </tspan><tspan
       x="1833.3333 1846.4532 1856.0266 1870.1866 1879.76 1885.7067 1900.5867 1916.3199 1929.4399 1935.76 1942.64 1951.5973 1966.1573 1981.624 1997.224 2011.5173 2026.0773 2039.1973 2046.0773 2052.0239 2067.4907 2073.4907 2088.0505 2094.3413 2103.9146 2109.8613 2133.2747 2147.8347 2154.1545 2161.0347 2175.9146 2191.2212 2200.7947 2206.7412 2230.1545 2236.1013 2248.9812 2263.5413 2276.6614 2282.9546 2292.5278 2308.2878 2322.8479 2329.728 2338.792 2353.0852 2359.032 2365.032 2379.3252 2393.6187 2402.2585"
       y="515.8399"
       id="tspan52"
       style="stroke-width:1.33333">stations, reduces idle time, optimizes the railcar </tspan><tspan
       x="1833.3333 1848.8267 1857.7866 1872.6666 1888.1333 1903.7333 1918.0266 1927.6 1933.5466 1948.4266 1964.1599 1971.0399 1984.9573 1998.6907 2012.984 2018.984 2033.5439 2039.864 2046.744 2061.0374 2076.7708 2092.2373 2099.1172 2105.064 2120.7974 2135.0906 2144.0505 2158.6106 2172.9041 2186.0239 2200.584 2213.7039 2220.584 2234.8772 2240.8772 2246.824 2261.384 2276.9014 2286.4746 2293.3545 2299.3545 2313.728 2327.4346 2341.728 2347.728 2357.3013 2369.8613"
       y="550.50653"
       id="tspan54"
       style="stroke-width:1.33333">production cycle, and increases client loyalty.</tspan></text><text
     style="font-variant:normal;font-weight:500;font-stretch:normal;font-size:37.3333px;font-family:'Rubik Medium';-inkscape-font-specification:Rubik-Medium;writing-mode:lr-tb;fill:#000000;fill-opacity:1;fill-rule:nonzero;stroke:none;stroke-width:1.33333"
     id="text62"
     x="1833.3333"
     y="168.2399"><tspan
       x="1833.3333 1855.4347 1877.5732 1892.9546 1914.5333 1935.8879 1957.2427 1977.0667 1993.1573 2003.0507 2026.3839 2049.3813 2057.8933 2073.2336 2094.5881 2104.4817 2114.4124 2135.7668 2157.1216 2171.9802 2180.4922 2201.8469 2217.4895 2233.1323 2243.0256 2263.6709 2285.0256 2294.9563 2303.4683 2326.3909 2347.5552 2363.6458 2385.2244 2405.123"
       y="168.2399"
       id="tspan58"
       style="stroke-width:1.33333">Forecasting railcar arrival dates </tspan><tspan
       x="1833.3333 1843.2267 1866.5599 1874.3253 1890.416 1913.9359 1935.5146 1944.0266 1968.4053 1989.984 2005.6266 2025.5253 2047.6639 2070.9973 2092.3521 2102.2827 2110.7947 2136.3679 2146.2986 2156.1919 2177.7705 2200.8762 2216.9668 2224.5083 2250.4175 2265.7988 2287.3774"
       y="213.56256"
       id="tspan60"
       style="stroke-width:1.33333">in the Personal Client Area</tspan></text><text
     style="font-variant:normal;font-weight:300;font-stretch:normal;font-size:26.6667px;font-family:'Rubik Light';-inkscape-font-specification:Rubik-Light;writing-mode:lr-tb;fill:#000000;fill-opacity:1;fill-rule:nonzero;stroke:none;stroke-width:1.33333"
     id="text68"
     x="1833.3333"
     y="817.17322"><tspan
       x="1833.3333 1851.3866 1865.5466 1875.12 1889.4133 1896.2933 1910.5867 1926.3199 1940.6133 1946.6133 1960.3973 1973.5173 1979.464 1992.584 1999.464 2013.7573 2029.4906 2044.9573 2051.8374 2075.2507 2089.5439 2103.8374 2119.5974 2125.5439 2141.2773 2155.8374 2162.7173 2168.7173 2183.2773 2197.5706 2206.8506 2222.584 2228.5305 2244.2639 2259.7573 2266.0212 2286.6079 2300.9014 2314.0212 2320.9014 2335.1946 2342.0747 2354.3945 2368.4746 2381.9412"
       y="817.17322"
       id="tspan64"
       style="stroke-width:1.33333">Data analysis and machine learning was a key </tspan><tspan
       x="1833.3333 1842.64 1857.52 1871.8134 1887.4133 1900.5333 1906.88 1916.1866 1931.0667 1939.7067 1946.5867 1962.1866 1975.3066 1982.1866 1988.1333 2003.8666 2010.7466 2025.6799 2042.1067 2057.04 2072.9573 2079.304 2085.6506 2106.0774 2120.6372 2127.5173 2133.5173 2147.8105 2163.4106 2179.144 2193.4373 2209.1973 2223.7573 2239.2239 2246.104 2260.3972 2267.2773 2283.0105 2298.6106 2322.0239 2337.4907 2352.0505 2360.688"
       y="851.8399"
       id="tspan66"
       style="stroke-width:1.33333">focus for us in 2020. We launched a number </tspan></text><text
     style="font-variant:normal;font-weight:300;font-stretch:normal;font-size:26.6667px;font-family:'Rubik Light';-inkscape-font-specification:Rubik-Light;writing-mode:lr-tb;fill:#000000;fill-opacity:1;fill-rule:nonzero;stroke:none;stroke-width:1.33333"
     id="text74"
     x="1833.3333"
     y="886.50653"><tspan
       x="1833.3333 1848.0266 1857.6266 1864.5066 1879.9733 1885.9199 1901.4133 1907.36 1916.9333 1931.2267 1937.2267 1943.5707 1952.8773 1967.7573 1976.7173 1991.2773 2005.5707 2019.864 2032.984 2042.5573 2048.5039 2064.2373 2079.7307 2086.0239 2095.5974 2110.4773 2125.3574 2131.3572 2144.4773 2150.7705 2160.344 2176.104 2190.2639 2199.8372 2206.7173 2221.0105 2229.968 2244.5278 2251.408 2265.7012 2271.7012 2284.8213 2299.7012 2306.5813 2322.1812 2335.3013 2349.8613 2365.3279"
       y="886.50653"
       id="tspan70"
       style="stroke-width:1.33333">of digital forecasting tools that are also used </tspan><tspan
       x="1833.3333 1839.2799 1855.0133 1861.8933 1876.7733 1892.3733 1901.0133 1907.8933 1922.6133 1932.1866 1947.9467 1962.5066 1971.1466 1978.0266 1993.52 2002.4773 2017.3573 2032.824 2048.4241 2062.7173 2072.2905 2085.4106"
       y="921.17322"
       id="tspan72"
       style="stroke-width:1.33333">in our other products.</tspan></text><text
     style="font-variant:normal;font-weight:500;font-stretch:normal;font-size:37.3333px;font-family:'Rubik Medium';-inkscape-font-specification:Rubik-Medium;writing-mode:lr-tb;fill:#000000;fill-opacity:1;fill-rule:nonzero;stroke:none;stroke-width:1.33333"
     id="text80"
     x="1833.3333"
     y="712.23987"><tspan
       x="1833.3333 1859.5786 1880.7466 1896.8373 1918.192 1926.704 1946.6027 1967.9573 1977.8506 1999.4293 2022.7627 2044.1173 2065.696 2074.208 2093.2107"
       y="712.23987"
       id="tspan76"
       style="stroke-width:1.33333">Data science / </tspan><tspan
       x="1833.3333 1867.0453 1888.4 1909.7546 1933.2747 1943.168 1966.5013 1988.08 1996.5919 2006.5226 2028.1013 2049.4561 2065.0986 2088.4319 2098.3252 2121.6587"
       y="757.56256"
       id="tspan78"
       style="stroke-width:1.33333">machine learning</tspan></text><text
     style="font-variant:normal;font-weight:300;font-stretch:normal;font-size:26.6667px;font-family:'Rubik Light';-inkscape-font-specification:Rubik-Light;writing-mode:lr-tb;fill:#000000;fill-opacity:1;fill-rule:nonzero;stroke:none;stroke-width:1.33333"
     id="text84"
     x="50.387066"
     y="76.000031"><tspan
       x="50.387066 65.747063 131.98706 149.32039 164.78706 179.66705 195.26706 204.84039 211.13373 220.70706 236.46706 251.02705 257.90707 275.26706 290.14706 313.56039 329.05371 343.34705 358.67773"
       y="76.000031"
       id="tspan82"
       style="stroke-width:1.33333">34About the Company</tspan></text></svg>
