<?xml version="1.0" encoding="UTF-8" standalone="no"?>
<?xml-stylesheet type="text/css" href="main.css" ?>
<svg
   xmlns:dc="http://purl.org/dc/elements/1.1/"
   xmlns:cc="http://creativecommons.org/ns#"
   xmlns:rdf="http://www.w3.org/1999/02/22-rdf-syntax-ns#"
   xmlns:svg="http://www.w3.org/2000/svg"
   xmlns="http://www.w3.org/2000/svg"
   version="1.1"
   id="svg2"
   xml:space="preserve"
   width="2560"
   height="1440"
   viewBox="0 0 2560 1440"><metadata
     id="metadata8"><rdf:RDF><cc:Work
         rdf:about=""><dc:format>image/svg+xml</dc:format><dc:type
           rdf:resource="http://purl.org/dc/dcmitype/StillImage" /></cc:Work></rdf:RDF></metadata><defs
     id="defs6"><clipPath
       clipPathUnits="userSpaceOnUse"
       id="clipPath20"><path
         d="M 0,1080 H 1920 V 0 H 0 Z"
         id="path18" /></clipPath><clipPath
       clipPathUnits="userSpaceOnUse"
       id="clipPath178"><path
         d="M 0,0 H 1920 V 1080 H 0 Z"
         id="path176" /></clipPath><linearGradient
       x1="0"
       y1="0"
       x2="1"
       y2="0"
       gradientUnits="userSpaceOnUse"
       gradientTransform="matrix(297.18008,297.18008,297.18008,-297.18008,875.13059,49.409973)"
       spreadMethod="pad"
       id="linearGradient206"><stop
         style="stop-opacity:1;stop-color:#0c50a8"
         offset="0"
         id="stop200" /><stop
         style="stop-opacity:1;stop-color:#0c50a8"
         offset="0.4854273"
         id="stop202" /><stop
         style="stop-opacity:1;stop-color:#fdb73e"
         offset="1"
         id="stop204" /></linearGradient><linearGradient
       x1="0"
       y1="0"
       x2="1"
       y2="0"
       gradientUnits="userSpaceOnUse"
       gradientTransform="matrix(598.28723,598.28723,598.28723,-598.28723,1029.5101,514.30637)"
       spreadMethod="pad"
       id="linearGradient232"><stop
         style="stop-opacity:1;stop-color:#0c50a8"
         offset="0"
         id="stop226" /><stop
         style="stop-opacity:1;stop-color:#0c50a8"
         offset="0.4854273"
         id="stop228" /><stop
         style="stop-opacity:1;stop-color:#fdb73e"
         offset="1"
         id="stop230" /></linearGradient><clipPath
       clipPathUnits="userSpaceOnUse"
       id="clipPath242"><path
         d="M 0,0 H 1920 V 1080 H 0 Z"
         id="path240" /></clipPath></defs><g
     id="g10"
     transform="matrix(1.3333333,0,0,-1.3333333,0,1440)"><g
       id="g12"><g
         id="g14"><g
           id="g16"
           clip-path="url(#clipPath20)"><path
             d="M 0,0 H 1920 V 1080 H 0 Z"
             style="fill:#ffffff;fill-opacity:1;fill-rule:nonzero;stroke:none"
             id="path22" /></g></g></g><text
       transform="matrix(1,0,0,-1,99,953.8201)"
       style="font-variant:normal;font-weight:500;font-stretch:normal;font-size:28px;font-family:'Rubik Medium';-inkscape-font-specification:Rubik-Medium;writing-mode:lr-tb;fill:#000000;fill-opacity:1;fill-rule:nonzero;stroke:none"
       id="text28"><tspan
         x="0 19.431999 36.931999 52.948002 60.396 76.047997 90.972 98.391998 113.316"
         y="0"
         id="tspan24">Analysis </tspan><tspan
         x="0 16.436001 27.468 33.852001 45.388 61.040001 76.608002 92.792 110.292 127.708"
         y="33.992001"
         id="tspan26">of revenue</tspan></text><text
       transform="matrix(1,0,0,-1,99,867.8201)"
       style="font-variant:normal;font-weight:300;font-stretch:normal;font-size:20px;font-family:'Rubik Light';-inkscape-font-specification:Rubik-Light;writing-mode:lr-tb;fill:#000000;fill-opacity:1;fill-rule:nonzero;stroke:none"
       id="text40"><tspan
         x="0 13.68 18.139999 29.940001 40.779999 47.959999 58.119999 67.400002 74.599998 79.059998 89.419998 100.34 105.5 117.12 128.03999 134.758 145.478 156.39799 168.03799 175.218 180.37801 191.39799 198.138 203.298 214.45799 226.158 232.638 237.798 244.51801 255.09801 265.45801 276.37799 288.17801 299.87799 310.798 315.95801 326.67801 337.83801 355.39801 366.31799 376.15799 380.91599 388.116 394.836 405.996 423.556 428.716 435.51599 446.23599 450.69601 455.19601"
         y="0"
         id="tspan30">Ninety-five percent of our revenue comes from rail </tspan><tspan
         x="0 7.1799998 13.98 24.700001 36.5 46.34 57.959999 69.120003 76.080002 83.260002 93.879997 101.06 105.52 116.68 128.48 133.22 138.38 142.84 154.64 165.36 176.52 194.08 205 209.758 216.95799 223.67799 234.838 252.39799 257.09799 272.81799 284.638 289.09799 299.81799 311.638 316.396 323.37601 334.29599 338.79599 343.29599 348.45599 359.896 374.716 379.87601 384.336 396.13599 400.85599 408.03601 419.85599 430.776"
         y="26"
         id="tspan32">transportation, income from which fell 5% in the </tspan><tspan
         x="0 6.7199998 17.639999 29.26 40.419998 47.380001 54.560001 59.02 70.82 82.440002 87.599998 99.220001 110.14 117.1 121.56 132.72 144.32001 149.08 153.718 164.418 176.23801 180.698 190.53799 195.23801 210.67799 221.39799 231.23801 236.39799 248.01801 254.978 259.43799 276.99799 287.71799 294.67801 299.138 303.638 313.73599 318.896 330.496 342.19601 353.116 357.836 365.01599 376.17599 380.896 388.07599 399.896 410.81601 415.57401 422.55399 433.71399 438.21399 442.71399 453.61401 469.33401 473.79401 485.59399 497.21399"
         y="52"
         id="tspan34">reporting period. This was primarily due to the following </tspan><tspan
         x="0 7.0599999 17.780001 28.5 35.68 46.84 53.799999"
         y="78"
         id="tspan36">factors</tspan><tspan
         x="0 7.5999999 18 30.459999 35.619999 47.419998 58.34 69.959999 80.580002 87.760002 92.220001 102.58 113.5 118.22 125.4 132.12 143.03999 154.84 166.44 171.60001 176.06 187.86 192.578 199.758 211.578 222.498 227.658 239.278 246.23801 250.698 261.418 265.87799 277.67801 289.298 294.45801 305.37799 316.896 327.616 332.07599 338.79599 349.95599 361.75601 379.31601 390.23599 401.87601 409.056"
         y="117"
         id="tspan38">• A negative trend in the pricing environment </tspan></text><text
       transform="matrix(1,0,0,-1,117,724.8201)"
       style="font-variant:normal;font-weight:300;font-stretch:normal;font-size:20px;font-family:'Rubik Light';-inkscape-font-specification:Rubik-Light;writing-mode:lr-tb;fill:#000000;fill-opacity:1;fill-rule:nonzero;stroke:none"
       id="text44"><tspan
         x="0 11.16 22.959999 28.120001 35.299999 47.119999 58.040001 63.200001 74.82 85.980003 97.779999 109.38 120.54 125.04 135.75999 140.92 151.64 163.44 175.03999 180.2 191.8 202.73801 212.858 223.578 234.298 240.778 245.498 252.67799 259.478 270.198 281.99799 291.83801 303.45801 314.61801 321.578 328.758 339.37601 346.556 351.01599 362.17599 373.97601 379.13599 396.69601 407.41599 414.37601 423.616 434.45599 441.63599"
         y="0"
         id="tspan42">on the gondola and boxcar transportation market;</tspan></text><text
       transform="matrix(1,0,0,-1,99,685.8201)"
       style="font-variant:normal;font-weight:300;font-stretch:normal;font-size:20px;font-family:'Rubik Light';-inkscape-font-specification:Rubik-Light;writing-mode:lr-tb;fill:#000000;fill-opacity:1;fill-rule:nonzero;stroke:none"
       id="text68"><tspan
         x="0 7.5999999 18 30.379999 41.099998 48.060001 55.240002 59.740002 69.839996 75 86.019997 93.220001 100.42 110.26 121.098 128.278 133.438 144.658 154.758 159.918 171.53799 182.698 192.53799 196.998 204.17799 208.638 218.998 229.918 235.078 241.798 252.718 262.55801 274.258 278.758 285.93799 295.77802 300.53601 307.51599 318.67599 325.15601 330.31601 341.47601 353.17599 359.65601 364.41599 371.616 378.336 389.25601 393.716 405.336 416.996 424.17599"
         y="0"
         id="tspan46">• Partly offset by positive results for our freight </tspan><tspan
         x="18 25.18 36.880001 43.84 55.639999 66.440002 76.800003 87.720001 94.199997 99.360001 110.08 119.92 125.08 136.7 147.86 159.66 171.25999 182.42 186.92 197.64 202.8 213.52 224.24001 230.718 235.87801 247.498 254.218 265.37799 276.978 288.67801 299.39801 306.578 311.03799 321.758 326.21799 333.39801 343.496 348.65601 353.116 364.91599 375.63599 382.35599 393.276 403.996 413.836 424.75601 436.35599 441.09601 446.25601 456.97601 468.776 480.37601"
         y="26"
         id="tspan48">turnover as gondola car productivity increased, and </tspan><tspan
         x="18 33.459999 44.380001 49.540001 54 71.559998 83.18 87.68 98.599998 116.16 127.08 138.718 145.89799 156.81799 168.418 173.578 191.138 202.058 212.778 222.618 234.31799 241.03799 251.95799 261.798 266.51599 273.69601 284.85599 290.01599 294.47601 312.03601 323.65601 330.37601 341.17599 351.53601 362.45599 367.616 378.776 390.396 401.31601 408.116 418.73599 425.91599 430.37601 441.53601 453.336 464.056 468.556"
         y="52"
         id="tspan50">we implemented measures to improve operational </tspan><tspan
         x="18 28.82 36.02 43.220001 47.68 58.400002 62.860001 73.779999 85.580002 96.017998 105.438"
         y="78"
         id="tspan52">efficiency.</tspan><tspan
         x="0 12.68 23.26 33.619999 44.540001 56.34 68.040001 78.959999 83.720001 90.919998 97.639999 108.8 126.36 131.52 142.67999 154.3 165.22 172.01801 182.638 189.81799 194.278 206.078 217.698 222.858 227.358 238.278 248.998 258.83801 269.758 279.59799 284.758 295.77802 302.51599 307.67599 314.396 325.556 330.056 334.556 339.01599 350.81601 362.436 367.59601 377.436 384.616 395.776 406.496 415.996 420.75601 427.73599 438.65601 443.15601 447.65601 452.81601 464.01599 475.65601 490.47601"
         y="117"
         id="tspan54">Revenue from operating leases of rolling stock fell 26% </tspan><tspan
         x="0 4.46 16.26 21.42 32.619999 44.939999 56.139999 68.080002 72.839996 77.480003 88.18 100 104.46 114.3 119 134.438 145.158 154.998 160.158 171.778 178.73801 183.198 200.758 211.478 218.438 222.89799 227.39799 237.498 242.218 249.39799 261.21799 272.138 277.298 284.01801 294.93799 304.77802 316.478 320.978 328.15799 333.31799 344.336 351.07599 356.23599 366.95599 372.116 383.716 394.63599 405.35599 412.07599 422.996 433.716 443.556 454.47601 459.63599 464.09601 475.896 480.61401 487.79401 499.61401 510.534"
         y="143"
         id="tspan56">in 2020. This was primarily the result of a decrease in the </tspan><tspan
         x="0 11.8 23.5 41.060001 52.66 63.580002 70.059998 75.220001 86.239998 92.980003 98.139999 109.74 120.678 130.8 141.52 152.24001 159.2 169.03999 174.2 184.92 196.72 208.32001 213.078 220.278 224.778 235.39799 242.578 247.73801 258.45801 269.17801 276.138 285.978 291.138 295.638 306.55801 317.27802 327.11801 338.03799 349.638 354.37799 359.53799 370.436 386.15601 390.616 402.41599 414.03601 418.75601 425.936 437.09601"
         y="169"
         id="tspan58">number of boxcars and flat cars leased, owing to:</tspan><tspan
         x="0 7.5999999 18 28.719999 33.880001 45.48 56.400002 67.120003 73.839996 84.760002 95.480003 105.32 116.24 121.4 125.86 137.66 142.37801 149.558 161.37801 172.298 177.45799 189.258 200.95799 218.51801 230.118 241.03799 247.51601 252.67599 263.698 270.436 275.59601 287.19601 298.13599 308.25601 318.97601 329.69601 336.65601 346.496 351.65601 356.15601 367.07599 377.79599 387.63599 398.556 410.15601 414.87399 422.05399 433.21399"
         y="208"
         id="tspan60">• a decrease in the number of boxcars leased to </tspan><tspan
         x="18 29.16 40.779999 51.700001 58.5 69.120003 76.300003 87.459999 94.419998 104.26 109.42 115.338 122.518 134.338 145.258 150.418 162.218 173.918 191.478 203.078 213.998 220.478 225.638 236.658 243.39799 248.558 259.27802 270.43799 282.078 289.258 296.05801 306.77802 317.49799 324.67801 334.51801 339.216 354.936 359.396 366.57599 378.396 383.556 394.276 405.436 417.23599 427.07599 431.53601 443.15601 454.95599 466.116 473.07599 482.91599"
         y="234"
         id="tspan62">operators (the number of contracts with consignors </tspan><tspan
         x="18 24.719999 35.639999 53.200001 63.919998 68.379997 80.18 91.099998 102.7 107.86 119.56 131.36 142.08 153.89999 164.62 176.42 188.03999 198.96001 210.56 216.94"
         y="260"
         id="tspan64">remained unchanged);</tspan><tspan
         x="0 7.5999999 18 25.6 36 47.599998 58.52 69.239998 80.400002 97.959999 115.52 119.98 129.82001 139.66 144.12 155.28 167.08 171.53999 183.34 194.96001 200.12 211.138 217.87801 222.638 229.838 234.338 244.95799 252.138 257.298 268.01801 278.73801 285.698 295.53799 300.698 311.31601 318.496 323.216 330.396 342.216 353.13599 358.29599 369.216 381.01599 392.616"
         y="299"
         id="tspan66">• • decommissioning of flat cars at the end </tspan></text><text
       transform="matrix(1,0,0,-1,117,360.8201)"
       style="font-variant:normal;font-weight:300;font-stretch:normal;font-size:20px;font-family:'Rubik Light';-inkscape-font-specification:Rubik-Light;writing-mode:lr-tb;fill:#000000;fill-opacity:1;fill-rule:nonzero;stroke:none"
       id="text72"><tspan
         x="0 11.02 18.219999 23.379999 30.559999 42.380001 53.299999 57.759998 64.720001 69.879997 79.720001 90.639999 97.599998 108.32 112.78 123.5 134.42 139.58 144.08 148.53999 155.51801 166.438"
         y="0"
         id="tspan70">of their service life.</tspan></text><g
       id="g74"
       transform="translate(99,102)"><path
         d="M 0,0 H 534"
         style="fill:none;stroke:#f0f0f5;stroke-width:4;stroke-linecap:butt;stroke-linejoin:miter;stroke-miterlimit:4;stroke-dasharray:none;stroke-opacity:1"
         id="path76" /></g><g
       id="g78"
       transform="translate(831,564.725)"><path
         d="M 0,0 H 502"
         style="fill:none;stroke:#e6e7e8;stroke-width:1;stroke-linecap:butt;stroke-linejoin:miter;stroke-miterlimit:10;stroke-dasharray:none;stroke-opacity:1"
         id="path80" /></g><g
       id="g82"
       transform="translate(1333,564.725)"><path
         d="M 0,0 H 151"
         style="fill:none;stroke:#e6e7e8;stroke-width:1;stroke-linecap:butt;stroke-linejoin:miter;stroke-miterlimit:10;stroke-dasharray:none;stroke-opacity:1"
         id="path84" /></g><g
       id="g86"
       transform="translate(1484,564.725)"><path
         d="M 0,0 H 168"
         style="fill:none;stroke:#e6e7e8;stroke-width:1;stroke-linecap:butt;stroke-linejoin:miter;stroke-miterlimit:10;stroke-dasharray:none;stroke-opacity:1"
         id="path88" /></g><g
       id="g90"
       transform="translate(1652,564.725)"><path
         d="M 0,0 H 168"
         style="fill:none;stroke:#e6e7e8;stroke-width:1;stroke-linecap:butt;stroke-linejoin:miter;stroke-miterlimit:10;stroke-dasharray:none;stroke-opacity:1"
         id="path92" /></g><g
       id="g94"
       transform="translate(831,520.1249)"><path
         d="M 0,0 H 502"
         style="fill:none;stroke:#e6e7e8;stroke-width:1;stroke-linecap:butt;stroke-linejoin:miter;stroke-miterlimit:10;stroke-dasharray:none;stroke-opacity:1"
         id="path96" /></g><g
       id="g98"
       transform="translate(1333,520.1249)"><path
         d="M 0,0 H 151"
         style="fill:none;stroke:#e6e7e8;stroke-width:1;stroke-linecap:butt;stroke-linejoin:miter;stroke-miterlimit:10;stroke-dasharray:none;stroke-opacity:1"
         id="path100" /></g><g
       id="g102"
       transform="translate(1484,520.1249)"><path
         d="M 0,0 H 168"
         style="fill:none;stroke:#e6e7e8;stroke-width:1;stroke-linecap:butt;stroke-linejoin:miter;stroke-miterlimit:10;stroke-dasharray:none;stroke-opacity:1"
         id="path104" /></g><g
       id="g106"
       transform="translate(1652,520.1249)"><path
         d="M 0,0 H 168"
         style="fill:none;stroke:#e6e7e8;stroke-width:1;stroke-linecap:butt;stroke-linejoin:miter;stroke-miterlimit:10;stroke-dasharray:none;stroke-opacity:1"
         id="path108" /></g><g
       id="g110"
       transform="translate(831,477.4249)"><path
         d="M 0,0 H 502"
         style="fill:none;stroke:#e6e7e8;stroke-width:1;stroke-linecap:butt;stroke-linejoin:miter;stroke-miterlimit:10;stroke-dasharray:none;stroke-opacity:1"
         id="path112" /></g><g
       id="g114"
       transform="translate(1333,477.4249)"><path
         d="M 0,0 H 151"
         style="fill:none;stroke:#e6e7e8;stroke-width:1;stroke-linecap:butt;stroke-linejoin:miter;stroke-miterlimit:10;stroke-dasharray:none;stroke-opacity:1"
         id="path116" /></g><g
       id="g118"
       transform="translate(1484,477.4249)"><path
         d="M 0,0 H 168"
         style="fill:none;stroke:#e6e7e8;stroke-width:1;stroke-linecap:butt;stroke-linejoin:miter;stroke-miterlimit:10;stroke-dasharray:none;stroke-opacity:1"
         id="path120" /></g><g
       id="g122"
       transform="translate(1652,477.4249)"><path
         d="M 0,0 H 168"
         style="fill:none;stroke:#e6e7e8;stroke-width:1;stroke-linecap:butt;stroke-linejoin:miter;stroke-miterlimit:10;stroke-dasharray:none;stroke-opacity:1"
         id="path124" /></g><g
       id="g126"
       transform="translate(831,434.725)"><path
         d="M 0,0 H 502"
         style="fill:none;stroke:#e6e7e8;stroke-width:1;stroke-linecap:butt;stroke-linejoin:miter;stroke-miterlimit:10;stroke-dasharray:none;stroke-opacity:1"
         id="path128" /></g><g
       id="g130"
       transform="translate(1333,434.725)"><path
         d="M 0,0 H 151"
         style="fill:none;stroke:#e6e7e8;stroke-width:1;stroke-linecap:butt;stroke-linejoin:miter;stroke-miterlimit:10;stroke-dasharray:none;stroke-opacity:1"
         id="path132" /></g><g
       id="g134"
       transform="translate(1484,434.725)"><path
         d="M 0,0 H 168"
         style="fill:none;stroke:#e6e7e8;stroke-width:1;stroke-linecap:butt;stroke-linejoin:miter;stroke-miterlimit:10;stroke-dasharray:none;stroke-opacity:1"
         id="path136" /></g><g
       id="g138"
       transform="translate(1652,434.725)"><path
         d="M 0,0 H 168"
         style="fill:none;stroke:#e6e7e8;stroke-width:1;stroke-linecap:butt;stroke-linejoin:miter;stroke-miterlimit:10;stroke-dasharray:none;stroke-opacity:1"
         id="path140" /></g><text
       transform="matrix(1,0,0,-1,831,576.725)"
       style="font-variant:normal;font-weight:500;font-stretch:normal;font-size:20px;font-family:'Rubik Medium';-inkscape-font-specification:Rubik-Medium;writing-mode:lr-tb;fill:#000000;fill-opacity:1;fill-rule:nonzero;stroke:none"
       id="text144"><tspan
         x="0 13.36 24.540001 35.66 47.220001 59.720001 72.160004 597.84003 610.23999 623.41998 635.82001 769.78003 782.17999 795.35999 804.64001 817 905.5 919.20001 931.79999 943.23999 955.73999 968.06 979.62"
         y="0"
         id="tspan142">Revenue20202019 Change.</tspan></text><text
       transform="matrix(1,0,0,-1,831,534.025)"
       style="font-variant:normal;font-weight:300;font-stretch:normal;font-size:20px;font-family:'Rubik Light';-inkscape-font-specification:Rubik-Light;writing-mode:lr-tb;fill:#000000;fill-opacity:1;fill-rule:nonzero;stroke:none"
       id="text152"><tspan
         x="0 12.8 23.52 27.98 32.48 37.200001 44.380001 51.18 61.900002 73.699997 83.540001 95.160004 106.32 113.28 120.46 131.078 138.258 142.718 153.87801 591.78003 601.52002 609.88 614.62 625.58002 637.47998 649 760.84003 773.20001 781.15997 785.52002 797.84003 809.03998 817 949.21997 958.73999 970.17999"
         y="0"
         id="tspan146">Rail transportation77,243 81,021 -5%</tspan><tspan
         x="0 13.24 24.860001 35.779999 42.580002 53.200001 60.380001 64.839996 76.639999 88.260002 93.419998 97.919998 108.84 119.56 129.39999 140.32001 150.16 155.32001 166.338 173.078 178.23801 184.95799 196.118 200.618 205.118 209.578 221.37801 232.998 238.158 247.998 255.17799 266.33801 277.05801 597.79999 602.96002 610.91998 614.71997 625.91998 637.56 649 766.82001 778.02002 782.47998 794.12 805.56 817 938.5 947.34003 958.53998 970.17999"
         y="44.599998"
         id="tspan148">Operating leases of rolling stock 1,969 2,655 -26%</tspan><tspan
         x="0 13.24 20.42 32.240002 43.16 49.639999 603.73999 611.70001 615.5 626.94 636.67999 649 770.5 781.70001 786.06 797.59998 805.56 817 940.94 949.85999 957.82001 970.17999"
         y="87.300003"
         id="tspan150">Other 1,970 2,415 -18%</tspan></text><text
       transform="matrix(1,0,0,-1,831,404.025)"
       style="font-variant:normal;font-weight:500;font-stretch:normal;font-size:20px;font-family:'Rubik Medium';-inkscape-font-specification:Rubik-Medium;writing-mode:lr-tb;fill:#000000;fill-opacity:1;fill-rule:nonzero;stroke:none"
       id="text156"><tspan
         x="0 10.28 22.059999 30.68 42.119999"
         y="0"
         id="tspan154">Total</tspan></text><text
       transform="matrix(1,0,0,-1,1418.78,404.025)"
       style="font-variant:normal;font-weight:500;font-stretch:normal;font-size:20px;font-family:'Rubik Medium';-inkscape-font-specification:Rubik-Medium;writing-mode:lr-tb;fill:#000000;fill-opacity:1;fill-rule:nonzero;stroke:none"
       id="text160"><tspan
         x="0 13.14 22.42 26.4 35.68 48.82 159.06 163.62 176.75999 189.32001 194.39999 207.58 219.94"
         y="0"
         id="tspan158">81,182 86,091</tspan></text><text
       transform="matrix(1,0,0,-1,1778.14,404.025)"
       style="font-variant:normal;font-weight:500;font-stretch:normal;font-size:20px;font-family:'Rubik Medium';-inkscape-font-specification:Rubik-Medium;writing-mode:lr-tb;fill:#000000;fill-opacity:1;fill-rule:nonzero;stroke:none"
       id="text170"><tspan
         x="0 9.6000004 22.16"
         y="0"
         id="tspan162">-6%</tspan><tspan
         x="-503.14001 -491.39999 -483.51999 -478.95999 -467.10001 -454.66 -446.70001 -442.14001 -433.89999 -422.72198 -411.60199 -400.04199 -387.54199 -375.10199 -363.54199"
         y="252.02"
         id="tspan164">of our revenue </tspan><tspan
         x="-503.14001 -491.70001 -479.84 -461.78 -450.22 -439.56 -435.35999 -427.06 -418.82001 -406.95999 -388.89999 -384.34201 -376.12201 -364.68201 -359.38199 -354.06201"
         y="278.01999"
         id="tspan166">comes from rail </tspan><tspan
         x="-503.14001 -494.51999 -486.29999 -474.85999 -462.35999 -451.70001 -439.42001 -427.56 -419.17999 -410.56 -399.22 -390.60001 -385.29999 -373.44"
         y="304.01999"
         id="tspan168">transportation</tspan></text><g
       id="g172"><g
         id="g174"
         clip-path="url(#clipPath178)"><g
           id="g180"
           transform="translate(1418,295.6667)"><path
             d="m 0,0 h -128 c -11.046,0 -20,-8.954 -20,-20 0,-11.046 8.954,-20 20,-20 H 0 c 11.046,0 20,8.954 20,20 C 20,-8.954 11.046,0 0,0"
             style="fill:#f0f0f5;fill-opacity:1;fill-rule:nonzero;stroke:none"
             id="path182" /></g></g></g><text
       transform="matrix(1,0,0,-1,1302.7444,268.288)"
       style="font-variant:normal;font-weight:500;font-stretch:normal;font-size:28px;font-family:'Rubik Medium';-inkscape-font-specification:Rubik-Medium;writing-mode:lr-tb;fill:#000000;fill-opacity:1;fill-rule:nonzero;stroke:none"
       id="text186"><tspan
         x="0 17.191999 33.375999 44.911999 60.928001 77.112 94.444"
         y="0"
         id="tspan184">percent</tspan></text><g
       id="g188"><g
         id="g190"><g
           id="g196"><g
             id="g198"><path
               d="m 881.58,296.56 c -11.296,-3.36 -20.768,-8.028 -28.42,-14 v 0 c -7.656,-5.977 -13.396,-13.208 -17.22,-21.7 v 0 C 832.112,252.364 830.2,243.08 830.2,233 v 0 c 0,-10.08 1.863,-19.368 5.6,-27.86 v 0 c 3.732,-8.496 9.24,-15.728 16.52,-21.7 v 0 c 7.28,-5.976 16.24,-10.64 26.88,-14 v 0 c 10.64,-3.36 22.772,-5.04 36.4,-5.04 v 0 c 8.4,0 15.864,0.7 22.4,2.1 v 0 c 6.532,1.4 12.132,3.032 16.8,4.9 v 0 c 5.224,2.052 9.892,4.383 14,7 v 0 c 0,-21.656 -4.62,-37.568 -13.86,-47.74 v 0 C 945.7,120.484 933.052,115.4 917,115.4 v 0 c -4.297,0 -8.96,0.324 -14,0.98 v 0 c -5.04,0.652 -10.316,1.82 -15.82,3.5 v 0 c -5.508,1.68 -11.108,3.964 -16.8,6.86 v 0 c -5.696,2.892 -11.156,6.58 -16.38,11.06 v 0 L 841.4,121 c 10.64,-9.148 22.864,-15.868 36.68,-20.16 v 0 C 891.892,96.548 905.8,94.4 919.8,94.4 v 0 c 30.24,0 53.2,7.323 68.88,21.98 v 0 c 15.68,14.652 23.52,35.324 23.52,62.02 v 0 46.2 c 0,24.64 -7.608,43.632 -22.82,56.98 v 0 c -15.216,13.344 -37.94,20.02 -68.18,20.02 v 0 c -15.12,0 -28.328,-1.68 -39.62,-5.04 M 900.76,187.5 c -5.417,2.332 -10.128,5.644 -14.14,9.94 v 0 c -4.016,4.292 -7.188,9.472 -9.52,15.54 v 0 c -2.336,6.064 -3.5,12.74 -3.5,20.02 v 0 c 0,7.28 1.164,13.952 3.5,20.02 v 0 c 2.332,6.064 5.6,11.243 9.8,15.54 v 0 c 4.2,4.292 9.192,7.604 14.98,9.94 v 0 c 5.784,2.331 12.224,3.5 19.32,3.5 v 0 c 14,0 25.432,-4.716 34.3,-14.14 v 0 c 8.863,-9.428 13.3,-22.916 13.3,-40.46 v 0 -25.2 c -3.548,-3.548 -7.748,-6.628 -12.6,-9.24 v 0 c -4.296,-2.24 -9.568,-4.297 -15.82,-6.16 v 0 C 934.123,184.932 926.8,184 918.4,184 v 0 c -6.348,0 -12.228,1.164 -17.64,3.5 M 1042.241,296 V 189.6 h 30.8 c 7.092,5.6 15.073,9.564 23.94,11.9 v 0 c 8.864,2.332 17.22,3.5 25.06,3.5 v 0 c 17.543,0 30.564,-3.968 39.061,-11.9 v 0 c 8.491,-7.936 12.739,-18.9 12.739,-32.9 v 0 c 0,-14 -4.34,-24.968 -13.02,-32.9 v 0 c -8.68,-7.937 -22.54,-11.9 -41.58,-11.9 v 0 c -13.44,0 -26.04,2.192 -37.8,6.58 v 0 c -11.759,4.384 -22.96,11.524 -33.6,21.42 v 0 l -13.999,-16.8 c 10.639,-9.896 23.611,-17.736 38.919,-23.52 v 0 c 15.304,-5.784 31.732,-8.68 49.28,-8.68 v 0 c 32.852,0 56.932,5.88 72.24,17.64 v 0 c 15.304,11.76 22.96,27.812 22.96,48.16 v 0 c 0,20.344 -7.516,36.4 -22.54,48.16 v 0 c -15.028,11.76 -38.316,17.64 -69.859,17.64 v 0 c -6.349,0 -12.089,-0.468 -17.221,-1.4 v 0 c -5.136,-0.937 -9.568,-1.868 -13.299,-2.8 v 0 c -4.297,-1.308 -8.121,-2.709 -11.481,-4.2 v 0 58.8 h 117.601 V 296 Z"
               style="fill:url(#linearGradient206);stroke:none"
               id="path208" /></g></g></g></g><text
       transform="matrix(1,0,0,-1,831,961.3)"
       style="font-variant:normal;font-weight:500;font-stretch:normal;font-size:20px;font-family:'Rubik Medium';-inkscape-font-specification:Rubik-Medium;writing-mode:lr-tb;fill:#000000;fill-opacity:1;fill-rule:nonzero;stroke:none"
       id="text212"><tspan
         x="0 13.36 24.540001 35.66 47.220001 59.720001 72.160004 83.720001 87.919998 96.220001 104.46 116.32 134.38 138.94 147.158 158.59801 163.89799 169.218 173.37801 181.998 190.218 201.658 214.158 224.81799 237.09801 248.95799 257.33801 265.95801 277.298 285.918 291.21799 303.078 315.578 320.138 325.43799 337.93799 342.49799 354.89801 368.078 380.478"
         y="0"
         id="tspan210">Revenue from rail transportation in 2020</tspan></text><g
       id="g214"><g
         id="g216"><g
           id="g222"><g
             id="g224"><path
               d="m 1679.168,909.21 c -14.469,-5.228 -27.021,-12.417 -37.661,-21.56 v 0 l 12.6,-16.8 c 10.64,9.144 21.7,15.632 33.181,19.46 v 0 c 11.479,3.824 24.219,5.74 38.219,5.74 v 0 c 14.744,0 26.132,-3.128 34.16,-9.38 v 0 c 8.024,-6.257 12.041,-14.328 12.041,-24.22 v 0 c 0,-24.268 -13.537,-36.4 -40.6,-36.4 v 0 h -51.801 v -21 h 57.401 c 14.743,0 25.663,-3.037 32.76,-9.1 v 0 c 7.091,-6.068 10.639,-14.7 10.639,-25.9 v 0 c 0,-11.2 -4.436,-20.536 -13.3,-28 v 0 c -8.868,-7.468 -23.099,-11.2 -42.7,-11.2 v 0 c -14,0 -26.976,2.192 -38.919,6.58 v 0 c -11.948,4.383 -23.241,11.524 -33.881,21.42 v 0 l -14,-16.8 c 10.641,-9.896 23.66,-17.736 39.06,-23.52 v 0 c 15.401,-5.784 32.244,-8.68 50.54,-8.68 v 0 c 16.801,0 31.264,1.496 43.4,4.48 v 0 c 12.132,2.983 22.164,7.043 30.101,12.18 v 0 c 7.931,5.131 13.763,11.2 17.499,18.199 v 0 c 3.733,7.001 5.6,14.513 5.6,22.541 v 0 c 0,13.44 -3.968,24.312 -11.9,32.62 v 0 c -7.936,8.304 -18.9,14.232 -32.899,17.78 v 0 c 12.692,4.292 21.931,10.312 27.72,18.06 v 0 c 5.783,7.744 8.679,17.592 8.679,29.54 v 0 c 0,7.28 -1.819,14.091 -5.46,20.44 v 0 c -3.64,6.344 -9.1,11.852 -16.38,16.52 v 0 c -7.28,4.664 -16.336,8.304 -27.159,10.92 v 0 c -10.829,2.612 -23.429,3.92 -37.801,3.92 v 0 c -18.296,0 -34.676,-2.616 -49.139,-7.84 m -397.763,0 c -14.469,-5.228 -27.02,-12.417 -37.661,-21.56 v 0 l 12.6,-16.8 c 10.641,9.144 21.7,15.632 33.18,19.46 v 0 c 11.481,3.824 24.22,5.74 38.221,5.74 v 0 c 15.491,0 27.064,-3.548 34.72,-10.64 v 0 c 7.652,-7.096 11.479,-16.617 11.479,-28.56 v 0 c 0,-9.148 -2.66,-17.22 -7.98,-24.22 v 0 c -5.32,-7 -11.528,-12.928 -18.619,-17.78 v 0 l -100.801,-77 v -22.4 h 173.6 v 21 h -117.599 l 71.399,54.6 c 5.6,4.292 11.012,8.68 16.24,13.16 v 0 c 5.225,4.48 9.844,9.423 13.86,14.84 v 0 c 4.012,5.412 7.232,11.432 9.661,18.06 v 0 c 2.423,6.624 3.639,14.14 3.639,22.54 v 0 c 0,8.4 -1.775,16.1 -5.32,23.1 v 0 c -3.547,7 -8.916,13.064 -16.1,18.2 v 0 c -7.188,5.132 -16.196,9.1 -27.02,11.9 v 0 c -10.827,2.8 -23.616,4.2 -38.359,4.2 v 0 c -18.296,0 -34.676,-2.616 -49.14,-7.84 m 272.548,2.24 -127.4,-129.08 v -22.12 h 137.2 v -44.8 h 40.6 v 44.8 h 23.8 v 19.6 h -23.8 v 131.6 z m 7,-36.4 h 2.8 v -95.2 h -96.6 z m -539.807,36.4 v -21 h 133 l -92.4,-175 h 42 l 91,172.2 v 23.8 z m -187.346,0 v -21 h 133 l -92.4,-175 h 42 l 91,172.2 v 23.8 z"
               style="fill:url(#linearGradient232);stroke:none"
               id="path234" /></g></g></g></g><g
       id="g236"><g
         id="g238"
         clip-path="url(#clipPath242)"><g
           id="g244"
           transform="translate(1807.6666,917.05)"><path
             d="m 0,0 h -156.75 c -11.046,0 -20,-8.954 -20,-20 0,-11.046 8.954,-20 20,-20 H 0 c 11.046,0 20,8.954 20,20 C 20,-8.954 11.046,0 0,0"
             style="fill:#f0f0f5;fill-opacity:1;fill-rule:nonzero;stroke:none"
             id="path246" /></g></g></g><text
       transform="matrix(1,0,0,-1,1651.6134,887.77)"
       style="font-variant:normal;font-weight:500;font-stretch:normal;font-size:28px;font-family:'Rubik Medium';-inkscape-font-specification:Rubik-Medium;writing-mode:lr-tb;fill:#000000;fill-opacity:1;fill-rule:nonzero;stroke:none"
       id="text250"><tspan
         x="0 25.284 32.703999 40.152 47.599998 55.02 71.624001 89.124001 95.508003 114.38 134.37199"
         y="0"
         id="tspan248">million RUB</tspan></text><text
       transform="matrix(1,0,0,-1,37.5602,1023)"
       style="font-variant:normal;font-weight:300;font-stretch:normal;font-size:20px;font-family:'Rubik Light';-inkscape-font-specification:Rubik-Light;writing-mode:lr-tb;fill:#000000;fill-opacity:1;fill-rule:nonzero;stroke:none"
       id="text254"><tspan
         x="0 11.52 61.439999 74.440002 86.040001 97.199997 108.9 116.08 120.8 127.98 139.8 150.72 155.88 168.89999 180.06 197.62 209.24001 219.96001 231.45799"
         y="0"
         id="tspan252">38About the Company</tspan></text></g></svg>
