<?xml version="1.0" encoding="UTF-8" standalone="no"?>
<?xml-stylesheet type="text/css" href="main.css" ?>
<svg
   xmlns:dc="http://purl.org/dc/elements/1.1/"
   xmlns:cc="http://creativecommons.org/ns#"
   xmlns:rdf="http://www.w3.org/1999/02/22-rdf-syntax-ns#"
   xmlns:svg="http://www.w3.org/2000/svg"
   xmlns="http://www.w3.org/2000/svg"
   version="1.1"
   id="svg2"
   xml:space="preserve"
   width="2560"
   height="1440"
   viewBox="0 0 2560 1440"><metadata
     id="metadata8"><rdf:RDF><cc:Work
         rdf:about=""><dc:format>image/svg+xml</dc:format><dc:type
           rdf:resource="http://purl.org/dc/dcmitype/StillImage" /></cc:Work></rdf:RDF></metadata><defs
     id="defs6"><clipPath
       clipPathUnits="userSpaceOnUse"
       id="clipPath20"><path
         d="M 0,1080 H 1920 V 0 H 0 Z"
         id="path18" /></clipPath></defs><g
     id="g10"
     transform="matrix(1.3333333,0,0,-1.3333333,0,1440)"><g
       id="g12"><g
         id="g14"><g
           id="g16"
           clip-path="url(#clipPath20)"><path
             d="M 0,0 H 1920 V 1080 H 0 Z"
             style="fill:#ffffff;fill-opacity:1;fill-rule:nonzero;stroke:none"
             id="path22" /></g></g></g><g
       id="g24"
       transform="translate(495,867.1201)"><path
         d="M 0,0 H 921"
         style="fill:none;stroke:#e9e9e9;stroke-width:1;stroke-linecap:butt;stroke-linejoin:miter;stroke-miterlimit:10;stroke-dasharray:none;stroke-opacity:1"
         id="path26" /></g><g
       id="g28"
       transform="translate(1416,867.1201)"><path
         d="M 0,0 H 200"
         style="fill:none;stroke:#e9e9e9;stroke-width:1;stroke-linecap:butt;stroke-linejoin:miter;stroke-miterlimit:10;stroke-dasharray:none;stroke-opacity:1"
         id="path30" /></g><g
       id="g32"
       transform="translate(1616,867.1201)"><path
         d="M 0,0 H 200"
         style="fill:none;stroke:#e9e9e9;stroke-width:1;stroke-linecap:butt;stroke-linejoin:miter;stroke-miterlimit:10;stroke-dasharray:none;stroke-opacity:1"
         id="path34" /></g><g
       id="g36"
       transform="translate(495,834.4202)"><path
         d="M 0,0 H 921"
         style="fill:none;stroke:#e9e9e9;stroke-width:1;stroke-linecap:butt;stroke-linejoin:miter;stroke-miterlimit:10;stroke-dasharray:none;stroke-opacity:1"
         id="path38" /></g><g
       id="g40"
       transform="translate(1416,834.4202)"><path
         d="M 0,0 H 200"
         style="fill:none;stroke:#e9e9e9;stroke-width:1;stroke-linecap:butt;stroke-linejoin:miter;stroke-miterlimit:10;stroke-dasharray:none;stroke-opacity:1"
         id="path42" /></g><g
       id="g44"
       transform="translate(1616,834.4202)"><path
         d="M 0,0 H 200"
         style="fill:none;stroke:#e9e9e9;stroke-width:1;stroke-linecap:butt;stroke-linejoin:miter;stroke-miterlimit:10;stroke-dasharray:none;stroke-opacity:1"
         id="path46" /></g><g
       id="g48"
       transform="translate(495,801.7202)"><path
         d="M 0,0 H 921"
         style="fill:none;stroke:#e9e9e9;stroke-width:1;stroke-linecap:butt;stroke-linejoin:miter;stroke-miterlimit:10;stroke-dasharray:none;stroke-opacity:1"
         id="path50" /></g><g
       id="g52"
       transform="translate(1416,801.7202)"><path
         d="M 0,0 H 200"
         style="fill:none;stroke:#e9e9e9;stroke-width:1;stroke-linecap:butt;stroke-linejoin:miter;stroke-miterlimit:10;stroke-dasharray:none;stroke-opacity:1"
         id="path54" /></g><g
       id="g56"
       transform="translate(1616,801.7202)"><path
         d="M 0,0 H 200"
         style="fill:none;stroke:#e9e9e9;stroke-width:1;stroke-linecap:butt;stroke-linejoin:miter;stroke-miterlimit:10;stroke-dasharray:none;stroke-opacity:1"
         id="path58" /></g><g
       id="g60"
       transform="translate(495,769.0203)"><path
         d="M 0,0 H 921"
         style="fill:none;stroke:#e9e9e9;stroke-width:1;stroke-linecap:butt;stroke-linejoin:miter;stroke-miterlimit:10;stroke-dasharray:none;stroke-opacity:1"
         id="path62" /></g><g
       id="g64"
       transform="translate(1416,769.0203)"><path
         d="M 0,0 H 200"
         style="fill:none;stroke:#e9e9e9;stroke-width:1;stroke-linecap:butt;stroke-linejoin:miter;stroke-miterlimit:10;stroke-dasharray:none;stroke-opacity:1"
         id="path66" /></g><g
       id="g68"
       transform="translate(1616,769.0203)"><path
         d="M 0,0 H 200"
         style="fill:none;stroke:#e9e9e9;stroke-width:1;stroke-linecap:butt;stroke-linejoin:miter;stroke-miterlimit:10;stroke-dasharray:none;stroke-opacity:1"
         id="path70" /></g><g
       id="g72"
       transform="translate(495,736.3203)"><path
         d="M 0,0 H 921"
         style="fill:none;stroke:#e9e9e9;stroke-width:1;stroke-linecap:butt;stroke-linejoin:miter;stroke-miterlimit:10;stroke-dasharray:none;stroke-opacity:1"
         id="path74" /></g><g
       id="g76"
       transform="translate(1416,736.3203)"><path
         d="M 0,0 H 200"
         style="fill:none;stroke:#e9e9e9;stroke-width:1;stroke-linecap:butt;stroke-linejoin:miter;stroke-miterlimit:10;stroke-dasharray:none;stroke-opacity:1"
         id="path78" /></g><g
       id="g80"
       transform="translate(1616,736.3203)"><path
         d="M 0,0 H 200"
         style="fill:none;stroke:#e9e9e9;stroke-width:1;stroke-linecap:butt;stroke-linejoin:miter;stroke-miterlimit:10;stroke-dasharray:none;stroke-opacity:1"
         id="path82" /></g><g
       id="g84"
       transform="translate(495,703.6204)"><path
         d="M 0,0 H 921"
         style="fill:none;stroke:#e9e9e9;stroke-width:1;stroke-linecap:butt;stroke-linejoin:miter;stroke-miterlimit:10;stroke-dasharray:none;stroke-opacity:1"
         id="path86" /></g><g
       id="g88"
       transform="translate(1416,703.6204)"><path
         d="M 0,0 H 200"
         style="fill:none;stroke:#e9e9e9;stroke-width:1;stroke-linecap:butt;stroke-linejoin:miter;stroke-miterlimit:10;stroke-dasharray:none;stroke-opacity:1"
         id="path90" /></g><g
       id="g92"
       transform="translate(1616,703.6204)"><path
         d="M 0,0 H 200"
         style="fill:none;stroke:#e9e9e9;stroke-width:1;stroke-linecap:butt;stroke-linejoin:miter;stroke-miterlimit:10;stroke-dasharray:none;stroke-opacity:1"
         id="path94" /></g><g
       id="g96"
       transform="translate(495,670.9204)"><path
         d="M 0,0 H 921"
         style="fill:none;stroke:#e9e9e9;stroke-width:1;stroke-linecap:butt;stroke-linejoin:miter;stroke-miterlimit:10;stroke-dasharray:none;stroke-opacity:1"
         id="path98" /></g><g
       id="g100"
       transform="translate(1416,670.9204)"><path
         d="M 0,0 H 200"
         style="fill:none;stroke:#e9e9e9;stroke-width:1;stroke-linecap:butt;stroke-linejoin:miter;stroke-miterlimit:10;stroke-dasharray:none;stroke-opacity:1"
         id="path102" /></g><g
       id="g104"
       transform="translate(1616,670.9204)"><path
         d="M 0,0 H 200"
         style="fill:none;stroke:#e9e9e9;stroke-width:1;stroke-linecap:butt;stroke-linejoin:miter;stroke-miterlimit:10;stroke-dasharray:none;stroke-opacity:1"
         id="path106" /></g><g
       id="g108"
       transform="translate(495,638.2205)"><path
         d="M 0,0 H 921"
         style="fill:none;stroke:#e9e9e9;stroke-width:1;stroke-linecap:butt;stroke-linejoin:miter;stroke-miterlimit:10;stroke-dasharray:none;stroke-opacity:1"
         id="path110" /></g><g
       id="g112"
       transform="translate(1416,638.2205)"><path
         d="M 0,0 H 200"
         style="fill:none;stroke:#e9e9e9;stroke-width:1;stroke-linecap:butt;stroke-linejoin:miter;stroke-miterlimit:10;stroke-dasharray:none;stroke-opacity:1"
         id="path114" /></g><g
       id="g116"
       transform="translate(1616,638.2205)"><path
         d="M 0,0 H 200"
         style="fill:none;stroke:#e9e9e9;stroke-width:1;stroke-linecap:butt;stroke-linejoin:miter;stroke-miterlimit:10;stroke-dasharray:none;stroke-opacity:1"
         id="path118" /></g><g
       id="g120"
       transform="translate(495,605.5205)"><path
         d="M 0,0 H 921"
         style="fill:none;stroke:#e9e9e9;stroke-width:1;stroke-linecap:butt;stroke-linejoin:miter;stroke-miterlimit:10;stroke-dasharray:none;stroke-opacity:1"
         id="path122" /></g><g
       id="g124"
       transform="translate(1416,605.5205)"><path
         d="M 0,0 H 200"
         style="fill:none;stroke:#e9e9e9;stroke-width:1;stroke-linecap:butt;stroke-linejoin:miter;stroke-miterlimit:10;stroke-dasharray:none;stroke-opacity:1"
         id="path126" /></g><g
       id="g128"
       transform="translate(1616,605.5205)"><path
         d="M 0,0 H 200"
         style="fill:none;stroke:#e9e9e9;stroke-width:1;stroke-linecap:butt;stroke-linejoin:miter;stroke-miterlimit:10;stroke-dasharray:none;stroke-opacity:1"
         id="path130" /></g><g
       id="g132"
       transform="translate(495,572.8206)"><path
         d="M 0,0 H 921"
         style="fill:none;stroke:#e9e9e9;stroke-width:1;stroke-linecap:butt;stroke-linejoin:miter;stroke-miterlimit:10;stroke-dasharray:none;stroke-opacity:1"
         id="path134" /></g><g
       id="g136"
       transform="translate(1416,572.8206)"><path
         d="M 0,0 H 200"
         style="fill:none;stroke:#e9e9e9;stroke-width:1;stroke-linecap:butt;stroke-linejoin:miter;stroke-miterlimit:10;stroke-dasharray:none;stroke-opacity:1"
         id="path138" /></g><g
       id="g140"
       transform="translate(1616,572.8206)"><path
         d="M 0,0 H 200"
         style="fill:none;stroke:#e9e9e9;stroke-width:1;stroke-linecap:butt;stroke-linejoin:miter;stroke-miterlimit:10;stroke-dasharray:none;stroke-opacity:1"
         id="path142" /></g><g
       id="g144"
       transform="translate(495,540.1206)"><path
         d="M 0,0 H 921"
         style="fill:none;stroke:#e9e9e9;stroke-width:1;stroke-linecap:butt;stroke-linejoin:miter;stroke-miterlimit:10;stroke-dasharray:none;stroke-opacity:1"
         id="path146" /></g><g
       id="g148"
       transform="translate(1416,540.1206)"><path
         d="M 0,0 H 200"
         style="fill:none;stroke:#e9e9e9;stroke-width:1;stroke-linecap:butt;stroke-linejoin:miter;stroke-miterlimit:10;stroke-dasharray:none;stroke-opacity:1"
         id="path150" /></g><g
       id="g152"
       transform="translate(1616,540.1206)"><path
         d="M 0,0 H 200"
         style="fill:none;stroke:#e9e9e9;stroke-width:1;stroke-linecap:butt;stroke-linejoin:miter;stroke-miterlimit:10;stroke-dasharray:none;stroke-opacity:1"
         id="path154" /></g><g
       id="g156"
       transform="translate(495,507.4207)"><path
         d="M 0,0 H 921"
         style="fill:none;stroke:#e9e9e9;stroke-width:1;stroke-linecap:butt;stroke-linejoin:miter;stroke-miterlimit:10;stroke-dasharray:none;stroke-opacity:1"
         id="path158" /></g><g
       id="g160"
       transform="translate(1416,507.4207)"><path
         d="M 0,0 H 200"
         style="fill:none;stroke:#e9e9e9;stroke-width:1;stroke-linecap:butt;stroke-linejoin:miter;stroke-miterlimit:10;stroke-dasharray:none;stroke-opacity:1"
         id="path162" /></g><g
       id="g164"
       transform="translate(1616,507.4207)"><path
         d="M 0,0 H 200"
         style="fill:none;stroke:#e9e9e9;stroke-width:1;stroke-linecap:butt;stroke-linejoin:miter;stroke-miterlimit:10;stroke-dasharray:none;stroke-opacity:1"
         id="path166" /></g><g
       id="g168"
       transform="translate(495,474.7207)"><path
         d="M 0,0 H 921"
         style="fill:none;stroke:#e9e9e9;stroke-width:1;stroke-linecap:butt;stroke-linejoin:miter;stroke-miterlimit:10;stroke-dasharray:none;stroke-opacity:1"
         id="path170" /></g><g
       id="g172"
       transform="translate(1416,474.7207)"><path
         d="M 0,0 H 200"
         style="fill:none;stroke:#e9e9e9;stroke-width:1;stroke-linecap:butt;stroke-linejoin:miter;stroke-miterlimit:10;stroke-dasharray:none;stroke-opacity:1"
         id="path174" /></g><g
       id="g176"
       transform="translate(1616,474.7207)"><path
         d="M 0,0 H 200"
         style="fill:none;stroke:#e9e9e9;stroke-width:1;stroke-linecap:butt;stroke-linejoin:miter;stroke-miterlimit:10;stroke-dasharray:none;stroke-opacity:1"
         id="path178" /></g><g
       id="g180"
       transform="translate(495,442.0208)"><path
         d="M 0,0 H 921"
         style="fill:none;stroke:#e9e9e9;stroke-width:1;stroke-linecap:butt;stroke-linejoin:miter;stroke-miterlimit:10;stroke-dasharray:none;stroke-opacity:1"
         id="path182" /></g><g
       id="g184"
       transform="translate(1416,442.0208)"><path
         d="M 0,0 H 200"
         style="fill:none;stroke:#e9e9e9;stroke-width:1;stroke-linecap:butt;stroke-linejoin:miter;stroke-miterlimit:10;stroke-dasharray:none;stroke-opacity:1"
         id="path186" /></g><g
       id="g188"
       transform="translate(1616,442.0208)"><path
         d="M 0,0 H 200"
         style="fill:none;stroke:#e9e9e9;stroke-width:1;stroke-linecap:butt;stroke-linejoin:miter;stroke-miterlimit:10;stroke-dasharray:none;stroke-opacity:1"
         id="path190" /></g><g
       id="g192"
       transform="translate(495,409.3208)"><path
         d="M 0,0 H 921"
         style="fill:none;stroke:#e9e9e9;stroke-width:1;stroke-linecap:butt;stroke-linejoin:miter;stroke-miterlimit:10;stroke-dasharray:none;stroke-opacity:1"
         id="path194" /></g><g
       id="g196"
       transform="translate(1416,409.3208)"><path
         d="M 0,0 H 200"
         style="fill:none;stroke:#e9e9e9;stroke-width:1;stroke-linecap:butt;stroke-linejoin:miter;stroke-miterlimit:10;stroke-dasharray:none;stroke-opacity:1"
         id="path198" /></g><g
       id="g200"
       transform="translate(1616,409.3208)"><path
         d="M 0,0 H 200"
         style="fill:none;stroke:#e9e9e9;stroke-width:1;stroke-linecap:butt;stroke-linejoin:miter;stroke-miterlimit:10;stroke-dasharray:none;stroke-opacity:1"
         id="path202" /></g><g
       id="g204"
       transform="translate(495,376.6208)"><path
         d="M 0,0 H 921"
         style="fill:none;stroke:#e9e9e9;stroke-width:1;stroke-linecap:butt;stroke-linejoin:miter;stroke-miterlimit:10;stroke-dasharray:none;stroke-opacity:1"
         id="path206" /></g><g
       id="g208"
       transform="translate(1416,376.6208)"><path
         d="M 0,0 H 200"
         style="fill:none;stroke:#e9e9e9;stroke-width:1;stroke-linecap:butt;stroke-linejoin:miter;stroke-miterlimit:10;stroke-dasharray:none;stroke-opacity:1"
         id="path210" /></g><g
       id="g212"
       transform="translate(1616,376.6208)"><path
         d="M 0,0 H 200"
         style="fill:none;stroke:#e9e9e9;stroke-width:1;stroke-linecap:butt;stroke-linejoin:miter;stroke-miterlimit:10;stroke-dasharray:none;stroke-opacity:1"
         id="path214" /></g><g
       id="g216"
       transform="translate(495,343.9209)"><path
         d="M 0,0 H 921"
         style="fill:none;stroke:#e9e9e9;stroke-width:1;stroke-linecap:butt;stroke-linejoin:miter;stroke-miterlimit:10;stroke-dasharray:none;stroke-opacity:1"
         id="path218" /></g><g
       id="g220"
       transform="translate(1416,343.9209)"><path
         d="M 0,0 H 200"
         style="fill:none;stroke:#e9e9e9;stroke-width:1;stroke-linecap:butt;stroke-linejoin:miter;stroke-miterlimit:10;stroke-dasharray:none;stroke-opacity:1"
         id="path222" /></g><g
       id="g224"
       transform="translate(1616,343.9209)"><path
         d="M 0,0 H 200"
         style="fill:none;stroke:#e9e9e9;stroke-width:1;stroke-linecap:butt;stroke-linejoin:miter;stroke-miterlimit:10;stroke-dasharray:none;stroke-opacity:1"
         id="path226" /></g><g
       id="g228"
       transform="translate(495,311.2209)"><path
         d="M 0,0 H 921"
         style="fill:none;stroke:#e9e9e9;stroke-width:1;stroke-linecap:butt;stroke-linejoin:miter;stroke-miterlimit:10;stroke-dasharray:none;stroke-opacity:1"
         id="path230" /></g><g
       id="g232"
       transform="translate(1416,311.2209)"><path
         d="M 0,0 H 200"
         style="fill:none;stroke:#e9e9e9;stroke-width:1;stroke-linecap:butt;stroke-linejoin:miter;stroke-miterlimit:10;stroke-dasharray:none;stroke-opacity:1"
         id="path234" /></g><g
       id="g236"
       transform="translate(1616,311.2209)"><path
         d="M 0,0 H 200"
         style="fill:none;stroke:#e9e9e9;stroke-width:1;stroke-linecap:butt;stroke-linejoin:miter;stroke-miterlimit:10;stroke-dasharray:none;stroke-opacity:1"
         id="path238" /></g><g
       id="g240"
       transform="translate(495,278.521)"><path
         d="M 0,0 H 921"
         style="fill:none;stroke:#e9e9e9;stroke-width:1;stroke-linecap:butt;stroke-linejoin:miter;stroke-miterlimit:10;stroke-dasharray:none;stroke-opacity:1"
         id="path242" /></g><g
       id="g244"
       transform="translate(1416,278.521)"><path
         d="M 0,0 H 200"
         style="fill:none;stroke:#e9e9e9;stroke-width:1;stroke-linecap:butt;stroke-linejoin:miter;stroke-miterlimit:10;stroke-dasharray:none;stroke-opacity:1"
         id="path246" /></g><g
       id="g248"
       transform="translate(1616,278.521)"><path
         d="M 0,0 H 200"
         style="fill:none;stroke:#e9e9e9;stroke-width:1;stroke-linecap:butt;stroke-linejoin:miter;stroke-miterlimit:10;stroke-dasharray:none;stroke-opacity:1"
         id="path250" /></g><text
       transform="matrix(1,0,0,-1,495,953.8201)"
       style="font-variant:normal;font-weight:500;font-stretch:normal;font-size:28px;font-family:'Rubik Medium';-inkscape-font-specification:Rubik-Medium;writing-mode:lr-tb;fill:#000000;fill-opacity:1;fill-rule:nonzero;stroke:none"
       id="text254"><tspan
         x="0 19.18 35.784 53.284 68.208 84.811996 92.260002 99.68 116.872 132.74519 144.8132 160.99719 178.18919 184.5732 199.44119 211.5092 227.38519 239.4532 255.63721 280.9212 297.10519 314.43719 326.50519 332.88919 349.3252 360.35721 366.23721 377.85721 385.27719 402.77719 418.79321 436.29321 452.3092 459.72919 475.74521 483.19321 489.57721 506.7692 523.37323 538.29718 545.71722 557.78522 565.2052 581.8092 599.3092"
         y="0"
         id="tspan252">Consolidated statement of financial position </tspan></text><text
       transform="matrix(1,0,0,-1,495,919.8281)"
       style="font-variant:normal;font-weight:500;font-stretch:normal;font-size:28px;font-family:'Rubik Medium';-inkscape-font-specification:Rubik-Medium;writing-mode:lr-tb;fill:#000000;fill-opacity:1;fill-rule:nonzero;stroke:none"
       id="text258"><tspan
         x="0 11.396 28 39.144001 44.967999 57.035999 74.676003 90.860001 96.515999 112.084 128.26801 144.284 155.42799 161.812 177.996 195.496 212.688 220.108 237.608 254.856 261.23999 278.45721 291.44919 297.83319 317.51721 333.7012 349.71719 365.90121 391.18521 408.3772 424.56119 435.7052 442.0892 452.05719 470.9292 490.9212 510.1572 516.5412 541.8252 549.24518 556.69318 564.14117 571.56122 588.16522 604.8504"
         y="0"
         id="tspan256">for the year ending 31 December (RUB million)</tspan></text><text
       transform="matrix(1,0,0,-1,1564.8403,874.1201)"
       style="font-variant:normal;font-weight:500;font-stretch:normal;font-size:20px;font-family:'Rubik Medium';-inkscape-font-specification:Rubik-Medium;writing-mode:lr-tb;fill:#000000;fill-opacity:1;fill-rule:nonzero;stroke:none"
       id="text262"><tspan
         x="0 12.4 25.58 37.98 203.94 216.34 229.52 238.8"
         y="0"
         id="tspan260">20202019</tspan></text><text
       transform="matrix(1,0,0,-1,495.0003,841.4201)"
       style="font-variant:normal;font-weight:300;font-stretch:normal;font-size:20px;font-family:'Rubik Light';-inkscape-font-specification:Rubik-Light;writing-mode:lr-tb;fill:#000000;fill-opacity:1;fill-rule:nonzero;stroke:none"
       id="text270"><tspan
         x="0 12.1 23.92 34.639999 41.360001 52.279999 57.439999 68.160004 78.879997 90.5 94.959999 102.14 112.86 1062.12 1073.24 1081.2 1085.9399 1097.46 1109.36 1262.12 1273.24 1281.2 1285.9399 1297.46 1309.36"
         y="0"
         id="tspan264">Share capital31,34631,346</tspan><tspan
         x="0 12.88 24.48 36.080002 40.540001 47.720001 52.18 63.34 75.139999 85.860001 90.360001 95.519997 107.14 117.86 122.32 133.92 143.66 148.12 159.92 165.08 175.8 186.52 198.14 202.60001 209.78 220.5 1065.36 1076.88 1088.4 1091.78 1099.74 1111.26 1265.36 1276.88 1288.4 1291.78 1299.74 1311.26"
         y="32.700001"
         id="tspan266">Additional paid-in capital33,13733,137</tspan><tspan
         x="0 12.68 23.52 30.700001 41.419998 45.880001 57.68 68.599998 80.199997 85.360001 96.980003 103.698 114.72 121.92 126.38 1063.6 1075.5 1087.02 1090.4 1098.36 1109.5601 1260.98 1272.02 1280.38 1284.88 1297.24 1308.6801"
         y="65.400002"
         id="tspan268">Retained profit44,12567,890</tspan></text><text
       transform="matrix(1,0,0,-1,495.0003,743.3201)"
       style="font-variant:normal;font-weight:500;font-stretch:normal;font-size:20px;font-family:'Rubik Medium';-inkscape-font-specification:Rubik-Medium;writing-mode:lr-tb;fill:#000000;fill-opacity:1;fill-rule:nonzero;stroke:none"
       id="text274"><tspan
         x="0 10.28 22.059999 30.68 42.119999 47.439999 52 63.560001 75.839996 88.279999 93.580002 102.2"
         y="0"
         id="tspan272">Total equity</tspan></text><text
       transform="matrix(1,0,0,-1,1536.5203,743.3201)"
       style="font-variant:normal;font-weight:500;font-stretch:normal;font-size:20px;font-family:'Rubik Medium';-inkscape-font-specification:Rubik-Medium;writing-mode:lr-tb;fill:#000000;fill-opacity:1;fill-rule:nonzero;stroke:none"
       id="text278"><tspan
         x="0 9.2799997 22.459999 35.459999 40.599998 53.16 66.339996"
         y="0"
         id="tspan276">108,608</tspan></text><text
       transform="matrix(1,0,0,-1,1740.2603,743.3201)"
       style="font-variant:normal;font-weight:500;font-stretch:normal;font-size:20px;font-family:'Rubik Medium';-inkscape-font-specification:Rubik-Medium;writing-mode:lr-tb;fill:#000000;fill-opacity:1;fill-rule:nonzero;stroke:none"
       id="text282"><tspan
         x="0 9.2799997 21.9 34.299999 39.599998 52.220001 63.119999"
         y="0"
         id="tspan280">132,373</tspan></text><text
       transform="matrix(1,0,0,-1,495.0003,677.9201)"
       style="font-variant:normal;font-weight:300;font-stretch:normal;font-size:20px;font-family:'Rubik Light';-inkscape-font-specification:Rubik-Light;writing-mode:lr-tb;fill:#000000;fill-opacity:1;fill-rule:nonzero;stroke:none"
       id="text292"><tspan
         x="0 10.7 21.860001 32.580002 44.380001 54.220001 59.380001 70.099998 81.900002 93.5 98.660004 110.26 121.42 128.38 135.09801 145.998 161.718 166.17799 177.978 1073.7 1085.22 1089.58 1101.9 1113.04 1274.08 1285.3 1289.66 1301.98 1313.04"
         y="0"
         id="tspan284">Loans and borrowing3,0615,051</tspan><tspan
         x="0 12.42 23.34 35.139999 44.98 49.439999 60.599998 72.400002 77.559998 89.18 93.68 104.4 116.2 121.36 125.86 130.32001 141.03999 152.64 157.10001 161.60001 166.06 173.24001 177.7 188.62 1087.04 1098.9399 1111.26 1286.26 1298.16 1309.36"
         y="32.700001"
         id="tspan286">Pension plan liabilities407426</tspan><tspan
         x="0 13.68 24.84 36.639999 46.380001 57.099998 68.800003 75.760002 82.480003 93.400002 105.04 112.22 117.38 121.88 132.8 143.52 153.36 164.28 169.44 173.94 178.39999 189.12 200.72 205.17999 209.67999 214.14 221.32001 225.78 236.7 1064.16 1072.12 1080.48 1084.84 1097.16 1109.48 1261.78 1269.74 1281.6801 1286.04 1298.36 1309.8"
         y="65.400002"
         id="tspan288">Non-current lease liabilities17,00310,052</tspan><tspan
         x="0 13.54 24.360001 31.34 42.259998 49.220001 55.939999 66.860001 78.459999 83.18 90.360001 101.08 111.44 116.598 121.098 125.558 136.278 147.87801 152.338 156.838 161.298 168.478 172.938 183.858 1071.24 1081.28 1086.02 1097.46 1109.1 1272.0601 1282.1 1286.84 1298.04 1309.5601"
         y="98.099998"
         id="tspan290">Deferred tax liabilities9,5649,235</tspan></text><text
       transform="matrix(1,0,0,-1,495.0003,547.1201)"
       style="font-variant:normal;font-weight:500;font-stretch:normal;font-size:20px;font-family:'Rubik Medium';-inkscape-font-specification:Rubik-Medium;writing-mode:lr-tb;fill:#000000;fill-opacity:1;fill-rule:nonzero;stroke:none"
       id="text296"><tspan
         x="0 10.28 22.059999 30.68 42.119999 47.439999 52 64.5 76.360001 88.860001 98.459999 109.9 122.34 130.72 138.95799 150.51801 162.89799 171.51801 176.078 181.39799 186.698 198.138 210.418 215.718 221.03799 226.338 234.95799 240.258 251.81799"
         y="0"
         id="tspan294">Total non-current liabilities</tspan></text><text
       transform="matrix(1,0,0,-1,1547.1203,547.1201)"
       style="font-variant:normal;font-weight:500;font-stretch:normal;font-size:20px;font-family:'Rubik Medium';-inkscape-font-specification:Rubik-Medium;writing-mode:lr-tb;fill:#000000;fill-opacity:1;fill-rule:nonzero;stroke:none"
       id="text300"><tspan
         x="0 12.62 25.58 30.66 43.84 56.459999 203.12 215.38 228.22 232.92 243.25999 255.82001"
         y="0"
         id="tspan298">30,03524,764</tspan></text><text
       transform="matrix(1,0,0,-1,495.0003,481.7201)"
       style="font-variant:normal;font-weight:300;font-stretch:normal;font-size:20px;font-family:'Rubik Light';-inkscape-font-specification:Rubik-Light;writing-mode:lr-tb;fill:#000000;fill-opacity:1;fill-rule:nonzero;stroke:none"
       id="text312"><tspan
         x="0 10.7 21.860001 32.580002 44.380001 54.220001 59.380001 70.099998 81.900002 93.5 98.660004 110.26 121.42 128.38 135.09801 145.998 161.718 166.17799 177.978 1078.4 1086.36 1090.16 1101.6 1113.04 1275.1 1286.62 1290.98 1303.3 1313.04"
         y="0"
         id="tspan302">Loans and borrowing1,9913,071</tspan><tspan
         x="0 13.02 24.719999 31.68 38.400002 49.32 60.959999 68.139999 73.300003 77.800003 88.720001 99.440002 109.28 120.2 125.36 129.86 134.32001 145.03999 156.64 161.10001 165.60001 170.06 177.24001 181.7 192.62 1068.92 1080.5601 1084.92 1097.24 1108.6801 1270.66 1282.1801 1286.92 1298.36 1309.8"
         y="32.700001"
         id="tspan304">Current lease liabilities6,0504,592</tspan><tspan
         x="0 9.2600002 16.059999 26.780001 38.380001 49.299999 54.459999 65.18 76.980003 88.580002 93.739998 104.778 111.958 123.778 134.698 141.17799 146.338 157.058 167.778 178.498 189.658 201.358 212.998 220.17799 230.01801 235.17799 246.798 257.33801 267.61801 278.33801 289.93799 294.43799 1069.26 1080.78 1085.14 1097.04 1108.6801 1271.88 1283.4 1287.86 1298.9 1308.64"
         y="65.400002"
         id="tspan306">Trade and other accounts payable3,4603,678</tspan><tspan
         x="0 12.88 24.48 34.82 45.540001 57.34 68.059998 78.980003 88.82 93.980003 100.7 111.62 122.34 133.25999 137.72 148.078 158.998 1072.08 1083.6 1087.74 1097.48 1109.8 1268.28 1279.5 1284 1296.36 1308.6801"
         y="98.099998"
         id="tspan308">Advances received4,7025,800</tspan><tspan
         x="0 9.2600002 19.98 30.34 35.5 40 44.459999 55.18 66.779999 71.239998 75.739998 80.199997 87.379997 91.839996 102.76 1097.84 1109.48 1287.74 1298.9399 1308.6801"
         y="130.8"
         id="tspan310">Tax liabilities63270</tspan></text><text
       transform="matrix(1,0,0,-1,495.0003,318.2201)"
       style="font-variant:normal;font-weight:500;font-stretch:normal;font-size:20px;font-family:'Rubik Medium';-inkscape-font-specification:Rubik-Medium;writing-mode:lr-tb;fill:#000000;fill-opacity:1;fill-rule:nonzero;stroke:none"
       id="text316"><tspan
         x="0 10.28 22.059999 30.68 42.119999 47.439999 52 63.439999 75.879997 84.260002 92.498001 104.058 116.438 125.058 129.618 134.938 140.23801 151.67799 163.95799 169.258 174.578 179.87801 188.498 193.798 205.358"
         y="0"
         id="tspan314">Total current liabilities</tspan></text><text
       transform="matrix(1,0,0,-1,1551.3403,318.2201)"
       style="font-variant:normal;font-weight:500;font-stretch:normal;font-size:20px;font-family:'Rubik Medium';-inkscape-font-specification:Rubik-Medium;writing-mode:lr-tb;fill:#000000;fill-opacity:1;fill-rule:nonzero;stroke:none"
       id="text320"><tspan
         x="0 9.2799997 21.84 27.139999 39.540001 52.099998 209.46001 218.74001 228.42 233.5 246.10001 255.38"
         y="0"
         id="tspan318">16,26617,411</tspan></text><text
       transform="matrix(1,0,0,-1,495.0003,285.5201)"
       style="font-variant:normal;font-weight:500;font-stretch:normal;font-size:20px;font-family:'Rubik Medium';-inkscape-font-specification:Rubik-Medium;writing-mode:lr-tb;fill:#000000;fill-opacity:1;fill-rule:nonzero;stroke:none"
       id="text324"><tspan
         x="0 10.28 22.059999 30.68 42.119999 47.439999 52 57.32 62.619999 74.059998 86.339996 91.639999 96.959999 102.26 110.88 116.18 127.74"
         y="0"
         id="tspan322">Total liabilities</tspan></text><text
       transform="matrix(1,0,0,-1,1550.0003,285.5201)"
       style="font-variant:normal;font-weight:500;font-stretch:normal;font-size:20px;font-family:'Rubik Medium';-inkscape-font-specification:Rubik-Medium;writing-mode:lr-tb;fill:#000000;fill-opacity:1;fill-rule:nonzero;stroke:none"
       id="text328"><tspan
         x="0 13.06 25.620001 30.92 43.540001 56.720001 203.96001 217.02 229.42 233.39999 242.67999 253.58"
         y="0"
         id="tspan326">46,30142,175</tspan></text><text
       transform="matrix(1,0,0,-1,495.0003,252.8201)"
       style="font-variant:normal;font-weight:500;font-stretch:normal;font-size:20px;font-family:'Rubik Medium';-inkscape-font-specification:Rubik-Medium;writing-mode:lr-tb;fill:#000000;fill-opacity:1;fill-rule:nonzero;stroke:none"
       id="text332"><tspan
         x="0 10.28 22.059999 30.68 42.119999 47.439999 52 63.560001 75.839996 88.279999 93.580002 102.2 113.18 117.74 129.17999 141.67999 153.96001 158.52 163.84 169.14 180.58 192.86 198.16 203.48 208.78 217.39999 222.7 234.25999"
         y="0"
         id="tspan330">Total equity and liabilities</tspan></text><text
       transform="matrix(1,0,0,-1,1539.1003,252.8201)"
       style="font-variant:normal;font-weight:500;font-stretch:normal;font-size:20px;font-family:'Rubik Medium';-inkscape-font-specification:Rubik-Medium;writing-mode:lr-tb;fill:#000000;fill-opacity:1;fill-rule:nonzero;stroke:none"
       id="text336"><tspan
         x="0 9.2799997 21.700001 34.540001 39 51.360001 64.540001"
         y="0"
         id="tspan334">154,909</tspan></text><text
       transform="matrix(1,0,0,-1,1739.7203,252.8201)"
       style="font-variant:normal;font-weight:500;font-stretch:normal;font-size:20px;font-family:'Rubik Medium';-inkscape-font-specification:Rubik-Medium;writing-mode:lr-tb;fill:#000000;fill-opacity:1;fill-rule:nonzero;stroke:none"
       id="text340"><tspan
         x="0 9.2799997 19.52 32.360001 37.66 50.080002 63.139999"
         y="0"
         id="tspan338">174,548</tspan></text><g
       id="g342"
       transform="translate(267.1209,984)"><path
         d="M 0,0 -9.121,-10.047 0,-20.094 H 27.879 V -10.047 0 Z"
         style="fill:#f0f0f5;fill-opacity:1;fill-rule:nonzero;stroke:none"
         id="path344" /></g><text
       transform="matrix(1,0,0,-1,99,968.3599)"
       style="font-variant:normal;font-weight:300;font-stretch:normal;font-size:16px;font-family:'Rubik Light';-inkscape-font-specification:Rubik-Light;writing-mode:lr-tb;fill:#000000;fill-opacity:1;fill-rule:nonzero;stroke:none"
       id="text348"><tspan
         x="0 10.416 19.344 28.656 34.400002 37.967999 47.408001 56.768002 65.503998 74.783997 78.590401 84.350403 89.726402 98.654404 112.7024 116.8304 126.1264 134.70239 143.9984 152.73441"
         y="0"
         id="tspan346">Continued from page </tspan></text><text
       transform="matrix(1,0,0,-1,269.9264,968.3599)"
       style="font-variant:normal;font-weight:500;font-stretch:normal;font-size:16px;font-family:'Rubik Medium';-inkscape-font-specification:Rubik-Medium;writing-mode:lr-tb;fill:#000000;fill-opacity:1;fill-rule:nonzero;stroke:none"
       id="text352"><tspan
         x="0 10.448"
         y="0"
         id="tspan350">46</tspan></text><text
       transform="matrix(1,0,0,-1,38.8301,1023)"
       style="font-variant:normal;font-weight:300;font-stretch:normal;font-size:20px;font-family:'Rubik Light';-inkscape-font-specification:Rubik-Light;writing-mode:lr-tb;fill:#000000;fill-opacity:1;fill-rule:nonzero;stroke:none"
       id="text356"><tspan
         x="0 11.6 60.16 73.160004 84.760002 95.919998 107.62 114.8 119.52 126.7 138.52 149.44 154.60001 167.62 178.78 196.34 207.96001 218.67999 230.17799"
         y="0"
         id="tspan354">47About the Company</tspan></text></g></svg>
