<?xml version="1.0" encoding="UTF-8" standalone="no"?>
<?xml-stylesheet type="text/css" href="main.css" ?>
<svg
   xmlns:dc="http://purl.org/dc/elements/1.1/"
   xmlns:cc="http://creativecommons.org/ns#"
   xmlns:rdf="http://www.w3.org/1999/02/22-rdf-syntax-ns#"
   xmlns:svg="http://www.w3.org/2000/svg"
   xmlns="http://www.w3.org/2000/svg"
   version="1.1"
   id="svg2"
   xml:space="preserve"
   width="2560"
   height="1440"
   viewBox="0 0 2560 1440"><metadata
     id="metadata8"><rdf:RDF><cc:Work
         rdf:about=""><dc:format>image/svg+xml</dc:format><dc:type
           rdf:resource="http://purl.org/dc/dcmitype/StillImage" /></cc:Work></rdf:RDF></metadata><defs
     id="defs6"><clipPath
       clipPathUnits="userSpaceOnUse"
       id="clipPath20"><path
         d="M 0,1080 H 1920 V 0 H 0 Z"
         id="path18" /></clipPath><clipPath
       clipPathUnits="userSpaceOnUse"
       id="clipPath146"><path
         d="M 0,0 H 1920 V 1080 H 0 Z"
         id="path144" /></clipPath></defs><g
     id="g10"
     transform="matrix(1.3333333,0,0,-1.3333333,0,1440)"><g
       id="g12"><g
         id="g14"><g
           id="g16"
           clip-path="url(#clipPath20)"><path
             d="M 0,0 H 1920 V 1080 H 0 Z"
             style="fill:#ffffff;fill-opacity:1;fill-rule:nonzero;stroke:none"
             id="path22" /></g></g></g><path
       d="M 0,0 H 633 V 1080 H 0 Z"
       style="fill:#f0f0f5;fill-opacity:1;fill-rule:nonzero;stroke:none"
       id="path24" /><text
       transform="matrix(1,0,0,-1,99,953.4)"
       style="font-variant:normal;font-weight:normal;font-stretch:normal;font-size:38px;font-family:'Prosto One';-inkscape-font-specification:ProstoOne-Regular;writing-mode:lr-tb;fill:#000000;fill-opacity:1;fill-rule:nonzero;stroke:none"
       id="text30"><tspan
         x="0 30.4 64.599998 95.760002 126.16 158.08"
         y="0"
         id="tspan26">BOARD </tspan><tspan
         x="0 34.200001 61.560001 74.860001 106.78 117.61 148.00999 174.99001 205.00999 231.8 266 296.39999"
         y="45.599998"
         id="tspan28">OF DIRECTORS</tspan></text><text
       transform="matrix(1,0,0,-1,99,829.1)"
       style="font-variant:normal;font-weight:300;font-stretch:normal;font-size:20px;font-family:'Rubik Light';-inkscape-font-specification:Rubik-Light;writing-mode:lr-tb;fill:#000000;fill-opacity:1;fill-rule:nonzero;stroke:none"
       id="text52"><tspan
         x="0 11.08 17.799999 28.719999 33.18 44.799999 56.459999 63.639999 68.800003 82.040001 93.839996 104.038 107.558 117.398 122.558 133.358 143.718 154.638 161.438 172.158 176.658 181.158 186.31799 196.158 203.338 210.138 220.758 227.938 238.858 250.478 254.938 265.65799 270.81799 282.43799 293.23599 303.59799 314.51801 321.478 333.27802 343.99799 355.798 366.51801 377.43799 382.59799 387.05801 396.89801 401.616 408.79599 420.616 431.53601"
         y="0"
         id="tspan32">Freight One’s overall strategic governance is the </tspan><tspan
         x="0 6.7199998 17.639999 27.48 39.099998 50.259998 62.060001 71.900002 76.360001 87.959999 92.419998 96.919998 101.38 108.56 118.658 123.818 134.838 141.578 146.73801 151.198 158.37801 168.218 173.37801 186.438 197.59801 208.31799 215.01801 226.618 231.778 242.798 249.53799 254.698 268.23801 272.698 279.41599 290.336 301.056 308.23599 319.396 326.35599 336.19601 340.95599 346.116 351.13599 362.936 367.65601 374.836 386.65601 397.57599"
         y="26"
         id="tspan34">responsibility of its Board of Directors. In the </tspan><tspan
         x="0 10.72 21.879999 33.52 40.700001 51.459999 61.82 69 74.160004 85.18 91.919998 96.639999 103.82 115.64 126.56 131.72 143.52 154.17799 169.438 174.59801 185.31799 197.138 207.858 212.358 216.858 227.778 239.578 251.198 262.11801 271.95801 277.11801 287.83801 294.798 299.258 309.09799 313.55801 325.358 336.978 342.138 346.59799 358.39801 363.55801 374.758 387.078 398.27802 410.216 414.95599"
         y="52"
         id="tspan36">context of the new challenges arising in 2020, </tspan><tspan
         x="0 7.1799998 19 29.92 35.080002 48.139999 59.299999 70.019997 76.720001 88.32 93.480003 104.5 111.24 116.4 129.94 134.39999 141.118 152.03799 162.758 169.938 181.09801 188.058 197.89799 203.058 213.778 224.498 231.67799 242.59801 254.198 259.358 270.078 279.918 284.63599 291.81601 303.63599 314.556 319.716 332.73599 343.896 361.45599 373.07599 383.79599 395.29599 405.936 409.45599 419.29599"
         y="78"
         id="tspan38">the Board of Directors acted as the Company’s </tspan><tspan
         x="0 17.559999 28.280001 32.740002 44.540001 49.700001 59.540001 66.720001 77.639999 88.559998 95.519997 99.980003 111.78 123.4 128.56 140.16 151.32001 162.92 172.338 177.09801 182.258 187.278 194.45799 199.618 209.45799 221.158 232.778 244.39799 255.558 262.51801 269.698 280.61801 292.21799 297.37799 308.45599 315.17599 326.09601 330.556 342.17599 353.83401 361.01401 366.17401 379.414 391.21399 401.414 404.93399 414.77399"
         y="104"
         id="tspan40">main steering body. It supported Freight One’s </tspan><tspan
         x="0 17.559999 28.280001 40.080002 50.799999 62.419998 73.339996 90.900002 101.82 113.458 120.638 125.798 130.258 142.058 147.218 164.778 175.498 185.23801 189.698 201.498 213.118 218.278 229.87801 240.798 251.51801 255.978 265.81799 270.27802 281.43799 293.23801 303.078 308.23801 318.95801 323.418 340.978 351.89801 363.49799 368.65799 379.276 386.45599"
         y="130"
         id="tspan42">management in making decisions aimed at </tspan><tspan
         x="0 9.8400002 17.02 23.74 34.66 46.459999 58.080002 65.260002 77.080002 88 99.800003 104.26 116.06 127.68 132.84 144 155.7 162.17799 167.338 184.89799 195.618 202.578 211.81799 222.658 229.838 234.998 246.618 257.77802 267.61801 272.078 279.258 283.71799 294.87799 306.67801 316.51801 321.258 326.418 343.978 354.698 359.15799 370.79599 377.97601 388.69601 393.15601 404.95599 409.41599 421.216 432.836"
         y="156"
         id="tspan44">strengthening our market positions, maintaining </tspan><tspan
         x="0 9.8400002 17.02 27.74 39.34 43.84 54.759998 59.919998 70.639999 82.440002 94.040001 99.199997 116.76 128.46001 135.64 147.34 158.06 162.56 167.06 177.158 182.31799 193.918 204.838 216.638 227.45599 234.65601 239.116 249.836 254.29601 265.01599 269.51599 274.67599 281.396 292.31601 296.81601 307.436 314.616 319.07599 330.23599 342.03601 351.87601 363.69601 368.15601 379.776 389.616 394.314 410.034 414.49399 421.67401 433.49399"
         y="182"
         id="tspan46">stable and mutually beneficial relationships with </tspan><tspan
         x="0 11.16 22.860001 29.34 34.5 45.220001 49.720001 54.18 65.099998 76.739998 83.919998 93.760002 98.5 103.66 114.38 126.18 137.78 142.94 153.86 165.66 175.5 187.2 194.16 198.62 210.42 222.03999 227.2 237.92 249.08 266.45801 273.436 284.59601 291.556 298.73599 309.45599 321.056 325.556 336.47601 341.63599 352.35599 364.15601 375.75601 380.91599 390.75601 401.37601 408.35599 419.276"
         y="208"
         id="tspan48">our clients, and ensuring comfortable and safe </tspan><tspan
         x="0 15.46 26.620001 33.580002 43.32 47.779999 59.580002 71.199997 76.360001 87.080002 98.239998 110.04 121.64 126.1 133.28 137.74001 148.89999 160.7 170.53999 175.298 182.278 193.438 199.918 205.078 216.23801 227.938 234.418 239.578 250.498 268.05801 279.67801 284.17801 294.95801 305.258 316.17801 327.09799 336.93799"
         y="234"
         id="tspan50">working conditions for our employees.</tspan></text><text
       transform="matrix(1,0,0,-1,693,953.8201)"
       style="font-variant:normal;font-weight:500;font-stretch:normal;font-size:28px;font-family:'Rubik Medium';-inkscape-font-specification:Rubik-Medium;writing-mode:lr-tb;fill:#000000;fill-opacity:1;fill-rule:nonzero;stroke:none"
       id="text58"><tspan
         x="0 19.18 35.784 61.068001 78.260002 94.863998 109.788 117.208 129.276 136.696 153.3 170.8"
         y="0"
         id="tspan54">Composition </tspan><tspan
         x="0 16.436001 27.468 33.292 45.360001 63 79.183998 85.568001 104.804 121.408 137.424 148.9292 166.1212 172.5052 188.94119 199.97321 206.35719 226.0412 233.4612 244.99719 261.18121 277.1972 289.2652 305.8692 317.6012"
         y="33.992001"
         id="tspan56">of the Board of Directors</tspan></text><text
       transform="matrix(1,0,0,-1,693,883.8201)"
       style="font-variant:normal;font-weight:300;font-stretch:normal;font-size:20px;font-family:'Rubik Light';-inkscape-font-specification:Rubik-Light;writing-mode:lr-tb;fill:#000000;fill-opacity:1;fill-rule:nonzero;stroke:none"
       id="text86"><tspan
         x="0 5.02 16.82 21.98 28.700001 39.619999 49.459999 61.080002 72.239998 84.040001 95.639999 100.1 111.9 123.52 128.23801 135.418 146.578 151.298 158.478 170.298 181.218 186.37801 197.09801 208.918 219.638 224.138 228.638 239.558 251.358 262.978 273.89801 283.73801 288.89801 299.91599 306.65601 311.37601 318.556 330.37601 341.29599 346.45599 358.25601 368.91599 384.17599 389.336 396.056 406.97601 417.69601 422.19601 426.65601 433.836 443.936 449.09601 453.556 465.35599"
         y="0"
         id="tspan60">In responding to the challenges of the new reality in </tspan><tspan
         x="0 11.2 23.52 34.720001 46.66 51.400002 56.560001 68.360001 79.400002 86.580002 91.739998 96.239998 107.16 117.88 127.72 134.89999 139.618 146.798 158.618 169.53799 174.698 186.498 197.418 208.338 219.938 224.698 231.67799 242.838 249.31799 254.478 265.198 275.918 286.638 297.55801 302.05801 312.978 319.776 330.396 337.57599 348.496 360.09601 365.25601 376.85599 381.31601 392.936 397.396 404.57599 415.29599 419.79599 424.25601 434.056 444.67401 451.854 456.314 467.474 479.27399"
         y="26"
         id="tspan62">2020, not least the need for accelerated digitalization </tspan><tspan
         x="0 11.02 17.76 22.92 34.080002 45.779999 52.259998 57.419998 69.019997 80.720001 90.559998 95.019997 106.82 117.74 127.58 137.42 142.58 154.2 160.918 172.078 182.798 193.718 203.558 213.39799 224.31799 234.158 238.89799 244.058 254.778 266.59799 277.31799 289.11801 300.73801 311.65799 321.49799 326.19601 341.65601 352.57599 359.29599 370.216 375.37601 392.936 403.65601 415.25601 426.17599 430.89401 438.07401 449.23401 453.95401 461.134 472.95401 483.87399"
         y="52"
         id="tspan64">of our business processes, changes were made to the </tspan><tspan
         x="0 10.72 21.879999 39.439999 51.060001 62.220001 72.059998 76.519997 83.699997 88.160004 99.32 111.12 116.28 127.298 134.03799 138.758 145.938 157.758 168.67799 173.838 186.89799 198.058 208.778 215.478 227.078 232.23801 243.258 249.998 255.158 268.698 273.15799 279.87799 290.798 301.51801 308.698 319.858 326.81799 336.65799 341.418 346.578 360.11801 377.67801 382.138 389.31799 396.27802 406.37601 411.53601 422.496 426.95599 436.79599 441.25601 453.056"
         y="78"
         id="tspan66">composition of the Board of Directors. Dmitry Lisin </tspan><tspan
         x="0 9.8400002 17.02 27.940001 39.560001 51.18 62.099998 73.699997 78.860001 90.459999 101.358 117.078 128.87801 133.618 138.778 149.498 161.298 172.89799 177.618 184.798 196.618 207.53799 212.698 224.498 235.158 250.418 255.578 268.638 279.798 290.51801 297.21799 308.81799 313.55801 318.71799 329.638 334.138 345.05801 355.77802 362.95801 373.87799 385.478 390.638 401.85599 411.95599 417.116 428.19601 434.91599 445.836 450.29599 461.91599 473.57401 480.754"
         y="104"
         id="tspan68">stepped down, and the new Board, elected by Freight </tspan><tspan
         x="0 13.24 25.040001 35.240002 38.759998 48.599998 53.759998 63.599998 75.419998 86.139999 92.858002 103.778 115.598 126.758 131.258 142.858 153.778 160.73801 170.578 175.73801 180.198 191.998 197.158 212.758 223.298 233.39799 238.558 249.758 262.078 273.27802 285.216 289.95599 295.116 299.57599 311.37601 322.09601 326.59601 338.29599 349.896 360.81601 372.41599 377.13599 384.31601 399.776 410.936 416.09601 427.896 438.556 453.81601"
         y="130"
         id="tspan70">One’s shareholders in May 2020, included two new </tspan><tspan
         x="0 11.6 16.059999 22.780001 33.700001 44.419998 51.599998 62.759998 69.720001 79.559998 84.379997 88.977997 101.738 106.238 116.958 128.558 133.01801 150.578 155.03799 161.51801 166.67799 177.638 182.09801 191.938 196.39799 208.198 212.938 218.09801 228.81799 240.618 252.218 257.37799 261.83801 273.638 285.23801 296.15799 307.77802 318.698 330.49799 342.09799 353.01801 364.65399 371.83401 376.99399 388.59399 393.05399 399.77399 410.694 421.414 428.59399 439.754 446.23401"
         y="156"
         id="tspan72">directors: Vladimir Lisin, and independent director </tspan><tspan
         x="0 13 24.799999 35.52 45.360001 52.540001 63.259998 73.099998 82.940002 87.400002 98.120003 103.28 114.24 124.96 136.66 143.84 154.75999 161.72 173.32001 184.03999 194.75999 206.58 211.32001 216.48 227.2 231.896 247.356 258.51599 265.47601 269.97601 281.57599 291.31601 298.03601 308.95599 320.75601 331.65601 347.37601 359.17599 370.09601 381.69601 386.85599 397.616 407.97601 419.59601 430.51599 437.47601 444.65601 449.81601 460.97601 472.776 477.936 482.95599 493.57401"
         y="182"
         id="tspan74">Anastassia Lauterbach, a world-renowned expert on IT </tspan><tspan
         x="0 4.46 14.3 24.139999 35.84 46.759998 56.599998"
         y="208"
         id="tspan76">issues.</tspan><tspan
         x="0 13 22.84 28 38.720001 43.880001 50.599998 61.52 71.360001 83.059998 87.559998 94.739998 99.480003 104.64 115.8 127.5 133.978 139.138 152.198 163.358 174.078 180.778 192.37801 197.53799 208.558 215.298 220.45799 233.998 238.45799 245.17799 256.09799 266.81799 273.99799 285.15799 292.11801 301.95801 307.11801 311.578 321.418 326.578 338.37799 349.276 364.53601 369.69601 387.25601 398.41599 405.13599 416.056 421.216 432.81601 437.276 447.63599 458.556 465.51599 475.35599 486.276"
         y="247"
         id="tspan78">As a result, our Board of Directors is now more diverse </tspan><tspan
         x="0 4.46 16.26 20.98 28.16 39.080002 46.040001 63.599998 73.440002 78.599998 89.620003 96.358002 101.518 112.238 123.858 134.778 139.938 150.658 162.45799 174.058 179.218 190.838 201.758 213.558 225.158 236.078 241.95599 246.696 251.856 262.57599 274.37601 285.97601 291.13599 302.95599 313.67599 323.51599 328.67599 340.29599 351.01599 355.47601 367.276 378.19601 389.79599 394.95599 406.75601 417.414 432.67401"
         y="273"
         id="tspan80">in terms of age and gender, and has gained new </tspan><tspan
         x="0 10.72 21.879999 39.439999 51.060001 61.900002 69.080002 80 91.800003 102.52 106.98 117.9 127.74 132.5 137.118 149.638 156.81799 161.53799 168.718 180.53799 191.45799 196.618 206.45799 217.17799 234.73801 245.658 250.37801 257.55801 262.01801 279.578 290.49799 295.23801 299.95801 307.138 318.95801 329.87799 335.03601 339.496 351.29599 362.896 373.81601 385.436 396.35599 408.15601 419.75601 430.67599 442.47601 453.19601 464.116"
         y="299"
         id="tspan82">competencies. At the same time, the independence </tspan><tspan
         x="0 11.02 17.76 22.92 27.379999 34.560001 44.400002 49.560001 61.16 72.080002 82.800003 87.260002 97.099998 101.56 112.72 124.52 134.25999 151.82001 162.53999 172.28 176.74001 188.53999 200.16 205.32001 217.14 227.86 237.7 242.86 247.32001 259.12 269.84 276.556 287.47601 298.19601 308.03601 318.95599 330.556"
         y="325"
         id="tspan84">of its decision-making has increased </tspan></text><text
       transform="matrix(1,0,0,-1,1028.716,558.8201)"
       style="font-style:italic;font-variant:normal;font-weight:300;font-stretch:normal;font-size:20px;font-family:'Rubik Light';-inkscape-font-specification:Rubik-LightItalic;writing-mode:lr-tb;fill:#000000;fill-opacity:1;fill-rule:nonzero;stroke:none"
       id="text94"><tspan
         x="0 5.8400002 12.838 23.958 35.678001 42.217999 47.498001 58.417999 65.078003 69.938004 76.958 88.778 99.657997 104.938 116.738 121.218 133.01801 143.89799"
         y="0"
         id="tspan88">(four of the nine </tspan><tspan
         x="-335.716 -318.13599 -307.25601 -289.67599 -278.07599 -267.19601 -260.19601 -250.356 -245.076 -234.158 -227.498 -222.638 -215.618 -203.798 -192.918 -187.638 -174.498 -163.37801 -151.998 -145.17799 -133.59801 -128.31799 -117.398 -110.738 -105.458 -91.917999 -87.438004 -80.620003 -69.739998 -59.040001 -52.02 -40.900002 -33.900002 -24.059999 -18.780001 -7.4000001 -0.57999998 10.3 15.58 20.059999 31.860001 43.439999 54.32 65.900002 76.779999 88.580002 100.16 111.04 122.658 129.67799"
         y="26"
         id="tspan90">members of the Board of Directors are independent </tspan><tspan
         x="-335.716 -324.13599 -319.65601 -312.836 -301.95599 -291.25601 -284.23599 -273.116 -266.116 -257.09601 -250.756"
         y="52"
         id="tspan92">directors),</tspan></text><text
       transform="matrix(1,0,0,-1,787.86,506.8201)"
       style="font-variant:normal;font-weight:300;font-stretch:normal;font-size:20px;font-family:'Rubik Light';-inkscape-font-specification:Rubik-Light;writing-mode:lr-tb;fill:#000000;fill-opacity:1;fill-rule:nonzero;stroke:none"
       id="text126"><tspan
         x="0 10.72 22.52 34.119999 39.279999 50.358002 57.077999 67.998001 72.458 84.078003 95.737999 102.918 108.078 121.318 133.118 143.31799 146.838 156.67799 161.838 171.67799 176.138 187.758 199.558 204.01801 211.218 215.67799 226.39799 237.118 248.918 259.638 270.55801 275.71799 286.43799 296.27802 301.43799 312.15799 323.95801 329.11801 339.83801 349.67801 359.51801 370.354 377.534 382.29401 389.27399 400.43399 406.914"
         y="0"
         id="tspan96">and Freight One’s significance as an asset for </tspan><tspan
         x="-94.860001 -90.400002 -83.220001 -73.379997 -68.220001 -50.66 -39.939999 -35.48 -23.68 -18.52 -8.6800003 3.1400001 13.86 20.577999 31.497999 43.318001 54.478001 58.978001 70.578003 81.498001 87.977997 93.138 104.958 115.678 125.518 130.67799 142.278 153.198 164.118 175.918 181.078 187.79601 198.716 209.336 216.536 223.73599 228.196 235.15601 252.716 263.63599 275.23599 279.996 284.634 295.33401 307.15399 318.07401 323.23401 340.79401 351.71399 369.27399 380.87399 391.79401 398.754 408.59399"
         y="26"
         id="tspan98">its main shareholder has been reaffirmed. The members </tspan><tspan
         x="-94.860001 -83.839996 -77.099998 -72.379997 -65.199997 -53.380001 -42.459999 -37.299999 -24.24 -13.08 -2.3599999 4.3400002 15.94 21.1 32.119999 38.860001 44.02 57.560001 62.02 68.737999 79.657997 90.377998 97.557999 108.718 115.678 125.518 130.67799 142.498 153.058 163.418 174.338 179.498 190.218 194.718 204.558 215.718 220.87801 232.478 243.39799 254.118 265.27802 282.83801 293.758 298.918 316.478 327.638 334.35599 345.276"
         y="52"
         id="tspan100">of the Board of Directors have also become more </tspan><tspan
         x="-94.860001 -90.400002 -78.879997 -68.519997 -57.360001 -52.860001 -42.5 -31.58 -19.98 -14.82 -10.36 1.4400001 6.5999999 17.76 29.459999 35.939999 41.099998 58.66 69.379997 81.18 91.900002 103.52 114.44 132 142.92 154.558 161.73801 166.89799 171.358 183.158 188.31799 197.558 208.118 218.218 223.37801 234.09801 240.81799 251.73801 262.45801 272.298 277.01599 284.19601 296.01599 302.73599 313.896 325.59601 337.216 349.03601 353.75601 360.936 372.75601 383.67599"
         y="78"
         id="tspan102">involved in our management in key areas through the </tspan><tspan
         x="-94.860001 -84.099998 -73.739998 -62.119999 -51.400002 -39.599998 -29.76 -25.299999 -14.14 -2.3399999 2.8199999 13.838 20.577999 25.299999 32.48 44.299999 55.220001 60.380001 71.138 81.498001 85.958 95.797997 102.978 107.438 119.238 130.858 136.01801 146.73801 157.89799 175.45799 193.01801 197.478 204.658 211.838 222.758 233.67799 243.51801 248.67799 259.39801 271.198 282.798 287.51599 294.69601 306.51599 317.436 322.59601 333.31601 340.034 350.95401 361.57401 368.754 373.21399 384.37399 396.17401"
         y="104"
         id="tspan104">expansion of the existing committees and the creation </tspan><tspan
         x="-94.860001 -83.839996 -77.099998 -72.379997 -65.199997 -53.380001 -42.459999 -37.299999 -25.5 -14.84 0.41999999 5.5799999 19.120001 23.58 35.200001 39.66 46.84 57.560001 62.060001 67.220001 80.760002 91.337997 101.698 112.618 117.118 128.278 139.89799 157.45799 168.37801 180.01801 187.198 192.358 205.37801 216.53799 234.09801 251.658 256.11801 263.298 270.478 281.39801 292.31799"
         y="130"
         id="tspan106">of the new Digital Development Committee.</tspan><tspan
         x="-94.860001 -81.980003 -71.260002 -60.540001 -49.380001 -42.68 -31.08 -26.620001 -14.82 -3.2 1.52 8.6999998 19.860001 24.459999 36.198002 47.118 54.077999 63.917999 68.377998 79.538002 91.337997 96.498001 108.858 114.018 125.038 131.778 136.938 148.01801 154.73801 165.658 170.118 181.73801 193.39799 200.578 205.73801 218.978 230.778 240.976 244.496 254.336 258.95599 271.95599 278.91599 286.09601 290.556 301.276 305.776 316.69601 326.53601"
         y="169"
         id="tspan108">According to Version 8 of Freight One’s Articles </tspan><tspan
         x="-94.860001 -83.839996 -77.099998 -72.480003 -59.48 -49.639999 -39.799999 -28.639999 -17.92 -13.46 -2.8399999 4.3400002 8.8000002 19.959999 31.76 36.5 41.66 52.380001 64 75.620003 82.337997 93.138 103.498 114.418 126.018 131.17799 142.39799 152.498 157.218 164.39799 176.218 187.138 192.298 205.31799 216.478 234.03799 245.658 256.37799 267.87601 278.51599 282.03799 291.87799 297.03799 309.138 320.298 324.798 335.71799"
         y="195"
         id="tspan110">of Association, approved by the Company’s Sole </tspan><tspan
         x="-94.860001 -82.760002 -70.940002 -60.220001 -53.5 -42.580002 -30.76 -19.6 -15.1 -3.5 7.4200001 13.898 19.058001 24.638 31.358 42.278 53.897999 58.358002 68.197998 75.377998 86.297997 93.017998 103.938 115.538 120.698 131.858 143.658 148.81799 156.778 168.67799 177.536 189.856 201.29601 210.276 221.476 233.79601 244.996 256.716 263.09601 267.836 272.556 279.73599 291.556 302.47601 307.63599 319.436 331.13599 348.69601 360.29599 371.216 377.694 382.854 393.87399 400.61401"
         y="221"
         id="tspan112">Shareholder (registered on 14/05/2020), the number of </tspan><tspan
         x="-94.860001 -77.300003 -66.379997 -48.82 -37.220001 -26.299999 -19.34 -9.5 -4.3400002 6.678 13.418 18.138 25.318001 37.138 48.057999 53.217999 66.278 77.438004 88.157997 94.858002 106.458 111.618 122.638 129.37801 134.53799 148.078 152.53799 159.258 170.17799 180.89799 188.078 199.23801 206.198 216.03799 221.198 225.658 235.498 240.658 252.258 263.09601 270.276 281.19601 288.15601 305.716 310.17599 321.97601 332.896 344.496 349.65601 360.87399 370.974 376.134 386.854"
         y="247"
         id="tspan114">members of the Board of Directors is determined by a </tspan><tspan
         x="-94.860001 -88.139999 -77.220001 -67.379997 -56.220001 -51.720001 -40.02 -32.84 -28.379999 -17.219999 -5.4200001 -0.25999999 10.758 17.497999 22.218 29.398001 41.217999 52.138 57.298 70.578003 81.498001 93.297997 104.218 111.018 121.738 126.238 131.39799 146.998 157.918 168.756 175.936 180.396 192.196 203.81599 208.976 219.996 226.73599 231.896 243.996 255.81599 266.53601 273.25601 284.17599 295.996 307.15601 311.65601 323.25601 334.17599 341.13599 350.97601 355.716 360.87601 371.59601 383.396 394.996"
         y="273"
         id="tspan116">resolution of the General Meeting of Shareholders, and </tspan><tspan
         x="-94.860001 -77.300003 -65.599998 -55.759998 -48.580002 -43.419998 -31.82 -20.9 -15.74 -5.1220002 2.0580001 7.2179999 11.718 22.638 33.358002 43.198002 50.377998 55.537998 66.977997 72.138 77.718002 89.517998 93.977997 105.778 115.816 122.196"
         y="299"
         id="tspan118">must be at least 9 (nine).</tspan><tspan
         x="-94.860001 -84.160004 -72.339996 -61.419998 -56.259998 -44.459999 -40 -28.200001 -17.280001 -12.12 5.4400001 16.360001 33.919998 45.52 56.439999 63.400002 73.239998 78.400002 89.417999 96.157997 100.878 108.058 119.878 130.798 135.95799 149.01801 160.17799 170.89799 177.59801 189.198 194.358 205.37601 212.116 217.276 230.81599 235.276 241.996 252.916 263.63599 270.81601 281.97601 288.936 298.776 303.47601 318.936 329.85599 336.57599 347.496"
         y="338"
         id="tspan120">The nine members of the Board of Directors were </tspan><tspan
         x="-94.860001 -83.940002 -79.440002 -68.519997 -57.799999 -50.619999 -39.700001 -28.1 -22.940001 -11.722 -1.622 3.5380001 10.258 21.177999 31.018 42.178001 46.678001 58.377998 65.557999 70.017998 81.178001 92.977997 98.138 109.158 115.898 120.618 127.798 139.618 150.53799 155.698 167.798 178.95799 183.45799 194.37801 199.53799 211.638 223.45799 234.17799 240.896 251.81599 263.63599 274.79599 279.29599 290.896 301.81601 308.29401 313.45401 324.474 331.21399 336.37399 347.45401 354.17401 365.09399 369.55399 381.17401 392.83401 400.01401"
         y="364"
         id="tspan122">elected by resolution of the Sole Shareholder of Freight </tspan><tspan
         x="-94.860001 -81.620003 -69.82 -58.900002 -53.740002 -48.16 -41.439999 -30.52 -20.68 -9.5200005 -5.02 6.6799998 13.86 18.32 29.48 41.279999 46.439999 60.119999 71.038002 75.797997 80.958 92.598 97.758003 108.778 115.518 120.678 132.998 144.638 153.498 165.81799 177.258 186.23599 197.436 209.756 220.95599 232.67599 239.056"
         y="390"
         id="tspan124">One (resolution No. 6 of 06/05/2020).</tspan></text><text
       transform="matrix(1,0,0,-1,98.5,236)"
       style="font-variant:normal;font-weight:500;font-stretch:normal;font-size:28px;font-family:'Rubik Medium';-inkscape-font-specification:Rubik-Medium;writing-mode:lr-tb;fill:#000000;fill-opacity:1;fill-rule:nonzero;stroke:none"
       id="text138"><tspan
         x="0 8.3999996 28.195999 33.908001 50.875999 71.316002 88.760002 95.143997 114.324 133.784 153.58 170.548 187.992 206.556 222.8492 229.2332 248.69321 265.12921 270.84119 287.8092 308.24921 325.69321 332.07721 351.8732 369.3172 391.82639"
         y="0"
         id="tspan128">IN THE CONTEXT OF THE NEW </tspan><tspan
         x="0 19.18 39.619999 59.051998 75.32 91.587997 109.032 128.828 148.45599 165.89999 183.90401 189.55721 208.9892 227.86121 236.2612 254.2652 262.66519 282.46121 302.0892 308.47321 316.8732 336.66919 343.05319 360.41321 378.8652 396.22519 414.36639 421.78641"
         y="33.992001"
         id="tspan130">CHALLENGES ARISING IN 2020, </tspan><tspan
         x="0 16.968 37.408001 54.852001 61.236 80.472 99.540001 118.972 137.84399 157.528 163.912 183.37199 199.80521 206.18919 225.8732 234.27319 253.1452 270.4212 289.6012 306.2052 325.66519 344.5372 362.5412"
         y="67.984001"
         id="tspan132">THE BOARD OF DIRECTORS </tspan><tspan
         x="0 19.040001 38.220001 55.188 72.632004 92.316002 97.972 117.124 135.12801 140.84 157.808 178.248 195.692 202.076 221.256 240.716 263.452 280.66919 300.1012 319.89719 338.51721 345.2092 363.2132 369.5972 392.33319 411.7652 420.16519 439.96121"
         y="101.976"
         id="tspan134">ACTED AS THE COMPANY’S MAIN </tspan><tspan
         x="0 17.780001 34.748001 52.192001 69.636002 88.508003 96.907997 116.704 136.332 142.716 161.952 181.412 200.2252"
         y="135.968"
         id="tspan136">STEERING BODY</tspan></text><g
       id="g140"><g
         id="g142"
         clip-path="url(#clipPath146)"><g
           id="g148"
           transform="translate(56.4,252.75)"><path
             d="m 0,0 c -1.4,1.9 -3.367,2.85 -5.9,2.85 -2.267,0 -4.084,-0.75 -5.45,-2.25 -1.367,-1.5 -2.05,-3.25 -2.05,-5.25 0,-2 0.666,-3.75 2,-5.25 1.333,-1.5 3,-2.25 5,-2.25 0.666,0 1.266,0.067 1.8,0.2 0.266,0.067 0.5,0.167 0.7,0.3 -0.267,-2 -1.15,-3.583 -2.65,-4.75 -1.5,-1.166 -3.117,-1.75 -4.85,-1.75 v -3.5 c 1.6,0 3.216,0.284 4.85,0.85 1.633,0.567 3.083,1.467 4.35,2.7 1.266,1.234 2.3,2.8 3.1,4.7 0.8,1.9 1.2,4.15 1.2,6.75 C 2.1,-4.117 1.4,-1.9 0,0 M 20,0 C 18.6,1.9 16.633,2.85 14.1,2.85 11.833,2.85 10.016,2.1 8.65,0.6 7.283,-0.9 6.6,-2.65 6.6,-4.65 c 0,-2 0.666,-3.75 2,-5.25 1.333,-1.5 3,-2.25 5,-2.25 0.666,0 1.266,0.067 1.8,0.2 0.266,0.067 0.5,0.167 0.7,0.3 -0.267,-2 -1.15,-3.583 -2.65,-4.75 -1.5,-1.166 -3.117,-1.75 -4.85,-1.75 v -3.5 c 1.6,0 3.216,0.284 4.85,0.85 1.633,0.567 3.083,1.467 4.35,2.7 1.266,1.234 2.3,2.8 3.1,4.7 0.8,1.9 1.2,4.15 1.2,6.75 0,2.533 -0.7,4.75 -2.1,6.65"
             style="fill:#fdb73e;fill-opacity:1;fill-rule:nonzero;stroke:none"
             id="path150" /></g></g></g><text
       transform="matrix(1,0,0,-1,1372,543.28)"
       style="font-variant:normal;font-weight:500;font-stretch:normal;font-size:20px;font-family:'Rubik Medium';-inkscape-font-specification:Rubik-Medium;writing-mode:lr-tb;fill:#000000;fill-opacity:1;fill-rule:nonzero;stroke:none"
       id="text154"><tspan
         x="0 13.7 25.559999 43.619999 55.900002 67.760002 78.419998 83.720001 92.339996 97.639999 109.5 122 126.56 138.298 146.17799 150.338 158.95799 171.558 183.118 187.67799 201.418 213.278 224.718 232.938 245.218 249.778 261.51801 269.81799 274.37799 288.43799 293.73801 301.978 313.53799 324.978 333.59799 345.45801 353.83801"
         y="0"
         id="tspan152">Composition of the Board of Directors</tspan></text><text
       transform="matrix(1,0,0,-1,1372,517.28)"
       style="font-variant:normal;font-weight:500;font-stretch:normal;font-size:20px;font-family:'Rubik Medium';-inkscape-font-specification:Rubik-Medium;writing-mode:lr-tb;fill:#000000;fill-opacity:1;fill-rule:nonzero;stroke:none"
       id="text160"><tspan
         x="0 8.3000002 16.540001 28.4 46.459999 51.02 64.199997 76.599998 86.32 99.5 111.76 121.578 133.978 147.158 159.558 172.73801 176.89799 185.51801 197.37801 201.938 214.23801 223.51801 233.51801 242.798 255.198 265.01801 277.418 290.59799 302.99799"
         y="0"
         id="tspan156">from 06/05/2020 to 31/12/2020</tspan><tspan
         x="0 13.88 19.200001 30.48 41.619999 53.060001 65.559998 77.839996 89.400002 97.358002 101.398 113.836 125.696 131.01601 142.87601 153.536 166.136 171.436"
         y="36"
         id="tspan158">Alexander Voloshin</tspan></text><path
       d="m 1558.596,487.94 h 15.977 v 11.496 h -15.977 z"
       style="fill:#f0f0f5;fill-opacity:1;fill-rule:nonzero;stroke:none"
       id="path162" /><text
       transform="matrix(1,0,0,-1,1561.7439,490.0877)"
       style="font-variant:normal;font-weight:normal;font-stretch:normal;font-size:10px;font-family:Rubik;-inkscape-font-specification:Rubik-Regular;writing-mode:lr-tb;fill:#000000;fill-opacity:1;fill-rule:nonzero;stroke:none"
       id="text166"><tspan
         x="0 2.8"
         y="0"
         id="tspan164">ID</tspan></text><text
       transform="matrix(1,0,0,-1,1371.9935,455.28)"
       style="font-variant:normal;font-weight:300;font-stretch:normal;font-size:20px;font-family:'Rubik Light';-inkscape-font-specification:Rubik-Light;writing-mode:lr-tb;fill:#000000;fill-opacity:1;fill-rule:nonzero;stroke:none"
       id="text170"><tspan
         x="0 5.7399998 18.76 30.58 41.299999 45.759998 52.720001 70.279999 81 91.958"
         y="0"
         id="tspan168">(Chairman)</tspan></text><text
       transform="matrix(1,0,0,-1,1371.9935,423.28)"
       style="font-variant:normal;font-weight:500;font-stretch:normal;font-size:20px;font-family:'Rubik Medium';-inkscape-font-specification:Rubik-Medium;writing-mode:lr-tb;fill:#000000;fill-opacity:1;fill-rule:nonzero;stroke:none"
       id="text174"><tspan
         x="0 13.9 19.219999 30.780001 43.099998 47.66 61.400002 73.839996 84.879997 90.18 102.68"
         y="0"
         id="tspan172">Oleg Bukin </tspan></text><text
       transform="matrix(1,0,0,-1,1371.9935,397.28)"
       style="font-variant:normal;font-weight:300;font-stretch:normal;font-size:20px;font-family:'Rubik Light';-inkscape-font-specification:Rubik-Light;writing-mode:lr-tb;fill:#000000;fill-opacity:1;fill-rule:nonzero;stroke:none"
       id="text178"><tspan
         x="0 6.1599998 19.700001 30.620001 42.240002 53.939999 61.119999 71.220001 76.379997 89.400002 101.22 111.94 116.4 123.36 140.92 151.64 162.59801"
         y="0"
         id="tspan176">(Deputy Chairman)</tspan></text><text
       transform="matrix(1,0,0,-1,1371.9935,365.28)"
       style="font-variant:normal;font-weight:500;font-stretch:normal;font-size:20px;font-family:'Rubik Medium';-inkscape-font-specification:Rubik-Medium;writing-mode:lr-tb;fill:#000000;fill-opacity:1;fill-rule:nonzero;stroke:none"
       id="text182"><tspan
         x="0 13.88 26.379999 37.82 48.439999 57.060001 68.5 79.160004 89.82 95.120003 106.56 111.12 122.74 134.17999 146.62 155.24001 166.8 175.17999 187.46001 198.89999 210.34"
         y="0"
         id="tspan180">Anastassia Lauterbach</tspan></text><path
       d="m 1597.595,371.94 h 15.977 v 11.496 h -15.977 z"
       style="fill:#f0f0f5;fill-opacity:1;fill-rule:nonzero;stroke:none"
       id="path184" /><text
       transform="matrix(1,0,0,-1,1600.7433,374.0877)"
       style="font-variant:normal;font-weight:normal;font-stretch:normal;font-size:10px;font-family:Rubik;-inkscape-font-specification:Rubik-Regular;writing-mode:lr-tb;fill:#000000;fill-opacity:1;fill-rule:nonzero;stroke:none"
       id="text188"><tspan
         x="0 2.8"
         y="0"
         id="tspan186">ID</tspan></text><text
       transform="matrix(1,0,0,-1,1372,333.28)"
       style="font-variant:normal;font-weight:500;font-stretch:normal;font-size:20px;font-family:'Rubik Medium';-inkscape-font-specification:Rubik-Medium;writing-mode:lr-tb;fill:#000000;fill-opacity:1;fill-rule:nonzero;stroke:none"
       id="text198"><tspan
         x="0 13.88 26.26 34.880001 46.740002 59.240002 63.799999 77.540001 88.879997 97.5 109 117.24 128.42"
         y="0"
         id="tspan190">Anton Batyrev</tspan><tspan
         x="0 13.5 18.82 30.26 42.540001 47.84 65.900002 71.199997 79.160004 83.720001 95.339996 100.64 111.3 116.6"
         y="32"
         id="tspan192">Vladimir Lisin</tspan><tspan
         x="0 6 18.32 30.18 38.139999 42.700001 54.540001 66.099998 78.379997 90.239998 98.477997 109.958"
         y="64"
         id="tspan194">Igor Fedorov</tspan><tspan
         x="0 16.24 27.68 36.060001 46.959999 51.52 65.419998 75.980003 87.540001 98.040001 106.86 119.3 130.718 141.89999 152.56 163.698"
         y="96"
         id="tspan196">Mark Okes-Voysey</tspan></text><path
       d="m 1549.337,243.94 h 15.977 v 11.496 h -15.977 z"
       style="fill:#f0f0f5;fill-opacity:1;fill-rule:nonzero;stroke:none"
       id="path200" /><text
       transform="matrix(1,0,0,-1,1552.4852,246.0878)"
       style="font-variant:normal;font-weight:normal;font-stretch:normal;font-size:10px;font-family:Rubik;-inkscape-font-specification:Rubik-Regular;writing-mode:lr-tb;fill:#000000;fill-opacity:1;fill-rule:nonzero;stroke:none"
       id="text204"><tspan
         x="0 2.8"
         y="0"
         id="tspan202">ID</tspan></text><text
       transform="matrix(1,0,0,-1,1372,205.28)"
       style="font-variant:normal;font-weight:500;font-stretch:normal;font-size:20px;font-family:'Rubik Medium';-inkscape-font-specification:Rubik-Medium;writing-mode:lr-tb;fill:#000000;fill-opacity:1;fill-rule:nonzero;stroke:none"
       id="text210"><tspan
         x="0 13.9 19.219999 30.780001 43.099998 47.66 61.400002 72.839996 85.160004 93.540001 98.839996"
         y="0"
         id="tspan206">Oleg Bagrin</tspan><tspan
         x="0 12.98 24.16 35.279999 46.84 52.16 56.720001 69.379997 74.68 83.059998 94.559998 107 118.04 130.64 142.08 154.45799 163.078 173.73801 184.918"
         y="32"
         id="tspan208">Pavel Kiryukhantsev</tspan></text><path
       d="m 1570.557,179.94 h 15.977 v 11.496 h -15.977 z"
       style="fill:#f0f0f5;fill-opacity:1;fill-rule:nonzero;stroke:none"
       id="path212" /><text
       transform="matrix(1,0,0,-1,1573.7047,182.0878)"
       style="font-variant:normal;font-weight:normal;font-stretch:normal;font-size:10px;font-family:Rubik;-inkscape-font-specification:Rubik-Regular;writing-mode:lr-tb;fill:#000000;fill-opacity:1;fill-rule:nonzero;stroke:none"
       id="text216"><tspan
         x="0 2.8"
         y="0"
         id="tspan214">ID</tspan></text><text
       transform="matrix(1,0,0,-1,1372,961.3)"
       style="font-variant:normal;font-weight:500;font-stretch:normal;font-size:20px;font-family:'Rubik Medium';-inkscape-font-specification:Rubik-Medium;writing-mode:lr-tb;fill:#000000;fill-opacity:1;fill-rule:nonzero;stroke:none"
       id="text220"><tspan
         x="0 13.7 25.559999 43.619999 55.900002 67.760002 78.419998 83.720001 92.339996 97.639999 109.5 122 126.56 138.298 146.17799 150.338 158.95799 171.558 183.118 187.67799 201.418 213.278 224.718 232.938 245.218 249.778 261.51801 269.81799 274.37799 288.43799 293.73801 301.978 313.53799 324.978 333.59799 345.45801 353.83801"
         y="0"
         id="tspan218">Composition of the Board of Directors</tspan></text><text
       transform="matrix(1,0,0,-1,1372,935.3)"
       style="font-variant:normal;font-weight:500;font-stretch:normal;font-size:20px;font-family:'Rubik Medium';-inkscape-font-specification:Rubik-Medium;writing-mode:lr-tb;fill:#000000;fill-opacity:1;fill-rule:nonzero;stroke:none"
       id="text226"><tspan
         x="0 8.3000002 16.540001 28.4 46.459999 51.02 64.199997 73.480003 83.199997 96.379997 105.66 115.478 127.878 141.058 153.45799 166.638 170.798 179.418 191.278 195.838 209.01801 221.278 230.998 244.17799 256.43799 266.258 278.65799 291.83801 304.23801"
         y="0"
         id="tspan222">from 01/01/2020 to 05/05/2020</tspan><tspan
         x="0 13.88 19.200001 30.48 41.619999 53.060001 65.559998 77.839996 89.400002 97.358002 101.398 113.836 125.696 131.01601 142.87601 153.536 166.136 171.436"
         y="36"
         id="tspan224">Alexander Voloshin</tspan></text><path
       d="m 1558.596,905.96 h 15.977 v 11.496 h -15.977 z"
       style="fill:#f0f0f5;fill-opacity:1;fill-rule:nonzero;stroke:none"
       id="path228" /><text
       transform="matrix(1,0,0,-1,1561.7439,908.1078)"
       style="font-variant:normal;font-weight:normal;font-stretch:normal;font-size:10px;font-family:Rubik;-inkscape-font-specification:Rubik-Regular;writing-mode:lr-tb;fill:#000000;fill-opacity:1;fill-rule:nonzero;stroke:none"
       id="text232"><tspan
         x="0 2.8"
         y="0"
         id="tspan230">ID</tspan></text><text
       transform="matrix(1,0,0,-1,1371.9935,873.3001)"
       style="font-variant:normal;font-weight:300;font-stretch:normal;font-size:20px;font-family:'Rubik Light';-inkscape-font-specification:Rubik-Light;writing-mode:lr-tb;fill:#000000;fill-opacity:1;fill-rule:nonzero;stroke:none"
       id="text236"><tspan
         x="0 5.7399998 18.76 30.58 41.299999 45.759998 52.720001 70.279999 81 91.958"
         y="0"
         id="tspan234">(Chairman)</tspan></text><text
       transform="matrix(1,0,0,-1,1371.9935,841.3001)"
       style="font-variant:normal;font-weight:500;font-stretch:normal;font-size:20px;font-family:'Rubik Medium';-inkscape-font-specification:Rubik-Medium;writing-mode:lr-tb;fill:#000000;fill-opacity:1;fill-rule:nonzero;stroke:none"
       id="text240"><tspan
         x="0 13.9 19.219999 30.780001 43.099998 47.66 61.400002 73.839996 84.879997 90.18 102.68"
         y="0"
         id="tspan238">Oleg Bukin </tspan></text><text
       transform="matrix(1,0,0,-1,1371.9935,815.3001)"
       style="font-variant:normal;font-weight:300;font-stretch:normal;font-size:20px;font-family:'Rubik Light';-inkscape-font-specification:Rubik-Light;writing-mode:lr-tb;fill:#000000;fill-opacity:1;fill-rule:nonzero;stroke:none"
       id="text244"><tspan
         x="0 6.1599998 19.700001 30.620001 42.240002 53.939999 61.119999 71.220001 76.379997 89.400002 101.22 111.94 116.4 123.36 140.92 151.64 162.59801"
         y="0"
         id="tspan242">(Deputy Chairman)</tspan></text><text
       transform="matrix(1,0,0,-1,1371.9935,783.3001)"
       style="font-variant:normal;font-weight:500;font-stretch:normal;font-size:20px;font-family:'Rubik Medium';-inkscape-font-specification:Rubik-Medium;writing-mode:lr-tb;fill:#000000;fill-opacity:1;fill-rule:nonzero;stroke:none"
       id="text254"><tspan
         x="0 13.88 26.26 34.880001 46.740002 59.240002 63.799999 77.540001 88.879997 97.5 109 117.24 128.42"
         y="0"
         id="tspan246">Anton Batyrev</tspan><tspan
         x="0 14.06 32.119999 37.419998 46.040001 54.419998 65.400002 69.959999 81.580002 86.879997 97.540001 102.84"
         y="32"
         id="tspan248">Dmitry Lisin</tspan><tspan
         x="0 6 18.32 30.18 38.139999 42.700001 54.537998 66.098 78.377998 90.237999 98.477997 109.958 120.938"
         y="64"
         id="tspan250">Igor Fedorov </tspan><tspan
         x="0 16.24 27.68 36.060001 46.959999 51.52 65.419998 75.980003 87.540001 98.038002 106.86 119.3 130.718 141.89799 152.558 163.698"
         y="96"
         id="tspan252">Mark Okes-Voysey</tspan></text><path
       d="m 1549.337,693.96 h 15.977 v 11.496 h -15.977 z"
       style="fill:#f0f0f5;fill-opacity:1;fill-rule:nonzero;stroke:none"
       id="path256" /><text
       transform="matrix(1,0,0,-1,1552.4852,696.1078)"
       style="font-variant:normal;font-weight:normal;font-stretch:normal;font-size:10px;font-family:Rubik;-inkscape-font-specification:Rubik-Regular;writing-mode:lr-tb;fill:#000000;fill-opacity:1;fill-rule:nonzero;stroke:none"
       id="text260"><tspan
         x="0 2.8"
         y="0"
         id="tspan258">ID</tspan></text><text
       transform="matrix(1,0,0,-1,1372,655.3001)"
       style="font-variant:normal;font-weight:500;font-stretch:normal;font-size:20px;font-family:'Rubik Medium';-inkscape-font-specification:Rubik-Medium;writing-mode:lr-tb;fill:#000000;fill-opacity:1;fill-rule:nonzero;stroke:none"
       id="text266"><tspan
         x="0 13.9 19.219999 30.780001 43.099998 47.66 61.400002 72.839996 85.160004 93.540001 98.839996"
         y="0"
         id="tspan262">Oleg Bagrin</tspan><tspan
         x="0 12.98 24.16 35.279999 46.84 52.16 56.720001 69.379997 74.68 83.059998 94.559998 107 118.04 130.64 142.08 154.45799 163.078 173.73801 184.918"
         y="32"
         id="tspan264">Pavel Kiryukhantsev</tspan></text><path
       d="m 1570.557,629.96 h 15.977 v 11.496 h -15.977 z"
       style="fill:#f0f0f5;fill-opacity:1;fill-rule:nonzero;stroke:none"
       id="path268" /><text
       transform="matrix(1,0,0,-1,1573.7047,632.1078)"
       style="font-variant:normal;font-weight:normal;font-stretch:normal;font-size:10px;font-family:Rubik;-inkscape-font-specification:Rubik-Regular;writing-mode:lr-tb;fill:#000000;fill-opacity:1;fill-rule:nonzero;stroke:none"
       id="text272"><tspan
         x="0 2.8"
         y="0"
         id="tspan270">ID</tspan></text><path
       d="m 1373.335,99.504 h 15.977 V 111 h -15.977 z"
       style="fill:#f0f0f5;fill-opacity:1;fill-rule:nonzero;stroke:none"
       id="path274" /><text
       transform="matrix(1,0,0,-1,1376.4828,101.6522)"
       style="font-variant:normal;font-weight:normal;font-stretch:normal;font-size:10px;font-family:Rubik;-inkscape-font-specification:Rubik-Regular;writing-mode:lr-tb;fill:#000000;fill-opacity:1;fill-rule:nonzero;stroke:none"
       id="text278"><tspan
         x="0 2.8"
         y="0"
         id="tspan276">ID</tspan></text><text
       transform="matrix(1,0,0,-1,1395,100)"
       style="font-variant:normal;font-weight:300;font-stretch:normal;font-size:16px;font-family:'Rubik Light';-inkscape-font-specification:Rubik-Light;writing-mode:lr-tb;fill:#000000;fill-opacity:1;fill-rule:nonzero;stroke:none"
       id="text282"><tspan
         x="0 12.272 16.4 19.968 29.408001 38.688 47.424 56.720001 65.456001 74.896004 84.176003 92.912003 102.2224 107.9664 112.0944 121.3744 124.9424 130.31841 139.0544 147.6304 153.3744 162.3024"
         y="0"
         id="tspan280">— independent director</tspan></text><text
       transform="matrix(1,0,0,-1,38.9101,1023)"
       style="font-variant:normal;font-weight:300;font-stretch:normal;font-size:20px;font-family:'Rubik Light';-inkscape-font-specification:Rubik-Light;writing-mode:lr-tb;fill:#000000;fill-opacity:1;fill-rule:nonzero;stroke:none"
       id="text286"><tspan
         x="0 11.44"
         y="0"
         id="tspan284">57</tspan></text><text
       transform="matrix(1,0,0,-1,99.0101,1023)"
       style="font-variant:normal;font-weight:300;font-stretch:normal;font-size:20px;font-family:'Rubik Light';-inkscape-font-specification:Rubik-Light;writing-mode:lr-tb;fill:#000000;fill-opacity:1;fill-rule:nonzero;stroke:none"
       id="text290"><tspan
         x="0 13.02 24.18 31.139999 42.759998 53.919998 60.720001 71.339996 78.519997 89.440002 94.599998 106.22 117.02 127.38 138.3 145.25999 157.06 167.78 179.58 190.3"
         y="0"
         id="tspan288">Сorporate governance</tspan></text></g></svg>
