<?xml version="1.0" encoding="UTF-8" standalone="no"?>
<?xml-stylesheet type="text/css" href="main.css" ?>
<svg
   xmlns:dc="http://purl.org/dc/elements/1.1/"
   xmlns:cc="http://creativecommons.org/ns#"
   xmlns:rdf="http://www.w3.org/1999/02/22-rdf-syntax-ns#"
   xmlns:svg="http://www.w3.org/2000/svg"
   xmlns="http://www.w3.org/2000/svg"
   version="1.1"
   id="svg2"
   xml:space="preserve"
   width="2560"
   height="1440"
   viewBox="0 0 2560 1440"><metadata
     id="metadata8"><rdf:RDF><cc:Work
         rdf:about=""><dc:format>image/svg+xml</dc:format><dc:type
           rdf:resource="http://purl.org/dc/dcmitype/StillImage" /></cc:Work></rdf:RDF></metadata><defs
     id="defs6"><clipPath
       clipPathUnits="userSpaceOnUse"
       id="clipPath20"><path
         d="M 0,1080 H 1920 V 0 H 0 Z"
         id="path18" /></clipPath></defs><g
     id="g10"
     transform="matrix(1.3333333,0,0,-1.3333333,0,1440)"><g
       id="g12"><g
         id="g14"><g
           id="g16"
           clip-path="url(#clipPath20)"><path
             d="M 0,0 H 1920 V 1080 H 0 Z"
             style="fill:#ffffff;fill-opacity:1;fill-rule:nonzero;stroke:none"
             id="path22" /></g></g></g><text
       transform="matrix(1,0,0,-1,99,898.22)"
       style="font-variant:normal;font-weight:300;font-stretch:normal;font-size:20px;font-family:'Rubik Light';-inkscape-font-specification:Rubik-Light;writing-mode:lr-tb;fill:#000000;fill-opacity:1;fill-rule:nonzero;stroke:none"
       id="text26"><tspan
         x="0 4.46 16.26 26.98 31.48 43.18 54.779999 65.699997 75.540001 80.699997 91.318001 98.498001 103.658 108.158 119.078 129.798 139.638 146.81799 151.978 163.138 174.938 185.858 191.01801 195.478 207.278 218.87801 229.798 241.418 252.338 264.138 275.73801 286.65799 298.29599 305.47601 310.63599 322.23599 326.69601 333.41599 344.336 355.056 362.23599 373.396 379.27399 384.034 388.67401 399.37399 411.194 417.914 428.83401 439.754"
         y="0"
         id="tspan24">includes at least one independent director. Three </tspan></text><text
       transform="matrix(1,0,0,-1,99,872.22)"
       style="font-variant:normal;font-weight:300;font-stretch:normal;font-size:20px;font-family:'Rubik Light';-inkscape-font-specification:Rubik-Light;writing-mode:lr-tb;fill:#000000;fill-opacity:1;fill-rule:nonzero;stroke:none"
       id="text30"><tspan
         x="0 11.02 18.219999 23.379999 30.559999 42.380001 53.299999 58.060001 65.040001 76.199997 87.900002 94.379997 99.540001 112.6 123.76 134.48 141.17999 152.78 157.94 168.96001 175.698 180.858 194.39799 198.858 205.578 216.498 227.218 234.39799 245.558 252.51801 261.758 266.01801 271.17801 281.89801 293.05801 310.61801 328.17801 332.638 339.81799 346.99799 357.918 368.83801 378.67801 383.83801 394.55801 401.276 412.19601 417.35599 429.17599 440.09601 450.81601 462.41599 473.336 484.936"
         y="0"
         id="tspan28">of the four Board of Directors’ committees are headed </tspan></text><text
       transform="matrix(1,0,0,-1,99,846.22)"
       style="font-variant:normal;font-weight:300;font-stretch:normal;font-size:20px;font-family:'Rubik Light';-inkscape-font-specification:Rubik-Light;writing-mode:lr-tb;fill:#000000;fill-opacity:1;fill-rule:nonzero;stroke:none"
       id="text56"><tspan
         x="0 11.22 21.32 26.48 30.940001 42.740002 54.34 65.260002 76.879997 87.800003 99.599998 111.2 122.12 133.758 140.938 146.09801 157.698 162.158 168.87801 179.798 190.51801 197.698 208.858 215.81799 225.658"
         y="0"
         id="tspan32">by independent directors.</tspan><tspan
         x="0 10.7 22.52 33.439999 38.599998 43.060001 54.860001 66.459999 77.379997 89 99.919998 111.72 123.32 134.24001 145.87801 153.058 158.218 169.81799 174.278 180.998 191.918 202.638 209.81799 220.978 227.938 237.778 242.938 254.09801 265.89801 270.616 277.79599 289.616 300.53601 305.69601 318.75601 329.91599 340.63599 347.336 358.936 364.09601 381.65601 392.57599 403.41599 410.59601 415.314 422.49399 434.314 445.23401"
         y="39"
         id="tspan34">The independent directors on the Board meet the </tspan><tspan
         x="0 10.72 17.68 22.139999 29.32 40.240002 47.200001 51.66 62.380001 67.139999 74.117996 85.278 91.758003 96.917999 101.378 113.178 124.778 135.698 147.31799 158.23801 170.03799 181.638 192.558 204.358 215.078 225.998 231.158 237.87601 248.79601 259.51599 270.67599 288.23599 305.79599 316.716 328.51599 340.116 351.03601 362.63599 367.79599 379.01401 389.11401 393.836 401.01599 412.836 423.75601"
         y="65"
         id="tspan36">criteria for independence recommended by the </tspan><tspan
         x="0 13.02 24.18 31.139999 42.759998 53.919998 60.720001 71.339996 78.519997 89.440002 94.599998 107.88 118.678 129.03999 139.96001 146.92 158.72 169.44 181.24001 191.96001"
         y="91"
         id="tspan38">Corporate Governance</tspan><tspan
         x="0 13.02 24.18 35.779999 46.700001 51.439999 56.139999 71.860001 83.68 88.139999 98.860001 110.68 115.84 125.68 132.86 137.32001 148.94 160.64 165.14 175.758 182.938 193.858 203.698 208.416 215.59599 227.416 238.036 245.216 250.37601 254.836 266.63599 278.23599 289.15601 300.776 311.69601 323.496 335.09601 346.01599 357.65601 364.836 369.996 381.59601 386.056 392.77399 403.694 414.414 421.59399 432.754 439.71399 449.55399"
         y="130"
         id="tspan40">Code, which stipulates that independent directors </tspan><tspan
         x="0 9.8400002 21.66 32.82 44.52 49.02 60.619999 65.778 77.598 88.157997 98.517998 109.438 114.598 126.398 137.558 142.278 149.45799 153.918 164.838 174.67799 179.39799 186.578 197.73801"
         y="156"
         id="tspan42">should have no ties to:</tspan><tspan
         x="0 7.5999999 18 25.18 37 47.919998 53.080002 66.099998 77.260002 94.82 106.44 117.16 128.658"
         y="195"
         id="tspan44">• the Company</tspan><tspan
         x="0 7.5999999 18 27.84 32.299999 43.919998 55.720001 60.18 67.379997 71.839996 82.559998 93.279999 104.918 112.098 117.258 130.278 141.438 158.998 170.618 181.338 192.838 202.938 208.09801 217.938 229.758 240.478 247.196 258.116 269.936 281.09601 285.59601 297.19601 308.116 315.07599"
         y="234"
         id="tspan46">• significant Company shareholders</tspan><tspan
         x="0 7.5999999 18 27.84 32.299999 43.919998 55.720001 60.18 67.379997 71.839996 82.559998 93.279999 104.918 112.098 117.258 130.278 141.438 158.998 170.618 181.338 192.838 202.938 208.09801 217.938 229.638 241.23801 251.95799 263.11801 274.75601 281.936 288.73599 299.45599 310.17599 317.35599 328.51599 335.47601"
         y="273"
         id="tspan48">• significant Company subcontractors</tspan><tspan
         x="0 7.5999999 18 28.719999 39.880001 57.439999 69.059998 79.900002 87.080002 91.540001 98.720001 109.88 116.84 126.68 131.84 142.858 149.59801 154.31799 161.498 173.31799 184.23801 189.39799 202.418 213.578 231.138 242.758 253.478 264.978"
         y="312"
         id="tspan50">• competitors of the Company</tspan><tspan
         x="0 7.5999999 18 25.18 37 47.919998 53.080002 62.919998 70.099998 80.720001 87.900002 98.82 103.98 109.898 117.078 128.89799 139.81799 144.978 157.778 169.478 179.31799 189.158 193.618 204.338 216.138 221.298 232.45599 243.37601 254.976 265.896 272.69601 283.31601 290.496 294.95599 306.116 317.91599 323.07599 334.23599 340.716 345.87601 350.336 357.51599 367.35599 372.51599 383.23599 394.396 406.19601 416.03601 423.216 427.67599 434.85599 446.556 457.47601 469.11401 476.29401"
         y="351"
         id="tspan52">• the state (the Russian Federation or its constituent </tspan><tspan
         x="18 28.92 40.560001 47.740002 52.200001 59.380001 63.84 74.760002 83.737999 90.117996 95.278 106.438 112.918 118.078 135.638 147.338 159.138 163.59801 174.31799 178.778 190.39799 201.118 205.618 210.778 221.698 233.336 240.51601 244.976 252.15601 256.616 267.53601"
         y="377"
         id="tspan54">entities) or municipal entities</tspan></text><text
       transform="matrix(1,0,0,-1,693,953.8201)"
       style="font-variant:normal;font-weight:500;font-stretch:normal;font-size:28px;font-family:'Rubik Medium';-inkscape-font-specification:Rubik-Medium;writing-mode:lr-tb;fill:#000000;fill-opacity:1;fill-rule:nonzero;stroke:none"
       id="text62"><tspan
         x="0 18.704 34.888 52.080002 68.683998 80.416 92.484001 98.867996 115.472 132.972 138.7932 150.86121 168.50121 184.6852 190.4532 213.02119 229.6252 241.35719 256.61719 263.00119 279.43719 290.46921 296.29321 308.36121 326.00119 342.18521 348.56921 365.11719 376.6532 392.83719 400.2572 417.50519 434.9772 447.0452 453.4292 472.88919 490.38919 506.57321"
         y="0"
         id="tspan58">Report on the work of the Freight One </tspan><tspan
         x="0 19.236 35.84 51.855999 63.363998 80.556 86.940002 103.376 114.408 120.792 140.476 147.896 159.4292 175.6132 191.6292 203.6972 220.30119 232.0332 246.9572 253.3412 260.7612 278.2612 284.6452 302.00519 320.45721 337.8172"
         y="33.992001"
         id="tspan60">Board of Directors in 2020</tspan></text><text
       transform="matrix(1,0,0,-1,693,841.8201)"
       style="font-variant:normal;font-weight:300;font-stretch:normal;font-size:20px;font-family:'Rubik Light';-inkscape-font-specification:Rubik-Light;writing-mode:lr-tb;fill:#000000;fill-opacity:1;fill-rule:nonzero;stroke:none"
       id="text122"><tspan
         x="0 10.7 22.52 26.98 33.939999 41.119999 52.040001 62.959999 74.760002 79.919998 97.480003 108.4 119.238 126.418 130.87801 142.67799 154.298 164.138 169.298 180.31799 187.058 191.778 198.95799 210.778 221.698 226.858 239.918 251.078 261.798 268.496 280.09601 285.25601 296.276 303.01599 308.17599 321.716 326.17599 332.896 343.81601 354.53601 361.716 372.87601 379.836 389.67599 394.37601 409.836 420.75601 427.47601 438.396 443.556 455.37601 466.29599 470.79599 482.396 487.556 492.01599 503.81601"
         y="0"
         id="tspan64">Thirteen meetings of the Board of Directors were held in </tspan><tspan
         x="0 11.2 23.52 34.720001 46.66 51.400002 56.560001 61.02 72.82 83.540001 88.040001 99.739998 111.34 115.8 127.6 139.22 143.938 151.118 162.938 169.658 180.578 191.498 196.658 207.87801 217.978 222.59801 233.31799 237.778 249.37801 260.298 271.45801 276.61801 287.33801 298.49799 310.116 317.09601 328.01599 334.73599 345.65601 357.45599 368.17599 379.09601 383.836 388.996 399.716 411.51599 423.116 427.836 435.01599 445.936 457.73599 462.896 474.11401 484.216"
         y="26"
         id="tspan66">2020, including three by video conference, and ten by </tspan><tspan
         x="0 10.72 21.879999 28.84 35.560001 46.48 56.32 67.940002 79.099998 90.900002 102.5 113.42 125.22 135.94 146.86"
         y="52"
         id="tspan68">correspondence.</tspan><tspan
         x="0 10.7 22.52 33.439999 38.599998 51.66 62.82 73.540001 80.239998 91.839996 97 108.02 114.76 119.92 133.46001 137.92 144.638 155.558 166.278 173.45799 184.618 191.578 201.418 206.578 217.298 228.89799 240.058 251.53799 258.71799 269.638 281.23801 285.95599 293.13599 304.95599 315.87601 320.63599 327.616 338.776 343.276 347.776 358.67599 374.396 378.85599 390.65601 402.276 407.436 416.67599 427.23599 437.336"
         y="91"
         id="tspan70">The Board of Directors adopted the following key </tspan><tspan
         x="0 6.7199998 17.639999 27.48 38.639999 43.139999 54.84 62.02 66.480003 77.639999 89.440002 99.279999"
         y="117"
         id="tspan72">resolutions:</tspan><tspan
         x="0 7.5999999 18 30.459999 35.619999 47.419998 59.119999 76.68 88.279999 99.199997 105.68 110.84 121.86 128.60001 133.75999 138.22 149.73801 160.10001 171.02 180.86 188.03999 205.60001 216.52 228.158 235.338 240.498 252.118 258.83801 269.99799 274.65799 285.578 296.298 303.478 313.31799 318.478 329.198 340.99799 352.59799 357.758 368.478 380.09799 386.81601 397.73599 408.65601 426.216 437.13599 448.776 455.95599 465.79599 470.49399 485.95401 496.87399 503.59399 514.51398"
         y="156"
         id="tspan74">• A number of investment projects and agreements were </tspan><tspan
         x="18 28.719999 40.34 51.959999 58.68 69.480003 79.839996 90.760002 102.36 107.52 118.24 128.08 133.24001 144.86 155.58 162.53999 169.72 174.88 185.89799 192.638 197.798 208.87801 215.59801 226.51801 230.978 242.59801 254.258 261.43799 266.59799 279.83801 291.638 301.83801 305.358 315.198 320.358 333.89801 344.47601 354.836 365.75601 370.25601 381.41599 393.03601 410.59601 421.51599 433.15601 440.336 445.496 457.59601 464.776 471.57599 482.19601 489.37601 500.29599 511.91599 521.336"
         y="182"
         id="tspan76">approved as part of Freight One’s Development Strategy.</tspan><tspan
         x="0 7.5999999 18 29.08 35.799999 46.720001 51.18 62.799999 74.459999 81.639999 86.800003 100.04 111.84 122.038 125.558 135.39799 140.558 150.39799 161.31799 172.03799 183.73801 190.698 195.158 202.338 206.798 217.718 227.558 232.718 244.338 251.056 262.216 272.056 283.67599 294.59601 305.31601 312.496 324.19601 334.03601 338.73599 354.17599 364.896 374.73599 379.896 390.616 402.23599 413.85599 420.57401 431.37601 441.73599 452.65601 464.25601"
         y="221"
         id="tspan78">• Freight One’s securities prospectus was approved.</tspan><tspan
         x="0 7.5999999 18 30.459999 35.619999 47.220001 58.139999 68.860001 73.32 83.160004 87.620003 98.779999 110.58 115.278 130.718 141.438 151.278 156.438 173.998 184.718 196.31799 207.23801 211.95799 219.138 230.298 235.45799 247.058 258.758 268.858 274.01801 285.61801 296.33801 307.05801 316.556 321.716 332.79599 339.51599 350.436 354.896 366.51599 378.17599 385.35599 390.51599 403.75601 415.556 425.75601 429.276 439.116 444.276 455.87601 467.03601 478.836 490.436 500.276 505.01599"
         y="260"
         id="tspan80">• A decision was made to buy back Freight One’s bonds, </tspan><tspan
         x="18 27.84 39.540001 51.139999 55.799999 66.720001 77.440002 84.620003 89.339996 96.519997 107.68 112.84 123.56 135.17999 141.89999 152.82001 163.74001 181.3 192.22 203.86 211.03999 215.74001 231.46001 235.92 243.10001 254.92 259.64001 266.82001 278.64001 289.56 294.01999 300.49799 305.65799 317.478 328.638 333.138 344.73801 355.65799 362.61801 372.45801"
         y="286"
         id="tspan82">subject to agreement with their holders.</tspan><tspan
         x="0 7.5999999 18 28.700001 40.52 51.439999 56.599998 69.620003 81.440002 92.160004 96.620003 103.58 121.14 131.86 143.66 148.82001 159.838 166.578 171.298 178.478 190.298 201.218 206.37801 219.438 230.59801 241.31799 248.01801 259.61801 264.77802 275.798 282.53799 287.698 301.23801 305.698 312.41599 323.336 334.056 341.23599 352.396 359.35599 369.19601 373.936 378.556 391.556 396.056 406.81601 417.09601 427.81601 439.616 451.216 462.13599 468.616"
         y="325"
         id="tspan84">• The Chairman of the Board of Directors, Alexander </tspan><tspan
         x="18 29.74 40.900002 45.400002 56.560001 66.400002 78.220001 82.68 94.480003 99.220001 103.918 119.358 130.078 139.918 145.078 156.67799 167.59801 178.51801 196.078 206.998 218.59801 223.31799 230.498 241.658 246.81799 264.37799 275.298 286.13599 293.31601 298.03601 305.216 317.03601 327.95599 333.116 343.836 350.79599 355.25601 362.436 373.35599 380.31601 384.776 395.496 400.254 407.23401 418.39401 424.87601"
         y="351"
         id="tspan86">Voloshin, was deemed to meet the criteria for </tspan><tspan
         x="18 22.459999 34.259998 45.860001 56.779999 68.400002 79.32 91.120003 102.72 113.64 125.278 132.45799 137.618 149.218 153.67799 160.39799 171.31799 182.03799 189.218 200.37801 206.858 212.01801 221.858 229.03799 239.658 246.838 258.53799 268.37799"
         y="377"
         id="tspan88">independent director status.</tspan><tspan
         x="594 601.59998 612 624.67999 635.59998 646.32001 657.47998 675.03998 692.59998 703.52002 715.32001 726.91998 737.53998 744.71997 749.17999 760.34003 772.14001 781.97998 786.67798 802.138 813.05798 819.77802 830.698 835.85797 847.45801 858.03802 868.39801 879.31799 883.81799 894.97803 906.59802 917.51801 929.11798 933.87598 940.85602 952.01599 958.49597 963.65601 975.25598 986.17603 996.896 1001.356 1011.196 1015.656 1026.816 1038.616 1048.356 1065.916 1076.636 1086.376 1090.8361 1102.636 1114.256"
         y="-119.48"
         id="tspan90">• Recommendations were developed for decision-making </tspan><tspan
         x="612 623.21997 633.32001 638.47998 649.56 656.28003 667.20001 671.65997 683.28003 694.94 702.12 707.28003 720.52002 732.32001 742.51801 746.03802 755.87799 761.03802 770.87799 782.03802 786.53802 797.45801 802.61798 812.45801 824.27802 834.99799 841.716 852.63599 864.45599 875.61603 880.11603 891.716 902.63599 908.51599"
         y="-93.480003"
         id="tspan92">by Freight One’s sole shareholder.</tspan><tspan
         x="594 601.59998 612 625.02002 636.17999 653.73999 671.29999 675.76001 682.94 690.12 701.03998 711.96002 721.79999 726.49799 741.95801 752.87799 759.59802 770.51801 775.27802 782.258 793.41803 800.37799 817.93799 828.85797 840.45801 845.61798 857.31799 869.11798 880.71802 891.638 898.11603 902.836 910.01599 921.836 932.75598 937.91602 950.97601 962.13599 972.85602 979.55603 991.15601 996.31598 1007.336 1014.076 1019.236 1032.776 1037.236 1043.9561 1054.876 1065.5959 1072.776 1083.936 1090.896 1100.736 1105.476"
         y="-54.48"
         id="tspan94">• Committees were formed under the Board of Directors, </tspan><tspan
         x="612 616.46002 628.26001 638.97998 643.47998 655.17999 666.78003 671.23999 683.03998 694.65997 699.37799 706.55798 718.37799 729.29797 734.45801 746.258 756.91803 772.17798 777.33801 790.87799 795.33801 806.95801 811.41803 818.59802 829.31799 833.81799 838.97803 852.51801 863.09601 873.45599 884.37598 888.87598 900.03601 911.65601 929.216 940.13599 951.776 958.95599 964.11603 977.13599 988.29602 1005.856 1023.416 1027.876 1035.056 1042.236 1053.156"
         y="-28.48"
         id="tspan96">including the new Digital Development Committee</tspan><tspan
         x="594 601.59998 612 623.65997 634.38 641.34003 645.79999 656.96002 668.65997 678.5 683.65997 688.12 699.758 706.93799 717.85797 724.81799 736.61798 747.33801 751.83801 756.99799 768.59802 779.758 790.47803 802.17798 819.73798 830.65802 842.29602 849.47601 859.31598 864.05603 869.216 879.05603 890.75598 901.47601 913.29602 918.45599 929.17603 939.01599 943.73602 950.91602 962.73602 973.65601 978.81598 991.49402 1002.414 1014.034 1025.734 1030.234 1040.854 1048.0341 1052.494 1063.6541 1075.454 1085.2939"
         y="10.52"
         id="tspan98">• Various internal documents, such as the Regulations </tspan><tspan
         x="612 623.15997 634.96002 639.67999 646.85999 658.67999 669.59998 674.76001 679.78003 691.41998 698.59998 709.52002 716.47998 728.28003 739 743.5 748.11798 760.97803 772.67798 784.27802 788.73798 795.91803 801.078 814.61798 825.53802 837.15802 847.87799 854.83801 862.01801 879.578 890.49799 902.13599 909.31598 914.05603 919.216 929.93597 935.09601 946.896 957.55603 972.81598 977.43597 987.79602 998.716 1005.676 1015.516 1019.976 1031.136 1042.936 1048.0959 1059.116 1065.856"
         y="36.52"
         id="tspan100">on the Internal Audit Department, a new version of </tspan><tspan
         x="612 619.17999 631 641.91998 647.08002 659.76001 670.67999 682.29999 694 698.5 709.11798 716.29797 720.758 731.91803 743.71802 753.55798 758.71802 769.87799 781.67798 786.39801 793.578 805.39801 816.31799 820.93799 833.79797 845.49799 857.09802 861.55798 868.73798 873.89801 886.91803 898.078 915.638 933.198 937.65802 944.83801 952.01801 962.93799 973.85797 978.59802 983.758 994.47803 1006.278 1017.878 1022.596 1029.776 1041.5959 1052.516 1057.676 1069.476 1080.134 1095.394"
         y="62.52"
         id="tspan102">the Regulations on the Audit Committee, and the new </tspan><tspan
         x="612 624.67999 635.59998 647.21997 658.91998 663.41998 674.03998 681.21997 685.67999 696.84003 708.64001 718.47998 723.64001 734.79999 746.59998 751.31799 758.49799 770.31799 781.23798 786.39801 799.93799 804.39801 816.01801 820.47803 827.65802 838.37799 842.87799 848.03802 861.578 872.15601 882.51599 893.43597 897.93597 909.09601 920.716 938.276 949.19598 960.836 968.01599 973.17603 986.19598 997.35602 1014.916 1032.476 1036.936 1044.116 1051.296 1062.2159 1073.136 1077.876 1082.574 1098.0341 1108.954 1115.674 1126.594"
         y="88.519997"
         id="tspan104">Regulations on the Digital Development Committee, were </tspan><tspan
         x="612 622.71997 634.34003 645.96002 652.67999 663.47998 673.84003 684.76001 696.35999"
         y="114.52"
         id="tspan106">approved.</tspan><tspan
         x="594 601.59998 612 622.70001 634.52002 645.44 650.59998 663.28003 674.20001 685.82001 697.52002 702.02002 712.64001 719.82001 724.28003 735.44 747.23999 757.08002 762.23999 773.40002 785.20001 789.81799 802.81799 812.65802 822.49799 833.41803 843.258 853.09802 870.65802 881.578 893.216 900.396 905.55603 916.57599 923.31598 928.03601 935.216 947.03601 957.95599 963.11603 975.53601 986.45599 993.41602 1000.396 1011.556 1018.516 1036.076 1046.796 1058.5959 1069.316 1080.236 1085.396 1096.416 1103.1541"
         y="153.52"
         id="tspan108">• The Regulations on Assessment of the Performance of </tspan><tspan
         x="612 619.17999 631 641.91998 647.08002 660.14001 671.29999 682.02002 688.71997 700.32001 705.47998 716.5 723.23999 728.40002 741.94 746.40002 753.11798 764.03802 774.758 781.93799 793.09802 800.05798 809.89801 814.59802 830.05798 840.97803 847.698 858.61798 863.77802 874.49799 886.11798 897.73798 904.45599 915.258 925.61798 936.53802 948.138 952.87799 958.03802 968.758 980.55798 992.15802 996.87598 1004.056 1015.876 1026.796 1031.9561 1038.676 1049.5959 1059.436 1071.136 1075.636 1082.816 1092.656 1097.816 1108.834 1115.574"
         y="179.52"
         id="tspan110">the Board of Directors were approved, and the results of </tspan><tspan
         x="612 619.17999 631 641.91998 647.08002 658.28003 670.59998 678.56 690 695.15997 705.88 715.71997 725.56 736.47998 746.32001 756.15997 773.71997 784.64001 796.27802 803.45801 808.15802 823.61798 834.53802 841.258 852.17798 857.33801 864.05603 874.63599 885.35602 889.81598 900.47601 915.93597 926.85602 938.45599"
         y="205.52"
         id="tspan112">the 2019 assessment were reviewed.</tspan><tspan
         x="594 601.59998 612 622.70001 634.52002 645.44 650.59998 661.32001 673.02002 684.62 689.08002 696.26001 707.41998 714.38 717.89801 727.73798 732.49799 739.47803 750.39801 761.31799 766.078 773.05798 784.21802 790.698 795.85797 807.05798 819.37799 830.578 842.89801 847.59802 863.03802 873.758 883.59802 888.758 900.35797 911.27802 921.99799 926.45801 938.05798 948.97803 960.578"
         y="244.52"
         id="tspan114">• The auditor’s fee for 2020 was decided.</tspan><tspan
         x="594 601.59998 612 624.67999 635.59998 646.32001 657.47998 675.03998 692.59998 703.52002 715.32001 726.91998 737.53998 744.71997 749.17999 760.34003 772.14001 781.97998 787.14001 798.29999 810.09998 814.81799 821.99799 833.81799 844.73798 849.89801 861.51801 872.05798 882.698 900.258 911.17798 922.81799 929.99799 935.15802 946.17798 952.91803 958.078 969.67798 974.138 984.85797 989.31799 1000.918 1011.838 1023.638 1035.238 1045.078 1049.776 1065.236 1076.156 1082.876 1093.796"
         y="283.51999"
         id="tspan116">• Recommendations on the payment of dividends were </tspan><tspan
         x="612 623.59998 634.17999 644.53998 655.46002 659.96002 671.12 682.73999 693.65997 705.26001 710.01801 716.99799 728.15802 734.638 739.35797 746.53802 758.35797 769.27802 774.43597 784.276 796.09601 806.81598 813.53601 824.45599 836.276 847.43597 851.93597 863.53601 874.45599 880.33398"
         y="309.51999"
         id="tspan118">developed for the shareholder.</tspan><tspan
         x="594 601.59998 612 622.70001 634.52002 645.44 650.59998 663.62 674.78003 692.34003 703.96002 714.67999 726.17798 736.81799 740.33801 750.17798 755.33801 766.93799 778.638 790.23798 801.85797 812.698 819.87799 824.638 831.61798 842.77802 849.258 854.41803 865.61798 877.93799 889.138 897.09802 901.79797 917.23798 927.95801 937.79797 942.95801 953.67798 965.29797 976.91803 983.63599 994.43597 1004.796 1015.716 1027.316"
         y="348.51999"
         id="tspan120">• The Company’s budget for 2021 was approved.</tspan></text><g
       id="g124"
       transform="translate(693,258.7998)"><path
         d="M 0,0 H 491"
         style="fill:none;stroke:#f0f0f5;stroke-width:1;stroke-linecap:butt;stroke-linejoin:miter;stroke-miterlimit:10;stroke-dasharray:none;stroke-opacity:1"
         id="path126" /></g><g
       id="g128"
       transform="translate(1184,258.7998)"><path
         d="M 0,0 H 73"
         style="fill:none;stroke:#f0f0f5;stroke-width:1;stroke-linecap:butt;stroke-linejoin:miter;stroke-miterlimit:10;stroke-dasharray:none;stroke-opacity:1"
         id="path130" /></g><g
       id="g132"
       transform="translate(1305,258.7998)"><path
         d="M 0,0 H 389"
         style="fill:none;stroke:#f0f0f5;stroke-width:1;stroke-linecap:butt;stroke-linejoin:miter;stroke-miterlimit:10;stroke-dasharray:none;stroke-opacity:1"
         id="path134" /></g><g
       id="g136"
       transform="translate(1694,258.7998)"><path
         d="M 0,0 H 100"
         style="fill:none;stroke:#f0f0f5;stroke-width:1;stroke-linecap:butt;stroke-linejoin:miter;stroke-miterlimit:10;stroke-dasharray:none;stroke-opacity:1"
         id="path138" /></g><g
       id="g140"
       transform="translate(693,216.0999)"><path
         d="M 0,0 H 491"
         style="fill:none;stroke:#f0f0f5;stroke-width:1;stroke-linecap:butt;stroke-linejoin:miter;stroke-miterlimit:10;stroke-dasharray:none;stroke-opacity:1"
         id="path142" /></g><g
       id="g144"
       transform="translate(1184,216.0999)"><path
         d="M 0,0 H 73"
         style="fill:none;stroke:#f0f0f5;stroke-width:1;stroke-linecap:butt;stroke-linejoin:miter;stroke-miterlimit:10;stroke-dasharray:none;stroke-opacity:1"
         id="path146" /></g><g
       id="g148"
       transform="translate(1305,216.0999)"><path
         d="M 0,0 H 389"
         style="fill:none;stroke:#f0f0f5;stroke-width:1;stroke-linecap:butt;stroke-linejoin:miter;stroke-miterlimit:10;stroke-dasharray:none;stroke-opacity:1"
         id="path150" /></g><g
       id="g152"
       transform="translate(1694,216.0999)"><path
         d="M 0,0 H 100"
         style="fill:none;stroke:#f0f0f5;stroke-width:1;stroke-linecap:butt;stroke-linejoin:miter;stroke-miterlimit:10;stroke-dasharray:none;stroke-opacity:1"
         id="path154" /></g><g
       id="g156"
       transform="translate(693,173.3999)"><path
         d="M 0,0 H 491"
         style="fill:none;stroke:#f0f0f5;stroke-width:1;stroke-linecap:butt;stroke-linejoin:miter;stroke-miterlimit:10;stroke-dasharray:none;stroke-opacity:1"
         id="path158" /></g><g
       id="g160"
       transform="translate(1184,173.3999)"><path
         d="M 0,0 H 73"
         style="fill:none;stroke:#f0f0f5;stroke-width:1;stroke-linecap:butt;stroke-linejoin:miter;stroke-miterlimit:10;stroke-dasharray:none;stroke-opacity:1"
         id="path162" /></g><g
       id="g164"
       transform="translate(1305,173.3999)"><path
         d="M 0,0 H 389"
         style="fill:none;stroke:#f0f0f5;stroke-width:1;stroke-linecap:butt;stroke-linejoin:miter;stroke-miterlimit:10;stroke-dasharray:none;stroke-opacity:1"
         id="path166" /></g><g
       id="g168"
       transform="translate(1694,173.3999)"><path
         d="M 0,0 H 100"
         style="fill:none;stroke:#f0f0f5;stroke-width:1;stroke-linecap:butt;stroke-linejoin:miter;stroke-miterlimit:10;stroke-dasharray:none;stroke-opacity:1"
         id="path170" /></g><g
       id="g172"
       transform="translate(693,130.7)"><path
         d="M 0,0 H 491"
         style="fill:none;stroke:#f0f0f5;stroke-width:1;stroke-linecap:butt;stroke-linejoin:miter;stroke-miterlimit:10;stroke-dasharray:none;stroke-opacity:1"
         id="path174" /></g><g
       id="g176"
       transform="translate(1184,130.7)"><path
         d="M 0,0 H 73"
         style="fill:none;stroke:#f0f0f5;stroke-width:1;stroke-linecap:butt;stroke-linejoin:miter;stroke-miterlimit:10;stroke-dasharray:none;stroke-opacity:1"
         id="path178" /></g><g
       id="g180"
       transform="translate(1305,130.7)"><path
         d="M 0,0 H 389"
         style="fill:none;stroke:#f0f0f5;stroke-width:1;stroke-linecap:butt;stroke-linejoin:miter;stroke-miterlimit:10;stroke-dasharray:none;stroke-opacity:1"
         id="path182" /></g><g
       id="g184"
       transform="translate(1694,130.7)"><path
         d="M 0,0 H 100"
         style="fill:none;stroke:#f0f0f5;stroke-width:1;stroke-linecap:butt;stroke-linejoin:miter;stroke-miterlimit:10;stroke-dasharray:none;stroke-opacity:1"
         id="path186" /></g><text
       transform="matrix(1,0,0,-1,693,270.7998)"
       style="font-variant:normal;font-weight:500;font-stretch:normal;font-size:20px;font-family:'Rubik Medium';-inkscape-font-specification:Rubik-Medium;writing-mode:lr-tb;fill:#000000;fill-opacity:1;fill-rule:nonzero;stroke:none"
       id="text190"><tspan
         x="0 13.9 19.219999 30.780001 43.099998 47.66 61.400002 72.839996 85.160004 93.540001 98.839996 111.34"
         y="0"
         id="tspan188">Oleg Bagrin </tspan></text><text
       transform="matrix(1,0,0,-1,1184,270.7998)"
       style="font-variant:normal;font-weight:300;font-stretch:normal;font-size:20px;font-family:'Rubik Light';-inkscape-font-specification:Rubik-Light;writing-mode:lr-tb;fill:#000000;fill-opacity:1;fill-rule:nonzero;stroke:none"
       id="text194"><tspan
         x="0 7.96 19.48 24.639999 35.66 42.400002 47.560001 55.52"
         y="0"
         id="tspan192">13 of 13</tspan></text><text
       transform="matrix(1,0,0,-1,1305,270.7998)"
       style="font-variant:normal;font-weight:500;font-stretch:normal;font-size:20px;font-family:'Rubik Medium';-inkscape-font-specification:Rubik-Medium;writing-mode:lr-tb;fill:#000000;fill-opacity:1;fill-rule:nonzero;stroke:none"
       id="text198"><tspan
         x="0 13.88 26.379999 37.82 48.439999 57.060001 68.5 79.160004 89.82 95.120003 106.56 111.12 122.74 134.17999 146.62 155.24001 166.8 175.17999 187.46001 198.89999 210.34"
         y="0"
         id="tspan196">Anastassia Lauterbach</tspan></text><text
       transform="matrix(1,0,0,-1,1746.44,270.7998)"
       style="font-variant:normal;font-weight:300;font-stretch:normal;font-size:20px;font-family:'Rubik Light';-inkscape-font-specification:Rubik-Light;writing-mode:lr-tb;fill:#000000;fill-opacity:1;fill-rule:nonzero;stroke:none"
       id="text202"><tspan
         x="0 9.7399998 14.9 25.92 32.66 37.82"
         y="0"
         id="tspan200">7 of 7</tspan></text><text
       transform="matrix(1,0,0,-1,693,228.0998)"
       style="font-variant:normal;font-weight:500;font-stretch:normal;font-size:20px;font-family:'Rubik Medium';-inkscape-font-specification:Rubik-Medium;writing-mode:lr-tb;fill:#000000;fill-opacity:1;fill-rule:nonzero;stroke:none"
       id="text206"><tspan
         x="0 13.88 26.26 34.880001 46.740002 59.240002 63.799999 77.540001 88.879997 97.5 109 117.24 128.42"
         y="0"
         id="tspan204">Anton Batyrev</tspan></text><text
       transform="matrix(1,0,0,-1,1184,228.0998)"
       style="font-variant:normal;font-weight:300;font-stretch:normal;font-size:20px;font-family:'Rubik Light';-inkscape-font-specification:Rubik-Light;writing-mode:lr-tb;fill:#000000;fill-opacity:1;fill-rule:nonzero;stroke:none"
       id="text210"><tspan
         x="0 7.96 19.48 24.639999 35.66 42.400002 47.560001 55.52"
         y="0"
         id="tspan208">13 of 13</tspan></text><text
       transform="matrix(1,0,0,-1,1305,228.0998)"
       style="font-variant:normal;font-weight:500;font-stretch:normal;font-size:20px;font-family:'Rubik Medium';-inkscape-font-specification:Rubik-Medium;writing-mode:lr-tb;fill:#000000;fill-opacity:1;fill-rule:nonzero;stroke:none"
       id="text214"><tspan
         x="0 13.5 18.82 30.26 42.540001 47.84 65.900002 71.199997 79.160004 83.720001 95.339996 100.64 111.3 116.6"
         y="0"
         id="tspan212">Vladimir Lisin</tspan></text><text
       transform="matrix(1,0,0,-1,1746.44,228.0998)"
       style="font-variant:normal;font-weight:300;font-stretch:normal;font-size:20px;font-family:'Rubik Light';-inkscape-font-specification:Rubik-Light;writing-mode:lr-tb;fill:#000000;fill-opacity:1;fill-rule:nonzero;stroke:none"
       id="text218"><tspan
         x="0 9.7399998 14.9 25.92 32.66 37.82"
         y="0"
         id="tspan216">7 of 7</tspan></text><text
       transform="matrix(1,0,0,-1,693,185.3998)"
       style="font-variant:normal;font-weight:500;font-stretch:normal;font-size:20px;font-family:'Rubik Medium';-inkscape-font-specification:Rubik-Medium;writing-mode:lr-tb;fill:#000000;fill-opacity:1;fill-rule:nonzero;stroke:none"
       id="text222"><tspan
         x="0 13.9 19.219999 30.780001 43.099998 47.66 61.400002 73.839996 84.879997 90.18 102.68"
         y="0"
         id="tspan220">Oleg Bukin </tspan></text><text
       transform="matrix(1,0,0,-1,1184,185.3998)"
       style="font-variant:normal;font-weight:300;font-stretch:normal;font-size:20px;font-family:'Rubik Light';-inkscape-font-specification:Rubik-Light;writing-mode:lr-tb;fill:#000000;fill-opacity:1;fill-rule:nonzero;stroke:none"
       id="text226"><tspan
         x="0 7.96 19.48 24.639999 35.66 42.400002 47.560001 55.52"
         y="0"
         id="tspan224">13 of 13</tspan></text><text
       transform="matrix(1,0,0,-1,1305,185.3998)"
       style="font-variant:normal;font-weight:500;font-stretch:normal;font-size:20px;font-family:'Rubik Medium';-inkscape-font-specification:Rubik-Medium;writing-mode:lr-tb;fill:#000000;fill-opacity:1;fill-rule:nonzero;stroke:none"
       id="text230"><tspan
         x="0 14.06 32.119999 37.419998 46.040001 54.419998 65.400002 69.959999 81.580002 86.879997 97.540001 102.84"
         y="0"
         id="tspan228">Dmitry Lisin</tspan></text><text
       transform="matrix(1,0,0,-1,1742.84,185.3998)"
       style="font-variant:normal;font-weight:300;font-stretch:normal;font-size:20px;font-family:'Rubik Light';-inkscape-font-specification:Rubik-Light;writing-mode:lr-tb;fill:#000000;fill-opacity:1;fill-rule:nonzero;stroke:none"
       id="text234"><tspan
         x="0 11.44 16.6 27.620001 34.360001 39.52"
         y="0"
         id="tspan232">5 of 6</tspan></text><text
       transform="matrix(1,0,0,-1,693,142.6998)"
       style="font-variant:normal;font-weight:500;font-stretch:normal;font-size:20px;font-family:'Rubik Medium';-inkscape-font-specification:Rubik-Medium;writing-mode:lr-tb;fill:#000000;fill-opacity:1;fill-rule:nonzero;stroke:none"
       id="text238"><tspan
         x="0 13.88 19.200001 30.48 41.619999 53.060001 65.559998 77.839996 89.400002 97.358002 101.398 113.836 125.696 131.01601 142.87601 153.536 166.136 171.436"
         y="0"
         id="tspan236">Alexander Voloshin</tspan></text><text
       transform="matrix(1,0,0,-1,882.096,142.6998)"
       style="font-variant:normal;font-weight:300;font-stretch:normal;font-size:20px;font-family:'Rubik Light';-inkscape-font-specification:Rubik-Light;writing-mode:lr-tb;fill:#000000;fill-opacity:1;fill-rule:nonzero;stroke:none"
       id="text242"><tspan
         x="0 5.7399998 18.76 30.58 41.299999 45.759998 52.720001 70.279999 81 91.958 301.90399 309.86401 321.384 326.54401 337.564 344.30399 349.46399 357.42401"
         y="0"
         id="tspan240">(Chairman)13 of 13</tspan></text><text
       transform="matrix(1,0,0,-1,1305,142.6998)"
       style="font-variant:normal;font-weight:500;font-stretch:normal;font-size:20px;font-family:'Rubik Medium';-inkscape-font-specification:Rubik-Medium;writing-mode:lr-tb;fill:#000000;fill-opacity:1;fill-rule:nonzero;stroke:none"
       id="text246"><tspan
         x="0 16.24 27.68 36.060001 46.959999 51.52 65.419998 75.980003 87.540001 98.040001 106.86 119.3 130.718 141.89999 152.56 163.698"
         y="0"
         id="tspan244">Mark Okes-Voysey</tspan></text><text
       transform="matrix(1,0,0,-1,1726.96,142.6998)"
       style="font-variant:normal;font-weight:300;font-stretch:normal;font-size:20px;font-family:'Rubik Light';-inkscape-font-specification:Rubik-Light;writing-mode:lr-tb;fill:#000000;fill-opacity:1;fill-rule:nonzero;stroke:none"
       id="text250"><tspan
         x="0 7.96 19.48 24.639999 35.66 42.400002 47.560001 55.52"
         y="0"
         id="tspan248">13 of 13</tspan></text><text
       transform="matrix(1,0,0,-1,693,99.9998)"
       style="font-variant:normal;font-weight:500;font-stretch:normal;font-size:20px;font-family:'Rubik Medium';-inkscape-font-specification:Rubik-Medium;writing-mode:lr-tb;fill:#000000;fill-opacity:1;fill-rule:nonzero;stroke:none"
       id="text254"><tspan
         x="0 12.98 24.16 35.279999 46.84 52.16 56.720001 69.379997 74.68 83.059998 94.559998 107 118.04 130.64 142.08 154.45799 163.078 173.73801 184.918 195.89799"
         y="0"
         id="tspan252">Pavel Kiryukhantsev </tspan></text><text
       transform="matrix(1,0,0,-1,1184,99.9998)"
       style="font-variant:normal;font-weight:300;font-stretch:normal;font-size:20px;font-family:'Rubik Light';-inkscape-font-specification:Rubik-Light;writing-mode:lr-tb;fill:#000000;fill-opacity:1;fill-rule:nonzero;stroke:none"
       id="text258"><tspan
         x="0 7.96 19.48 24.639999 35.66 42.400002 47.560001 55.52"
         y="0"
         id="tspan256">13 of 13</tspan></text><text
       transform="matrix(1,0,0,-1,1305,99.9998)"
       style="font-variant:normal;font-weight:500;font-stretch:normal;font-size:20px;font-family:'Rubik Medium';-inkscape-font-specification:Rubik-Medium;writing-mode:lr-tb;fill:#000000;fill-opacity:1;fill-rule:nonzero;stroke:none"
       id="text262"><tspan
         x="0 6 18.32 30.18 38.139999 42.700001 54.540001 66.099998 78.379997 90.239998 98.477997 109.958"
         y="0"
         id="tspan260">Igor Fedorov</tspan></text><text
       transform="matrix(1,0,0,-1,1726.96,99.9998)"
       style="font-variant:normal;font-weight:300;font-stretch:normal;font-size:20px;font-family:'Rubik Light';-inkscape-font-specification:Rubik-Light;writing-mode:lr-tb;fill:#000000;fill-opacity:1;fill-rule:nonzero;stroke:none"
       id="text266"><tspan
         x="0 7.96 19.48 24.639999 35.66 42.400002 47.560001 55.52"
         y="0"
         id="tspan264">13 of 13</tspan></text><text
       transform="matrix(1,0,0,-1,693,325)"
       style="font-variant:normal;font-weight:500;font-stretch:normal;font-size:28px;font-family:'Rubik Medium';-inkscape-font-specification:Rubik-Medium;writing-mode:lr-tb;fill:#000000;fill-opacity:1;fill-rule:nonzero;stroke:none"
       id="text270"><tspan
         x="0 18.591999 30.66 42.728001 58.911999 76.412003 93.603996 109.62 127.12 143.136 159.32001 165.70399 181.57719 193.6452 200.02921 225.3132 241.49719 257.62521 269.69321 277.11319 294.61319 311.86121 326.78519 333.16919 349.60519 360.63721 366.46121 378.52921 396.16919 412.35321 418.73721 437.97321 454.57721 470.5932 482.09839 499.29041 505.67441 522.11041 533.1424 539.52643 559.21039 566.63037 578.16638 594.3504 610.36639 622.43439 639.03839 650.77039 665.6944 672.07843 679.49841 696.99841 703.38239 720.74237 739.1944 756.55438"
         y="0"
         id="tspan268">Attendance at meetings of the Board of Directors in 2020</tspan></text><g
       id="g272"
       transform="translate(267.1209,984)"><path
         d="M 0,0 -9.121,-10.047 0,-20.094 H 27.879 V -10.047 0 Z"
         style="fill:#f0f0f5;fill-opacity:1;fill-rule:nonzero;stroke:none"
         id="path274" /></g><text
       transform="matrix(1,0,0,-1,99,968.3599)"
       style="font-variant:normal;font-weight:300;font-stretch:normal;font-size:16px;font-family:'Rubik Light';-inkscape-font-specification:Rubik-Light;writing-mode:lr-tb;fill:#000000;fill-opacity:1;fill-rule:nonzero;stroke:none"
       id="text278"><tspan
         x="0 10.416 19.344 28.656 34.400002 37.967999 47.408001 56.768002 65.503998 74.783997 78.590401 84.350403 89.726402 98.654404 112.7024 116.8304 126.1264 134.70239 143.9984 152.73441"
         y="0"
         id="tspan276">Continued from page </tspan></text><text
       transform="matrix(1,0,0,-1,269.9264,968.3599)"
       style="font-variant:normal;font-weight:500;font-stretch:normal;font-size:16px;font-family:'Rubik Medium';-inkscape-font-specification:Rubik-Medium;writing-mode:lr-tb;fill:#000000;fill-opacity:1;fill-rule:nonzero;stroke:none"
       id="text282"><tspan
         x="0 9.9359999"
         y="0"
         id="tspan280">58</tspan></text><text
       transform="matrix(1,0,0,-1,38.0602,1023)"
       style="font-variant:normal;font-weight:300;font-stretch:normal;font-size:20px;font-family:'Rubik Light';-inkscape-font-specification:Rubik-Light;writing-mode:lr-tb;fill:#000000;fill-opacity:1;fill-rule:nonzero;stroke:none"
       id="text286"><tspan
         x="0 11.44"
         y="0"
         id="tspan284">59</tspan></text><text
       transform="matrix(1,0,0,-1,99.0002,1023)"
       style="font-variant:normal;font-weight:300;font-stretch:normal;font-size:20px;font-family:'Rubik Light';-inkscape-font-specification:Rubik-Light;writing-mode:lr-tb;fill:#000000;fill-opacity:1;fill-rule:nonzero;stroke:none"
       id="text290"><tspan
         x="0 13.02 24.18 31.139999 42.759998 53.919998 60.720001 71.339996 78.519997 89.440002 94.599998 106.22 117.02 127.38 138.3 145.25999 157.06 167.78 179.58 190.3"
         y="0"
         id="tspan288">Сorporate governance</tspan></text></g></svg>
