<?xml version="1.0" encoding="UTF-8" standalone="no"?>
<?xml-stylesheet type="text/css" href="main.css" ?>
<svg
   xmlns:dc="http://purl.org/dc/elements/1.1/"
   xmlns:cc="http://creativecommons.org/ns#"
   xmlns:rdf="http://www.w3.org/1999/02/22-rdf-syntax-ns#"
   xmlns:svg="http://www.w3.org/2000/svg"
   xmlns="http://www.w3.org/2000/svg"
   version="1.1"
   id="svg2"
   xml:space="preserve"
   width="2560"
   height="1440"
   viewBox="0 0 2560 1440"><metadata
     id="metadata8"><rdf:RDF><cc:Work
         rdf:about=""><dc:format>image/svg+xml</dc:format><dc:type
           rdf:resource="http://purl.org/dc/dcmitype/StillImage" /></cc:Work></rdf:RDF></metadata><defs
     id="defs6"><clipPath
       clipPathUnits="userSpaceOnUse"
       id="clipPath20"><path
         d="M 0,1080 H 1920 V 0 H 0 Z"
         id="path18" /></clipPath></defs><g
     id="g10"
     transform="matrix(1.3333333,0,0,-1.3333333,0,1440)"><g
       id="g12"><g
         id="g14"><g
           id="g16"
           clip-path="url(#clipPath20)"><path
             d="M 0,0 H 1920 V 1080 H 0 Z"
             style="fill:#ffffff;fill-opacity:1;fill-rule:nonzero;stroke:none"
             id="path22" /></g></g></g><text
       transform="matrix(1,0,0,-1,117,807.0804)"
       style="font-variant:normal;font-weight:normal;font-stretch:normal;font-size:28px;font-family:'Prosto One';-inkscape-font-specification:ProstoOne-Regular;writing-mode:lr-tb;fill:#000000;fill-opacity:1;fill-rule:nonzero;stroke:none"
       id="text28"><tspan
         x="0 22.959999 41.580002 61.459999 82.879997 105.84 129.92 153.44 173.32001 195.72"
         y="0"
         id="tspan24">ALEXANDER </tspan><tspan
         x="0 23.24 48.439999 67.059998 92.260002 113.26 136.78 144.75999"
         y="33.599998"
         id="tspan26">VOLOSHIN</tspan></text><text
       transform="matrix(1,0,0,-1,99,717.4804)"
       style="font-variant:normal;font-weight:normal;font-stretch:normal;font-size:18px;font-family:Rubik;-inkscape-font-specification:Rubik-Regular;writing-mode:lr-tb;fill:#fdb73e;fill-opacity:1;fill-rule:nonzero;stroke:none"
       id="text32"><tspan
         x="0 6.8579998"
         y="0"
         id="tspan30">• </tspan></text><text
       transform="matrix(1,0,0,-1,117,717.4804)"
       style="font-variant:normal;font-weight:500;font-stretch:normal;font-size:20px;font-family:'Rubik Medium';-inkscape-font-specification:Rubik-Medium;writing-mode:lr-tb;fill:#000000;fill-opacity:1;fill-rule:nonzero;stroke:none"
       id="text36"><tspan
         x="0 13.7 26.299999 37.740002 43.040001 51.419998 69.480003 80.919998"
         y="0"
         id="tspan34">Chairman</tspan></text><text
       transform="matrix(1,0,0,-1,99,691.4803)"
       style="font-variant:normal;font-weight:normal;font-stretch:normal;font-size:18px;font-family:Rubik;-inkscape-font-specification:Rubik-Regular;writing-mode:lr-tb;fill:#fdb73e;fill-opacity:1;fill-rule:nonzero;stroke:none"
       id="text40"><tspan
         x="0 6.8579998"
         y="0"
         id="tspan38">• </tspan></text><text
       transform="matrix(1,0,0,-1,117,691.4803)"
       style="font-variant:normal;font-weight:500;font-stretch:normal;font-size:20px;font-family:'Rubik Medium';-inkscape-font-specification:Rubik-Medium;writing-mode:lr-tb;fill:#000000;fill-opacity:1;fill-rule:nonzero;stroke:none"
       id="text44"><tspan
         x="0 6 18.5 30.780001 42.34 54.619999 66.18 78.68 90.959999 102.52 114.898 123.518 128.078 140.358 145.658 153.89999 165.46001 176.89999 185.52 197.38"
         y="0"
         id="tspan42">Independent director</tspan></text><text
       transform="matrix(1,0,0,-1,99,665.4803)"
       style="font-variant:normal;font-weight:normal;font-stretch:normal;font-size:18px;font-family:Rubik;-inkscape-font-specification:Rubik-Regular;writing-mode:lr-tb;fill:#fdb73e;fill-opacity:1;fill-rule:nonzero;stroke:none"
       id="text48"><tspan
         x="0 6.8579998"
         y="0"
         id="tspan46">• </tspan></text><text
       transform="matrix(1,0,0,-1,117,665.4803)"
       style="font-variant:normal;font-weight:500;font-stretch:normal;font-size:20px;font-family:'Rubik Medium';-inkscape-font-specification:Rubik-Medium;writing-mode:lr-tb;fill:#000000;fill-opacity:1;fill-rule:nonzero;stroke:none"
       id="text52"><tspan
         x="0 16.24 27.799999 45.860001 58.139999 69.699997 77.660004 82.220001 93.958 101.838 106 114.62 127.22 138.78 143.34 156.2 164.82001 173.03799 184.37801 192.998 204.558 216.87801 222.17799 233.618 238.17799 251.37801 256.698 268.138 280.638 293.138 298.43799 310.93799 323.258 327.81799 341.51801 353.37799 371.43799 389.49799 394.798 403.418 412.03799 423.59799"
         y="0"
         id="tspan50">Member of the Strategic Planning Committee</tspan></text><text
       transform="matrix(1,0,0,-1,99,639.4803)"
       style="font-variant:normal;font-weight:normal;font-stretch:normal;font-size:18px;font-family:Rubik;-inkscape-font-specification:Rubik-Regular;writing-mode:lr-tb;fill:#fdb73e;fill-opacity:1;fill-rule:nonzero;stroke:none"
       id="text56"><tspan
         x="0 6.8579998"
         y="0"
         id="tspan54">• </tspan></text><text
       transform="matrix(1,0,0,-1,117,639.4803)"
       style="font-variant:normal;font-weight:500;font-stretch:normal;font-size:20px;font-family:'Rubik Medium';-inkscape-font-specification:Rubik-Medium;writing-mode:lr-tb;fill:#000000;fill-opacity:1;fill-rule:nonzero;stroke:none"
       id="text60"><tspan
         x="0 16.24 27.799999 45.860001 58.139999 69.699997 77.660004 82.220001 93.958 101.838 106 114.62 127.22 138.78 143.34 157.48 169.34 187.39999 192.7 205.2 216.53799 225.158 230.45799 242.31799 254.81799 265.478 270.03799 281.478 293.978 306.258 310.81799 324.17801 335.73801 353.798 366.23801 378.73801 390.298 398.51599 409.85599 418.47601 423.776 435.63599 448.13599"
         y="0"
         id="tspan58">Member of the Nominations and Remuneration </tspan></text><text
       transform="matrix(1,0,0,-1,117,613.4803)"
       style="font-variant:normal;font-weight:500;font-stretch:normal;font-size:20px;font-family:'Rubik Medium';-inkscape-font-specification:Rubik-Medium;writing-mode:lr-tb;fill:#000000;fill-opacity:1;fill-rule:nonzero;stroke:none"
       id="text64"><tspan
         x="0 13.7 25.559999 43.619999 61.68 66.980003 75.599998 84.220001 95.779999"
         y="0"
         id="tspan62">Committee</tspan></text><text
       transform="matrix(1,0,0,-1,99,587.4803)"
       style="font-variant:normal;font-weight:normal;font-stretch:normal;font-size:18px;font-family:Rubik;-inkscape-font-specification:Rubik-Regular;writing-mode:lr-tb;fill:#fdb73e;fill-opacity:1;fill-rule:nonzero;stroke:none"
       id="text68"><tspan
         x="0 6.8579998"
         y="0"
         id="tspan66">• </tspan></text><text
       transform="matrix(1,0,0,-1,117,587.4803)"
       style="font-variant:normal;font-weight:500;font-stretch:normal;font-size:20px;font-family:'Rubik Medium';-inkscape-font-specification:Rubik-Medium;writing-mode:lr-tb;fill:#000000;fill-opacity:1;fill-rule:nonzero;stroke:none"
       id="text72"><tspan
         x="0 16.24 27.799999 45.860001 58.139999 69.699997 77.660004 82.220001 93.958 101.838 106 114.62 127.22 138.78 143.34 157.39999 162.7 175.02 180.32001 188.94 200.38 205.7 210.25999 224.32001 235.498 246.618 258.17801 263.49799 275.358 287.638 305.698 317.258 329.63599 338.25601 342.81601 356.51599 368.37601 386.436 404.496 409.79599 418.41599 427.03601 438.59601"
         y="0"
         id="tspan70">Member of the Digital Development Committee</tspan></text><text
       transform="matrix(1,0,0,-1,99,533.4803)"
       style="font-variant:normal;font-weight:normal;font-stretch:normal;font-size:18px;font-family:Rubik;-inkscape-font-specification:Rubik-Regular;writing-mode:lr-tb;fill:#fdb73e;fill-opacity:1;fill-rule:nonzero;stroke:none"
       id="text76"><tspan
         x="0 6.8579998"
         y="0"
         id="tspan74">• </tspan></text><text
       transform="matrix(1,0,0,-1,117,533.4803)"
       style="font-variant:normal;font-weight:300;font-stretch:normal;font-size:18px;font-family:'Rubik Light';-inkscape-font-specification:Rubik-Light;writing-mode:lr-tb;fill:#000000;fill-opacity:1;fill-rule:nonzero;stroke:none"
       id="text80"><tspan
         x="0 11.754 21.798 28.062 38.681999 43.02 47.664001 54.827999 65.124001 75.419998"
         y="0"
         id="tspan78">Born: 1956</tspan></text><text
       transform="matrix(1,0,0,-1,99,499.4783)"
       style="font-variant:normal;font-weight:normal;font-stretch:normal;font-size:18px;font-family:Rubik;-inkscape-font-specification:Rubik-Regular;writing-mode:lr-tb;fill:#fdb73e;fill-opacity:1;fill-rule:nonzero;stroke:none"
       id="text84"><tspan
         x="0 6.8579998"
         y="0"
         id="tspan82">• </tspan></text><text
       transform="matrix(1,0,0,-1,117,499.4783)"
       style="font-variant:normal;font-weight:300;font-stretch:normal;font-size:18px;font-family:'Rubik Light';-inkscape-font-specification:Rubik-Light;writing-mode:lr-tb;fill:#000000;fill-opacity:1;fill-rule:nonzero;stroke:none"
       id="text90"><tspan
         x="0 11.952 18.072001 27.719999 38.16 48.689999 58.248001 64.709999 74.538002 84.977997 89.260201 95.740196 101.7882 111.8322 127.6362 132.2802 146.32021 156.3642 165.2202 174.86819 184.67821 198.4122 203.0562 207.5742 218.1942 227.0502 233.51221 237.5262 243.9882 254.5182 260.98019 270.8082 275.45221 285.36841 291.43439"
         y="0"
         id="tspan86">Graduated from Moscow Institute of </tspan><tspan
         x="0 8.3339996 14.454 24.101999 34.722 43.577999 54.035999 64.080002 70.344002 76.806 81.449997 92.106003 102.726 113.184 117.198 127.818 137.646 147.474 153.73801 157.752 168.37199 178.83 183.474 187.48801 198.108 202.752 209.916 220.21201 228.978 239.8824"
         y="23.993999"
         id="tspan88">Transport Engineering in 1978.</tspan></text><text
       transform="matrix(1,0,0,-1,99,441.4823)"
       style="font-variant:normal;font-weight:normal;font-stretch:normal;font-size:18px;font-family:Rubik;-inkscape-font-specification:Rubik-Regular;writing-mode:lr-tb;fill:#fdb73e;fill-opacity:1;fill-rule:nonzero;stroke:none"
       id="text94"><tspan
         x="0 6.8579998"
         y="0"
         id="tspan92">• </tspan></text><text
       transform="matrix(1,0,0,-1,117,441.4823)"
       style="font-variant:normal;font-weight:300;font-stretch:normal;font-size:18px;font-family:'Rubik Light';-inkscape-font-specification:Rubik-Light;writing-mode:lr-tb;fill:#000000;fill-opacity:1;fill-rule:nonzero;stroke:none"
       id="text98"><tspan
         x="0 11.952 18.072001 27.719999 38.16 48.689999 58.248001 64.709999 74.538002 84.977997 89.260201 95.740196 101.7882 111.8322 127.6362 131.8842 138.34621 148.98421 158.81219 162.9702 174.6702 178.7202 182.7702 191.3922 203.8302 214.4502 218.4642 228.50819 239.1282 243.7722 253.81441 263.8584 269.9064 279.73441 283.74841 294.20639 304.82639 309.00241 317.3364 323.45639 333.1044 343.5444 353.37241 357.5304 369.12241 378.77039 388.4184 398.8584 408.6864 424.2204 433.31039 437.95441 441.96841 452.58841 457.23239 464.39639 474.69241 485.81641 496.29239"
         y="0"
         id="tspan96">Graduated from the All-Union Foreign Trade Academy in 1986.</tspan></text><text
       transform="matrix(1,0,0,-1,99,407.4803)"
       style="font-variant:normal;font-weight:normal;font-stretch:normal;font-size:18px;font-family:Rubik;-inkscape-font-specification:Rubik-Regular;writing-mode:lr-tb;fill:#fdb73e;fill-opacity:1;fill-rule:nonzero;stroke:none"
       id="text102"><tspan
         x="0 6.8579998"
         y="0"
         id="tspan100">• </tspan></text><text
       transform="matrix(1,0,0,-1,117,407.4803)"
       style="font-variant:normal;font-weight:300;font-stretch:normal;font-size:18px;font-family:'Rubik Light';-inkscape-font-specification:Rubik-Light;writing-mode:lr-tb;fill:#000000;fill-opacity:1;fill-rule:nonzero;stroke:none"
       id="text108"><tspan
         x="0 14.04 23.868 39.672001 50.112 59.939999 65.772003 70.416 80.334 86.400002 90.648003 97.110001 107.748 117.576 122.22 133.974 144.01801 153.666 159.6942 170.1342 174.7782 184.6962 190.76221 195.4062 207.59219 211.6062 217.65421 227.48219 237.1302 243.59219 253.6362 259.90021 268.7562 273.40021 283.31821 289.38239 293.48639 303.09839 312.7464 323.36639 333.8064 343.49039 352.81439 357.4584 369.6084 372.5784 382.74841 387.03241 391.67639 402.98041 412.64639 424.07639 428.34241 432.98639 444.70441 448.75439 458.5824 468.6264 484.43039 494.25839"
         y="0"
         id="tspan104">Member of the Board of Directors of Yandex N.V. PLC, Cleome </tspan><tspan
         x="0 12.6 22.643999 26.694 37.133999 41.147999 51.768002 62.226002 71.082001 75.725998 85.589996 89.603996 105.408 109.422 115.884 125.712 136.15199 140.418 145.062 154.71001 165.33 175.77 179.92619 191.62621 202.2462 211.8942 215.9442 225.5202 231.98219 235.9962 245.6442 255.29221 259.34219 263.98621 275.70419 281.7504 291.5784 302.0184 306.03241 312.49438 317.1384 328.65839 338.2146 344.67661 348.69061 359.31061 369.76859 373.92661 385.51859 395.97659 405.8046 416.42459 425.82059 434.91061 439.5546 450.67859 460.3446 471.7746"
         y="23.993999"
         id="tspan106">Holdings Limited, and Analytical Credit Rating Agency JLC.</tspan></text><text
       transform="matrix(1,0,0,-1,99,349.4843)"
       style="font-variant:normal;font-weight:normal;font-stretch:normal;font-size:18px;font-family:Rubik;-inkscape-font-specification:Rubik-Regular;writing-mode:lr-tb;fill:#fdb73e;fill-opacity:1;fill-rule:nonzero;stroke:none"
       id="text112"><tspan
         x="0 6.8579998"
         y="0"
         id="tspan110">• </tspan></text><text
       transform="matrix(1,0,0,-1,117,349.4843)"
       style="font-variant:normal;font-weight:300;font-stretch:normal;font-size:18px;font-family:'Rubik Light';-inkscape-font-specification:Rubik-Light;writing-mode:lr-tb;fill:#000000;fill-opacity:1;fill-rule:nonzero;stroke:none"
       id="text116"><tspan
         x="0 12.6 22.643999 26.694 37.133999 45.990002 50.633999 61.254002 71.297997 75.942001 84.797997 91.260002 100.908 109.2222 119.0502 123.6942 127.7082 138.3282 142.9722 152.9442 158.9922 168.82021 172.8342 183.29221 193.78619 200.2482 204.8922 216.8082 227.42821 236.6064 239.7762 248.6322 253.2762 262.1322 272.7702 282.41821 288.46439 298.29239 302.9364 312.58441 322.23239 332.6904 336.70441 343.16641 352.81439 356.86441"
         y="0"
         id="tspan114">Holds no stake in Freight One’s share capital.</tspan></text><text
       transform="matrix(1,0,0,-1,711,807.0804)"
       style="font-variant:normal;font-weight:normal;font-stretch:normal;font-size:28px;font-family:'Prosto One';-inkscape-font-specification:ProstoOne-Regular;writing-mode:lr-tb;fill:#000000;fill-opacity:1;fill-rule:nonzero;stroke:none"
       id="text122"><tspan
         x="0 25.200001 43.82 63.700001 86.660004"
         y="0"
         id="tspan118">OLEG </tspan><tspan
         x="0 22.4 46.48 68.739998 76.720001"
         y="33.599998"
         id="tspan120">BUKIN</tspan></text><text
       transform="matrix(1,0,0,-1,693,717.4804)"
       style="font-variant:normal;font-weight:normal;font-stretch:normal;font-size:18px;font-family:Rubik;-inkscape-font-specification:Rubik-Regular;writing-mode:lr-tb;fill:#fdb73e;fill-opacity:1;fill-rule:nonzero;stroke:none"
       id="text126"><tspan
         x="0 6.8579998"
         y="0"
         id="tspan124">• </tspan></text><text
       transform="matrix(1,0,0,-1,711,717.4804)"
       style="font-variant:normal;font-weight:500;font-stretch:normal;font-size:20px;font-family:'Rubik Medium';-inkscape-font-specification:Rubik-Medium;writing-mode:lr-tb;fill:#000000;fill-opacity:1;fill-rule:nonzero;stroke:none"
       id="text130"><tspan
         x="0 14.06 25.620001 37.900002 50.34 58.959999 69.940002 74.5 88.199997 100.8 112.24 117.54 125.92 143.98 155.42"
         y="0"
         id="tspan128">Deputy Chairman</tspan></text><text
       transform="matrix(1,0,0,-1,693,691.4803)"
       style="font-variant:normal;font-weight:normal;font-stretch:normal;font-size:18px;font-family:Rubik;-inkscape-font-specification:Rubik-Regular;writing-mode:lr-tb;fill:#fdb73e;fill-opacity:1;fill-rule:nonzero;stroke:none"
       id="text134"><tspan
         x="0 6.8579998"
         y="0"
         id="tspan132">• </tspan></text><text
       transform="matrix(1,0,0,-1,711,691.4803)"
       style="font-variant:normal;font-weight:500;font-stretch:normal;font-size:20px;font-family:'Rubik Medium';-inkscape-font-specification:Rubik-Medium;writing-mode:lr-tb;fill:#000000;fill-opacity:1;fill-rule:nonzero;stroke:none"
       id="text138"><tspan
         x="0 16.24 27.799999 45.860001 58.139999 69.699997 77.660004 82.220001 93.958 101.838 106 114.62 127.22 138.78 143.34 156.2 164.82001 173.03799 184.37801 192.998 204.558 216.87801 222.17799 233.618 238.17799 251.37801 256.698 268.138 280.638 293.138 298.43799 310.93799 323.258 327.81799 341.51801 353.37799 371.43799 389.49799 394.798 403.418 412.03799 423.59799"
         y="0"
         id="tspan136">Member of the Strategic Planning Committee</tspan></text><text
       transform="matrix(1,0,0,-1,693,665.4803)"
       style="font-variant:normal;font-weight:normal;font-stretch:normal;font-size:18px;font-family:Rubik;-inkscape-font-specification:Rubik-Regular;writing-mode:lr-tb;fill:#fdb73e;fill-opacity:1;fill-rule:nonzero;stroke:none"
       id="text142"><tspan
         x="0 6.8579998"
         y="0"
         id="tspan140">• </tspan></text><text
       transform="matrix(1,0,0,-1,711,665.4803)"
       style="font-variant:normal;font-weight:500;font-stretch:normal;font-size:20px;font-family:'Rubik Medium';-inkscape-font-specification:Rubik-Medium;writing-mode:lr-tb;fill:#000000;fill-opacity:1;fill-rule:nonzero;stroke:none"
       id="text146"><tspan
         x="0 16.24 27.799999 45.860001 58.139999 69.699997 77.660004 82.220001 93.958 101.838 106 114.62 127.22 138.78 143.34 157.48 169.34 187.39999 192.7 205.2 216.53799 225.158 230.45799 242.31799 254.81799 265.478 270.03799 281.478 293.978 306.258 310.81799 324.17801 335.73801 353.798 366.23801 378.73801 390.298 398.51599 409.85599 418.47601 423.776 435.63599 448.13599"
         y="0"
         id="tspan144">Member of the Nominations and Remuneration </tspan></text><text
       transform="matrix(1,0,0,-1,711,639.4803)"
       style="font-variant:normal;font-weight:500;font-stretch:normal;font-size:20px;font-family:'Rubik Medium';-inkscape-font-specification:Rubik-Medium;writing-mode:lr-tb;fill:#000000;fill-opacity:1;fill-rule:nonzero;stroke:none"
       id="text150"><tspan
         x="0 13.7 25.559999 43.619999 61.68 66.980003 75.599998 84.220001 95.779999"
         y="0"
         id="tspan148">Committee</tspan></text><text
       transform="matrix(1,0,0,-1,693,613.4803)"
       style="font-variant:normal;font-weight:normal;font-stretch:normal;font-size:18px;font-family:Rubik;-inkscape-font-specification:Rubik-Regular;writing-mode:lr-tb;fill:#fdb73e;fill-opacity:1;fill-rule:nonzero;stroke:none"
       id="text154"><tspan
         x="0 6.8579998"
         y="0"
         id="tspan152">• </tspan></text><text
       transform="matrix(1,0,0,-1,711,613.4803)"
       style="font-variant:normal;font-weight:500;font-stretch:normal;font-size:20px;font-family:'Rubik Medium';-inkscape-font-specification:Rubik-Medium;writing-mode:lr-tb;fill:#000000;fill-opacity:1;fill-rule:nonzero;stroke:none"
       id="text158"><tspan
         x="0 16.24 27.799999 45.860001 58.139999 69.699997 77.660004 82.220001 93.958 101.838 106 114.62 127.22 138.78 143.34 157.39999 162.7 175.02 180.32001 188.94 200.38 205.7 210.25999 224.32001 235.498 246.618 258.17801 263.49799 275.358 287.638 305.698 317.258 329.63599 338.25601 342.81601 356.51599 368.37601 386.436 404.496 409.79599 418.41599 427.03601 438.59601"
         y="0"
         id="tspan156">Member of the Digital Development Committee</tspan></text><text
       transform="matrix(1,0,0,-1,693,533.4803)"
       style="font-variant:normal;font-weight:normal;font-stretch:normal;font-size:18px;font-family:Rubik;-inkscape-font-specification:Rubik-Regular;writing-mode:lr-tb;fill:#fdb73e;fill-opacity:1;fill-rule:nonzero;stroke:none"
       id="text162"><tspan
         x="0 6.8579998"
         y="0"
         id="tspan160">• </tspan></text><text
       transform="matrix(1,0,0,-1,711,533.4803)"
       style="font-variant:normal;font-weight:300;font-stretch:normal;font-size:18px;font-family:'Rubik Light';-inkscape-font-specification:Rubik-Light;writing-mode:lr-tb;fill:#000000;fill-opacity:1;fill-rule:nonzero;stroke:none"
       id="text166"><tspan
         x="0 11.754 21.798 28.062 38.681999 43.02 47.664001 54.827999 64.907997 75.384003"
         y="0"
         id="tspan164">Born: 1966</tspan></text><text
       transform="matrix(1,0,0,-1,693,499.4783)"
       style="font-variant:normal;font-weight:normal;font-stretch:normal;font-size:18px;font-family:Rubik;-inkscape-font-specification:Rubik-Regular;writing-mode:lr-tb;fill:#fdb73e;fill-opacity:1;fill-rule:nonzero;stroke:none"
       id="text170"><tspan
         x="0 6.8579998"
         y="0"
         id="tspan168">• </tspan></text><text
       transform="matrix(1,0,0,-1,711,499.4783)"
       style="font-variant:normal;font-weight:300;font-stretch:normal;font-size:18px;font-family:'Rubik Light';-inkscape-font-specification:Rubik-Light;writing-mode:lr-tb;fill:#000000;fill-opacity:1;fill-rule:nonzero;stroke:none"
       id="text178"><tspan
         x="0 11.952 18.072001 27.719999 38.16 48.689999 58.248001 64.709999 74.538002 84.977997 89.260201 95.740196 101.7882 111.8322 127.6362 132.2802 143.1702 152.9982 159.0282 169.48621 179.5302 184.17419 196.09019 202.12019 212.5602 221.3802 232.0182 242.06219 252.68221 256.6962 265.46219 269.4762 279.9162 288.6084 298.4364 303.08041 317.12039 327.1644 336.02039 345.6684 355.47839 369.2124"
         y="0"
         id="tspan172">Graduated from Sergo Ordzhonikidze Moscow </tspan><tspan
         x="0 4.5180001 15.138 23.993999 30.455999 34.470001 40.931999 51.462002 57.924 67.751999 72.396004 82.312202 88.378197 93.022202 107.0622 116.7102 127.3302 136.9782 147.4362 157.26421 173.06821 182.89619 193.37219 199.8342 204.4782 208.4922 219.1122 223.7562 230.9202 241.2162 252.34019 263.4642 267.69241 281.84039 285.8544 292.31641 302.95441 307.59839 317.2464 321.89041 332.33041 342.15839 352.61639 358.6644 368.4924 378.3204"
         y="23.993999"
         id="tspan174">Institute of Management in 1988 with a degree </tspan><tspan
         x="0 4.0139999 14.634 19.278 31.194 37.223999 47.681999 57.330002 67.949997 71.963997 80.783997 90.342003 96.804001 100.818 110.862 121.482 126.126 136.04221 142.1082 146.28419 154.61819 160.7382 170.3862 181.0062 189.8622 200.32021 210.3642 216.6282 223.09019 227.73421 241.7742 251.4222 262.04221 271.69019 282.14819 291.9762 307.78021 317.60818 328.0824 334.5444"
         y="47.987999"
         id="tspan176">in Organization of Transport Management.</tspan></text><text
       transform="matrix(1,0,0,-1,693,417.4883)"
       style="font-variant:normal;font-weight:normal;font-stretch:normal;font-size:18px;font-family:Rubik;-inkscape-font-specification:Rubik-Regular;writing-mode:lr-tb;fill:#fdb73e;fill-opacity:1;fill-rule:nonzero;stroke:none"
       id="text182"><tspan
         x="0 6.8579998"
         y="0"
         id="tspan180">• </tspan></text><text
       transform="matrix(1,0,0,-1,711,417.4883)"
       style="font-variant:normal;font-weight:300;font-stretch:normal;font-size:18px;font-family:'Rubik Light';-inkscape-font-specification:Rubik-Light;writing-mode:lr-tb;fill:#000000;fill-opacity:1;fill-rule:nonzero;stroke:none"
       id="text196"><tspan
         x="0 11.718 22.356001 32.004002 36.018002 42.282001 58.085999 67.734001 78.353996 82.998001 92.9142 98.980202 103.2282 109.6902 120.3282 130.1562 134.8002 146.5542 156.59821 166.2462 172.2762 182.7162 191.5722 196.2162 206.1342 212.2002 216.84419 229.0302 233.0442 239.09039 248.9184 258.56641 265.02841 275.07239 281.3364 290.19241 294.8364 304.75439 310.8204 315.46439 326.3544 336.1824 345.83041 350.4744 361.6524 371.69641 377.96039 384.42239 389.06641 398.98441 405.05042 409.6944 420.58441 430.23239 434.2464 444.72061 450.96661"
         y="0"
         id="tspan184">Chairman of the Boards of Directors of Sea Port of Saint-</tspan><tspan
         x="0 11.178 20.934 27.396 37.223999 43.487999 52.344002 62.784 73.314003 79.342201 89.800201 94.444199 105.5682 116.4582 127.8882 132.15421 136.3302 144.68221 155.2122 164.8602 175.31821 184.17419 194.0022 198.64619 210.3642 220.4082 236.2122 252.0162 261.84421 267.89041 277.53839 281.5524 291.20041 295.2504 299.89441 310.78439 320.6124 330.26041 334.90439 346.0824 356.1264 362.39041 368.85239 373.4964 384.62039 395.51041 406.9404 411.20639 415.8504 426.11041 430.12439 436.3884 445.24438 451.70639"
         y="23.993999"
         id="tspan186">Petersburg JSC, Tuapse Commercial Sea Port JSC, First </tspan><tspan
         x="0 11.178 21.222 27.486 33.948002 38.591999 50.310001 60.354 76.157997 86.615997 96.264 106.6122 115.7022 120.3462 131.4702 142.3602 153.79021 158.0562 162.7002 172.34821 182.9682 193.4082 197.5482 208.1142 218.1582 222.20821 232.6662 242.31419 246.95821 257.84821 268.48621 272.50021 282.95819 293.4162 297.43021 308.0502 318.50821 323.15219 334.87021 344.91422 360.7182 371.17621 380.82419 391.17239 400.26239 404.9064 416.0304 426.92041 438.6384 443.30042"
         y="47.987999"
         id="tspan188">Port Company JSC, and Volga Shipping Company JSC; </tspan><tspan
         x="0 15.804 25.632 41.436001 51.875999 61.703999 67.536003 72.18 82.098 88.162201 92.412003 98.874001 109.512 119.34 123.984 135.73801 145.782 155.42999 161.45821 171.89819 176.54221 186.46021 192.5262 197.1702 209.3562 213.37019 219.4182 229.2462 238.8942 245.3562 255.40021 261.66422 270.5202 275.16422 285.08041 291.14639 295.79041 306.05042 310.1004 319.85641 326.31839 335.9664 346.6044 356.4324 362.2644 366.90839 378.86041 384.90839 394.95239 405.48239 415.9404 420.58441 433.18439 443.22839 447.27841 457.71841 461.73239 472.35239 482.81039 491.66641"
         y="71.982002"
         id="tspan190">member of the Board of Directors of Fletcher Group Holdings </tspan><tspan
         x="0 9.8640003 13.878 29.681999 33.695999 40.158001 49.986 60.425999 65.087997 69.732002 85.536003 95.363998 111.168 121.608 131.436 137.2662 141.9102 151.8282 157.8942 162.1422 168.6042 179.2422 189.07021 193.7142 205.0182 211.1364 220.78439 230.6124 239.4684 243.48241 253.92239 257.9364 268.4664 284.27039 288.9144 298.8324 304.89661 309.14639 315.6084 326.2464 336.0744 340.71841 353.1564 363.7764 367.79041 377.83441 388.45441 393.09839 403.01459 409.0806 413.72461 425.2446 434.89261 438.90659 442.9566"
         y="95.975998"
         id="tspan192">Limited; member of the Praesidium of the Union of Rail </tspan><tspan
         x="0 8.3339996 14.454 24.101999 34.722 43.577999 54.035999 64.080002 70.344002 76.806 81.449997 93.365997 103.824 113.652 119.7702 129.3282 135.79021 145.8342 152.09821 160.95419 165.2202 169.8642 179.51221 184.1562 193.01221 202.84019 206.8902 212.70419 221.4702 227.5164 237.34441 247.8024 258.3324 262.38239 271.9404 278.4024 288.44641 294.71039 303.80042 308.4444 318.4884 324.5184 334.97641 344.62439 355.24438 359.25839 368.0784 377.63641 384.09839 388.1124 398.1564 408.7764"
         y="119.97"
         id="tspan194">Transport Operators, a self-regulatory organization.</tspan></text><text
       transform="matrix(1,0,0,-1,693,263.5163)"
       style="font-variant:normal;font-weight:normal;font-stretch:normal;font-size:18px;font-family:Rubik;-inkscape-font-specification:Rubik-Regular;writing-mode:lr-tb;fill:#fdb73e;fill-opacity:1;fill-rule:nonzero;stroke:none"
       id="text200"><tspan
         x="0 6.8579998"
         y="0"
         id="tspan198">• </tspan></text><text
       transform="matrix(1,0,0,-1,711,263.5163)"
       style="font-variant:normal;font-weight:300;font-stretch:normal;font-size:18px;font-family:'Rubik Light';-inkscape-font-specification:Rubik-Light;writing-mode:lr-tb;fill:#000000;fill-opacity:1;fill-rule:nonzero;stroke:none"
       id="text204"><tspan
         x="0 12.6 22.643999 26.694 37.133999 45.990002 50.633999 61.254002 71.297997 75.942001 84.797997 91.260002 100.908 109.2222 119.0502 123.6942 127.7082 138.3282 142.9722 152.9442 158.9922 168.82021 172.8342 183.29221 193.78619 200.2482 204.8922 216.8082 227.42821 236.6064 239.7762 248.6322 253.2762 262.1322 272.7702 282.41821 288.46439 298.29239 302.9364 312.58441 322.23239 332.6904 336.70441 343.16641 352.81439 356.86441"
         y="0"
         id="tspan202">Holds no stake in Freight One’s share capital.</tspan></text><text
       transform="matrix(1,0,0,-1,1305,807.0804)"
       style="font-variant:normal;font-weight:normal;font-stretch:normal;font-size:28px;font-family:'Prosto One';-inkscape-font-specification:ProstoOne-Regular;writing-mode:lr-tb;fill:#000000;fill-opacity:1;fill-rule:nonzero;stroke:none"
       id="text210"><tspan
         x="0 25.200001 43.82 63.700001 86.660004"
         y="0"
         id="tspan206">OLEG </tspan><tspan
         x="0 22.4 45.360001 68.32 90.720001 98.699997"
         y="33.599998"
         id="tspan208">BAGRIN</tspan></text><text
       transform="matrix(1,0,0,-1,1287,717.4804)"
       style="font-variant:normal;font-weight:normal;font-stretch:normal;font-size:18px;font-family:Rubik;-inkscape-font-specification:Rubik-Regular;writing-mode:lr-tb;fill:#fdb73e;fill-opacity:1;fill-rule:nonzero;stroke:none"
       id="text214"><tspan
         x="0 6.8579998"
         y="0"
         id="tspan212">• </tspan></text><text
       transform="matrix(1,0,0,-1,1305,717.4804)"
       style="font-variant:normal;font-weight:500;font-stretch:normal;font-size:20px;font-family:'Rubik Medium';-inkscape-font-specification:Rubik-Medium;writing-mode:lr-tb;fill:#000000;fill-opacity:1;fill-rule:nonzero;stroke:none"
       id="text220"><tspan
         x="0 13.7 26.299999 37.740002 43.040001 51.419998 69.480003 80.919998 93.419998 97.980003 109.718 117.598 121.76 130.38 142.98 154.53999 159.10001 171.96001 180.58 188.798 200.138 208.758 220.31799 232.638 237.938 249.37801"
         y="0"
         id="tspan216">Chairman of the Strategic </tspan><tspan
         x="0 13.2 18.52 29.959999 42.459999 54.959999 60.259998 72.760002 85.080002 89.639999 103.34 115.2 133.25999 151.32001 156.62 165.24001 173.86 185.42"
         y="26"
         id="tspan218">Planning Committee</tspan></text><text
       transform="matrix(1,0,0,-1,1287,665.4803)"
       style="font-variant:normal;font-weight:normal;font-stretch:normal;font-size:18px;font-family:Rubik;-inkscape-font-specification:Rubik-Regular;writing-mode:lr-tb;fill:#fdb73e;fill-opacity:1;fill-rule:nonzero;stroke:none"
       id="text224"><tspan
         x="0 6.8579998"
         y="0"
         id="tspan222">• </tspan></text><text
       transform="matrix(1,0,0,-1,1305,665.4803)"
       style="font-variant:normal;font-weight:500;font-stretch:normal;font-size:20px;font-family:'Rubik Medium';-inkscape-font-specification:Rubik-Medium;writing-mode:lr-tb;fill:#000000;fill-opacity:1;fill-rule:nonzero;stroke:none"
       id="text228"><tspan
         x="0 16.24 27.799999 45.860001 58.139999 69.699997 77.660004 82.220001 93.958 101.838 106 114.62 127.22 138.78 143.34 157.39999 162.7 175.02 180.32001 188.94 200.38 205.7 210.25999 224.32001 235.498 246.618 258.17801 263.49799 275.358 287.638 305.698 317.258 329.63599"
         y="0"
         id="tspan226">Member of the Digital Development</tspan></text><text
       transform="matrix(1,0,0,-1,1305,639.4803)"
       style="font-variant:normal;font-weight:500;font-stretch:normal;font-size:20px;font-family:'Rubik Medium';-inkscape-font-specification:Rubik-Medium;writing-mode:lr-tb;fill:#000000;fill-opacity:1;fill-rule:nonzero;stroke:none"
       id="text232"><tspan
         x="0 13.7 25.559999 43.619999 61.68 66.980003 75.599998 84.220001 95.779999 107.34"
         y="0"
         id="tspan230">Committee </tspan></text><text
       transform="matrix(1,0,0,-1,1287,533.4803)"
       style="font-variant:normal;font-weight:normal;font-stretch:normal;font-size:18px;font-family:Rubik;-inkscape-font-specification:Rubik-Regular;writing-mode:lr-tb;fill:#fdb73e;fill-opacity:1;fill-rule:nonzero;stroke:none"
       id="text236"><tspan
         x="0 6.8579998"
         y="0"
         id="tspan234">• </tspan></text><text
       transform="matrix(1,0,0,-1,1305,533.4803)"
       style="font-variant:normal;font-weight:300;font-stretch:normal;font-size:18px;font-family:'Rubik Light';-inkscape-font-specification:Rubik-Light;writing-mode:lr-tb;fill:#000000;fill-opacity:1;fill-rule:nonzero;stroke:none"
       id="text240"><tspan
         x="0 11.754 21.798 28.062 38.681999 43.02 47.664001 54.827999 65.124001 73.260002"
         y="0"
         id="tspan238">Born: 1974</tspan></text><text
       transform="matrix(1,0,0,-1,1287,499.4783)"
       style="font-variant:normal;font-weight:normal;font-stretch:normal;font-size:18px;font-family:Rubik;-inkscape-font-specification:Rubik-Regular;writing-mode:lr-tb;fill:#fdb73e;fill-opacity:1;fill-rule:nonzero;stroke:none"
       id="text244"><tspan
         x="0 6.8579998"
         y="0"
         id="tspan242">• </tspan></text><text
       transform="matrix(1,0,0,-1,1305,499.4783)"
       style="font-variant:normal;font-weight:300;font-stretch:normal;font-size:18px;font-family:'Rubik Light';-inkscape-font-specification:Rubik-Light;writing-mode:lr-tb;fill:#000000;fill-opacity:1;fill-rule:nonzero;stroke:none"
       id="text250"><tspan
         x="0 11.952 18.072001 27.719999 38.16 48.689999 58.248001 64.709999 74.538002 84.977997 89.260201 95.740196 101.7882 111.8322 127.6362 131.8842 138.34621 148.98421 158.81219 163.45621 174.34621 184.17419 190.20419 200.6622 210.70621 215.3502 227.2662 233.2962 243.73621 252.5562 263.19421 273.23819 283.85818 287.87219 296.63821 300.65219 311.09219 319.78439 329.6124 334.25641 345.14639 351.6084 361.16641 367.62839 377.45639"
         y="0"
         id="tspan246">Graduated from the Sergo Ordzhonikidze State </tspan><tspan
         x="0 11.592 21.24 30.888 41.327999 51.155998 66.690002 75.779999 80.424004 90.342003 96.407997 101.052 115.092 124.74 135.36 145.008 155.466 165.29401 181.09801 190.92599 201.40021 207.8622 212.5062 216.5202 227.1402 231.78419 238.9482 249.2442 259.32419 269.8002"
         y="23.993999"
         id="tspan248">Academy of Management in 1996.</tspan></text><text
       transform="matrix(1,0,0,-1,1287,441.4823)"
       style="font-variant:normal;font-weight:normal;font-stretch:normal;font-size:18px;font-family:Rubik;-inkscape-font-specification:Rubik-Regular;writing-mode:lr-tb;fill:#fdb73e;fill-opacity:1;fill-rule:nonzero;stroke:none"
       id="text254"><tspan
         x="0 6.8579998"
         y="0"
         id="tspan252">• </tspan></text><text
       transform="matrix(1,0,0,-1,1305,441.4823)"
       style="font-variant:normal;font-weight:300;font-stretch:normal;font-size:18px;font-family:'Rubik Light';-inkscape-font-specification:Rubik-Light;writing-mode:lr-tb;fill:#000000;fill-opacity:1;fill-rule:nonzero;stroke:none"
       id="text258"><tspan
         x="0 12.6 22.643999 26.694 37.133999 45.990002 50.633999 60.282001 64.926003 76.230003 86.867996 99.054001 103.698 107.712 118.332 122.976 133.5042 143.15221 153.1962 163.81619 173.8602 189.6642 193.67821 203.3262 212.18221"
         y="0"
         id="tspan256">Holds a PhD in Economics.</tspan></text><text
       transform="matrix(1,0,0,-1,1287,407.4803)"
       style="font-variant:normal;font-weight:normal;font-stretch:normal;font-size:18px;font-family:Rubik;-inkscape-font-specification:Rubik-Regular;writing-mode:lr-tb;fill:#fdb73e;fill-opacity:1;fill-rule:nonzero;stroke:none"
       id="text262"><tspan
         x="0 6.8579998"
         y="0"
         id="tspan260">• </tspan></text><text
       transform="matrix(1,0,0,-1,1305,407.4803)"
       style="font-variant:normal;font-weight:300;font-stretch:normal;font-size:18px;font-family:'Rubik Light';-inkscape-font-specification:Rubik-Light;writing-mode:lr-tb;fill:#000000;fill-opacity:1;fill-rule:nonzero;stroke:none"
       id="text266"><tspan
         x="0 11.412 21.24 30.888 40.716 44.73 54.054001 63.882 74.321999 78.966003 88.613998 99.234001 103.878 117.918 129.54601 140.75819 145.04401 151.524 157.57021 167.6142 183.4182 187.6662 194.1282 204.7662 214.59419 219.2382 231.67619 242.2962 246.3102 255.6342 265.46219 271.7262 280.58221 284.59619 291.0582 300.14819 304.79221 314.71021 320.77441 325.4184 337.13641 346.78439 362.58841 373.02841 379.29239 383.3064 393.7464 404.20441 414.03241 418.67639 422.6904 433.31039 437.95441 448.03439 459.12241 470.21039 480.30661"
         y="0"
         id="tspan264">Received an MBA from the University of Cambridge in 2005.</tspan></text><text
       transform="matrix(1,0,0,-1,1287,373.4783)"
       style="font-variant:normal;font-weight:normal;font-stretch:normal;font-size:18px;font-family:Rubik;-inkscape-font-specification:Rubik-Regular;writing-mode:lr-tb;fill:#fdb73e;fill-opacity:1;fill-rule:nonzero;stroke:none"
       id="text270"><tspan
         x="0 6.8579998"
         y="0"
         id="tspan268">• </tspan></text><text
       transform="matrix(1,0,0,-1,1305,373.4783)"
       style="font-variant:normal;font-weight:300;font-stretch:normal;font-size:18px;font-family:'Rubik Light';-inkscape-font-specification:Rubik-Light;writing-mode:lr-tb;fill:#000000;fill-opacity:1;fill-rule:nonzero;stroke:none"
       id="text276"><tspan
         x="0 14.04 23.868 39.672001 50.112 59.939999 65.772003 70.416 80.334 86.398201 90.648003 97.110001 107.748 117.576 122.22 133.974 144.01801 153.666 159.6942 170.1342 178.9902 183.6342 193.5522 199.61819 204.26221 216.4482 220.4622 226.51019 236.3382 245.98621 252.4482 262.49219 268.7562 277.61221 282.2562 292.17239 298.2384 302.88239 315.1944 325.05841 339.09839 349.23239 353.8764 364.94641 376.0704 386.96039 398.67841"
         y="0"
         id="tspan272">Member of the Boards of Directors of NLMK PJSC </tspan><tspan
         x="0 9.6479998 20.268 30.708 35.352001 45.612 49.661999 59.416199 65.878197 75.526199 86.1642 95.992203 101.8242 106.4682 118.4202 124.4682 134.51221 145.04221 155.5002 160.1442 172.7442 182.78819 186.8382 197.2782 201.29221 211.9122 222.37019 231.2262 235.87019 245.73421 249.7482 265.55219 269.56619 276.0282 285.8562 296.2962"
         y="23.993999"
         id="tspan274">and Fletcher Group Holdings Limited.</tspan></text><text
       transform="matrix(1,0,0,-1,1287,315.4823)"
       style="font-variant:normal;font-weight:normal;font-stretch:normal;font-size:18px;font-family:Rubik;-inkscape-font-specification:Rubik-Regular;writing-mode:lr-tb;fill:#fdb73e;fill-opacity:1;fill-rule:nonzero;stroke:none"
       id="text280"><tspan
         x="0 6.8579998"
         y="0"
         id="tspan278">• </tspan></text><text
       transform="matrix(1,0,0,-1,1305,315.4823)"
       style="font-variant:normal;font-weight:300;font-stretch:normal;font-size:18px;font-family:'Rubik Light';-inkscape-font-specification:Rubik-Light;writing-mode:lr-tb;fill:#000000;fill-opacity:1;fill-rule:nonzero;stroke:none"
       id="text284"><tspan
         x="0 12.6 22.643999 26.694 37.133999 45.990002 50.633999 61.254002 71.297997 75.942001 84.797997 91.260002 100.908 109.2222 119.0502 123.6942 127.7082 138.3282 142.9722 152.9442 158.9922 168.82021 172.8342 183.29221 193.78619 200.2482 204.8922 216.8082 227.42821 236.6064 239.7762 248.6322 253.2762 262.1322 272.7702 282.41821 288.46439 298.29239 302.9364 312.58441 322.23239 332.6904 336.70441 343.16641 352.81439 356.86441"
         y="0"
         id="tspan282">Holds no stake in Freight One’s share capital.</tspan></text><path
       d="M 0,893.4 H 1920 V 1080 H 0 Z"
       style="fill:#f0f0f5;fill-opacity:1;fill-rule:nonzero;stroke:none"
       id="path286" /><text
       transform="matrix(1,0,0,-1,99,955.5)"
       style="font-variant:normal;font-weight:normal;font-stretch:normal;font-size:35px;font-family:'Prosto One';-inkscape-font-specification:ProstoOne-Regular;writing-mode:lr-tb;fill:#000000;fill-opacity:1;fill-rule:nonzero;stroke:none"
       id="text290"><tspan
         x="0 9.9750004 40.075001 65.275002 96.775002 124.775 163.27499 191.97501 216.64999 226.625 258.125 288.22501 300.47501 331.97501 362.07501 374.32501 399 428.39999 453.25 465.5 504 528.84998 567.34998 595.34998 620.20001 648.20001 674.45001 686.70001 718.20001 743.40002 755.65002 780.32501 809.72498 834.57501 846.82501 874.82501 906.32501 935.02502 963.02502 992.42499 1004.675 1036.175 1061.375 1073.625 1103.025 1113 1141 1165.85 1193.5 1218.175 1249.675 1277.675"
         y="0"
         id="tspan288">INFORMATION ON THE MEMBERS OF THE BOARD OF DIRECTORS</tspan></text><text
       transform="matrix(1,0,0,-1,1655.5813,961.5)"
       style="font-variant:normal;font-weight:500;font-stretch:normal;font-size:20px;font-family:'Rubik Medium';-inkscape-font-specification:Rubik-Medium;writing-mode:lr-tb;fill:#000000;fill-opacity:1;fill-rule:nonzero;stroke:none"
       id="text294"><tspan
         x="0 11.44 22.1 26.66 38 46.619999 51.18 63.48 72.760002 82.760002 92.040001 104.44 114.26 126.66 139.84 152.24001"
         y="0"
         id="tspan292">as at 31/12/2020</tspan></text><g
       id="g296"
       transform="translate(99,102)"><path
         d="M 0,0 H 534"
         style="fill:none;stroke:#f0f0f5;stroke-width:4;stroke-linecap:butt;stroke-linejoin:miter;stroke-miterlimit:4;stroke-dasharray:none;stroke-opacity:1"
         id="path298" /></g><g
       id="g300"
       transform="translate(693,102)"><path
         d="M 0,0 H 534"
         style="fill:none;stroke:#f0f0f5;stroke-width:4;stroke-linecap:butt;stroke-linejoin:miter;stroke-miterlimit:4;stroke-dasharray:none;stroke-opacity:1"
         id="path302" /></g><g
       id="g304"
       transform="translate(1287,102)"><path
         d="M 0,0 H 534"
         style="fill:none;stroke:#f0f0f5;stroke-width:4;stroke-linecap:butt;stroke-linejoin:miter;stroke-miterlimit:4;stroke-dasharray:none;stroke-opacity:1"
         id="path306" /></g><text
       transform="matrix(1,0,0,-1,39.9501,1023)"
       style="font-variant:normal;font-weight:300;font-stretch:normal;font-size:20px;font-family:'Rubik Light';-inkscape-font-specification:Rubik-Light;writing-mode:lr-tb;fill:#000000;fill-opacity:1;fill-rule:nonzero;stroke:none"
       id="text310"><tspan
         x="0 11.14"
         y="0"
         id="tspan308">61</tspan></text><text
       transform="matrix(1,0,0,-1,98.9901,1023)"
       style="font-variant:normal;font-weight:300;font-stretch:normal;font-size:20px;font-family:'Rubik Light';-inkscape-font-specification:Rubik-Light;writing-mode:lr-tb;fill:#000000;fill-opacity:1;fill-rule:nonzero;stroke:none"
       id="text314"><tspan
         x="0 13.02 24.18 31.139999 42.759998 53.919998 60.720001 71.339996 78.519997 89.440002 94.599998 106.22 117.02 127.38 138.3 145.25999 157.06 167.78 179.58 190.3"
         y="0"
         id="tspan312">Сorporate governance</tspan></text></g></svg>
