<?xml version="1.0" encoding="UTF-8" standalone="no"?>
<?xml-stylesheet type="text/css" href="main.css" ?>
<svg
   xmlns:dc="http://purl.org/dc/elements/1.1/"
   xmlns:cc="http://creativecommons.org/ns#"
   xmlns:rdf="http://www.w3.org/1999/02/22-rdf-syntax-ns#"
   xmlns:svg="http://www.w3.org/2000/svg"
   xmlns="http://www.w3.org/2000/svg"
   version="1.1"
   id="svg2"
   xml:space="preserve"
   width="2560"
   height="1440"
   viewBox="0 0 2560 1440"><metadata
     id="metadata8"><rdf:RDF><cc:Work
         rdf:about=""><dc:format>image/svg+xml</dc:format><dc:type
           rdf:resource="http://purl.org/dc/dcmitype/StillImage" /></cc:Work></rdf:RDF></metadata><defs
     id="defs6"><clipPath
       clipPathUnits="userSpaceOnUse"
       id="clipPath20"><path
         d="M 0,1080 H 1920 V 0 H 0 Z"
         id="path18" /></clipPath></defs><g
     id="g10"
     transform="matrix(1.3333333,0,0,-1.3333333,0,1440)"><g
       id="g12"><g
         id="g14"><g
           id="g16"
           clip-path="url(#clipPath20)"><path
             d="M 0,0 H 1920 V 1080 H 0 Z"
             style="fill:#ffffff;fill-opacity:1;fill-rule:nonzero;stroke:none"
             id="path22" /></g></g></g><path
       d="M 0,893.4 H 1920 V 1080 H 0 Z"
       style="fill:#f0f0f5;fill-opacity:1;fill-rule:nonzero;stroke:none"
       id="path24" /><text
       transform="matrix(1,0,0,-1,99,955.5)"
       style="font-variant:normal;font-weight:normal;font-stretch:normal;font-size:35px;font-family:'Prosto One';-inkscape-font-specification:ProstoOne-Regular;writing-mode:lr-tb;fill:#000000;fill-opacity:1;fill-rule:nonzero;stroke:none"
       id="text28"><tspan
         x="0 9.9750004 40.075001 65.275002 96.775002 124.775 163.27499 191.97501 216.64999 226.625 258.125 288.22501 300.47501 331.97501 362.07501 374.32501 399 428.39999 453.25 465.5 504 528.84998 567.34998 595.34998 620.20001 648.20001 674.45001 686.70001 718.20001 743.40002 755.65002 780.32501 809.72498 834.57501 846.82501 874.82501 906.32501 935.02502 963.02502 992.42499 1004.675 1036.175 1061.375 1073.625 1103.025 1113 1141 1165.85 1193.5 1218.175 1249.675 1277.675"
         y="0"
         id="tspan26">INFORMATION ON THE MEMBERS OF THE BOARD OF DIRECTORS</tspan></text><text
       transform="matrix(1,0,0,-1,117,807.0804)"
       style="font-variant:normal;font-weight:normal;font-stretch:normal;font-size:28px;font-family:'Prosto One';-inkscape-font-specification:ProstoOne-Regular;writing-mode:lr-tb;fill:#000000;fill-opacity:1;fill-rule:nonzero;stroke:none"
       id="text34"><tspan
         x="0 22.959999 47.040001 66.779999 91.980003 116.06"
         y="0"
         id="tspan30">ANTON </tspan><tspan
         x="0 22.4 45.360001 65.099998 87.360001 109.76 129.64"
         y="33.599998"
         id="tspan32">BATYREV</tspan></text><text
       transform="matrix(1,0,0,-1,99,717.4804)"
       style="font-variant:normal;font-weight:normal;font-stretch:normal;font-size:18px;font-family:Rubik;-inkscape-font-specification:Rubik-Regular;writing-mode:lr-tb;fill:#fdb73e;fill-opacity:1;fill-rule:nonzero;stroke:none"
       id="text38"><tspan
         x="0 6.8579998"
         y="0"
         id="tspan36">• </tspan></text><text
       transform="matrix(1,0,0,-1,117,717.4804)"
       style="font-variant:normal;font-weight:500;font-stretch:normal;font-size:20px;font-family:'Rubik Medium';-inkscape-font-specification:Rubik-Medium;writing-mode:lr-tb;fill:#000000;fill-opacity:1;fill-rule:nonzero;stroke:none"
       id="text42"><tspan
         x="0 16.24 27.799999 45.860001 58.139999 69.699997 77.660004 82.220001 93.958 101.838 106 114.62 127.22 138.78 143.34 156.2 164.82001 173.03799 184.37801 192.998 204.558 216.87801 222.17799 233.618 238.17799 251.37801 256.698 268.138 280.638 293.138 298.43799 310.93799"
         y="0"
         id="tspan40">Member of the Strategic Planning</tspan></text><text
       transform="matrix(1,0,0,-1,117,691.4804)"
       style="font-variant:normal;font-weight:500;font-stretch:normal;font-size:20px;font-family:'Rubik Medium';-inkscape-font-specification:Rubik-Medium;writing-mode:lr-tb;fill:#000000;fill-opacity:1;fill-rule:nonzero;stroke:none"
       id="text46"><tspan
         x="0 13.7 25.559999 43.619999 61.68 66.980003 75.599998 84.220001 95.779999"
         y="0"
         id="tspan44">Committee</tspan></text><text
       transform="matrix(1,0,0,-1,99,665.4803)"
       style="font-variant:normal;font-weight:normal;font-stretch:normal;font-size:18px;font-family:Rubik;-inkscape-font-specification:Rubik-Regular;writing-mode:lr-tb;fill:#fdb73e;fill-opacity:1;fill-rule:nonzero;stroke:none"
       id="text50"><tspan
         x="0 6.8579998"
         y="0"
         id="tspan48">• </tspan></text><text
       transform="matrix(1,0,0,-1,117,665.4803)"
       style="font-variant:normal;font-weight:500;font-stretch:normal;font-size:20px;font-family:'Rubik Medium';-inkscape-font-specification:Rubik-Medium;writing-mode:lr-tb;fill:#000000;fill-opacity:1;fill-rule:nonzero;stroke:none"
       id="text54"><tspan
         x="0 16.24 27.799999 45.860001 58.139999 69.699997 77.660004 82.220001 93.958 101.838 106 114.62 127.22 138.78 142.82001 156.578 169.01801 181.298 186.59801 195.218 199.778 213.478 225.338 243.39799 261.45801 266.758 275.37799 283.99799 295.55801"
         y="0"
         id="tspan52">Member of the Audit Committee</tspan></text><text
       transform="matrix(1,0,0,-1,99,585.4803)"
       style="font-variant:normal;font-weight:normal;font-stretch:normal;font-size:18px;font-family:Rubik;-inkscape-font-specification:Rubik-Regular;writing-mode:lr-tb;fill:#fdb73e;fill-opacity:1;fill-rule:nonzero;stroke:none"
       id="text58"><tspan
         x="0 6.8579998"
         y="0"
         id="tspan56">• </tspan></text><text
       transform="matrix(1,0,0,-1,117,585.4803)"
       style="font-variant:normal;font-weight:300;font-stretch:normal;font-size:18px;font-family:'Rubik Light';-inkscape-font-specification:Rubik-Light;writing-mode:lr-tb;fill:#000000;fill-opacity:1;fill-rule:nonzero;stroke:none"
       id="text62"><tspan
         x="0 11.754 21.798 28.062 38.681999 43.02 47.664001 54.827999 65.124001 73.889999"
         y="0"
         id="tspan60">Born: 1977</tspan></text><text
       transform="matrix(1,0,0,-1,99,551.4783)"
       style="font-variant:normal;font-weight:normal;font-stretch:normal;font-size:18px;font-family:Rubik;-inkscape-font-specification:Rubik-Regular;writing-mode:lr-tb;fill:#fdb73e;fill-opacity:1;fill-rule:nonzero;stroke:none"
       id="text66"><tspan
         x="0 6.8579998"
         y="0"
         id="tspan64">• </tspan></text><text
       transform="matrix(1,0,0,-1,117,551.4783)"
       style="font-variant:normal;font-weight:300;font-stretch:normal;font-size:18px;font-family:'Rubik Light';-inkscape-font-specification:Rubik-Light;writing-mode:lr-tb;fill:#000000;fill-opacity:1;fill-rule:nonzero;stroke:none"
       id="text72"><tspan
         x="0 11.952 18.072001 27.719999 38.16 48.689999 58.248001 64.709999 74.538002 84.977997 89.260201 95.740196 101.7882 111.8322 127.6362 131.8842 138.34621 148.98421 158.81219 163.45621 173.1402 182.78819 192.4362 202.9662 207.0162 213.4782 222.56821 227.2122 237.1302 243.1962 247.84019 257.70419 267.3522 281.08441 285.72839 295.28641 301.74841 306.3924 316.0224 326.06641 341.87039 351.9144 362.53439 372.5784 381.43439 391.15439 400.31641"
         y="0"
         id="tspan68">Graduated from the Faculty of Law at Lomonosov </tspan><tspan
         x="0 14.04 24.084 32.939999 42.588001 52.397999 66.132004 70.776001 81.666 88.127998 97.685997 104.148 113.976 118.62 131.058 141.67799 145.692 155.01421 164.84219 171.1062 179.9622 183.9762 190.4382 199.5282 204.1722 208.1862 218.8062 223.4502 230.6142 240.9102 251.20621 262.1142"
         y="23.993999"
         id="tspan70">Moscow State University in 1998.</tspan></text><text
       transform="matrix(1,0,0,-1,99,493.4823)"
       style="font-variant:normal;font-weight:normal;font-stretch:normal;font-size:18px;font-family:Rubik;-inkscape-font-specification:Rubik-Regular;writing-mode:lr-tb;fill:#fdb73e;fill-opacity:1;fill-rule:nonzero;stroke:none"
       id="text76"><tspan
         x="0 6.8579998"
         y="0"
         id="tspan74">• </tspan></text><text
       transform="matrix(1,0,0,-1,117,493.4823)"
       style="font-variant:normal;font-weight:300;font-stretch:normal;font-size:18px;font-family:'Rubik Light';-inkscape-font-specification:Rubik-Light;writing-mode:lr-tb;fill:#000000;fill-opacity:1;fill-rule:nonzero;stroke:none"
       id="text80"><tspan
         x="0 11.952 18.072001 27.719999 38.16 48.689999 58.248001 64.709999 74.538002 84.977997 89.260201 95.740196 101.7882 111.8322 127.6362 132.2802 144.7182 155.3382 159.3522 168.67619 178.5042 184.7682 193.62421 197.6382 204.1002 213.1902 217.8342 227.7522 233.81821 238.4622 252.5022 256.5162 266.16422 276.80219 280.81619 291.2742 300.92221 311.54221 316.18619 326.0502 335.69821 349.43039 354.0744 364.96439 374.6124 385.2504 395.2944 405.33841 409.3884 414.03241 418.04639 428.66641 433.31039 440.4744 450.77039 461.06641 470.10059"
         y="0"
         id="tspan78">Graduated from University of Michigan Law School in 1999.</tspan></text><text
       transform="matrix(1,0,0,-1,99,459.4803)"
       style="font-variant:normal;font-weight:normal;font-stretch:normal;font-size:18px;font-family:Rubik;-inkscape-font-specification:Rubik-Regular;writing-mode:lr-tb;fill:#fdb73e;fill-opacity:1;fill-rule:nonzero;stroke:none"
       id="text84"><tspan
         x="0 6.8579998"
         y="0"
         id="tspan82">• </tspan></text><text
       transform="matrix(1,0,0,-1,117,459.4803)"
       style="font-variant:normal;font-weight:300;font-stretch:normal;font-size:18px;font-family:'Rubik Light';-inkscape-font-specification:Rubik-Light;writing-mode:lr-tb;fill:#000000;fill-opacity:1;fill-rule:nonzero;stroke:none"
       id="text92"><tspan
         x="0 14.04 23.868 39.672001 50.112 59.939999 65.772003 70.416 80.334 86.400002 90.648003 97.110001 107.748 117.576 122.22 133.974 144.01801 153.666 159.6942 170.1342 178.9902 183.6342 193.5522 199.61819 204.26221 216.4482 220.4622 226.51019 236.3382 245.98621 252.4482 262.49219 268.7562 277.61221 282.2562 292.17239 298.2384 302.88239 313.1424 317.19241 326.94839 333.4104 343.05841 353.69641 363.52441 369.35641 374.0004 385.95239 392.0004 402.0444 412.5744 423.03241"
         y="0"
         id="tspan86">Member of the Boards of Directors of Fletcher Group </tspan><tspan
         x="0 12.6 22.643999 26.694 37.133999 41.147999 51.768002 62.226002 71.082001 75.725998 85.589996 89.603996 105.408 109.422 115.884 125.712 136.15199 140.418 145.062 157.37399 167.23801 181.278 191.4084 196.0524 200.5704 211.1904 221.6304 225.64439 235.2924 245.9124 255.56039 260.20441 270.06839 279.73441 291.1644 295.43039 300.0744 310.96439 321.60239 331.2504 337.2966 347.34061 357.9606 362.60461 374.3226 384.36661 393.92459 400.3866 404.4006 415.0206 425.47861 430.12259 439.9866 449.65259 461.08261 465.3486"
         y="23.993999"
         id="tspan88">Holdings Limited, NLMK Indiana LLC, Sharon Coating LLC, </tspan><tspan
         x="0 12.312 22.176001 36.216 46.349998 50.993999 62.172001 72 82.620003 93.239998 101.79 111.366 115.416 124.7202 134.36819 144.9882 149.0022 158.65021 163.2942 173.1582 182.8242 194.2542 198.5202 203.1642 212.81219 223.43221 233.87219 238.5162 248.7762 252.79021 259.0542 267.91019 274.37219 279.0162 290.19241 300.23639 306.5004 312.9624 317.60641 329.3244 339.36841 355.17239 365.6304 375.27841 385.62839 394.71841 399.3624 410.48639 421.3764 432.8064"
         y="47.987999"
         id="tspan90">NLMK Pennsylvania LLC, and First Port Company JSC.</tspan></text><text
       transform="matrix(1,0,0,-1,99,377.4903)"
       style="font-variant:normal;font-weight:normal;font-stretch:normal;font-size:18px;font-family:Rubik;-inkscape-font-specification:Rubik-Regular;writing-mode:lr-tb;fill:#fdb73e;fill-opacity:1;fill-rule:nonzero;stroke:none"
       id="text96"><tspan
         x="0 6.8579998"
         y="0"
         id="tspan94">• </tspan></text><text
       transform="matrix(1,0,0,-1,117,377.4903)"
       style="font-variant:normal;font-weight:300;font-stretch:normal;font-size:18px;font-family:'Rubik Light';-inkscape-font-specification:Rubik-Light;writing-mode:lr-tb;fill:#000000;fill-opacity:1;fill-rule:nonzero;stroke:none"
       id="text100"><tspan
         x="0 12.6 22.643999 26.694 37.133999 45.990002 50.633999 61.254002 71.297997 75.942001 84.797997 91.260002 100.908 109.2222 119.0502 123.6942 127.7082 138.3282 142.9722 152.9442 158.9922 168.82021 172.8342 183.29221 193.78619 200.2482 204.8922 216.8082 227.42821 236.6064 239.7762 248.6322 253.2762 262.1322 272.7702 282.41821 288.46439 298.29239 302.9364 312.58441 322.23239 332.6904 336.70441 343.16641 352.81439 356.86441"
         y="0"
         id="tspan98">Holds no stake in Freight One’s share capital.</tspan></text><text
       transform="matrix(1,0,0,-1,711,807.0804)"
       style="font-variant:normal;font-weight:normal;font-stretch:normal;font-size:28px;font-family:'Prosto One';-inkscape-font-specification:ProstoOne-Regular;writing-mode:lr-tb;fill:#000000;fill-opacity:1;fill-rule:nonzero;stroke:none"
       id="text106"><tspan
         x="0 22.120001 45.080002 68.32 88.199997 106.82"
         y="0"
         id="tspan102">PAVEL </tspan><tspan
         x="0 22.26 30.24 52.639999 74.900002 98.980003 121.24 144.75999 167.72 191.8 211.53999 232.53999 252.42"
         y="33.599998"
         id="tspan104">KIRYUKHANTSEV</tspan></text><text
       transform="matrix(1,0,0,-1,693,717.4804)"
       style="font-variant:normal;font-weight:normal;font-stretch:normal;font-size:18px;font-family:Rubik;-inkscape-font-specification:Rubik-Regular;writing-mode:lr-tb;fill:#fdb73e;fill-opacity:1;fill-rule:nonzero;stroke:none"
       id="text110"><tspan
         x="0 6.8579998"
         y="0"
         id="tspan108">• </tspan></text><text
       transform="matrix(1,0,0,-1,711,717.4804)"
       style="font-variant:normal;font-weight:500;font-stretch:normal;font-size:20px;font-family:'Rubik Medium';-inkscape-font-specification:Rubik-Medium;writing-mode:lr-tb;fill:#000000;fill-opacity:1;fill-rule:nonzero;stroke:none"
       id="text114"><tspan
         x="0 6 18.5 30.780001 42.34 54.619999 66.18 78.68 90.959999 102.52 114.898 123.518 128.078 140.358 145.658 153.89999 165.46001 176.89999 185.52 197.38"
         y="0"
         id="tspan112">Independent director</tspan></text><text
       transform="matrix(1,0,0,-1,693,691.4803)"
       style="font-variant:normal;font-weight:normal;font-stretch:normal;font-size:18px;font-family:Rubik;-inkscape-font-specification:Rubik-Regular;writing-mode:lr-tb;fill:#fdb73e;fill-opacity:1;fill-rule:nonzero;stroke:none"
       id="text118"><tspan
         x="0 6.8579998"
         y="0"
         id="tspan116">• </tspan></text><text
       transform="matrix(1,0,0,-1,711,691.4803)"
       style="font-variant:normal;font-weight:500;font-stretch:normal;font-size:20px;font-family:'Rubik Medium';-inkscape-font-specification:Rubik-Medium;writing-mode:lr-tb;fill:#000000;fill-opacity:1;fill-rule:nonzero;stroke:none"
       id="text124"><tspan
         x="0 13.7 26.299999 37.740002 43.040001 51.419998 69.480003 80.919998 93.419998 97.980003 109.718 117.598 121.76 130.38 142.98 154.53999 159.10001 173.24001 185.10001 203.16 208.46001 220.96001 232.298 240.918 246.218 258.078 270.578 281.23801"
         y="0"
         id="tspan120">Chairman of the Nominations </tspan><tspan
         x="0 11.44 23.940001 36.220001 40.779999 54.139999 65.699997 83.760002 96.199997 108.7 120.26 128.478 139.81799 148.438 153.73801 165.59801 178.09801 182.658 196.358 208.218 226.278 244.338 249.638 258.258 266.87799 278.43799 289.99799"
         y="26"
         id="tspan122">and Remuneration Committee </tspan></text><text
       transform="matrix(1,0,0,-1,693,585.4803)"
       style="font-variant:normal;font-weight:normal;font-stretch:normal;font-size:18px;font-family:Rubik;-inkscape-font-specification:Rubik-Regular;writing-mode:lr-tb;fill:#fdb73e;fill-opacity:1;fill-rule:nonzero;stroke:none"
       id="text128"><tspan
         x="0 6.8579998"
         y="0"
         id="tspan126">• </tspan></text><text
       transform="matrix(1,0,0,-1,711,585.4803)"
       style="font-variant:normal;font-weight:300;font-stretch:normal;font-size:18px;font-family:'Rubik Light';-inkscape-font-specification:Rubik-Light;writing-mode:lr-tb;fill:#000000;fill-opacity:1;fill-rule:nonzero;stroke:none"
       id="text132"><tspan
         x="0 11.754 21.798 28.062 38.681999 43.02 47.664001 54.827999 64.907997 75.384003"
         y="0"
         id="tspan130">Born: 1964</tspan></text><text
       transform="matrix(1,0,0,-1,693,551.4783)"
       style="font-variant:normal;font-weight:normal;font-stretch:normal;font-size:18px;font-family:Rubik;-inkscape-font-specification:Rubik-Regular;writing-mode:lr-tb;fill:#fdb73e;fill-opacity:1;fill-rule:nonzero;stroke:none"
       id="text136"><tspan
         x="0 6.8579998"
         y="0"
         id="tspan134">• </tspan></text><text
       transform="matrix(1,0,0,-1,711,551.4783)"
       style="font-variant:normal;font-weight:300;font-stretch:normal;font-size:18px;font-family:'Rubik Light';-inkscape-font-specification:Rubik-Light;writing-mode:lr-tb;fill:#000000;fill-opacity:1;fill-rule:nonzero;stroke:none"
       id="text142"><tspan
         x="0 11.952 18.072001 27.719999 38.16 48.689999 58.248001 64.709999 74.538002 84.977997 89.260201 95.740196 101.7882 111.8322 127.6362 132.2802 141.9102 151.7382 162.3582 166.37219 176.9922 187.4502 193.57021 203.2182 213.6582 218.3022 229.1922 235.65421 245.2104 251.67239 261.5004 266.14441 278.5824 289.20239 293.2164 302.54041 312.36841 318.63239 327.4884 331.50241 337.96439 347.05441 351.69839 355.7124 366.3324"
         y="0"
         id="tspan138">Graduated from Leningrad State University in </tspan><tspan
         x="0 7.164 17.459999 28.584 39.060001 43.290001 57.438 61.452 67.914001 78.552002 83.195999 92.844002 97.487999 107.928 117.756 128.214 134.26019 144.0882 153.9162 158.5602 162.5742 173.1942 177.8382 188.7282 198.7722 208.4202 212.4342 222.0822 226.1322 230.7762 242.0802 250.6284 259.89841 269.54639 280.18439 290.22839 294.27841 304.32239 314.7804 323.25839"
         y="23.993999"
         id="tspan140">1986 with a degree in Social Psychology.</tspan></text><text
       transform="matrix(1,0,0,-1,693,493.4823)"
       style="font-variant:normal;font-weight:normal;font-stretch:normal;font-size:18px;font-family:Rubik;-inkscape-font-specification:Rubik-Regular;writing-mode:lr-tb;fill:#fdb73e;fill-opacity:1;fill-rule:nonzero;stroke:none"
       id="text146"><tspan
         x="0 6.8579998"
         y="0"
         id="tspan144">• </tspan></text><text
       transform="matrix(1,0,0,-1,711,493.4823)"
       style="font-variant:normal;font-weight:300;font-stretch:normal;font-size:18px;font-family:'Rubik Light';-inkscape-font-specification:Rubik-Light;writing-mode:lr-tb;fill:#000000;fill-opacity:1;fill-rule:nonzero;stroke:none"
       id="text152"><tspan
         x="0 11.952 18.072001 27.719999 38.16 48.689999 58.248001 64.709999 74.538002 84.977997 89.260201 95.740196 101.7882 111.8322 127.6362 131.8842 138.34621 148.98421 158.81219 163.45621 177.4962 181.51019 191.1582 201.7962 211.62421 215.67419 220.31821 224.8362 235.45621 244.31219 250.7742 254.78819 261.25021 271.78021 278.24219 288.07019 292.7142 297.87659 309.82861 319.65659 325.92059 341.72461 351.37259 361.7226 370.48859 376.23059"
         y="0"
         id="tspan148">Graduated from the Michel Institute (Germany) </tspan><tspan
         x="0 4.0139999 14.634 19.278 26.441999 36.737999 47.034 54.198002 58.841999 68.489998 79.110001 89.550003 93.832199 100.3122 106.3602 116.4042 132.20821 136.8522 141.37019 153.68221 164.5722 175.2282 186.92821 199.1142 203.75819 209.3022 219.2742 225.3942 235.04221 245.6622 255.3102 264.34439 270.0864 274.73041 278.74438 289.36441 294.00839 304.08841 315.17639 326.2644 337.17239"
         y="23.993999"
         id="tspan150">in 1991 and from INSEAD (France) in 2008.</tspan></text><text
       transform="matrix(1,0,0,-1,693,435.4863)"
       style="font-variant:normal;font-weight:normal;font-stretch:normal;font-size:18px;font-family:Rubik;-inkscape-font-specification:Rubik-Regular;writing-mode:lr-tb;fill:#fdb73e;fill-opacity:1;fill-rule:nonzero;stroke:none"
       id="text156"><tspan
         x="0 6.8579998"
         y="0"
         id="tspan154">• </tspan></text><text
       transform="matrix(1,0,0,-1,711,435.4863)"
       style="font-variant:normal;font-weight:300;font-stretch:normal;font-size:18px;font-family:'Rubik Light';-inkscape-font-specification:Rubik-Light;writing-mode:lr-tb;fill:#000000;fill-opacity:1;fill-rule:nonzero;stroke:none"
       id="text162"><tspan
         x="0 11.718 22.356001 26.370001 36.108002 42.174 46.818001 57.473999 66.5802 76.408203 86.056198 96.586197 103.0482 107.0622 116.3862 126.2142 130.8582 142.7742 149.2542 155.73421 159.7482 169.39619 179.2242 185.0544 189.69839 199.61639 205.6824 210.3264 220.4064 230.23441 239.09039 245.5524 250.1964 259.82639 269.65439 279.3024 289.7424 299.5704 305.83441 314.6904 319.33441 331.0524 342.17639 353.06641 364.78439"
         y="0"
         id="tspan158">Chief Executive Officer of Zest Leaders CJSC </tspan><tspan
         x="0 9.6479998 20.268 30.708 35.352001 45.431999 55.259998 64.115997 70.578003 74.752197 82.996201 92.824203 102.4722 118.2762 122.9202 135.1062 144.6282 153.95219 163.7802 167.8302 177.87421 188.3322 204.1362 213.9642 224.4402 230.90221 235.5462 245.4102 255.0744 266.50439"
         y="23.993999"
         id="tspan160">and Zest Team Development LLC.</tspan></text><text
       transform="matrix(1,0,0,-1,693,377.4903)"
       style="font-variant:normal;font-weight:normal;font-stretch:normal;font-size:18px;font-family:Rubik;-inkscape-font-specification:Rubik-Regular;writing-mode:lr-tb;fill:#fdb73e;fill-opacity:1;fill-rule:nonzero;stroke:none"
       id="text166"><tspan
         x="0 6.8579998"
         y="0"
         id="tspan164">• </tspan></text><text
       transform="matrix(1,0,0,-1,711,377.4903)"
       style="font-variant:normal;font-weight:300;font-stretch:normal;font-size:18px;font-family:'Rubik Light';-inkscape-font-specification:Rubik-Light;writing-mode:lr-tb;fill:#000000;fill-opacity:1;fill-rule:nonzero;stroke:none"
       id="text172"><tspan
         x="0 14.04 23.868 39.672001 50.112 59.939999 65.772003 70.416 80.334 86.400002 90.648003 97.110001 107.748 117.576 122.22 133.974 144.01801 153.666 159.6942 170.1342 178.9902 183.6342 193.5522 199.61819 204.26221 216.4482 220.4622 226.51019 236.3382 245.98621 252.4482 262.49219 268.7562 277.61221 282.2562 292.17239 298.2384 302.88239 314.63641 324.28439 334.90439 343.45441 348.09839 358.9884 368.63641 372.65039 383.1264 389.37241"
         y="0"
         id="tspan168">Member of the Boards of Directors of Bank Saint-</tspan><tspan
         x="0 11.178 20.934 27.396 37.223999 43.487999 52.344002 62.784 73.314003 79.342201 89.800201 94.444199 105.5682 116.4582 128.17619 132.82021 142.4682 153.0882 163.5282 168.1722 178.43221 182.4462 188.71021 197.56619 204.0282 208.6722 219.8484 229.8924 236.1564 242.61839 247.26241 258.98041 269.02441 284.8284 295.28641 304.93439 315.28439 324.37439 329.0184 340.1424 351.03241 362.4624"
         y="23.993999"
         id="tspan170">Petersburg JSC and First Port Company JSC.</tspan></text><text
       transform="matrix(1,0,0,-1,693,319.4943)"
       style="font-variant:normal;font-weight:normal;font-stretch:normal;font-size:18px;font-family:Rubik;-inkscape-font-specification:Rubik-Regular;writing-mode:lr-tb;fill:#fdb73e;fill-opacity:1;fill-rule:nonzero;stroke:none"
       id="text176"><tspan
         x="0 6.8579998"
         y="0"
         id="tspan174">• </tspan></text><text
       transform="matrix(1,0,0,-1,711,319.4943)"
       style="font-variant:normal;font-weight:300;font-stretch:normal;font-size:18px;font-family:'Rubik Light';-inkscape-font-specification:Rubik-Light;writing-mode:lr-tb;fill:#000000;fill-opacity:1;fill-rule:nonzero;stroke:none"
       id="text180"><tspan
         x="0 12.6 22.643999 26.694 37.133999 45.990002 50.633999 61.254002 71.297997 75.942001 84.797997 91.260002 100.908 109.2222 119.0502 123.6942 127.7082 138.3282 142.9722 152.9442 158.9922 168.82021 172.8342 183.29221 193.78619 200.2482 204.8922 216.8082 227.42821 236.6064 239.7762 248.6322 253.2762 262.1322 272.7702 282.41821 288.46439 298.29239 302.9364 312.58441 322.23239 332.6904 336.70441 343.16641 352.81439 356.86441"
         y="0"
         id="tspan178">Holds no stake in Freight One’s share capital.</tspan></text><text
       transform="matrix(1,0,0,-1,1305,807.0804)"
       style="font-variant:normal;font-weight:normal;font-stretch:normal;font-size:28px;font-family:'Prosto One';-inkscape-font-specification:ProstoOne-Regular;writing-mode:lr-tb;fill:#000000;fill-opacity:1;fill-rule:nonzero;stroke:none"
       id="text186"><tspan
         x="0 22.959999 47.040001 70 91 110.74 133.7 154.7 175.7 183.67999 206.64"
         y="0"
         id="tspan182">ANASTASSIA </tspan><tspan
         x="0 18.620001 41.580002 65.660004 85.400002 105.28 127.68 150.08 173.03999 195.16"
         y="33.599998"
         id="tspan184">LAUTERBACH</tspan></text><text
       transform="matrix(1,0,0,-1,1287,717.4804)"
       style="font-variant:normal;font-weight:normal;font-stretch:normal;font-size:18px;font-family:Rubik;-inkscape-font-specification:Rubik-Regular;writing-mode:lr-tb;fill:#fdb73e;fill-opacity:1;fill-rule:nonzero;stroke:none"
       id="text190"><tspan
         x="0 6.8579998"
         y="0"
         id="tspan188">• </tspan></text><text
       transform="matrix(1,0,0,-1,1305,717.4804)"
       style="font-variant:normal;font-weight:500;font-stretch:normal;font-size:20px;font-family:'Rubik Medium';-inkscape-font-specification:Rubik-Medium;writing-mode:lr-tb;fill:#000000;fill-opacity:1;fill-rule:nonzero;stroke:none"
       id="text194"><tspan
         x="0 6 18.5 30.780001 42.34 54.619999 66.18 78.68 90.959999 102.52 114.898 123.518 128.078 140.358 145.658 153.89999 165.46001 176.89999 185.52 197.38"
         y="0"
         id="tspan192">Independent director</tspan></text><text
       transform="matrix(1,0,0,-1,1287,691.4803)"
       style="font-variant:normal;font-weight:normal;font-stretch:normal;font-size:18px;font-family:Rubik;-inkscape-font-specification:Rubik-Regular;writing-mode:lr-tb;fill:#fdb73e;fill-opacity:1;fill-rule:nonzero;stroke:none"
       id="text198"><tspan
         x="0 6.8579998"
         y="0"
         id="tspan196">• </tspan></text><text
       transform="matrix(1,0,0,-1,1305,691.4803)"
       style="font-variant:normal;font-weight:500;font-stretch:normal;font-size:20px;font-family:'Rubik Medium';-inkscape-font-specification:Rubik-Medium;writing-mode:lr-tb;fill:#000000;fill-opacity:1;fill-rule:nonzero;stroke:none"
       id="text202"><tspan
         x="0 13.7 26.299999 37.740002 43.040001 51.419998 69.480003 80.919998 93.419998 97.980003 109.718 117.598 121.76 130.38 142.98 154.53999 159.10001 173.16 178.46001 190.78 196.08 204.7 216.14 221.46001 226.02 240.08 251.258 262.37799 273.93799 279.258 291.11801 303.39801 321.45801 333.01801 345.396 354.01599 358.57599 372.276 384.13599 402.19601 420.25601 425.556 434.17599 442.79599 454.35599"
         y="0"
         id="tspan200">Chairman of the Digital Development Committee</tspan></text><text
       transform="matrix(1,0,0,-1,1287,665.4803)"
       style="font-variant:normal;font-weight:normal;font-stretch:normal;font-size:18px;font-family:Rubik;-inkscape-font-specification:Rubik-Regular;writing-mode:lr-tb;fill:#fdb73e;fill-opacity:1;fill-rule:nonzero;stroke:none"
       id="text206"><tspan
         x="0 6.8579998"
         y="0"
         id="tspan204">• </tspan></text><text
       transform="matrix(1,0,0,-1,1305,665.4803)"
       style="font-variant:normal;font-weight:500;font-stretch:normal;font-size:20px;font-family:'Rubik Medium';-inkscape-font-specification:Rubik-Medium;writing-mode:lr-tb;fill:#000000;fill-opacity:1;fill-rule:nonzero;stroke:none"
       id="text210"><tspan
         x="0 16.24 27.799999 45.860001 58.139999 69.699997 77.660004 82.220001 93.958 101.838 106 114.62 127.22 138.78 143.34 156.2 164.82001 173.03799 184.37801 192.998 204.558 216.87801 222.17799 233.618 238.17799 251.37801 256.698 268.138 280.638 293.138 298.43799 310.93799 323.258 327.81799 341.51801 353.37799 371.43799 389.49799 394.798 403.418 412.03799 423.59799"
         y="0"
         id="tspan208">Member of the Strategic Planning Committee</tspan></text><text
       transform="matrix(1,0,0,-1,1287,639.4803)"
       style="font-variant:normal;font-weight:normal;font-stretch:normal;font-size:18px;font-family:Rubik;-inkscape-font-specification:Rubik-Regular;writing-mode:lr-tb;fill:#fdb73e;fill-opacity:1;fill-rule:nonzero;stroke:none"
       id="text214"><tspan
         x="0 6.8579998"
         y="0"
         id="tspan212">• </tspan></text><text
       transform="matrix(1,0,0,-1,1305,639.4803)"
       style="font-variant:normal;font-weight:500;font-stretch:normal;font-size:20px;font-family:'Rubik Medium';-inkscape-font-specification:Rubik-Medium;writing-mode:lr-tb;fill:#000000;fill-opacity:1;fill-rule:nonzero;stroke:none"
       id="text218"><tspan
         x="0 16.24 27.799999 45.860001 58.139999 69.699997 77.660004 82.220001 93.958 101.838 106 114.62 127.22 138.78 142.81799 156.578 169.01801 181.298 186.59801 195.218 199.778 213.478 225.338 243.39799 261.45801 266.758 275.37799 283.99799 295.55801"
         y="0"
         id="tspan216">Member of the Audit Committee</tspan></text><text
       transform="matrix(1,0,0,-1,1287,585.4803)"
       style="font-variant:normal;font-weight:normal;font-stretch:normal;font-size:18px;font-family:Rubik;-inkscape-font-specification:Rubik-Regular;writing-mode:lr-tb;fill:#fdb73e;fill-opacity:1;fill-rule:nonzero;stroke:none"
       id="text222"><tspan
         x="0 6.8579998"
         y="0"
         id="tspan220">• </tspan></text><text
       transform="matrix(1,0,0,-1,1305,585.4803)"
       style="font-variant:normal;font-weight:300;font-stretch:normal;font-size:18px;font-family:'Rubik Light';-inkscape-font-specification:Rubik-Light;writing-mode:lr-tb;fill:#000000;fill-opacity:1;fill-rule:nonzero;stroke:none"
       id="text226"><tspan
         x="0 11.754 21.798 28.062 38.681999 43.02 47.664001 54.827999 65.124001 73.889999"
         y="0"
         id="tspan224">Born: 1972</tspan></text><text
       transform="matrix(1,0,0,-1,1287,551.4783)"
       style="font-variant:normal;font-weight:normal;font-stretch:normal;font-size:18px;font-family:Rubik;-inkscape-font-specification:Rubik-Regular;writing-mode:lr-tb;fill:#fdb73e;fill-opacity:1;fill-rule:nonzero;stroke:none"
       id="text230"><tspan
         x="0 6.8579998"
         y="0"
         id="tspan228">• </tspan></text><text
       transform="matrix(1,0,0,-1,1305,551.4783)"
       style="font-variant:normal;font-weight:300;font-stretch:normal;font-size:18px;font-family:'Rubik Light';-inkscape-font-specification:Rubik-Light;writing-mode:lr-tb;fill:#000000;fill-opacity:1;fill-rule:nonzero;stroke:none"
       id="text236"><tspan
         x="0 11.952 18.072001 27.719999 38.16 48.689999 58.248001 64.709999 74.538002 84.977997 89.260201 95.740196 101.7882 111.8322 127.6362 132.2802 141.9102 151.95419 167.75819 177.8022 188.4222 198.4662 207.3222 217.04221 226.20419 230.84821 244.8882 254.93221 263.78821 273.43619 283.24619 296.98019 301.62421 312.51419 318.9762 328.53421 334.99619 344.82419 349.4682 361.90619 372.52621 376.54019 385.8624 395.6904 401.95441 410.81039 414.8244 421.28641 430.3764"
         y="0"
         id="tspan232">Graduated from Lomonosov Moscow State University </tspan><tspan
         x="0 9.6479998 20.268 30.708 35.352001 46.872002 57.509998 67.337997 71.351997 81.972 85.986 94.842003 104.49 115.128 124.956 129.60001 139.57021 145.8342 149.84821 159.67619 170.1162 176.3802 180.3942 190.04221 200.68021 209.06641 223.2504 227.2644 231.31441 241.95239 251.7804 255.8304 271.6344 280.25641 288.87839 301.31641 311.9364 315.95041 325.27441 335.10239 341.36639 350.22241 354.23639 360.69839 370.25461 376.71661 380.9826 385.62659 397.38062 407.42459 418.04459 428.66461"
         y="23.993999"
         id="tspan234">and Rheinische Friedrich-Wilhelms-Universität, Bonn.</tspan></text><text
       transform="matrix(1,0,0,-1,1287,493.4823)"
       style="font-variant:normal;font-weight:normal;font-stretch:normal;font-size:18px;font-family:Rubik;-inkscape-font-specification:Rubik-Regular;writing-mode:lr-tb;fill:#fdb73e;fill-opacity:1;fill-rule:nonzero;stroke:none"
       id="text240"><tspan
         x="0 6.8579998"
         y="0"
         id="tspan238">• </tspan></text><text
       transform="matrix(1,0,0,-1,1305,493.4823)"
       style="font-variant:normal;font-weight:300;font-stretch:normal;font-size:18px;font-family:'Rubik Light';-inkscape-font-specification:Rubik-Light;writing-mode:lr-tb;fill:#000000;fill-opacity:1;fill-rule:nonzero;stroke:none"
       id="text246"><tspan
         x="0 11.718 22.356001 26.370001 36.108002 42.174 46.818001 57.473999 66.582001 76.410004 86.057999 96.587997 103.05 107.064 116.3862 126.2142 130.8582 142.7742 149.2542 155.73421 159.7482 169.39619 179.2242 185.0544 189.69839 199.61639 205.6824 210.3264 220.1904 229.83839 240.36839 246.8304 256.65839 262.92239 273.3624 283.01041 292.65839 303.29639"
         y="0"
         id="tspan242">Chief Executive Officer of Lauterbach </tspan><tspan
         x="0 11.718 21.761999 32.382 41.237999 51.768002 55.818001 62.279999 66.293999 76.914001 87.372002 92.015999 104.148 108.2862 118.8522 128.68021 139.1562 145.61819 156.14819 162.4122 166.42619 177.0462 187.5042 192.14819 204.1002 219.90421 230.34419 242.7804"
         y="23.993999"
         id="tspan244">Consulting &amp; Venturing GmbH.</tspan></text><text
       transform="matrix(1,0,0,-1,1287,435.4863)"
       style="font-variant:normal;font-weight:normal;font-stretch:normal;font-size:18px;font-family:Rubik;-inkscape-font-specification:Rubik-Regular;writing-mode:lr-tb;fill:#fdb73e;fill-opacity:1;fill-rule:nonzero;stroke:none"
       id="text250"><tspan
         x="0 6.8579998"
         y="0"
         id="tspan248">• </tspan></text><text
       transform="matrix(1,0,0,-1,1305,435.4863)"
       style="font-variant:normal;font-weight:300;font-stretch:normal;font-size:18px;font-family:'Rubik Light';-inkscape-font-specification:Rubik-Light;writing-mode:lr-tb;fill:#000000;fill-opacity:1;fill-rule:nonzero;stroke:none"
       id="text260"><tspan
         x="0 14.04 23.868 39.672001 50.112 59.939999 65.772003 70.416 80.334 86.398201 90.648003 97.110001 107.748 117.576 122.22 133.974 144.01801 153.666 159.6942 170.1342 174.7782 184.6962 190.76221 195.4062 207.59219 211.6062 217.65421 227.48219 237.1302 243.59219 253.6362 259.90021 268.7562 273.40021 283.31821 289.38239 294.0264 304.6824 314.33041 322.8804 331.80841 342.9324 352.68839 359.15039 363.7944 375.09839 384.7644 396.48239 401.14441"
         y="0"
         id="tspan252">Member of the Board of Directors of EasyJet PLC; </tspan><tspan
         x="0 15.804 25.632 41.436001 51.875999 61.703999 67.536003 72.18 82.098 88.162201 92.412003 98.874001 109.512 119.34 123.984 135.73801 145.782 155.42999 161.45821 171.89819 180.7542 185.39819 195.31619 201.3822 205.54021 217.1322 227.5722 237.2202 241.23421 250.09019 260.13419 266.39819 275.25421 279.89819 289.45441 295.91641 300.56039 312.7464 316.76041 320.81039 324.8244 335.28241 345.11041 355.5864 362.0484 366.69241 371.21039 381.83041 391.47839 395.76239 400.4064 410.05441 420.67441 431.11441"
         y="23.993999"
         id="tspan254">member of the Boards of Advisors at Diligent Inc. and </tspan><tspan
         x="0 11.7 15.714 21.761999 31.41 35.424 44.279999 48.293999 58.338001 68.958 73.241997 77.886002 89.190002 95.236198 105.1542 111.4362 121.2642 130.12019 138.9762 149.0202 154.8522 159.4962 169.4142 175.48019 179.6382 191.3382 197.6022 204.06419 208.0782 214.5582 218.5722 228.2202 232.23421 241.8822 245.93221 250.5762 255.09419 265.56839 272.0304 281.8584 285.90839 289.9584 293.97241 304.43039 314.25839 324.87839 334.5264 344.3544 348.62039 353.2644 365.45041 375.00659 381.4686 391.11661 395.3826 400.02661 409.67459 420.29459 430.73459"
         y="47.987999"
         id="tspan256">Aircision. Professor of Artificial Intelligence, Data, and </tspan><tspan
         x="0 12.186 21.743999 28.205999 37.854 42.498001 52.938 59.400002 70.038002 74.052002 83.699997 92.556 97.199997 106.7562 113.2182 117.8622 128.8242 141.26221 145.9062 156.56219 165.8862 176.34419 186.3882 197.00819 206.8362 217.31219 223.7742 227.78819 237.4362 241.48621 246.1302 258.56821 269.1882 273.20221 282.52441 292.35239 298.61639 307.47241 311.48639 317.94839 326.42639 330.69241 335.3364 346.5144 356.45041 362.91241 371.7684 382.2084 391.85641 407.6604"
         y="71.982002"
         id="tspan258">Data Ethics at XU Exponential University, Potsdam.</tspan></text><text
       transform="matrix(1,0,0,-1,1287,329.5023)"
       style="font-variant:normal;font-weight:normal;font-stretch:normal;font-size:18px;font-family:Rubik;-inkscape-font-specification:Rubik-Regular;writing-mode:lr-tb;fill:#fdb73e;fill-opacity:1;fill-rule:nonzero;stroke:none"
       id="text264"><tspan
         x="0 6.8579998"
         y="0"
         id="tspan262">• </tspan></text><text
       transform="matrix(1,0,0,-1,1305,329.5023)"
       style="font-variant:normal;font-weight:300;font-stretch:normal;font-size:18px;font-family:'Rubik Light';-inkscape-font-specification:Rubik-Light;writing-mode:lr-tb;fill:#000000;fill-opacity:1;fill-rule:nonzero;stroke:none"
       id="text268"><tspan
         x="0 12.6 22.643999 26.694 37.133999 45.990002 50.633999 61.254002 71.297997 75.942001 84.797997 91.260002 100.908 109.2222 119.0502 123.6942 127.7082 138.3282 142.9722 152.9442 158.9922 168.82021 172.8342 183.29221 193.78619 200.2482 204.8922 216.8082 227.42821 236.6064 239.7762 248.6322 253.2762 262.1322 272.7702 282.41821 288.46439 298.29239 302.9364 312.58441 322.23239 332.6904 336.70441 343.16641 352.81439 356.86441"
         y="0"
         id="tspan266">Holds no stake in Freight One’s share capital.</tspan></text><g
       id="g270"
       transform="translate(99,102)"><path
         d="M 0,0 H 534"
         style="fill:none;stroke:#f0f0f5;stroke-width:4;stroke-linecap:butt;stroke-linejoin:miter;stroke-miterlimit:4;stroke-dasharray:none;stroke-opacity:1"
         id="path272" /></g><g
       id="g274"
       transform="translate(693,102)"><path
         d="M 0,0 H 534"
         style="fill:none;stroke:#f0f0f5;stroke-width:4;stroke-linecap:butt;stroke-linejoin:miter;stroke-miterlimit:4;stroke-dasharray:none;stroke-opacity:1"
         id="path276" /></g><g
       id="g278"
       transform="translate(1287,102)"><path
         d="M 0,0 H 534"
         style="fill:none;stroke:#f0f0f5;stroke-width:4;stroke-linecap:butt;stroke-linejoin:miter;stroke-miterlimit:4;stroke-dasharray:none;stroke-opacity:1"
         id="path280" /></g><text
       transform="matrix(1,0,0,-1,1655.5813,961.5)"
       style="font-variant:normal;font-weight:500;font-stretch:normal;font-size:20px;font-family:'Rubik Medium';-inkscape-font-specification:Rubik-Medium;writing-mode:lr-tb;fill:#000000;fill-opacity:1;fill-rule:nonzero;stroke:none"
       id="text284"><tspan
         x="0 11.44 22.1 26.66 38 46.619999 51.18 63.48 72.760002 82.760002 92.040001 104.44 114.26 126.66 139.84 152.24001"
         y="0"
         id="tspan282">as at 31/12/2020</tspan></text><text
       transform="matrix(1,0,0,-1,38.0813,1023)"
       style="font-variant:normal;font-weight:300;font-stretch:normal;font-size:20px;font-family:'Rubik Light';-inkscape-font-specification:Rubik-Light;writing-mode:lr-tb;fill:#000000;fill-opacity:1;fill-rule:nonzero;stroke:none"
       id="text288"><tspan
         x="0 11.64"
         y="0"
         id="tspan286">62</tspan></text><text
       transform="matrix(1,0,0,-1,99.0013,1023)"
       style="font-variant:normal;font-weight:300;font-stretch:normal;font-size:20px;font-family:'Rubik Light';-inkscape-font-specification:Rubik-Light;writing-mode:lr-tb;fill:#000000;fill-opacity:1;fill-rule:nonzero;stroke:none"
       id="text292"><tspan
         x="0 13.02 24.18 31.139999 42.759998 53.919998 60.720001 71.339996 78.519997 89.440002 94.599998 106.22 117.02 127.38 138.3 145.25999 157.06 167.78 179.58 190.3"
         y="0"
         id="tspan290">Сorporate governance</tspan></text></g></svg>
