<?xml version="1.0" encoding="UTF-8" standalone="no"?>
<?xml-stylesheet type="text/css" href="main.css" ?>
<svg
   xmlns:dc="http://purl.org/dc/elements/1.1/"
   xmlns:cc="http://creativecommons.org/ns#"
   xmlns:rdf="http://www.w3.org/1999/02/22-rdf-syntax-ns#"
   xmlns:svg="http://www.w3.org/2000/svg"
   xmlns="http://www.w3.org/2000/svg"
   version="1.1"
   id="svg2"
   xml:space="preserve"
   width="2560"
   height="1440"
   viewBox="0 0 2560 1440"><metadata
     id="metadata8"><rdf:RDF><cc:Work
         rdf:about=""><dc:format>image/svg+xml</dc:format><dc:type
           rdf:resource="http://purl.org/dc/dcmitype/StillImage" /></cc:Work></rdf:RDF></metadata><defs
     id="defs6"><clipPath
       clipPathUnits="userSpaceOnUse"
       id="clipPath20"><path
         d="M 0,1080 H 1920 V 0 H 0 Z"
         id="path18" /></clipPath></defs><g
     id="g10"
     transform="matrix(1.3333333,0,0,-1.3333333,0,1440)"><g
       id="g12"><g
         id="g14"><g
           id="g16"
           clip-path="url(#clipPath20)"><path
             d="M 0,0 H 1920 V 1080 H 0 Z"
             style="fill:#ffffff;fill-opacity:1;fill-rule:nonzero;stroke:none"
             id="path22" /></g></g></g><path
       d="M 0,893.4 H 1920 V 1080 H 0 Z"
       style="fill:#f0f0f5;fill-opacity:1;fill-rule:nonzero;stroke:none"
       id="path24" /><text
       transform="matrix(1,0,0,-1,99,955.5)"
       style="font-variant:normal;font-weight:normal;font-stretch:normal;font-size:35px;font-family:'Prosto One';-inkscape-font-specification:ProstoOne-Regular;writing-mode:lr-tb;fill:#000000;fill-opacity:1;fill-rule:nonzero;stroke:none"
       id="text28"><tspan
         x="0 9.9750004 40.075001 65.275002 96.775002 124.775 163.27499 191.97501 216.64999 226.625 258.125 288.22501 300.47501 331.97501 362.07501 374.32501 399 428.39999 453.25 465.5 504 528.84998 567.34998 595.34998 620.20001 648.20001 674.45001 686.70001 718.20001 743.40002 755.65002 780.32501 809.72498 834.57501 846.82501 874.82501 906.32501 935.02502 963.02502 992.42499 1004.675 1036.175 1061.375 1073.625 1103.025 1113 1141 1165.85 1193.5 1218.175 1249.675 1277.675"
         y="0"
         id="tspan26">INFORMATION ON THE MEMBERS OF THE BOARD OF DIRECTORS</tspan></text><g
       id="g30"
       transform="translate(99,102)"><path
         d="M 0,0 H 1128"
         style="fill:none;stroke:#f0f0f5;stroke-width:4;stroke-linecap:butt;stroke-linejoin:miter;stroke-miterlimit:4;stroke-dasharray:none;stroke-opacity:1"
         id="path32" /></g><text
       transform="matrix(1,0,0,-1,117,807.0804)"
       style="font-variant:normal;font-weight:normal;font-stretch:normal;font-size:28px;font-family:'Prosto One';-inkscape-font-specification:ProstoOne-Regular;writing-mode:lr-tb;fill:#000000;fill-opacity:1;fill-rule:nonzero;stroke:none"
       id="text38"><tspan
         x="0 23.24 41.860001 64.82 88.339996 96.32 127.12 135.10001 157.5"
         y="0"
         id="tspan34">VLADIMIR </tspan><tspan
         x="0 18.620001 26.6 47.599998 55.580002"
         y="33.599998"
         id="tspan36">LISIN</tspan></text><text
       transform="matrix(1,0,0,-1,99,717.4804)"
       style="font-variant:normal;font-weight:normal;font-stretch:normal;font-size:18px;font-family:Rubik;-inkscape-font-specification:Rubik-Regular;writing-mode:lr-tb;fill:#fdb73e;fill-opacity:1;fill-rule:nonzero;stroke:none"
       id="text42"><tspan
         x="0 6.8579998"
         y="0"
         id="tspan40">• </tspan></text><text
       transform="matrix(1,0,0,-1,117,717.4804)"
       style="font-variant:normal;font-weight:500;font-stretch:normal;font-size:20px;font-family:'Rubik Medium';-inkscape-font-specification:Rubik-Medium;writing-mode:lr-tb;fill:#000000;fill-opacity:1;fill-rule:nonzero;stroke:none"
       id="text46"><tspan
         x="0 16.24 27.799999 45.860001 58.139999 69.699997 77.660004 82.220001 93.958 101.838 106 114.62 127.22 138.78 143.34 156.2 164.82001 173.03799 184.37801 192.998 204.558 216.87801 222.17799 233.618 238.17799 251.37801 256.698 268.138 280.638 293.138 298.43799 310.93799 323.258 327.81799 341.51801 353.37799 371.43799 389.49799 394.798 403.418 412.03799 423.59799"
         y="0"
         id="tspan44">Member of the Strategic Planning Committee</tspan></text><text
       transform="matrix(1,0,0,-1,99,691.4803)"
       style="font-variant:normal;font-weight:normal;font-stretch:normal;font-size:18px;font-family:Rubik;-inkscape-font-specification:Rubik-Regular;writing-mode:lr-tb;fill:#fdb73e;fill-opacity:1;fill-rule:nonzero;stroke:none"
       id="text50"><tspan
         x="0 6.8579998"
         y="0"
         id="tspan48">• </tspan></text><text
       transform="matrix(1,0,0,-1,117,691.4803)"
       style="font-variant:normal;font-weight:500;font-stretch:normal;font-size:20px;font-family:'Rubik Medium';-inkscape-font-specification:Rubik-Medium;writing-mode:lr-tb;fill:#000000;fill-opacity:1;fill-rule:nonzero;stroke:none"
       id="text54"><tspan
         x="0 16.24 27.799999 45.860001 58.139999 69.699997 77.660004 82.220001 93.958 101.838 106 114.62 127.22 138.78 143.34 157.48 169.34 187.39999 192.7 205.2 216.53799 225.158 230.45799 242.31799 254.81799"
         y="0"
         id="tspan52">Member of the Nominations</tspan></text><text
       transform="matrix(1,0,0,-1,117,665.4803)"
       style="font-variant:normal;font-weight:500;font-stretch:normal;font-size:20px;font-family:'Rubik Medium';-inkscape-font-specification:Rubik-Medium;writing-mode:lr-tb;fill:#000000;fill-opacity:1;fill-rule:nonzero;stroke:none"
       id="text58"><tspan
         x="0 11.44 23.940001 36.220001 40.779999 54.139999 65.699997 83.760002 96.199997 108.7 120.26 128.478 139.81799 148.438 153.73801 165.59801 178.09801 182.658 196.358 208.218 226.278 244.338 249.638 258.258 266.87799 278.43799"
         y="0"
         id="tspan56">and Remuneration Committee</tspan></text><text
       transform="matrix(1,0,0,-1,99,611.4803)"
       style="font-variant:normal;font-weight:normal;font-stretch:normal;font-size:18px;font-family:Rubik;-inkscape-font-specification:Rubik-Regular;writing-mode:lr-tb;fill:#fdb73e;fill-opacity:1;fill-rule:nonzero;stroke:none"
       id="text62"><tspan
         x="0 6.8579998"
         y="0"
         id="tspan60">• </tspan></text><text
       transform="matrix(1,0,0,-1,117,611.4803)"
       style="font-variant:normal;font-weight:300;font-stretch:normal;font-size:18px;font-family:'Rubik Light';-inkscape-font-specification:Rubik-Light;writing-mode:lr-tb;fill:#000000;fill-opacity:1;fill-rule:nonzero;stroke:none"
       id="text66"><tspan
         x="0 11.754 21.798 28.062 38.681999 43.02 47.664001 54.827999 65.124001 75.419998"
         y="0"
         id="tspan64">Born: 1956</tspan></text><text
       transform="matrix(1,0,0,-1,99,577.4783)"
       style="font-variant:normal;font-weight:normal;font-stretch:normal;font-size:18px;font-family:Rubik;-inkscape-font-specification:Rubik-Regular;writing-mode:lr-tb;fill:#fdb73e;fill-opacity:1;fill-rule:nonzero;stroke:none"
       id="text70"><tspan
         x="0 6.8579998"
         y="0"
         id="tspan68">• </tspan></text><text
       transform="matrix(1,0,0,-1,117,577.4783)"
       style="font-variant:normal;font-weight:300;font-stretch:normal;font-size:18px;font-family:'Rubik Light';-inkscape-font-specification:Rubik-Light;writing-mode:lr-tb;fill:#000000;fill-opacity:1;fill-rule:nonzero;stroke:none"
       id="text84"><tspan
         x="0 11.952 18.072001 27.719999 38.16 48.689999 58.248001 64.709999 74.538002 84.977997 89.260201 95.740196 101.7882 111.8322 127.6362 131.8842 138.34621 148.98421 158.81219 163.45621 174.34621 184.17419 190.20419 200.6622 210.70621 215.3502 227.2662 233.2962 243.73621 252.5562 263.19421 273.23819 283.85818 287.87219 296.63821 300.65219 311.09219 319.78439 329.6124 334.25641 345.14639 349.1604 359.6004 369.42841 375.69241 379.70639 389.3544 399.9744 404.61841 418.65839 428.4126 434.8746 444.52261 448.5726 452.62259 463.15259 469.18259 479.64059 483.6546 493.30261 502.95059 507.00061"
         y="0"
         id="tspan72">Graduated from the Sergo Ordzhonikidze Siberian Metallurgical </tspan><tspan
         x="0 4.5180001 15.138 23.993999 30.455999 34.470001 40.931999 51.462002 57.924 67.751999 72.017998 76.662003 88.973999 98.6922 108.0162 118.0602 126.8262 137.3562 146.17619 156.7962 166.5522 173.01421 181.87019 190.6362 194.90221 199.5462 203.5602 214.18021 218.8242 225.9882 236.28419 245.0502 255.34621 259.5744 273.72241 277.73639 284.19839 294.8364 299.48041 309.12839 313.7724 324.2124 334.04041 344.49841 350.54639 360.37439 370.20239 374.84641 378.86041 389.48041 394.12439 404.1666 413.9946 420.25861 426.30661 436.35059 446.88062 455.7366"
         y="23.993999"
         id="tspan74">Institute, Novokuznetsk, in 1979 with a degree in Ferrous </tspan><tspan
         x="0 9.6479998 20.268 30.708 35.352001 47.664001 57.708 68.328003 76.931999 86.975998 96.804001 103.068 109.116 119.16 129.69 138.54601 143.19 157.23 166.98421 173.4462 183.09419 187.1442 191.78819 201.8322 211.87621 222.4062 233.0262 243.4662 247.48019 258.10019 268.5582 272.84219 277.48621 289.4382 295.5564 305.20441 315.64441 326.17441 335.73239 342.1944 352.0224 362.4624 366.7464 373.22641 379.27441 389.31839 405.12241 409.36859 415.8306 426.4686 436.2966"
         y="47.987999"
         id="tspan76">and Non-Ferrous Metal Founding. Graduated from the </tspan><tspan
         x="0 12.6 16.614 27.072001 37.709999 47.537998 53.369999 58.014 69.732002 79.776001 95.580002 111.384 121.212 127.2582 136.9062 140.9202 150.56821 154.61819 159.26221 170.15221 179.8002 190.4382 200.48219 210.5262 214.5762 219.2202 228.7764 235.2384 239.4882 245.9502 256.5882 266.4162 270.57239 282.1644 291.81241 301.46039 311.90039 321.72839 337.26239 346.35239 350.9964 360.9144 366.98041 371.62439 381.6684 391.7124 397.76041 407.58841 411.60239 422.06039 432.68039"
         y="71.982002"
         id="tspan78">Higher Commercial School at the Academy of Foreign </tspan><tspan
         x="0 8.3339996 14.454 24.101999 34.542 44.369999 49.014 53.028 63.647999 68.292 75.456001 85.751999 96.047997 107.136 111.78 121.428 132.048 142.48801 146.7702 153.2502 159.2982 169.34219 185.14619 189.3942 195.8562 206.4942 216.3222 220.48019 232.0704 241.7184 251.36639 261.8064 271.6344 287.1684 296.25839 300.9024 310.8204 316.88641 321.5304 333.84241 343.40039 349.8624 353.8764 363.92041 374.54041 384.18839 388.2384 392.88239 403.41241 413.06039 423.1044 433.7244 443.7684 459.3006 468.3924"
         y="95.975998"
         id="tspan80">Trade in 1990 and from the Academy of National Economy </tspan><tspan
         x="0 14.148 18.162001 24.624001 35.262001 39.905998 49.554001 54.198002 64.638 74.466003 84.924004 90.9702 100.7982 110.6262 115.2702 119.2842 129.90421 134.5482 145.0782 154.7262 164.7702 175.3902 185.4342 201.2382 205.2522 214.90021 223.7562 228.40021 238.0482 248.6682 259.10818 263.7522 277.79221 287.44019 298.06021 307.70819 318.1662 327.9942 343.79819 353.62619 364.1004 370.56241 375.20639 379.2204 389.84039 394.48441 401.64841 411.9444 422.24039 432.3204"
         y="119.97"
         id="tspan82">with a degree in Economics and Management in 1992.</tspan></text><text
       transform="matrix(1,0,0,-1,99,423.5063)"
       style="font-variant:normal;font-weight:normal;font-stretch:normal;font-size:18px;font-family:Rubik;-inkscape-font-specification:Rubik-Regular;writing-mode:lr-tb;fill:#fdb73e;fill-opacity:1;fill-rule:nonzero;stroke:none"
       id="text88"><tspan
         x="0 6.8579998"
         y="0"
         id="tspan86">• </tspan></text><text
       transform="matrix(1,0,0,-1,117,423.5063)"
       style="font-variant:normal;font-weight:300;font-stretch:normal;font-size:18px;font-family:'Rubik Light';-inkscape-font-specification:Rubik-Light;writing-mode:lr-tb;fill:#000000;fill-opacity:1;fill-rule:nonzero;stroke:none"
       id="text92"><tspan
         x="0 12.186 22.23 31.878 38.34 48.383999 54.216 58.860001 68.778 74.844002 79.487999 90.143997 100.764 111.222 115.236 125.856 135.68401 145.51199 151.776 155.78999 166.41 176.868 181.134 185.778 197.964 208.008 217.65601 224.118 234.162 239.9922 244.6362 254.5542 260.62021 265.26419 275.79419 285.4422 295.48621 306.1062 316.15021 331.95419 335.9682 345.61621 354.4722 358.73819 363.3822 374.68619 380.73239 390.65039 396.9324 406.76041 415.61639 424.47241 434.51639 439.80841"
         y="0"
         id="tspan90">Doctor of Engineering, Doctor of Economics, Professor.</tspan></text><text
       transform="matrix(1,0,0,-1,99,389.5043)"
       style="font-variant:normal;font-weight:normal;font-stretch:normal;font-size:18px;font-family:Rubik;-inkscape-font-specification:Rubik-Regular;writing-mode:lr-tb;fill:#fdb73e;fill-opacity:1;fill-rule:nonzero;stroke:none"
       id="text96"><tspan
         x="0 6.8579998"
         y="0"
         id="tspan94">• </tspan></text><text
       transform="matrix(1,0,0,-1,117,389.5043)"
       style="font-variant:normal;font-weight:300;font-stretch:normal;font-size:18px;font-family:'Rubik Light';-inkscape-font-specification:Rubik-Light;writing-mode:lr-tb;fill:#000000;fill-opacity:1;fill-rule:nonzero;stroke:none"
       id="text150"><tspan
         x="0 11.718 22.356001 32.004002 36.018002 42.282001 58.085999 67.734001 78.353996 82.998001 92.9142 98.980202 103.2282 109.6902 120.3282 130.1562 134.8002 146.5542 156.59821 166.2462 172.2762 182.7162 187.3602 197.2782 203.34419 207.9882 220.17419 224.1882 230.23621 240.06419 249.7122 256.17419 266.2182 272.48221 281.3382 285.98221 295.89841 301.96439 306.6084 318.92041 328.78439 342.8244 352.9584 357.60239 368.67239 379.79639 390.6864 402.40439 407.06641 411.71039 427.5144 437.34241 453.14639 463.5864 473.4144 479.2446"
         y="0"
         id="tspan98">Chairman of the Board of Directors of NLMK PJSC; member </tspan><tspan
         x="0 9.9180002 15.984 20.232 26.694 37.332001 47.16 51.804001 63.557999 73.601997 83.25 89.279999 99.720001 104.364 114.282 120.348 124.992 137.17799 141.192 147.2382 157.06619 166.7142 173.17619 183.2202 189.48421 198.34019 202.98421 212.90221 218.9682 223.6122 233.87219 237.9222 247.67821 254.1402 263.78821 274.42621 284.25421 290.08441 294.72839 306.68039 312.72839 322.7724 333.3024 343.76041 348.40439 361.00439 371.0484 375.09839 385.53839 389.5524 400.17239 410.6304 419.48639"
         y="23.993999"
         id="tspan100">of the Board of Directors of Fletcher Group Holdings </tspan><tspan
         x="0 9.8640003 13.878 29.681999 33.695999 40.158001 49.986 60.425999 65.087997 69.732002 85.536003 95.363998 111.168 121.608 131.436 137.2662 141.9102 151.8282 157.8942 162.1422 168.6042 179.2422 189.07021 193.7142 205.4682 215.51221 225.1602 231.1884 241.6284 246.2724 256.1904 262.25641 266.90039 279.0864 283.1004 289.14841 298.97641 308.62439 315.0864 325.1304 331.39441 340.2504 344.89441 354.81241 360.87659 365.1264 371.58841 382.22641 392.05441 396.33661 410.1246 420.16861 426.43259 430.4826 440.92261 445.56659 456.4566 462.91861 472.74661 482.57458 486.6246"
         y="47.987999"
         id="tspan102">Limited; member of the Board of Directors of the World Steel </tspan><tspan
         x="0 11.7 20.556 29.412001 39.456001 49.104 53.118 62.675999 69.138 73.152 83.195999 93.816002 98.477997 103.122 114.426 120.4722 130.3002 139.1562 143.1702 153.6102 163.4382 173.9142 180.37621 185.0202 194.6682 205.28819 215.7282 220.37219 236.17619 246.0042 261.8082 272.2482 282.0762 287.9064 292.55042 302.46841 308.53439 312.78241 319.24438 329.88239 339.71039 344.3544 355.24438 365.77441 376.23239 386.06039 392.3244 401.97241 405.98639 414.84241 424.88641 431.15039 440.23859 444.8826 456.6366 466.6806 476.32861 482.35861 492.79861"
         y="71.982002"
         id="tspan104">Association; President and member of the Supervisory Board </tspan><tspan
         x="0 9.9180002 15.984 20.232 26.694 37.332001 47.16 51.804001 63.324001 73.853996 82.709999 91.566002 95.580002 105.228 115.848 120.492 131.382 137.84399 147.672 157.5 161.55 166.194 170.71201 181.332 191.772 202.302 211.158 217.62 223.884 232.9704 237.1284 248.8284 257.68439 266.54041 276.58441 286.23239 290.2464 299.80441 306.26639 310.2804 320.3244 330.9444 335.58841 341.13239 352.6524 363.1824 372.03839 380.89441 384.90839 394.5564 405.17639 409.8204 420.71039 427.17239 437.0004 446.8284 450.87839 456.62039 461.28241"
         y="95.975998"
         id="tspan106">of the Russian Steel Industry Association (Russian Steel); </tspan><tspan
         x="0 11.718 22.356001 32.004002 36.018002 42.282001 58.085999 67.734001 78.353996 82.853996 92.772003 98.837997 102.9384 109.4004 120.0384 129.86639 134.36639 146.12041 156.1644 165.81239 171.84241 182.28239 186.78239 196.70039 202.7664 206.86681 213.3288 223.9668 233.7948 238.2948 242.81281 253.4328 262.28879 268.75079 272.7648 279.22681 289.75681 296.21881 306.04681 310.1832 316.46521 326.50919 332.34119 336.84119 347.7312 357.77521 367.42319 371.43719 381.08521 385.13519 389.63519 401.8212 411.3432 420.66721 430.49521 434.5452 444.5892 455.04721 470.8512 480.6792 491.15341 497.61539 501.88141 506.38141 516.02942"
         y="119.97"
         id="tspan108">Chairman of the Board of the Institute for Social Development, a </tspan><tspan
         x="0 9.6479998 20.285999 29.934 36.198002 40.212002 46.674 56.321999 66.762001 70.811996 80.639999 84.922203 91.204201 101.2482 111.7782 122.3982 132.8382 142.39619 148.8582 152.87219 162.9162 173.53619 178.1982 182.84219 194.14619 200.1942 210.0222 218.8782 222.8922 233.3322 243.1602 253.6344 260.09641 264.74039 274.3884 285.00839 295.44839 300.09241 315.89639 325.7244 341.52841 351.96841 361.79639 367.62659 372.2706 382.1886 388.25461 392.50259 398.9646 409.6026 419.4306 424.07458 434.73059 443.83859 453.6666 463.31461 473.8446 480.30661 484.32059 493.64459 503.4726"
         y="143.964"
         id="tspan110">charitable foundation; President and member of the Executive </tspan><tspan
         x="0 11.718 21.761999 37.566002 53.369999 57.383999 63.846001 70.307999 80.136002 89.963997 94.608002 104.5242 110.5902 114.8382 121.3002 131.9382 141.7662 146.4102 156.45419 166.2822 176.7222 186.5502 192.6702 202.2282 208.6902 212.70419 222.7482 233.36819 238.01221 247.92841 253.9944 258.6384 270.3924 280.92239 284.97241 289.0224 297.87839 307.38239 316.6524 326.48041 331.12439 342.0144 352.6524 362.69641 372.63239 379.09439 383.1084 393.72839 404.1864 408.83041 418.47839 429.09839 439.53839 444.1824 455.90039 459.95041 469.4346 478.5246"
         y="167.95799"
         id="tspan112">Committee of the Federation of Bullseye Shooting and Clay </tspan><tspan
         x="0 11.304 15.318 25.775999 35.604 45.647999 56.268002 60.911999 71.802002 82.440002 92.484001 102.4182 108.8802 112.8942 123.5142 133.9722 138.6162 143.9442 150.4062 161.0442 170.87219 175.5162 187.03619 197.56619 206.4222 215.2782 219.29221 228.9402 239.5602 244.20419 255.09419 265.73221 275.77621 285.71039 292.17239 296.1864 306.8064 317.2644 321.90839 334.34641 344.9664 348.98041 359.02441 368.8884 374.6304 378.89639 383.54041 393.18839 397.8324 409.35239 419.88239 428.7384 437.59439 441.6084 451.25641 461.8764"
         y="191.952"
         id="tspan114">Pigeon Shooting (the Russian Shooting Union), a Russian </tspan><tspan
         x="594 604.62 614.17798 620.64001 624.65399 634.698 645.31799 654.966 659.01599 663.65997 674.28003 684.32397 694.94397 703.71002 714.16803 723.888 733.21198 743.03998 749.30402 759.92401 775.72803 785.55603 796.03021 802.49219 812.1402 816.19019 820.83423 829.69019 840.14819 850.1922 856.45618 862.91821 866.93219 877.55219 888.01019 892.65417 902.30219 911.1582 920.01422 930.05823 939.70618 943.72021 953.27643 959.7384 963.75238 973.79639 984.41638 989.07843 993.72241 1005.4404 1016.0784 1025.7264 1029.7404 1036.0044 1051.8083 1061.4564 1072.0764 1076.7205 1086.6366 1092.7026"
         y="-222.048"
         id="tspan116">national non-governmental sporting association; Chairman of </tspan><tspan
         x="594 600.46198 611.09998 620.92798 625.57202 637.32599 647.37 657.01801 663.04797 673.48798 678.13202 683.67419 694.97821 701.02618 710.85419 719.71021 723.72418 734.16418 743.99219 754.4682 760.55219 766.29419 770.93817 780.8562 786.92218 791.17023 797.6322 808.2702 818.09821 822.74219 835.0542 844.61041 851.07239 855.08643 865.13037 875.75043 885.39838 889.44843 894.09241 904.13641 913.96442 924.40442 934.23242 940.35242 949.9104 956.37238 960.38641 970.43042 981.05042 985.6944 995.61243 1001.6766 1006.3206 1017.2106 1027.8486 1037.8926 1047.8286 1054.2906 1058.3046 1068.9246 1079.3826"
         y="-198.054"
         id="tspan118">the Board (President) of the National Federation of Shooting </tspan><tspan
         x="594 604.89001 615.34802 625.39203 631.65601 638.11798 646.974 651.23999 655.88397 665.53198 670.17603 680.79602 690.84003 701.46002 710.22601 720.68402 726.73022 736.64819 743.12817 747.14221 753.60419 758.24823 768.70618 778.35419 784.61823 791.0802 801.7002 811.5282 817.79218 826.64819 837.28619 841.30017 851.75818 856.42023 861.06421 872.78223 883.42023 893.06818 897.08221 903.34619 919.15021 928.79822 939.41821 944.06219 953.97839 960.0426 964.29242 970.75439 981.3924 991.2204 995.86438 1007.6184 1017.6624 1027.3104 1033.3386 1043.7786 1048.4226 1058.3406 1064.4066 1068.6545 1075.1166 1085.7546 1095.5826"
         y="-174.06"
         id="tspan120">Sports, a non-profit partnership; Chairman of the Board of the </tspan><tspan
         x="594 606.43799 617.05798 621.07202 631.11603 641.73602 646.38 656.29797 662.36401 667.008 671.526 682.146 692.586 703.11603 711.97198 718.43402 724.698 728.71198 738.35999 742.40997 746.42401 755.28003 761.742 770.59802 775.242 784.89001 795.51001 805.95001 810.59399 821.25 831.72241 838.18439 844.23242 854.06042 864.51837 870.56641 880.39441 891.0144 900.84241 911.37238 917.63641 926.49237 931.13641 941.05438 947.11859 951.76257 961.62659 965.64062 976.09857 985.85461 992.31659 1001.1726 1009.7226 1014.3666 1025.7786 1035.6066 1046.0646 1050.0786 1060.1226 1070.7426 1075.0085 1079.6526 1089.3007"
         y="-150.06599"
         id="tspan122">Union of Industrialists and Entrepreneurs of Lipetsk Region, a </tspan><tspan
         x="594 600.04797 609.87598 620.33398 624.34802 634.39203 645.01202 654.65997 658.71002 663.354 673.18201 688.98602 699.44397 703.49402 713.19421 722.46417 732.29218 738.55621 746.87219 750.70618 755.35022 764.99823 773.85419 782.71021 792.75421 802.40222 806.4162 815.97241 822.43439 826.44843 836.49237 847.11243 851.77441 856.4184 872.22241 882.05042 897.85437 908.29437 918.12238 923.95441 928.59839 938.51642 944.5824 948.83038 955.29242 965.93042 975.75842 980.4024 994.44238 1004.0904 1014.7104 1024.3584 1034.8164 1044.6444 1060.4484 1070.2764 1080.7506 1087.2126"
         y="-126.072"
         id="tspan124">regional employers’ association; member of the Management </tspan><tspan
         x="594 605.75403 615.79797 625.44598 631.47601 641.91602 646.18201 650.82599 666.63 676.45801 692.26202 702.70203 712.53003 718.36023 723.00421 732.92218 738.98822 743.23621 749.69818 760.33618 770.16418 774.80823 788.84821 798.49622 809.11621 818.76422 829.22223 839.05017 854.85419 864.68219 875.1582 881.62018 886.26422 898.01819 908.06219 917.71021 923.74017 934.18018 938.82422 950.57819 961.10822 967.15442 976.98242 986.63037 997.1604 1001.4264 1006.0704 1021.8744 1031.7024 1047.5063 1057.9464 1067.7744 1073.6046"
         y="-102.078"
         id="tspan126">Board, member of the Management Board Bureau, member </tspan><tspan
         x="594 603.91803 609.98401 614.23199 620.69397 631.33197 641.15997 645.80402 657.10797 663.22803 672.87598 682.70398 691.56 695.57397 706.01398 710.02802 720.55798 736.362 741.00598 750.92218 756.98822 761.23621 767.69818 778.33618 788.16418 792.80823 802.85217 812.68018 823.12018 832.94818 839.06641 848.71442 852.7644 857.40839 869.1264 879.17041 889.70038 900.32037 909.96838 913.98242 918.03241 922.2984 926.94238 938.6604 949.2984 958.94641 962.96039 969.22443 985.02838 994.67639 1005.2964 1009.9404 1019.8566 1025.9226 1030.1707 1036.6326 1047.2706 1057.0986"
         y="-78.084"
         id="tspan128">of the Praesidium of the Federal Council, Chairman of the </tspan><tspan
         x="594 602.33398 611.98199 621.30603 625.95001 637.12799 647.172 651.22198 655.23602 664.63202 673.72198 678.36603 690.08398 700.12799 715.93201 731.73602 735.75 742.21198 748.67401 758.50201 768.33002 772.59601 777.23999 786.888 797.508 807.948 812.59198 828.396 838.224 854.02802 864.46802 874.29602 880.12439 884.76837 894.6864 900.75238 905.00043 911.4624 922.1004 931.92841 936.57239 947.22839 956.55243 967.01038 976.83838 983.10242 989.56439 994.20837 1005.9264 1015.9704 1026.5004 1037.1204 1046.7684 1050.7823 1054.8324"
         y="-54.09"
         id="tspan130">Tax Policy Committee, and member of the Expert Council </tspan><tspan
         x="594 600.28198 610.32599 616.15802 620.802 632.52002 642.56403 658.36798 668.82599 672.87598 682.56 691.88397 696.52802 707.41803 713.88 719.99823 729.55621 736.01819 745.84619 756.3042 760.31818 769.96619 774.61023 786.7962 796.84021 806.48822 817.01819 832.8222 842.65021 853.12439 859.58643 868.44238 873.08643 883.00439 889.07037 893.31842 899.7804 910.4184 920.2464 924.89038 936.4104 946.94043 955.79639 964.6524 968.66638 978.31439 988.93439 993.57843 1006.0164 1016.6364 1020.6504 1030.6945 1041.3145 1045.9584 1055.8746 1061.9406"
         y="-30.096001"
         id="tspan132">for Complex Strategic Documents of the Russian Union of </tspan><tspan
         x="594 598.51801 609.138 619.578 630.10797 638.96399 645.42603 651.69 655.70398 665.35199 669.40198 673.41602 682.27197 688.73401 697.59003 702.23401 711.88202 722.50201 732.94202 737.586 748.242 758.71442 765.17639 771.22443 781.05243 791.51038 797.55841 807.38641 818.00641 827.83441 838.36438 844.62842 853.48438 858.12842 863.67242 875.19238 886.0824 897.38641 908.22241 913.96442 918.6264 923.27039 939.0744 948.9024 964.70642 975.14642 984.97443 990.80463 995.44861 1005.3666 1011.4326 1015.6806 1022.1426 1032.7806 1042.6086"
         y="-6.1020002"
         id="tspan134">Industrialists and Entrepreneurs (RSPP); member of the </tspan><tspan
         x="594 605.75403 615.79797 625.44598 631.47601 641.91602 646.56 656.20801 666.828 677.26801 681.91199 697.716 707.54401 723.34802 733.78802 743.61603 749.44623 754.09021 764.00818 770.07422 774.3222 780.78418 791.42218 801.25018 805.89423 817.61218 827.65619 838.18622 848.80621 858.45422 862.4682 866.51819 871.16217 881.07843 887.14441 891.32037 899.65442 905.9184 916.44843 925.30438 931.76642 941.59442 951.42242 960.27838 964.92242 974.84039 980.90637 985.15442 991.61639 1002.2544 1012.0824 1016.7264 1028.2465 1038.7764 1047.6324 1056.4884 1060.5024 1070.1504 1080.7704"
         y="17.892"
         id="tspan136">Board and member of the Council of Trustees of the Russian </tspan><tspan
         x="594 605.91602 609.966 619.54199 635.34601 645.80402 649.81799 659.466 670.086 678.94202 683.586 693.62817 703.67218 714.20221 724.8222 735.26221 744.82019 751.28223 755.2962 765.34021 775.96021 780.2262 784.87018 794.51819 799.16217 809.78223 819.82617 830.44623 839.21222 849.67023 855.7182 865.63623 872.11621 876.13019 882.59222 887.23621 896.88422 907.52222 917.17023 923.4342 927.44818 933.91022 943.55823 953.99823 958.04822 967.87622 972.5202 982.56421 988.59241 999.05042 1008.6984 1019.3184 1023.3324 1032.1523 1041.7086 1048.1707 1052.1846 1062.2286 1072.8486 1077.5106"
         y="41.886002"
         id="tspan138">Olympians Foundation, a non-profit charitable organization; </tspan><tspan
         x="594 605.30402 611.35199 621.17999 630.03601 634.04999 644.48999 654.31799 664.79218 671.25421 675.89819 685.81622 691.8822 696.13019 702.59222 713.23022 723.05823 727.70221 738.23218 748.76221 754.81018 764.85419 775.31219 785.1402 794.78821 805.4082 810.05219 820.9422 831.5802 841.62421 851.55841 858.02039 862.03442 872.65442 883.11243 887.75641 899.47443 909.51837 919.97638 926.25842 936.08643 946.52643 956.35437 962.47443 972.03241 978.49438 982.50842 992.55243 1003.1724 1007.8164 1013.3604 1024.0164 1034.9064 1046.1187 1051.8606 1056.1266"
         y="65.879997"
         id="tspan140">President of the European Shooting Confederation (ESC), </tspan><tspan
         x="594 600.46198 611.09998 620.92798 625.57202 630.09003 640.56598 647.02802 656.85602 663.12 673.73999 683.2962 689.75818 693.77222 703.81622 714.43622 724.08423 728.13422 732.7782 743.66821 754.30621 764.35022 774.28619 780.74823 784.76221 795.3822 805.84021 810.48419 821.37421 831.83221 841.87622 848.1402 854.60217 859.24622 869.28839 879.11639 889.5564 899.3844 905.50439 915.06238 921.52441 925.53839 935.5824 946.20239 950.84637 956.39038 960.90839 971.7984 982.68842 992.94843 998.69043 1002.9564 1007.6004 1017.2484 1027.8684 1038.3083 1042.5546 1049.0166 1059.6545 1069.4825"
         y="89.874001"
         id="tspan142">the International Shooting Sport Federation (ISSF), and the </tspan><tspan
         x="594 604.89001 615.34802 625.39203 631.65601 638.11798 646.974 651.13202 662.83197 669.09601 679.53601 683.54999 690.01202 696.13019 705.68817 712.15021 716.16418 726.20819 736.82819 741.47223 753.19019 763.82819 773.4762 789.28021 799.72021 809.54822 814.83838 819.10437 823.74841 833.39642 844.01642 848.6604 858.30841 868.83838 875.30042 885.34442 895.96442 906.00842 921.81238 931.85638 942.38641 951.24237 955.88641 966.50641 976.55042 987.17041 995.9364 1006.3944 1012.4406 1022.3604 1028.8405 1032.8544 1039.3164"
         y="113.868"
         id="tspan144">Sports Arbitration Chamber, an autonomous non-profit </tspan><tspan
         x="594 604.04401 610.07397 620.53198 630.17999 640.79999 644.81403 653.63397 663.19202 669.65399 673.66803 683.71198 694.33197 698.99402 703.638 713.28601 723.90601 734.34601 738.98999 750.70801 761.34601 765.35999 775.09619 781.16217 785.80621 797.52417 807.56818 818.18817 827.04419 837.57422 841.62421 848.08618 857.73419 868.20837 874.67041 878.9184 885.38037 895.42438 900.06842 911.58838 922.11841 937.92242 947.75043 951.80042 960.11639 969.9444 974.21039 978.85437 988.50238 999.12238 1003.7664 1013.4144 1022.2704 1031.1263 1041.1704 1050.8184 1054.8324 1064.3885 1070.8506 1074.8646 1084.9086 1095.5286"
         y="137.862"
         id="tspan146">organization; and Chief Consultant to Rumelko, an association </tspan><tspan
         x="594 603.91803 609.98401 614.62799 625.086 631.13397 641.17798 651.63599 661.46399 667.72803 674.19 683.28003 687.92401 697.73401 711.88202 722.50201 732.33002 738.59399 747.45001 751.73218 758.01422 768.05823 773.8902 778.14001 784.60199 795.23999 805.06799 809.71198 820.16998 826.21619 836.15222 842.6142 852.4422 862.09021 868.55219 872.56622 882.61023 893.23022 897.87421 907.79218 913.85822 918.1062 924.56818 935.20618 945.03418 949.04822 954.87842 959.5224 963.53638 974.01239 980.47443 990.30243 996.3504 1006.1784 1015.0344 1021.4964 1030.3524"
         y="161.856"
         id="tspan148">of property owners for the protection of their interests.</tspan></text><text
       transform="matrix(1,0,0,-1,693,193.6463)"
       style="font-variant:normal;font-weight:normal;font-stretch:normal;font-size:18px;font-family:Rubik;-inkscape-font-specification:Rubik-Regular;writing-mode:lr-tb;fill:#fdb73e;fill-opacity:1;fill-rule:nonzero;stroke:none"
       id="text154"><tspan
         x="0 6.8579998"
         y="0"
         id="tspan152">• </tspan></text><text
       transform="matrix(1,0,0,-1,711,193.6463)"
       style="font-variant:normal;font-weight:300;font-stretch:normal;font-size:18px;font-family:'Rubik Light';-inkscape-font-specification:Rubik-Light;writing-mode:lr-tb;fill:#000000;fill-opacity:1;fill-rule:nonzero;stroke:none"
       id="text158"><tspan
         x="0 12.6 22.643999 26.694 37.133999 45.990002 50.633999 61.254002 71.297997 75.942001 84.797997 91.260002 100.908 109.2222 119.0502 123.6942 127.7082 138.3282 142.9722 152.9442 158.9922 168.82021 172.8342 183.29221 193.78619 200.2482 204.8922 216.8082 227.42821 236.6064 239.7762 248.6322 253.2762 262.1322 272.7702 282.41821 288.46439 298.29239 302.9364 312.58441 322.23239 332.6904 336.70441 343.16641 352.81439 356.86441"
         y="0"
         id="tspan156">Holds no stake in Freight One’s share capital.</tspan></text><text
       transform="matrix(1,0,0,-1,1305,807.0804)"
       style="font-variant:normal;font-weight:normal;font-stretch:normal;font-size:28px;font-family:'Prosto One';-inkscape-font-specification:ProstoOne-Regular;writing-mode:lr-tb;fill:#000000;fill-opacity:1;fill-rule:nonzero;stroke:none"
       id="text164"><tspan
         x="0 30.799999 53.759998 76.160004 98.419998"
         y="0"
         id="tspan160">MARK </tspan><tspan
         x="0 25.200001 47.459999 67.339996 88.339996 103.46 126.7 151.89999 174.16 195.16 215.03999"
         y="33.599998"
         id="tspan162">OKES-VOYSEY</tspan></text><text
       transform="matrix(1,0,0,-1,1287,717.4804)"
       style="font-variant:normal;font-weight:normal;font-stretch:normal;font-size:18px;font-family:Rubik;-inkscape-font-specification:Rubik-Regular;writing-mode:lr-tb;fill:#fdb73e;fill-opacity:1;fill-rule:nonzero;stroke:none"
       id="text168"><tspan
         x="0 6.8579998"
         y="0"
         id="tspan166">• </tspan></text><text
       transform="matrix(1,0,0,-1,1305,717.4804)"
       style="font-variant:normal;font-weight:500;font-stretch:normal;font-size:20px;font-family:'Rubik Medium';-inkscape-font-specification:Rubik-Medium;writing-mode:lr-tb;fill:#000000;fill-opacity:1;fill-rule:nonzero;stroke:none"
       id="text172"><tspan
         x="0 6 18.5 30.780001 42.34 54.619999 66.18 78.68 90.959999 102.52 114.898 123.518 128.078 140.358 145.658 153.89999 165.46001 176.89999 185.52 197.38"
         y="0"
         id="tspan170">Independent director</tspan></text><text
       transform="matrix(1,0,0,-1,1287,691.4803)"
       style="font-variant:normal;font-weight:normal;font-stretch:normal;font-size:18px;font-family:Rubik;-inkscape-font-specification:Rubik-Regular;writing-mode:lr-tb;fill:#fdb73e;fill-opacity:1;fill-rule:nonzero;stroke:none"
       id="text176"><tspan
         x="0 6.8579998"
         y="0"
         id="tspan174">• </tspan></text><text
       transform="matrix(1,0,0,-1,1305,691.4803)"
       style="font-variant:normal;font-weight:500;font-stretch:normal;font-size:20px;font-family:'Rubik Medium';-inkscape-font-specification:Rubik-Medium;writing-mode:lr-tb;fill:#000000;fill-opacity:1;fill-rule:nonzero;stroke:none"
       id="text180"><tspan
         x="0 13.7 26.299999 37.740002 43.040001 51.419998 69.480003 80.919998 93.419998 97.980003 109.718 117.598 121.76 130.38 142.98 154.53999 158.578 172.338 184.778 197.058 202.358 210.978 215.53799 229.23801 241.09801 259.15799 277.21799 282.51801 291.138 299.758 311.31799 322.87799"
         y="0"
         id="tspan178">Chairman of the Audit Committee </tspan></text><text
       transform="matrix(1,0,0,-1,1287,611.4803)"
       style="font-variant:normal;font-weight:normal;font-stretch:normal;font-size:18px;font-family:Rubik;-inkscape-font-specification:Rubik-Regular;writing-mode:lr-tb;fill:#fdb73e;fill-opacity:1;fill-rule:nonzero;stroke:none"
       id="text184"><tspan
         x="0 6.8579998"
         y="0"
         id="tspan182">• </tspan></text><text
       transform="matrix(1,0,0,-1,1305,611.4803)"
       style="font-variant:normal;font-weight:300;font-stretch:normal;font-size:18px;font-family:'Rubik Light';-inkscape-font-specification:Rubik-Light;writing-mode:lr-tb;fill:#000000;fill-opacity:1;fill-rule:nonzero;stroke:none"
       id="text188"><tspan
         x="0 11.754 21.798 28.062 38.681999 43.02 47.664001 54.827999 64.907997 75.384003"
         y="0"
         id="tspan186">Born: 1963</tspan></text><text
       transform="matrix(1,0,0,-1,1287,577.4783)"
       style="font-variant:normal;font-weight:normal;font-stretch:normal;font-size:18px;font-family:Rubik;-inkscape-font-specification:Rubik-Regular;writing-mode:lr-tb;fill:#fdb73e;fill-opacity:1;fill-rule:nonzero;stroke:none"
       id="text192"><tspan
         x="0 6.8579998"
         y="0"
         id="tspan190">• </tspan></text><text
       transform="matrix(1,0,0,-1,1305,577.4783)"
       style="font-variant:normal;font-weight:300;font-stretch:normal;font-size:18px;font-family:'Rubik Light';-inkscape-font-specification:Rubik-Light;writing-mode:lr-tb;fill:#000000;fill-opacity:1;fill-rule:nonzero;stroke:none"
       id="text198"><tspan
         x="0 11.952 18.072001 27.719999 38.16 48.689999 58.248001 64.709999 74.538002 84.977997 89.260201 95.740196 101.7882 111.8322 127.6362 132.2802 141.9102 151.95419 162.5742 173.01421 183.0582 193.67821 198.3222 212.3622 222.11819 228.5802 234.6282 244.6722 255.1302 265.17419 269.22421 273.23819 279.7002 289.34821 299.9682 304.61221 317.0502 327.6702 331.6842 341.00641 350.83441 357.09839 365.95441 369.96841 376.43039 385.52039 390.1644 394.17841 404.7984"
         y="0"
         id="tspan194">Graduated from London Metropolitan University in </tspan><tspan
         x="0 7.164 17.459999 28.584 39.708 43.938 58.085999 62.099998 68.561996 79.199997 83.844002 93.491997 98.136002 108.576 118.404 128.862 134.9082 144.73621 154.56419 159.20821 163.2222 173.84219 178.0002 189.59219 199.2402 208.8882 218.93221 229.4622 239.9382 246.40021 250.4142 261.03421 271.49219 276.1362 285.78421 296.40421 306.84421 311.48819 321.7482 325.76221 336.3822 346.03021 356.65021 366.29819 376.12619"
         y="23.993999"
         id="tspan196">1988 with a degree in Accounting and Finance.</tspan></text><text
       transform="matrix(1,0,0,-1,1287,519.4823)"
       style="font-variant:normal;font-weight:normal;font-stretch:normal;font-size:18px;font-family:Rubik;-inkscape-font-specification:Rubik-Regular;writing-mode:lr-tb;fill:#fdb73e;fill-opacity:1;fill-rule:nonzero;stroke:none"
       id="text202"><tspan
         x="0 6.8579998"
         y="0"
         id="tspan200">• </tspan></text><text
       transform="matrix(1,0,0,-1,1305,519.4823)"
       style="font-variant:normal;font-weight:300;font-stretch:normal;font-size:18px;font-family:'Rubik Light';-inkscape-font-specification:Rubik-Light;writing-mode:lr-tb;fill:#000000;fill-opacity:1;fill-rule:nonzero;stroke:none"
       id="text206"><tspan
         x="0 11.718 22.356001 26.370001 36.108002 42.174 46.818001 57.473999 66.582001 76.410004 86.057999 96.587997 103.05 107.064 116.3862 126.2142 130.8582 142.7742 149.2542 155.73421 159.7482 169.39619 179.2242 185.0544 189.69839 199.61639 205.6824 210.3264 220.1904 224.20441 234.8244 244.6524 249.2964 261.24841 267.29639 277.34039 287.87039 298.3284 302.97241 312.8364 316.8504 332.65439 336.6684 343.1304 352.9584 363.39841"
         y="0"
         id="tspan204">Chief Executive Officer of Line Group Limited.</tspan></text><text
       transform="matrix(1,0,0,-1,1287,485.4803)"
       style="font-variant:normal;font-weight:normal;font-stretch:normal;font-size:18px;font-family:Rubik;-inkscape-font-specification:Rubik-Regular;writing-mode:lr-tb;fill:#fdb73e;fill-opacity:1;fill-rule:nonzero;stroke:none"
       id="text210"><tspan
         x="0 6.8579998"
         y="0"
         id="tspan208">• </tspan></text><text
       transform="matrix(1,0,0,-1,1305,485.4803)"
       style="font-variant:normal;font-weight:300;font-stretch:normal;font-size:18px;font-family:'Rubik Light';-inkscape-font-specification:Rubik-Light;writing-mode:lr-tb;fill:#000000;fill-opacity:1;fill-rule:nonzero;stroke:none"
       id="text216"><tspan
         x="0 14.04 23.868 39.672001 50.112 59.939999 65.772003 70.416 80.334 86.398201 90.648003 97.110001 107.748 117.576 122.22 133.974 144.01801 153.666 159.6942 170.1342 174.7782 184.6962 190.76221 195.4062 207.59219 211.6062 217.65421 227.48219 237.1302 243.59219 253.6362 259.90021 268.7562 273.40021 283.04819 293.66821 304.10818 308.7522 320.47021 331.10818 335.12219 344.8584 350.92441 355.56839 367.48441 377.94241 387.77039 393.88861 403.44659 409.9086 413.92261 424.5426 435.00061"
         y="0"
         id="tspan212">Member of the Board of Directors and Chief Operating </tspan><tspan
         x="0 11.916 18.396 24.875999 28.889999 38.537998 48.366001 54.196201 58.840199 68.758202 74.824203 79.468201 92.068199 101.7162 110.5722 119.4282 129.0762 139.6962 148.5522 153.1962 157.7142 168.1902 174.65221 184.48019 190.7442 201.3642 210.9222 217.3842 221.39819 231.4422 242.06219 251.71021 255.76019 260.40421 270.26819 279.9162 293.64841 298.29239 308.5524 312.56641 318.83041 334.6344 339.27841 349.1424 353.1564 368.96039 372.9744 379.4364 389.2644 399.70441"
         y="23.993999"
         id="tspan214">Officer of Hassans International Law Firm Limited.</tspan></text><text
       transform="matrix(1,0,0,-1,1287,427.4843)"
       style="font-variant:normal;font-weight:normal;font-stretch:normal;font-size:18px;font-family:Rubik;-inkscape-font-specification:Rubik-Regular;writing-mode:lr-tb;fill:#fdb73e;fill-opacity:1;fill-rule:nonzero;stroke:none"
       id="text220"><tspan
         x="0 6.8579998"
         y="0"
         id="tspan218">• </tspan></text><text
       transform="matrix(1,0,0,-1,1305,427.4843)"
       style="font-variant:normal;font-weight:300;font-stretch:normal;font-size:18px;font-family:'Rubik Light';-inkscape-font-specification:Rubik-Light;writing-mode:lr-tb;fill:#000000;fill-opacity:1;fill-rule:nonzero;stroke:none"
       id="text224"><tspan
         x="0 12.6 22.643999 26.694 37.133999 45.990002 50.633999 61.254002 71.297997 75.942001 84.797997 91.260002 100.908 109.2222 119.0502 123.6942 127.7082 138.3282 142.9722 152.9442 158.9922 168.82021 172.8342 183.29221 193.78619 200.2482 204.8922 216.8082 227.42821 236.6064 239.7762 248.6322 253.2762 262.1322 272.7702 282.41821 288.46439 298.29239 302.9364 312.58441 322.23239 332.6904 336.70441 343.16641 352.81439 356.86441"
         y="0"
         id="tspan222">Holds no stake in Freight One’s share capital.</tspan></text><g
       id="g226"
       transform="translate(1287,102)"><path
         d="M 0,0 H 534"
         style="fill:none;stroke:#f0f0f5;stroke-width:4;stroke-linecap:butt;stroke-linejoin:miter;stroke-miterlimit:4;stroke-dasharray:none;stroke-opacity:1"
         id="path228" /></g><text
       transform="matrix(1,0,0,-1,1655.5813,961.5)"
       style="font-variant:normal;font-weight:500;font-stretch:normal;font-size:20px;font-family:'Rubik Medium';-inkscape-font-specification:Rubik-Medium;writing-mode:lr-tb;fill:#000000;fill-opacity:1;fill-rule:nonzero;stroke:none"
       id="text232"><tspan
         x="0 11.44 22.1 26.66 38 46.619999 51.18 63.48 72.760002 82.760002 92.040001 104.44 114.26 126.66 139.84 152.24001"
         y="0"
         id="tspan230">as at 31/12/2020</tspan></text><text
       transform="matrix(1,0,0,-1,37.9213,1023)"
       style="font-variant:normal;font-weight:300;font-stretch:normal;font-size:20px;font-family:'Rubik Light';-inkscape-font-specification:Rubik-Light;writing-mode:lr-tb;fill:#000000;fill-opacity:1;fill-rule:nonzero;stroke:none"
       id="text236"><tspan
         x="0 11.64"
         y="0"
         id="tspan234">63</tspan></text><text
       transform="matrix(1,0,0,-1,99.0013,1023)"
       style="font-variant:normal;font-weight:300;font-stretch:normal;font-size:20px;font-family:'Rubik Light';-inkscape-font-specification:Rubik-Light;writing-mode:lr-tb;fill:#000000;fill-opacity:1;fill-rule:nonzero;stroke:none"
       id="text240"><tspan
         x="0 13.02 24.18 31.139999 42.759998 53.919998 60.720001 71.339996 78.519997 89.440002 94.599998 106.22 117.02 127.38 138.3 145.25999 157.06 167.78 179.58 190.3"
         y="0"
         id="tspan238">Сorporate governance</tspan></text></g></svg>
