<?xml version="1.0" encoding="UTF-8" standalone="no"?>
<?xml-stylesheet type="text/css" href="main.css" ?>
<svg
   xmlns:dc="http://purl.org/dc/elements/1.1/"
   xmlns:cc="http://creativecommons.org/ns#"
   xmlns:rdf="http://www.w3.org/1999/02/22-rdf-syntax-ns#"
   xmlns:svg="http://www.w3.org/2000/svg"
   xmlns="http://www.w3.org/2000/svg"
   version="1.1"
   id="svg2"
   xml:space="preserve"
   width="2560"
   height="1440"
   viewBox="0 0 2560 1440"><metadata
     id="metadata8"><rdf:RDF><cc:Work
         rdf:about=""><dc:format>image/svg+xml</dc:format><dc:type
           rdf:resource="http://purl.org/dc/dcmitype/StillImage" /></cc:Work></rdf:RDF></metadata><defs
     id="defs6"><clipPath
       clipPathUnits="userSpaceOnUse"
       id="clipPath20"><path
         d="M 0,1080 H 1920 V 0 H 0 Z"
         id="path18" /></clipPath></defs><g
     id="g10"
     transform="matrix(1.3333333,0,0,-1.3333333,0,1440)"><g
       id="g12"><g
         id="g14"><g
           id="g16"
           clip-path="url(#clipPath20)"><path
             d="M 0,0 H 1920 V 1080 H 0 Z"
             style="fill:#ffffff;fill-opacity:1;fill-rule:nonzero;stroke:none"
             id="path22" /></g></g></g><text
       transform="matrix(1,0,0,-1,99,953.8565)"
       style="font-variant:normal;font-weight:500;font-stretch:normal;font-size:28px;font-family:'Rubik Medium';-inkscape-font-specification:Rubik-Medium;writing-mode:lr-tb;fill:#000000;fill-opacity:1;fill-rule:nonzero;stroke:none"
       id="text26"><tspan
         x="0 18.004 30.072001 45.948002 57.568001 68.599998 74.424004 86.491997 103.908 115.64 133.14 149.21201 164.78 180.964"
         y="0"
         id="tspan24">Staff turnover</tspan></text><text
       transform="matrix(1,0,0,-1,99,917.8565)"
       style="font-variant:normal;font-weight:300;font-stretch:normal;font-size:20px;font-family:'Rubik Light';-inkscape-font-specification:Rubik-Light;writing-mode:lr-tb;fill:#000000;fill-opacity:1;fill-rule:nonzero;stroke:none"
       id="text32"><tspan
         x="0 13.24 24.940001 31.42 36.580002 46.419998 53.599998 64.220001 71.419998 78.157997 82.879997 90.059998 101.76 108.72 120.52 131.31799 141.67799 152.59801 159.078 164.23801 171.03799 181.658 188.838 199.758 204.918 209.37801 221.17799 226.338 237.53799 249.858 261.05801 273.37799 278.078 293.51801 304.23801 314.078 319.23801 330.87799 335.638 347.078 361.89801 366.638 371.798 382.99799 387.758 398.95801 404.11801 415.73801 427.358 432.51801 437.01801 447.91599 463.37601 474.29599 480.776 485.496 492.67599 504.496 515.216 527.01599"
         y="0"
         id="tspan28">Our staff turnover rate in 2020 was 6.5%, 2.2 pp lower than </tspan><tspan
         x="0 4.46 16.26 21.42 32.619999 44.939999 52.900002 62.939999"
         y="26"
         id="tspan30">in 2019.</tspan></text><text
       transform="matrix(1,0,0,-1,99,831.8565)"
       style="font-variant:normal;font-weight:500;font-stretch:normal;font-size:28px;font-family:'Rubik Medium';-inkscape-font-specification:Rubik-Medium;writing-mode:lr-tb;fill:#000000;fill-opacity:1;fill-rule:nonzero;stroke:none"
       id="text36"><tspan
         x="0 18.004 30.072001 45.948002 57.568001 68.599998 74.984001 86.519997 102.704 118.72 130.452 147.868 155.28799 167.356 192.64 208.82401 226.1532 238.22121 244.60519 260.62119 278.12119 295.3132 301.6972 317.7132 334.90521 352.0972 363.60519 379.62119 387.0412 401.96521 417.9812"
         y="0"
         id="tspan34">Staff recruitment and appraisal</tspan></text><text
       transform="matrix(1,0,0,-1,99,795.8565)"
       style="font-variant:normal;font-weight:300;font-stretch:normal;font-size:20px;font-family:'Rubik Light';-inkscape-font-specification:Rubik-Light;writing-mode:lr-tb;fill:#000000;fill-opacity:1;fill-rule:nonzero;stroke:none"
       id="text90"><tspan
         x="0 15.32 26.24 31.4 38.119999 49.040001 59.759998 66.720001 78.419998 82.879997 90.059998 95.220001 105.06 112.24 122.858 130.058 136.798 141.95799 153.118 164.918 169.638 176.81799 188.638 199.558 204.718 216.31799 227.03799 236.87801 241.338 251.17799 256.33801 267.35599 274.09601 279.25601 291.07599 302.776 320.336 331.056 342.85599 348.01599 354.73599 365.65601 375.496 386.65601 398.35599 405.07401 415.79401 426.71399 431.87399 443.49399 447.99399 458.71399 470.51401 482.314 486.77399 498.57401 510.194"
         y="0"
         id="tspan38">We recruit staff on the basis of human resource planning </tspan><tspan
         x="0 10.72 22.52 34.119999 39.279999 43.740002 55.34 66.260002 77.898003 85.078003 89.538002 96.737999 101.198 111.918 122.538 129.718 134.17799 145.338 157.138 162.298 173.31799 180.058 184.778 191.95799 203.778 214.698 219.858 229.09801 239.658 249.758 254.918 265.83801 283.39801 295.01801 299.51801 310.29599 320.59601 331.51599 342.436 347.59601 358.216 365.396 372.57599 379.53601 383.996 395.59601 407.29599 414.47601 425.396 435.23599 439.95401 447.134 458.95401 469.57401 476.754"
         y="26"
         id="tspan40">and identification of the key employee attributes that </tspan><tspan
         x="0 15.46 26.379999 31.540001 43.34 54.259998 65.18 76.779999 81.5 88.68 99.839996 104.6 111.8 123.5 128 135.2 139.66 144.16 149.32001 160.48 172.17999 178.658 183.81799 195.418 207.118 216.95799 221.418 233.218 244.138 253.978 263.81799 268.978 278.81799 285.99799 292.79599 303.41599 310.59601 321.51599 333.13599 343.23599 348.396 359.116 370.91599 382.51599 387.67599 392.13599 409.69601 421.31601 428.034 438.83401 449.194 460.11401"
         y="52"
         id="tspan42">we need to fulfil our business strategy and improve </tspan><tspan
         x="0 11.16 22.860001 29.34 34.5 46.119999 57.040001 64 70.980003 82.139999 89.099998 106.66 117.38 129.17999 139.89999 150.82001 155.58 160.198 173.198 177.698 182.198 187.358 198.37801 205.118 210.278 221.438 233.138 239.618 244.778 255.698 273.258 284.87799 289.37799 300.15601 310.45599 321.37601 332.29599 342.13599 346.85599 354.03601 364.75601 373.996 384.91599 390.07599 401.23599 413.03601 418.19601 424.91599 436.07599 440.57599 451.496 461.336"
         y="78"
         id="tspan44">our performance. All of our employees take on roles </tspan><tspan
         x="0 10.72 22.34 33.959999 40.68 51.84 63.459999 70.419998 74.879997 85.5 92.68 103.6 108.318 115.498 126.658 131.37801 138.558 150.37801 161.298 165.758 172.23801 177.39799 187.23801 196.978 201.438 205.938 210.438 220.278 225.01801 230.17799 240.89799 251.618 263.23801 273.95801 285.55801 290.01801 294.51801 298.978 306.15799 310.61801 321.53799 331.37799 336.11801 341.27802 351.99799 363.798 375.39801 380.55801 391.314 401.67401 413.29401 424.21399 431.17401 435.634 446.55399 458.354 469.07401 479.99399 484.73401"
         y="104"
         id="tspan46">appropriate to their skills, capabilities, and experience, </tspan><tspan
         x="0 10.72 22.52 34.119999 39.279999 51.099998 61.66 72.019997 82.940002 87.660004 94.839996 106.66 117.58 122.74 133.89999 145.52 157.14 168.3 175.25999 182.44 194.14 205.94 210.39999 217.58 227.67799 232.39799 239.578 250.73801 255.89799 262.61801 273.53799 284.258 288.758 293.21799 302.87601 313.79599 318.51599 325.69601 337.51599 348.436 352.896 359.37601 364.13599 371.336 383.03601 387.53601 392.03601 397.19601 408.81601 419.85599 427.03601 437.95599 449.59399 456.77399 461.23401 471.95401 476.45401 481.21399 485.974 501.29401 512.21399"
         y="130"
         id="tspan48">and have the opportunity to realize their full potential. We </tspan><tspan
         x="0 17.559999 28.280001 32.740002 44.380001 51.560001 62.279999 66.739998 78.540001 83.699997 94.419998 99.580002 111.18 121.9 126.4 137.12 148.92 159.64 170.56 175.72 187.32001 198.158 205.338 220.798 231.718 242.638 254.438 259.19601 266.396 270.85599 275.35599 279.85599 284.31601 296.116 307.73599 312.896 322.13599 332.69601 342.79599 347.41599 357.75601 368.47601 379.19601 389.91599 401.716 412.436 416.896 427.81601 437.65601 442.35599 458.07599 462.53601 469.716 481.53601"
         y="156"
         id="tspan50">maintain a balance between filling key vacancies with </tspan><tspan
         x="0 4.46 16.1 23.280001 34.200001 41.16 52.959999 63.68 68.18 73.339996 84.059998 94.779999 106.58 118.18 122.64 134.24001 144.858 152.03799 162.95799 172.798 177.95799 188.67799 200.478 212.078 217.23801 223.95799 234.87801 245.59801 252.558 264.258 268.71799 275.89801 280.358 292.15799 303.77802 308.93799 319.69601 330.056 341.67599 352.59601 359.556 366.73599 376.57599 381.33401 388.534 395.254 406.414 423.974 428.694 435.87399 447.694 458.61401 463.77399 481.33401 492.05399 499.01401 508.254 519.09399 526.27399 531.034"
         y="182"
         id="tspan52">internal candidates and recruiting experts from the market. </tspan><tspan
         x="0 10.7 22.52 26.98 36.82 41.98 52.700001 57.200001 61.700001 72.599998 88.080002 97.919998 103.08 114.78 124.62 129.338 136.51801 147.67799 152.838 162.67799 173.59801 180.558 190.918 201.838 206.998 218.158 229.858 236.338 241.498 252.418 269.978 281.59799 286.09799 296.87601 307.17599 318.09601 329.01599 338.25601 342.51599 347.67599 352.13599 363.776 370.95599 381.87601 388.59601 399.51599 409.35599 416.53601 426.37601 431.53601 442.25601 454.056 465.65601 470.81601 481.53601 486.03601 495.87601 507.03601"
         y="208"
         id="tspan54">This allows us to serve our employees’ interests and also </tspan><tspan
         x="0 11.6 22.18 32.540001 43.459999 47.959999 59.119999 70.739998 75.459999 82.639999 94.459999 105.62 115.46 126.38 131.53999 142.25999 148.978 159.89799 170.618 180.45799 185.618 190.078 201.87801 206.578 222.298 234.118 238.578 249.298 261.11801 265.81601 281.276 292.19601 297.35599 309.15601 320.07599 330.996 342.59601 347.31601 354.496 365.65601 370.81601 380.65601 387.836 394.556 405.47601 417.276 428.896 436.07599 447.896 458.81601 470.616 475.776 486.936 498.63599 505.11401"
         y="234"
         id="tspan56">develop those areas in which we need to strengthen our </tspan><tspan
         x="0 9.8400002 19.58 24.040001 28.540001 33.040001 42.880001"
         y="260"
         id="tspan58">skills.</tspan><tspan
         x="0 13.24 24.940001 31.42 36.580002 41.080002 45.540001 57.139999 63.939999 74.660004 81.620003 91.718002 96.877998 107.898 114.638 119.798 130.51801 141.23801 153.03799 164.638 169.09801 180.698 191.31799 198.498 209.418 214.578 225.298 235.138 244.978 255.89799 265.73801 275.578 293.138 304.05801 315.69601 322.87601 327.59601 334.776 345.936 357.09601 361.59601 371.436 376.59601 387.31601 391.81601 396.31601 407.216 422.69601 432.53601 437.69601 449.396 459.23599 463.95401 471.134 482.29401"
         y="299"
         id="tspan60">Our library of candidate assessment tools allows us to </tspan><tspan
         x="0 17.559999 28.280001 37.52 48.439999 53.599998 71.160004 82.32 89.040001 99.959999 105.12 109.58 121.198 128.17799 139.338 146.298 163.858 174.778 186.37801 191.53799 202.258 214.058 225.658 230.81799 240.658 252.278 263.198 273.918 278.37799 285.578 290.03799 300.758 305.918 317.73801 322.198 329.15799 333.61801 345.418 357.03799 362.198 373.798 384.71799 395.43799 399.89801 409.73801 414.198 425.358 437.15799 446.99799 451.73801 456.45401 463.634 475.45401 486.37399 493.09399 504.01401 515.23199 525.33197"
         y="325"
         id="tspan62">make more informed and specific hiring decisions, thereby </tspan><tspan
         x="0 4.46 22.02 33.639999 40.360001 51.16 61.880001 66.339996 78.139999 89.760002 94.480003 101.66 113.48 124.4 129.56 141.17999 152.88 163.60001 168.10001 172.56 179.74001 189.838 194.998 206.01801 212.758 217.918 229.078 240.778 247.258 252.418 259.138 270.05801 280.77802 287.73801 299.43799 303.89801 311.078 328.638 339.55801 351.19601 358.37601"
         y="351"
         id="tspan64">improving the quality of our recruitment.</tspan><tspan
         x="0 15.32 26.24 31.4 42.119999 48.84 59.759998 64.919998 75.639999 87.339996 94.300003 101.02 111.94 123.578 130.758 135.258 145.358 150.51801 161.23801 172.938 180.118 191.278 208.838 219.45799 226.638 231.09801 242.89799 254.51801 259.67801 270.83801 282.53799 289.01801 294.17801 308.17801 320.978 326.138 337.758 344.47601 355.63599 366.35599 377.276 387.116 396.95599 407.87601 417.716 422.87601 433.59601 445.396 456.996 461.69601 477.15601 488.07599"
         y="390"
         id="tspan66">We are currently automating our HR processes and we </tspan><tspan
         x="0 11.82 22.379999 32.740002 43.66 48.82 59.540001 70.699997 88.260002 99.879997 104.38 115.218 122.398 133.31799 144.918 149.638 156.81799 168.638 179.558 184.31799 191.51801 195.978 202.938 212.778 219.95799 225.118 234.95799 242.138 252.858 264.478 275.39801 280.55801 291.57599 298.31601 303.03601 310.216 322.03601 332.95599 338.116 349.716 360.29599 370.65601 381.57599 386.07599 397.23599 408.85599 426.41599 437.336 448.974 456.15399 461.314 472.33401 479.07401 484.23401 494.95401 499.45401 510.61401 522.31403 533.914"
         y="416"
         id="tspan68">have completed the first stage of the development of cloud </tspan><tspan
         x="0 9.8400002 21 25.5 37.200001 44.380001 48.84 60 71.800003 81.639999 86.800003 98.5 108.34 112.8 124.6 136.22 141.38 153.278 166.278 178.37801 183.53799 195.638 207.338 218.058 228.778 239.698 249.53799 259.37799 270.13599 280.85599 291.57599 298.75601 309.91599 316.87601 326.716"
         y="442"
         id="tspan70">solutions using SAP SuccessFactors.</tspan><tspan
         x="0 15.32 26.24 31.4 42.119999 48.84 59.759998 64.919998 69.379997 86.940002 98.559998 103.06 113.98 131.53999 142.46001 154.09801 161.278 165.73801 177.53799 189.158 194.31799 205.03799 209.758 216.938 227.658 232.158 243.078 254.718 261.89801 267.05801 278.67801 289.83801 300.99799 305.49799 310.65799 322.258 332.836 343.19601 354.116 358.616 369.776 381.396 398.95599 409.87601 421.51599 428.69601"
         y="481"
         id="tspan72">We are implementing a talent pool development </tspan><tspan
         x="0 11.62 18.34 29.5 41.119999 47.919998 58.639999 76.199997 93.760002 104.68 109.4 116.58 128.39999 139.01801 146.198 151.358 162.078 166.578 171.078 181.978 197.45799 207.298 212.45799 224.158 233.998 238.718 245.89799 257.05801 262.21799 273.83801 280.798 285.258 296.418 303.37799 307.83801 315.01801 319.478 329.13599 340.056 345.216 349.67599 361.31601 368.496 379.41599 386.37601 398.17599 408.896 413.396 418.556 429.276 439.996 451.79599 463.396 467.85599 479.45599 490.07401 497.254 508.17401 518.01398"
         y="507"
         id="tspan74">programme that allows us to prioritize internal candidates </tspan><tspan
         x="0 6.98 18.139999 24.620001 29.24 39.580002 50.299999 61.02 71.739998 83.540001 94.260002 98.720001 109.64 119.48 124.178 139.89799 151.718 162.638 169.358 180.278 185.438 196.158 200.658 205.158 210.31799 221.358 228.53799 240.358 251.278 257.758 262.51801 269.578 280.298 291.01801 298.198 309.358 316.31799 326.15799 331.31799 342.03799 348.75601 359.67599 364.836 375.75601 387.37601 399.07599 409.79599 414.29599 419.03601 424.19601 434.95599 445.31601 456.936 467.65601 479.45599 491.056 495.51599 507.31601 518.93597"
         y="533"
         id="tspan76">for vacancies where all other factors are equal, expanding </tspan><tspan
         x="0 11.62 18.34 29.24 44.959999 52.139999 63.959999 69.120003 80.279999 91.900002 103.52 114.68 121.64 128.82001 140.52 152.32001 156.78 163.96001 168.42 179.34 189.17999 193.938 200.918 212.078 218.558 223.718 233.558 240.73801 251.358 258.55801 265.298 269.99799 285.71799 297.53799 308.698 313.858 325.67801 336.23599 346.59601 357.51599 362.67599 374.276 385.19601 402.75601 413.91599 425.716 435.556 442.73599 449.53601 460.15601 467.336 478.25601 489.85599"
         y="559"
         id="tspan78">growth opportunities for staff who have demonstrated </tspan><tspan
         x="0 7.1799998 19 29.92 34.380001 40.860001 46.02 57.639999 64.360001 75.379997 82.360001 93.279999 103.12 112.96 117.42 128.58 140.38 151.10001 155.60001 160.06 169.89999 187.46001 192.62 203.34 215.14 226.74001 231.89999 242.62 254.22 258.67999 263.17999 267.64001 274.82001 284.91599 289.63599 296.81601 307.97601 313.13599 323.85599 334.57599 346.396 350.85599 361.436 371.79599 382.716 387.87601 394.59399 405.51401 415.354 427.05399 431.55399 438.73401 448.57401"
         y="585"
         id="tspan80">their professionalism and ability to achieve results.</tspan><tspan
         x="0 12.1 16.559999 28.360001 39.080002 50 55.16 66.360001 78.68 89.879997 101.82 106.56 111.26 126.72 137.64 142.8 154.62 165.17799 175.53799 186.45799 191.618 202.338 206.838 216.67799 227.838 232.998 244.59801 255.51801 266.43799 278.23801 283.39801 290.358 302.05801 313.858 325.65799 330.11801 341.918 353.53799 358.698 369.418 381.21799 386.37799 397.298 414.858 426.478 430.978 441.75601 452.056 462.97601 473.896"
         y="624"
         id="tspan82">Since 2020, we have also been running an employee </tspan><tspan
         x="0 6.7199998 17.639999 22.139999 33.299999 44.02 54.639999 61.82 66.279999 77.440002 89.239998 94.400002 106.02 112.738 123.898 135.51801 142.31799 153.03799 170.59801 188.158 199.078 203.838 208.478 217.638 228.798 233.95799 245.778 256.698 261.198 272.81799 277.978 289.138 300.83801 307.31601 312.47601 322.31601 329.496 340.116 347.31601 354.056 359.216 376.776 387.57599 397.936 408.85599 413.616 420.59601 431.75601 438.23599 443.396 454.116 464.836 471.556 482.47601 493.396 499.87601"
         y="650"
         id="tspan84">relocation programme. To help our staff move for career </tspan><tspan
         x="0 6.7199998 17.639999 28.360001 38.200001 49.360001 61.16 71 75.739998 80.440002 95.900002 106.82 111.98 123.6 130.32001 141.12 151.84 156.3 167.89999 178.82001 183.53799 190.718 202.53799 213.45799 231.01801 235.718 251.438 255.89799 263.078 274.89801 279.61801 286.798 298.61801 309.53799 314.698 325.418 336.578 353.95599 360.936 372.09601 379.056 386.23599 396.95599 408.556 413.056 423.97601 429.13599 433.63599 438.09601 448.81601 453.276 465.07599 476.69601"
         y="676"
         id="tspan86">reasons, we provide them with the comfortable living </tspan><tspan
         x="594 604.91998 616.44 627.15997 631.62 638.34003 649.5 661.29999 678.85999 689.78003 701.41998 708.59998 713.32001 720.5 732.32001 742.87799 752.97803 758.138 769.93799 780.85797 791.77802 803.37799 808.11798 813.27802 823.99799 833.83801 838.53802 853.99799 864.91803 869.41803 873.91803 879.078 889.79797 899.638 904.39801 911.59802 916.05798 927.85797 938.578 950.37799 961.09802 965.55798 976.27802 980.77802 985.93799 995.77802 1007.478 1019.098 1030.718 1041.8781 1048.838 1056.0179 1060.778"
         y="-165.48"
         id="tspan88">environment they need, as well as financial support. </tspan></text><text
       transform="matrix(1,0,0,-1,693,935.3365)"
       style="font-variant:normal;font-weight:300;font-stretch:normal;font-size:20px;font-family:'Rubik Light';-inkscape-font-specification:Rubik-Light;writing-mode:lr-tb;fill:#000000;fill-opacity:1;fill-rule:nonzero;stroke:none"
       id="text94"><tspan
         x="0 15.32 26.24 31.4 41.240002 52.860001 63.779999 75.419998 82.599998 87.760002 100.56 114.38 127.44 132.60001 144.118 148.498 160.39799 165.558 183.118 187.578 192.078 196.578 201.03799 212.198 223.998 229.158 240.31799 252.118 256.83801 264.01801 275.83801 286.758 296.59799 307.51801 312.67801 330.23801 341.15799 351.87799 361.71799 373.418 380.13599 391.056 400.896 406.056 410.51599 422.31601 427.47601 438.67599 450.996 462.19601 474.134"
         y="0"
         id="tspan92">We spent RUB 4.4 million on these measures in 2020.</tspan></text><text
       transform="matrix(1,0,0,-1,693,896.3365)"
       style="font-variant:normal;font-weight:300;font-stretch:normal;font-size:20px;font-family:'Rubik Light';-inkscape-font-specification:Rubik-Light;writing-mode:lr-tb;fill:#000000;fill-opacity:1;fill-rule:nonzero;stroke:none"
       id="text106"><tspan
         x="0 11.16 22.32 28.799999 33.959999 45.119999 56.82 63.299999 68.459999 79.220001 89.580002 96.760002 107.68 114.64 126.44 137.16 141.66 146.82001 153.53799 164.45799 175.17799 182.138 193.838 198.298 205.478 223.03799 233.95799 245.59801 252.778 257.51801 262.21799 277.67801 288.59799 293.758 311.31799 322.03799 331.276 342.19601 347.35599 358.07599 368.79599 375.97601 380.436 390.79599 401.716 406.87601 418.57599 428.41599 439.336 444.496 455.51599 462.25601"
         y="0"
         id="tspan96">For our external recruitment, we make active use of </tspan><tspan
         x="0 9.8400002 21.459999 32.380001 43.099998 47.560001 58.279999 62.779999 67.239998 77.080002 84.260002 89.419998 99.260002 110.18 120.9 127.618 138.338 150.158 155.31799 166.938 171.438 182.058 189.23801 196.218 207.37801 214.338 231.89799 241.73801 246.89799 257.61801 269.418 281.01801 286.17801 292.896 303.81601 321.37601 332.41599 339.59601 350.51599 355.67599 366.396 376.23599 386.07599 396.996 406.836 416.67599 434.23599 445.15601 456.79401 463.974"
         y="26"
         id="tspan98">specialist search platforms and remote assessment </tspan><tspan
         x="0 7.1799998 18.34 29.5 34 43.84 48.599998 53.759998 66.82 76.919998 82.080002 93.239998 104.72 111.9 116.36 133.92 138.38 148.17999 152.64 164.44 176.06 181.22 192.38 204.08 210.558 215.258 230.718 241.87801 248.838 258.33801 263.49799 274.21799 286.01801 297.61801 302.77802 314.37799 324.95599 335.31799 346.23801 350.73801 361.89801 373.51801 377.978 389.77802 401.39801 406.116 413.29599 425.116 436.03601 441.19601 451.03601 460.776 465.23599 469.73599 474.23599 484.07599"
         y="52"
         id="tspan100">tools. By optimizing our work and developing the skills </tspan><tspan
         x="0 11.02 17.76 22.92 34.080002 45.779999 52.259998 57.419998 61.880001 73.519997 80.699997 91.620003 98.580002 110.38 121.1 125.6 130.75999 137.478 148.39799 159.118 166.078 177.778 182.23801 189.418 206.978 217.89799 229.53799 236.718 241.87801 251.718 262.638 269.59799 280.31799 284.77802 295.49799 306.418 311.15799 315.85599 331.31601 342.23599 347.396 359.216 369.776 380.13599 391.056 396.216 413.776 424.496 436.29599 447.01599 458.63599 469.556 481.15601 485.87399 493.05399 504.21399"
         y="78"
         id="tspan102">of our internal recruitment service, we have managed to </tspan><tspan
         x="0 9.8400002 14.3 25.92 37.720001 42.18 49.380001 53.84 64.559998 75.279999 86.917999 94.098 98.598 108.698 113.858 120.578 131.498 143.09801 154.798 165.51801 176.438 181.158 188.338 200.158 211.078 215.798 222.978 227.438 244.998 255.918 260.638 267.81799 278.53799 287.77802 298.698 310.49799 315.21799 322.39801 333.55801 338.31799 345.51801 349.978 354.478 358.978 364.138 373.37799 383.93799 394.03799 398.65799 408.99799 419.71799 430.43799 441.15799 452.95801 463.67801 468.138 479.05801 488.89801"
         y="104"
         id="tspan104">significantly reduce the time taken to fill key vacancies.</tspan></text><text
       transform="matrix(1,0,0,-1,693,732.3365)"
       style="font-variant:normal;font-weight:500;font-stretch:normal;font-size:28px;font-family:'Rubik Medium';-inkscape-font-specification:Rubik-Medium;writing-mode:lr-tb;fill:#000000;fill-opacity:1;fill-rule:nonzero;stroke:none"
       id="text110"><tspan
         x="0 8.3999996 25.9 41.916 58.099998 75.431999 87.5 94.919998 110.488 126.672 141.59599 147.98 163.996 181.496 198.688 205.07201 216.60519 232.7892 258.07321 275.4892 292.9892 309.17319 320.68121 336.55719 348.62521 356.0452 372.6492"
         y="0"
         id="tspan108">Incentives and remuneration</tspan></text><text
       transform="matrix(1,0,0,-1,693,696.3365)"
       style="font-variant:normal;font-weight:300;font-stretch:normal;font-size:20px;font-family:'Rubik Light';-inkscape-font-specification:Rubik-Light;writing-mode:lr-tb;fill:#000000;fill-opacity:1;fill-rule:nonzero;stroke:none"
       id="text208"><tspan
         x="0 5.02 16.82 27.540001 38.459999 50.099998 57.279999 61.740002 72.099998 83.019997 92.860001 98.019997 108.74 120.54 132.14 137.3 144.01801 154.938 172.498 184.198 195.998 206.918 213.718 224.338 231.51801 235.978 247.138 258.93799 264.09799 275.71799 280.21799 290.75601 300.85599 306.01599 316.73599 321.896 333.51599 340.23599 351.396 368.95599 373.41599 385.216 396.13599 407.776 414.95599 420.116 426.836 437.996 442.496 453.41599 458.57599 463.03601 474.836 479.996 491.15601 502.85599 509.33401"
         y="0"
         id="tspan112">Incentives and remuneration play a prominent role in our </tspan><tspan
         x="0 11.82 23.52 41.080002 51.799999 63.599998 68.760002 75.480003 86.400002 96.239998 107.4 119.1 125.818 136.53799 147.45799 157.298 162.45799 172.298 179.478 186.278 196.89799 204.078 214.998 226.618 236.03799 240.798 245.558 260.87799 271.798 276.95801 283.67599 294.59601 305.31601 309.81601 314.276 323.936 334.85599 339.57599 346.75601 358.57599 369.19601 376.37601 381.13599 388.19601 398.91599 409.63599 416.81601 427.97601 434.936 444.776 449.936 459.776 471.47601 482.19601 494.01599"
         y="26"
         id="tspan114">human resources strategy. We realize that factors such </tspan><tspan
         x="0 10.72 20.559999 25.719999 36.639999 54.200001 65.82 70.32 81.098 91.400002 102.32 113.24 118.4 129.32001 141.12 152.74001 163.46001 175.08 186 203.56 214.48 226.118 233.298 238.45799 249.17799 260.978 272.578 277.336 284.53601 288.996 300.79599 311.51599 323.31601 334.03601 338.496 349.216 353.716 358.87601 369.59601 381.396 392.996 398.15601 409.95599 421.116 432.91599 442.194 449.39401 453.854 465.65399 476.37399 488.17401 498.89401 503.354 514.07397 518.57397"
         y="52"
         id="tspan116">as employee engagement and financial and non-financial </tspan><tspan
         x="0 4.46 16.26 26.98 37.900002 49.540001 56.720001 61.18 71.540001 82.459999 92.300003 97.459999 108.18 119.34 130.978 138.158 145.118 149.578 161.17799 172.87801 180.058 190.978 196.138 205.978 210.438 222.058 233.858 238.31799 245.51801 249.978 260.698 271.418 283.056 290.23599 294.73599 304.836 309.556 316.73599 327.896 333.056 344.216 355.91599 362.396 367.556 378.716 390.336 401.25601 408.056 418.67599 425.85599 430.31601 441.47601 453.276 463.996 468.496"
         y="78"
         id="tspan118">incentives contribute significantly to our operational </tspan><tspan
         x="0 10.82 18.02 25.219999 29.68 40.400002 44.860001 55.779999 67.580002 78.017998 87.438004"
         y="104"
         id="tspan120">efficiency.</tspan><tspan
         x="0 5.02 16.82 21.98 33.18 45.5 56.700001 68.639999 73.379997 78.080002 93.540001 104.46 109.62 121.22 132.14 143.75999 154.48 166.28 171.44 175.89999 193.46001 205.08 209.58 220.5 238.06 248.98 260.61801 267.798 272.258 284.05801 295.67801 300.83801 311.55801 316.71799 334.27802 344.99799 356.798 367.51801 379.138 390.05801 407.61801 418.53799 430.17599 437.116 446.85599 458.07599 468.23599"
         y="143"
         id="tspan122">In 2020, we began implementing a management-by-</tspan><tspan
         x="0 11.16 22.76 27.42 38.34 49.060001 56.240002 60.700001 71.057999 81.977997 91.818001 96.977997 107.698 119.318 130.938 137.658 148.81799 159.53799 170.258 182.078 186.838 191.478 202.17799 213.998 224.918 230.078 241.698 248.658 253.118 264.918 275.638 280.09799 291.71799 296.21799 307.138 316.978 322.138 332.858 344.65799 356.258 361.418 368.37799 380.078 384.578 395.49799 405.33801 410.49799 421.51401 428.254 432.974 440.15399 451.974 456.43399 466.27399"
         y="169"
         id="tspan124">objectives approach. The principles and rules of this </tspan><tspan
         x="0 9.5 19.84 29.68 36.860001 47.779999 65.339996 70.038002 85.5 96.419998 103.14 114.06 119.22 129.94 141.53999 152.7 164.17799 171.358 182.278 193.87801 199.03799 203.498 215.298 220.45799 231.658 243.978 251.938 261.978 266.73801 271.37799 282.078 293.89801 298.358 308.198 313.358 324.078 328.578 333.078 343.97601 359.45599 369.29599 374.45599 386.15601 395.996 400.716 407.896 419.056 424.216 428.716 433.17599 444.97601 454.47601"
         y="195"
         id="tspan126">system were adopted in 2019. This allows us to link </tspan><tspan
         x="0 7.1799998 19 29.92 35.080002 46.700001 57.619999 64.580002 74.419998 85.580002 97.379997 108.1 112.6 117.76 128.48 139.64 151.278 158.45799 165.418 169.87801 181.478 193.17799 200.358 204.81799 215.978 227.778 237.618 242.778 253.79601 260.53601 265.69601 276.85599 288.556 295.03601 300.19601 311.116 328.67599 340.29599 344.79599 355.57599 365.87601 376.79599 387.716 397.556 402.276 409.45599 420.616 425.33401 432.51401 444.33401 455.254"
         y="221"
         id="tspan128">the personal contributions of our employees to the </tspan><tspan
         x="0 10.72 21.440001 33.259998 37.720001 48.299999 58.66 69.580002 87.139999 98.059998 109.698 116.878 122.038 133.058 139.798 144.95799 156.03799 162.758 173.67799 178.138 189.758 201.418 208.59801 213.758 226.998 238.798 248.998 252.51801 262.358 267.51801 279.138 290.298 301.01801 305.51801 315.358"
         y="247"
         id="tspan130">achievement of Freight One’s goals.</tspan><tspan
         x="0 5.02 16.82 21.98 33.18 45.5 56.700001 68.639999 73.379997 78.080002 93.540001 104.46 109.62 120.34 124.84 134.67999 145.84 151 161.72 172.88 190.44 202.06 206.56 217.39799 224.578 235.498 247.09801 252.258 256.71799 274.27802 285.89801 290.39801 301.31799 318.87799 329.798 341.436 348.616 359.23599 366.41599 370.87601 382.03601 393.836 398.996 410.01599 416.75601 421.91599 432.63599 437.79599 442.45599 453.616 465.216"
         y="286"
         id="tspan132">In 2020, we also completed implementation of a job </tspan><tspan
         x="0 11.62 18.42 29.139999 40.740002 45.200001 57 68.620003 73.779999 83.278 93.617996 103.458 110.638 121.558 139.118 143.858 148.558 164.278 176.09801 180.558 191.278 203.09801 207.798 223.258 234.17799 239.338 250.938 261.858 273.478 284.198 295.99799 301.15799 312.758 323.336 333.69601 344.616 349.116 360.276 371.896 376.35599 388.15601 399.776 404.936 409.396 421.19601 426.35599 437.556 449.87601 457.836 467.87399"
         y="312"
         id="tspan134">grading system, which we began developing in 2019.</tspan><tspan
         x="0 10.7 22.52 33.439999 38.599998 48.099998 58.439999 68.279999 75.459999 86.379997 103.94 109.1 113.56 123.4 128.56 140.16 150.88 160.72 171.64 183.24001 188.39999 199.56 211.36 216.078 223.258 235.078 245.998 251.158 265.15799 275.69601 285.79599 290.95599 304.23599 310.95599 322.116 333.81601 345.436 350.59601 368.15601 378.996 386.17599 397.996 409.15601 420.75601 425.496 430.21399 437.39401 449.21399 460.134 465.29401 482.854 494.01401 503.854 511.034"
         y="351"
         id="tspan136">The system is based on the Hay Group method, the most </tspan><tspan
         x="0 10.72 21.879999 39.439999 57 68.160004 79.959999 84.459999 94.559998 99.720001 111.42 121.26 132.17999 143.78 148.478 163.938 175.09801 182.058 186.558 198.158 213.87801 218.338 229.938 240.858 246.01801 256.73801 268.53799 280.138 285.298 297.11801 308.03799 312.53799 324.15799 333.99799 339.15799 350.858 360.698 365.41599 372.59601 383.75601 388.91599 399.836 411.63599 421.47601 433.17599 439.89401 450.814 455.534 462.71399 474.534 485.15399 492.33401 497.49399 508.65399 520.354 526.83398"
         y="377"
         id="tspan138">commonly used worldwide and helps us to ensure that our </tspan><tspan
         x="0 6.7199998 17.639999 35.200001 46.900002 58.700001 69.620003 76.417999 87.040001 94.220001 98.68 109.84 121.64 126.8 138.42 149.14 159.86 169.39799 180.118 191.73801 202.658 212.498 217.658 228.37801 232.87801 248.31799 258.858 269.198 279.03799 284.198 290.918 301.83801 319.39801 330.11801 334.578 346.37799 351.53799 362.258 373.418 390.978 402.59799 413.436 420.616 425.07599 432.25601 436.716 447.07599 457.996"
         y="403"
         id="tspan140">remuneration packages always remain competitive.</tspan><tspan
         x="0 13 24.799999 29.959999 40.880001 58.439999 70.059998 74.559998 85.337997 95.639999 106.56 116.758 120.278 130.118 135.278 141.998 152.918 170.478 182.17799 193.978 204.89799 211.698 222.31799 229.498 233.95799 245.118 256.918 262.078 273.67801 284.59799 296.21799 307.138 318.93799 330.53799 340.37799 345.53799 356.698 368.49799 373.216 380.396 392.216 403.13599 407.59601 414.07599"
         y="442"
         id="tspan142">An employee’s remuneration depends on their </tspan><tspan
         x="0 11.62 22.540001 29.5 36.48 47.639999 54.599998 72.160004 82.879997 94.68 105.4 116.32 121.48 132.2 144 155.60001 160.75999 172.58 183.3 193.14 197.858 205.03799 220.498 231.658 236.81799 247.53799 258.698 276.258 287.87799 299.03799 310.83801 321.758 333.396 340.57599 350.41599 355.23599 359.996 367.19601 371.65601 381.776 392.69601 404.29599 409.45599 420.17599 431.97601 443.57599 448.19601 458.53601 469.25601 476.216 480.67599 491.396 502.996 507.496 518.41602 523.17603"
         y="468"
         id="tspan144">performance and has two components: fixed and variable. </tspan><tspan
         x="0 10.7 22.52 33.439999 38.200001 45.18 56.34 63.299999 80.860001 91.779999 98.260002 103.02 110.08 120.8 125.3 129.8 139.64 144.338 160.058 164.51801 171.698 183.51801 187.978 199.778 204.498 211.67799 223.498 234.418 239.578 246.37801 257.09799 268.89801 280.51801 291.43799 296.59799 306.43799 317.27802 324.45801 329.21799 336.198 347.358 353.84 358.56 365.73999 377.56 388.48001 393.638 400.358 411.27802 415.77802 426.358 436.698 447.418 459.05801 466.23801"
         y="494"
         id="tspan146">The former falls within the range set for the relevant </tspan><tspan
         x="0 4.6599998 15.82 27.42 32.580002 44.200001 51 61.720001 73.32 84.239998 89 93.638 104.338 116.158 127.078 131.838 139.03799 143.498 155.298 166.01801 170.51801 175.67799 186.39799 203.95799 215.118 226.81799 238.45799 245.638 250.798 262.39801 273.31799 284.93799 295.858 307.65799 319.258 329.09799 334.258 345.418 357.21799 361.936 369.116 380.936 391.85599 397.01599 407.936 425.496 437.116 441.616 452.39401 462.694 473.61401 483.814 487.33401 497.17401"
         y="520"
         id="tspan148">job grade. The final amount depends on the employee’s </tspan><tspan
         x="0 11.62 23.32 34.040001 38.540001 43 50.200001 54.66 65.379997 75.998001 83.178001 87.638 98.797997 110.598 115.758 120.258 130.838 141.198 152.118 156.618 161.778 172.498 184.298 195.89799 201.058 205.718 216.87801 228.478 233.638 245.23801 256.93799 264.11801 268.578 279.49799 289.33801 294.09799 298.73599 309.436 321.25601 332.17599 337.336 347.17599 358.09601 368.81601 379.97601 391.776 403.37601 408.53601 419.25601 430.41599 447.97601 459.59601 470.75601 482.556 493.47601 505.11401 512.29401"
         y="546"
         id="tspan150">qualification level and job duties. The second component </tspan><tspan
         x="0 4.46 14.3 19.459999 30.18 35.34 46.939999 58.099998 69.900002 81.599998 91.440002 96.599998 107.32 122.758 133.478 140.17799 151.778 162.698 174.298 179.058 186.03799 197.198 203.67799 208.838 219.558 230.278 242.09801 246.558 257.138 267.858 272.31799 284.11801 295.73801 300.89801 312.05801 323.65799 328.31799 339.23801 349.95801 357.138 361.59799 371.95599 382.87601 392.716 397.47601 402.116 412.81601 424.63599 429.09601 438.936 444.09601 455.69601 466.616 478.23599 489.15601 500.95599 512.55603 522.396"
         y="572"
         id="tspan152">is a bonus awarded for achieving objectives. This depends </tspan><tspan
         x="594 605.15997 616.96002 621.67999 628.85999 640.67999 651.59998 656.76001 667.67999 685.23999 696.85999 701.35999 712.138 722.43799 733.35797 743.55798 747.078 756.91803 762.078 773.698 784.61798 791.578 798.55798 809.71802 816.67798 834.23798 844.95801 856.758 867.47803 878.39801 883.55798 895.15802 906.85797 913.81799 918.27802 930.078 941.698 946.41602 953.59601 965.41602 976.336 981.49597 992.216 1002.936 1007.436 1018.356 1030.156 1041.756 1052.476 1058.954"
         y="-265"
         id="tspan154">on the employee’s performance during the calendar </tspan><tspan
         x="594 605.62 616.53998 623.5 627.96002 639.12 650.71997 655.47998 660.64001 672.47998 690.03998 701.65997 706.15997 716.93799 727.23798 738.15802 749.078 758.91803 764.078 781.638 792.17798 802.27802 807.43799 818.15802 822.65802 832.49799 843.65802 848.81799 855.53601 866.45599 877.17603 888.09601 892.55603 902.91602 913.836 918.99597 930.15601 941.95599 952.87598 962.23602 969.41602 973.87598 991.43597 1002.356 1007.516 1019.116 1030.276 1042.076 1053.776 1063.616 1074.536 1084.376 1089.134 1096.114 1107.274 1113.754"
         y="-239"
         id="tspan156">period. Employees may also receive one-time bonuses for </tspan><tspan
         x="594 604.71997 615.88 633.44 645.06 649.56 660.40002 667.58002 672.03998 683.84003 695.46002 700.62 705.08002 722.64001 734.26001 745.41998 752.38 759.56 770.28003 781.91803 789.09802 793.81799 800.99799 811.71802 821.55798 831.11798 840.95801 846.11798 856.83801 868.638 880.23798 885.39801 896.55798 908.258 915.43799 925.27802 932.45801 943.17798 954.97803 966.578 971.03802 982.83801 994.45801 999.61798 1010.338 1021.058 1032.8781 1037.338 1047.9139 1058.274 1069.194 1086.754 1097.674 1109.314 1116.494 1126.334"
         y="-213"
         id="tspan158">completing important tasks and outstanding achievements </tspan><tspan
         x="594 604.62 611.79999 616.5 631.96002 643.12 650.08002 659.82001"
         y="-187"
         id="tspan160">at work.</tspan><tspan
         x="594 599.02002 610.82001 615.97998 627.17999 639.5 650.70001 662.64001 667.38 672.53998 684.06 695.5 710.32001 715.47998 726.5 733.23798 738.39801 748.23798 759.85797 770.77802 781.49799 785.95801 796.67798 801.17798 805.638 815.47803 822.65802 827.81799 837.65802 848.37799 852.87799 863.59802 870.55798 875.01801 885.93799 895.77802 900.47601 915.93597 926.85602 933.57599 944.49597 949.65601 956.37598 966.95599 977.67603 982.13599 991.97601 1002.896 1014.496 1019.656 1031.256 1041.976 1051.816 1062.736 1074.3361 1079.496 1090.656 1102.4561"
         y="-148"
         id="tspan162">In 2020, 39% of specialist salaries were revised based on </tspan><tspan
         x="594 605.62 616.15997 626.26001 631.41998 638.21997 648.84003 656.02002 666.94 676.78003 681.53998 688.52002 699.67999 706.15997 711.32001 722.03998 733.20001 750.76001 762.38 773.09998 779.89801 790.61798 802.21802 806.71802 817.638 822.79797 834.41803 845.578 855.41803 859.87799 867.05798 871.51801 882.67798 894.47803 904.31799 909.47803 920.638 932.43799 937.15601 944.336 956.15601 967.07599 972.23602 983.15601 1000.716 1012.336 1016.836 1027.616 1038.256 1055.816 1066.736 1078.376 1085.556"
         y="-122"
         id="tspan164">pay rates for comparable positions on the employment </tspan><tspan
         x="594 611.56 622.28003 629.23999 638.47998 649.32001 656.5 661.65997 672.38 684.17999 695.78003 700.49799 707.67798 719.49799 730.41803 735.578 746.49799 764.05798 775.67798 780.17798 790.95801 801.258 812.17798 822.37799 825.89801 835.73798 840.89801 845.39801 855.97803 866.336 877.25598 881.75598 886.91602 897.93597 904.67603 909.836 920.59601 930.95599 942.57599 953.49597 960.45599 967.63599 972.09601 981.93597 992.85602 997.59601 1002.756 1013.676 1025.476 1037.0959 1047.816 1059.436 1070.356 1087.916 1098.8361 1110.474 1117.6541"
         y="-96"
         id="tspan166">market and the employee’s level of expertise, engagement </tspan><tspan
         x="594 598.46002 610.26001 615.41998 627.03998 633.76001 644.91998 649.58002 660.5 671.21997 678.40002 683.09802 698.55798 709.71802 716.67798 726.41803 731.15802 736.31799 747.03802 758.83801 770.43799 775.59802 787.21802 798.138 805.09802 812.078 823.23798 830.198 847.758 858.47803 870.27802 880.99799 891.91803"
         y="-70"
         id="tspan168">in project work, and performance.</tspan><tspan
         x="594 609.32001 620.23999 625.40002 637.09998 646.94 657.85999 663.02002 672.85999 684.02002 694.73999 699.20001 709.91998 714.41998 719.58002 730.15802 740.51801 751.43799 763.078 770.258 780.09802 785.258 795.97803 805.81799 810.97803 822.77802 833.93799 845.73798 855.01801 862.21802 866.67798 878.47803 889.198 900.99799 911.71802 916.17798 926.89801 931.39801 936.55798 941.01801 952.81799 963.53802 974.45801 986.09601 993.276 997.73602 1008.096 1019.016 1028.856 1033.574 1040.754 1051.9139"
         y="-31"
         id="tspan170">We use social events as non-financial incentives to </tspan><tspan
         x="594 605.59998 616.76001 627.91998 637.76001 644.94 650.09998 659.94 667.12 677.73999 684.94 691.67798 696.83801 701.33801 712.11798 722.39801 733.11798 737.61798 744.79797 754.21802 758.95801 764.11798 768.578 786.138 797.758 804.47803 815.27802 825.638 836.55798 841.258 856.71802 867.87799 874.83801 884.578 889.03802 900.83801 912.45801 917.61798 928.33801 939.49799 951.29797 962.89801 967.35797 974.53802 978.99799 990.15802 1001.958 1011.798 1016.538 1021.698 1026.158 1037.958 1048.678 1055.396 1066.316 1077.036 1086.876 1097.796"
         y="-5"
         id="tspan172">boost staff loyalty, improve working conditions, increase </tspan><tspan
         x="594 605.62 612.34003 623.5 635.09998 646.79999 657.52002 664.70001 669.15997 679.88 684.34003 691.52002 700.93799 705.67798 710.83801 721.55798 733.35797 744.95801 750.11798 760.83801 772.53802 777.03802 784.21802 788.67798 799.01801 809.638 816.81799 827.73798 832.45801 839.638 850.55798 861.27802 878.83801 883.99799 893.83801 905.45801 909.91803 916.87799 921.33801 928.51801"
         y="21"
         id="tspan174">productivity, and cultivate team spirit.</tspan><tspan
         x="594 607.23999 618.94 625.41998 630.58002 648.14001 659.29999 669.14001 676.32001 681.02002 696.73999 701.20001 712.79999 723.71997 728.21997 738.31799 743.47803 755.17798 765.01801 775.93799 787.53802 792.698 804.49799 815.65802 827.45801 836.73798 843.93799 848.39801 860.198 870.91803 882.71802 893.43799 897.89801 908.61798 913.11798 918.27802 922.73798 934.53802 945.258 956.17798 967.81598 974.99597 979.45599 989.81598 1000.736 1005.896 1010.356 1020.196 1025.356 1036.976 1048.676 1060.276 1064.776 1069.236 1079.9561"
         y="60"
         id="tspan176">Our most widely used non-financial incentive is public </tspan><tspan
         x="594 600.71997 611.64001 622.35999 633.52002 645.14001 656.94 661.40002 668.58002 673.03998 684.20001 696 701.15997 712.17798 718.91803 723.64001 730.82001 742.64001 753.56 758.71997 769.44 780.15997 791.97998 796.44 807.01801 817.37799 828.29797 845.85797 856.77802 868.41803 875.59802 885.43799 890.59802 901.61798 908.35602 913.07599 920.25598 931.41602 943.03601 952.776 964.396 975.31598 982.276 989.25598 1000.416 1007.376 1024.936 1029.396 1041.196 1052.816"
         y="86"
         id="tspan178">recognition of the achievements of top-performing </tspan><tspan
         x="594 604.91998 622.47998 634.09998 638.59998 649.38 659.67999 670.59998 681.52002 691.35999 696.12 701.28003 706.29999 718.09998 723.26001 734.46002 746.78003 757.97998 769.91803 774.65802 779.35797 794.81799 805.73798 810.89801 821.61798 833.21802 844.37799 855.85797 863.03802 873.95801 885.55798 890.71802 903.396 914.31598 925.93597 937.63599 942.13599 952.75598 959.93597 964.396 975.55603 987.35602 997.19598 1002.356 1013.516 1025.316 1030.476 1041.636 1052.796 1059.756 1077.316 1087.156 1092.316 1103.3361 1110.074"
         y="112"
         id="tspan180">employees. In 2020, we adopted Regulations on Forms of </tspan><tspan
         x="594 607.67999 618.84003 630.64001 640.20001 651.59998 656.06 667.85999 678.58002 690.38 701.09998 705.56 716.28003 720.78003 725.94 730.96002 742.76001 753.47998 764.40002 776.03802 783.21802 787.67798 798.03802 808.95801 818.79797 823.95801 834.67798 846.47803 858.078 863.23798 875.91803 886.578 902.01801 912.73798 919.43799 931.03802 940.87799"
         y="138"
         id="tspan182">Non-Financial Incentives and Rewards.</tspan><tspan
         x="594 599.02002 610.82001 615.97998 620.47998 624.94 636.56 648.21997 655.40002 660.56 671.58002 678.31799 683.03802 690.21802 702.03802 712.95801 718.11798 724.83801 735.758 745.59802 752.77802 759.73798 764.198 774.91803 782.09802 786.55798 797.71802 809.51801 819.35797 824.51801 835.67798 847.47803 852.638 864.258 875.17798 882.138 891.97803 903.138 914.93799 925.65802 930.15802 935.31799 946.03802 957.198 968.836 976.01599 986.73602 997.45599 1004.636 1009.796 1020.516 1032.316 1043.916 1049.076 1060.094 1067.2939 1074.494 1078.954 1089.674 1100.594"
         y="177"
         id="tspan184">In light of the restrictions on personal contact and office </tspan><tspan
         x="594 609.46002 620.62 627.58002 637.08002 642.23999 653.14001 668.85999 673.32001 685.12 696.73999 701.46002 708.64001 719.79999 724.52002 731.70001 743.52002 754.44 759.59998 772.62 785.47803 798.23798 803.258 816.79797 825.71802 833.67798 845.11798 850.27802 861.89801 872.61798 884.41803 896.01801 906.93799 924.49799 928.95801 939.67798 944.83801 949.29797 961.09802 966.258 977.45801 989.77802 1000.978 1012.916 1017.656 1022.356 1037.816 1048.736 1053.896 1063.736 1074.576 1081.756 1086.916 1098.616 1110.236 1115.396 1126.116"
         y="203"
         id="tspan186">work owing to the COVID-19 pandemic in 2020, we set up a </tspan><tspan
         x="594 604.71997 609.17999 616.14001 623.32001 635.02002 645.73999 650.23999 655.40002 666.32001 683.88 695.5 700 710.77802 721.078 731.99799 742.91803 748.078 754.79797 765.71802 776.43799 787.59802 799.21802 811.01801 815.47803 822.65802 827.11798 838.27802 850.078 855.23798 866.83801 877.99799 889.15802 898.65601 903.81598 914.97601 926.776 931.93597 943.09601 954.79602 961.276 966.43597 977.15601 988.31598 995.276 1006.896 1018.056 1024.856 1035.476 1042.656 1053.576 1058.736 1070.356 1081.516 1088.476 1095.656 1106.376 1110.876 1115.636"
         y="229"
         id="tspan188">virtual employee recognition book on our corporate portal. </tspan><tspan
         x="594 603.40002 618.85999 629.78003 641.41998 648.59998 658.76001 668.5 678.34003 688.91998 699.28003 710.20001 722 727.15997 738.08002 755.64001 767.26001 771.76001 782.53802 792.83801 803.758 814.67798 824.51801 829.23798 836.41803 847.578 858.73798 868.23798 873.39801 885.01801 895.73798 902.698 909.87799 915.03802 919.49799 931.29797 936.01801 943.198 955.01801 959.47803 969.31799 974.47803 986.09802 992.81598 1003.976 1008.636 1019.556 1030.276 1037.4561"
         y="255"
         id="tspan190">Twenty-seven employees took part in this project.</tspan><tspan
         x="594 599.02002 610.82001 615.97998 626.70001 638.29999 649.90002 654.35999 661.53998 666 677.15997 688.96002 693.70001 698.85999 706.82001 718.71997 731.03998 736.20001 747.12 764.67999 776.29999 780.79999 791.578 801.87799 812.79797 823.71802 833.55798 838.71802 845.43597 856.35602 867.07599 877.99597 882.45599 892.81598 903.73602 915.336 920.49597 931.216 942.37598 949.336 960.95599 972.11603 978.914 989.534 996.71399 1007.634 1012.794 1023.514 1038.954 1049.674 1056.374 1067.974 1077.814 1082.554"
         y="294"
         id="tspan192">In addition, 140 employees received corporate awards, </tspan><tspan
         x="594 605.15997 616.96002 627.88 633.03998 643.76001 655.56 660.71997 674.71997 685.88 697.67999 708.84003 720.53998 727.26001 738.17999 749.78003 754.94 767.73999 778.46002 782.91998 787.41998 802.85797 813.39801 824.03802 841.59802 852.31799 864.11798 869.27802 880.89801 885.35797 897.15802 901.89801 907.05798 917.77802 929.578 941.17798 945.93597 953.13599 957.59601 967.95599 978.87598 983.59601 990.776 1002.596 1013.516 1018.236 1025.416 1037.236 1047.9561 1059.756 1069.316 1079.156 1084.316 1095.3361 1102.076"
         y="320"
         id="tspan194">one an Honoured Railwayman pin, and five the thanks of </tspan><tspan
         x="594 606.79999 618.5 628.34003 638.17999 642.64001 652.73999 656.26001 666.09998 671.26001 686.85999 691.32001 703.12 707.58002 717.41998 724.59998 735.52002 741.99799 747.15802 758.17798 764.91803 769.55798 778.81799 785.61798 796.33801 808.138 817.97803 829.59802 840.758 847.71802 854.89801"
         y="346"
         id="tspan196">Russia’s Minister of Transport.</tspan><tspan
         x="594 607.23999 618.94 625.41998 630.58002 641.5 659.06 670.67999 675.17999 685.95801 696.258 707.17798 718.09802 727.93799 733.09802 743.81799 750.53802 761.45801 766.61798 777.33801 788.49799 800.29797 811.91803 818.71802 829.33801 836.51801 848.21802 852.71802 863.33801 870.51801 881.43799 893.03802 898.198 909.35797 921.15802 926.31799 936.15802 947.77802 958.698 969.41803 973.87799 984.59802 989.09802 994.258 1005.858 1016.474 1023.654 1034.574 1044.4139 1049.574 1060.2939 1072.094 1083.694"
         y="385"
         id="tspan198">Our employees are congratulated on special dates and </tspan><tspan
         x="594 600.71997 611.64001 622.35999 633.28003 637.73999 648.09998 659.02002 664.17999 675.78003 686.94 698.73999 710.44 720.28003 731.20001 741.03998 746.20001 757.35999 769.15997 774.32001 778.78003 796.34003 807.96002 819.12 826.08002 833.26001 843.97998 855.61603 862.79602 867.95599 879.55603 884.01599 890.97601 898.15601 909.97601 921.57599 932.11603 942.45599 952.29602 957.05603 961.81598 977.13599 988.05603 993.216 1003.056 1014.676 1025.5959 1037.234 1044.4139 1049.574 1062.374 1076.194 1089.254 1094.4139 1102.374 1107.134 1118.334"
         y="411"
         id="tspan200">receive bonuses on important birthdays. We spent RUB 1.2 </tspan><tspan
         x="594 611.56 616.02002 620.52002 625.02002 629.47998 640.64001 652.44 657.59998 668.76001 680.56 685.27802 692.45801 704.27802 708.73798 718.578 723.73798 728.198 739.99799 745.15802 756.35797 768.67798 779.87799 791.81799"
         y="437"
         id="tspan202">million on this in 2020.</tspan><tspan
         x="594 609.32001 620.23999 625 632.20001 643.90002 648.40002 652.90002 663 668.15997 672.62 684.26001 691.44 702.35999 714.15997 725.76001 730.47803 737.65802 748.81799 753.97803 764.698 775.85797 787.49799 794.67798 799.138 810.93799 822.638 833.55798 838.71802 848.55798 860.258 871.87799 883.49799 894.65802 901.61798 908.79797 913.258 925.05798 936.67798 941.83801 952.55798 964.35797 975.95801 981.11798 992.71802 1003.294 1013.656 1024.576 1029.076 1040.236 1051.856 1056.316 1068.116 1079.736 1084.896 1096.056 1107.756 1114.234"
         y="476"
         id="tspan204">We fully intend to continue supporting and developing our </tspan><tspan
         x="594 605.79999 616.96002 628.76001 638.03998 645.23999 649.70001 661.5 672.21997 684.02002 694.73999 699.20001 709.91998 714.41998 719.58002 724.03998 735.84003 746.56 757.47998 769.11798 776.29797 780.758 791.11798 802.03802 807.198 816.698 827.03802 836.87799 844.05798 854.97803 872.53802 877.698 888.41803 898.258 903.41803 915.03802 925.758 932.71802 939.89801 945.05798 956.07599 962.81598 967.97601 979.13599 990.836 997.31598 1002.476 1016.476 1029.276 1034.436 1046.536 1053.7159 1060.514 1071.136 1078.316 1089.236 1100.856 1110.274"
         y="502"
         id="tspan206">non-financial incentive system as part of our HR Strategy.</tspan></text><g
       id="g210"
       transform="translate(1811.8792,95.9063)"><path
         d="M 0,0 9.121,10.047 0,20.094 H -27.879 V 10.047 0 Z"
         style="fill:#f0f0f5;fill-opacity:1;fill-rule:nonzero;stroke:none"
         id="path212" /></g><text
       transform="matrix(1,0,0,-1,1634.75,100.36)"
       style="font-variant:normal;font-weight:300;font-stretch:normal;font-size:16px;font-family:'Rubik Light';-inkscape-font-specification:Rubik-Light;writing-mode:lr-tb;fill:#000000;fill-opacity:1;fill-rule:nonzero;stroke:none"
       id="text216"><tspan
         x="0 10.416 19.344 28.656 34.400002 37.967999 47.408001 56.768002 65.503998 74.783997 78.912003 87.839996 97.279999 101.408 110.704 119.28 128.576 137.312"
         y="0"
         id="tspan214">Continued on page </tspan></text><text
       transform="matrix(1,0,0,-1,1790.254,100.36)"
       style="font-variant:normal;font-weight:500;font-stretch:normal;font-size:16px;font-family:'Rubik Medium';-inkscape-font-specification:Rubik-Medium;writing-mode:lr-tb;fill:#000000;fill-opacity:1;fill-rule:nonzero;stroke:none"
       id="text220"><tspan
         x="0 9.8879995"
         y="0"
         id="tspan218">90</tspan></text><text
       transform="matrix(1,0,0,-1,37.6001,1023)"
       style="font-variant:normal;font-weight:300;font-stretch:normal;font-size:20px;font-family:'Rubik Light';-inkscape-font-specification:Rubik-Light;writing-mode:lr-tb;fill:#000000;fill-opacity:1;fill-rule:nonzero;stroke:none"
       id="text224"><tspan
         x="0 12.36 61.400002 74.639999 86.339996 92.82 97.540001 104.72 115.64 126.36"
         y="0"
         id="tspan222">89Our team</tspan></text></g></svg>
