<?xml version="1.0" encoding="UTF-8" standalone="no"?>
<?xml-stylesheet type="text/css" href="main.css" ?>
<svg
   xmlns:dc="http://purl.org/dc/elements/1.1/"
   xmlns:cc="http://creativecommons.org/ns#"
   xmlns:rdf="http://www.w3.org/1999/02/22-rdf-syntax-ns#"
   xmlns:svg="http://www.w3.org/2000/svg"
   xmlns="http://www.w3.org/2000/svg"
   version="1.1"
   id="svg2"
   xml:space="preserve"
   width="2560"
   height="1440"
   viewBox="0 0 2560 1440"><metadata
     id="metadata8"><rdf:RDF><cc:Work
         rdf:about=""><dc:format>image/svg+xml</dc:format><dc:type
           rdf:resource="http://purl.org/dc/dcmitype/StillImage" /></cc:Work></rdf:RDF></metadata><defs
     id="defs6"><clipPath
       clipPathUnits="userSpaceOnUse"
       id="clipPath20"><path
         d="M 0,1080 H 1920 V 0 H 0 Z"
         id="path18" /></clipPath><clipPath
       clipPathUnits="userSpaceOnUse"
       id="clipPath170"><path
         d="M 0,0 H 1920 V 1080 H 0 Z"
         id="path168" /></clipPath></defs><g
     id="g10"
     transform="matrix(1.3333333,0,0,-1.3333333,0,1440)"><g
       id="g12"><g
         id="g14"><g
           id="g16"
           clip-path="url(#clipPath20)"><path
             d="M 0,0 H 1920 V 1080 H 0 Z"
             style="fill:#ffffff;fill-opacity:1;fill-rule:nonzero;stroke:none"
             id="path22" /></g></g></g><text
       transform="matrix(1,0,0,-1,99,829.1)"
       style="font-variant:normal;font-weight:300;font-stretch:normal;font-size:20px;font-family:'Rubik Light';-inkscape-font-specification:Rubik-Light;writing-mode:lr-tb;fill:#000000;fill-opacity:1;fill-rule:nonzero;stroke:none"
       id="text140"><tspan
         x="0 15.32 26.24 31.4 43.02 49.740002 60.540001 71.260002 75.720001 87.32 98.239998 103.4 114.56 126.26 132.74001 137.89999 148.82001 166.38 178 182.5 193.278 203.578 214.498 225.418 235.258 239.95799 255.67799 260.138 267.31799 279.138 284.298 295.01801 299.51801 304.01801 308.73599 315.91599 327.73599 338.65601 343.81601 353.65601 364.81601 375.53601 379.996 390.716 395.216 400.37601 410.216 421.91599 433.53601 445.15601 456.31601 463.276 470.45599"
         y="0"
         id="tspan24">We provide our employees with all the social support </tspan><tspan
         x="0 7.1799998 19 29.559999 39.66 44.82 56.619999 67.540001 78.459999 90.059998 94.800003 99.959999 104.42 116.22 121.38 132.10001 142.82001 153.53999 164.7 171.39799 182.998 193.718 205.51801 216.23801 227.158 231.858 247.578 252.03799 259.21799 271.03799 276.198 288.99799 300.698 310.53799 320.37799 324.83801 335.55801 347.358 352.51801 357.01801 367.73801 382.616 387.35599 392.51599 403.23599 415.03601 426.63599 431.79599 442.51599 449.23401 460.15399"
         y="26"
         id="tspan26">they need, in accordance with Russian law, and are </tspan><tspan
         x="0 4.46 22.02 33.639999 38.139999 49.060001 66.620003 77.540001 89.178001 96.358002 100.818 112.618 124.238 129.39799 146.95799 157.67799 169.17799 179.278 184.438 195.158 206.758 218.358 222.81799 229.998 234.45799 245.618 257.418 268.138 272.638 277.798 289.418 296.13599 307.29599 318.91599 325.716 336.436 353.996 371.556 382.47601 392.31601 397.47601 408.19601 412.65601 430.216 441.13599 452.73599 457.896 468.51401 475.694"
         y="52"
         id="tspan28">implementing many additional programmes aimed at </tspan><tspan
         x="0 10.72 17.440001 28.360001 38.98 46.16 50.619999 62.419998 74.040001 79.199997 89.919998 99.760002 104.92 114.76 126.46 138.08 149.7 160.86 167.82001 175 179.46001 189.81799 200.73801 205.89799 216.618 228.418 233.578 244.498 256.01801 266.73801 271.198 277.91599 289.07599 300.87601 318.436 329.35599 340.996 348.17599 353.336 364.056 373.896 379.056 390.67599 401.836 411.67599 421.51599 425.97601 437.57599 442.07599 452.996 457.754 464.73401 475.89401 482.37399 487.534 498.694 510.39401 516.87402"
         y="78"
         id="tspan30">creating as supportive an environment as possible for our </tspan><tspan
         x="0 7.1799998 18.1 28.82 45.639999 49.16 59 63.700001 79.160004 90.32 97.279999 106.78 111.94 122.66 134.46001 146.06 151.22 162.84 169.558 180.58 187.56 198.48 208.32001 218.16 222.62 233.78 245.58 256.29999 260.79999 265.95999 277.56 288.138 298.49799 309.418 313.918 325.078 336.698 354.258 365.17801 376.81601 383.996"
         y="104"
         id="tspan32">team’s work and professional development.</tspan><tspan
         x="0 13 22.84 28 38.720001 43.880001 50.599998 61.52 71.360001 82.980003 94.139999 105.94 115.78 120.24 131.84 136.34 147.25999 152.42 163.34 180.89999 192.52 197.02 207.79601 218.09801 229.01801 234.896 239.636 244.336 259.79599 270.716 275.87601 287.496 298.03601 308.138 313.298 323.138 334.758 345.67801 356.39801 360.858 371.578 376.078 381.23801 391.85599 399.03601 406.216 417.13599 428.776 435.95599 440.41599 451.57599 463.37601 468.09399 475.27399 486.43399"
         y="143"
         id="tspan34">As a responsible employer, we pay special attention to </tspan><tspan
         x="0 11.02 18.219999 25.200001 36.119999 43.080002 47.540001 59.34 70.959999 76.120003 85.959999 97.120003 107.84 112.3 123.02 127.52 132.67999 142.52 154.22 165.84 177.46001 188.62 195.58 202.75999 207.478 214.658 225.81799 230.978 242.138 253.838 260.31799 265.478 276.39801 293.95801 305.578 310.078 320.85599 331.15601 342.07599 352.996 362.836 367.996 378.716 390.51599 402.116 406.836 414.01599 425.836 436.75601 441.216 447.694 452.45401 459.51401 470.23401 487.79401 492.254 496.754 501.21399 512.13397 521.974"
         y="169"
         id="tspan36">offering social support to our employees and their families.</tspan><tspan
         x="0 13.24 24.940001 31.42 36.580002 46.419998 57.580002 68.300003 72.760002 83.480003 87.980003 93.139999 104.76 115.92 120.42 124.88 135.31799 145.418 150.578 161.298 172.45799 190.01801 201.638 208.59801 213.058 222.89799 233.81799 243.658 248.37801 255.558 267.37799 278.298 283.056 290.03601 301.19601 305.69601 310.19601 321.09601 336.81601 341.276 353.07599 364.69601 369.85599 380.57599 387.29599 398.216 408.936 418.776 423.936 434.65601 446.45599 458.056 463.216 474.836 485.996 496.716 501.216 511.056"
         y="208"
         id="tspan38">Our social policy comprises the following areas and goals:</tspan><tspan
         x="0 7.5999999 18 29.620001 36.34 47.139999 57.860001 62.32 73.919998 78.379997 90.18 101.8 106.96 116.8 127.96 138.67999 143.14 153.86 158.36 163.52 175.12 186.03999 197.84 208.658 215.858 220.31799 227.498 237.338 242.498 253.218 265.01801 276.61801 281.77802 292.49799 303.65799 321.21799 332.83801 343.758 355.55801 365.39801 376.01599 383.19601 387.65601 398.81601"
         y="247"
         id="tspan40">• providing social benefits and compensation</tspan><tspan
         x="0 7.5999999 18 29.620001 36.34 47.380001 54.560001 65.480003 76.199997 83.379997 87.839996 99.639999 111.26 116.42 127.34 144.89999 156.52 161.02 171.798 182.09801 193.01801 203.938 213.778 218.938 223.39799 235.198 239.918 247.09801 258.918 269.83801 274.99799 285.57599 295.936 306.85599 318.496 325.67599 330.836 341.85599 348.59601 353.75601 365.45599 377.07599 384.056 395.216 401.936 412.85599 422.69601 433.616 444.53601 455.25601 466.85599 471.35599 482.276"
         y="286"
         id="tspan42">• protecting employees in the event of unforeseeable </tspan><tspan
         x="18 28.719999 33.18 39.900002 50.619999 62.32 79.879997 89.720001 96.900002 107.62 119.42 130.14 141.06"
         y="312"
         id="tspan44">circumstances</tspan><tspan
         x="0 7.5999999 18 29.82 40.98 45.48 57.080002 61.540001 73.339996 84.959999 90.120003 100.84 112.54 117.04 124.22 135.92 142.718 153.438 157.938 163.09801 173.81799 185.618 197.218 202.37801 212.218 223.838 234.998 241.95799 249.138 258.978 264.138 274.716 285.07599 295.996 307.63599 314.81601"
         y="351"
         id="tspan46">• holding cultural and sports events</tspan><tspan
         x="0 7.5999999 18 22.459999 40.02 51.639999 56.139999 67.059998 84.620003 95.540001 107.178 114.358 118.818 130.618 142.23801 147.39799 159.01801 165.73801 176.31799 186.67799 197.59801 209.23801 216.418 227.03799 234.218 238.67799 249.03799 259.95801 265.11801 276.93799 287.858 298.578 303.078 310.258 322.078 327.23801 344.798 355.71799 366.43799 376.27802 387.978 394.69601 405.616 415.45599 420.616 431.336 443.13599 454.73599"
         y="390"
         id="tspan48">• implementing preventative health measures and </tspan><tspan
         x="18 29.16 35.860001 47.48 58.200001 70 74.459999 84.260002 88.720001 100.52 112.14 117.3 129.12 140.03999 150.75999 155.25999 162.44 174.25999 184.98 195.7 202.418"
         y="416"
         id="tspan50">organizing healthcare</tspan><tspan
         x="0 7.5999999 18 28.719999 40.419998 44.919998 52.099998 56.560001 66.900002 77.519997 84.699997 89.160004 100.96 112.58 117.74 128.46001 133.62 145.24001 156.39999 166.24001 170.7 177.88 182.34 192.698 203.618 208.778 226.338 237.258 248.89799 256.078 266.798 271.298 276.45801 287.17801 298.978 310.578 315.73801 325.578 336.73801 347.45801 351.918 362.638 367.138 372.298 383.21799 394.73599 405.45599 409.91599 416.63599 427.79599 439.59601 457.15601 468.07599 479.71399"
         y="455"
         id="tspan52">• cultivating a positive mental and social environment</tspan><tspan
         x="0 15.32 26.24 31.4 43.220001 53.779999 64.139999 75.059998 80.220001 84.68 96.32 103.5 110.22 121.38 132.98 144.67999 155.39999 166.32001 177.92 183.08 193.8 205.60001 217.2 222.36 233.08 239.798 250.718 255.87801 260.33801 277.89801 289.51801 294.01801 304.93799 322.49799 333.418 345.056 352.23599 356.69601 368.496 380.116 385.276 395.996 407.616 419.23599 425.95401 437.11401 448.73401 455.694 460.15399 470.77399 477.95401 488.87399"
         y="494"
         id="tspan54">We have introduced and are implementing appropriate </tspan><tspan
         x="0 9.8400002 20.459999 27.440001 38.279999 45.459999 55.560001 60.720001 67.68 79.379997 83.879997 94.800003 104.64 109.8 120.52 132.32001 143.92 149.08 166.64 177.56 188.28 198.12 209.82001 216.53799 227.45799 237.298 242.01601 249.196 260.35599 265.51599 275.35599 287.056 298.67599 310.29599 321.45599 328.41599 335.59601 340.75601 351.91599 363.616 370.09601 375.25601 386.17599 403.73599 415.35599 419.85599 430.634 440.93399 451.854 462.77399 472.61401 477.77399 488.49399 500.29401 511.89401"
         y="520"
         id="tspan56">safety rules and measures to support our employees and </tspan><tspan
         x="0 4.46 22.02 33.639999 40.360001 51.16 61.52 72.440002 77.599998 89.220001 100.14 107.1 114.078 125.238 132.198 149.758 160.478 172.278 182.998 193.918"
         y="546"
         id="tspan58">improve performance.</tspan><tspan
         x="0 15.76 27.58 38.5 50.299999 55.02 62.200001 74.019997 84.940002 90.099998 103.12 115.978 128.73801 133.758 147.298 156.218 164.17799 175.618 180.778 192.39799 203.118 214.918 226.51801 237.438 254.998 259.45801 270.17801 275.33801 286.93799 297.858 309.478 320.198 331.99799 336.73801 341.436 356.896 367.81601 372.51599 387.97601 398.896 405.616 416.53601 421.69601 432.85599 444.65601 455.57599 460.73599 471.75601 478.49399 483.21399 490.39401 502.21399 513.13397"
         y="585"
         id="tspan60">When the COVID-19 pandemic began, we were one of the </tspan><tspan
         x="0 7.1999998 11.66 18.620001 28.459999 35.639999 40.799999 51.52 62.68 80.239998 91.860001 102.58 114.38 118.84 129.75999 139.60001 144.31799 151.498 162.658 167.81799 177.658 189.478 193.938 201.138 208.31799 213.478 231.03799 242.198 252.03799 259.21799 264.37799 275.396 282.13599 287.29599 298.45599 310.15601 316.63599 321.79599 332.716 350.276 361.896 366.396 377.17401 387.47601 398.396 409.31601 419.15601 423.87399 431.05399 442.21399 447.37399 454.09399 465.01401 482.57401 493.61401 500.79401 511.71399"
         y="611"
         id="tspan62">first companies to shift most of our employees to remote </tspan><tspan
         x="0 15.46 26.620001 33.580002 43.32 47.779999 59.580002 71.199997 75.940002 81.099998 91.82 103.62 115.22 119.92 135.38 146.3 151.46001 163.28 173.838 184.198 195.118 200.278 204.73801 222.298 233.918 238.418 249.338 266.89801 277.81799 289.45801 296.638 307.55801 319.15799 323.776 334.116 344.836 351.79599 356.25601 367.41599 379.116 388.95599 394.116 411.67599 422.59601 433.31601 443.15601 454.85599 461.57401 472.49399 482.33401 487.05399 494.23401 505.39401"
         y="637"
         id="tspan64">working, and we have implemented various measures to </tspan><tspan
         x="0 17.559999 28.280001 37.52 48.439999 53.139999 68.599998 79.760002 86.720001 96.220001 101.38 112.1 121.94 127.1 137.82001 148.98 166.36 173.34 184.5 191.46001 198.64 209.36 220.96001 225.46001 236.38 241.53999 252.25999 264.06 275.66 280.82001 290.66 301.27802 308.258 319.17801 324.33801 335.05801 344.89801 350.05801 361.67801 372.83801 382.67801 392.51801 396.978 408.578 413.078 423.99799 428.75601 435.73599 446.896 453.37601 458.53601 469.69601 481.396 487.87601"
         y="663"
         id="tspan66">make work as comfortable and safe as possible for our </tspan><tspan
         x="0 10.92 28.48 40.099998 44.599998 55.380001 65.68 76.599998 87.519997 97.360001"
         y="689"
         id="tspan68">employees.</tspan><tspan
         x="594 609.32001 620.23999 625.40002 637.02002 643.73999 654.53998 665.26001 669.71997 681.32001 692.23999 697.40002 709.02002 719.94 726.90002 736.73999 747.90002 759.70001 770.41998 774.91998 780.08002 791.70001 798.41803 809.45801 816.638 827.55798 838.27802 845.45801 849.91803 860.27802 871.198 876.35797 887.27802 898.89801 910.59802 915.05798 926.67798 944.23798 955.15802 966.79602 973.97601 979.13599 989.85602 1001.656 1013.256 1018.416 1029.136 1039.856 1046.816 1053.776 1063.874 1069.0341 1080.194 1091.894 1099.074"
         y="0"
         id="tspan70">We provide personal protective equipment and carry out </tspan><tspan
         x="594 607.02002 619.88 632.64001 637.65997 651.20001 660.12 668.08002 679.52002 684.23798 691.41803 702.33801 712.17798 719.35797 723.81799 735.61798 747.23798 751.99799 758.97803 770.138 776.61798 781.77802 792.698 810.258 821.87799 826.37799 837.15802 847.45801 858.37799 869.29797 879.138 883.836 899.29602 910.45599 917.41602 927.15601 931.61603 943.41602 955.03601 960.19598 970.81598 977.99597 982.716 989.896 1001.716 1012.636 1017.796 1028.816 1036.016 1043.2159 1047.676 1058.396 1069.316 1074.076 1079.236 1092.476 1104.176 1110.6541"
         y="26"
         id="tspan72">COVID-19 testing for employees working at the office. Our </tspan><tspan
         x="594 603.84003 615 625.71997 630.17999 640.90002 645.40002 650.56 660.40002 672.09998 683.71997 695.34003 706.5 713.46002 720.64001 725.79999 743.35999 754.28003 765 774.84003 786.53998 793.258 804.17798 814.01801 819.17798 823.638 835.43799 846.15802 850.65802 862.35797 873.95801 884.87799 896.47803 901.638 912.35797 917.51801 928.67798 940.47803 951.39801 960.75403 967.93402 972.39398 989.95398 1000.874 1006.034 1017.654 1028.194 1038.834 1056.394 1067.314 1078.954 1086.134"
         y="52"
         id="tspan74">social support measures included a one-time payment </tspan><tspan
         x="594 605.02002 611.76001 616.91998 629.71997 643.53998 656.59998 661.76001 673.28003 685.21997 689.58002 701.90002 714.21997 726.53998 731.70001 743.32001 754.23999 760.71997 765.88 777.5 788.41998 795.38 805.21997 816.38 828.17999 832.93799 839.91803 851.078 857.55798 862.71802 873.43799 877.93799 882.43799 887.15802 894.33801 906.15802 917.31799 927.15802 938.078 942.776 958.49597 962.95599 970.13599 981.95599 987.11603 997.836 1009.636 1014.796 1025.356 1035.7159 1046.636 1053.436 1064.156 1075.776 1086.696"
         y="78"
         id="tspan76">of RUB 30,000 per person for all those with an average </tspan><tspan
         x="594 611.56 622.71997 634.35999 641.53998 653.35999 657.85999 667.96002 673.12 677.58002 689.38 700.09998 711.26001 728.82001 739.73999 744.90002 755.91803 762.65802 767.81799 772.31799 783.23798 793.078 802.91803 807.638 814.81799 826.638 837.35797 849.15802 854.31799 867.11798 880.93799 893.99799 899.15802 907.11798 918.31799 930.25598 934.61603 946.93597 959.25598 971.57599 976.73602 987.35602 994.53601 999.25598 1006.436 1018.256 1029.176 1034.3361 1044.176 1051.356 1062.076 1069.036 1076.2159 1081.376 1092.396 1099.136"
         y="104"
         id="tspan78">monthly income of less than RUB 120,000 at the start of </tspan><tspan
         x="594 607.53998 618.46002 629.17999 640.09998 657.65997 669.26001 680.17999 686.65802 691.81799 703.01801 715.33801 726.53802 738.47803 743.23798 747.85797 760.73798 771.45801 778.17798 789.33801 799.17798 809.01801 814.17798 825.33801 837.03802 843.51801 848.67798 855.39801 866.31799 877.93799 882.39801 893.55798 905.35797 916.078 920.578 925.73798 936.75598 943.95599 951.15601 955.61603 966.336 977.25598"
         y="130"
         id="tspan80">December 2020. Across our regional offices</tspan><tspan
         x="594 604.71997 616.52002 628.12 633.28003 644.90002 651.62 662.78003 674.38 686.08002 696.79999 703.97998 708.44 719.59998 731.40002 736.56 746.40002 750.85999 758.03998 768.96002 778.79999 783.96002 788.46002 799.62 810.34003 820.95599 828.13599 839.05603 850.65601 855.37598 862.55603 874.37598 881.09601 892.25598 903.95599 915.57599 927.396 938.55603 950.25598 957.43597 962.59601 975.396 987.09601 996.93597 1006.776 1011.236 1021.956 1026.696 1031.856 1038.574 1049.734 1061.434 1073.054 1084.874 1089.374 1099.474"
         y="169"
         id="tspan82">and production sites located throughout Russia, roughly </tspan><tspan
         x="594 603.73999 616.06 630.88 636.03998 647.06 653.79999 658.96002 670.12 681.82001 688.29999 693.46002 704.38 721.94 733.56 738.06 748.83801 759.138 770.05798 780.97803 790.81799 795.97803 802.698 813.61798 824.33801 835.258 839.71802 850.078 860.99799 872.59802 877.758 887.59802 899.29797 910.01801 921.83801 926.99799 938.61798 949.15601 959.79602 977.35602 988.276 999.91602 1007.096 1016.936 1021.696 1026.316 1038.8361 1046.016 1050.736 1057.916 1069.736 1080.656"
         y="195"
         id="tspan84">70% of our employees received such payments. At the </tspan><tspan
         x="594 603.84003 614.56 632.12 643.03998 647.76001 654.94 659.40002 676.96002 687.88 692.62 697.78003 708.85797 715.578 726.49799 730.95801 742.578 754.23798 761.41803 766.578 779.81799 791.61798 802.53802 807.698 819.51801 830.23798 840.078 845.23798 855.95801 867.11798 884.67798 902.23798 906.698 913.87799 921.05798 931.97803 943.578 948.29602 955.47601 966.63599 971.79602 982.81598 990.01599 996.99597 1007.916 1014.876 1019.336 1031.136 1042.756 1047.514 1054.714 1066.4139 1070.9139 1075.4139 1085.514"
         y="221"
         id="tspan86">same time, Freight One has committed to offering fully </tspan><tspan
         x="594 605.62 616.34003 620.79999 632.40002 637.56 647.40002 651.85999 662.58002 672.08002 677.23999 681.73999 692.65997 703.21802 713.578 724.49799 729.65802 741.258 752.95801 759.91803 764.37799 776.17798 787.79797 792.51801 799.698 811.51801 822.43799 827.59802 840.61798 853.47601 866.23602 871.25598 884.79602 893.716 901.67603 913.11603 918.276 929.896 940.61603 952.41602 964.01599 974.93597 992.49597 996.95599 1007.676"
         y="247"
         id="tspan88">paid sick leave during the COVID-19 pandemic.</tspan><tspan
         x="594 606.09998 617.79999 629.41998 641.03998 652.20001 659.15997 666.34003 670.79999 682.59998 694.21997 698.93799 706.11798 717.93799 728.85797 734.01801 745.83801 756.758 767.47803 771.97803 779.15802 790.97803 796.138 806.85797 818.65802 830.258 835.41803 847.03802 858.73798 869.45801 873.95801 878.41803 885.59802 895.69598 900.85602 911.87598 918.61603 923.776 928.276 932.73602 939.716 950.63599 955.79602 966.81598 973.55402 978.71399 989.87402 1001.574 1008.056 1012.774 1019.954 1030.874 1041.594 1059.1541 1063.854 1079.2939 1090.014 1099.854 1105.014 1115.734"
         y="286"
         id="tspan90">Supporting the health and quality of life of our team was a </tspan><tspan
         x="594 605.62 616.34003 623.29999 630.47998 634.94 645.65997 657.35999 661.85999 672.58002 679.05798 684.21802 695.83801 702.79797 707.258 718.41803 725.37799 729.83801 737.01801 747.11798 751.87799 758.85797 770.01801 776.49799 781.65802 793.35797 803.198 808.35797 812.81799 824.61798 829.77802 840.97803 853.29797 864.49799 876.43799"
         y="312"
         id="tspan92">particular priority for us in 2020.</tspan><tspan
         x="594 609.32001 620.23999 625.40002 632.20001 642.91998 654.71997 659.88 670.59998 675.76001 685.59998 696.52002 703.47998 707.94 718.85999 728.70001 733.85999 744.87799 751.61798 756.77802 767.93799 779.55798 790.47803 802.27802 806.97803 822.43799 833.35797 844.95801 849.41803 861.21802 871.93799 878.89801 888.73798 893.89801 904.61798 916.41803 928.01801 933.17798 937.67798 948.59802 959.31799 966.49799 978.198 984.91602 995.836 1005.676 1010.836 1021.996 1033.796 1038.9561 1050.776 1061.696 1072.416 1076.916 1084.0959 1095.614 1105.714"
         y="351"
         id="tspan94">We ran a series of open webinars and lectures on healthy </tspan><tspan
         x="594 598.5 602.96002 613.67999 618.14001 629.94 641.56 646.29999 651.46002 662.17999 673.97998 685.58002 690.73999 695.40002 706.56 711.02002 722.82001 733.73999 745.34003 750.03802 765.758 770.21802 777.39801 789.21802 794.37799 805.99799 816.71802 823.67798 830.85797 842.65802 853.578 860.05603 865.216 875.93597 887.09601 904.65601 916.276 926.99597 938.79602 943.25598 954.17603 964.01599 968.73602 975.91602 987.07599 992.23602 1003.256 1010.456 1017.434 1028.354 1034.834 1039.594 1046.7939 1051.254 1058.434 1070.234 1081.1541 1090.994 1100.834"
         y="377"
         id="tspan96">living, and joined with partner companies to offer fitness </tspan><tspan
         x="594 604.71997 615.44 622.62 627.08002 637.79999 642.26001 649.44 653.90002 664.82001 674.65997 679.82001 690.53998 702.34003 713.94 718.638 734.09802 745.258 752.21802 760.99799 770.73798 781.89801 793.59802 800.77802 810.61798 815.77802 826.93799 838.73798 843.23798 847.698 859.49799 870.41803 875.578 887.17798 898.87799 905.83801 910.29797 922.09802 933.71802 938.87799 943.37799 954.53802 965.258 974.49597 986.09601 996.99597 1012.716 1024.516"
         y="403"
         id="tspan98">activities and work-outs online during lockdown.</tspan><tspan
         x="594 609.32001 620.23999 625.40002 629.85999 641.5 648.67999 659.59998 671.40002 683 687.71997 694.90002 706.06 711.21997 721.94 733.09998 744.73798 751.91803 756.37799 768.17798 779.87799 790.79797 795.95801 806.87799 818.67798 829.39801 840.55798 852.258 859.05798 869.77802 881.39801 885.85797 897.65802 909.27802 914.43799 925.59802 937.29797 943.776 948.49597 955.67603 966.59601 977.31598 994.87598 999.59601 1006.776 1017.936 1023.096 1032.3361 1043.256 1054.176 1065.796 1070.556 1077.756 1082.2159 1089.396 1094.136"
         y="442"
         id="tspan100">We intend to continue encouraging our team to keep fit, </tspan><tspan
         x="594 604.71997 616.52002 628.12 633.28003 637.78003 648.94 660.09998 669.84003 674.29999 686.09998 697.71997 702.88 713.49799 720.698 727.87799 738.79797 745.27802 750.43799 761.59802 773.29797 779.77802 784.93799 795.85797 813.41803 825.03802 829.53802 840.31799 850.61798 861.53802 872.45801 881.69598 885.95599 891.11603 902.93597 913.85602 924.57599 929.07599 936.25598 948.07599 953.23602 957.69598 969.49597 974.11603 984.45599 995.17603 1002.136 1006.596 1017.756 1029.4561 1039.296 1043.994 1059.434 1069.974 1080.314 1090.1541 1094.894"
         y="468"
         id="tspan102">and looking after our employees’ health in various ways, </tspan><tspan
         x="594 605.59998 616.64001 623.82001 635.64001 640.79999 651.96002 663.76001 668.26001 672.71997 684.52002 695.44 700.59998 711.32001 723.12 734.71997 739.88 750.89801 758.09802 765.29797 769.79797 774.258 786.05798 796.97803"
         y="494"
         id="tspan104">both online and offline.</tspan><tspan
         x="594 604.70001 616.52002 620.97998 630.82001 635.52002 651.23999 655.70001 660.20001 664.70001 669.85999 680.58002 685.08002 689.58002 700.47803 715.73798 720.89801 731.81799 742.53802 753.258 765.078 770.23798 781.15802 798.71802 810.33801 814.83801 825.61798 835.91803 846.83801 857.758 862.47601 869.65601 880.81598 885.97601 903.53601 914.25598 926.05603 936.776 948.396 959.31598 964.03601 971.216 983.03601 993.95599 998.41602 1004.896 1010.056 1021.676 1028.396 1039.2159 1046.194 1057.114 1063.8361 1074.756 1086.556 1097.276 1108.196 1118.036"
         y="533"
         id="tspan106">This will allow each employee to manage their preferences </tspan><tspan
         x="594 601.20001 605.70001 616.46002 626.82001 631.28003 642.88 647.38 657.47803 662.17798 677.89801 689.71802 694.17798 698.67798 709.59802 714.31799 721.49799 732.21802 741.95801 746.41803 758.21802 769.83801 774.99799 785.71802 796.43799 807.15802 818.31799 830.01801 841.65601 848.836 853.99597 865.01599 871.75598 876.47601 883.65601 895.47601 906.396 910.85602 917.336 922.03601 937.49597 948.65601 955.61603 965.11603 970.276 980.11603 990.836 1002.656 1013.576 1025.176 1036.876 1041.376 1052.296"
         y="559"
         id="tspan108">flexibly while taking account of their work schedule.</tspan><tspan
         x="594 605.84003 623.40002 635.02002 639.52002 650.29999 660.59998 671.52002 682.44 692.28003 697.44 708.15997 714.87799 725.79797 730.95801 737.67798 748.59802 760.21802 766.93799 777.85797 787.698 798.61798 810.258 817.43799 828.35797 839.95801 845.11798 849.578 861.37799 866.09601 873.276 885.09601 896.01599 901.17603 911.01599 922.17603 932.896 937.35602 948.07599 952.57599 957.73602 969.35602 980.07599 987.03601 994.216 1006.016 1016.936 1023.896 1033.736 1045.556 1050.016 1061.636"
         y="598"
         id="tspan110">Employees are represented in the social partnership </tspan><tspan
         x="594 603.5 613.84003 623.67999 630.85999 641.78003 659.34003 664.5 675.71802 685.81799 690.53802 697.71802 709.53802 720.45801 725.61798 736.698 743.41803 754.33801 758.79797 770.41803 782.078 789.258 794.41803 807.65802 819.45801 830.37799 835.09802 842.27802 849.07599 859.79602 871.396 882.31598 887.47601 899.17603 910.97601 915.43597 926.59601 938.396 943.55603 954.716 961.41602 973.03601 983.75598 995.55603 1000.016 1009.816 1020.436 1027.616 1032.076 1043.236 1055.036 1059.776"
         y="624"
         id="tspan112">system by the Freight One trade union organization, </tspan><tspan
         x="594 609.71997 621.53998 626 636.71997 648.53998 653.70001 671.26001 682.41998 694.02002 698.47998 702.97998 707.44 717.09802 728.01801 737.85797 742.578 749.758 761.578 772.49799 777.198 792.65802 803.81799 810.77802 820.51801 827.49799 838.65802 845.37799 856.09802 867.01801 871.73798 878.91803 890.078 895.23798 905.95801 916.67798 928.49799 932.95801 943.53601 953.896 964.81598 969.97601 979.81598 986.99597 993.79602 1004.416 1011.596 1022.516 1034.136 1038.5959 1049.316 1054.476 1066.0959 1077.256 1087.976 1092.476 1102.316 1107.056"
         y="650"
         id="tspan114">which mobilizes the workforce to achieve strategic goals, </tspan><tspan
         x="594 611.56 622.47998 633.32001 640.5 645.65997 657.28003 668.97998 679.70001 691.33801 698.51801 702.97803 710.15802 720.77802 727.95801 732.41803 742.77802 753.698 758.85797 769.578 781.37799 792.97803 798.138 809.758 821.45801 832.17798 836.67798 841.138 848.31799 858.93597 866.11603 870.57599 880.93597 891.85602 896.57599 903.75598 914.47601 921.17603 932.79602 943.63599 950.81598 960.65601 965.396 970.55603 981.276 993.07599 1004.676 1009.836 1020.556 1032.256 1036.756 1043.936 1048.396 1058.734 1069.354 1076.5341 1087.454 1092.614 1103.334"
         y="676"
         id="tspan116">meet quantitative and qualitative targets, and cultivate a </tspan><tspan
         x="594 605.62 610.12 621.03998 631.76001 641.59998 652.32001 663.96002 671.14001 675.84003 691.29999 702.46002 709.41998 719.15997 723.62 735.41998 747.03998 752.20001 763.12 774.64001 785.35999 789.82001 796.53998 807.70001 819.5 837.06 847.97998 859.62 866.79999"
         y="702"
         id="tspan118">pleasant working environment.</tspan><tspan
         x="1188 1198.7 1210.52 1221.4399 1226.16 1233.34 1240.14 1250.86 1262.46 1273.38 1278.54 1290.24 1302.04 1306.5 1317.66 1329.46 1334.158 1349.618 1360.778 1367.738 1377.298 1387.1379 1392.298 1403.0179 1407.5179 1418.678 1428.5179 1439.438 1443.938 1454.038 1458.738 1474.458 1478.918 1486.098 1497.918 1502.6379 1509.818 1521.6379 1532.558 1537.718 1555.278 1565.998 1577.798 1588.5179 1600.1379 1611.058 1628.618 1639.538 1651.176 1658.356"
         y="-1.4210855e-13"
         id="tspan120">The trade union works closely with the management </tspan><tspan
         x="1188 1195.1801 1206.1 1216.8199 1234.38 1239.12 1244.28 1251 1261.92 1273.54 1280.2581 1291.178 1301.0179 1311.938 1323.578 1330.7581 1335.218 1347.0179 1358.6379 1363.358 1370.538 1382.358 1393.278 1397.978 1413.438 1424.598 1431.558 1441.298 1448.278 1459.438 1466.158 1476.8781 1487.078 1490.598 1500.438 1505.598 1517.218 1528.3781 1538.218 1542.678 1549.858 1554.318 1565.478 1577.278 1582.438 1593.598 1605.3979 1610.558 1621.478 1639.038 1650.658 1655.158 1665.936 1676.236 1687.156 1698.076"
         y="26"
         id="tspan122">team, representing the workforce’s position on employee </tspan><tspan
         x="1188 1194.72 1205.64 1210.14 1220.76 1227.9399 1232.4 1243.5601 1255.36 1265.2 1269.9399 1275.1 1284.9399 1296.1 1306.8199 1311.28 1322 1326.5 1331.66 1343.28 1354.4399 1358.9399 1363.4 1373.838 1383.2581 1387.998 1393.158 1403.8781 1415.678 1427.278 1432.438 1443.598 1454.318 1465.038 1476.738 1488.358 1498.976 1506.156 1510.616 1521.776 1533.576 1544.296 1548.796 1553.9561 1563.796 1574.416 1581.396 1592.236 1599.416 1608.8361"
         y="52"
         id="tspan124">relations, social policy, and occupational safety.</tspan><tspan
         x="1188 1201.54 1213.24 1220.2 1224.66 1236.46 1248.08 1252.8 1259.98 1271.8 1282.72 1287.88 1299.5 1310.22 1322.02 1333.62 1344.54 1362.1 1366.5601 1377.28 1382.02 1386.738 1393.918 1405.738 1416.658 1421.818 1432.896 1439.616 1450.536 1454.996 1466.616 1478.276 1485.4561 1490.616 1503.856 1515.656 1526.576 1531.296 1538.476 1545.276 1555.996 1567.5959 1578.516 1583.676 1595.376 1607.176 1611.636 1622.796 1634.5959"
         y="91"
         id="tspan126">During the pandemic, the Freight One trade union </tspan><tspan
         x="1188 1192.46 1210.02 1221.64 1226.14 1237.0601 1254.62 1265.54 1277.178 1284.358 1295.278 1306.8781 1312.038 1323.658 1330.3781 1341.538 1346.198 1357.118 1367.838 1375.0179 1384.858 1389.578 1396.7581 1407.918 1413.078 1430.6379 1441.358 1445.818 1457.4561 1464.636 1475.356 1479.816 1491.616 1496.776 1507.496 1512.656 1524.276 1535.436 1545.276 1549.736 1556.916 1561.376 1571.736 1582.656 1587.816 1598.434 1605.614 1623.174 1634.334 1644.174 1655.7939 1667.614 1678.5341 1685.254 1696.174"
         y="117"
         id="tspan128">implemented projects to maintain a positive atmosphere </tspan><tspan
         x="1188 1203.72 1208.1801 1215.36 1227.1801 1231.64 1243.4399 1248.6 1259.76 1271.46 1277.9399 1282.66 1289.84 1300.76 1311.48 1329.04 1338.88 1343.64 1348.278 1358.978 1370.798 1381.718 1386.8781 1398.578 1410.3781 1414.838 1425.998 1437.798 1442.958 1454.778 1465.498 1477.298 1488.8979 1499.818 1511.418 1516.578 1527.738 1539.438 1546.618 1551.778 1565.458 1576.116 1591.376 1595.936 1606.916 1617.8361 1628.556 1635.036 1640.196 1651.816 1658.536 1669.4561 1679.296 1690.2159 1701.854 1709.0341 1718.874"
         y="143"
         id="tspan130">within our teams. The union handed out New Year presents </tspan><tspan
         x="1188 1195.1801 1206.34 1211.0601 1218.24 1230.0601 1240.98 1246.14 1256.86 1268.6801 1273.14 1277.64 1289.24 1295.958 1306.8781 1318.678 1323.838 1334.858 1341.598 1346.7581 1357.918 1369.618 1376.098 1381.2581 1391.098 1398.278 1408.8979 1416.098 1422.8361 1427.996 1438.7159 1450.516 1462.116 1467.276 1478.896 1483.356 1490.556 1497.736 1502.896 1513.616 1524.3361 1531.036 1542.636 1552.476 1557.236 1564.436 1571.156 1582.316 1599.876 1605.036 1622.5959 1633.316 1637.976 1649.136 1655.614"
         y="169"
         id="tspan132">to the children of our staff and gift cards from major </tspan><tspan
         x="1188 1197.84 1209.54 1221.16 1232.08 1239.04 1256.6 1267.3199 1274.28 1283.5179 1294.358 1301.538 1311.3781 1316.098 1323.278 1334.438 1339.598 1350.318 1354.818 1359.318 1364.478 1375.6379 1387.338 1393.818 1398.978 1409.8979 1427.458 1439.078 1443.578 1454.356 1464.656 1475.576 1486.496 1496.3361"
         y="195"
         id="tspan134">supermarkets to all our employees.</tspan><tspan
         x="1188 1193.02 1204.8199 1209.88 1220.6 1231.3199 1242.04 1253.2 1259.9 1271.5 1282.22 1294.02 1304.74 1315.66 1320.264 1335.984 1340.444 1347.624 1359.444 1364.504 1375.6639 1387.364 1393.844 1398.9041 1408.744 1420.444 1430.2841 1437.464 1448.184 1452.644 1464.444 1475.1639 1486.764 1491.264 1502.184 1507.244 1518.844 1529.424 1539.7841 1550.704 1555.204 1566.364 1577.984 1595.5439 1606.464 1618.104 1625.2841 1630.344 1641.964 1648.924 1653.384 1665.184 1675.9041 1680.364 1691.984 1696.484 1707.4041 1717.244 1721.984"
         y="234"
         id="tspan136">In accordance with our sustainable development principles, </tspan><tspan
         x="1188 1203.46 1214.38 1219.54 1230.26 1234.76 1244.6 1255.76 1260.92 1267.88 1279.58 1291.38 1296.54 1307.26 1319.08 1329.8 1336.76 1341.22 1348.4 1359.12 1370.72 1375.22 1386.14 1391.3 1401.14 1411.86 1423.6801 1434.6 1452.16 1463.08 1472.92 1478.08 1487.92 1499.62 1511.24 1522.86 1534.02 1540.98 1548.16 1552.62 1564.42 1576.04 1581.2 1591.92 1603.74 1608.2 1612.7 1624.3 1631.014 1641.934 1653.734"
         y="260"
         id="tspan138">we also run charitable schemes supporting children.</tspan></text><text
       transform="matrix(1,0,0,-1,99,953.4)"
       style="font-variant:normal;font-weight:normal;font-stretch:normal;font-size:38px;font-family:'Prosto One';-inkscape-font-specification:ProstoOne-Regular;writing-mode:lr-tb;fill:#000000;fill-opacity:1;fill-rule:nonzero;stroke:none"
       id="text146"><tspan
         x="0 28.5 62.700001 92.720001 103.55 134.71001 159.98"
         y="0"
         id="tspan142">SOCIAL </tspan><tspan
         x="0 30.4 57.380001 85.879997 115.9 150.10001 182.78 211.28 222.11 252.50999 263.34 288.60999 299.44 326.23001"
         y="45.599998"
         id="tspan144">RESPONSIBILITY</tspan></text><text
       transform="matrix(1,0,0,-1,1342.5,261.8)"
       style="font-variant:normal;font-weight:500;font-stretch:normal;font-size:28px;font-family:'Rubik Medium';-inkscape-font-specification:Rubik-Medium;writing-mode:lr-tb;fill:#000000;fill-opacity:1;fill-rule:nonzero;stroke:none"
       id="text150"><tspan
         x="0 22.848 40.292 46.34 69.188004 77.587997 93.856003 109.424 115.808 134.98801 154.448 174.244 191.21201 199.612 219.408 239.39999 256.84399 262.55319 279.1572 298.61719 305.00119 324.68521 344.1452 349.80121 369.23318 385.50119 401.06641"
         y="0"
         id="tspan148">WE WILL CONTINUE TO DO ALL </tspan></text><text
       transform="matrix(1,0,0,-1,1342.5,227.808)"
       style="font-variant:normal;font-weight:500;font-stretch:normal;font-size:28px;font-family:'Rubik Medium';-inkscape-font-specification:Rubik-Medium;writing-mode:lr-tb;fill:#000000;fill-opacity:1;fill-rule:nonzero;stroke:none"
       id="text156"><tspan
         x="0 22.848 40.292 46.675999 65.632004 85.064003 104.86 110.572 127.176 146.636 153.02 171.5 190.3132 209.40919 226.3772 243.6532 262.83319 279.12921 284.84119 301.8092 322.24921 339.69321 346.07721 366.51721 383.96121 403.39319 416.49719 433.46521 453.90521"
         y="0"
         id="tspan152">WE CAN TO PROTECT THE HEALTH </tspan><tspan
         x="0 19.459999 36.316002 42.700001 62.16 82.152 101.024 107.408 124.852 147.588 166.06799 182.08121 200.6732 219.2932 236.7372 254.1812 272.18521 277.84119 297.27319 317.06921 336.7532 343.13721 361.61719 380.43039 399.3024 418.20239 426.60239 446.28641 463.73041"
         y="33.992001"
         id="tspan154">OF OUR EMPLOYEES AND PROVIDE </tspan></text><text
       transform="matrix(1,0,0,-1,1342.5,159.824)"
       style="font-variant:normal;font-weight:500;font-stretch:normal;font-size:28px;font-family:'Rubik Medium';-inkscape-font-specification:Rubik-Medium;writing-mode:lr-tb;fill:#000000;fill-opacity:1;fill-rule:nonzero;stroke:none"
       id="text162"><tspan
         x="0 16.968 37.408001 54.852001 77.587997 83.636002 106.484 114.884 131.85201 152.29201 158.6732 176.3692 195.80119 212.6572 230.1012 236.1492 258.77319 278.23318 297.10519 314.82919 323.22919 343.02521 362.6532"
         y="0"
         id="tspan158">THEM WITH SAFE WORKING </tspan><tspan
         x="0 19.18 38.639999 58.436001 78.120003 86.519997 103.488 111.888 131.34801 151.144"
         y="33.992001"
         id="tspan160">CONDITIONS</tspan></text><g
       id="g164"><g
         id="g166"
         clip-path="url(#clipPath170)"><g
           id="g172"
           transform="translate(1300.4,278.55)"><path
             d="m 0,0 c -1.4,1.9 -3.367,2.85 -5.9,2.85 -2.267,0 -4.084,-0.75 -5.45,-2.25 -1.367,-1.5 -2.05,-3.25 -2.05,-5.25 0,-2 0.666,-3.75 2,-5.25 1.333,-1.5 3,-2.25 5,-2.25 0.666,0 1.266,0.067 1.8,0.2 0.266,0.067 0.5,0.167 0.7,0.3 -0.267,-2 -1.15,-3.583 -2.65,-4.75 -1.5,-1.166 -3.117,-1.75 -4.85,-1.75 v -3.5 c 1.6,0 3.216,0.284 4.85,0.85 1.633,0.567 3.083,1.467 4.35,2.7 1.266,1.234 2.3,2.8 3.1,4.7 0.8,1.9 1.2,4.15 1.2,6.75 C 2.1,-4.117 1.4,-1.9 0,0 M 20,0 C 18.6,1.9 16.633,2.85 14.1,2.85 11.833,2.85 10.016,2.1 8.65,0.6 7.283,-0.9 6.6,-2.65 6.6,-4.65 c 0,-2 0.666,-3.75 2,-5.25 1.333,-1.5 3,-2.25 5,-2.25 0.666,0 1.266,0.067 1.8,0.2 0.266,0.067 0.5,0.167 0.7,0.3 -0.267,-2 -1.15,-3.583 -2.65,-4.75 -1.5,-1.166 -3.117,-1.75 -4.85,-1.75 v -3.5 c 1.6,0 3.216,0.284 4.85,0.85 1.633,0.567 3.083,1.467 4.35,2.7 1.266,1.234 2.3,2.8 3.1,4.7 0.8,1.9 1.2,4.15 1.2,6.75 0,2.533 -0.7,4.75 -2.1,6.65"
             style="fill:#fdb73e;fill-opacity:1;fill-rule:nonzero;stroke:none"
             id="path174" /></g></g></g><text
       transform="matrix(1,0,0,-1,39.8001,1023)"
       style="font-variant:normal;font-weight:300;font-stretch:normal;font-size:20px;font-family:'Rubik Light';-inkscape-font-specification:Rubik-Light;writing-mode:lr-tb;fill:#000000;fill-opacity:1;fill-rule:nonzero;stroke:none"
       id="text178"><tspan
         x="0 11.44 59.200001 72.440002 84.139999 90.620003 95.339996 102.52 113.44 124.16"
         y="0"
         id="tspan176">91Our team</tspan></text></g></svg>
