<?xml version="1.0" encoding="UTF-8" standalone="no"?>
<?xml-stylesheet type="text/css" href="main.css" ?>
<svg
   xmlns:dc="http://purl.org/dc/elements/1.1/"
   xmlns:cc="http://creativecommons.org/ns#"
   xmlns:rdf="http://www.w3.org/1999/02/22-rdf-syntax-ns#"
   xmlns:svg="http://www.w3.org/2000/svg"
   xmlns="http://www.w3.org/2000/svg"
   version="1.1"
   id="svg2"
   xml:space="preserve"
   width="2560"
   height="1440"
   viewBox="0 0 2560 1440"><metadata
     id="metadata8"><rdf:RDF><cc:Work
         rdf:about=""><dc:format>image/svg+xml</dc:format><dc:type
           rdf:resource="http://purl.org/dc/dcmitype/StillImage" /></cc:Work></rdf:RDF></metadata><defs
     id="defs6"><clipPath
       clipPathUnits="userSpaceOnUse"
       id="clipPath20"><path
         d="M 0,1080 H 1920 V 0 H 0 Z"
         id="path18" /></clipPath></defs><g
     id="g10"
     transform="matrix(1.3333333,0,0,-1.3333333,0,1440)"><g
       id="g12"><g
         id="g14"><g
           id="g16"
           clip-path="url(#clipPath20)"><path
             d="M 0,0 H 1920 V 1080 H 0 Z"
             style="fill:#ffffff;fill-opacity:1;fill-rule:nonzero;stroke:none"
             id="path22" /></g></g></g><text
       transform="matrix(1,0,0,-1,99,953.4)"
       style="font-variant:normal;font-weight:normal;font-stretch:normal;font-size:38px;font-family:'Prosto One';-inkscape-font-specification:ProstoOne-Regular;writing-mode:lr-tb;fill:#000000;fill-opacity:1;fill-rule:nonzero;stroke:none"
       id="text28"><tspan
         x="0 10.83 43.509998 70.870003 105.07 135.47 177.27 208.42999 235.22 246.05 280.25 312.92999 323.98801 358.18799 390.86801 404.168 414.99799 447.67801 474.46799 501.448 531.84802 558.828 587.328 614.11798 641.09802 673.01801 686.31799 719.37799 732.67798 762.698 793.85797 824.258 851.04797 881.258 894.55798 925.71802 956.87799 987.27802 1014.258 1041.238 1083.038 1110.0179 1142.698 1169.488 1197.988 1207.488"
         y="0"
         id="tspan24">INFORMATION ON INTERESTED — PARTY AGREEMENTS. </tspan><tspan
         x="0 41.799999 72.959999 98.040001 132.24001 162.64 175.94 207.10001 238.25999 268.66 295.64001 322.62 364.42001 391.39999 424.07999 450.87"
         y="45.599998"
         id="tspan26">MAJOR AGREEMENTS</tspan></text><text
       transform="matrix(1,0,0,-1,99,801.8201)"
       style="font-variant:normal;font-weight:500;font-stretch:normal;font-size:28px;font-family:'Rubik Medium';-inkscape-font-specification:Rubik-Medium;writing-mode:lr-tb;fill:#000000;fill-opacity:1;fill-rule:nonzero;stroke:none"
       id="text32"><tspan
         x="0 18.704 34.888 52.080002 68.683998 80.416 92.484001 109.088 126.588 132.412 144.48 162.12 178.304 184.6852 192.10519 209.43719 221.5052 237.68919 249.2252 265.40921 280.27719 292.34521 308.52921 325.72119 339.16119 356.35321 372.3692 384.1012 396.16919 411.5412"
         y="0"
         id="tspan30">Reporton the interested-party </tspan></text><text
       transform="matrix(1,0,0,-1,99,767.8281)"
       style="font-variant:normal;font-weight:500;font-stretch:normal;font-size:28px;font-family:'Rubik Medium';-inkscape-font-specification:Rubik-Medium;writing-mode:lr-tb;fill:#000000;fill-opacity:1;fill-rule:nonzero;stroke:none"
       id="text36"><tspan
         x="0 16.016001 33.264 44.799999 60.984001 77.167999 102.452 118.636 135.968 148.036 162.96001 169.34399 185.528 202.85719 214.9252 231.10921 242.6452 258.82919 276.02121 282.40521 289.8252 307.1572 319.22519 335.82919 342.2132 358.8172 374.18921 380.57321 397.12119 408.6572 424.84119 432.2612 449.50919 466.9812 479.04919"
         y="0"
         id="tspan34">agreements entered into by Freight </tspan></text><text
       transform="matrix(1,0,0,-1,99,733.8361)"
       style="font-variant:normal;font-weight:500;font-stretch:normal;font-size:28px;font-family:'Rubik Medium';-inkscape-font-specification:Rubik-Medium;writing-mode:lr-tb;fill:#000000;fill-opacity:1;fill-rule:nonzero;stroke:none"
       id="text40"><tspan
         x="0 19.459999 36.959999 53.144001 59.528 77.643997 95.928001 113.932 133.112 139.496 146.916 164.416 170.8 188.16 206.612 223.972"
         y="0"
         id="tspan38">One PJSC in 2020</tspan></text><text
       transform="matrix(1,0,0,-1,99,697.8201)"
       style="font-variant:normal;font-weight:300;font-stretch:normal;font-size:20px;font-family:'Rubik Light';-inkscape-font-specification:Rubik-Light;writing-mode:lr-tb;fill:#000000;fill-opacity:1;fill-rule:nonzero;stroke:none"
       id="text82"><tspan
         x="0 12.88 23.6 34.32 45.48 52.18 63.779999 68.239998 80.040001 91.660004 96.379997 103.56 114.72 119.44 126.62 138.44 149.36 154.52 165.67799 176.59801 188.198 199.118 205.918 216.638 221.138 226.298 237.258 247.978 263.23801 268.39801 279.55801 291.358 296.51801 308.87799 320.03799 324.49799 336.13599 343.07599 352.396 364.496 371.67599 382.836 393.556 403.056 408.216 421.23599 432.396 449.95599 461.57599 472.29599 484.09601 488.556 499.47601 509.31601 514.05603"
         y="0"
         id="tspan42">According to the Federal Law on Joint-Stock Companies, </tspan><tspan
         x="0 10.72 22.52 27.68 32.139999 43.779999 50.959999 61.880001 68.599998 79.519997 89.360001 96.540001 107.46 119.06 128.8 140.42 151.14 158.10001 165.28 175.37801 180.53799 191.258 202.87801 209.59801 220.51801 231.438 248.998 259.918 271.556 278.73599 283.896 288.35599 298.19601 303.35599 314.51599 326.31601 337.23599 342.396 346.85599 358.65601 363.35599 379.07599 390.896 395.35599 406.07599 417.896 423.056 433.776 438.936 456.496 467.41599 484.97601 496.57599 507.496 513.974"
         y="26"
         id="tspan44">an interested-party agreement is one in which a member </tspan><tspan
         x="0 11.02 17.76 22.48 29.66 41.48 52.400002 57.560001 70.580002 81.739998 99.300003 110.92 121.64 133.138 143.778 147.298 157.138 162.298 175.358 186.51801 197.23801 203.938 215.53799 220.698 231.718 238.45799 243.618 257.15799 261.61801 268.33801 279.258 289.978 297.15799 308.31799 315.27802 325.11801 329.858 335.01801 339.478 346.65799 356.49799 361.65799 371.49799 375.95801 387.758 399.37799 403.87799 414.798 424.53799 436.15799 447.078 454.03799 463.87799 475.03799 486.83801"
         y="52"
         id="tspan46">of the Company’s Board of Directors, its single-person </tspan><tspan
         x="0 10.76 20.879999 31.799999 42.52 54.220001 61.400002 65.860001 76.220001 87.139999 92.300003 103.9 115.06 126.66 136.758 141.918 147.838 155.01801 166.838 177.758 182.918 195.938 207.758 212.218 223.036 229.776 234.936 246.776 256.896 267.81601 278.53601 290.23599 297.41599 301.87601 312.23599 323.15601 328.31601 341.556 348.75601 355.95599 360.41599 371.13599 382.056 388.23401 394.61401 399.354 404.51401 415.23401 420.39401 437.95401 448.87399 466.43399 478.034 488.95401 495.43201 500.59201 511.612 518.35199"
         y="78"
         id="tspan48">executive body (the Chief Executive Officer), a member of </tspan><tspan
         x="0 4.46 11.64 21.48 26.639999 37.360001 48.52 53.02 57.52 68.440002 79.160004 86.339996 90.800003 101.158 112.078 117.238 127.998 138.118 149.03799 159.758 171.45799 178.638 183.09801 193.45799 204.37801 209.53799 221.138 232.298 243.89799 253.996 259.15601 265.07599 272.25601 284.07599 294.996 300.15601 315.75601 326.47601 338.276 348.996 360.616 371.53601 389.09601 400.01599 411.65399 418.83401 423.99399 437.05399 448.21399 458.93399 465.634 477.23401 483.61401 488.354 493.51401 504.67401 511.15399"
         y="104"
         id="tspan50">its collective executive body (the Management Board), or </tspan><tspan
         x="594 604.71997 609.88 620.59998 631.76001 643.40002 650.58002 657.29999 668.46002 672.96002 677.46002 681.91998 693.71997 705.34003 710.5 721.41998 733.05798 740.23798 744.698 751.87799 761.97803 767.138 778.15802 784.89801 789.61798 796.79797 808.61798 819.53802 824.698 837.71802 848.87799 866.43799 878.05798 888.77802 900.276 909.69598 914.43597 919.59601 930.75598 937.23798 942.39801 953.11798 964.91803 970.078 980.99799 992.63599 999.81598 1004.276 1011.456 1021.556 1026.7159 1037.636 1049.276 1056.4561 1060.916 1068.0959 1072.5959 1083.516 1095.116"
         y="-111.48"
         id="tspan52">a controlling entity of the Company, or an entity entitled </tspan><tspan
         x="594 601.17999 612.34003 617.5 621.96002 631.79999 641.64001 653.34003 664.26001 668.97803 676.15802 687.97803 698.89801 704.05798 717.078 728.23798 745.79797 757.41803 768.138 779.638 789.73798 794.89801 812.45801 823.17798 834.97803 846.578 857.198 864.37799 875.53802 882.49799 892.59601 897.75598 902.216 914.01599 923.85602 931.03601 937.99597 949.69598 960.41602 967.59601 972.05603 983.216 995.01599 1004.856 1009.596 1014.756 1026.576 1037.296 1047.136 1052.296 1063.016 1074.816"
         y="-85.480003"
         id="tspan54">to issue the Company mandatory instructions, has an </tspan><tspan
         x="594 598.46002 610.09998 617.28003 628.20001 634.91998 645.84003 655.67999 662.85999"
         y="-59.48"
         id="tspan56">interest.</tspan><tspan
         x="594 607 618.79999 623.96002 628.41998 640.06 647.23999 658.15997 664.88 675.79999 685.64001 692.82001 703.73999 715.34003 725.08002 736.70001 747.41998 754.38 761.56 771.65802 776.81799 787.53802 799.15802 805.87799 816.79797 827.71802 845.27802 856.198 867.836 875.01599 880.17603 891.776 902.93597 913.85602 923.69598 928.85602 940.65601 951.69598 958.87598 964.03601 970.75598 981.67603 993.29602 1004.996 1009.456 1016.174 1027.094"
         y="-20.48"
         id="tspan58">An interested-party agreement does not require </tspan><tspan
         x="594 611.56 622.28003 634.08002 645.67999 656.29999 663.47998 674.64001 681.59998 691.70001 696.85999 707.58002 719.20001 730.82001 737.53802 748.34003 758.67798 769.39801 773.89801 779.05798 783.51801 795.31799 800.47803 811.198 822.79797 833.138 843.85797 855.65802 866.37799 877.29797 882.45801 893.21802 903.33801 914.05798 924.97803 936.45801 943.638 948.33801 964.05798 975.87799 986.79797 993.51599 1004.436 1009.596 1019.436 1026.616 1031.076 1042.696 1054.396 1058.896 1069.516 1076.696 1087.616 1099.2159 1104.376 1115.594 1125.694"
         y="5.52"
         id="tspan60">mandatory approval in advance except where stipulated by </tspan><tspan
         x="594 601.17999 613 623.91998 629.08002 640.23999 651.15997 662.76001 673.67999 680.47803 691.198 695.698 700.85797 711.81799 722.53802 737.79797 742.95801 754.11798 765.91803 771.078 783.43799 794.59802 799.05798 810.698 817.638 826.95801 839.05798 846.23798 857.39801 868.11798 877.61798 882.77802 895.79797 906.95801 924.51801 936.138 946.85797 958.65802 963.11798 974.03802 983.87799"
         y="31.52"
         id="tspan62">the Federal Law on Joint-Stock Companies.</tspan><tspan
         x="594 607 618.62 630.23999 636.96002 647.76001 658.09998 668.82001 673.32001 678.08002 685.06 696.21997 702.70001 707.85999 718.58002 730.38 735.53998 740 751.64001 758.82001 769.73999 776.45801 787.37799 797.21802 804.39801 815.31799 826.91803 836.65802 848.27802 858.99799 865.95801 873.138 883.23798 888.39801 899.11798 910.73798 917.45801 928.37799 939.29797 956.85797 967.77802 979.41602 986.59601 991.75598 1009.316 1019.856 1029.9561"
         y="70.519997"
         id="tspan64">Approval for an interested-party agreement may </tspan><tspan
         x="594 605.59998 616.52002 621.67999 632.84003 644.29999 651.47998 662.20001 666.65997 678.46002 689.38 700.97998 706.14001 710.59998 722.40002 727.56 738.28003 749.88 760.21802 770.93799 782.73798 793.45801 804.37799 809.138 816.33801 823.05603 834.216 851.776 856.49597 863.67603 875.49597 886.41602 891.57599 904.59601 915.75598 933.31598 944.93597 955.65601 967.15601 977.79602 981.31598 991.15601 996.31598 1009.376 1020.536 1031.256 1037.9561 1049.556"
         y="96.519997"
         id="tspan66">be obtained in advance from the Company’s Board </tspan><tspan
         x="594 605.02002 611.76001 616.91998 630.46002 634.91998 641.64001 652.56 663.28003 670.46002 681.62 688.58002 698.41998 703.58002 714.73999 721.21802 726.37799 739.65802 750.578 762.37799 773.29797 780.09802 790.81799 795.31799 800.47803 816.078 826.99799 837.83801 845.01801 849.47803 861.27802 872.89801 878.05798 889.07599 895.81598 900.97601 913.07599 924.896 935.61603 942.336 953.25598 965.07599 976.23602 980.73602 992.336 1003.256 1010.216 1020.056 1024.796 1029.9561 1034.416 1046.2159"
         y="122.52"
         id="tspan68">of Directors or General Meeting of Shareholders, in </tspan><tspan
         x="1188 1198.72 1209.4399 1220.16 1231.3199 1238.02 1249.62 1260.34 1272.14 1282.86 1293.78 1298.48 1314.2 1318.66 1325.84 1337.66 1342.3781 1349.558 1361.3781 1372.298 1377.458 1388.618 1399.538 1411.1379 1422.058 1428.858 1439.578 1444.078 1449.238 1460.198 1470.918 1486.176 1491.3361 1502.496 1514.296 1519.4561 1531.816 1542.976 1547.436 1559.076 1566.016 1575.3361 1587.436 1594.616 1605.776 1616.496 1625.996"
         y="-111.48"
         id="tspan70">accordance with the Federal Law on Joint-Stock </tspan><tspan
         x="1188 1201.02 1212.1801 1229.74 1241.36 1252.08 1263.88 1268.34 1279.26 1289.1 1293.84 1299 1309.618 1316.798 1321.5179 1328.698 1340.5179 1351.438 1356.598 1363.318 1374.238 1385.858 1397.558 1408.478 1418.318 1425.498 1430.658 1441.678 1448.416 1453.136 1460.316 1472.136 1483.056 1488.2159 1498.056 1502.516 1514.316 1525.936 1530.436 1541.356 1551.0959 1562.7159 1573.636 1580.5959 1590.436 1601.5959 1613.396 1618.556 1629.314 1639.434 1650.354 1661.074 1672.774 1679.954 1684.4139 1694.774 1705.694"
         y="-85.480003"
         id="tspan72">Companies, at the request of the single-person executive </tspan><tspan
         x="1188 1199.6 1210.76 1222.36 1231.78 1236.52 1241.6801 1252.4 1257.5601 1275.12 1286.04 1303.6 1315.2 1326.12 1332.598 1337.7581 1348.778 1355.5179 1360.238 1367.418 1379.238 1390.158 1395.318 1408.338 1419.498 1437.058 1448.678 1459.3979 1470.896 1481.536 1485.058 1494.8979 1500.058 1515.658 1526.3781 1538.178 1548.8979 1560.5179 1571.438 1588.998 1599.918 1611.556 1618.736 1623.896 1636.9561 1648.116 1658.8361 1665.536 1677.136"
         y="-59.48"
         id="tspan74">body, a member of the Company’s Management Board </tspan><tspan
         x="1188 1199.16 1205.64 1210.8 1223.86 1235.02 1245.74 1252.4399 1264.04 1269.2 1280.22 1286.96 1292.12 1305.66 1310.12 1316.84 1327.76 1338.48 1345.66 1356.8199 1363.78 1373.62 1378.36 1383.52 1394.6801 1401.158 1406.318 1417.038 1422.198 1432.038 1443.858 1454.578 1461.298 1472.218 1484.038 1495.198 1499.698 1511.298 1522.218 1528.696 1533.856 1539.296 1550.4561 1556.936 1562.0959 1571.936 1583.756 1594.476 1601.196 1612.116 1623.936 1635.0959 1639.5959 1651.196 1662.116 1669.076 1678.054 1684.434"
         y="-33.48"
         id="tspan76">or Board of Directors, or a shareholder (or shareholders) </tspan><tspan
         x="1188 1199.8199 1210.98 1215.48 1227.08 1231.54 1243.34 1254.96 1260.12 1270.738 1277.918 1283.078 1287.578 1298.498 1309.218 1319.058 1326.238 1331.3979 1339.358 1344.5179 1349.958 1361.118 1372.918 1382.958 1389.338 1394.498 1406.118 1417.038 1423.756 1434.476 1445.396 1457.036 1464.2159 1469.376 1480.396 1487.136 1491.856 1499.036 1510.856 1521.776 1526.936 1539.9561 1551.116 1568.676 1580.296 1591.016 1602.514 1613.1541 1616.674 1626.514 1631.134 1641.494 1652.5341 1659.714 1664.174 1675.974 1687.594"
         y="-7.48"
         id="tspan78">holding at least 1 (one) percent of the Company’s voting </tspan><tspan
         x="1188 1197.84 1209.66 1220.38 1227.1 1238.02 1247.86"
         y="18.52"
         id="tspan80">shares.</tspan></text><text
       transform="matrix(1,0,0,-1,1287,632.3)"
       style="font-variant:normal;font-weight:500;font-stretch:normal;font-size:28px;font-family:'Rubik Medium';-inkscape-font-specification:Rubik-Medium;writing-mode:lr-tb;fill:#000000;fill-opacity:1;fill-rule:nonzero;stroke:none"
       id="text86"><tspan
         x="0 22.736 38.751999 46.591999 63.195999 74.339996 80.723999 96.739998 113.988 125.5212 141.7052 157.88921 183.1732 199.35719 216.68919 228.7572"
         y="0"
         id="tspan84">Major agreements</tspan></text><text
       transform="matrix(1,0,0,-1,1287,596.3)"
       style="font-variant:normal;font-weight:300;font-stretch:normal;font-size:20px;font-family:'Rubik Light';-inkscape-font-specification:Rubik-Light;writing-mode:lr-tb;fill:#000000;fill-opacity:1;fill-rule:nonzero;stroke:none"
       id="text92"><tspan
         x="0 13.68 24.84 30 47.560001 58.279999 62.939999 74.099998 80.580002 85.739998 96.459999 108.08 114.798 125.718 136.638 154.198 165.118 176.758 183.938 193.778 198.478 213.938 224.858 231.578 242.498 247.658 258.37799 269.53799 281.33801 292.05801 296.55801 308.258 319.858 330.77802 342.37799 347.53799 358.75601 368.85599 373.57599 380.75601 392.57599 403.496 408.65601 421.67599 432.836 450.396 462.01599 472.73599 484.23401 494.33401"
         y="0"
         id="tspan88">No major agreements were concluded by the Company </tspan><tspan
         x="0 11.6 23.299999 30.26 34.720001 46.52 58.139999 62.860001 70.040001 81.860001 92.779999 97.940002 104.658 115.578 127.198 138.358 145.31799 152.498 156.95799 168.758 180.37801 185.53799 197.158 208.078 215.03799 219.498 230.658 242.258"
         y="26"
         id="tspan90">during the reporting period.</tspan></text><text
       transform="matrix(1,0,0,-1,99,485.06)"
       style="font-variant:normal;font-weight:500;font-stretch:normal;font-size:20px;font-family:'Rubik Medium';-inkscape-font-specification:Rubik-Medium;writing-mode:lr-tb;fill:#000000;fill-opacity:1;fill-rule:nonzero;stroke:none"
       id="text96"><tspan
         x="0 13.9 26.4 37.959999 42.52 47.82 60.200001 68.82 80.379997 88.620003 100.18 110.8 119.42 130.98 143.25999 152.86 165.14 176.58 184.96001 193.58 204.558 209.118 220.558 232.87801 241.118 252.67799 264.23801 282.298 293.858 306.23801 314.858 318.978 335.05801 346.49799 357.15799 361.71799 373.15799 385.01801 397.51801 408.95801 414.27802 426.71799 438.99799 450.55801 462.83801 467.39801 472.698 485.198 489.758 502.15799 515.33801 527.73798 540.91803"
         y="0"
         id="tspan94">One interested-party agreement was concluded in 2020:</tspan></text><g
       id="g98"
       transform="translate(99,400.83)"><path
         d="M 0,0 H 217"
         style="fill:none;stroke:#e6e7e8;stroke-width:1;stroke-linecap:butt;stroke-linejoin:miter;stroke-miterlimit:10;stroke-dasharray:none;stroke-opacity:1"
         id="path100" /></g><g
       id="g102"
       transform="translate(316,400.83)"><path
         d="M 0,0 H 632"
         style="fill:none;stroke:#e6e7e8;stroke-width:1;stroke-linecap:butt;stroke-linejoin:miter;stroke-miterlimit:10;stroke-dasharray:none;stroke-opacity:1"
         id="path104" /></g><g
       id="g106"
       transform="translate(948,400.83)"><path
         d="M 0,0 H 510.75"
         style="fill:none;stroke:#e6e7e8;stroke-width:1;stroke-linecap:butt;stroke-linejoin:miter;stroke-miterlimit:10;stroke-dasharray:none;stroke-opacity:1"
         id="path108" /></g><g
       id="g110"
       transform="translate(1458.75,400.83)"><path
         d="M 0,0 H 363"
         style="fill:none;stroke:#e6e7e8;stroke-width:1;stroke-linecap:butt;stroke-linejoin:miter;stroke-miterlimit:10;stroke-dasharray:none;stroke-opacity:1"
         id="path112" /></g><text
       transform="matrix(1,0,0,-1,99,416.83)"
       style="font-variant:normal;font-weight:500;font-stretch:normal;font-size:18px;font-family:'Rubik Medium';-inkscape-font-specification:Rubik-Medium;writing-mode:lr-tb;fill:#000000;fill-opacity:1;fill-rule:nonzero;stroke:none"
       id="text116"><tspan
         x="0 9.8100004 20.16 31.212 41.616001 45.720001 56.285999 63.377998 67.482002 77.778 88.865997 96.281998 106.686 117.09 133.34399 143.748 154.8882 217.008 227.88 237.90601 247.78799 251.532 259.29001 269.694 277.23599 293.48999 849.00598 854.40601 865.54797 873.30603 883.71002 891.12598 901.53003 911.08801 918.84601 929.25 940.302 944.40601 955.45801 965.75403 973.29602 981.05402 985.82397 996.22803"
         y="0"
         id="tspan114">Type of agreementKey termsInterested parties</tspan></text><text
       transform="matrix(1,0,0,-1,1104.8142,422.8239)"
       style="font-variant:normal;font-weight:500;font-stretch:normal;font-size:10.494px;font-family:'Rubik Medium';-inkscape-font-specification:Rubik-Medium;writing-mode:lr-tb;fill:#000000;fill-opacity:1;fill-rule:nonzero;stroke:none"
       id="text120"><tspan
         x="0"
         y="0"
         id="tspan118">1</tspan></text><text
       transform="matrix(1,0,0,-1,1458.75,442.83)"
       style="font-variant:normal;font-weight:500;font-stretch:normal;font-size:18px;font-family:'Rubik Medium';-inkscape-font-specification:Rubik-Medium;writing-mode:lr-tb;fill:#000000;fill-opacity:1;fill-rule:nonzero;stroke:none"
       id="text126"><tspan
         x="0 12.618 22.950001 32.958 43.362 50.903999 62.153999 72.449997 83.699997 93.996002 104.4 108.504 119.556 130.23 141.282 151.1622 155.2662 165.56219 176.6142 187.6662 195.0822 205.4142 215.76421 220.53419 231.78419 242.87219"
         y="0"
         id="tspan122">Governance body approving </tspan><tspan
         x="0 7.7579999 19.098 29.502001 33.605999 43.902 54.990002 62.405998 72.809998 83.213997 99.468002 109.872 121.0122"
         y="25.992001"
         id="tspan124">the agreement</tspan></text><text
       transform="matrix(1,0,0,-1,98.994,368.004)"
       style="font-variant:normal;font-weight:300;font-stretch:normal;font-size:18px;font-family:'Rubik Light';-inkscape-font-specification:Rubik-Light;writing-mode:lr-tb;fill:#000000;fill-opacity:1;fill-rule:nonzero;stroke:none"
       id="text132"><tspan
         x="0 9.6300001 19.674 29.322001 39.942001"
         y="0"
         id="tspan128">Loan </tspan><tspan
         x="0 9.6479998 20.106001 26.153999 35.981998 45.810001 61.613998 71.442001 81.917999"
         y="25.992001"
         id="tspan130">agreement</tspan></text><text
       transform="matrix(1,0,0,-1,316.002,368.004)"
       style="font-variant:normal;font-weight:500;font-stretch:normal;font-size:18px;font-family:'Rubik Medium';-inkscape-font-specification:Rubik-Medium;writing-mode:lr-tb;fill:#000000;fill-opacity:1;fill-rule:nonzero;stroke:none"
       id="text136"><tspan
         x="0 11.682 21.978001 29.52 37.278 42.048 52.452 62.046001 66.150002 72.666 83.718002 94.122002 105.372 115.6842 123.1542 127.9242 138.2202 142.9902 153.28619 160.8282 165.59821 176.0022 184.9122 191.42821"
         y="0"
         id="tspan134">Parties (beneficiaries):</tspan></text><text
       transform="matrix(1,0,0,-1,517.0242,368.004)"
       style="font-variant:normal;font-weight:300;font-stretch:normal;font-size:18px;font-family:'Rubik Light';-inkscape-font-specification:Rubik-Light;writing-mode:lr-tb;fill:#000000;fill-opacity:1;fill-rule:nonzero;stroke:none"
       id="text142"><tspan
         x="0 9.9720001 16.02 25.848 29.862 40.32 50.812199 57.2742 61.918201 73.834198 84.454201 94.282204 98.926201 109.5642 121.0482 132.9642 137.6082 142.9362 149.39819 160.03619 169.8642 174.50819 184.1382 193.9662 204.5862 215.0262 224.8542 230.4144 236.1564 240.42239 245.06641 255.4884 266.97241 278.4924 288.6264 293.27039 303.1344 312.80042 324.5184 329.16241 334.48859 340.95059 351.58859 361.4166"
         y="0"
         id="tspan138">Freight One PAO (the Lender), ZVRK LLC (the </tspan><tspan
         x="-201.0222 -189.2682 -179.2242 -172.96021 -166.9122 -157.1022 -143.1882 -133.3602 -127.7982 -122.0562"
         y="25.992001"
         id="tspan140">Borrower).</tspan></text><text
       transform="matrix(1,0,0,-1,316.002,316.02)"
       style="font-variant:normal;font-weight:500;font-stretch:normal;font-size:18px;font-family:'Rubik Medium';-inkscape-font-specification:Rubik-Medium;writing-mode:lr-tb;fill:#000000;fill-opacity:1;fill-rule:nonzero;stroke:none"
       id="text146"><tspan
         x="0 11.574 22.77 33.821999 38.862 49.265999 59.562 67.32 71.424004 81.988197 89.0802 92.825996 100.584 111.924 122.328 126.432 136.728 147.81599 155.23019 165.6342 176.03819 192.29221 202.6962 213.8382 221.59621 226.5462"
         y="0"
         id="tspan144">Subject of the agreement: </tspan></text><text
       transform="matrix(1,0,0,-1,546.6522,316.02)"
       style="font-variant:normal;font-weight:300;font-stretch:normal;font-size:18px;font-family:'Rubik Light';-inkscape-font-specification:Rubik-Light;writing-mode:lr-tb;fill:#000000;fill-opacity:1;fill-rule:nonzero;stroke:none"
       id="text154"><tspan
         x="0 9.6300001 20.268 30.096001 34.740002 44.369999 54.198002 64.818001 75.258003 85.085999 90.916199 95.560204 104.4162 115.0542 124.7022 128.7522 132.8022 137.4462 147.90421 153.95219 163.6722 173.32021 177.3342 187.7742 197.6022 201.8484 208.31039 218.3544 222.6024 229.06441 239.70239 249.5304 254.17439 265.92841 275.97241 282.23639 288.28439 298.09439 312.00839 321.8364 327.6684 332.31241 341.96039"
         y="0"
         id="tspan148">The Lender shall provide to the Borrower a </tspan><tspan
         x="-230.65021 -226.6002 -216.5562 -206.9082 -196.28819 -188.0262 -183.9762 -173.93221 -164.28419 -153.6642 -144.8082 -140.54221 -135.89819 -126.2502 -115.6302 -105.1902 -100.944 -94.482002 -83.844002 -74.015999 -69.372002 -57.618 -47.574001 -41.310001 -35.262001 -25.452 -11.538 -1.71 4.1220002 8.7659998 17.622 28.26 37.908001 41.958 46.007999 50.652 56.700001 66.528 76.986 86.4702 95.561996 99.809998 106.272 116.91 126.738 131.382 135.43201 145.476 155.12399 165.744 174.006 178.056 188.10001 197.748 208.368 217.224 221.868 225.882 236.502 240.7482 247.21021 257.84821 267.67621 272.32019 288.12421 297.77219 308.39221 319.01221 328.84021 334.67221 339.31619 348.9642 359.5842 370.0242"
         y="25.992001"
         id="tspan150">loan/loans, and the Borrower shall repay the loan/loans in the manner and </tspan><tspan
         x="-230.65021 -220.6062 -209.98621 -205.7382 -199.2762 -188.6382 -178.8102 -174.56219 -168.1002 -158.2722 -152.00819 -136.20419 -127.3482 -122.706 -112.878 -104.022 -97.559998 -87.912003 -77.472 -73.421997 -69.407997 -60.551998 -49.914001 -40.085999 -29.646 -25.003799 -14.9058 -5.8158002 -1.5678 4.8941998 15.5322 19.5462 28.402201 33.0462 42.694199 52.738201 63.214199 69.676201 75.796204 85.444199 95.092201 101.5542"
         y="51.984001"
         id="tspan152">on the terms established by this contract.</tspan></text><text
       transform="matrix(1,0,0,-1,316.002,238.044)"
       style="font-variant:normal;font-weight:500;font-stretch:normal;font-size:18px;font-family:'Rubik Medium';-inkscape-font-specification:Rubik-Medium;writing-mode:lr-tb;fill:#000000;fill-opacity:1;fill-rule:nonzero;stroke:none"
       id="text158"><tspan
         x="0 5.4000001 16.542 24.299999 34.703999 42.119999 52.523998 62.082001 69.839996 73.944 81.342003 91.547997 99.306 109.71"
         y="0"
         id="tspan156">Interest rate:</tspan></text><text
       transform="matrix(1,0,0,-1,435.306,238.044)"
       style="font-variant:normal;font-weight:300;font-stretch:normal;font-size:18px;font-family:'Rubik Light';-inkscape-font-specification:Rubik-Light;writing-mode:lr-tb;fill:#000000;fill-opacity:1;fill-rule:nonzero;stroke:none"
       id="text162"><tspan
         x="0 11.088 24.426001 28.584 40.284 51.588001 63.108002"
         y="0"
         id="tspan160">0% APR.</tspan></text><text
       transform="matrix(1,0,0,-1,316.002,212.052)"
       style="font-variant:normal;font-weight:500;font-stretch:normal;font-size:18px;font-family:'Rubik Medium';-inkscape-font-specification:Rubik-Medium;writing-mode:lr-tb;fill:#000000;fill-opacity:1;fill-rule:nonzero;stroke:none"
       id="text166"><tspan
         x="0 9.2519999 19.854 27.612 37.908001 42.695999 46.799999 51.588001 62.262001 72.557999 83.807999 87.912003 98.208 114.462 125.136 136.332 147.4722 155.23019"
         y="0"
         id="tspan164">Total loan amount:</tspan></text><text
       transform="matrix(1,0,0,-1,480.8262,212.052)"
       style="font-variant:normal;font-weight:300;font-stretch:normal;font-size:18px;font-family:'Rubik Light';-inkscape-font-specification:Rubik-Light;writing-mode:lr-tb;fill:#000000;fill-opacity:1;fill-rule:nonzero;stroke:none"
       id="text170"><tspan
         x="0 10.62 20.664 25.308001 41.112 51.155998 57.203999 67.031998 71.279999 77.741997 88.379997 98.028 108.648 113.292 124.812 137.25 149.004 153.64799 164.358 174.438 184.806 189.45 205.254 209.26801 213.31799 217.368 221.382 231.42599 242.04601"
         y="0"
         id="tspan168">no more than RUB 423 million.</tspan></text><text
       transform="matrix(1,0,0,-1,316.002,186.06)"
       style="font-variant:normal;font-weight:500;font-stretch:normal;font-size:18px;font-family:'Rubik Medium';-inkscape-font-specification:Rubik-Medium;writing-mode:lr-tb;fill:#000000;fill-opacity:1;fill-rule:nonzero;stroke:none"
       id="text174"><tspan
         x="0 10.314 20.988001 31.284 42.534 46.638 62.891998 73.098 80.856003 92.052002 99.594002 104.364 112.122 122.004 126.108 137.16 147.366 155.12399 165.528"
         y="0"
         id="tspan172">Loan maturity date:</tspan></text><text
       transform="matrix(1,0,0,-1,491.124,186.06)"
       style="font-variant:normal;font-weight:300;font-stretch:normal;font-size:18px;font-family:'Rubik Light';-inkscape-font-specification:Rubik-Light;writing-mode:lr-tb;fill:#000000;fill-opacity:1;fill-rule:nonzero;stroke:none"
       id="text178"><tspan
         x="0 10.0062 17.1702 25.432199 32.596199 42.676201 50.758202 60.8382 71.926201 82.006203"
         y="0"
         id="tspan176">31/12/2029</tspan></text><text
       transform="matrix(1,0,0,-1,948,368.058)"
       style="font-variant:normal;font-weight:500;font-stretch:normal;font-size:18px;font-family:'Rubik Medium';-inkscape-font-specification:Rubik-Medium;writing-mode:lr-tb;fill:#000000;fill-opacity:1;fill-rule:nonzero;stroke:none"
       id="text182"><tspan
         x="0 14.616 25.02 41.273998 52.326 62.73 69.893997 73.998001 84.562202 91.654198 95.400002 103.158 114.498 124.902 129.006 141.37199 152.04601 162.342 169.7382 180.79021 184.8942 195.46021 202.5522 206.6562 219.3102 224.0802 231.4962 241.90021 252.1962 259.95419 270.6282 278.1702 287.76419 291.39841 303.5484 308.3364 318.63239 329.68439 334.45441 350.7084 355.47839 362.6424 366.7464 377.20441 381.9744 391.56839 396.33841"
         y="0"
         id="tspan180">Member of the Board of Directors Vladimir Lisin</tspan></text><text
       transform="matrix(1,0,0,-1,948,342.066)"
       style="font-variant:normal;font-weight:300;font-stretch:normal;font-size:18px;font-family:'Rubik Light';-inkscape-font-specification:Rubik-Light;writing-mode:lr-tb;fill:#000000;fill-opacity:1;fill-rule:nonzero;stroke:none"
       id="text186"><tspan
         x="0 4.5180001 13.374 18.018 28.638 38.574001 45.035999 49.68 59.327999 69.947998 74.592003 78.606003 89.082001 95.543999 105.372 111.4182 121.2462 130.1022 136.56419 146.3922 156.8322 161.4762 171.9342 181.5822 187.84621 194.3082 202.78619 207.0522 211.6962 221.7924 230.8824 235.04221 244.6902 248.70419 254.9682 261.43021 271.96021 281.78821 286.43219 296.34839 302.4144 307.05841 317.51639 327.1644 333.28439 342.9324 353.39041 359.51041 369.15839 379.61639 390.25439 394.89841 403.6644 414.4086 418.6926 429.06061 433.70459 443.62259 449.6886"
         y="0"
         id="tspan184">Is not an interested party, by virtue of paragraph 70.3 of </tspan></text><text
       transform="matrix(1,0,0,-1,948,316.074)"
       style="font-variant:normal;font-weight:300;font-stretch:normal;font-size:18px;font-family:'Rubik Light';-inkscape-font-specification:Rubik-Light;writing-mode:lr-tb;fill:#000000;fill-opacity:1;fill-rule:nonzero;stroke:none"
       id="text190"><tspan
         x="0 11.412 21.24 30.096001 40.139999 44.189999 54.720001 61.181999 65.195999 75.239998 85.860001 90.503998 101.214 111.51 122.22 130.8222 143.4222 148.06619 157.98421 164.0502 168.2982 174.76019 185.39819 195.2262 199.87019 211.62421 221.2722 231.8922 240.4422 245.0862 255.0042 261.07019 265.7142 277.23419 287.76419 296.62021 305.4762 309.4902 319.13821 323.40421 328.04819 338.48819 348.0444 354.50641 364.33441 374.77441 379.4184 389.78641 400.56839 408.83041 415.99438 426.0744 434.1564 444.23639 455.3244 462.4884 472.85461 477.12061"
         y="0"
         id="tspan188">Resolution 454-П of the Bank of Russia, dated 30/12/2014, </tspan></text><text
       transform="matrix(1,0,0,-1,948,290.082)"
       style="font-variant:normal;font-weight:300;font-stretch:normal;font-size:18px;font-family:'Rubik Light';-inkscape-font-specification:Rubik-Light;writing-mode:lr-tb;fill:#000000;fill-opacity:1;fill-rule:nonzero;stroke:none"
       id="text198"><tspan
         x="0 3.744 15.66 26.280001 30.528 36.990002 47.627998 57.456001 62.099998 72.540001 76.554001 85.410004 95.057999 99.108002 109.152 118.008 128.53799 134.5842 144.4122 149.0562 158.9742 165.04021 169.6842 173.6982 184.1562 190.4382 200.48219 206.7462 222.5502 232.1064 238.56841 242.5824 252.6264 263.2464 267.89041 277.9884 287.0784 291.72241 295.73639 304.59241 313.44839 323.97839 333.8064 340.0704 348.92639 353.5704 363.4884 369.55441 374.19839 384.0264 394.48441 405.0144 409.02841 415.49039 424.57861"
         y="0"
         id="tspan192">‘On the disclosure of information by issuers of equity </tspan><tspan
         x="0 8.8559999 18.684 28.332001 38.862 45.125999 49.139999 55.602001 59.616001 69.444 77.758202 81.088203 85.426201 89.674202 96.1362 106.7742 116.6022 120.7602 130.06619 139.7142 143.76421 154.2942 164.12219 168.7662 178.6842 184.7502 188.9982 195.46021 206.09821 215.92619 220.57021 230.2182 240.67619 246.7224 256.55042 266.37839 282.1824 292.01041 302.48639 308.94839 313.59241 323.24039 339.0444 349.08841 359.61841 370.09259 376.5546 385.41061 389.6586 396.12061 406.16461 410.80859 421.5546 425.49661 436.2066 449.54459 454.1886 464.1066 470.17261"
         y="25.992001"
         id="tspan194">securities’: the value of the agreement amounts to 0.4% of </tspan><tspan
         x="0 6.4619999 17.1 26.927999 31.572001 42.012001 51.66 55.709999 65.358002 75.977997 85.625999 95.454002 104.22 113.076 123.714 133.54201 143.2962 149.75819 154.0062 160.4682 170.40421 176.8662 186.51421"
         y="51.984001"
         id="tspan196">the balance-sheet total</tspan></text><text
       transform="matrix(1,0,0,-1,948,212.328)"
       style="font-variant:normal;font-weight:300;font-stretch:normal;font-size:9.328px;font-family:'Rubik Light';-inkscape-font-specification:Rubik-Light;writing-mode:lr-tb;fill:#000000;fill-opacity:1;fill-rule:nonzero;stroke:none"
       id="text202"><tspan
         x="0"
         y="0"
         id="tspan200">1</tspan></text><text
       transform="matrix(1,0,0,-1,951.7125,207)"
       style="font-variant:normal;font-weight:300;font-stretch:normal;font-size:16px;font-family:'Rubik Light';-inkscape-font-specification:Rubik-Light;writing-mode:lr-tb;fill:#000000;fill-opacity:1;fill-rule:nonzero;stroke:none"
       id="text206"><tspan
         x="0 10.144 18.879999 27.455999 36.383999 45.68 55.119999 58.688 66.416 75.152 84.431999 88.559998 97.136002 105.008 109.136 117.6304 123.3744 127.1504 132.89439 142.3504 151.0864 155.2144 164.4944 172.9904 178.73441 187.4704 191.5984 200.4144 205.8064 209.5824 215.3264 224.78239 233.5184 237.64639 246.2224 255.5184 260.89279 269.62881 278.36481 292.41281 301.1488 310.46078"
         y="0"
         id="tspan204">Recognized as at the date of the agreement</tspan></text><text
       transform="matrix(1,0,0,-1,1458.75,368)"
       style="font-variant:normal;font-weight:500;font-stretch:normal;font-size:18px;font-family:'Rubik Medium';-inkscape-font-specification:Rubik-Medium;writing-mode:lr-tb;fill:#000000;fill-opacity:1;fill-rule:nonzero;stroke:none"
       id="text210"><tspan
         x="0 12.366 23.040001 33.335999 40.734001 51.785999 55.889999 66.456001 73.547997 77.652 90.306 95.075996 102.4902 112.8942 123.1902 130.9482 141.62219 149.1642 158.75819"
         y="0"
         id="tspan208">Board of Directors </tspan></text><text
       transform="matrix(1,0,0,-1,1458.75,342.008)"
       style="font-variant:normal;font-weight:300;font-stretch:normal;font-size:18px;font-family:'Rubik Light';-inkscape-font-specification:Rubik-Light;writing-mode:lr-tb;fill:#000000;fill-opacity:1;fill-rule:nonzero;stroke:none"
       id="text214"><tspan
         x="0 5.5440001 19.584 23.598 34.217999 44.748001 51.209999 61.037998 69.893997 74.538002 86.849998 96.676201 100.9602 105.6042 112.7682 123.8562 134.3322 138.9762 149.4162 158.9742 165.4362 175.26421 185.70419 190.34821 200.42821 211.21021 219.4722 226.6362 233.8002 241.8804 251.9604 263.0484 273.12839 283.67639"
         y="0"
         id="tspan212">(Minutes No. 106 dated 20/11/2020)</tspan></text><text
       transform="matrix(1,0,0,-1,99,100)"
       style="font-variant:normal;font-weight:300;font-stretch:normal;font-size:20px;font-family:'Rubik Light';-inkscape-font-specification:Rubik-Light;writing-mode:lr-tb;fill:#000000;fill-opacity:1;fill-rule:nonzero;stroke:none"
       id="text220"><tspan
         x="0 12.68 23.6 35.220001 46.380001 53.34 60.52 65.68 76.839996 88.639999 93.800003 98.260002 109.9 117.08 128 134.718 145.638 155.478 162.658 173.578 185.17799 194.918 206.53799 217.258 224.218 231.39799 241.498 246.658 257.37799 268.99799 275.716 286.63599 297.556 315.116 326.03601 337.67599 344.85599 354.69601 359.85599 370.776 382.41599 389.59601 400.51599 407.23599 418.15601 429.75601 434.91599 439.37601 451.01401 458.194 469.354 474.51401 485.73401 495.83401 500.99399 512.07397 518.79401 529.71399 534.17401 545.79401 557.45398 564.63397 569.79401 583.034 594.83398 605.75403 610.914 615.37402 627.17401 632.33398 643.534 655.854 667.05402 678.992 683.73199 688.89203 699.612 711.23199 722.85199 729.57202 740.37201 750.73199 761.65198 773.25201 778.41199 789.63 799.73199 804.45203 811.63202 823.45203 834.37201 839.53198 852.59198 863.75201 874.47198 881.16998 892.77002 897.92999 908.95001 915.69 920.84998 934.39001 938.84998 945.57001 956.48999 967.21002 974.39001 985.54999 992.51001 1002.35 1007.51 1018.67 1030.47 1035.63 1046.83 1058.27 1063.4301 1079.03 1089.75 1096.47 1107.1899 1119.01 1124.17 1135.37 1147.6899 1158.89 1166.85 1172.01 1178.17 1193.77 1198.23 1210.03 1221.73 1228.91 1239.83 1249.67 1254.83 1268.51 1279.4301 1284.1899 1289.35 1297.3101 1305.27 1316.99"
         y="0"
         id="tspan216">Report on interested-party agreements entered into by Freight One in 2020, approved by the Board of Directors on 29 March 2021 (Minutes No. 110)</tspan><tspan
         x="-61.400002 -49.959999 0 13 24.620001 36.240002 47.16 58.959999 70.559998 75.019997 85.739998 96.660004"
         y="-923"
         id="tspan218">98Appendices</tspan></text></g></svg>
