<?xml version="1.0" encoding="utf-8"?>
<!-- Generator: Adobe Illustrator 14.0.0, SVG Export Plug-In  -->
<!DOCTYPE svg PUBLIC "-//W3C//DTD SVG 1.1//EN" "http://www.w3.org/Graphics/SVG/1.1/DTD/svg11.dtd" [
	<!ENTITY ns_flows "http://ns.adobe.com/Flows/1.0/">
]>
<svg version="1.1"
	 xmlns="http://www.w3.org/2000/svg" xmlns:xlink="http://www.w3.org/1999/xlink" xmlns:a="http://ns.adobe.com/AdobeSVGViewerExtensions/3.0/"
	 x="0px" y="0px" width="26px" height="26px" viewBox="0 0 26 26" enable-background="new 0 0 26 26" xml:space="preserve">
<defs>
</defs>
<path fill="#9C9E9F" d="M25.512,1.096v23.321c0,0.604-0.572,1.096-1.273,1.096H1.277C0.574,25.512,0,25.02,0,24.417V1.096
	C0,0.492,0.574,0,1.277,0h22.961C24.939,0,25.512,0.492,25.512,1.096"/>
<path fill="#9C9E9F" d="M12.756,22.323c5.27,0,9.566-4.297,9.566-9.567c0-5.271-4.297-9.567-9.566-9.567
	c-5.268,0-9.564,4.297-9.564,9.567C3.191,18.026,7.488,22.323,12.756,22.323"/>
<path fill="none" stroke="#FFFFFF" stroke-miterlimit="22.926" d="M12.756,22.241c5.223,0,9.484-4.262,9.484-9.485
	c0-5.224-4.262-9.484-9.484-9.484s-9.482,4.261-9.482,9.484C3.273,17.979,7.533,22.241,12.756,22.241z"/>
<path fill="#FFFFFF" d="M16.762,4.89c-0.232,1.494,0.203,3.75-1.992,4.619L5.615,13.24c0.051-2.628,1.744-4.813,4.211-6.006
	C12.266,6.055,14.49,6.225,16.762,4.89"/>
<path fill="#FFFFFF" d="M5.676,14.262c4.355-1.776,9.141-3.31,13.189-5.579c0.047,1.521,0.889,3.912-2.154,5.663l-9.063,3.727
	C6.594,17.03,5.885,15.715,5.676,14.262"/>
<path fill="#FFFFFF" d="M8.553,18.842l10.912-4.447l0.859-0.422c-0.846,3.262-2.217,5.471-6.578,6.15
	C11.793,20.428,9.961,19.749,8.553,18.842"/>
</svg>
