<svg id="Слой_1" data-name="Слой 1" xmlns="http://www.w3.org/2000/svg" xmlns:xlink="http://www.w3.org/1999/xlink" viewBox="0 0 25.51 25.51"><defs><style>.cls-1{fill:none;}.cls-2{clip-path:url(#clip-path);}.cls-3{fill:#9c9e9f;}.cls-4{fill:#fff;}</style><clipPath id="clip-path"><rect class="cls-1" width="25.51" height="25.51"/></clipPath></defs><title>Artboard 14 copy 2</title><g class="cls-2"><path class="cls-3" d="M1.1,0H24.42a1.2,1.2,0,0,1,1.1,1.28v23a1.2,1.2,0,0,1-1.1,1.27H1.1A1.2,1.2,0,0,1,0,24.24v-23A1.2,1.2,0,0,1,1.1,0"/></g><path class="cls-4" d="M6.14,10.39v6.74H5.35V10.39Z"/><path class="cls-4" d="M7.5,10.47A8.16,8.16,0,0,1,9,10.34a2.33,2.33,0,0,1,1.7.56,1.91,1.91,0,0,1,.53,1.41,2.11,2.11,0,0,1-.47,1.44,2.38,2.38,0,0,1-1.85.74,2.44,2.44,0,0,1-.63-.06v2.7H7.5Zm.78,3.25a2.38,2.38,0,0,0,.65.07,1.35,1.35,0,0,0,1.52-1.44A1.25,1.25,0,0,0,9,11a3,3,0,0,0-.74.07Z"/><path class="cls-4" d="M12,17.13v-.54l.62-.67c1.49-1.58,2.17-2.42,2.18-3.4,0-.66-.29-1.27-1.16-1.27a1.9,1.9,0,0,0-1.24.55l-.25-.62a2.42,2.42,0,0,1,1.66-.66,1.74,1.74,0,0,1,1.79,1.89c0,1.2-.78,2.17-2,3.49l-.47.48v0h2.63v.73Z"/><path class="cls-4" d="M20.52,13.81c0,2.21-.74,3.43-2,3.43-1.14,0-1.92-1.19-1.94-3.34s.85-3.38,2-3.38S20.52,11.74,20.52,13.81Zm-3.18.1c0,1.69.47,2.65,1.19,2.65s1.2-1,1.2-2.71-.37-2.65-1.19-2.65S17.34,12.14,17.34,13.91Z"/></svg>