<?xml version="1.0" encoding="utf-8"?>
<!-- Generator: Adobe Illustrator 14.0.0, SVG Export Plug-In  -->
<!DOCTYPE svg PUBLIC "-//W3C//DTD SVG 1.1//EN" "http://www.w3.org/Graphics/SVG/1.1/DTD/svg11.dtd" [
	<!ENTITY ns_flows "http://ns.adobe.com/Flows/1.0/">
]>
<svg version="1.1"
	 xmlns="http://www.w3.org/2000/svg" xmlns:xlink="http://www.w3.org/1999/xlink" xmlns:a="http://ns.adobe.com/AdobeSVGViewerExtensions/3.0/"
	 x="0px" y="0px" width="26px" height="26px" viewBox="0.001 0 26 26" enable-background="new 0.001 0 26 26" xml:space="preserve">
<defs>
</defs>
<path fill="#9C9E9F" d="M1.098,0h23.318c0.604,0,1.098,0.573,1.098,1.276v22.96c0,0.701-0.494,1.275-1.098,1.275H1.098
	C0.494,25.512,0,24.938,0,24.237V1.276C0,0.573,0.494,0,1.098,0"/>
<path fill="#FFFFFF" d="M20.121,10.627h-2.797l-0.379,3.119c0.217-0.03,0.479-0.061,0.82-0.061c1.16,0,1.674,0.59,1.674,1.43
	c0.008,0.871-0.639,1.41-1.377,1.41c-0.541,0-1.018-0.199-1.26-0.359l-0.199,0.67c0.289,0.199,0.82,0.398,1.459,0.398
	c1.268,0,2.176-0.947,2.176-2.219c0-0.811-0.377-1.38-0.836-1.661c-0.359-0.249-0.801-0.349-1.26-0.349
	c-0.215,0-0.342,0.01-0.477,0.03l0.225-1.672h2.23V10.627z M13.994,16.557c-0.838,0-1.289-0.801-1.297-1.871
	c0-0.16,0.035-0.281,0.08-0.381c0.217-0.479,0.668-0.799,1.145-0.799c0.729,0,1.207,0.559,1.207,1.491
	C15.129,15.926,14.67,16.557,13.994,16.557 M15.354,10.526c-0.145,0-0.342,0.011-0.576,0.051c-0.738,0.1-1.387,0.429-1.873,0.959
	c-0.584,0.64-0.988,1.649-0.988,2.929c0,1.691,0.816,2.77,2.061,2.77c1.223,0,1.951-1.098,1.951-2.299
	c0-1.26-0.729-2.099-1.762-2.099c-0.648,0-1.145,0.339-1.424,0.759h-0.018c0.135-1.079,0.783-2.08,2.035-2.3
	c0.225-0.04,0.432-0.061,0.594-0.05V10.526z M8.287,11.096c0.135-0.04,0.396-0.07,0.738-0.07c0.855,0,1.434,0.431,1.434,1.33
	c0,0.911-0.578,1.432-1.523,1.432c-0.26,0-0.477-0.021-0.648-0.07V11.096z M7.506,17.125h0.781v-2.699
	c0.182,0.049,0.396,0.059,0.631,0.059c0.766,0,1.432-0.25,1.854-0.738c0.307-0.351,0.467-0.83,0.467-1.441
	c0-0.6-0.205-1.09-0.529-1.41c-0.359-0.358-0.928-0.559-1.701-0.559c-0.631,0-1.125,0.06-1.502,0.13V17.125z M5.346,17.125h0.791
	v-6.739H5.346V17.125z"/>
</svg>
