<svg id="Слой_1" data-name="Слой 1" xmlns="http://www.w3.org/2000/svg" xmlns:xlink="http://www.w3.org/1999/xlink" viewBox="0 0 25.51 25.51"><defs><style>.cls-1{fill:none;}.cls-2{clip-path:url(#clip-path);}.cls-3{fill:#9c9e9f;}.cls-4{fill:#fff;}</style><clipPath id="clip-path"><rect class="cls-1" width="25.51" height="25.51"/></clipPath></defs><title>Artboard 16</title><g class="cls-2"><path class="cls-3" d="M25.51,1.1V24.42a1.2,1.2,0,0,1-1.28,1.1h-23A1.2,1.2,0,0,1,0,24.42V1.1A1.2,1.2,0,0,1,1.28,0h23a1.2,1.2,0,0,1,1.28,1.1"/></g><path class="cls-4" d="M12.63,14.19c0-.94-.1-2.07-.09-2.91h0c-.21.79-.46,1.63-.76,2.56L10.67,17.1h-.59l-1-3.21c-.29-.95-.53-1.82-.7-2.62h0c0,.84-.06,2-.12,3L8.1,17.14H7.35l.42-6.74h1l1,3.26c.25.83.46,1.57.61,2.27h0c.15-.68.37-1.42.64-2.27l1.08-3.26h1l.38,6.74h-.76Z"/><path class="cls-4" d="M14.4,15.49a1.85,1.85,0,0,1,1.16-1.74v0a1.62,1.62,0,0,1-.93-1.46,1.71,1.71,0,0,1,1.81-1.73,1.58,1.58,0,0,1,1.7,1.6,1.66,1.66,0,0,1-1,1.52v0a1.78,1.78,0,0,1,1.18,1.68,1.88,1.88,0,0,1-2,1.89A1.8,1.8,0,0,1,14.4,15.49Zm3.15,0c0-.79-.5-1.17-1.29-1.42a1.38,1.38,0,0,0-1.05,1.34,1.14,1.14,0,0,0,1.17,1.24A1.11,1.11,0,0,0,17.55,15.45Zm-2.18-3.25c0,.65.44,1,1.12,1.2a1.25,1.25,0,0,0,.89-1.18,1,1,0,0,0-1-1.06A1,1,0,0,0,15.37,12.21Z"/></svg>