<svg id="Слой_1" data-name="Слой 1" xmlns="http://www.w3.org/2000/svg" xmlns:xlink="http://www.w3.org/1999/xlink" viewBox="0 0 25.51 25.51"><defs><style>.cls-1,.cls-5{fill:none;}.cls-2{clip-path:url(#clip-path);}.cls-3{fill:#9c9e9f;}.cls-4{fill:#fff;}.cls-5{stroke:#fff;stroke-miterlimit:22.93;stroke-width:0.5px;}</style><clipPath id="clip-path"><rect class="cls-1" width="25.51" height="25.51"/></clipPath></defs><title>Artboard 11 copy</title><g class="cls-2"><path class="cls-3" d="M25.51,1.1V24.42a1.2,1.2,0,0,1-1.28,1.1h-23A1.2,1.2,0,0,1,0,24.42V1.1A1.2,1.2,0,0,1,1.27,0h23A1.2,1.2,0,0,1,25.51,1.1"/><path class="cls-4" d="M3.48,2.55H22c.51,0,.93.23.93.51v9.69H2.55V3.06c0-.28.42-.51.93-.51"/><path class="cls-5" d="M3.52,2.59H22c.51,0,.93.23.93.51v9.62H2.59V3.1C2.59,2.82,3,2.59,3.52,2.59Z"/><path class="cls-3" d="M2.55,12.76H23v9.69c0,.28-.42.51-.93.51H3.48c-.51,0-.93-.23-.93-.51Z"/><path class="cls-5" d="M2.59,12.8H22.92v9.61c0,.28-.42.51-.93.51H3.52c-.51,0-.93-.23-.93-.51Z"/></g><path class="cls-4" d="M9.55,20.13l0-.43h0a1.1,1.1,0,0,1-.93.5.92.92,0,0,1-.93-1c0-.82.66-1.27,1.83-1.26V17.9c0-.28-.07-.78-.69-.78a1.41,1.41,0,0,0-.79.25L7.84,17a1.75,1.75,0,0,1,1-.3c.93,0,1.16.71,1.16,1.39v1.27a5.26,5.26,0,0,0,.05.81ZM9.47,18.4c-.61,0-1.29.1-1.29.76a.52.52,0,0,0,.52.59.77.77,0,0,0,.74-.57.72.72,0,0,0,0-.2Z"/><path class="cls-4" d="M13.22,16.74v3.39h-.55V17.22h-1v.88c0,1-.08,1.59-.48,1.88a.83.83,0,0,1-.61.21l-.06-.48a.66.66,0,0,0,.3-.14c.28-.23.32-.71.32-1.46V16.74Z"/><path class="cls-4" d="M14.66,16.74v1.43h.52c.09-.9.62-1.51,1.35-1.51s1.34.7,1.34,1.74-.6,1.8-1.37,1.8-1.27-.6-1.33-1.57h-.51v1.49h-.54V16.74Zm2.66,1.68c0-.64-.26-1.3-.8-1.3s-.82.64-.82,1.33.27,1.3.81,1.3S17.32,19.06,17.32,18.42Z"/><path class="cls-3" d="M10,6.34V9.72H9.44V6.83H8v2.9H7.47V6.34Z"/><path class="cls-3" d="M10.92,6.34h.68L12.16,8c.08.25.21.67.28.93h0c.07-.25.24-.79.36-1.16l.49-1.48H14l.21,3.39h-.53L13.6,8.11c0-.36,0-.8-.06-1.21h0c-.08.31-.16.58-.33,1.1L12.6,9.7h-.4L11.66,8c-.09-.32-.23-.81-.3-1.13h0c0,.4,0,.85-.05,1.22l-.08,1.6h-.51Z"/><path class="cls-3" d="M14.95,6.34h.68L16.18,8c.08.25.21.67.28.93h0c.07-.25.24-.79.36-1.16l.49-1.48H18l.21,3.39H17.7l-.07-1.62c0-.36,0-.8-.06-1.21h0c-.08.31-.16.58-.33,1.1L16.63,9.7h-.4L15.68,8c-.09-.32-.23-.81-.3-1.13h0c0,.4,0,.85-.05,1.22l-.08,1.6h-.51Z"/></svg>