<svg id="Слой_1" data-name="Слой 1" xmlns="http://www.w3.org/2000/svg" xmlns:xlink="http://www.w3.org/1999/xlink" viewBox="0 0 25.51 25.51"><defs><style>.cls-1,.cls-4{fill:none;}.cls-2{clip-path:url(#clip-path);}.cls-3{fill:#9c9e9f;}.cls-4{stroke:#fff;stroke-miterlimit:22.93;stroke-width:0.5px;}.cls-5{fill:#fff;}</style><clipPath id="clip-path"><rect class="cls-1" width="25.51" height="25.51"/></clipPath></defs><title>Artboard 13 copy</title><g class="cls-2"><path class="cls-3" d="M1.1,0H24.42a1.2,1.2,0,0,1,1.09,1.28v23a1.2,1.2,0,0,1-1.09,1.28H1.1A1.2,1.2,0,0,1,0,24.24v-23A1.2,1.2,0,0,1,1.1,0"/><path class="cls-4" d="M4.15,11.36l7.21-7.21a2.06,2.06,0,0,1,2.9.1l7,7a2.07,2.07,0,0,1,.1,2.9l-7.21,7.21a2.06,2.06,0,0,1-2.9-.1l-7-7A2.06,2.06,0,0,1,4.15,11.36Z"/></g><path class="cls-5" d="M9.68,14.31a1.88,1.88,0,0,0,1,.31.92.92,0,0,0,1-1,1,1,0,0,0-1.16-1h-.34v-.5h.34a.91.91,0,0,0,1-.84.71.71,0,0,0-.79-.75,1.55,1.55,0,0,0-.89.33l-.16-.49A2,2,0,0,1,10.85,10a1.16,1.16,0,0,1,1.28,1.19,1.22,1.22,0,0,1-.83,1.17v0a1.26,1.26,0,0,1,1,1.28,1.48,1.48,0,0,1-1.63,1.49,2.1,2.1,0,0,1-1.16-.34Z"/><path class="cls-5" d="M16,12.54c0,1.69-.56,2.63-1.55,2.63S13,14.25,13,12.61,13.65,10,14.56,10,16,11,16,12.54Zm-2.43.08c0,1.29.36,2,.91,2s.92-.8.92-2.08-.28-2-.91-2S13.61,11.26,13.61,12.62Z"/></svg>