<?xml version="1.0" encoding="utf-8"?>
<!-- Generator: Adobe Illustrator 14.0.0, SVG Export Plug-In  -->
<!DOCTYPE svg PUBLIC "-//W3C//DTD SVG 1.1//EN" "http://www.w3.org/Graphics/SVG/1.1/DTD/svg11.dtd" [
	<!ENTITY ns_flows "http://ns.adobe.com/Flows/1.0/">
]>
<svg version="1.1"
	 xmlns="http://www.w3.org/2000/svg" xmlns:xlink="http://www.w3.org/1999/xlink" xmlns:a="http://ns.adobe.com/AdobeSVGViewerExtensions/3.0/"
	 x="0px" y="0px" width="26px" height="26px" viewBox="-0.001 0 26 26" enable-background="new -0.001 0 26 26"
	 xml:space="preserve">
<defs>
</defs>
<path fill="#9C9E9F" d="M1.096,0h23.32c0.602,0,1.094,0.574,1.094,1.275v22.962c0,0.702-0.492,1.275-1.094,1.275H1.096
	C0.492,25.513,0,24.939,0,24.237V1.275C0,0.574,0.492,0,1.096,0"/>
<path fill="none" stroke="#FFFFFF" stroke-width="0.5" stroke-miterlimit="22.926" d="M4.23,11.369l7.139-7.138
	c0.762-0.763,2.057-0.717,2.875,0.1l6.938,6.938c0.818,0.818,0.861,2.112,0.1,2.875l-7.139,7.137
	c-0.762,0.765-2.057,0.72-2.875-0.099L4.33,14.244C3.51,13.427,3.467,12.133,4.23,11.369z"/>
<path fill="#FFFFFF" d="M14.375,10.686c0.58,0,0.832,0.734,0.832,1.854c0,1.163-0.271,1.898-0.832,1.898
	c-0.504,0-0.832-0.672-0.832-1.856C13.543,11.344,13.895,10.686,14.375,10.686 M14.412,10.21c-0.832,0-1.43,0.832-1.43,2.365
	c0.014,1.506,0.561,2.338,1.361,2.338c0.9,0,1.422-0.853,1.422-2.4C15.766,11.063,15.27,10.21,14.412,10.21 M12.422,14.836v-0.51
	h-1.834v-0.014l0.322-0.336c0.863-0.924,1.41-1.604,1.41-2.444c0-0.651-0.371-1.322-1.252-1.322c-0.467,0-0.875,0.203-1.154,0.461
	l0.178,0.435c0.189-0.175,0.496-0.385,0.869-0.385c0.611,0,0.807,0.427,0.807,0.889c0,0.686-0.479,1.275-1.525,2.381l-0.436,0.469
	v0.377H12.422z"/>
</svg>
