<svg width="160" height="600" viewBox="0 0 160 600" fill="none" xmlns="http://www.w3.org/2000/svg">
<path d="M14 468H136.856C142.458 468 147 472.542 147 478.144V495.867H24.1441C18.5417 495.867 14 491.325 14 485.723V468Z" fill="white"/>
<path d="M21.5858 488.395C21.0067 488.395 20.5214 488.318 20.1298 488.163V486.161C20.5324 486.321 20.9488 486.401 21.379 486.401C22.0408 486.401 22.551 485.786 22.9094 484.556L19.8072 476.135H22.1649L23.7036 480.859C23.8304 481.294 23.9104 481.666 23.9435 481.975H24.0097L24.1255 481.413L24.2496 480.859L25.5649 476.135H27.8399L25.143 484.689C24.7129 486.04 24.2193 486.997 23.6622 487.559C23.1107 488.116 22.4186 488.395 21.5858 488.395ZM35.1859 478.997C35.1859 479.747 34.9626 480.37 34.5159 480.867C34.0747 481.358 33.4377 481.689 32.6049 481.859V481.926C33.5094 482.036 34.2098 482.339 34.7061 482.836C35.208 483.326 35.4589 483.983 35.4589 484.805C35.4589 485.919 35.1005 486.795 34.3835 487.435C33.6721 488.075 32.7014 488.395 31.4716 488.395C30.17 488.395 29.1552 488.205 28.4272 487.824V485.855C29.2435 486.307 30.1121 486.533 31.0331 486.533C32.4781 486.533 33.2005 485.902 33.2005 484.639C33.2005 484.066 32.991 483.63 32.5718 483.332C32.1582 483.029 31.5433 482.877 30.727 482.877H29.9163V481.032H30.6443C31.444 481.032 32.0341 480.894 32.4146 480.619C32.7952 480.337 32.9854 479.904 32.9854 479.32C32.9854 478.851 32.8586 478.493 32.6049 478.244C32.3512 477.991 31.9845 477.864 31.5046 477.864C30.7711 477.864 30.0762 478.162 29.42 478.757L28.3528 477.252C28.8988 476.783 29.453 476.452 30.0156 476.259C30.5781 476.06 31.2041 475.961 31.8935 475.961C32.8917 475.961 33.6886 476.24 34.2842 476.797C34.8854 477.348 35.1859 478.082 35.1859 478.997ZM44.5919 488.229H42.3417V482.927H39.3719V488.229H37.1217V476.135H39.3719V480.941H42.3417V476.135H44.5919V488.229ZM52.4591 488.229L51.7642 485.177H48.6123L47.9174 488.229H45.6673L48.662 476.085H51.7146L54.7175 488.229H52.4591ZM51.3423 483.183L50.697 480.37C50.6584 480.199 50.5702 479.772 50.4323 479.088C50.2999 478.399 50.22 477.938 50.1924 477.707C50.1207 478.181 50.0297 478.705 49.9194 479.278C49.8091 479.846 49.5223 481.148 49.0591 483.183H51.3423ZM55.7847 476.135H57.8694V482.778C57.8694 483.467 57.817 484.148 57.7122 484.821H57.8032L61.4927 476.135H64.2558V488.229H62.1876V481.603C62.1876 480.787 62.2511 480.07 62.3779 479.452H62.2704L58.5643 488.229H55.7847V476.135ZM63.0397 472.487C62.9294 473.413 62.6261 474.092 62.1297 474.522C61.6389 474.952 60.9137 475.167 59.954 475.167C59.0165 475.167 58.3133 474.957 57.8445 474.538C57.3758 474.114 57.0972 473.43 57.009 472.487H58.8372C58.8979 473.038 59.0137 473.41 59.1847 473.603C59.3612 473.796 59.6342 473.893 60.0037 473.893C60.3677 473.893 60.6379 473.783 60.8144 473.562C60.9964 473.341 61.1177 472.983 61.1784 472.487H63.0397ZM70.1045 488.229H67.8626V478.112H65.5463V476.135H72.4208V478.112H70.1045V488.229ZM79.1713 488.229H73.7196V476.135H79.1713V478.079H75.9698V480.958H78.9396V482.91H75.9698V486.26H79.1713V488.229ZM91.7952 484.383C91.7952 485.607 91.4809 486.556 90.8521 487.228C90.2289 487.896 89.3355 488.229 88.1718 488.229H85.1192V476.135H90.8604V478.095H87.3694V480.859H88.0808C89.3052 480.859 90.2289 481.154 90.8521 481.744C91.4809 482.334 91.7952 483.213 91.7952 484.383ZM87.3694 486.277H88.0643C89.0404 486.277 89.5285 485.673 89.5285 484.465C89.5285 483.886 89.4044 483.47 89.1563 483.216C88.9136 482.957 88.5 482.827 87.9154 482.827H87.3694V486.277ZM101.697 482.166C101.697 484.168 101.322 485.706 100.572 486.782C99.8224 487.857 98.7497 488.395 97.3544 488.395C95.9536 488.395 94.8781 487.86 94.1281 486.79C93.378 485.715 93.003 484.168 93.003 482.149C93.003 480.147 93.378 478.614 94.1281 477.549C94.8781 476.48 95.9591 475.945 97.3709 475.945C98.7662 475.945 99.8362 476.482 100.581 477.558C101.325 478.628 101.697 480.164 101.697 482.166ZM95.3028 482.166C95.3028 483.544 95.4765 484.595 95.824 485.317C96.1714 486.04 96.6815 486.401 97.3544 486.401C98.7111 486.401 99.3894 484.989 99.3894 482.166C99.3894 479.342 98.7166 477.93 97.3709 477.93C96.6871 477.93 96.1714 478.291 95.824 479.014C95.4765 479.731 95.3028 480.781 95.3028 482.166ZM110.938 488.229H108.688V478.112H106.876C106.628 480.903 106.38 483.208 106.132 485.028C105.966 486.192 105.666 487.044 105.23 487.584C104.8 488.125 104.223 488.395 103.501 488.395C103.054 488.395 102.687 488.334 102.401 488.213V486.351C102.566 486.418 102.77 486.451 103.013 486.451C103.322 486.451 103.556 486.208 103.716 485.723C103.881 485.237 104.066 484.148 104.27 482.455C104.48 480.762 104.698 478.655 104.924 476.135H110.938V488.229ZM119.674 484.383C119.674 485.601 119.351 486.547 118.706 487.22C118.061 487.893 117.145 488.229 115.959 488.229H113.081V476.135H115.331V480.859H115.91C118.419 480.859 119.674 482.033 119.674 484.383ZM115.331 486.277H115.893C116.897 486.277 117.399 485.673 117.399 484.465C117.399 483.881 117.275 483.462 117.027 483.208C116.784 482.954 116.368 482.827 115.777 482.827H115.331V486.277ZM128.319 486.244H130.933V476.135H133.183V488.229H121.221V476.135H123.471V486.244H126.085V476.135H128.319V486.244ZM140.769 488.229H135.317V476.135H140.769V478.079H137.567V480.958H140.537V482.91H137.567V486.26H140.769V488.229Z" fill="#0090D7"/>
</svg>
