<svg width="160" height="600" viewBox="0 0 160 600" fill="none" xmlns="http://www.w3.org/2000/svg">
<path d="M55.2999 58.636H51.7403V53H42.8953V58.636H39.3357V49.764H40.4953C42.347 44.8471 43.5335 39.355 44.0549 33.2875H53.0616V49.764H55.2999V58.636ZM49.3942 49.764V36.51H47.156C46.9313 38.6943 46.5672 40.964 46.0639 43.319C45.5695 45.6651 44.9852 47.8135 44.311 49.764H49.3942ZM58.6302 53.2697C57.6864 53.2697 56.8954 53.1438 56.2572 52.8921V49.6292C56.9134 49.8899 57.592 50.0202 58.2931 50.0202C59.3718 50.0202 60.2033 49.018 60.7875 47.0135L55.7313 33.2875H59.574L62.0819 40.9865C62.2887 41.6966 62.419 42.3033 62.4729 42.8067H62.5808L62.7696 41.8898L62.9718 40.9865L65.1156 33.2875H68.8235L64.428 47.2292C63.7269 49.4314 62.9224 50.991 62.0145 51.9079C61.1156 52.8157 59.9875 53.2697 58.6302 53.2697ZM81.4573 46.7303C81.4573 48.7258 80.9449 50.2719 79.9202 51.3685C78.9045 52.4562 77.4483 53 75.5517 53H70.5763V33.2875H79.9337V36.4831H74.2438V40.9865H75.4033C77.3989 40.9865 78.9045 41.4674 79.9202 42.4292C80.9449 43.391 81.4573 44.8247 81.4573 46.7303ZM74.2438 49.818H75.3764C76.9674 49.818 77.7629 48.8337 77.7629 46.8651C77.7629 45.9213 77.5607 45.2427 77.1562 44.8292C76.7607 44.4067 76.0865 44.1955 75.1337 44.1955H74.2438V49.818ZM93.363 53L92.2304 48.0247H87.0933L85.9607 53H82.2933L87.1742 33.2066H92.1495L97.0439 53H93.363ZM91.5428 44.7752L90.4911 40.1909C90.4281 39.9123 90.2843 39.2157 90.0596 38.101C89.8439 36.9774 89.7135 36.2269 89.6686 35.8493C89.5517 36.6224 89.4034 37.4763 89.2236 38.4112C89.0439 39.337 88.5764 41.4584 87.8214 44.7752H91.5428ZM98.7833 33.2875H102.181V44.1146C102.181 45.2382 102.096 46.3483 101.925 47.4449H102.073L108.087 33.2875H112.59V53H109.219V42.1999C109.219 40.8696 109.323 39.7011 109.529 38.6943H109.354L103.314 53H98.7833V33.2875ZM110.608 27.3414C110.428 28.8516 109.934 29.9572 109.125 30.6583C108.325 31.3594 107.143 31.71 105.579 31.71C104.051 31.71 102.905 31.3684 102.141 30.6853C101.377 29.9931 100.923 28.8785 100.779 27.3414H103.759C103.857 28.2403 104.046 28.8471 104.325 29.1617C104.612 29.4763 105.057 29.6336 105.66 29.6336C106.253 29.6336 106.693 29.4538 106.981 29.0943C107.278 28.7347 107.475 28.1504 107.574 27.3414H110.608ZM115.826 51.1528C115.826 50.4517 116.01 49.9078 116.379 49.5213C116.756 49.1348 117.314 48.9416 118.051 48.9416C118.788 48.9416 119.345 49.1348 119.723 49.5213C120.1 49.8989 120.289 50.4427 120.289 51.1528C120.289 51.8539 120.091 52.3977 119.696 52.7843C119.309 53.1708 118.761 53.364 118.051 53.364C117.323 53.364 116.77 53.1708 116.392 52.7843C116.015 52.3888 115.826 51.8449 115.826 51.1528ZM57.9426 91.636H54.383V86H45.538V91.636H41.9784V82.764H43.138C44.9897 77.8471 46.1762 72.355 46.6976 66.2875H55.7044V82.764H57.9426V91.636ZM52.0369 82.764V69.51H49.7987C49.574 71.6943 49.2099 73.964 48.7066 76.319C48.2122 78.6651 47.6279 80.8135 46.9537 82.764H52.0369ZM69.4438 86L68.3112 81.0247H63.1741L62.0415 86H58.374L63.255 66.2066H68.2303L73.1247 86H69.4438ZM67.6235 77.7752L66.5718 73.1909C66.5089 72.9123 66.3651 72.2157 66.1404 71.101C65.9246 69.9774 65.7943 69.2269 65.7494 68.8493C65.6325 69.6224 65.4842 70.4763 65.3044 71.4112C65.1246 72.337 64.6572 74.4584 63.9022 77.7752H67.6235ZM74.864 66.2875H79.8933C81.9427 66.2875 83.4348 66.6875 84.3697 67.4875C85.3045 68.2786 85.7719 69.5415 85.7719 71.2763C85.7719 72.4179 85.5247 73.3752 85.0304 74.1482C84.536 74.9123 83.8618 75.3752 83.0079 75.537V75.6719C84.1225 75.9505 84.927 76.4719 85.4214 77.2359C85.9158 78 86.163 79.0157 86.163 80.2831C86.163 82.0719 85.6821 83.4741 84.7202 84.4899C83.7674 85.4966 82.4596 86 80.7966 86H74.864V66.2875ZM78.3157 74.2157H80.0011C80.7742 74.2157 81.318 74.0089 81.6326 73.5954C81.9472 73.182 82.1045 72.5662 82.1045 71.7482C82.1045 70.9303 81.9247 70.346 81.5652 69.9954C81.2056 69.6359 80.6393 69.4561 79.8663 69.4561H78.3157V74.2157ZM78.3157 77.2764V82.791H80.1629C80.927 82.791 81.4933 82.5573 81.8618 82.0899C82.2393 81.6224 82.4281 80.8988 82.4281 79.9191C82.4281 78.1573 81.6551 77.2764 80.109 77.2764H78.3157ZM98.19 86L97.0574 81.0247H91.9203L90.7877 86H87.1203L92.0012 66.2066H96.9765L101.871 86H98.19ZM96.3698 77.7752L95.3181 73.1909C95.2551 72.9123 95.1113 72.2157 94.8866 71.101C94.6709 69.9774 94.5405 69.2269 94.4956 68.8493C94.3787 69.6224 94.2304 70.4763 94.0506 71.4112C93.8709 72.337 93.4034 74.4584 92.6484 77.7752H96.3698ZM103.61 66.2875H107.008V77.1146C107.008 78.2382 106.923 79.3483 106.752 80.4449H106.9L112.914 66.2875H117.417V86H114.046V75.1999C114.046 73.8696 114.15 72.7011 114.356 71.6943H114.181L108.141 86H103.61V66.2875ZM115.435 60.3414C115.255 61.8516 114.761 62.9572 113.952 63.6583C113.152 64.3594 111.97 64.71 110.406 64.71C108.878 64.71 107.732 64.3684 106.968 63.6853C106.204 62.9931 105.75 61.8785 105.606 60.3414H108.586C108.684 61.2403 108.873 61.8471 109.152 62.1617C109.439 62.4763 109.884 62.6336 110.487 62.6336C111.08 62.6336 111.52 62.4538 111.808 62.0943C112.105 61.7347 112.302 61.1504 112.401 60.3414H115.435ZM31.2862 119H27.6458V102.51H22.7783V119H19.1109V99.2875H31.2862V119ZM48.3425 109.117C48.3425 112.38 47.7313 114.888 46.5088 116.64C45.2863 118.393 43.538 119.27 41.2638 119.27C38.9807 119.27 37.2279 118.398 36.0054 116.654C34.7829 114.901 34.1717 112.38 34.1717 109.09C34.1717 105.827 34.7829 103.328 36.0054 101.593C37.2279 99.8493 38.9897 98.9774 41.2908 98.9774C43.565 98.9774 45.3088 99.8538 46.5223 101.607C47.7358 103.35 48.3425 105.854 48.3425 109.117ZM37.92 109.117C37.92 111.364 38.2031 113.076 38.7694 114.254C39.3357 115.431 40.1672 116.02 41.2638 116.02C43.4751 116.02 44.5807 113.719 44.5807 109.117C44.5807 104.515 43.4841 102.213 41.2908 102.213C40.1762 102.213 39.3357 102.802 38.7694 103.98C38.2031 105.148 37.92 106.861 37.92 109.117ZM70.2258 119H66.5584V110.357H61.7179V119H58.0504V99.2875H61.7179V107.121H66.5584V99.2875H70.2258V119ZM87.2821 109.117C87.2821 112.38 86.6708 114.888 85.4483 116.64C84.2259 118.393 82.4775 119.27 80.2034 119.27C77.9202 119.27 76.1674 118.398 74.9449 116.654C73.7224 114.901 73.1112 112.38 73.1112 109.09C73.1112 105.827 73.7224 103.328 74.9449 101.593C76.1674 99.8493 77.9292 98.9774 80.2303 98.9774C82.5045 98.9774 84.2483 99.8538 85.4618 101.607C86.6753 103.35 87.2821 105.854 87.2821 109.117ZM76.8595 109.117C76.8595 111.364 77.1427 113.076 77.709 114.254C78.2753 115.431 79.1067 116.02 80.2034 116.02C82.4146 116.02 83.5202 113.719 83.5202 109.117C83.5202 104.515 82.4236 102.213 80.2303 102.213C79.1157 102.213 78.2753 102.802 77.709 103.98C77.1427 105.148 76.8595 106.861 76.8595 109.117ZM90.1675 99.2875H95.1967C97.2462 99.2875 98.7383 99.6875 99.6731 100.488C100.608 101.279 101.075 102.541 101.075 104.276C101.075 105.418 100.828 106.375 100.334 107.148C99.8394 107.912 99.1653 108.375 98.3113 108.537V108.672C99.4259 108.951 100.23 109.472 100.725 110.236C101.219 111 101.466 112.016 101.466 113.283C101.466 115.072 100.986 116.474 100.024 117.49C99.0709 118.497 97.763 119 96.1001 119H90.1675V99.2875ZM93.6192 107.216H95.3046C96.0776 107.216 96.6214 107.009 96.936 106.595C97.2507 106.182 97.408 105.566 97.408 104.748C97.408 103.93 97.2282 103.346 96.8686 102.995C96.5091 102.636 95.9428 102.456 95.1697 102.456H93.6192V107.216ZM93.6192 110.276V115.791H95.4664C96.2304 115.791 96.7967 115.557 97.1653 115.09C97.5428 114.622 97.7316 113.899 97.7316 112.919C97.7316 111.157 96.9585 110.276 95.4124 110.276H93.6192ZM117.727 109.117C117.727 112.38 117.116 114.888 115.893 116.64C114.671 118.393 112.923 119.27 110.648 119.27C108.365 119.27 106.613 118.398 105.39 116.654C104.168 114.901 103.556 112.38 103.556 109.09C103.556 105.827 104.168 103.328 105.39 101.593C106.613 99.8493 108.374 98.9774 110.675 98.9774C112.95 98.9774 114.693 99.8538 115.907 101.607C117.12 103.35 117.727 105.854 117.727 109.117ZM107.305 109.117C107.305 111.364 107.588 113.076 108.154 114.254C108.72 115.431 109.552 116.02 110.648 116.02C112.86 116.02 113.965 113.719 113.965 109.117C113.965 104.515 112.869 102.213 110.675 102.213C109.561 102.213 108.72 102.802 108.154 103.98C107.588 105.148 107.305 106.861 107.305 109.117ZM120.613 99.2875H124.01V110.115C124.01 111.238 123.925 112.348 123.754 113.445H123.902L129.916 99.2875H134.419V119H131.049V108.2C131.049 106.87 131.152 105.701 131.359 104.694H131.183L125.143 119H120.613V99.2875ZM132.437 93.3414C132.258 94.8516 131.763 95.9572 130.954 96.6583C130.154 97.3594 128.972 97.71 127.408 97.71C125.88 97.71 124.734 97.3684 123.97 96.6853C123.206 95.9931 122.752 94.8785 122.608 93.3414H125.588C125.687 94.2403 125.876 94.8471 126.154 95.1617C126.442 95.4763 126.887 95.6336 127.489 95.6336C128.082 95.6336 128.523 95.4538 128.81 95.0943C129.107 94.7347 129.305 94.1504 129.404 93.3414H132.437ZM137.655 117.153C137.655 116.452 137.84 115.908 138.208 115.521C138.586 115.135 139.143 114.942 139.88 114.942C140.617 114.942 141.174 115.135 141.552 115.521C141.93 115.899 142.118 116.443 142.118 117.153C142.118 117.854 141.921 118.398 141.525 118.784C141.139 119.171 140.59 119.364 139.88 119.364C139.152 119.364 138.599 119.171 138.222 118.784C137.844 118.389 137.655 117.845 137.655 117.153Z" fill="white"/>
</svg>
