<svg width="728" height="90" viewBox="0 0 728 90" fill="none" xmlns="http://www.w3.org/2000/svg">
<path d="M33.5176 28.9785C33.5176 32.2871 32.8978 34.8301 31.6582 36.6074C30.4186 38.3848 28.6458 39.2734 26.3398 39.2734C24.0247 39.2734 22.2474 38.3893 21.0078 36.6211C19.7682 34.8438 19.1484 32.2871 19.1484 28.9512C19.1484 25.6426 19.7682 23.1087 21.0078 21.3496C22.2474 19.5814 24.0339 18.6973 26.3672 18.6973C28.6732 18.6973 30.4414 19.5859 31.6719 21.3633C32.9023 23.1315 33.5176 25.6699 33.5176 28.9785ZM22.9492 28.9785C22.9492 31.2572 23.2363 32.9935 23.8105 34.1875C24.3848 35.3815 25.2279 35.9785 26.3398 35.9785C28.582 35.9785 29.7031 33.6452 29.7031 28.9785C29.7031 24.3118 28.5911 21.9785 26.3672 21.9785C25.237 21.9785 24.3848 22.5755 23.8105 23.7695C23.2363 24.9544 22.9492 26.6908 22.9492 28.9785ZM36.4434 19.0117H39.8887V29.9902C39.8887 31.1296 39.8021 32.2552 39.6289 33.3672H39.7793L45.877 19.0117H50.4434V39H47.0254V28.0488C47.0254 26.6999 47.1302 25.515 47.3398 24.4941H47.1621L41.0371 39H36.4434V19.0117ZM48.4336 12.9824C48.2513 14.5137 47.75 15.6348 46.9297 16.3457C46.1185 17.0566 44.9199 17.4121 43.334 17.4121C41.7845 17.4121 40.6224 17.0658 39.8477 16.373C39.0729 15.6712 38.6126 14.541 38.4668 12.9824H41.4883C41.5885 13.8939 41.7799 14.5091 42.0625 14.8281C42.3542 15.1471 42.8053 15.3066 43.416 15.3066C44.0176 15.3066 44.4642 15.1243 44.7559 14.7598C45.0566 14.3952 45.2572 13.8027 45.3574 12.9824H48.4336ZM65.0039 32.6426C65.0039 34.666 64.4844 36.2337 63.4453 37.3457C62.4154 38.4486 60.9388 39 59.0156 39H53.9707V19.0117H63.459V22.252H57.6895V26.8184H58.8652C60.8887 26.8184 62.4154 27.306 63.4453 28.2812C64.4844 29.2565 65.0039 30.7103 65.0039 32.6426ZM57.6895 35.7734H58.8379C60.4512 35.7734 61.2578 34.7754 61.2578 32.7793C61.2578 31.8223 61.0527 31.1341 60.6426 30.7148C60.2415 30.2865 59.5579 30.0723 58.5918 30.0723H57.6895V35.7734ZM77.0762 39L75.9277 33.9551H70.7188L69.5703 39H65.8516L70.8008 18.9297H75.8457L80.8086 39H77.0762ZM75.2305 30.6602L74.1641 26.0117C74.1003 25.7292 73.9544 25.0228 73.7266 23.8926C73.5078 22.7533 73.3757 21.9922 73.3301 21.6094C73.2116 22.3932 73.0612 23.2591 72.8789 24.207C72.6966 25.1458 72.2227 27.2969 71.457 30.6602H75.2305ZM82.5723 19.0117H86.0176V29.9902C86.0176 31.1296 85.931 32.2552 85.7578 33.3672H85.9082L92.0059 19.0117H96.5723V39H93.1543V28.0488C93.1543 26.6999 93.2591 25.515 93.4688 24.4941H93.291L87.166 39H82.5723V19.0117ZM94.5625 12.9824C94.3802 14.5137 93.8789 15.6348 93.0586 16.3457C92.2474 17.0566 91.0488 17.4121 89.4629 17.4121C87.9134 17.4121 86.7513 17.0658 85.9766 16.373C85.2018 15.6712 84.7415 14.541 84.5957 12.9824H87.6172C87.7174 13.8939 87.9089 14.5091 88.1914 14.8281C88.4831 15.1471 88.9342 15.3066 89.5449 15.3066C90.1465 15.3066 90.5931 15.1243 90.8848 14.7598C91.1855 14.3952 91.3861 13.8027 91.4863 12.9824H94.5625ZM103.627 32.5605H100.633L99.9629 19.0117H104.324L103.627 32.5605ZM99.8535 37.127C99.8535 36.416 100.04 35.8646 100.414 35.4727C100.797 35.0807 101.362 34.8848 102.109 34.8848C102.857 34.8848 103.422 35.0807 103.805 35.4727C104.188 35.8555 104.379 36.4069 104.379 37.127C104.379 37.8379 104.178 38.3893 103.777 38.7812C103.385 39.1732 102.829 39.3691 102.109 39.3691C101.371 39.3691 100.811 39.1732 100.428 38.7812C100.045 38.3802 99.8535 37.8288 99.8535 37.127ZM34.3242 78.7148H30.7148V73H21.7461V78.7148H18.1367V69.7188H19.3125C21.1901 64.7331 22.3932 59.1641 22.9219 53.0117H32.0547V69.7188H34.3242V78.7148ZM28.3359 69.7188V56.2793H26.0664C25.8385 58.4941 25.4694 60.7956 24.959 63.1836C24.4577 65.5625 23.8652 67.7409 23.1816 69.7188H28.3359ZM45.9863 73L44.8379 67.9551H39.6289L38.4805 73H34.7617L39.7109 52.9297H44.7559L49.7188 73H45.9863ZM44.1406 64.6602L43.0742 60.0117C43.0104 59.7292 42.8646 59.0228 42.6367 57.8926C42.418 56.7533 42.2858 55.9922 42.2402 55.6094C42.1217 56.3932 41.9714 57.2591 41.7891 58.207C41.6068 59.1458 41.1328 61.2969 40.3672 64.6602H44.1406ZM51.4824 53.0117H56.582C58.6602 53.0117 60.1732 53.4173 61.1211 54.2285C62.069 55.0306 62.543 56.3112 62.543 58.0703C62.543 59.2279 62.2923 60.1986 61.791 60.9824C61.2897 61.7572 60.6061 62.2266 59.7402 62.3906V62.5273C60.8704 62.8099 61.6862 63.3385 62.1875 64.1133C62.6888 64.888 62.9395 65.918 62.9395 67.2031C62.9395 69.0169 62.4518 70.4388 61.4766 71.4688C60.5104 72.4896 59.1842 73 57.498 73H51.4824V53.0117ZM54.9824 61.0508H56.6914C57.4753 61.0508 58.0267 60.8411 58.3457 60.4219C58.6647 60.0026 58.8242 59.3783 58.8242 58.5488C58.8242 57.7194 58.6419 57.127 58.2773 56.7715C57.9128 56.4069 57.3385 56.2246 56.5547 56.2246H54.9824V61.0508ZM54.9824 64.1543V69.7461H56.8555C57.6302 69.7461 58.2044 69.5091 58.5781 69.0352C58.9609 68.5612 59.1523 67.8275 59.1523 66.834C59.1523 65.0475 58.3685 64.1543 56.8008 64.1543H54.9824ZM75.1348 73L73.9863 67.9551H68.7773L67.6289 73H63.9102L68.8594 52.9297H73.9043L78.8672 73H75.1348ZM73.2891 64.6602L72.2227 60.0117C72.1589 59.7292 72.013 59.0228 71.7852 57.8926C71.5664 56.7533 71.4342 55.9922 71.3887 55.6094C71.2702 56.3932 71.1198 57.2591 70.9375 58.207C70.7552 59.1458 70.2812 61.2969 69.5156 64.6602H73.2891ZM80.6309 53.0117H84.0762V63.9902C84.0762 65.1296 83.9896 66.2552 83.8164 67.3672H83.9668L90.0645 53.0117H94.6309V73H91.2129V62.0488C91.2129 60.6999 91.3177 59.515 91.5273 58.4941H91.3496L85.2246 73H80.6309V53.0117ZM92.6211 46.9824C92.4388 48.5137 91.9375 49.6348 91.1172 50.3457C90.306 51.0566 89.1074 51.4121 87.5215 51.4121C85.972 51.4121 84.8099 51.0658 84.0352 50.373C83.2604 49.6712 82.8001 48.541 82.6543 46.9824H85.6758C85.776 47.8939 85.9674 48.5091 86.25 48.8281C86.5417 49.1471 86.9928 49.3066 87.6035 49.3066C88.2051 49.3066 88.6517 49.1243 88.9434 48.7598C89.2441 48.3952 89.4447 47.8027 89.5449 46.9824H92.6211ZM105.076 53.0117H110.176C112.254 53.0117 113.767 53.4173 114.715 54.2285C115.663 55.0306 116.137 56.3112 116.137 58.0703C116.137 59.2279 115.886 60.1986 115.385 60.9824C114.883 61.7572 114.2 62.2266 113.334 62.3906V62.5273C114.464 62.8099 115.28 63.3385 115.781 64.1133C116.283 64.888 116.533 65.918 116.533 67.2031C116.533 69.0169 116.046 70.4388 115.07 71.4688C114.104 72.4896 112.778 73 111.092 73H105.076V53.0117ZM108.576 61.0508H110.285C111.069 61.0508 111.62 60.8411 111.939 60.4219C112.258 60.0026 112.418 59.3783 112.418 58.5488C112.418 57.7194 112.236 57.127 111.871 56.7715C111.507 56.4069 110.932 56.2246 110.148 56.2246H108.576V61.0508ZM108.576 64.1543V69.7461H110.449C111.224 69.7461 111.798 69.5091 112.172 69.0352C112.555 68.5612 112.746 67.8275 112.746 66.834C112.746 65.0475 111.962 64.1543 110.395 64.1543H108.576ZM140.746 78.7148H137.137V73H128.168V78.7148H124.559V69.7188H125.734C127.612 64.7331 128.815 59.1641 129.344 53.0117H138.477V69.7188H140.746V78.7148ZM134.758 69.7188V56.2793H132.488C132.26 58.4941 131.891 60.7956 131.381 63.1836C130.88 65.5625 130.287 67.7409 129.604 69.7188H134.758ZM144.123 73.2734C143.166 73.2734 142.364 73.1458 141.717 72.8906V69.582C142.382 69.8464 143.07 69.9785 143.781 69.9785C144.875 69.9785 145.718 68.9622 146.311 66.9297L141.184 53.0117H145.08L147.623 60.8184C147.833 61.5384 147.965 62.1536 148.02 62.6641H148.129L148.32 61.7344L148.525 60.8184L150.699 53.0117H154.459L150.002 67.1484C149.291 69.3815 148.475 70.9629 147.555 71.8926C146.643 72.8132 145.499 73.2734 144.123 73.2734ZM167.27 66.6426C167.27 68.666 166.75 70.2337 165.711 71.3457C164.681 72.4486 163.204 73 161.281 73H156.236V53.0117H165.725V56.252H159.955V60.8184H161.131C163.154 60.8184 164.681 61.306 165.711 62.2812C166.75 63.2565 167.27 64.7103 167.27 66.6426ZM159.955 69.7734H161.104C162.717 69.7734 163.523 68.7754 163.523 66.7793C163.523 65.8223 163.318 65.1341 162.908 64.7148C162.507 64.2865 161.824 64.0723 160.857 64.0723H159.955V69.7734ZM179.342 73L178.193 67.9551H172.984L171.836 73H168.117L173.066 52.9297H178.111L183.074 73H179.342ZM177.496 64.6602L176.43 60.0117C176.366 59.7292 176.22 59.0228 175.992 57.8926C175.773 56.7533 175.641 55.9922 175.596 55.6094C175.477 56.3932 175.327 57.2591 175.145 58.207C174.962 59.1458 174.488 61.2969 173.723 64.6602H177.496ZM184.838 53.0117H188.283V63.9902C188.283 65.1296 188.197 66.2552 188.023 67.3672H188.174L194.271 53.0117H198.838V73H195.42V62.0488C195.42 60.6999 195.525 59.515 195.734 58.4941H195.557L189.432 73H184.838V53.0117ZM196.828 46.9824C196.646 48.5137 196.145 49.6348 195.324 50.3457C194.513 51.0566 193.314 51.4121 191.729 51.4121C190.179 51.4121 189.017 51.0658 188.242 50.373C187.467 49.6712 187.007 48.541 186.861 46.9824H189.883C189.983 47.8939 190.174 48.5091 190.457 48.8281C190.749 49.1471 191.2 49.3066 191.811 49.3066C192.412 49.3066 192.859 49.1243 193.15 48.7598C193.451 48.3952 193.652 47.8027 193.752 46.9824H196.828ZM205.893 66.5605H202.898L202.229 53.0117H206.59L205.893 66.5605ZM202.119 71.127C202.119 70.416 202.306 69.8646 202.68 69.4727C203.062 69.0807 203.628 68.8848 204.375 68.8848C205.122 68.8848 205.688 69.0807 206.07 69.4727C206.453 69.8555 206.645 70.4069 206.645 71.127C206.645 71.8379 206.444 72.3893 206.043 72.7812C205.651 73.1732 205.095 73.3691 204.375 73.3691C203.637 73.3691 203.076 73.1732 202.693 72.7812C202.311 72.3802 202.119 71.8288 202.119 71.127Z" fill="white"/>
</svg>
