<svg width="300" height="250" viewBox="0 0 300 250" fill="none" xmlns="http://www.w3.org/2000/svg">
<path d="M22 203H146.703C152.39 203 157 207.61 157 213.297V231.286H32.2966C26.6099 231.286 22 226.676 22 220.989V203Z" fill="white"/>
<path d="M36.4956 219.821C36.4956 220.833 36.2358 221.617 35.7163 222.173C35.2013 222.724 34.4631 223 33.5015 223H30.979V213.006H35.7231V214.626H32.8384V216.909H33.4263C34.438 216.909 35.2013 217.153 35.7163 217.641C36.2358 218.128 36.4956 218.855 36.4956 219.821ZM32.8384 221.387H33.4126C34.2192 221.387 34.6226 220.888 34.6226 219.89C34.6226 219.411 34.52 219.067 34.3149 218.857C34.1144 218.643 33.7726 218.536 33.2896 218.536H32.8384V221.387ZM43.2495 216.082C43.2495 217.144 42.9806 217.96 42.4429 218.529C41.9097 219.094 41.1372 219.377 40.1255 219.377H39.6606V223H37.8013V213.006H40.3374C42.2788 213.006 43.2495 214.031 43.2495 216.082ZM39.6606 217.764H40.0161C40.4718 217.764 40.8114 217.638 41.0347 217.388C41.258 217.137 41.3696 216.727 41.3696 216.157C41.3696 215.633 41.2671 215.246 41.062 214.995C40.8569 214.74 40.5402 214.612 40.1118 214.612H39.6606V217.764ZM51.3911 217.989C51.3911 219.644 51.0812 220.915 50.4614 221.804C49.8416 222.692 48.9552 223.137 47.8022 223.137C46.6447 223.137 45.756 222.695 45.1362 221.811C44.5164 220.922 44.2065 219.644 44.2065 217.976C44.2065 216.321 44.5164 215.054 45.1362 214.175C45.756 213.291 46.6493 212.849 47.8159 212.849C48.9689 212.849 49.853 213.293 50.4683 214.182C51.0835 215.066 51.3911 216.335 51.3911 217.989ZM46.1069 217.989C46.1069 219.129 46.2505 219.997 46.5376 220.594C46.8247 221.191 47.2463 221.489 47.8022 221.489C48.9233 221.489 49.4839 220.323 49.4839 217.989C49.4839 215.656 48.9279 214.489 47.8159 214.489C47.2508 214.489 46.8247 214.788 46.5376 215.385C46.2505 215.977 46.1069 216.845 46.1069 217.989ZM59.0269 223H57.1675V218.618H54.7134V223H52.854V213.006H54.7134V216.978H57.1675V213.006H59.0269V223ZM60.7974 213.006H62.52V218.495C62.52 219.065 62.4767 219.628 62.3901 220.184H62.4653L65.5142 213.006H67.7974V223H66.0884V217.524C66.0884 216.85 66.1408 216.257 66.2456 215.747H66.1567L63.0942 223H60.7974V213.006ZM75.0093 216.082C75.0093 217.144 74.7404 217.96 74.2026 218.529C73.6694 219.094 72.897 219.377 71.8853 219.377H71.4204V223H69.561V213.006H72.0972C74.0386 213.006 75.0093 214.031 75.0093 216.082ZM71.4204 217.764H71.7759C72.2316 217.764 72.5711 217.638 72.7944 217.388C73.0177 217.137 73.1294 216.727 73.1294 216.157C73.1294 215.633 73.0269 215.246 72.8218 214.995C72.6167 214.74 72.3 214.612 71.8716 214.612H71.4204V217.764ZM76.8618 223.137C76.3833 223.137 75.9823 223.073 75.6587 222.945V221.291C75.9914 221.423 76.3354 221.489 76.6909 221.489C77.2378 221.489 77.6593 220.981 77.9556 219.965L75.3921 213.006H77.3403L78.6118 216.909C78.7166 217.269 78.7827 217.577 78.8101 217.832H78.8647L78.9604 217.367L79.063 216.909L80.1499 213.006H82.0298L79.8013 220.074C79.4458 221.191 79.0379 221.981 78.5776 222.446C78.1219 222.907 77.55 223.137 76.8618 223.137ZM82.9185 213.006H84.6411V218.495C84.6411 219.065 84.5978 219.628 84.5112 220.184H84.5864L87.6353 213.006H89.9185V223H88.2095V217.524C88.2095 216.85 88.2619 216.257 88.3667 215.747H88.2778L85.2153 223H82.9185V213.006ZM88.9136 209.991C88.8224 210.757 88.5718 211.317 88.1616 211.673C87.756 212.028 87.1567 212.206 86.3638 212.206C85.589 212.206 85.008 212.033 84.6206 211.687C84.2332 211.336 84.0031 210.771 83.9302 209.991H85.4409C85.491 210.447 85.5868 210.755 85.728 210.914C85.8739 211.074 86.0994 211.153 86.4048 211.153C86.7056 211.153 86.9289 211.062 87.0747 210.88C87.2251 210.698 87.3254 210.401 87.3755 209.991H88.9136ZM94.7515 223H92.8989V214.64H90.9849V213.006H96.6655V214.64H94.7515V223ZM102.244 223H97.7388V213.006H102.244V214.612H99.5981V216.991H102.052V218.604H99.5981V221.373H102.244V223ZM110.474 214.489C109.941 214.489 109.519 214.801 109.209 215.426C108.904 216.05 108.751 216.918 108.751 218.03C108.751 220.345 109.355 221.503 110.563 221.503C111.092 221.503 111.645 221.334 112.224 220.997V222.651C111.736 222.975 111.112 223.137 110.351 223.137C109.225 223.137 108.36 222.69 107.753 221.797C107.152 220.899 106.851 219.639 106.851 218.017C106.851 216.394 107.161 215.13 107.781 214.223C108.405 213.316 109.271 212.862 110.378 212.862C110.743 212.862 111.092 212.912 111.424 213.013C111.762 213.113 112.122 213.288 112.504 213.539L111.889 215.05C111.684 214.909 111.465 214.781 111.233 214.667C111 214.549 110.748 214.489 110.474 214.489ZM118.144 223H113.639V213.006H118.144V214.612H115.499V216.991H117.953V218.604H115.499V221.373H118.144V223ZM119.6 213.006H121.323V218.495C121.323 219.065 121.279 219.628 121.193 220.184H121.268L124.317 213.006H126.6V223H124.891V217.524C124.891 216.85 124.944 216.257 125.048 215.747H124.959L121.897 223H119.6V213.006ZM125.595 209.991C125.504 210.757 125.253 211.317 124.843 211.673C124.438 212.028 123.838 212.206 123.045 212.206C122.271 212.206 121.69 212.033 121.302 211.687C120.915 211.336 120.685 210.771 120.612 209.991H122.123C122.173 210.447 122.268 210.755 122.41 210.914C122.556 211.074 122.781 211.153 123.086 211.153C123.387 211.153 123.611 211.062 123.756 210.88C123.907 210.698 124.007 210.401 124.057 209.991H125.595ZM134.496 223H132.636V219.124C131.998 219.516 131.353 219.712 130.702 219.712C129.95 219.712 129.366 219.484 128.952 219.028C128.542 218.568 128.336 217.928 128.336 217.107V213.006H130.196V216.697C130.196 217.176 130.266 217.524 130.408 217.743C130.554 217.962 130.791 218.071 131.119 218.071C131.392 218.071 131.65 218.026 131.891 217.935C132.133 217.839 132.381 217.711 132.636 217.552V213.006H134.496V223ZM140.997 223L140.422 220.478H137.818L137.244 223H135.384L137.859 212.965H140.381L142.863 223H140.997ZM140.074 218.83L139.541 216.506C139.509 216.365 139.436 216.011 139.322 215.446C139.212 214.877 139.146 214.496 139.124 214.305C139.064 214.697 138.989 215.13 138.898 215.604C138.807 216.073 138.57 217.148 138.187 218.83H140.074ZM147.06 214.489C146.527 214.489 146.105 214.801 145.795 215.426C145.49 216.05 145.337 216.918 145.337 218.03C145.337 220.345 145.941 221.503 147.149 221.503C147.678 221.503 148.231 221.334 148.81 220.997V222.651C148.322 222.975 147.698 223.137 146.937 223.137C145.811 223.137 144.945 222.69 144.339 221.797C143.738 220.899 143.437 219.639 143.437 218.017C143.437 216.394 143.747 215.13 144.367 214.223C144.991 213.316 145.857 212.862 146.964 212.862C147.329 212.862 147.678 212.912 148.01 213.013C148.347 213.113 148.708 213.288 149.09 213.539L148.475 215.05C148.27 214.909 148.051 214.781 147.819 214.667C147.586 214.549 147.333 214.489 147.06 214.489Z" fill="#0090D7"/>
</svg>
