<svg width="250" height="250" viewBox="0 0 250 250" fill="none" xmlns="http://www.w3.org/2000/svg">
<path d="M17 205H124.153C129.039 205 133 208.961 133 213.847V229.305H25.8475C20.9611 229.305 17 225.344 17 220.457V205Z" fill="white"/>
<path d="M23.9131 222.833C23.408 222.833 22.9847 222.766 22.6432 222.631V220.885C22.9943 221.024 23.3575 221.094 23.7327 221.094C24.3099 221.094 24.7548 220.558 25.0675 219.485L22.3618 212.14H24.4181L25.7602 216.26C25.8708 216.64 25.9405 216.965 25.9694 217.234H26.0271L26.1281 216.743L26.2364 216.26L27.3836 212.14H29.3677L27.0156 219.601C26.6404 220.779 26.2099 221.614 25.7241 222.104C25.2431 222.59 24.6394 222.833 23.9131 222.833ZM35.7748 214.637C35.7748 215.291 35.58 215.834 35.1904 216.267C34.8056 216.695 34.25 216.984 33.5237 217.133V217.191C34.3125 217.287 34.9234 217.552 35.3563 217.984C35.7941 218.413 36.0129 218.985 36.0129 219.702C36.0129 220.673 35.7003 221.438 35.075 221.996C34.4544 222.554 33.6079 222.833 32.5352 222.833C31.4 222.833 30.515 222.667 29.88 222.335V220.618C30.5919 221.012 31.3495 221.21 32.1528 221.21C33.4131 221.21 34.0432 220.659 34.0432 219.557C34.0432 219.057 33.8604 218.677 33.4948 218.417C33.1341 218.153 32.5977 218.021 31.8858 218.021H31.1788V216.412H31.8137C32.5112 216.412 33.0258 216.291 33.3577 216.051C33.6896 215.805 33.8556 215.428 33.8556 214.918C33.8556 214.509 33.745 214.197 33.5237 213.98C33.3024 213.759 32.9826 213.648 32.5641 213.648C31.9243 213.648 31.3182 213.908 30.7458 214.427L29.8151 213.114C30.2913 212.705 30.7747 212.417 31.2653 212.248C31.756 212.075 32.3019 211.989 32.9032 211.989C33.7738 211.989 34.4689 212.232 34.9884 212.717C35.5127 213.198 35.7748 213.838 35.7748 214.637ZM43.9785 222.689H42.016V218.064H39.4257V222.689H37.4632V212.14H39.4257V216.332H42.016V212.14H43.9785V222.689ZM50.8401 222.689L50.2341 220.026H47.4851L46.879 222.689H44.9165L47.5284 212.097H50.1908L52.8099 222.689H50.8401ZM49.8661 218.288L49.3033 215.834C49.2696 215.685 49.1927 215.312 49.0724 214.716C48.957 214.115 48.8872 213.713 48.8632 213.511C48.8006 213.925 48.7213 214.382 48.6251 214.882C48.5289 215.377 48.2787 216.513 47.8747 218.288H49.8661ZM53.7406 212.14H55.5589V217.934C55.5589 218.535 55.5132 219.129 55.4218 219.716H55.5011L58.7191 212.14H61.129V222.689H59.3252V216.909C59.3252 216.198 59.3805 215.572 59.4911 215.033H59.3973L56.1649 222.689H53.7406V212.14ZM60.0683 208.958C59.9721 209.766 59.7076 210.358 59.2747 210.733C58.8466 211.108 58.214 211.296 57.3771 211.296C56.5594 211.296 55.9461 211.113 55.5372 210.748C55.1284 210.377 54.8854 209.781 54.8085 208.958H56.403C56.4559 209.439 56.557 209.764 56.7061 209.932C56.86 210.101 57.0981 210.185 57.4204 210.185C57.7378 210.185 57.9735 210.089 58.1275 209.896C58.2862 209.704 58.392 209.391 58.4449 208.958H60.0683ZM66.2301 222.689H64.2748V213.865H62.2545V212.14H68.2504V213.865H66.2301V222.689ZM74.138 222.689H69.3831V212.14H74.138V213.836H71.3457V216.347H73.9359V218.049H71.3457V220.972H74.138V222.689ZM85.1483 219.334C85.1483 220.402 84.8741 221.229 84.3258 221.816C83.7822 222.398 83.003 222.689 81.9881 222.689H79.3257V212.14H84.333V213.85H81.2882V216.26H81.9087C82.9766 216.26 83.7822 216.517 84.3258 217.032C84.8741 217.547 85.1483 218.314 85.1483 219.334ZM81.2882 220.986H81.8943C82.7457 220.986 83.1714 220.459 83.1714 219.406C83.1714 218.901 83.0631 218.538 82.8467 218.316C82.635 218.09 82.2743 217.977 81.7644 217.977H81.2882V220.986ZM93.7849 217.4C93.7849 219.146 93.4578 220.488 92.8036 221.426C92.1495 222.364 91.2139 222.833 89.9969 222.833C88.7752 222.833 87.8372 222.367 87.183 221.433C86.5288 220.495 86.2017 219.146 86.2017 217.386C86.2017 215.64 86.5288 214.302 87.183 213.374C87.8372 212.441 88.78 211.974 90.0114 211.974C91.2283 211.974 92.1615 212.443 92.8108 213.381C93.4602 214.314 93.7849 215.654 93.7849 217.4ZM88.2076 217.4C88.2076 218.603 88.3591 219.519 88.6621 220.149C88.9652 220.779 89.4101 221.094 89.9969 221.094C91.1802 221.094 91.7719 219.863 91.7719 217.4C91.7719 214.937 91.185 213.706 90.0114 213.706C89.4149 213.706 88.9652 214.021 88.6621 214.651C88.3591 215.276 88.2076 216.193 88.2076 217.4ZM101.844 222.689H99.8817V213.865H98.3016C98.0851 216.299 97.8687 218.309 97.6522 219.897C97.5079 220.911 97.2458 221.655 96.8658 222.126C96.4906 222.597 95.9879 222.833 95.3578 222.833C94.9682 222.833 94.6483 222.78 94.3982 222.674V221.051C94.5425 221.109 94.7205 221.138 94.9321 221.138C95.2015 221.138 95.4059 220.926 95.5454 220.503C95.6897 220.079 95.8508 219.129 96.0288 217.653C96.2116 216.176 96.4016 214.338 96.5988 212.14H101.844V222.689ZM109.463 219.334C109.463 220.397 109.182 221.222 108.619 221.809C108.057 222.395 107.258 222.689 106.224 222.689H103.713V212.14H105.676V216.26H106.181C108.369 216.26 109.463 217.285 109.463 219.334ZM105.676 220.986H106.166C107.042 220.986 107.479 220.459 107.479 219.406C107.479 218.896 107.371 218.53 107.155 218.309C106.943 218.088 106.58 217.977 106.065 217.977H105.676V220.986ZM117.003 220.957H119.283V212.14H121.246V222.689H110.813V212.14H112.775V220.957H115.055V212.14H117.003V220.957ZM127.862 222.689H123.107V212.14H127.862V213.836H125.07V216.347H127.66V218.049H125.07V220.972H127.862V222.689Z" fill="#0090D7"/>
</svg>
