<svg width="250" height="250" viewBox="0 0 250 250" fill="none" xmlns="http://www.w3.org/2000/svg">
<g clip-path="url(#clip0_4008_1163)">
<path d="M166.366 204H156V229.782H166.366C167.739 229.792 169.06 229.262 170.04 228.307C171.019 227.353 171.578 226.051 171.594 224.688V209.172C171.594 207.802 171.047 206.488 170.072 205.518C169.098 204.549 167.776 204.003 166.396 204M161.178 224.688V209.172H163.787C164.126 209.171 164.462 209.236 164.776 209.364C165.089 209.493 165.374 209.681 165.614 209.919C165.854 210.157 166.043 210.44 166.173 210.752C166.302 211.063 166.368 211.397 166.366 211.733V222.087C166.37 222.428 166.306 222.765 166.178 223.08C166.049 223.396 165.859 223.683 165.619 223.925C165.378 224.167 165.091 224.359 164.775 224.49C164.459 224.621 164.12 224.688 163.777 224.688H161.178Z" fill="white"/>
<path d="M228.832 206.581C228.83 205.903 229.097 205.25 229.576 204.767C230.056 204.283 230.708 204.008 231.391 204H234V227.26C234 227.942 233.728 228.597 233.242 229.081C232.757 229.565 232.099 229.838 231.411 229.841H228.832V206.581Z" fill="white"/>
<path d="M206.591 218.058C205.397 219.243 203.892 220.069 202.246 220.442C202.512 220.762 202.696 221.14 202.784 221.544C202.871 221.949 202.859 222.369 202.749 222.768C202.639 223.168 202.434 223.535 202.151 223.839C201.868 224.143 201.515 224.374 201.123 224.515C200.73 224.655 200.31 224.699 199.897 224.644C199.484 224.589 199.09 224.436 198.749 224.198C198.408 223.96 198.129 223.644 197.937 223.277C197.744 222.909 197.644 222.502 197.644 222.088V220.659H192.396V227.26C192.417 227.936 192.702 228.577 193.191 229.048C193.679 229.519 194.334 229.782 195.015 229.782H200.203C201.61 229.783 202.992 229.407 204.201 228.693C205.411 227.979 206.403 226.953 207.074 225.725C207.745 224.496 208.069 223.11 208.012 221.714C207.955 220.318 207.519 218.963 206.75 217.792L206.552 217.989" fill="white"/>
<path d="M197.604 211.753C197.603 211.271 197.737 210.799 197.991 210.388C198.245 209.978 198.609 209.645 199.042 209.428V204H192.396V213.172H197.594L197.604 211.753Z" fill="white"/>
<path d="M179.391 214.206V204H176.832C176.144 203.997 175.483 204.265 174.994 204.746C174.505 205.226 174.228 205.879 174.223 206.561V213.192H176.832C177.795 213.169 178.728 213.522 179.431 214.177" fill="white"/>
<path d="M189.807 213.172V206.581C189.802 205.896 189.525 205.241 189.037 204.758C188.548 204.275 187.888 204.003 187.198 204H184.599V214.206C185.305 213.556 186.236 213.203 187.198 213.221L189.807 213.172Z" fill="white"/>
<path d="M210.659 229.781H213.248C213.59 229.783 213.929 229.717 214.245 229.588C214.562 229.459 214.85 229.269 215.092 229.029C215.334 228.789 215.527 228.504 215.658 228.19C215.789 227.877 215.857 227.54 215.857 227.2V220.659H210.659V229.781Z" fill="white"/>
<path d="M215.817 213.172V206.581C215.817 205.62 216.19 204.695 216.859 204H215.817C214.444 204.013 213.132 204.564 212.166 205.532C211.2 206.501 210.659 207.809 210.659 209.172V214.206C211.361 213.558 212.289 213.205 213.248 213.221L215.817 213.172Z" fill="white"/>
<path d="M221.104 220.659H221.025V227.26C221.025 227.945 221.299 228.603 221.785 229.088C222.273 229.574 222.933 229.848 223.624 229.851H226.223V218.029C225.651 218.855 224.887 219.533 223.996 220.006C223.106 220.48 222.114 220.734 221.104 220.748" fill="white"/>
<path d="M200.203 204V209.172C200.875 209.174 201.52 209.434 202.003 209.896C202.487 210.358 202.773 210.988 202.801 211.655C202.829 212.321 202.598 212.972 202.154 213.473C201.711 213.974 201.091 214.286 200.422 214.344H187.198C186.858 214.343 186.52 214.408 186.205 214.537C185.889 214.666 185.603 214.855 185.361 215.094C185.12 215.333 184.928 215.617 184.798 215.929C184.667 216.242 184.599 216.577 184.599 216.915V224.688H181.961C181.271 224.688 180.61 224.416 180.123 223.932C179.636 223.448 179.362 222.792 179.362 222.107V216.915C179.362 216.233 179.089 215.579 178.603 215.097C178.118 214.615 177.459 214.344 176.773 214.344H174.184V224.688C174.199 226.05 174.755 227.35 175.73 228.307C176.705 229.265 178.021 229.801 179.392 229.801H184.599C185.981 229.801 187.305 229.256 188.282 228.286C189.259 227.316 189.807 226.001 189.807 224.629V219.457H200.203C202.149 219.326 203.974 218.478 205.322 217.079C206.67 215.68 207.443 213.831 207.489 211.895C207.535 209.959 206.851 208.076 205.571 206.615C204.291 205.155 202.507 204.222 200.57 204H200.203Z" fill="white"/>
<path d="M198.794 220.62V222.048C198.794 222.409 198.939 222.755 199.195 223.01C199.452 223.264 199.8 223.408 200.163 223.408C200.538 223.413 200.899 223.275 201.173 223.022C201.447 222.768 201.611 222.419 201.632 222.048C201.65 221.689 201.525 221.337 201.284 221.07C201.042 220.802 200.703 220.64 200.342 220.62H198.794Z" fill="white"/>
<path d="M182.417 230.846V232.195C182.415 232.465 182.493 232.729 182.643 232.954C182.793 233.179 183.006 233.355 183.257 233.459C183.508 233.563 183.784 233.591 184.05 233.539C184.317 233.487 184.561 233.357 184.753 233.166C184.946 232.976 185.076 232.732 185.129 232.468C185.181 232.203 185.153 231.929 185.048 231.68C184.943 231.431 184.766 231.219 184.54 231.071C184.313 230.922 184.047 230.844 183.776 230.846H182.417Z" fill="white"/>
<path d="M178.568 230.846V232.195C178.566 232.465 178.645 232.728 178.794 232.953C178.943 233.178 179.156 233.354 179.406 233.458C179.656 233.563 179.932 233.591 180.198 233.54C180.464 233.488 180.709 233.36 180.901 233.17C181.094 232.98 181.225 232.738 181.279 232.474C181.332 232.21 181.306 231.936 181.202 231.687C181.099 231.438 180.924 231.225 180.698 231.075C180.473 230.926 180.208 230.846 179.937 230.846H178.568Z" fill="white"/>
<path d="M210.659 216.915C210.659 216.233 210.931 215.579 211.417 215.097C211.903 214.615 212.561 214.344 213.248 214.344H218.495C219.186 214.394 219.868 214.169 220.392 213.719C220.915 213.269 221.238 212.631 221.288 211.945C221.338 211.259 221.111 210.582 220.658 210.062C220.205 209.542 219.563 209.222 218.872 209.172H217.087V206.581C217.086 205.913 217.346 205.271 217.813 204.79C218.279 204.309 218.915 204.025 219.586 204H221.025C222.402 204 223.722 204.543 224.697 205.508C225.672 206.474 226.22 207.785 226.223 209.152V214.344C226.22 215.712 225.672 217.024 224.698 217.992C223.723 218.959 222.403 219.504 221.025 219.506H210.659V216.915Z" fill="white"/>
</g>
<defs>
<clipPath id="clip0_4008_1163">
<rect width="78" height="29.5645" fill="white" transform="translate(156 204)"/>
</clipPath>
</defs>
</svg>
