<svg width="120" height="600" viewBox="0 0 120 600" fill="none" xmlns="http://www.w3.org/2000/svg">
<path d="M38.1455 63.126C38.1455 65.7256 37.6585 67.7236 36.6846 69.1201C35.7106 70.5166 34.3177 71.2148 32.5059 71.2148C30.6868 71.2148 29.2904 70.5202 28.3164 69.1309C27.3424 67.7344 26.8555 65.7256 26.8555 63.1045C26.8555 60.5049 27.3424 58.514 28.3164 57.1318C29.2904 55.7425 30.694 55.0479 32.5273 55.0479C34.3392 55.0479 35.7285 55.7461 36.6953 57.1426C37.6621 58.5319 38.1455 60.5264 38.1455 63.126ZM29.8418 63.126C29.8418 64.9163 30.0674 66.2806 30.5186 67.2188C30.9697 68.1569 31.6322 68.626 32.5059 68.626C34.2676 68.626 35.1484 66.7926 35.1484 63.126C35.1484 59.4593 34.2747 57.626 32.5273 57.626C31.6393 57.626 30.9697 58.0951 30.5186 59.0332C30.0674 59.9642 29.8418 61.3285 29.8418 63.126ZM40.4443 55.2949H43.1514V63.9209C43.1514 64.8161 43.0833 65.7005 42.9473 66.5742H43.0654L47.8564 55.2949H51.4443V71H48.7588V62.3955C48.7588 61.3356 48.8411 60.4046 49.0059 59.6025H48.8662L44.0537 71H40.4443V55.2949ZM49.8652 50.5576C49.722 51.7607 49.3281 52.6416 48.6836 53.2002C48.0462 53.7588 47.1045 54.0381 45.8584 54.0381C44.641 54.0381 43.7279 53.766 43.1191 53.2217C42.5104 52.6702 42.1488 51.7822 42.0342 50.5576H44.4082C44.487 51.2738 44.6374 51.7572 44.8594 52.0078C45.0885 52.2585 45.443 52.3838 45.9229 52.3838C46.3955 52.3838 46.7464 52.2406 46.9756 51.9541C47.2119 51.6676 47.3695 51.2021 47.4482 50.5576H49.8652ZM62.8848 66.0049C62.8848 67.5947 62.4766 68.8265 61.6602 69.7002C60.8509 70.5667 59.6908 71 58.1797 71H54.2158V55.2949H61.6709V57.8408H57.1377V61.4287H58.0615C59.6514 61.4287 60.8509 61.8118 61.6602 62.5781C62.4766 63.3444 62.8848 64.4867 62.8848 66.0049ZM57.1377 68.4648H58.04C59.3076 68.4648 59.9414 67.6807 59.9414 66.1123C59.9414 65.3604 59.7803 64.8197 59.458 64.4902C59.1429 64.1536 58.6058 63.9854 57.8467 63.9854H57.1377V68.4648ZM72.3701 71L71.4678 67.0361H67.375L66.4727 71H63.5508L67.4395 55.2305H71.4033L75.3027 71H72.3701ZM70.9199 64.4473L70.082 60.7949C70.0319 60.5729 69.9173 60.0179 69.7383 59.1299C69.5664 58.2347 69.4626 57.6367 69.4268 57.3359C69.3337 57.9518 69.2155 58.6322 69.0723 59.377C68.929 60.1146 68.5566 61.8047 67.9551 64.4473H70.9199ZM76.6885 55.2949H79.3955V63.9209C79.3955 64.8161 79.3275 65.7005 79.1914 66.5742H79.3096L84.1006 55.2949H87.6885V71H85.0029V62.3955C85.0029 61.3356 85.0853 60.4046 85.25 59.6025H85.1104L80.2979 71H76.6885V55.2949ZM86.1094 50.5576C85.9661 51.7607 85.5723 52.6416 84.9277 53.2002C84.2904 53.7588 83.3486 54.0381 82.1025 54.0381C80.8851 54.0381 79.972 53.766 79.3633 53.2217C78.7546 52.6702 78.3929 51.7822 78.2783 50.5576H80.6523C80.7311 51.2738 80.8815 51.7572 81.1035 52.0078C81.3327 52.2585 81.6872 52.3838 82.167 52.3838C82.6396 52.3838 82.9906 52.2406 83.2197 51.9541C83.4561 51.6676 83.6136 51.2021 83.6924 50.5576H86.1094ZM93.2314 65.9404H90.8789L90.3525 55.2949H93.7793L93.2314 65.9404ZM90.2666 69.5283C90.2666 68.9697 90.4134 68.5365 90.707 68.2285C91.0078 67.9206 91.4518 67.7666 92.0391 67.7666C92.6263 67.7666 93.0703 67.9206 93.3711 68.2285C93.6719 68.5293 93.8223 68.9626 93.8223 69.5283C93.8223 70.0869 93.6647 70.5202 93.3496 70.8281C93.0417 71.1361 92.6048 71.29 92.0391 71.29C91.459 71.29 91.0186 71.1361 90.7178 70.8281C90.417 70.513 90.2666 70.0798 90.2666 69.5283ZM42.5283 101.49H39.6924V97H32.6455V101.49H29.8096V94.4219H30.7334C32.2087 90.5046 33.154 86.1289 33.5693 81.2949H40.7451V94.4219H42.5283V101.49ZM37.8232 94.4219V83.8623H36.04C35.861 85.6025 35.571 87.4108 35.1699 89.2871C34.776 91.1562 34.3105 92.8678 33.7734 94.4219H37.8232ZM51.6914 97L50.7891 93.0361H46.6963L45.7939 97H42.8721L46.7607 81.2305H50.7246L54.624 97H51.6914ZM50.2412 90.4473L49.4033 86.7949C49.3532 86.5729 49.2386 86.0179 49.0596 85.1299C48.8877 84.2347 48.7839 83.6367 48.748 83.3359C48.6549 83.9518 48.5368 84.6322 48.3936 85.377C48.2503 86.1146 47.8779 87.8047 47.2764 90.4473H50.2412ZM56.0098 81.2949H60.0166C61.6494 81.2949 62.8382 81.6136 63.583 82.251C64.3278 82.8812 64.7002 83.8874 64.7002 85.2695C64.7002 86.179 64.5033 86.9417 64.1094 87.5576C63.7155 88.1663 63.1784 88.5352 62.498 88.6641V88.7715C63.3861 88.9935 64.027 89.4089 64.4209 90.0176C64.8148 90.6263 65.0117 91.4355 65.0117 92.4453C65.0117 93.8704 64.6286 94.9876 63.8623 95.7969C63.1032 96.599 62.0612 97 60.7363 97H56.0098V81.2949ZM58.7598 87.6113H60.1025C60.7184 87.6113 61.1517 87.4466 61.4023 87.1172C61.653 86.7878 61.7783 86.2972 61.7783 85.6455C61.7783 84.9938 61.6351 84.5283 61.3486 84.249C61.0622 83.9626 60.611 83.8193 59.9951 83.8193H58.7598V87.6113ZM58.7598 90.0498V94.4434H60.2314C60.8402 94.4434 61.2913 94.2572 61.585 93.8848C61.8857 93.5124 62.0361 92.9359 62.0361 92.1553C62.0361 90.7516 61.4202 90.0498 60.1885 90.0498H58.7598ZM74.5938 97L73.6914 93.0361H69.5986L68.6963 97H65.7744L69.6631 81.2305H73.627L77.5264 97H74.5938ZM73.1436 90.4473L72.3057 86.7949C72.2555 86.5729 72.141 86.0179 71.9619 85.1299C71.79 84.2347 71.6862 83.6367 71.6504 83.3359C71.5573 83.9518 71.4391 84.6322 71.2959 85.377C71.1527 86.1146 70.7803 87.8047 70.1787 90.4473H73.1436ZM78.9121 81.2949H81.6191V89.9209C81.6191 90.8161 81.5511 91.7005 81.415 92.5742H81.5332L86.3242 81.2949H89.9121V97H87.2266V88.3955C87.2266 87.3356 87.3089 86.4046 87.4736 85.6025H87.334L82.5215 97H78.9121V81.2949ZM88.333 76.5576C88.1898 77.7607 87.7959 78.6416 87.1514 79.2002C86.514 79.7588 85.5723 80.0381 84.3262 80.0381C83.1087 80.0381 82.1956 79.766 81.5869 79.2217C80.9782 78.6702 80.6165 77.7822 80.502 76.5576H82.876C82.9548 77.2738 83.1051 77.7572 83.3271 78.0078C83.5563 78.2585 83.9108 78.3838 84.3906 78.3838C84.8633 78.3838 85.2142 78.2406 85.4434 77.9541C85.6797 77.6676 85.8372 77.2021 85.916 76.5576H88.333ZM20.6787 107.295H24.6855C26.3184 107.295 27.5072 107.614 28.252 108.251C28.9967 108.881 29.3691 109.887 29.3691 111.27C29.3691 112.179 29.1722 112.942 28.7783 113.558C28.3844 114.166 27.8473 114.535 27.167 114.664V114.771C28.055 114.993 28.696 115.409 29.0898 116.018C29.4837 116.626 29.6807 117.436 29.6807 118.445C29.6807 119.87 29.2975 120.988 28.5312 121.797C27.7721 122.599 26.7301 123 25.4053 123H20.6787V107.295ZM23.4287 113.611H24.7715C25.3874 113.611 25.8206 113.447 26.0713 113.117C26.3219 112.788 26.4473 112.297 26.4473 111.646C26.4473 110.994 26.304 110.528 26.0176 110.249C25.7311 109.963 25.2799 109.819 24.6641 109.819H23.4287V113.611ZM23.4287 116.05V120.443H24.9004C25.5091 120.443 25.9603 120.257 26.2539 119.885C26.5547 119.512 26.7051 118.936 26.7051 118.155C26.7051 116.752 26.0892 116.05 24.8574 116.05H23.4287ZM48.7051 127.49H45.8691V123H38.8223V127.49H35.9863V120.422H36.9102C38.3854 116.505 39.3307 112.129 39.7461 107.295H46.9219V120.422H48.7051V127.49ZM44 120.422V109.862H42.2168C42.0378 111.603 41.7477 113.411 41.3467 115.287C40.9528 117.156 40.4873 118.868 39.9502 120.422H44ZM51.3584 123.215C50.6064 123.215 49.9762 123.115 49.4678 122.914V120.314C49.9906 120.522 50.5312 120.626 51.0898 120.626C51.9492 120.626 52.6117 119.827 53.0771 118.23L49.0488 107.295H52.1104L54.1084 113.429C54.2731 113.994 54.377 114.478 54.4199 114.879H54.5059L54.6562 114.148L54.8174 113.429L56.5254 107.295H59.4795L55.9775 118.402C55.4189 120.157 54.778 121.399 54.0547 122.13C53.3385 122.853 52.4398 123.215 51.3584 123.215ZM69.5449 118.005C69.5449 119.595 69.1367 120.826 68.3203 121.7C67.5111 122.567 66.3509 123 64.8398 123H60.876V107.295H68.3311V109.841H63.7979V113.429H64.7217C66.3115 113.429 67.5111 113.812 68.3203 114.578C69.1367 115.344 69.5449 116.487 69.5449 118.005ZM63.7979 120.465H64.7002C65.9678 120.465 66.6016 119.681 66.6016 118.112C66.6016 117.36 66.4404 116.82 66.1182 116.49C65.8031 116.154 65.266 115.985 64.5068 115.985H63.7979V120.465ZM79.0303 123L78.1279 119.036H74.0352L73.1328 123H70.2109L74.0996 107.23H78.0635L81.9629 123H79.0303ZM77.5801 116.447L76.7422 112.795C76.6921 112.573 76.5775 112.018 76.3984 111.13C76.2266 110.235 76.1227 109.637 76.0869 109.336C75.9938 109.952 75.8757 110.632 75.7324 111.377C75.5892 112.115 75.2168 113.805 74.6152 116.447H77.5801ZM83.3486 107.295H86.0557V115.921C86.0557 116.816 85.9876 117.701 85.8516 118.574H85.9697L90.7607 107.295H94.3486V123H91.6631V114.396C91.6631 113.336 91.7454 112.405 91.9102 111.603H91.7705L86.958 123H83.3486V107.295ZM92.7695 102.558C92.6263 103.761 92.2324 104.642 91.5879 105.2C90.9505 105.759 90.0088 106.038 88.7627 106.038C87.5452 106.038 86.6322 105.766 86.0234 105.222C85.4147 104.67 85.0531 103.782 84.9385 102.558H87.3125C87.3913 103.274 87.5417 103.757 87.7637 104.008C87.9928 104.258 88.3473 104.384 88.8271 104.384C89.2998 104.384 89.6507 104.241 89.8799 103.954C90.1162 103.668 90.2738 103.202 90.3525 102.558H92.7695ZM99.8916 117.94H97.5391L97.0127 107.295H100.439L99.8916 117.94ZM96.9268 121.528C96.9268 120.97 97.0736 120.536 97.3672 120.229C97.668 119.921 98.112 119.767 98.6992 119.767C99.2865 119.767 99.7305 119.921 100.031 120.229C100.332 120.529 100.482 120.963 100.482 121.528C100.482 122.087 100.325 122.52 100.01 122.828C99.7018 123.136 99.265 123.29 98.6992 123.29C98.1191 123.29 97.6787 123.136 97.3779 122.828C97.0771 122.513 96.9268 122.08 96.9268 121.528Z" fill="white"/>
</svg>
