<svg width="300" height="50" viewBox="0 0 300 50" fill="none" xmlns="http://www.w3.org/2000/svg">
<path d="M9 14H118.744C123.749 14 127.805 18.0569 127.805 23.0614V38.8926H18.0614C13.0569 38.8926 9 34.8356 9 29.8311V14Z" fill="white"/>
<path d="M15.7866 31.926C15.2693 31.926 14.8358 31.857 14.486 31.7191V29.9308C14.8457 30.0736 15.2176 30.1451 15.6019 30.1451C16.1931 30.1451 16.6488 29.5958 16.969 28.4972L14.1978 20.9745H16.3039L17.6784 25.194C17.7917 25.5832 17.8631 25.9157 17.8927 26.1916H17.9518L18.0553 25.6891L18.1661 25.194L19.3411 20.9745H21.3732L18.9642 28.6154C18.5799 29.8224 18.139 30.6771 17.6414 31.1796C17.1488 31.6772 16.5305 31.926 15.7866 31.926ZM27.9353 23.5313C27.9353 24.2013 27.7357 24.758 27.3367 25.2014C26.9426 25.6398 26.3736 25.9354 25.6297 26.0881V26.1473C26.4376 26.2458 27.0633 26.5167 27.5067 26.9601C27.955 27.3986 28.1791 27.9848 28.1791 28.7189C28.1791 29.714 27.8589 30.4973 27.2185 31.0688C26.583 31.6403 25.7159 31.926 24.6173 31.926C23.4547 31.926 22.5482 31.756 21.8979 31.4161V29.6574C22.627 30.0613 23.4029 30.2633 24.2256 30.2633C25.5164 30.2633 26.1617 29.6992 26.1617 28.5711C26.1617 28.0587 25.9745 27.6695 25.6001 27.4035C25.2306 27.1326 24.6813 26.9971 23.9522 26.9971H23.228V25.3492H23.8783C24.5927 25.3492 25.1198 25.226 25.4597 24.9797C25.7996 24.7284 25.9696 24.3417 25.9696 23.8195C25.9696 23.4008 25.8563 23.0805 25.6297 22.8589C25.4031 22.6322 25.0755 22.5189 24.6469 22.5189C23.9916 22.5189 23.3709 22.785 22.7847 23.317L21.8314 21.9721C22.3191 21.5533 22.8142 21.2578 23.3167 21.0853C23.8192 20.908 24.3784 20.8193 24.9942 20.8193C25.8859 20.8193 26.5977 21.0681 27.1298 21.5657C27.6668 22.0583 27.9353 22.7135 27.9353 23.5313ZM36.3373 31.7782H34.3273V27.0414H31.6744V31.7782H29.6644V20.9745H31.6744V25.2679H34.3273V20.9745H36.3373V31.7782ZM43.3649 31.7782L42.7442 29.0514H39.9287L39.308 31.7782H37.298L39.9731 20.9301H42.6998L45.3823 31.7782H43.3649ZM42.3673 27.2705L41.7909 24.758C41.7564 24.6053 41.6776 24.2235 41.5544 23.6126C41.4362 22.9968 41.3648 22.5854 41.3401 22.3785C41.2761 22.8022 41.1948 23.2702 41.0963 23.7826C40.9978 24.29 40.7416 25.4526 40.3278 27.2705H42.3673ZM46.3356 20.9745H48.1978V26.9084C48.1978 27.5242 48.151 28.1326 48.0574 28.7336H48.1387L51.4345 20.9745H53.9026V31.7782H52.0552V25.8591C52.0552 25.1299 52.1118 24.4895 52.2251 23.9377H52.1291L48.8185 31.7782H46.3356V20.9745ZM52.8163 17.7156C52.7178 18.5433 52.4468 19.1492 52.0035 19.5335C51.565 19.9178 50.9172 20.1099 50.06 20.1099C49.2225 20.1099 48.5944 19.9227 48.1756 19.5483C47.7569 19.1689 47.5081 18.5581 47.4292 17.7156H49.0624C49.1166 18.2083 49.22 18.5408 49.3727 18.7132C49.5304 18.8857 49.7742 18.9719 50.1043 18.9719C50.4295 18.9719 50.6709 18.8733 50.8285 18.6763C50.9911 18.4792 51.0995 18.159 51.1536 17.7156H52.8163ZM59.1271 31.7782H57.1245V22.7406H55.0554V20.9745H61.1962V22.7406H59.1271V31.7782ZM67.2262 31.7782H62.3564V20.9745H67.2262V22.7111H64.3664V25.2827H67.0193V27.0266H64.3664V30.0195H67.2262V31.7782ZM78.5029 28.342C78.5029 29.4357 78.2221 30.283 77.6604 30.884C77.1037 31.4801 76.3057 31.7782 75.2662 31.7782H72.5394V20.9745H77.6678V22.7258H74.5494V25.194H75.1849C76.2786 25.194 77.1037 25.4576 77.6604 25.9847C78.2221 26.5118 78.5029 27.2976 78.5029 28.342ZM74.5494 30.0342H75.1701C76.0421 30.0342 76.4781 29.4948 76.4781 28.4159C76.4781 27.8986 76.3672 27.5267 76.1456 27.3001C75.9288 27.0685 75.5593 26.9527 75.0371 26.9527H74.5494V30.0342ZM87.3483 26.3616C87.3483 28.1499 87.0133 29.5243 86.3433 30.485C85.6733 31.4457 84.7151 31.926 83.4687 31.926C82.2174 31.926 81.2568 31.4481 80.5868 30.4924C79.9168 29.5317 79.5818 28.1499 79.5818 26.3468C79.5818 24.5585 79.9168 23.1889 80.5868 22.2381C81.2568 21.2824 82.2223 20.8045 83.4835 20.8045C84.7299 20.8045 85.6856 21.2848 86.3507 22.2455C87.0158 23.2012 87.3483 24.5733 87.3483 26.3616ZM81.6361 26.3616C81.6361 27.5932 81.7913 28.5317 82.1016 29.177C82.412 29.8224 82.8677 30.1451 83.4687 30.1451C84.6806 30.1451 85.2866 28.8839 85.2866 26.3616C85.2866 23.8392 84.6856 22.578 83.4835 22.578C82.8726 22.578 82.412 22.9007 82.1016 23.5461C81.7913 24.1865 81.6361 25.125 81.6361 26.3616ZM95.6026 31.7782H93.5926V22.7406H91.9743C91.7526 25.2334 91.5309 27.2927 91.3092 28.9184C91.1614 29.9579 90.8929 30.719 90.5037 31.2018C90.1194 31.6846 89.6046 31.926 88.9593 31.926C88.5602 31.926 88.2326 31.8718 87.9764 31.7634V30.1007C88.1242 30.1599 88.3065 30.1894 88.5233 30.1894C88.7992 30.1894 89.0085 29.9727 89.1514 29.5391C89.2992 29.1056 89.4642 28.1326 89.6465 26.6202C89.8337 25.1078 90.0283 23.2259 90.2303 20.9745H95.6026V31.7782ZM103.406 28.342C103.406 29.4307 103.118 30.2756 102.542 30.8767C101.965 31.4777 101.147 31.7782 100.088 31.7782H97.5165V20.9745H99.5265V25.194H100.044C102.285 25.194 103.406 26.2433 103.406 28.342ZM99.5265 30.0342H100.029C100.926 30.0342 101.374 29.4948 101.374 28.4159C101.374 27.8937 101.263 27.5193 101.041 27.2927C100.825 27.066 100.453 26.9527 99.9256 26.9527H99.5265V30.0342ZM111.128 30.0047H113.463V20.9745H115.473V31.7782H104.788V20.9745H106.798V30.0047H109.133V20.9745H111.128V30.0047ZM122.25 31.7782H117.38V20.9745H122.25V22.7111H119.39V25.2827H122.043V27.0266H119.39V30.0195H122.25V31.7782Z" fill="#0090D7"/>
</svg>
