<svg width="300" height="50" viewBox="0 0 300 50" fill="none" xmlns="http://www.w3.org/2000/svg">
<path d="M26.3281 25.2656H24.2656V22H19.1406V25.2656H17.0781V20.125H17.75C18.8229 17.276 19.5104 14.0938 19.8125 10.5781H25.0312V20.125H26.3281V25.2656ZM22.9062 20.125V12.4453H21.6094C21.4792 13.7109 21.2682 15.026 20.9766 16.3906C20.6901 17.75 20.3516 18.9948 19.9609 20.125H22.9062ZM28.2578 22.1562C27.7109 22.1562 27.2526 22.0833 26.8828 21.9375V20.0469C27.263 20.1979 27.6562 20.2734 28.0625 20.2734C28.6875 20.2734 29.1693 19.6927 29.5078 18.5312L26.5781 10.5781H28.8047L30.2578 15.0391C30.3776 15.4505 30.4531 15.8021 30.4844 16.0938H30.5469L30.6562 15.5625L30.7734 15.0391L32.0156 10.5781H34.1641L31.6172 18.6562C31.2109 19.9323 30.7448 20.8359 30.2188 21.3672C29.6979 21.8932 29.0443 22.1562 28.2578 22.1562ZM41.4844 18.3672C41.4844 19.5234 41.1875 20.4193 40.5938 21.0547C40.0052 21.6849 39.1615 22 38.0625 22H35.1797V10.5781H40.6016V12.4297H37.3047V15.0391H37.9766C39.1328 15.0391 40.0052 15.3177 40.5938 15.875C41.1875 16.4323 41.4844 17.263 41.4844 18.3672ZM37.3047 20.1562H37.9609C38.8828 20.1562 39.3438 19.5859 39.3438 18.4453C39.3438 17.8984 39.2266 17.5052 38.9922 17.2656C38.763 17.0208 38.3724 16.8984 37.8203 16.8984H37.3047V20.1562ZM48.3828 22L47.7266 19.1172H44.75L44.0938 22H41.9688L44.7969 10.5312H47.6797L50.5156 22H48.3828ZM47.3281 17.2344L46.7188 14.5781C46.6823 14.4167 46.599 14.013 46.4688 13.3672C46.3438 12.7161 46.2682 12.2812 46.2422 12.0625C46.1745 12.5104 46.0885 13.0052 45.9844 13.5469C45.8802 14.0833 45.6094 15.3125 45.1719 17.2344H47.3281ZM51.5234 10.5781H53.4922V16.8516C53.4922 17.5026 53.4427 18.1458 53.3438 18.7812H53.4297L56.9141 10.5781H59.5234V22H57.5703V15.7422C57.5703 14.9714 57.6302 14.2943 57.75 13.7109H57.6484L54.1484 22H51.5234V10.5781ZM58.375 7.13281C58.2708 8.00781 57.9844 8.64844 57.5156 9.05469C57.0521 9.46094 56.3672 9.66406 55.4609 9.66406C54.5755 9.66406 53.9115 9.46615 53.4688 9.07031C53.026 8.66927 52.763 8.02344 52.6797 7.13281H54.4062C54.4635 7.65365 54.5729 8.00521 54.7344 8.1875C54.901 8.36979 55.1589 8.46094 55.5078 8.46094C55.8516 8.46094 56.1068 8.35677 56.2734 8.14844C56.4453 7.9401 56.5599 7.60156 56.6172 7.13281H58.375ZM61.3984 20.9297C61.3984 20.5234 61.5052 20.2083 61.7188 19.9844C61.9375 19.7604 62.2604 19.6484 62.6875 19.6484C63.1146 19.6484 63.4375 19.7604 63.6562 19.9844C63.875 20.2031 63.9844 20.5182 63.9844 20.9297C63.9844 21.3359 63.8698 21.651 63.6406 21.875C63.4167 22.099 63.099 22.2109 62.6875 22.2109C62.2656 22.2109 61.9453 22.099 61.7266 21.875C61.5078 21.6458 61.3984 21.3307 61.3984 20.9297ZM78.1406 25.2656H76.0781V22H70.9531V25.2656H68.8906V20.125H69.5625C70.6354 17.276 71.3229 14.0938 71.625 10.5781H76.8438V20.125H78.1406V25.2656ZM74.7188 20.125V12.4453H73.4219C73.2917 13.7109 73.0807 15.026 72.7891 16.3906C72.5026 17.75 72.1641 18.9948 71.7734 20.125H74.7188ZM84.8047 22L84.1484 19.1172H81.1719L80.5156 22H78.3906L81.2188 10.5312H84.1016L86.9375 22H84.8047ZM83.75 17.2344L83.1406 14.5781C83.1042 14.4167 83.0208 14.013 82.8906 13.3672C82.7656 12.7161 82.6901 12.2812 82.6641 12.0625C82.5964 12.5104 82.5104 13.0052 82.4062 13.5469C82.3021 14.0833 82.0312 15.3125 81.5938 17.2344H83.75ZM87.9453 10.5781H90.8594C92.0469 10.5781 92.9115 10.8099 93.4531 11.2734C93.9948 11.7318 94.2656 12.4635 94.2656 13.4688C94.2656 14.1302 94.1224 14.6849 93.8359 15.1328C93.5495 15.5755 93.1589 15.8438 92.6641 15.9375V16.0156C93.3099 16.1771 93.776 16.4792 94.0625 16.9219C94.349 17.3646 94.4922 17.9531 94.4922 18.6875C94.4922 19.724 94.2135 20.5365 93.6562 21.125C93.1042 21.7083 92.3464 22 91.3828 22H87.9453V10.5781ZM89.9453 15.1719H90.9219C91.3698 15.1719 91.6849 15.0521 91.8672 14.8125C92.0495 14.5729 92.1406 14.2161 92.1406 13.7422C92.1406 13.2682 92.0365 12.9297 91.8281 12.7266C91.6198 12.5182 91.2917 12.4141 90.8438 12.4141H89.9453V15.1719ZM89.9453 16.9453V20.1406H91.0156C91.4583 20.1406 91.7865 20.0052 92 19.7344C92.2188 19.4635 92.3281 19.0443 92.3281 18.4766C92.3281 17.4557 91.8802 16.9453 90.9844 16.9453H89.9453ZM101.461 22L100.805 19.1172H97.8281L97.1719 22H95.0469L97.875 10.5312H100.758L103.594 22H101.461ZM100.406 17.2344L99.7969 14.5781C99.7604 14.4167 99.6771 14.013 99.5469 13.3672C99.4219 12.7161 99.3464 12.2812 99.3203 12.0625C99.2526 12.5104 99.1667 13.0052 99.0625 13.5469C98.9583 14.0833 98.6875 15.3125 98.25 17.2344H100.406ZM104.602 10.5781H106.57V16.8516C106.57 17.5026 106.521 18.1458 106.422 18.7812H106.508L109.992 10.5781H112.602V22H110.648V15.7422C110.648 14.9714 110.708 14.2943 110.828 13.7109H110.727L107.227 22H104.602V10.5781ZM111.453 7.13281C111.349 8.00781 111.062 8.64844 110.594 9.05469C110.13 9.46094 109.445 9.66406 108.539 9.66406C107.654 9.66406 106.99 9.46615 106.547 9.07031C106.104 8.66927 105.841 8.02344 105.758 7.13281H107.484C107.542 7.65365 107.651 8.00521 107.812 8.1875C107.979 8.36979 108.237 8.46094 108.586 8.46094C108.93 8.46094 109.185 8.35677 109.352 8.14844C109.523 7.9401 109.638 7.60156 109.695 7.13281H111.453ZM25.0625 41H22.9531V31.4453H20.1328V41H18.0078V29.5781H25.0625V41ZM34.9453 35.2734C34.9453 37.1641 34.5911 38.6172 33.8828 39.6328C33.1745 40.6484 32.1615 41.1562 30.8438 41.1562C29.5208 41.1562 28.5052 40.651 27.7969 39.6406C27.0885 38.625 26.7344 37.1641 26.7344 35.2578C26.7344 33.3672 27.0885 31.9193 27.7969 30.9141C28.5052 29.9036 29.526 29.3984 30.8594 29.3984C32.1771 29.3984 33.1875 29.9062 33.8906 30.9219C34.5938 31.9323 34.9453 33.3828 34.9453 35.2734ZM28.9062 35.2734C28.9062 36.5755 29.0703 37.5677 29.3984 38.25C29.7266 38.9323 30.2083 39.2734 30.8438 39.2734C32.125 39.2734 32.7656 37.9401 32.7656 35.2734C32.7656 32.6068 32.1302 31.2734 30.8594 31.2734C30.2135 31.2734 29.7266 31.6146 29.3984 32.2969C29.0703 32.974 28.9062 33.9661 28.9062 35.2734ZM36.1719 37.625V35.7969H40.1016V37.625H36.1719ZM48.7344 41H46.6094V35.9922H43.8047V41H41.6797V29.5781H43.8047V34.1172H46.6094V29.5781H48.7344V41ZM58.6172 35.2734C58.6172 37.1641 58.263 38.6172 57.5547 39.6328C56.8464 40.6484 55.8333 41.1562 54.5156 41.1562C53.1927 41.1562 52.1771 40.651 51.4688 39.6406C50.7604 38.625 50.4062 37.1641 50.4062 35.2578C50.4062 33.3672 50.7604 31.9193 51.4688 30.9141C52.1771 29.9036 53.1979 29.3984 54.5312 29.3984C55.849 29.3984 56.8594 29.9062 57.5625 30.9219C58.2656 31.9323 58.6172 33.3828 58.6172 35.2734ZM52.5781 35.2734C52.5781 36.5755 52.7422 37.5677 53.0703 38.25C53.3984 38.9323 53.8802 39.2734 54.5156 39.2734C55.7969 39.2734 56.4375 37.9401 56.4375 35.2734C56.4375 32.6068 55.8021 31.2734 54.5312 31.2734C53.8854 31.2734 53.3984 31.6146 53.0703 32.2969C52.7422 32.974 52.5781 33.9661 52.5781 35.2734ZM60.2891 29.5781H63.2031C64.3906 29.5781 65.2552 29.8099 65.7969 30.2734C66.3385 30.7318 66.6094 31.4635 66.6094 32.4688C66.6094 33.1302 66.4661 33.6849 66.1797 34.1328C65.8932 34.5755 65.5026 34.8438 65.0078 34.9375V35.0156C65.6536 35.1771 66.1198 35.4792 66.4062 35.9219C66.6927 36.3646 66.8359 36.9531 66.8359 37.6875C66.8359 38.724 66.5573 39.5365 66 40.125C65.4479 40.7083 64.6901 41 63.7266 41H60.2891V29.5781ZM62.2891 34.1719H63.2656C63.7135 34.1719 64.0286 34.0521 64.2109 33.8125C64.3932 33.5729 64.4844 33.2161 64.4844 32.7422C64.4844 32.2682 64.3802 31.9297 64.1719 31.7266C63.9635 31.5182 63.6354 31.4141 63.1875 31.4141H62.2891V34.1719ZM62.2891 35.9453V39.1406H63.3594C63.8021 39.1406 64.1302 39.0052 64.3438 38.7344C64.5625 38.4635 64.6719 38.0443 64.6719 37.4766C64.6719 36.4557 64.224 35.9453 63.3281 35.9453H62.2891ZM76.2578 35.2734C76.2578 37.1641 75.9036 38.6172 75.1953 39.6328C74.487 40.6484 73.474 41.1562 72.1562 41.1562C70.8333 41.1562 69.8177 40.651 69.1094 39.6406C68.401 38.625 68.0469 37.1641 68.0469 35.2578C68.0469 33.3672 68.401 31.9193 69.1094 30.9141C69.8177 29.9036 70.8385 29.3984 72.1719 29.3984C73.4896 29.3984 74.5 29.9062 75.2031 30.9219C75.9062 31.9323 76.2578 33.3828 76.2578 35.2734ZM70.2188 35.2734C70.2188 36.5755 70.3828 37.5677 70.7109 38.25C71.0391 38.9323 71.5208 39.2734 72.1562 39.2734C73.4375 39.2734 74.0781 37.9401 74.0781 35.2734C74.0781 32.6068 73.4427 31.2734 72.1719 31.2734C71.526 31.2734 71.0391 31.6146 70.7109 32.2969C70.3828 32.974 70.2188 33.9661 70.2188 35.2734ZM77.9297 29.5781H79.8984V35.8516C79.8984 36.5026 79.849 37.1458 79.75 37.7812H79.8359L83.3203 29.5781H85.9297V41H83.9766V34.7422C83.9766 33.9714 84.0365 33.2943 84.1562 32.7109H84.0547L80.5547 41H77.9297V29.5781ZM84.7812 26.1328C84.6771 27.0078 84.3906 27.6484 83.9219 28.0547C83.4583 28.4609 82.7734 28.6641 81.8672 28.6641C80.9818 28.6641 80.3177 28.4661 79.875 28.0703C79.4323 27.6693 79.1693 27.0234 79.0859 26.1328H80.8125C80.8698 26.6536 80.9792 27.0052 81.1406 27.1875C81.3073 27.3698 81.5651 27.4609 81.9141 27.4609C82.2578 27.4609 82.513 27.3568 82.6797 27.1484C82.8516 26.9401 82.9661 26.6016 83.0234 26.1328H84.7812ZM87.8047 39.9297C87.8047 39.5234 87.9115 39.2083 88.125 38.9844C88.3438 38.7604 88.6667 38.6484 89.0938 38.6484C89.5208 38.6484 89.8438 38.7604 90.0625 38.9844C90.2812 39.2031 90.3906 39.5182 90.3906 39.9297C90.3906 40.3359 90.276 40.651 90.0469 40.875C89.8229 41.099 89.5052 41.2109 89.0938 41.2109C88.6719 41.2109 88.3516 41.099 88.1328 40.875C87.9141 40.6458 87.8047 40.3307 87.8047 39.9297Z" fill="white"/>
</svg>
