<?xml version="1.0" encoding="utf-8"?>
<!-- Generator: Adobe Illustrator 25.2.0, SVG Export Plug-In . SVG Version: 6.00 Build 0)  -->
<svg version="1.1" id="Layer_1" xmlns="http://www.w3.org/2000/svg" xmlns:xlink="http://www.w3.org/1999/xlink" x="0px" y="0px"
	 viewBox="0 0 100 100" style="enable-background:new 0 0 100 100;" xml:space="preserve">
<style type="text/css">
	.st0{fill:none;}
	.st1{fill:#FFFFFF;}
</style>
<g id="Layer_2_1_">
	<g id="Layer_1-2">
		<g id="Layer_2-2">
			<g id="Layer_1-2-2">
				<rect class="st0" width="100" height="100"/>
			</g>
		</g>
		<path class="st1" d="M83.7,51.7c-2.3,0-4.1,1.8-4.1,4.1c0,16.3-13.3,29.6-29.6,29.6S20.4,72.1,20.4,55.8
			c0-16.3,13.3-29.6,29.6-29.6v10c0,1.5,1,2,2.2,1.1l18-13.9c0.9-0.6,1.2-1.8,0.6-2.8c-0.2-0.2-0.4-0.4-0.6-0.6l-18-13.1
			C51,6,50,6.5,50,8v10c-20.9,0-37.8,16.9-37.8,37.8c0,20.9,16.9,37.8,37.8,37.8s37.8-16.9,37.8-37.8v0
			C87.8,53.5,85.9,51.7,83.7,51.7z"/>
	</g>
</g>
</svg>
