<svg width="120" height="600" viewBox="0 0 120 600" fill="none" xmlns="http://www.w3.org/2000/svg">
<path d="M7 465H105.839C110.346 465 114 468.654 114 473.161V487.419H15.161C10.6538 487.419 7 483.765 7 479.258V465Z" fill="white"/>
<path d="M13.0276 481.536C12.5617 481.536 12.1712 481.474 11.8562 481.349V479.739C12.1801 479.867 12.5151 479.932 12.8612 479.932C13.3936 479.932 13.804 479.437 14.0924 478.448L11.5966 471.672H13.4934L14.7313 475.473C14.8334 475.823 14.8977 476.123 14.9243 476.371H14.9776L15.0708 475.919L15.1706 475.473L16.2288 471.672H18.059L15.8894 478.554C15.5433 479.641 15.1462 480.411 14.6981 480.863C14.2544 481.312 13.6975 481.536 13.0276 481.536ZM23.969 473.975C23.969 474.579 23.7893 475.08 23.4299 475.479C23.075 475.874 22.5625 476.14 21.8925 476.278V476.331C22.6202 476.42 23.1837 476.664 23.583 477.063C23.9868 477.458 24.1886 477.986 24.1886 478.647C24.1886 479.543 23.9002 480.249 23.3234 480.764C22.7511 481.278 21.9702 481.536 20.9807 481.536C19.9336 481.536 19.1172 481.383 18.5316 481.076V479.492C19.1882 479.856 19.887 480.038 20.628 480.038C21.7905 480.038 22.3717 479.53 22.3717 478.514C22.3717 478.053 22.2031 477.702 21.8659 477.463C21.5331 477.219 21.0384 477.097 20.3818 477.097H19.7295V475.612H20.3152C20.9586 475.612 21.4333 475.501 21.7395 475.28C22.0456 475.053 22.1987 474.705 22.1987 474.235C22.1987 473.858 22.0966 473.569 21.8925 473.37C21.6884 473.165 21.3934 473.063 21.0074 473.063C20.4173 473.063 19.8582 473.303 19.3302 473.782L18.4717 472.571C18.9109 472.194 19.3568 471.928 19.8094 471.772C20.262 471.612 20.7656 471.533 21.3202 471.533C22.1232 471.533 22.7644 471.757 23.2436 472.205C23.7272 472.649 23.969 473.239 23.969 473.975ZM31.5362 481.403H29.7259V477.136H27.3366V481.403H25.5264V471.672H27.3366V475.539H29.7259V471.672H31.5362V481.403ZM37.8655 481.403L37.3064 478.947H34.7707L34.2116 481.403H32.4014L34.8106 471.632H37.2665L39.6824 481.403H37.8655ZM36.967 477.343L36.4479 475.08C36.4168 474.942 36.3458 474.599 36.2349 474.048C36.1284 473.494 36.0641 473.123 36.0419 472.937C35.9842 473.318 35.911 473.74 35.8222 474.201C35.7335 474.658 35.5028 475.706 35.1301 477.343H36.967ZM40.5409 471.672H42.2181V477.017C42.2181 477.571 42.1759 478.119 42.0916 478.661H42.1648L45.1331 471.672H47.356V481.403H45.6922V476.072C45.6922 475.415 45.7432 474.838 45.8453 474.341H45.7587L42.7771 481.403H40.5409V471.672ZM46.3777 468.737C46.2889 469.483 46.0449 470.029 45.6456 470.375C45.2507 470.721 44.6673 470.894 43.8952 470.894C43.141 470.894 42.5752 470.725 42.1981 470.388C41.821 470.046 41.5969 469.496 41.5259 468.737H42.9968C43.0456 469.181 43.1387 469.481 43.2763 469.636C43.4183 469.791 43.6379 469.869 43.9352 469.869C44.228 469.869 44.4454 469.78 44.5874 469.603C44.7338 469.425 44.8314 469.137 44.8802 468.737H46.3777ZM52.0614 481.403H50.2578V473.263H48.3943V471.672H53.9249V473.263H52.0614V481.403ZM59.3557 481.403H54.9698V471.672H59.3557V473.236H56.7801V475.552H59.1693V477.123H56.7801V479.819H59.3557V481.403ZM69.5118 478.308C69.5118 479.293 69.2589 480.056 68.7531 480.597C68.2517 481.134 67.5329 481.403 66.5967 481.403H64.1409V471.672H68.7597V473.25H65.9512V475.473H66.5235C67.5085 475.473 68.2517 475.71 68.7531 476.185C69.2589 476.659 69.5118 477.367 69.5118 478.308ZM65.9512 479.832H66.5102C67.2956 479.832 67.6882 479.346 67.6882 478.374C67.6882 477.908 67.5884 477.573 67.3887 477.369C67.1935 477.161 66.8607 477.057 66.3904 477.057H65.9512V479.832ZM77.4783 476.524C77.4783 478.135 77.1766 479.373 76.5732 480.238C75.9697 481.103 75.1068 481.536 73.9842 481.536C72.8572 481.536 71.992 481.105 71.3886 480.245C70.7852 479.379 70.4835 478.135 70.4835 476.511C70.4835 474.9 70.7852 473.667 71.3886 472.81C71.992 471.95 72.8617 471.519 73.9975 471.519C75.1201 471.519 75.9808 471.952 76.5798 472.817C77.1788 473.678 77.4783 474.914 77.4783 476.524ZM72.3337 476.524C72.3337 477.633 72.4735 478.479 72.753 479.06C73.0325 479.641 73.4429 479.932 73.9842 479.932C75.0757 479.932 75.6214 478.796 75.6214 476.524C75.6214 474.252 75.0801 473.117 73.9975 473.117C73.4474 473.117 73.0325 473.407 72.753 473.988C72.4735 474.565 72.3337 475.41 72.3337 476.524ZM84.9124 481.403H83.1021V473.263H81.6446C81.4449 475.508 81.2452 477.363 81.0456 478.827C80.9125 479.763 80.6707 480.449 80.3201 480.883C79.9741 481.318 79.5104 481.536 78.9292 481.536C78.5698 481.536 78.2747 481.487 78.044 481.389V479.892C78.1771 479.945 78.3413 479.972 78.5365 479.972C78.785 479.972 78.9735 479.776 79.1022 479.386C79.2353 478.996 79.384 478.119 79.5481 476.757C79.7167 475.395 79.892 473.7 80.0739 471.672H84.9124V481.403ZM91.9405 478.308C91.9405 479.288 91.6809 480.049 91.1618 480.591C90.6427 481.132 89.9061 481.403 88.9522 481.403H86.6361V471.672H88.4464V475.473H88.9123C90.9311 475.473 91.9405 476.418 91.9405 478.308ZM88.4464 479.832H88.8989C89.7065 479.832 90.1102 479.346 90.1102 478.374C90.1102 477.904 90.0104 477.567 89.8107 477.363C89.6155 477.159 89.2805 477.057 88.8058 477.057H88.4464V479.832ZM98.8953 479.805H100.998V471.672H102.809V481.403H93.185V471.672H94.9953V479.805H97.0984V471.672H98.8953V479.805ZM108.912 481.403H104.526V471.672H108.912V473.236H106.336V475.552H108.725V477.123H106.336V479.819H108.912V481.403Z" fill="#0090D7"/>
</svg>
