<svg width="728" height="90" viewBox="0 0 728 90" fill="none" xmlns="http://www.w3.org/2000/svg">
<path d="M34.125 57H29.875V37.8906H26.4531C25.9844 43.1615 25.5156 47.5156 25.0469 50.9531C24.7344 53.151 24.1667 54.7604 23.3438 55.7812C22.5312 56.8021 21.4427 57.3125 20.0781 57.3125C19.2344 57.3125 18.5417 57.1979 18 56.9688V53.4531C18.3125 53.5781 18.6979 53.6406 19.1562 53.6406C19.7396 53.6406 20.1823 53.1823 20.4844 52.2656C20.7969 51.349 21.1458 49.2917 21.5312 46.0938C21.9271 42.8958 22.3385 38.9167 22.7656 34.1562H34.125V57ZM48.4688 57H38.1719V34.1562H48.4688V37.8281H42.4219V43.2656H48.0312V46.9531H42.4219V53.2812H48.4688V57ZM58.8125 57H54.5781V37.8906H50.2031V34.1562H63.1875V37.8906H58.8125V57ZM65.6406 34.1562H69.5781V46.7031C69.5781 48.0052 69.4792 49.2917 69.2812 50.5625H69.4531L76.4219 34.1562H81.6406V57H77.7344V44.4844C77.7344 42.9427 77.8542 41.5885 78.0938 40.4219H77.8906L70.8906 57H65.6406V34.1562ZM108.484 57H103.719L97.8594 45.4219V57H93.6406V34.1562H97.8594V45.2188L103.812 34.1562H108.359L102.094 45.1562L108.484 57ZM132.531 57H128.281V46.9844H122.672V57H118.422V34.1562H122.672V43.2344H128.281V34.1562H132.531V57ZM147.391 57L146.078 51.2344H140.125L138.812 57H134.562L140.219 34.0625H145.984L151.656 57H147.391ZM145.281 47.4688L144.062 42.1562C143.99 41.8333 143.823 41.026 143.562 39.7344C143.312 38.4323 143.161 37.5625 143.109 37.125C142.974 38.0208 142.802 39.0104 142.594 40.0938C142.385 41.1667 141.844 43.625 140.969 47.4688H145.281ZM161.828 57L157.484 37.5469H157.312C157.51 39.0469 157.609 40.4219 157.609 41.6719V57H153.672V34.1562H160.203L164.109 52.1094H164.234L168.109 34.1562H174.734V57H170.703V41.5156C170.703 40.2344 170.776 38.9219 170.922 37.5781H170.797L166.469 57H161.828Z" fill="white"/>
</svg>
