<svg width="300" height="50" viewBox="0 0 300 50" fill="none" xmlns="http://www.w3.org/2000/svg">
<path d="M26.3281 25.2656H24.2656V22H19.1406V25.2656H17.0781V20.125H17.75C18.8229 17.276 19.5104 14.0938 19.8125 10.5781H25.0312V20.125H26.3281V25.2656ZM22.9062 20.125V12.4453H21.6094C21.4792 13.7109 21.2682 15.026 20.9766 16.3906C20.6901 17.75 20.3516 18.9948 19.9609 20.125H22.9062ZM28.2578 22.1562C27.7109 22.1562 27.2526 22.0833 26.8828 21.9375V20.0469C27.263 20.1979 27.6562 20.2734 28.0625 20.2734C28.6875 20.2734 29.1693 19.6927 29.5078 18.5312L26.5781 10.5781H28.8047L30.2578 15.0391C30.3776 15.4505 30.4531 15.8021 30.4844 16.0938H30.5469L30.6562 15.5625L30.7734 15.0391L32.0156 10.5781H34.1641L31.6172 18.6562C31.2109 19.9323 30.7448 20.8359 30.2188 21.3672C29.6979 21.8932 29.0443 22.1562 28.2578 22.1562ZM41.4844 18.3672C41.4844 19.5234 41.1875 20.4193 40.5938 21.0547C40.0052 21.6849 39.1615 22 38.0625 22H35.1797V10.5781H40.6016V12.4297H37.3047V15.0391H37.9766C39.1328 15.0391 40.0052 15.3177 40.5938 15.875C41.1875 16.4323 41.4844 17.263 41.4844 18.3672ZM37.3047 20.1562H37.9609C38.8828 20.1562 39.3438 19.5859 39.3438 18.4453C39.3438 17.8984 39.2266 17.5052 38.9922 17.2656C38.763 17.0208 38.3724 16.8984 37.8203 16.8984H37.3047V20.1562ZM48.3828 22L47.7266 19.1172H44.75L44.0938 22H41.9688L44.7969 10.5312H47.6797L50.5156 22H48.3828ZM47.3281 17.2344L46.7188 14.5781C46.6823 14.4167 46.599 14.013 46.4688 13.3672C46.3438 12.7161 46.2682 12.2812 46.2422 12.0625C46.1745 12.5104 46.0885 13.0052 45.9844 13.5469C45.8802 14.0833 45.6094 15.3125 45.1719 17.2344H47.3281ZM51.5234 10.5781H53.4922V16.8516C53.4922 17.5026 53.4427 18.1458 53.3438 18.7812H53.4297L56.9141 10.5781H59.5234V22H57.5703V15.7422C57.5703 14.9714 57.6302 14.2943 57.75 13.7109H57.6484L54.1484 22H51.5234V10.5781ZM58.375 7.13281C58.2708 8.00781 57.9844 8.64844 57.5156 9.05469C57.0521 9.46094 56.3672 9.66406 55.4609 9.66406C54.5755 9.66406 53.9115 9.46615 53.4688 9.07031C53.026 8.66927 52.763 8.02344 52.6797 7.13281H54.4062C54.4635 7.65365 54.5729 8.00521 54.7344 8.1875C54.901 8.36979 55.1589 8.46094 55.5078 8.46094C55.8516 8.46094 56.1068 8.35677 56.2734 8.14844C56.4453 7.9401 56.5599 7.60156 56.6172 7.13281H58.375ZM61.3984 20.9297C61.3984 20.5234 61.5052 20.2083 61.7188 19.9844C61.9375 19.7604 62.2604 19.6484 62.6875 19.6484C63.1146 19.6484 63.4375 19.7604 63.6562 19.9844C63.875 20.2031 63.9844 20.5182 63.9844 20.9297C63.9844 21.3359 63.8698 21.651 63.6406 21.875C63.4167 22.099 63.099 22.2109 62.6875 22.2109C62.2656 22.2109 61.9453 22.099 61.7266 21.875C61.5078 21.6458 61.3984 21.3307 61.3984 20.9297ZM78.1406 25.2656H76.0781V22H70.9531V25.2656H68.8906V20.125H69.5625C70.6354 17.276 71.3229 14.0938 71.625 10.5781H76.8438V20.125H78.1406V25.2656ZM74.7188 20.125V12.4453H73.4219C73.2917 13.7109 73.0807 15.026 72.7891 16.3906C72.5026 17.75 72.1641 18.9948 71.7734 20.125H74.7188ZM84.8047 22L84.1484 19.1172H81.1719L80.5156 22H78.3906L81.2188 10.5312H84.1016L86.9375 22H84.8047ZM83.75 17.2344L83.1406 14.5781C83.1042 14.4167 83.0208 14.013 82.8906 13.3672C82.7656 12.7161 82.6901 12.2812 82.6641 12.0625C82.5964 12.5104 82.5104 13.0052 82.4062 13.5469C82.3021 14.0833 82.0312 15.3125 81.5938 17.2344H83.75ZM87.9453 10.5781H90.8594C92.0469 10.5781 92.9115 10.8099 93.4531 11.2734C93.9948 11.7318 94.2656 12.4635 94.2656 13.4688C94.2656 14.1302 94.1224 14.6849 93.8359 15.1328C93.5495 15.5755 93.1589 15.8438 92.6641 15.9375V16.0156C93.3099 16.1771 93.776 16.4792 94.0625 16.9219C94.349 17.3646 94.4922 17.9531 94.4922 18.6875C94.4922 19.724 94.2135 20.5365 93.6562 21.125C93.1042 21.7083 92.3464 22 91.3828 22H87.9453V10.5781ZM89.9453 15.1719H90.9219C91.3698 15.1719 91.6849 15.0521 91.8672 14.8125C92.0495 14.5729 92.1406 14.2161 92.1406 13.7422C92.1406 13.2682 92.0365 12.9297 91.8281 12.7266C91.6198 12.5182 91.2917 12.4141 90.8438 12.4141H89.9453V15.1719ZM89.9453 16.9453V20.1406H91.0156C91.4583 20.1406 91.7865 20.0052 92 19.7344C92.2188 19.4635 92.3281 19.0443 92.3281 18.4766C92.3281 17.4557 91.8802 16.9453 90.9844 16.9453H89.9453ZM101.461 22L100.805 19.1172H97.8281L97.1719 22H95.0469L97.875 10.5312H100.758L103.594 22H101.461ZM100.406 17.2344L99.7969 14.5781C99.7604 14.4167 99.6771 14.013 99.5469 13.3672C99.4219 12.7161 99.3464 12.2812 99.3203 12.0625C99.2526 12.5104 99.1667 13.0052 99.0625 13.5469C98.9583 14.0833 98.6875 15.3125 98.25 17.2344H100.406ZM104.602 10.5781H106.57V16.8516C106.57 17.5026 106.521 18.1458 106.422 18.7812H106.508L109.992 10.5781H112.602V22H110.648V15.7422C110.648 14.9714 110.708 14.2943 110.828 13.7109H110.727L107.227 22H104.602V10.5781ZM111.453 7.13281C111.349 8.00781 111.062 8.64844 110.594 9.05469C110.13 9.46094 109.445 9.66406 108.539 9.66406C107.654 9.66406 106.99 9.46615 106.547 9.07031C106.104 8.66927 105.841 8.02344 105.758 7.13281H107.484C107.542 7.65365 107.651 8.00521 107.812 8.1875C107.979 8.36979 108.237 8.46094 108.586 8.46094C108.93 8.46094 109.185 8.35677 109.352 8.14844C109.523 7.9401 109.638 7.60156 109.695 7.13281H111.453ZM25.0625 41H22.9531V31.4453H20.1328V41H18.0078V29.5781H25.0625V41ZM34.9453 35.2734C34.9453 37.1641 34.5911 38.6172 33.8828 39.6328C33.1745 40.6484 32.1615 41.1562 30.8438 41.1562C29.5208 41.1562 28.5052 40.651 27.7969 39.6406C27.0885 38.625 26.7344 37.1641 26.7344 35.2578C26.7344 33.3672 27.0885 31.9193 27.7969 30.9141C28.5052 29.9036 29.526 29.3984 30.8594 29.3984C32.1771 29.3984 33.1875 29.9062 33.8906 30.9219C34.5938 31.9323 34.9453 33.3828 34.9453 35.2734ZM28.9062 35.2734C28.9062 36.5755 29.0703 37.5677 29.3984 38.25C29.7266 38.9323 30.2083 39.2734 30.8438 39.2734C32.125 39.2734 32.7656 37.9401 32.7656 35.2734C32.7656 32.6068 32.1302 31.2734 30.8594 31.2734C30.2135 31.2734 29.7266 31.6146 29.3984 32.2969C29.0703 32.974 28.9062 33.9661 28.9062 35.2734ZM47.625 41H45.5V35.9922H42.6953V41H40.5703V29.5781H42.6953V34.1172H45.5V29.5781H47.625V41ZM57.5078 35.2734C57.5078 37.1641 57.1536 38.6172 56.4453 39.6328C55.737 40.6484 54.724 41.1562 53.4062 41.1562C52.0833 41.1562 51.0677 40.651 50.3594 39.6406C49.651 38.625 49.2969 37.1641 49.2969 35.2578C49.2969 33.3672 49.651 31.9193 50.3594 30.9141C51.0677 29.9036 52.0885 29.3984 53.4219 29.3984C54.7396 29.3984 55.75 29.9062 56.4531 30.9219C57.1562 31.9323 57.5078 33.3828 57.5078 35.2734ZM51.4688 35.2734C51.4688 36.5755 51.6328 37.5677 51.9609 38.25C52.2891 38.9323 52.7708 39.2734 53.4062 39.2734C54.6875 39.2734 55.3281 37.9401 55.3281 35.2734C55.3281 32.6068 54.6927 31.2734 53.4219 31.2734C52.776 31.2734 52.2891 31.6146 51.9609 32.2969C51.6328 32.974 51.4688 33.9661 51.4688 35.2734ZM59.1797 29.5781H62.0938C63.2812 29.5781 64.1458 29.8099 64.6875 30.2734C65.2292 30.7318 65.5 31.4635 65.5 32.4688C65.5 33.1302 65.3568 33.6849 65.0703 34.1328C64.7839 34.5755 64.3932 34.8438 63.8984 34.9375V35.0156C64.5443 35.1771 65.0104 35.4792 65.2969 35.9219C65.5833 36.3646 65.7266 36.9531 65.7266 37.6875C65.7266 38.724 65.4479 39.5365 64.8906 40.125C64.3385 40.7083 63.5807 41 62.6172 41H59.1797V29.5781ZM61.1797 34.1719H62.1562C62.6042 34.1719 62.9193 34.0521 63.1016 33.8125C63.2839 33.5729 63.375 33.2161 63.375 32.7422C63.375 32.2682 63.2708 31.9297 63.0625 31.7266C62.8542 31.5182 62.526 31.4141 62.0781 31.4141H61.1797V34.1719ZM61.1797 35.9453V39.1406H62.25C62.6927 39.1406 63.0208 39.0052 63.2344 38.7344C63.4531 38.4635 63.5625 38.0443 63.5625 37.4766C63.5625 36.4557 63.1146 35.9453 62.2188 35.9453H61.1797ZM75.1484 35.2734C75.1484 37.1641 74.7943 38.6172 74.0859 39.6328C73.3776 40.6484 72.3646 41.1562 71.0469 41.1562C69.724 41.1562 68.7083 40.651 68 39.6406C67.2917 38.625 66.9375 37.1641 66.9375 35.2578C66.9375 33.3672 67.2917 31.9193 68 30.9141C68.7083 29.9036 69.7292 29.3984 71.0625 29.3984C72.3802 29.3984 73.3906 29.9062 74.0938 30.9219C74.7969 31.9323 75.1484 33.3828 75.1484 35.2734ZM69.1094 35.2734C69.1094 36.5755 69.2734 37.5677 69.6016 38.25C69.9297 38.9323 70.4115 39.2734 71.0469 39.2734C72.3281 39.2734 72.9688 37.9401 72.9688 35.2734C72.9688 32.6068 72.3333 31.2734 71.0625 31.2734C70.4167 31.2734 69.9297 31.6146 69.6016 32.2969C69.2734 32.974 69.1094 33.9661 69.1094 35.2734ZM76.8203 29.5781H78.7891V35.8516C78.7891 36.5026 78.7396 37.1458 78.6406 37.7812H78.7266L82.2109 29.5781H84.8203V41H82.8672V34.7422C82.8672 33.9714 82.9271 33.2943 83.0469 32.7109H82.9453L79.4453 41H76.8203V29.5781ZM83.6719 26.1328C83.5677 27.0078 83.2812 27.6484 82.8125 28.0547C82.349 28.4609 81.6641 28.6641 80.7578 28.6641C79.8724 28.6641 79.2083 28.4661 78.7656 28.0703C78.3229 27.6693 78.0599 27.0234 77.9766 26.1328H79.7031C79.7604 26.6536 79.8698 27.0052 80.0312 27.1875C80.1979 27.3698 80.4557 27.4609 80.8047 27.4609C81.1484 27.4609 81.4036 27.3568 81.5703 27.1484C81.7422 26.9401 81.8568 26.6016 81.9141 26.1328H83.6719ZM86.6953 39.9297C86.6953 39.5234 86.8021 39.2083 87.0156 38.9844C87.2344 38.7604 87.5573 38.6484 87.9844 38.6484C88.4115 38.6484 88.7344 38.7604 88.9531 38.9844C89.1719 39.2031 89.2812 39.5182 89.2812 39.9297C89.2812 40.3359 89.1667 40.651 88.9375 40.875C88.7135 41.099 88.3958 41.2109 87.9844 41.2109C87.5625 41.2109 87.2422 41.099 87.0234 40.875C86.8047 40.6458 86.6953 40.3307 86.6953 39.9297Z" fill="white"/>
</svg>
