<svg width="970" height="250" viewBox="0 0 970 250" fill="none" xmlns="http://www.w3.org/2000/svg">
<path d="M669 174H922.048C931.41 174 939 181.59 939 190.952V220H685.952C676.59 220 669 212.41 669 203.048V174Z" fill="white"/>
<path d="M686.145 207.22C685.177 207.22 684.366 207.091 683.712 206.833V203.487C684.385 203.755 685.08 203.888 685.799 203.888C686.905 203.888 687.758 202.861 688.357 200.805L683.173 186.732H687.113L689.684 194.626C689.896 195.354 690.03 195.976 690.085 196.492H690.196L690.389 195.552L690.596 194.626L692.795 186.732H696.596L692.089 201.027C691.371 203.285 690.546 204.884 689.615 205.824C688.693 206.755 687.537 207.22 686.145 207.22ZM708.873 191.515C708.873 192.769 708.499 193.81 707.753 194.64C707.016 195.46 705.951 196.013 704.559 196.299V196.409C706.071 196.594 707.241 197.1 708.071 197.93C708.909 198.75 709.329 199.847 709.329 201.22C709.329 203.082 708.73 204.547 707.532 205.616C706.343 206.686 704.721 207.22 702.665 207.22C700.49 207.22 698.794 206.902 697.578 206.266V202.976C698.942 203.732 700.393 204.11 701.933 204.11C704.347 204.11 705.555 203.054 705.555 200.944C705.555 199.985 705.204 199.257 704.504 198.759C703.813 198.253 702.785 197.999 701.421 197.999H700.066V194.916H701.283C702.619 194.916 703.605 194.686 704.241 194.225C704.877 193.755 705.195 193.031 705.195 192.054C705.195 191.271 704.983 190.672 704.559 190.257C704.135 189.833 703.522 189.621 702.721 189.621C701.495 189.621 700.334 190.119 699.237 191.114L697.453 188.598C698.366 187.815 699.292 187.262 700.232 186.939C701.172 186.608 702.218 186.442 703.37 186.442C705.039 186.442 706.37 186.907 707.366 187.838C708.37 188.76 708.873 189.985 708.873 191.515ZM724.591 206.944H720.831V198.082H715.868V206.944H712.108V186.732H715.868V194.764H720.831V186.732H724.591V206.944ZM737.738 206.944L736.577 201.842H731.31L730.149 206.944H726.388L731.393 186.649H736.494L741.513 206.944H737.738ZM735.872 198.511L734.794 193.81C734.729 193.524 734.582 192.81 734.351 191.667C734.13 190.515 733.997 189.746 733.951 189.359C733.831 190.151 733.679 191.027 733.494 191.985C733.31 192.935 732.831 195.11 732.057 198.511H735.872ZM743.296 186.732H746.78V197.833C746.78 198.985 746.692 200.123 746.517 201.248H746.669L752.835 186.732H757.452V206.944H753.996V195.87C753.996 194.506 754.102 193.308 754.314 192.276H754.135L747.941 206.944H743.296V186.732ZM755.42 180.635C755.236 182.184 754.729 183.317 753.899 184.036C753.079 184.755 751.867 185.114 750.264 185.114C748.697 185.114 747.522 184.764 746.738 184.064C745.955 183.354 745.489 182.211 745.342 180.635H748.397C748.499 181.557 748.692 182.179 748.978 182.502C749.273 182.824 749.729 182.985 750.347 182.985C750.955 182.985 751.406 182.801 751.701 182.433C752.006 182.064 752.208 181.465 752.31 180.635H755.42ZM767.226 206.944H763.48V190.036H759.609V186.732H771.097V190.036H767.226V206.944ZM782.378 206.944H773.268V186.732H782.378V189.981H777.028V194.792H781.991V198.054H777.028V203.653H782.378V206.944ZM804.802 206.944H801.069V190.036H796.078V206.944H792.318V186.732H804.802V206.944ZM822.29 196.81C822.29 200.156 821.663 202.727 820.41 204.524C819.156 206.321 817.364 207.22 815.032 207.22C812.691 207.22 810.894 206.326 809.64 204.538C808.387 202.741 807.76 200.156 807.76 196.782C807.76 193.437 808.387 190.875 809.64 189.096C810.894 187.308 812.7 186.414 815.06 186.414C817.391 186.414 819.179 187.313 820.424 189.11C821.668 190.898 822.29 193.465 822.29 196.81ZM811.604 196.81C811.604 199.114 811.894 200.87 812.475 202.077C813.055 203.285 813.908 203.888 815.032 203.888C817.299 203.888 818.433 201.529 818.433 196.81C818.433 192.091 817.309 189.732 815.06 189.732C813.917 189.732 813.055 190.336 812.475 191.543C811.894 192.741 811.604 194.497 811.604 196.81ZM839.972 212.722H836.322V206.944H827.253V212.722H823.603V203.626H824.792C826.691 198.584 827.907 192.953 828.442 186.732H837.677V203.626H839.972V212.722ZM833.917 203.626V190.036H831.622C831.391 192.276 831.018 194.603 830.502 197.018C829.995 199.423 829.396 201.626 828.705 203.626H833.917ZM853.216 192.953C853.216 195.1 852.672 196.75 851.584 197.902C850.506 199.045 848.944 199.617 846.898 199.617H845.958V206.944H842.198V186.732H847.326C851.253 186.732 853.216 188.806 853.216 192.953ZM845.958 196.354H846.677C847.598 196.354 848.285 196.1 848.737 195.594C849.188 195.087 849.414 194.257 849.414 193.105C849.414 192.045 849.207 191.262 848.792 190.755C848.377 190.239 847.737 189.981 846.87 189.981H845.958V196.354ZM869.681 196.81C869.681 200.156 869.054 202.727 867.801 204.524C866.547 206.321 864.755 207.22 862.423 207.22C860.082 207.22 858.285 206.326 857.031 204.538C855.778 202.741 855.151 200.156 855.151 196.782C855.151 193.437 855.778 190.875 857.031 189.096C858.285 187.308 860.091 186.414 862.451 186.414C864.782 186.414 866.57 187.313 867.815 189.11C869.059 190.898 869.681 193.465 869.681 196.81ZM858.994 196.81C858.994 199.114 859.285 200.87 859.865 202.077C860.446 203.285 861.299 203.888 862.423 203.888C864.69 203.888 865.824 201.529 865.824 196.81C865.824 192.091 864.699 189.732 862.451 189.732C861.308 189.732 860.446 190.336 859.865 191.543C859.285 192.741 858.994 194.497 858.994 196.81ZM883.796 200.515C883.796 202.561 883.271 204.146 882.22 205.271C881.178 206.386 879.685 206.944 877.741 206.944H872.639V186.732H882.234V190.008H876.4V194.626H877.589C879.635 194.626 881.178 195.119 882.22 196.105C883.271 197.091 883.796 198.561 883.796 200.515ZM876.4 203.681H877.561C879.192 203.681 880.008 202.672 880.008 200.653C880.008 199.686 879.801 198.99 879.386 198.566C878.98 198.133 878.289 197.916 877.312 197.916H876.4V203.681ZM898.92 206.944H895.16V198.082H890.197V206.944H886.436V186.732H890.197V194.764H895.16V186.732H898.92V206.944ZM911.611 206.944H902.501V186.732H911.611V189.981H906.261V194.792H911.224V198.054H906.261V203.653H911.611V206.944ZM923.666 206.944H914.556V186.732H923.666V189.981H918.316V194.792H923.279V198.054H918.316V203.653H923.666V206.944Z" fill="#0090D7"/>
</svg>
