<svg width="175" height="32" viewBox="0 0 175 32" fill="none" xmlns="http://www.w3.org/2000/svg">
<path d="M31.7609 1.536L30.7526 3.072C37.3064 5.632 39.8272 10.752 39.8272 15.872C39.8272 18.432 39.0709 20.736 37.8106 20.736H20.9219C18.6532 20.736 17.897 19.968 18.9053 17.92C20.6698 14.336 26.2153 7.168 29.7443 2.816C30.2485 2.304 30.7526 1.28 28.9881 0.768C26.9716 0.256 23.9467 0 21.6781 0C8.82247 0 0 6.912 0 15.872C0 24.064 7.56212 32 21.426 32C27.4757 32 35.0378 30.208 39.323 25.344H35.542C31.5088 29.184 25.9633 29.952 21.426 29.952C10.3349 29.952 3.27692 24.064 3.27692 15.872C3.27692 8.448 11.3432 1.536 21.426 1.536C22.6864 1.536 22.9384 1.792 21.6781 3.328C19.1574 6.656 14.368 13.056 12.3515 16.896C10.0828 21.248 12.3515 24.32 17.6449 24.32H38.8189C40.0792 24.32 40.8354 23.552 41.5916 22.272C42.0958 21.248 43.1041 18.944 43.1041 15.872C43.1041 9.984 38.5668 4.352 31.7609 1.536Z" fill="white"/>
<path d="M98.0555 21.248H77.8898C78.1419 19.456 79.1502 17.92 81.9229 17.92H94.2744V14.848H77.6377C77.8898 13.568 79.1502 11.776 82.175 11.776H95.2827V9.98397L104.609 16.896L98.0555 21.248ZM169.644 14.848H155.275C155.78 13.056 157.292 11.776 159.813 11.776H173.425V8.44797H158.804C150.738 8.44797 148.722 14.592 148.722 17.92H166.367C168.887 17.92 168.887 21.248 166.367 21.248C163.846 21.248 146.705 21.248 146.705 21.248V8.44797H140.907V21.248H131.077C128.556 21.248 127.296 19.968 127.296 17.92C127.296 15.616 127.296 8.44797 127.296 8.44797H117.717L109.147 13.824L101.837 8.44797H80.9147C74.865 8.44797 70.5798 12.032 70.0756 16.64H74.1088C72.5963 17.664 71.336 19.456 70.5798 21.248H58.2283C55.9597 21.248 54.6993 19.968 54.6993 17.664V8.44797H48.6496V16.384C48.6496 21.248 51.4224 24.576 57.22 24.576H98.5596L107.13 19.2L114.44 24.576H123.263L111.919 16.128L121.246 10.24V19.2C121.246 22.016 124.775 24.576 128.052 24.576H169.391C176.954 24.32 176.702 14.848 169.644 14.848Z" fill="white"/>
</svg>
