<svg width="970" height="250" viewBox="0 0 970 250" fill="none" xmlns="http://www.w3.org/2000/svg">
<g clip-path="url(#clip0_4013_2126)">
<path d="M811.491 33H792V81.4759H811.491C814.072 81.4956 816.556 80.4989 818.398 78.704C820.24 76.9091 821.291 74.4622 821.321 71.8992V42.7248C821.321 40.1488 820.292 37.6781 818.459 35.8549C816.627 34.0316 814.141 33.0049 811.547 33M801.736 71.8992V42.7248H806.642C807.279 42.7224 807.911 42.8453 808.501 43.0864C809.09 43.3276 809.626 43.6822 810.076 44.13C810.527 44.5777 810.884 45.1095 811.127 45.695C811.37 46.2804 811.494 46.9077 811.491 47.5409V67.009C811.499 67.6487 811.378 68.2832 811.137 68.8762C810.896 69.4693 810.538 70.0088 810.085 70.4636C809.633 70.9185 809.093 71.2796 808.499 71.5259C807.905 71.7724 807.267 71.8993 806.623 71.8992H801.736Z" fill="white"/>
<path d="M928.942 37.8531C928.938 36.5773 929.44 35.3512 930.342 34.4421C931.243 33.533 932.469 33.0147 933.754 33H938.66V76.7339C938.66 78.0178 938.148 79.2495 937.235 80.159C936.323 81.0686 935.084 81.5821 933.792 81.587H928.942V37.8531Z" fill="white"/>
<path d="M887.125 59.433C884.88 61.6601 882.048 63.2137 878.955 63.9158C879.454 64.5159 879.801 65.2266 879.965 65.9877C880.13 66.7489 880.108 67.5381 879.9 68.2889C879.693 69.0399 879.307 69.7301 878.775 70.3016C878.243 70.8731 877.58 71.3092 876.842 71.5728C876.105 71.8365 875.314 71.92 874.537 71.8164C873.76 71.7129 873.02 71.4251 872.378 70.9777C871.737 70.5301 871.213 69.936 870.852 69.2453C870.49 68.5546 870.301 67.7876 870.301 67.0091V64.3232H860.434V76.734C860.472 78.005 861.008 79.2111 861.928 80.0964C862.847 80.9817 864.077 81.4765 865.358 81.4759H875.113C877.759 81.4788 880.356 80.7714 882.63 79.4286C884.905 78.0858 886.771 76.1575 888.032 73.8477C889.294 71.5378 889.903 68.9324 889.796 66.3069C889.688 63.6815 888.869 61.1336 887.423 58.9329L887.05 59.3034" fill="white"/>
<path d="M870.226 47.578C870.225 46.672 870.477 45.7835 870.954 45.0117C871.432 44.2398 872.116 43.6148 872.93 43.2064V33H860.434V50.2453H870.207L870.226 47.578Z" fill="white"/>
<path d="M835.981 52.1903V33H831.169C829.876 32.9951 828.634 33.4992 827.715 34.4018C826.795 35.3045 826.273 36.5322 826.264 37.8161V50.2825H831.169C832.98 50.2392 834.735 50.9045 836.056 52.1348" fill="white"/>
<path d="M855.566 50.2453V37.8531C855.556 36.5658 855.035 35.3343 854.117 34.4257C853.199 33.5171 851.957 33.0048 850.66 33H845.773V52.1903C847.1 50.9685 848.851 50.3045 850.66 50.3379L855.566 50.2453Z" fill="white"/>
<path d="M894.772 81.4757H899.641C900.284 81.4781 900.921 81.3544 901.516 81.1116C902.111 80.8687 902.652 80.5117 903.108 80.0608C903.564 79.6099 903.925 79.074 904.172 78.4841C904.419 77.894 904.546 77.2614 904.546 76.6226V64.323H894.772V81.4757Z" fill="white"/>
<path d="M904.471 50.2453V37.8531C904.471 36.0453 905.172 34.307 906.43 33H904.471C901.891 33.0244 899.424 34.0598 897.607 35.8809C895.791 37.702 894.772 40.1616 894.772 42.7248V52.1903C896.093 50.9713 897.838 50.3074 899.641 50.3379L904.471 50.2453Z" fill="white"/>
<path d="M914.413 64.3232H914.264V76.7339C914.264 78.0228 914.778 79.2591 915.694 80.1722C916.61 81.0853 917.852 81.6007 919.151 81.6055H924.037V59.3774C922.962 60.9314 921.526 62.2067 919.851 63.0962C918.176 63.9856 916.312 64.4636 914.413 64.4898" fill="white"/>
<path d="M875.113 33V42.7248C876.376 42.7291 877.588 43.2166 878.498 44.086C879.408 44.9554 879.945 46.1397 879.998 47.3924C880.051 48.6452 879.615 49.87 878.782 50.812C877.948 51.7539 876.781 52.3404 875.524 52.4496H850.661C850.02 52.4472 849.385 52.5705 848.792 52.8123C848.199 53.0542 847.66 53.4099 847.206 53.8591C846.752 54.3083 846.392 54.8421 846.146 55.4299C845.9 56.0176 845.774 56.6477 845.774 57.2843V71.8992H840.813C839.516 71.8992 838.274 71.3879 837.357 70.4778C836.441 69.5677 835.926 68.3332 835.926 67.0461V57.2843C835.926 56.002 835.413 54.7723 834.5 53.8657C833.587 52.959 832.349 52.4496 831.058 52.4496H826.189V71.8992C826.219 74.4591 827.264 76.9042 829.097 78.704C830.93 80.5038 833.404 81.5131 835.982 81.5129H845.774C848.371 81.5129 850.862 80.4884 852.698 78.6646C854.535 76.8408 855.566 74.3672 855.566 71.7881V62.0633H875.113C878.771 61.8169 882.204 60.2219 884.738 57.5912C887.273 54.9606 888.726 51.4842 888.812 47.8444C888.899 44.2046 887.612 40.6641 885.206 37.9177C882.799 35.1713 879.445 33.4173 875.804 33H875.113Z" fill="white"/>
<path d="M872.464 64.2493V66.9353C872.464 67.6132 872.735 68.2634 873.218 68.7427C873.701 69.2221 874.355 69.4914 875.038 69.4914C875.741 69.5021 876.422 69.2419 876.936 68.7653C877.451 68.2888 877.76 67.633 877.798 66.9353C877.834 66.26 877.599 65.5984 877.144 65.095C876.69 64.5917 876.053 64.2876 875.374 64.2493H872.464Z" fill="white"/>
<path d="M841.67 83.4764V86.0141C841.666 86.5212 841.815 87.018 842.096 87.4412C842.377 87.8644 842.779 88.1949 843.25 88.3907C843.721 88.5864 844.24 88.6386 844.741 88.5405C845.242 88.4425 845.703 88.1987 846.064 87.8401C846.425 87.4815 846.671 87.0243 846.769 86.5267C846.868 86.0291 846.816 85.5137 846.618 85.0458C846.421 84.578 846.088 84.1789 845.662 83.8994C845.236 83.62 844.736 83.4727 844.225 83.4764H841.67Z" fill="white"/>
<path d="M834.434 83.4763V86.0141C834.43 86.5205 834.578 87.0165 834.858 87.4392C835.139 87.862 835.54 88.1926 836.01 88.389C836.48 88.5852 836.998 88.6385 837.498 88.542C837.999 88.4454 838.459 88.2035 838.821 87.8467C839.183 87.49 839.43 87.0345 839.531 86.5382C839.631 86.0418 839.582 85.5268 839.387 85.0587C839.193 84.5906 838.863 84.1902 838.439 83.9085C838.016 83.6268 837.517 83.4764 837.008 83.4763H834.434Z" fill="white"/>
<path d="M894.772 57.2843C894.772 56.002 895.285 54.7723 896.198 53.8657C897.111 52.959 898.349 52.4496 899.641 52.4496H909.507C910.807 52.5429 912.089 52.1202 913.074 51.2743C914.058 50.4284 914.663 49.2288 914.758 47.9392C914.852 46.6496 914.426 45.3757 913.574 44.3978C912.723 43.42 911.515 42.8182 910.216 42.7248H906.859V37.8531C906.858 36.5975 907.347 35.3903 908.224 34.4853C909.1 33.5803 910.296 33.0479 911.559 33H914.264C916.853 33 919.335 34.0201 921.169 35.8364C923.001 37.6526 924.032 40.1167 924.038 42.6878V52.4496C924.032 55.0224 923.001 57.4883 921.17 59.3076C919.338 61.1268 916.854 62.151 914.264 62.1559H894.772V57.2843Z" fill="white"/>
</g>
<defs>
<clipPath id="clip0_4013_2126">
<rect width="146.66" height="55.5889" fill="white" transform="translate(792 33)"/>
</clipPath>
</defs>
</svg>
