<svg width="300" height="250" viewBox="0 0 300 250" fill="none" xmlns="http://www.w3.org/2000/svg">
<path d="M36.1094 48H32.3906V31.2793H29.3965C28.9863 35.8913 28.5762 39.7012 28.166 42.709C27.8926 44.6322 27.3958 46.0404 26.6758 46.9336C25.9648 47.8268 25.0124 48.2734 23.8184 48.2734C23.0801 48.2734 22.474 48.1732 22 47.9727V44.8965C22.2734 45.0059 22.6107 45.0605 23.0117 45.0605C23.5221 45.0605 23.9095 44.6595 24.1738 43.8574C24.4473 43.0553 24.7526 41.2552 25.0898 38.457C25.4362 35.6589 25.7962 32.1771 26.1699 28.0117H36.1094V48ZM48.6602 48H39.6504V28.0117H48.6602V31.2246H43.3691V35.9824H48.2773V39.209H43.3691V44.7461H48.6602V48ZM57.7109 48H54.0059V31.2793H50.1777V28.0117H61.5391V31.2793H57.7109V48ZM63.6855 28.0117H67.1309V38.9902C67.1309 40.1296 67.0443 41.2552 66.8711 42.3672H67.0215L73.1191 28.0117H77.6855V48H74.2676V37.0488C74.2676 35.6999 74.3724 34.515 74.582 33.4941H74.4043L68.2793 48H63.6855V28.0117ZM101.174 48H97.0039L91.877 37.8691V48H88.1855V28.0117H91.877V37.6914L97.0859 28.0117H101.064L95.582 37.6367L101.174 48ZM122.215 48H118.496V39.2363H113.588V48H109.869V28.0117H113.588V35.9551H118.496V28.0117H122.215V48ZM135.217 48L134.068 42.9551H128.859L127.711 48H123.992L128.941 27.9297H133.986L138.949 48H135.217ZM133.371 39.6602L132.305 35.0117C132.241 34.7292 132.095 34.0228 131.867 32.8926C131.648 31.7533 131.516 30.9922 131.471 30.6094C131.352 31.3932 131.202 32.2591 131.02 33.207C130.837 34.1458 130.363 36.2969 129.598 39.6602H133.371ZM147.85 48L144.049 30.9785H143.898C144.072 32.291 144.158 33.4941 144.158 34.5879V48H140.713V28.0117H146.428L149.846 43.7207H149.955L153.346 28.0117H159.143V48H155.615V34.4512C155.615 33.3301 155.679 32.1816 155.807 31.0059H155.697L151.91 48H147.85Z" fill="white"/>
</svg>
