<svg width="250" height="250" viewBox="0 0 250 250" fill="none" xmlns="http://www.w3.org/2000/svg">
<path d="M17 205H124.153C129.039 205 133 208.961 133 213.847V229.305H25.8475C20.9611 229.305 17 225.344 17 220.457V205Z" fill="white"/>
<path d="M28.8789 219.275C28.8789 220.143 28.6562 220.814 28.2109 221.291C27.7695 221.764 27.1367 222 26.3125 222H24.1504V213.434H28.2168V214.822H25.7441V216.779H26.248C27.1152 216.779 27.7695 216.988 28.2109 217.406C28.6562 217.824 28.8789 218.447 28.8789 219.275ZM25.7441 220.617H26.2363C26.9277 220.617 27.2734 220.189 27.2734 219.334C27.2734 218.924 27.1855 218.629 27.0098 218.449C26.8379 218.266 26.5449 218.174 26.1309 218.174H25.7441V220.617ZM34.668 216.07C34.668 216.98 34.4375 217.68 33.9766 218.168C33.5195 218.652 32.8574 218.895 31.9902 218.895H31.5918V222H29.998V213.434H32.1719C33.8359 213.434 34.668 214.312 34.668 216.07ZM31.5918 217.512H31.8965C32.2871 217.512 32.5781 217.404 32.7695 217.189C32.9609 216.975 33.0566 216.623 33.0566 216.135C33.0566 215.686 32.9688 215.354 32.793 215.139C32.6172 214.92 32.3457 214.811 31.9785 214.811H31.5918V217.512ZM41.6465 217.705C41.6465 219.123 41.3809 220.213 40.8496 220.975C40.3184 221.736 39.5586 222.117 38.5703 222.117C37.5781 222.117 36.8164 221.738 36.2852 220.98C35.7539 220.219 35.4883 219.123 35.4883 217.693C35.4883 216.275 35.7539 215.189 36.2852 214.436C36.8164 213.678 37.582 213.299 38.582 213.299C39.5703 213.299 40.3281 213.68 40.8555 214.441C41.3828 215.199 41.6465 216.287 41.6465 217.705ZM37.1172 217.705C37.1172 218.682 37.2402 219.426 37.4863 219.938C37.7324 220.449 38.0938 220.705 38.5703 220.705C39.5312 220.705 40.0117 219.705 40.0117 217.705C40.0117 215.705 39.5352 214.705 38.582 214.705C38.0977 214.705 37.7324 214.961 37.4863 215.473C37.2402 215.98 37.1172 216.725 37.1172 217.705ZM48.1914 222H46.5977V218.244H44.4941V222H42.9004V213.434H44.4941V216.838H46.5977V213.434H48.1914V222ZM49.709 213.434H51.1855V218.139C51.1855 218.627 51.1484 219.109 51.0742 219.586H51.1387L53.752 213.434H55.709V222H54.2441V217.307C54.2441 216.729 54.2891 216.221 54.3789 215.783H54.3027L51.6777 222H49.709V213.434ZM61.8906 216.07C61.8906 216.98 61.6602 217.68 61.1992 218.168C60.7422 218.652 60.0801 218.895 59.2129 218.895H58.8145V222H57.2207V213.434H59.3945C61.0586 213.434 61.8906 214.312 61.8906 216.07ZM58.8145 217.512H59.1191C59.5098 217.512 59.8008 217.404 59.9922 217.189C60.1836 216.975 60.2793 216.623 60.2793 216.135C60.2793 215.686 60.1914 215.354 60.0156 215.139C59.8398 214.92 59.5684 214.811 59.2012 214.811H58.8145V217.512ZM63.4785 222.117C63.0684 222.117 62.7246 222.062 62.4473 221.953V220.535C62.7324 220.648 63.0273 220.705 63.332 220.705C63.8008 220.705 64.1621 220.27 64.416 219.398L62.2188 213.434H63.8887L64.9785 216.779C65.0684 217.088 65.125 217.352 65.1484 217.57H65.1953L65.2773 217.172L65.3652 216.779L66.2969 213.434H67.9082L65.998 219.492C65.6934 220.449 65.3438 221.127 64.9492 221.525C64.5586 221.92 64.0684 222.117 63.4785 222.117ZM68.6699 213.434H70.1465V218.139C70.1465 218.627 70.1094 219.109 70.0352 219.586H70.0996L72.7129 213.434H74.6699V222H73.2051V217.307C73.2051 216.729 73.25 216.221 73.3398 215.783H73.2637L70.6387 222H68.6699V213.434ZM73.8086 210.85C73.7305 211.506 73.5156 211.986 73.1641 212.291C72.8164 212.596 72.3027 212.748 71.623 212.748C70.959 212.748 70.4609 212.6 70.1289 212.303C69.7969 212.002 69.5996 211.518 69.5371 210.85H70.832C70.875 211.24 70.957 211.504 71.0781 211.641C71.2031 211.777 71.3965 211.846 71.6582 211.846C71.916 211.846 72.1074 211.768 72.2324 211.611C72.3613 211.455 72.4473 211.201 72.4902 210.85H73.8086ZM78.8125 222H77.2246V214.834H75.584V213.434H80.4531V214.834H78.8125V222ZM85.2344 222H81.373V213.434H85.2344V214.811H82.9668V216.85H85.0703V218.232H82.9668V220.605H85.2344V222ZM92.2891 214.705C91.832 214.705 91.4707 214.973 91.2051 215.508C90.9434 216.043 90.8125 216.787 90.8125 217.74C90.8125 219.725 91.3301 220.717 92.3652 220.717C92.8184 220.717 93.293 220.572 93.7891 220.283V221.701C93.3711 221.979 92.8359 222.117 92.1836 222.117C91.2188 222.117 90.4766 221.734 89.957 220.969C89.4414 220.199 89.1836 219.119 89.1836 217.729C89.1836 216.338 89.4492 215.254 89.9805 214.477C90.5156 213.699 91.2578 213.311 92.207 213.311C92.5195 213.311 92.8184 213.354 93.1035 213.439C93.3926 213.525 93.7012 213.676 94.0293 213.891L93.502 215.186C93.3262 215.064 93.1387 214.955 92.9395 214.857C92.7402 214.756 92.5234 214.705 92.2891 214.705ZM98.8633 222H95.002V213.434H98.8633V214.811H96.5957V216.85H98.6992V218.232H96.5957V220.605H98.8633V222ZM100.111 213.434H101.588V218.139C101.588 218.627 101.551 219.109 101.477 219.586H101.541L104.154 213.434H106.111V222H104.646V217.307C104.646 216.729 104.691 216.221 104.781 215.783H104.705L102.08 222H100.111V213.434ZM105.25 210.85C105.172 211.506 104.957 211.986 104.605 212.291C104.258 212.596 103.744 212.748 103.064 212.748C102.4 212.748 101.902 212.6 101.57 212.303C101.238 212.002 101.041 211.518 100.979 210.85H102.273C102.316 211.24 102.398 211.504 102.52 211.641C102.645 211.777 102.838 211.846 103.1 211.846C103.357 211.846 103.549 211.768 103.674 211.611C103.803 211.455 103.889 211.201 103.932 210.85H105.25ZM112.879 222H111.285V218.678C110.738 219.014 110.186 219.182 109.627 219.182C108.982 219.182 108.482 218.986 108.127 218.596C107.775 218.201 107.6 217.652 107.6 216.949V213.434H109.193V216.598C109.193 217.008 109.254 217.307 109.375 217.494C109.5 217.682 109.703 217.775 109.984 217.775C110.219 217.775 110.439 217.736 110.646 217.658C110.854 217.576 111.066 217.467 111.285 217.33V213.434H112.879V222ZM118.451 222L117.959 219.838H115.727L115.234 222H113.641L115.762 213.398H117.924L120.051 222H118.451ZM117.66 218.426L117.203 216.434C117.176 216.312 117.113 216.01 117.016 215.525C116.922 215.037 116.865 214.711 116.846 214.547C116.795 214.883 116.73 215.254 116.652 215.66C116.574 216.062 116.371 216.984 116.043 218.426H117.66ZM123.648 214.705C123.191 214.705 122.83 214.973 122.564 215.508C122.303 216.043 122.172 216.787 122.172 217.74C122.172 219.725 122.689 220.717 123.725 220.717C124.178 220.717 124.652 220.572 125.148 220.283V221.701C124.73 221.979 124.195 222.117 123.543 222.117C122.578 222.117 121.836 221.734 121.316 220.969C120.801 220.199 120.543 219.119 120.543 217.729C120.543 216.338 120.809 215.254 121.34 214.477C121.875 213.699 122.617 213.311 123.566 213.311C123.879 213.311 124.178 213.354 124.463 213.439C124.752 213.525 125.061 213.676 125.389 213.891L124.861 215.186C124.686 215.064 124.498 214.955 124.299 214.857C124.1 214.756 123.883 214.705 123.648 214.705Z" fill="#0090D7"/>
</svg>
