<svg width="300" height="250" viewBox="0 0 300 250" fill="none" xmlns="http://www.w3.org/2000/svg">
<path d="M22 203H146.703C152.39 203 157 207.61 157 213.297V231.286H32.2966C26.6099 231.286 22 226.676 22 220.989V203Z" fill="white"/>
<path d="M31.4443 222.43C30.9658 222.43 30.5648 222.366 30.2412 222.238V220.584C30.5739 220.716 30.918 220.782 31.2734 220.782C31.8203 220.782 32.2419 220.274 32.5381 219.258L29.9746 212.299H31.9229L33.1943 216.202C33.2992 216.562 33.3652 216.87 33.3926 217.125H33.4473L33.543 216.66L33.6455 216.202L34.7324 212.299H36.6123L34.3838 219.367C34.0283 220.484 33.6204 221.274 33.1602 221.739C32.7044 222.2 32.1325 222.43 31.4443 222.43ZM42.6826 214.664C42.6826 215.284 42.498 215.799 42.1289 216.209C41.7643 216.615 41.238 216.888 40.5498 217.029V217.084C41.2972 217.175 41.876 217.426 42.2861 217.836C42.7008 218.242 42.9082 218.784 42.9082 219.463C42.9082 220.383 42.612 221.108 42.0195 221.637C41.4316 222.165 40.6296 222.43 39.6133 222.43C38.5378 222.43 37.6992 222.272 37.0977 221.958V220.331C37.7721 220.705 38.4899 220.892 39.251 220.892C40.445 220.892 41.042 220.37 41.042 219.326C41.042 218.852 40.8688 218.492 40.5225 218.246C40.1807 217.995 39.6725 217.87 38.998 217.87H38.3281V216.346H38.9297C39.5905 216.346 40.0781 216.232 40.3926 216.004C40.707 215.771 40.8643 215.414 40.8643 214.931C40.8643 214.543 40.7594 214.247 40.5498 214.042C40.3402 213.832 40.0371 213.728 39.6406 213.728C39.0345 213.728 38.4603 213.974 37.918 214.466L37.0361 213.222C37.4873 212.834 37.9453 212.561 38.4102 212.401C38.875 212.237 39.3923 212.155 39.9619 212.155C40.7868 212.155 41.4453 212.385 41.9375 212.846C42.4342 213.301 42.6826 213.908 42.6826 214.664ZM50.4551 222.293H48.5957V217.911H46.1416V222.293H44.2822V212.299H46.1416V216.271H48.5957V212.299H50.4551V222.293ZM56.9561 222.293L56.3818 219.771H53.7773L53.2031 222.293H51.3438L53.8184 212.258H56.3408L58.8223 222.293H56.9561ZM56.0332 218.123L55.5 215.799C55.4681 215.658 55.3952 215.304 55.2812 214.739C55.1719 214.17 55.1058 213.789 55.083 213.598C55.0238 213.99 54.9486 214.423 54.8574 214.896C54.7663 215.366 54.5293 216.441 54.1465 218.123H56.0332ZM59.7041 212.299H61.4268V217.788C61.4268 218.358 61.3835 218.921 61.2969 219.477H61.3721L64.4209 212.299H66.7041V222.293H64.9951V216.817C64.9951 216.143 65.0475 215.55 65.1523 215.04H65.0635L62.001 222.293H59.7041V212.299ZM65.6992 209.284C65.6081 210.05 65.3574 210.61 64.9473 210.966C64.5417 211.321 63.9424 211.499 63.1494 211.499C62.3747 211.499 61.7936 211.326 61.4062 210.979C61.0189 210.629 60.7887 210.063 60.7158 209.284H62.2266C62.2767 209.74 62.3724 210.048 62.5137 210.207C62.6595 210.367 62.8851 210.446 63.1904 210.446C63.4912 210.446 63.7145 210.355 63.8604 210.173C64.0107 209.991 64.111 209.694 64.1611 209.284H65.6992ZM71.5371 222.293H69.6846V213.933H67.7705V212.299H73.4512V213.933H71.5371V222.293ZM79.0293 222.293H74.5244V212.299H79.0293V213.905H76.3838V216.284H78.8379V217.897H76.3838V220.666H79.0293V222.293ZM90.1172 222.293H88.2715V213.933H85.8037V222.293H83.9443V212.299H90.1172V222.293ZM98.7646 217.282C98.7646 218.937 98.4548 220.208 97.835 221.097C97.2152 221.985 96.3288 222.43 95.1758 222.43C94.0182 222.43 93.1296 221.988 92.5098 221.104C91.89 220.215 91.5801 218.937 91.5801 217.269C91.5801 215.614 91.89 214.347 92.5098 213.468C93.1296 212.584 94.0228 212.142 95.1895 212.142C96.3424 212.142 97.2266 212.586 97.8418 213.475C98.457 214.359 98.7646 215.628 98.7646 217.282ZM93.4805 217.282C93.4805 218.422 93.624 219.29 93.9111 219.887C94.1982 220.484 94.6198 220.782 95.1758 220.782C96.2969 220.782 96.8574 219.616 96.8574 217.282C96.8574 214.949 96.3014 213.782 95.1895 213.782C94.6243 213.782 94.1982 214.081 93.9111 214.678C93.624 215.27 93.4805 216.138 93.4805 217.282ZM107.508 225.15H105.703V222.293H101.219V225.15H99.4141V220.652H100.002C100.941 218.16 101.542 215.375 101.807 212.299H106.373V220.652H107.508V225.15ZM104.514 220.652V213.933H103.379C103.265 215.04 103.08 216.191 102.825 217.385C102.575 218.574 102.278 219.663 101.937 220.652H104.514ZM114.057 215.375C114.057 216.437 113.788 217.253 113.25 217.822C112.717 218.387 111.944 218.67 110.933 218.67H110.468V222.293H108.608V212.299H111.145C113.086 212.299 114.057 213.324 114.057 215.375ZM110.468 217.057H110.823C111.279 217.057 111.618 216.931 111.842 216.681C112.065 216.43 112.177 216.02 112.177 215.45C112.177 214.926 112.074 214.539 111.869 214.288C111.664 214.033 111.347 213.905 110.919 213.905H110.468V217.057ZM122.198 217.282C122.198 218.937 121.888 220.208 121.269 221.097C120.649 221.985 119.762 222.43 118.609 222.43C117.452 222.43 116.563 221.988 115.943 221.104C115.324 220.215 115.014 218.937 115.014 217.269C115.014 215.614 115.324 214.347 115.943 213.468C116.563 212.584 117.456 212.142 118.623 212.142C119.776 212.142 120.66 212.586 121.275 213.475C121.891 214.359 122.198 215.628 122.198 217.282ZM116.914 217.282C116.914 218.422 117.058 219.29 117.345 219.887C117.632 220.484 118.053 220.782 118.609 220.782C119.73 220.782 120.291 219.616 120.291 217.282C120.291 214.949 119.735 213.782 118.623 213.782C118.058 213.782 117.632 214.081 117.345 214.678C117.058 215.27 116.914 216.138 116.914 217.282ZM129.178 219.114C129.178 220.126 128.918 220.91 128.398 221.466C127.883 222.017 127.145 222.293 126.184 222.293H123.661V212.299H128.405V213.919H125.521V216.202H126.108C127.12 216.202 127.883 216.446 128.398 216.934C128.918 217.421 129.178 218.148 129.178 219.114ZM125.521 220.68H126.095C126.901 220.68 127.305 220.181 127.305 219.183C127.305 218.704 127.202 218.36 126.997 218.15C126.797 217.936 126.455 217.829 125.972 217.829H125.521V220.68ZM136.656 222.293H134.797V217.911H132.343V222.293H130.483V212.299H132.343V216.271H134.797V212.299H136.656V222.293ZM142.932 222.293H138.427V212.299H142.932V213.905H140.286V216.284H142.74V217.897H140.286V220.666H142.932V222.293ZM148.893 222.293H144.388V212.299H148.893V213.905H146.247V216.284H148.701V217.897H146.247V220.666H148.893V222.293Z" fill="#0090D7"/>
</svg>
