<svg width="320" height="50" viewBox="0 0 320 50" fill="none" xmlns="http://www.w3.org/2000/svg">
<path d="M9 14H118.744C123.749 14 127.805 18.0569 127.805 23.0614V38.8926H18.0614C13.0569 38.8926 9 34.8356 9 29.8311V14Z" fill="white"/>
<path d="M15.7866 31.9261C15.2693 31.9261 14.8358 31.8571 14.486 31.7191V29.9308C14.8457 30.0737 15.2176 30.1451 15.6019 30.1451C16.1931 30.1451 16.6488 29.5958 16.969 28.4972L14.1978 20.9745H16.3039L17.6784 25.1941C17.7917 25.5832 17.8631 25.9158 17.8927 26.1917H17.9518L18.0553 25.6892L18.1661 25.1941L19.3411 20.9745H21.3732L18.9642 28.6155C18.5799 29.8225 18.139 30.6772 17.6414 31.1797C17.1488 31.6773 16.5305 31.9261 15.7866 31.9261ZM27.9353 23.5314C27.9353 24.2014 27.7357 24.7581 27.3367 25.2014C26.9426 25.6399 26.3736 25.9355 25.6297 26.0882V26.1473C26.4376 26.2459 27.0633 26.5168 27.5067 26.9602C27.955 27.3986 28.1791 27.9849 28.1791 28.7189C28.1791 29.7141 27.8589 30.4974 27.2185 31.0688C26.583 31.6403 25.7159 31.9261 24.6173 31.9261C23.4547 31.9261 22.5482 31.7561 21.8979 31.4162V29.6574C22.627 30.0614 23.4029 30.2634 24.2256 30.2634C25.5164 30.2634 26.1617 29.6993 26.1617 28.5711C26.1617 28.0588 25.9745 27.6696 25.6001 27.4036C25.2306 27.1326 24.6813 26.9971 23.9522 26.9971H23.228V25.3492H23.8783C24.5927 25.3492 25.1198 25.2261 25.4597 24.9798C25.7996 24.7285 25.9696 24.3418 25.9696 23.8196C25.9696 23.4008 25.8563 23.0806 25.6297 22.8589C25.4031 22.6323 25.0755 22.519 24.6469 22.519C23.9916 22.519 23.3709 22.785 22.7847 23.3171L21.8314 21.9722C22.3191 21.5534 22.8142 21.2578 23.3167 21.0854C23.8192 20.908 24.3784 20.8194 24.9942 20.8194C25.8859 20.8194 26.5977 21.0681 27.1298 21.5657C27.6668 22.0584 27.9353 22.7136 27.9353 23.5314ZM36.3373 31.7783H34.3273V27.0415H31.6744V31.7783H29.6644V20.9745H31.6744V25.2679H34.3273V20.9745H36.3373V31.7783ZM43.3649 31.7783L42.7442 29.0515H39.9287L39.308 31.7783H37.298L39.9731 20.9302H42.6998L45.3823 31.7783H43.3649ZM42.3673 27.2706L41.7909 24.7581C41.7564 24.6053 41.6776 24.2235 41.5544 23.6127C41.4362 22.9969 41.3648 22.5855 41.3401 22.3786C41.2761 22.8023 41.1948 23.2703 41.0963 23.7826C40.9978 24.29 40.7416 25.4527 40.3278 27.2706H42.3673ZM46.3356 20.9745H48.1978V26.9085C48.1978 27.5243 48.151 28.1327 48.0574 28.7337H48.1387L51.4345 20.9745H53.9026V31.7783H52.0552V25.8591C52.0552 25.13 52.1118 24.4896 52.2251 23.9378H52.1291L48.8185 31.7783H46.3356V20.9745ZM52.8163 17.7157C52.7178 18.5433 52.4468 19.1493 52.0035 19.5336C51.565 19.9178 50.9172 20.11 50.06 20.11C49.2225 20.11 48.5944 19.9227 48.1756 19.5483C47.7569 19.169 47.5081 18.5581 47.4292 17.7157H49.0624C49.1166 18.2083 49.22 18.5409 49.3727 18.7133C49.5304 18.8857 49.7742 18.9719 50.1043 18.9719C50.4295 18.9719 50.6709 18.8734 50.8285 18.6764C50.9911 18.4793 51.0995 18.1591 51.1536 17.7157H52.8163ZM59.1271 31.7783H57.1245V22.7407H55.0554V20.9745H61.1962V22.7407H59.1271V31.7783ZM67.2262 31.7783H62.3564V20.9745H67.2262V22.7111H64.3664V25.2827H67.0193V27.0267H64.3664V30.0195H67.2262V31.7783ZM78.5029 28.3421C78.5029 29.4357 78.2221 30.2831 77.6604 30.8841C77.1037 31.4802 76.3057 31.7783 75.2662 31.7783H72.5394V20.9745H77.6678V22.7259H74.5494V25.1941H75.1849C76.2786 25.1941 77.1037 25.4576 77.6604 25.9847C78.2221 26.5119 78.5029 27.2976 78.5029 28.3421ZM74.5494 30.0343H75.1701C76.0421 30.0343 76.4781 29.4948 76.4781 28.416C76.4781 27.8987 76.3672 27.5267 76.1456 27.3001C75.9288 27.0686 75.5593 26.9528 75.0371 26.9528H74.5494V30.0343ZM87.3483 26.3616C87.3483 28.1499 87.0133 29.5244 86.3433 30.4851C85.6733 31.4457 84.7151 31.9261 83.4687 31.9261C82.2174 31.9261 81.2568 31.4482 80.5868 30.4925C79.9168 29.5318 79.5818 28.1499 79.5818 26.3468C79.5818 24.5585 79.9168 23.189 80.5868 22.2382C81.2568 21.2824 82.2223 20.8046 83.4835 20.8046C84.7299 20.8046 85.6856 21.2849 86.3507 22.2456C87.0158 23.2013 87.3483 24.5733 87.3483 26.3616ZM81.6361 26.3616C81.6361 27.5932 81.7913 28.5317 82.1016 29.1771C82.412 29.8225 82.8677 30.1451 83.4687 30.1451C84.6806 30.1451 85.2866 28.884 85.2866 26.3616C85.2866 23.8393 84.6856 22.5781 83.4835 22.5781C82.8726 22.5781 82.412 22.9008 82.1016 23.5462C81.7913 24.1866 81.6361 25.1251 81.6361 26.3616ZM95.6026 31.7783H93.5926V22.7407H91.9743C91.7526 25.2335 91.5309 27.2927 91.3092 28.9185C91.1614 29.9579 90.8929 30.7191 90.5037 31.2019C90.1194 31.6847 89.6046 31.9261 88.9593 31.9261C88.5602 31.9261 88.2326 31.8719 87.9764 31.7635V30.1008C88.1242 30.1599 88.3065 30.1895 88.5233 30.1895C88.7992 30.1895 89.0085 29.9727 89.1514 29.5392C89.2992 29.1057 89.4642 28.1327 89.6465 26.6203C89.8337 25.1078 90.0283 23.2259 90.2303 20.9745H95.6026V31.7783ZM103.406 28.3421C103.406 29.4308 103.118 30.2757 102.542 30.8767C101.965 31.4777 101.147 31.7783 100.088 31.7783H97.5165V20.9745H99.5265V25.1941H100.044C102.285 25.1941 103.406 26.2434 103.406 28.3421ZM99.5265 30.0343H100.029C100.926 30.0343 101.374 29.4948 101.374 28.416C101.374 27.8937 101.263 27.5193 101.041 27.2927C100.825 27.0661 100.453 26.9528 99.9256 26.9528H99.5265V30.0343ZM111.128 30.0047H113.463V20.9745H115.473V31.7783H104.788V20.9745H106.798V30.0047H109.133V20.9745H111.128V30.0047ZM122.25 31.7783H117.38V20.9745H122.25V22.7111H119.39V25.2827H122.043V27.0267H119.39V30.0195H122.25V31.7783Z" fill="#0090D7"/>
</svg>
