<svg width="160" height="600" viewBox="0 0 160 600" fill="none" xmlns="http://www.w3.org/2000/svg">
<path d="M51.8886 98.636H48.329V93H39.484V98.636H35.9245V89.764H37.084C38.9357 84.8471 40.1223 79.355 40.6436 73.2875H49.6504V89.764H51.8886V98.636ZM45.983 89.764V76.51H43.7447C43.52 78.6943 43.156 80.964 42.6526 83.319C42.1582 85.6651 41.5739 87.8135 40.8998 89.764H45.983ZM55.219 93.2697C54.2751 93.2697 53.4841 93.1438 52.8459 92.8921V89.6292C53.5021 89.8899 54.1808 90.0202 54.8819 90.0202C55.9605 90.0202 56.792 89.018 57.3763 87.0135L52.3201 73.2875H56.1628L58.6707 80.9865C58.8774 81.6966 59.0077 82.3033 59.0617 82.8067H59.1695L59.3583 81.8898L59.5606 80.9865L61.7044 73.2875H65.4123L61.0167 87.2292C60.3156 89.4314 59.5111 90.991 58.6032 91.9079C57.7044 92.8157 56.5763 93.2697 55.219 93.2697ZM78.0461 86.7303C78.0461 88.7258 77.5337 90.2719 76.509 91.3685C75.4932 92.4562 74.037 93 72.1404 93H67.1651V73.2875H76.5224V76.4831H70.8325V80.9865H71.9921C73.9876 80.9865 75.4932 81.4674 76.509 82.4292C77.5337 83.391 78.0461 84.8247 78.0461 86.7303ZM70.8325 89.818H71.9651C73.5561 89.818 74.3516 88.8337 74.3516 86.8651C74.3516 85.9213 74.1494 85.2427 73.7449 84.8292C73.3494 84.4067 72.6752 84.1955 71.7224 84.1955H70.8325V89.818ZM89.9517 93L88.8191 88.0247H83.682L82.5494 93H78.882L83.7629 73.2066H88.7382L93.6327 93H89.9517ZM88.1315 84.7752L87.0798 80.1909C87.0169 79.9123 86.8731 79.2157 86.6483 78.101C86.4326 76.9774 86.3023 76.2269 86.2573 75.8493C86.1405 76.6224 85.9922 77.4763 85.8124 78.4112C85.6326 79.337 85.1652 81.4584 84.4101 84.7752H88.1315ZM95.372 73.2875H98.7698V84.1146C98.7698 85.2382 98.6844 86.3483 98.5136 87.4449H98.6619L104.675 73.2875H109.179V93H105.808V82.1999C105.808 80.8696 105.911 79.7011 106.118 78.6943H105.943L99.9024 93H95.372V73.2875ZM107.197 67.3414C107.017 68.8516 106.523 69.9572 105.714 70.6583C104.914 71.3594 103.732 71.71 102.168 71.71C100.639 71.71 99.4934 71.3684 98.7293 70.6853C97.9653 69.9931 97.5113 68.8785 97.3675 67.3414H100.347C100.446 68.2403 100.635 68.8471 100.914 69.1617C101.201 69.4763 101.646 69.6336 102.248 69.6336C102.842 69.6336 103.282 69.4538 103.57 69.0943C103.866 68.7347 104.064 68.1504 104.163 67.3414H107.197ZM112.415 91.1528C112.415 90.4517 112.599 89.9078 112.968 89.5213C113.345 89.1348 113.902 88.9416 114.64 88.9416C115.377 88.9416 115.934 89.1348 116.311 89.5213C116.689 89.8989 116.878 90.4427 116.878 91.1528C116.878 91.8539 116.68 92.3977 116.284 92.7843C115.898 93.1708 115.35 93.364 114.64 93.364C113.911 93.364 113.359 93.1708 112.981 92.7843C112.604 92.3888 112.415 91.8449 112.415 91.1528ZM54.5313 131.636H50.9717V126H42.1268V131.636H38.5672V122.764H39.7267C41.5784 117.847 42.765 112.355 43.2863 106.288H52.2931V122.764H54.5313V131.636ZM48.6257 122.764V109.51H46.3875C46.1627 111.694 45.7987 113.964 45.2953 116.319C44.8009 118.665 44.2167 120.813 43.5425 122.764H48.6257ZM66.0325 126L64.8999 121.025H59.7628L58.6302 126H54.9628L59.8437 106.207H64.819L69.7134 126H66.0325ZM64.2123 117.775L63.1606 113.191C63.0977 112.912 62.9538 112.216 62.7291 111.101C62.5134 109.977 62.383 109.227 62.3381 108.849C62.2213 109.622 62.0729 110.476 61.8932 111.411C61.7134 112.337 61.246 114.458 60.4909 117.775H64.2123ZM71.4528 106.288H76.482C78.5315 106.288 80.0236 106.688 80.9584 107.488C81.8933 108.279 82.3607 109.541 82.3607 111.276C82.3607 112.418 82.1135 113.375 81.6191 114.148C81.1247 114.912 80.4506 115.375 79.5966 115.537V115.672C80.7112 115.951 81.5157 116.472 82.0101 117.236C82.5045 118 82.7517 119.016 82.7517 120.283C82.7517 122.072 82.2708 123.474 81.309 124.49C80.3562 125.497 79.0483 126 77.3854 126H71.4528V106.288ZM74.9045 114.216H76.5899C77.3629 114.216 77.9067 114.009 78.2213 113.595C78.5359 113.182 78.6932 112.566 78.6932 111.748C78.6932 110.93 78.5135 110.346 78.1539 109.995C77.7944 109.636 77.2281 109.456 76.455 109.456H74.9045V114.216ZM74.9045 117.276V122.791H76.7517C77.5157 122.791 78.082 122.557 78.4506 122.09C78.8281 121.622 79.0168 120.899 79.0168 119.919C79.0168 118.157 78.2438 117.276 76.6977 117.276H74.9045ZM94.7787 126L93.6461 121.025H88.509L87.3764 126H83.709L88.5899 106.207H93.5652L98.4596 126H94.7787ZM92.9585 117.775L91.9068 113.191C91.8439 112.912 91.7001 112.216 91.4753 111.101C91.2596 109.977 91.1293 109.227 91.0843 108.849C90.9675 109.622 90.8192 110.476 90.6394 111.411C90.4596 112.337 89.9922 114.458 89.2371 117.775H92.9585ZM100.199 106.288H103.597V117.115C103.597 118.238 103.511 119.348 103.341 120.445H103.489L109.502 106.288H114.006V126H110.635V115.2C110.635 113.87 110.738 112.701 110.945 111.694H110.77L104.729 126H100.199V106.288ZM112.024 100.341C111.844 101.852 111.35 102.957 110.541 103.658C109.741 104.359 108.559 104.71 106.995 104.71C105.466 104.71 104.32 104.368 103.556 103.685C102.792 102.993 102.338 101.879 102.195 100.341H105.174C105.273 101.24 105.462 101.847 105.741 102.162C106.028 102.476 106.473 102.634 107.075 102.634C107.669 102.634 108.109 102.454 108.397 102.094C108.693 101.735 108.891 101.15 108.99 100.341H112.024ZM31.2862 159H27.6458V142.51H22.7783V159H19.1109V139.288H31.2862V159ZM48.3425 149.117C48.3425 152.38 47.7313 154.888 46.5088 156.64C45.2863 158.393 43.538 159.27 41.2638 159.27C38.9807 159.27 37.2279 158.398 36.0054 156.654C34.7829 154.901 34.1717 152.38 34.1717 149.09C34.1717 145.827 34.7829 143.328 36.0054 141.593C37.2279 139.849 38.9897 138.977 41.2908 138.977C43.565 138.977 45.3088 139.854 46.5223 141.607C47.7358 143.35 48.3425 145.854 48.3425 149.117ZM37.92 149.117C37.92 151.364 38.2031 153.076 38.7694 154.254C39.3357 155.431 40.1672 156.02 41.2638 156.02C43.4751 156.02 44.5807 153.719 44.5807 149.117C44.5807 144.515 43.4841 142.213 41.2908 142.213C40.1762 142.213 39.3357 142.802 38.7694 143.98C38.2031 145.148 37.92 146.861 37.92 149.117ZM70.2258 159H66.5584V150.357H61.7179V159H58.0504V139.288H61.7179V147.121H66.5584V139.288H70.2258V159ZM87.2821 149.117C87.2821 152.38 86.6708 154.888 85.4483 156.64C84.2259 158.393 82.4775 159.27 80.2034 159.27C77.9202 159.27 76.1674 158.398 74.9449 156.654C73.7224 154.901 73.1112 152.38 73.1112 149.09C73.1112 145.827 73.7224 143.328 74.9449 141.593C76.1674 139.849 77.9292 138.977 80.2303 138.977C82.5045 138.977 84.2483 139.854 85.4618 141.607C86.6753 143.35 87.2821 145.854 87.2821 149.117ZM76.8595 149.117C76.8595 151.364 77.1427 153.076 77.709 154.254C78.2753 155.431 79.1067 156.02 80.2034 156.02C82.4146 156.02 83.5202 153.719 83.5202 149.117C83.5202 144.515 82.4236 142.213 80.2303 142.213C79.1157 142.213 78.2753 142.802 77.709 143.98C77.1427 145.148 76.8595 146.861 76.8595 149.117ZM90.1675 139.288H95.1967C97.2462 139.288 98.7383 139.688 99.6731 140.488C100.608 141.279 101.075 142.541 101.075 144.276C101.075 145.418 100.828 146.375 100.334 147.148C99.8394 147.912 99.1653 148.375 98.3113 148.537V148.672C99.4259 148.951 100.23 149.472 100.725 150.236C101.219 151 101.466 152.016 101.466 153.283C101.466 155.072 100.986 156.474 100.024 157.49C99.0709 158.497 97.763 159 96.1001 159H90.1675V139.288ZM93.6192 147.216H95.3046C96.0776 147.216 96.6214 147.009 96.936 146.595C97.2507 146.182 97.408 145.566 97.408 144.748C97.408 143.93 97.2282 143.346 96.8686 142.995C96.5091 142.636 95.9428 142.456 95.1697 142.456H93.6192V147.216ZM93.6192 150.276V155.791H95.4664C96.2304 155.791 96.7967 155.557 97.1653 155.09C97.5428 154.622 97.7316 153.899 97.7316 152.919C97.7316 151.157 96.9585 150.276 95.4124 150.276H93.6192ZM117.727 149.117C117.727 152.38 117.116 154.888 115.893 156.64C114.671 158.393 112.923 159.27 110.648 159.27C108.365 159.27 106.613 158.398 105.39 156.654C104.168 154.901 103.556 152.38 103.556 149.09C103.556 145.827 104.168 143.328 105.39 141.593C106.613 139.849 108.374 138.977 110.675 138.977C112.95 138.977 114.693 139.854 115.907 141.607C117.12 143.35 117.727 145.854 117.727 149.117ZM107.305 149.117C107.305 151.364 107.588 153.076 108.154 154.254C108.72 155.431 109.552 156.02 110.648 156.02C112.86 156.02 113.965 153.719 113.965 149.117C113.965 144.515 112.869 142.213 110.675 142.213C109.561 142.213 108.72 142.802 108.154 143.98C107.588 145.148 107.305 146.861 107.305 149.117ZM120.613 139.288H124.01V150.115C124.01 151.238 123.925 152.348 123.754 153.445H123.902L129.916 139.288H134.419V159H131.049V148.2C131.049 146.87 131.152 145.701 131.359 144.694H131.183L125.143 159H120.613V139.288ZM132.437 133.341C132.258 134.852 131.763 135.957 130.954 136.658C130.154 137.359 128.972 137.71 127.408 137.71C125.88 137.71 124.734 137.368 123.97 136.685C123.206 135.993 122.752 134.879 122.608 133.341H125.588C125.687 134.24 125.876 134.847 126.154 135.162C126.442 135.476 126.887 135.634 127.489 135.634C128.082 135.634 128.523 135.454 128.81 135.094C129.107 134.735 129.305 134.15 129.404 133.341H132.437ZM137.655 157.153C137.655 156.452 137.84 155.908 138.208 155.521C138.586 155.135 139.143 154.942 139.88 154.942C140.617 154.942 141.174 155.135 141.552 155.521C141.93 155.899 142.118 156.443 142.118 157.153C142.118 157.854 141.921 158.398 141.525 158.784C141.139 159.171 140.59 159.364 139.88 159.364C139.152 159.364 138.599 159.171 138.222 158.784C137.844 158.389 137.655 157.845 137.655 157.153Z" fill="white"/>
</svg>
