<svg width="300" height="600" viewBox="0 0 300 600" fill="none" xmlns="http://www.w3.org/2000/svg">
<path d="M129.621 69H124.309V45.1133H120.031C119.445 51.7018 118.859 57.1445 118.273 61.4414C117.883 64.1888 117.173 66.2005 116.145 67.4766C115.129 68.7526 113.768 69.3906 112.062 69.3906C111.008 69.3906 110.142 69.2474 109.465 68.9609V64.5664C109.855 64.7227 110.337 64.8008 110.91 64.8008C111.639 64.8008 112.193 64.2279 112.57 63.082C112.961 61.9362 113.397 59.3646 113.879 55.3672C114.374 51.3698 114.888 46.3958 115.422 40.4453H129.621V69ZM147.551 69H134.68V40.4453H147.551V45.0352H139.992V51.832H147.004V56.4414H139.992V64.3516H147.551V69ZM160.48 69H155.188V45.1133H149.719V40.4453H165.949V45.1133H160.48V69ZM169.016 40.4453H173.938V56.1289C173.938 57.7565 173.814 59.3646 173.566 60.9531H173.781L182.492 40.4453H189.016V69H184.133V53.3555C184.133 51.4284 184.283 49.7357 184.582 48.2773H184.328L175.578 69H169.016V40.4453ZM118.41 117H112.453L105.129 102.527V117H99.8555V88.4453H105.129V102.273L112.57 88.4453H118.254L110.422 102.195L118.41 117ZM148.469 117H143.156V104.48H136.145V117H130.832V88.4453H136.145V99.793H143.156V88.4453H148.469V117ZM167.043 117L165.402 109.793H157.961L156.32 117H151.008L158.078 88.3281H165.285L172.375 117H167.043ZM164.406 105.086L162.883 98.4453C162.792 98.0417 162.583 97.0326 162.258 95.418C161.945 93.7904 161.757 92.7031 161.691 92.1562C161.522 93.276 161.307 94.513 161.047 95.8672C160.786 97.2083 160.109 100.281 159.016 105.086H164.406ZM185.09 117L179.66 92.6836H179.445C179.693 94.5586 179.816 96.2773 179.816 97.8398V117H174.895V88.4453H183.059L187.941 110.887H188.098L192.941 88.4453H201.223V117H196.184V97.6445C196.184 96.043 196.275 94.4023 196.457 92.7227H196.301L190.891 117H185.09Z" fill="white"/>
</svg>
