<svg width="250" height="250" viewBox="0 0 250 250" fill="none" xmlns="http://www.w3.org/2000/svg">
<path d="M17 205H124.153C129.039 205 133 208.961 133 213.847V229.305H25.8475C20.9611 229.305 17 225.344 17 220.457V205Z" fill="white"/>
<path d="M25.4639 221.806C25.0537 221.806 24.71 221.751 24.4326 221.642V220.224C24.7178 220.337 25.0127 220.394 25.3174 220.394C25.7861 220.394 26.1475 219.958 26.4014 219.087L24.2041 213.122H25.874L26.9639 216.468C27.0537 216.777 27.1104 217.04 27.1338 217.259H27.1807L27.2627 216.861L27.3506 216.468L28.2822 213.122H29.8936L27.9834 219.181C27.6787 220.138 27.3291 220.816 26.9346 221.214C26.5439 221.609 26.0537 221.806 25.4639 221.806ZM35.0967 215.15C35.0967 215.681 34.9385 216.122 34.6221 216.474C34.3096 216.822 33.8584 217.056 33.2686 217.177V217.224C33.9092 217.302 34.4053 217.517 34.7568 217.868C35.1123 218.216 35.29 218.681 35.29 219.263C35.29 220.052 35.0361 220.673 34.5283 221.126C34.0244 221.579 33.3369 221.806 32.4658 221.806C31.5439 221.806 30.8252 221.671 30.3096 221.402V220.007C30.8877 220.327 31.5029 220.488 32.1553 220.488C33.1787 220.488 33.6904 220.04 33.6904 219.146C33.6904 218.74 33.542 218.431 33.2451 218.22C32.9521 218.005 32.5166 217.898 31.9385 217.898H31.3643V216.591H31.8799C32.4463 216.591 32.8643 216.493 33.1338 216.298C33.4033 216.099 33.5381 215.792 33.5381 215.378C33.5381 215.046 33.4482 214.792 33.2686 214.616C33.0889 214.437 32.8291 214.347 32.4893 214.347C31.9697 214.347 31.4775 214.558 31.0127 214.98L30.2568 213.913C30.6436 213.581 31.0361 213.347 31.4346 213.21C31.833 213.07 32.2764 212.999 32.7646 212.999C33.4717 212.999 34.0361 213.197 34.458 213.591C34.8838 213.982 35.0967 214.501 35.0967 215.15ZM41.7588 221.689H40.165V217.933H38.0615V221.689H36.4678V213.122H38.0615V216.527H40.165V213.122H41.7588V221.689ZM47.3311 221.689L46.8389 219.527H44.6064L44.1143 221.689H42.5205L44.6416 213.087H46.8037L48.9307 221.689H47.3311ZM46.54 218.115L46.083 216.122C46.0557 216.001 45.9932 215.698 45.8955 215.214C45.8018 214.726 45.7451 214.4 45.7256 214.236C45.6748 214.572 45.6104 214.943 45.5322 215.349C45.4541 215.751 45.251 216.673 44.9229 218.115H46.54ZM49.6865 213.122H51.1631V217.827C51.1631 218.316 51.126 218.798 51.0518 219.275H51.1162L53.7295 213.122H55.6865V221.689H54.2217V216.995C54.2217 216.417 54.2666 215.909 54.3564 215.472H54.2803L51.6553 221.689H49.6865V213.122ZM54.8252 210.538C54.7471 211.195 54.5322 211.675 54.1807 211.98C53.833 212.284 53.3193 212.437 52.6396 212.437C51.9756 212.437 51.4775 212.288 51.1455 211.991C50.8135 211.691 50.6162 211.206 50.5537 210.538H51.8486C51.8916 210.929 51.9736 211.193 52.0947 211.329C52.2197 211.466 52.4131 211.534 52.6748 211.534C52.9326 211.534 53.124 211.456 53.249 211.3C53.3779 211.144 53.4639 210.89 53.5068 210.538H54.8252ZM59.8291 221.689H58.2412V214.523H56.6006V213.122H61.4697V214.523H59.8291V221.689ZM66.251 221.689H62.3896V213.122H66.251V214.499H63.9834V216.538H66.0869V217.921H63.9834V220.294H66.251V221.689ZM75.7549 221.689H74.1729V214.523H72.0576V221.689H70.4639V213.122H75.7549V221.689ZM83.167 217.394C83.167 218.812 82.9014 219.902 82.3701 220.663C81.8389 221.425 81.0791 221.806 80.0908 221.806C79.0986 221.806 78.3369 221.427 77.8057 220.669C77.2744 219.907 77.0088 218.812 77.0088 217.382C77.0088 215.964 77.2744 214.878 77.8057 214.124C78.3369 213.366 79.1025 212.988 80.1025 212.988C81.0908 212.988 81.8486 213.368 82.376 214.13C82.9033 214.888 83.167 215.976 83.167 217.394ZM78.6377 217.394C78.6377 218.37 78.7607 219.115 79.0068 219.626C79.2529 220.138 79.6143 220.394 80.0908 220.394C81.0518 220.394 81.5322 219.394 81.5322 217.394C81.5322 215.394 81.0557 214.394 80.1025 214.394C79.6182 214.394 79.2529 214.65 79.0068 215.161C78.7607 215.669 78.6377 216.413 78.6377 217.394ZM90.6611 224.138H89.1143V221.689H85.2705V224.138H83.7236V220.282H84.2275C85.0322 218.146 85.5479 215.759 85.7744 213.122H89.6885V220.282H90.6611V224.138ZM88.0947 220.282V214.523H87.1221C87.0244 215.472 86.8662 216.458 86.6475 217.482C86.4326 218.501 86.1787 219.435 85.8857 220.282H88.0947ZM96.2744 215.759C96.2744 216.669 96.0439 217.368 95.583 217.857C95.126 218.341 94.4639 218.583 93.5967 218.583H93.1982V221.689H91.6045V213.122H93.7783C95.4424 213.122 96.2744 214.001 96.2744 215.759ZM93.1982 217.2H93.5029C93.8936 217.2 94.1846 217.093 94.376 216.878C94.5674 216.663 94.6631 216.312 94.6631 215.823C94.6631 215.374 94.5752 215.042 94.3994 214.827C94.2236 214.609 93.9521 214.499 93.585 214.499H93.1982V217.2ZM103.253 217.394C103.253 218.812 102.987 219.902 102.456 220.663C101.925 221.425 101.165 221.806 100.177 221.806C99.1846 221.806 98.4229 221.427 97.8916 220.669C97.3604 219.907 97.0947 218.812 97.0947 217.382C97.0947 215.964 97.3604 214.878 97.8916 214.124C98.4229 213.366 99.1885 212.988 100.188 212.988C101.177 212.988 101.935 213.368 102.462 214.13C102.989 214.888 103.253 215.976 103.253 217.394ZM98.7236 217.394C98.7236 218.37 98.8467 219.115 99.0928 219.626C99.3389 220.138 99.7002 220.394 100.177 220.394C101.138 220.394 101.618 219.394 101.618 217.394C101.618 215.394 101.142 214.394 100.188 214.394C99.7041 214.394 99.3389 214.65 99.0928 215.161C98.8467 215.669 98.7236 216.413 98.7236 217.394ZM109.235 218.964C109.235 219.831 109.013 220.503 108.567 220.98C108.126 221.452 107.493 221.689 106.669 221.689H104.507V213.122H108.573V214.511H106.101V216.468H106.604C107.472 216.468 108.126 216.677 108.567 217.095C109.013 217.513 109.235 218.136 109.235 218.964ZM106.101 220.306H106.593C107.284 220.306 107.63 219.878 107.63 219.023C107.63 218.613 107.542 218.318 107.366 218.138C107.194 217.954 106.901 217.863 106.487 217.863H106.101V220.306ZM115.646 221.689H114.052V217.933H111.948V221.689H110.354V213.122H111.948V216.527H114.052V213.122H115.646V221.689ZM121.024 221.689H117.163V213.122H121.024V214.499H118.757V216.538H120.86V217.921H118.757V220.294H121.024V221.689ZM126.134 221.689H122.272V213.122H126.134V214.499H123.866V216.538H125.97V217.921H123.866V220.294H126.134V221.689Z" fill="#0090D7"/>
</svg>
