<svg width="320" height="480" viewBox="0 0 320 480" fill="none" xmlns="http://www.w3.org/2000/svg">
<path d="M73.7388 67.1436H69.2271V60H58.0161V67.1436H53.5044V55.8984H54.9741C57.3211 49.6663 58.825 42.7051 59.4858 35.0146H70.9019V55.8984H73.7388V67.1436ZM66.2534 55.8984V39.0991H63.4165C63.1317 41.8677 62.6702 44.7445 62.0322 47.7295C61.4056 50.7031 60.665 53.4261 59.8105 55.8984H66.2534ZM77.96 60.3418C76.7637 60.3418 75.7611 60.1823 74.9521 59.8633V55.7275C75.7839 56.0579 76.644 56.2231 77.5327 56.2231C78.8999 56.2231 79.9538 54.9528 80.6943 52.4121L74.2856 35.0146H79.1562L82.335 44.7729C82.597 45.673 82.7622 46.4421 82.8306 47.0801H82.9673L83.2065 45.918L83.4629 44.7729L86.1802 35.0146H90.8799L85.3086 52.6855C84.4199 55.4769 83.4002 57.4536 82.2495 58.6157C81.1102 59.7664 79.6803 60.3418 77.96 60.3418ZM106.893 52.0532C106.893 54.5825 106.244 56.5422 104.945 57.9321C103.657 59.3107 101.812 60 99.4077 60H93.1016V35.0146H104.962V39.0649H97.75V44.7729H99.2197C101.749 44.7729 103.657 45.3825 104.945 46.6016C106.244 47.8206 106.893 49.6379 106.893 52.0532ZM97.75 55.9668H99.1855C101.202 55.9668 102.21 54.7192 102.21 52.2241C102.21 51.0278 101.954 50.1676 101.441 49.6436C100.94 49.1081 100.086 48.8403 98.8779 48.8403H97.75V55.9668ZM121.983 60L120.548 53.6938H114.037L112.601 60H107.953L114.139 34.9121H120.445L126.649 60H121.983ZM119.676 49.5752L118.343 43.7646C118.264 43.4115 118.081 42.5285 117.796 41.1157C117.523 39.6916 117.358 38.7402 117.301 38.2617C117.153 39.2415 116.965 40.3239 116.737 41.5088C116.509 42.6823 115.917 45.3711 114.959 49.5752H119.676ZM128.854 35.0146H133.16V48.7378C133.16 50.1619 133.052 51.569 132.835 52.959H133.023L140.646 35.0146H146.354V60H142.081V46.311C142.081 44.6248 142.212 43.1437 142.474 41.8677H142.252L134.596 60H128.854V35.0146ZM143.841 27.478C143.613 29.3921 142.987 30.7935 141.961 31.6821C140.947 32.5708 139.449 33.0151 137.467 33.0151C135.53 33.0151 134.077 32.5822 133.109 31.7163C132.14 30.839 131.565 29.4263 131.383 27.478H135.16C135.285 28.6174 135.524 29.3864 135.877 29.7852C136.242 30.1839 136.806 30.3833 137.569 30.3833C138.321 30.3833 138.88 30.1554 139.244 29.6997C139.62 29.244 139.871 28.5034 139.996 27.478H143.841ZM150.455 57.6587C150.455 56.77 150.689 56.0807 151.156 55.5908C151.634 55.1009 152.341 54.856 153.275 54.856C154.209 54.856 154.916 55.1009 155.394 55.5908C155.873 56.0693 156.112 56.7586 156.112 57.6587C156.112 58.5474 155.861 59.2367 155.36 59.7266C154.87 60.2165 154.175 60.4614 153.275 60.4614C152.352 60.4614 151.651 60.2165 151.173 59.7266C150.694 59.2253 150.455 58.536 150.455 57.6587ZM187.079 67.1436H182.567V60H171.356V67.1436H166.844V55.8984H168.314C170.661 49.6663 172.165 42.7051 172.826 35.0146H184.242V55.8984H187.079V67.1436ZM179.593 55.8984V39.0991H176.756C176.472 41.8677 176.01 44.7445 175.372 47.7295C174.745 50.7031 174.005 53.4261 173.15 55.8984H179.593ZM201.656 60L200.221 53.6938H193.709L192.274 60H187.625L193.812 34.9121H200.118L206.322 60H201.656ZM199.349 49.5752L198.016 43.7646C197.936 43.4115 197.754 42.5285 197.469 41.1157C197.196 39.6916 197.031 38.7402 196.974 38.2617C196.826 39.2415 196.638 40.3239 196.41 41.5088C196.182 42.6823 195.589 45.3711 194.632 49.5752H199.349ZM208.526 35.0146H214.901C217.499 35.0146 219.39 35.5216 220.575 36.5356C221.76 37.5382 222.352 39.139 222.352 41.3379C222.352 42.7848 222.039 43.9982 221.412 44.978C220.785 45.9465 219.931 46.5332 218.849 46.7383V46.9092C220.261 47.2624 221.281 47.9232 221.908 48.8916C222.534 49.86 222.848 51.1475 222.848 52.7539C222.848 55.0212 222.238 56.7985 221.019 58.0859C219.811 59.362 218.154 60 216.046 60H208.526V35.0146ZM212.901 45.0635H215.038C216.017 45.0635 216.707 44.8014 217.105 44.2773C217.504 43.7533 217.704 42.9728 217.704 41.936C217.704 40.8993 217.476 40.1587 217.02 39.7144C216.564 39.2586 215.847 39.0308 214.867 39.0308H212.901V45.0635ZM212.901 48.9429V55.9326H215.243C216.211 55.9326 216.929 55.6364 217.396 55.0439C217.875 54.4515 218.114 53.5343 218.114 52.2925C218.114 50.0594 217.134 48.9429 215.174 48.9429H212.901ZM238.092 60L236.656 53.6938H230.145L228.709 60H224.061L230.248 34.9121H236.554L242.757 60H238.092ZM235.785 49.5752L234.452 43.7646C234.372 43.4115 234.19 42.5285 233.905 41.1157C233.631 39.6916 233.466 38.7402 233.409 38.2617C233.261 39.2415 233.073 40.3239 232.845 41.5088C232.617 42.6823 232.025 45.3711 231.068 49.5752H235.785ZM244.962 35.0146H249.269V48.7378C249.269 50.1619 249.16 51.569 248.944 52.959H249.132L256.754 35.0146H262.462V60H258.189V46.311C258.189 44.6248 258.32 43.1437 258.583 41.8677H258.36L250.704 60H244.962V35.0146ZM259.95 27.478C259.722 29.3921 259.095 30.7935 258.07 31.6821C257.056 32.5708 255.558 33.0151 253.575 33.0151C251.638 33.0151 250.186 32.5822 249.217 31.7163C248.249 30.839 247.674 29.4263 247.491 27.478H251.268C251.393 28.6174 251.633 29.3864 251.986 29.7852C252.35 30.1839 252.914 30.3833 253.678 30.3833C254.43 30.3833 254.988 30.1554 255.353 29.6997C255.729 29.244 255.979 28.5034 256.104 27.478H259.95ZM96.6221 102H92.0078V81.0991H85.8384V102H81.1899V77.0146H96.6221V102ZM118.241 89.4731C118.241 93.6089 117.466 96.7876 115.917 99.0093C114.367 101.231 112.151 102.342 109.269 102.342C106.375 102.342 104.153 101.237 102.604 99.0264C101.054 96.8047 100.279 93.6089 100.279 89.439C100.279 85.3032 101.054 82.1359 102.604 79.937C104.153 77.7267 106.386 76.6216 109.303 76.6216C112.185 76.6216 114.396 77.7324 115.934 79.9541C117.472 82.1644 118.241 85.3374 118.241 89.4731ZM105.03 89.4731C105.03 92.3215 105.389 94.4919 106.107 95.9844C106.825 97.4769 107.879 98.2231 109.269 98.2231C112.071 98.2231 113.473 95.3065 113.473 89.4731C113.473 83.6398 112.083 80.7231 109.303 80.7231C107.89 80.7231 106.825 81.4694 106.107 82.9619C105.389 84.443 105.03 86.6134 105.03 89.4731ZM145.978 102H141.329V91.0454H135.194V102H130.545V77.0146H135.194V86.9438H141.329V77.0146H145.978V102ZM167.596 89.4731C167.596 93.6089 166.821 96.7876 165.272 99.0093C163.722 101.231 161.507 102.342 158.624 102.342C155.73 102.342 153.508 101.237 151.959 99.0264C150.41 96.8047 149.635 93.6089 149.635 89.439C149.635 85.3032 150.41 82.1359 151.959 79.937C153.508 77.7267 155.742 76.6216 158.658 76.6216C161.541 76.6216 163.751 77.7324 165.289 79.9541C166.827 82.1644 167.596 85.3374 167.596 89.4731ZM154.386 89.4731C154.386 92.3215 154.745 94.4919 155.462 95.9844C156.18 97.4769 157.234 98.2231 158.624 98.2231C161.427 98.2231 162.828 95.3065 162.828 89.4731C162.828 83.6398 161.438 80.7231 158.658 80.7231C157.245 80.7231 156.18 81.4694 155.462 82.9619C154.745 84.443 154.386 86.6134 154.386 89.4731ZM171.253 77.0146H177.628C180.226 77.0146 182.117 77.5216 183.302 78.5356C184.487 79.5382 185.079 81.139 185.079 83.3379C185.079 84.7848 184.766 85.9982 184.139 86.978C183.513 87.9465 182.658 88.5332 181.576 88.7383V88.9092C182.988 89.2624 184.008 89.9232 184.635 90.8916C185.261 91.86 185.575 93.1475 185.575 94.7539C185.575 97.0212 184.965 98.7985 183.746 100.086C182.538 101.362 180.881 102 178.773 102H171.253V77.0146ZM175.628 87.0635H177.765C178.744 87.0635 179.434 86.8014 179.833 86.2773C180.231 85.7533 180.431 84.9728 180.431 83.936C180.431 82.8993 180.203 82.1587 179.747 81.7144C179.291 81.2586 178.574 81.0308 177.594 81.0308H175.628V87.0635ZM175.628 90.9429V97.9326H177.97C178.938 97.9326 179.656 97.6364 180.123 97.0439C180.602 96.4515 180.841 95.5343 180.841 94.2925C180.841 92.0594 179.861 90.9429 177.901 90.9429H175.628ZM206.185 89.4731C206.185 93.6089 205.41 96.7876 203.861 99.0093C202.311 101.231 200.095 102.342 197.213 102.342C194.319 102.342 192.097 101.237 190.548 99.0264C188.998 96.8047 188.224 93.6089 188.224 89.439C188.224 85.3032 188.998 82.1359 190.548 79.937C192.097 77.7267 194.33 76.6216 197.247 76.6216C200.13 76.6216 202.34 77.7324 203.878 79.9541C205.416 82.1644 206.185 85.3374 206.185 89.4731ZM192.975 89.4731C192.975 92.3215 193.333 94.4919 194.051 95.9844C194.769 97.4769 195.823 98.2231 197.213 98.2231C200.016 98.2231 201.417 95.3065 201.417 89.4731C201.417 83.6398 200.027 80.7231 197.247 80.7231C195.834 80.7231 194.769 81.4694 194.051 82.9619C193.333 84.443 192.975 86.6134 192.975 89.4731ZM209.842 77.0146H214.149V90.7378C214.149 92.1619 214.041 93.569 213.824 94.959H214.012L221.634 77.0146H227.342V102H223.07V88.311C223.07 86.6248 223.201 85.1437 223.463 83.8677H223.241L215.584 102H209.842V77.0146ZM224.83 69.478C224.602 71.3921 223.976 72.7935 222.95 73.6821C221.936 74.5708 220.438 75.0151 218.456 75.0151C216.519 75.0151 215.066 74.5822 214.098 73.7163C213.129 72.839 212.554 71.4263 212.372 69.478H216.148C216.274 70.6174 216.513 71.3864 216.866 71.7852C217.231 72.1839 217.795 72.3833 218.558 72.3833C219.31 72.3833 219.868 72.1554 220.233 71.6997C220.609 71.244 220.86 70.5034 220.985 69.478H224.83ZM231.444 99.6587C231.444 98.77 231.677 98.0807 232.145 97.5908C232.623 97.1009 233.329 96.856 234.264 96.856C235.198 96.856 235.904 97.1009 236.383 97.5908C236.861 98.0693 237.101 98.7586 237.101 99.6587C237.101 100.547 236.85 101.237 236.349 101.727C235.859 102.216 235.164 102.461 234.264 102.461C233.341 102.461 232.64 102.216 232.162 101.727C231.683 101.225 231.444 100.536 231.444 99.6587Z" fill="white"/>
</svg>
