<svg width="320" height="480" viewBox="0 0 320 480" fill="none" xmlns="http://www.w3.org/2000/svg">
<path d="M53.5898 71.6836C53.5898 76.4102 52.7044 80.043 50.9336 82.582C49.1628 85.1211 46.6302 86.3906 43.3359 86.3906C40.0286 86.3906 37.4896 85.1276 35.7188 82.6016C33.9479 80.0625 33.0625 76.4102 33.0625 71.6445C33.0625 66.918 33.9479 63.2982 35.7188 60.7852C37.4896 58.2591 40.0417 56.9961 43.375 56.9961C46.6693 56.9961 49.1953 58.2656 50.9531 60.8047C52.7109 63.3307 53.5898 66.957 53.5898 71.6836ZM38.4922 71.6836C38.4922 74.9388 38.9023 77.4193 39.7227 79.125C40.543 80.8307 41.7474 81.6836 43.3359 81.6836C46.5391 81.6836 48.1406 78.3503 48.1406 71.6836C48.1406 65.0169 46.5521 61.6836 43.375 61.6836C41.7604 61.6836 40.543 62.5365 39.7227 64.2422C38.9023 65.9349 38.4922 68.4154 38.4922 71.6836ZM57.7695 57.4453H62.6914V73.1289C62.6914 74.7565 62.5677 76.3646 62.3203 77.9531H62.5352L71.2461 57.4453H77.7695V86H72.8867V70.3555C72.8867 68.4284 73.0365 66.7357 73.3359 65.2773H73.082L64.332 86H57.7695V57.4453ZM74.8984 48.832C74.638 51.0195 73.9219 52.6211 72.75 53.6367C71.5911 54.6523 69.8789 55.1602 67.6133 55.1602C65.3997 55.1602 63.7396 54.6654 62.6328 53.6758C61.526 52.6732 60.8685 51.0586 60.6602 48.832H64.9766C65.1198 50.1341 65.3932 51.013 65.7969 51.4688C66.2135 51.9245 66.8581 52.1523 67.7305 52.1523C68.5898 52.1523 69.2279 51.8919 69.6445 51.3711C70.0742 50.8503 70.3607 50.0039 70.5039 48.832H74.8984ZM98.5703 76.918C98.5703 79.8086 97.8281 82.0482 96.3438 83.6367C94.8724 85.2122 92.763 86 90.0156 86H82.8086V57.4453H96.3633V62.0742H88.1211V68.5977H89.8008C92.6914 68.5977 94.8724 69.2943 96.3438 70.6875C97.8281 72.0807 98.5703 74.1576 98.5703 76.918ZM88.1211 81.3906H89.7617C92.0664 81.3906 93.2188 79.9648 93.2188 77.1133C93.2188 75.7461 92.9258 74.763 92.3398 74.1641C91.7669 73.5521 90.7904 73.2461 89.4102 73.2461H88.1211V81.3906ZM115.816 86L114.176 78.793H106.734L105.094 86H99.7812L106.852 57.3281H114.059L121.148 86H115.816ZM113.18 74.0859L111.656 67.4453C111.565 67.0417 111.357 66.0326 111.031 64.418C110.719 62.7904 110.53 61.7031 110.465 61.1562C110.296 62.276 110.081 63.513 109.82 64.8672C109.56 66.2083 108.883 69.2812 107.789 74.0859H113.18ZM123.668 57.4453H128.59V73.1289C128.59 74.7565 128.466 76.3646 128.219 77.9531H128.434L137.145 57.4453H143.668V86H138.785V70.3555C138.785 68.4284 138.935 66.7357 139.234 65.2773H138.98L130.23 86H123.668V57.4453ZM140.797 48.832C140.536 51.0195 139.82 52.6211 138.648 53.6367C137.49 54.6523 135.777 55.1602 133.512 55.1602C131.298 55.1602 129.638 54.6654 128.531 53.6758C127.424 52.6732 126.767 51.0586 126.559 48.832H130.875C131.018 50.1341 131.292 51.013 131.695 51.4688C132.112 51.9245 132.757 52.1523 133.629 52.1523C134.488 52.1523 135.126 51.8919 135.543 51.3711C135.973 50.8503 136.259 50.0039 136.402 48.832H140.797ZM154.586 81.8008C153.909 84.431 152.763 87.5495 151.148 91.1562H147.184C148.03 87.6927 148.688 84.4245 149.156 81.3516H154.312L154.586 81.8008ZM190.211 94.1641H185.055V86H172.242V94.1641H167.086V81.3125H168.766C171.448 74.1901 173.167 66.2344 173.922 57.4453H186.969V81.3125H190.211V94.1641ZM181.656 81.3125V62.1133H178.414C178.089 65.2773 177.561 68.5651 176.832 71.9766C176.116 75.375 175.27 78.487 174.293 81.3125H181.656ZM195.035 86.3906C193.668 86.3906 192.522 86.2083 191.598 85.8438V81.1172C192.548 81.4948 193.531 81.6836 194.547 81.6836C196.109 81.6836 197.314 80.2318 198.16 77.3281L190.836 57.4453H196.402L200.035 68.5977C200.335 69.6263 200.523 70.5052 200.602 71.2344H200.758L201.031 69.9062L201.324 68.5977L204.43 57.4453H209.801L203.434 77.6406C202.418 80.8307 201.253 83.0898 199.938 84.418C198.635 85.7331 197.001 86.3906 195.035 86.3906ZM228.102 76.918C228.102 79.8086 227.359 82.0482 225.875 83.6367C224.404 85.2122 222.294 86 219.547 86H212.34V57.4453H225.895V62.0742H217.652V68.5977H219.332C222.223 68.5977 224.404 69.2943 225.875 70.6875C227.359 72.0807 228.102 74.1576 228.102 76.918ZM217.652 81.3906H219.293C221.598 81.3906 222.75 79.9648 222.75 77.1133C222.75 75.7461 222.457 74.763 221.871 74.1641C221.298 73.5521 220.322 73.2461 218.941 73.2461H217.652V81.3906ZM245.348 86L243.707 78.793H236.266L234.625 86H229.312L236.383 57.3281H243.59L250.68 86H245.348ZM242.711 74.0859L241.188 67.4453C241.096 67.0417 240.888 66.0326 240.562 64.418C240.25 62.7904 240.061 61.7031 239.996 61.1562C239.827 62.276 239.612 63.513 239.352 64.8672C239.091 66.2083 238.414 69.2812 237.32 74.0859H242.711ZM253.199 57.4453H258.121V73.1289C258.121 74.7565 257.997 76.3646 257.75 77.9531H257.965L266.676 57.4453H273.199V86H268.316V70.3555C268.316 68.4284 268.466 66.7357 268.766 65.2773H268.512L259.762 86H253.199V57.4453ZM270.328 48.832C270.068 51.0195 269.352 52.6211 268.18 53.6367C267.021 54.6523 265.309 55.1602 263.043 55.1602C260.829 55.1602 259.169 54.6654 258.062 53.6758C256.956 52.6732 256.298 51.0586 256.09 48.832H260.406C260.549 50.1341 260.823 51.013 261.227 51.4688C261.643 51.9245 262.288 52.1523 263.16 52.1523C264.02 52.1523 264.658 51.8919 265.074 51.3711C265.504 50.8503 265.79 50.0039 265.934 48.832H270.328ZM283.277 76.8008H279L278.043 57.4453H284.273L283.277 76.8008ZM277.887 83.3242C277.887 82.3086 278.154 81.5208 278.688 80.9609C279.234 80.401 280.042 80.1211 281.109 80.1211C282.177 80.1211 282.984 80.401 283.531 80.9609C284.078 81.5078 284.352 82.2956 284.352 83.3242C284.352 84.3398 284.065 85.1276 283.492 85.6875C282.932 86.2474 282.138 86.5273 281.109 86.5273C280.055 86.5273 279.254 86.2474 278.707 85.6875C278.16 85.1146 277.887 84.3268 277.887 83.3242Z" fill="white"/>
</svg>
