<svg width="320" height="50" viewBox="0 0 320 50" fill="none" xmlns="http://www.w3.org/2000/svg">
<path d="M12 15H105.297C109.551 15 113 18.4489 113 22.7034V36.1619H19.7034C15.4489 36.1619 12 32.713 12 28.4585V15Z" fill="white"/>
<path d="M17.9375 30.3374C17.4978 30.3374 17.1292 30.2788 16.8319 30.1615V28.6412C17.1376 28.7627 17.4538 28.8234 17.7805 28.8234C18.2831 28.8234 18.6705 28.3565 18.9427 27.4225L16.5869 21.0272H18.3773L19.5458 24.6144C19.6421 24.9452 19.7028 25.2279 19.728 25.4625H19.7782L19.8662 25.0353L19.9604 24.6144L20.9593 21.0272H22.6869L20.6389 27.523C20.3122 28.5491 19.9374 29.2757 19.5144 29.7029C19.0956 30.1259 18.57 30.3374 17.9375 30.3374ZM28.2655 23.2009C28.2655 23.7705 28.0958 24.2437 27.7566 24.6206C27.4216 24.9934 26.9378 25.2447 26.3054 25.3745V25.4248C26.9923 25.5085 27.5242 25.7389 27.9011 26.1158C28.2822 26.4886 28.4728 26.9869 28.4728 27.611C28.4728 28.457 28.2005 29.1229 27.6561 29.6087C27.1158 30.0945 26.3787 30.3374 25.4448 30.3374C24.4564 30.3374 23.6857 30.1929 23.1329 29.904V28.4088C23.7528 28.7522 24.4124 28.9239 25.1118 28.9239C26.2091 28.9239 26.7577 28.4444 26.7577 27.4853C26.7577 27.0498 26.5986 26.7189 26.2803 26.4927C25.9662 26.2624 25.4992 26.1472 24.8794 26.1472H24.2637V24.7463H24.8165C25.4238 24.7463 25.8719 24.6416 26.1609 24.4322C26.4499 24.2186 26.5944 23.8898 26.5944 23.4459C26.5944 23.0899 26.4981 22.8177 26.3054 22.6292C26.1128 22.4365 25.8343 22.3402 25.4699 22.3402C24.9129 22.3402 24.3852 22.5664 23.8868 23.0187L23.0764 21.8753C23.491 21.5193 23.9119 21.2681 24.3391 21.1215C24.7663 20.9707 25.2416 20.8953 25.7652 20.8953C26.5232 20.8953 27.1284 21.1068 27.5807 21.5298C28.0372 21.9486 28.2655 22.5056 28.2655 23.2009ZM35.4083 30.2118H33.6996V26.1849H31.4442V30.2118H29.7355V21.0272H31.4442V24.6772H33.6996V21.0272H35.4083V30.2118ZM41.3827 30.2118L40.855 27.8937H38.4614L37.9337 30.2118H36.225L38.4991 20.9895H40.8173L43.0977 30.2118H41.3827ZM40.5346 26.3797L40.0446 24.2437C40.0152 24.1139 39.9482 23.7893 39.8435 23.27C39.743 22.7465 39.6823 22.3968 39.6613 22.2209C39.6069 22.581 39.5378 22.9789 39.454 23.4145C39.3703 23.8458 39.1525 24.8342 38.8007 26.3797H40.5346ZM43.9081 21.0272H45.4912V26.0718C45.4912 26.5953 45.4514 27.1126 45.3719 27.6235H45.441L48.2428 21.0272H50.3411V30.2118H48.7705V25.1798C48.7705 24.5599 48.8187 24.0155 48.915 23.5464H48.8333L46.0189 30.2118H43.9081V21.0272ZM49.4176 18.2568C49.3338 18.9604 49.1035 19.4755 48.7265 19.8022C48.3538 20.1289 47.8031 20.2922 47.0743 20.2922C46.3623 20.2922 45.8284 20.1331 45.4724 19.8148C45.1164 19.4923 44.9049 18.973 44.8379 18.2568H46.2262C46.2723 18.6756 46.3602 18.9583 46.4901 19.1049C46.6241 19.2515 46.8314 19.3248 47.112 19.3248C47.3884 19.3248 47.5937 19.241 47.7277 19.0735C47.8659 18.906 47.958 18.6337 48.0041 18.2568H49.4176ZM54.7826 30.2118H53.0801V22.5287H51.3211V21.0272H56.5416V22.5287H54.7826V30.2118ZM61.6678 30.2118H57.5279V21.0272H61.6678V22.5036H59.2366V24.6898H61.4919V26.1723H59.2366V28.7166H61.6678V30.2118ZM71.2544 27.2906C71.2544 28.2203 71.0157 28.9407 70.5383 29.4516C70.065 29.9584 69.3865 30.2118 68.5029 30.2118H66.1847V21.0272H70.5446V22.5161H67.8935V24.6144H68.4337C69.3635 24.6144 70.065 24.8384 70.5383 25.2866C71.0157 25.7347 71.2544 26.4027 71.2544 27.2906ZM67.8935 28.7292H68.4212C69.1625 28.7292 69.5331 28.2706 69.5331 27.3534C69.5331 26.9136 69.4389 26.5974 69.2504 26.4048C69.0662 26.2079 68.752 26.1095 68.3081 26.1095H67.8935V28.7292ZM78.7742 25.607C78.7742 27.1272 78.4894 28.2957 77.9199 29.1124C77.3503 29.9291 76.5357 30.3374 75.4761 30.3374C74.4123 30.3374 73.5956 29.9312 73.026 29.1187C72.4564 28.302 72.1717 27.1272 72.1717 25.5944C72.1717 24.0741 72.4564 22.9098 73.026 22.1015C73.5956 21.289 74.4165 20.8827 75.4886 20.8827C76.5482 20.8827 77.3607 21.2911 77.9261 22.1078C78.4915 22.9203 78.7742 24.0867 78.7742 25.607ZM73.9181 25.607C73.9181 26.654 74.05 27.4518 74.3139 28.0005C74.5777 28.5491 74.9651 28.8234 75.4761 28.8234C76.5064 28.8234 77.0215 27.7513 77.0215 25.607C77.0215 23.4626 76.5105 22.3905 75.4886 22.3905C74.9693 22.3905 74.5777 22.6648 74.3139 23.2134C74.05 23.7579 73.9181 24.5557 73.9181 25.607ZM85.7914 30.2118H84.0827V22.5287H82.7069C82.5184 24.6479 82.3299 26.3985 82.1415 27.7806C82.0158 28.6643 81.7876 29.3113 81.4567 29.7218C81.13 30.1322 80.6924 30.3374 80.1437 30.3374C79.8045 30.3374 79.526 30.2914 79.3082 30.1992V28.7857C79.4339 28.836 79.5888 28.8611 79.7731 28.8611C80.0076 28.8611 80.1856 28.6768 80.3071 28.3083C80.4327 27.9397 80.573 27.1126 80.728 25.8268C80.8871 24.5411 81.0526 22.9412 81.2243 21.0272H85.7914V30.2118ZM92.4254 27.2906C92.4254 28.2162 92.1804 28.9344 91.6904 29.4454C91.2004 29.9563 90.5052 30.2118 89.6047 30.2118H87.4185V21.0272H89.1273V24.6144H89.567C91.4726 24.6144 92.4254 25.5064 92.4254 27.2906ZM89.1273 28.7292H89.5545C90.3167 28.7292 90.6978 28.2706 90.6978 27.3534C90.6978 26.9095 90.6036 26.5912 90.4151 26.3985C90.2308 26.2059 89.9146 26.1095 89.4665 26.1095H89.1273V28.7292ZM98.9903 28.7041H100.975V21.0272H102.684V30.2118H93.6002V21.0272H95.3089V28.7041H97.2941V21.0272H98.9903V28.7041ZM108.445 30.2118H104.305V21.0272H108.445V22.5036H106.014V24.6898H108.269V26.1723H106.014V28.7166H108.445V30.2118Z" fill="#0090D7"/>
</svg>
