<svg width="970" height="250" viewBox="0 0 970 250" fill="none" xmlns="http://www.w3.org/2000/svg">
<path d="M68.71 96.1045C68.71 102.013 67.6032 106.554 65.3896 109.728C63.1761 112.901 60.0104 114.488 55.8926 114.488C51.7585 114.488 48.5846 112.91 46.3711 109.752C44.1576 106.578 43.0508 102.013 43.0508 96.0557C43.0508 90.1475 44.1576 85.6227 46.3711 82.4814C48.5846 79.3239 51.7747 77.7451 55.9414 77.7451C60.0592 77.7451 63.2168 79.332 65.4141 82.5059C67.6113 85.6634 68.71 90.1963 68.71 96.1045ZM49.8379 96.1045C49.8379 100.174 50.3506 103.274 51.376 105.406C52.4014 107.538 53.9069 108.604 55.8926 108.604C59.8965 108.604 61.8984 104.438 61.8984 96.1045C61.8984 87.7712 59.9128 83.6045 55.9414 83.6045C53.9232 83.6045 52.4014 84.6706 51.376 86.8027C50.3506 88.9186 49.8379 92.0192 49.8379 96.1045ZM73.9346 78.3066H80.0869V97.9111C80.0869 99.9456 79.9323 101.956 79.623 103.941H79.8916L90.7803 78.3066H98.9346V114H92.8311V94.4443C92.8311 92.0355 93.0182 89.9196 93.3926 88.0967H93.0752L82.1377 114H73.9346V78.3066ZM95.3457 67.54C95.0202 70.2744 94.125 72.2764 92.6602 73.5459C91.2116 74.8154 89.0713 75.4502 86.2393 75.4502C83.4723 75.4502 81.3971 74.8317 80.0137 73.5947C78.6302 72.3415 77.8083 70.3232 77.5479 67.54H82.9434C83.1224 69.1676 83.4642 70.2663 83.9688 70.8359C84.4896 71.4056 85.2952 71.6904 86.3857 71.6904C87.46 71.6904 88.2575 71.3649 88.7783 70.7139C89.3154 70.0628 89.6735 69.0049 89.8525 67.54H95.3457ZM124.936 102.647C124.936 106.261 124.008 109.06 122.152 111.046C120.313 113.015 117.676 114 114.242 114H105.233V78.3066H122.177V84.0928H111.874V92.2471H113.974C117.587 92.2471 120.313 93.1178 122.152 94.8594C124.008 96.6009 124.936 99.1969 124.936 102.647ZM111.874 108.238H113.925C116.806 108.238 118.246 106.456 118.246 102.892C118.246 101.183 117.88 99.9538 117.147 99.2051C116.431 98.4401 115.211 98.0576 113.485 98.0576H111.874V108.238ZM146.493 114L144.442 104.991H135.141L133.09 114H126.449L135.287 78.1602H144.296L153.158 114H146.493ZM143.197 99.1074L141.293 90.8066C141.179 90.3021 140.919 89.0407 140.512 87.0225C140.121 84.988 139.885 83.6289 139.804 82.9453C139.592 84.3451 139.324 85.8913 138.998 87.584C138.673 89.2604 137.826 93.1016 136.459 99.1074H143.197ZM156.308 78.3066H162.46V97.9111C162.46 99.9456 162.305 101.956 161.996 103.941H162.265L173.153 78.3066H181.308V114H175.204V94.4443C175.204 92.0355 175.391 89.9196 175.766 88.0967H175.448L164.511 114H156.308V78.3066ZM177.719 67.54C177.393 70.2744 176.498 72.2764 175.033 73.5459C173.585 74.8154 171.444 75.4502 168.612 75.4502C165.845 75.4502 163.77 74.8317 162.387 73.5947C161.003 72.3415 160.181 70.3232 159.921 67.54H165.316C165.495 69.1676 165.837 70.2663 166.342 70.8359C166.863 71.4056 167.668 71.6904 168.759 71.6904C169.833 71.6904 170.631 71.3649 171.151 70.7139C171.688 70.0628 172.047 69.0049 172.226 67.54H177.719ZM193.905 102.501H188.559L187.362 78.3066H195.15L193.905 102.501ZM187.167 110.655C187.167 109.386 187.501 108.401 188.168 107.701C188.852 107.001 189.861 106.651 191.195 106.651C192.53 106.651 193.539 107.001 194.223 107.701C194.906 108.385 195.248 109.369 195.248 110.655C195.248 111.925 194.89 112.91 194.174 113.609C193.474 114.309 192.481 114.659 191.195 114.659C189.877 114.659 188.876 114.309 188.192 113.609C187.509 112.893 187.167 111.909 187.167 110.655ZM218.783 83.6045C217.172 83.6045 215.422 84.2718 213.534 85.6064L211.288 80.2109C212.46 79.446 213.648 78.8438 214.853 78.4043C216.073 77.9648 217.449 77.7451 218.979 77.7451C222.966 77.7451 226.042 79.332 228.207 82.5059C230.388 85.6634 231.479 90.1475 231.479 95.958C231.479 101.769 230.372 106.31 228.158 109.581C225.961 112.853 222.852 114.488 218.832 114.488C216.081 114.488 213.852 113.91 212.143 112.755V106.847C214.177 108.051 216.244 108.653 218.344 108.653C222.136 108.653 224.219 105.349 224.594 98.7412H215.243V93.0039H224.545C224.122 86.7376 222.201 83.6045 218.783 83.6045ZM247.201 114H240.585V84.1416H233.749V78.3066H254.037V84.1416H247.201V114ZM281.454 96.1045C281.454 102.013 280.347 106.554 278.134 109.728C275.92 112.901 272.755 114.488 268.637 114.488C264.503 114.488 261.329 112.91 259.115 109.752C256.902 106.578 255.795 102.013 255.795 96.0557C255.795 90.1475 256.902 85.6227 259.115 82.4814C261.329 79.3239 264.519 77.7451 268.686 77.7451C272.803 77.7451 275.961 79.332 278.158 82.5059C280.355 85.6634 281.454 90.1963 281.454 96.1045ZM262.582 96.1045C262.582 100.174 263.095 103.274 264.12 105.406C265.146 107.538 266.651 108.604 268.637 108.604C272.641 108.604 274.643 104.438 274.643 96.1045C274.643 87.7712 272.657 83.6045 268.686 83.6045C266.667 83.6045 265.146 84.6706 264.12 86.8027C263.095 88.9186 262.582 92.0192 262.582 96.1045ZM44.1494 138.307H53.2559C56.9668 138.307 59.6686 139.031 61.3613 140.479C63.054 141.912 63.9004 144.199 63.9004 147.34C63.9004 149.407 63.4528 151.14 62.5576 152.54C61.6624 153.924 60.4417 154.762 58.8955 155.055V155.299C60.9137 155.803 62.3704 156.747 63.2656 158.131C64.1608 159.514 64.6084 161.354 64.6084 163.648C64.6084 166.887 63.7376 169.426 61.9961 171.266C60.2708 173.089 57.9027 174 54.8916 174H44.1494V138.307ZM50.3994 152.662H53.4512C54.8509 152.662 55.8356 152.288 56.4053 151.539C56.9749 150.79 57.2598 149.675 57.2598 148.194C57.2598 146.713 56.9342 145.655 56.2832 145.021C55.6322 144.369 54.6068 144.044 53.207 144.044H50.3994V152.662ZM50.3994 158.204V168.189H53.7441C55.1276 168.189 56.153 167.766 56.8203 166.92C57.5039 166.074 57.8457 164.763 57.8457 162.989C57.8457 159.799 56.446 158.204 53.6465 158.204H50.3994ZM81.332 143.604C79.4277 143.604 77.9222 144.719 76.8154 146.949C75.7249 149.179 75.1797 152.28 75.1797 156.251C75.1797 164.519 77.3363 168.653 81.6494 168.653C83.5374 168.653 85.515 168.051 87.582 166.847V172.755C85.8405 173.91 83.6107 174.488 80.8926 174.488C76.8724 174.488 73.7799 172.893 71.6152 169.703C69.4668 166.497 68.3926 161.996 68.3926 156.202C68.3926 150.408 69.4993 145.891 71.7129 142.652C73.9427 139.413 77.0352 137.794 80.9902 137.794C82.2923 137.794 83.5374 137.973 84.7256 138.331C85.93 138.689 87.2158 139.316 88.583 140.211L86.3857 145.606C85.6533 145.102 84.8721 144.646 84.042 144.239C83.2119 143.816 82.3086 143.604 81.332 143.604ZM108.725 174H92.6357V138.307H108.725V144.044H99.2764V152.54H108.041V158.302H99.2764V168.189H108.725V174ZM92.6602 131.495C92.6602 130.502 92.945 129.729 93.5146 129.176C94.0843 128.622 94.8737 128.346 95.8828 128.346C96.8919 128.346 97.6813 128.639 98.251 129.225C98.8369 129.794 99.1299 130.551 99.1299 131.495C99.1299 132.423 98.8369 133.172 98.251 133.741C97.6813 134.311 96.8919 134.596 95.8828 134.596C94.8737 134.596 94.0843 134.327 93.5146 133.79C92.945 133.237 92.6602 132.472 92.6602 131.495ZM102.377 131.495C102.377 130.519 102.662 129.754 103.231 129.2C103.801 128.631 104.599 128.346 105.624 128.346C106.617 128.346 107.406 128.622 107.992 129.176C108.578 129.729 108.871 130.502 108.871 131.495C108.871 132.455 108.578 133.212 107.992 133.766C107.423 134.319 106.633 134.596 105.624 134.596C104.615 134.596 103.817 134.319 103.231 133.766C102.662 133.196 102.377 132.439 102.377 131.495ZM124.838 163.209V157.911H159.921V163.209H124.838ZM177.206 138.307H186.312C190.023 138.307 192.725 139.031 194.418 140.479C196.111 141.912 196.957 144.199 196.957 147.34C196.957 149.407 196.509 151.14 195.614 152.54C194.719 153.924 193.498 154.762 191.952 155.055V155.299C193.97 155.803 195.427 156.747 196.322 158.131C197.217 159.514 197.665 161.354 197.665 163.648C197.665 166.887 196.794 169.426 195.053 171.266C193.327 173.089 190.959 174 187.948 174H177.206V138.307ZM183.456 152.662H186.508C187.908 152.662 188.892 152.288 189.462 151.539C190.032 150.79 190.316 149.675 190.316 148.194C190.316 146.713 189.991 145.655 189.34 145.021C188.689 144.369 187.663 144.044 186.264 144.044H183.456V152.662ZM183.456 158.204V168.189H186.801C188.184 168.189 189.21 167.766 189.877 166.92C190.561 166.074 190.902 164.763 190.902 162.989C190.902 159.799 189.503 158.204 186.703 158.204H183.456ZM240.902 184.205H234.457V174H218.441V184.205H211.996V168.141H214.096C217.449 159.238 219.597 149.293 220.541 138.307H236.85V168.141H240.902V184.205ZM230.209 168.141V144.142H226.156C225.749 148.097 225.09 152.206 224.179 156.471C223.284 160.719 222.226 164.609 221.005 168.141H230.209ZM246.933 174.488C245.224 174.488 243.791 174.26 242.636 173.805V167.896C243.824 168.368 245.053 168.604 246.322 168.604C248.275 168.604 249.781 166.79 250.839 163.16L241.684 138.307H248.642L253.183 152.247C253.557 153.533 253.793 154.632 253.891 155.543H254.086L254.428 153.883L254.794 152.247L258.676 138.307H265.39L257.431 163.551C256.161 167.538 254.704 170.362 253.061 172.022C251.433 173.666 249.39 174.488 246.933 174.488ZM288.266 162.647C288.266 166.261 287.338 169.06 285.482 171.046C283.643 173.015 281.007 174 277.572 174H268.563V138.307H285.507V144.093H275.204V152.247H277.304C280.917 152.247 283.643 153.118 285.482 154.859C287.338 156.601 288.266 159.197 288.266 162.647ZM275.204 168.238H277.255C280.136 168.238 281.576 166.456 281.576 162.892C281.576 161.183 281.21 159.954 280.478 159.205C279.761 158.44 278.541 158.058 276.815 158.058H275.204V168.238ZM309.823 174L307.772 164.991H298.471L296.42 174H289.779L298.617 138.16H307.626L316.488 174H309.823ZM306.527 159.107L304.623 150.807C304.509 150.302 304.249 149.041 303.842 147.022C303.451 144.988 303.215 143.629 303.134 142.945C302.922 144.345 302.654 145.891 302.328 147.584C302.003 149.26 301.156 153.102 299.789 159.107H306.527ZM335.727 174H319.638V138.307H335.727V144.044H326.278V152.54H335.043V158.302H326.278V168.189H335.727V174ZM347.226 162.501H341.879L340.683 138.307H348.471L347.226 162.501ZM340.487 170.655C340.487 169.386 340.821 168.401 341.488 167.701C342.172 167.001 343.181 166.651 344.516 166.651C345.85 166.651 346.859 167.001 347.543 167.701C348.227 168.385 348.568 169.369 348.568 170.655C348.568 171.925 348.21 172.91 347.494 173.609C346.794 174.309 345.801 174.659 344.516 174.659C343.197 174.659 342.196 174.309 341.513 173.609C340.829 172.893 340.487 171.909 340.487 170.655Z" fill="white"/>
</svg>
