<svg width="728" height="90" viewBox="0 0 728 90" fill="none" xmlns="http://www.w3.org/2000/svg">
<path d="M37.2393 44.7354H32.9854V38H22.415V44.7354H18.1611V34.1328H19.5469C21.7598 28.2568 23.1777 21.6934 23.8008 14.4424H34.5645V34.1328H37.2393V44.7354ZM30.1816 34.1328V18.2935H27.5068C27.2383 20.9038 26.8032 23.6162 26.2017 26.4307C25.6108 29.2344 24.9126 31.8018 24.1069 34.1328H30.1816ZM41.2192 38.3223C40.0913 38.3223 39.146 38.1719 38.3833 37.8711V33.9717C39.1675 34.2832 39.9785 34.439 40.8164 34.439C42.1055 34.439 43.0991 33.2412 43.7974 30.8457L37.7549 14.4424H42.3472L45.3442 23.6431C45.5913 24.4917 45.7471 25.2168 45.8115 25.8184H45.9404L46.166 24.7227L46.4077 23.6431L48.9697 14.4424H53.4009L48.1479 31.1035C47.3101 33.7354 46.3486 35.5991 45.2637 36.6948C44.1895 37.7798 42.8413 38.3223 41.2192 38.3223ZM68.499 30.5073C68.499 32.8921 67.8867 34.7397 66.6621 36.0503C65.4482 37.3501 63.708 38 61.4414 38H55.4956V14.4424H66.6782V18.2612H59.8784V23.6431H61.2642C63.6489 23.6431 65.4482 24.2178 66.6621 25.3672C67.8867 26.5166 68.499 28.23 68.499 30.5073ZM59.8784 34.1973H61.2319C63.1333 34.1973 64.084 33.021 64.084 30.6685C64.084 29.5405 63.8423 28.7295 63.3589 28.2354C62.8862 27.7305 62.0806 27.478 60.9419 27.478H59.8784V34.1973ZM82.7271 38L81.3735 32.0542H75.2344L73.8809 38H69.498L75.3311 14.3457H81.2769L87.126 38H82.7271ZM80.5518 28.1709L79.2949 22.6924C79.2197 22.3594 79.0479 21.5269 78.7793 20.1948C78.5215 18.8521 78.3657 17.9551 78.312 17.5039C78.1724 18.4277 77.9951 19.4482 77.7803 20.5654C77.5654 21.6719 77.0068 24.207 76.1045 28.1709H80.5518ZM89.2046 14.4424H93.2651V27.3813C93.2651 28.7241 93.1631 30.0508 92.959 31.3613H93.1362L100.323 14.4424H105.705V38H101.676V25.0933C101.676 23.5034 101.8 22.1069 102.047 20.9038H101.837L94.6187 38H89.2046V14.4424ZM103.336 7.33643C103.121 9.14111 102.53 10.4624 101.563 11.3003C100.607 12.1382 99.1948 12.5571 97.3257 12.5571C95.4995 12.5571 94.1299 12.1489 93.2168 11.3325C92.3037 10.5054 91.7612 9.17334 91.5894 7.33643H95.1504C95.2686 8.41064 95.4941 9.13574 95.8271 9.51172C96.1709 9.8877 96.7026 10.0757 97.4224 10.0757C98.1313 10.0757 98.6577 9.86084 99.0015 9.43115C99.356 9.00146 99.5923 8.30322 99.7104 7.33643H103.336ZM109.572 35.7925C109.572 34.9546 109.792 34.3047 110.232 33.8428C110.684 33.3809 111.35 33.1499 112.23 33.1499C113.111 33.1499 113.777 33.3809 114.229 33.8428C114.68 34.2939 114.905 34.9438 114.905 35.7925C114.905 36.6304 114.669 37.2803 114.196 37.7422C113.734 38.2041 113.079 38.4351 112.23 38.4351C111.36 38.4351 110.7 38.2041 110.249 37.7422C109.797 37.2695 109.572 36.6196 109.572 35.7925ZM144.103 44.7354H139.849V38H129.278V44.7354H125.024V34.1328H126.41C128.623 28.2568 130.041 21.6934 130.664 14.4424H141.428V34.1328H144.103V44.7354ZM137.045 34.1328V18.2935H134.37C134.102 20.9038 133.667 23.6162 133.065 26.4307C132.474 29.2344 131.776 31.8018 130.97 34.1328H137.045ZM157.847 38L156.494 32.0542H150.354L149.001 38H144.618L150.451 14.3457H156.397L162.246 38H157.847ZM155.672 28.1709L154.415 22.6924C154.34 22.3594 154.168 21.5269 153.899 20.1948C153.642 18.8521 153.486 17.9551 153.432 17.5039C153.292 18.4277 153.115 19.4482 152.9 20.5654C152.686 21.6719 152.127 24.207 151.225 28.1709H155.672ZM164.325 14.4424H170.335C172.784 14.4424 174.567 14.9204 175.685 15.8765C176.802 16.8218 177.36 18.3311 177.36 20.4043C177.36 21.7686 177.065 22.9126 176.474 23.8364C175.883 24.7495 175.078 25.3027 174.057 25.4961V25.6572C175.389 25.9902 176.351 26.6133 176.941 27.5264C177.532 28.4395 177.828 29.6533 177.828 31.168C177.828 33.3057 177.253 34.9814 176.104 36.1953C174.965 37.3984 173.402 38 171.415 38H164.325V14.4424ZM168.45 23.917H170.464C171.388 23.917 172.038 23.6699 172.414 23.1758C172.79 22.6816 172.978 21.9458 172.978 20.9683C172.978 19.9907 172.763 19.2925 172.333 18.8735C171.903 18.4438 171.227 18.229 170.303 18.229H168.45V23.917ZM168.45 27.5747V34.165H170.657C171.57 34.165 172.247 33.8857 172.688 33.3271C173.139 32.7686 173.364 31.9038 173.364 30.7329C173.364 28.6274 172.44 27.5747 170.593 27.5747H168.45ZM192.201 38L190.847 32.0542H184.708L183.354 38H178.972L184.805 14.3457H190.75L196.6 38H192.201ZM190.025 28.1709L188.769 22.6924C188.693 22.3594 188.521 21.5269 188.253 20.1948C187.995 18.8521 187.839 17.9551 187.786 17.5039C187.646 18.4277 187.469 19.4482 187.254 20.5654C187.039 21.6719 186.48 24.207 185.578 28.1709H190.025ZM198.678 14.4424H202.739V27.3813C202.739 28.7241 202.637 30.0508 202.433 31.3613H202.61L209.796 14.4424H215.178V38H211.15V25.0933C211.15 23.5034 211.273 22.1069 211.521 20.9038H211.311L204.092 38H198.678V14.4424ZM212.81 7.33643C212.595 9.14111 212.004 10.4624 211.037 11.3003C210.081 12.1382 208.668 12.5571 206.799 12.5571C204.973 12.5571 203.604 12.1489 202.69 11.3325C201.777 10.5054 201.235 9.17334 201.063 7.33643H204.624C204.742 8.41064 204.968 9.13574 205.301 9.51172C205.645 9.8877 206.176 10.0757 206.896 10.0757C207.605 10.0757 208.131 9.86084 208.475 9.43115C208.83 9.00146 209.066 8.30322 209.184 7.33643H212.81ZM34.6289 78H30.2783V58.2935H24.4614V78H20.0786V54.4424H34.6289V78ZM55.0122 66.189C55.0122 70.0884 54.2817 73.0854 52.8208 75.1802C51.3599 77.2749 49.2705 78.3223 46.5527 78.3223C43.8242 78.3223 41.7295 77.2803 40.2686 75.1963C38.8076 73.1016 38.0771 70.0884 38.0771 66.1567C38.0771 62.2573 38.8076 59.271 40.2686 57.1978C41.7295 55.1138 43.835 54.0718 46.585 54.0718C49.3027 54.0718 51.3867 55.1191 52.8369 57.2139C54.2871 59.2979 55.0122 62.2896 55.0122 66.189ZM42.5566 66.189C42.5566 68.8745 42.895 70.9209 43.5718 72.3281C44.2485 73.7354 45.2422 74.439 46.5527 74.439C49.1953 74.439 50.5166 71.689 50.5166 66.189C50.5166 60.689 49.2061 57.939 46.585 57.939C45.2529 57.939 44.2485 58.6426 43.5718 60.0498C42.895 61.4463 42.5566 63.4927 42.5566 66.189ZM81.1641 78H76.7812V67.6714H70.9966V78H66.6138V54.4424H70.9966V63.8042H76.7812V54.4424H81.1641V78ZM101.547 66.189C101.547 70.0884 100.817 73.0854 99.356 75.1802C97.895 77.2749 95.8057 78.3223 93.0879 78.3223C90.3594 78.3223 88.2646 77.2803 86.8037 75.1963C85.3428 73.1016 84.6123 70.0884 84.6123 66.1567C84.6123 62.2573 85.3428 59.271 86.8037 57.1978C88.2646 55.1138 90.3701 54.0718 93.1201 54.0718C95.8379 54.0718 97.9219 55.1191 99.3721 57.2139C100.822 59.2979 101.547 62.2896 101.547 66.189ZM89.0918 66.189C89.0918 68.8745 89.4302 70.9209 90.1069 72.3281C90.7837 73.7354 91.7773 74.439 93.0879 74.439C95.7305 74.439 97.0518 71.689 97.0518 66.189C97.0518 60.689 95.7412 57.939 93.1201 57.939C91.7881 57.939 90.7837 58.6426 90.1069 60.0498C89.4302 61.4463 89.0918 63.4927 89.0918 66.189ZM104.996 54.4424H111.006C113.455 54.4424 115.238 54.9204 116.355 55.8765C117.473 56.8218 118.031 58.3311 118.031 60.4043C118.031 61.7686 117.736 62.9126 117.145 63.8364C116.554 64.7495 115.749 65.3027 114.728 65.4961V65.6572C116.06 65.9902 117.021 66.6133 117.612 67.5264C118.203 68.4395 118.499 69.6533 118.499 71.168C118.499 73.3057 117.924 74.9814 116.774 76.1953C115.636 77.3984 114.073 78 112.085 78H104.996V54.4424ZM109.121 63.917H111.135C112.059 63.917 112.708 63.6699 113.084 63.1758C113.46 62.6816 113.648 61.9458 113.648 60.9683C113.648 59.9907 113.434 59.2925 113.004 58.8735C112.574 58.4438 111.897 58.229 110.974 58.229H109.121V63.917ZM109.121 67.5747V74.165H111.328C112.241 74.165 112.918 73.8857 113.358 73.3271C113.81 72.7686 114.035 71.9038 114.035 70.7329C114.035 68.6274 113.111 67.5747 111.264 67.5747H109.121ZM137.931 66.189C137.931 70.0884 137.201 73.0854 135.74 75.1802C134.279 77.2749 132.189 78.3223 129.472 78.3223C126.743 78.3223 124.648 77.2803 123.188 75.1963C121.727 73.1016 120.996 70.0884 120.996 66.1567C120.996 62.2573 121.727 59.271 123.188 57.1978C124.648 55.1138 126.754 54.0718 129.504 54.0718C132.222 54.0718 134.306 55.1191 135.756 57.2139C137.206 59.2979 137.931 62.2896 137.931 66.189ZM125.476 66.189C125.476 68.8745 125.814 70.9209 126.491 72.3281C127.167 73.7354 128.161 74.439 129.472 74.439C132.114 74.439 133.436 71.689 133.436 66.189C133.436 60.689 132.125 57.939 129.504 57.939C128.172 57.939 127.167 58.6426 126.491 60.0498C125.814 61.4463 125.476 63.4927 125.476 66.189ZM141.379 54.4424H145.44V67.3813C145.44 68.7241 145.338 70.0508 145.134 71.3613H145.311L152.498 54.4424H157.879V78H153.851V65.0933C153.851 63.5034 153.975 62.1069 154.222 60.9038H154.012L146.793 78H141.379V54.4424ZM155.511 47.3364C155.296 49.1411 154.705 50.4624 153.738 51.3003C152.782 52.1382 151.37 52.5571 149.5 52.5571C147.674 52.5571 146.305 52.1489 145.392 51.3325C144.479 50.5054 143.936 49.1733 143.764 47.3364H147.325C147.443 48.4106 147.669 49.1357 148.002 49.5117C148.346 49.8877 148.877 50.0757 149.597 50.0757C150.306 50.0757 150.833 49.8608 151.176 49.4312C151.531 49.0015 151.767 48.3032 151.885 47.3364H155.511ZM161.747 75.7925C161.747 74.9546 161.967 74.3047 162.407 73.8428C162.858 73.3809 163.524 73.1499 164.405 73.1499C165.286 73.1499 165.952 73.3809 166.403 73.8428C166.854 74.2939 167.08 74.9438 167.08 75.7925C167.08 76.6304 166.844 77.2803 166.371 77.7422C165.909 78.2041 165.254 78.4351 164.405 78.4351C163.535 78.4351 162.875 78.2041 162.423 77.7422C161.972 77.2695 161.747 76.6196 161.747 75.7925Z" fill="white"/>
</svg>
