<svg width="160" height="600" viewBox="0 0 160 600" fill="none" xmlns="http://www.w3.org/2000/svg">
<path d="M14 468H136.856C142.458 468 147 472.542 147 478.144V495.867H24.1441C18.5417 495.867 14 491.325 14 485.723V468Z" fill="white"/>
<path d="M27.4111 483.821C27.4111 484.833 27.1514 485.617 26.6318 486.173C26.1169 486.724 25.3786 487 24.417 487H21.8945V477.006H26.6387V478.626H23.7539V480.909H24.3418C25.3535 480.909 26.1169 481.153 26.6318 481.641C27.1514 482.128 27.4111 482.855 27.4111 483.821ZM23.7539 485.387H24.3281C25.1348 485.387 25.5381 484.888 25.5381 483.89C25.5381 483.411 25.4355 483.067 25.2305 482.857C25.0299 482.643 24.6882 482.536 24.2051 482.536H23.7539V485.387ZM34.165 480.082C34.165 481.144 33.8962 481.96 33.3584 482.529C32.8252 483.094 32.0527 483.377 31.041 483.377H30.5762V487H28.7168V477.006H31.2529C33.1943 477.006 34.165 478.031 34.165 480.082ZM30.5762 481.764H30.9316C31.3874 481.764 31.7269 481.638 31.9502 481.388C32.1735 481.137 32.2852 480.727 32.2852 480.157C32.2852 479.633 32.1826 479.246 31.9775 478.995C31.7725 478.74 31.4557 478.612 31.0273 478.612H30.5762V481.764ZM42.3066 481.989C42.3066 483.644 41.9967 484.915 41.377 485.804C40.7572 486.692 39.8708 487.137 38.7178 487.137C37.5602 487.137 36.6715 486.695 36.0518 485.811C35.432 484.922 35.1221 483.644 35.1221 481.976C35.1221 480.321 35.432 479.054 36.0518 478.175C36.6715 477.291 37.5648 476.849 38.7314 476.849C39.8844 476.849 40.7686 477.293 41.3838 478.182C41.999 479.066 42.3066 480.335 42.3066 481.989ZM37.0225 481.989C37.0225 483.129 37.166 483.997 37.4531 484.594C37.7402 485.191 38.1618 485.489 38.7178 485.489C39.8389 485.489 40.3994 484.323 40.3994 481.989C40.3994 479.656 39.8434 478.489 38.7314 478.489C38.1663 478.489 37.7402 478.788 37.4531 479.385C37.166 479.977 37.0225 480.845 37.0225 481.989ZM49.9424 487H48.083V482.618H45.6289V487H43.7695V477.006H45.6289V480.978H48.083V477.006H49.9424V487ZM51.7129 477.006H53.4355V482.495C53.4355 483.065 53.3923 483.628 53.3057 484.184H53.3809L56.4297 477.006H58.7129V487H57.0039V481.524C57.0039 480.85 57.0563 480.257 57.1611 479.747H57.0723L54.0098 487H51.7129V477.006ZM65.9248 480.082C65.9248 481.144 65.6559 481.96 65.1182 482.529C64.585 483.094 63.8125 483.377 62.8008 483.377H62.3359V487H60.4766V477.006H63.0127C64.9541 477.006 65.9248 478.031 65.9248 480.082ZM62.3359 481.764H62.6914C63.1471 481.764 63.4867 481.638 63.71 481.388C63.9333 481.137 64.0449 480.727 64.0449 480.157C64.0449 479.633 63.9424 479.246 63.7373 478.995C63.5322 478.74 63.2155 478.612 62.7871 478.612H62.3359V481.764ZM67.7773 487.137C67.2988 487.137 66.8978 487.073 66.5742 486.945V485.291C66.9069 485.423 67.251 485.489 67.6064 485.489C68.1533 485.489 68.5749 484.981 68.8711 483.965L66.3076 477.006H68.2559L69.5273 480.909C69.6322 481.269 69.6982 481.577 69.7256 481.832H69.7803L69.876 481.367L69.9785 480.909L71.0654 477.006H72.9453L70.7168 484.074C70.3613 485.191 69.9535 485.981 69.4932 486.446C69.0374 486.907 68.4655 487.137 67.7773 487.137ZM73.834 477.006H75.5566V482.495C75.5566 483.065 75.5133 483.628 75.4268 484.184H75.502L78.5508 477.006H80.834V487H79.125V481.524C79.125 480.85 79.1774 480.257 79.2822 479.747H79.1934L76.1309 487H73.834V477.006ZM79.8291 473.991C79.738 474.757 79.4873 475.317 79.0771 475.673C78.6715 476.028 78.0723 476.206 77.2793 476.206C76.5046 476.206 75.9235 476.033 75.5361 475.687C75.1488 475.336 74.9186 474.771 74.8457 473.991H76.3564C76.4066 474.447 76.5023 474.755 76.6436 474.914C76.7894 475.074 77.015 475.153 77.3203 475.153C77.6211 475.153 77.8444 475.062 77.9902 474.88C78.1406 474.698 78.2409 474.401 78.291 473.991H79.8291ZM85.667 487H83.8145V478.64H81.9004V477.006H87.5811V478.64H85.667V487ZM93.1592 487H88.6543V477.006H93.1592V478.612H90.5137V480.991H92.9678V482.604H90.5137V485.373H93.1592V487ZM101.39 478.489C100.856 478.489 100.435 478.801 100.125 479.426C99.8197 480.05 99.667 480.918 99.667 482.03C99.667 484.345 100.271 485.503 101.479 485.503C102.007 485.503 102.561 485.334 103.14 484.997V486.651C102.652 486.975 102.028 487.137 101.267 487.137C100.141 487.137 99.2751 486.69 98.6689 485.797C98.0674 484.899 97.7666 483.639 97.7666 482.017C97.7666 480.394 98.0765 479.13 98.6963 478.223C99.3206 477.316 100.187 476.862 101.294 476.862C101.659 476.862 102.007 476.912 102.34 477.013C102.677 477.113 103.037 477.288 103.42 477.539L102.805 479.05C102.6 478.909 102.381 478.781 102.148 478.667C101.916 478.549 101.663 478.489 101.39 478.489ZM109.06 487H104.555V477.006H109.06V478.612H106.414V480.991H108.868V482.604H106.414V485.373H109.06V487ZM110.516 477.006H112.238V482.495C112.238 483.065 112.195 483.628 112.108 484.184H112.184L115.232 477.006H117.516V487H115.807V481.524C115.807 480.85 115.859 480.257 115.964 479.747H115.875L112.812 487H110.516V477.006ZM116.511 473.991C116.42 474.757 116.169 475.317 115.759 475.673C115.353 476.028 114.754 476.206 113.961 476.206C113.186 476.206 112.605 476.033 112.218 475.687C111.83 475.336 111.6 474.771 111.527 473.991H113.038C113.088 474.447 113.184 474.755 113.325 474.914C113.471 475.074 113.697 475.153 114.002 475.153C114.303 475.153 114.526 475.062 114.672 474.88C114.822 474.698 114.923 474.401 114.973 473.991H116.511ZM125.411 487H123.552V483.124C122.914 483.516 122.269 483.712 121.617 483.712C120.865 483.712 120.282 483.484 119.867 483.028C119.457 482.568 119.252 481.928 119.252 481.107V477.006H121.111V480.697C121.111 481.176 121.182 481.524 121.323 481.743C121.469 481.962 121.706 482.071 122.034 482.071C122.308 482.071 122.565 482.026 122.807 481.935C123.048 481.839 123.297 481.711 123.552 481.552V477.006H125.411V487ZM131.912 487L131.338 484.478H128.733L128.159 487H126.3L128.774 476.965H131.297L133.778 487H131.912ZM130.989 482.83L130.456 480.506C130.424 480.365 130.351 480.011 130.237 479.446C130.128 478.877 130.062 478.496 130.039 478.305C129.98 478.697 129.905 479.13 129.813 479.604C129.722 480.073 129.485 481.148 129.103 482.83H130.989ZM137.976 478.489C137.442 478.489 137.021 478.801 136.711 479.426C136.406 480.05 136.253 480.918 136.253 482.03C136.253 484.345 136.857 485.503 138.064 485.503C138.593 485.503 139.147 485.334 139.726 484.997V486.651C139.238 486.975 138.614 487.137 137.853 487.137C136.727 487.137 135.861 486.69 135.255 485.797C134.653 484.899 134.353 483.639 134.353 482.017C134.353 480.394 134.662 479.13 135.282 478.223C135.907 477.316 136.772 476.862 137.88 476.862C138.244 476.862 138.593 476.912 138.926 477.013C139.263 477.113 139.623 477.288 140.006 477.539L139.391 479.05C139.186 478.909 138.967 478.781 138.734 478.667C138.502 478.549 138.249 478.489 137.976 478.489Z" fill="#0090D7"/>
</svg>
