<svg width="320" height="50" viewBox="0 0 320 50" fill="none" xmlns="http://www.w3.org/2000/svg">
<path d="M7 13.9424H101.22C105.517 13.9424 109 17.4255 109 21.722V35.3138H14.7797C10.4831 35.3138 7 31.8307 7 27.5341V13.9424Z" fill="white"/>
<path d="M18.1189 26.8301C18.1189 27.5945 17.9226 28.1868 17.5301 28.6069C17.141 29.0235 16.5832 29.2318 15.8566 29.2318H13.9508V21.6807H17.5352V22.9048H15.3556V24.6299H15.7998C16.5642 24.6299 17.141 24.8141 17.5301 25.1825C17.9226 25.5509 18.1189 26.1001 18.1189 26.8301ZM15.3556 28.0129H15.7895C16.3989 28.0129 16.7037 27.6358 16.7037 26.8818C16.7037 26.5202 16.6262 26.2603 16.4713 26.1019C16.3197 25.94 16.0615 25.8591 15.6965 25.8591H15.3556V28.0129ZM23.2218 24.0049C23.2218 24.8072 23.0187 25.4235 22.6124 25.8539C22.2095 26.2809 21.6259 26.4944 20.8614 26.4944H20.5102V29.2318H19.1054V21.6807H21.0216C22.4884 21.6807 23.2218 22.4554 23.2218 24.0049ZM20.5102 25.2755H20.7788C21.1231 25.2755 21.3797 25.1808 21.5484 24.9914C21.7171 24.802 21.8015 24.4921 21.8015 24.0617C21.8015 23.6657 21.724 23.3731 21.569 23.1837C21.4141 22.9909 21.1748 22.8944 20.8511 22.8944H20.5102V25.2755ZM29.3732 25.4459C29.3732 26.6958 29.1391 27.6565 28.6708 28.3279C28.2025 28.9994 27.5328 29.3351 26.6617 29.3351C25.7871 29.3351 25.1156 29.0011 24.6473 28.3331C24.179 27.6617 23.9449 26.6958 23.9449 25.4356C23.9449 24.1857 24.179 23.2284 24.6473 22.5639C25.1156 21.8959 25.7905 21.5619 26.672 21.5619C27.5431 21.5619 28.2111 21.8976 28.676 22.5691C29.1408 23.237 29.3732 24.196 29.3732 25.4459ZM25.3808 25.4459C25.3808 26.3067 25.4892 26.9627 25.7061 27.4138C25.9231 27.8648 26.2416 28.0904 26.6617 28.0904C27.5087 28.0904 27.9322 27.2089 27.9322 25.4459C27.9322 23.683 27.5121 22.8015 26.672 22.8015C26.245 22.8015 25.9231 23.027 25.7061 23.4781C25.4892 23.9257 25.3808 24.5817 25.3808 25.4459ZM35.1425 29.2318H33.7376V25.9211H31.8834V29.2318H30.4785V21.6807H31.8834V24.6815H33.7376V21.6807H35.1425V29.2318ZM36.4802 21.6807H37.7818V25.8281C37.7818 26.2585 37.749 26.6838 37.6836 27.1039H37.7404L40.044 21.6807H41.7691V29.2318H40.4778V25.0947C40.4778 24.5851 40.5174 24.1375 40.5966 23.7518H40.5295L38.2156 29.2318H36.4802V21.6807ZM47.2181 24.0049C47.2181 24.8072 47.0149 25.4235 46.6086 25.8539C46.2058 26.2809 45.6221 26.4944 44.8577 26.4944H44.5065V29.2318H43.1016V21.6807H45.0178C46.4847 21.6807 47.2181 22.4554 47.2181 24.0049ZM44.5065 25.2755H44.7751C45.1194 25.2755 45.3759 25.1808 45.5446 24.9914C45.7134 24.802 45.7977 24.4921 45.7977 24.0617C45.7977 23.6657 45.7202 23.3731 45.5653 23.1837C45.4104 22.9909 45.171 22.8944 44.8474 22.8944H44.5065V25.2755ZM48.6178 29.3351C48.2562 29.3351 47.9532 29.2869 47.7087 29.1905V27.9406C47.9601 28.0404 48.2201 28.0904 48.4887 28.0904C48.9018 28.0904 49.2204 27.7064 49.4442 26.9386L47.5073 21.6807H48.9793L49.94 24.6299C50.0192 24.9019 50.0691 25.1343 50.0898 25.3271H50.1311L50.2034 24.9759L50.2809 24.6299L51.1021 21.6807H52.5225L50.8387 27.0212C50.5701 27.8648 50.2619 28.4622 49.9142 28.8135C49.5698 29.1612 49.1377 29.3351 48.6178 29.3351ZM53.1939 21.6807H54.4955V25.8281C54.4955 26.2585 54.4628 26.6838 54.3973 27.1039H54.4541L56.7577 21.6807H58.4828V29.2318H57.1916V25.0947C57.1916 24.5851 57.2312 24.1375 57.3104 23.7518H57.2432L54.9293 29.2318H53.1939V21.6807ZM57.7235 19.4029C57.6547 19.9814 57.4653 20.4049 57.1554 20.6735C56.849 20.9421 56.3962 21.0764 55.797 21.0764C55.2117 21.0764 54.7727 20.9455 54.48 20.6839C54.1873 20.4187 54.0134 19.9918 53.9583 19.4029H55.0998C55.1376 19.7473 55.21 19.9797 55.3167 20.1002C55.4269 20.2207 55.5973 20.281 55.828 20.281C56.0553 20.281 56.224 20.2121 56.3342 20.0744C56.4478 19.9367 56.5236 19.7128 56.5614 19.4029H57.7235ZM62.1344 29.2318H60.7347V22.9151H59.2885V21.6807H63.5806V22.9151H62.1344V29.2318ZM67.7952 29.2318H64.3915V21.6807H67.7952V22.8944H65.7963V24.6918H67.6505V25.9108H65.7963V28.0026H67.7952V29.2318ZM74.0137 22.8015C73.6109 22.8015 73.2924 23.0373 73.0582 23.5091C72.8275 23.9808 72.7122 24.6367 72.7122 25.4769C72.7122 27.2261 73.1684 28.1007 74.0809 28.1007C74.4803 28.1007 74.8987 27.9733 75.336 27.7185V28.9684C74.9675 29.2129 74.4958 29.3351 73.9208 29.3351C73.0703 29.3351 72.4161 28.9977 71.9581 28.3228C71.5036 27.6445 71.2763 26.6924 71.2763 25.4666C71.2763 24.2408 71.5105 23.2853 71.9788 22.6C72.4505 21.9148 73.1047 21.5722 73.9414 21.5722C74.2169 21.5722 74.4803 21.6101 74.7317 21.6858C74.9865 21.7616 75.2585 21.8942 75.5477 22.0835L75.0829 23.225C74.9279 23.1183 74.7627 23.0218 74.587 22.9358C74.4114 22.8462 74.2203 22.8015 74.0137 22.8015ZM79.8088 29.2318H76.4051V21.6807H79.8088V22.8944H77.81V24.6918H79.6642V25.9108H77.81V28.0026H79.8088V29.2318ZM80.9089 21.6807H82.2105V25.8281C82.2105 26.2585 82.1778 26.6838 82.1123 27.1039H82.1692L84.4727 21.6807H86.1978V29.2318H84.9066V25.0947C84.9066 24.5851 84.9462 24.1375 85.0254 23.7518H84.9582L82.6443 29.2318H80.9089V21.6807ZM85.4386 19.4029C85.3697 19.9814 85.1803 20.4049 84.8704 20.6735C84.564 20.9421 84.1112 21.0764 83.512 21.0764C82.9267 21.0764 82.4877 20.9455 82.195 20.6839C81.9023 20.4187 81.7284 19.9918 81.6733 19.4029H82.8148C82.8527 19.7473 82.925 19.9797 83.0317 20.1002C83.1419 20.2207 83.3123 20.281 83.543 20.281C83.7703 20.281 83.939 20.2121 84.0492 20.0744C84.1628 19.9367 84.2386 19.7128 84.2765 19.4029H85.4386ZM92.1633 29.2318H90.7584V26.3033C90.2764 26.5994 89.7892 26.7475 89.2968 26.7475C88.7286 26.7475 88.2879 26.5753 87.9745 26.231C87.6647 25.8832 87.5097 25.3994 87.5097 24.7796V21.6807H88.9146V24.4697C88.9146 24.8313 88.9679 25.0947 89.0747 25.26C89.1849 25.4253 89.3639 25.5079 89.6118 25.5079C89.8184 25.5079 90.013 25.4735 90.1955 25.4046C90.378 25.3323 90.5656 25.2359 90.7584 25.1154V21.6807H92.1633V29.2318ZM97.0752 29.2318L96.6413 27.326H94.6735L94.2396 29.2318H92.8347L94.7045 21.6497H96.6103L98.4852 29.2318H97.0752ZM96.3779 26.0812L95.975 24.3251C95.9509 24.2184 95.8958 23.9515 95.8097 23.5246C95.7271 23.0942 95.6772 22.8066 95.66 22.662C95.6152 22.9581 95.5584 23.2853 95.4895 23.6434C95.4207 23.998 95.2416 24.8106 94.9524 26.0812H96.3779ZM101.656 22.8015C101.254 22.8015 100.935 23.0373 100.701 23.5091C100.47 23.9808 100.355 24.6367 100.355 25.4769C100.355 27.2261 100.811 28.1007 101.724 28.1007C102.123 28.1007 102.541 27.9733 102.979 27.7185V28.9684C102.61 29.2129 102.138 29.3351 101.563 29.3351C100.713 29.3351 100.059 28.9977 99.6008 28.3228C99.1463 27.6445 98.919 26.6924 98.919 25.4666C98.919 24.2408 99.1532 23.2853 99.6215 22.6C100.093 21.9148 100.747 21.5722 101.584 21.5722C101.86 21.5722 102.123 21.6101 102.374 21.6858C102.629 21.7616 102.901 21.8942 103.19 22.0835L102.726 23.225C102.571 23.1183 102.405 23.0218 102.23 22.9358C102.054 22.8462 101.863 22.8015 101.656 22.8015Z" fill="#0090D7"/>
</svg>
