<svg width="320" height="50" viewBox="0 0 320 50" fill="none" xmlns="http://www.w3.org/2000/svg">
<path d="M20.0703 32H17.6797V21.251H15.7549C15.4912 24.2158 15.2275 26.665 14.9639 28.5986C14.7881 29.835 14.4688 30.7402 14.0059 31.3145C13.5488 31.8887 12.9365 32.1758 12.1689 32.1758C11.6943 32.1758 11.3047 32.1113 11 31.9824V30.0049C11.1758 30.0752 11.3926 30.1104 11.6504 30.1104C11.9785 30.1104 12.2275 29.8525 12.3975 29.3369C12.5732 28.8213 12.7695 27.6641 12.9863 25.8652C13.209 24.0664 13.4404 21.8281 13.6807 19.1504H20.0703V32ZM28.1387 32H22.3467V19.1504H28.1387V21.2158H24.7373V24.2744H27.8926V26.3486H24.7373V29.9082H28.1387V32ZM33.957 32H31.5752V21.251H29.1143V19.1504H36.418V21.251H33.957V32ZM37.7979 19.1504H40.0127V26.208C40.0127 26.9404 39.957 27.6641 39.8457 28.3789H39.9424L43.8623 19.1504H46.7979V32H44.6006V24.96C44.6006 24.0928 44.668 23.3311 44.8027 22.6748H44.6885L40.751 32H37.7979V19.1504ZM61.8975 32H59.2168L55.9209 25.4873V32H53.5479V19.1504H55.9209V25.373L59.2695 19.1504H61.8271L58.3027 25.3379L61.8975 32ZM75.4238 32H73.0332V26.3662H69.8779V32H67.4873V19.1504H69.8779V24.2568H73.0332V19.1504H75.4238V32ZM83.7822 32L83.0439 28.7568H79.6953L78.957 32H76.5664L79.748 19.0977H82.9912L86.1816 32H83.7822ZM82.5957 26.6387L81.9102 23.6504C81.8691 23.4688 81.7754 23.0146 81.6289 22.2881C81.4883 21.5557 81.4033 21.0664 81.374 20.8203C81.2979 21.3242 81.2012 21.8809 81.084 22.4902C80.9668 23.0938 80.6621 24.4766 80.1699 26.6387H82.5957ZM91.9033 32L89.46 21.0576H89.3633C89.4746 21.9014 89.5303 22.6748 89.5303 23.3779V32H87.3154V19.1504H90.9893L93.1865 29.249H93.2568L95.4365 19.1504H99.1631V32H96.8955V23.29C96.8955 22.5693 96.9365 21.8311 97.0186 21.0752H96.9482L94.5137 32H91.9033Z" fill="white"/>
</svg>
