<svg width="300" height="600" viewBox="0 0 300 600" fill="none" xmlns="http://www.w3.org/2000/svg">
<path d="M115.952 52.8311C115.952 56.8486 115.2 59.9365 113.694 62.0947C112.189 64.2529 110.036 65.332 107.236 65.332C104.425 65.332 102.267 64.2585 100.762 62.1113C99.2565 59.9531 98.5039 56.8486 98.5039 52.7979C98.5039 48.7803 99.2565 45.7035 100.762 43.5674C102.267 41.4202 104.436 40.3467 107.27 40.3467C110.07 40.3467 112.217 41.4258 113.711 43.584C115.205 45.7311 115.952 48.8135 115.952 52.8311ZM103.119 52.8311C103.119 55.598 103.468 57.7064 104.165 59.1562C104.862 60.6061 105.886 61.3311 107.236 61.3311C109.959 61.3311 111.32 58.4977 111.32 52.8311C111.32 47.1644 109.97 44.3311 107.27 44.3311C105.897 44.3311 104.862 45.056 104.165 46.5059C103.468 47.9447 103.119 50.0531 103.119 52.8311ZM119.505 40.7285H123.688V54.0596C123.688 55.443 123.583 56.8099 123.373 58.1602H123.556L130.96 40.7285H136.505V65H132.354V51.7021C132.354 50.0641 132.482 48.6253 132.736 47.3857H132.521L125.083 65H119.505V40.7285ZM134.064 33.4072C133.843 35.2666 133.234 36.6279 132.238 37.4912C131.253 38.3545 129.798 38.7861 127.872 38.7861C125.991 38.7861 124.579 38.3656 123.639 37.5244C122.698 36.6722 122.139 35.2998 121.962 33.4072H125.631C125.753 34.514 125.985 35.2611 126.328 35.6484C126.682 36.0358 127.23 36.2295 127.972 36.2295C128.702 36.2295 129.244 36.0081 129.599 35.5654C129.964 35.1227 130.207 34.4033 130.329 33.4072H134.064ZM154.186 57.2803C154.186 59.7373 153.555 61.641 152.293 62.9912C151.042 64.3304 149.249 65 146.914 65H140.788V40.7285H152.31V44.6631H145.304V50.208H146.731C149.188 50.208 151.042 50.8001 152.293 51.9844C153.555 53.1686 154.186 54.9339 154.186 57.2803ZM145.304 61.082H146.698C148.657 61.082 149.637 59.8701 149.637 57.4463C149.637 56.2842 149.388 55.4486 148.89 54.9395C148.403 54.4193 147.573 54.1592 146.399 54.1592H145.304V61.082ZM168.845 65L167.45 58.874H161.125L159.73 65H155.215L161.225 40.6289H167.351L173.377 65H168.845ZM166.604 54.873L165.309 49.2285C165.231 48.8854 165.054 48.0277 164.777 46.6553C164.512 45.2718 164.351 44.3477 164.296 43.8828C164.152 44.8346 163.969 45.8861 163.748 47.0371C163.527 48.1771 162.951 50.7891 162.021 54.873H166.604ZM175.519 40.7285H179.702V54.0596C179.702 55.443 179.597 56.8099 179.387 58.1602H179.569L186.974 40.7285H192.519V65H188.368V51.7021C188.368 50.0641 188.495 48.6253 188.75 47.3857H188.534L181.097 65H175.519V40.7285ZM190.078 33.4072C189.857 35.2666 189.248 36.6279 188.252 37.4912C187.267 38.3545 185.812 38.7861 183.886 38.7861C182.004 38.7861 180.593 38.3656 179.652 37.5244C178.712 36.6722 178.153 35.2998 177.976 33.4072H181.645C181.766 34.514 181.999 35.2611 182.342 35.6484C182.696 36.0358 183.244 36.2295 183.985 36.2295C184.716 36.2295 185.258 36.0081 185.612 35.5654C185.978 35.1227 186.221 34.4033 186.343 33.4072H190.078ZM201.085 57.1807H197.449L196.636 40.7285H201.932L201.085 57.1807ZM196.503 62.7256C196.503 61.8623 196.73 61.1927 197.184 60.7168C197.648 60.2409 198.335 60.0029 199.242 60.0029C200.15 60.0029 200.836 60.2409 201.301 60.7168C201.766 61.1816 201.998 61.8512 201.998 62.7256C201.998 63.5889 201.755 64.2585 201.268 64.7344C200.792 65.2103 200.117 65.4482 199.242 65.4482C198.346 65.4482 197.665 65.2103 197.2 64.7344C196.735 64.2474 196.503 63.5778 196.503 62.7256ZM54.8418 112.939H50.459V106H39.5684V112.939H35.1855V102.016H36.6133C38.8932 95.9616 40.3542 89.1992 40.9961 81.7285H52.0859V102.016H54.8418V112.939ZM47.5703 102.016V85.6963H44.8145C44.5378 88.3857 44.0895 91.1803 43.4697 94.0801C42.861 96.9688 42.1416 99.6139 41.3115 102.016H47.5703ZM69.0029 106L67.6084 99.874H61.2832L59.8887 106H55.373L61.3828 81.6289H67.5088L73.5352 106H69.0029ZM66.7617 95.873L65.4668 90.2285C65.3893 89.8854 65.2122 89.0277 64.9355 87.6553C64.6699 86.2718 64.5094 85.3477 64.4541 84.8828C64.3102 85.8346 64.1276 86.8861 63.9062 88.0371C63.6849 89.1771 63.1094 91.7891 62.1797 95.873H66.7617ZM75.6768 81.7285H81.8691C84.3926 81.7285 86.2298 82.221 87.3809 83.2061C88.5319 84.18 89.1074 85.735 89.1074 87.8711C89.1074 89.2767 88.8031 90.4554 88.1943 91.4072C87.5856 92.348 86.7555 92.918 85.7041 93.1172V93.2832C87.0765 93.6263 88.0671 94.2682 88.6758 95.209C89.2845 96.1497 89.5889 97.4004 89.5889 98.9609C89.5889 101.163 88.9967 102.89 87.8125 104.141C86.6393 105.38 85.029 106 82.9814 106H75.6768V81.7285ZM79.9268 91.4902H82.002C82.9538 91.4902 83.6234 91.2357 84.0107 90.7266C84.3981 90.2174 84.5918 89.4593 84.5918 88.4521C84.5918 87.445 84.3704 86.7256 83.9277 86.2939C83.485 85.8512 82.7878 85.6299 81.8359 85.6299H79.9268V91.4902ZM79.9268 95.2588V102.049H82.2012C83.1419 102.049 83.8392 101.761 84.293 101.186C84.7578 100.61 84.9902 99.7191 84.9902 98.5127C84.9902 96.3434 84.0384 95.2588 82.1348 95.2588H79.9268ZM104.397 106L103.003 99.874H96.6777L95.2832 106H90.7676L96.7773 81.6289H102.903L108.93 106H104.397ZM102.156 95.873L100.861 90.2285C100.784 89.8854 100.607 89.0277 100.33 87.6553C100.064 86.2718 99.904 85.3477 99.8486 84.8828C99.7048 85.8346 99.5221 86.8861 99.3008 88.0371C99.0794 89.1771 98.5039 91.7891 97.5742 95.873H102.156ZM111.071 81.7285H115.255V95.0596C115.255 96.443 115.15 97.8099 114.939 99.1602H115.122L122.526 81.7285H128.071V106H123.921V92.7021C123.921 91.0641 124.048 89.6253 124.303 88.3857H124.087L116.649 106H111.071V81.7285ZM125.631 74.4072C125.41 76.2666 124.801 77.6279 123.805 78.4912C122.82 79.3545 121.364 79.7861 119.438 79.7861C117.557 79.7861 116.146 79.3656 115.205 78.5244C114.264 77.6722 113.705 76.2998 113.528 74.4072H117.197C117.319 75.514 117.551 76.2611 117.895 76.6484C118.249 77.0358 118.797 77.2295 119.538 77.2295C120.269 77.2295 120.811 77.0081 121.165 76.5654C121.53 76.1227 121.774 75.4033 121.896 74.4072H125.631ZM140.755 81.7285H146.947C149.471 81.7285 151.308 82.221 152.459 83.2061C153.61 84.18 154.186 85.735 154.186 87.8711C154.186 89.2767 153.881 90.4554 153.272 91.4072C152.664 92.348 151.834 92.918 150.782 93.1172V93.2832C152.155 93.6263 153.145 94.2682 153.754 95.209C154.363 96.1497 154.667 97.4004 154.667 98.9609C154.667 101.163 154.075 102.89 152.891 104.141C151.717 105.38 150.107 106 148.06 106H140.755V81.7285ZM145.005 91.4902H147.08C148.032 91.4902 148.701 91.2357 149.089 90.7266C149.476 90.2174 149.67 89.4593 149.67 88.4521C149.67 87.445 149.449 86.7256 149.006 86.2939C148.563 85.8512 147.866 85.6299 146.914 85.6299H145.005V91.4902ZM145.005 95.2588V102.049H147.279C148.22 102.049 148.917 101.761 149.371 101.186C149.836 100.61 150.068 99.7191 150.068 98.5127C150.068 96.3434 149.117 95.2588 147.213 95.2588H145.005ZM184.068 112.939H179.686V106H168.795V112.939H164.412V102.016H165.84C168.12 95.9616 169.581 89.1992 170.223 81.7285H181.312V102.016H184.068V112.939ZM176.797 102.016V85.6963H174.041C173.764 88.3857 173.316 91.1803 172.696 94.0801C172.088 96.9688 171.368 99.6139 170.538 102.016H176.797ZM188.169 106.332C187.007 106.332 186.033 106.177 185.247 105.867V101.85C186.055 102.171 186.891 102.331 187.754 102.331C189.082 102.331 190.106 101.097 190.825 98.6289L184.6 81.7285H189.331L192.419 91.208C192.674 92.0824 192.834 92.8294 192.9 93.4492H193.033L193.266 92.3203L193.515 91.208L196.154 81.7285H200.72L195.308 98.8945C194.444 101.606 193.454 103.526 192.336 104.655C191.229 105.773 189.84 106.332 188.169 106.332ZM216.275 98.2803C216.275 100.737 215.645 102.641 214.383 103.991C213.132 105.33 211.339 106 209.004 106H202.878V81.7285H214.399V85.6631H207.394V91.208H208.821C211.278 91.208 213.132 91.8001 214.383 92.9844C215.645 94.1686 216.275 95.9339 216.275 98.2803ZM207.394 102.082H208.788C210.747 102.082 211.727 100.87 211.727 98.4463C211.727 97.2842 211.478 96.4486 210.979 95.9395C210.493 95.4193 209.662 95.1592 208.489 95.1592H207.394V102.082ZM230.935 106L229.54 99.874H223.215L221.82 106H217.305L223.314 81.6289H229.44L235.467 106H230.935ZM228.693 95.873L227.398 90.2285C227.321 89.8854 227.144 89.0277 226.867 87.6553C226.602 86.2718 226.441 85.3477 226.386 84.8828C226.242 85.8346 226.059 86.8861 225.838 88.0371C225.617 89.1771 225.041 91.7891 224.111 95.873H228.693ZM237.608 81.7285H241.792V95.0596C241.792 96.443 241.687 97.8099 241.477 99.1602H241.659L249.063 81.7285H254.608V106H250.458V92.7021C250.458 91.0641 250.585 89.6253 250.84 88.3857H250.624L243.187 106H237.608V81.7285ZM252.168 74.4072C251.947 76.2666 251.338 77.6279 250.342 78.4912C249.357 79.3545 247.901 79.7861 245.976 79.7861C244.094 79.7861 242.683 79.3656 241.742 78.5244C240.801 77.6722 240.243 76.2998 240.065 74.4072H243.734C243.856 75.514 244.089 76.2611 244.432 76.6484C244.786 77.0358 245.334 77.2295 246.075 77.2295C246.806 77.2295 247.348 77.0081 247.702 76.5654C248.067 76.1227 248.311 75.4033 248.433 74.4072H252.168ZM263.175 98.1807H259.539L258.726 81.7285H264.021L263.175 98.1807ZM258.593 103.726C258.593 102.862 258.82 102.193 259.273 101.717C259.738 101.241 260.424 101.003 261.332 101.003C262.24 101.003 262.926 101.241 263.391 101.717C263.855 102.182 264.088 102.851 264.088 103.726C264.088 104.589 263.844 105.258 263.357 105.734C262.882 106.21 262.206 106.448 261.332 106.448C260.436 106.448 259.755 106.21 259.29 105.734C258.825 105.247 258.593 104.578 258.593 103.726Z" fill="white"/>
</svg>
