<svg width="120" height="600" viewBox="0 0 120 600" fill="none" xmlns="http://www.w3.org/2000/svg">
<path d="M33.5938 65.6943C33.5938 68.7666 33.0182 71.1279 31.8672 72.7783C30.7161 74.4287 29.07 75.2539 26.9287 75.2539C24.779 75.2539 23.1286 74.4329 21.9775 72.791C20.8265 71.1406 20.251 68.7666 20.251 65.6689C20.251 62.5967 20.8265 60.2438 21.9775 58.6104C23.1286 56.9684 24.7874 56.1475 26.9541 56.1475C29.0954 56.1475 30.7373 56.9727 31.8799 58.623C33.0225 60.265 33.5938 62.6221 33.5938 65.6943ZM23.7803 65.6943C23.7803 67.8102 24.0469 69.4225 24.5801 70.5312C25.1133 71.64 25.8962 72.1943 26.9287 72.1943C29.0107 72.1943 30.0518 70.0277 30.0518 65.6943C30.0518 61.361 29.0192 59.1943 26.9541 59.1943C25.9046 59.1943 25.1133 59.7487 24.5801 60.8574C24.0469 61.9577 23.7803 63.57 23.7803 65.6943ZM36.3105 56.4395H39.5098V66.6338C39.5098 67.6917 39.4294 68.737 39.2686 69.7695H39.4082L45.0703 56.4395H49.3105V75H46.1367V64.8311C46.1367 63.5785 46.234 62.4782 46.4287 61.5303H46.2637L40.5762 75H36.3105V56.4395ZM47.4443 50.8408C47.2751 52.2627 46.8096 53.3037 46.0479 53.9639C45.2946 54.624 44.1816 54.9541 42.709 54.9541C41.2702 54.9541 40.1911 54.6325 39.4717 53.9893C38.7523 53.3376 38.3249 52.2881 38.1895 50.8408H40.9951C41.0882 51.6872 41.266 52.2585 41.5283 52.5547C41.7992 52.8509 42.2181 52.999 42.7852 52.999C43.3438 52.999 43.7585 52.8298 44.0293 52.4912C44.3086 52.1527 44.4948 51.6025 44.5879 50.8408H47.4443ZM62.8311 69.0967C62.8311 70.9756 62.3486 72.4313 61.3838 73.4639C60.4274 74.488 59.0563 75 57.2705 75H52.5859V56.4395H61.3965V59.4482H56.0391V63.6885H57.1309C59.0098 63.6885 60.4274 64.1413 61.3838 65.0469C62.3486 65.9525 62.8311 67.3024 62.8311 69.0967ZM56.0391 72.0039H57.1055C58.6035 72.0039 59.3525 71.0771 59.3525 69.2236C59.3525 68.335 59.1621 67.696 58.7812 67.3066C58.4089 66.9089 57.7741 66.71 56.877 66.71H56.0391V72.0039ZM74.041 75L72.9746 70.3154H68.1377L67.0713 75H63.6182L68.2139 56.3633H72.8984L77.5068 75H74.041ZM72.3271 67.2559L71.3369 62.9395C71.2777 62.6771 71.1423 62.0212 70.9307 60.9717C70.7275 59.9137 70.6048 59.207 70.5625 58.8516C70.4525 59.5794 70.3128 60.3835 70.1436 61.2637C69.9743 62.1354 69.5342 64.1328 68.8232 67.2559H72.3271ZM79.1445 56.4395H82.3438V66.6338C82.3438 67.6917 82.2633 68.737 82.1025 69.7695H82.2422L87.9043 56.4395H92.1445V75H88.9707V64.8311C88.9707 63.5785 89.068 62.4782 89.2627 61.5303H89.0977L83.4102 75H79.1445V56.4395ZM90.2783 50.8408C90.109 52.2627 89.6436 53.3037 88.8818 53.9639C88.1286 54.624 87.0156 54.9541 85.543 54.9541C84.1042 54.9541 83.0251 54.6325 82.3057 53.9893C81.5863 53.3376 81.1589 52.2881 81.0234 50.8408H83.8291C83.9222 51.6872 84.0999 52.2585 84.3623 52.5547C84.6331 52.8509 85.0521 52.999 85.6191 52.999C86.1777 52.999 86.5924 52.8298 86.8633 52.4912C87.1426 52.1527 87.3288 51.6025 87.4219 50.8408H90.2783ZM99.2412 72.2705C98.8011 73.9801 98.0563 76.0072 97.0068 78.3516H94.4297C94.9798 76.1003 95.4072 73.9759 95.7119 71.9785H99.0635L99.2412 72.2705ZM36.2598 111.307H32.9082V106H24.5801V111.307H21.2285V102.953H22.3203C24.0638 98.3236 25.181 93.1523 25.6719 87.4395H34.1523V102.953H36.2598V111.307ZM30.6992 102.953V90.4736H28.5918C28.3802 92.5303 28.0374 94.6673 27.5635 96.8848C27.098 99.0938 26.5479 101.117 25.9131 102.953H30.6992ZM39.3955 106.254C38.5068 106.254 37.762 106.135 37.1611 105.898V102.826C37.779 103.072 38.418 103.194 39.0781 103.194C40.0938 103.194 40.8766 102.251 41.4268 100.363L36.666 87.4395H40.2842L42.6455 94.6885C42.8402 95.3571 42.9629 95.9284 43.0137 96.4023H43.1152L43.293 95.5391L43.4834 94.6885L45.502 87.4395H48.9932L44.8545 100.566C44.1943 102.64 43.4368 104.108 42.582 104.972C41.7357 105.826 40.6735 106.254 39.3955 106.254ZM60.8887 100.097C60.8887 101.976 60.4062 103.431 59.4414 104.464C58.485 105.488 57.1139 106 55.3281 106H50.6436V87.4395H59.4541V90.4482H54.0967V94.6885H55.1885C57.0674 94.6885 58.485 95.1413 59.4414 96.0469C60.4062 96.9525 60.8887 98.3024 60.8887 100.097ZM54.0967 103.004H55.1631C56.6611 103.004 57.4102 102.077 57.4102 100.224C57.4102 99.335 57.2197 98.696 56.8389 98.3066C56.4665 97.9089 55.8317 97.71 54.9346 97.71H54.0967V103.004ZM72.0986 106L71.0322 101.315H66.1953L65.1289 106H61.6758L66.2715 87.3633H70.9561L75.5645 106H72.0986ZM70.3848 98.2559L69.3945 93.9395C69.3353 93.6771 69.1999 93.0212 68.9883 91.9717C68.7852 90.9137 68.6624 90.207 68.6201 89.8516C68.5101 90.5794 68.3704 91.3835 68.2012 92.2637C68.0319 93.1354 67.5918 95.1328 66.8809 98.2559H70.3848ZM77.2021 87.4395H80.4014V97.6338C80.4014 98.6917 80.321 99.737 80.1602 100.77H80.2998L85.9619 87.4395H90.2021V106H87.0283V95.8311C87.0283 94.5785 87.1257 93.4782 87.3203 92.5303H87.1553L81.4678 106H77.2021V87.4395ZM88.3359 81.8408C88.1667 83.2627 87.7012 84.3037 86.9395 84.9639C86.1862 85.624 85.0732 85.9541 83.6006 85.9541C82.1618 85.9541 81.0827 85.6325 80.3633 84.9893C79.6439 84.3376 79.2165 83.2881 79.0811 81.8408H81.8867C81.9798 82.6872 82.1576 83.2585 82.4199 83.5547C82.6908 83.8509 83.1097 83.999 83.6768 83.999C84.2354 83.999 84.6501 83.8298 84.9209 83.4912C85.2002 83.1527 85.3864 82.6025 85.4795 81.8408H88.3359ZM96.7529 100.021H93.9727L93.3506 87.4395H97.4004L96.7529 100.021ZM93.249 104.261C93.249 103.601 93.4225 103.089 93.7695 102.725C94.125 102.361 94.6497 102.179 95.3438 102.179C96.0378 102.179 96.5625 102.361 96.918 102.725C97.2734 103.08 97.4512 103.592 97.4512 104.261C97.4512 104.921 97.265 105.433 96.8926 105.797C96.5286 106.161 96.0124 106.343 95.3438 106.343C94.6582 106.343 94.1377 106.161 93.7822 105.797C93.4268 105.424 93.249 104.912 93.249 104.261Z" fill="white"/>
</svg>
