<?xml version="1.0" encoding="UTF-8" standalone="no"?>
<?xml-stylesheet type="text/css" href="main.css" ?>
<svg
   xmlns:dc="http://purl.org/dc/elements/1.1/"
   xmlns:cc="http://creativecommons.org/ns#"
   xmlns:rdf="http://www.w3.org/1999/02/22-rdf-syntax-ns#"
   xmlns:svg="http://www.w3.org/2000/svg"
   xmlns="http://www.w3.org/2000/svg"
   version="1.1"
   id="svg2"
   xml:space="preserve"
   width="2560"
   height="1440"
   viewBox="0 0 2560 1440"><metadata
     id="metadata8"><rdf:RDF><cc:Work
         rdf:about=""><dc:format>image/svg+xml</dc:format><dc:type
           rdf:resource="http://purl.org/dc/dcmitype/StillImage" /></cc:Work></rdf:RDF></metadata><defs
     id="defs6"><clipPath
       clipPathUnits="userSpaceOnUse"
       id="clipPath20"><path
         d="M 0,1080 H 1920 V 0 H 0 Z"
         id="path18" /></clipPath><clipPath
       clipPathUnits="userSpaceOnUse"
       id="clipPath34"><path
         d="M 0,0 H 1920 V 1080 H 0 Z"
         id="path32" /></clipPath><linearGradient
       x1="0"
       y1="0"
       x2="1"
       y2="0"
       gradientUnits="userSpaceOnUse"
       gradientTransform="matrix(970.51758,1089.2849,1089.2849,-970.51758,90.041035,-9.1230469)"
       spreadMethod="pad"
       id="linearGradient58"><stop
         style="stop-opacity:1;stop-color:#0c50a8"
         offset="0"
         id="stop52" /><stop
         style="stop-opacity:1;stop-color:#0c50a8"
         offset="0.4854273"
         id="stop54" /><stop
         style="stop-opacity:1;stop-color:#fdb73e"
         offset="1"
         id="stop56" /></linearGradient><clipPath
       clipPathUnits="userSpaceOnUse"
       id="clipPath70"><path
         d="M 0,0 H 1920 V 1080 H 0 Z"
         id="path68" /></clipPath><clipPath
       clipPathUnits="userSpaceOnUse"
       id="clipPath126"><path
         d="M 0,0 H 1920 V 1080 H 0 Z"
         id="path124" /></clipPath><clipPath
       clipPathUnits="userSpaceOnUse"
       id="clipPath146"><path
         d="M 0,0 H 1920 V 1080 H 0 Z"
         id="path144" /></clipPath></defs><g
     id="g10"
     transform="matrix(1.3333333,0,0,-1.3333333,0,1440)"><g
       id="g12"><g
         id="g14"><g
           id="g16"
           clip-path="url(#clipPath20)"><path
             d="M 0,0 H 1920 V 1080 H 0 Z"
             style="fill:#ffffff;fill-opacity:1;fill-rule:nonzero;stroke:none"
             id="path22" /></g></g></g><text
       transform="matrix(1,0,0,-1,1749.5449,100)"
       style="font-variant:normal;font-weight:500;font-stretch:normal;font-size:28px;font-family:'Rubik Medium';-inkscape-font-specification:Rubik-Medium;writing-mode:lr-tb;fill:#000000;fill-opacity:1;fill-rule:nonzero;stroke:none"
       id="text26"><tspan
         x="0 17.332001 35.728001 53.060001"
         y="0"
         id="tspan24">2020</tspan></text><g
       id="g28"><g
         id="g30"
         clip-path="url(#clipPath34)"><g
           id="g36"
           transform="translate(1216.2802,557.451)"><path
             d="m 0,0 v 4.759 h -36.806 v -44.421 h 9.202 V 0 Z m 34.267,0.444 c 1.882,-0.761 3.522,-1.925 4.918,-3.49 1.396,-1.566 2.507,-3.544 3.331,-5.933 0.825,-2.391 1.238,-5.215 1.238,-8.472 0,-3.258 -0.413,-6.082 -1.238,-8.472 -0.824,-2.39 -1.935,-4.369 -3.331,-5.933 -1.396,-1.566 -3.036,-2.729 -4.918,-3.49 -1.883,-0.762 -3.903,-1.143 -6.06,-1.143 -2.158,0 -4.179,0.381 -6.061,1.143 -1.883,0.761 -3.522,1.924 -4.918,3.49 -1.396,1.564 -2.506,3.543 -3.331,5.933 -0.825,2.39 -1.238,5.214 -1.238,8.472 0,3.257 0.413,6.081 1.238,8.472 0.825,2.389 1.935,4.367 3.331,5.933 1.396,1.565 3.035,2.729 4.918,3.49 1.882,0.762 3.903,1.142 6.061,1.142 2.157,0 4.177,-0.38 6.06,-1.142 M 17.799,4.506 C 14.668,3.49 11.993,1.988 9.772,0 7.551,-1.989 5.837,-4.442 4.632,-7.361 3.426,-10.28 2.823,-13.644 2.823,-17.451 c 0,-3.808 0.603,-7.171 1.809,-10.09 1.205,-2.919 2.919,-5.373 5.14,-7.361 2.221,-1.989 4.896,-3.49 8.027,-4.506 3.131,-1.015 6.6,-1.523 10.408,-1.523 3.807,0 7.266,0.508 10.375,1.523 3.11,1.016 5.775,2.517 7.996,4.506 2.221,1.988 3.944,4.442 5.172,7.361 1.226,2.919 1.84,6.282 1.84,10.09 0,3.807 -0.614,7.171 -1.84,10.09 C 50.522,-4.442 48.799,-1.989 46.578,0 44.357,1.988 41.692,3.49 38.582,4.506 35.473,5.521 32.014,6.029 28.207,6.029 24.399,6.029 20.93,5.521 17.799,4.506 m 38.545,-39.408 v -14.913 h 7.615 l 1.269,10.153 h 34.267 l 1.27,-10.153 h 7.615 v 14.913 h -5.394 V 4.759 H 67.449 l -2.538,-32.998 c -0.17,-2.073 -0.794,-3.702 -1.872,-4.886 -1.079,-1.185 -2.253,-1.777 -3.522,-1.777 z M 76.016,0 H 93.784 V -34.902 H 69.353 c 0.761,0.422 1.459,0.973 2.094,1.65 0.549,0.549 1.057,1.247 1.523,2.094 0.465,0.846 0.739,1.818 0.825,2.919 z m 68.706,0.444 c 1.882,-0.761 3.522,-1.925 4.918,-3.49 1.396,-1.566 2.507,-3.544 3.332,-5.933 0.825,-2.391 1.237,-5.215 1.237,-8.472 0,-3.258 -0.412,-6.082 -1.237,-8.472 -0.825,-2.39 -1.936,-4.369 -3.332,-5.933 -1.396,-1.566 -3.036,-2.729 -4.918,-3.49 -1.883,-0.762 -3.903,-1.143 -6.06,-1.143 -2.158,0 -4.179,0.381 -6.061,1.143 -1.882,0.761 -3.522,1.924 -4.918,3.49 -1.396,1.564 -2.506,3.543 -3.331,5.933 -0.825,2.39 -1.238,5.214 -1.238,8.472 0,3.257 0.413,6.081 1.238,8.472 0.825,2.389 1.935,4.367 3.331,5.933 1.396,1.565 3.036,2.729 4.918,3.49 1.882,0.762 3.903,1.142 6.061,1.142 2.157,0 4.177,-0.38 6.06,-1.142 M 128.255,4.506 C 125.123,3.49 122.448,1.988 120.227,0 c -2.221,-1.989 -3.934,-4.442 -5.14,-7.361 -1.206,-2.919 -1.809,-6.283 -1.809,-10.09 0,-3.808 0.603,-7.171 1.809,-10.09 1.206,-2.919 2.919,-5.373 5.14,-7.361 2.221,-1.989 4.896,-3.49 8.028,-4.506 3.13,-1.015 6.599,-1.523 10.407,-1.523 3.807,0 7.266,0.508 10.375,1.523 3.11,1.016 5.775,2.517 7.996,4.506 2.221,1.988 3.944,4.442 5.172,7.361 1.226,2.919 1.84,6.282 1.84,10.09 0,3.807 -0.614,7.171 -1.84,10.09 -1.228,2.919 -2.951,5.372 -5.172,7.361 -2.221,1.988 -4.886,3.49 -7.996,4.506 -3.109,1.015 -6.568,1.523 -10.375,1.523 -3.808,0 -7.277,-0.508 -10.407,-1.523 m 44.268,-44.168 h 23.479 c 6.811,0 11.793,1.111 14.945,3.332 3.151,2.221 4.728,5.235 4.728,9.043 0,2.876 -0.9,5.235 -2.697,7.075 -1.799,1.841 -4.284,3.078 -7.457,3.713 2.538,0.803 4.442,2.03 5.711,3.68 1.27,1.65 1.904,3.596 1.904,5.839 0,1.734 -0.381,3.32 -1.142,4.759 -0.762,1.438 -1.926,2.675 -3.49,3.712 -1.566,1.036 -3.544,1.841 -5.934,2.412 -2.39,0.571 -5.214,0.856 -8.471,0.856 h -21.576 z m 23.479,20.307 c 3.173,0 5.606,-0.645 7.298,-1.935 1.692,-1.291 2.539,-3.29 2.539,-5.997 0,-2.539 -0.847,-4.442 -2.539,-5.711 -1.692,-1.27 -4.125,-1.904 -7.298,-1.904 h -14.278 v 15.547 z m -14.278,4.76 V 0 h 12.375 c 3.046,0 5.34,-0.603 6.885,-1.809 1.544,-1.205 2.316,-2.93 2.316,-5.171 0,-5.077 -3.068,-7.615 -9.201,-7.615 z m 72.101,15.039 c 1.882,-0.761 3.522,-1.925 4.918,-3.49 1.396,-1.566 2.507,-3.544 3.332,-5.933 0.825,-2.391 1.237,-5.215 1.237,-8.472 0,-3.258 -0.412,-6.082 -1.237,-8.472 -0.825,-2.39 -1.936,-4.369 -3.332,-5.933 -1.396,-1.566 -3.036,-2.729 -4.918,-3.49 -1.883,-0.762 -3.903,-1.143 -6.06,-1.143 -2.158,0 -4.179,0.381 -6.061,1.143 -1.882,0.761 -3.522,1.924 -4.918,3.49 -1.396,1.564 -2.506,3.543 -3.331,5.933 -0.825,2.39 -1.238,5.214 -1.238,8.472 0,3.257 0.413,6.081 1.238,8.472 0.825,2.389 1.935,4.367 3.331,5.933 1.396,1.565 3.036,2.729 4.918,3.49 1.882,0.762 3.903,1.142 6.061,1.142 2.157,0 4.177,-0.38 6.06,-1.142 M 237.358,4.506 C 234.226,3.49 231.551,1.988 229.33,0 c -2.221,-1.989 -3.934,-4.442 -5.14,-7.361 -1.206,-2.919 -1.809,-6.283 -1.809,-10.09 0,-3.808 0.603,-7.171 1.809,-10.09 1.206,-2.919 2.919,-5.373 5.14,-7.361 2.221,-1.989 4.896,-3.49 8.028,-4.506 3.13,-1.015 6.599,-1.523 10.407,-1.523 3.807,0 7.266,0.508 10.375,1.523 3.11,1.016 5.775,2.517 7.996,4.506 2.221,1.988 3.944,4.442 5.172,7.361 1.226,2.919 1.84,6.282 1.84,10.09 0,3.807 -0.614,7.171 -1.84,10.09 -1.228,2.919 -2.951,5.372 -5.172,7.361 -2.221,1.988 -4.886,3.49 -7.996,4.506 -3.109,1.015 -6.568,1.523 -10.375,1.523 -3.808,0 -7.277,-0.508 -10.407,-1.523 m 89.958,-44.168 V 4.759 h -12.057 l -23.797,-36.171 h -0.635 V 4.759 h -9.201 v -44.421 h 12.057 L 317.48,-3.49 h 0.634 v -36.172 z m -13.961,50.767 c 1.904,1.904 2.856,4.442 2.856,7.615 h -7.298 c 0,-1.903 -0.487,-3.279 -1.46,-4.125 -0.973,-0.846 -2.179,-1.269 -3.617,-1.269 -1.438,0 -2.644,0.423 -3.617,1.269 -0.974,0.846 -1.459,2.222 -1.459,4.125 h -7.298 c 0,-3.173 0.952,-5.711 2.856,-7.615 1.903,-1.904 5.076,-2.855 9.518,-2.855 4.442,0 7.615,0.951 9.519,2.855 M 392.391,0.444 c 1.882,-0.761 3.522,-1.925 4.918,-3.49 1.396,-1.566 2.507,-3.544 3.332,-5.933 0.825,-2.391 1.237,-5.215 1.237,-8.472 0,-3.258 -0.412,-6.082 -1.237,-8.472 -0.825,-2.39 -1.936,-4.369 -3.332,-5.933 -1.396,-1.566 -3.036,-2.729 -4.918,-3.49 -1.883,-0.762 -3.903,-1.143 -6.06,-1.143 -2.158,0 -4.179,0.381 -6.06,1.143 -1.883,0.761 -3.522,1.924 -4.919,3.49 -1.396,1.564 -2.506,3.543 -3.331,5.933 -0.825,2.39 -1.238,5.214 -1.238,8.472 0,3.257 0.413,6.081 1.238,8.472 0.825,2.389 1.935,4.367 3.331,5.933 1.397,1.565 3.036,2.729 4.919,3.49 1.881,0.762 3.902,1.142 6.06,1.142 2.157,0 4.177,-0.38 6.06,-1.142 M 375.924,4.506 C 372.792,3.49 370.117,1.988 367.896,0 c -2.221,-1.989 -3.934,-4.442 -5.14,-7.361 -1.206,-2.919 -1.809,-6.283 -1.809,-10.09 0,-3.808 0.603,-7.171 1.809,-10.09 1.206,-2.919 2.919,-5.373 5.14,-7.361 2.221,-1.989 4.896,-3.49 8.028,-4.506 3.13,-1.015 6.599,-1.523 10.407,-1.523 3.807,0 7.266,0.508 10.375,1.523 3.11,1.016 5.775,2.517 7.996,4.506 2.221,1.988 3.944,4.442 5.172,7.361 1.226,2.919 1.84,6.282 1.84,10.09 0,3.807 -0.614,7.171 -1.84,10.09 -1.228,2.919 -2.951,5.372 -5.172,7.361 -2.221,1.988 -4.886,3.49 -7.996,4.506 -3.109,1.015 -6.568,1.523 -10.375,1.523 -3.808,0 -7.277,-0.508 -10.407,-1.523 m 82.013,0.253 H 414.468 V 0 h 17.134 v -39.662 h 9.201 V 0 h 17.134 z m 39.026,-29.825 v -14.596 h 9.201 V 4.759 h -9.201 v -25.066 h -12.057 c -4.274,0 -7.298,0.73 -9.075,2.19 -1.776,1.459 -2.665,3.69 -2.665,6.694 V 4.759 h -9.201 v -16.182 c 0,-2.242 0.39,-4.21 1.174,-5.901 0.782,-1.693 2.019,-3.11 3.712,-4.252 1.691,-1.142 3.86,-2.01 6.504,-2.602 2.644,-0.593 5.828,-0.888 9.551,-0.888 z M 555.204,0 v 4.759 h -38.709 v -44.421 h 38.709 v 4.76 h -29.508 v 15.547 h 23.163 v 4.76 H 525.696 V 0 Z m 48.882,4.759 H 560.617 V 0 h 17.134 v -39.662 h 9.201 V 0 h 17.134 z"
             style="fill:#7c002f;fill-opacity:1;fill-rule:nonzero;stroke:none"
             id="path38" /></g></g></g><g
       id="g40"><g
         id="g42"><g
           id="g48"><g
             id="g50"><path
               d="m 954.938,1080 c 0.105,-4.066 0.161,-8.199 0.161,-12.408 v 0 c 0,-36.547 -3.955,-67.678 -11.843,-93.396 v 0 c -7.899,-25.718 -18.274,-46.698 -31.132,-62.941 v 0 c -12.859,-16.243 -27.643,-28.086 -44.33,-35.531 v 0 c -16.697,-7.445 -33.839,-11.167 -51.435,-11.167 v 0 c -17.596,0 -34.748,3.722 -51.436,11.167 v 0 c -16.696,7.445 -31.469,19.288 -44.328,35.531 v 0 c -12.859,16.243 -23.243,37.223 -31.132,62.941 v 0 c -7.899,25.718 -11.844,56.849 -11.844,93.396 v 0 c 0,4.209 0.056,8.342 0.161,12.408 v 0 H 572.91 c -0.118,-4.086 -0.191,-8.214 -0.191,-12.408 v 0 c 0,-42.415 5.974,-79.3 17.934,-110.654 v 0 c 11.949,-31.365 28.763,-57.42 50.421,-78.168 v 0 c 21.656,-20.759 47.374,-36.208 77.152,-46.36 v 0 c 29.778,-10.151 62.486,-15.227 98.133,-15.227 v 0 c 35.637,0 68.355,5.076 98.134,15.227 v 0 c 29.778,10.152 55.495,25.601 77.152,46.36 v 0 c 21.657,20.748 38.46,46.803 50.42,78.168 v 0 c 11.949,31.354 17.935,68.239 17.935,110.654 v 0 c 0,4.194 -0.073,8.322 -0.192,12.408 v 0 z m -600.192,0 c -3.916,-3.161 -7.955,-6.172 -12.124,-9.025 v 0 L 98.981,884.861 v -54.143 h 419.603 v 50.759 H 234.337 l 172.579,131.972 c 13.535,10.374 26.617,20.98 39.254,31.808 v 0 c 12.26,10.516 23.137,22.094 32.646,34.743 v 0 z m 363.48,-305.776 c -29.778,-10.152 -55.496,-25.612 -77.153,-46.36 v 0 c -21.657,-20.757 -38.471,-46.813 -50.42,-78.168 v 0 c -11.96,-31.365 -17.934,-68.248 -17.934,-110.653 v 0 c 0,-42.415 5.974,-79.3 17.934,-110.654 v 0 c 11.949,-31.364 28.763,-57.42 50.42,-78.168 v 0 c 21.657,-20.758 47.375,-36.207 77.153,-46.359 v 0 c 29.778,-10.152 62.486,-15.228 98.133,-15.228 v 0 c 35.637,0 68.355,5.076 98.133,15.228 v 0 c 29.779,10.152 55.496,25.601 77.153,46.359 v 0 c 21.657,20.748 38.46,46.804 50.42,78.168 v 0 c 11.949,31.354 17.934,68.239 17.934,110.654 v 0 c 0,42.405 -5.985,79.288 -17.934,110.653 v 0 c -11.96,31.355 -28.763,57.411 -50.42,78.168 v 0 c -21.657,20.748 -47.374,36.208 -77.153,46.36 v 0 c -29.778,10.152 -62.496,15.227 -98.133,15.227 v 0 c -35.647,0 -68.355,-5.075 -98.133,-15.227 m 46.697,-427.048 c -16.696,7.445 -31.47,19.288 -44.328,35.531 v 0 c -12.859,16.242 -23.243,37.223 -31.132,62.941 v 0 c -7.899,25.717 -11.844,56.849 -11.844,93.395 v 0 c 0,36.546 3.945,67.678 11.844,93.396 v 0 c 7.889,25.717 18.273,46.697 31.132,62.94 v 0 c 12.858,16.243 27.632,28.087 44.328,35.531 v 0 c 16.687,7.445 33.84,11.167 51.436,11.167 v 0 c 17.596,0 34.738,-3.722 51.435,-11.167 v 0 c 16.687,-7.444 31.471,-19.288 44.33,-35.531 v 0 c 12.858,-16.243 23.233,-37.223 31.132,-62.94 v 0 c 7.888,-25.718 11.843,-56.85 11.843,-93.396 v 0 c 0,-36.546 -3.955,-67.678 -11.843,-93.395 v 0 c -7.899,-25.718 -18.274,-46.699 -31.132,-62.941 v 0 c -12.859,-16.243 -27.643,-28.086 -44.33,-35.531 v 0 c -16.697,-7.445 -33.839,-11.167 -51.435,-11.167 v 0 c -17.596,0 -34.749,3.722 -51.436,11.167 M 183.24,770.502 C 148.27,757.865 117.931,740.49 92.213,718.39 v 0 l 30.455,-40.607 c 25.718,22.101 52.45,37.784 80.199,47.036 v 0 c 27.748,9.243 58.542,13.874 92.381,13.874 v 0 c 37.444,0 65.414,-8.576 83.92,-25.718 v 0 c 18.495,-17.152 27.748,-40.162 27.748,-69.031 v 0 c 0,-22.112 -6.43,-41.622 -19.289,-58.542 v 0 c -12.858,-16.919 -27.864,-31.248 -45.005,-42.976 v 0 L 98.981,356.313 V 302.17 h 419.603 v 50.759 H 234.337 L 406.916,484.9 c 13.535,10.375 26.617,20.981 39.254,31.809 v 0 c 12.626,10.829 23.792,22.778 33.5,35.869 v 0 c 9.697,13.081 17.48,27.632 23.349,43.653 v 0 c 5.858,16.01 8.797,34.178 8.797,54.481 v 0 c 0,20.303 -4.293,38.915 -12.858,55.834 v 0 c -8.576,16.92 -21.551,31.576 -38.915,43.991 v 0 c -17.374,12.404 -39.147,21.995 -65.309,28.763 v 0 c -26.172,6.767 -57.082,10.151 -92.719,10.151 v 0 c -44.223,0 -83.814,-6.323 -118.775,-18.949 M 718.226,229.523 c -29.778,-10.152 -55.496,-25.612 -77.152,-46.36 v 0 C 619.416,162.406 602.602,136.35 590.653,104.996 v 0 C 579.334,75.314 573.385,40.68 572.779,1.11 v 0 h 104.887 c 0.461,33.636 4.39,62.513 11.797,86.628 v 0 c 7.889,25.718 18.273,46.698 31.132,62.941 v 0 c 12.859,16.242 27.632,28.086 44.328,35.53 v 0 c 16.688,7.445 33.84,11.167 51.436,11.167 v 0 c 17.596,0 34.738,-3.722 51.435,-11.167 v 0 c 16.687,-7.444 31.471,-19.288 44.33,-35.53 v 0 c 12.858,-16.243 23.233,-37.223 31.132,-62.941 v 0 C 950.653,63.623 954.591,34.746 955.053,1.11 v 0 h 104.887 c -0.608,39.57 -6.567,74.204 -17.875,103.886 v 0 c -11.96,31.354 -28.763,57.41 -50.42,78.167 v 0 c -21.657,20.748 -47.374,36.208 -77.152,46.36 v 0 c -29.779,10.152 -62.497,15.228 -98.134,15.228 v 0 c -35.647,0 -68.355,-5.076 -98.133,-15.228 M 183.24,225.801 C 148.27,213.164 117.931,195.79 92.213,173.689 v 0 l 30.455,-40.607 c 25.718,22.101 52.45,37.784 80.199,47.037 v 0 c 27.748,9.242 58.542,13.873 92.381,13.873 v 0 c 37.444,0 65.414,-8.576 83.92,-25.717 v 0 c 18.495,-17.152 27.748,-40.163 27.748,-69.032 v 0 c 0,-22.111 -6.43,-41.621 -19.289,-58.541 v 0 C 375.972,25.366 362.534,12.182 347.359,1.11 v 0 h 127.054 c 1.791,2.225 3.554,4.473 5.257,6.768 v 0 c 9.697,13.08 17.48,27.632 23.349,43.652 v 0 c 5.858,16.01 8.797,34.178 8.797,54.481 v 0 c 0,20.303 -4.293,38.915 -12.858,55.834 v 0 c -8.576,16.92 -21.551,31.577 -38.915,43.991 v 0 c -17.374,12.404 -39.147,21.995 -65.309,28.763 v 0 c -26.172,6.768 -57.082,10.152 -92.719,10.152 v 0 c -44.223,0 -83.814,-6.324 -118.775,-18.95"
               style="fill:url(#linearGradient58);stroke:none"
               id="path60" /></g></g></g></g><path
       d="m 1890,0 h 30 v 1080 h -30 z"
       style="fill:#0c50a8;fill-opacity:1;fill-rule:nonzero;stroke:none"
       id="path62" /><g
       id="g64"><g
         id="g66"
         clip-path="url(#clipPath70)"><g
           id="g72"
           transform="translate(1736.5389,935.1133)"><path
             d="m 0,0 h 0.027 c 0.223,0.362 0.585,0.724 0.948,0.973 0.501,0.336 1.141,0.473 1.699,0.473 1.392,0 2.09,-0.749 2.311,-1.057 0.614,-0.836 0.641,-1.977 0.641,-2.869 v -7.185 c 0,-0.67 -0.083,-1.589 -0.808,-2.34 -0.556,-0.584 -1.251,-0.808 -2.061,-0.808 -0.807,0 -1.337,0.224 -1.838,0.529 -0.363,0.224 -0.669,0.5 -0.919,0.806 v -6.794 H -2.784 V 1.225 l 2.784,0 z m 0,-8.246 c 0,-0.445 0.027,-0.946 0.446,-1.393 0.195,-0.194 0.529,-0.444 1.057,-0.444 0.419,0 0.726,0.138 0.976,0.418 0.332,0.36 0.362,0.779 0.362,1.113 v 5.599 c 0,0.473 0,0.865 -0.362,1.251 -0.25,0.28 -0.557,0.419 -0.976,0.419 -0.528,0 -0.862,-0.25 -1.057,-0.445 C 0.027,-2.174 0,-2.675 0,-3.122 Z"
             style="fill:#000000;fill-opacity:1;fill-rule:nonzero;stroke:none"
             id="path74" /></g><g
           id="g76"
           transform="translate(1747.4564,936.3385)"><path
             d="M 0,0 2.256,-8.581 H 2.369 L 4.096,0 H 6.88 L 3.094,-15.682 C 2.899,-16.49 2.646,-17.827 1.811,-18.634 0.976,-19.443 -0.11,-19.498 -0.975,-19.498 H -1.7 l -0.054,2.59 h 0.529 c 0.39,0 0.919,0.055 1.309,0.586 0.113,0.138 0.28,0.444 0.502,1.337 L 1.034,-13.174 -3.007,0 Z"
             style="fill:#000000;fill-opacity:1;fill-rule:nonzero;stroke:none"
             id="path78" /></g><g
           id="g80"
           transform="translate(1755.9528,932.4385)"><path
             d="M 0,0 C 0,1.447 0.585,2.422 1.059,2.924 1.783,3.678 2.898,4.121 4.262,4.121 5.6,4.121 6.546,3.621 7.13,3.092 7.66,2.59 8.302,1.698 8.302,0.222 v -0.389 c 0,-0.752 -0.194,-1.365 -0.475,-1.81 -0.193,-0.279 -0.528,-0.67 -1.086,-0.92 0.558,-0.221 0.919,-0.584 1.142,-0.919 0.474,-0.67 0.528,-1.45 0.528,-1.979 v -0.361 c 0,-1.03 -0.444,-2.117 -1.084,-2.784 -0.724,-0.754 -1.922,-1.199 -3.205,-1.199 -0.975,0 -2.199,0.364 -2.952,1.059 C 0.531,-8.495 0,-7.465 0,-6.323 v 0.528 h 2.674 v -0.276 c 0,-0.335 0.111,-0.641 0.306,-0.865 0.334,-0.39 0.781,-0.473 1.115,-0.473 0.668,0 1.031,0.25 1.198,0.473 0.251,0.306 0.333,0.78 0.333,1.169 v 0.252 c 0,0.586 -0.252,0.891 -0.417,1.029 -0.277,0.253 -0.723,0.365 -1.058,0.365 H 3.174 v 2.394 h 0.893 c 0.501,0 0.892,0.195 1.115,0.445 0.192,0.225 0.333,0.585 0.333,1.031 v 0.139 c 0,0.363 -0.141,0.78 -0.333,1.03 C 4.876,1.31 4.458,1.392 4.151,1.392 3.622,1.392 3.26,1.197 3.036,0.947 2.729,0.612 2.674,0.251 2.674,-0.083 V -0.278 H 0 Z"
             style="fill:#000000;fill-opacity:1;fill-rule:nonzero;stroke:none"
             id="path82" /></g><g
           id="g84"
           transform="translate(1767.7073,931.8821)"><path
             d="m 0,0 c 0,1.086 0.083,2.618 1.366,3.703 0.75,0.64 1.809,0.975 2.841,0.975 1.03,0 2.088,-0.335 2.842,-0.975 C 8.329,2.618 8.412,1.086 8.412,0 v -4.904 c 0,-1.086 -0.083,-2.617 -1.363,-3.704 -0.754,-0.64 -1.812,-0.975 -2.842,-0.975 -1.032,0 -2.091,0.335 -2.841,0.975 C 0.083,-7.521 0,-5.99 0,-4.904 Z M 5.626,0.166 C 5.626,0.807 5.46,1.281 5.209,1.559 4.985,1.783 4.623,1.948 4.207,1.948 3.788,1.948 3.426,1.783 3.205,1.559 2.953,1.281 2.786,0.807 2.786,0.166 V -5.07 c 0,-0.64 0.167,-1.115 0.419,-1.394 0.221,-0.222 0.583,-0.388 1.002,-0.388 0.416,0 0.778,0.166 1.002,0.388 0.251,0.279 0.417,0.754 0.417,1.394 z"
             style="fill:#000000;fill-opacity:1;fill-rule:nonzero;stroke:none"
             id="path86" /></g><g
           id="g88"
           transform="translate(1784.3093,936.3385)"><path
             d="m 0,0 c 1.17,0 2.144,-0.417 2.729,-1.003 0.612,-0.641 0.919,-1.645 0.919,-2.396 v -0.668 c 0,-0.585 -0.082,-1.365 -0.668,-2.034 -0.14,-0.166 -0.501,-0.501 -1.088,-0.695 0.335,-0.111 0.837,-0.335 1.283,-0.92 0.473,-0.64 0.584,-1.365 0.584,-1.979 v -0.641 c 0,-1.279 -0.613,-2.143 -1.113,-2.589 -0.892,-0.807 -1.977,-0.89 -3.009,-0.89 h -4.234 l 0,13.815 z m -1.812,-5.682 h 1.227 c 0.417,0 0.779,0.028 1.114,0.445 0.306,0.36 0.335,0.78 0.335,1.115 v 0.279 c 0,0.611 -0.28,0.916 -0.335,0.974 -0.308,0.334 -0.753,0.362 -1.114,0.362 h -1.227 z m 0,-5.627 h 1.283 c 0.361,0 0.862,0.055 1.198,0.473 0.278,0.306 0.306,0.67 0.306,0.975 v 0.501 c 0,0.307 -0.057,0.724 -0.335,1.032 -0.336,0.362 -0.781,0.417 -1.169,0.417 h -1.283 z"
             style="fill:#000000;fill-opacity:1;fill-rule:nonzero;stroke:none"
             id="path90" /></g><g
           id="g92"
           transform="translate(1797.1499,923.8882)"><path
             d="m 0,0 h -0.056 c -0.195,-0.309 -0.557,-0.753 -0.949,-1.059 -0.527,-0.417 -1.029,-0.53 -1.615,-0.53 -0.556,0 -1.419,0.084 -2.117,0.725 -0.863,0.807 -1.001,2.059 -1.001,3.174 0,1.004 0.055,2.508 0.863,3.455 0.919,1.088 2.48,1.198 3.286,1.198 0.195,0 0.725,0 1.589,-0.084 v 1.45 c 0,0.388 -0.028,0.808 -0.361,1.168 -0.281,0.306 -0.698,0.446 -1.117,0.446 -0.389,0 -0.806,-0.14 -1.111,-0.501 C -2.786,9.218 -2.924,8.913 -2.953,8.551 H -5.6 c -0.026,1.252 0.502,2.34 1.142,2.98 0.697,0.697 1.838,1.141 3.121,1.141 1.252,0 2.283,-0.444 2.979,-1.115 1.003,-1 1.142,-2.31 1.142,-3.259 v -9.663 l -2.784,0 z m 0,4.651 c -0.335,0.055 -0.67,0.084 -0.977,0.084 -0.444,0 -1.112,-0.056 -1.558,-0.586 -0.364,-0.418 -0.418,-1.002 -0.418,-1.447 0,-0.392 0.054,-0.781 0.278,-1.143 0.28,-0.444 0.641,-0.64 1.114,-0.64 C -0.725,0.919 0,1.475 0,2.702 Z"
             style="fill:#000000;fill-opacity:1;fill-rule:nonzero;stroke:none"
             id="path94" /></g><g
           id="g96"
           transform="translate(1809.0981,922.5232)"><path
             d="M 0,0 V 5.682 H -1.227 L -3.119,0 h -3.01 l 2.258,6.1 c -0.39,0.195 -0.807,0.528 -1.087,0.89 -0.389,0.531 -0.613,1.421 -0.613,2.173 v 1.17 c 0,1.28 0.613,2.146 1.115,2.59 0.89,0.808 1.977,0.892 3.008,0.892 H 2.786 L 2.786,0 Z m 0,11.587 h -1.281 c -0.363,0 -0.723,-0.055 -1.087,-0.42 -0.36,-0.36 -0.417,-0.722 -0.417,-1.195 V 9.359 c 0,-0.306 0.057,-0.726 0.335,-1.032 0.334,-0.361 0.779,-0.419 1.169,-0.419 H 0 Z"
             style="fill:#000000;fill-opacity:1;fill-rule:nonzero;stroke:none"
             id="path98" /></g><g
           id="g100"
           transform="translate(1818.2157,899.8276)"><path
             d="M 0,0 V 5.682 H -1.226 L -3.12,0 h -3.008 l 2.256,6.101 c -0.39,0.194 -0.809,0.527 -1.087,0.891 -0.39,0.529 -0.61,1.42 -0.61,2.171 v 1.172 c 0,1.279 0.61,2.144 1.112,2.589 0.89,0.808 1.978,0.89 3.008,0.89 H 2.784 V 0 Z m 0,11.587 h -1.282 c -0.362,0 -0.723,-0.056 -1.087,-0.418 C -2.73,10.806 -2.785,10.445 -2.785,9.971 V 9.358 c 0,-0.306 0.055,-0.724 0.334,-1.03 C -2.117,7.966 -1.67,7.91 -1.282,7.91 H 0 Z"
             style="fill:#000000;fill-opacity:1;fill-rule:nonzero;stroke:none"
             id="path102" /></g><g
           id="g104"
           transform="translate(1728.0701,908.0716)"><path
             d="m 0,0 c 0.586,0 0.892,0.112 1.171,0.668 0.223,0.446 0.305,0.948 0.361,1.338 l 0.169,1.002 c 0.082,0.53 0.25,1.254 0.64,1.783 C 2.926,5.6 3.845,5.71 4.735,5.71 H 5.378 V 3.341 H 5.013 C 4.68,3.341 4.43,3.204 4.291,3.064 4.178,2.925 4.068,2.674 3.985,2.118 L 3.845,1.086 C 3.761,0.447 3.734,-0.056 3.538,-0.473 3.371,-0.835 3.176,-1.03 2.981,-1.171 L 5.488,-8.244 H 2.675 L 0.67,-2.339 H -0.89 V -8.244 H -3.676 V 5.57 h 2.786 l 0,-5.57 z"
             style="fill:#000000;fill-opacity:1;fill-rule:nonzero;stroke:none"
             id="path106" /></g><g
           id="g108"
           transform="translate(1736.2061,909.1863)"><path
             d="M 0,0 C 0,1.086 0.083,2.617 1.362,3.704 2.116,4.345 3.175,4.68 4.203,4.68 5.237,4.68 6.294,4.345 7.044,3.704 8.328,2.617 8.41,1.086 8.41,0 V -4.903 C 8.41,-5.99 8.328,-7.521 7.044,-8.607 6.294,-9.248 5.237,-9.581 4.203,-9.581 3.175,-9.581 2.116,-9.248 1.362,-8.607 0.083,-7.521 0,-5.99 0,-4.903 Z M 5.626,0.166 C 5.626,0.807 5.459,1.281 5.207,1.56 4.985,1.782 4.623,1.949 4.203,1.949 3.786,1.949 3.424,1.782 3.202,1.56 2.95,1.281 2.784,0.807 2.784,0.166 V -5.07 c 0,-0.641 0.166,-1.115 0.418,-1.392 0.222,-0.224 0.584,-0.392 1.001,-0.392 0.42,0 0.782,0.168 1.004,0.392 0.252,0.277 0.419,0.751 0.419,1.392 z"
             style="fill:#000000;fill-opacity:1;fill-rule:nonzero;stroke:none"
             id="path110" /></g></g></g><g
       id="g112"
       transform="translate(1753.7244,905.927)"><path
         d="M 0,0 H 0.056 L 3.009,7.715 H 5.572 V -6.099 H 2.953 V 1.755 L 0.612,-4.121 h -1.17 L -2.897,1.755 V -6.099 H -5.514 V 7.715 h 2.561 z"
         style="fill:#000000;fill-opacity:1;fill-rule:nonzero;stroke:none"
         id="path114" /></g><g
       id="g116"
       transform="translate(1763.1399,913.642)"><path
         d="M 0,0 H 8.245 V -13.814 H 5.461 V -2.506 H 2.784 V -13.814 H 0 Z"
         style="fill:#000000;fill-opacity:1;fill-rule:nonzero;stroke:none"
         id="path118" /></g><g
       id="g120"><g
         id="g122"
         clip-path="url(#clipPath126)"><g
           id="g128"
           transform="translate(1780.7153,901.1916)"><path
             d="m 0,0 h -0.056 c -0.195,-0.306 -0.557,-0.751 -0.947,-1.057 -0.529,-0.419 -1.031,-0.529 -1.615,-0.529 -0.557,0 -1.422,0.081 -2.118,0.725 -0.863,0.806 -1.002,2.059 -1.002,3.174 0,1.002 0.055,2.505 0.862,3.454 0.92,1.086 2.481,1.197 3.289,1.197 0.194,0 0.723,0 1.587,-0.084 v 1.448 c 0,0.391 -0.026,0.809 -0.362,1.173 -0.28,0.304 -0.697,0.443 -1.116,0.443 -0.387,0 -0.807,-0.139 -1.111,-0.502 C -2.784,9.221 -2.924,8.914 -2.953,8.551 h -2.646 c -0.027,1.254 0.502,2.34 1.143,2.98 0.695,0.697 1.838,1.144 3.12,1.144 1.253,0 2.284,-0.447 2.98,-1.115 1.002,-1.003 1.14,-2.313 1.14,-3.26 v -9.664 l -2.784,0 z m 0,4.651 c -0.335,0.056 -0.668,0.084 -0.975,0.084 -0.444,0 -1.114,-0.055 -1.56,-0.583 -0.362,-0.419 -0.418,-1.004 -0.418,-1.449 0,-0.39 0.056,-0.78 0.278,-1.144 0.28,-0.445 0.641,-0.64 1.116,-0.64 C -0.724,0.919 0,1.478 0,2.703 Z"
             style="fill:#000000;fill-opacity:1;fill-rule:nonzero;stroke:none"
             id="path130" /></g></g></g><g
       id="g132"
       transform="translate(1787.3439,913.642)"><path
         d="m 0,0 h 2.788 v -5.57 h 2.84 V 0 H 8.412 V -13.814 H 5.628 v 5.737 h -2.84 v -5.737 H 0 Z"
         style="fill:#000000;fill-opacity:1;fill-rule:nonzero;stroke:none"
         id="path134" /></g><g
       id="g136"
       transform="translate(1802.3845,913.642)"><path
         d="M 0,0 V -7.715 L 3.426,-1.7 V 0 H 6.21 V -13.814 H 3.426 v 7.715 L 0,-12.116 v -1.698 H -2.784 V 0 Z"
         style="fill:#000000;fill-opacity:1;fill-rule:nonzero;stroke:none"
         id="path138" /></g><g
       id="g140"><g
         id="g142"
         clip-path="url(#clipPath146)"><g
           id="g148"
           transform="translate(1728.4666,936.3385)"><path
             d="m 0,0 c -0.981,0 -2.134,-0.113 -3.003,-0.872 -0.985,-0.871 -1.069,-2.049 -1.069,-3.006 v -9.937 h 2.785 v 9.463 c 0.019,0.416 0.102,0.78 0.418,1.143 0.42,0.449 0.842,0.477 1.318,0.477 l 2.415,0.003 V 0 Z"
             style="fill:#000000;fill-opacity:1;fill-rule:nonzero;stroke:none"
             id="path150" /></g><g
           id="g152"
           transform="translate(1680.7742,936.3411)"><path
             d="m 0,0 h -7.342 c 1.845,-20.473 19.05,-36.521 40.006,-36.521 h 3.651 v 7.304 c 0,0 -2.417,0.003 -3.651,0.003 C 15.746,-29.214 1.816,-16.433 0,0 m 29.012,36.317 v 7.342 C 9.739,41.921 -5.604,26.578 -7.342,7.306 h 7.34 c 1.685,15.233 13.779,27.327 29.014,29.011 m 7.303,7.342 V 36.317 C 51.55,34.633 63.645,22.539 65.33,7.306 h 7.34 C 70.934,26.578 55.588,41.921 36.315,43.659"
             style="fill:#7c002f;fill-opacity:1;fill-rule:nonzero;stroke:none"
             id="path154" /></g><g
           id="g156"
           transform="translate(1709.6031,965.3756)"><path
             d="m 0,0 -5.166,-5.166 c 3.32,-3.327 5.348,-7.891 5.349,-12.91 v -32.87 h 7.305 v 32.87 C 7.479,-11.035 4.628,-4.629 0,0"
             style="fill:#7c002f;fill-opacity:1;fill-rule:nonzero;stroke:none"
             id="path158" /></g></g></g></g></svg>
