<?xml version="1.0" encoding="UTF-8" standalone="no"?>
<?xml-stylesheet type="text/css" href="main.css" ?>
<svg
   xmlns:dc="http://purl.org/dc/elements/1.1/"
   xmlns:cc="http://creativecommons.org/ns#"
   xmlns:rdf="http://www.w3.org/1999/02/22-rdf-syntax-ns#"
   xmlns:svg="http://www.w3.org/2000/svg"
   xmlns="http://www.w3.org/2000/svg"
   version="1.1"
   id="svg2"
   xml:space="preserve"
   width="2560"
   height="1440"
   viewBox="0 0 2560 1440"><metadata
     id="metadata8"><rdf:RDF><cc:Work
         rdf:about=""><dc:format>image/svg+xml</dc:format><dc:type
           rdf:resource="http://purl.org/dc/dcmitype/StillImage" /></cc:Work></rdf:RDF></metadata><defs
     id="defs6"><clipPath
       clipPathUnits="userSpaceOnUse"
       id="clipPath20"><path
         d="M 0,1080 H 1920 V 0 H 0 Z"
         id="path18" /></clipPath></defs><g
     id="g10"
     transform="matrix(1.3333333,0,0,-1.3333333,0,1440)"><g
       id="g12"><g
         id="g14"><g
           id="g16"
           clip-path="url(#clipPath20)"><path
             d="M 0,0 H 1920 V 1080 H 0 Z"
             style="fill:#ffffff;fill-opacity:1;fill-rule:nonzero;stroke:none"
             id="path22" /></g></g></g><text
       transform="matrix(1,0,0,-1,99,953.4)"
       style="font-variant:normal;font-weight:normal;font-stretch:normal;font-size:38px;font-family:'Prosto One';-inkscape-font-specification:ProstoOne-Regular;writing-mode:lr-tb;fill:#000000;fill-opacity:1;fill-rule:nonzero;stroke:none"
       id="text28"><tspan
         x="0 30.02 60.419998 87.400002 120.46 147.44 179.36 212.03999 242.44 255.74001 289.94 303.23999 333.26001 366.32001 393.29999 424.84 455.04999 486.20999 515.28003 524.96997 538.27002 568.66998 581.96997 611.98999 646.19 676.59003 703.57001 733.59003 775.20001 802.17999 834.09998 866.78003 899.46002 912.76001 942.96997 977.16998 1003.96 1038.16 1068.1801 1107.89 1136.96 1150.26 1182.9399 1224.74 1251.72 1278.7 1305.49 1335.51 1365.91"
         y="0"
         id="tspan24">CВЕДЕНИЯ О СДЕЛКАХ, В СОВЕРШЕНИИ КОТОРЫХ ИМЕЕТСЯ </tspan><tspan
         x="0 28.309999 59.470001 92.150002 124.07 150.86 177.84 207.86 234.84 264.85999 299.06 329.45999 360.62 392.54001 424.45999 458.66 488.67999 515.46997 545.48999 554.98999 568.28998 598.5 628.52002 658.72998 690.65002 722.57001 762.28003 789.26001 802.56 832.58002 865.64001 892.62 924.15997 954.37"
         y="45.599998"
         id="tspan26">ЗАИНТЕРЕСОВАННОСТЬ. КРУПНЫЕ СДЕЛКИ</tspan></text><text
       transform="matrix(1,0,0,-1,99,821.6201)"
       style="font-variant:normal;font-weight:500;font-stretch:normal;font-size:28px;font-family:'Rubik Medium';-inkscape-font-specification:Rubik-Medium;writing-mode:lr-tb;fill:#000000;fill-opacity:1;fill-rule:nonzero;stroke:none"
       id="text38"><tspan
         x="0 19.459999 34.299999 50.484001 66.639999 81.480003 87.891998 104.468 110.88 125.86 141.84801 157.836 174.72 198.07201 214.256 230.412 247.856 265.29999 286.72 302.51199"
         y="0"
         id="tspan30">Отчет о заключенных </tspan><tspan
         x="0 20.412001 39.816002 59.276001 65.688004 82.907997 103.32 118.524 137.284 154.504 160.916 177.24001 183.65199 200.98399 219.38 236.71201 255.108 261.51999 273.98001 290.556 308.14001 324.10001 330.51199 346.5 364.08401 380.23999 397.12399 413.112 429.10001 444.892 452.284"
         y="34.888"
         id="tspan32">ПАО «ПГК» в 2020 году сделках, </tspan><tspan
         x="0 16.323999 22.736 38.723999 55.299999 71.624001 87.779999 104.972 127.624 143.78 161.224 178.668 196.112 202.524 218.51199 235.088 249.92799 266.504 283.69601 305.116 320.90799 327.32001 344.76401 364.448 380.604 396.76001 411.60001 427.58801 443.66"
         y="69.776001"
         id="tspan34">в совершении которых имеется </tspan><tspan
         x="0 14.98 30.968 48.411999 65.856003 80.695999 96.851997 114.044 130.2 146.188 162.76401 179.088 195.076 212.52 229.964 246.53999 262.52802 277.36801"
         y="104.664"
         id="tspan36">заинтересованность</tspan></text><text
       transform="matrix(1,0,0,-1,99,677.116)"
       style="font-variant:normal;font-weight:300;font-stretch:normal;font-size:20px;font-family:'Rubik Light';-inkscape-font-specification:Rubik-Light;writing-mode:lr-tb;fill:#000000;fill-opacity:1;fill-rule:nonzero;stroke:none"
       id="text42"><tspan
         x="0 13.02 24.540001 35.459999 46.68 56.799999 67.959999 79.879997 84.620003 89.779999 100.62 105.78 116.5 127.66 138.5 149.42 161.03999 176.42 187.34 199.25999 211.17999 223.10001 228.25999 238.38 249.53999 259.48001 270.64001 282.26001 293.42001 305.34 310.5 322.42001 335.70001 346.62 357.54001 367.48001 378.20001 388.57999 393.73999 403.57999 414.29999 426.22 438.14001 448.07999 459 470.62 481.54001 492.26001"
         y="0"
         id="tspan40">Сделкой, в совершении которой имеется заинтересо</tspan></text><text
       transform="matrix(1,0,0,-1,602.42,677.116)"
       style="font-variant:normal;font-weight:300;font-stretch:normal;font-size:20px;font-family:'Rubik Light';-inkscape-font-specification:Rubik-Light;writing-mode:lr-tb;fill:#000000;fill-opacity:1;fill-rule:nonzero;stroke:none"
       id="text46"><tspan
         x="0"
         y="0"
         id="tspan44">-</tspan></text><text
       transform="matrix(1,0,0,-1,99,650.236)"
       style="font-variant:normal;font-weight:300;font-stretch:normal;font-size:20px;font-family:'Rubik Light';-inkscape-font-specification:Rubik-Light;writing-mode:lr-tb;fill:#000000;fill-opacity:1;fill-rule:nonzero;stroke:none"
       id="text52"><tspan
         x="0 10.84 21.559999 33.48 45.400002 56.560001 67.279999 77.220001 86.739998 91.480003 96.639999 108.16 119.78 131.7 141.53999 153.46001 164.17999 175.10001 185.03999 195.75999 206.14 211.3 222.02 233.53999 244.46001 255.67999 265.79999 276.51999 281.26001 286.42001 297.26001 302.42001 313.14001 324.29999 335.14001 346.06 357.67999 373.06 383.98001 395.89999 407.82001 419.73999 424.89999 435.01999 446.17999 456.12 467.28 478.89999 490.06 501.98001"
         y="0"
         id="tspan48">ванность, признается сделка, в совершении которой </tspan><tspan
         x="0 10.84 16 26.719999 37.880001 49.040001 58.98 69.82 80.739998 90.68 101.4 111.34 122.18 134.10001 146.02 151.17999 161.89999 167.06 180.64 191.56 203.08 214 225.62 236.34 247.56 257.07999 269 282.17999 295.45999 300.62 310.45999 321.17999 331.29999 342.45999 354.38 365.54001 378.82001 383.98001 396.04001 409.28 420.62 425.78 436.5 446.62 458.64001 470.56 481.72 493.64001 504.56"
         y="26.879999"
         id="tspan50">в соответствии с федеральным законом «Об акционер</tspan></text><text
       transform="matrix(1,0,0,-1,615.18,623.356)"
       style="font-variant:normal;font-weight:300;font-stretch:normal;font-size:20px;font-family:'Rubik Light';-inkscape-font-specification:Rubik-Light;writing-mode:lr-tb;fill:#000000;fill-opacity:1;fill-rule:nonzero;stroke:none"
       id="text56"><tspan
         x="0"
         y="0"
         id="tspan54">-</tspan></text><text
       transform="matrix(1,0,0,-1,99,596.476)"
       style="font-variant:normal;font-weight:300;font-stretch:normal;font-size:20px;font-family:'Rubik Light';-inkscape-font-specification:Rubik-Light;writing-mode:lr-tb;fill:#000000;fill-opacity:1;fill-rule:nonzero;stroke:none"
       id="text62"><tspan
         x="0 11.92 25.1 35.459999 40.619999 51.779999 63.119999 79.019997 89.940002 100.66 110.6 121.44 132.16 142.52 154.58 159.74001 171.66 184.94 195.86 206.78 216.72 227.44 237.82001 242.98 252.82001 263.54001 275.45999 287.38 297.32001 308.23999 319.85999 330.78 341.5 352.66 363.5 374.22 386.14001 398.06 409.22 419.94 429.88 439.39999 444.56 455.10001 466.32001 477.23999 489.16 499.88"
         y="0"
         id="tspan58">ных обществах» имеется заинтересованность члена </tspan><tspan
         x="0 13.02 24.18 35.02 45.939999 55.880001 66.599998 71.760002 83.279999 95.199997 106.82 117.74 127.86 137.8 148.96001 160.58 171.74001 182.58 187.74001 200.98 212.32001 228.22 239.14 249.86 259.79999 270.64001 281.35999 286.10001 291.26001 302.17999 313.70001 325.62 337.54001 348.70001 359.92001 371.84 382.38 394.29999 405.45999 413.82001 424.98001 430.14001 442.06 452.78 464.29999 475.45999 486.67999 498.60001"
         y="26.879999"
         id="tspan60">Совета директоров Общества, единоличного исполни</tspan></text><text
       transform="matrix(1,0,0,-1,609.52,569.596)"
       style="font-variant:normal;font-weight:300;font-stretch:normal;font-size:20px;font-family:'Rubik Light';-inkscape-font-specification:Rubik-Light;writing-mode:lr-tb;fill:#000000;fill-opacity:1;fill-rule:nonzero;stroke:none"
       id="text66"><tspan
         x="0"
         y="0"
         id="tspan64">-</tspan></text><text
       transform="matrix(1,0,0,-1,99,542.716)"
       style="font-variant:normal;font-weight:300;font-stretch:normal;font-size:20px;font-family:'Rubik Light';-inkscape-font-specification:Rubik-Light;writing-mode:lr-tb;fill:#000000;fill-opacity:1;fill-rule:nonzero;stroke:none"
       id="text70"><tspan
         x="0 9.9399996 20.860001 32.080002 41.599998 53.52 64.68 73.040001 84.199997 89.360001 100.52 112.14 120.5 131.22 143.14 153.86 159.02 165.39999 175.5 186.42 198.34 209.25999 220.88 231.60001 242.82001 252.34 264.26001 275.42001 283.78 294.94 300.10001 311.62 323.54001 335.16 346.07999 356.20001 366.14001 377.29999 388.92001 399.64001 406.01999 410.76001 415.92001 426.45999 437.67999 448.60001 460.51999 471.23999 476.39999 486.51999 497.67999"
         y="0"
         id="tspan68">тельного органа (Генерального директора), члена кол</tspan></text><text
       transform="matrix(1,0,0,-1,607.9,542.716)"
       style="font-variant:normal;font-weight:300;font-stretch:normal;font-size:20px;font-family:'Rubik Light';-inkscape-font-specification:Rubik-Light;writing-mode:lr-tb;fill:#000000;fill-opacity:1;fill-rule:nonzero;stroke:none"
       id="text74"><tspan
         x="0"
         y="0"
         id="tspan72">-</tspan></text><text
       transform="matrix(1,0,0,-1,693,829.076)"
       style="font-variant:normal;font-weight:300;font-stretch:normal;font-size:20px;font-family:'Rubik Light';-inkscape-font-specification:Rubik-Light;writing-mode:lr-tb;fill:#000000;fill-opacity:1;fill-rule:nonzero;stroke:none"
       id="text78"><tspan
         x="0 11.22 22.139999 30.5 42.419998 53.139999 64.360001 73.879997 85.800003 96.959999 105.32 116.48 121.64 133.56 144.28 155.8 166.96001 178.17999 190.10001 202.02 211.96001 222.88 234.10001 243.62 255.53999 266.70001 275.06 286.22 291.38 302.54001 314.16 322.51999 333.23999 345.16 355.88 361.04001 367.42001 381.42001 393.04001 403.76001 414.60001 425.82001 436.73999 448.66 460.57999 470.95999 477.34 482.5 495.73999"
         y="0"
         id="tspan76">легиального исполнительного органа (Правления) Об</tspan></text><text
       transform="matrix(1,0,0,-1,1200.08,829.076)"
       style="font-variant:normal;font-weight:300;font-stretch:normal;font-size:20px;font-family:'Rubik Light';-inkscape-font-specification:Rubik-Light;writing-mode:lr-tb;fill:#000000;fill-opacity:1;fill-rule:nonzero;stroke:none"
       id="text82"><tspan
         x="0"
         y="0"
         id="tspan80">-</tspan></text><text
       transform="matrix(1,0,0,-1,693,803.036)"
       style="font-variant:normal;font-weight:300;font-stretch:normal;font-size:20px;font-family:'Rubik Light';-inkscape-font-specification:Rubik-Light;writing-mode:lr-tb;fill:#000000;fill-opacity:1;fill-rule:nonzero;stroke:none"
       id="text88"><tspan
         x="0 15.9 26.82 37.540001 47.48 58.32 69.040001 74.199997 86.120003 97.339996 109.26 114.42 125.64 137.56 149.58 160.3 165.03999 170.2 180.58 191.42 202.64 213.02 228.28 244.17999 255.10001 263.45999 274.62 285.34 295.72 300.88 311 322.16 334.07999 344.01999 355.64001 366.79999 378.01999 389.94 401.56 412.14001 427.39999 443.29999 455.22 468.5 473.66 484.88 496.79999 508.82001 519.97998 533.26001"
         y="0"
         id="tspan84">щества или лица, являющегося контролирующим лицом </tspan><tspan
         x="0 13.24 24.58 40.48 51.400002 62.119999 72.059998 82.900002 93.620003 98.360001 103.52 114.74 126.66 138 149.16 154.32001 165.53999 177.46001 189.48 200.2 204.94 210.10001 222.02 235.3 246.22 261.48001 277.38 288.29999 296.66 307.82001 312.98001 324.5 336.12 346.84 357.67999 368.84 374 385.51999 396.23999 407.07999 417.79999 427.73999 437.26001 442.42001 455.66 467 482.89999"
         y="26.040001"
         id="tspan86">Общества, либо лица, имеющего право давать Обще</tspan></text><text
       transform="matrix(1,0,0,-1,1186.82,776.996)"
       style="font-variant:normal;font-weight:300;font-stretch:normal;font-size:20px;font-family:'Rubik Light';-inkscape-font-specification:Rubik-Light;writing-mode:lr-tb;fill:#000000;fill-opacity:1;fill-rule:nonzero;stroke:none"
       id="text92"><tspan
         x="0"
         y="0"
         id="tspan90">-</tspan></text><text
       transform="matrix(1,0,0,-1,693,750.956)"
       style="font-variant:normal;font-weight:300;font-stretch:normal;font-size:20px;font-family:'Rubik Light';-inkscape-font-specification:Rubik-Light;writing-mode:lr-tb;fill:#000000;fill-opacity:1;fill-rule:nonzero;stroke:none"
       id="text98"><tspan
         x="0 10.72 20.66 31.5 42.080002 47.240002 58.400002 69.739998 80.120003 89.959999 100.68 110.62 121.54 132.75999 142.28 154.2 167.38 178.3 183.46001 194.98 206.2 216.58 221.74001 233.66 244.58 252.94 264.10001 269.26001 279.84 289.95999 300.67999 310.51999 321.23999 333.16 345.07999 355.45999"
         y="0"
         id="tspan94">ству обязательные для него указания.</tspan><tspan
         x="0 13.02 24.540001 35.459999 46.68 56.799999 67.519997 72.260002 77.419998 88.260002 93.419998 104.14 115.3 126.14 137.06 148.67999 164.06 174.98 186.89999 198.82001 210.74001 215.89999 226.02 237.17999 247.12 258.28 269.89999 281.06 292.98001 298.14001 310.06 323.34 334.26001 345.17999 355.12 365.84 376.22 381.38 391.22 401.94 413.85999 425.78 435.72 446.64001 458.26001 469.17999 479.89999"
         y="39.040001"
         id="tspan96">Сделка, в совершении которой имеется заинтересо</tspan></text><text
       transform="matrix(1,0,0,-1,1184.06,711.916)"
       style="font-variant:normal;font-weight:300;font-stretch:normal;font-size:20px;font-family:'Rubik Light';-inkscape-font-specification:Rubik-Light;writing-mode:lr-tb;fill:#000000;fill-opacity:1;fill-rule:nonzero;stroke:none"
       id="text102"><tspan
         x="0"
         y="0"
         id="tspan100">-</tspan></text><text
       transform="matrix(1,0,0,-1,693,685.876)"
       style="font-variant:normal;font-weight:300;font-stretch:normal;font-size:20px;font-family:'Rubik Light';-inkscape-font-specification:Rubik-Light;writing-mode:lr-tb;fill:#000000;fill-opacity:1;fill-rule:nonzero;stroke:none"
       id="text110"><tspan
         x="0 10.84 21.559999 33.48 45.400002 56.560001 67.279999 77.220001 86.739998 91.480003 96.639999 108.56 119.48 124.64 134.58 146.2 157.12 168.46001 179.03999 189.96001 199.89999 205.06 216.22 227.56 237.94 247.78 258.5 268.44 279.35999 290.57999 300.10001 312.01999 323.17999 331.54001 342.70001 347.85999 359.38 371 381.92001 393.44 404.28 415 426.62 438.54001 448.48001 459.39999 470.62 480.14001 492.06 503.22 511.57999 522.73999"
         y="0"
         id="tspan104">ванность, не требует обязательного предварительного </tspan><tspan
         x="0 10.72 21.879999 30.24 41.459999 52.18 62.900002 74.82 85.199997 90.360001 102.28 113 118.16 129.08 140 145.16 155.88 167.03999 177.88 188.8 200.42 215.8 226.72 238.64 250.56 261.48001 266.22 271.38 281.22 291.94 297.10001 309.01999 319.73999 329.85999 341.07999 356.34 366.88 377.79999 389.72 401.64001 412.56 425.84 431 441.72 452.94 463.51999 474.06 484.78 495.70001 506.54001 511.28"
         y="26.040001"
         id="tspan106">согласия на ее совершение, за исключением случаев, </tspan><tspan
         x="0 10.58 21.299999 31.24 41.959999 53.880001 65.040001 75.879997 87.099998 98.019997 109.94 121.86 135.03999 145.39999 150.56 164.14 175.06 186.58 197.5 209.12 219.84 231.06 240.58 252.5 265.67999 278.95999 284.12 293.95999 304.67999 314.79999 325.95999 337.88 349.04001 362.32001 367.48001 379.54001 392.78 404.12 409.28 420 430.12 442.14001 454.06 465.22 477.14001 488.06"
         y="52.080002"
         id="tspan108">установленных федеральным законом «Об акционер</tspan></text><text
       transform="matrix(1,0,0,-1,1192.68,633.796)"
       style="font-variant:normal;font-weight:300;font-stretch:normal;font-size:20px;font-family:'Rubik Light';-inkscape-font-specification:Rubik-Light;writing-mode:lr-tb;fill:#000000;fill-opacity:1;fill-rule:nonzero;stroke:none"
       id="text114"><tspan
         x="0"
         y="0"
         id="tspan112">-</tspan></text><text
       transform="matrix(1,0,0,-1,693,607.756)"
       style="font-variant:normal;font-weight:300;font-stretch:normal;font-size:20px;font-family:'Rubik Light';-inkscape-font-specification:Rubik-Light;writing-mode:lr-tb;fill:#000000;fill-opacity:1;fill-rule:nonzero;stroke:none"
       id="text120"><tspan
         x="0 11.92 25.1 35.459999 40.619999 51.779999 63.119999 79.019997 89.940002 100.66 110.6 121.44 132.16 142.52 154.58"
         y="0"
         id="tspan116">ных обществах».</tspan><tspan
         x="0 14 24.719999 29.879999 40.599998 52.119999 63.040001 74.260002 84.379997 94.959999 99.699997 104.86 115.7 120.86 131.58 142.74001 153.58 164.5 176.12 191.5 202.42 214.34 226.25999 238.17999 243.34 253.46001 264.62 274.56 285.72 297.34 308.5 320.42001 325.57999 337.5 350.78 361.70001 372.62 382.56 393.28 403.66 408.82001 418.66 429.38 441.29999 453.22 463.16 474.07999 485.70001"
         y="39.040001"
         id="tspan118">На сделку, в совершении которой имеется заинтере</tspan></text><text
       transform="matrix(1,0,0,-1,1189.62,568.716)"
       style="font-variant:normal;font-weight:300;font-stretch:normal;font-size:20px;font-family:'Rubik Light';-inkscape-font-specification:Rubik-Light;writing-mode:lr-tb;fill:#000000;fill-opacity:1;fill-rule:nonzero;stroke:none"
       id="text124"><tspan
         x="0"
         y="0"
         id="tspan122">-</tspan></text><text
       transform="matrix(1,0,0,-1,693,542.676)"
       style="font-variant:normal;font-weight:300;font-stretch:normal;font-size:20px;font-family:'Rubik Light';-inkscape-font-specification:Rubik-Light;writing-mode:lr-tb;fill:#000000;fill-opacity:1;fill-rule:nonzero;stroke:none"
       id="text136"><tspan
         x="0 10.72 21.879999 32.720001 43.439999 55.360001 67.279999 78.440002 89.160004 99.099998 108.62 113.36 118.52 130.03999 141.2 146.36 157.28 168.2 173.36 184.08 195.24001 206.08 217 228.62 244 254.92 266.84 278.76001 289.14001 294.29999 307.57999 318.73999 333.72 344.64001 354.57999 359.73999 371.07999 384.26001 394.20001 403.72 408.88 420.39999 431.56 442.78 453.35999 463.89999 474.82001 486.73999 497.89999"
         y="0"
         id="tspan126">сованность, до ее совершения может быть получено </tspan><tspan
         x="594 604.71997 615.88 624.23999 635.46002 646.17999 656.90002 668.82001 679.73999 684.90002 697.91998 709.08002 719.91998 730.84003 740.78003 751.5 756.65997 768.17999 780.09998 791.71997 802.64001 812.76001 822.70001 833.85999 845.47998 856.64001 867.47998 872.64001 885.88 897.21997 913.12 924.03998 934.76001 944.70001 955.53998 966.26001 971.41998 983.34003 994.56 1006.48 1011.64 1024.88 1036.22 1052.12 1063.04 1071.4 1082.5601"
         y="-286.35999"
         id="tspan128">согласие Совета директоров Общества или Общего </tspan><tspan
         x="594 604.71997 615.88 627.21997 638.84003 649.56 661.47998 673.40002 683.78003 688.94 699.65997 709.78003 721.79999 733.71997 744.88 756.79999 767.71997 779.34003 790.5 801.34003 806.5 817.34003 822.5 833.21997 844.38 855.53998 865.47998 876.32001 887.23999 897.17999 907.90002 917.84003 928.67999 940.59998 952.52002 957.67999 968.40002 973.56 987.14001 998.06 1009.58 1020.5 1032.12 1042.84 1054.0601 1063.58 1075.5 1088.6801 1101.96"
         y="-259.76001"
         id="tspan130">собрания акционеров в соответствии с федеральным </tspan><tspan
         x="594 603.84003 614.56 624.67999 635.84003 647.76001 658.91998 672.20001 677.35999 689.41998 702.65997 714 719.15997 729.88 740 752.02002 763.94 775.09998 787.02002 797.94 809.56 821.47998 834.65997 845.02002 850.17999 861.34003 872.67999 888.58002 899.5 910.21997 920.15997 931 941.71997 952.08002 964.14001 969.29999 980.82001 991.97998 997.14001 1007.08 1018.7 1029.62 1040.96 1052.12 1062.96 1073.6801 1085.6 1097.52 1112.78"
         y="-233.16"
         id="tspan132">законом «Об акционерных обществах» по требованию </tspan><tspan
         x="594 604.91998 616.44 628.35999 640.28003 651.44 662.65997 674.58002 685.12 697.03998 708.20001 716.56 727.71997 732.88 744.79999 755.52002 767.03998 778.20001 789.41998 801.34003 813.26001 823.20001 834.12 845.34003 854.85999 866.78003 877.94 886.29999 897.46002 902.62 913.78003 925.40002 933.76001 944.47998 956.40002 967.12 971.85999 977.02002 987.56 998.78003 1009.7 1021.62 1032.34 1037.5 1051.5 1063.12 1073.84"
         y="-206.56"
         id="tspan134">единоличного исполнительного органа, члена Прав</tspan></text><text
       transform="matrix(1,0,0,-1,1777.68,749.236)"
       style="font-variant:normal;font-weight:300;font-stretch:normal;font-size:20px;font-family:'Rubik Light';-inkscape-font-specification:Rubik-Light;writing-mode:lr-tb;fill:#000000;fill-opacity:1;fill-rule:nonzero;stroke:none"
       id="text140"><tspan
         x="0"
         y="0"
         id="tspan138">-</tspan></text><text
       transform="matrix(1,0,0,-1,1287,722.636)"
       style="font-variant:normal;font-weight:300;font-stretch:normal;font-size:20px;font-family:'Rubik Light';-inkscape-font-specification:Rubik-Light;writing-mode:lr-tb;fill:#000000;fill-opacity:1;fill-rule:nonzero;stroke:none"
       id="text148"><tspan
         x="0 11.22 22.139999 34.060001 45.98 56.360001 61.52 74.760002 86.099998 102 112.92 123.64 133.58 144.42 155.14 159.88 165.03999 175.58 186.8 197.72 209.64 220.36 225.52 238.53999 249.7 260.54001 271.45999 281.39999 292.12 297.28 308.79999 320.72 332.34 343.26001 353.38 363.32001 374.48001 386.10001 397.26001 408.10001 413.26001 426.5 437.84 453.73999 464.66 475.38 485.32001 496.16 506.88"
         y="0"
         id="tspan142">ления Общества, члена Совета директоров Общества </tspan><tspan
         x="0 11.92 23.139999 35.060001 40.220001 50.939999 61.060001 73.080002 85 96.160004 108.08 119 130.62 141.34 146.5 152.88 163.60001 173.72 185.74001 197.66 208.82001 220.74001 231.66 243.28 254.44 265.28 271.66 276.39999 281.56 292.72 304.06 315.28 326 337.51999 348.23999 363.5 379.39999 390.32001 398.67999 409.84 415 426.92001 437.84 443 456.28 467.20001 479.12 490.04001 500.95999"
         y="26.6"
         id="tspan144">или акционера (акционеров), обладающего не менее </tspan><tspan
         x="0 10.54 21.459999 34.740002 39.900002 47.860001 53.02 59.400002 70.559998 82.080002 94 105.92 119.2 125.58 130.74001 142.25999 153.88 165.03999 177.06 187.98 199.89999 209.84 221 234.28 239.44 247.8 258.95999 270.17999 281.34 292.06 302.64001 317.89999 333.79999 345.72 356.07999 361.23999 371.95999 382.07999 394.10001 406.01999 417.94 423.10001 436.34 447.67999 463.57999 474.5 485.22 495.16 506 516.71997"
         y="53.200001"
         id="tspan146">чем 1 (одним) процентом голосующих акций Общества.</tspan></text><text
       transform="matrix(1,0,0,-1,1287,608.9282)"
       style="font-variant:normal;font-weight:500;font-stretch:normal;font-size:28px;font-family:'Rubik Medium';-inkscape-font-specification:Rubik-Medium;writing-mode:lr-tb;fill:#000000;fill-opacity:1;fill-rule:nonzero;stroke:none"
       id="text152"><tspan
         x="0 18.76 35.952 51.911999 69.019997 86.463997 107.884 124.04 130.452 146.44 164.024 180.17999 197.064 213.052"
         y="0"
         id="tspan150">Крупные сделки</tspan></text><text
       transform="matrix(1,0,0,-1,1287,569.3322)"
       style="font-variant:normal;font-weight:300;font-stretch:normal;font-size:20px;font-family:'Rubik Light';-inkscape-font-specification:Rubik-Light;writing-mode:lr-tb;fill:#000000;fill-opacity:1;fill-rule:nonzero;stroke:none"
       id="text158"><tspan
         x="0 13.06 18.219999 29.379999 39.32 49.860001 60.779999 70.720001 82.639999 93.800003 107.08 112.24 123.76 134.67999 146.3 158.22 169.38 180.89999 191.82001 196.98 207.10001 218.72 229.3 240.82001 252.74001 265.92001 276.28 281.44 292.16 303.67999 314.60001 325.82001 336.98001 347.10001 352.26001 365.5 376.84 392.73999 403.66 414.38 424.32001 435.16 446.32001 459.60001"
         y="0"
         id="tspan154">В отчетном периоде крупных сделок Обществом </tspan><tspan
         x="0 11.92 22.84 28 38.720001 49.880001 60.720001 71.639999 83.260002 98.639999 109.36 120.58 131.74001 142.46001 151.98"
         y="26.6"
         id="tspan156">не совершалось.</tspan></text><text
       transform="matrix(1,0,0,-1,99,465.6922)"
       style="font-variant:normal;font-weight:500;font-stretch:normal;font-size:20px;font-family:'Rubik Medium';-inkscape-font-specification:Rubik-Medium;writing-mode:lr-tb;fill:#000000;fill-opacity:1;fill-rule:nonzero;stroke:none"
       id="text162"><tspan
         x="0 13.72 18.299999 30.68 43.82 56.200001 69.339996 73.919998 82.82 94.660004 107.22 118.62 123.2 135.14 150.44 162.5 173.92 178.5 189.2 200.62 212.03999 224.10001 240.78 252.34 263.88 276.34 287.76001 292.34 304.17999 316.73999 329.20001 340.62 345.20001 356.62 369.17999 380.72 392.78 404.20001 415.62 420.89999 425.48001 437.14001 441.72 453.14001 464.98001 476.64001 488.17999 500.45999 516.64001 528.17999 540.64001 553.09998 565.56 570.14001 581.56 593.40002 604 615.84003 628.12 639.96002 652.41998 657 669.46002 683.52002 695.06 707.12 718.53998 729.96002 740.56 745.14001 755.84003 767.26001 779.71997 792.17999 802.78003 814.32001 826.59998 838.14001 849.56 861.40002 873.06 884.47998 896.94 909.40002 921.23999 932.65997 943.26001 953.85999"
         y="0"
         id="tspan160">В 2020 году была заключена одна сделка, в совершении которой имелась заинтересованность:</tspan></text><g
       id="g164"
       transform="translate(99,384.8681)"><path
         d="M 0,0 H 217"
         style="fill:none;stroke:#e6e7e8;stroke-width:1;stroke-linecap:butt;stroke-linejoin:miter;stroke-miterlimit:10;stroke-dasharray:none;stroke-opacity:1"
         id="path166" /></g><g
       id="g168"
       transform="translate(316,384.8681)"><path
         d="M 0,0 H 632"
         style="fill:none;stroke:#e6e7e8;stroke-width:1;stroke-linecap:butt;stroke-linejoin:miter;stroke-miterlimit:10;stroke-dasharray:none;stroke-opacity:1"
         id="path170" /></g><g
       id="g172"
       transform="translate(948,384.8681)"><path
         d="M 0,0 H 510.75"
         style="fill:none;stroke:#e6e7e8;stroke-width:1;stroke-linecap:butt;stroke-linejoin:miter;stroke-miterlimit:10;stroke-dasharray:none;stroke-opacity:1"
         id="path174" /></g><g
       id="g176"
       transform="translate(1458.75,384.8681)"><path
         d="M 0,0 H 363"
         style="fill:none;stroke:#e6e7e8;stroke-width:1;stroke-linecap:butt;stroke-linejoin:miter;stroke-miterlimit:10;stroke-dasharray:none;stroke-opacity:1"
         id="path178" /></g><text
       transform="matrix(1,0,0,-1,99,418.8681)"
       style="font-variant:normal;font-weight:500;font-stretch:normal;font-size:18px;font-family:'Rubik Medium';-inkscape-font-specification:Rubik-Medium;writing-mode:lr-tb;fill:#000000;fill-opacity:1;fill-rule:nonzero;stroke:none"
       id="text182"><tspan
         x="0 12.348 23.562"
         y="0"
         id="tspan180">Вид</tspan></text><text
       transform="matrix(1,0,0,-1,99,392.8761)"
       style="font-variant:normal;font-weight:500;font-stretch:normal;font-size:18px;font-family:'Rubik Medium';-inkscape-font-specification:Rubik-Medium;writing-mode:lr-tb;fill:#000000;fill-opacity:1;fill-rule:nonzero;stroke:none"
       id="text188"><tspan
         x="0 10.278 21.582001 31.968 42.821999 53.099998"
         y="0"
         id="tspan184">сделки</tspan><tspan
         x="217.008 229.32001 239.58 254.592 264.978 275.25601 284.79599 295.29001 305.67599 316.89001 328.104 341.87399"
         y="-25.992001"
         id="tspan186">Существенные</tspan></text><text
       transform="matrix(1,0,0,-1,316.008,392.8761)"
       style="font-variant:normal;font-weight:500;font-stretch:normal;font-size:18px;font-family:'Rubik Medium';-inkscape-font-specification:Rubik-Medium;writing-mode:lr-tb;fill:#000000;fill-opacity:1;fill-rule:nonzero;stroke:none"
       id="text196"><tspan
         x="0 10.26 20.538 31.392 42.048 52.542 63.756001 74.087997 78.209999 88.487999 99.792 110.178 121.032 131.31"
         y="0"
         id="tspan190">условия сделки</tspan><tspan
         x="631.99799 645.21002 656.42401 667.89001 678.54602 683.29797 687.41998 698.63397 711.28802 721.67401 736.68597 751.698 762.08398 772.46997 776.59198 786.22198 796.5 807.71399 818.92798 828.46802 838.854 849.90601 860.29199 870.57001 881.22601 891.71997 901.99799 913.21198 924.42603 935.08197 945.35999 954.90002 964.44"
         y="-25.992001"
         id="tspan192">Лицо, имеющее заинтересованность </tspan><tspan
         x="631.99799 642.492 646.61401 656.89203 667.54797 678.04199 688.42798 699.47998 714.04199 724.42798 735.64203 746.85602 758.07001 762.19202 772.46997 783.77399 794.15997 805.01398 815.29199"
         y="0"
         id="tspan194">в совершении сделки</tspan></text><text
       transform="matrix(1,0,0,-1,1142.5055,398.8621)"
       style="font-variant:normal;font-weight:500;font-stretch:normal;font-size:10.494px;font-family:'Rubik Medium';-inkscape-font-specification:Rubik-Medium;writing-mode:lr-tb;fill:#000000;fill-opacity:1;fill-rule:nonzero;stroke:none"
       id="text200"><tspan
         x="0"
         y="0"
         id="tspan198">1</tspan></text><text
       transform="matrix(1,0,0,-1,1458.75,418.8681)"
       style="font-variant:normal;font-weight:500;font-stretch:normal;font-size:18px;font-family:'Rubik Medium';-inkscape-font-specification:Rubik-Medium;writing-mode:lr-tb;fill:#000000;fill-opacity:1;fill-rule:nonzero;stroke:none"
       id="text206"><tspan
         x="0 12.51 23.562 31.572001 41.849998 53.063999 57.186001 67.445999 78.444 89.496002 99.774002 110.268 121.122 131.508 142.722 153.936 164.26801 169.02 173.142 184.14 195.192 206.40601 217.62 227.952 238.446 253.008 264.22198 275.436 279.55801 290.60999 300.996 315.55801 325.944 337.15799 348.37201 358.758"
         y="0"
         id="tspan202">Орган управления, принявший решение </tspan><tspan
         x="0 10.656 14.778 25.056 35.712002 43.722 54.576 64.853996 75.132004 86.346001 97.559998 101.682 112.896 123.174 127.296 137.57401 148.23 158.724 169.11 180.162 194.724 205.11 216.32401 227.53799 237.924 242.04601 252.32401 263.62799 274.01401 284.86801 295.146"
         y="25.992001"
         id="tspan204">о согласии на совершение сделки</tspan></text><text
       transform="matrix(1,0,0,-1,98.994,359.0541)"
       style="font-variant:normal;font-weight:300;font-stretch:normal;font-size:18px;font-family:'Rubik Light';-inkscape-font-specification:Rubik-Light;writing-mode:lr-tb;fill:#000000;fill-opacity:1;fill-rule:nonzero;stroke:none"
       id="text214"><tspan
         x="0 12.168 22.212 29.736 39.779999 49.535999 59.580002 70.038002"
         y="0"
         id="tspan208">Договор </tspan><tspan
         x="0 10.044 14.688 25.056 35.514 45.341999 55.709999 65.753998 75.402 84.348 93.996002 103.752 113.85 123.678 134.40601 145.134 155.862"
         y="25.992001"
         id="tspan210">о предоставлении </tspan><tspan
         x="0 8.8559999 18.504 29.232 41.183998 51.228001"
         y="51.984001"
         id="tspan212">займов</tspan></text><text
       transform="matrix(1,0,0,-1,316.002,359.0721)"
       style="font-variant:normal;font-weight:500;font-stretch:normal;font-size:18px;font-family:'Rubik Medium';-inkscape-font-specification:Rubik-Medium;writing-mode:lr-tb;fill:#000000;fill-opacity:1;fill-rule:nonzero;stroke:none"
       id="text218"><tspan
         x="0 12.312 21.851999 32.507999 43.560001 54.216 65.43 79.199997 83.321999 89.82 100.314 114.084 122.094 132.75 144.054 154.71001 165.70799 176.75999 187.974 198.63 209.37601 220.42799 230.814 240.354 250.632 260.172 270.55801 281.41199 292.62601 299.12399 303.246 313.52399 324.828 335.21399 346.06799 356.34601 367.56"
         y="0"
         id="tspan216">Стороны (выгодоприобретатели) сделки:</tspan></text><text
       transform="matrix(1,0,0,-1,693.138,359.0721)"
       style="font-variant:normal;font-weight:300;font-stretch:normal;font-size:18px;font-family:'Rubik Light';-inkscape-font-specification:Rubik-Light;writing-mode:lr-tb;fill:#000000;fill-opacity:1;fill-rule:nonzero;stroke:none"
       id="text224"><tspan
         x="0 12.6 24.299999 36.216 40.860001 51.714001 64.314003 73.403999 84.456001 95.309998 99.954002 105.696 116.478 126.126 136.854 148.806 158.85001 169.218 178.866 188.62199 198.45 209.26801 215.00999 219.276"
         y="0"
         id="tspan220">ПАО «ПГК» (Займодавец), </tspan><tspan
         x="-377.13599 -365.22 -353.30399 -341.388 -336.74399 -325.89001 -315.108 -303.354 -292.04999 -280.99799 -270.14401 -265.5 -259.758 -248.976 -239.328 -229.5 -217.548 -203.23801 -192.50999 -183.40199 -177.66"
         y="25.992001"
         id="tspan222">ООО «ЗВРК» (Заемщик).</tspan></text><text
       transform="matrix(1,0,0,-1,316.002,307.0881)"
       style="font-variant:normal;font-weight:500;font-stretch:normal;font-size:18px;font-family:'Rubik Medium';-inkscape-font-specification:Rubik-Medium;writing-mode:lr-tb;fill:#000000;fill-opacity:1;fill-rule:nonzero;stroke:none"
       id="text228"><tspan
         x="0 13.122 24.174 34.560001 45.863998 58.518002 68.903999 78.444 82.566002 92.844002 104.148 114.534 125.388 135.666 146.88 151.812"
         y="0"
         id="tspan226">Предмет сделки: </tspan></text><text
       transform="matrix(1,0,0,-1,471.936,307.0881)"
       style="font-variant:normal;font-weight:300;font-stretch:normal;font-size:18px;font-family:'Rubik Light';-inkscape-font-specification:Rubik-Light;writing-mode:lr-tb;fill:#000000;fill-opacity:1;fill-rule:nonzero;stroke:none"
       id="text236"><tspan
         x="0 10.782 20.43 31.158001 43.110001 53.153999 63.521999 73.169998 82.926003 92.753998 103.572 108.216 118.26 128.466 137.808 146.664 156.186 166.01401 174.96001 184.608 193.95 198.59399 208.96201 219.42 229.248 239.616 249.66 259.30801 268.254 277.90201 287.65799 298.38599 307.332 315.89999 320.54401 331.32599 340.974 350.802 362.754 377.064 387.79199 396.89999 406.422"
         y="0"
         id="tspan230">Займодавец обязуется предоставить Заемщику </tspan><tspan
         x="-155.93401 -147.078 -137.42999 -127.602 -115.65 -107.388 -98.531998 -88.884003 -78.155998 -66.204002 -54.341999 -50.076 -45.431999 -35.784 -31.139999 -20.358 -10.71 -0.88200003 11.07 25.379999 36.108002 45.216 49.860001 59.903999 70.110001 79.452003 88.307999 97.830002 107.658 116.604 126.252 135.59399 140.23801 149.994 159.82201 170.28 181.008 190.53 199.476 208.04401 212.688 221.54401 231.192 241.02 252.972 261.23401 270.09 279.73801 290.466 302.418 314.28 318.92401 328.67999 333.32401 343.69199 353.73599 364.194 373.53601 383.90399 393.01199 402.84"
         y="25.992001"
         id="tspan232">заем/займы, а Заемщик обязуется вернуть заем/займы в порядке </tspan><tspan
         x="-155.93401 -145.20599 -140.562 -129.834 -120.186 -115.542 -106.02 -96.372002 -86.274002 -76.230003 -66.473999 -55.745998 -46.403999 -37.080002 -32.813999 -28.17 -18.648001 -9 -0.054000001 9.5939999 20.322001 30.365999 40.122002 50.220001 60.048 70.776001 81.503998 93.365997 102.69 107.334 117.702 127.746 135.27 145.314 155.07001 165.114 175.57201 185.616 197.56799"
         y="51.984001"
         id="tspan234">и на условиях, установленных договором.</tspan></text><text
       transform="matrix(1,0,0,-1,316.002,229.1121)"
       style="font-variant:normal;font-weight:500;font-stretch:normal;font-size:18px;font-family:'Rubik Medium';-inkscape-font-specification:Rubik-Medium;writing-mode:lr-tb;fill:#000000;fill-opacity:1;fill-rule:nonzero;stroke:none"
       id="text240"><tspan
         x="0 13.122 24.174 34.830002 46.296001 56.681999 67.896004 77.435997 88.650002 98.928001 109.26 113.382 123.66 133.2 143.478 153.972 164.25 174.528"
         y="0"
         id="tspan238">Процентная ставка:</tspan></text><text
       transform="matrix(1,0,0,-1,500.106,229.1121)"
       style="font-variant:normal;font-weight:300;font-stretch:normal;font-size:18px;font-family:'Rubik Light';-inkscape-font-specification:Rubik-Light;writing-mode:lr-tb;fill:#000000;fill-opacity:1;fill-rule:nonzero;stroke:none"
       id="text244"><tspan
         x="0 11.088 24.426001 29.07 36.594002 46.638 57.006001 67.050003 76.806 88.667999 97.991997"
         y="0"
         id="tspan242">0% годовых.</tspan></text><text
       transform="matrix(1,0,0,-1,316.002,203.1201)"
       style="font-variant:normal;font-weight:500;font-stretch:normal;font-size:18px;font-family:'Rubik Medium';-inkscape-font-specification:Rubik-Medium;writing-mode:lr-tb;fill:#000000;fill-opacity:1;fill-rule:nonzero;stroke:none"
       id="text248"><tspan
         x="0 12.312 22.968 33.462002 44.118 54.396 64.655998 75.653999 86.867996 97.146004 107.478 111.6 121.878 132.138 144.79201 157.446 167.724 171.84599 181.476 191.754 202.968 215.62199 226.278 236.772"
         y="0"
         id="tspan246">Совокупная сумма займов:</tspan></text><text
       transform="matrix(1,0,0,-1,562.35,203.1201)"
       style="font-variant:normal;font-weight:300;font-stretch:normal;font-size:18px;font-family:'Rubik Light';-inkscape-font-specification:Rubik-Light;writing-mode:lr-tb;fill:#000000;fill-opacity:1;fill-rule:nonzero;stroke:none"
       id="text252"><tspan
         x="0 10.728 20.556 25.200001 35.405998 45.450001 55.548 65.375999 75.204002 79.848 90.557999 100.638 111.006 115.65 127.602 137.7 148.42799 153.07201 163.53 173.052 183.258"
         y="0"
         id="tspan250">не более 423 млн руб.</tspan></text><text
       transform="matrix(1,0,0,-1,316.002,177.1281)"
       style="font-variant:normal;font-weight:500;font-stretch:normal;font-size:18px;font-family:'Rubik Medium';-inkscape-font-specification:Rubik-Medium;writing-mode:lr-tb;fill:#000000;fill-opacity:1;fill-rule:nonzero;stroke:none"
       id="text256"><tspan
         x="0 12.312 23.364 34.02 44.298 48.419998 58.914001 69.57 79.199997 89.694 100.746 111.024 120.564 130.842"
         y="0"
         id="tspan254">Срок возврата:</tspan></text><text
       transform="matrix(1,0,0,-1,456.42,177.1281)"
       style="font-variant:normal;font-weight:300;font-stretch:normal;font-size:18px;font-family:'Rubik Light';-inkscape-font-specification:Rubik-Light;writing-mode:lr-tb;fill:#000000;fill-opacity:1;fill-rule:nonzero;stroke:none"
       id="text260"><tspan
         x="0 10.728 20.556 25.200001 35.568001 45.612 54.467999 64.835999 75.564003 85.391998 95.220001 99.863998 109.8702 117.0342 120.0942 127.2582 137.3382 141.62219 151.70219 162.79021 172.87019 181.9062"
         y="0"
         id="tspan258">не позднее 31.12.2029.</tspan></text><text
       transform="matrix(1,0,0,-1,948,359.1261)"
       style="font-variant:normal;font-weight:500;font-stretch:normal;font-size:18px;font-family:'Rubik Medium';-inkscape-font-specification:Rubik-Medium;writing-mode:lr-tb;fill:#000000;fill-opacity:1;fill-rule:nonzero;stroke:none"
       id="text264"><tspan
         x="0 12.168 23.021999 33.408001 44.622002 48.743999 61.056 71.711998 82.206001 92.592003 102.132 112.41 116.532 127.836 139.05 150.10201 160.48801 170.76601 180.306 190.96201 202.01401 212.67 223.164 227.286 240.498 251.71201 261.98999 273.20401 284.418 288.54001 300.888 305.71201 318.02399"
         y="0"
         id="tspan262">Член Совета директоров Лисин В.С.</tspan></text><text
       transform="matrix(1,0,0,-1,948,333.1341)"
       style="font-variant:normal;font-weight:300;font-stretch:normal;font-size:18px;font-family:'Rubik Light';-inkscape-font-specification:Rubik-Light;writing-mode:lr-tb;fill:#000000;fill-opacity:1;fill-rule:nonzero;stroke:none"
       id="text276"><tspan
         x="0 11.916 21.563999 32.292 42.335999 52.091999 61.740002 72.468002 83.195999 92.538002 97.181999 106.038 115.686 126.414 137.142 146.088 155.916 166.37399 176.202 185.85001 195.894 205.64999 215.298 226.026 236.754 246.798 256.44601 265.392 276.12 280.76401 291.492 301.32001 305.96399 316.332 326.79001 337.51801 347.27399 357.31799 367.686 377.02802 385.974 395.62201 404.96399 409.608 419.36401 424.008 433.65601 444.384 454.48199 464.004"
         y="0"
         id="tspan266">Основания заинтересованности не приводятся в силу </tspan><tspan
         x="0 10.368 14.652 19.296 28.062 38.807999 43.091999 53.459999 58.104 70.704002 80.748001 90.846001 100.89 114.372 124.2 134.92799 145.65601 154.998 159.642 171.01801 180.666 191.394 200.502 210.14999 214.79401 226.09801 236.142 245.78999 255.438 266.16599 276.89401 281.53799 291.582 300.52802 305.172 315.54001 326.28241 329.34241 336.50641 346.5864 350.87039 360.95041 372.03839 379.20239 389.91241 394.5564 414.87839 419.5224 430.23239 440.52841 451.2384 460.00439 472.6044"
         y="25.992001"
         id="tspan268">п. 70.3 Положения Банка России от 30.12.2014 № 454-П </tspan><tspan
         x="0 10.854 22.77 27.414 37.872002 47.52 57.167999 66.276001 76.734001 88.596001 97.542 108.27 118.998 123.642 134.37 145.09801 157.32001 167.364 177.82201 189.774 199.422 210.24001 220.968 231.696 236.34 245.98801 257.94 268.668 277.61401 287.44199 298.17001 307.116 316.76401 328.716 339.444 344.08801 353.73599 365.68799 376.41599 386.064 395.71201 406.44 416.48401 427.21201 437.94 449.802 459.12601"
         y="51.984001"
         id="tspan270">«О раскрытии информации эмитентами эмиссионных </tspan><tspan
         x="0 10.818 20.646 31.374001 42.102001 53.964001 63.287998 67.931999 78.138 87.660004 99.612 109.26 116.784 127.638 131.976 136.62 147.078 156.726 165.582 177.534 187.362 197.82001 202.464 212.112 222.48 232.308 242.40601 251.51401 262.242 266.88599 276.534 286.578 296.22601 305.172 314.82001 324.57599 334.67401 344.01599 353.84399 362.79001 367.43399 378.17459 382.0986 392.80859 406.14661"
         y="77.975998"
         id="tspan272">ценных бумаг»: размер сделки составляет 0,4% </tspan><tspan
         x="0 10.044 18.99 23.634001 33.389999 43.037998 53.136002 66.870003 75.816002 87.678001 92.321999 102.528 112.176 122.274 131.922 142.64999 152.298"
         y="103.968"
         id="tspan274">от валюты баланса</tspan></text><text
       transform="matrix(1,0,0,-1,948,203.3661)"
       style="font-variant:normal;font-weight:300;font-stretch:normal;font-size:9.328px;font-family:'Rubik Light';-inkscape-font-specification:Rubik-Light;writing-mode:lr-tb;fill:#000000;fill-opacity:1;fill-rule:nonzero;stroke:none"
       id="text280"><tspan
         x="0"
         y="0"
         id="tspan278">1</tspan></text><text
       transform="matrix(1,0,0,-1,951.7125,198.0381)"
       style="font-variant:normal;font-weight:300;font-stretch:normal;font-size:16px;font-family:'Rubik Light';-inkscape-font-specification:Rubik-Light;writing-mode:lr-tb;fill:#000000;fill-opacity:1;fill-rule:nonzero;stroke:none"
       id="text286"><tspan
         x="0 10.88 20.416 30.032 38.959999 43.088001 52.304001 61.599998 71.136002 79.008003 88.543999 97.120003 105.856 113.808 122.384 130.688 134.81599 142.688 151.26401 160.8 170.336 178.28799 187.024 196.32001 205.056 213.632 222.56 231.23199 239.808 249.34399 258.88 269.42401 280.048"
         y="0"
         id="tspan282">Лицо признается заинтересованным </tspan><tspan
         x="-3.7119999 5.8239999 14.4 18.528 27.743999 36.32 44.271999 52.736 56.863998 65.440002 74.367996 83.040001 91.776001 101.072 113.376 122.112 131.64799 141.18401 149.48801 153.616 162.192 171.408 180.144 189.12 197.216 206.752"
         y="20"
         id="tspan284">на дату совершения сделки.</tspan></text><text
       transform="matrix(1,0,0,-1,1458.75,359.0381)"
       style="font-variant:normal;font-weight:500;font-stretch:normal;font-size:18px;font-family:'Rubik Medium';-inkscape-font-specification:Rubik-Medium;writing-mode:lr-tb;fill:#000000;fill-opacity:1;fill-rule:nonzero;stroke:none"
       id="text290"><tspan
         x="0 12.312 22.968 33.462002 43.848 53.388 57.509998 68.814003 80.028 91.080002 101.466 111.744 121.284 131.94 142.992 153.64799"
         y="0"
         id="tspan288">Совет директоров</tspan></text><text
       transform="matrix(1,0,0,-1,1458.75,333.0461)"
       style="font-variant:normal;font-weight:300;font-stretch:normal;font-size:18px;font-family:'Rubik Light';-inkscape-font-specification:Rubik-Light;writing-mode:lr-tb;fill:#000000;fill-opacity:1;fill-rule:nonzero;stroke:none"
       id="text294"><tspan
         x="0 5.7420001 16.110001 26.568001 36.612 45.557999 55.602001 64.709999 74.753998 84.851997 89.496002 99.540001 108.486 113.13 123.21 133.95419 137.01421 144.17821 151.34219 155.62621 165.70621 176.7942 186.87421 197.9622 202.6062 222.92821 227.5722 234.73621 245.8242 255.6702"
         y="0"
         id="tspan292">(протокол от 20.11.2020 № 106)</tspan></text><text
       transform="matrix(1,0,0,-1,99,100)"
       style="font-variant:normal;font-weight:300;font-stretch:normal;font-size:20px;font-family:'Rubik Light';-inkscape-font-specification:Rubik-Light;writing-mode:lr-tb;fill:#000000;fill-opacity:1;fill-rule:nonzero;stroke:none"
       id="text300"><tspan
         x="0 13.24 23.18 33.720001 44.639999 54.580002 59.740002 70.900002 76.059998 85.900002 96.620003 106.74 117.96 133.22 143.75999 154.67999 166.60001 178.52 191.7 202.06 207.22 221.22 231.32001 243.60001 248.75999 259.60001 264.76001 275.95999 288.28 299.48001 311.79999 316.95999 325.32001 336.48001 348 358.57999 363.73999 374.45999 385.98001 396.89999 408.12 418.23999 428.95999 439.32001 444.06 449.22 460.06 465.22 475.94 487.10001 497.94 508.85999 520.47998 535.85999 546.78003 558.70001 570.62 582.53998 587.70001 597.82001 608.97998 618.91998 630.08002 641.70001 654.88 665.23999 670.40002 682.32001 695.59998 706.52002 717.44 727.38 738.09998 748.47998 753.64001 763.47998 774.20001 786.12 798.03998 807.97998 818.90002 830.52002 841.44 852.15997 863.32001 874.15997 884.88 896.79999 908.71997 919.88 930.59998 940.53998 950.06 954.79999 959.96002 970.53998 980.47998 991.32001 1002.24 1013.86 1028.8199 1040.34 1051.26 1063.1801 1068.34 1081.36 1092.52 1103.36 1114.28 1124.22 1135.38 1148.66 1153.8199 1165.34 1177.26 1188.88 1199.8 1209.92 1219.86 1231.02 1242.64 1253.8 1264.64 1269.8 1281 1292.4399 1297.6 1310.88 1321.6 1333.22 1343.16 1353.88 1359.04 1370.24 1382.5601 1393.76 1401.72 1406.88 1415.24 1426.4 1437.92 1448.64 1453.8 1460.1801 1471.7 1483.3199 1494.48 1504.42 1515.58 1525.7 1536.86 1548.08 1553.24 1575.8199 1583.78 1591.74 1603.46"
         y="0"
         id="tspan296">Отчет о заключенных ПГК в 2020 году сделках, в совершении которых имеется заинтересованность, утвержден Советом директоров 29 марта 2021 года (протокол №110)</tspan><tspan
         x="-65.800003 -57.84 -45.52 0 14 25.620001 37.540001 48.759998 59.919998 74.900002 85.82 97.739998 109.66"
         y="-923"
         id="tspan298">100Приложения</tspan></text></g></svg>
