<?xml version="1.0" encoding="UTF-8" standalone="no"?>
<?xml-stylesheet type="text/css" href="main.css" ?>
<svg
   xmlns:dc="http://purl.org/dc/elements/1.1/"
   xmlns:cc="http://creativecommons.org/ns#"
   xmlns:rdf="http://www.w3.org/1999/02/22-rdf-syntax-ns#"
   xmlns:svg="http://www.w3.org/2000/svg"
   xmlns="http://www.w3.org/2000/svg"
   version="1.1"
   id="svg2"
   xml:space="preserve"
   width="2560"
   height="1440"
   viewBox="0 0 2560 1440"><metadata
     id="metadata8"><rdf:RDF><cc:Work
         rdf:about=""><dc:format>image/svg+xml</dc:format><dc:type
           rdf:resource="http://purl.org/dc/dcmitype/StillImage" /></cc:Work></rdf:RDF></metadata><defs
     id="defs6"><clipPath
       clipPathUnits="userSpaceOnUse"
       id="clipPath20"><path
         d="M 0,1080 H 1920 V 0 H 0 Z"
         id="path18" /></clipPath><clipPath
       clipPathUnits="userSpaceOnUse"
       id="clipPath116"><path
         d="M 0,1080 H 1920 V 0 H 0 Z"
         id="path114" /></clipPath></defs><g
     id="g10"
     transform="matrix(1.3333333,0,0,-1.3333333,0,1440)"><g
       id="g12"><g
         id="g14"><g
           id="g16"
           clip-path="url(#clipPath20)"><path
             d="M 0,0 H 1920 V 1080 H 0 Z"
             style="fill:#ffffff;fill-opacity:1;fill-rule:nonzero;stroke:none"
             id="path22" /></g></g></g><text
       transform="matrix(1,0,0,-1,99,953.4)"
       style="font-variant:normal;font-weight:normal;font-stretch:normal;font-size:38px;font-family:'Prosto One';-inkscape-font-specification:ProstoOne-Regular;writing-mode:lr-tb;fill:#000000;fill-opacity:1;fill-rule:nonzero;stroke:none"
       id="text26"><tspan
         x="0 25.08 56.619999 90.82 120.84 150.86 182.02 212.03999 244.72"
         y="0"
         id="tspan24">ГЛОССАРИЙ</tspan></text><text
       transform="matrix(1,0,0,-1,99,881.3)"
       style="font-variant:normal;font-weight:500;font-stretch:normal;font-size:20px;font-family:'Rubik Medium';-inkscape-font-specification:Rubik-Medium;writing-mode:lr-tb;fill:#000000;fill-opacity:1;fill-rule:nonzero;stroke:none"
       id="text30"><tspan
         x="0 14.6 26.879999 38.740002 51.220001 61.939999 73.639999 85.5 98.080002 110.56 121.18 132.638 144.718 155.338 167.81799 179.67799 191.118 201.73801 212.358 216.918 228.618 240.058 248.79601 260.65601 273.13599"
         y="0"
         id="tspan28">Производительность вагона</tspan></text><text
       transform="matrix(1,0,0,-1,388.736,881.3)"
       style="font-variant:normal;font-weight:300;font-stretch:normal;font-size:20px;font-family:'Rubik Light';-inkscape-font-specification:Rubik-Light;writing-mode:lr-tb;fill:#000000;fill-opacity:1;fill-rule:nonzero;stroke:none"
       id="text54"><tspan
         x="0 15.34 20.5 32.02 43.18 53.299999 64.019997 73.860001 84.580002 94.519997 105.36 116.58 126.1 130.84"
         y="0"
         id="tspan32">— показатель, </tspan><tspan
         x="-289.73599 -279.37601 -268.65601 -257.03601 -246.31599 -236.196 -226.256 -215.336 -203.716 -191.79601 -181.95599 -171.37601 -156.116 -140.216 -128.29601 -116.376 -111.216 -99.295998 -88.575996 -77.056 -66.098 -54.877998 -45.358002 -35.518002 -24.358 -13.518 -2.7980001 9.1219997 21.042 31.962 37.122002 47.962002 58.681999 66.800003 77.959999 89.879997 100.6 105.76 116.6 121.76 133.28 144.89999 156.06 168.08 179 189.72 200.44 211.36"
         y="26"
         id="tspan34">характеризующий использование вагона в процессе </tspan><tspan
         x="-289.73599 -278.216 -267.29599 -255.67599 -244.756 -233.916 -222.756 -212.916 -202.79601 -190.87601 -185.716 -177.356 -166.118 -155.53799 -145.698 -134.53799 -123.698 -118.958 -113.798 -101.878 -91.157997 -80.617996 -68.697998 -57.978001 -46.757999 -36.377998 -25.458 -15.518 -4.7979999 5.5819998 10.742 21.582001 26.742001 36.681999 47.841999 59.762001 71.681999 82.842003 92.582001 102.702 114.622 125.842 137.002 150.282 161.202 171.142 182.76199 193.48199 203.842 208.582"
         y="52"
         id="tspan36">перевозки грузов, исчисляется в тонно-километрах, </tspan><tspan
         x="-289.73599 -278.896 -265.716 -254.196 -243.23599 -232.01601 -220.09599 -209.17599 -197.256 -185.336 -172.15601 -161.79601 -156.636 -145.79601 -135.076 -126.958 -115.798 -103.878 -92.718002 -79.438004 -74.278 -62.658001 -51.938 -40.598 -29.438 -18.898001 -7.9780002 0.14 11.3 16.459999 27.98 38.700001 50.32 60.439999 71.160004 76.32 86.160004 96.879997 102.04 112.76 123.34 133.28 143.39999 155.32001"
         y="78"
         id="tspan38">выполненных вагоном рабочего парка за сутки.</tspan><tspan
         x="-289.73599 -275.73599 -264.116 -252.95599 -242.23599 -232.29601 -220.67599 -209.95599 -198.036 -187.31599 -177.37601 -166.536 -155.37601 -150.216 -142.256 -130.81599 -119.616 -107.296 -102.136 -86.795998 -81.636002 -70.916 -59.756001 -48.596001 -37.256001 -21.356001 -10.436 0.28400001 10.224 21.063999 32.223999 37.383999 48.104 58.043999 69.664001 80.384003 92.304001 97.043999 102.204 113.044 123.164 134.384 149.644 160.18401 170.90401 186.164 202.064 212.98399 223.90401"
         y="130"
         id="tspan40">Пространство 1520 — сообщество стран, включающее </tspan><tspan
         x="-289.73599 -276.716 -265.556 -254.036 -242.79601 -232.216 -217.23599 -206.31599 -195.59599 -185.65601 -174.81599 -163.65601 -158.496 -144.496 -133.576 -123.736 -113.016 -102.176 -90.255997 -79.536003 -67.615997 -54.335999 -41.155998 -30.796 -25.636 -18.16 -7 3.72 14.3 25.82 36.540001 48.16 58.880001 68.82 79.660004 84.400002 89.559998 100.28 110.22 121.84 132.56 144.48 157.66"
         y="156"
         id="tspan42">Содружество Независимых Государств, страны </tspan><tspan
         x="-289.73599 -277.09601 -266.37601 -255.15601 -245.216 -233.29601 -221.37601 -216.636 -211.476 -195.87601 -184.716 -172.79601 -164.67799 -153.716 -142.496 -130.576 -115.316 -110.156 -98.236 -93.075996 -76.575996 -64.655998 -52.736 -41.515999 -31.136 -19.216 -7.6960001 4.224 19.24 23.98 29.139999 37.5 49.02 59.939999 65.099998 76.260002 86.980003 98.900002 110.06 120.9 132.82001 143.98 154.89999"
         y="182"
         id="tspan44">Балтии, Монголию и Финляндию, где основное </tspan><tspan
         x="-289.73599 -274.75601 -263.91599 -252.696 -241.776 -231.936 -220.01601 -208.856 -197.336 -186.17599 -174.556 -163.396 -148.416 -136.496 -125.336 -114.416 -109.256 -98.536003 -87.375999 -76.216003 -64.875999 -48.976002 -38.056 -26.136 -14.216 -3.296 1.864 13.024 23.743999 34.324001 50.223999 61.144001 71.863998 81.804001 92.643997 103.864 114.244 125.164 135.104 145.82401 156.20399 161.364 172.884 184.04401 189.20399 198.81799 209.778 220.998 231.918 242.838"
         y="208"
         id="tspan46">железнодорожное сообщение осуществляется по колее </tspan><tspan
         x="-289.73599 -278.116 -267.396 -257.556 -244.276 -233.356 -221.73599 -210.576 -197.29601 -192.136 -184.17599 -172.73599 -161.536 -149.216 -144.056 -138.478 -126.558 -115.338 -103.418 -98.258003 -90.297997 -78.858002 -67.898003 -56.518002 -50.138 -44.978001 -31.698 -18.417999 -13.658 -8.4980001 3.1800001 14.14 25.360001 36.279999 46.66 51.82 59.779999 71.220001 82.419998 94.739998 99.900002 113.18 126.46 131.62 142 152.84 164.06 174.44 185.36 195.3 206.02 216.39999"
         y="234"
         id="tspan48">размером 1520 (или 1524) мм. Колея 1520 мм является </tspan><tspan
         x="-289.73599 -278.896 -268.95599 -257.79599 -246.17599 -235.01601 -223.09599 -217.936 -207.09599 -201.936 -188.65601 -176.73599 -165.116 -154.196 -149.036 -137.51601 -126.356 -121.196 -110.476 -99.896004 -86.615997 -73.335999 -62.616001 -50.995998 -39.076 -27.916 -15.996 -10.836 0.68400002 11.904 23.823999 35.743999 46.664001 51.824001 63.344002 74.963997 85.919998 97.139999 108.3 123.28 134.2 146.12 158.03999 171.22 181.58"
         y="260"
         id="tspan50">второй в мире по суммарной длине проложенных </tspan><tspan
         x="-289.73599 -278.216 -267.63599 -257.69601 -246.776 -234.856 -229.696 -214.356 -209.196 -201.23599 -189.79601 -177.476 -172.31599 -159.996 -147.67599 -135.356 -130.196 -120.076 -106.796"
         y="286"
         id="tspan52">путей — 150 000 км.</tspan></text><text
       transform="matrix(1,0,0,-1,99,543.3)"
       style="font-variant:normal;font-weight:500;font-stretch:normal;font-size:20px;font-family:'Rubik Medium';-inkscape-font-specification:Rubik-Medium;writing-mode:lr-tb;fill:#000000;fill-opacity:1;fill-rule:nonzero;stroke:none"
       id="text58"><tspan
         x="0 13.7 25.26 35.880001 46.5 51.060001 64.260002 84.900002"
         y="0"
         id="tspan56">Сеть РЖД</tspan></text><text
       transform="matrix(1,0,0,-1,203.98,543.3)"
       style="font-variant:normal;font-weight:300;font-stretch:normal;font-size:20px;font-family:'Rubik Light';-inkscape-font-specification:Rubik-Light;writing-mode:lr-tb;fill:#000000;fill-opacity:1;fill-rule:nonzero;stroke:none"
       id="text68"><tspan
         x="0 15.34 20.5 31.219999 42.139999 52.080002 61.599998 66.760002 81.739998 92.580002 103.8 114.72 124.56 136.48 149.66 160.02 165.17999 176.7 187.86 199.48 210.64 219 224.16 236.72 247.88 258.60001 269.32001 281.23999 293.16 303.88 313.49799 324.65799 336.578"
         y="0"
         id="tspan60">— сеть железных дорог Российской </tspan><tspan
         x="-104.98 -88.480003 -77.559998 -66.040001 -55.119999 -43.5 -32.779999 -20.76 -8.8400002 3.0799999 7.8200002 12.98 23.700001 34.860001 45.580002 55.52 66.68 77.059998 92.959999 103.68 114.06 119.22 131.14 140.98 146.14 158.06 168.98 179.7 189.31799 200.278 211.498 221.01801 231.138 243.058 253.418 258.578 269.298 280.21799 290.33801 302.358 314.27802 326.198"
         y="26"
         id="tspan62">Федерации, состоящая из нескольких секций </tspan><tspan
         x="-104.98 -91.699997 -80.980003 -72.620003 -60.700001 -49.98 -40.040001 -28.42 -17.700001 -6.48 4.4400001 16.360001 21.1 26.26 35.877998 47.037998 56.978001 68.138 79.758003 92.938004 103.858 109.018 120.538 132.158 144.078 155.998 166.718 178.23801 189.45799 200.37801 215.358 226.078 236.01801 241.17799 254.418 267.418 280.65799 285.81799 297.87799 310.43799 321.59799 332.31799 343.03799 354.95801 366.87799 377.59799 387.71799 399.638 410.55801"
         y="52"
         id="tspan64">магистралей, которые принадлежат ОАО «Российские </tspan><tspan
         x="-104.98 -85.839996 -75 -63.779999 -52.860001 -43.02 -31.1 -17.92 -7 -1.84 11.68 22.84 34.459999 45.619999 53.98 65.900002 77.959999"
         y="78"
         id="tspan66">Железные Дороги».</tspan></text><text
       transform="matrix(1,0,0,-1,99,413.3)"
       style="font-variant:normal;font-weight:500;font-stretch:normal;font-size:20px;font-family:'Rubik Medium';-inkscape-font-specification:Rubik-Medium;writing-mode:lr-tb;fill:#000000;fill-opacity:1;fill-rule:nonzero;stroke:none"
       id="text72"><tspan
         x="0 12.12 23.68 34.98 47.459999 59.939999 71.519997 83.080002 94.519997 105.518 117.378 128.938 133.498 145.358 157.31799 168.758 180.838 192.278 209.45799 221.938 233.638 245.078 257.55801 270.03799 281.59799 286.15799 298.638 303.198 315.478 327.03799 341.11801 352.978 365.45801"
         y="0"
         id="tspan70">Техническое обслуживание и ремонт</tspan></text><text
       transform="matrix(1,0,0,-1,480.238,413.3)"
       style="font-variant:normal;font-weight:300;font-stretch:normal;font-size:20px;font-family:'Rubik Light';-inkscape-font-specification:Rubik-Light;writing-mode:lr-tb;fill:#000000;fill-opacity:1;fill-rule:nonzero;stroke:none"
       id="text84"><tspan
         x="0 15.34 20.5 30.120001 41.279999 54.560001 66.080002 77.300003 88.220001 97.839996 108.56"
         y="0"
         id="tspan74">— комплекс </tspan><tspan
         x="-381.23801 -370.078 -358.55801 -347.638 -336.01801 -325.298 -313.27802 -301.358 -289.43799 -284.27802 -272.758 -261.59799 -256.43799 -244.918 -233.758 -222.23801 -210.718 -199.798 -188.17799 -173.198 -162.478 -150.558 -138.638 -123.378 -118.218 -106.598 -95.877998 -84.538002 -73.377998 -63.438 -52.278 -41.557999 -30.038 -18.878 -8.158 3.0020001 14.342 26.261999 37.422001 48.141998 58.082001 70.001999 75.162003 87.082001 98.302002 110.222"
         y="26"
         id="tspan76">операций по поддержанию работоспособности или </tspan><tspan
         x="-381.23801 -369.31799 -358.59799 -347.078 -335.45801 -324.73801 -313.89801 -301.978 -290.81799 -280.09799 -270.15799 -258.23801 -253.078 -241.558 -229.938 -218.778 -206.858 -197.01801 -186.17799 -175.01801 -163.498 -152.778 -142.838 -131.998 -121.078 -109.158 -97.237999 -86.078003 -77.961998 -66.802002 -61.641998 -50.481998 -39.141998 -27.982 -16.742001 -6.1620002 5.3579998 16.518 27.358 38.077999 49.998001 61.917999 72.297997 77.458 88.977997 100.598 112.518"
         y="52"
         id="tspan78">исправности производственного оборудования при </tspan><tspan
         x="-381.23801 -369.31799 -358.59799 -347.078 -336.11801 -324.89801 -315.37799 -305.53799 -294.37799 -283.53799 -272.81799 -260.89801 -248.978 -237.058 -231.89799 -220.37801 -209.218 -204.058 -192.138 -181.418 -171.578 -159.658 -148.938 -138.39799 -127.478 -115.558 -103.638 -88.622002 -83.882004 -78.722 -67.561996 -52.582001 -40.661999 -29.142 -18.422001 -6.5019999 5.4180002 17.337999 22.077999 27.238001 37.598 49.217999 59.938 71.858002 82.778 94.697998 106.618 118.538"
         y="78"
         id="tspan80">использовании по назначению, ожидании, хранении </tspan><tspan
         x="-381.23801 -369.31799 -364.15799 -354.21799 -342.59799 -331.87799 -319.95801 -309.23801 -297.71799 -286.55801 -274.93799 -264.99799 -253.078 -241.45799 -230.298 -219.45799 -209.84 -198.92"
         y="104"
         id="tspan82">и транспортировке.</tspan></text><text
       transform="matrix(1,0,0,-1,99,257.3)"
       style="font-variant:normal;font-weight:500;font-stretch:normal;font-size:20px;font-family:'Rubik Medium';-inkscape-font-specification:Rubik-Medium;writing-mode:lr-tb;fill:#000000;fill-opacity:1;fill-rule:nonzero;stroke:none"
       id="text88"><tspan
         x="0 14.14 25.66 34.279999 38.84 52.040001 60.279999 72.139999 90.199997 101.978 110.598 122.158 130.118 134.67799 147.53799 158.978 170.838 179.078 190.638 195.198 202.31799 216.45799 229.658 242.03799"
         y="0"
         id="tspan86">Net Promoter Score (NPS)</tspan></text><text
       transform="matrix(1,0,0,-1,353.438,257.3)"
       style="font-variant:normal;font-weight:300;font-stretch:normal;font-size:20px;font-family:'Rubik Light';-inkscape-font-specification:Rubik-Light;writing-mode:lr-tb;fill:#000000;fill-opacity:1;fill-rule:nonzero;stroke:none"
       id="text100"><tspan
         x="0 15.34 20.5 32.419998 44.34 55.860001 66.779999 76.398003 87.117996 92.278 103.798 114.958 124.898 136.51801 147.438 158.778 170.698 180.638 191.476 202.696 212.216 222.936 232.556 243.716 255.636"
         y="0"
         id="tspan90">— индекс потребительской </tspan><tspan
         x="-254.438 -243.218 -232.058 -221.67799 -210.45799 -200.938 -189.01801 -177.858 -167.138 -157.198 -145.278 -140.51801 -135.45799 -122.218 -110.698 -99.078003 -88.157997 -76.638 -65.797997 -54.577999 -44.198002 -33.278 -23.337999 -18.275999 -6.756 4.8639998 16.784 27.624001 38.543999 50.164001 65.143997 76.064003 87.984001 99.903999 111.064 121.784 131.724 141.244 146.304 157.82401 168.98399 178.924 190.54401 201.464 212.804 224.724 234.664 245.502 256.72198 267.642 279.56201"
         y="26"
         id="tspan92">лояльности. Определяет приверженность потребителей </tspan><tspan
         x="-254.438 -244.498 -233.338 -222.498 -211.778 -200.53799 -190.87801 -182.218 -171.978 -161.258 -150.03799 -139.45799 -131.338 -120.418 -115.258 -103.338 -92.117996 -80.197998 -75.038002 -65.419998 -54.259998 -40.98 -29.459999 -18.74 -6.8200002 5.0999999 17.02 22.18 27.76 39.68 51.599998 63.119999 74.040001 83.657997 94.377998 99.538002 107.658 118.818 128.758 139.918 150.758 162.67799 173.838 184.558 194.498 206.418"
         y="52"
         id="tspan94">товару/услуге или компании (индекс готовности </tspan><tspan
         x="-254.438 -242.81799 -231.89799 -222.278 -211.118 -197.838 -186.918 -174.998 -163.478 -152.31799 -141.478 -130.758 -120.818 -112.22 -105.84 -101.1 -95.940002 -84.019997 -73.300003 -61.779999 -50.82 -39.599998 -30.08 -20.24 -10 0.92000002 10.86 21.58 31.959999 37.119999 48.639999 59.860001 70.239998 75.400002 86.559998 98.580002 109.5 121.42 131.53999 143.46001 148.62 156.73801 167.89799 177.838 188.998 199.838 211.758 222.918 233.638 243.578 255.498"
         y="78"
         id="tspan96">рекомендовать), используется для оценки готовности </tspan><tspan
         x="-254.438 -244.31799 -239.158 -227.638 -216.478 -205.638 -195.698 -184.53799 -172.918 -160.998 -147.81799 -134.53799 -129.37801 -117.858 -106.698 -96.578003 -85.998001 -74.477997 -64.358002 -53.638 -40.358002"
         y="104"
         id="tspan98">к повторным покупкам.</tspan></text><path
       d="M 693,0 H 1920 V 1080 H 693 Z"
       style="fill:#e8e8ed;fill-opacity:1;fill-rule:nonzero;stroke:none"
       id="path102" /><text
       transform="matrix(1,0,0,-1,35.3801,1023)"
       style="font-variant:normal;font-weight:300;font-stretch:normal;font-size:20px;font-family:'Rubik Light';-inkscape-font-specification:Rubik-Light;writing-mode:lr-tb;fill:#000000;fill-opacity:1;fill-rule:nonzero;stroke:none"
       id="text106"><tspan
         x="0 7.96 20.280001"
         y="0"
         id="tspan104">101</tspan></text><g
       id="g108"><g
         id="g110"><g
           id="g112"
           clip-path="url(#clipPath116)"><text
             transform="matrix(1,0,0,-1,99,1023)"
             style="font-variant:normal;font-weight:300;font-stretch:normal;font-size:20px;font-family:'Rubik Light';-inkscape-font-specification:Rubik-Light;writing-mode:lr-tb;fill:#000000;fill-opacity:1;fill-rule:nonzero;stroke:none"
             id="text120"><tspan
               x="0 13.24 18.4 28.02 39.18 52.459999 63.98 74.699997 86.620003 98.540001"
               y="0"
               id="tspan118">О компании</tspan></text></g></g></g></g></svg>
