<?xml version="1.0" encoding="UTF-8" standalone="no"?>
<?xml-stylesheet type="text/css" href="main.css" ?>
<svg
   xmlns:dc="http://purl.org/dc/elements/1.1/"
   xmlns:cc="http://creativecommons.org/ns#"
   xmlns:rdf="http://www.w3.org/1999/02/22-rdf-syntax-ns#"
   xmlns:svg="http://www.w3.org/2000/svg"
   xmlns="http://www.w3.org/2000/svg"
   version="1.1"
   id="svg2"
   xml:space="preserve"
   width="2560"
   height="1440"
   viewBox="0 0 2560 1440"><metadata
     id="metadata8"><rdf:RDF><cc:Work
         rdf:about=""><dc:format>image/svg+xml</dc:format><dc:type
           rdf:resource="http://purl.org/dc/dcmitype/StillImage" /></cc:Work></rdf:RDF></metadata><defs
     id="defs6"><clipPath
       clipPathUnits="userSpaceOnUse"
       id="clipPath20"><path
         d="M 0,1080 H 1920 V 0 H 0 Z"
         id="path18" /></clipPath></defs><g
     id="g10"
     transform="matrix(1.3333333,0,0,-1.3333333,0,1440)"><g
       id="g12"><g
         id="g14"><g
           id="g16"
           clip-path="url(#clipPath20)"><path
             d="M 0,0 H 1920 V 1080 H 0 Z"
             style="fill:#ffffff;fill-opacity:1;fill-rule:nonzero;stroke:none"
             id="path22" /></g></g></g><text
       transform="matrix(1,0,0,-1,99,944.2805)"
       style="font-variant:normal;font-weight:normal;font-stretch:normal;font-size:38px;font-family:'Prosto One';-inkscape-font-specification:ProstoOne-Regular;writing-mode:lr-tb;fill:#000000;fill-opacity:1;fill-rule:nonzero;stroke:none"
       id="text26"><tspan
         x="0 25.08 56.619999 90.82 120.84 150.86 182.02 212.03999 244.72"
         y="0"
         id="tspan24">ГЛОССАРИЙ</tspan></text><text
       transform="matrix(1,0,0,-1,99,881.3)"
       style="font-variant:normal;font-weight:500;font-stretch:normal;font-size:20px;font-family:'Rubik Medium';-inkscape-font-specification:Rubik-Medium;writing-mode:lr-tb;fill:#000000;fill-opacity:1;fill-rule:nonzero;stroke:none"
       id="text30"><tspan
         x="0 10.86 23.139999 34.540001 45.240002 57.080002 68.739998 80.160004 91.639999 96.220001 108.16 119.58 130.28"
         y="0"
         id="tspan28">Грузовая база</tspan></text><text
       transform="matrix(1,0,0,-1,244.96,881.3)"
       style="font-variant:normal;font-weight:300;font-stretch:normal;font-size:20px;font-family:'Rubik Light';-inkscape-font-specification:Rubik-Light;writing-mode:lr-tb;fill:#000000;fill-opacity:1;fill-rule:nonzero;stroke:none"
       id="text36"><tspan
         x="0 11.54 16.700001 27.860001 39.200001 49.98 60.900002 74.18 79.339996 87.699997 99.32 109.9 119.74 130.46001 135.2 140.36 151.88 163.5 174.42 185.94 196.72 207.10001 217.94 229.16 239.53999 250.46001 263.73999 276.92001 288.84 294 305.92001 317.14001 329.06"
         y="0"
         id="tspan32">– объем груза, предъявляемый или </tspan><tspan
         x="-145.96001 -134.44 -123.22 -112.5 -100.58 -88.660004 -77.040001 -66.459999 -55.540001 -42.259998 -29.08 -17.16 -12 -1.88 3.28 14.8 26.42 37.34 48.860001 59.639999 70.019997 80.860001 92.080002 103 114.92 126.84 142.10001 147.25999 155.62 167.24001 177.82001 187.66 198.82001 209.98 219.92 231.44 243.06 253.78 264.62 276.54001 286.48001 297.39999 308.62 319.54001 332.82001"
         y="26"
         id="tspan34">планируемый к предъявлению грузоотправителем.</tspan></text><text
       transform="matrix(1,0,0,-1,99,803.3)"
       style="font-variant:normal;font-weight:500;font-stretch:normal;font-size:20px;font-family:'Rubik Medium';-inkscape-font-specification:Rubik-Medium;writing-mode:lr-tb;fill:#000000;fill-opacity:1;fill-rule:nonzero;stroke:none"
       id="text40"><tspan
         x="0 10.86 23.139999 34.540001 45.240002 57.080002 68.919998 80.860001 92.699997 104.98 116.82 127.42 132 142.60001 154.88 166.3 178.75999 190.17999 202.39999 214.24001 226.52 237.12"
         y="0"
         id="tspan38">Грузооборот транспорта</tspan></text><text
       transform="matrix(1,0,0,-1,351.8,803.3)"
       style="font-variant:normal;font-weight:300;font-stretch:normal;font-size:20px;font-family:'Rubik Light';-inkscape-font-specification:Rubik-Light;writing-mode:lr-tb;fill:#000000;fill-opacity:1;fill-rule:nonzero;stroke:none"
       id="text52"><tspan
         x="0 11.54 16.700001 27.860001 39.200001 49.98 60.900002 74.18 79.339996 90.959999 101.68 113.02 124.18 134.12 147.3 152.46001 162.39999 174.02 184.74001 196.66 207.38 218.89999 230.06 241.67999 251.62 262.34"
         y="0"
         id="tspan42">– объем работы транспорта </tspan><tspan
         x="-252.8 -241.28 -230.12 -224.96001 -213.44 -202.52 -190.89999 -179.98 -169.14 -157.98 -148.14 -138.02 -127.3 -114.02 -108.86 -100.5 -88.879997 -78.300003 -68.459999 -57.299999 -46.459999 -41.700001 -36.540001 -24.700001 -13.18 -1.26 10.66 22.58 34.599998 45.52 57.439999 62.599998 74.519997 84.360001 97.639999 108.56 120.18 131.10001 143.02 154.94 165.32001 170.48 180.86 191.7 202.92 213.3 224.22 234.16 244.88 255.25999"
         y="26"
         id="tspan44">по перевозкам грузов. Единицей измерения является </tspan><tspan
         x="-252.8 -242.86 -231.7 -219.78 -207.86 -196.7 -186.96001 -176.84 -164.92 -153.7 -142.53999 -129.25999 -118.34 -108.4 -96.779999 -92.019997 -86.860001 -72.339996 -61.619999 -51.080002 -39.16 -28.440001 -17.219999 -6.8400002 4.0799999 14.02 24.74 35.119999 40.279999 51 61.580002 74.860001 88.139999 100.06 111.68 122.84 133.67999 144.39999 156.32001 168.24001 179.16 192.44"
         y="52"
         id="tspan46">тонно-километр. Исчисляется суммированием </tspan><tspan
         x="-252.8 -241.28 -229.66 -218.5 -206.58 -196.74001 -185.89999 -174.98 -163.46001 -152.53999 -140.62 -128.7 -116.78 -111.62 -98.339996 -87.620003 -76.900002 -66.18 -53 -47.84 -36.32 -25.4 -13.78 -2.8599999 7.98 18.9 28.74 39.66 51.580002 63.5 76.68 87.040001 92.199997 100.56 112.18 122.76 132.60001 143.75999 154.60001 159.75999 170.60001 175.75999 185.7 196.86 208.78 220.7 231.42 241.78"
         y="78"
         id="tspan48">произведений массы перевезенных грузов в тоннах </tspan><tspan
         x="-252.8 -240.88 -230.16 -225 -213.38 -202.66 -191.94 -181.22 -171.28 -160.12 -149.74001 -137.82001 -125.9 -114.98 -109.82 -98.300003 -87.379997 -75.760002 -64.839996 -54 -42.84 -33 -22.879999 -10.96 -5.8000002 5.04 10.2 20.32 32.240002 43.459999 54.619999 67.900002 78.82 88.760002 100.38 111.1 121.46"
         y="104"
         id="tspan50">на расстояние перевозки в километрах.</tspan></text><text
       transform="matrix(1,0,0,-1,99,647.3)"
       style="font-variant:normal;font-weight:500;font-stretch:normal;font-size:20px;font-family:'Rubik Medium';-inkscape-font-specification:Rubik-Medium;writing-mode:lr-tb;fill:#000000;fill-opacity:1;fill-rule:nonzero;stroke:none"
       id="text56"><tspan
         x="0 10.86 23.139999 34.540001 45.240002 57.080002 68.919998 79.519997 91.739998 104.02 115.44 127.1 139.56 150.16 161.7 173.75999"
         y="0"
         id="tspan54">Грузоотправитель</tspan></text><text
       transform="matrix(1,0,0,-1,287.62,647.3)"
       style="font-variant:normal;font-weight:300;font-stretch:normal;font-size:20px;font-family:'Rubik Light';-inkscape-font-specification:Rubik-Light;writing-mode:lr-tb;fill:#000000;fill-opacity:1;fill-rule:nonzero;stroke:none"
       id="text66"><tspan
         x="0 15.34 20.5 34.080002 46 55.84 67.760002 78.300003 89.220001 99.940002 110.06 121.22 132.14 137.3 149.22 160.44 172.36 177.52 192.78 204.39999 216.32001 227.84 239.75999 250.3 261.22 271.94 282.06 293.22 304.14001"
         y="0"
         id="tspan58">— физическое или юридическое </tspan><tspan
         x="-188.62 -177.39999 -165.48 -153.46001 -142.3 -137.56 -132.39999 -122.28 -111.12 -101.18 -90.019997 -78.400002 -67.239998 -56.32 -51.16 -39.639999 -28.48 -23.32 -11.8 -0.63999999 7.7199998 18.879999 29.719999 40.880001 52.5 63.080002 68.239998 79.760002 90.68 102.3 113.22 124.06 135.22 145.06 155.17999 167.10001 172.25999 183.10001 196.28 207 216.94 227.52 239.03999 249.75999 260.67999 270.62"
         y="26"
         id="tspan60">лицо, которое по договору перевозки выступает </tspan><tspan
         x="-188.62 -177.46001 -167.52 -162.36 -151.64 -140.8 -129.64 -118.72 -110.36 -99.199997 -94.040001 -82.120003 -68.839996 -57.919998 -46 -34.080002 -28.92 -17 -5.7800002 6.1399999 11.3 22.459999 32.400002 37.560001 49.48 62.759998 73.68 85.599998 97.519997 102.68 113.52 124.74 135.46001 146.98 157.89999 169.12 178.64 190.66 201.38 206.53999 214.89999 226.52 237.10001 246.94 257.66"
         y="52"
         id="tspan62">от своего имени или от имени владельца груза </tspan><tspan
         x="-188.62 -176.7 -171.53999 -160.96001 -150.84 -140.12 -130.28 -119.56 -107.64 -96.480003 -91.32 -80.480003 -75.32 -63.799999 -52.880001 -41.259998 -30.34 -19.5 -8.3400002 1.5 12.66 23.200001 35.119999 46.279999 59.560001 64.720001 76.239998 87.400002 97.519997 108.1 121.38 132.3 144.22 154.16 165.08"
         y="78"
         id="tspan64">и указано в перевозочном документе.</tspan></text><text
       transform="matrix(1,0,0,-1,99,517.3)"
       style="font-variant:normal;font-weight:500;font-stretch:normal;font-size:20px;font-family:'Rubik Medium';-inkscape-font-specification:Rubik-Medium;writing-mode:lr-tb;fill:#000000;fill-opacity:1;fill-rule:nonzero;stroke:none"
       id="text70"><tspan
         x="0 10.86 23.139999 34.540001 45.240002 57.080002 69.300003 81.139999 93.199997 104.6 116.16 127.58 138.17999 149.72 161.78 172.38"
         y="0"
         id="tspan68">Грузополучатель </tspan></text><text
       transform="matrix(1,0,0,-1,275.96,517.3)"
       style="font-variant:normal;font-weight:300;font-stretch:normal;font-size:20px;font-family:'Rubik Light';-inkscape-font-specification:Rubik-Light;writing-mode:lr-tb;fill:#000000;fill-opacity:1;fill-rule:nonzero;stroke:none"
       id="text76"><tspan
         x="0 15.34 20.5 34.080002 46 55.84 67.760002 78.300003 89.220001 99.940002 110.06 121.22 132.14 137.3 149.22 160.44 172.36 177.52 192.78 204.39999 216.32001 227.84 239.75999 250.3 261.22 271.94 282.06 293.22 304.14001"
         y="0"
         id="tspan72">— физическое или юридическое </tspan><tspan
         x="-176.96001 -165.74001 -153.82001 -141.8 -130.64 -125.9 -120.74 -110.16 -98.639999 -87.480003 -76.260002 -64.339996 -53.18 -39.900002 -28.74 -18.200001 -7.2800002 4.6399999 16.559999 27.719999 38.639999 43.799999 55.720001 66.440002 71.599998 83.120003 94.279999 105.5 116.08 126.62 137.53999 149.46001 161.38 172.3 177.46001 185.82001 197.44 208.02 217.86 228.58"
         y="26"
         id="tspan74">лицо, уполномоченное на получение груза.</tspan></text><text
       transform="matrix(1,0,0,-1,99,439.3)"
       style="font-variant:normal;font-weight:500;font-stretch:normal;font-size:20px;font-family:'Rubik Medium';-inkscape-font-specification:Rubik-Medium;writing-mode:lr-tb;fill:#000000;fill-opacity:1;fill-rule:nonzero;stroke:none"
       id="text80"><tspan
         x="0 13.4 24.26 40.48 53.880001"
         y="0"
         id="tspan78">КГМК </tspan></text><text
       transform="matrix(1,0,0,-1,157.46,439.3)"
       style="font-variant:normal;font-weight:300;font-stretch:normal;font-size:20px;font-family:'Rubik Light';-inkscape-font-specification:Rubik-Light;writing-mode:lr-tb;fill:#000000;fill-opacity:1;fill-rule:nonzero;stroke:none"
       id="text84"><tspan
         x="0"
         y="0"
         id="tspan82">—</tspan></text><text
       transform="matrix(1,0,0,-1,177.06,439.3)"
       style="font-variant:normal;font-weight:300;font-stretch:normal;font-size:20px;font-family:'Rubik Light';-inkscape-font-specification:Rubik-Light;writing-mode:lr-tb;fill:#000000;fill-opacity:1;fill-rule:nonzero;stroke:none"
       id="text88"><tspan
         x="0 10.12 21.74 32.32 43.84 55.759998 66.919998 75.279999 86 97.339996 108.06 119.68 131.60001 141.53999 153.46001 166.64 177.56 182.72 196 206.92 216.86 227.58 238.8 250.02 261.17999 271.29999 282.45999 294.38 305.10001 315.04001 326.66 337.23999 347.35999 359.38 371.29999 383.22"
         y="0"
         id="tspan86">крупногабаритные металлоконструкции.</tspan></text><text
       transform="matrix(1,0,0,-1,99,387.3)"
       style="font-variant:normal;font-weight:500;font-stretch:normal;font-size:20px;font-family:'Rubik Medium';-inkscape-font-specification:Rubik-Medium;writing-mode:lr-tb;fill:#000000;fill-opacity:1;fill-rule:nonzero;stroke:none"
       id="text94"><tspan
         x="0 13.4 25.24 36.740002 51.98 67.220001 79.68 92.419998 104.88 116.42 128.88 139.48 144.06 156.28 168.12 180.39999 192.24001 209.36 221.82001 233.36 242.25999 254.10001 258.67999 270.89999 283.17999 295.01999 306.95999 318.5 327.39999 338.82001 343.39999 355.06 366.48001 375.38 387.22 399.67999 411.51999 423.17999 427.76001 439.17999"
         y="0"
         id="tspan90">Коэффициент порожнего пробега вагонов к </tspan><tspan
         x="0 8.8999996 21.18 32.580002 49.700001 61.240002 73.699997 85.540001 99.599998 111 115.58 127.8 140.08 151.92 163.86 175.39999 184.3"
         y="26"
         id="tspan92">груженому пробегу</tspan></text><text
       transform="matrix(1,0,0,-1,298.96,361.3)"
       style="font-variant:normal;font-weight:300;font-stretch:normal;font-size:20px;font-family:'Rubik Light';-inkscape-font-specification:Rubik-Light;writing-mode:lr-tb;fill:#000000;fill-opacity:1;fill-rule:nonzero;stroke:none"
       id="text100"><tspan
         x="0 15.34 20.5 31.66 43.18 54.799999 65.720001 77.239998 88.160004 99.379997 109.76 120.68 130.62 141.34 151.72 156.88 168.03999 177.98 189.89999 201.06 216.44 227.36 239.28 251.2 262.12 275.39999"
         y="0"
         id="tspan96">— определяется отношением </tspan><tspan
         x="-199.96001 -188.44 -176.82001 -165.66 -154.32001 -143.39999 -135.03999 -123.88 -113.04 -107.88 -96.360001 -85.199997 -73.580002 -62.419998 -47.439999 -35.52 -23.6 -13.24 -8.0799999 2.76 13.48 21.84 33 44.919998 56.080002 66.919998 72.080002 82.199997 87.360001 95.720001 107.34 117.92 132.89999 143.82001 155.74001 166.89999 180.17999 190.75999 195.92 207.44 219.06 230.22 241.56 252.48 260.84 271.42001"
         y="26"
         id="tspan98">пробегов порожних вагонов к груженому пробегу.</tspan></text><text
       transform="matrix(1,0,0,-1,99,283.3)"
       style="font-variant:normal;font-weight:500;font-stretch:normal;font-size:20px;font-family:'Rubik Medium';-inkscape-font-specification:Rubik-Medium;writing-mode:lr-tb;fill:#000000;fill-opacity:1;fill-rule:nonzero;stroke:none"
       id="text104"><tspan
         x="0 14.68 26.52 35.419998 47.880001 59.299999 69.900002 82.360001 93.779999"
         y="0"
         id="tspan102">Логистика</tspan></text><text
       transform="matrix(1,0,0,-1,208.46,283.3)"
       style="font-variant:normal;font-weight:300;font-stretch:normal;font-size:20px;font-family:'Rubik Light';-inkscape-font-specification:Rubik-Light;writing-mode:lr-tb;fill:#000000;fill-opacity:1;fill-rule:nonzero;stroke:none"
       id="text108"><tspan
         x="0 15.34 20.5 32.02 43.639999 54.799999 66.82 77.739998 88.459999 99.18 104.34 115.5 127.12 135.48 146.2 158.12 170.03999 179.88 190.60001 202.62 214.53999 226.46001 231.62 243.64 254.56 266.07999 278 283.16 294.67999 305.84 316.56 326.5 337.22 348.06 358.17999 370.10001 375.26001 383.62 395.23999"
         y="0"
         id="tspan106">— процесс организации цепи доставки гру</tspan></text><text
       transform="matrix(1,0,0,-1,614.28,283.3)"
       style="font-variant:normal;font-weight:300;font-stretch:normal;font-size:20px;font-family:'Rubik Light';-inkscape-font-specification:Rubik-Light;writing-mode:lr-tb;fill:#000000;fill-opacity:1;fill-rule:nonzero;stroke:none"
       id="text112"><tspan
         x="0"
         y="0"
         id="tspan110">-</tspan></text><text
       transform="matrix(1,0,0,-1,99,257.3)"
       style="font-variant:normal;font-weight:300;font-stretch:normal;font-size:20px;font-family:'Rubik Light';-inkscape-font-specification:Rubik-Light;writing-mode:lr-tb;fill:#000000;fill-opacity:1;fill-rule:nonzero;stroke:none"
       id="text118"><tspan
         x="0 9.8400002 21 31.84 37 48.919998 54.080002 64.660004 76.18 87.800003 98.519997 109.36 120.58 131.5 143.42 155.34 165.72 170.88 181.60001 191.53999 202.7 214.62 219.78 231.8 242.72 254.24001 263.76001 279.01999 284.17999 295.01999 300.17999 310.89999 321.62 334.89999 346.06 359.34 364.5 379.88 391.79999 403.42001 414.57999 424.70001 435.85999 449.14001 454.29999 465.01999 478.29999 491.48001 502.20001 513.41998 524.34003 529.08002"
         y="0"
         id="tspan114">зов и управления этой цепью в самом широком смысле, </tspan><tspan
         x="0 10.12 21.280001 31.219999 42.380001 54 64.720001 75.099998 80.260002 93.540001 104.7 119.68 130.60001 140.53999 145.7 156.86 167.22 178.06 188.78 198.72 211.89999 222.74001 233.46001 243.39999 252.92 258.07999 268.20001 278.92001 289.04001 294.20001 305.72 316.88 327.60001 337.54001 348.26001 359.10001 369.22 381.14001 386.29999 397.01999 410.20001 421.82001 431.34 441.72 446.45999 451.62 463.54001 474.45999 485.62 496.95999 507.32001"
         y="26"
         id="tspan116">которая может охватывать как поставки сырья, необхо</tspan></text><text
       transform="matrix(1,0,0,-1,617.48,231.3)"
       style="font-variant:normal;font-weight:300;font-stretch:normal;font-size:20px;font-family:'Rubik Light';-inkscape-font-specification:Rubik-Light;writing-mode:lr-tb;fill:#000000;fill-opacity:1;fill-rule:nonzero;stroke:none"
       id="text122"><tspan
         x="0"
         y="0"
         id="tspan120">-</tspan></text><text
       transform="matrix(1,0,0,-1,99,205.3)"
       style="font-variant:normal;font-weight:300;font-stretch:normal;font-size:20px;font-family:'Rubik Light';-inkscape-font-specification:Rubik-Light;writing-mode:lr-tb;fill:#000000;fill-opacity:1;fill-rule:nonzero;stroke:none"
       id="text126"><tspan
         x="0 11.52 23.440001 36.720001 47.880001 56.240002 67.400002 72.559998 84.080002 95.300003 105.68 110.84 122.36 133.98 145.14 157.06 166.89999 177.74001 188.89999 200.42 211.14 221.08 231.92 242.64 247.38 252.53999 262.48001 273.20001 283.32001 288.48001 300.39999 305.56 316.14001 327.66 339.28 350 360.84 372.06 382.98001 394.89999 406.82001 417.73999 422.89999 436.17999 446.89999 456.84 467.76001 479.38 491.29999 502.01999 513.23999"
         y="0"
         id="tspan124">димого для производства, так и управление материаль</tspan></text><text
       transform="matrix(1,0,0,-1,621.76,205.3)"
       style="font-variant:normal;font-weight:300;font-stretch:normal;font-size:20px;font-family:'Rubik Light';-inkscape-font-specification:Rubik-Light;writing-mode:lr-tb;fill:#000000;fill-opacity:1;fill-rule:nonzero;stroke:none"
       id="text130"><tspan
         x="0"
         y="0"
         id="tspan128">-</tspan></text><text
       transform="matrix(1,0,0,-1,99,179.3)"
       style="font-variant:normal;font-weight:300;font-stretch:normal;font-size:20px;font-family:'Rubik Light';-inkscape-font-specification:Rubik-Light;writing-mode:lr-tb;fill:#000000;fill-opacity:1;fill-rule:nonzero;stroke:none"
       id="text138"><tspan
         x="0 11.92 25.1 38.380001 50.299999 55.459999 67.080002 78 88.720001 99.300003 110.92 121.64 132.36 145.64 157.56 162.72 174.64 185.36 190.52 202.03999 213.66 224.58 236.10001 247.62 259.23999 271.16 281.54001 291.48001 303.39999 315.32001 320.06 325.22 336.73999 347.89999 358.62 368.56 379.28 390.12 400.23999 410.82001 415.98001 427.89999 438.62 443.78 454.5 464.62 475.84 486.56 498.07999 511.26001"
         y="0"
         id="tspan132">ными ресурсами на предприятии, доставку на склады </tspan><tspan
         x="0 11.92 17.08 28.700001 39.419998 50.139999 61.66 73.279999 84.199997 95.720001 106.64 117.86 129.78 139.72 150.64 161.86 171.38 183.3 196.48 207.39999 212.56 224.58 235.5 247.42 257.35999 268.98001 282.16 286.89999 292.06 302.78 313.94 325.56 335.5 347.42001 359.04001 370.20001 381.04001 391.16 401.73999 406.48001 411.64001 423.16 434.07999 445.70001 456.62 468.23999 478.95999 490.29999 501.45999 511.39999 521.52002 532.09998"
         y="26"
         id="tspan134">и распределительные центры, сортировку, переработку </tspan><tspan
         x="0 11.92 17.08 28.24 38.360001 49.52 61.439999 71.980003 82.699997 92.639999 103.56 114.78 124.3 136.22 147.38 158.3 163.46001 175.08 185.8 196.52 208.03999 219.66 230.58 242.10001 253.02 264.23999 275.16 287.07999 299 309.92001 315.07999 325.92001 331.07999 344.35999 355.28 366 375.94 386.66 397.01999 402.17999 413.70001 424.85999 434.79999 446.42001 457.34 468.67999 479.89999 490.82001 502.73999 514.65997 525.03998"
         y="52"
         id="tspan136">и окончательное распределение в местах потребления.</tspan></text><text
       transform="matrix(1,0,0,-1,693,881.3)"
       style="font-variant:normal;font-weight:500;font-stretch:normal;font-size:20px;font-family:'Rubik Medium';-inkscape-font-specification:Rubik-Medium;writing-mode:lr-tb;fill:#000000;fill-opacity:1;fill-rule:nonzero;stroke:none"
       id="text142"><tspan
         x="0 16.219999 27.639999 39.919998 56.099998 68.379997 79.779999 90.379997 102.84 113.54 124.96 137.7 150.16 161.64 166.22 178.44 189.98 202.25999 213.8 225.46001 237.3 248 259.84"
         y="0"
         id="tspan140">Маршрутизация перевозок</tspan></text><text
       transform="matrix(1,0,0,-1,968.52,881.3)"
       style="font-variant:normal;font-weight:300;font-stretch:normal;font-size:20px;font-family:'Rubik Light';-inkscape-font-specification:Rubik-Light;writing-mode:lr-tb;fill:#000000;fill-opacity:1;fill-rule:nonzero;stroke:none"
       id="text154"><tspan
         x="0 15.34 20.5 31.219999 43.139999 53.860001 63.799999 74.720001 88 98.720001 103.88 115.04 126.66 135.02 145.74001 157.66 169.58 179.42 190.14 202.16 214.08 226"
         y="0"
         id="tspan144">— система организации </tspan><tspan
         x="-275.51999 -264.35999 -254.42 -242.89999 -231.28 -220.56 -209.72 -198.5 -187.58 -175.66 -163.74001 -153.36 -148.2 -139.84 -128.22 -117.64 -107.8 -96.639999 -85.800003 -80.639999 -67.360001 -56.639999 -45.02 -29.639999 -18.02 -7.4400001 2.5 13.22 26.5 38.419998 43.580002 49.959999 61.98 72.900002 84.120003 97.300003 110.58 115.74 126.46 137.62 148.34 158.28 169 179.84 191 204.28"
         y="26"
         id="tspan146">отправления грузов маршрутами (целым составом </tspan><tspan
         x="-275.51999 -264 -252.84 -241.92 -232.08 -220.56 -209.84 -203.46001 -198.3 -187.58 -182.42 -171.25999 -159.74001 -147.82001 -136.66 -124.74 -119.58 -107.66 -96.440002 -84.519997 -79.360001 -67.440002 -56.52 -45.799999 -35.68 -24.52 -13.3 -3.78 6.3400002 18.26 28.620001 33.779999 48.759998 59.68 70.900002 81.82 91.660004 103.58 114.74 126.26 137.42 149.03999 160.2 175.17999 187.10001 200.28 210.64"
         y="52"
         id="tspan148">поезда) с одной или нескольких железнодорожных </tspan><tspan
         x="-275.51999 -264.79999 -254.86 -244.14 -232.22 -220.2 -208.28 -196.36 -191.2 -179.28 -168.56 -158.72 -146.8 -136.08 -125.54 -114.62 -102.7 -90.779999 -79.860001 -66.580002 -61.419998 -50.580002 -45.419998 -33.900002 -23.32 -11.4 -1.28 8.6599998 21.84 27 37.84 51.02 59.380001 71 81.580002 91.419998 101.54 113.46 118.62 125 135.72 145.66 156.38 168.3 180.32001 192.24001 202.62 207.36"
         y="78"
         id="tspan150">станций назначением в пункты выгрузки (станция, </tspan><tspan
         x="-275.51999 -264 -252.38 -240.46001 -229.74001 -219.8 -209.08 -197.16 -187.64 -182.89999 -177.74001 -166.22 -155.06 -143.44 -133.5 -127.12 -122.38 -117.22 -105.6 -94.879997 -84.160004 -72.639999 -61.48 -50.259998 -39.099998 -24.120001 -13.2 -1.28 10.64 23.82 34.740002 39.900002 50.740002 55.900002 67.059998 78.580002 90.5 101.66 114.94 120.1 131.72 142.44 154.36 165.52 177.44 188.36"
         y="104"
         id="tspan152">пристань, порт), расположенные в одном районе.</tspan></text><text
       transform="matrix(1,0,0,-1,693,725.3)"
       style="font-variant:normal;font-weight:500;font-stretch:normal;font-size:20px;font-family:'Rubik Medium';-inkscape-font-specification:Rubik-Medium;writing-mode:lr-tb;fill:#000000;fill-opacity:1;fill-rule:nonzero;stroke:none"
       id="text158"><tspan
         x="0 13.9 25.84 37.68 49.959999 61.799999 72.400002 76.980003 88.639999 100.06 108.96 120.8 133.25999"
         y="0"
         id="tspan156">Оборот вагона</tspan></text><text
       transform="matrix(1,0,0,-1,842.84,725.3)"
       style="font-variant:normal;font-weight:300;font-stretch:normal;font-size:20px;font-family:'Rubik Light';-inkscape-font-specification:Rubik-Light;writing-mode:lr-tb;fill:#000000;fill-opacity:1;fill-rule:nonzero;stroke:none"
       id="text164"><tspan
         x="0 15.34 20.5 31.34 42.959999 53.880001 67.160004 77.540001 82.699997 93.860001 103.8 108.96 122.24 133.39999 146.67999 157.60001 169.52 179.46001 190.17999 195.34 206.5 216.62 227.78 239.7 250.24001 260.95999 272.88 284.79999 295.17999"
         y="0"
         id="tspan160">— время от момента окончания </tspan><tspan
         x="-149.84 -138.32001 -127.16 -118.8 -107.18 -96.599998 -86.760002 -76.639999 -64.720001 -59.560001 -48.040001 -36.880001 -31.719999 -18.440001 -7.2800002 6 16.92 28.84 38.779999 49.5 54.66 65.82 75.940002 87.099998 99.019997 109.56 120.28 132.2 144.12 154.5 159.66 170.38 181.60001 192.52 204.03999 214.62 229.88 245.78 256.70001 268.62 273.78 285.29999 296.45999 304.82001 316.44 327.01999 336.85999 346.98001 358.89999"
         y="26"
         id="tspan162">погрузки до момента окончания следующей погрузки.</tspan></text><text
       transform="matrix(1,0,0,-1,693,647.3)"
       style="font-variant:normal;font-weight:500;font-stretch:normal;font-size:20px;font-family:'Rubik Medium';-inkscape-font-specification:Rubik-Medium;writing-mode:lr-tb;fill:#000000;fill-opacity:1;fill-rule:nonzero;stroke:none"
       id="text168"><tspan
         x="0 13.9 26.120001 37.66 49.939999 61.360001 71.959999 83.800003"
         y="0"
         id="tspan166">Оператор</tspan></text><text
       transform="matrix(1,0,0,-1,793.34,647.3)"
       style="font-variant:normal;font-weight:300;font-stretch:normal;font-size:20px;font-family:'Rubik Light';-inkscape-font-specification:Rubik-Light;writing-mode:lr-tb;fill:#000000;fill-opacity:1;fill-rule:nonzero;stroke:none"
       id="text182"><tspan
         x="0 15.34 20.5 35.759998 47.380001 59.299999 70.82 82.739998 93.279999 104.2 114.92 125.04 136.2 147.12 152.28 163.5 175.42 187.44 198.60001 203.75999 215.67999 226.89999 238.82001 243.98 255.89999 267.82001 279.34 291.26001 302.10001 314.01999 325.54001 336.12 346.84 358.06 367.57999 379.5 392.67999 404.60001"
         y="0"
         id="tspan170">— юридическое лицо или индивидуальный </tspan><tspan
         x="-100.34 -88.82 -77.199997 -66.279999 -54.759998 -43.240002 -31.620001 -19.700001 -7.7800002 4.1399999 17.42 28.139999 38.080002 49 60.220001 69.739998 74.480003 79.639999 91.559998 104.84 115.76 131.02 146.92 158.84 170.75999 175.92 186.75999 197.48 205.84 217 228.92 242.10001 246.84 252 262.12 273.28 285.20001 295.14001 306.06 317.98001 329.89999 340.82001 352.44 365.62"
         y="26"
         id="tspan172">предприниматель, имеющий вагоны, контейнеры </tspan><tspan
         x="-100.34 -88.419998 -77.699997 -72.540001 -61.02 -49.400002 -38.68 -27.84 -16.92 -11.76 -1.04 10.12 21.459999 32.18 42.119999 52.959999 63.880001 75.800003 87.720001 98.879997 109.6 119.54 131.46001 136.62 148.53999 159.75999 171.67999 176.84 188.75999 200.67999 211.84 225.12 230.28 241.8 253.42 264.14001 274.98001 285.89999 290.64001 295.79999 306.38 316.92001 327.64001 338.35999 348.29999 359.14001 369.72 384.98001 400.88 412.79999 424.72"
         y="52"
         id="tspan174">на праве собственности или ином праве, участвующий </tspan><tspan
         x="-100.34 -88.419998 -77.699997 -72.540001 -61.380001 -50.66 -38.740002 -27.58 -16.74 -5.8200002 -0.66000003 10.86 22.02 30.379999 41.540001 52.380001 63.540001 75.160004 85.879997 91.040001 101.76 106.92 118.44 129.36 140.98 151.89999 162.74001 173.89999 183.74001 194.28 206.2 216.32001 227.48 240.75999 245.92 256.76001 261.92001 273.07999 283.79999 294.38 310.28 321.20001 331.92001 341.85999 352.70001 363.92001 374.84 386.76001 398.67999 410.60001"
         y="78"
         id="tspan176">на основе договора с перевозчиком в осуществлении </tspan><tspan
         x="-100.34 -88.82 -77.900002 -66.279999 -55.360001 -44.52 -33.360001 -23.52 -12.36 -1.8200001 10.1 21.26 29.620001 40.779999 45.939999 57.459999 69.080002 80.239998 92.260002 103.18 113.9 124.62 135.34 140.5 151.22 156.38 168.3 179.02 190.53999 201.7 212.92 222.44 232.28 243.44 254.28 265 276.92001 288.84 299.76001 313.04001 318.20001 328.78 338.89999 349.62 359.45999 370.17999 382.10001 394.01999 407.20001 417.56"
         y="104"
         id="tspan178">перевозочного процесса с использованием указанных </tspan><tspan
         x="-100.34 -89.5 -78.779999 -70.419998 -59.259998 -47.34 -36.18 -25.34 -20.6 -15.44 -5.3200002 5.8400002 17.76 27.700001 38.619999 50.540001 62.459999 73.379997 85 96.160004 107"
         y="130"
         id="tspan180">вагонов, контейнеров.</tspan></text><text
       transform="matrix(1,0,0,-1,693,465.3)"
       style="font-variant:normal;font-weight:500;font-stretch:normal;font-size:20px;font-family:'Rubik Medium';-inkscape-font-specification:Rubik-Medium;writing-mode:lr-tb;fill:#000000;fill-opacity:1;fill-rule:nonzero;stroke:none"
       id="text186"><tspan
         x="0 13.9 24.5 36.720001 49 60.419998 72.080002 84.540001 95.139999 106.68 118.74 129.34 140.75999 152.17999 163.60001 175.08 179.66 193.72 205.14 217.42 233.60001 245.88 257.28 267.88 280.34 291.04001 302.45999 315.20001 327.66"
         y="0"
         id="tspan184">Отправительская маршрутизация</tspan></text><text
       transform="matrix(1,0,0,-1,1036.4,465.3)"
       style="font-variant:normal;font-weight:300;font-stretch:normal;font-size:20px;font-family:'Rubik Light';-inkscape-font-specification:Rubik-Light;writing-mode:lr-tb;fill:#000000;fill-opacity:1;fill-rule:nonzero;stroke:none"
       id="text190"><tspan
         x="0"
         y="0"
         id="tspan188">—</tspan></text><text
       transform="matrix(1,0,0,-1,1056,465.3)"
       style="font-variant:normal;font-weight:300;font-stretch:normal;font-size:20px;font-family:'Rubik Light';-inkscape-font-specification:Rubik-Light;writing-mode:lr-tb;fill:#000000;fill-opacity:1;fill-rule:nonzero;stroke:none"
       id="text210"><tspan
         x="0 10.72 22.34 33.259998 44.779999 55.5 65.440002 76.279999 87.440002"
         y="0"
         id="tspan192">средство </tspan><tspan
         x="-363 -352.42001 -341.70001 -331.57999 -320.42001 -308.79999 -297.88 -285.95999 -274.04001 -263.66 -258.5 -246.98 -235.36 -224.2 -212.67999 -201.84 -189.92 -174.94 -164.02 -152.10001 -140.17999 -129.8 -124.64 -113.8 -103.08 -94.720001 -83.559998 -71.639999 -60.48 -49.639999 -44.48 -32.560001 -27.4 -16.68 -4.7600002 7.1599998 22.139999 33.060001 44.98 56.900002 67.279999"
         y="26"
         id="tspan194">ускорения продвижения вагонов и снижения </tspan><tspan
         x="-363 -352.28 -341.35999 -330.01999 -319.10001 -308.38 -298.44 -287.28 -275.35999 -262.07999 -250.92 -240.2 -230.25999 -218.34 -213.17999 -201.66 -190.74001 -179.12 -168.2 -157.36 -146.2 -136.36 -125.2 -115.08 -110.32 -105.16 -91.919998 -81.199997 -69.279999 -58.119999 -47.279999 -36.560001 -24.639999 -13.92 -8.7600002 3.1600001 13.88 19.040001 29.16 40.32 52.240002 64.260002 75.18 87.099998 97.040001 108.66 119.38 131.39999 143.32001 155.24001"
         y="52"
         id="tspan196">себестоимости перевозок. Основана на концентрации </tspan><tspan
         x="-363 -356.62 -345.78 -334.62 -329.45999 -318.62 -307 -296.07999 -282.79999 -271.88 -259.95999 -248.03999 -241.66 -236.5 -228.14 -216.52 -205.94 -196.10001 -184.94 -173.42 -162.25999 -152.32001 -141.16 -131.03999 -119.88 -109.04 -103.88 -94.040001 -83.32 -72.599998 -61.080002 -49.459999 -38.540001 -27.82 -16.66 -5.8200002 4.3000002 15.46 27.379999 32.540001 40.900002 52.52 63.099998 72.940002 84.099998 94.940002 100.1 110.94 116.1 127.26 138.78 150.7 161.86"
         y="78"
         id="tspan198">(во времени) грузопотоков заадресовкой грузов в одно </tspan><tspan
         x="-363 -351.07999 -340.35999 -330.51999 -318.60001 -307.88 -297.34 -286.42001 -274.5 -262.57999 -251.66 -246.5 -235.66 -230.5 -219.34 -207.82001 -196.2 -185.28 -173.75999 -162.84 -151.62 -140.7 -128.78 -116.86 -103.68 -92.760002 -87.599998 -76.080002 -64.160004 -52.240002 -47.080002 -35.560001 -24.4 -19.24 -9.1199999 1.6 12.82 23.74 35.66 47.18 57.900002 69.519997 81.440002 92.599998 105.88 116.46"
         y="104"
         id="tspan200">назначение в определенные дни по календарному </tspan><tspan
         x="-363 -351.48001 -340.26001 -329.54001 -317.62 -307.04001 -302.28 -297.12 -284.72 -274.78 -263.62 -258.45999 -246.94 -235.78 -225.94 -215.10001 -203.94 -192.72 -182.34 -171.42 -161.48 -156.32001 -145.16 -133.53999 -125.18 -114.46 -102.54 -90.620003 -80.779999 -69.620003 -58.779999 -48.060001 -38.119999 -28.6 -23.440001 -12.6 -7.4400001 5.8400002 16.559999 28.18 43.560001 55.18 65.760002 75.699997 88.879997"
         y="130"
         id="tspan202">плану. Это позволяет организовать в маршруты </tspan><tspan
         x="-363 -351.07999 -340.16 -328.82001 -317.66 -306.44 -296.92001 -281.54001 -269.62 -258.70001 -253.53999 -242.82001 -231.2 -220.28 -208.75999 -196.84 -185.92 -175.2 -164.62 -154.67999 -143.52 -132.98 -121.06 -107.88 -96.959999 -91.800003 -80.959999 -70.239998 -61.880001 -50.720001 -38.799999 -27.639999 -16.120001 -4.96 4.98 16.139999 26.26 38.18 42.919998 48.080002 60 70.919998 76.080002 88 98.720001 110.34 120.92 136.3 147.02 157.39999"
         y="156"
         id="tspan204">небольшие среднесуточные вагонопотоки, не нарушая </tspan><tspan
         x="-363 -351.38 -339.45999 -329.51999 -316.23999 -305.51999 -300.35999 -288.73999 -278.01999 -266.67999 -255.52 -245.58 -232.39999 -227.24001 -215.72 -204.10001 -193.17999 -181.66 -170.14 -158.52 -146.60001 -136.22 -126.28 -114.36 -103.98 -99.239998 -94.080002 -82.919998 -72.980003 -61.459999 -49.84 -39.119999 -28.280001 -17.059999 -6.6799998 8.5799999 24.48 35.400002 43.759998 54.919998 60.080002 70.919998 81.639999 90 101.16 113.08 126.26 131"
         y="182"
         id="tspan206">ритма работы предприятия, отправляющего вагоны, </tspan><tspan
         x="-363 -351.07999 -345.92001 -334 -323.07999 -317.92001 -307.98001 -296.35999 -285.44 -274.10001 -263.51999 -253.14 -247.98 -236.46001 -225.24001 -213.32001 -203.38 -192.46001 -181.24001 -171.72 -159.8 -148.64 -140.28 -129.12 -123.96 -112.04 -101.32 -91.199997 -80.040001 -68.519997 -57.299999 -46.380001 -34.459999 -22.540001 -12.16 -7 1.36 12.98 23.559999 33.400002 44.119999"
         y="208"
         id="tspan208">и не требуя длительного накопления груза.</tspan></text><text
       transform="matrix(1,0,0,-1,693,205.3)"
       style="font-variant:normal;font-weight:500;font-stretch:normal;font-size:20px;font-family:'Rubik Medium';-inkscape-font-specification:Rubik-Medium;writing-mode:lr-tb;fill:#000000;fill-opacity:1;fill-rule:nonzero;stroke:none"
       id="text214"><tspan
         x="0 14.58 26.120001 38.400002 49.939999 61.599998 73.440002 84.139999 95.699997 108.16"
         y="0"
         id="tspan212">Перевозчик</tspan></text><text
       transform="matrix(1,0,0,-1,816.84,205.3)"
       style="font-variant:normal;font-weight:300;font-stretch:normal;font-size:20px;font-family:'Rubik Light';-inkscape-font-specification:Rubik-Light;writing-mode:lr-tb;fill:#000000;fill-opacity:1;fill-rule:nonzero;stroke:none"
       id="text228"><tspan
         x="0 15.34 20.5 35.759998 47.380001 59.299999 70.82 82.739998 93.279999 104.2 114.92 125.04 136.2 147.12 152.28 163.5 175.42 187.44 198.60001 203.75999 215.67999 226.89999 238.82001 243.98 255.89999 267.82001 279.34 291.26001 302.10001 314.01999 325.54001 336.12 346.84 358.06 367.57999 379.5 392.67999 404.60001"
         y="0"
         id="tspan216">— юридическое лицо или индивидуальный </tspan><tspan
         x="-123.84 -112.32 -100.7 -89.779999 -78.260002 -66.739998 -55.119999 -43.200001 -31.280001 -19.360001 -6.0799999 4.6399999 14.58 25.5 36.720001 46.240002 50.98 56.139999 67.660004 79.279999 91.199997 103.12 113.5 124.34 139.72 151.64 162.56 167.72 179.64 190.36 195.52 206.24001 217.16 228.5 238.88 244.03999 255.56 266.72 271.88 283.39999 294.56 302.92001 314.07999 324.92001 336.07999 347.70001 358.28"
         y="26"
         id="tspan218">предприниматель, принявшие на себя по договору </tspan><tspan
         x="-123.84 -112.32 -101.4 -89.779999 -78.860001 -68.019997 -56.860001 -47.02 -36.900002 -24.98 -19.82 -4.8400002 6.0799999 17.299999 28.219999 38.060001 49.98 61.139999 72.660004 83.82 95.440002 106.6 121.58 133.5 146.67999 159.96001 165.12 175.06 186.67999 197.39999 209.32001 220.03999 231.56 242.72 254.34 264.28 275.44 288.72 293.88 305.04001 316.38 332.28 343.20001 351.56 362.72"
         y="52"
         id="tspan220">перевозки железнодорожным транспортом общего </tspan><tspan
         x="-123.84 -112.32 -101.16 -89.940002 -80.419998 -70.580002 -59.419998 -48.580002 -37.860001 -25.940001 -14.02 -3.6400001 1.52 12.68 24.02 34.400002 44.240002 54.959999 66.879997 78.800003 89.959999 100.68 110.62 120.14 125.3 136.82001 147.98 158.7 168.64 179.36 190.2 202.12 212.06 221.58 226.74001 235.10001 246.72 257.29999 267.14001 272.29999 284.22 294.06 299.22 310.73999 321.32001 333.23999 343.35999 353.29999 364.01999"
         y="78"
         id="tspan222">пользования обязанность доставить груз из пункта </tspan><tspan
         x="470.16 481.32001 491.26001 502.78 514.40002 525.12 535.96002 547.17999 558.09998 570.02002 581.94 592.32001 597.47998 608.32001 613.47998 625 635.58002 647.5 657.62 667.56 672.71997 684.64001 695.35999 705.20001 717.12 727.84003 738.38 749.29999 761.21997 773.14001 783.52002 788.26001 793.41998 804.14001 809.29999 819.23999 829.96002 840.08002 855.06 865.97998 871.14001 881.97998 895.15997 906.67999 917.40002 927.34003 936.85999 942.02002 950.38 962 972.58002 982.41998"
         y="-676"
         id="tspan224">отправления в пункт назначения, а также выдать груз </tspan><tspan
         x="470.16 480.73999 492.26001 503.42001 514.64001 526.56 537.71997 551 562.15997 572.70001 583.62 595.53998 607.46002 618.62 631.90002 642.47998 647.64001 659.56 670.28003 675.44 686.35999 694.71997 705.88 711.03998 722.56 733.71997 744.94 755.52002 766.06 776.97998 788.90002 800.82001 811.73999 816.90002 828.12 840.03998 852.06 862.64001 867.79999 874.17999 885.70001 896.85999 908.08002 918.65997 929.20001 939.91998 949.85999 960.78003 972 987.26001 993.64001"
         y="-650"
         id="tspan226">уполномоченному на его получение лицу (получателю).</tspan></text><text
       transform="matrix(1,0,0,-1,1287,803.3)"
       style="font-variant:normal;font-weight:500;font-stretch:normal;font-size:20px;font-family:'Rubik Medium';-inkscape-font-specification:Rubik-Medium;writing-mode:lr-tb;fill:#000000;fill-opacity:1;fill-rule:nonzero;stroke:none"
       id="text232"><tspan
         x="0 14.58 26.42 35.32 47.599998 59 69.699997 81.120003 92.540001 97.120003 104.34 116.18 126.78 139 151.28 162.7 174.36 186.42 197.96001 210.42 222.88 234.42 239 247.89999 260.17999 271.57999 282.28 294.12 305.78"
         y="0"
         id="tspan230">Погрузка (отправление грузов)</tspan></text><text
       transform="matrix(1,0,0,-1,1605.16,803.3)"
       style="font-variant:normal;font-weight:300;font-stretch:normal;font-size:20px;font-family:'Rubik Light';-inkscape-font-specification:Rubik-Light;writing-mode:lr-tb;fill:#000000;fill-opacity:1;fill-rule:nonzero;stroke:none"
       id="text250"><tspan
         x="0 15.34 20.5 33.779999 44.5 55.220001 65.940002 76.660004 81.82 90.18 101.8 112.38 122.22 133.38 144.22"
         y="0"
         id="tspan234">— масса грузов </tspan><tspan
         x="-318.16 -307.32001 -302.16 -292.22 -281.06 -269.14001 -257.22 -246.5 -236.14 -231.39999 -226.24001 -214.72 -203.10001 -191.17999 -179.25999 -168.88 -158.94 -145.75999 -135.39999 -130.24001 -120.12 -114.96 -103.44 -92.519997 -80.900002 -69.980003 -59.139999 -47.98 -38.139999 -28.02 -17.1 -11.94 -0.41999999 10.74 15.9 26.620001 37.540001 47.48 59.400002 64.559998 79.540001 90.459999 101.68 112.6 122.44 134.36 147.53999 157.89999"
         y="26"
         id="tspan236">в тоннах, принятых к перевозке по сети железных </tspan><tspan
         x="-318.16 -306.64001 -295.48001 -283.85999 -272.70001 -264.34 -259.57999 -254.42 -241.36 -230.44 -219.22 -207.3 -196.75999 -184.84 -172.92 -162.2 -157.03999 -145.52 -134.36 -124.24 -113.52 -103.68 -92.959999 -83.019997 -72.099998 -60.880001 -50.5 -45.34 -33.419998 -22.700001 -12.16 -0.23999999 10.48 21.700001 32.080002 43 52.939999 63.66 74.040001 79.199997 89.32 100.04 110.16 115.32 126.04 136.62 149.89999 163.17999 173.89999"
         y="52"
         id="tspan238">дорог. Величина показателя исчисляется как сумма </tspan><tspan
         x="-318.16 -307.32001 -296.60001 -285.67999 -275.32001 -270.16 -259 -249.06 -237.53999 -225.92 -215.2 -204.36 -193.2 -183.08 -178.34 -173.17999 -161.66 -150.03999 -138.12 -126.2 -115.82 -105.88 -92.699997 -82.339996 -77.18 -66.339996 -61.18 -50.02 -40.080002 -29.540001 -18.620001 -8.6800003 3.24 14.4 27.68 32.84 44.360001 55.279999 66.900002 78.82 89.980003 101.5 112.42"
         y="78"
         id="tspan240">всех отправок, принятых в отчетном периоде </tspan><tspan
         x="-318.16 -308.04001 -302.88 -291.35999 -280.44 -268.82001 -257.89999 -247.06 -235.89999 -226.06 -215.94 -205.02 -199.86 -187.94 -177.22 -172.06 -162.12 -151.2 -139.58 -127.96 -116.04 -106.1 -94.940002 -83.32 -71.400002 -59.48 -54.32 -43.599998 -33.66 -22.040001 -11.32 0.60000002 13.78 18.940001 30.860001 41.779999 53.299999 64.459999 75.18 86.800003 97.720001 109.24 119.96 129.89999 140.74001 151.66 163.58 175.5 186.66"
         y="104"
         id="tspan242">к перевозке на территории страны непосредственно </tspan><tspan
         x="-318.16 -307 -297.06 -291.89999 -283.54001 -271.92001 -261.34 -251.5 -240.34 -229.17999 -219.24001 -207.72 -196.10001 -185.38 -174.53999 -162.62 -152.67999 -141.75999 -130.53999 -119.62 -107.7 -102.96 -97.800003 -87.080002 -81.919998 -70.400002 -58.779999 -48.200001 -39.84 -27.92 -17.559999 -12.4 -1.5599999 10.36 21.879999 33.040001 43.880001 49.040001 58.98 70.599998 81.32 93.239998 103.96 115.48 126.64 138.25999 148.2 158.92 164.08 175.60001 186.82001 197.2"
         y="130"
         id="tspan244">от грузоотправителей, с других видов транспорта для </tspan><tspan
         x="-318.16 -306.64001 -295.01999 -283.85999 -272.34 -261.17999 -249.96001 -234.98 -224.06 -212.14 -200.22 -189.84 -184.67999 -173.16 -162.24001 -150.62 -139.7 -128.86 -117.7 -107.86 -97.739998 -85.82 -80.660004 -68.739998 -63.580002 -52.419998 -42.48 -37.32 -25.4 -13.48 -2.3199999 8.3999996 18.34 29.959999 40.68 52.599998 64.519997 77.699997 88.059998 93.220001 108.2 119.12 130.34 141.25999 151.10001 163.02 176.2 186.56"
         y="156"
         id="tspan246">продолжения перевозки и от иностранных железных </tspan><tspan
         x="-318.16 -306.64001 -295.48001 -283.85999 -272.70001 -264.34"
         y="182"
         id="tspan248">дорог.</tspan></text><text
       transform="matrix(1,0,0,-1,1287,569.3)"
       style="font-variant:normal;font-weight:500;font-stretch:normal;font-size:20px;font-family:'Rubik Medium';-inkscape-font-specification:Rubik-Medium;writing-mode:lr-tb;fill:#000000;fill-opacity:1;fill-rule:nonzero;stroke:none"
       id="text254"><tspan
         x="0 14.58 26.42 38.98 50.639999 63.099998 80.220001 92.68 104.52 116.98 121.56 132.98 144.82001 156.24001 166.84 178.25999"
         y="0"
         id="tspan252">Подвижной состав</tspan></text><text
       transform="matrix(1,0,0,-1,1482.08,569.3)"
       style="font-variant:normal;font-weight:300;font-stretch:normal;font-size:20px;font-family:'Rubik Light';-inkscape-font-specification:Rubik-Light;writing-mode:lr-tb;fill:#000000;fill-opacity:1;fill-rule:nonzero;stroke:none"
       id="text262"><tspan
         x="0 15.34 20.5 30.440001 42.060001 52.779999 64.699997 75.419998 86.940002 98.099998 109.72 119.66 131.58 144.75999 155.67999 160.84 171.56 183.17999 194.10001 205.62 216.34 226.28 237.12 247.84 253 264.22 279.48001 290.82001 304 314.35999"
         y="0"
         id="tspan256">— транспортные средства любых </tspan><tspan
         x="-195.08 -184.96001 -174.24001 -164.3 -153.38 -145.02 -133.86 -122.24 -110.32 -98.400002 -93.660004 -88.5 -76.980003 -65.360001 -53.439999 -42.720001 -31.200001 -20.040001 -9.3199997 1.84 13.18 24.4 35.32 47.240002 59.16 72.339996 83.260002 88.419998 99.940002 111.16 121.54 126.7 138.22 149.14 160.75999 171.67999 183.2 194.03999 205.96001 220.94 231.86 243.78 255.7 266.07999"
         y="26"
         id="tspan258">категорий, приспособленные для передвижения </tspan><tspan
         x="-195.08 -183.56 -172.39999 -167.24001 -155.62 -144.7 -133.48 -123.96 -113.24 -102.08 -91.239998 -78.059998 -64.779999 -59.619999 -48.099998 -37.52 -27.58 -17.200001 -3.9200001"
         y="52"
         id="tspan260">по рельсовым путям.</tspan></text><text
       transform="matrix(1,0,0,-1,1287,465.3)"
       style="font-variant:normal;font-weight:500;font-stretch:normal;font-size:20px;font-family:'Rubik Medium';-inkscape-font-specification:Rubik-Medium;writing-mode:lr-tb;fill:#000000;fill-opacity:1;fill-rule:nonzero;stroke:none"
       id="text266"><tspan
         x="0 14.58 26.42 38.700001 50.540001 67.660004 80.120003 92.580002 105.04 109.62 121.84 134.12 145.96001 157.89999 169.44 178.34"
         y="0"
         id="tspan264">Порожний пробег </tspan></text><text
       transform="matrix(1,0,0,-1,1469.92,465.3)"
       style="font-variant:normal;font-weight:300;font-stretch:normal;font-size:20px;font-family:'Rubik Light';-inkscape-font-specification:Rubik-Light;writing-mode:lr-tb;fill:#000000;fill-opacity:1;fill-rule:nonzero;stroke:none"
       id="text272"><tspan
         x="0 15.34 20.5 32.02 43.639999 54.799999 66.139999 77.059998 85.419998 90.580002 101.42 112.14 120.5 131.66 143.58 154.3 159.46001 170.8 181.72 191.56 196.72 205.08 216.7 227.28 237.12 247.84 253 264.16 274.10001 279.26001 290.78 301.35999 313.28 323.39999 333.34 344.06"
         y="0"
         id="tspan268">— пробег вагона без груза от пункта </tspan><tspan
         x="-182.92 -172.08 -158.89999 -150.53999 -138.92 -128.34 -118.5 -108.38 -96.459999 -91.300003 -81.18 -76.019997 -64.5 -53.919998 -42 -31.879999 -21.940001 -11.36 -6.1999998 5.3200002 16.48 24.84 36.459999 47.040001 56.880001 67 78.919998"
         y="26"
         id="tspan270">выгрузки к пункту погрузки.</tspan></text><text
       transform="matrix(1,0,0,-1,1287,387.3)"
       style="font-variant:normal;font-weight:500;font-stretch:normal;font-size:20px;font-family:'Rubik Medium';-inkscape-font-specification:Rubik-Medium;writing-mode:lr-tb;fill:#000000;fill-opacity:1;fill-rule:nonzero;stroke:none"
       id="text276"><tspan
         x="0 14.58 26.860001 38.700001 47.599998 59.880001 71.300003 85.360001 99.419998 110.84 115.42 127.72 142.3 154.58 166.42 180.48 195.78 211.96001 224.02 235.56 248.02 260.48001 271.89999 283.38 287.95999 300.01999 311.85999 320.76001 333.22 344.64001 355.23999 367.70001 379.12 390.54001 402.84"
         y="0"
         id="tspan274">Программа «Промышленная логистика» </tspan></text><text
       transform="matrix(1,0,0,-1,1694.42,387.3)"
       style="font-variant:normal;font-weight:300;font-stretch:normal;font-size:20px;font-family:'Rubik Light';-inkscape-font-specification:Rubik-Light;writing-mode:lr-tb;fill:#000000;fill-opacity:1;fill-rule:nonzero;stroke:none"
       id="text296"><tspan
         x="0 15.34"
         y="0"
         id="tspan278">— </tspan><tspan
         x="-407.42001 -396.84 -386.12 -374.89999 -364.32001 -355.95999 -345.23999 -340.5 -335.34 -325.22 -314.06 -304.12 -292.95999 -281.34 -270.62 -260.23999 -255.08 -243.56 -231.94 -221.02 -209.5 -198.92 -188.2 -174.92 -164.2 -154.25999 -142.64 -130.72 -119.88 -109.16 -98.239998 -88.300003 -83.139999 -71.620003 -60.700001 -49.080002 -38.16 -26.639999 -15.92 -5.3800001 5.1999998"
         y="26"
         id="tspan280">услуга, которая предусматривает передачу </tspan><tspan
         x="-407.42001 -393.84 -383.26001 -371.34 -361.22 -349.20001 -337.28 -325.35999 -320.20001 -310.26001 -298.64001 -287.92001 -276 -265.28 -253.75999 -242.60001 -230.98 -221.03999 -209.12 -197.96001 -186.03999 -180.88 -169.66 -158.5 -150.14 -138.22 -127.5 -117.56 -105.64 -95.519997 -83.599998 -78.440002 -66.919998 -55.299999 -44.139999 -30.860001 -17.68 -2.3 8.9200001 19.84 31.76 43.68 56.860001 67.220001"
         y="52"
         id="tspan282">функций транспортной логистики промышленных </tspan><tspan
         x="-407.42001 -396.26001 -384.92001 -374.14001 -363.22 -353.10001 -343.16 -332 -321.16 -316 -305.88 -294.26001 -283.67999 -272.16 -260.23999 -247.06 -236.7 -231.53999 -220.02 -208.39999 -197.48 -185.96001 -174.44 -162.82001 -150.89999 -140.52 -130.58 -118.66 -106.74 -101.58 -89.660004 -78.940002 -73.779999 -63.060001 -52.48 -42.540001 -31.82 -20.66 -9.04 1.6799999 13.6 25.52 33.880001"
         y="78"
         id="tspan284">объектов крупных предприятий на аутсорсинг </tspan><tspan
         x="-407.42001 -393.42001 -383.32001 -371.04001 -365.88 -353.95999 -348.79999 -337.28 -326.12 -316.28 -305.44 -294.28 -283.06 -272.67999 -261.76001 -251.82001 -246.66 -235.14 -223.52 -212.36 -200.44 -190.60001 -179.75999 -168.60001 -157.08 -145.16 -135.22 -124.3 -113.08 -102.7 -89.419998 -84.260002 -73.540001 -61.619999 -49.700001 -39.860001 -27.940001 -18 -8.4799995 -3.3199999 6.52 17.24 27.18 38.799999 49.52 59.459999 72.639999"
         y="104"
         id="tspan286">ПГК и позволяет производителям снизить затраты </tspan><tspan
         x="-407.42001 -395.5 -384.78 -379.62 -368.10001 -357.17999 -345.56 -334.64001 -323.79999 -312.64001 -302.79999 -292.67999 -282.10001 -276.94 -266.22 -255.06 -243.72 -233 -223.06 -212.22 -201.3 -189.38 -177.46001 -166.3 -154.38 -149.22 -137.7 -126.08 -114.92 -103.4 -92.82 -82.699997 -70.68 -58.759998 -46.84 -41.68 -29.76 -24.6 -13.88 -2.72 8.8000002 19.719999 31.34 46.32 57.040001 68.959999 80.879997 91.800003"
         y="130"
         id="tspan288">на перевозку собственной продукции и содержание </tspan><tspan
         x="-407.42001 -392.44 -381.51999 -370.29999 -359.38 -349.54001 -337.62 -326.45999 -314.94 -303.78 -292.16 -281 -266.01999 -254.10001 -242.94 -234.58 -223.42 -218.25999 -206.92 -195.7 -184.53999 -174.42 -163.7 -158.53999 -146.62 -141.46001 -130.74001 -120.62 -109.46 -97.540001 -85.519997 -74.599998 -62.68 -52.740002 -41.119999 -29.200001 -17.58 -6.4200001 4.4200001 15.14 25.08 34.599998 45.32 55.700001"
         y="156"
         id="tspan290">железнодорожного блока и сконцентрироваться </tspan><tspan
         x="-407.42001 -395.5 -384.78 -379.62 -368.89999 -358.06 -346.89999 -335.98001 -324.06 -318.89999 -307.73999 -297.01999 -285.10001 -273.94 -263.10001 -251.17999 -240.02 -228.10001 -222.94 -211.42 -200.5 -190.12 -180.17999 -169.25999 -158.03999 -148.52 -136.60001 -125.44 -114.72 -104.78 -92.860001"
         y="182"
         id="tspan292">на своей основной деятельности.</tspan><tspan
         x="-1660.66 -1652.7 -1640.38 -1595.42 -1581.42 -1569.8 -1557.88 -1546.66 -1535.5 -1520.52 -1509.6 -1497.6801 -1485.76"
         y="-635.70001"
         id="tspan294">102Приложения</tspan></text></g></svg>
