<?xml version="1.0" encoding="UTF-8" standalone="no"?>
<?xml-stylesheet type="text/css" href="main.css" ?>
<svg
   xmlns:dc="http://purl.org/dc/elements/1.1/"
   xmlns:cc="http://creativecommons.org/ns#"
   xmlns:rdf="http://www.w3.org/1999/02/22-rdf-syntax-ns#"
   xmlns:svg="http://www.w3.org/2000/svg"
   xmlns="http://www.w3.org/2000/svg"
   version="1.1"
   id="svg2"
   xml:space="preserve"
   width="2560"
   height="1440"
   viewBox="0 0 2560 1440"><metadata
     id="metadata8"><rdf:RDF><cc:Work
         rdf:about=""><dc:format>image/svg+xml</dc:format><dc:type
           rdf:resource="http://purl.org/dc/dcmitype/StillImage" /></cc:Work></rdf:RDF></metadata><defs
     id="defs6"><clipPath
       clipPathUnits="userSpaceOnUse"
       id="clipPath20"><path
         d="M 0,1080 H 1920 V 0 H 0 Z"
         id="path18" /></clipPath><clipPath
       clipPathUnits="userSpaceOnUse"
       id="clipPath164"><path
         d="M 0,1080 H 1920 V 0 H 0 Z"
         id="path162" /></clipPath></defs><g
     id="g10"
     transform="matrix(1.3333333,0,0,-1.3333333,0,1440)"><g
       id="g12"><g
         id="g14"><g
           id="g16"
           clip-path="url(#clipPath20)"><path
             d="M 0,0 H 1920 V 1080 H 0 Z"
             style="fill:#ffffff;fill-opacity:1;fill-rule:nonzero;stroke:none"
             id="path22" /></g></g></g><text
       transform="matrix(1,0,0,-1,99,953.4)"
       style="font-variant:normal;font-weight:normal;font-stretch:normal;font-size:38px;font-family:'Prosto One';-inkscape-font-specification:ProstoOne-Regular;writing-mode:lr-tb;fill:#000000;fill-opacity:1;fill-rule:nonzero;stroke:none"
       id="text28"><tspan
         x="0 30.209999 64.410004 96.330002 123.12 154.28 184.49001 211.28 243.2 274.35999 304.76001 318.06 350.73999 382.66 420.47 454.67001 484.69 526.48999 557.65002 590.90002 623.58002 653.97998"
         y="0"
         id="tspan24">КОНТАКТНАЯ ИНФОРМАЦИЯ </tspan><tspan
         x="0 33.060001 64.599998 95 108.3 139.46001 169.67 202.92 235.60001 269.79999 301.72 328.70001 358.72 392.92001 423.32001 436.62 469.29999 482.60001 515.28003 547.20001 577.59998 604.58002 634.59998 661.39001 695.59003 725.60999 759.81"
         y="45.599998"
         id="tspan26">ДЛЯ АКЦИОНЕРОВ И ИНВЕСТОРОВ</tspan></text><text
       transform="matrix(1,0,0,-1,99,821.67)"
       style="font-variant:normal;font-weight:500;font-stretch:normal;font-size:28px;font-family:'Rubik Medium';-inkscape-font-specification:Rubik-Medium;writing-mode:lr-tb;fill:#000000;fill-opacity:1;fill-rule:nonzero;stroke:none"
       id="text32"><tspan
         x="0 18.48 34.664001 47.152 64.624001 80.639999 95.508003 112.7 128.716 143.584 160.188"
         y="0"
         id="tspan30">Регистратор</tspan></text><text
       transform="matrix(1,0,0,-1,99,769.67)"
       style="font-variant:normal;font-weight:500;font-stretch:normal;font-size:20px;font-family:'Rubik Medium';-inkscape-font-specification:Rubik-Medium;writing-mode:lr-tb;fill:#000000;fill-opacity:1;fill-rule:nonzero;stroke:none"
       id="text36"><tspan
         x="0 14.6 26.280001 38.360001 50.84 62.700001 74.260002 78.82 94.099998 106.58 118.86 132.94 144.5 156.98 169.46001 181.32001 192.88 197.44 209.92 221.36 233.84 247.92 259.48001 271.95999 283.82001 295.51999 306.95999 319.44 331.92001"
         y="0"
         id="tspan34">Полное фирменное наименование</tspan></text><text
       transform="matrix(1,0,0,-1,99,743.67)"
       style="font-variant:normal;font-weight:300;font-stretch:normal;font-size:20px;font-family:'Rubik Light';-inkscape-font-specification:Rubik-Light;writing-mode:lr-tb;fill:#000000;fill-opacity:1;fill-rule:nonzero;stroke:none"
       id="text42"><tspan
         x="0 13 23.120001 35.139999 47.060001 58.220001 70.139999 81.059998 92.68 104.6 115.76 126.68 131.84 143 154.34 170.24001 181.16 191.88 201.82001 212.66 223.82001 228.98 241.03999 254.03999 262.15799 273.078 284.99799 294.93799 305.65799 315.59799 326.43799 337.59799 342.758 354.81799 367.37799 378.298 386.65799 398.578 409.73801 421.65799 432.37799 443.59799 453.11801 465.03799 478.21799 490.138 495.298 507.21799 518.138 527.97803 538.698 549.53802 561.45801 572.17798 584.09802 597.37799 610.55798 622.47803"
         y="0"
         id="tspan38">Акционерное общество «Агентство «Региональный независимый </tspan><tspan
         x="0 11.62 22.540001 30.9 42.82 53.540001 63.48 75.099998 85.82 95.760002 106.92 118.54"
         y="26"
         id="tspan40">регистратор»</tspan></text><text
       transform="matrix(1,0,0,-1,99,678.67)"
       style="font-variant:normal;font-weight:500;font-stretch:normal;font-size:20px;font-family:'Rubik Medium';-inkscape-font-specification:Rubik-Medium;writing-mode:lr-tb;fill:#000000;fill-opacity:1;fill-rule:nonzero;stroke:none"
       id="text46"><tspan
         x="0 13.7 25.559999 37.02 49.299999 60.740002 77.400002 88.959999 101.44 113.92 125.78 137.34 141.89999 157.17999 169.66 181.94 196.02 207.58 220.06 232.53999 244.39999 255.96001 260.51999 273 284.44 296.92001 311 322.56 335.04001 346.89999 358.60001 370.04001 382.51999 395"
         y="0"
         id="tspan44">Сокращенное фирменное наименование</tspan></text><text
       transform="matrix(1,0,0,-1,99,652.67)"
       style="font-variant:normal;font-weight:300;font-stretch:normal;font-size:20px;font-family:'Rubik Light';-inkscape-font-specification:Rubik-Light;writing-mode:lr-tb;fill:#000000;fill-opacity:1;fill-rule:nonzero;stroke:none"
       id="text50"><tspan
         x="0 13 26.24 31.4 43.459999 56.459999 64.580002 75.5 87.419998 97.360001 108.08 118.02 128.86 140.02 145.17999 157.24001 169.8 183.8 196.36"
         y="0"
         id="tspan48">АО «Агентство «РНР»</tspan></text><text
       transform="matrix(1,0,0,-1,99,613.67)"
       style="font-variant:normal;font-weight:500;font-stretch:normal;font-size:20px;font-family:'Rubik Medium';-inkscape-font-specification:Rubik-Medium;writing-mode:lr-tb;fill:#000000;fill-opacity:1;fill-rule:nonzero;stroke:none"
       id="text54"><tspan
         x="0 16.24 27.799999 39.240002 49.860001 61.720001 66.279999 78.760002 90.199997 101.5 113.36 130.53999 143.12 154.67999 167.16 179.64"
         y="0"
         id="tspan52">Место нахождения</tspan></text><text
       transform="matrix(1,0,0,-1,99,587.67)"
       style="font-variant:normal;font-weight:300;font-stretch:normal;font-size:20px;font-family:'Rubik Light';-inkscape-font-specification:Rubik-Light;writing-mode:lr-tb;fill:#000000;fill-opacity:1;fill-rule:nonzero;stroke:none"
       id="text58"><tspan
         x="0 12.56 23.719999 34.439999 45.16 57.080002 69 79.720001 89.839996 100.56 110.94 116.1 132.60001 143.52 155.03999 165.96001 177.58 188.3 200.32001 212.24001 222.62 227.36 232.52 244.03999 255.48 267.84 280.16 288.12 296.478 301.21799 306.37799 312.978 317.73801 322.89801 336.49799 348.418 359.93799 370.858 382.87799 392.99799 397.73801 402.89801 412.896 424.116 428.87601 434.03601 445.47601 450.63599 466.23599 476.95599 487.336 492.07599 497.23599 508.75601 513.51599 518.67603 526.63599 538.95599 544.11603"
         y="0"
         id="tspan56">Российская Федерация, 398017, г. Липецк, ул. 9 Мая, д. 10 Б</tspan></text><text
       transform="matrix(1,0,0,-1,99,548.67)"
       style="font-variant:normal;font-weight:500;font-stretch:normal;font-size:20px;font-family:'Rubik Medium';-inkscape-font-specification:Rubik-Medium;writing-mode:lr-tb;fill:#000000;fill-opacity:1;fill-rule:nonzero;stroke:none"
       id="text62"><tspan
         x="0 12.12 23.58 35.66 47.220001 62.5 74.360001 86.839996"
         y="0"
         id="tspan60">Телефоны</tspan></text><text
       transform="matrix(1,0,0,-1,99,522.67)"
       style="font-variant:normal;font-weight:300;font-stretch:normal;font-size:20px;font-family:'Rubik Light';-inkscape-font-specification:Rubik-Light;writing-mode:lr-tb;fill:#000000;fill-opacity:1;fill-rule:nonzero;stroke:none"
       id="text66"><tspan
         x="0 11.44 21.18 26.34 31.860001 43.459999 52.5 64.400002 75.239998 81.620003 86.779999 98.68 110.58 122.1 131.84 144.16 155.60001 166.81799 171.558 176.718 188.618 200.51801 212.03799 220.95799 228.918 241.23801"
         y="0"
         id="tspan64">+7 (4742) 443-095, 443-106</tspan></text><text
       transform="matrix(1,0,0,-1,99,483.67)"
       style="font-variant:normal;font-weight:500;font-stretch:normal;font-size:20px;font-family:'Rubik Medium';-inkscape-font-specification:Rubik-Medium;writing-mode:lr-tb;fill:#000000;fill-opacity:1;fill-rule:nonzero;stroke:none"
       id="text70"><tspan
         x="0 12.24 21.84 39.900002 51.34 56.639999"
         y="0"
         id="tspan68">E-mail</tspan></text><text
       transform="matrix(1,0,0,-1,99,457.67)"
       style="font-variant:normal;font-weight:300;font-stretch:normal;font-size:20px;font-family:'Rubik Light';-inkscape-font-specification:Rubik-Light;writing-mode:lr-tb;fill:#000000;fill-opacity:1;fill-rule:nonzero;stroke:none"
       id="text74"><tspan
         x="0 4.46 16.08 23.059999 34.220001 50.740002 61.459999 71.199997 78.160004 89.959999 95.839996 100.6 107.56"
         y="0"
         id="tspan72">info@a-rnr.ru</tspan></text><text
       transform="matrix(1,0,0,-1,99,418.67)"
       style="font-variant:normal;font-weight:500;font-stretch:normal;font-size:20px;font-family:'Rubik Medium';-inkscape-font-specification:Rubik-Medium;writing-mode:lr-tb;fill:#000000;fill-opacity:1;fill-rule:nonzero;stroke:none"
       id="text78"><tspan
         x="0 15.92 27.48"
         y="0"
         id="tspan76">Web</tspan></text><text
       transform="matrix(1,0,0,-1,99,392.67)"
       style="font-variant:normal;font-weight:300;font-stretch:normal;font-size:20px;font-family:'Rubik Light';-inkscape-font-specification:Rubik-Light;writing-mode:lr-tb;fill:#000000;fill-opacity:1;fill-rule:nonzero;stroke:none"
       id="text82"><tspan
         x="0 15.72 31.440001 46.32 51.080002 61.799999 71.540001 78.5 90.300003 96.18 100.94 107.9"
         y="0"
         id="tspan80">www.a-rnr.ru</tspan></text><text
       transform="matrix(1,0,0,-1,99,353.67)"
       style="font-variant:normal;font-weight:500;font-stretch:normal;font-size:20px;font-family:'Rubik Medium';-inkscape-font-specification:Rubik-Medium;writing-mode:lr-tb;fill:#000000;fill-opacity:1;fill-rule:nonzero;stroke:none"
       id="text86"><tspan
         x="0 13.7 25.4 36.959999 49.540001 61.099998 73.580002 86.059998 97.580002 102.14 114 118.56 130.84 142.39999 151.32001 163.8 175.24001 185.86 198.14 209.58 222.34 234.82001"
         y="0"
         id="tspan84">Сведения о регистрации</tspan></text><text
       transform="matrix(1,0,0,-1,99,327.67)"
       style="font-variant:normal;font-weight:300;font-stretch:normal;font-size:20px;font-family:'Rubik Light';-inkscape-font-specification:Rubik-Light;writing-mode:lr-tb;fill:#000000;fill-opacity:1;fill-rule:nonzero;stroke:none"
       id="text102"><tspan
         x="0 13.02 23.860001 35.779999 47.299999 58.220001 68.160004 78.998001 90.218002 99.737999 110.458 120.398 131.23801 142.39799 147.558 158.718 163.87801 171.998 183.158 193.87801 204.45799 215.978 226.698 238.31799 249.03799 258.978 269.81799 280.73801 292.65799 304.578 315.73801 327.65799 332.81799 344.43799 355.358 363.71799 375.638 386.358 396.298 407.918 418.638 430.65799 442.578 454.49799 459.65799 482.23801 484.73999 495.94 507.01999 518.91998 530.35999 535.52002 546.67999 556.62 561.78003 572.97998 580.94 585.31799 597.638 608.83801 612.23798 620.198 631.638 642.83801"
         y="0"
         id="tspan88">Свидетельство о государственной регистрации № 2945 от 21.02.1996</tspan><tspan
         x="0 13.24 23.959999 35.880001 47.040001 57.880001 69.800003 80.959999 92.879997 98.040001 106.158 117.318 128.03799 138.618 150.138 160.858 172.478 183.198 193.138 203.978 214.89799 226.81799 238.73801 251.918 263.83801 268.99799 280.61801 291.53799 299.89801 311.81799 322.53799 332.478 344.09799 354.81799 366.83801 378.758 389.918 401.83801 413.758 426.93799 438.858 444.01801 455.93799 467.09799 480.37799 491.298 502.918 507.73801 512.89801 520.85797 533.17798 544.37799 554.11798 562.078 574.39801 586.71802 597.914 609.55402 621.45398 632.89398 644.09399"
         y="26"
         id="tspan90">Основной государственный регистрационный номер: 1027100964527</tspan><tspan
         x="0 13.6 25.52 37.540001 48.459999 60.380001 70.220001 82.139999 92.519997 97.68 109.6 120.32 125.48 136.64 147.36 157.94 173.84 184.75999 195.48 205.42 216.25999 227.48 238.39999 250.32001 262.23999 273.16 278.32001 289.84 300.76001 311.14001 321.07999 331.91599 343.13599 352.65601 364.57599 375.73599 386.45599 396.396 408.31601 413.47601 424.996 436.15601 441.31601 452.15601 463.07599 474.59601 485.51599 497.436 509.35599 524.61603 529.776 541.396 552.31598 563.23602 573.95599 583.896 595.51599 606.23602 611.396 622.23602 633.45599 644.17603 655.69598 666.53198 677.75201 687.27197 699.29199 710.21198 721.052"
         y="52"
         id="tspan92">Лицензия на осуществление деятельности по ведению реестра владельцев </tspan><tspan
         x="0 12.02 22.940001 34.860001 46.779999 59.959999 70.32 75.480003 86.82 97.400002 110.68 121.4 129.75999 134.92 157.5 160 172.32001 184.22 194.84 203.75999 211.72 223.24001 234.67999 247.03999 258.94 268.67999 281 293.32001 305.64001 317.95999 330.28 338.23999 343.39999 354.56 364.5 369.66 380.85999 390.89801 394.298 402.258 410.21799 414.978 426.17801 438.49799 450.81799 462.01801 467.17801 478.51801 489.43799 499.27802 504.43799 515.59802 523.95801 535.578 546.29797 558.21802 570.138 580.67798 591.59802 603.51801 615.43799 625.81799 630.97803 641.698 653.31799 664.47803 674.59802 685.31799"
         y="78"
         id="tspan94">ценных бумаг № 042-13984-000001 от 29.11.2002 без ограничения срока </tspan><tspan
         x="0 11.52 22.440001 34.360001 45.080002 55.02 65.860001 77.779999 88.160004"
         y="104"
         id="tspan96">действия.</tspan><tspan
         x="0 14 24.719999 36.639999 49.919998 60.84 72.760002 83.919998 94.760002 105.48 117.4 129.32001 140.24001 145.39999 156.62 168.53999 180.56 191.48 203.39999 213.24001 225.16 236.39799 246.978 262.23801 278.138 289.05801 297.17599 308.336 313.496 324.65601 336.276 344.63599 355.35599 367.276 377.996 382.73599 387.896 398.73599 411.91599 423.436 434.15601 444.996 460.37601 471.29599 479.414 490.57401 495.73401 507.65399 518.87402 530.79401 535.95398 547.474 558.39398 570.01398 580.93402 592.09399 605.67401 616.83398 628.45398 641.73401 653.65399 664.49402 679.87402 690.79401 698.91199 710.07202"
         y="130"
         id="tspan98">Наименование лицензирующего органа, выдавшего или переоформившего </tspan><tspan
         x="0 11.22 23.139999 35.16 46.080002 58 67.839996 79.760002 95.019997 100.18 115.52 120.68 134.858 145.778 157.698 167.638 179.258 189.978 201.198 210.718 222.638 235.81799 247.73801 252.89799 264.23801 274.95801 286.87799 296.99799 302.15799 314.71799 325.87799 336.59799 347.31799 359.23801 371.15799 381.87799 391.496 402.65601 414.57599 419.73599 436.23599 447.15601 458.67599 469.59601 481.216 491.936 503.95599 515.87598 527.79602"
         y="156"
         id="tspan100">лицензию — Центральный банк Российской Федерации.</tspan></text><text
       transform="matrix(1,0,0,-1,891,821.67)"
       style="font-variant:normal;font-weight:500;font-stretch:normal;font-size:28px;font-family:'Rubik Medium';-inkscape-font-specification:Rubik-Medium;writing-mode:lr-tb;fill:#000000;fill-opacity:1;fill-rule:nonzero;stroke:none"
       id="text106"><tspan
         x="0 19.431999 35.448002 53.060001 70.531998 85.400002 102.004 119.196"
         y="0"
         id="tspan104">Аудитор </tspan></text><text
       transform="matrix(1,0,0,-1,891,769.67)"
       style="font-variant:normal;font-weight:300;font-stretch:normal;font-size:20px;font-family:'Rubik Light';-inkscape-font-specification:Rubik-Light;writing-mode:lr-tb;fill:#000000;fill-opacity:1;fill-rule:nonzero;stroke:none"
       id="text118"><tspan
         x="0 13.52 24.74 35.119999 40.279999 51.799999 63.419998 74.580002 85.419998 96.339996 107.86 118.78 130.7 142.62 153 158.16 168.88 179.46001 190.98 202.89999 212.84 223.56 228.72 242.3 254.22 266.14001 276.85999 288.78 299.5 310.66 321.5 332.66 344.57999 349.73999 360.89999 370.84 381.38 392.29999 402.23999 414.16 425.32001 436.04001 445.98001 457.89999 462.64001 467.79999 478.51999 489.67999 500.39999 510.34 521.06 531.90002 543.12 554.03998 565.96002 577.88 589.03998 600.96002"
         y="0"
         id="tspan108">Для проведения аудита финансовой отчетности, составленной </tspan><tspan
         x="0 10.84 15.852 26.572001 37.731998 48.891998 58.832001 69.671997 80.592003 90.531998 101.252 111.192 122.032 133.952 145.87199 150.884 161.604 166.616 178.23599 189.396 200.116 210.836 222.756 234.67599 245.396 255.51601 267.436 280.716 292.63599 297.64801 309.56799 314.57999 327.85999 338.78 353.76001 365.28 375.85999 387.78 398.5 410.12 421.28 432.79999 444.72 457.89999 471.17999 483.10001 488.10999 498.82999 508.76999 519.48999 531.40997 542.92999 553.65002 565.27002 575.21002 585.92999 599.21002 611.13 616.14203 629.72198 641.64203 653.56201 664.28198 676.20203 686.922 698.08197 708.922 720.08197 732.00201"
         y="26"
         id="tspan110">в соответствии с российскими и международными стандартами финансовой </tspan><tspan
         x="0 11.16 21.1 31.639999 42.560001 52.5 64.419998 75.580002 86.300003 96.239998 108.16 112.9 118.06 129.58 141.2 153.12 163.96001 175.17999 186.10001 196.64 207.56 219.48 230.64 235.8 248.8 262.04001 267.20001 279.26001 291.54001 305.54001 321.14001 330.57599 342.63599"
         y="52"
         id="tspan112">отчетности, привлечено АО «КПМГ».</tspan><tspan
         x="0 13 26.24 31.4 43.459999 55.740002 69.739998 85.339996 94.779999 106.84 112 122.38 133.22 144.44 154.82001 165.74001 175.67999 186.39999 196.78 201.94 212.48 223.7 234.62 246.53999 257.70001 270.98001 276.14001 289.16 299.88 313.16 324.32001 335.94 346.85999 355.22 365.216 376.436 388.35599 399.59601 409.836 420.75601 434.03601 445.19601 457.116 462.276 473.436 485.056 493.41599 504.13599 516.05603 527.97601 537.81598 548.53601 560.55603 572.47601 584.396 589.55603 600.276 610.85602 622.37598 634.29602 644.23602 655.396 667.01599 678.17603 689.01599"
         y="78"
         id="tspan114">АО «КПМГ» является членом Саморегулируемой организации аудиторов </tspan><tspan
         x="0 13 23.719999 34.439999 45.599998 57.619999 69.540001 80.260002 92.279999 104.2 114.58 119.74 131.8 144.82001 155.98 167.5 178.73801 189.31799 204.298 215.218 225.938 235.87801 246.718 257.87799 269.93799 275.09799 280.83801 293.858 306.418 319.65799 324.81799 337.81799 350.81799 363.83801 370.21799"
         y="104"
         id="tspan116">Ассоциация «Содружество» (СРО ААС).</tspan></text><text
       transform="matrix(1,0,0,-1,891,626.67)"
       style="font-variant:normal;font-weight:500;font-stretch:normal;font-size:20px;font-family:'Rubik Medium';-inkscape-font-specification:Rubik-Medium;writing-mode:lr-tb;fill:#000000;fill-opacity:1;fill-rule:nonzero;stroke:none"
       id="text122"><tspan
         x="0 16.24 27.799999 39.240002 49.860001 61.720001 66.279999 78.760002 90.199997 101.5 113.36 130.53999 143.12 154.67999 167.16 179.64"
         y="0"
         id="tspan120">Место нахождения</tspan></text><text
       transform="matrix(1,0,0,-1,891,600.67)"
       style="font-variant:normal;font-weight:300;font-stretch:normal;font-size:20px;font-family:'Rubik Light';-inkscape-font-specification:Rubik-Light;writing-mode:lr-tb;fill:#000000;fill-opacity:1;fill-rule:nonzero;stroke:none"
       id="text128"><tspan
         x="0 7.96 19.16 30.6 38.560001 46.52 58.459999 63.200001 68.360001 80.919998 92.080002 102.8 113.52 125.44 135.82001 140.56 145.72 152.31799 157.078 162.23801 177.838 188.998 199.718 209.838 220.67799 231.39799 236.138 241.298 252.81799 264.43799 275.59799 286.31799 297.83801 308.758 318.87799 328.81799 333.978 346.91599 358.13599 370.056 383.336 394.85599 406.776 418.69601 429.41599 439.53601 451.45599 463.37601 468.116 473.276 484.79599 495.95599 509.23599 514.396 522.35602 533.99597 538.73602 543.896 554.61603 564.55603 575.93402 580.69397 585.854 597.07397 601.81403 606.974 617.69397 627.63397 632.39398 637.55402 649.07397 653.81403"
         y="0"
         id="tspan124">129110, Россия, г. Москва, проспект Олимпийский, дом 16, стр. 5, эт. 3, </tspan><tspan
         x="0 11.52 22.68 35.959999 40.720001 45.880001 50.720001 55.459999 60.619999 70.239998 81.400002 94.68 99.440002 104.6 115.558 127.458"
         y="26"
         id="tspan126">пом. I, ком. 24E</tspan></text><text
       transform="matrix(1,0,0,-1,891,535.67)"
       style="font-variant:normal;font-weight:500;font-stretch:normal;font-size:20px;font-family:'Rubik Medium';-inkscape-font-specification:Rubik-Medium;writing-mode:lr-tb;fill:#000000;fill-opacity:1;fill-rule:nonzero;stroke:none"
       id="text132"><tspan
         x="0 12.12 23.58 35.66 47.220001 62.5 74.360001"
         y="0"
         id="tspan130">Телефон</tspan></text><text
       transform="matrix(1,0,0,-1,891,509.67)"
       style="font-variant:normal;font-weight:300;font-stretch:normal;font-size:20px;font-family:'Rubik Light';-inkscape-font-specification:Rubik-Light;writing-mode:lr-tb;fill:#000000;fill-opacity:1;fill-rule:nonzero;stroke:none"
       id="text136"><tspan
         x="0 9.7399998 14.9 20.42 32.119999 43.560001 55 61.380001 66.540001 77.598 89.117996 98.098 107.838 119.738 131.638 140.138 149.87801"
         y="0"
         id="tspan134">7 (495) 937-44-77</tspan></text><text
       transform="matrix(1,0,0,-1,891,470.67)"
       style="font-variant:normal;font-weight:500;font-stretch:normal;font-size:20px;font-family:'Rubik Medium';-inkscape-font-specification:Rubik-Medium;writing-mode:lr-tb;fill:#000000;fill-opacity:1;fill-rule:nonzero;stroke:none"
       id="text140"><tspan
         x="0 17.860001 29.299999 40.299999"
         y="0"
         id="tspan138">Факс</tspan></text><text
       transform="matrix(1,0,0,-1,891,444.67)"
       style="font-variant:normal;font-weight:300;font-stretch:normal;font-size:20px;font-family:'Rubik Light';-inkscape-font-specification:Rubik-Light;writing-mode:lr-tb;fill:#000000;fill-opacity:1;fill-rule:nonzero;stroke:none"
       id="text144"><tspan
         x="0 12.56 17.719999 27.459999 32.619999 38.139999 49.84 61.279999 72.720001 79.099998 84.260002 95.318001 106.838 115.818 125.558 137.45799 149.358 158.778 170.218"
         y="0"
         id="tspan142">+ 7 (495) 937-44-99</tspan></text><text
       transform="matrix(1,0,0,-1,891,405.67)"
       style="font-variant:normal;font-weight:500;font-stretch:normal;font-size:20px;font-family:'Rubik Medium';-inkscape-font-specification:Rubik-Medium;writing-mode:lr-tb;fill:#000000;fill-opacity:1;fill-rule:nonzero;stroke:none"
       id="text148"><tspan
         x="0 12.24 21.84 39.900002 51.34 56.639999"
         y="0"
         id="tspan146">E-mail</tspan></text><text
       transform="matrix(1,0,0,-1,891,379.67)"
       style="font-variant:normal;font-weight:300;font-stretch:normal;font-size:20px;font-family:'Rubik Light';-inkscape-font-specification:Rubik-Light;writing-mode:lr-tb;fill:#000000;fill-opacity:1;fill-rule:nonzero;stroke:none"
       id="text154"><tspan
         x="0 17.559999 28.719999 38.560001 49.279999 60.18 75.900002 92.419998 102.16 113.78 131.34 142.96001 147.72 154.67999"
         y="0"
         id="tspan150">moscow@kpmg.ru</tspan><tspan
         x="-857.40002 -849.44 -837.12"
         y="-643.34003"
         id="tspan152">103</tspan></text><g
       id="g156"><g
         id="g158"><g
           id="g160"
           clip-path="url(#clipPath164)"><text
             transform="matrix(1,0,0,-1,99,1023)"
             style="font-variant:normal;font-weight:300;font-stretch:normal;font-size:20px;font-family:'Rubik Light';-inkscape-font-specification:Rubik-Light;writing-mode:lr-tb;fill:#000000;fill-opacity:1;fill-rule:nonzero;stroke:none"
             id="text168"><tspan
               x="0 13.24 18.4 28.02 39.18 52.459999 63.98 74.699997 86.620003 98.540001"
               y="0"
               id="tspan166">О компании</tspan></text></g></g></g></g></svg>
