<?xml version="1.0" encoding="UTF-8" standalone="no"?>
<?xml-stylesheet type="text/css" href="main.css" ?>
<svg
   xmlns:dc="http://purl.org/dc/elements/1.1/"
   xmlns:cc="http://creativecommons.org/ns#"
   xmlns:rdf="http://www.w3.org/1999/02/22-rdf-syntax-ns#"
   xmlns:svg="http://www.w3.org/2000/svg"
   xmlns="http://www.w3.org/2000/svg"
   version="1.1"
   id="svg2"
   xml:space="preserve"
   width="2560"
   height="1440"
   viewBox="0 0 2560 1440"><metadata
     id="metadata8"><rdf:RDF><cc:Work
         rdf:about=""><dc:format>image/svg+xml</dc:format><dc:type
           rdf:resource="http://purl.org/dc/dcmitype/StillImage" /></cc:Work></rdf:RDF></metadata><defs
     id="defs6"><clipPath
       clipPathUnits="userSpaceOnUse"
       id="clipPath20"><path
         d="M 0,1080 H 1920 V 0 H 0 Z"
         id="path18" /></clipPath><clipPath
       clipPathUnits="userSpaceOnUse"
       id="clipPath318"><path
         d="M 0,0 H 1920 V 1080 H 0 Z"
         id="path316" /></clipPath><clipPath
       clipPathUnits="userSpaceOnUse"
       id="clipPath340"><path
         d="M 0,1080 H 1920 V 0 H 0 Z"
         id="path338" /></clipPath></defs><g
     id="g10"
     transform="matrix(1.3333333,0,0,-1.3333333,0,1440)"><g
       id="g12"><g
         id="g14"><g
           id="g16"
           clip-path="url(#clipPath20)"><path
             d="M 0,0 H 1920 V 1080 H 0 Z"
             style="fill:#ffffff;fill-opacity:1;fill-rule:nonzero;stroke:none"
             id="path22" /></g></g></g><text
       transform="matrix(1,0,0,-1,99,953.8201)"
       style="font-variant:normal;font-weight:500;font-stretch:normal;font-size:28px;font-family:'Rubik Medium';-inkscape-font-specification:Rubik-Medium;writing-mode:lr-tb;fill:#000000;fill-opacity:1;fill-rule:nonzero;stroke:none"
       id="text26"><tspan
         x="0 19.236 35.251999 47.487999 64.092003 81.564003 98.167999 115.36 131.54401 151.256 167.86 185.332 200.2 217.672 234.276"
         y="0"
         id="tspan24">Вагоноремонтное</tspan></text><text
       transform="matrix(1,0,0,-1,99,919.8281)"
       style="font-variant:normal;font-weight:500;font-stretch:normal;font-size:28px;font-family:'Rubik Medium';-inkscape-font-specification:Rubik-Medium;writing-mode:lr-tb;fill:#000000;fill-opacity:1;fill-rule:nonzero;stroke:none"
       id="text30"><tspan
         x="0 17.136 34.327999 50.512001 68.124001 85.260002 102.452 119.924 136.052 150.92 168.392 184.576 190.96001 208.17999 221.5612 238.7532 254.8812 269.88919 287.36121"
         y="0"
         id="tspan28">предприятие «Грязи»</tspan></text><text
       transform="matrix(1,0,0,-1,99,880.8201)"
       style="font-variant:normal;font-weight:300;font-stretch:normal;font-size:20px;font-family:'Rubik Light';-inkscape-font-specification:Rubik-Light;writing-mode:lr-tb;fill:#000000;fill-opacity:1;fill-rule:nonzero;stroke:none"
       id="text40"><tspan
         x="0 13.06 18.219999 30.139999 45.200001 56.419998 67.339996 72.5 83.699997 96.019997 107.22 119.54 124.7 132.82001 143.98 155.5 166.22 171.38 183.3 194.02 205.53999 216.498 227.718 239.638 251.558 262.77802 273.93799 284.65799 294.17801 299.33801 311.698 323.138 328.298 339.51801 350.43799 360.37799 365.53799 376.258 387.418 392.578 404.09799 416.01801 426.39801 431.55801 442.71799 453.43799 465.358 476.51801 487.358 498.078 509.99799 521.91803 532.29797"
         y="0"
         id="tspan32">В июле 2020 года исполнилось 85 лет со дня основания </tspan><tspan
         x="0 10.84 21.559999 29.68 40.84 52.759998 63.919998 75.540001 86.459999 99.739998 110.9 122.82 132.75999 144.67999 155.84 163.95799 175.118 180.278 191.798 203.418 214.338 225.858 237.37801 248.998 260.918 271.298 281.23801 293.15799 303.53799 308.698 314.836 327.896 340.45599 354.23599 360.616 365.776 377.836 385.936 397.556 407.936 417.776 429.69601 441.75601"
         y="26"
         id="tspan34">вагоноремонтного предприятия (ВРП) «Грязи».</tspan><tspan
         x="0 12.4 22.34 33.5 38.66 50.18 61.34 71.879997 82.800003 94.419998 106.34 117.26 128.17999 133.34 144.5 155.84 171.74001 182.66 193.38 203.32001 214.16 225.32001 230.48 244.48 254.58 266.85999 272.01999 278.39999 291.39999 301.51999 313.54001 325.45999 336.62 348.54001 359.45999 371.07999 383 394.16 405.07999 410.23999 421.39999 432.73999 448.64001 459.56 470.28 480.22 491.06 502.22"
         y="65"
         id="tspan36">Это дочернее общество ПГК (Акционерное общество </tspan><tspan
         x="0 12.06 25.120001 35.84 43.959999 55.119999 67.040001 78.199997 89.82 100.74 114.02 125.18 137.10001 147.03999 158.96001 170.12 181.03999 186.2 197.72 209.34 220.25999 231.78 243.3 254.92 266.84 277.22 287.16 299.07999 310 315.16 327.22 335.31601 346.936 357.31601 367.15601 379.07599 391.13599 397.51599 402.67599 413.396 424.91599 435.836 447.85599 459.776 470.496 481.716 493.63599 503.47601"
         y="91"
         id="tspan38">«Вагоноремонтное предприятие «Грязи») специализи</tspan></text><text
       transform="matrix(1,0,0,-1,614.396,789.8201)"
       style="font-variant:normal;font-weight:300;font-stretch:normal;font-size:20px;font-family:'Rubik Light';-inkscape-font-specification:Rubik-Light;writing-mode:lr-tb;fill:#000000;fill-opacity:1;fill-rule:nonzero;stroke:none"
       id="text44"><tspan
         x="0"
         y="0"
         id="tspan42">-</tspan></text><text
       transform="matrix(1,0,0,-1,99,763.8201)"
       style="font-variant:normal;font-weight:300;font-stretch:normal;font-size:20px;font-family:'Rubik Light';-inkscape-font-specification:Rubik-Light;writing-mode:lr-tb;fill:#000000;fill-opacity:1;fill-rule:nonzero;stroke:none"
       id="text54"><tspan
         x="0 11.24 21.48 32.400002 42.34 53.060001 63.439999 68.599998 80.519997 91.239998 96.400002 106.34 117.26 127.38 137.96001 153.86 164.78 178.06 182.8 187.96001 199.48 210.39999 221.92 233.08 243.92 254.64 264.25601 275.41599 288.69601 293.85599 305.776 310.936 321.056 331.776 343.29599 355.216 365.15601 375.87601 387.09601 396.616 408.53601 419.69601 432.97601 438.13599 449.75601 460.67599 473.95599 485.116 497.03601 506.97601 517.896"
         y="0"
         id="tspan46">руется на текущем, деповском и капитальном ремонте </tspan><tspan
         x="0 8.3599997 19.6 30.18 40.02 51.18 62.02 75.199997 85.559998 90.720001 101.56 112.28 120.398 131.558 143.478 154.638 165.478 170.638 182.258 192.978 202.81799 214.03799 225.95799 236.498 248.418 261.59799 271.95801 277.11801 287.05801 298.978 310.49799 321.65799 332.49799 337.258 342.418 354.978 365.698 376.418 387.93799 398.896 410.116 421.276 436.25601 447.17599 459.09601 471.01599 481.936"
         y="26"
         id="tspan48">грузовых вагонов различных типов. Расположение </tspan><tspan
         x="0 11.52 23.139999 34.060001 45.580002 57.099998 68.720001 80.639999 91.019997 100.96 112.88 123.26 128.42 139.25999 144.42 158.02 169.94 181.46001 192.38 204.39999 214.01801 225.17799 237.09801 242.258 253.418 264.758 275.978 286.698 297.418 307.358 319.27802 324.43799 335.27802 340.43799 352.358 363.27802 374.798 385.95801 396.67801 408.298 419.21799 430.73801 441.45801 451.39801 462.23801 473.15799 485.078 496.99799 508.15799 520.078"
         y="52"
         id="tspan50">предприятия в Липецкой области в непосредственной </tspan><tspan
         x="0 11.34 22.559999 34.48 44.32 55.48 66.199997 76.139999 88.059998 93.220001 104.38 114.32 119.48 129.60001 140.82001 156.08 166.62 177.53999 188.38 199.53999 207.658 218.81799 223.978 234.09801 245.31799 257.23801 268.15799 280.078 290.01801 300.73801 305.89801 317.57599 328.73599 342.01599 353.53601 364.25601 376.17599 388.09601 400.01599 405.17599 420.51599 425.67599 439.67599 450.836 461.67599 472.634 483.854"
         y="78"
         id="tspan52">близости от ключевого клиента Компании — Новоли</tspan></text><text
       transform="matrix(1,0,0,-1,594.774,685.8201)"
       style="font-variant:normal;font-weight:300;font-stretch:normal;font-size:20px;font-family:'Rubik Light';-inkscape-font-specification:Rubik-Light;writing-mode:lr-tb;fill:#000000;fill-opacity:1;fill-rule:nonzero;stroke:none"
       id="text58"><tspan
         x="0"
         y="0"
         id="tspan56">-</tspan></text><text
       transform="matrix(1,0,0,-1,99,659.8201)"
       style="font-variant:normal;font-weight:300;font-stretch:normal;font-size:20px;font-family:'Rubik Light';-inkscape-font-specification:Rubik-Light;writing-mode:lr-tb;fill:#000000;fill-opacity:1;fill-rule:nonzero;stroke:none"
       id="text64"><tspan
         x="0 11.52 22.440001 34.459999 44.080002 55.240002 63.360001 74.519997 79.68 92.959999 103.88 113.82 124.54 135.75999 146.98 157.56 169.17999 177.53999 189.46001 200 210.92 221.64 231.258 242.418 250.53799 261.698 266.858 276.478 287.638 300.918 312.258 324.17801 336.09799 346.81799 356.758 367.478 372.638 378.216 386.57599 397.81601 408.396 419.91599 431.436 442.15601 447.31601 461.31601 474.91599 490.51599 502.79599 509.17599 514.336 529.67603"
         y="0"
         id="tspan60">пецкого металлургического комбината (группа НЛМК) — </tspan><tspan
         x="0 11.52 22.68 32.52 43.360001 54.32 65.540001 75.919998 86.839996 96.779999 101.94 113.1 124.62 134.56 146.48 159.75999 171.67999 181.52 193.44 205.06 216.22 227.06 237.78 247.72 257.23999 262.39999 273.62 284.78 293.14001 305.06 315.78 325.72 337.64001 347.76001 358.34 363.5 375.12 386.04001 399.32001 410.48001 422.39999 432.34 443.5 454.34 459.5 471.42001 476.57999 486.51999 497.44"
         y="26"
         id="tspan62">позволяет оптимизировать логистику ремонтов и тех</tspan></text><text
       transform="matrix(1,0,0,-1,606.8,633.8201)"
       style="font-variant:normal;font-weight:300;font-stretch:normal;font-size:20px;font-family:'Rubik Light';-inkscape-font-specification:Rubik-Light;writing-mode:lr-tb;fill:#000000;fill-opacity:1;fill-rule:nonzero;stroke:none"
       id="text68"><tspan
         x="0"
         y="0"
         id="tspan66">-</tspan></text><text
       transform="matrix(1,0,0,-1,99,607.8201)"
       style="font-variant:normal;font-weight:300;font-stretch:normal;font-size:20px;font-family:'Rubik Light';-inkscape-font-specification:Rubik-Light;writing-mode:lr-tb;fill:#000000;fill-opacity:1;fill-rule:nonzero;stroke:none"
       id="text76"><tspan
         x="0 11.92 23.84 34.380001 45.299999 56.02 65.639999 76.800003 84.919998 96.080002 101.24 112.4 123.74 134.46001 145.67999 156.25999 171.24001 183.16 194 204.72 216.64 228.56 238.94 244.10001 255.62 266.78 278.29999 289.14001 301.06 316.04001 327.95999 339.12 347.23599 358.396 363.556 374.276 385.436 396.15601 406.09601 416.81601 427.65601 438.37601"
         y="0"
         id="tspan70">нического обслуживания подвижного состава.</tspan><tspan
         x="0 18.280001 29.620001 41.540001 52.759998 63.68 75.599998 87.519997 100.7 112.62 117.78 125.898 137.058 148.578 153.73801 166.798 179.358 193.358 198.51801 210.578 218.67799 230.298 240.67799 250.51801 262.43799 274.49799 279.65799 290.49799 301.21799 311.15799 322.77802 333.698 343.638 355.55801 366.77802 377.93799 383.09799 392.93799 403.65799 414.49799 425.418 437.03799 452.418 463.33801 475.258 487.17801 498.09799 511.37799"
         y="39"
         id="tspan72">Юбилейный год ВРП «Грязи» встретило завершением </tspan><tspan
         x="0 9.9399996 21.559999 32.48 42.84 54.060001 64.980003 74.919998 86.839996 97.760002 109.68 114.84 124.458 135.618 148.89799 160.418 171.638 182.558 192.17799 202.89799 214.81799 225.978 237.89799 243.058 254.67799 265.59799 275.216 286.37601 298.29599 309.01599 318.95599 330.19601 340.776 350.896 362.91599 374.836 386.75601 391.91599 403.836 408.996 419.57599 430.41599 441.254 452.474"
         y="65"
         id="tspan74">трехлетней комплексной реконструкции и увели</tspan></text><text
       transform="matrix(1,0,0,-1,563.394,542.8201)"
       style="font-variant:normal;font-weight:300;font-stretch:normal;font-size:20px;font-family:'Rubik Light';-inkscape-font-specification:Rubik-Light;writing-mode:lr-tb;fill:#000000;fill-opacity:1;fill-rule:nonzero;stroke:none"
       id="text80"><tspan
         x="0"
         y="0"
         id="tspan78">-</tspan></text><text
       transform="matrix(1,0,0,-1,99,516.8201)"
       style="font-variant:normal;font-weight:300;font-stretch:normal;font-size:20px;font-family:'Rubik Light';-inkscape-font-specification:Rubik-Light;writing-mode:lr-tb;fill:#000000;fill-opacity:1;fill-rule:nonzero;stroke:none"
       id="text100"><tspan
         x="0 10.54 21.459999 33.380001 45.299999 56.220001 69.5 74.660004 87.940002 99.099998 115 126.92 138.08 148.8 158.74001 170.66 175.42 180.58 193.64 198.8 210 222.32001 233.52 245.84 251 259.11801 270.27802 281.798 292.37799 297.53799 308.698 320.03799 330.81799 341.73801 355.01801 360.17801 371.698 382.918 393.638 405.55801 416.71799 427.55801 440.73801 451.09799"
         y="0"
         id="tspan82">чением мощности. В 2020 году объем плановых </tspan><tspan
         x="0 11.62 22.540001 35.82 46.98 58.900002 68.839996 80 90.839996 96 107.52 118.68 123.84 134.56 146.17999 156.89999 167.74001 179.66 190.58 202.5 214.42 229.67999 234.84 245.56 250.72 261.92001 274.23999 282.20001 293.64001 298.79999 306.91599 318.07599 329.59601 340.75601 354.03601 359.19601 370.03601 383.216 394.836 405.996 416.716 421.87601 433.79599 444.51599 449.67599 457.63599 468.854 472.65601 484.09601 484.92001 499.73999 504.48001"
         y="26"
         id="tspan84">ремонтов по сравнению с 2019 годом вырос на 15,9 %, </tspan><tspan
         x="0 11.52 22.68 27.84 37.580002 42.740002 55.099998 64.839996 76.279999 81.440002 92.360001 103.88 115.8 127.72 139.64 151.66"
         y="52"
         id="tspan86">до 7 879 единиц.</tspan><tspan
         x="0 13.06 18.219999 28.940001 40.459999 52.080002 62.919998 74.139999 85.059998 90.220001 101.42 113.74 124.94 137.25999 142.42 150.53799 161.698 173.218 183.938 189.09801 202.158 214.718 228.718 233.87801 245.938 254.03799 265.65799 276.03799 285.87799 297.798 309.858 315.01801 326.53799 337.49799 348.71799 359.298 369.83801 381.758 392.978 404.138 409.298 420.918 431.638 441.478 453.09799 464.01801 479.39801 490.31799 502.23801 514.15802 525.078"
         y="91"
         id="tspan88">В апреле 2020 года ВРП «Грязи» получило разрешение </tspan><tspan
         x="0 11.92 22.639999 27.799999 39.419998 50.34 63.619999 74.779999 86.699997 96.639999 101.8 112.64 123.36 131.478 142.638 154.558 165.718 176.558 186.298 196.658 207.81799 219.338 230.858 241.778 253.39799 264.55801 275.39801 280.55801 292.078 303.298 313.67801 318.83801 330.358 341.27802 352.89801 363.81799 374.65799 385.81799 395.65799 405.77802 417.698 422.858 434.87799 445.798 459.078 469.99799 481.918 491.858 502.578 507.31799"
         y="117"
         id="tspan90">на ремонт вагонов-хопперов для перевозки цемента, </tspan><tspan
         x="0 10.54 20.48 31.639999 36.799999 48.32 59.48 69.32 80.160004 91.120003 102.34 114.26 125.48 136.64 141.8 153.42 164.14 174.86 190.24001 202.16 213.78 225.7 235.64 245.16 250.32001 262.23999 273.39999 286.67999 297.60001 309.51999 319.64001 330.85999 341.57999 351.51999 362.10001 373.336 383.91599 389.07599 400.23599 410.35599 421.07599 430.91599 444.09601 454.936 465.65601 476.57599 489.85599 503.03601 513.396"
         y="143"
         id="tspan92">что позволило расширить номенклатуру оказываемых </tspan><tspan
         x="0 10.24 20.959999 32.18 42.759998 51.119999 56.279999 68.199997 73.360001 84.519997 94.459999 106.08 117 130.28 141.44 153.36 163.3 175.22 186.84 198 208.84 219.56 229.5 239.02 244.17999 255.38 267.73999 277.48001 282.64001 293.56 305.07999 317 328.92001 340.84 352.85999 358.01999 368.73999 378.67999 389.84 397.95599 409.116 414.276 425.79599 436.95599 448.47601 459.31601 471.23599 486.216 498.13599 509.29599 517.414 528.57397"
         y="169"
         id="tspan94">услуг и отремонтировать 287 единиц этого подвижного </tspan><tspan
         x="0 10.72 21.879999 32.599998 42.540001 53.259998 64.099998 74.82"
         y="195"
         id="tspan96">состава.</tspan><tspan
         x="0 13.06 18.219999 30.139999 45.400002 57.32 68.239998 73.400002 84.739998 97.919998 109.14 114.3 125.92 136.84 147.56 158.78 170.7 180.53999 191.7 202.53999 213.25999 225.17999 230.34 241.86 253.48 264.64001 275.56 285.67999 295.62 300.78 312.84 326.84 338.45999 350.38 361.54001 372.88 384.5 395.42001 405.35999 416.28 428.20001 440.12 451.04001 456.20001 466.92001 477.04001 488.26001 498.98001"
         y="234"
         id="tspan98">В июне был реализован проект «Приобретение склад</tspan></text><text
       transform="matrix(1,0,0,-1,609.5,282.8201)"
       style="font-variant:normal;font-weight:300;font-stretch:normal;font-size:20px;font-family:'Rubik Light';-inkscape-font-specification:Rubik-Light;writing-mode:lr-tb;fill:#000000;fill-opacity:1;fill-rule:nonzero;stroke:none"
       id="text104"><tspan
         x="0"
         y="0"
         id="tspan102">-</tspan></text><text
       transform="matrix(1,0,0,-1,99,256.8201)"
       style="font-variant:normal;font-weight:300;font-stretch:normal;font-size:20px;font-family:'Rubik Light';-inkscape-font-specification:Rubik-Light;writing-mode:lr-tb;fill:#000000;fill-opacity:1;fill-rule:nonzero;stroke:none"
       id="text114"><tspan
         x="0 10.72 20.84 32.759998 43.119999 48.279999 59.799999 70.959999 84.239998 95.160004 111.06 121.98 133.89999 145.82001 157.74001 162.89999 169.03799 183.03799 195.218 208.23801 223.618 229.998 242.058 247.218 257.93799 263.09799 274.258 285.59799 301.49799 313.418 326.698 331.858 343.01801 354.358 365.138 376.05801 389.33801 400.49799 413.77802 418.93799 430.858 442.77802 453.61801 464.53799 475.258 485.198 497.11801 509.138 521.05798 532.97803"
         y="0"
         id="tspan106">ских помещений (НХСМ)» с общим объемом инвестиций </tspan><tspan
         x="0 11.44 16.6 29.879999 41.099998 53.02 58.18 69.417999 79.998001 91.337997 102.558 113.478 125.398 130.158 135.31799 147.718 157.658 168.81799 173.978 185.498 196.658 206.498 217.338 228.29601 239.51601 251.436 262.65601 273.81601 278.97601 289.69601 300.85599 310.97601 322.59601 333.31601 343.25601 355.17599 365.116 374.63599 379.79599 391.41599 402.13599 412.85599 423.216 434.37601 445.896 459.07599 464.23599 478.23599 488.336 500.616"
         y="26"
         id="tspan108">5 млн рублей. Это позволило сократить расходы ПГК </tspan><tspan
         x="0 11.92 22.639999 27.799999 37.740002 49.360001 60.080002 72 82.720001 94.239998 105.4 117.02 126.96 138.88 150.5 161.66 172.5 182.62 193.2 198.36 210.28 215.44 225.8 237.42 248.14 260.06 270.98001 282.89999 294.82001 305.73999 310.48001 315.64001 326.35999 331.51999 341.45999 352.17999 362.29999 377.28 388.20001 393.35999 404.51999 415.85999 426.78 437.5 449.01999 459.94 470.48001 482.39999 492.34 501.85999"
         y="52"
         id="tspan110">на транспортировку и хранение, а также обеспечить </tspan><tspan
         x="0 11.52 23.139999 34.060001 45.580002 57.099998 68.720001 80.639999 91.019997 100.96 112.88 123.8 128.96001 140.48 151.64 163.16 174.118 185.338 197.258 209.17799 219.118 229.95799 241.17799 250.698 262.61801 275.798 289.078 300.99799 306.15799 317.67801 328.89801 340.05801 355.95801 366.67801 378.198 388.578 401.858 413.77802 418.93799 430.45801 441.67801 452.05801 457.21799 467.578 479.198 489.918 501.83801"
         y="78"
         id="tspan112">предприятие дополнительными площадями для хране</tspan></text><text
       transform="matrix(1,0,0,-1,611.758,178.8201)"
       style="font-variant:normal;font-weight:300;font-stretch:normal;font-size:20px;font-family:'Rubik Light';-inkscape-font-specification:Rubik-Light;writing-mode:lr-tb;fill:#000000;fill-opacity:1;fill-rule:nonzero;stroke:none"
       id="text118"><tspan
         x="0"
         y="0"
         id="tspan116">-</tspan></text><text
       transform="matrix(1,0,0,-1,99,152.8201)"
       style="font-variant:normal;font-weight:300;font-stretch:normal;font-size:20px;font-family:'Rubik Light';-inkscape-font-specification:Rubik-Light;writing-mode:lr-tb;fill:#000000;fill-opacity:1;fill-rule:nonzero;stroke:none"
       id="text124"><tspan
         x="0 11.92 23.84 34.220001 39.380001 49 59.959999 71.18 82.099998 92.82 104.74 117.92 128.28 133.44 144.96001 155.67999 167.3 172.46001 184.38 189.53999 201.06 212.298 222.87801 231.23801 243.158 253.51801 258.67801 268.51801 279.23801 290.758 301.478 312.198 324.11801 337.298 347.65799 352.81799 363.358 374.078 384.798 394.73801 405.65799 417.578 422.73801 433.578 444.298 452.414 463.57401 475.49399 486.65399 497.49399"
         y="0"
         id="tspan120">ния колесных пар и других запасных частей вагонов.</tspan><tspan
         x="0 13.06 18.219999 28.940001 39.860001 51.779999 61.720001 72.099998 83.440002 95.059998 105.98 111.14 122.34 134.66 145.86 158.17999 163.34 171.45799 182.618 194.138 204.858 210.01801 220.858 226.01801 237.638 248.358 261.638 271.758 282.478 292.83801 297.99799 308.71799 319.87799 327.71799 338.93799 349.65799 365.03799 375.95801 387.87799 399.798 410.17801 415.33801 426.49799 431.65799 442.37799 453.53799 463.478 474.716 485.29599"
         y="39"
         id="tspan122">В сентябре 2020 года в рамках соглашения о сотруд</tspan></text><text
       transform="matrix(1,0,0,-1,595.816,113.8201)"
       style="font-variant:normal;font-weight:300;font-stretch:normal;font-size:20px;font-family:'Rubik Light';-inkscape-font-specification:Rubik-Light;writing-mode:lr-tb;fill:#000000;fill-opacity:1;fill-rule:nonzero;stroke:none"
       id="text128"><tspan
         x="0"
         y="0"
         id="tspan126">-</tspan></text><text
       transform="matrix(1,0,0,-1,693,745.3001)"
       style="font-variant:normal;font-weight:300;font-stretch:normal;font-size:20px;font-family:'Rubik Light';-inkscape-font-specification:Rubik-Light;writing-mode:lr-tb;fill:#000000;fill-opacity:1;fill-rule:nonzero;stroke:none"
       id="text134"><tspan
         x="0 11.92 23.84 34.380001 45.299999 56.02 65.959999 76.800003 87.720001 92.879997 103.6 108.76 122 135.24001 148.48 153.64 165.7 178.72 191 207.5 219.56 224.72 236.06 249.24001 260.45999 265.62 276.78 286.72 296.84 308.45999 321.64001 331.57999 336.73999 347.45999 358.38 370 380.84 392.76001 403.48001 415.39999 428.57999 440.5 445.66 457.67999 468.60001 480.51999 490.45999 502.07999"
         y="0"
         id="tspan130">ничестве с ООО «СКФ» был открыт сервисный центр </tspan><tspan
         x="0 11.52 22.68 27.84 38.68 49.84 60.560001 71.279999 81.220001 91.940002 103.86 115.02 125.86 137.78 147.72 158.558 169.778 179.298 191.218 202.37801 215.658 226.23801 231.39799 243.01801 253.938 267.21799 278.37799 290.298 300.23801 310.81799 315.978 326.09799 336.81799 347.53799 358.258 369.17801 379.11801 391.03799 404.21799 414.578 419.73801 431.258 442.418 453.93799 469.31799 481.23801 492.758 504.67801"
         y="26"
         id="tspan132">по восстановительному ремонту кассетных подшипни</tspan></text><text
       transform="matrix(1,0,0,-1,1209.598,719.3001)"
       style="font-variant:normal;font-weight:300;font-stretch:normal;font-size:20px;font-family:'Rubik Light';-inkscape-font-specification:Rubik-Light;writing-mode:lr-tb;fill:#000000;fill-opacity:1;fill-rule:nonzero;stroke:none"
       id="text138"><tspan
         x="0"
         y="0"
         id="tspan136">-</tspan></text><text
       transform="matrix(1,0,0,-1,693,693.3001)"
       style="font-variant:normal;font-weight:300;font-stretch:normal;font-size:20px;font-family:'Rubik Light';-inkscape-font-specification:Rubik-Light;writing-mode:lr-tb;fill:#000000;fill-opacity:1;fill-rule:nonzero;stroke:none"
       id="text142"><tspan
         x="0 9.6199999 20.780001 31.620001 36.681999 48.622002 59.762001 72.821999 86.641998 91.706001 103.806 115.306 126.384 131.448 142.968 154.188 164.56799 169.63 181.25 192.17 205.45 216.61 228.53 238.47 249.19 254.252 262.612 273.85199 284.43201 294.272 305.43201 316.272 329.452 339.81201 344.87399 355.71399 366.43399 374.55399 385.71399 397.634 408.79401 419.634 424.69601 438.69601 448.79599 461.07599 466.138 476.858 481.92001 491.92001 503.14001 513.71997"
         y="0"
         id="tspan140">ков STBU SKF для ремонта грузовых вагонов ПГК с улуч</tspan></text><text
       transform="matrix(1,0,0,-1,1217.26,693.3001)"
       style="font-variant:normal;font-weight:300;font-stretch:normal;font-size:20px;font-family:'Rubik Light';-inkscape-font-specification:Rubik-Light;writing-mode:lr-tb;fill:#000000;fill-opacity:1;fill-rule:nonzero;stroke:none"
       id="text146"><tspan
         x="0"
         y="0"
         id="tspan144">-</tspan></text><text
       transform="matrix(1,0,0,-1,693,667.3001)"
       style="font-variant:normal;font-weight:300;font-stretch:normal;font-size:20px;font-family:'Rubik Light';-inkscape-font-specification:Rubik-Light;writing-mode:lr-tb;fill:#000000;fill-opacity:1;fill-rule:nonzero;stroke:none"
       id="text162"><tspan
         x="0 15.38 26.299999 38.220001 50.139999 63.32 76.599998 88.519997 93.68 103.62 114.54 124.9 136.82001 148.74001 159.28 170.2 180.92 191.03999 202.96001 216.24001 228.16 233.32001 243.67999 254.39999 266.01999 276.73999 286.85999 296.79999 307.72 319.34 331.26001 341.98001 351.92001 363.84 373.95999 384.67999 397.95999 409.88 414.64001 419.79999 435.39999 446.56 462.45999 474.38 485.54001 496.26001 506.20001 515.71997"
         y="0"
         id="tspan148">шенными техническими характеристиками. Мощность </tspan><tspan
         x="0 11.92 23.08 33.919998 45.080002 53.200001 64.360001 69.519997 80.099998 90.639999 101.36 112.08 122.02 132.14 142.86 148.02 158.74001 169.89999 180.62 190.56 201.28 212.12 223.34 233.72 244.64 254.58 259.73999 269.48001 274.64001 284.57999 297.76001 308.48001 313.23999 318.39999 329.92001 341.07999 352.60001 367.98001 379.89999 391.42001 403.34 415.26001 424.87601 436.03601 446.87601 452.03601 462.87601 468.03601 476.15601 487.31601 498.836"
         y="26"
         id="tspan150">нового участка составляет 7 тыс. подшипников в год </tspan><tspan
         x="0 5.5799999 17.5 29.42 40.259998 51.18 61.900002 71.839996 83.760002 95.779999 107.7 119.62 124.78 135.62 140.78 152.3 163.92 175.08 186 196.12 206.06 211.22 226.56 231.72 243.36 247.856 260.216 265.37601 278.65601 289.87601 301.79599 306.95599 318.19601 328.776 340.116 351.336 362.25601 373.37601 379.75601 384.51599 389.67599 402.73599 407.896 419.09601 431.41599 442.616 454.936 460.09601 468.21399 479.37399 490.89401 501.474"
         y="52"
         id="tspan152">(инвестиции в проект — 6,8 млн рублей). В 2020 году </tspan><tspan
         x="0 11.34 24.52 35.740002 46.900002 52.060001 63.220001 73.160004 84.779999 95.699997 108.98 120.14 132.06 142 153.92 165.53999 176.7 187.53999 198.25999 210.17999 221.34 226.5 237.94 250.25999 262.16 267.32001 278.84 290 301.51999 316.89999 328.82001 340.34 352.26001 364.17999 374.29999 385.01999 389.76001 394.92001 404.53601 415.69601 425.63599 436.79599 448.41599 461.59601 472.51599 477.67599 489.29599 500.01599 511.936 522.85602 533.776"
         y="78"
         id="tspan154">было отремонтировано 504 подшипника, которые ранее </tspan><tspan
         x="0 11.62 22.540001 35.82 46.98 58.900002 68.839996 80.760002 92.379997 103.54 114.38 125.1 136.32001 148.24001 158.96001 168.48 173.64 184.36 194.3 205.46001 217.08 228.24001 240.16 252.08 264 277.28 289.20001 294.35999 305.88 317.5 328.42001 339.94 351.45999 363.07999 375 385.38 395.32001 407.23999 417.62 430.89999 442.82001"
         y="104"
         id="tspan156">ремонтировались сторонними предприятиями.</tspan><tspan
         x="0 13.02 23.940001 32.060001 43.220001 54.740002 66.660004 77.040001 82.199997 95.260002 107.82 121.82 126.98 139.03999 147.138 158.758 169.138 178.978 190.89799 202.95799 208.118 218.498 229.338 240.558 250.938 261.858 271.798 282.51801 292.89801 298.05801 308.89801 319.61801 334.59799 346.51801 359.698 372.978 378.138 388.858 398.798 410.418 421.138 431.078 441.99799 450.358 462.27802 472.81799 483.73801 494.45801 504.578 516.49799 529.77802"
         y="143"
         id="tspan158">Сегодня ВРП «Грязи» является важным стратегическим </tspan><tspan
         x="0 10.72 20.84 30.780001 42.700001 53.540001 64.699997 77.980003 83.139999 94.818001 105.978 119.258 130.778 141.498 153.418 165.338 177.258"
         y="169"
         id="tspan160">активом Компании.</tspan></text><text
       transform="matrix(1,0,0,-1,693,438.3)"
       style="font-variant:normal;font-weight:500;font-stretch:normal;font-size:28px;font-family:'Rubik Medium';-inkscape-font-specification:Rubik-Medium;writing-mode:lr-tb;fill:#000000;fill-opacity:1;fill-rule:nonzero;stroke:none"
       id="text168"><tspan
         x="0 17.388 33.599998 49.616001 65.632004 80.5 96.543999 114.016 120.4 135.26801 151.452 167.496 183.51199 206.83321 223.0172 235.2532 251.85719"
         y="0"
         id="tspan164">Участки текущего </tspan><tspan
         x="0 16.604 31.472 49.279999 65.463997 82.599998 99.204002 115.416 132.888 149.492 161.7252 178.32919 184.7132 201.9052 218.0892 237.80119 254.4052 271.8772 286.74521 302.7612 309.1452 319.28119 336.24921 355.7092 374.18921"
         y="33.992001"
         id="tspan166">отцепочного ремонта (ТОР)</tspan></text><text
       transform="matrix(1,0,0,-1,693,365.3)"
       style="font-variant:normal;font-weight:300;font-stretch:normal;font-size:20px;font-family:'Rubik Light';-inkscape-font-specification:Rubik-Light;writing-mode:lr-tb;fill:#000000;fill-opacity:1;fill-rule:nonzero;stroke:none"
       id="text178"><tspan
         x="0 13.06 18.219999 28.940001 40.099998 50.82 60.759998 71.480003 82.32 93.239998 98.400002 112.4 122.5 134.78 139.94 153.138 163.718 175.638 185.758 197.778 209.698 220.858 232.778 244.698 255.938 266.51801 281.77802 291.71799 296.87799 308.39801 319.23801 329.95801 335.11801 345.698 356.23801 366.95801 377.67801 387.61801 397.73801 408.45801 413.61801 423.55801 434.478 444.59799 455.17801 471.078 481.99799 490.11401 501.27399"
         y="0"
         id="tspan170">В составе ПГК функционируют два участка текущего </tspan><tspan
         x="0 11.16 21.1 33.119999 44.040001 55.560001 66.720001 77.260002 89.18 100.34 108.46 119.62 124.78 136.39999 147.32001 160.60001 171.75999 183.67999 193.62 204.34 209.5 215.078 226.698 237.618 250.89799 262.05801 273.978 283.918 289.078 299.918 310.638 318.75601 329.91599 341.836 352.996 363.836 368.996 379.836 384.996 396.15601 407.496 418.276 429.19601 442.47601 453.396 458.556 469.69601 482.25601 491.17401 499.134"
         y="26"
         id="tspan172">отцепочного ремонта (ремонт вагонов в объеме ТР-1 </tspan><tspan
         x="0 11.92 17.08 28.219999 40.779999 49.619999 60.82 65.559998 70.720001 81.559998 91.68 102.9 118.16 128.7 139.42 149.8 154.96001 164.8 175.52 188.8 199.72 211.64 222.22 227.38 236.996 247.95799 259.17801 270.09799 280.81799 292.73801 305.918 316.27802 321.43799 332.95801 343.67801 354.35599 360.73599"
         y="52"
         id="tspan174">и ТР-2, включая замену колесных пар).</tspan><tspan
         x="0 11.26 21.799999 32.52 43.240002 53.18 64.339996 74.459999 79.620003 90.760002 104 116.56 121.72 133.7 144.42 156.03999 167.96001 179.88 190.60001 200.72 211.44 221.82001 226.98 233.36 246.36 257.57999 267.51999 278.23999 290.16 300.88 311 322.92001 334.84 340 350.12 361.73999 372.45999 383.57599 389.95599 395.116 409.116 420.276 431.116 442.276 452.996 464.91599 476.25601 488.17599"
         y="91"
         id="tspan176">Участок ТОР Заринская (Алтайский край) Новосибир</tspan></text><text
       transform="matrix(1,0,0,-1,1192.796,274.3)"
       style="font-variant:normal;font-weight:300;font-stretch:normal;font-size:20px;font-family:'Rubik Light';-inkscape-font-specification:Rubik-Light;writing-mode:lr-tb;fill:#000000;fill-opacity:1;fill-rule:nonzero;stroke:none"
       id="text182"><tspan
         x="0"
         y="0"
         id="tspan180">-</tspan></text><text
       transform="matrix(1,0,0,-1,693,248.3)"
       style="font-variant:normal;font-weight:300;font-stretch:normal;font-size:20px;font-family:'Rubik Light';-inkscape-font-specification:Rubik-Light;writing-mode:lr-tb;fill:#000000;fill-opacity:1;fill-rule:nonzero;stroke:none"
       id="text186"><tspan
         x="0 10.72 20.34 31.5 39.619999 50.779999 55.939999 69.519997 81.440002 92.660004 104.58 115.3 126.52 137.24001 142.39999 156.39999 166.5 178.78 183.52 188.67999 198.918 209.638 221.158 232.078 247.45799 259.37799 270.53799 275.698 286.858 298.198 309.11801 319.83801 331.358 342.27802 352.81799 364.73801 375.578 386.298 401.55801 417.45801 429.37799 441.298 446.45801 457.978 469.138 480.65799 488.77399"
         y="0"
         id="tspan184">ского филиала ПГК, успешно обеспечивающий подго</tspan></text><text
       transform="matrix(1,0,0,-1,1192.934,248.3)"
       style="font-variant:normal;font-weight:300;font-stretch:normal;font-size:20px;font-family:'Rubik Light';-inkscape-font-specification:Rubik-Light;writing-mode:lr-tb;fill:#000000;fill-opacity:1;fill-rule:nonzero;stroke:none"
       id="text190"><tspan
         x="0"
         y="0"
         id="tspan188">-</tspan></text><text
       transform="matrix(1,0,0,-1,693,222.3)"
       style="font-variant:normal;font-weight:300;font-stretch:normal;font-size:20px;font-family:'Rubik Light';-inkscape-font-specification:Rubik-Light;writing-mode:lr-tb;fill:#000000;fill-opacity:1;fill-rule:nonzero;stroke:none"
       id="text200"><tspan
         x="0 9.9399996 21.1 31.940001 42.060001 52.639999 57.799999 69.32 80.279999 91.5 102.08 112.92 123.64 131.758 142.918 154.838 165.998 176.838 181.998 193.51801 204.73801 215.118 220.278 232.198 242.778 257.758 269.27802 274.43799 282.798 294.03601 304.616 316.13599 327.65601 340.836 345.996 359.996 373.59601 389.19601 401.47601 406.216 411.37601 422.216 427.37601 438.09601 447.716 458.87601 470.496 481.65601 494.936"
         y="0"
         id="tspan192">товку полувагонов для нужд группы НЛМК, в скором </tspan><tspan
         x="0 11.34 21.92 33.439999 44.02 59.919998 70.839996 84.120003 89.279999 100.8 112.42 123.34 134.17999 145.8 156.52 166.46001 178.38 188.32001 199.03999 209.42 214.58 225.42 230.58 241.42 252.14 260.25601 271.41599 283.336 294.496 306.116 317.03601 330.31601 341.47601 353.396 363.336 375.25601 388.436 400.35599 405.51599 415.13599 426.29599 439.57599 451.09601 462.31601 473.23599 482.854 493.57401"
         y="26"
         id="tspan194">будущем превратится в вагоноремонтный комплекс </tspan><tspan
         x="0 11.92 22.639999 27.799999 39.779999 50.5 62.02 72.739998 84.260002 96.18 107.34 117.08 130.10001 142.02 153.36 165.28 176.89999 187.62 197.23801 208.39799 220.31799 225.478 240.45799 251.298 262.51801 273.43799 283.27802 295.198 306.358 318.27802 323.43799 334.95801 346.11801 357.73801 368.89801 377.01599 387.936"
         y="52"
         id="tspan196">на Западно-Сибирской железной дороге.</tspan><tspan
         x="0 13.06 18.219999 29.42 41.740002 52.939999 65.260002 70.419998 78.540001 89.699997 101.22 111.8 116.96 128.88 139.60001 144.75999 155.34 165.88 176.60001 187.32001 197.25999 206.87801 217.798 222.95799 234.09801 247.338 259.89801 265.05801 277.03799 287.758 299.37799 311.298 323.21799 333.93799 344.05801 354.77802 365.15799 370.31799 381.478 391.418 403.03799 413.95801 427.23801 438.39801 450.31799 460.258 472.17801 483.798"
         y="91"
         id="tspan198">В 2020 году на участке ТОР Заринская отремонтиро</tspan></text><text
       transform="matrix(1,0,0,-1,1187.958,131.3)"
       style="font-variant:normal;font-weight:300;font-stretch:normal;font-size:20px;font-family:'Rubik Light';-inkscape-font-specification:Rubik-Light;writing-mode:lr-tb;fill:#000000;fill-opacity:1;fill-rule:nonzero;stroke:none"
       id="text204"><tspan
         x="0"
         y="0"
         id="tspan202">-</tspan></text><text
       transform="matrix(1,0,0,-1,693,105.3)"
       style="font-variant:normal;font-weight:300;font-stretch:normal;font-size:20px;font-family:'Rubik Light';-inkscape-font-specification:Rubik-Light;writing-mode:lr-tb;fill:#000000;fill-opacity:1;fill-rule:nonzero;stroke:none"
       id="text208"><tspan
         x="0 10.84 21.559999 32.779999 44.700001 49.860001 61.759998 66.919998 76.660004 84.620003 96.940002 102.1 112.94 123.66 131.778 142.938 154.858 166.01801 176.858 181.59801 186.758 198.67799 208.51801 213.67799 225.59801 237.51801 247.87801 253.03799 264.67801 276.11801 285.858 291.01801 302.93799 314.858 326.77802 337.93799 348.77802 359.49799 371.51801 383.43799 394.59799 406.51801 418.43799 431.61801 441.978 447.138 458.65799 469.61401 480.83401 491.414 502.254"
         y="0"
         id="tspan206">вали 4 710 вагонов, из них 657 инновационных полува</tspan></text><text
       transform="matrix(1,0,0,-1,1205.974,105.3)"
       style="font-variant:normal;font-weight:300;font-stretch:normal;font-size:20px;font-family:'Rubik Light';-inkscape-font-specification:Rubik-Light;writing-mode:lr-tb;fill:#000000;fill-opacity:1;fill-rule:nonzero;stroke:none"
       id="text212"><tspan
         x="0"
         y="0"
         id="tspan210">-</tspan></text><text
       transform="matrix(1,0,0,-1,1287,745.3)"
       style="font-variant:normal;font-weight:300;font-stretch:normal;font-size:20px;font-family:'Rubik Light';-inkscape-font-specification:Rubik-Light;writing-mode:lr-tb;fill:#000000;fill-opacity:1;fill-rule:nonzero;stroke:none"
       id="text224"><tspan
         x="0 8.1199999 19.280001 31.200001 42.360001 53.200001 58.360001 64.739998 77.300003 89.199997 100.72 110.46 115.62 126.54 138.06 149.98 161.89999 173.82001 185.84 191 201.12 206.28 216.86 228.48 239.64 250.48 262.39999 277.66 282.82001 294.01999 306.34 314.29999 325.73999 330.89999 339.01599 350.17599 361.69601 372.41599 378.79599 383.95599 399.29599 404.45599 415.79599 427.01599 437.73599 445.854 457.01401 468.534 479.254 490.87399 501.254"
         y="0"
         id="tspan214">гонов (+437 единиц к уровню 2019 года) — благодаря </tspan><tspan
         x="0 11.16 22.780001 31.139999 41.860001 53.779999 65.699997 75.540001 86.260002 98.279999 110.2 122.12 127.28 138.8 149.96001 160.67999 170.62 181.34 192.17999 202.3 214.22 219.38 228.998 239.95799 251.17799 262.09799 272.81799 284.73801 297.918 308.27802 313.43799 324.95801 335.67801 347.056"
         y="26"
         id="tspan216">организации поставки колесных пар.</tspan><tspan
         x="0 12.4 25.98 39.560001 50.48 60.599998 70.540001 82.459999 93.300003 105.22 115.94 126.32 131.29601 142.916 153.636 164.976 176.136 186.076 196.79601 201.772 212.35201 222.892 233.612 244.332 254.272 264.392 275.112 280.08801 291.228 304.46799 317.02802 322.00601 339.98599 351.20599 360.72601 371.646 382.48599 392.60599 403.32599 408.302 414.04199 427.06201 437.78201 449.40201 460.12201 470.06201 481.22198 492.06201 502.78201 512.90198 523.62201 534.00201"
         y="65"
         id="tspan218">Эффективная работа участка ТОР Юльевка (Саратовская </tspan><tspan
         x="0 11.16 22.5 33.720001 44.439999 55.16 65.099998 73.699997 80.080002 85.239998 95.82 109.1 120.02 131.94 141.46001 156.84 167.56 178.48 188.42 193.58 205.2 215.92 226.64 237 248.16 259.67999 272.85999 278.01999 292.01999 302.12 314.39999 319.56 331.48001 342.20001 347.35999 358.88 369.79999 381.42001 392.34 403.85999 415.78 426.5 437.72 448.88 459 469.72 481.73999 493.66 508.92001"
         y="91"
         id="tspan220">область) уменьшает расходы ПГК на передислокацию </tspan><tspan
         x="0 11.92 17.08 28.24 38.18 49.02 60.240002 71.160004 81.699997 92.620003 104.54 116.46 127.38 132.53999 143.38 154.10001 162.218 173.37801 185.298 196.45799 207.298 212.45799 223.618 233.558 238.718 249.87801 261.39801 272.31799 283.93799 295.858 307.478 318.638 329.478 340.198 352.11801 364.03799 374.418 379.15799 384.31799 395.03799 400.198 410.138 420.858 430.978 445.95801 456.87799 462.03799 472.758 484.67801 496.59799 511.578"
         y="117"
         id="tspan222">и отвлечение вагонов от оперирования, а также снижа</tspan></text><text
       transform="matrix(1,0,0,-1,1809.298,628.3)"
       style="font-variant:normal;font-weight:300;font-stretch:normal;font-size:20px;font-family:'Rubik Light';-inkscape-font-specification:Rubik-Light;writing-mode:lr-tb;fill:#000000;fill-opacity:1;fill-rule:nonzero;stroke:none"
       id="text228"><tspan
         x="0"
         y="0"
         id="tspan226">-</tspan></text><text
       transform="matrix(1,0,0,-1,1287,602.3)"
       style="font-variant:normal;font-weight:300;font-stretch:normal;font-size:20px;font-family:'Rubik Light';-inkscape-font-specification:Rubik-Light;writing-mode:lr-tb;fill:#000000;fill-opacity:1;fill-rule:nonzero;stroke:none"
       id="text238"><tspan
         x="0 10.92 20.860001 26.02 37.939999 48.66 57.02 68.260002 78.839996 88.68 98.800003 109.38 114.54 126.46 137.17999 142.34 154.25999 166.17999 179.75999 191.38 202.10001 212.82001 222.75999 233.998 244.578 254.698 264.638 275.21799 286.45599 297.03601 302.19601 316.19601 327.81601 339.73599 350.57599 361.53601 372.75601 387.73599 398.45599 408.07599 419.23599 431.15601 436.31601 451.29599 462.13599 473.35599 484.276 494.116 506.03601 517.19598 529.11603"
         y="0"
         id="tspan230">ет нагрузку на инфраструктуру Приволжской железной </tspan><tspan
         x="0 11.52 22.68 34.299999 45.459999 53.82 65.739998 70.5 75.660004 88.300003 99.519997 110.24 118.358 129.51801 141.03799 151.758 163.37801 173.758 178.918 189.638 199.578 210.73801 222.658 227.81799 239.338 250.558 261.71799 277.61801 288.33801 299.858 309.47601 320.396 325.556 336.396 348.01599 358.936 372.216 382.59601 387.75601 399.67599 410.396 420.75601 431.91599 446.896 458.41599 469.336 481.25601 493.17599 503.556"
         y="26"
         id="tspan232">дороги. Благодаря этой площадке время нахождения </tspan><tspan
         x="0 10.84 21.559999 29.68 40.84 52.759998 63.919998 74.760002 79.919998 90.760002 102.68 113.6 118.76 130.28 141.2 152.82001 163.74001 174.58 185.74001 195.58 206.74001 217.28 229.2 240.36 248.478 259.638 264.798 276.31799 287.93799 299.09799 311.11801 322.03799 332.758 343.478 354.198 359.358 370.51801 382.03799 391.978 403.89801 417.17801 429.09799 438.93799 450.858 462.478 473.638 484.478 495.198 507.11801 518.27802"
         y="52"
         id="tspan234">вагонов вне перевозочного процесса оптимизировано </tspan><tspan
         x="0 10.84 16 26.719999 38.34 49.259998 60.779999 72.699997 83.620003 96.900002 102.06 113.98 124.7 129.86 141.5 155.59801 165.338 170.498 181.218 191.798 201.73801 212.89799 223.01801 227.778 232.938 245.998 251.158 262.358 274.67801 285.87799 298.198 303.358 311.47601 322.63599 334.15601 344.73599 349.896 359.73599 371.25601 382.17599 392.896 402.41599 407.57599 418.73599 428.67599 440.29599 451.216 464.496 475.65601 487.57599 497.51599"
         y="78"
         id="tspan236">в среднем на 6—7 суток. В 2020 году здесь отремонти</tspan></text><text
       transform="matrix(1,0,0,-1,1796.436,524.3)"
       style="font-variant:normal;font-weight:300;font-stretch:normal;font-size:20px;font-family:'Rubik Light';-inkscape-font-specification:Rubik-Light;writing-mode:lr-tb;fill:#000000;fill-opacity:1;fill-rule:nonzero;stroke:none"
       id="text242"><tspan
         x="0"
         y="0"
         id="tspan240">-</tspan></text><text
       transform="matrix(1,0,0,-1,1287,498.3)"
       style="font-variant:normal;font-weight:300;font-stretch:normal;font-size:20px;font-family:'Rubik Light';-inkscape-font-specification:Rubik-Light;writing-mode:lr-tb;fill:#000000;fill-opacity:1;fill-rule:nonzero;stroke:none"
       id="text248"><tspan
         x="0 11.62 22.780001 33.619999 44.34 55.560001 67.480003 72.639999 80.599998 85.760002 97.199997 109.52 117.48 122.64 133.48 144.2 152.31799 163.478 175.39799 180.158 185.31799 198.37801 203.53799 215.058 226.67799 237.838 253.218 264.43799 275.59799 288.87799 294.03799 302.15601 313.31601 324.836 335.41599 340.57599 350.19601 361.15601 372.37601 383.59601 394.51599 404.63599 414.57599 426.496 437.336 442.496 453.07599 463.616 474.336 485.056 494.996 505.116 515.836"
         y="0"
         id="tspan244">ровали 1 501 вагон. В прошлом году коллектив участка </tspan><tspan
         x="0 11.62 22.34 33.060001 48.439999 60.360001 71.980003 83.900002 95.120003 100.28 110.4 121.62 133.53999 144.46001 156.38 166.32001 177.03999 187.16 197.74001 213 218.16 229.5 240.22 250.06 260.64001 265.79999 277.72 282.88 294.39999 306.01999 317.17999 329.10001 338.94 349.78 360.616 371.836 376.996 388.616 399.53601 412.81601 423.97601 435.896 445.836 450.996 462.436 473.87601 479.03601 489.87601 500.59601 508.71399"
         y="26"
         id="tspan246">расширил клиентскую базу и произвел ремонт 55 ваго</tspan></text><text
       transform="matrix(1,0,0,-1,1806.874,472.3)"
       style="font-variant:normal;font-weight:300;font-stretch:normal;font-size:20px;font-family:'Rubik Light';-inkscape-font-specification:Rubik-Light;writing-mode:lr-tb;fill:#000000;fill-opacity:1;fill-rule:nonzero;stroke:none"
       id="text252"><tspan
         x="0"
         y="0"
         id="tspan250">-</tspan></text><text
       transform="matrix(1,0,0,-1,1287,446.3)"
       style="font-variant:normal;font-weight:300;font-stretch:normal;font-size:20px;font-family:'Rubik Light';-inkscape-font-specification:Rubik-Light;writing-mode:lr-tb;fill:#000000;fill-opacity:1;fill-rule:nonzero;stroke:none"
       id="text256"><tspan
         x="0 11.92 23.08 33.919998 39.080002 52.080002 65.32 70.480003 82.540001 95.540001 107.06 117.78 127.72 139.64 149.58 161.64"
         y="0"
         id="tspan254">нов АО «Апатит».</tspan></text><text
       transform="matrix(1,0,0,-1,1287,386.3)"
       style="font-variant:normal;font-weight:500;font-stretch:normal;font-size:28px;font-family:'Rubik Medium';-inkscape-font-specification:Rubik-Medium;writing-mode:lr-tb;fill:#000000;fill-opacity:1;fill-rule:nonzero;stroke:none"
       id="text260"><tspan
         x="0 20.440001 37.043999 53.424 74.928001 91.112 97.496002 114.968 130.98399 148.12 165.312 181.328 197.70799 214.62 230.804 248.276 265.74799"
         y="0"
         id="tspan258">Новые направления</tspan></text><text
       transform="matrix(1,0,0,-1,1287,350.3)"
       style="font-variant:normal;font-weight:300;font-stretch:normal;font-size:20px;font-family:'Rubik Light';-inkscape-font-specification:Rubik-Light;writing-mode:lr-tb;fill:#000000;fill-opacity:1;fill-rule:nonzero;stroke:none"
       id="text264"><tspan
         x="0 14 24.92 36.439999 47.16 58 69.919998 81.080002 86.239998 97.760002 108.92 119.46 130.38 142 153.92 164.84 175.75999 180.92 192.44 204.06 214.98 226.5 238.02 249.64 261.56 271.94 281.88 293.79999 304.72 309.88 325.22 330.38 342.44 354.42001 365.14001 376.76001 388.67999 400.60001 411.32001 421.44 432.01999 447.28 452.44 463.28 474 482.11401"
         y="0"
         id="tspan262">Недавно дочернее предприятие — «Заринскую ваго</tspan></text><text
       transform="matrix(1,0,0,-1,1780.274,350.3)"
       style="font-variant:normal;font-weight:300;font-stretch:normal;font-size:20px;font-family:'Rubik Light';-inkscape-font-specification:Rubik-Light;writing-mode:lr-tb;fill:#000000;fill-opacity:1;fill-rule:nonzero;stroke:none"
       id="text268"><tspan
         x="0"
         y="0"
         id="tspan266">-</tspan></text><text
       transform="matrix(1,0,0,-1,1287,324.3)"
       style="font-variant:normal;font-weight:300;font-stretch:normal;font-size:20px;font-family:'Rubik Light';-inkscape-font-specification:Rubik-Light;writing-mode:lr-tb;fill:#000000;fill-opacity:1;fill-rule:nonzero;stroke:none"
       id="text272"><tspan
         x="0 11.92 23.08 34.700001 45.619999 58.900002 70.059998 81.980003 91.919998 103.84 114.42 129.67999 134.84 144.45799 155.618 168.89799 180.418 191.138 203.058 214.978 230.23801 242.298 247.45799 262.798 267.95801 278.798 288.918 300.138 315.39801 325.93799 337.858 349.078 360.99799 366.15799 376.99799 382.15799 393.77802 404.698 415.61801 426.33801 436.27802 447.89801 453.05801 464.67801 475.59799 485.43799"
         y="0"
         id="tspan270">норемонтную компанию» — включили в реестр рези</tspan></text><text
       transform="matrix(1,0,0,-1,1784.358,324.3)"
       style="font-variant:normal;font-weight:300;font-stretch:normal;font-size:20px;font-family:'Rubik Light';-inkscape-font-specification:Rubik-Light;writing-mode:lr-tb;fill:#000000;fill-opacity:1;fill-rule:nonzero;stroke:none"
       id="text276"><tspan
         x="0"
         y="0"
         id="tspan274">-</tspan></text><text
       transform="matrix(1,0,0,-1,1287,298.3)"
       style="font-variant:normal;font-weight:300;font-stretch:normal;font-size:20px;font-family:'Rubik Light';-inkscape-font-specification:Rubik-Light;writing-mode:lr-tb;fill:#000000;fill-opacity:1;fill-rule:nonzero;stroke:none"
       id="text280"><tspan
         x="0 11.52 22.440001 34.360001 44.299999 55.459999 66.300003 71.459999 81.400002 92.32 103.94 115.56 127.48 137.42 148.58 160.2 172.12 184.03999 189.2 200.36 211.88 222.8 234.42 245.34 260.32001 271.04001 286.29999 302.20001 313.12 321.23599 332.396 337.556 348.276 359.436 371.45599 383.37601 394.09601 405.31601 414.836 426.75601 437.91599 447.65601 458.37601 467.996 479.15601 491.07599"
         y="0"
         id="tspan278">дентов территории опережающего социально-эконо</tspan></text><text
       transform="matrix(1,0,0,-1,1789.236,298.3)"
       style="font-variant:normal;font-weight:300;font-stretch:normal;font-size:20px;font-family:'Rubik Light';-inkscape-font-specification:Rubik-Light;writing-mode:lr-tb;fill:#000000;fill-opacity:1;fill-rule:nonzero;stroke:none"
       id="text284"><tspan
         x="0"
         y="0"
         id="tspan282">-</tspan></text><text
       transform="matrix(1,0,0,-1,1287,272.3)"
       style="font-variant:normal;font-weight:300;font-stretch:normal;font-size:20px;font-family:'Rubik Light';-inkscape-font-specification:Rubik-Light;writing-mode:lr-tb;fill:#000000;fill-opacity:1;fill-rule:nonzero;stroke:none"
       id="text296"><tspan
         x="0 13.28 25.200001 35.740002 46.66 57.380001 67 78.160004 86.279999 97.440002 102.6 114.22 124.94 134.78 145.62 157.53999 167.48 179.39999 189.78 194.94 201.32001 212.46001 225.7 238.72 251.12 263.67999 270.06 274.82001 279.98001 292.62 303.84 314.56 322.67599 333.836 345.35599 356.07599 367.69601 378.07599 383.23599 393.07599 403.79599 415.31601 425.55399 436.27399 446.39401 456.974 462.134 474.05399 485.21399 496.05399 509.23401 519.59399"
         y="0"
         id="tspan286">мического развития (ТОСЭР). Благодаря запуску новых </tspan><tspan
         x="0 13.28 24.440001 40.34 52.259998 63.419998 74.139999 84.080002 95 106.92 112.08 122.92 128.08 136.198 147.358 158.978 170.138 181.658 192.578 197.73801 209.258 220.418 230.798 241.638 253.558 263.49799 274.21799 284.59799 289.758 301.67801 312.59799 317.758 331.03799 341.95801 353.87799 364.798 375.71799 380.87799 388.83801 400.03799 412.358 417.51801 429.43799 440.59799 451.43799 464.61801 474.978"
         y="26"
         id="tspan288">мощностей в городе появится не менее 120 новых </tspan><tspan
         x="0 11.62 22.34 33.68 44.84 55.380001 67.300003 77.660004 82.82 96.099998 107.02 117.74 127.68 132.44 137.60001 151.60001 163.22 174.38 185.3 195.42 205.36 210.52 222.14 233.06 243.78 255 266.92001 276.76001 286.996 297.91599 307.85599 318.57599 328.95599 334.116 344.95599 350.116 361.73599 372.45599 385.73599 395.85599 406.57599 416.936 422.09601 433.716 444.63599 457.91599 469.07599 480.996 490.936 502.85599 514.01599 525.93597"
         y="52"
         id="tspan290">рабочих мест. Проект реализуется в рамках ремонтной </tspan><tspan
         x="0 10.72 20.66 32.279999 43 52.939999 63.860001 72.220001 84.139999 96.059998 101.22 115.22 125.32 137.60001 142.34 147.5 159.42 170.14 181.66 193.28 204 214.84 226.06 236.98 248.89999 260.82001 271.98001 283.89999 289.06 300.98001 311.70001 316.85999 328.38 339.54001 350.38 363.56 378.94 389.85999 401.78 413.70001 424.62 429.78 439.89999 450.62 461.16 472.07999 482.79999 492.73999 503.57999 514.29999"
         y="78"
         id="tspan292">стратегии ПГК, направленной на повышение качества </tspan><tspan
         x="0 11.52 22.68 34.200001 45.040001 56.959999 71.940002 83.860001 95.019997 103.14 114.3 119.46 130.17999 141.34 152.06 162 172.72 183.56 194.28 199.44 211.36 216.52 227.10001 238.72 249.88 260.72 272.64001 283.01999 288.17999 298.29999 309.51999 321.44 332.35999 344.28 354.22 364.94 374.556 385.716 393.836 404.996 410.15601 420.87601 431.79599 443.41599 454.25601 466.17599 476.896 487.616"
         y="104"
         id="tspan294">подвижного состава и уровня клиентского сервиса.</tspan></text><text
       transform="matrix(1,0,0,-1,670.0609,831.8984)"
       style="font-variant:normal;font-weight:normal;font-stretch:normal;font-size:211.574px;font-family:'Prosto One';-inkscape-font-specification:ProstoOne-Regular;writing-mode:lr-tb;fill:#faaa2d;fill-opacity:1;fill-rule:nonzero;stroke:none"
       id="text300"><tspan
         x="0 132.86835 287.31723 421.79352"
         y="0"
         id="tspan298">7879</tspan></text><text
       transform="matrix(1,0,0,-1,1287,883.8983)"
       style="font-variant:normal;font-weight:500;font-stretch:normal;font-size:20px;font-family:'Rubik Medium';-inkscape-font-specification:Rubik-Medium;writing-mode:lr-tb;fill:#000000;fill-opacity:1;fill-rule:nonzero;stroke:none"
       id="text304"><tspan
         x="0 13.74 18.299999 30.700001 43.880001 56.279999 69.459999 74.019997 82.760002 94.620003 107.2 118.64 123.2 135.06 147.02 159.25999 170.82001 184.89999 189.46001 201.7 213.78 225.22 237.7 249.56 261.26001 276.62 287.92001 292.48001 304.76001 316.32001 330.39999 342.26001 354.73999 365.35999 377.22"
         y="0"
         id="tspan302">В 2020 году объем плановых ремонтов</tspan></text><text
       transform="matrix(1,0,0,-1,1287,857.8983)"
       style="font-variant:normal;font-weight:500;font-stretch:normal;font-size:20px;font-family:'Rubik Medium';-inkscape-font-specification:Rubik-Medium;writing-mode:lr-tb;fill:#000000;fill-opacity:1;fill-rule:nonzero;stroke:none"
       id="text310"><tspan
         x="0 12.24 24.1 28.66 40.099998 52.380001 63.82 75.519997 88 99.559998 112.04 124.52 141.24001 145.8 157.24001 161.8 174.2 187.38 196.66 209.02 213.58 222.31799 234.17799 246.758 258.61801 272.698 277.258 288.95801 304.31799 316.59799 328.45801 339.89801 344.45801 356.93799 368.37799 372.93799 382.21799 394.51599 398.97601 411.336 412.16 427.85999 433.16"
         y="0"
         id="tspan306">по сравнению с 2019 годом вырос на 15,9 %, </tspan><tspan
         x="0 12.58 24.440001 29 39.900002 44.459999 57.599998 68.5 80.860001 85.419998 96.980003 109.56 122.04 134.52 147 159.75999"
         y="26"
         id="tspan308">до 7 879 единиц.</tspan></text><g
       id="g312"><g
         id="g314"
         clip-path="url(#clipPath318)"><g
           id="g320"
           transform="translate(1404,977.9044)"><path
             d="m 0,0 h -107 c -11.046,0 -20,-8.954 -20,-20 0,-11.046 8.954,-20 20,-20 H 0 c 11.046,0 20,8.954 20,20 C 20,-8.954 11.046,0 0,0"
             style="fill:#e8e8ed;fill-opacity:1;fill-rule:nonzero;stroke:none"
             id="path322" /></g></g></g><text
       transform="matrix(1,0,0,-1,1298.4626,950.6255)"
       style="font-variant:normal;font-weight:500;font-stretch:normal;font-size:28px;font-family:'Rubik Medium';-inkscape-font-specification:Rubik-Medium;writing-mode:lr-tb;fill:#000000;fill-opacity:1;fill-rule:nonzero;stroke:none"
       id="text326"><tspan
         x="0 16.184 33.796001 51.268002 68.739998 86.211998"
         y="0"
         id="tspan324">единиц</tspan></text><text
       transform="matrix(1,0,0,-1,41.5401,1023)"
       style="font-variant:normal;font-weight:300;font-stretch:normal;font-size:20px;font-family:'Rubik Light';-inkscape-font-specification:Rubik-Light;writing-mode:lr-tb;fill:#000000;fill-opacity:1;fill-rule:nonzero;stroke:none"
       id="text330"><tspan
         x="0 7.96"
         y="0"
         id="tspan328">11</tspan></text><g
       id="g332"><g
         id="g334"><g
           id="g336"
           clip-path="url(#clipPath340)"><text
             transform="matrix(1,0,0,-1,99,1023)"
             style="font-variant:normal;font-weight:300;font-stretch:normal;font-size:20px;font-family:'Rubik Light';-inkscape-font-specification:Rubik-Light;writing-mode:lr-tb;fill:#000000;fill-opacity:1;fill-rule:nonzero;stroke:none"
             id="text344"><tspan
               x="0 13.24 18.4 28.02 39.18 52.459999 63.98 74.699997 86.620003 98.540001"
               y="0"
               id="tspan342">О компании</tspan></text></g></g></g></g></svg>
