<?xml version="1.0" encoding="UTF-8" standalone="no"?>
<?xml-stylesheet type="text/css" href="main.css" ?>
<svg
   xmlns:dc="http://purl.org/dc/elements/1.1/"
   xmlns:cc="http://creativecommons.org/ns#"
   xmlns:rdf="http://www.w3.org/1999/02/22-rdf-syntax-ns#"
   xmlns:svg="http://www.w3.org/2000/svg"
   xmlns="http://www.w3.org/2000/svg"
   version="1.1"
   id="svg2"
   xml:space="preserve"
   width="2560"
   height="1440"
   viewBox="0 0 2560 1440"><metadata
     id="metadata8"><rdf:RDF><cc:Work
         rdf:about=""><dc:format>image/svg+xml</dc:format><dc:type
           rdf:resource="http://purl.org/dc/dcmitype/StillImage" /></cc:Work></rdf:RDF></metadata><defs
     id="defs6"><clipPath
       clipPathUnits="userSpaceOnUse"
       id="clipPath20"><path
         d="M 0,1080 H 1920 V 0 H 0 Z"
         id="path18" /></clipPath><clipPath
       clipPathUnits="userSpaceOnUse"
       id="clipPath138"><path
         d="M 0,0 H 1920 V 1080 H 0 Z"
         id="path136" /></clipPath><clipPath
       clipPathUnits="userSpaceOnUse"
       id="clipPath168"><path
         d="M 0,1080 H 1920 V 0 H 0 Z"
         id="path166" /></clipPath></defs><g
     id="g10"
     transform="matrix(1.3333333,0,0,-1.3333333,0,1440)"><g
       id="g12"><g
         id="g14"><g
           id="g16"
           clip-path="url(#clipPath20)"><path
             d="M 0,0 H 1920 V 1080 H 0 Z"
             style="fill:#ffffff;fill-opacity:1;fill-rule:nonzero;stroke:none"
             id="path22" /></g></g></g><path
       d="M 0,0 H 831 V 1080 H 0 Z"
       style="fill:#e8e8ed;fill-opacity:1;fill-rule:nonzero;stroke:none"
       id="path24" /><text
       transform="matrix(1,0,0,-1,99,953.4)"
       style="font-variant:normal;font-weight:normal;font-stretch:normal;font-size:38px;font-family:'Prosto One';-inkscape-font-specification:ProstoOne-Regular;writing-mode:lr-tb;fill:#000000;fill-opacity:1;fill-rule:nonzero;stroke:none"
       id="text32"><tspan
         x="0 30.209999 62.130001 92.150002 123.31 153.71001 185.25 212.23 244.14999 276.82999 303.81"
         y="0"
         id="tspan26">УПРАВЛЕНИЕ </tspan><tspan
         x="0 30.209999 60.23 87.019997 121.22 153.89999 183.73 216.41 246.81 286.51999 328.32001"
         y="45.599998"
         id="tspan28">УСТОЙЧИВЫМ </tspan><tspan
         x="0 30.02 61.18 89.489998 119.89 152.57001 179.36 212.03999 239.02"
         y="91.199997"
         id="tspan30">РАЗВИТИЕМ</tspan></text><text
       transform="matrix(1,0,0,-1,99,783.5001)"
       style="font-variant:normal;font-weight:300;font-stretch:normal;font-size:20px;font-family:'Rubik Light';-inkscape-font-specification:Rubik-Light;writing-mode:lr-tb;fill:#000000;fill-opacity:1;fill-rule:nonzero;stroke:none"
       id="text82"><tspan
         x="0 11.68 22.84 36.119999 47.639999 58.360001 70.279999 82.199997 92.580002 97.739998 108.9 119.62 130.78 140.62 152.53999 163.25999 174.17999 184.12 189.28 200 210.84 222 237.25999 242.42 253.58 263.51999 274.35999 285.28 295.22 305.94 315.88 326.72 337.64001 349.56 361.48001 372.64001 383.35999 393.29999 402.82001 407.98001 419.5 430.42001 442.04001 452.95999 464.48001 469.64001 480.79999 492.14001 508.04001 518.96002 529.67999 539.62 550.46002 561.62 574.90002 579.64001"
         y="0"
         id="tspan34">Компания осознает свою ответственность перед обществом, </tspan><tspan
         x="0 11.52 23.139999 35.060001 46.68 57.84 69.360001 80.519997 92.440002 97.599998 109.52 114.68 126.02 136.60001 148.12 158.7 174.60001 186.52 199.8 211.72 216.88 228.39999 239.56 249.17599 260.138 271.358 282.27802 294.198 306.11801 316.49799 329.77802 341.698 346.45801 351.61801 361.59601 372.31601 382.25601 393.41599 405.336 415.87601 427.79599 438.63599 449.79599 460.716 465.87601 477.496 488.216 498.056 508.896 520.81598 530.75598 542.67603 553.59601"
         y="26"
         id="tspan36">природой и будущими поколениями. Устойчивое развитие </tspan><tspan
         x="0 11.34 24.52 35.740002 46.900002 52.060001 63.98 69.139999 80.300003 91.019997 100.96 111.68 122.6 132.53999 143.25999 153.64 158.8 168.92 180.14 195.39999 205.94 216.86 227.7 240.88 254.16 259.32001 270.04001 279.98001 291.60001 302.32001 312.26001 323.17999 331.54001 343.45999 354 364.92001 375.64001 385.76001 397.67999 410.95999 416.12 427.64001 439.26001 451.17999 462.34 473.95999 485.88 495.82001 506.73999 516.67999 527.84003 541.12"
         y="52"
         id="tspan38">было и остается ключевым стратегическим приоритетом </tspan><tspan
         x="0 11.92 22.639999 27.799999 39.32 50.939999 62.099998 72.040001 82.419998 97.400002 108.32 120.24 132.16 144.08 149.24001 160.08 170.8 181.72 193.64 198.8 210.72 221.44 236.82001 247.74001 259.66 264.82001 276.34 287.26001 297.64001 307.57999 318.41599 329.63599 339.15601 351.07599 362.23599 372.95599 382.896 394.81601 399.556 404.716 417.996 429.15601 439.09601 451.01599 461.85599 473.776 485.01401 495.59399 505.974"
         y="78"
         id="tspan40">на протяжении всей нашей деятельности, мотивируя </tspan><tspan
         x="0 10.12 15.28 26.799999 37.959999 48.68 58.619999 69.779999 80.160004 92.080002 104 117.18 130.46001 135.62 145.618 156.838 167.418 177.95799 193.338 204.258 216.17799 228.09801 238.478 251.758 256.918 268.43799 279.59799 284.758 295.59799 306.31799 317.23801 330.51801 335.67801 347.59799 358.31799 369.83801 381.45801 392.17801 403.01801 414.23801 425.15799 437.078 448.99799 459.37799 472.65799"
         y="104"
         id="tspan42">к постоянным улучшениям по всем направлениям.</tspan><tspan
         x="0 9.9799995 20.700001 30.639999 41.799999 53.720001 64.260002 76.18 87.019997 98.18 109.1 114.26 125.88 136.60001 146.44 157.28 169.2 179.14 191.06 201.98 207.14 221.14 231.24001 243.52 248.67999 259.84 270.56 282.48001 293.64001 304.48001 315.20001 327.12 338.28 343.44 355.35999 366.07999 371.23999 381.07999 391.79999 403.14001 414.29999 424.23999 435.16 440.32001 451.48001 456.64001 466.48001 478 489.16 500.78 511.94 522.78003 532.29999 543.21997"
         y="143"
         id="tspan44">Устойчивое развитие ПГК основано на заботе о здоровье </tspan><tspan
         x="0 11.92 17.08 28.42 39.639999 50.360001 58.48 69.639999 81.160004 92.120003 103.34 113.92 124.46 136.38 148.3 153.46001 164.17999 175.34 185.28 196.51801 207.09801 218.618 230.53799 242.45799 252.078 263.23801 274.078 278.81799 283.978 294.698 305.858 317.198 328.418 343.67801 355.198 366.11801 378.03799 389.95801 401.87799 407.03799 416.978 428.59799 439.51801 450.858 462.01801 472.858 483.578 495.49799 507.418 519.33801"
         y="169"
         id="tspan46">и благополучии сотрудников, соблюдении требований </tspan><tspan
         x="0 11.92 17.08 29 40.16 51.779999 65.059998 70.220001 80.339996 85.5 96.660004 107.02 118.64 129.36 141.28 152.2 157.36 168.52 178.64 189.87801 200.45799 215.438 226.158 241.418 257.31799 268.23801 280.15799 285.31799 296.03799 307.65799 318.578 330.09799 343.27802 348.01801 353.17801 361.53799 373.05801 383.978 389.138 402.336 412.91599 424.836 434.95599 446.97601 458.896 470.056 481.97601 493.896 505.134 515.71399 530.974 540.914"
         y="195"
         id="tspan48">и норм к охране окружающей среды, где функционируют </tspan><tspan
         x="0 10.92 21.84 27 38.52 50.139999 61.299999 74.580002 87.760002 103.14 114.36 125.28 137.2 149.12 162.3 173.22 178.38 189.89999 201.12 212.28 228.17999 238.89999 250.42 260.54001 272.45999 277.20001 282.35999 294.28 305 310.16 320.73999 331.57999 342.29999 357.28 368.20001 380.12 392.04001 403.95999 409.12 419.23999 424.39999 436.01999 446.94 455.29999 467.22 478.38 490.29999 501.01999 512.23999 521.76001 533.67999 546.85999 560.14001"
         y="221"
         id="tspan50">ее промышленные площадки, на уважении к региональным </tspan><tspan
         x="0 11.92 23.08 34.700001 47.98 58.700001 71.980003 77.139999 89.059998 94.220001 105.74 117.36 128.08 138.92 150.84 162.06 172.78 186.06 190.8 195.96001 206.67999 216.62 228.53999 238.15601 249.076 254.23599 265.57599 277.496 287.336 299.25601 310.17599 320.896 331.616 336.35599 341.51599 352.67599 364.01599 374.936 385.65601 397.17599 408.09601 418.63599 429.556 441.47601 453.396 465.31601"
         y="247"
         id="tspan52">нормам и правилам, этике бизнеса, обеспечении </tspan><tspan
         x="0 10.84 20.68 31.4 43.32 56.599998 67.760002 78.599998 91.779999 99.900002 111.06 122.58 134.5 147.67999 158.03999 163.2 173.438 184.158 195.37801 206.53799 217.37801 229.298 241.218 246.37801 257.09799 268.258 278.198 289.436 300.01599 311.53601 323.45599 335.37601 345.91599 356.836 367.556 377.496 388.336 399.056 404.216 415.73599 426.95599 437.336 442.496 454.01599 464.73599 476.35599 486.29599 498.216 509.13599 520.75598 531.91602 542.75598 547.49597"
         y="273"
         id="tspan54">взаимовыгодных условий сотрудничества для партнеров, </tspan><tspan
         x="0 11.52 23.139999 34.299999 44.139999 55.759998 66.480003 77.019997 88.940002 100.1 110.82 120.76 132.67999 137.84 149.75999 154.92 166.84 178.75999 192.34 203.5 215.12 228.39999 239.12 251.14 263.06 274.22 286.14001 298.06 309.22 321.14001 326.29999 337.45999 347.39999 357.51999 369.14001 382.32001 392.26001 403.42001 414.14001 424.07999 436"
         y="299"
         id="tspan56">прозрачности и информационной открытости.</tspan><tspan
         x="0 14 25.620001 37.540001 49.459999 61.48 73.400002 84.919998 98.099998 103.26 112.88 124.04 135.66 147.17999 158.34 169.96001 180.67999 190.62 202.53999 213.38 225.3 236.46001 244.578 255.73801 260.89801 271.478 282.99799 294.61801 305.33801 316.17801 327.39801 338.31799 350.23801 362.15799 372.53799 377.698 391.698 401.798 414.078 419.23801 429.95801 443.53799 454.698 466.31799 479.59799 489.59399 500.814 512.73401 524.354 535.51398 546.354 557.07397 568.99402 582.17401"
         y="338"
         id="tspan58">Принципы корпоративного управления ПГК сформулированы </tspan><tspan
         x="0 10.72 15.88 26.459999 37 47.919998 57.860001 69.019997 82.300003 87.459999 101.46 113.08 125 136.92 148.94 160.86 172.38 183.53999 194.38 199.53999 209.158 220.31799 231.938 243.45799 254.618 266.23801 276.95801 286.89801 298.81799 309.65799 321.578 332.73801 340.85599 352.01599 357.17599 367.75601 379.276 390.896 401.616 412.45599 423.67599 434.59601 446.51599 458.436 468.81601"
         y="364"
         id="tspan60">с учетом Принципов корпоративного управления </tspan><tspan
         x="0 13.24 24.860001 33.220001 43.939999 55.860001 67.779999 77.620003 88.339996 100.36 112.28 124.2 129.36 140.08 149.698 160.858 172.778 183.938 197.218 209.138 219.67799 230.59801 241.31799 250.938 262.09799 270.21799 281.37799 286.53799 297.258 308.418 318.358 329.59799 340.17801 351.698 363.61801 375.53799 386.078 396.99799 407.71799 417.65799 428.49799 439.21799 444.37799 456.298 461.45801 473.078 483.798 493.638 504.478 516.39801 526.33801 538.258 548.638"
         y="390"
         id="tspan62">Организации экономического сотрудничества и развития </tspan><tspan
         x="0 5.7399998 18.98 31.379999 44.400002 56.959999 63.34 68.080002 73.239998 84.760002 95.718002 106.938 118.098 133.078 143.998 155.918 167.838 179.758 184.918 196.59801 207.758 219.278 230.198 239.81599 250.536 261.25601 266.41599 276.996 288.51599 300.13599 310.85599 321.69601 332.91599 343.836 355.75601 367.67599 378.056 382.79599 387.95599 399.116 410.63599 421.79599 433.13599 444.75601 455.67599 467.59601 479.51599 490.67599 498.79401 509.95401"
         y="416"
         id="tspan64">(ОЭСР), положений Кодекса управления, одобренного </tspan><tspan
         x="0 13.02 24.18 35.02 45.939999 55.880001 67.040001 80.32 85.480003 97 108.92 120.54 131.46001 141.58 151.52 162.67999 174.3 185.46001 196.3 201.46001 214.10001 224.82001 236.74001 246.86 257.57999 262.73999 275.29999 286.45999 297.17999 307.89999 319.82001 331.73999 336.89999 348.10001 356.06 361.22 374.5 385.22 396.84 406.78 417.5 422.66 433.85999 446.17999 454.14001 466.04001 471.20001 479.314 490.474 501.99399 512.71399 517.45398"
         y="442"
         id="tspan66">Советом директоров Банка России 21 марта 2014 года, </tspan><tspan
         x="0 10.72 15.88 25.82 36.540001 46.66 61.639999 72.559998 77.720001 87.958 98.678001 110.198 121.118 136.498 148.418 161.59801 171.95799 177.118 190.39799 202.31799 213.938 225.09801 235.938 249.118 259.478 264.638 276.55801 281.71799 292.87799 302.81799 313.73801 324.27802 335.198 345.918 355.858 366.698 377.61801 389.53799 401.45801 414.638 424.99799 430.15799 441.67801 453.298 464.01801 474.138 484.078 495.99799 506.11801"
         y="468"
         id="tspan68">а также успешных мировых и отечественных практик </tspan><tspan
         x="0 10.84 16 27.16 38.5 49.720001 60.439999 71.160004 81.099998 93.019997 98.18 107.798 118.958 130.578 142.09801 153.258 164.87801 175.59801 185.53799 197.45799 208.298 220.218 231.37801 239.498 250.658 255.81799 266.39801 277.918 289.53799 300.258 311.09799 322.31799 333.23801 345.15799 357.078 367.45801"
         y="494"
         id="tspan70">в области корпоративного управления.</tspan><tspan
         x="0 10.48 22 33.619999 44.34 55.18 66.400002 77.32 89.239998 101.16 112.08 117.24 127.96 138.67999 150.2 161.12 171.24001 181.17999 191.89999 205.17999 217.10001 222.25999 232.498 243.218 253.158 264.31799 276.23801 286.77802 298.698 309.53799 320.698 328.81601 339.97601 345.13599 356.75601 367.47601 377.31601 388.15601 400.07599 410.01599 421.936 432.31601 437.47601 449.396 461.31601 471.25601 482.17599 490.53601 502.15601 514.07599 525.69598 536.85602 547.69598 558.41602 570.336 581.49597"
         y="533"
         id="tspan72">Управление аспектами устойчивого развития интегрировано </tspan><tspan
         x="0 10.84 16 26.719999 38.639999 49.360001 59.299999 70.220001 83.5 94.080002 99.239998 108.858 120.018 131.638 143.158 154.31799 165.938 176.658 186.59801 198.51801 209.358 221.278 232.438 240.558 251.718 256.87799 267.45801 278.978 290.59799 301.31799 312.15799 323.37799 334.298 346.21799 358.138 368.51801 373.67801 383.29599 394.45599 407.73599 419.25601 429.97601 441.896 453.81601 465.73599"
         y="559"
         id="tspan74">в систему корпоративного управления компании </tspan><tspan
         x="0 11.92 17.08 28.24 38.959999 49.540001 65.440002 76.360001 87.080002 97.019997 107.86 119.08 129.46001 140.38 150.32001 161.03999 171.42 176.58 188.5 199.22 204.38 215.22 225.94 236.86 247.22 252.38 263.29999 274.22 279.38 290.89999 302.51999 313.67999 325.60001 335.44 346.28 357.44 368.95999 379.67999 389.62 400.45999 411.38 423.29999 435.22 448.39999 458.76001 463.92001 475.44 486.66 497.82001 513.71997 524.44 535.96002 546.08002 556.79999 567.15997 571.90002"
         y="585"
         id="tspan76">и осуществляется на всех ее производственных площадках, </tspan><tspan
         x="0 10.84 16 25.940001 37.099998 50.380001 55.540001 66.080002 78 88.720001 99.940002 110.86 116.02 125.86 136.58 147.81799 158.39799 169.73801 180.658 195.638 207.558 220.73801 231.09801 235.858 241.01801 254.078 265.23801 276.758 288.37799 299.53799 310.258 323.43799 328.59799 338.836 349.556 359.496 370.65601 382.57599 393.116 405.03601 415.87601 427.03601 435.15601 446.31601 451.47601 463.09601 473.81601 483.65601 494.496 506.41599 516.35602 528.276 538.65601"
         y="611"
         id="tspan78">в том числе зарубежных. Вопросы устойчивого развития </tspan><tspan
         x="0 11.92 22.639999 33 44.16 55.68 66.059998 76 86.720001 97.099998 102.26 113.1 118.26 128.10001 139.25999 151.17999 162.10001 167.25999 178.78 189.94 200.66 210.60001 221.75999 232.14 244.06 255.98 267.14001 275.258 286.418 291.578 302.418 314.33801 326.258 339.53799 350.258 362.17801 374.09799 384.478 389.638 400.87601 411.45599 421.07599 432.23599 443.07599 454.23599 465.75601 476.47601 486.41599 497.25601 507.97601 513.13599 527.13599 537.23602 549.51599"
         y="637"
         id="tspan80">находятся в зоне постоянного внимания руководства ПГК.</tspan></text><text
       transform="matrix(1,0,0,-1,1089,953.8201)"
       style="font-variant:normal;font-weight:500;font-stretch:normal;font-size:28px;font-family:'Rubik Medium';-inkscape-font-specification:Rubik-Medium;writing-mode:lr-tb;fill:#000000;fill-opacity:1;fill-rule:nonzero;stroke:none"
       id="text86"><tspan
         x="0 19.459999 35.504002 52.108002 68.124001 92.176003 108.192 131.60001 154.98 170.996 187.12399 193.508 209.524 226.716 242.89999 260.51199"
         y="0"
         id="tspan84">Окружающая среда</tspan></text><text
       transform="matrix(1,0,0,-1,1089,901.8201)"
       style="font-variant:normal;font-weight:300;font-stretch:normal;font-size:20px;font-family:'Rubik Light';-inkscape-font-specification:Rubik-Light;writing-mode:lr-tb;fill:#000000;fill-opacity:1;fill-rule:nonzero;stroke:none"
       id="text122"><tspan
         x="0 11.98 22.700001 34.040001 45.200001 55.139999 65.860001 71.019997 82.18 93.519997 98.68 109.84 119.96 131.198 141.778 156.758 167.478 182.73801 198.638 209.558 221.478 226.638 237.358 248.978 259.89801 271.418 282.33801 287.49799 297.87799 308.71799 319.93799 330.31799 341.23801 351.17801 361.89801 372.27802 377.43799 387.978 398.698 409.418 419.358 428.87799 444.138 449.298 458.914 470.07401 481.694 493.21399 504.37399 515.99402 526.71399 536.65399 548.57397 559.414 571.33398 582.49402 594.414"
         y="0"
         id="tspan88">Забота об окружающей среде является частью корпоративной </tspan><tspan
         x="0 11.52 22.48 33.700001 45.619999 55.560001 67.480003 77.599998 89.519997 94.68 108.68 118.78 131.06 135.82001 140.98 152.658 163.81799 177.09801 188.618 199.338 211.258 223.17799 233.558 238.718 249.638 264.61801 275.53799 283.65601 294.81601 306.336 318.25601 329.41599 334.57599 344.51599 356.13599 366.85599 376.79599 388.716 398.65601 403.81601 417.09601 429.01599 440.23599 451.45599 463.37601 474.53601 486.45599 499.63599 504.79599 516.034 526.61401 537.95398 549.17401 560.09399 572.01398"
         y="26"
         id="tspan90">политики ПГК. Компания ежегодно тратит миллионы рублей </tspan><tspan
         x="0 11.92 22.639999 27.799999 37.639999 48.360001 64.260002 76.18 86.120003 96.699997 101.86 113.02 123.14 134.37801 144.95799 159.938 170.658 185.918 201.81799 212.73801 224.658 229.81799 240.53799 252.158 263.078 274.59799 287.77802 292.93799 304.858 310.01801 321.53799 333.15799 344.31799 355.83801 366.79599 378.01599 392.996 403.716 414.63599 424.57599 429.73599 441.65601 453.57599 464.41599 475.336 486.056 495.996 507.91599 519.53601 530.69598 541.53601 552.25598 562.19598 571.716"
         y="52"
         id="tspan92">на защиту окружающей среды и продолжает инвестировать </tspan><tspan
         x="0 10.84 16 26.719999 36.34 47.299999 58.52 69.68 78.040001 89.959999 100.5 111.42 122.14 132.25999 144.17999 155.10001 160.25999 171.78 183.39999 194.56 205.48 215.60001 225.53999 238.72 243.88 255.8 260.95999 270.95801 282.17801 292.758 303.298 318.67801 329.59799 341.51801 353.43799 364.358 369.51801 379.45801 390.37799 400.73801 412.65799 423.616 434.836 445.996 454.35599 466.276 478.19601 483.35599 495.276 505.996 511.15601 521.87598 532.716 543.87598 555.79602 566.15601"
         y="78"
         id="tspan94">в экологические проекты и улучшение технологий на своих </tspan><tspan
         x="0 11.52 23.139999 34.060001 45.580002 57.099998 68.720001 80.639999 91.019997 100.96 112.88 123.26 133.62"
         y="104"
         id="tspan96">предприятиях.</tspan><tspan
         x="0 13.06 18.219999 32.220001 42.32 54.599998 59.759998 71.099998 82.019997 93.639999 104.56 119.54 131.46001 142.62 147.78 158.94 168.88 180.8 191.96001 202.67999 213.06 223 233.72 244.10001 249.25999 259.38 264.54001 276.06 287.67999 299.60001 311.22 322.38 333.89999 345.82001 359 372.28 377.44 389.06 399.98001 410.70001 421.28 432.89999 443.62 454.34 467.62 472.35999 477.51999 488.23999 499.39999 509.76001 521.38 532.09998 544.02002 554.40002 569.65997 579.59998"
         y="143"
         id="tspan98">В ПГК бережно относятся к природным ресурсам, сохраняют </tspan><tspan
         x="0 11.92 22.280001 27.440001 39.360001 44.52 56.040001 66.879997 78.099998 88.82 104.08 114.02 119.18 130.02 140.74001 151.66 156.82001 168.74001 179.66 190.82001 202.16 212.52 223.67999 235.2 247.12 260.39999 271.56 282.48001 287.64001 299.16 310.38 320.76001 325.92001 335.85999 347.01999 355.13599 366.056 370.79599 375.95599 386.496 396.436 407.59601 418.936 432.116 437.276 449.19601 459.91599 470.03601 481.25601 496.51599 507.056 518.97601 528.91602 538.43597 543.59601 554.43597 566.05603 576.97601 588.49597 600.41602 611.57599 622.49597"
         y="169"
         id="tspan100">их и делают все необходимое для того, чтобы исключить вредное </tspan><tspan
         x="0 10.84 22 31.84 43.360001 54.279999 66.199997 76.919998 86.860001 97.699997 109.62 120.54 125.7 137.62 148.34 153.5 165.42 177.34 187.7 192.46001 197.62 210.67999 221.39999 232.32001 237.48 249 260.62 271.78 285.06 298.23999 313.62 324.84 335.76001 347.67999 359.60001 372.78 383.70001 388.85999 400.38 411.60001 422.76001 438.66 449.38 460.89999 471.01999 482.94 488.10001 502.10001 512.20001 524.47998 529.64001 541.15997 552.78003 563.94 574.29999 585.46002 596.97998 607.35999 617.29999"
         y="195"
         id="tspan102">воздействие на них. Все промышленные площадки ПГК проходят </tspan><tspan
         x="0 11.62 22.540001 30.9 40.900002 52.119999 62.5 74.120003 86.040001 96.620003 111.88 117.04 130.32001 141.48 153 163.92 175.53999 187.46001 199.38 209.22 219.94 231.96001 243.88 258.896 263.65601 268.81601 282.81601 293.97601 304.81601 315.97601 326.896 332.056 343.216 354.556 365.716 376.95599 387.53601 399.056 410.216 421.056 431.776 443.69601 455.616 466.53601 471.69601 483.616 494.336 499.496 511.01599 522.63599 533.79602 547.07599 560.25598 571.09601 582.25598 592.79602 604.716 615.87598"
         y="221"
         id="tspan104">регулярную модернизацию. Новое оборудование на промывочно-</tspan><tspan
         x="0 11.52 23.139999 34.299999 45.82 56.540001 68.160004 79.32 89.860001 101.78 114.96 125.32 130.48 141.2 151.14 161.86 173.78 185.8 197.72 208.10001 218.46001 223.62 229.758 243.758 257.758 270.77802 277.15799 282.31799 296.31799 306.418 318.698 323.858 335.01801 346.358 357.27802 367.99799 379.51801 390.43799 400.978 412.89801 423.73801 434.45801 445.37799 455.31799 460.478 470.31799 481.03799 494.31799 504.43799 516.35797 526.93799 536.87799 550.05798 561.97803 567.138 579.15802 591.078 601.198 612.41803"
         y="247"
         id="tspan106">пропарочных станциях (ППС) ПГК обеспечивает замкнутый цикл </tspan><tspan
         x="0 11.52 23.139999 34.299999 45.82 56.540001 68.160004 78.279999 90.199997 94.940002 100.1 110.64 120.58 131.74001 136.89999 148.82001 159.53999 169.66 180.88 196.14 206.67999 217.39999 228.32001 238.25999 243.42 254.94 266.10001 277.62 288.34 299.85999 310.57999 322.5 334.42001 345.34 350.5 362.42001 373.34 386.92001 396.85999 407.78 423.16 434.38 445.10001 458.38 469.10001 474.26001 485.10001 490.26001 501.42001 511.54001 522.77399 533.354 548.33398 559.05402 574.31403 590.09198 600.672 615.93201"
         y="273"
         id="tspan108">пропарки, что исключает попадание нефтешлама в окружающую </tspan><tspan
         x="0 10.72 22.34 33.259998 44.779999 54.16 58.919998 64.080002 78.080002 89.239998 102.52 114.44 127.72 138.88 144.03999 154.75999 164.7 175.86 183.978 194.89799 199.638 204.798 215.95799 226.67799 238.59801 249.31799 265.21799 276.138 288.05801 299.978 310.89801 316.05801 327.578 339.198 350.11801 361.638 373.15799 384.77802 396.698 407.078 417.01801 428.93799 440.858 446.01801 456.73801 467.89801 478.73801 490.358 501.27802 514.55798 525.47803 537.39801 549.31799 560.47803 572.39801"
         y="299"
         id="tspan110">среду. Помимо этого, оснащение предприятий современной </tspan><tspan
         x="0 9.9399996 20.860001 31.219999 43.139999 55.060001 64.68 75.839996 87.760002 92.919998 103.64 114.48 125.64 137.16 149.08 159.02 164.17999 174.3 179.46001 192.74001 204.66 216.58 228.5 241.78 252.36 265.64001 276.22 281.38 291.92001 302.75601 313.97601 325.13599 335.97601 346.896 357.436 368.35599 379.07599 389.19601 401.116 413.03601 418.19601 431.776 442.496 452.616 462.556 473.716 485.336 490.496 502.41599 507.57599 519.09601 530.25598 540.09601 550.93597 561.89398 573.11401 583.49402 594.414 604.354"
         y="325"
         id="tspan112">техникой сводит к минимуму человеческий фактор и позволяет </tspan><tspan
         x="0 10.72 20.34 31.5 43.419998 54.580002 67.860001 79.779999 89.720001 99.239998 104.4 115.92 127.54 139.46001 151.08 162.24001 173.75999 185.67999 198.86 209.78 214.94 226.56 237.48 248.2 258.78 270.39999 281.12 294.29999"
         y="351"
         id="tspan114">экономить природные ресурсы.</tspan><tspan
         x="0 14 25.620001 36.540001 48.060001 59.580002 71.199997 83.120003 93.5 103.44 115.36 125.74 130.89999 144.89999 155 167.28 172.44 183.16 193.7 205.62 215.56 226.28 241.53999 251.48 262.20001 272.57999 277.73999 288.89999 300.42001 312.34 324.26001 337.54001 349.45999 354.62 366.54001 376.38 381.54001 393.06 403.98001 415.60001 426.51999 438.04001 449.20001 460.04001 473.22 483.57999 488.73999 500.66 511.38 516.53998 527.26001 538.17999 548.12 560.03998"
         y="390"
         id="tspan116">Предприятия ПГК считаются одними из передовых на сети </tspan><tspan
         x="0 12.56 31.700001 45.220001 50.380001 62.299999 67.459999 78.980003 90.599998 102.52 114.44 126.36 139.64 150.36 165.62 175.56 180.72 189.08 200.31799 210.89799 222.418 233.938 247.118 252.278 262.99799 272.93799 283.51801 295.03799 305.95801 317.87799 327.81799 338.978 349.81799 354.55801 359.71799 371.638 381.478 392.05801 402.59799 413.31799 428.578 444.478 456.39801 466.758 471.918 482.638 493.798 504.638 516.258 527.17798 540.45801 551.37799 563.29797 575.21802 588.39801 599.31799"
         y="416"
         id="tspan118">РЖД и принимают группы студентов, изучающих современные </tspan><tspan
         x="0 11.52 23.139999 33.860001 43.98 53.919998 65.839996 75.959999 87.879997 93.040001 104.56 115.72 127.24 135.358 146.51801 156.45799 167.618 178.45799 188.578 200.498 205.658 216.498 227.218 235.338 246.498 258.418 269.578 280.418 285.578 297.09799 308.258 319.77802 324.93799 336.858 347.578 358.798 370.71799 381.55801"
         y="442"
         id="tspan120">практики подготовки вагонов под налив.</tspan></text><text
       transform="matrix(1,0,0,-1,1087.5,168)"
       style="font-variant:normal;font-weight:500;font-stretch:normal;font-size:28px;font-family:'Rubik Medium';-inkscape-font-specification:Rubik-Medium;writing-mode:lr-tb;fill:#000000;fill-opacity:1;fill-rule:nonzero;stroke:none"
       id="text130"><tspan
         x="0 19.236 38.416 55.860001 62.243999 82.683998 101.164 120.624 143.36 168.168 195.412 215.992 233.436 253.87601 274.31601 299.12399 316.56799"
         y="0"
         id="tspan124">ВСЕ ПРОМЫШЛЕННЫЕ </tspan><tspan
         x="0 20.440001 41.02 60.48 88.508003 107.94 128.828 147.644 168.952 175.336 195.776 211.008 229.82401 236.20799 256.64801 275.12799 294.58801 313.15201 332.612 353.5 372.59601 389.564"
         y="33.992001"
         id="tspan126">ПЛОЩАДКИ ПГК ПРОХОДЯТ </tspan><tspan
         x="0 18.48 35.924 51.155998 67.564003 88.143997 107.24 125.72 146.16 163.548 191.436 197.82001 220.556 240.01601 260.90399 278.34799 296.828 317.26801 338.57599 356.69199 376.12399 397.34799 418.65601"
         y="67.984001"
         id="tspan128">РЕГУЛЯРНУЮ МОДЕРНИЗАЦИЮ</tspan></text><g
       id="g132"><g
         id="g134"
         clip-path="url(#clipPath138)"><g
           id="g140"
           transform="translate(1045.4,184.75)"><path
             d="m 0,0 c -1.4,1.9 -3.367,2.85 -5.9,2.85 -2.267,0 -4.084,-0.75 -5.45,-2.25 -1.367,-1.5 -2.05,-3.25 -2.05,-5.25 0,-2 0.666,-3.75 2,-5.25 1.333,-1.5 3,-2.25 5,-2.25 0.666,0 1.266,0.067 1.8,0.2 0.266,0.067 0.5,0.167 0.7,0.3 -0.267,-2 -1.15,-3.583 -2.65,-4.75 -1.5,-1.166 -3.117,-1.75 -4.85,-1.75 v -3.5 c 1.6,0 3.216,0.284 4.85,0.85 1.633,0.567 3.083,1.467 4.35,2.7 1.266,1.234 2.3,2.8 3.1,4.7 0.8,1.9 1.2,4.15 1.2,6.75 C 2.1,-4.117 1.4,-1.9 0,0 M 20,0 C 18.6,1.9 16.633,2.85 14.1,2.85 11.833,2.85 10.016,2.1 8.65,0.6 7.283,-0.9 6.6,-2.65 6.6,-4.65 c 0,-2 0.666,-3.75 2,-5.25 1.333,-1.5 3,-2.25 5,-2.25 0.666,0 1.266,0.067 1.8,0.2 0.266,0.067 0.5,0.167 0.7,0.3 -0.267,-2 -1.15,-3.583 -2.65,-4.75 -1.5,-1.166 -3.117,-1.75 -4.85,-1.75 v -3.5 c 1.6,0 3.216,0.284 4.85,0.85 1.633,0.567 3.083,1.467 4.35,2.7 1.266,1.234 2.3,2.8 3.1,4.7 0.8,1.9 1.2,4.15 1.2,6.75 0,2.533 -0.7,4.75 -2.1,6.65"
             style="fill:#faaa2d;fill-opacity:1;fill-rule:nonzero;stroke:none"
             id="path142" /></g></g></g><g
       id="g144"
       transform="translate(891,103.1211)"><path
         d="M 0,0 H 138"
         style="fill:none;stroke:#e8f0ec;stroke-width:4;stroke-linecap:butt;stroke-linejoin:miter;stroke-miterlimit:4;stroke-dasharray:none;stroke-opacity:1"
         id="path146" /></g><g
       id="g148"
       transform="translate(891,978)"><path
         d="M 0,0 H 138"
         style="fill:none;stroke:#e8f0ec;stroke-width:4;stroke-linecap:butt;stroke-linejoin:miter;stroke-miterlimit:4;stroke-dasharray:none;stroke-opacity:1"
         id="path150" /></g><g
       id="g152"
       transform="translate(954.6674,930.1)"><path
         d="m 0,0 -20.91,-14.76 5.535,-7.995 14.76,7.995 h 1.23 V -86.1 H 18.45 V 0 Z"
         style="fill:#faaa2d;fill-opacity:1;fill-rule:nonzero;stroke:none"
         id="path154" /></g><text
       transform="matrix(1,0,0,-1,39.9201,1023)"
       style="font-variant:normal;font-weight:300;font-stretch:normal;font-size:20px;font-family:'Rubik Light';-inkscape-font-specification:Rubik-Light;writing-mode:lr-tb;fill:#000000;fill-opacity:1;fill-rule:nonzero;stroke:none"
       id="text158"><tspan
         x="0 7.96"
         y="0"
         id="tspan156">12</tspan></text><g
       id="g160"><g
         id="g162"><g
           id="g164"
           clip-path="url(#clipPath168)"><text
             transform="matrix(1,0,0,-1,99,1023)"
             style="font-variant:normal;font-weight:300;font-stretch:normal;font-size:20px;font-family:'Rubik Light';-inkscape-font-specification:Rubik-Light;writing-mode:lr-tb;fill:#000000;fill-opacity:1;fill-rule:nonzero;stroke:none"
             id="text172"><tspan
               x="0 13.24 18.4 28.02 39.18 52.459999 63.98 74.699997 86.620003 98.540001"
               y="0"
               id="tspan170">О компании</tspan></text></g></g></g></g></svg>
