<?xml version="1.0" encoding="UTF-8" standalone="no"?>
<?xml-stylesheet type="text/css" href="main.css" ?>
<svg
   xmlns:dc="http://purl.org/dc/elements/1.1/"
   xmlns:cc="http://creativecommons.org/ns#"
   xmlns:rdf="http://www.w3.org/1999/02/22-rdf-syntax-ns#"
   xmlns:svg="http://www.w3.org/2000/svg"
   xmlns="http://www.w3.org/2000/svg"
   version="1.1"
   id="svg2"
   xml:space="preserve"
   width="2560"
   height="1440"
   viewBox="0 0 2560 1440"><metadata
     id="metadata8"><rdf:RDF><cc:Work
         rdf:about=""><dc:format>image/svg+xml</dc:format><dc:type
           rdf:resource="http://purl.org/dc/dcmitype/StillImage" /></cc:Work></rdf:RDF></metadata><defs
     id="defs6"><clipPath
       clipPathUnits="userSpaceOnUse"
       id="clipPath20"><path
         d="M 0,1080 H 1920 V 0 H 0 Z"
         id="path18" /></clipPath><clipPath
       clipPathUnits="userSpaceOnUse"
       id="clipPath68"><path
         d="M 0,0 H 1920 V 1080 H 0 Z"
         id="path66" /></clipPath><clipPath
       clipPathUnits="userSpaceOnUse"
       id="clipPath112"><path
         d="M 0,0 H 1920 V 1080 H 0 Z"
         id="path110" /></clipPath><clipPath
       clipPathUnits="userSpaceOnUse"
       id="clipPath180"><path
         d="M 0,0 H 1920 V 1080 H 0 Z"
         id="path178" /></clipPath><clipPath
       clipPathUnits="userSpaceOnUse"
       id="clipPath196"><path
         d="M 0,0 H 1920 V 1080 H 0 Z"
         id="path194" /></clipPath><clipPath
       clipPathUnits="userSpaceOnUse"
       id="clipPath212"><path
         d="M 0,0 H 1920 V 1080 H 0 Z"
         id="path210" /></clipPath><clipPath
       clipPathUnits="userSpaceOnUse"
       id="clipPath234"><path
         d="M 0,1080 H 1920 V 0 H 0 Z"
         id="path232" /></clipPath></defs><g
     id="g10"
     transform="matrix(1.3333333,0,0,-1.3333333,0,1440)"><g
       id="g12"><g
         id="g14"><g
           id="g16"
           clip-path="url(#clipPath20)"><path
             d="M 0,0 H 1920 V 1080 H 0 Z"
             style="fill:#ffffff;fill-opacity:1;fill-rule:nonzero;stroke:none"
             id="path22" /></g></g></g><text
       transform="matrix(1,0,0,-1,99,953.4)"
       style="font-variant:normal;font-weight:normal;font-stretch:normal;font-size:38px;font-family:'Prosto One';-inkscape-font-specification:ProstoOne-Regular;writing-mode:lr-tb;fill:#000000;fill-opacity:1;fill-rule:nonzero;stroke:none"
       id="text28"><tspan
         x="0 32.68 59.470001 93.669998 118.75"
         y="0"
         id="tspan24">ИТОГИ</tspan><tspan
         x="0 26.219999 57.380001 83.599998 114.76 128.06 153.14 187.34 220.39999"
         y="45.599998"
         id="tspan26">2020 ГОДА</tspan></text><text
       transform="matrix(1,0,0,-1,99,817.8801)"
       style="font-variant:normal;font-weight:300;font-stretch:normal;font-size:32px;font-family:'Rubik Light';-inkscape-font-specification:Rubik-Light;writing-mode:lr-tb;fill:#000000;fill-opacity:1;fill-rule:nonzero;stroke:none"
       id="text50"><tspan
         x="0 20.832001 39.903999 58.976002 82.944 100.416 119.488 138.56 156.032 164.28799 183.36 200.832 214.20799 231.36 247.26401 266.336 283.67999 302.75201 320.608 333.5968 351.45279"
         y="0"
         id="tspan30">Снижение негативного </tspan><tspan
         x="0 17.344 35.296001 54.368 70.975998 90.047997 109.12 125.728 133.98399 152.576 173.664 192.73599 208.92799 226.08 234.336 251.67999 268.832 286.784 304.25601 322.68799 339.84 355.74399 373.08801 392.16 409.63199"
         y="38.400002"
         id="tspan32">влияния рынка вследствие </tspan><tspan
         x="0 18.431999 35.584 54.015999 71.487999 90.559998 109.632 126.24 134.496 151.64799 167.552 184.70399 202.048 219.90401 236.09599 244.35201 263.42401 280.57599 288.832 307.26401 324.79681 342.74881 359.67679 377.02081 394.17279 407.16479 425.02081 444.0928 465.18079"
         y="76.800003"
         id="tspan34">падения ставок на полувагоны </tspan><tspan
         x="0 19.072001 27.327999 45.759998 63.616001 80.767998 98.720001 116.192 134.62399 151.776 167.67999 185.024 204.09599 223.168 231.424 249.856 267.008 286.07999 304.51199 321.98401 343.23199 362.30399 381.37601"
         y="115.2"
         id="tspan36">и последствий пандемии </tspan><tspan
         x="0 20.832001 41.408001 61.824001 69.856003 91.519997 105.792 118.528 136.832 145.088 163.52 180.992 200.064 217.216 233.12 250.464 269.53601 286.14401 307.392 326.46399"
         y="153.60001"
         id="tspan38">COVID-19 действиями </tspan><tspan
         x="0 21.247999 38.720001 57.792 75.264 93.695999 117.664 138.912 156.384 175.45599 191.36 208.51199 216.76801 235.2 253.056 261.31201 279.168 297.60001 313.504 332.57599 353.82401 372.896 388.64001 405.79199 425.02399 444.09601 463.168"
         y="192"
         id="tspan40">менеджмента по оптимизации </tspan><tspan
         x="0 15.744 32.896 48.799999 67.391998 84.543999 100.448 108.032 116.288 134.72 152.576 169.92 191.008 215.616 233.088 252.16 271.23199 295.64801"
         y="230.39999"
         id="tspan42">затрат, повышению </tspan><tspan
         x="0 17.856001 36.287998 53.759998 72.351997 89.503998 108.736 127.808 145.664 164.73599 183.808 201.664 220.73599 228.992 246.144 267.87201 289.60001 307.07199 323.26401 339.168 358.23999 375.58401 394.65601 412.51199 429.664 445.56799 464.64001"
         y="268.79999"
         id="tspan44">операционной эффективности </tspan><tspan
         x="0 19.072001 27.327999 45.759998 63.231998 81.823997 99.295998 116.448 137.696 155.552 171.45599 189.4368 206.36481 214.6208 233.69279 252.7648 270.1088 287.58081 304.73279 320.63681 339.7088 358.9408 378.01279 395.8688 414.9408 434.01279 451.8688 470.9408"
         y="307.20001"
         id="tspan46">и пересмотру инвестиционной </tspan><tspan
         x="0 18.431999 37.023998 54.880001 68.255997 86.848 104 125.248 146.496"
         y="345.60001"
         id="tspan48">программы</tspan></text><text
       transform="matrix(1,0,0,-1,99,125.328)"
       style="font-variant:normal;font-weight:300;font-stretch:normal;font-size:9.328px;font-family:'Rubik Light';-inkscape-font-specification:Rubik-Light;writing-mode:lr-tb;fill:#000000;fill-opacity:1;fill-rule:nonzero;stroke:none"
       id="text54"><tspan
         x="0"
         y="0"
         id="tspan52">1</tspan></text><text
       transform="matrix(1,0,0,-1,106.8405,120)"
       style="font-variant:normal;font-weight:300;font-stretch:normal;font-size:16px;font-family:'Rubik Light';-inkscape-font-specification:Rubik-Light;writing-mode:lr-tb;fill:#000000;fill-opacity:1;fill-rule:nonzero;stroke:none"
       id="text60"><tspan
         x="0 9.5839996 18.799999 27.535999 36.112 43.728001 47.855999 57.391998 61.52 70.736 79.311996 88.288002 97.024002 105.76 109.888 118.56 127.136 135.87199 140 150.864 160.39999 169.936 178.51199 188.048 196.62399 205.552 214.224 224.76801 233.504 237.632 246.84801 255.776 263.87201 272.448 280.32001 288.896 296.84799 305.51682 314.4928 324.02881 328.1568 336.02881 344.6048 348.73279 357.69281 367.5488 376.50879 386.36481 390.4928 400.02881 404.1568 413.11679 422.97281 429.34079 438.4928 442.62079 449.1152 458.04321 467.25919 477.80319"
         y="0"
         id="tspan56">Здесь и далее все финансовые показатели за 2020 и 2019 годы </tspan><tspan
         x="-7.8400002 1.376 10.304 18.4 26.976 34.848 43.424 52.959999 63.504002 67.632004 76.704002 85.440002 93.311996 97.440002 105.904 114.336 123.072 131.024 139.60001 143.728 153.024 161.75999 169.632 177.6288 186.6048 194.22079 202.17281 210.74879 218.70081 227.6288 236.3008 240.4288 249.00481 257.74081 264.4288 275.0528 283.78879 293.3248 301.27679 309.85281 313.9808 323.51682 332.25281 343.11679 351.06879 359.80481 368.8768 377.61279 387.1488 395.02081 404.55679 414.0928 423.02081 431.69281 442.23679 450.52481 454.6528 464.2688 473.80481 482.3808 490.33279 499.06879 508.36481"
         y="20"
         id="tspan58">показаны без учета результатов сегмента нефтебензиновых цистерн</tspan></text><g
       id="g62"><g
         id="g64"
         clip-path="url(#clipPath68)"><g
           id="g70"
           transform="translate(1349.243,980.66)"><path
             d="m 0,0 c -4.601,-1.161 -8.381,-2.76 -11.34,-4.8 -2.961,-2.04 -5.141,-4.5 -6.54,-7.38 -1.401,-2.88 -2.1,-6.041 -2.1,-9.48 0,-4.56 1.419,-8.4 4.26,-11.52 2.839,-3.12 6.819,-5.28 11.94,-6.48 -3.041,-0.641 -5.76,-1.601 -8.16,-2.88 -2.4,-1.281 -4.481,-2.861 -6.24,-4.74 -1.761,-1.881 -3.101,-4.001 -4.02,-6.36 -0.921,-2.361 -1.38,-4.901 -1.38,-7.62 0,-3.441 0.819,-6.72 2.46,-9.84 1.639,-3.12 4.14,-5.861 7.5,-8.22 3.36,-2.361 7.56,-4.241 12.6,-5.64 5.04,-1.399 10.92,-2.1 17.64,-2.1 6.72,0 12.6,0.701 17.64,2.1 5.04,1.399 9.24,3.279 12.6,5.64 3.36,2.359 5.859,5.1 7.5,8.22 1.639,3.12 2.46,6.399 2.46,9.84 0,2.719 -0.461,5.259 -1.38,7.62 -0.921,2.359 -2.261,4.479 -4.02,6.36 -1.761,1.879 -3.861,3.459 -6.3,4.74 -2.441,1.279 -5.141,2.239 -8.1,2.88 5.119,1.2 9.099,3.36 11.94,6.48 2.839,3.12 4.26,6.96 4.26,11.52 0,3.439 -0.701,6.6 -2.1,9.48 -1.401,2.88 -3.581,5.34 -6.54,7.38 C 41.619,-2.76 37.839,-1.161 33.24,0 28.639,1.159 23.1,1.74 16.62,1.74 10.14,1.74 4.599,1.159 0,0 m 0.36,-73.8 c -3.561,3.24 -5.34,7.419 -5.34,12.54 0,4.8 1.8,8.799 5.4,12 3.6,3.199 9,4.8 16.2,4.8 7.2,0 12.6,-1.601 16.2,-4.8 3.6,-3.201 5.4,-7.2 5.4,-12 0,-5.121 -1.781,-9.3 -5.34,-12.54 -3.561,-3.24 -8.981,-4.86 -16.26,-4.86 -7.281,0 -12.701,1.62 -16.26,4.86 m 2.76,41.76 c -3,2.679 -4.5,6.139 -4.5,10.38 0,4.56 1.5,8.199 4.5,10.92 3,2.719 7.5,4.08 13.5,4.08 6,0 10.5,-1.361 13.5,-4.08 3,-2.721 4.5,-6.36 4.5,-10.92 0,-4.241 -1.5,-7.701 -4.5,-10.38 -3,-2.681 -7.5,-4.02 -13.5,-4.02 -6,0 -10.5,1.339 -13.5,4.02 m 78.816,31.38 -20.4,-14.4 5.4,-7.8 14.4,7.8 h 1.2 v -69.6 h 17.4 v 84 z m 48.911,-70.62 c -1.68,2.28 -4.04,3.42 -7.08,3.42 -2.72,0 -4.901,-0.9 -6.54,-2.7 -1.64,-1.8 -2.46,-3.9 -2.46,-6.3 0,-2.4 0.799,-4.5 2.4,-6.3 1.6,-1.8 3.6,-2.7 6,-2.7 0.799,0 1.519,0.081 2.16,0.24 0.319,0.081 0.6,0.201 0.84,0.36 -0.32,-2.4 -1.38,-4.299 -3.18,-5.7 -1.8,-1.399 -3.74,-2.1 -5.82,-2.1 v -4.2 c 1.92,0 3.859,0.341 5.82,1.02 1.96,0.681 3.7,1.761 5.22,3.24 1.519,1.481 2.76,3.36 3.72,5.64 0.96,2.28 1.44,4.98 1.44,8.1 0,3.039 -0.84,5.7 -2.52,7.98 m 14.735,-3.78 v -9.6 h 74.4 v 9 h -50.4 l 30.6,23.4 c 2.4,1.839 4.719,3.72 6.96,5.64 2.239,1.92 4.219,4.039 5.94,6.36 1.719,2.319 3.099,4.899 4.14,7.74 1.039,2.839 1.56,6.06 1.56,9.66 0,3.6 -0.761,6.9 -2.28,9.9 -1.521,3 -3.821,5.599 -6.9,7.8 -3.081,2.199 -6.941,3.9 -11.58,5.1 -4.641,1.2 -10.121,1.8 -16.44,1.8 -7.841,0 -14.861,-1.121 -21.06,-3.36 -6.201,-2.241 -11.58,-5.321 -16.14,-9.24 l 5.4,-7.2 c 4.56,3.919 9.3,6.699 14.22,8.34 4.92,1.639 10.38,2.46 16.38,2.46 6.639,0 11.599,-1.521 14.88,-4.56 3.279,-3.041 4.92,-7.121 4.92,-12.24 0,-3.921 -1.14,-7.38 -3.42,-10.38 -2.28,-3 -4.941,-5.541 -7.98,-7.62 z"
             style="fill:#faaa2d;fill-opacity:1;fill-rule:nonzero;stroke:none"
             id="path72" /></g><g
           id="g74"
           transform="translate(1336.3567,810.18)"><path
             d="m 0,0 c 3.439,-2.681 5.16,-6.141 5.16,-10.38 0,-10.401 -5.801,-15.6 -17.4,-15.6 h -22.2 v -9 h 24.6 c 6.319,0 10.999,-1.301 14.04,-3.9 3.039,-2.601 4.56,-6.3 4.56,-11.1 0,-4.8 -1.901,-8.801 -5.7,-12 -3.801,-3.201 -9.9,-4.8 -18.3,-4.8 -6,0 -11.561,0.939 -16.68,2.82 -5.121,1.879 -9.96,4.939 -14.52,9.18 l -6,-7.2 c 4.56,-4.241 10.14,-7.601 16.74,-10.08 6.6,-2.479 13.819,-3.72 21.66,-3.72 7.2,0 13.399,0.641 18.6,1.92 5.199,1.279 9.499,3.019 12.9,5.22 3.399,2.199 5.899,4.8 7.5,7.8 1.599,3 2.4,6.219 2.4,9.66 0,5.76 -1.701,10.419 -5.1,13.98 -3.401,3.559 -8.1,6.099 -14.1,7.62 5.439,1.839 9.399,4.419 11.88,7.74 2.479,3.319 3.72,7.539 3.72,12.66 0,3.12 -0.78,6.039 -2.34,8.76 -1.56,2.719 -3.9,5.079 -7.02,7.08 -3.12,1.999 -7.001,3.559 -11.64,4.68 -4.641,1.119 -10.041,1.68 -16.2,1.68 -7.841,0 -14.861,-1.121 -21.06,-3.36 -6.201,-2.241 -11.58,-5.321 -16.14,-9.24 l 5.4,-7.2 c 4.56,3.919 9.3,6.699 14.22,8.34 4.92,1.639 10.38,2.46 16.38,2.46 C -8.321,4.02 -3.441,2.679 0,0 m 121.81,-45.78 h -10.2 v 56.4 H 90.01 L 35.41,-44.7 v -9.48 h 58.8 v -19.2 h 17.4 v 19.2 h 10.2 z m -69,0 40.2,40.8 h 1.2 v -40.8 z M 146.218,-60 c -1.68,2.28 -4.041,3.42 -7.08,3.42 -2.721,0 -4.902,-0.9 -6.54,-2.7 -1.641,-1.8 -2.46,-3.9 -2.46,-6.3 0,-2.4 0.798,-4.5 2.4,-6.3 1.599,-1.8 3.6,-2.7 6,-2.7 0.798,0 1.518,0.081 2.16,0.24 0.318,0.081 0.6,0.201 0.84,0.36 -0.321,-2.4 -1.38,-4.299 -3.18,-5.7 -1.8,-1.399 -3.741,-2.1 -5.82,-2.1 v -4.2 c 1.92,0 3.858,0.341 5.82,1.02 1.959,0.681 3.699,1.761 5.22,3.24 1.518,1.481 2.76,3.36 3.72,5.64 0.96,2.28 1.44,4.98 1.44,8.1 0,3.039 -0.84,5.7 -2.52,7.98 m 44.902,40.02 c -2.201,-0.401 -4.1,-0.801 -5.7,-1.2 -1.841,-0.561 -3.48,-1.161 -4.92,-1.8 v 25.2 h 50.4 v 8.4 h -67.8 v -45.6 h 13.2 c 3.04,2.4 6.46,4.099 10.26,5.1 3.799,0.999 7.38,1.5 10.74,1.5 7.519,0 13.099,-1.701 16.74,-5.1 3.64,-3.401 5.46,-8.1 5.46,-14.1 0,-6 -1.86,-10.701 -5.58,-14.1 -3.72,-3.401 -9.66,-5.1 -17.82,-5.1 -5.76,0 -11.16,0.939 -16.2,2.82 -5.04,1.879 -9.84,4.939 -14.4,9.18 l -6,-7.2 c 4.56,-4.241 10.12,-7.601 16.68,-10.08 6.559,-2.479 13.6,-3.72 21.12,-3.72 14.08,0 24.4,2.52 30.96,7.56 6.559,5.04 9.84,11.919 9.84,20.64 0,8.719 -3.221,15.6 -9.66,20.64 -6.44,5.04 -16.421,7.56 -29.94,7.56 -2.72,0 -5.18,-0.201 -7.38,-0.6"
             style="fill:#faaa2d;fill-opacity:1;fill-rule:nonzero;stroke:none"
             id="path76" /></g><g
           id="g78"
           transform="translate(1339.8346,661.6)"><path
             d="m 0,0 -20.4,-14.4 5.4,-7.8 14.4,7.8 H 0.6 V -84 H 18 V 0 Z m 54.143,0.66 c -4.601,-1.161 -8.381,-2.76 -11.34,-4.8 -2.96,-2.04 -5.141,-4.5 -6.54,-7.38 -1.4,-2.88 -2.1,-6.041 -2.1,-9.48 0,-4.56 1.42,-8.4 4.26,-11.52 2.839,-3.12 6.82,-5.28 11.94,-6.48 -3.041,-0.641 -5.76,-1.601 -8.16,-2.88 -2.4,-1.281 -4.481,-2.861 -6.24,-4.74 -1.76,-1.881 -3.101,-4.001 -4.02,-6.36 -0.92,-2.361 -1.38,-4.901 -1.38,-7.62 0,-3.441 0.82,-6.72 2.46,-9.84 1.639,-3.12 4.14,-5.861 7.5,-8.22 3.36,-2.361 7.56,-4.241 12.6,-5.64 5.04,-1.399 10.92,-2.1 17.64,-2.1 6.72,0 12.6,0.701 17.64,2.1 5.04,1.399 9.24,3.279 12.6,5.64 3.36,2.359 5.86,5.1 7.5,8.22 1.639,3.12 2.46,6.399 2.46,9.84 0,2.719 -0.461,5.259 -1.38,7.62 -0.92,2.359 -2.261,4.479 -4.02,6.36 -1.76,1.879 -3.86,3.459 -6.3,4.74 -2.441,1.279 -5.141,2.239 -8.1,2.88 5.119,1.2 9.1,3.36 11.94,6.48 2.839,3.12 4.26,6.96 4.26,11.52 0,3.439 -0.701,6.6 -2.1,9.48 -1.4,2.88 -3.581,5.34 -6.54,7.38 -2.96,2.04 -6.74,3.639 -11.34,4.8 -4.601,1.159 -10.14,1.74 -16.62,1.74 -6.48,0 -12.02,-0.581 -16.62,-1.74 m 0.36,-73.8 c -3.56,3.24 -5.34,7.419 -5.34,12.54 0,4.8 1.8,8.799 5.4,12 3.6,3.199 9,4.8 16.2,4.8 7.2,0 12.6,-1.601 16.2,-4.8 3.6,-3.201 5.4,-7.2 5.4,-12 0,-5.121 -1.781,-9.3 -5.34,-12.54 -3.56,-3.24 -8.981,-4.86 -16.26,-4.86 -7.28,0 -12.701,1.62 -16.26,4.86 m 2.76,41.76 c -3,2.679 -4.5,6.139 -4.5,10.38 0,4.56 1.5,8.199 4.5,10.92 3,2.719 7.5,4.08 13.5,4.08 6,0 10.5,-1.361 13.5,-4.08 3,-2.721 4.5,-6.36 4.5,-10.92 0,-4.241 -1.5,-7.701 -4.5,-10.38 -3,-2.681 -7.5,-4.02 -13.5,-4.02 -6,0 -10.5,1.339 -13.5,4.02 m 79.908,-39.24 c -1.68,2.28 -4.04,3.42 -7.08,3.42 -2.72,0 -4.901,-0.9 -6.54,-2.7 -1.64,-1.8 -2.46,-3.9 -2.46,-6.3 0,-2.4 0.799,-4.5 2.4,-6.3 1.6,-1.8 3.6,-2.7 6,-2.7 0.799,0 1.519,0.081 2.16,0.24 0.319,0.081 0.6,0.201 0.84,0.36 -0.32,-2.4 -1.38,-4.299 -3.18,-5.7 -1.8,-1.399 -3.74,-2.1 -5.82,-2.1 v -4.2 c 1.92,0 3.859,0.341 5.82,1.02 1.96,0.681 3.7,1.761 5.22,3.24 1.519,1.481 2.76,3.36 3.72,5.64 0.96,2.28 1.44,4.98 1.44,8.1 0,3.039 -0.84,5.7 -2.52,7.98 m 96.599,14.22 h -10.2 V 0 h -21.6 l -54.6,-55.32 v -9.48 h 58.8 V -84 h 17.4 v 19.2 h 10.2 z m -69,0 40.2,40.8 h 1.2 v -40.8 z"
             style="fill:#faaa2d;fill-opacity:1;fill-rule:nonzero;stroke:none"
             id="path80" /></g><g
           id="g82"
           transform="translate(1127.21,502.4)"><path
             d="m 0,0 -20.4,-14.4 5.4,-7.8 14.4,7.8 H 0.6 V -84 H 18 V 0 Z m 46.919,0 -20.4,-14.4 5.4,-7.8 14.4,7.8 h 1.2 V -84 h 17.4 V 0 Z m 79.5,-10.62 c 3.438,-2.681 5.16,-6.141 5.16,-10.38 0,-10.401 -5.802,-15.6 -17.4,-15.6 h -22.2 v -9 h 24.6 c 6.318,0 10.998,-1.301 14.04,-3.9 3.039,-2.601 4.56,-6.3 4.56,-11.1 0,-4.8 -1.902,-8.801 -5.7,-12 -3.801,-3.201 -9.9,-4.8 -18.3,-4.8 -6,0 -11.562,0.939 -16.68,2.82 -5.121,1.879 -9.96,4.939 -14.52,9.18 l -6,-7.2 c 4.56,-4.241 10.14,-7.601 16.74,-10.08 6.6,-2.479 13.818,-3.72 21.66,-3.72 7.2,0 13.398,0.641 18.6,1.92 5.199,1.279 9.498,3.019 12.9,5.22 3.399,2.199 5.898,4.8 7.5,7.8 1.599,3 2.4,6.219 2.4,9.66 0,5.76 -1.701,10.419 -5.1,13.98 -3.402,3.559 -8.1,6.099 -14.1,7.62 5.439,1.839 9.399,4.419 11.88,7.74 2.478,3.319 3.72,7.539 3.72,12.66 0,3.12 -0.78,6.039 -2.34,8.76 -1.56,2.719 -3.9,5.079 -7.02,7.08 -3.12,1.999 -7.002,3.559 -11.64,4.68 -4.641,1.119 -10.041,1.68 -16.2,1.68 -7.842,0 -14.862,-1.121 -21.06,-3.36 -6.201,-2.241 -11.58,-5.321 -16.14,-9.24 l 5.4,-7.2 c 4.56,3.919 9.3,6.699 14.22,8.34 4.92,1.639 10.38,2.46 16.38,2.46 6.318,0 11.199,-1.341 14.64,-4.02 m 106.678,2.64 c 2.959,-1.32 5.58,-3.42 7.86,-6.3 2.28,-2.88 4.119,-6.6 5.52,-11.16 1.398,-4.56 2.1,-10.08 2.1,-16.56 0,-6.48 -0.702,-12 -2.1,-16.56 -1.401,-4.56 -3.24,-8.28 -5.52,-11.16 -2.28,-2.88 -4.901,-4.98 -7.86,-6.3 -2.961,-1.32 -6,-1.98 -9.12,-1.98 -3.12,0 -6.161,0.66 -9.12,1.98 -2.961,1.32 -5.58,3.42 -7.86,6.3 -2.28,2.88 -4.121,6.6 -5.52,11.16 -1.401,4.56 -2.1,10.08 -2.1,16.56 0,6.48 0.699,12 2.1,16.56 1.399,4.56 3.24,8.28 5.52,11.16 2.28,2.88 4.899,4.98 7.86,6.3 2.959,1.32 6,1.98 9.12,1.98 3.12,0 6.159,-0.66 9.12,-1.98 m -26.52,7.68 c -5.28,-1.8 -9.84,-4.541 -13.68,-8.22 -3.84,-3.681 -6.821,-8.301 -8.94,-13.86 -2.121,-5.561 -3.18,-12.101 -3.18,-19.62 0,-7.521 1.059,-14.061 3.18,-19.62 2.119,-5.561 5.1,-10.181 8.94,-13.86 3.84,-3.681 8.4,-6.42 13.68,-8.22 5.28,-1.8 11.079,-2.7 17.4,-2.7 6.319,0 12.12,0.9 17.4,2.7 5.28,1.8 9.84,4.539 13.68,8.22 3.84,3.679 6.819,8.299 8.94,13.86 2.118,5.559 3.18,12.099 3.18,19.62 0,7.519 -1.062,14.059 -3.18,19.62 -2.121,5.559 -5.1,10.179 -8.94,13.86 -3.84,3.679 -8.4,6.42 -13.68,8.22 -5.28,1.8 -11.081,2.7 -17.4,2.7 -6.321,0 -12.12,-0.9 -17.4,-2.7 m 71.591,-53.1 c 0,-10.56 3.259,-18.701 9.78,-24.42 6.519,-5.721 16.26,-8.58 29.22,-8.58 6.48,0 12.139,0.72 16.98,2.16 4.839,1.44 8.899,3.439 12.18,6 3.279,2.559 5.739,5.659 7.38,9.3 1.639,3.639 2.46,7.62 2.46,11.94 0,4.32 -0.801,8.299 -2.4,11.94 -1.601,3.639 -3.96,6.739 -7.08,9.3 -3.12,2.559 -6.96,4.56 -11.52,6 -4.56,1.44 -9.761,2.16 -15.6,2.16 -3.6,0 -6.821,-0.321 -9.66,-0.96 -2.841,-0.641 -5.22,-1.32 -7.14,-2.04 -2.321,-0.881 -4.32,-1.881 -6,-3 0,9.279 1.98,16.099 5.94,20.46 3.96,4.359 9.379,6.54 16.26,6.54 1.759,0 3.739,-0.141 5.94,-0.42 2.199,-0.281 4.479,-0.78 6.84,-1.5 2.359,-0.72 4.759,-1.701 7.2,-2.94 2.439,-1.241 4.779,-2.82 7.02,-4.74 l 5.4,7.2 c -4.56,3.919 -9.801,6.799 -15.72,8.64 -5.921,1.839 -11.88,2.76 -17.88,2.76 -12.96,0 -22.8,-3.141 -29.52,-9.42 -6.72,-6.281 -10.08,-15.141 -10.08,-26.58 z m 47.76,15.9 c 2.319,-1.001 4.339,-2.421 6.06,-4.26 1.719,-1.841 3.079,-4.061 4.08,-6.66 0.999,-2.601 1.5,-5.46 1.5,-8.58 0,-3.12 -0.501,-5.981 -1.5,-8.58 -1.001,-2.601 -2.4,-4.821 -4.2,-6.66 -1.8,-1.841 -3.96,-3.261 -6.48,-4.26 -2.52,-1.001 -5.261,-1.5 -8.22,-1.5 -6,0 -10.901,2.019 -14.7,6.06 -3.801,4.039 -5.7,9.819 -5.7,17.34 v 10.8 c 1.519,1.44 3.319,2.719 5.4,3.84 1.839,0.96 4.099,1.86 6.78,2.7 2.679,0.84 5.82,1.26 9.42,1.26 2.719,0 5.239,-0.501 7.56,-1.5 m 68.771,6.9 c -2.202,-0.401 -4.101,-0.801 -5.7,-1.2 -1.842,-0.561 -3.48,-1.161 -4.92,-1.8 v 25.2 h 50.4 V 0 h -67.8 v -45.6 h 13.2 c 3.039,2.4 6.459,4.099 10.26,5.1 3.798,0.999 7.38,1.5 10.74,1.5 7.518,0 13.098,-1.701 16.74,-5.1 3.639,-3.401 5.46,-8.1 5.46,-14.1 0,-6 -1.86,-10.701 -5.58,-14.1 -3.72,-3.401 -9.66,-5.1 -17.82,-5.1 -5.76,0 -11.16,0.939 -16.2,2.82 -5.04,1.879 -9.84,4.939 -14.4,9.18 l -6,-7.2 c 4.56,-4.241 10.119,-7.601 16.68,-10.08 6.558,-2.479 13.599,-3.72 21.12,-3.72 14.079,0 24.399,2.52 30.96,7.56 6.558,5.04 9.84,11.919 9.84,20.64 0,8.719 -3.222,15.6 -9.66,20.64 -6.441,5.04 -16.422,7.56 -29.94,7.56 -2.721,0 -5.181,-0.201 -7.38,-0.6"
             style="fill:#faaa2d;fill-opacity:1;fill-rule:nonzero;stroke:none"
             id="path84" /></g><g
           id="g86"
           transform="translate(1318.9182,268.8)"><path
             d="m 0,0 v -9.6 h 74.4 v 9 H 24 l 30.6,23.4 c 2.4,1.839 4.719,3.72 6.96,5.64 2.239,1.92 4.219,4.039 5.94,6.36 1.719,2.319 3.099,4.899 4.14,7.74 1.039,2.839 1.56,6.06 1.56,9.66 0,3.6 -0.761,6.9 -2.28,9.9 -1.521,3 -3.821,5.599 -6.9,7.8 C 60.939,72.099 57.079,73.8 52.44,75 47.799,76.2 42.319,76.8 36,76.8 28.159,76.8 21.139,75.679 14.94,73.44 8.739,71.199 3.36,68.119 -1.2,64.2 L 4.2,57 c 4.56,3.919 9.3,6.699 14.22,8.34 4.92,1.639 10.38,2.46 16.38,2.46 6.639,0 11.599,-1.521 14.88,-4.56 C 52.959,60.199 54.6,56.119 54.6,51 54.6,47.079 53.46,43.62 51.18,40.62 48.9,37.62 46.239,35.079 43.2,33 Z M 103.655,75.06 C 99.053,73.899 95.273,72.3 92.314,70.26 89.354,68.22 87.173,65.76 85.775,62.88 84.374,60 83.674,56.839 83.674,53.4 c 0,-4.56 1.42,-8.4 4.26,-11.52 2.839,-3.12 6.82,-5.28 11.941,-6.48 -3.042,-0.641 -5.76,-1.601 -8.161,-2.88 -2.4,-1.281 -4.481,-2.861 -6.24,-4.74 -1.76,-1.881 -3.101,-4.001 -4.02,-6.36 -0.92,-2.361 -1.38,-4.901 -1.38,-7.62 0,-3.441 0.82,-6.72 2.46,-9.84 1.639,-3.12 4.14,-5.861 7.5,-8.22 3.361,-2.361 7.56,-4.241 12.601,-5.64 5.039,-1.399 10.919,-2.1 17.64,-2.1 6.72,0 12.6,0.701 17.639,2.1 5.04,1.399 9.241,3.279 12.6,5.64 3.361,2.359 5.86,5.1 7.5,8.22 1.639,3.12 2.46,6.399 2.46,9.84 0,2.719 -0.461,5.259 -1.38,7.62 -0.92,2.359 -2.261,4.479 -4.02,6.36 -1.76,1.879 -3.86,3.459 -6.3,4.74 -2.441,1.279 -5.141,2.239 -8.1,2.88 5.119,1.2 9.1,3.36 11.941,6.48 2.838,3.12 4.26,6.96 4.26,11.52 0,3.439 -0.702,6.6 -2.101,9.48 -1.4,2.88 -3.581,5.34 -6.54,7.38 -2.96,2.04 -6.74,3.639 -11.339,4.8 -4.602,1.159 -10.14,1.74 -16.62,1.74 -6.481,0 -12.021,-0.581 -16.62,-1.74 m 0.36,-73.8 c -3.561,3.24 -5.341,7.419 -5.341,12.54 0,4.8 1.8,8.799 5.4,12 3.6,3.199 9,4.8 16.201,4.8 7.199,0 12.6,-1.601 16.199,-4.8 3.6,-3.201 5.401,-7.2 5.401,-12 0,-5.121 -1.782,-9.3 -5.341,-12.54 -3.56,-3.24 -8.981,-4.86 -16.259,-4.86 -7.281,0 -12.702,1.62 -16.26,4.86 m 2.76,41.76 c -3,2.679 -4.5,6.139 -4.5,10.38 0,4.56 1.5,8.199 4.5,10.92 3,2.719 7.5,4.08 13.5,4.08 5.999,0 10.499,-1.361 13.499,-4.08 3,-2.721 4.5,-6.36 4.5,-10.92 0,-4.241 -1.5,-7.701 -4.5,-10.38 -3,-2.681 -7.5,-4.02 -13.499,-4.02 -6,0 -10.5,1.339 -13.5,4.02 m 138.743,0.78 c 0,10.56 -3.26,18.699 -9.779,24.42 -6.522,5.719 -16.26,8.58 -29.221,8.58 -6.48,0 -12.14,-0.72 -16.98,-2.16 -4.841,-1.44 -8.9,-3.441 -12.179,-6 -3.282,-2.561 -5.742,-5.661 -7.38,-9.3 -1.641,-3.641 -2.461,-7.62 -2.461,-11.94 0,-4.32 0.799,-8.301 2.4,-11.94 1.6,-3.641 3.96,-6.741 7.081,-9.3 3.119,-2.561 6.959,-4.56 11.519,-6 4.56,-1.44 9.76,-2.16 15.6,-2.16 3.601,0 6.799,0.3 9.601,0.9 2.799,0.6 5.199,1.299 7.199,2.1 2.239,0.879 4.24,1.879 6,3 0,-9.281 -1.98,-16.101 -5.939,-20.46 -3.961,-4.361 -9.381,-6.54 -16.26,-6.54 -1.842,0 -3.841,0.139 -6,0.42 -2.161,0.279 -4.422,0.78 -6.781,1.5 -2.36,0.72 -4.76,1.699 -7.199,2.94 -2.442,1.239 -4.782,2.82 -7.02,4.74 l -5.401,-7.2 c 4.56,-3.921 9.799,-6.801 15.72,-8.64 5.92,-1.839 11.88,-2.76 17.88,-2.76 12.96,0 22.801,3.139 29.52,9.42 6.72,6.279 10.08,15.139 10.08,26.58 z M 197.759,27.9 c -2.322,0.999 -4.341,2.419 -6.061,4.26 -1.721,1.839 -3.08,4.059 -4.08,6.66 -1.001,2.599 -1.5,5.46 -1.5,8.58 0,3.12 0.499,5.979 1.5,8.58 1,2.599 2.4,4.819 4.2,6.66 1.8,1.839 3.94,3.259 6.421,4.26 2.478,0.999 5.238,1.5 8.279,1.5 6,0 10.9,-2.021 14.701,-6.06 3.798,-4.041 5.699,-9.821 5.699,-17.34 V 34.2 c -1.52,-1.521 -3.32,-2.841 -5.4,-3.96 -1.841,-0.96 -4.1,-1.841 -6.779,-2.64 -2.682,-0.801 -5.821,-1.2 -9.421,-1.2 -2.72,0 -5.24,0.499 -7.559,1.5"
             style="fill:#faaa2d;fill-opacity:1;fill-rule:nonzero;stroke:none"
             id="path88" /></g><g
           id="g90"
           transform="translate(1334.8304,109.6)"><path
             d="m 0,0 v -9.6 h 74.4 v 9 H 24 l 30.6,23.4 c 2.4,1.839 4.719,3.72 6.96,5.64 2.239,1.92 4.219,4.039 5.94,6.36 1.719,2.319 3.099,4.899 4.14,7.74 1.039,2.839 1.56,6.06 1.56,9.66 0,3.6 -0.761,6.9 -2.28,9.9 -1.521,3 -3.821,5.599 -6.9,7.8 C 60.939,72.099 57.079,73.8 52.44,75 47.799,76.2 42.319,76.8 36,76.8 28.159,76.8 21.139,75.679 14.94,73.44 8.739,71.199 3.36,68.119 -1.2,64.2 L 4.2,57 c 4.56,3.919 9.3,6.699 14.22,8.34 4.92,1.639 10.38,2.46 16.38,2.46 6.639,0 11.599,-1.521 14.88,-4.56 C 52.959,60.199 54.6,56.119 54.6,51 54.6,47.079 53.46,43.62 51.18,40.62 48.9,37.62 46.239,35.079 43.2,33 Z m 152.782,74.4 h -74.4 v -9 h 57 l -39.6,-75 h 18 l 39,73.8 z M 233.206,18 h -10.2 v 56.4 h -21.6 l -54.6,-55.32 V 9.6 h 58.8 V -9.6 h 17.4 V 9.6 h 10.2 z m -69,0 40.2,40.8 h 1.2 V 18 Z"
             style="fill:#faaa2d;fill-opacity:1;fill-rule:nonzero;stroke:none"
             id="path92" /></g><g
           id="g94"
           transform="translate(1806,479.4)"><path
             d="m 0,0 h -142 c -11.046,0 -20,-8.954 -20,-20 0,-11.046 8.954,-20 20,-20 H 0 c 11.046,0 20,8.954 20,20 C 20,-8.954 11.046,0 0,0"
             style="fill:#e8e8ed;fill-opacity:1;fill-rule:nonzero;stroke:none"
             id="path96" /></g><g
           id="g98"
           transform="translate(1806,320.2)"><path
             d="m 0,0 h -142 c -11.046,0 -20,-8.954 -20,-20 0,-11.046 8.954,-20 20,-20 H 0 c 11.046,0 20,8.954 20,20 C 20,-8.954 11.046,0 0,0"
             style="fill:#e8e8ed;fill-opacity:1;fill-rule:nonzero;stroke:none"
             id="path100" /></g></g></g><text
       transform="matrix(1,0,0,-1,1664.0626,292.9184)"
       style="font-variant:normal;font-weight:500;font-stretch:normal;font-size:28px;font-family:'Rubik Medium';-inkscape-font-specification:Rubik-Medium;writing-mode:lr-tb;fill:#000000;fill-opacity:1;fill-rule:nonzero;stroke:none"
       id="text104"><tspan
         x="0 19.712 36.624001 53.816002 71.428001 77.811996 92.68 106.12 122.164"
         y="0"
         id="tspan102">млрд т-км</tspan></text><g
       id="g106"><g
         id="g108"
         clip-path="url(#clipPath112)"><g
           id="g114"
           transform="translate(1806,161)"><path
             d="m 0,0 h -142 c -11.046,0 -20,-8.954 -20,-20 0,-11.046 8.954,-20 20,-20 H 0 c 11.046,0 20,8.954 20,20 C 20,-8.954 11.046,0 0,0"
             style="fill:#e8e8ed;fill-opacity:1;fill-rule:nonzero;stroke:none"
             id="path116" /></g></g></g><text
       transform="matrix(1,0,0,-1,1664.0626,133.7192)"
       style="font-variant:normal;font-weight:500;font-stretch:normal;font-size:28px;font-family:'Rubik Medium';-inkscape-font-specification:Rubik-Medium;writing-mode:lr-tb;fill:#000000;fill-opacity:1;fill-rule:nonzero;stroke:none"
       id="text120"><tspan
         x="0 19.712 36.624001 53.816002 71.428001 77.811996 92.68 106.12 122.164"
         y="0"
         id="tspan118">млрд т-км</tspan></text><g
       id="g122"
       transform="translate(693,858.3984)"><path
         d="M 0,0 H 1128"
         style="fill:none;stroke:#e9e9e9;stroke-width:2;stroke-linecap:butt;stroke-linejoin:miter;stroke-miterlimit:4;stroke-dasharray:none;stroke-opacity:1"
         id="path124" /></g><g
       id="g126"
       transform="translate(693,699.2031)"><path
         d="M 0,0 H 1128"
         style="fill:none;stroke:#e9e9e9;stroke-width:2;stroke-linecap:butt;stroke-linejoin:miter;stroke-miterlimit:4;stroke-dasharray:none;stroke-opacity:1"
         id="path128" /></g><g
       id="g130"
       transform="translate(693,540)"><path
         d="M 0,0 H 1128"
         style="fill:none;stroke:#e9e9e9;stroke-width:2;stroke-linecap:butt;stroke-linejoin:miter;stroke-miterlimit:4;stroke-dasharray:none;stroke-opacity:1"
         id="path132" /></g><g
       id="g134"
       transform="translate(693,380.7969)"><path
         d="M 0,0 H 1128"
         style="fill:none;stroke:#e9e9e9;stroke-width:2;stroke-linecap:butt;stroke-linejoin:miter;stroke-miterlimit:4;stroke-dasharray:none;stroke-opacity:1"
         id="path136" /></g><g
       id="g138"
       transform="translate(693,221.6016)"><path
         d="M 0,0 H 1128"
         style="fill:none;stroke:#e9e9e9;stroke-width:2;stroke-linecap:butt;stroke-linejoin:miter;stroke-miterlimit:4;stroke-dasharray:none;stroke-opacity:1"
         id="path140" /></g><text
       transform="matrix(1,0,0,-1,693,928.2)"
       style="font-variant:normal;font-weight:500;font-stretch:normal;font-size:28px;font-family:'Rubik Medium';-inkscape-font-specification:Rubik-Medium;writing-mode:lr-tb;fill:#000000;fill-opacity:1;fill-rule:nonzero;stroke:none"
       id="text144"><tspan
         x="0 19.236 40.740002 57.344002 73.360001 89.571999 105.616"
         y="0"
         id="tspan142">Выручка</tspan></text><text
       transform="matrix(1,0,0,-1,814.631,937.524)"
       style="font-variant:normal;font-weight:500;font-stretch:normal;font-size:16.324px;font-family:'Rubik Medium';-inkscape-font-specification:Rubik-Medium;writing-mode:lr-tb;fill:#000000;fill-opacity:1;fill-rule:nonzero;stroke:none"
       id="text148"><tspan
         x="0"
         y="0"
         id="tspan146">1</tspan></text><text
       transform="matrix(1,0,0,-1,693,769)"
       style="font-variant:normal;font-weight:500;font-stretch:normal;font-size:28px;font-family:'Rubik Medium';-inkscape-font-specification:Rubik-Medium;writing-mode:lr-tb;fill:#000000;fill-opacity:1;fill-rule:nonzero;stroke:none"
       id="text152"><tspan
         x="0 17.444 36.68 45.080002 62.048 81.337196"
         y="0"
         id="tspan150">EBITDA</tspan></text><text
       transform="matrix(1,0,0,-1,693,609.792)"
       style="font-variant:normal;font-weight:500;font-stretch:normal;font-size:28px;font-family:'Rubik Medium';-inkscape-font-specification:Rubik-Medium;writing-mode:lr-tb;fill:#000000;fill-opacity:1;fill-rule:nonzero;stroke:none"
       id="text158"><tspan
         x="0 18.983999 36.456001 52.472 67.339996 88.844002 106.316 112.7 130.312 146.66119 163.5732"
         y="0"
         id="tspan154">Чистый долг</tspan><tspan
         x="0 20.440001 36.456001 53.647999 69.692001 76.075996 92.456001 98.839996 114.856 131.992 149.18401 165.2 181.58 198.492 214.67599 232.14799 249.62"
         y="142.21201"
         id="tspan156">Парк в управлении</tspan></text><text
       transform="matrix(1,0,0,-1,693,433.588)"
       style="font-variant:normal;font-weight:500;font-stretch:normal;font-size:28px;font-family:'Rubik Medium';-inkscape-font-specification:Rubik-Medium;writing-mode:lr-tb;fill:#000000;fill-opacity:1;fill-rule:nonzero;stroke:none"
       id="text166"><tspan
         x="0 17.472 33.487999 39.872002 57.091999 70.084 75.767998 88.760002 106.12 113.652 131.01199 149.464 166.82401"
         y="0"
         id="tspan160">на 31.12.2020</tspan><tspan
         x="0 19.459999 36.203999 59.584 77.056 94.528 100.912 114.296 130.89999 146.916 161.924 178.528 195.132 211.87601 228.48 245.672 262.276 277.14401 283.52802 303.96799 319.20001"
         y="142.21201"
         id="tspan162">Общий Грузооборот ПГК</tspan><tspan
         x="0 13.384 29.988001 46.004002 61.012001 77.615997 94.220001 110.964 127.568 144.75999 161.364 176.23199 182.616 203.056 218.28799"
         y="284.42401"
         id="tspan164">Грузооборот ПГК</tspan></text><text
       transform="matrix(1,0,0,-1,693,115.172)"
       style="font-variant:normal;font-weight:500;font-stretch:normal;font-size:28px;font-family:'Rubik Medium';-inkscape-font-specification:Rubik-Medium;writing-mode:lr-tb;fill:#000000;fill-opacity:1;fill-rule:nonzero;stroke:none"
       id="text172"><tspan
         x="0 16.379999 22.764 41.243999 57.848 73.863998 89.879997 107.352 124.824 140.84 156.2372 172.8412 190.3132 196.6972 221.7012 237.88519 255.49719 271.68121 288.8732 304.88919 322.7532 340.22519"
         y="0"
         id="tspan168">в Российской Федерации</tspan><tspan
         x="986.15997 1002.54 1018.556 1030.792 1047.396 1064.868 1081.472"
         y="-336.92401"
         id="tspan170">вагонов</tspan></text><g
       id="g174"><g
         id="g176"
         clip-path="url(#clipPath180)"><g
           id="g182"
           transform="translate(1806,638.6)"><path
             d="m 0,0 h -142 c -11.046,0 -20,-8.954 -20,-20 0,-11.046 8.954,-20 20,-20 H 0 c 11.046,0 20,8.954 20,20 C 20,-8.954 11.046,0 0,0"
             style="fill:#e8e8ed;fill-opacity:1;fill-rule:nonzero;stroke:none"
             id="path184" /></g></g></g><text
       transform="matrix(1,0,0,-1,1671.5,611.3169)"
       style="font-variant:normal;font-weight:500;font-stretch:normal;font-size:28px;font-family:'Rubik Medium';-inkscape-font-specification:Rubik-Medium;writing-mode:lr-tb;fill:#000000;fill-opacity:1;fill-rule:nonzero;stroke:none"
       id="text188"><tspan
         x="0 19.712 36.624001 53.816002 71.428001 77.635597 94.239601 110.2556"
         y="0"
         id="tspan186">млрд руб</tspan></text><g
       id="g190"><g
         id="g192"
         clip-path="url(#clipPath196)"><g
           id="g198"
           transform="translate(1806,798.8)"><path
             d="m 0,0 h -142 c -11.046,0 -20,-8.954 -20,-20 0,-11.046 8.954,-20 20,-20 H 0 c 11.046,0 20,8.954 20,20 C 20,-8.954 11.046,0 0,0"
             style="fill:#e8e8ed;fill-opacity:1;fill-rule:nonzero;stroke:none"
             id="path200" /></g></g></g><text
       transform="matrix(1,0,0,-1,1671.5,771.5161)"
       style="font-variant:normal;font-weight:500;font-stretch:normal;font-size:28px;font-family:'Rubik Medium';-inkscape-font-specification:Rubik-Medium;writing-mode:lr-tb;fill:#000000;fill-opacity:1;fill-rule:nonzero;stroke:none"
       id="text204"><tspan
         x="0 19.712 36.624001 53.816002 71.428001 77.635597 94.239601 110.2556"
         y="0"
         id="tspan202">млрд руб</tspan></text><g
       id="g206"><g
         id="g208"
         clip-path="url(#clipPath212)"><g
           id="g214"
           transform="translate(1806,958)"><path
             d="m 0,0 h -142 c -11.046,0 -20,-8.954 -20,-20 0,-11.046 8.954,-20 20,-20 H 0 c 11.046,0 20,8.954 20,20 C 20,-8.954 11.046,0 0,0"
             style="fill:#e8e8ed;fill-opacity:1;fill-rule:nonzero;stroke:none"
             id="path216" /></g></g></g><text
       transform="matrix(1,0,0,-1,1671.5,930.7153)"
       style="font-variant:normal;font-weight:500;font-stretch:normal;font-size:28px;font-family:'Rubik Medium';-inkscape-font-specification:Rubik-Medium;writing-mode:lr-tb;fill:#000000;fill-opacity:1;fill-rule:nonzero;stroke:none"
       id="text220"><tspan
         x="0 19.712 36.624001 53.816002 71.428001 77.635597 94.239601 110.2556"
         y="0"
         id="tspan218">млрд руб</tspan></text><text
       transform="matrix(1,0,0,-1,39.5702,1023)"
       style="font-variant:normal;font-weight:300;font-stretch:normal;font-size:20px;font-family:'Rubik Light';-inkscape-font-specification:Rubik-Light;writing-mode:lr-tb;fill:#000000;fill-opacity:1;fill-rule:nonzero;stroke:none"
       id="text224"><tspan
         x="0 7.96"
         y="0"
         id="tspan222">14</tspan></text><g
       id="g226"><g
         id="g228"><g
           id="g230"
           clip-path="url(#clipPath234)"><text
             transform="matrix(1,0,0,-1,99,1023)"
             style="font-variant:normal;font-weight:300;font-stretch:normal;font-size:20px;font-family:'Rubik Light';-inkscape-font-specification:Rubik-Light;writing-mode:lr-tb;fill:#000000;fill-opacity:1;fill-rule:nonzero;stroke:none"
             id="text238"><tspan
               x="0 13.24 18.4 28.02 39.18 52.459999 63.98 74.699997 86.620003 98.540001"
               y="0"
               id="tspan236">О компании</tspan></text></g></g></g></g></svg>
