<?xml version="1.0" encoding="UTF-8" standalone="no"?>
<?xml-stylesheet type="text/css" href="main.css" ?>
<svg
   xmlns:dc="http://purl.org/dc/elements/1.1/"
   xmlns:cc="http://creativecommons.org/ns#"
   xmlns:rdf="http://www.w3.org/1999/02/22-rdf-syntax-ns#"
   xmlns:svg="http://www.w3.org/2000/svg"
   xmlns="http://www.w3.org/2000/svg"
   version="1.1"
   id="svg2"
   xml:space="preserve"
   width="2560"
   height="1440"
   viewBox="0 0 2560 1440"><metadata
     id="metadata8"><rdf:RDF><cc:Work
         rdf:about=""><dc:format>image/svg+xml</dc:format><dc:type
           rdf:resource="http://purl.org/dc/dcmitype/StillImage" /></cc:Work></rdf:RDF></metadata><defs
     id="defs6"><clipPath
       clipPathUnits="userSpaceOnUse"
       id="clipPath20"><path
         d="M 0,1080 H 1920 V 0 H 0 Z"
         id="path18" /></clipPath><clipPath
       clipPathUnits="userSpaceOnUse"
       id="clipPath148"><path
         d="M 0,0 H 1920 V 1080 H 0 Z"
         id="path146" /></clipPath><clipPath
       clipPathUnits="userSpaceOnUse"
       id="clipPath166"><path
         d="M 0,0 H 1920 V 1080 H 0 Z"
         id="path164" /></clipPath><clipPath
       clipPathUnits="userSpaceOnUse"
       id="clipPath192"><path
         d="M 0,1080 H 1920 V 0 H 0 Z"
         id="path190" /></clipPath></defs><g
     id="g10"
     transform="matrix(1.3333333,0,0,-1.3333333,0,1440)"><g
       id="g12"><g
         id="g14"><g
           id="g16"
           clip-path="url(#clipPath20)"><path
             d="M 0,0 H 1920 V 1080 H 0 Z"
             style="fill:#ffffff;fill-opacity:1;fill-rule:nonzero;stroke:none"
             id="path22" /></g></g></g><path
       d="M 0,0 H 633 V 1080 H 0 Z"
       style="fill:#e8e8ed;fill-opacity:1;fill-rule:nonzero;stroke:none"
       id="path24" /><text
       transform="matrix(1,0,0,-1,99,953.4)"
       style="font-variant:normal;font-weight:normal;font-stretch:normal;font-size:38px;font-family:'Prosto One';-inkscape-font-specification:ProstoOne-Regular;writing-mode:lr-tb;fill:#000000;fill-opacity:1;fill-rule:nonzero;stroke:none"
       id="text30"><tspan
         x="0 30.02 64.220001 97.470001 130.14999 161.31 192.85001 222.87 254.78999 285.95001 316.35001"
         y="0"
         id="tspan26">СОЦИАЛЬНАЯ </tspan><tspan
         x="0 34.200001 60.990002 91.389999 118.37 145.16 175.17999 201.97 232.37 259.35001 291.26999 323.19 357.39001 387.41 414.20001"
         y="45.599998"
         id="tspan28">ОТВЕТСТВЕННОСТЬ</tspan></text><text
       transform="matrix(1,0,0,-1,99,829.1)"
       style="font-variant:normal;font-weight:300;font-stretch:normal;font-size:20px;font-family:'Rubik Light';-inkscape-font-specification:Rubik-Light;writing-mode:lr-tb;fill:#000000;fill-opacity:1;fill-rule:nonzero;stroke:none"
       id="text128"><tspan
         x="0 14 24.1 36.380001 41.540001 51.380001 62.099998 74.019997 85.940002 99.220001 109.94 120.86 130.8 135.96001 147.17999 159.10001 170.62 182.53999 193.778 204.358 219.618 235.51801 247.438 258.358 263.51801 275.03799 286.198 296.03799 307.95801 319.978 331.89801 343.81799"
         y="0"
         id="tspan32">ПГК занимает лидирующие позиции </tspan><tspan
         x="0 11.92 22.639999 27.799999 39.419998 50.580002 61.299999 72.019997 83.940002 95.860001 106.58 116.198 127.358 140.638 145.798 157.418 170.59801 182.51801 192.138 203.058 208.218 216.578 227.81799 238.39799 248.23801 259.39801 270.23801 283.418 293.77802"
         y="26"
         id="tspan34">на российском рынке грузовых </tspan><tspan
         x="0 14.98 25.82 37.040001 47.959999 57.799999 69.720001 80.879997 92.400002 103.56 115.18 126.34 141.32001 153.24001 166.42 176.78 181.94 193.46001 204.38 216 226.92 237.75999 248.92 258.76001 269.92001 280.04001 285.20001 297.12 302.28 313.12 318.28 329 339.84 351 361.92001 373.84"
         y="52"
         id="tspan36">железнодорожных перевозок и в своей </tspan><tspan
         x="0 11.52 22.440001 32.82 42.759998 53.599998 64.82 74.339996 86.260002 97.419998 108.14 118.08 130 135.16 146.32001 157.03999 168.96001 180.12 190.96001 204.14 214.98 225.7 236.62 246.56 257.28 267.66 272.82001 284.73999 295.45999 300.62 312.14001 323.76001 335.67999 347.60001 359.62 371.54001 383.06 393.78 404.14001"
         y="78"
         id="tspan38">деятельности основывается на принципах </tspan><tspan
         x="0 10.72 21.879999 33.900002 45.82 56.540001 67.760002 77.279999 89.199997 100.36 112.28 117.44 128.60001 138.53999 149.38 160.3 170.24001 180.96001 190.89999 201.74001 212.66 224.58 236.5 247.66 258.38 268.32001 280.23999 285 290.16 301.836 312.996 326.276 337.79599 348.51599 360.436 372.35599 382.73599"
         y="104"
         id="tspan40">социальной ответственности. Компания </tspan><tspan
         x="0 10.84 24.02 35.540001 46.5 57.720001 69.639999 80.019997 90.940002 100.88 106.04 117.96 128.67999 139.89999 151.06 159.17799 170.338 181.17799 194.358 205.278 210.438 221.59801 232.938 243.31799 253.158 263.87799 273.81799 284.65601 295.87601 305.396 316.116 326.056 336.896 347.616 352.35599"
         y="130"
         id="tspan42">выполняет налоговые обязательства, </tspan><tspan
         x="0 10.72 21.879999 33.400002 44.32 56.240002 66.959999 76.900002 87.739998 97.977997 108.898 118.838 123.998 134.718 145.87801 157.89799 169.81799 180.53799 191.758 201.278 213.198 224.358 234.09801 244.81799 254.438 265.59799 277.51801 288.67801 301.95801 313.87799 324.418 335.33801 346.05801 355.67599 366.836 380.116 390.69601"
         y="156"
         id="tspan44">содействует социально-экономическому </tspan><tspan
         x="0 11.62 22.34 32.18 43.02 54.939999 64.879997 76.800003 92.059998 97.220001 108.06 113.22 124.84 135.75999 144.12 156.03999 167.2 179.12 189.84 200.2 204.94 210.10001 221.62 232.78 243.5 253.44 264.16 275 286.22 296.60001 307.51999 317.45999 322.62 333.34 344.5 356.51999 368.44 379.16 390.38 399.89999 411.82001 422.98001"
         y="182"
         id="tspan46">развитию в регионах, доставляет социально </tspan><tspan
         x="0 9.8400002 21.76 32.48 43.02 54.939999 68.220001 81.400002 92.32 97.480003 105.84 117.078 127.658 137.498 150.67799 155.838 167.358 178.51801 183.67799 194.51801 205.23801 216.158 228.078 233.23801 243.17799 254.09801 265.71799 277.33801 289.258 299.198 310.358 321.978 333.89801 345.81799 350.978 363.53799 374.698 385.418 396.138 408.05801 419.978 424.73801"
         y="208"
         id="tspan48">значимые грузы по всей территории России. </tspan><tspan
         x="0 11.98 23.9 34.619999 45.16 57.080002 67.019997 77.860001 89.080002 98.599998 110.52 121.68 132.60001 137.008 147.84801 159.76801 171.688 184.968 195.688 207.608 219.528 230.448 234.854 245.43401 256.95401 267.79401 279.01401 289.39401 300.314 310.254 320.974 331.354 335.76199 346.48199 357.642 368.98199 380.202 395.46201 406.98199 417.90201 429.82199 441.742 457.00201"
         y="234"
         id="tspan50">Значительное внимание уделяется соблюдению </tspan><tspan
         x="0 11.92 23.84 33.779999 44.700001 56.32 67.239998 77.959999 89.120003 99.959999 105.12 115.84 127 136.94 148.17799 158.758 170.278 182.198 194.118 203.73801 214.89799 225.73801 230.478 235.638 246.358 257.51801 267.358 278.87799 289.59799 304.858 314.798 325.51801 335.89801"
         y="260"
         id="tspan52">интересов сотрудников, создаются </tspan><tspan
         x="0 9.6199999 20.780001 34.060001 47.639999 58.799999 70.419998 80.360001 92.279999 105.46 116.38 121.54 131.778 142.498 153.718 164.87801 175.718 187.638 198.01801 203.17799 214.698 225.918 236.298 241.45799 252.17799 265.758 279.33801 290.258 300.37799 310.31799 322.23801 333.078 344.99799 356.15799 368.078 373.23801 384.858 395.578 406.918 418.078 428.01801 441.198 445.95801"
         y="286"
         id="tspan54">комфортные условия для эффективной работы. </tspan><tspan
         x="0 13.24 24.58 40.48 51.400002 62.119999 72.059998 82.900002 94.059998 99.220001 110.74 122.36 133.28 144.8 155.96001 166.67999 176.62 187.34 198.17999 209.39999 219.78 230.7 240.64 245.8 256.64001 267.79999 277.64001 290.92001 302.07999 317.06 328.98001 340.14001 350.85999 360.79999 372.72"
         y="312"
         id="tspan56">Общество предоставляет возможности </tspan><tspan
         x="0 11.52 23.139999 34.299999 47.880001 58.799999 69.519997 80.239998 92.160004 103.32 115.24 125.96 137.17999 146.7 158.62 169.78 177.89799 189.058 194.218 205.838 216.558 226.39799 237.23801 249.158 259.09799 271.01801 281.39801 286.55801 298.078 309.23801 319.95801 331.578 342.49799 354.01801 364.73801 374.67801 385.51801 396.67801 409.95801"
         y="338"
         id="tspan58">профессионального развития посредством </tspan><tspan
         x="0 11.16 22.5 33.080002 43.619999 54.540001 66.459999 78.379997 88.760002 93.919998 105.84 111 121.58 132.12 142.84 153.56 163.5 175.42 185.8 190.96001 201.8 212.96001 218.12 228.96001 240.88 251.46001 261.39999 273.01999 283.94 295.85999 307.78 319.70001 330.06 335.22 346.73999 358.35999 369.51999 380.44 390.56 400.5 411.22 421.57999 426.32001"
         y="364"
         id="tspan60">обучения и участия во внутренних проектах, </tspan><tspan
         x="0 10.72 15.88 25.82 36.540001 46.66 61.639999 72.559998 77.720001 87.559998 98.279999 109.62 120.78 130.72 142.64 152.58 163.3 173.67999 178.84 190 195.16 206.5 217.42 227.25999 238.42 249.94 260.66 271.38 283.29999 294.45999 305.17999 315.12 327.04001 332.20001 341.81601 352.97601 366.25601 376.97601 388.896 400.41599 413.59601"
         y="390"
         id="tspan62">а также заботится о безопасности команды.</tspan><tspan
         x="594 607.15997 612.41998 622.76001 633.58002 644.90002 656.15997 667.09998 679.12 689.59998 700.06 705.32001 717.34003 728.35999 739.17999 749.21997 760.03998 771.47998 783.5 794.82001 804.44 816.46002 827.71997 839.73999 845 855.82001 867.44 879.46002 891.08002 902.09998 915.47998 927.5 938.56 949.88 961.14001 969.59998 981.62 992.26001 1003.28 1014.1 1023.82 1035.08 1046.998"
         y="325.28"
         id="tspan64">В условиях нестабильной эпидемиологической </tspan><tspan
         x="594 604.82001 616.84003 626.88 637.56 648.38 660.5 672.52002 684.53998 689.79999 700.73999 706 717.29999 729.71997 741.02002 753.44 758.70001 766.91998 778.17999 789.79999 800.47998 805.73999 817 828.62 839.64001 851.35999 862.17999 872.21997 883.47998 895.20001 900.46002 911.71997 923.34003 935.35999 947.38 960.76001 966.02002 978.03998 987.97998 993.23999 1004.86 1015.88 1027.6 1038.54 1051.8199 1062.1801"
         y="352.20001"
         id="tspan66">ситуации в 2020 году оператор одним из первых </tspan><tspan
         x="594 605.62 616.64001 628.35999 639.38 650.32001 661.26001 672.58002 677.84003 689.28003 700.34003 711.65997 721.28003 736.76001 747.44 762.79999 768.06 778.70001 789.52002 800.34003 810.38 820 825.26001 836.97998 847.79999 859.23999 870.5 880.53998 892.56 904.58002 914.29999 925.56 936.5 941.76001 953.78003 964.59998 969.85999 981.47998 993.5 1004.32 1014.36 1025.1801 1037.2 1049.3199 1061.34 1072.6 1084.62 1096.64 1109.92 1121.84"
         y="379.12"
         id="tspan68">перевел большую часть работников на дистанционный </tspan><tspan
         x="594 605.71997 616.73999 631.82001 643.84003 657.21997 662.47998 674.20001 685.02002 696.46002 707.71997 717.76001 731.03998 735.90002 741.15997 754.32001 759.58002 770.40002 781.65997 792.91998 802.96002 813.90002 824.91998 834.96002 845.78003 855.82001 866.76001 878.78003 890.79999 896.06 906.88 912.14001 923.85999 934.67999 944.62 956.34003 967.15997 978.59998 989.85999 999.90002 1010.72 1022.74 1034.76 1046.02 1057.9399"
         y="406.04001"
         id="tspan70">режим работы. В соответствии с разработанной </tspan><tspan
         x="594 607.38 618.64001 630.26001 641.20001 652.52002 662.14001 677.5 682.76001 693.44 705.06 716.78003 727.59998 738.53998 749.85999 760.34003 771.35999 784.73999 796 808.02002 813.28003 823.96002 835.58002 846.40002 857.71997 868.73999 880.76001 892.78003 904.03998 916.06 921.32001 932.14001 942.17999 953.52002 964.20001 974.41998 984.46002 995.14001 1006.86 1020.14 1024.88"
         y="432.95999"
         id="tspan72">моделью управляемой удаленной структуры, </tspan><tspan
         x="594 604.82001 616.08002 626.90002 636.94 648.20001 658.67999 674.67999 685.70001 697.71997 702.97998 715 724.94 730.20001 742.32001 753.34003 765.35999 775.40002 787.12 797.94 809.26001 818.88 830.90002 842.15997 850.38 861.64001 866.90002 877.71997 889.34003 900.96002 911.78003 923.5 934.32001 944.35999 955.17999 960.44 970.15997 981.41998 994.79999 1006.42 1017.24 1029.26 1041.28 1053.2"
         y="459.88"
         id="tspan74">состоящей из центрального аппарата компании </tspan><tspan
         x="594 606.02002 611.28003 619.34003 631.34003 636.59998 650.28003 662.29999 673.62 685.64001 696.46002 707.78003 719.03998 729.97998 735.23999 746.17999 751.44 763.15997 773.97998 783.91998 795.23999 807.26001 817.90002 829.91998 843.20001 853.65997 858.91998 870.64001 881.65997 890.12 902.14001 913.40002 925.41998 936.23999 946.70001 951.96002 964.62 975.88 986.70001 997.52002 1009.54 1021.56 1026.3"
         y="486.79999"
         id="tspan76">и 14 филиалов в различных регионах России, </tspan><tspan
         x="594 605.44 618.71997 630.03998 635.29999 646.56 658 669.02002 679.84003 691.46002 702.47998 713.12 724.14001 736.15997 741.41998 753.03998 764.29999 775.12 785.15997 795.84003 807.46002 812.71997 822.94 828.20001 839.82001 851.53998 862.79999 871.26001 882.97998 893.79999 907.17999 920.56 932.58002 945.85999 959.23999 964.5 976.12 987.84003 999.09998 1010.72 1021.4 1031.62 1041.66 1052.48 1065.76"
         y="513.71997"
         id="tspan78">был обеспечен доступ к программным продуктам </tspan><tspan
         x="594 606.02002 611.28003 623 634.02002 644.84003 655.52002 667.23999 678.06 688.88 702.26001 707.09998 712.35999 723.17999 728.44 738.47998 749.29999 759.52002 774.59998 785.62 790.88 802.5 814.21997 825.23999 836.85999 848.12 858.94 868.97998 879.79999 890.73999 902.06 913.08002 925.09998 935.91998 941.17999 950.90002 962.15997 975.53998 987.15997 996.78003 1012.14 1022.18 1033.2 1044.92 1056.9399 1067.76 1078.14"
         y="540.64001"
         id="tspan80">и ресурсам, а также предоставлена компьютерная </tspan><tspan
         x="594 604.03998 615.06 625.52002 637.53998 649.56 659.78003 670.59998 675.85999 685.90002 696.91998 710.29999 715.14001 720.40002 731.08002 736.34003 746.06 757.32001 765.53998 776.79999 782.06 793.08002 804.09998 809.35999 820.97998 832.23999 845.62 856.44 861.70001 873.71997 884.73999 894.78003 899.64001 904.90002 918.52002 929.84003 940.32001 945.58002 956.40002 968.02002 979.03998 991.15997 1003.18 1014 1025.3199 1037.34 1048.16 1058.2 1069.46 1080.4 1085.14"
         y="567.56"
         id="tspan82">техника тем, у кого ее дома нет. Для специалистов, </tspan><tspan
         x="594 605.62 617.34003 628.59998 640.21997 651.28003 662.59998 677.67999 689.70001 700.64001 716.12 728.14001 738.59998 743.85999 755.58002 766.40002 777.84003 789.09998 799.14001 809.96002 820 829.62 834.88 845.82001 851.08002 862.34003 876.02002 888.03998 898.85999 909.67999 920.14001 924.97998 930.23999 941.67999 954.96002 966.28003 977.09998 982.35999 993.29999 1005.32 1016.34 1027.96 1039.6801 1050.7 1062.72 1073.4399"
         y="594.47998"
         id="tspan84">продолживших работать в офисах, была внедрена </tspan><tspan
         x="594 604.82001 616.84003 627.65997 637.70001 648.71997 662.09998 672.91998 678.17999 686.64001 698.65997 710.09998 719.82001 731.08002 739.29999 750.56 755.82001 764.28003 776 786.82001 800.5 812.52002 822.73999 833.56 838.82001 850.44 862.15997 874.17999 885.62 898.90002 908.94 920.96002 931.44 936.70001 948.71997 959.53998 964.79999 976.52002 987.34003 998.78003 1010.04 1020.08 1029.558 1034.418 1039.678 1052.838 1064.098 1069.358 1080.298 1091.118 1102.1379 1112.498"
         y="621.40002"
         id="tspan86">система гибкого графика прибытия на работу. Во всех </tspan><tspan
         x="594 603.94 615.56 626.38 638.40002 650.41998 660.90002 671.35999 676.62 686.34003 697.59998 710.97998 722.59998 733.41998 745.44 757.46002 769.47998 774.73999 786.35999 798.08002 809.34003 820.28003 831.53998 843.15997 855.17999 866.5 877.32001 887.79999 893.06 903.09998 914.12 927.5 939.12 950.14001 961.85999 972.67999 982.71997 993.40002 1005.12 1017.14 1030.42 1042.34"
         y="648.32001"
         id="tspan88">зданиях компании проводился температурный </tspan><tspan
         x="594 603.71997 614.97998 627 637.03998 648.76001 659.82001 671.14001 680.76001 685.62 690.88 704.03998 709.29999 722.67999 733.70001 744.52002 754.56 765.38 775.84003 781.09998 792.35999 803.79999 819.79999 830.82001 839.03998 850.29999 855.56 867.17999 878.23999 889.56 899.17999 909.12 920.38 931.32001 942.14001 954.15997 966.17999 976.65997 981.91998 992.26001 1003.08 1013.12 1023.94 1035.96 1047.22 1058.16 1069.48 1080.5 1092.52 1105.7"
         y="675.23999"
         id="tspan90">контроль. В местах общего пользования установлены </tspan><tspan
         x="594 605.71997 616.73999 626.67999 637.70001 649.41998 660.35999 671.03998 681.85999 693.58002 706.85999 712.12 722.94 728.20001 739.02002 751.03998 761.08002 773.09998 783.91998 794.94 806.56 816.59998 828.62 838.84003 849.65997 863.03998 875.06 880.32001 892.34003 897.59998 909.21997 920.23999 930.17999 942.20001 954.21997 967.90002 979.91998 992.03998 1004.06 1015.4 1026.08 1041.4399 1057.4399 1069.46 1082.84 1094.7581"
         y="702.15997"
         id="tspan92">резервуары с антисептиками и дезинфицирующими </tspan><tspan
         x="594 604.82001 616.53998 627.56 639.17999 650 660.03998 670.97998 681.79999 695.17999 707.20001 712.03998 717.29999 728.12 739.38 749.41998 760.76001 771.44 783.06 795.08002 807.09998 817.32001 828.14001 841.52002 846.78003 857.71997 871 882.62 893.44 904.38 915.20001 926.52002 938.53998 949.35999 958.97998 964.23999 975.06 986.78003 997.79999 1009.42 1020.24 1030.28 1041.22 1051.9399"
         y="729.08002"
         id="tspan94">средствами, сотрудникам выдавались средства </tspan><tspan
         x="1188 1200.02 1212.04 1223.66 1235.6801 1246.62 1258.64 1270.26 1280.9399 1291.76 1303.08 1312.7 1324.72 1335.98 1348 1353.26 1363.2 1374.02 1390.02 1402.04 1412.08 1425.36 1430.22 1435.48 1448.8199 1460.54 1469 1479.8199 1491.84 1503.86 1513.8 1525.0601 1536 1546.8199 1558.84 1570.1 1575.36 1587.08 1598.1 1606.5601 1616.66 1627.98 1638.46 1650.1801 1662.2 1673.46 1684.38"
         y="325.26001"
         id="tspan96">индивидуальной защиты. Организовано регулярное </tspan><tspan
         x="1188 1199.4399 1210.46 1221.28 1232.9 1244.22 1255.04 1265.08 1277.1 1288.36 1299.38 1304.64 1314.6801 1325.7 1336.52 1346.5601 1358.58 1370.3 1381.5601 1392.5 1403.3199 1415.34 1427.36 1438.38 1443.64 1455.66 1466.48 1471.74 1484.86 1497.8199 1510.6801 1515.8 1529.4399 1538.46 1546.52 1558.0601 1563.3199 1576.7 1587.72 1597.76 1609.02 1620.64 1631.9 1645.28 1650.54 1664.64 1679.02 1691.6801 1696.4399"
         y="351.32001"
         id="tspan98">бесплатное тестирование на COVID-19 методом ПЦР. </tspan><tspan
         x="1188 1202.1 1213.36 1226.74 1238.76 1252.14 1263.4 1268.66 1279.48 1289.52 1300.78 1309 1320.02 1324.86 1330.12 1343.5 1356.78 1362.04 1373.76 1384.78 1395.6 1406.92 1418.9399 1428.88 1440.14 1451.08 1461.9 1473.22 1485.24 1490.5 1502.12 1513.84 1525.1 1533.5601 1545.28 1556.1 1569.48 1582.86 1593.54 1598.8 1609.62 1620.88 1633 1645.02 1655.84 1667.16 1676.78 1688.8 1700.0601 1711.98"
         y="377.38"
         id="tspan100">Помимо этого, мы реализовали программу социальной </tspan><tspan
         x="1188 1199.62 1210.88 1222.5 1234.12 1245.14 1256.86 1271.9399 1282.16 1294.1801 1299.4399 1311.16 1321.98 1333.42 1344.6801 1354.72 1366.74 1378.76 1388.48 1399.74 1410.6801 1415.54 1420.8 1434.9 1446.16 1457.88 1468.36 1479.98 1490.2 1501.02 1506.28 1516.12 1528.54 1529.46 1544.38 1549.64 1560.46 1571.72 1581.76 1593.098 1603.778 1615.3979 1627.418 1639.438 1649.158 1660.418 1671.2581"
         y="403.44"
         id="tspan102">поддержки работников. Порядка 70 % сотрудников </tspan><tspan
         x="1188 1199.62 1210.6801 1222 1232.6801 1243.3199 1255.34 1266.66 1278.6801 1283.9399 1294.96 1306.58 1318.6 1330.62 1341.88 1352.8199 1364.54 1375.5601 1388.9399 1399.96 1411.98 1424 1434.6801 1450.04 1455.3 1466.92 1477.9399 1489.96 1500.98 1516.0601 1528.08 1538.76 1554.12 1559.38 1570.3199 1583.6 1595.22 1606.54 1617.36 1627.4 1637.98"
         y="429.5"
         id="tspan104">получили единовременную денежную выплату </tspan><tspan
         x="1188 1198.9399 1204.2 1215.92 1226.74 1236.6801 1250.0601 1261.08 1272.8 1283.8199 1289.08 1300.7 1313.12 1318.38 1328.42 1341.7 1352.52 1357.38 1362.64 1373.98 1384.66 1396.1 1407.42 1418.4399 1430.46 1435.72 1447.74 1458.5601 1463.8199 1474.46 1485.3979 1496.718 1507.978 1518.918 1529.938 1540.158 1550.978"
         y="455.56"
         id="tspan106">в размере 30 тыс. рублей на человека.</tspan><tspan
         x="1188 1201.24 1212.76 1223.6801 1235.3 1246.02 1255.96 1267.12 1278.74 1283.9 1293.84 1304.5601 1314.6801 1329.66 1340.58 1345.74 1357.08 1368 1379.62 1390.54 1405.52 1417.4399 1428.6 1433.76 1444.92 1454.86 1466.78 1477.9399 1488.66 1500.58 1510.52 1521.24 1531.62 1536.78 1546.9 1552.0601 1563.22 1573.34 1584.576 1595.156 1610.136 1620.856 1636.116 1652.016 1662.936 1674.856"
         y="494.62"
         id="tspan108">Оператор также бережно относится к окружающей </tspan><tspan
         x="1188 1198.72 1210.34 1221.26 1232.78 1243.7 1248.86 1260.78 1265.9399 1276.66 1287.8199 1299.16 1310.38 1325.64 1337.16 1347.88 1358.8 1368.74 1373.9 1384.1379 1394.858 1404.798 1415.5179 1427.438 1438.598 1449.438 1460.658 1471.578 1483.498 1495.418 1508.598 1519.5179 1524.678 1535.3979 1545.016 1555.976 1567.196 1578.356 1586.7159 1598.636 1609.176 1620.0959 1630.816 1640.936 1652.856 1663.776"
         y="520.67999"
         id="tspan110">среде и соблюдает установленные экологические </tspan><tspan
         x="1188 1198.72 1208.66 1219.38 1231.3 1242.8199 1253.54 1265.16 1275.1 1288.28 1293.04 1298.2 1311.26 1316.42 1327.62 1339.9399 1351.14 1363.46 1368.62 1376.738 1387.8979 1399.418 1409.998 1415.158 1424.998 1435.718 1446.558 1457.478 1469.098 1484.478 1496.3979 1507.618 1518.338 1529.058 1538.578 1543.738 1555.358 1566.278 1578.198 1589.358 1600.198 1610.918 1622.938 1634.858 1645.238"
         y="546.73999"
         id="tspan112">стандарты. В 2020 году завершилась реновация </tspan><tspan
         x="1188 1199.52 1211.14 1222.3 1235.58 1248.76 1259.6 1270.76 1281.3 1293.22 1304.38 1314.12 1325.64 1337.26 1348.42 1359.9399 1370.66 1382.28 1393.4399 1403.98 1415.9 1429.08 1439.4399 1444.6 1455.3199 1465.26 1475.98 1487.9 1499.92 1511.84 1523.76 1528.92 1535.056 1549.056 1563.056 1576.076 1582.4561"
         y="572.79999"
         id="tspan114">промывочно-пропарочных станций (ППС) </tspan><tspan
         x="1188 1198.84 1204 1216.28 1227.9 1238.62 1249.34 1261.26 1272.42 1282.8 1294.42 1305.14 1314.7581 1325.918 1339.198 1344.358 1356.278 1361.438 1375.438 1386.358 1397.978 1411.2581 1421.978 1431.598 1442.7581 1456.038 1461.198 1471.318 1482.938 1493.658 1504.038 1514.3979 1519.1379 1524.298 1535.0179 1540.178 1550.118 1560.838 1570.958 1585.938 1596.858 1602.0179 1612.738 1622.678 1633.3979 1645.0179 1654.958 1666.118 1676.958 1687.678 1698.8979"
         y="598.85999"
         id="tspan116">в Красноярском и Пермском краях, а также стартовал </tspan><tspan
         x="1188 1198.84 1208.78 1219.9399 1231.5601 1242.72 1254.64 1259.8 1270.52 1280.46 1291.1801 1302.7 1307.86 1319.48 1330.4 1340.0179 1351.178 1363.098 1373.818 1383.7581 1394.998 1405.578 1415.698 1427.718 1439.6379 1451.558 1456.718 1470.718 1484.718 1497.738 1502.8979 1514.578 1525.738 1539.0179 1550.358 1562.278 1574.198 1584.918 1594.858 1605.578 1615.698 1626.418 1636.798 1641.958 1652.798 1657.958 1671.198 1684.478 1695.198 1704.814 1715.734 1720.494"
         y="624.91998"
         id="tspan118">второй этап реконструкции ППС Комбинатская в Омске. </tspan><tspan
         x="1188 1202 1213.62 1224.78 1233.14 1244.76 1255.48 1268.76 1282.04 1295.22 1300.38 1313.66 1324.8199 1336.34 1347.26 1358.88 1370.8 1382.72 1392.5601 1403.28 1415.3 1427.22 1439.14 1444.3 1455.8199 1467.04 1478.2 1494.1 1504.8199 1516.34 1527.5 1537.62 1542.78 1554.3 1565.92 1576.84 1588.36 1599.88 1610.834 1622.054 1632.774 1641.134 1651.854 1667.114 1677.054"
         y="650.97998"
         id="tspan120">Программы модернизации площадок предполагают </tspan><tspan
         x="1188 1198.72 1210.64 1222.5601 1237.54 1248.46 1260.38 1272.3 1283.22 1288.38 1299.22 1310.38 1320.22 1331.74 1342.66 1354.58 1365.3 1375.24 1386.08 1398 1408.38 1413.54 1425.46 1436.1801 1441.34 1452.5 1462.62 1473.856 1484.436 1499.416 1510.136 1525.396 1541.176 1551.756 1567.016 1572.176 1582.896 1594.516 1605.436 1616.9561 1627.536 1632.696 1642.536 1653.256 1658.416 1669.136 1679.676 1690.5959 1700.536"
         y="677.03998"
         id="tspan122">снижение воздействия на окружающую среду за счет </tspan><tspan
         x="1188 1198 1209.22 1219.8 1230.34 1245.72 1256.64 1268.5601 1280.48 1290.86 1296.02 1305.96 1316.88 1327.24 1339.16 1350.118 1361.338 1372.498 1380.858 1392.778 1404.698 1409.858 1421.3781 1432.998 1444.158 1455.678 1466.3979 1478.0179 1488.1379 1500.058 1505.218 1517.1379 1522.298 1534.218 1544.938 1556.458 1567.416 1578.636 1588.156 1597.996 1609.156 1619.996 1630.7159 1642.636 1654.556 1664.936"
         y="703.09998"
         id="tspan124">улучшения технологии пропарки и использования </tspan><tspan
         x="1188 1198.72 1209.88 1220.72 1232.34 1243.26 1256.54 1267.46 1279.38 1291.3 1302.46 1310.578 1321.738 1326.8979 1337.618 1349.538 1360.458 1372.078 1380.198 1391.358 1402.078 1415.658 1429.238 1440.158 1450.278 1460.218 1472.1379 1482.978 1494.8979 1506.058 1514.176 1525.3361 1530.496 1541.656 1552.996 1564.156 1575.396 1585.976 1597.496 1608.656 1619.496 1630.2159 1642.136 1654.056 1664.436"
         y="729.15997"
         id="tspan126">современного энергоэффективного оборудования.</tspan></text><text
       transform="matrix(1,0,0,-1,97.5,236)"
       style="font-variant:normal;font-weight:500;font-stretch:normal;font-size:28px;font-family:'Rubik Medium';-inkscape-font-specification:Rubik-Medium;writing-mode:lr-tb;fill:#000000;fill-opacity:1;fill-rule:nonzero;stroke:none"
       id="text140"><tspan
         x="0 19.236 25.620001 42.98 61.431999 78.792 97.244003 103.628 118.552 138.01199 158.89999 176.28799 182.672 202.132 222.57201 240.01601 258.496 277.92801 294.896 314.35599 332.836"
         y="0"
         id="tspan130">В 2020 ГОДУ ОПЕРАТОР </tspan><tspan
         x="0 19.459999 40.348 60.787998 82.096001 104.832 111.216 132.524 150.64 157.024 177.464 194.908 213.388 232.62399 257.43201 275.996 282.38 302.82001 320.26401 338.74399 356.18799 375.42401 392.86801 413.448"
         y="33.992001"
         id="tspan132">ОДНИМ ИЗ ПЕРВЫХ ПЕРЕВЕЛ </tspan><tspan
         x="0 18.172001 37.380001 57.959999 75.655998 102.9 120.288 148.17599 154.56 173.54401 192.976 212.15601 229.12399 246.82001 253.20399 271.68399 291.116 309.28799 328.74799 345.716 366.15601 387.46399 405.26639 424.72641 443.9624"
         y="67.984001"
         id="tspan134">БОЛЬШУЮ ЧАСТЬ РАБОТНИКОВ </tspan><tspan
         x="0 20.440001 39.872002 46.256001 67.143997 88.452003 107.632 124.6 144.032 164.472 185.696 207.004 226.464 246.90401 267.34399 292.15201 313.45999 319.84399 338.32401 355.76801 384.664 405.97198 428.70801"
         y="101.976"
         id="tspan136">НА ДИСТАНЦИОННЫЙ РЕЖИМ </tspan><tspan
         x="0 18.48 37.911999 56.084 75.543999 92.512001"
         y="135.968"
         id="tspan138">РАБОТЫ</tspan></text><g
       id="g142"><g
         id="g144"
         clip-path="url(#clipPath148)"><g
           id="g150"
           transform="translate(55.4,252.75)"><path
             d="m 0,0 c -1.4,1.9 -3.367,2.85 -5.9,2.85 -2.267,0 -4.084,-0.75 -5.45,-2.25 -1.367,-1.5 -2.05,-3.25 -2.05,-5.25 0,-2 0.666,-3.75 2,-5.25 1.333,-1.5 3,-2.25 5,-2.25 0.666,0 1.266,0.067 1.8,0.2 0.266,0.067 0.5,0.167 0.7,0.3 -0.267,-2 -1.15,-3.583 -2.65,-4.75 -1.5,-1.166 -3.117,-1.75 -4.85,-1.75 v -3.5 c 1.6,0 3.216,0.284 4.85,0.85 1.633,0.567 3.083,1.467 4.35,2.7 1.266,1.234 2.3,2.8 3.1,4.7 0.8,1.9 1.2,4.15 1.2,6.75 C 2.1,-4.117 1.4,-1.9 0,0 M 20,0 C 18.6,1.9 16.633,2.85 14.1,2.85 11.833,2.85 10.016,2.1 8.65,0.6 7.283,-0.9 6.6,-2.65 6.6,-4.65 c 0,-2 0.666,-3.75 2,-5.25 1.333,-1.5 3,-2.25 5,-2.25 0.666,0 1.266,0.067 1.8,0.2 0.266,0.067 0.5,0.167 0.7,0.3 -0.267,-2 -1.15,-3.583 -2.65,-4.75 -1.5,-1.166 -3.117,-1.75 -4.85,-1.75 v -3.5 c 1.6,0 3.216,0.284 4.85,0.85 1.633,0.567 3.083,1.467 4.35,2.7 1.266,1.234 2.3,2.8 3.1,4.7 0.8,1.9 1.2,4.15 1.2,6.75 0,2.533 -0.7,4.75 -2.1,6.65"
             style="fill:#faaa2d;fill-opacity:1;fill-rule:nonzero;stroke:none"
             id="path152" /></g></g></g><text
       transform="matrix(1,0,0,-1,693,961.3)"
       style="font-variant:normal;font-weight:500;font-stretch:normal;font-size:20px;font-family:'Rubik Medium';-inkscape-font-specification:Rubik-Medium;writing-mode:lr-tb;fill:#000000;fill-opacity:1;fill-rule:nonzero;stroke:none"
       id="text158"><tspan
         x="0 14.6 26.459999 38.740002 50.259998 62.84 74.300003 85.739998 90.300003 101.2 114.38 115.22 130.92 135.48 146.92 158.78 169.39999 181.25999 192.7 205.28 217.75999 230.24001 241.23801 253.09801 264.798 269.358 281.59799 293.27802 305.358 316.798 328.37799 340.858 352.93799 365.418 369.978 381.53799 394.11801 406.59799 419.078 430.93799 442.638 454.918 466.478 480.55801 492.11801 504.59799 517.078 528.51801 545.23798 549.79797 562.37799 573.93799 586.41803 597.97803 615.15802 627.638 639.078 655.79797"
         y="0"
         id="tspan154">Порядка 70 % сотрудников получили единовременную денежную </tspan><tspan
         x="0 11.7 27.059999 39.299999 51.380001 62.82 73.440002 84.879997 89.440002 101.14 105.7 117.98 129.42 140.14 154.22 165.78 178.06 189.62 194.17999 206.8 219.98 224.53999 235.16 250.52 261.95999 267.34 271.89999 283.75601 295.19601 307.15601 319.23599 330.79599 343.276 347.836 360.31601 371.75601 376.31601 387.896 399.35599 411.436 423.29599 434.996 446.556 458.01599"
         y="26"
         id="tspan156">выплату в размере 30 тыс. рублей на человека</tspan></text><g
       id="g160"><g
         id="g162"
         clip-path="url(#clipPath166)"><g
           id="g168"
           transform="translate(813.0783,860.1865)"><path
             d="m 0,0 c 7.874,-6.14 11.815,-14.061 11.815,-23.768 0,-23.816 -13.283,-35.722 -39.842,-35.722 h -50.835 v -20.608 h 56.33 c 14.469,0 25.185,-2.98 32.149,-8.93 6.96,-5.955 10.442,-14.426 10.442,-25.417 0,-10.992 -4.354,-20.154 -13.052,-27.478 -8.703,-7.329 -22.669,-10.991 -41.904,-10.991 -13.739,0 -26.473,2.151 -38.194,6.457 -11.725,4.302 -22.807,11.309 -33.248,21.02 l -13.739,-16.486 c 10.441,-9.712 23.218,-17.406 38.331,-23.082 15.113,-5.676 31.643,-8.518 49.598,-8.518 16.487,0 30.681,1.468 42.591,4.397 11.905,2.928 21.75,6.912 29.538,11.952 7.784,5.037 13.507,10.992 17.174,17.861 3.662,6.87 5.496,14.241 5.496,22.12 0,13.189 -3.895,23.858 -11.679,32.012 -7.788,8.148 -18.547,13.966 -32.286,17.448 12.455,4.212 21.523,10.12 27.203,17.723 5.676,7.6 8.518,17.264 8.518,28.989 0,7.145 -1.786,13.83 -5.358,20.059 -3.572,6.226 -8.93,11.631 -16.075,16.212 -7.144,4.577 -16.031,8.149 -26.653,10.717 -10.626,2.563 -22.991,3.846 -37.095,3.846 -17.955,0 -34.03,-2.567 -48.224,-7.693 -14.198,-5.131 -26.516,-12.185 -36.958,-21.158 l 12.365,-16.487 c 10.442,8.973 21.296,15.34 32.562,19.097 11.266,3.753 23.768,5.633 37.507,5.633 C -19.054,9.205 -7.878,6.135 0,0 m 199.623,6.045 c 6.775,-3.022 12.777,-7.831 17.998,-14.426 5.221,-6.594 9.433,-15.113 12.64,-25.554 3.203,-10.442 4.808,-23.082 4.808,-37.92 0,-14.838 -1.605,-27.478 -4.808,-37.919 -3.207,-10.442 -7.419,-18.96 -12.64,-25.555 -5.221,-6.594 -11.223,-11.403 -17.998,-14.425 -6.779,-3.023 -13.739,-4.534 -20.883,-4.534 -7.145,0 -14.109,1.511 -20.884,4.534 -6.779,3.022 -12.777,7.831 -17.998,14.425 -5.22,6.595 -9.437,15.113 -12.639,25.555 -3.208,10.441 -4.809,23.081 -4.809,37.919 0,14.838 1.601,27.478 4.809,37.92 3.202,10.441 7.419,18.96 12.639,25.554 5.221,6.595 11.219,11.404 17.998,14.426 6.775,3.023 13.739,4.534 20.884,4.534 7.144,0 14.104,-1.511 20.883,-4.534 M 138.897,23.631 C 126.806,19.509 116.365,13.232 107.572,4.809 98.779,-3.619 91.952,-14.198 87.101,-26.928 c -4.856,-12.735 -7.282,-27.71 -7.282,-44.927 0,-17.221 2.426,-32.196 7.282,-44.926 4.851,-12.734 11.678,-23.313 20.471,-31.737 8.793,-8.428 19.234,-14.701 31.325,-18.822 12.09,-4.122 25.37,-6.183 39.843,-6.183 14.468,0 27.752,2.061 39.843,6.183 12.09,4.121 22.531,10.394 31.324,18.822 8.793,8.424 15.616,19.003 20.471,31.737 4.852,12.73 7.282,27.705 7.282,44.926 0,17.217 -2.43,32.192 -7.282,44.927 -4.855,12.73 -11.678,23.309 -20.471,31.737 -8.793,8.423 -19.234,14.7 -31.324,18.822 -12.091,4.122 -25.375,6.182 -39.843,6.182 -14.473,0 -27.753,-2.06 -39.843,-6.182 M 416.284,6.045 c 6.775,-3.022 12.777,-7.831 17.998,-14.426 5.221,-6.594 9.432,-15.113 12.64,-25.554 3.203,-10.442 4.808,-23.082 4.808,-37.92 0,-14.838 -1.605,-27.478 -4.808,-37.919 -3.208,-10.442 -7.419,-18.96 -12.64,-25.555 -5.221,-6.594 -11.223,-11.403 -17.998,-14.425 -6.78,-3.023 -13.739,-4.534 -20.883,-4.534 -7.145,0 -14.109,1.511 -20.884,4.534 -6.779,3.022 -12.777,7.831 -17.998,14.425 -5.22,6.595 -9.437,15.113 -12.639,25.555 -3.208,10.441 -4.809,23.081 -4.809,37.919 0,14.838 1.601,27.478 4.809,37.92 3.202,10.441 7.419,18.96 12.639,25.554 5.221,6.595 11.219,11.404 17.998,14.426 6.775,3.023 13.739,4.534 20.884,4.534 7.144,0 14.103,-1.511 20.883,-4.534 M 355.558,23.631 C 343.467,19.509 333.026,13.232 324.233,4.809 c -8.793,-8.428 -15.62,-19.007 -20.471,-31.737 -4.856,-12.735 -7.282,-27.71 -7.282,-44.927 0,-17.221 2.426,-32.196 7.282,-44.926 4.851,-12.734 11.678,-23.313 20.471,-31.737 8.793,-8.428 19.234,-14.701 31.325,-18.822 12.09,-4.122 25.369,-6.183 39.843,-6.183 14.468,0 27.752,2.061 39.842,6.183 12.091,4.121 22.532,10.394 31.325,18.822 8.793,8.424 15.615,19.003 20.471,31.737 4.852,12.73 7.282,27.705 7.282,44.926 0,17.217 -2.43,32.192 -7.282,44.927 -4.856,12.73 -11.678,23.309 -20.471,31.737 -8.793,8.423 -19.234,14.7 -31.325,18.822 -12.09,4.122 -25.374,6.182 -39.842,6.182 -14.474,0 -27.753,-2.06 -39.843,-6.182 M 632.945,6.045 c 6.775,-3.022 12.777,-7.831 17.998,-14.426 5.221,-6.594 9.432,-15.113 12.64,-25.554 3.202,-10.442 4.808,-23.082 4.808,-37.92 0,-14.838 -1.606,-27.478 -4.808,-37.919 -3.208,-10.442 -7.419,-18.96 -12.64,-25.555 -5.221,-6.594 -11.223,-11.403 -17.998,-14.425 -6.78,-3.023 -13.739,-4.534 -20.884,-4.534 -7.144,0 -14.108,1.511 -20.883,4.534 -6.779,3.022 -12.777,7.831 -17.998,14.425 -5.22,6.595 -9.437,15.113 -12.64,25.555 -3.207,10.441 -4.808,23.081 -4.808,37.919 0,14.838 1.601,27.478 4.808,37.92 3.203,10.441 7.42,18.96 12.64,25.554 5.221,6.595 11.219,11.404 17.998,14.426 6.775,3.023 13.739,4.534 20.883,4.534 7.145,0 14.104,-1.511 20.884,-4.534 M 572.219,23.631 C 560.128,19.509 549.687,13.232 540.894,4.809 c -8.793,-8.428 -15.62,-19.007 -20.471,-31.737 -4.856,-12.735 -7.282,-27.71 -7.282,-44.927 0,-17.221 2.426,-32.196 7.282,-44.926 4.851,-12.734 11.678,-23.313 20.471,-31.737 8.793,-8.428 19.234,-14.701 31.325,-18.822 12.09,-4.122 25.369,-6.183 39.842,-6.183 14.469,0 27.753,2.061 39.843,6.183 12.091,4.121 22.532,10.394 31.325,18.822 8.793,8.424 15.615,19.003 20.471,31.737 4.852,12.73 7.282,27.705 7.282,44.926 0,17.217 -2.43,32.192 -7.282,44.927 -4.856,12.73 -11.678,23.309 -20.471,31.737 -8.793,8.423 -19.234,14.7 -31.325,18.822 -12.09,4.122 -25.374,6.182 -39.843,6.182 -14.473,0 -27.752,-2.06 -39.842,-6.182 M 849.606,6.045 c 6.775,-3.022 12.777,-7.831 17.998,-14.426 5.221,-6.594 9.432,-15.113 12.639,-25.554 3.203,-10.442 4.809,-23.082 4.809,-37.92 0,-14.838 -1.606,-27.478 -4.809,-37.919 -3.207,-10.442 -7.418,-18.96 -12.639,-25.555 -5.221,-6.594 -11.223,-11.403 -17.998,-14.425 -6.78,-3.023 -13.739,-4.534 -20.884,-4.534 -7.144,0 -14.108,1.511 -20.883,4.534 -6.779,3.022 -12.777,7.831 -17.998,14.425 -5.221,6.595 -9.437,15.113 -12.64,25.555 -3.207,10.441 -4.808,23.081 -4.808,37.919 0,14.838 1.601,27.478 4.808,37.92 3.203,10.441 7.419,18.96 12.64,25.554 5.221,6.595 11.219,11.404 17.998,14.426 6.775,3.023 13.739,4.534 20.883,4.534 7.145,0 14.104,-1.511 20.884,-4.534 m -60.727,17.586 c -12.09,-4.122 -22.531,-10.399 -31.324,-18.822 -8.793,-8.428 -15.62,-19.007 -20.471,-31.737 -4.856,-12.735 -7.282,-27.71 -7.282,-44.927 0,-17.221 2.426,-32.196 7.282,-44.926 4.851,-12.734 11.678,-23.313 20.471,-31.737 8.793,-8.428 19.234,-14.701 31.324,-18.822 12.091,-4.122 25.37,-6.183 39.843,-6.183 14.469,0 27.753,2.061 39.843,6.183 12.091,4.121 22.532,10.394 31.325,18.822 8.793,8.424 15.615,19.003 20.471,31.737 4.852,12.73 7.282,27.705 7.282,44.926 0,17.217 -2.43,32.192 -7.282,44.927 -4.856,12.73 -11.678,23.309 -20.471,31.737 -8.793,8.423 -19.234,14.7 -31.325,18.822 -12.09,4.122 -25.374,6.182 -39.843,6.182 -14.473,0 -27.752,-2.06 -39.843,-6.182"
             style="fill:#faaa2d;fill-opacity:1;fill-rule:nonzero;stroke:none"
             id="path170" /></g><g
           id="g172"
           transform="translate(1811,890)"><path
             d="m 0,0 h -100 c -11.046,0 -20,-8.954 -20,-20 0,-11.046 8.954,-20 20,-20 H 0 c 11.046,0 20,8.954 20,20 C 20,-8.954 11.046,0 0,0"
             style="fill:#e8e8ed;fill-opacity:1;fill-rule:nonzero;stroke:none"
             id="path174" /></g></g></g><text
       transform="matrix(1,0,0,-1,1711.0347,862.7192)"
       style="font-variant:normal;font-weight:500;font-stretch:normal;font-size:28px;font-family:'Rubik Medium';-inkscape-font-specification:Rubik-Medium;writing-mode:lr-tb;fill:#000000;fill-opacity:1;fill-rule:nonzero;stroke:none"
       id="text178"><tspan
         x="0 16.604 32.619999 49.363998 66.276001 82.459999"
         y="0"
         id="tspan176">рублей</tspan></text><text
       transform="matrix(1,0,0,-1,39.7002,1023)"
       style="font-variant:normal;font-weight:300;font-stretch:normal;font-size:20px;font-family:'Rubik Light';-inkscape-font-specification:Rubik-Light;writing-mode:lr-tb;fill:#000000;fill-opacity:1;fill-rule:nonzero;stroke:none"
       id="text182"><tspan
         x="0 7.96"
         y="0"
         id="tspan180">16</tspan></text><g
       id="g184"><g
         id="g186"><g
           id="g188"
           clip-path="url(#clipPath192)"><text
             transform="matrix(1,0,0,-1,99,1023)"
             style="font-variant:normal;font-weight:300;font-stretch:normal;font-size:20px;font-family:'Rubik Light';-inkscape-font-specification:Rubik-Light;writing-mode:lr-tb;fill:#000000;fill-opacity:1;fill-rule:nonzero;stroke:none"
             id="text196"><tspan
               x="0 13.24 18.4 28.02 39.18 52.459999 63.98 74.699997 86.620003 98.540001"
               y="0"
               id="tspan194">О компании</tspan></text></g></g></g></g></svg>
