<?xml version="1.0" encoding="UTF-8" standalone="no"?>
<?xml-stylesheet type="text/css" href="main.css" ?>
<svg
   xmlns:dc="http://purl.org/dc/elements/1.1/"
   xmlns:cc="http://creativecommons.org/ns#"
   xmlns:rdf="http://www.w3.org/1999/02/22-rdf-syntax-ns#"
   xmlns:svg="http://www.w3.org/2000/svg"
   xmlns="http://www.w3.org/2000/svg"
   version="1.1"
   id="svg2"
   xml:space="preserve"
   width="2560"
   height="1440"
   viewBox="0 0 2560 1440"><metadata
     id="metadata8"><rdf:RDF><cc:Work
         rdf:about=""><dc:format>image/svg+xml</dc:format><dc:type
           rdf:resource="http://purl.org/dc/dcmitype/StillImage" /></cc:Work></rdf:RDF></metadata><defs
     id="defs6"><clipPath
       clipPathUnits="userSpaceOnUse"
       id="clipPath20"><path
         d="M 0,1080 H 1920 V 0 H 0 Z"
         id="path18" /></clipPath><clipPath
       clipPathUnits="userSpaceOnUse"
       id="clipPath260"><path
         d="M 0,0 H 1920 V 1080 H 0 Z"
         id="path258" /></clipPath><clipPath
       clipPathUnits="userSpaceOnUse"
       id="clipPath278"><path
         d="M 0,1080 H 1920 V 0 H 0 Z"
         id="path276" /></clipPath></defs><g
     id="g10"
     transform="matrix(1.3333333,0,0,-1.3333333,0,1440)"><g
       id="g12"><g
         id="g14"><g
           id="g16"
           clip-path="url(#clipPath20)"><path
             d="M 0,0 H 1920 V 1080 H 0 Z"
             style="fill:#ffffff;fill-opacity:1;fill-rule:nonzero;stroke:none"
             id="path22" /></g></g></g><path
       d="m 1227,0 h 693 v 1080 h -693 z"
       style="fill:#e8e8ed;fill-opacity:1;fill-rule:nonzero;stroke:none"
       id="path24" /><g
       id="g26"
       transform="translate(117,822.2201)"><path
         d="M 0,0 H 476"
         style="fill:none;stroke:#faaa2d;stroke-width:2;stroke-linecap:butt;stroke-linejoin:miter;stroke-miterlimit:10;stroke-dasharray:none;stroke-opacity:1"
         id="path28" /></g><text
       transform="matrix(1,0,0,-1,117,842.2201)"
       style="font-variant:normal;font-weight:500;font-stretch:normal;font-size:28px;font-family:'Rubik Medium';-inkscape-font-specification:Rubik-Medium;writing-mode:lr-tb;fill:#faaa2d;fill-opacity:1;fill-rule:nonzero;stroke:none"
       id="text32"><tspan
         x="0 12.992"
         y="0"
         id="tspan30">11</tspan></text><text
       transform="matrix(1,0,0,-1,142.984,842.2201)"
       style="font-variant:normal;font-weight:500;font-stretch:normal;font-size:28px;font-family:'Rubik Medium';-inkscape-font-specification:Rubik-Medium;writing-mode:lr-tb;fill:#000000;fill-opacity:1;fill-rule:nonzero;stroke:none"
       id="text36"><tspan
         x="0 14 34.439999 51.043999 67.171997 83.916 101.108"
         y="0"
         id="tspan34"> Ноябрь</tspan></text><text
       transform="matrix(1,0,0,-1,99,781.2201)"
       style="font-variant:normal;font-weight:normal;font-stretch:normal;font-size:18px;font-family:Rubik;-inkscape-font-specification:Rubik-Regular;writing-mode:lr-tb;fill:#faaa2d;fill-opacity:1;fill-rule:nonzero;stroke:none"
       id="text40"><tspan
         x="0 6.8579998"
         y="0"
         id="tspan38">• </tspan></text><text
       transform="matrix(1,0,0,-1,117,781.2201)"
       style="font-variant:normal;font-weight:300;font-stretch:normal;font-size:20px;font-family:'Rubik Light';-inkscape-font-specification:Rubik-Light;writing-mode:lr-tb;fill:#000000;fill-opacity:1;fill-rule:nonzero;stroke:none"
       id="text44"><tspan
         x="0 11.68 22.84 36.119999 48.040001 57.98 68.900002 78.839996 84 95.519997 106.68 111.84 122.56 132.5 144.12 154.84 164.78 175.7 184.06 195.98 206.52 217.44 228.16 237.778 248.938 262.21799 272.798 277.95801 289.578 300.298 310.138 320.978 332.89801 342.83801 354.758 370.01801 375.17801 389.17801 399.27802 411.55801 416.71799 427.87799 439.39801 451.01801"
         y="0"
         id="tspan42">Комитет по стратегическому развитию ПГК опре</tspan></text><text
       transform="matrix(1,0,0,-1,578.938,781.2201)"
       style="font-variant:normal;font-weight:300;font-stretch:normal;font-size:20px;font-family:'Rubik Light';-inkscape-font-specification:Rubik-Light;writing-mode:lr-tb;fill:#000000;fill-opacity:1;fill-rule:nonzero;stroke:none"
       id="text48"><tspan
         x="0"
         y="0"
         id="tspan46">-</tspan></text><text
       transform="matrix(1,0,0,-1,117,755.2201)"
       style="font-variant:normal;font-weight:300;font-stretch:normal;font-size:20px;font-family:'Rubik Light';-inkscape-font-specification:Rubik-Light;writing-mode:lr-tb;fill:#000000;fill-opacity:1;fill-rule:nonzero;stroke:none"
       id="text52"><tspan
         x="0 11.52 22.360001 33.580002 45.5 56.720001 61.880001 73.040001 83.760002 95.68 106.84 117.68 129.60001 142.78 153.7 158.86 170.78 181.5 193.02 204.64 215.36 226.2 237.42 248.34 260.26001 272.17999 282.56 287.72 299.34 310.06 319.89999 330.73999 342.66 352.60001 364.51999 374.89999 380.06 391.98001 397.14001 409.16 419.99399 431.21399"
         y="0"
         id="tspan50">делил основные направления развития и целе</tspan></text><text
       transform="matrix(1,0,0,-1,559.134,755.2201)"
       style="font-variant:normal;font-weight:300;font-stretch:normal;font-size:20px;font-family:'Rubik Light';-inkscape-font-specification:Rubik-Light;writing-mode:lr-tb;fill:#000000;fill-opacity:1;fill-rule:nonzero;stroke:none"
       id="text56"><tspan
         x="0"
         y="0"
         id="tspan54">-</tspan></text><text
       transform="matrix(1,0,0,-1,117,729.2201)"
       style="font-variant:normal;font-weight:300;font-stretch:normal;font-size:20px;font-family:'Rubik Light';-inkscape-font-specification:Rubik-Light;writing-mode:lr-tb;fill:#000000;fill-opacity:1;fill-rule:nonzero;stroke:none"
       id="text60"><tspan
         x="0 10.84 24.02 34.939999 40.099998 51.619999 62.779999 72.900002 83.620003 93.459999 104.18 114.12 124.958 136.17799 148.09801 153.258 164.938 176.09801 187.718 199.23801 210.39799 222.01801 232.73801 242.67799 254.59801 265.43799 277.358 288.51801 300.43799 305.59799 316.31799 326.258 337.87799 348.59799 358.53799 369.45801 377.81799 389.73801 401.65799 406.39801 411.55801 422.27802 427.43799 437.37799 448.09799"
         y="0"
         id="tspan58">вые показатели Корпоративной стратегии, а так</tspan></text><text
       transform="matrix(1,0,0,-1,574.28,729.2201)"
       style="font-variant:normal;font-weight:300;font-stretch:normal;font-size:20px;font-family:'Rubik Light';-inkscape-font-specification:Rubik-Light;writing-mode:lr-tb;fill:#000000;fill-opacity:1;fill-rule:nonzero;stroke:none"
       id="text64"><tspan
         x="0"
         y="0"
         id="tspan62">-</tspan></text><text
       transform="matrix(1,0,0,-1,117,703.2201)"
       style="font-variant:normal;font-weight:300;font-stretch:normal;font-size:20px;font-family:'Rubik Light';-inkscape-font-specification:Rubik-Light;writing-mode:lr-tb;fill:#000000;fill-opacity:1;fill-rule:nonzero;stroke:none"
       id="text74"><tspan
         x="0 14.98 25.9 31.059999 45.060001 56.02 67.239998 79.160004 89.099998 101.02 111.14 121.72 126.88 138.5 149.22 159.94 171.46001 183.08 194 205.52 216.358 227.578 238.498 250.418 262.33801 272.71799 277.87799 287.99799 298.71799 310.23801 322.15799 332.09799 342.81799 354.03799 364.758 369.918 379.53601 390.69601 403.97601 415.496 426.216 438.13599 450.056 461.97601"
         y="0"
         id="tspan66">же Политику распределения капитала компании </tspan><tspan
         x="0 11.52 22.68 27.84 39.040001 51.360001 62.560001 74.080002 79.239998 87.360001 98.519997 110.04 120.76 125.52 130.67999 143.92 155.44 166.36 177.98 188.7 198.64 209.8 221.42 226.58 238.5 249.22 262.5 273.42001 285.04001 295.95999 307.88 313.04001 324.95999 336.88 347.72 358.64001 369.35999 379.29999 391.22 402.84 414 424.84 435.56 445.5 455.01999"
         y="26"
         id="tspan68">до 2023 года. Оператор намерен инвестировать </tspan><tspan
         x="0 11.16 20.780001 31.74 42.959999 54.119999 59.279999 71.639999 83.959999 89.120003 102.4 113.62 125.24 136.75999 141.92 153.158 163.73801 175.078 186.298 197.218 209.138 214.298 225.138 230.298 241.918 252.638 262.478 273.31799 285.23801 295.17801 307.09799 318.01801 323.17801 333.298 344.51801 356.43799 367.358 379.27802 389.21799 399.93799 409.55399 420.71399 428.836 439.996"
         y="52"
         id="tspan70">около 80 млрд рублей в развитие клиентского </tspan><tspan
         x="0 10.72 21.639999 33.259998 44.099998 56.02 66.739998 77.459999 82.199997 87.360001 99.379997 111.3 124.88 136.5 147.66 158.5 171.67999 182.60001 187.75999 197.7 208.62 218.98 230.89999 241.858 253.078 264.23801 272.59799 284.51801 296.43799 301.17801 306.33801 317.05801 322.21799 332.15799 342.87799 352.99799 367.978 378.89801 384.05801 395.21799 406.55801 418.478 429.638 440.478 451.698"
         y="78"
         id="tspan72">сервиса, цифровые технологии, а также обновле</tspan></text><text
       transform="matrix(1,0,0,-1,579.618,625.2201)"
       style="font-variant:normal;font-weight:300;font-stretch:normal;font-size:20px;font-family:'Rubik Light';-inkscape-font-specification:Rubik-Light;writing-mode:lr-tb;fill:#000000;fill-opacity:1;fill-rule:nonzero;stroke:none"
       id="text78"><tspan
         x="0"
         y="0"
         id="tspan76">-</tspan></text><text
       transform="matrix(1,0,0,-1,117,599.2201)"
       style="font-variant:normal;font-weight:300;font-stretch:normal;font-size:20px;font-family:'Rubik Light';-inkscape-font-specification:Rubik-Light;writing-mode:lr-tb;fill:#000000;fill-opacity:1;fill-rule:nonzero;stroke:none"
       id="text82"><tspan
         x="0 11.92 23.84 34.759998 39.919998 51.439999 62.599998 74.120003 84.959999 96.879997 111.86 123.78 134.94 143.058 154.218 159.37801 170.09801 181.258 191.978 201.918 212.638 223.478 234.198"
         y="0"
         id="tspan80">ние подвижного состава.</tspan></text><text
       transform="matrix(1,0,0,-1,99,563.2201)"
       style="font-variant:normal;font-weight:normal;font-stretch:normal;font-size:18px;font-family:Rubik;-inkscape-font-specification:Rubik-Regular;writing-mode:lr-tb;fill:#faaa2d;fill-opacity:1;fill-rule:nonzero;stroke:none"
       id="text86"><tspan
         x="0 6.8579998"
         y="0"
         id="tspan84">• </tspan></text><text
       transform="matrix(1,0,0,-1,117,563.2201)"
       style="font-variant:normal;font-weight:300;font-stretch:normal;font-size:20px;font-family:'Rubik Light';-inkscape-font-specification:Rubik-Light;writing-mode:lr-tb;fill:#000000;fill-opacity:1;fill-rule:nonzero;stroke:none"
       id="text92"><tspan
         x="0 14 25.620001 36.779999 47.700001 57.82 67.760002 72.919998 84.440002 95.599998 100.76 111.48 121.42 133.03999 144.2 156.12 166.06 176.89799 188.118 197.638 208.358 218.298 229.138 239.718 244.87801 254.498 265.45801 276.67801 287.59799 298.31799 310.23801 321.39801 331.138 342.758 353.716 364.936 376.85599 386.47601 397.63599 408.47601 419.63599 427.75601 438.91599"
         y="0"
         id="tspan88">Проект по строительству колесно-роликового </tspan><tspan
         x="0 12.02 22.940001 33.299999 44.02 49.18 61.099998 71.82 76.980003 87.699997 97.639999 108.36 120.28 132.3 144.22 156.14 161.3 173.28 184 195.62 207.53999 219.46001 230.17999 240.3 251.02 261.39999 266.56 279.56 290.78 300.72 311.44 323.35999 334.07999 343.69601 354.85599 362.97601 374.13599 379.29599 389.41599 401.03601 411.75601 422.13599 427.29599 438.45599 449.97601"
         y="26"
         id="tspan90">цеха на станции Заринская Алтайского края одо</tspan></text><text
       transform="matrix(1,0,0,-1,578.136,537.2201)"
       style="font-variant:normal;font-weight:300;font-stretch:normal;font-size:20px;font-family:'Rubik Light';-inkscape-font-specification:Rubik-Light;writing-mode:lr-tb;fill:#000000;fill-opacity:1;fill-rule:nonzero;stroke:none"
       id="text96"><tspan
         x="0"
         y="0"
         id="tspan94">-</tspan></text><text
       transform="matrix(1,0,0,-1,117,511.2201)"
       style="font-variant:normal;font-weight:300;font-stretch:normal;font-size:20px;font-family:'Rubik Light';-inkscape-font-specification:Rubik-Light;writing-mode:lr-tb;fill:#000000;fill-opacity:1;fill-rule:nonzero;stroke:none"
       id="text100"><tspan
         x="0 11.34 22.959999 33.880001 45.799999 50.959999 62.880001 73.599998 78.760002 91.779999 102.94 113.78 124.7 134.64 145.56 150.72 162.24001 174.16 185.78 196.7 206.82001 216.75999 227.92 239.53999 250.7 261.54001"
         y="0"
         id="tspan98">брен на Совете директоров.</tspan></text><g
       id="g102"
       transform="translate(671,822.2201)"><path
         d="M 0,0 H 476"
         style="fill:none;stroke:#faaa2d;stroke-width:2;stroke-linecap:butt;stroke-linejoin:miter;stroke-miterlimit:10;stroke-dasharray:none;stroke-opacity:1"
         id="path104" /></g><text
       transform="matrix(1,0,0,-1,671,842.2201)"
       style="font-variant:normal;font-weight:500;font-stretch:normal;font-size:28px;font-family:'Rubik Medium';-inkscape-font-specification:Rubik-Medium;writing-mode:lr-tb;fill:#faaa2d;fill-opacity:1;fill-rule:nonzero;stroke:none"
       id="text108"><tspan
         x="0 12.992"
         y="0"
         id="tspan106">12</tspan></text><text
       transform="matrix(1,0,0,-1,701.352,842.2201)"
       style="font-variant:normal;font-weight:500;font-stretch:normal;font-size:28px;font-family:'Rubik Medium';-inkscape-font-specification:Rubik-Medium;writing-mode:lr-tb;fill:#000000;fill-opacity:1;fill-rule:nonzero;stroke:none"
       id="text112"><tspan
         x="0 14 34.888 51.071999 67.115997 83.132004 99.875999 117.068"
         y="0"
         id="tspan110"> Декабрь</tspan></text><text
       transform="matrix(1,0,0,-1,653,781.2201)"
       style="font-variant:normal;font-weight:normal;font-stretch:normal;font-size:18px;font-family:Rubik;-inkscape-font-specification:Rubik-Regular;writing-mode:lr-tb;fill:#faaa2d;fill-opacity:1;fill-rule:nonzero;stroke:none"
       id="text116"><tspan
         x="0 6.8579998"
         y="0"
         id="tspan114">• </tspan></text><text
       transform="matrix(1,0,0,-1,671,781.2201)"
       style="font-variant:normal;font-weight:300;font-stretch:normal;font-size:20px;font-family:'Rubik Light';-inkscape-font-specification:Rubik-Light;writing-mode:lr-tb;fill:#000000;fill-opacity:1;fill-rule:nonzero;stroke:none"
       id="text122"><tspan
         x="0 14 24.1 36.380001 41.540001 51.380001 62.099998 72.220001 83.440002 98.699997 109.24 121.16 132.38 143.10001 148.25999 158.98 169.89999 181.52 192.36 204.28 215 226.92 240.10001 252.02 257.17999 266.79599 277.95599 289.87601 299.81601 311.436 322.15601 332.276 342.216 347.37601 359.29599 370.01599 375.17599 386.69601 397.616 409.23599 420.15601 430.996 442.15601 451.996 462.116 472.69601"
         y="0"
         id="tspan118">ПГК заключила сервисный контракт на перевозку </tspan><tspan
         x="0 11.52 23.139999 34.299999 45.82 56.400002 66.519997 78.540001 90.459999 102.38 107.54 117.158 128.31799 141.59801 153.118 163.838 175.758 187.67799 199.59801 204.758 216.81799 229.87801 242.918 256.51801 272.11801 285.11801 297.17801"
         y="26"
         id="tspan120">продукции компании «ВОЛМА».</tspan></text><text
       transform="matrix(1,0,0,-1,653,718.2201)"
       style="font-variant:normal;font-weight:normal;font-stretch:normal;font-size:18px;font-family:Rubik;-inkscape-font-specification:Rubik-Regular;writing-mode:lr-tb;fill:#faaa2d;fill-opacity:1;fill-rule:nonzero;stroke:none"
       id="text126"><tspan
         x="0 6.8579998"
         y="0"
         id="tspan124">• </tspan></text><text
       transform="matrix(1,0,0,-1,671,718.2201)"
       style="font-variant:normal;font-weight:300;font-stretch:normal;font-size:20px;font-family:'Rubik Light';-inkscape-font-specification:Rubik-Light;writing-mode:lr-tb;fill:#000000;fill-opacity:1;fill-rule:nonzero;stroke:none"
       id="text134"><tspan
         x="0 11.08 17.799999 28.719999 33.18 44.799999 56.459999 63.639999 68.800003 82.040001 93.839996 104.76 109.92 122.02 132.74001 143.46001 155.25999 166.86 171.32001 183.12 193.67799 204.39799 208.858 219.578 224.73801 230.17799 240.89799 252.058 262.89801 276.17801 287.09799 297.81799 307.758 319.67801 330.39801 340.77802 345.93799 356.65799 361.81799 374.578 386.91599 396.65601 409.936 416.65601 427.81601 439.51599 451.13599"
         y="0"
         id="tspan128">Freight One Scandinavia (совместная с VR-Group </tspan><tspan
         x="0 9.6199999 20.780001 34.060001 45.580002 56.299999 68.220001 80.139999 89.720001 96.099998 101.26 112.42 124.04 132.39999 143.12 155.03999 166.96001 176.8 187.96001 198.8 209.52 220.74001 231.46001 236.62 248.24001 259.16 267.51999 277.51801 288.73801 299.11801 310.73801 322.65799 333.23801 348.49799 353.65799 364.81799 374.758 386.27802 397.89801 408.61801 419.45801 429.578 440.15799"
         y="26"
         id="tspan130">компания) организовала регулярную отправку </tspan><tspan
         x="0 11.52 23.139999 34.299999 45.82 56.400002 66.519997 78.540001 90.459999 102.38 107.54 119.6 133.60001 144.75999 156.38 168.3 180.22 189.838 200.67799 211.89799 222.278 234.338 239.498 251.418 261.258 266.418 282.918 294.83801 306.758 317.978 328.358 340.27802 351.798 363.71799 375.638 380.798 391.638 396.798 409.358 420.51801 431.23801 441.95801 453.87799 468.89401"
         y="52"
         id="tspan132">продукции «Норникеля» из Финляндии в Россию.</tspan></text><text
       transform="matrix(1,0,0,-1,653,630.2201)"
       style="font-variant:normal;font-weight:normal;font-stretch:normal;font-size:18px;font-family:Rubik;-inkscape-font-specification:Rubik-Regular;writing-mode:lr-tb;fill:#faaa2d;fill-opacity:1;fill-rule:nonzero;stroke:none"
       id="text138"><tspan
         x="0 6.8579998"
         y="0"
         id="tspan136">• </tspan></text><text
       transform="matrix(1,0,0,-1,671,630.2201)"
       style="font-variant:normal;font-weight:300;font-stretch:normal;font-size:20px;font-family:'Rubik Light';-inkscape-font-specification:Rubik-Light;writing-mode:lr-tb;fill:#000000;fill-opacity:1;fill-rule:nonzero;stroke:none"
       id="text150"><tspan
         x="0 14 24.1 36.380001 41.540001 52.380001 63.540001 78.919998 90.139999 100.86 106.02 116.86 122.02 133.53999 144.46001 156.08 166.92 180.10001 192.02 197.17999 208.8 219.72 231.64 241.58 253.5 265.42001 273.78 278.94 289.66 303.23999 316.82001 327.73999 337.85999 347.79999 359.72 370.56 382.48001 393.64001 404.35999 414.29999 426.22"
         y="0"
         id="tspan140">ПГК вошла в первый рейтинг эффективности </tspan><tspan
         x="0 9.6199999 20.780001 32.400002 43.919998 55.080002 66.699997 77.419998 87.360001 99.279999 110.12 122.04 135.22 145.58 150.74001 162.66 174.58 185.42 196.34 207.06 217 228.92 240.94 252.86 264.78 269.51999 274.67999 285.39999 296.56 307.28 317.22 327.94 338.78 350 360.92001 372.84 384.76001 397.94 409.85999"
         y="26"
         id="tspan142">корпоративных инвестиций, составленный </tspan><tspan
         x="0 10.72 18.84 29.76 41.68 51.619999 62.34 72.279999 83.120003 94.279999 107.56 112.4 124.46 138.46001 149.17999 161.2 173.12 184.28 196.2 206.92 218.14 227.66 239.58 252.75999 263.67999 268.51999 278.64001 290.26001 301.17999 312.70001 324.62 334.56 346.48001 359.66 370.57999 375.422 387.04199 397.96201 409.88199 419.82199 431.742 443.66199 452.022 463.94199 476.00201"
         y="52"
         id="tspan144">агентством «Национальные кредитные рейтинги» </tspan><tspan
         x="0 5.5799999 16.42 26.780001 37.939999 49.459999 61.380001 71.32 76.480003 87.32 92.480003 100.84 112.078 122.658 134.17799 145.698 156.278 161.438 173.998 186.638 198.918 205.298 210.45799 222.37801 227.53799 240.53799 248.65601 259.57599 271.496 281.436 292.15601 302.09601 312.936 324.09601 337.37601 342.53601 353.25601 364.41599 376.436 388.35599 399.07599 410.29599 419.81601 431.73599 442.896 451.01401 462.17401"
         y="78"
         id="tspan146">(входит в группу РБК) и Агентством социального </tspan><tspan
         x="0 10.72 22.639999 33.360001 44.580002 56.5 66.339996 77.059998 82.220001 94.139999 99.300003 110.82 122.44 133.60001 141.96001 153.88 165.03999 174.88 186.8 198.42 209.58 220.42 231.14 243.06 254.98 265.35999"
         y="104"
         id="tspan148">анализа и прогнозирования.</tspan></text><text
       transform="matrix(1,0,0,-1,653,490.2201)"
       style="font-variant:normal;font-weight:normal;font-stretch:normal;font-size:18px;font-family:Rubik;-inkscape-font-specification:Rubik-Regular;writing-mode:lr-tb;fill:#faaa2d;fill-opacity:1;fill-rule:nonzero;stroke:none"
       id="text154"><tspan
         x="0 6.8579998"
         y="0"
         id="tspan152">• </tspan></text><text
       transform="matrix(1,0,0,-1,671,490.2201)"
       style="font-variant:normal;font-weight:300;font-stretch:normal;font-size:20px;font-family:'Rubik Light';-inkscape-font-specification:Rubik-Light;writing-mode:lr-tb;fill:#000000;fill-opacity:1;fill-rule:nonzero;stroke:none"
       id="text162"><tspan
         x="0 13.06 26.24 37.759998 48.98 59.700001 70.239998 81.160004 93.080002 106.26 111.42 122.94 134.56 145.72 159 169.92 184.89999 195.48 205.42 216.58 227.12 239.03999 252.22 263.14001 268.29999 279.82001 291.73999 302.57999 314.5 326.01999 336.94 348.85999 360.38 373.56"
         y="0"
         id="tspan156">Выплачены промежуточные дивиденды </tspan><tspan
         x="0 10.72 20.84 32.860001 44.779999 55.939999 67.860001 78.779999 90.400002 101.12 114.4 119.56 131.23801 142.39799 155.67799 167.198 177.918 189.838 201.758 213.67799 218.838 230.358 241.51801 246.67799 258.59799 268.53799 279.698 288.05801 298.77802 312.05801 317.21799 328.65799 333.81799 347.09799 358.01801 368.73801 379.11801 391.138 402.05801 412.89801"
         y="26"
         id="tspan158">акционерам Компании по итогам 9 месяцев </tspan><tspan
         x="0 11.2 23.52 34.720001 47.040001 52.200001 60.32 71.480003 83 93.720001"
         y="52"
         id="tspan160">2020 года.</tspan></text><text
       transform="matrix(1,0,0,-1,99,953.4)"
       style="font-variant:normal;font-weight:normal;font-stretch:normal;font-size:38px;font-family:'Prosto One';-inkscape-font-specification:ProstoOne-Regular;writing-mode:lr-tb;fill:#000000;fill-opacity:1;fill-rule:nonzero;stroke:none"
       id="text166"><tspan
         x="0 34.200001 64.220001 96.139999 130.34 160.74001 192.66 232.37 259.35001 272.64999 302.67001 336.87 366.70001 406.41 433.20001 465.88 496.28 509.57999 534.65997 568.85999 601.91998"
         y="0"
         id="tspan164">ОСНОВНЫЕ СОБЫТИЯ ГОДА</tspan></text><text
       transform="matrix(1,0,0,-1,1305,953.8201)"
       style="font-variant:normal;font-weight:500;font-stretch:normal;font-size:28px;font-family:'Rubik Medium';-inkscape-font-specification:Rubik-Medium;writing-mode:lr-tb;fill:#000000;fill-opacity:1;fill-rule:nonzero;stroke:none"
       id="text170"><tspan
         x="0 19.18 35.784 52.528 74.031998 88.900002 106.372 122.5 128.884 146.02 162.62399 178.64 195.552 211.73599 218.12 234.724 249.592 265.80399 281.98801 296.85599 314.328 330.93201 348.40399 354.78799 372.39999 388.41599 403.284"
         y="0"
         id="tspan168">События после отчетной даты</tspan></text><g
       id="g172"
       transform="translate(1305,822.2201)"><path
         d="M 0,0 H 516"
         style="fill:none;stroke:#faaa2d;stroke-width:2;stroke-linecap:butt;stroke-linejoin:miter;stroke-miterlimit:10;stroke-dasharray:none;stroke-opacity:1"
         id="path174" /></g><g
       id="g176"
       transform="translate(1305,644.2201)"><path
         d="M 0,0 H 516"
         style="fill:none;stroke:#faaa2d;stroke-width:2;stroke-linecap:butt;stroke-linejoin:miter;stroke-miterlimit:10;stroke-dasharray:none;stroke-opacity:1"
         id="path178" /></g><text
       transform="matrix(1,0,0,-1,1305,842.2201)"
       style="font-variant:normal;font-weight:500;font-stretch:normal;font-size:28px;font-family:'Rubik Medium';-inkscape-font-specification:Rubik-Medium;writing-mode:lr-tb;fill:#faaa2d;fill-opacity:1;fill-rule:nonzero;stroke:none"
       id="text182"><tspan
         x="0 18.452 35.812"
         y="0"
         id="tspan180">02 </tspan></text><text
       transform="matrix(1,0,0,-1,1354.812,842.2201)"
       style="font-variant:normal;font-weight:500;font-stretch:normal;font-size:28px;font-family:'Rubik Medium';-inkscape-font-specification:Rubik-Medium;writing-mode:lr-tb;fill:#000000;fill-opacity:1;fill-rule:nonzero;stroke:none"
       id="text186"><tspan
         x="0 25.004 41.188 57.568001 74.760002 90.776001 107.688 122.556"
         y="0"
         id="tspan184">Февраль </tspan></text><text
       transform="matrix(1,0,0,-1,1754.848,842.2201)"
       style="font-variant:normal;font-weight:500;font-stretch:normal;font-size:28px;font-family:'Rubik Medium';-inkscape-font-specification:Rubik-Medium;writing-mode:lr-tb;fill:#faaa2d;fill-opacity:1;fill-rule:nonzero;stroke:none"
       id="text190"><tspan
         x="0 17.360001 35.812 53.172001"
         y="0"
         id="tspan188">2021</tspan></text><text
       transform="matrix(1,0,0,-1,1287,781.2201)"
       style="font-variant:normal;font-weight:normal;font-stretch:normal;font-size:18px;font-family:Rubik;-inkscape-font-specification:Rubik-Regular;writing-mode:lr-tb;fill:#faaa2d;fill-opacity:1;fill-rule:nonzero;stroke:none"
       id="text194"><tspan
         x="0 6.8579998"
         y="0"
         id="tspan192">• </tspan></text><text
       transform="matrix(1,0,0,-1,1305,781.2201)"
       style="font-variant:normal;font-weight:300;font-stretch:normal;font-size:20px;font-family:'Rubik Light';-inkscape-font-specification:Rubik-Light;writing-mode:lr-tb;fill:#000000;fill-opacity:1;fill-rule:nonzero;stroke:none"
       id="text200"><tspan
         x="0 14 24.1 36.380001 41.540001 51.380001 62.099998 72.220001 83.440002 98.699997 109.24 121.16 132.38 143.10001 148.25999 158.2 169.82001 180.74001 191.10001 202.32001 213.24001 223.17999 235.10001 247.02 258.94 264.10001 275.62 286.78 294.896 306.056 316.896 328.056 339.67599 344.836 355.996 361.15601 371.87601 383.03601 392.97601 404.216 414.79599 426.31601 438.23599 450.15601 460.69601 471.616 482.336 492.276 503.116 514.03601"
         y="0"
         id="tspan196">ПГК заключила трехлетний договор о сотрудничестве </tspan><tspan
         x="0 10.72 15.88 28.940001 42.119999 51.740002 62.459999 73.040001 84.959999 95.68 105.8 117.72 131 136.16 146 156.72 167.56 178.72 190.24001 201.39999 214.67999 219.84 233.08 244.42 255.2 266.12 277.64001 289.56 301.48001 312.39999 324.32001 336.23999 347.39999 359.32001 364.48001 377.76001 388.67999 398.62 409.34 420.56 431.78 442.35999 453.98001 462.34 474.26001 484.79999"
         y="26"
         id="tspan198">с Выксунским заводом Объединенной металлургиче</tspan></text><text
       transform="matrix(1,0,0,-1,1800.72,755.2201)"
       style="font-variant:normal;font-weight:300;font-stretch:normal;font-size:20px;font-family:'Rubik Light';-inkscape-font-specification:Rubik-Light;writing-mode:lr-tb;fill:#000000;fill-opacity:1;fill-rule:nonzero;stroke:none"
       id="text204"><tspan
         x="0"
         y="0"
         id="tspan202">-</tspan></text><text
       transform="matrix(1,0,0,-1,1305,729.2201)"
       style="font-variant:normal;font-weight:300;font-stretch:normal;font-size:20px;font-family:'Rubik Light';-inkscape-font-specification:Rubik-Light;writing-mode:lr-tb;fill:#000000;fill-opacity:1;fill-rule:nonzero;stroke:none"
       id="text208"><tspan
         x="0 10.72 20.34 31.5 43.419998 48.580002 58.200001 69.360001 82.639999 94.160004 104.88 116.8 128.72 140.64 145.8 151.938 164.998 180.59801 192.578 197.31799 202.478 216.478 228.39799 243.37801 254.298 262.418 273.578 285.198 296.358 307.87799 318.59799 328.71799 339.43799 349.81799 354.978 366.138 377.478 388.698 399.418 410.138 420.078 428.67599 435.056"
         y="0"
         id="tspan206">ской компании (ВМЗ, Нижегородская область).</tspan></text><text
       transform="matrix(1,0,0,-1,1305,664.2201)"
       style="font-variant:normal;font-weight:500;font-stretch:normal;font-size:28px;font-family:'Rubik Medium';-inkscape-font-specification:Rubik-Medium;writing-mode:lr-tb;fill:#faaa2d;fill-opacity:1;fill-rule:nonzero;stroke:none"
       id="text212"><tspan
         x="0 18.452 36.119999"
         y="0"
         id="tspan210">03 </tspan></text><text
       transform="matrix(1,0,0,-1,1355.12,664.2201)"
       style="font-variant:normal;font-weight:500;font-stretch:normal;font-size:28px;font-family:'Rubik Medium';-inkscape-font-specification:Rubik-Medium;writing-mode:lr-tb;fill:#000000;fill-opacity:1;fill-rule:nonzero;stroke:none"
       id="text216"><tspan
         x="0 22.736 38.751999 55.944 70.811996"
         y="0"
         id="tspan214">Март </tspan></text><text
       transform="matrix(1,0,0,-1,1754.848,664.2201)"
       style="font-variant:normal;font-weight:500;font-stretch:normal;font-size:28px;font-family:'Rubik Medium';-inkscape-font-specification:Rubik-Medium;writing-mode:lr-tb;fill:#faaa2d;fill-opacity:1;fill-rule:nonzero;stroke:none"
       id="text220"><tspan
         x="0 17.360001 35.812 53.172001"
         y="0"
         id="tspan218">2021</tspan></text><text
       transform="matrix(1,0,0,-1,1287,603.2201)"
       style="font-variant:normal;font-weight:normal;font-stretch:normal;font-size:18px;font-family:Rubik;-inkscape-font-specification:Rubik-Regular;writing-mode:lr-tb;fill:#faaa2d;fill-opacity:1;fill-rule:nonzero;stroke:none"
       id="text224"><tspan
         x="0 6.8579998"
         y="0"
         id="tspan222">• </tspan></text><text
       transform="matrix(1,0,0,-1,1305,603.2201)"
       style="font-variant:normal;font-weight:300;font-stretch:normal;font-size:20px;font-family:'Rubik Light';-inkscape-font-specification:Rubik-Light;writing-mode:lr-tb;fill:#000000;fill-opacity:1;fill-rule:nonzero;stroke:none"
       id="text230"><tspan
         x="0 14 24.1 36.380001 41.540001 52.380001 65.559998 77.480003 85.839996 97.459999 108.18 119.4 130.12 135.28 145.22 156.14 168.06 179.58 190.5 202.12 207.28 219.2 229.92 235.08 246.60001 257.51999 269.14001 280.06 290.89999 302.06 311.89999 322.01999 332.60001 337.76001 349.28 360.89999 372.06 383.57999 394.16 404.28 416.29999 428.22 440.14001"
         y="0"
         id="tspan226">ПГК выиграла тендер на перевозку продукции </tspan><tspan
         x="0 12.06 28.559999 39.720001 50.439999 63.439999 71.800003 83.419998 94.580002 106.64 111.8 122.52 134.14 145.3 154.92 166.08 179.36 184.52 196.44 207.16 212.32001 223.84 229 237.118 248.278 259.798 270.51801"
         y="26"
         id="tspan228">«ФосАгро» сроком на 3 года.</tspan></text><text
       transform="matrix(1,0,0,-1,1287,538.2201)"
       style="font-variant:normal;font-weight:normal;font-stretch:normal;font-size:18px;font-family:Rubik;-inkscape-font-specification:Rubik-Regular;writing-mode:lr-tb;fill:#faaa2d;fill-opacity:1;fill-rule:nonzero;stroke:none"
       id="text234"><tspan
         x="0 6.8579998"
         y="0"
         id="tspan232">• </tspan></text><text
       transform="matrix(1,0,0,-1,1305,538.2201)"
       style="font-variant:normal;font-weight:300;font-stretch:normal;font-size:20px;font-family:'Rubik Light';-inkscape-font-specification:Rubik-Light;writing-mode:lr-tb;fill:#000000;fill-opacity:1;fill-rule:nonzero;stroke:none"
       id="text244"><tspan
         x="0 13.52 24.68 35.220001 46.139999 57.759998 69.68 80.599998 91.519997 96.68 107.52 118.24 126.358 137.51801 149.438 160.59801 172.218 183.138 196.418 207.578 219.498 229.438 241.358 252.51801 263.43799 268.59799 280.11801 291.73801 302.65799 314.17801 325.698 337.31799 349.23801 359.61801 369.55801 381.478 392.39801 397.55801 411.55801 421.65799 433.93799 439.09799 454.43799"
         y="0"
         id="tspan236">Дочернее вагоноремонтное предприятие ПГК — </tspan><tspan
         x="0 12.06 20.16 31.780001 42.16 52 63.919998 75.980003 81.139999 87.519997 100.52 113.76 118.92 131.98 144.53999 158.53999 163.7 175.75999 183.858 195.478 205.858 215.698 227.618 239.67799 246.058 251.218 262.05801 267.21799 280.81799 292.73801 304.258 315.17801 327.198 336.81601 347.97601 359.896 365.056 376.216 387.556 398.776 409.496 420.216 430.15601 442.07599"
         y="26"
         id="tspan238">«Грязи» (АО ВРП «Грязи») в Липецкой области </tspan><tspan
         x="0 11.16 21.1 31.219999 42.84 56.02 67.239998 78.400002 83.559998 94.279999 105.2 116.82 127.66 139.58 150.3 162.22 175.39999 187.32001 192.48 204.5 215.42 227.34 237.28 248.89999 254.06 265.57999 276.73999 281.89999 293.51999 304.44 317.72 328.88 340.79999 350.73999 361.32001 366.48001 376.60001 387.32001 398.04001 408.76001 419.67999 429.62 441.54001 454.72 465.07999"
         y="52"
         id="tspan240">открыло сервисный центр по ремонту кассетных </tspan><tspan
         x="0 11.52 22.68 34.200001 49.580002 61.5 73.019997 84.940002 96.860001 106.478 117.638 128.478"
         y="78"
         id="tspan242">подшипников.</tspan></text><text
       transform="matrix(1,0,0,-1,154.5,168)"
       style="font-variant:normal;font-weight:500;font-stretch:normal;font-size:28px;font-family:'Rubik Medium';-inkscape-font-specification:Rubik-Medium;writing-mode:lr-tb;fill:#000000;fill-opacity:1;fill-rule:nonzero;stroke:none"
       id="text252"><tspan
         x="0 19.236 25.620001 48.355999 67.788002 86.267998 103.236 120.68 127.064 144.424 162.87601 180.23599 193.228 199.612 220.052 235.284 254.10001 260.48401 279.72 304.52802 325.836 341.06799 359.548 378.98001 399.56 418.992"
         y="0"
         id="tspan246">В МАРТЕ 2021 ПГК ВЫИГРАЛА </tspan><tspan
         x="0 16.968 34.411999 54.852001 75.739998 93.183998 111.664 117.768 138.20799 157.64 163.7524 184.1924 201.6364 220.11639 237.56039 256.79639 276.25641 294.37241 313.18839 330.57639 336.672 357.112 375.59201 395.052 415.94 433.328 452.14401 473.36801 494.67599 515.98401"
         y="33.992001"
         id="tspan248">ТЕНДЕР НА ПЕРЕВОЗКУ ПРОДУКЦИИ </tspan><tspan
         x="-0.028000001 17.444 42.448002 61.908001 81.087997 100.52 115.752 134.23199 153.692 171.164 177.548 196.728 215.20799 234.668 252.47321 271.9332 294.66919 301.05319 321.49319 340.9252 347.3092 364.9772 371.36121 386.28519 405.74521 426.63321"
         y="67.984001"
         id="tspan250">«ФОСАГРО» СРОКОМ НА 3 ГОДА</tspan></text><g
       id="g254"><g
         id="g256"
         clip-path="url(#clipPath260)"><g
           id="g262"
           transform="translate(112.4,184.75)"><path
             d="m 0,0 c -1.4,1.9 -3.367,2.85 -5.9,2.85 -2.267,0 -4.084,-0.75 -5.45,-2.25 -1.367,-1.5 -2.05,-3.25 -2.05,-5.25 0,-2 0.666,-3.75 2,-5.25 1.333,-1.5 3,-2.25 5,-2.25 0.666,0 1.266,0.067 1.8,0.2 0.266,0.067 0.5,0.167 0.7,0.3 -0.267,-2 -1.15,-3.583 -2.65,-4.75 -1.5,-1.166 -3.117,-1.75 -4.85,-1.75 v -3.5 c 1.6,0 3.216,0.284 4.85,0.85 1.633,0.567 3.083,1.467 4.35,2.7 1.266,1.234 2.3,2.8 3.1,4.7 0.8,1.9 1.2,4.15 1.2,6.75 C 2.1,-4.117 1.4,-1.9 0,0 M 20,0 C 18.6,1.9 16.633,2.85 14.1,2.85 11.833,2.85 10.016,2.1 8.65,0.6 7.283,-0.9 6.6,-2.65 6.6,-4.65 c 0,-2 0.666,-3.75 2,-5.25 1.333,-1.5 3,-2.25 5,-2.25 0.666,0 1.266,0.067 1.8,0.2 0.266,0.067 0.5,0.167 0.7,0.3 -0.267,-2 -1.15,-3.583 -2.65,-4.75 -1.5,-1.166 -3.117,-1.75 -4.85,-1.75 v -3.5 c 1.6,0 3.216,0.284 4.85,0.85 1.633,0.567 3.083,1.467 4.35,2.7 1.266,1.234 2.3,2.8 3.1,4.7 0.8,1.9 1.2,4.15 1.2,6.75 0,2.533 -0.7,4.75 -2.1,6.65"
             style="fill:#faaa2d;fill-opacity:1;fill-rule:nonzero;stroke:none"
             id="path264" /></g></g></g><text
       transform="matrix(1,0,0,-1,40.6501,1023)"
       style="font-variant:normal;font-weight:300;font-stretch:normal;font-size:20px;font-family:'Rubik Light';-inkscape-font-specification:Rubik-Light;writing-mode:lr-tb;fill:#000000;fill-opacity:1;fill-rule:nonzero;stroke:none"
       id="text268"><tspan
         x="0 7.96"
         y="0"
         id="tspan266">17</tspan></text><g
       id="g270"><g
         id="g272"><g
           id="g274"
           clip-path="url(#clipPath278)"><text
             transform="matrix(1,0,0,-1,99,1023)"
             style="font-variant:normal;font-weight:300;font-stretch:normal;font-size:20px;font-family:'Rubik Light';-inkscape-font-specification:Rubik-Light;writing-mode:lr-tb;fill:#000000;fill-opacity:1;fill-rule:nonzero;stroke:none"
             id="text282"><tspan
               x="0 13.24 18.4 28.02 39.18 52.459999 63.98 74.699997 86.620003 98.540001"
               y="0"
               id="tspan280">О компании</tspan></text></g></g></g></g></svg>
