<?xml version="1.0" encoding="UTF-8" standalone="no"?>
<?xml-stylesheet type="text/css" href="main.css" ?>
<svg
   xmlns:dc="http://purl.org/dc/elements/1.1/"
   xmlns:cc="http://creativecommons.org/ns#"
   xmlns:rdf="http://www.w3.org/1999/02/22-rdf-syntax-ns#"
   xmlns:svg="http://www.w3.org/2000/svg"
   xmlns="http://www.w3.org/2000/svg"
   version="1.1"
   id="svg2"
   xml:space="preserve"
   width="2560"
   height="1440"
   viewBox="0 0 2560 1440"><metadata
     id="metadata8"><rdf:RDF><cc:Work
         rdf:about=""><dc:format>image/svg+xml</dc:format><dc:type
           rdf:resource="http://purl.org/dc/dcmitype/StillImage" /></cc:Work></rdf:RDF></metadata><defs
     id="defs6"><clipPath
       clipPathUnits="userSpaceOnUse"
       id="clipPath20"><path
         d="M 0,1080 H 1920 V 0 H 0 Z"
         id="path18" /></clipPath><clipPath
       clipPathUnits="userSpaceOnUse"
       id="clipPath268"><path
         d="M 0,0 H 1920 V 1080 H 0 Z"
         id="path266" /></clipPath><clipPath
       clipPathUnits="userSpaceOnUse"
       id="clipPath286"><path
         d="M 0,1080 H 1920 V 0 H 0 Z"
         id="path284" /></clipPath></defs><g
     id="g10"
     transform="matrix(1.3333333,0,0,-1.3333333,0,1440)"><g
       id="g12"><g
         id="g14"><g
           id="g16"
           clip-path="url(#clipPath20)"><path
             d="M 0,0 H 1920 V 1080 H 0 Z"
             style="fill:#ffffff;fill-opacity:1;fill-rule:nonzero;stroke:none"
             id="path22" /></g></g></g><g
       id="g24"
       transform="translate(117,821.2201)"><path
         d="M 0,0 H 516"
         style="fill:none;stroke:#e8e8ed;stroke-width:4;stroke-linecap:butt;stroke-linejoin:miter;stroke-miterlimit:10;stroke-dasharray:none;stroke-opacity:1"
         id="path26" /></g><text
       transform="matrix(1,0,0,-1,117,842.2201)"
       style="font-variant:normal;font-weight:500;font-stretch:normal;font-size:28px;font-family:'Rubik Medium';-inkscape-font-specification:Rubik-Medium;writing-mode:lr-tb;fill:#faaa2d;fill-opacity:1;fill-rule:nonzero;stroke:none"
       id="text30"><tspan
         x="0 18.452"
         y="0"
         id="tspan28">06</tspan></text><text
       transform="matrix(1,0,0,-1,167.036,842.2201)"
       style="font-variant:normal;font-weight:500;font-stretch:normal;font-size:28px;font-family:'Rubik Medium';-inkscape-font-specification:Rubik-Medium;writing-mode:lr-tb;fill:#000000;fill-opacity:1;fill-rule:nonzero;stroke:none"
       id="text34"><tspan
         x="0 21.308001 44.716 62.188"
         y="0"
         id="tspan32">Июнь</tspan></text><text
       transform="matrix(1,0,0,-1,99,781.2201)"
       style="font-variant:normal;font-weight:300;font-stretch:normal;font-size:20px;font-family:'Rubik Light';-inkscape-font-specification:Rubik-Light;writing-mode:lr-tb;fill:#000000;fill-opacity:1;fill-rule:nonzero;stroke:none"
       id="text40"><tspan
         x="0 7.4000001 18 30.82 40.560001 51.080002 62.5 72.239998 83.199997 93.839996 104.36 115.38 125.9 130.86 141.5 151.24001 162.2 173.62 184.14 194.32001 199.28 209.92 220.67999 231.7 243.42 253.94 258.89999 271.98001 282.5 290.66 302.38 312.89999 322.64001 334.06 344.57999 355.60001 364.92001 376.64001 387.60001 395.51999 406.48001 411.44 422.76001 434.17999 445.14001 455.85999 465.78 475.51999 486.04001 491 504.79999 514.70001 526.97998"
         y="0"
         id="tspan36">• Стартовала вторая волна магистрального проекта ПГК </tspan><tspan
         x="18 29.860001 43.66 55.080002 66.040001 77.760002 87.400002 98.040001 109 120.32 130.84 140.58 151.22 161.94 173.66 185.38 195.89999 206.08 211.03999 221.56 233.28 243.8 253.53999 264.26001 277.34 287.85999 299.72 304.28 309.23999 322.28 334 344.51999 349.48001 360.44 370.60001 381.23999 391.76001 401.5 413.22 424.23999 434.76001 439.72 449.45999 460.88 472.60001 477.56 490.94"
         y="26"
         id="tspan38">«Производственная система». Она охватила три фи</tspan></text><text
       transform="matrix(1,0,0,-1,601.66,755.2201)"
       style="font-variant:normal;font-weight:300;font-stretch:normal;font-size:20px;font-family:'Rubik Light';-inkscape-font-specification:Rubik-Light;writing-mode:lr-tb;fill:#000000;fill-opacity:1;fill-rule:nonzero;stroke:none"
       id="text44"><tspan
         x="0"
         y="0"
         id="tspan42">-</tspan></text><text
       transform="matrix(1,0,0,-1,117,729.2201)"
       style="font-variant:normal;font-weight:300;font-stretch:normal;font-size:20px;font-family:'Rubik Light';-inkscape-font-specification:Rubik-Light;writing-mode:lr-tb;fill:#000000;fill-opacity:1;fill-rule:nonzero;stroke:none"
       id="text48"><tspan
         x="0 11.02 22.74 33.259998 44.279999 54.799999 59.759998 65.699997 79.5 90.459999 101.1 112.06 122.58 134.3 145.44 157.16 168.58 179.10001 189.02 200.74001 212.46001 217 221.96001 234.60001 246.02 256.98001 267.5 278.51999 289.04001 299.67999 310.20001 320.12 331.84 343.56 348.10001 353.06 365.88 376.39999 388.12 398.04001 407.78 417.14001 430.94 441.66 451.39999 462.12"
         y="0"
         id="tspan46">лиала (Новосибирский, Ярославский, Санкт-Петер</tspan></text><text
       transform="matrix(1,0,0,-1,590.54,729.2201)"
       style="font-variant:normal;font-weight:300;font-stretch:normal;font-size:20px;font-family:'Rubik Light';-inkscape-font-specification:Rubik-Light;writing-mode:lr-tb;fill:#000000;fill-opacity:1;fill-rule:nonzero;stroke:none"
       id="text52"><tspan
         x="0"
         y="0"
         id="tspan50">-</tspan></text><text
       transform="matrix(1,0,0,-1,117,703.2201)"
       style="font-variant:normal;font-weight:300;font-stretch:normal;font-size:20px;font-family:'Rubik Light';-inkscape-font-specification:Rubik-Light;writing-mode:lr-tb;fill:#000000;fill-opacity:1;fill-rule:nonzero;stroke:none"
       id="text56"><tspan
         x="0 11.14 21.52 32.939999 40.860001 51.380001 61.299999 73.019997 83.940002 90.120003 95.080002 106.8 111.76 121.68 132.7 147.75999 158.10001 168.82001 179.46001 192.44 203.16 208.12 221.12 231.5 243.22 253.14 264.95999 276.67999 288.39999 293.35999 305.17999 315.89999 327.62 337.35999 348.78 359.29999 370.32001 379.64001 391.35999 402.32001 410.23999 421.20001 426.16 436.67999 448 459.32001 469.84 481.26001"
         y="0"
         id="tspan54">бургский) и ключевые функции центрального аппара</tspan></text><text
       transform="matrix(1,0,0,-1,608.78,703.2201)"
       style="font-variant:normal;font-weight:300;font-stretch:normal;font-size:20px;font-family:'Rubik Light';-inkscape-font-specification:Rubik-Light;writing-mode:lr-tb;fill:#000000;fill-opacity:1;fill-rule:nonzero;stroke:none"
       id="text60"><tspan
         x="0"
         y="0"
         id="tspan58">-</tspan></text><text
       transform="matrix(1,0,0,-1,117,677.2201)"
       style="font-variant:normal;font-weight:300;font-stretch:normal;font-size:20px;font-family:'Rubik Light';-inkscape-font-specification:Rubik-Light;writing-mode:lr-tb;fill:#000000;fill-opacity:1;fill-rule:nonzero;stroke:none"
       id="text88"><tspan
         x="0 9.7399998 20.26 24.879999 29.84 39.259998 50.220001 63.299999 76.379997 87.099998 98.519997 110.34 122.06 136.87801 141.418 146.37801 156.758 168.078 179.498 190.01801 200.658 211.67799 222.39799 234.118 245.838 256.55801 261.51801 272.83801 283.358 294.77802 304.19601 315.15601 328.23599 332.776 337.73599 348.75601 359.716 367.87601 379.59601 390.116 399.85599 411.57599 421.496 430.67599 435.216 440.17599 451.59601 462.31601 475.396 486.35599 498.07599 507.81601"
         y="0"
         id="tspan62">та: коммерцию, управление парком, логистику, ремонт.</tspan><tspan
         x="-18 -10.4 0 14 24.1 36.380001 41.540001 53.459999 65.379997 75.32 86.239998 94.599998 106.22 118.14 129.75999 140.92 151.75999 162.48 173.7 184.42 189.58 200.3 211.22 222.84 233.67999 245.60001 256.32001 261.48001 273 284.16 289.32001 300.84 312.45999 324.38 335.29999 348.57999 359.16 364.32001 376.23999 381.39999 391.23999 401.95999 413.29999 424.92001 435.64001 445.254 456.414 467.254 476.87399 487.79401"
         y="39"
         id="tspan64">• ПГК интегрировала сервис по приему и забраковке </tspan><tspan
         x="0 10.84 21.559999 29.68 40.84 52.759998 63.919998 74.760002 79.919998 91.980003 107.58 118.74 130.08 142 153.22 162.74001 174.66 187.84 199.75999 204.92 216.53999 227.46001 238.98 250.14 261.76001 271.70001 282.62 294.23999 299.39999 313.39999 323.5 335.78 347.84 353 363.84 369 382.60001 394.51999 405.06 416.98001 430.16 442.07999"
         y="65"
         id="tspan66">вагонов «Мобильный репортер ПГК» в Личный </tspan><tspan
         x="0 10.12 20.84 32.18 44.099998 56.02 66.940002 76.879997 82.040001 92.160004 103.38 115.3 126.22 138.14 148.08 158.8 163.56 168.72 179.86 190.78 202.3 213.22 224.84 234.36 239.52 251.03999 261.76001 273.38 283.32001 295.23999 306.16 317.78 330.95999 336.12 347.28 358.79999 369.72 381.34 392.06 402 413.16 424.78 435.5 440.66 453.94 465.10001 473.45999 484.04001 493.98001"
         y="91"
         id="tspan68">кабинет клиента. Теперь партнеры оператора могут </tspan><tspan
         x="0 10.58 21.42 33.34 44.860001 55.779999 65.720001 75.239998 80.400002 91.120003 101.24 111.18 121.76 132.48 143.7 153.22 165.14 178.32001 189.24001 194.39999 207.98 219.14 229.08 240.24001 248.60001 260.22 270.94 284.51999 296.44 308.35999 313.51999 325.44 336.16 347.67999 359.29999 370.01999 380.85999 392.07999 403 414.92001 426.84 440.01999 450.38 455.54001 465.66 470.82001 482.73999 494.66 507.94"
         y="117"
         id="tspan70">увидеть актуальные фотографии направленных к ним </tspan><tspan
         x="0 10.12 21.74 34.919998 44.860001 58.040001 68.400002 73.559998 84.400002 95.120003 103.24 114.4 126.32 137.48 148.32001 153.48 165.39999 170.56 181.39999 192.12 207.38 212.53999 224.46001 236.38 249.96001 261.12 272.73999 286.01999 296.73999 308.76001 320.67999 335.94 341.10001 352.62 363.78 368.94 380.85999 392.78 406.06 410.88 416.04001 427.20001 439.22 450.14001 462.06 472.17999 482.76001"
         y="143"
         id="tspan72">крытых вагонов и всю информацию по ним: оценку </tspan><tspan
         x="0 10.72 21.879999 32.599998 42.540001 53.700001 64.080002 76 87.919998 98.300003 103.46 115.38 120.54 130.48 141.39999 151.75999 163.67999 175.60001 186.14 197.06 207.78 217.89999 229.82001 240.74001 245.89999 256.26001 266.98001 278.60001 289.32001 299.44 309.38 320.29999 331.92001 343.84 354.56 364.5 376.42001 386.54001 398.45999 403.62 418.95999 424.12 435.28 446.62 457.39999 468.32001 481.60001"
         y="169"
         id="tspan74">состояния и технические характеристики — объем </tspan><tspan
         x="0 10.12 20.700001 30.540001 41.700001 52.540001 63.259998 68 73.160004 84.32 95.040001 104.98 115.7 125.64 136.8 147.34 159.25999 172.44 184.36 189.52 201.03999 212.66 223.82001 235.16 246.08 252.67799 257.418 262.578 274.09799 284.81799 294.758 305.33801 310.49799 322.01801 333.23801 343.95801 355.87799 367.03799 377.87799 389.03799 397.15601 408.31601 413.47601 425.09601 436.01599 449.29599 460.45599 472.37601 482.31601 493.03601"
         y="195"
         id="tspan76">кузова, остаточный пробег, дату планового ремонта.</tspan><tspan
         x="-18 -10.4 0 13.06 18.219999 32.220001 42.32 54.599998 59.759998 70.480003 80.419998 91.139999 102.76 112.7 123.86 134.7 145.42 156.64 161.8 172.72 188.62 199.53999 204.7 215.86 227.38 239.3 251.22 256.38 269.66 280.38 288.73999 300.66 311.38 321.32001 332.94 343.66 354.88 364.39999 376.32001 389.5 401.42001 406.57999 418.10001 429.72 440.88 451.79999 461.92001 471.85999 477.01999 492.35999"
         y="234"
         id="tspan78">• В ПГК стартовал еще один магистральный проект — </tspan><tspan
         x="0 12.06 24.34 35.560001 47.48 58.400002 70.32 80.260002 90.980003 101.1 113.02 123.94 129.10001 140.62 151.2 161.14 173.06 185.12 189.88 195.03999 206.88 214.998 226.158 231.31799 243.338 254.17799 265.39801 274.918 280.078 295.418 300.578 314.15799 325.31799 336.93799 350.21799 362.138 373.758 384.918 395.758 406.478 418.39801 430.31799 441.23801"
         y="260"
         id="tspan80">«Клиентские пути». Его цель — формирование </tspan><tspan
         x="0 13.28 24.200001 34.139999 45.299999 56.82 68.739998 78.860001 90.779999 95.940002 107.1 118.44 129.16 140.38 150.96001 165.94 177.86 188.7 199.42 211.34 223.25999 233.64 238.8 248.92 260.14001 272.06 282.98001 294.89999 304.84 316 326.84 332 343.92001 354.64001 359.79999 370.95999 381.67999 393.60001 404.76001 415.60001 426.51999 431.67999 442.39999 454.32001 465.04001 476.26001 488.17999 498.01999 508.73999"
         y="286"
         id="tspan82">методики обслуживания клиентов на основе анализа </tspan><tspan
         x="0 11.92 22.280001 27.440001 38.959999 50.119999 60.060001 71.68 82.599998 93.940002 105.86 117.02 127.74 137.67999 148.60001 160.52 165.67999 177.60001 182.75999 193.48 204.64 214.48 226 236.72 248.64 260.56 271.48001 276.64001 288.16 299.32001 310.66 321.38 332.22 343.44 354.35999 366.28 378.20001 389.35999 401.28 406.44 418.45999 429.38 441.29999 453.22 464.38 475.10001 485.04001 496.95999"
         y="312"
         id="tspan84">их потребностей и создание добавленной ценности </tspan><tspan
         x="0 10.24 20.959999 32.18 42.759998 51.119999 56.279999 70.279999 80.379997 92.660004"
         y="338"
         id="tspan86">услуг ПГК.</tspan></text><g
       id="g90"
       transform="translate(711,821.2201)"><path
         d="M 0,0 H 516"
         style="fill:none;stroke:#e8e8ed;stroke-width:4;stroke-linecap:butt;stroke-linejoin:miter;stroke-miterlimit:10;stroke-dasharray:none;stroke-opacity:1"
         id="path92" /></g><g
       id="g94"
       transform="translate(711,513.2201)"><path
         d="M 0,0 H 516"
         style="fill:none;stroke:#e8e8ed;stroke-width:4;stroke-linecap:butt;stroke-linejoin:miter;stroke-miterlimit:10;stroke-dasharray:none;stroke-opacity:1"
         id="path96" /></g><text
       transform="matrix(1,0,0,-1,711,842.2201)"
       style="font-variant:normal;font-weight:500;font-stretch:normal;font-size:28px;font-family:'Rubik Medium';-inkscape-font-specification:Rubik-Medium;writing-mode:lr-tb;fill:#000000;fill-opacity:1;fill-rule:nonzero;stroke:none"
       id="text102"><tspan
         x="0 18.452"
         y="0"
         id="tspan98">07</tspan><tspan
         x="33.712002 47.712002 69.019997 92.176003 109.088"
         y="0"
         id="tspan100"> Июль</tspan></text><text
       transform="matrix(1,0,0,-1,693,781.2201)"
       style="font-variant:normal;font-weight:300;font-stretch:normal;font-size:20px;font-family:'Rubik Light';-inkscape-font-specification:Rubik-Light;writing-mode:lr-tb;fill:#000000;fill-opacity:1;fill-rule:nonzero;stroke:none"
       id="text118"><tspan
         x="0 7.5999999 18 30.559999 41.48 53.400002 63.34 75.260002 87.18 95.300003 106.46 117.3 128.46001 139.38 144.53999 155.25999 163.37801 174.298 186.218 196.158 206.87801 216.81799 227.658 238.81799 243.978 256.03799 268.43799 278.05801 288.77802 300.298 311.21799 322.83801 332.77802 337.93799 350.49799 363.49799 375.55801 380.71799 392.23801 403.39801 414.918 424.858 435.698 446.61801 458.23801 469.758 481.67801 492.89801 504.05801"
         y="0"
         id="tspan104">• Рейтинговое агентство «Эксперт РА» подтвердило </tspan><tspan
         x="18 29.620001 40.540001 52.459999 62.400002 74.32 86.239998 94.599998 99.760002 109.88 121.5 132.42 143.94 155.86 165.8 176.96001 187.67999 199.2 210.36 221.08 232.24001 243.58 255.5 266.66 277.38 287.32001 299.23999 304.39999 318.39999 328.5 340.78 345.94 357.85999 368.57999 373.73999 384.32001 395.94 407.10001 417.94 429.85999 440.78 445.94 452.89999 464.60001 477.60001 490.60001 503.16"
         y="26"
         id="tspan106">рейтинг кредитоспособности ПГК на уровне ruAA+ </tspan><tspan
         x="18 28.719999 33.880001 45.400002 57.02 68.18 76.540001 88.459999 99.620003 109.46 120.62 133.89999 139.06 151.12 161.84 171.78 182.5 193.84 205.75999 216.98 226.5 238.42 251.60001 263.51999 275.57999"
         y="52"
         id="tspan108">с прогнозом «стабильный».</tspan><tspan
         x="0 7.5999999 18 32 42.099998 54.380001 59.540001 71.459999 76.620003 90.620003 101.34 113.36 125.28 136.44 148.36 159.08 170.3 179.82001 191.74001 202.46001 212.84 218 229.92 240.84 252.078 262.65799 274.17801 286.09799 296.81799 307.198 312.358 321.97601 333.13599 346.41599 357.936 368.65601 380.57599 392.496 402.87601 408.03601 419.556 430.716 442.23599 453.75601 465.67599 476.396 487.116 498.336 510.25601"
         y="91"
         id="tspan110">• ПГК и Национальная нерудная компания подписали </tspan><tspan
         x="18 29.52 39.900002 49.84 61.759998 72.980003 83.900002 93.839996 105.76 117.68 129.60001 134.75999 145.48 156.39999 168.02 178.86 190.78 201.5 213.42 226.60001 238.52 243.67999 253.298 264.45801 276.37799 286.31799 297.93799 308.65799 318.77802 328.71799 333.478 338.638 352.638 363.798 368.95801 379.87799 387.996 399.15601 404.31601 414.556 425.276 436.496 447.65601 458.496 470.41599 480.79599 494.07599"
         y="117"
         id="tspan112">пятилетний сервисный контракт. По его условиям </tspan><tspan
         x="18 29.16 40.68 51.599998 63.220001 73.940002 83.879997 95.040001 106.66 111.82 123.16 133.74001 145.25999 156.17999 166.12 171.28 182.8 193.72 205.34 216.25999 227.10001 238.25999 248.10001 260.01999 269.95999 279.48001 284.64001 295.56 310.54001 321.45999 334.73999 345.66 356.38 366.76001 377.29999 389.22 400.38 405.54001 416.26001 427.10001 440.28 455.66 466.57999"
         y="143"
         id="tspan114">оператор будет перевозить ежемесячно свыше </tspan><tspan
         x="18 25.959999 38.279999 50.599998 55.759998 65.699997 78.879997 89.599998 94.360001 99.519997 109.46 120.62 132.53999 144.46001 149.62 161.14 172.75999 183.92 195.44 206.02 216.14 228.16 240.08 252 257.16 268.67999 279.39999 291.01999 300.95999 312.88 323.79999 335.42001 346.14001"
         y="169"
         id="tspan116">100 тыс. тонн продукции партнера.</tspan></text><text
       transform="matrix(1,0,0,-1,711,534.2201)"
       style="font-variant:normal;font-weight:500;font-stretch:normal;font-size:28px;font-family:'Rubik Medium';-inkscape-font-specification:Rubik-Medium;writing-mode:lr-tb;fill:#000000;fill-opacity:1;fill-rule:nonzero;stroke:none"
       id="text124"><tspan
         x="0 18.452"
         y="0"
         id="tspan120">08</tspan><tspan
         x="36.848 50.848 70.279999 86.660004 99.148003 114.632 130.64799"
         y="0"
         id="tspan122"> Август</tspan></text><text
       transform="matrix(1,0,0,-1,693,473.2201)"
       style="font-variant:normal;font-weight:300;font-stretch:normal;font-size:20px;font-family:'Rubik Light';-inkscape-font-specification:Rubik-Light;writing-mode:lr-tb;fill:#000000;fill-opacity:1;fill-rule:nonzero;stroke:none"
       id="text138"><tspan
         x="0 7.5999999 18 32 42.099998 54.380001 59.540001 71.059998 82.68 94.599998 105.32 115.26 125.84 137.36 149.28 160.5 171.22 176.38 186.5 191.66 204.94 214.938 226.158 235.67799 245.618 257.53799 270.81799 281.978 293.49799 304.21799 315.43799 324.95801 336.87799 350.05801 363.33801 368.49799 380.01801 390.93799 402.55801 413.478 424.31799 435.478 445.31799 455.43799 466.15799 479.43799"
         y="0"
         id="tspan126">• ПГК приступила к мультимодальным перевозкам </tspan><tspan
         x="18 26.360001 37.599998 48.18 58.02 69.18 80.019997 85.18 97.099998 106.94 112.1 123.358 133.938 143.778 155.118 165.838 176.558 187.278 197.998 203.158 213.998 219.158 234.758 245.918 257.83801 265.95801 276.918 288.138 300.05801 315.07599 319.836 324.996 336.67599 347.836 361.116 372.63599 383.35599 395.276 407.19601 417.57599"
         y="26"
         id="tspan128">грузов из Кузбасса в Монголию. Компания </tspan><tspan
         x="18 29.16 40.779999 49.139999 59.860001 71.779999 83.699997 93.540001 104.7 115.54 126.26 137.48 148.2 153.36 164.88 176.03999 186.75999 196.7 207.42 218.25999 228.38 238.96001 244.12 254.84 264.78 275.5 286.72 296.23999 308.16 319.32001 331.23999 336.39999 347.92001 359.54001 370.70001 382.22 392.79999 402.92001 414.94 426.85999 438.78"
         y="52"
         id="tspan130">организовала доставку стальной продукции </tspan><tspan
         x="18 29.92 39.759998 44.919998 56.599998 67.519997 80.800003 91.720001 103.34 114.5 125.34 136.06 145.67799 156.838 168.758 173.918 185.078 196.418 207.638 218.358 229.078 239.01801 250.938 256.09799 266.81799 277.65799 287.59799 298.758 308.698 320.31799 331.03799 342.95801 353.67801 365.198 376.358 387.978 397.918 409.078 422.358"
         y="78"
         id="tspan132">из Кемеровской области автотранспортом </tspan><tspan
         x="18 29.52 40.68 45.84 59.84 71 81.839996 93 103.72 115.64 126.98 138.89999 150.52 161.24001 171.36 182.08 186.82001 191.98 203.5 214.22 225.44 236.36 247.28 252.44 263.28 268.44 278.56 290.17999 303.35999 313.29999 326.48001 336.84 342 352.84 363.56 371.67599 382.836 394.75601 405.47601 415.836"
         y="104"
         id="tspan134">до Новосибирска, далее в крытых вагонах </tspan><tspan
         x="18 28.84 34 49.599998 60.759998 72.68 80.800003 91.760002 102.98 114.9 129.92"
         y="130"
         id="tspan136">в Монголию.</tspan></text><g
       id="g140"
       transform="translate(1305,821.2201)"><path
         d="M 0,0 H 516"
         style="fill:none;stroke:#e8e8ed;stroke-width:4;stroke-linecap:butt;stroke-linejoin:miter;stroke-miterlimit:10;stroke-dasharray:none;stroke-opacity:1"
         id="path142" /></g><g
       id="g144"
       transform="translate(1305,383.2201)"><path
         d="M 0,0 H 516"
         style="fill:none;stroke:#e8e8ed;stroke-width:4;stroke-linecap:butt;stroke-linejoin:miter;stroke-miterlimit:10;stroke-dasharray:none;stroke-opacity:1"
         id="path146" /></g><text
       transform="matrix(1,0,0,-1,1305,842.2201)"
       style="font-variant:normal;font-weight:500;font-stretch:normal;font-size:28px;font-family:'Rubik Medium';-inkscape-font-specification:Rubik-Medium;writing-mode:lr-tb;fill:#000000;fill-opacity:1;fill-rule:nonzero;stroke:none"
       id="text152"><tspan
         x="0 18.452"
         y="0"
         id="tspan148">09</tspan><tspan
         x="35.756001 49.756001 68.935997 85.120003 102.592 117.46 133.588 150.332 167.524"
         y="0"
         id="tspan150"> Сентябрь</tspan></text><text
       transform="matrix(1,0,0,-1,1287,781.2201)"
       style="font-variant:normal;font-weight:300;font-stretch:normal;font-size:20px;font-family:'Rubik Light';-inkscape-font-specification:Rubik-Light;writing-mode:lr-tb;fill:#000000;fill-opacity:1;fill-rule:nonzero;stroke:none"
       id="text156"><tspan
         x="0 7.5999999 18 32 42.099998 54.380001 59.540001 71.059998 82.220001 93.739998 105.26 117.18 127.9 138.62 149.84 160.56 165.72 177.64 188.8 199.64 210.8 221.72 226.88 237.60001 248.75999 256.59799 267.81799 278.53799 293.918 304.83801 316.758 328.67801 339.59799 344.758 355.918 361.078 371.198 382.03799 393.198 403.138 413.858 424.21799 429.37799 440.09799 445.258 455.37799 466.616 477.19601 488.716 500.63599 511.556"
         y="0"
         id="tspan154">• ПГК подписала новое соглашение о квотах с крупней</tspan></text><text
       transform="matrix(1,0,0,-1,1810.476,781.2201)"
       style="font-variant:normal;font-weight:300;font-stretch:normal;font-size:20px;font-family:'Rubik Light';-inkscape-font-specification:Rubik-Light;writing-mode:lr-tb;fill:#000000;fill-opacity:1;fill-rule:nonzero;stroke:none"
       id="text160"><tspan
         x="0"
         y="0"
         id="tspan158">-</tspan></text><text
       transform="matrix(1,0,0,-1,1305,755.2201)"
       style="font-variant:normal;font-weight:300;font-stretch:normal;font-size:20px;font-family:'Rubik Light';-inkscape-font-specification:Rubik-Light;writing-mode:lr-tb;fill:#000000;fill-opacity:1;fill-rule:nonzero;stroke:none"
       id="text164"><tspan
         x="0 15.38 27.299999 40.580002 52.5 57.66 67.5 78.419998 90.040001 101.96 113.12 124.64 135.56 147.17999 158.10001 169.72 180.44 191.78 202.5 212.44 225.62 236.46001 247.17999 262.44 278.34 290.26001 303.54001 315.45999 320.62 332.14001 343.76001 354.67999 366.20001 377.72 389.34 401.26001 411.64001 421.57999 433.5 443.88 457.16 469.07999 474.23999 487.23999"
         y="0"
         id="tspan162">шими зерноперерабатывающими предприятиями Ал</tspan></text><text
       transform="matrix(1,0,0,-1,1803.46,755.2201)"
       style="font-variant:normal;font-weight:300;font-stretch:normal;font-size:20px;font-family:'Rubik Light';-inkscape-font-specification:Rubik-Light;writing-mode:lr-tb;fill:#000000;fill-opacity:1;fill-rule:nonzero;stroke:none"
       id="text168"><tspan
         x="0"
         y="0"
         id="tspan166">-</tspan></text><text
       transform="matrix(1,0,0,-1,1305,729.2201)"
       style="font-variant:normal;font-weight:300;font-stretch:normal;font-size:20px;font-family:'Rubik Light';-inkscape-font-specification:Rubik-Light;writing-mode:lr-tb;fill:#000000;fill-opacity:1;fill-rule:nonzero;stroke:none"
       id="text172"><tspan
         x="0 9.9399996 20.66 32.580002 43.299999 52.919998 64.080002 72.199997 83.360001 88.519997 98.639999 110.26 120.98 131.36 136.52 151.86 157.02 169.08 182.08 193.3 204.22 216.14 226.86 236.98 246.82001 257.73999 269.35999 281.28 292.44 303.95999 315.57999 326.73999 338.26001 348.84 358.95999 368.89999 380.95999 386.12 398.04001 411.32001 416.07999 421.23999 434.26001 439.01999 444.17999 457.996 462.75601 467.91599 480.936 490.87601"
         y="0"
         id="tspan170">тайского края — «Алейскзернопродукт» им. С. Н. Ста</tspan></text><text
       transform="matrix(1,0,0,-1,1806.596,729.2201)"
       style="font-variant:normal;font-weight:300;font-stretch:normal;font-size:20px;font-family:'Rubik Light';-inkscape-font-specification:Rubik-Light;writing-mode:lr-tb;fill:#000000;fill-opacity:1;fill-rule:nonzero;stroke:none"
       id="text176"><tspan
         x="0"
         y="0"
         id="tspan174">-</tspan></text><text
       transform="matrix(1,0,0,-1,1305,703.2201)"
       style="font-variant:normal;font-weight:300;font-stretch:normal;font-size:20px;font-family:'Rubik Light';-inkscape-font-specification:Rubik-Light;writing-mode:lr-tb;fill:#000000;fill-opacity:1;fill-rule:nonzero;stroke:none"
       id="text186"><tspan
         x="0 11.62 22.780001 33.619999 44.779999 56.700001 66.639999 77.800003 88.639999 99.360001 104.52 110.098 116.698 121.458 126.618 139.618 150.838 161.758 173.67799 184.39799 193.89799 200.278 205.438 217.358 222.51801 234.578 250.17799 261.01801 272.23801 281.758 293.67801 305.59799 315.71799 327.77802 332.93799 338.51599 345.116 349.87601 355.03601 367.59601 378.17599 389.51599 401.53601 412.69601 423.53601 434.25601 443.75601 450.13599 454.896"
         y="0"
         id="tspan178">ровойтова (г. Алейск) и «Мельник» (г. Рубцовск). </tspan><tspan
         x="0 11.14 22.059999 33.580002 44.5 56.119999 65.639999 70.800003 82.32 93.040001 104.66 114.6 126.52 137.44 149.06 162.24001 167.39999 178.92 189.87801 201.09801 211.67799 222.218 232.938 248.198 258.138 263.298 274.81799 286.73801 297.45801 307.07599 318.23599 330.15601 340.09601 345.25601 356.09601 361.25601 371.09601 381.81601 392.65601 404.57599 415.29599 427.216 440.496 451.65601 462.37601 472.31601 484.23599"
         y="26"
         id="tspan180">Теперь партнеры получают дисконт в зависимости </tspan><tspan
         x="0 11.16 21.1 26.26 37.419998 48.759998 59.540001 70.459999 83.739998 94.459999 99.620003 111.14 122.3 130.66 141.89799 152.478 162.31799 172.438 184.358"
         y="52"
         id="tspan182">от объема погрузки.</tspan><tspan
         x="-18 -10.4 0 14 24.1 36.380001 41.540001 51.380001 62.099998 72.940002 83.860001 95.480003 110.86 122.78 134 144.72 149.88 161.5 172.42 184.34 195.5 206.34 217.06 229.08 241 256.26001 261.42001 275.42001 289.42001 302.44 307.60001 320.60001 331.14001 343.06 354.98001 365.70001 375.82001 380.98001 391.82001 396.98001 409.26001 420.88 431.60001 442.32001 454.23999 465.39999 475.78"
         y="91"
         id="tspan184">• ПГК завершила реновацию ППС Ачинск в Краснояр</tspan></text><text
       transform="matrix(1,0,0,-1,1792.4,612.2201)"
       style="font-variant:normal;font-weight:300;font-stretch:normal;font-size:20px;font-family:'Rubik Light';-inkscape-font-specification:Rubik-Light;writing-mode:lr-tb;fill:#000000;fill-opacity:1;fill-rule:nonzero;stroke:none"
       id="text190"><tspan
         x="0"
         y="0"
         id="tspan188">-</tspan></text><text
       transform="matrix(1,0,0,-1,1305,586.2201)"
       style="font-variant:normal;font-weight:300;font-stretch:normal;font-size:20px;font-family:'Rubik Light';-inkscape-font-specification:Rubik-Light;writing-mode:lr-tb;fill:#000000;fill-opacity:1;fill-rule:nonzero;stroke:none"
       id="text198"><tspan
         x="0 10.72 20.34 31.5 44.779999 49.939999 60.060001 71.68 82.400002 93.32 98.059998 103.22 113.94 119.1 129.03999 139.75999 149.88 164.86 175.78 180.94 192.86 203.58 214.12 224.84 236.06 246.78 251.94 262.78 272.72 283.88 295.5 306.66 318.57999 323.73999 334.45999 344.39999 355.12 366.64001 371.79999 383.42001 394.34 403.95599 415.116 427.03601 437.75601 447.69601 458.936 469.51599 479.63599 491.65601 503.57599 515.49597"
         y="0"
         id="tspan192">ском крае, а также начала второй этап реконструкции </tspan><tspan
         x="0 14 28 41.02 46.18 57.860001 69.019997 82.300003 93.639999 105.56 117.48 128.2 138.14 148.86 158.98 169.7 180.08 185.24001 196.08 201.24001 214.48 227.75999 238.48 248.09801 259.01801 263.77802 268.93799 281.49799 292.21799 303.55801 314.71799 324.65799 337.83801 342.99799 354.51801 365.67801 370.83801 384.11801 395.27802 406.798 417.71799 429.33801 441.258 453.17801 463.01801 473.73801 485.758 497.67801 509.59799"
         y="26"
         id="tspan194">ППС Комбинатская в Омске. Работы по модернизации </tspan><tspan
         x="0 11.52 23.139999 34.060001 45.580002 57.099998 68.720001 80.639999 91.019997 100.96 112.88 124.8 129.96001 141.48 153.10001 164.25999 175.10001 186.25999 197.78 209.7 220.92 232.84 243.56 253.08 258.23999 268.95999 274.12 284.84 296 307.34 318.56 333.82001 345.34 356.26001 368.17999 380.10001 391.01999 404.29999 409.45999 421.38 432.54001 444.16 457.44 462.60001 473.76001"
         y="52"
         id="tspan196">предприятий проводились с соблюдением норм ох</tspan></text><text
       transform="matrix(1,0,0,-1,1789.12,534.2201)"
       style="font-variant:normal;font-weight:300;font-stretch:normal;font-size:20px;font-family:'Rubik Light';-inkscape-font-specification:Rubik-Light;writing-mode:lr-tb;fill:#000000;fill-opacity:1;fill-rule:nonzero;stroke:none"
       id="text202"><tspan
         x="0"
         y="0"
         id="tspan200">-</tspan></text><text
       transform="matrix(1,0,0,-1,1305,508.2201)"
       style="font-variant:normal;font-weight:300;font-stretch:normal;font-size:20px;font-family:'Rubik Light';-inkscape-font-specification:Rubik-Light;writing-mode:lr-tb;fill:#000000;fill-opacity:1;fill-rule:nonzero;stroke:none"
       id="text208"><tspan
         x="0 11.62 22.34 34.259998 47.439999 52.599998 64.519997 69.68 81.019997 91.940002 101.78 112.94 124.46 135.17999 145.89999 157.82001 168.98 179.7 189.64 201.56 206.72 218.06 228.98 238.82001 243.98 255.14 265.85999 275.79999 286.51999 298.44 309.60001 320.44 330.56 342.48001 347.64001 357.57999 368.5 378.85999 390.78 401.73599 412.95599 424.116 432.47601 444.396 454.936 465.85599 476.57599 486.69601 498.616 508.97601"
         y="0"
         id="tspan204">раны и безопасности без остановки технологических </tspan><tspan
         x="0 11.52 23.139999 34.299999 46.32 57.240002 67.959999 78.68 89.839996 100.68"
         y="26"
         id="tspan206">процессов.</tspan></text><text
       transform="matrix(1,0,0,-1,1305,404.2201)"
       style="font-variant:normal;font-weight:500;font-stretch:normal;font-size:28px;font-family:'Rubik Medium';-inkscape-font-specification:Rubik-Medium;writing-mode:lr-tb;fill:#000000;fill-opacity:1;fill-rule:nonzero;stroke:none"
       id="text214"><tspan
         x="0 12.992"
         y="0"
         id="tspan210">10</tspan><tspan
         x="31.444 45.444 64.903999 80.947998 95.816002 111.944 128.688 145.88"
         y="0"
         id="tspan212"> Октябрь</tspan></text><text
       transform="matrix(1,0,0,-1,1287,343.2201)"
       style="font-variant:normal;font-weight:300;font-stretch:normal;font-size:20px;font-family:'Rubik Light';-inkscape-font-specification:Rubik-Light;writing-mode:lr-tb;fill:#000000;fill-opacity:1;fill-rule:nonzero;stroke:none"
       id="text224"><tspan
         x="0 7.5999999 18 32 42.099998 54.380001 59.540001 71.459999 76.620003 84.980003 96.220001 106.8 118.32 129.84 140.56 145.72 155.338 166.498 179.778 191.298 202.01801 213.938 225.858 237.778 242.938 255.338 271.83801 283.37799 296.61801 301.77802 313.298 324.45801 335.978 347.49799 359.418 370.138 380.858 392.078 403.99799 409.15799 419.87799 430.798 442.418 453.258 465.17801 475.89801 487.81799 500.99799 512.91803"
         y="0"
         id="tspan216">• ПГК и группа компаний ЭФКО подписали сервисный </tspan><tspan
         x="18 27.620001 38.779999 50.700001 60.639999 72.260002 82.980003 93.099998 103.04"
         y="26"
         id="tspan218">контракт.</tspan><tspan
         x="0 7.5 18 30.92 41.98 51.82 62.959999 73.440002 84.860001 96.68 108.5 118.52 130.34 135.39999 145.78 157.2 168.72 179.34 190.08 201.2 212.02 223.84 235.66 245.94 251 260.84 271.66 281.92001 293.73999 305.56 316 326.82001 337.44 346.95999 358.01999 369.84 374.89999 386.32001 397.18201 408.302 420.12201 429.96201 441.78201 451.802 463.62201 468.68201 482.582 492.582 504.862"
         y="65"
         id="tspan220">• Сотрудники Управления технической политики ПГК </tspan><tspan
         x="18 28.620001 38.459999 49.080002 60.200001 72.019997 77.080002 88.5 100.32 111.74 122.86 133.92 147.10001 157.72 169.53999 179.38 190 203.17999 215 220.06 229.58 240.64 252.46001 262.48001 272.95999 284.48001 295.10001 305.72 310.78 321.51999 326.57999 338.39999 349.45999 362.64001 374.45999 386.28 396.89999 408.82001 420.64001 432.45999 437.51999 449.48001 461.35999 471.98001 477.04001 488.45999 499.98001 510.60001"
         y="91"
         id="tspan222">стали дипломантами конкурса в номинации «За прак</tspan></text><text
       transform="matrix(1,0,0,-1,1806.68,252.2201)"
       style="font-variant:normal;font-weight:300;font-stretch:normal;font-size:20px;font-family:'Rubik Light';-inkscape-font-specification:Rubik-Light;writing-mode:lr-tb;fill:#000000;fill-opacity:1;fill-rule:nonzero;stroke:none"
       id="text228"><tspan
         x="0"
         y="0"
         id="tspan226">-</tspan></text><text
       transform="matrix(1,0,0,-1,1305,226.2201)"
       style="font-variant:normal;font-weight:300;font-stretch:normal;font-size:20px;font-family:'Rubik Light';-inkscape-font-specification:Rubik-Light;writing-mode:lr-tb;fill:#000000;fill-opacity:1;fill-rule:nonzero;stroke:none"
       id="text238"><tspan
         x="0 9.8400002 21.66 32.099998 42.919998 53.540001 63.560001 75.379997 87.199997 92.260002 103 113.02 124.14 134.75999 146.17999 151.24001 161.98 167.03999 177.66 188.72 198.46001 209.88 220.5 232.32001 244.14 254.96001 260.01999 271.84 276.89999 289.99799 300.478 312.298 322.31799 334.23801 346.05801 357.11801 368.93799 380.758 392.27802 403.33801 414.078 424.698 436.51801 448.33801 459.258"
         y="0"
         id="tspan230">тический вклад в создание и функционирование </tspan><tspan
         x="0 10.62 21.74 32.220001 47.099998 58.34 71.419998 76.480003 87.099998 96.940002 107.56 119.38 130.8 141.42 152.94 162.78 174.60001 184.34 194.96001 206.88 218.7 230.52 235.58 247.39999 258.01999 263.07999 274.5 286.01999 296.84 308.26001 319.67999 331.20001 343.01999 353.29999 363.14001 374.95999 385.23999 395.5 407.45999 412.12 417.17999 428.76001 439.82001 451.64001 461.66 472.14001 483.66 494.38"
         y="26"
         id="tspan232">службы стандартизации на предприятиях». Конкурс </tspan><tspan
         x="0 11.96 24.879999 34.720001 45.34 57.16 68.580002 79.199997 90.720001 100.56 112.38 122.12 132.74001 142.58 153.64 165.16 170.22 178.24001 189.3 200.72 211.34 223.3 228.36 239.78 251.3 262.35999 272.62 283.67999 295.10001 306.92001 316.76001 321.82001 332.64001 347.51999 358.34 366.35999 377.42001 388.84 400.66 411.72 416.78 427.51999 432.57999 444.10001 454.72 467.89999 477.92001 488.54001 498.89999"
         y="52"
         id="tspan234">«Стандартизатор года» проходит ежегодно в рамках </tspan><tspan
         x="0 10.62 21.68 32.419998 45.599998 56.419998 67.040001 76.879997 88.699997 99.760002 107.78 118.84 123.9 135.32001 146.84 157.89999 168.72 178.74001 188.58 199.2 204.25999 217.22 227.84 238.66 250.17999 261.23999 271.85999 282.48001 294.29999 306.12 316.73999 326.26001 337.32001 349.14001 354.20001 365.26001 376.78 385.04001 395.66 407.48001 419.29999 429.04001 439.66 451.57999 463.39999 475.22 480.28 490.29999"
         y="78"
         id="tspan236">совместного проекта Всероссийской организации ка</tspan></text><text
       transform="matrix(1,0,0,-1,1805.92,148.2201)"
       style="font-variant:normal;font-weight:300;font-stretch:normal;font-size:20px;font-family:'Rubik Light';-inkscape-font-specification:Rubik-Light;writing-mode:lr-tb;fill:#000000;fill-opacity:1;fill-rule:nonzero;stroke:none"
       id="text242"><tspan
         x="0"
         y="0"
         id="tspan240">-</tspan></text><text
       transform="matrix(1,0,0,-1,1305,122.2201)"
       style="font-variant:normal;font-weight:300;font-stretch:normal;font-size:20px;font-family:'Rubik Light';-inkscape-font-specification:Rubik-Light;writing-mode:lr-tb;fill:#000000;fill-opacity:1;fill-rule:nonzero;stroke:none"
       id="text246"><tspan
         x="0 10.44 21.26 31.879999 41.720001 52.459999 63.080002 67.720001 72.779999 88.279999 100.1 111.92 123.34 134.86 145.92 159.10001 168.94 180 191.52 199.78 210.39999 215.46001 227.92 238.98 249.60001 260.22 272.04001 283.85999 288.92001 300.73999 305.79999 318.26001 329.32001 339.94 350.56 360.39999 371.01999 382.84 394.26001 404.88 416.39999 426.23999 436.85999"
         y="0"
         id="tspan244">чества, Минпромторга России и Росстандарта.</tspan></text><path
       d="M 0,893.4 H 1920 V 1080 H 0 Z"
       style="fill:#e8e8ed;fill-opacity:1;fill-rule:nonzero;stroke:none"
       id="path248" /><text
       transform="matrix(1,0,0,-1,99,953.4)"
       style="font-variant:normal;font-weight:normal;font-stretch:normal;font-size:38px;font-family:'Prosto One';-inkscape-font-specification:ProstoOne-Regular;writing-mode:lr-tb;fill:#000000;fill-opacity:1;fill-rule:nonzero;stroke:none"
       id="text252"><tspan
         x="0 34.200001 64.220001 96.139999 130.34 160.74001 192.66 232.37 259.35001 272.64999 302.67001 336.87 366.70001 406.41 433.20001 465.88 496.28 509.57999 534.65997 568.85999 601.91998 1607.248 1633.468 1664.6281 1690.848"
         y="0"
         id="tspan250">ОСНОВНЫЕ СОБЫТИЯ ГОДА2020</tspan></text><text
       transform="matrix(1,0,0,-1,118.5,168)"
       style="font-variant:normal;font-weight:500;font-stretch:normal;font-size:28px;font-family:'Rubik Medium';-inkscape-font-specification:Rubik-Medium;writing-mode:lr-tb;fill:#000000;fill-opacity:1;fill-rule:nonzero;stroke:none"
       id="text260"><tspan
         x="0 20.888 40.348 59.332001 76.776001 95.255997 115.696 133.14 150.584 156.968 177.408 195.888 213.332 234.22 254.66 273.14001 294.448 313.54401 330.51199 351.82001 369.26401 375.64801 396.08801 411.32001 430.13599 436.51999 458.02399"
         y="0"
         id="tspan254">ДОЧЕРНЕЕ ПРЕДПРИЯТИЕ ПГК — </tspan><tspan
         x="0 19.236 38.667999 53.591999 73.052002 93.491997 112.952 131.43201 148.87601 171.612 191.07201 211.51199 228.48 248.92 268.38 285.82401 291.7236 312.1636 330.64359 348.08759 368.97559 389.41559 407.8956 429.20361 448.29959 465.26761 486.57559 504.01959 509.91919 527.39117 542.62323 561.10321 580.19922 598.31519 619.62323 637.09521 642.99481 664.49878"
         y="33.992001"
         id="tspan256">ВАГОНОРЕМОНТНОЕ ПРЕДПРИЯТИЕ «ГРЯЗИ» — </tspan><tspan
         x="0 19.459999 36.428001 59.164001 76.608002 93.575996 114.884 135.464 154.924 161.308 179.70399 197.092 209.94119 230.52119 247.96519 264.9332 285.3732 306.68121 327.9892 334.3732 362.2612 380.4332 401.74121 422.3212 439.7652"
         y="67.984001"
         id="tspan258">ОТМЕТИЛО 85‑ЛЕТНИЙ ЮБИЛЕЙ</tspan></text><g
       id="g262"><g
         id="g264"
         clip-path="url(#clipPath268)"><g
           id="g270"
           transform="translate(76.4,184.75)"><path
             d="m 0,0 c -1.4,1.9 -3.367,2.85 -5.9,2.85 -2.267,0 -4.084,-0.75 -5.45,-2.25 -1.367,-1.5 -2.05,-3.25 -2.05,-5.25 0,-2 0.666,-3.75 2,-5.25 1.333,-1.5 3,-2.25 5,-2.25 0.666,0 1.266,0.067 1.8,0.2 0.266,0.067 0.5,0.167 0.7,0.3 -0.267,-2 -1.15,-3.583 -2.65,-4.75 -1.5,-1.166 -3.117,-1.75 -4.85,-1.75 v -3.5 c 1.6,0 3.216,0.284 4.85,0.85 1.633,0.567 3.083,1.467 4.35,2.7 1.266,1.234 2.3,2.8 3.1,4.7 0.8,1.9 1.2,4.15 1.2,6.75 C 2.1,-4.117 1.4,-1.9 0,0 M 20,0 C 18.6,1.9 16.633,2.85 14.1,2.85 11.833,2.85 10.016,2.1 8.65,0.6 7.283,-0.9 6.6,-2.65 6.6,-4.65 c 0,-2 0.666,-3.75 2,-5.25 1.333,-1.5 3,-2.25 5,-2.25 0.666,0 1.266,0.067 1.8,0.2 0.266,0.067 0.5,0.167 0.7,0.3 -0.267,-2 -1.15,-3.583 -2.65,-4.75 -1.5,-1.166 -3.117,-1.75 -4.85,-1.75 v -3.5 c 1.6,0 3.216,0.284 4.85,0.85 1.633,0.567 3.083,1.467 4.35,2.7 1.266,1.234 2.3,2.8 3.1,4.7 0.8,1.9 1.2,4.15 1.2,6.75 0,2.533 -0.7,4.75 -2.1,6.65"
             style="fill:#faaa2d;fill-opacity:1;fill-rule:nonzero;stroke:none"
             id="path272" /></g></g></g><text
       transform="matrix(1,0,0,-1,39.8001,1023)"
       style="font-variant:normal;font-weight:300;font-stretch:normal;font-size:20px;font-family:'Rubik Light';-inkscape-font-specification:Rubik-Light;writing-mode:lr-tb;fill:#000000;fill-opacity:1;fill-rule:nonzero;stroke:none"
       id="text276"><tspan
         x="0 7.96"
         y="0"
         id="tspan274">19</tspan></text><g
       id="g278"><g
         id="g280"><g
           id="g282"
           clip-path="url(#clipPath286)"><text
             transform="matrix(1,0,0,-1,99,1023)"
             style="font-variant:normal;font-weight:300;font-stretch:normal;font-size:20px;font-family:'Rubik Light';-inkscape-font-specification:Rubik-Light;writing-mode:lr-tb;fill:#000000;fill-opacity:1;fill-rule:nonzero;stroke:none"
             id="text290"><tspan
               x="0 13.24 18.4 28.02 39.18 52.459999 63.98 74.699997 86.620003 98.540001"
               y="0"
               id="tspan288">О компании</tspan></text></g></g></g></g></svg>
