<?xml version="1.0" encoding="UTF-8" standalone="no"?>
<?xml-stylesheet type="text/css" href="main.css" ?>
<svg
   xmlns:dc="http://purl.org/dc/elements/1.1/"
   xmlns:cc="http://creativecommons.org/ns#"
   xmlns:rdf="http://www.w3.org/1999/02/22-rdf-syntax-ns#"
   xmlns:svg="http://www.w3.org/2000/svg"
   xmlns="http://www.w3.org/2000/svg"
   version="1.1"
   id="svg2"
   xml:space="preserve"
   width="2560"
   height="1440"
   viewBox="0 0 2560 1440"><metadata
     id="metadata8"><rdf:RDF><cc:Work
         rdf:about=""><dc:format>image/svg+xml</dc:format><dc:type
           rdf:resource="http://purl.org/dc/dcmitype/StillImage" /></cc:Work></rdf:RDF></metadata><defs
     id="defs6"><clipPath
       clipPathUnits="userSpaceOnUse"
       id="clipPath20"><path
         d="M 0,1080 H 1920 V 0 H 0 Z"
         id="path18" /></clipPath><clipPath
       clipPathUnits="userSpaceOnUse"
       id="clipPath156"><path
         d="M 0,0 H 1920 V 1080 H 0 Z"
         id="path154" /></clipPath><clipPath
       clipPathUnits="userSpaceOnUse"
       id="clipPath178"><path
         d="M 0,1080 H 1920 V 0 H 0 Z"
         id="path176" /></clipPath></defs><g
     id="g10"
     transform="matrix(1.3333333,0,0,-1.3333333,0,1440)"><g
       id="g12"><g
         id="g14"><g
           id="g16"
           clip-path="url(#clipPath20)"><path
             d="M 0,0 H 1920 V 1080 H 0 Z"
             style="fill:#ffffff;fill-opacity:1;fill-rule:nonzero;stroke:none"
             id="path22" /></g></g></g><path
       d="m 1425.5,0.5 h 494 v 1078.999 h -494 z"
       style="fill:#e8e8ed;fill-opacity:1;fill-rule:nonzero;stroke:none"
       id="path24" /><text
       transform="matrix(1,0,0,-1,1485,140)"
       style="font-variant:normal;font-weight:300;font-stretch:normal;font-size:16px;font-family:'Rubik Light';-inkscape-font-specification:Rubik-Light;writing-mode:lr-tb;fill:#000000;fill-opacity:1;fill-rule:nonzero;stroke:none"
       id="text32"><tspan
         x="0 5.9840002 14.912 24.128 33.056 41.728001 50.655998 60.192001 64.32 73.248001 81.199997 89.632004 98.367996 106.32 110.448 119.408 129.26401 138.224 148.08 152.20799 160.672 168.62399 177.29601 186.032 195.328 207.312 216.528 225.26401 234.8 238.92799 248.976 257.71201 270.01599 278.75201 288.28799 297.82401 306.56 317.18399"
         y="0"
         id="tspan26">Годовой отчет 2020 утвержден Решением </tspan><tspan
         x="0 9.4720001 18.688 28.224001 37.759998 46.335999 54.287998 62.959999 71.695999 81.232002 90.767998 99.695999 106.1904 115.1184 119.2464 127.8224 135.9184 145.53439 155.0704 163.9984 173.53439 182.2704 191.56641 200.1424 204.2704 215.4704 225.87041 236.4624 240.59039 250.2384 261.43839 269.5184 279.34241"
         y="20"
         id="tspan28">Единственного акционера ПАО «ПГК»</tspan><tspan
         x="0 4.4640002 13.76 22.496 34.799999 43.535999 53.071999 62.608002 71.344002 75.472 93.536003 102.3664 111.2944 119.2464 123.3744 133.11839 142.8624 146.67039 150.7984 160.5424 170.28641 174.09441 178.2224 187.1824 197.03841 205.9984 212.36639 -1386 -1375.184 -1366.608 -1358.656 -1350.08 -1345.952 -1336.656 -1327.984 -1319.0081 -1309.472 -1301.6 -1293.024 -1289.168 -1285.04 -1276.464 -1267.248 -1257.952 -1249.2816 -1240.3055 -1232.6896 -1228.5616 -1219.6016 -1209.7456 -1200.7856 -1194.4176 -1190.2896"
         y="40"
         id="tspan30">(решение №…от XX. XX. 2021)Дата релиза: апрель 2021 г</tspan></text><text
       transform="matrix(1,0,0,-1,1485,961.3)"
       style="font-variant:normal;font-weight:300;font-stretch:normal;font-size:20px;font-family:'Rubik Light';-inkscape-font-specification:Rubik-Light;writing-mode:lr-tb;fill:#000000;fill-opacity:1;fill-rule:nonzero;stroke:none"
       id="text36"><tspan
         x="0 13.06 18.219999 29.74 40.459999 52.380001 64.300003 75.459999 88.739998 93.900002 101.378 112.538 124.058 135.218 146.058 157.218 170.498 175.658 186.81799 196.758 207.298 218.218 228.158 239.078 244.23801 255.758 267.37799 278.298"
         y="0"
         id="tspan34">В данном Годовом отчете пред</tspan></text><text
       transform="matrix(1,0,0,-1,1774.818,961.3)"
       style="font-variant:normal;font-weight:300;font-stretch:normal;font-size:20px;font-family:'Rubik Light';-inkscape-font-specification:Rubik-Light;writing-mode:lr-tb;fill:#000000;fill-opacity:1;fill-rule:nonzero;stroke:none"
       id="text40"><tspan
         x="0"
         y="0"
         id="tspan38">-</tspan></text><text
       transform="matrix(1,0,0,-1,1485,935.3)"
       style="font-variant:normal;font-weight:300;font-stretch:normal;font-size:20px;font-family:'Rubik Light';-inkscape-font-specification:Rubik-Light;writing-mode:lr-tb;fill:#000000;fill-opacity:1;fill-rule:nonzero;stroke:none"
       id="text44"><tspan
         x="0 10.72 20.66 31.379999 42.220001 53.439999 64.360001 76.279999 89.459999 94.620003 106.54 116.48 127.64 136 147.92 153.08 164.60001 175.52 185.89999 195.84 206.67799 217.89799 227.418 239.338 250.498 261.21799 271.15799 283.078 288.23801 302.23801"
         y="0"
         id="tspan42">ставлены итоги деятельности Пу</tspan></text><text
       transform="matrix(1,0,0,-1,1797.34,935.3)"
       style="font-variant:normal;font-weight:300;font-stretch:normal;font-size:20px;font-family:'Rubik Light';-inkscape-font-specification:Rubik-Light;writing-mode:lr-tb;fill:#000000;fill-opacity:1;fill-rule:nonzero;stroke:none"
       id="text48"><tspan
         x="0"
         y="0"
         id="tspan46">-</tspan></text><text
       transform="matrix(1,0,0,-1,1485,909.3)"
       style="font-variant:normal;font-weight:300;font-stretch:normal;font-size:20px;font-family:'Rubik Light';-inkscape-font-specification:Rubik-Light;writing-mode:lr-tb;fill:#000000;fill-opacity:1;fill-rule:nonzero;stroke:none"
       id="text54"><tspan
         x="0 11.34 22.559999 34.48 45.02 56.939999 68.099998 76.220001 87.379997 92.540001 103.26 113.38 125.4 137.32001 148.48 160.39999 171.32001 182.94 194.86 206.02 214.138 225.298 230.45799 241.618 252.95799 268.858 279.77802 290.49799 300.43799 311.27802 321.99799"
         y="0"
         id="tspan50">бличного акционерного общества </tspan><tspan
         x="0 12.06 26.059999 36.98 48.599998 59.439999 70.160004 80.540001 85.699997 93.797997 105.038 115.618 125.458 136.618 147.45799 158.17799 168.558 173.718 185.39799 196.558 209.838 221.358 232.078 243.998 255.918 266.298 278.358 283.51801 289.89801 301.418"
         y="26"
         id="tspan52">«Первая Грузовая Компания» (да</tspan></text><text
       transform="matrix(1,0,0,-1,1797.138,883.3)"
       style="font-variant:normal;font-weight:300;font-stretch:normal;font-size:20px;font-family:'Rubik Light';-inkscape-font-specification:Rubik-Light;writing-mode:lr-tb;fill:#000000;fill-opacity:1;fill-rule:nonzero;stroke:none"
       id="text58"><tspan
         x="0"
         y="0"
         id="tspan56">-</tspan></text><text
       transform="matrix(1,0,0,-1,1485,857.3)"
       style="font-variant:normal;font-weight:300;font-stretch:normal;font-size:20px;font-family:'Rubik Light';-inkscape-font-specification:Rubik-Light;writing-mode:lr-tb;fill:#000000;fill-opacity:1;fill-rule:nonzero;stroke:none"
       id="text68"><tspan
         x="0 11.22 22.139999 33.060001 38.220001 53.560001 58.720001 72.720001 85.720001 98.959999 104.12 116.18 130.17999 140.28 152.56 164.62 169.36 174.52 188.52 198.62 210.89999 215.64 220.8 234.03999 245.38 261.28 272.20001 282.92001 292.85999 303.70001 314.85999"
         y="0"
         id="tspan60">лее — ПАО «ПГК», ПГК, Общество </tspan><tspan
         x="0 11.92 23.139999 35.060001 40.220001 51.900002 63.060001 76.339996 87.860001 98.580002 110.5 122.42 131.998 138.37801 143.53799 153.37801 164.09801 169.258 180.45799 192.778 203.978 216.298 221.45799 229.578 240.73801 252.258"
         y="26"
         id="tspan62">или Компания) за 2020 год.</tspan><tspan
         x="0 14.52 26.440001 40.02 51.18 62.799999 76.080002 86.800003 98.82 110.74 121.12 126.28 137.44 142.60001 154.22 165.14 174.98 184.978 196.198 205.718 215.658 226.37801 236.31799 247.03799 257.39801"
         y="65"
         id="tspan64">Информация о результатах </tspan><tspan
         x="0 11.52 22.440001 32.82 42.759998 53.599998 64.82 74.339996 86.260002 97.419998 108.14 118.08 130 135.16 147.08 158.3 170.22 175.38 186.10001 196.22 206.16 218.08 228.92 239.64 250 254.74001 259.89999 270.62"
         y="91"
         id="tspan66">деятельности или активах, со</tspan></text><text
       transform="matrix(1,0,0,-1,1766.78,766.3)"
       style="font-variant:normal;font-weight:300;font-stretch:normal;font-size:20px;font-family:'Rubik Light';-inkscape-font-specification:Rubik-Light;writing-mode:lr-tb;fill:#000000;fill-opacity:1;fill-rule:nonzero;stroke:none"
       id="text72"><tspan
         x="0"
         y="0"
         id="tspan70">-</tspan></text><text
       transform="matrix(1,0,0,-1,1485,740.3)"
       style="font-variant:normal;font-weight:300;font-stretch:normal;font-size:20px;font-family:'Rubik Light';-inkscape-font-specification:Rubik-Light;writing-mode:lr-tb;fill:#000000;fill-opacity:1;fill-rule:nonzero;stroke:none"
       id="text78"><tspan
         x="0 11.52 22.440001 34.060001 49.040001 59.759998 75.660004 86.379997 96.760002 107.48 117.86 123.02 133.86 139.02 150.53999 161.25999 173.17999 185.10001 196.25999 209.53999 214.7 226.22 237.38 247.5 258.07999 271.35999 282.28 294.20001 304.14001 315.06 319.79999"
         y="0"
         id="tspan74">держащаяся в данном документе, </tspan><tspan
         x="0 11.52 23.139999 34.060001 45.580002 56.299999 66.239998 76.959999 87.800003 99.019997 109.4 120.32 130.25999 135.42 146.14 157.3 168.64 179.8 191.72 196.88 206.498 217.658 229.578 240.298 251.258 262.478 274.39801 285.918 297.83801 309.45801"
         y="26"
         id="tspan76">представляет собой консолидиро</tspan></text><text
       transform="matrix(1,0,0,-1,1805.618,714.3)"
       style="font-variant:normal;font-weight:300;font-stretch:normal;font-size:20px;font-family:'Rubik Light';-inkscape-font-specification:Rubik-Light;writing-mode:lr-tb;fill:#000000;fill-opacity:1;fill-rule:nonzero;stroke:none"
       id="text82"><tspan
         x="0"
         y="0"
         id="tspan80">-</tspan></text><text
       transform="matrix(1,0,0,-1,1485,688.3)"
       style="font-variant:normal;font-weight:300;font-stretch:normal;font-size:20px;font-family:'Rubik Light';-inkscape-font-specification:Rubik-Light;writing-mode:lr-tb;fill:#000000;fill-opacity:1;fill-rule:nonzero;stroke:none"
       id="text90"><tspan
         x="0 10.84 21.559999 33.48 45.400002 58.580002 69.5 74.660004 86.18 96.900002 108.82 120.74 133.92 144.84 150 161.52 172.67999 177.84 189.51801 200.67799 213.95799 225.478 236.198 248.118 260.03799 271.95801 276.698 281.858 292.77802 303.49799 314.71799 326.638"
         y="0"
         id="tspan84">ванные данные по Компании, если </tspan><tspan
         x="0 11.92 22.84 28 38.580002 48.700001 59.419998 69.260002 79.980003 91.900002 103.06 108.22 120.14 132.06 143.22 154.14"
         y="26"
         id="tspan86">не указано иное.</tspan><tspan
         x="0 16.5 28.42 40.34 51.060001 62.98 73.699997 84.860001 95.699997 108.88 119.8 124.96 136.48 147.64 157.75999 168.48 178.32001 189.03999 198.98 209.81799 221.03799 232.95799 237.698 242.858 254.37801 265.99799 276.918"
         y="65"
         id="tspan88">Финансовые показатели, пред</tspan></text><text
       transform="matrix(1,0,0,-1,1773.438,623.3)"
       style="font-variant:normal;font-weight:300;font-stretch:normal;font-size:20px;font-family:'Rubik Light';-inkscape-font-specification:Rubik-Light;writing-mode:lr-tb;fill:#000000;fill-opacity:1;fill-rule:nonzero;stroke:none"
       id="text94"><tspan
         x="0"
         y="0"
         id="tspan92">-</tspan></text><text
       transform="matrix(1,0,0,-1,1485,597.3)"
       style="font-variant:normal;font-weight:300;font-stretch:normal;font-size:20px;font-family:'Rubik Light';-inkscape-font-specification:Rubik-Light;writing-mode:lr-tb;fill:#000000;fill-opacity:1;fill-rule:nonzero;stroke:none"
       id="text98"><tspan
         x="0 10.72 20.66 31.379999 42.220001 53.439999 64.360001 76.279999 88.199997 101.38 112.3 117.46 128.3 133.46001 140.938 152.09801 163.618 174.778 185.618 196.778 210.058 215.218 226.37801 236.31799 246.858 257.77802 267.71799 278.638 283.37799 288.53799 300.05801 311.67801"
         y="0"
         id="tspan96">ставленные в Годовом отчете, при</tspan></text><text
       transform="matrix(1,0,0,-1,1808.598,597.3)"
       style="font-variant:normal;font-weight:300;font-stretch:normal;font-size:20px;font-family:'Rubik Light';-inkscape-font-specification:Rubik-Light;writing-mode:lr-tb;fill:#000000;fill-opacity:1;fill-rule:nonzero;stroke:none"
       id="text102"><tspan
         x="0"
         y="0"
         id="tspan100">-</tspan></text><text
       transform="matrix(1,0,0,-1,1485,571.3)"
       style="font-variant:normal;font-weight:300;font-stretch:normal;font-size:20px;font-family:'Rubik Light';-inkscape-font-specification:Rubik-Light;writing-mode:lr-tb;fill:#000000;fill-opacity:1;fill-rule:nonzero;stroke:none"
       id="text110"><tspan
         x="0 10.84 21.76 33.279999 44.200001 56.119999 69.300003 74.459999 86.379997 91.540001 103.16 113.88 124.6 135.32001 145.86 157.78 167.72 178.44 190.36 203.53999 208.7 220.62 231.34 236.5 247.66 258.38 270.29999 281.45999 292.29999 303.22"
         y="0"
         id="tspan104">ведены и рассчитаны на основе </tspan><tspan
         x="0 9.6199999 20.780001 32.700001 43.419998 54.380001 65.599998 77.519997 89.040001 100.96 112.58 123.74 134.58 145.3 157.22 169.14 180.3 192.22 197.38 208.53999 218.48 229.02 239.94 249.88 261.79999 272.95999 283.67999 293.62 305.54001"
         y="26"
         id="tspan106">консолидированной отчетности </tspan><tspan
         x="0 14 27 40.240002 45.400002 57.459999 71.459999 81.559998 93.839996 105.9 111.06 122.58 133.74001 138.89999 154.5 167.52 184.02 196.858 201.59801 206.758 217.67799 228.39799 239.618 251.53799 256.698 268.61801 279.53799 284.698 295.27802 305.39801"
         y="52"
         id="tspan108">ПАО «ПГК» по МСФО, если не ука</tspan></text><text
       transform="matrix(1,0,0,-1,1801.118,519.3)"
       style="font-variant:normal;font-weight:300;font-stretch:normal;font-size:20px;font-family:'Rubik Light';-inkscape-font-specification:Rubik-Light;writing-mode:lr-tb;fill:#000000;fill-opacity:1;fill-rule:nonzero;stroke:none"
       id="text114"><tspan
         x="0"
         y="0"
         id="tspan112">-</tspan></text><text
       transform="matrix(1,0,0,-1,1485,493.3)"
       style="font-variant:normal;font-weight:300;font-stretch:normal;font-size:20px;font-family:'Rubik Light';-inkscape-font-specification:Rubik-Light;writing-mode:lr-tb;fill:#000000;fill-opacity:1;fill-rule:nonzero;stroke:none"
       id="text122"><tspan
         x="0 9.8400002 20.559999 32.48 43.639999 48.799999 60.720001 72.639999 83.800003 94.720001"
         y="0"
         id="tspan116">зано иное.</tspan><tspan
         x="0 14.52 26.440001 40.02 51.18 62.799999 76.080002 86.800003 98.82 110.74 121.12 126.28 137.44 142.60001 154.22 164.94 174.78 188.06 198.98 214.88 225.8 237.72 249.64 261.56"
         y="39"
         id="tspan118">Информация о размещении </tspan><tspan
         x="0 8.1199999 19.280001 30.799999 41.959999 52.799999 63.959999 75.879997 81.040001 92.379997 102.96 113.32 121.68 132.39999 143.62 153.56 164.48 176.10001 186.82001 196.438 207.59801 219.51801 224.67799 235.838 245.778 256.31799 267.23801"
         y="65"
         id="tspan120">годовой бухгалтерской отчет</tspan></text><text
       transform="matrix(1,0,0,-1,1762.178,428.3)"
       style="font-variant:normal;font-weight:300;font-stretch:normal;font-size:20px;font-family:'Rubik Light';-inkscape-font-specification:Rubik-Light;writing-mode:lr-tb;fill:#000000;fill-opacity:1;fill-rule:nonzero;stroke:none"
       id="text126"><tspan
         x="0"
         y="0"
         id="tspan124">-</tspan></text><text
       transform="matrix(1,0,0,-1,1485,402.3)"
       style="font-variant:normal;font-weight:300;font-stretch:normal;font-size:20px;font-family:'Rubik Light';-inkscape-font-specification:Rubik-Light;writing-mode:lr-tb;fill:#000000;fill-opacity:1;fill-rule:nonzero;stroke:none"
       id="text134"><tspan
         x="0 11.92 23.08 33.799999 43.740002 55.66 60.82 74.82 87.82 101.06 106.22 118.28 132.28 142.38 154.66 166.72 171.88 181.72 192.44 197.60001 208.8 221.12 232.32001 244.64 249.8 257.918 269.078 280.59799 285.33801"
         y="0"
         id="tspan128">ности ПАО «ПГК» за 2020 год, </tspan><tspan
         x="0 11.52 22.68 34.200001 42.32 53.48 63.419998 74.580002 85.419998 96.639999 107.56 119.48 131.39999 142.56 154.48 159.64 170.48 175.64 186.36 197.52 208.67999 218.62 229.46001 240.38 250.32001 261.04001 270.98001 281.82001 293.73999 305.66"
         y="26"
         id="tspan130">подготовленной в соответствии </tspan><tspan
         x="0 10.72 15.88 27.4 38.32 50.240002 60.959999 70.900002 81.739998 92.32 107.58 123.48 135.39999 148.67999 153.84 163.67999 174.39999 184.01801 195.17799 207.09801 218.258 229.778 240.498 250.438 261.276 272.496"
         y="52"
         id="tspan132">с действующим законодатель</tspan></text><text
       transform="matrix(1,0,0,-1,1767.016,350.3)"
       style="font-variant:normal;font-weight:300;font-stretch:normal;font-size:20px;font-family:'Rubik Light';-inkscape-font-specification:Rubik-Light;writing-mode:lr-tb;fill:#000000;fill-opacity:1;fill-rule:nonzero;stroke:none"
       id="text138"><tspan
         x="0"
         y="0"
         id="tspan136">-</tspan></text><text
       transform="matrix(1,0,0,-1,1485,324.3)"
       style="font-variant:normal;font-weight:300;font-stretch:normal;font-size:20px;font-family:'Rubik Light';-inkscape-font-specification:Rubik-Light;writing-mode:lr-tb;fill:#000000;fill-opacity:1;fill-rule:nonzero;stroke:none"
       id="text148"><tspan
         x="0 10.72 20.66 31.5 42.66 55.939999 61.099998 73.660004 84.82 95.540001 106.26 118.18 130.10001 140.82001 150.438 161.59801 173.51801 178.67799 195.17799 206.09801 217.618 228.53799 240.158 250.87801 262.89801 274.81799 286.73801 291.478"
         y="0"
         id="tspan140">ством Российской Федерации, </tspan><tspan
         x="0 11.52 23.139999 34.060001 45.580002 56.299999 66.239998 76.959999 87.800003 99.019997 109.94 121.86 132.58 137.74001 148.58 153.74001 166.3 177.02 186.86 198.38 209.218 220.438 231.358 236.51801 244.478 249.638 261.15799 272.31799 283.03799 294.258 305.17801"
         y="26"
         id="tspan142">представлена в Разделе 1 после </tspan><tspan
         x="0 11.34 22.559999 33.720001 43.84 54.560001 59.720001 71.779999 88.279999 100.2 112.12 122.84 134.75999 145.48 156.64 167.48 178.2 188.58 193.74001 204.89999 214.84 225.38 236.3 246.24001 258.16 269.32001 280.04001 289.98001 299.5"
         y="52"
         id="tspan144">блока «Финансовая отчетность </tspan><tspan
         x="0 11.52 22.68 27.84 43.439999 56.459999 72.959999 86.199997 98.260002"
         y="78"
         id="tspan146">по МСФО».</tspan></text><g
       id="g150"><g
         id="g152"
         clip-path="url(#clipPath156)"><g
           id="g158"
           transform="translate(105.1786,456.1482)"><path
             d="m 0,0 h 32.658 c 9.473,0 16.402,1.545 20.787,4.634 4.382,3.089 6.575,7.282 6.575,12.578 0,4.001 -1.251,7.282 -3.751,9.841 -2.502,2.56 -5.958,4.281 -10.371,5.164 3.53,1.117 6.178,2.824 7.944,5.119 1.765,2.295 2.648,5.001 2.648,8.121 0,2.412 -0.53,4.618 -1.589,6.619 -1.059,2 -2.678,3.721 -4.855,5.164 -2.177,1.441 -4.929,2.56 -8.252,3.354 -3.326,0.794 -7.253,1.192 -11.784,1.192 H 0 Z m 32.658,28.245 c 4.413,0 7.796,-0.898 10.151,-2.692 2.352,-1.796 3.53,-4.576 3.53,-8.341 0,-3.531 -1.178,-6.179 -3.53,-7.944 C 40.454,7.503 37.071,6.62 32.658,6.62 h -19.86 v 21.625 z m -19.86,6.62 V 55.166 H 30.01 c 4.237,0 7.428,-0.839 9.577,-2.516 2.147,-1.677 3.222,-4.075 3.222,-7.193 0,-7.062 -4.267,-10.592 -12.799,-10.592 z M 101.503,6.62 v -20.742 h 10.592 L 113.86,0 h 47.663 l 1.766,-14.122 H 173.88 V 6.62 h -7.502 v 55.166 h -49.429 l -3.53,-45.898 c -0.236,-2.884 -1.104,-5.15 -2.604,-6.797 -1.501,-1.648 -3.133,-2.471 -4.899,-2.471 z m 27.362,48.546 h 24.714 V 6.62 h -33.982 c 1.059,0.587 2.03,1.353 2.913,2.295 0.764,0.764 1.47,1.735 2.118,2.913 0.647,1.176 1.029,2.529 1.148,4.06 z m 111.214,0 v 6.62 H 186.237 V 0 h 53.842 v 6.62 h -41.044 v 21.625 h 32.217 v 6.62 H 199.035 V 55.166 Z M 315.103,0 v 61.786 h -16.77 L 265.234,11.474 h -0.883 V 61.786 H 251.552 V 0 h 16.771 l 33.099,50.311 h 0.883 V 0 Z m -19.418,70.612 c 2.648,2.648 3.972,6.179 3.972,10.592 h -10.151 c 0,-2.648 -0.677,-4.561 -2.03,-5.737 -1.354,-1.178 -3.031,-1.766 -5.031,-1.766 -2.001,0 -3.678,0.588 -5.031,1.766 -1.354,1.176 -2.03,3.089 -2.03,5.737 h -10.15 c 0,-4.413 1.324,-7.944 3.971,-10.592 2.648,-2.648 7.062,-3.972 13.24,-3.972 6.179,0 10.592,1.324 13.24,3.972 M 356.013,6.399 c -2.855,1.029 -5.326,2.604 -7.414,4.722 -2.09,2.119 -3.707,4.811 -4.855,8.077 -1.147,3.265 -1.721,7.163 -1.721,11.695 0,4.53 0.574,8.429 1.721,11.695 1.148,3.266 2.721,5.958 4.722,8.076 2,2.119 4.383,3.692 7.15,4.722 2.765,1.029 5.737,1.545 8.915,1.545 4,0 7.84,-0.692 11.518,-2.074 3.677,-1.384 7.194,-3.634 10.548,-6.753 l 4.413,5.296 c -3.354,3.119 -7.414,5.59 -12.181,7.415 -4.766,1.823 -9.827,2.736 -15.181,2.736 -5.296,0 -10.122,-0.706 -14.476,-2.118 -4.355,-1.413 -8.076,-3.502 -11.165,-6.267 -3.089,-2.767 -5.473,-6.179 -7.15,-10.239 -1.677,-4.06 -2.515,-8.738 -2.515,-14.034 0,-5.296 0.852,-9.974 2.559,-14.034 1.707,-4.061 4.134,-7.474 7.282,-10.239 3.148,-2.767 6.943,-4.855 11.387,-6.267 4.442,-1.412 9.429,-2.118 14.961,-2.118 5.353,0 10.415,0.913 15.181,2.736 4.766,1.823 8.827,4.295 12.181,7.414 l -4.414,5.296 c -3.354,-3.12 -6.87,-5.37 -10.547,-6.752 -3.678,-1.383 -7.518,-2.074 -11.519,-2.074 -3.413,0 -6.547,0.514 -9.4,1.544 M 457.65,61.786 h -60.462 v -6.62 H 421.02 V 0 h 12.798 V 55.166 H 457.65 Z M 467.358,0 h 32.658 c 9.473,0 16.402,1.545 20.786,4.634 4.383,3.089 6.576,7.282 6.576,12.578 0,4.001 -1.251,7.282 -3.751,9.841 -2.502,2.56 -5.958,4.281 -10.372,5.164 3.531,1.117 6.179,2.824 7.944,5.119 1.766,2.295 2.648,5.001 2.648,8.121 0,2.412 -0.529,4.618 -1.589,6.619 -1.059,2 -2.678,3.721 -4.854,5.164 -2.178,1.441 -4.929,2.56 -8.253,3.354 -3.325,0.794 -7.253,1.192 -11.783,1.192 h -30.01 z m 32.658,28.245 c 4.413,0 7.796,-0.898 10.15,-2.692 2.353,-1.796 3.531,-4.576 3.531,-8.341 0,-3.531 -1.178,-6.179 -3.531,-7.944 -2.354,-1.765 -5.737,-2.648 -10.15,-2.648 h -19.86 v 21.625 z m -19.86,6.62 v 20.301 h 17.212 c 4.236,0 7.428,-0.839 9.576,-2.516 2.148,-1.677 3.222,-4.075 3.222,-7.193 0,-7.062 -4.267,-10.592 -12.798,-10.592 z M 604.167,0 v 61.786 h -16.77 L 554.298,11.474 h -0.883 V 61.786 H 540.616 V 0 h 16.771 l 33.099,50.311 h 0.883 V 0 Z m 78.555,0 v 61.786 h -16.77 l -33.1,-50.312 H 631.97 V 61.786 H 619.171 V 0 h 16.771 l 33.099,50.311 h 0.883 V 0 Z"
             style="fill:#faaa2d;fill-opacity:1;fill-rule:nonzero;stroke:none"
             id="path160" /></g><g
           id="g162"
           transform="translate(105.1786,623.8519)"><path
             d="M 0,0 V -61.786 H 12.798 V -6.62 H 48.987 V -61.786 H 61.786 V 0 Z M 127.984,-6.62 V 0 H 76.79 V -61.786 H 89.589 V -6.62 Z M 199.478,0 H 185.355 L 165.054,-27.804 H 150.491 V 0 h -12.799 v -61.786 h 12.799 v 27.363 h 15.446 l 20.301,-27.363 h 14.564 l -23.39,31.335 z m 20.654,-51.414 c -1.236,1.324 -2.825,1.986 -4.767,1.986 -2.001,0 -3.605,-0.662 -4.81,-1.986 -1.207,-1.324 -1.81,-2.869 -1.81,-4.634 0,-1.766 0.603,-3.31 1.81,-4.634 1.205,-1.324 2.809,-1.986 4.81,-1.986 2,0 3.604,0.662 4.811,1.986 1.205,1.324 1.809,2.868 1.809,4.634 0,1.765 -0.618,3.31 -1.853,4.634 m 0,34.423 c -1.236,1.324 -2.825,1.986 -4.767,1.986 -2.001,0 -3.605,-0.662 -4.81,-1.986 -1.207,-1.324 -1.81,-2.869 -1.81,-4.634 0,-1.765 0.603,-3.31 1.81,-4.634 1.205,-1.324 2.809,-1.986 4.81,-1.986 2,0 3.604,0.662 4.811,1.986 1.205,1.324 1.809,2.869 1.809,4.634 0,1.765 -0.618,3.31 -1.853,4.634 m 74.539,-38.395 c -2.855,1.028 -5.327,2.603 -7.415,4.722 -2.089,2.118 -3.707,4.81 -4.854,8.076 -1.148,3.266 -1.721,7.163 -1.721,11.695 0,4.531 0.573,8.43 1.721,11.695 1.147,3.266 2.721,5.958 4.722,8.077 2,2.118 4.383,3.692 7.149,4.722 2.766,1.029 5.738,1.544 8.915,1.544 4.001,0 7.841,-0.692 11.519,-2.074 3.677,-1.383 7.193,-3.634 10.548,-6.752 l 4.413,5.296 c -3.354,3.118 -7.414,5.589 -12.181,7.414 -4.766,1.823 -9.828,2.736 -15.181,2.736 -5.296,0 -10.122,-0.706 -14.476,-2.118 -4.355,-1.412 -8.076,-3.502 -11.165,-6.267 -3.09,-2.766 -5.473,-6.178 -7.15,-10.239 -1.677,-4.06 -2.515,-8.738 -2.515,-14.034 0,-5.296 0.852,-9.974 2.559,-14.034 1.706,-4.06 4.134,-7.474 7.282,-10.239 3.147,-2.766 6.943,-4.854 11.386,-6.266 4.443,-1.413 9.43,-2.119 14.961,-2.119 5.354,0 10.416,0.913 15.182,2.736 4.766,1.824 8.826,4.295 12.18,7.415 l -4.413,5.296 c -3.354,-3.12 -6.871,-5.371 -10.547,-6.753 -3.679,-1.383 -7.518,-2.074 -11.519,-2.074 -3.413,0 -6.547,0.514 -9.4,1.545 M 396.307,0 h -60.461 v -6.62 h 23.831 v -55.166 h 12.799 V -6.62 h 23.831 z m 9.708,0 v -61.786 h 12.799 v 18.536 h 19.013 c 4.421,0 8.385,0.486 11.893,1.456 3.508,0.971 6.47,2.384 8.888,4.237 2.416,1.854 4.274,4.118 5.57,6.797 1.296,2.677 1.946,5.722 1.946,9.135 0,3.412 -0.648,6.457 -1.945,9.135 -1.296,2.677 -3.152,4.943 -5.569,6.797 -2.416,1.853 -5.378,3.266 -8.884,4.237 C 446.22,-0.485 442.256,0 437.838,0 Z m 31.776,-6.62 c 4.648,0 8.253,-1.222 10.812,-3.663 2.56,-2.442 3.84,-6.223 3.84,-11.342 0,-5.119 -1.28,-8.901 -3.84,-11.342 -2.559,-2.442 -6.164,-3.663 -10.812,-3.663 h -18.977 v 30.01 z m 70.17,-0.883 h 0.883 l 13.239,-32.658 H 494.721 Z M 498.252,0 473.096,-61.786 h 12.71 l 5.826,15.005 h 33.541 l 5.825,-15.005 h 12.71 L 518.553,0 Z m 110.331,0 h -60.462 v -6.62 h 23.832 v -55.166 h 12.798 V -6.62 h 23.832 z m 63.549,-6.62 V 0 H 618.29 v -61.786 h 53.842 v 6.62 h -41.043 v 21.625 h 32.217 v 6.62 H 631.089 V -6.62 Z m 62.668,0 V 0 h -51.194 v -61.786 h 12.798 V -6.62 Z m 73.259,-55.166 V 0 h -16.771 l -33.099,-50.311 h -0.883 V 0 h -12.798 v -61.786 h 16.77 l 33.1,50.312 h 0.882 v -50.312 z m 26.919,0 12.975,18.536 h 1.589 18.977 v -18.536 h 12.798 V 0 h -31.775 c -4.413,0 -8.371,-0.485 -11.872,-1.456 -3.501,-0.971 -6.458,-2.384 -8.87,-4.237 -2.414,-1.854 -4.267,-4.12 -5.561,-6.797 -1.295,-2.678 -1.942,-5.723 -1.942,-9.135 0,-4.708 1.177,-8.68 3.531,-11.916 2.353,-3.237 5.737,-5.708 10.15,-7.414 l -14.564,-20.831 z m 33.541,55.166 v -30.01 h -18.977 c -4.649,0 -8.239,1.221 -10.768,3.663 -2.531,2.441 -3.796,6.223 -3.796,11.342 0,5.119 1.265,8.9 3.796,11.342 2.529,2.441 6.119,3.663 10.768,3.663 z m 65.756,-22.508 h -40.602 v -7.944 h 40.602 z m 9.709,-25.596 v -7.062 h 54.724 v 6.62 h -37.071 l 22.507,17.212 c 1.766,1.353 3.472,2.736 5.12,4.148 1.647,1.413 3.103,2.971 4.369,4.678 1.265,1.706 2.28,3.604 3.045,5.694 0.764,2.088 1.148,4.457 1.148,7.105 0,2.648 -0.56,5.075 -1.677,7.282 -1.119,2.206 -2.811,4.118 -5.076,5.737 -2.266,1.618 -5.105,2.869 -8.517,3.751 -3.414,0.883 -7.445,1.324 -12.093,1.324 -5.767,0 -10.931,-0.824 -15.49,-2.471 -4.561,-1.648 -8.518,-3.914 -11.872,-6.797 l 3.972,-5.295 c 3.354,2.882 6.841,4.927 10.46,6.134 3.618,1.205 7.634,1.809 12.048,1.809 4.883,0 8.531,-1.118 10.945,-3.354 2.412,-2.237 3.618,-5.238 3.618,-9.003 0,-2.883 -0.838,-5.428 -2.515,-7.635 -1.677,-2.206 -3.634,-4.075 -5.87,-5.604 z M 1046.9,-5.87 c 2.176,-0.971 4.104,-2.515 5.781,-4.634 1.677,-2.118 3.03,-4.854 4.06,-8.208 1.029,-3.354 1.545,-7.414 1.545,-12.181 0,-4.766 -0.516,-8.826 -1.545,-12.18 -1.03,-3.354 -2.383,-6.091 -4.06,-8.209 -1.677,-2.118 -3.605,-3.663 -5.781,-4.634 -2.178,-0.971 -4.413,-1.456 -6.708,-1.456 -2.295,0 -4.532,0.485 -6.708,1.456 -2.178,0.971 -4.105,2.516 -5.782,4.634 -1.677,2.118 -3.031,4.855 -4.06,8.209 -1.03,3.354 -1.545,7.414 -1.545,12.18 0,4.767 0.515,8.827 1.545,12.181 1.029,3.354 2.383,6.09 4.06,8.208 1.677,2.119 3.604,3.663 5.782,4.634 2.176,0.971 4.413,1.457 6.708,1.457 2.295,0 4.53,-0.486 6.708,-1.457 m -19.507,5.649 c -3.883,-1.324 -7.237,-3.34 -10.062,-6.046 -2.825,-2.707 -5.017,-6.105 -6.576,-10.194 -1.56,-4.091 -2.339,-8.901 -2.339,-14.432 0,-5.531 0.779,-10.342 2.339,-14.431 1.559,-4.091 3.751,-7.489 6.576,-10.195 2.825,-2.707 6.179,-4.722 10.062,-6.046 3.884,-1.324 8.15,-1.986 12.799,-1.986 4.647,0 8.914,0.662 12.798,1.986 3.884,1.324 7.238,3.339 10.062,6.046 2.825,2.706 5.016,6.104 6.576,10.195 1.559,4.089 2.339,8.9 2.339,14.431 0,5.531 -0.78,10.341 -2.339,14.432 -1.56,4.089 -3.751,7.487 -6.576,10.194 -2.824,2.706 -6.178,4.722 -10.062,6.046 -3.884,1.324 -8.151,1.986 -12.798,1.986 -4.649,0 -8.915,-0.662 -12.799,-1.986 m 55.165,-54.503 v -7.062 h 54.725 v 6.62 h -37.072 l 22.508,17.212 c 1.765,1.353 3.471,2.736 5.119,4.148 1.647,1.413 3.103,2.971 4.369,4.678 1.265,1.706 2.28,3.604 3.046,5.694 0.764,2.088 1.147,4.457 1.147,7.105 0,2.648 -0.56,5.075 -1.677,7.282 -1.119,2.206 -2.811,4.118 -5.075,5.737 -2.266,1.618 -5.106,2.869 -8.518,3.751 -3.413,0.883 -7.444,1.324 -12.092,1.324 -5.768,0 -10.931,-0.824 -15.491,-2.471 -4.561,-1.648 -8.517,-3.914 -11.871,-6.797 l 3.972,-5.295 c 3.354,2.882 6.84,4.927 10.459,6.134 3.619,1.205 7.635,1.809 12.048,1.809 4.884,0 8.532,-1.118 10.945,-3.354 2.412,-2.237 3.619,-5.238 3.619,-9.003 0,-2.883 -0.839,-5.428 -2.516,-7.635 -1.677,-2.206 -3.634,-4.075 -5.869,-5.604 z m 100.357,46.913 c 2.529,-1.973 3.795,-4.517 3.795,-7.635 0,-7.65 -4.267,-11.475 -12.799,-11.475 h -16.328 v -6.62 h 18.094 c 4.647,0 8.09,-0.957 10.327,-2.868 2.235,-1.913 3.354,-4.634 3.354,-8.165 0,-3.53 -1.399,-6.474 -4.193,-8.826 -2.795,-2.355 -7.282,-3.531 -13.46,-3.531 -4.413,0 -8.504,0.691 -12.269,2.074 -3.766,1.382 -7.326,3.633 -10.68,6.753 l -4.413,-5.296 c 3.354,-3.12 7.458,-5.591 12.313,-7.415 4.854,-1.823 10.164,-2.736 15.932,-2.736 5.295,0 9.855,0.472 13.681,1.412 3.824,0.941 6.986,2.221 9.488,3.84 2.5,1.618 4.339,3.531 5.517,5.737 1.176,2.207 1.765,4.575 1.765,7.105 0,4.237 -1.251,7.664 -3.751,10.283 -2.502,2.618 -5.958,4.487 -10.371,5.605 4,1.353 6.913,3.251 8.738,5.693 1.823,2.441 2.736,5.546 2.736,9.312 0,2.295 -0.574,4.442 -1.721,6.444 -1.148,1.999 -2.869,3.736 -5.164,5.207 -2.295,1.47 -5.149,2.618 -8.561,3.443 -3.414,0.823 -7.386,1.235 -11.916,1.235 -5.768,0 -10.931,-0.824 -15.491,-2.471 -4.56,-1.648 -8.517,-3.914 -11.871,-6.797 l 3.972,-5.295 c 3.354,2.882 6.84,4.927 10.459,6.134 3.619,1.205 7.635,1.809 12.048,1.809 4.648,0 8.238,-0.986 10.769,-2.956"
             style="fill:#faaa2d;fill-opacity:1;fill-rule:nonzero;stroke:none"
             id="path164" /></g></g></g><text
       transform="matrix(1,0,0,-1,43.9,1023)"
       style="font-variant:normal;font-weight:300;font-stretch:normal;font-size:20px;font-family:'Rubik Light';-inkscape-font-specification:Rubik-Light;writing-mode:lr-tb;fill:#000000;fill-opacity:1;fill-rule:nonzero;stroke:none"
       id="text168"><tspan
         x="0"
         y="0"
         id="tspan166">2</tspan></text><g
       id="g170"><g
         id="g172"><g
           id="g174"
           clip-path="url(#clipPath178)"><text
             transform="matrix(1,0,0,-1,99,1023)"
             style="font-variant:normal;font-weight:300;font-stretch:normal;font-size:20px;font-family:'Rubik Light';-inkscape-font-specification:Rubik-Light;writing-mode:lr-tb;fill:#000000;fill-opacity:1;fill-rule:nonzero;stroke:none"
             id="text182"><tspan
               x="0 13.24 18.4 28.02 39.18 52.459999 63.98 74.699997 86.620003 98.540001"
               y="0"
               id="tspan180">О компании</tspan></text></g></g></g></g></svg>
