<?xml version="1.0" encoding="UTF-8" standalone="no"?>
<?xml-stylesheet type="text/css" href="main.css" ?>
<svg
   xmlns:dc="http://purl.org/dc/elements/1.1/"
   xmlns:cc="http://creativecommons.org/ns#"
   xmlns:rdf="http://www.w3.org/1999/02/22-rdf-syntax-ns#"
   xmlns:svg="http://www.w3.org/2000/svg"
   xmlns="http://www.w3.org/2000/svg"
   version="1.1"
   id="svg2"
   xml:space="preserve"
   width="2560"
   height="1440"
   viewBox="0 0 2560 1440"><metadata
     id="metadata8"><rdf:RDF><cc:Work
         rdf:about=""><dc:format>image/svg+xml</dc:format><dc:type
           rdf:resource="http://purl.org/dc/dcmitype/StillImage" /></cc:Work></rdf:RDF></metadata><defs
     id="defs6"><clipPath
       clipPathUnits="userSpaceOnUse"
       id="clipPath20"><path
         d="M 0,1080 H 1920 V 0 H 0 Z"
         id="path18" /></clipPath><clipPath
       clipPathUnits="userSpaceOnUse"
       id="clipPath452"><path
         d="M 0,1080 H 1920 V 0 H 0 Z"
         id="path450" /></clipPath></defs><g
     id="g10"
     transform="matrix(1.3333333,0,0,-1.3333333,0,1440)"><g
       id="g12"><g
         id="g14"><g
           id="g16"
           clip-path="url(#clipPath20)"><path
             d="M 0,0 H 1920 V 1080 H 0 Z"
             style="fill:#ffffff;fill-opacity:1;fill-rule:nonzero;stroke:none"
             id="path22" /></g></g></g><text
       transform="matrix(1,0,0,-1,99,843.8201)"
       style="font-variant:normal;font-weight:500;font-stretch:normal;font-size:28px;font-family:'Rubik Medium';-inkscape-font-specification:Rubik-Medium;writing-mode:lr-tb;fill:#000000;fill-opacity:1;fill-rule:nonzero;stroke:none"
       id="text26"><tspan
         x="0 16.24 28.476 44.827999 61.740002"
         y="0"
         id="tspan24">Уголь</tspan></text><text
       transform="matrix(1,0,0,-1,99,807.8201)"
       style="font-variant:normal;font-weight:300;font-stretch:normal;font-size:20px;font-family:'Rubik Light';-inkscape-font-specification:Rubik-Light;writing-mode:lr-tb;fill:#000000;fill-opacity:1;fill-rule:nonzero;stroke:none"
       id="text30"><tspan
         x="0 13.04 22.780001 34.200001 45.919998 57.740002 68.260002 78 88.639999 99.660004 108.98 120.7 131.22 141.39999 146.36 157.67999 169.39999 181.12 191.64 204.72 216.44 226.36 236.88 241.84 253.16 264.12 272.28 283.32001 293.70001 303.34 313.26001 324.98001 329.94 340.32001 347.95999 358.98001 369.16 374.12 380.29999 391.42001 402.66 403.28 417.89999 424.07999 429.04001 438.95999 443.92001 454.29999 465.72 476.67999"
         y="0"
         id="tspan28">Отрицательная динамика погрузки угля (–5 %) к уров</tspan></text><text
       transform="matrix(1,0,0,-1,586.32,807.8201)"
       style="font-variant:normal;font-weight:300;font-stretch:normal;font-size:20px;font-family:'Rubik Light';-inkscape-font-specification:Rubik-Light;writing-mode:lr-tb;fill:#000000;fill-opacity:1;fill-rule:nonzero;stroke:none"
       id="text34"><tspan
         x="0"
         y="0"
         id="tspan32">-</tspan></text><text
       transform="matrix(1,0,0,-1,99,781.8201)"
       style="font-variant:normal;font-weight:300;font-stretch:normal;font-size:20px;font-family:'Rubik Light';-inkscape-font-specification:Rubik-Light;writing-mode:lr-tb;fill:#000000;fill-opacity:1;fill-rule:nonzero;stroke:none"
       id="text42"><tspan
         x="0 11.72 26.780001 31.74 42.740002 54.860001 62.619999 73.860001 78.82 86.739998 97.699997 109.02 119.54 124.08 129.03999 138.78 150.2 160.72 172.03999 183.75999 195.58 207.3 218.25999 229.98 241.7 252.66 257.62 267.26001 277.78 289.5 301.22 314.29999 324.82001 339.88 355.57999 366.29999 374.22 385.17999 390.14001 399.78 411.5 422.01999 432.35999 444.07999 453.82001 464.45999 475.48001 484.79999 496.51999 506.89999 522.15997"
         y="0"
         id="tspan36">ню 2019 года, традиционно занимающего значительную </tspan><tspan
         x="0 11.32 22.08 33.099998 48.16 53.119999 63.759998 68.720001 83.5 94.139999 105.16 115.88 125.52 137.24001 148.2 159.52 170.48 181.89999 192.86 207.64 219.36 232.34 242.5 247.46001 258.78 269.5 280.92001 291.64001 302.28 313.23999 322.88 332.79999 343.32001 353.48001 358.01999 362.98001 373.94 385.26001 396.67999 407.39999 418.72 429.35999 440.38 450.56 461.57999 472.10001 482.62 492.14001"
         y="26"
         id="tspan38">долю в железнодорожных перевозках, определялась </tspan><tspan
         x="0 10.64 15.544 26.504 37.023998 48.743999 59.703999 70.344002 82.064003 93.024002 106.104 111.008 121.528 132.48801 142.408 153.828 164.34801 180.048 190.76801 202.48801 214.20799 224.92799 238.008 242.912 253.552 265.272 275.65201 285.392 296.81201 308.53201 319.952 330.91199 341.43201 351.952 363.672 375.392 385.91199 395.332 406.29199 414.21201 425.172 430.078 441.03799 452.17801 462.758 473.478 486.55801 497.078 501.98401 513.30402"
         y="52"
         id="tspan40">в основном сокращением внутрироссийского объема по</tspan></text><text
       transform="matrix(1,0,0,-1,623.264,729.8201)"
       style="font-variant:normal;font-weight:300;font-stretch:normal;font-size:20px;font-family:'Rubik Light';-inkscape-font-specification:Rubik-Light;writing-mode:lr-tb;fill:#000000;fill-opacity:1;fill-rule:nonzero;stroke:none"
       id="text46"><tspan
         x="0"
         y="0"
         id="tspan44">-</tspan></text><text
       transform="matrix(1,0,0,-1,99,703.8201)"
       style="font-variant:normal;font-weight:300;font-stretch:normal;font-size:20px;font-family:'Rubik Light';-inkscape-font-specification:Rubik-Light;writing-mode:lr-tb;fill:#000000;fill-opacity:1;fill-rule:nonzero;stroke:none"
       id="text50"><tspan
         x="0 8.1599998 19.200001 29.58 39.220001 49.139999 60.860001 65.82 72 83.339996 94.779999 99.32 110.32 110.96 125.58 130.12 135.08 145.60001 153.36 165.10001 168.28 176.03999 181 194.08 205.10001 216.82001 221.78 231.52 237.7 242.25999 247.22 260.07999 265.04001 275.56 284.98001 295.5 306.82001 317.78 329.20001 338.94 350.66 361.62 374.70001 379.66 390.17999 401.14001 412.10001 423.23999 438.94 449.66 461.38 473.10001 484.82001 489.78 501.10001 512.52002"
         y="0"
         id="tspan48">грузки (–6,2 %, –10,1 млн т). В экспортном сообщении про</tspan></text><text
       transform="matrix(1,0,0,-1,622.48,703.8201)"
       style="font-variant:normal;font-weight:300;font-stretch:normal;font-size:20px;font-family:'Rubik Light';-inkscape-font-specification:Rubik-Light;writing-mode:lr-tb;fill:#000000;fill-opacity:1;fill-rule:nonzero;stroke:none"
       id="text54"><tspan
         x="0"
         y="0"
         id="tspan52">-</tspan></text><text
       transform="matrix(1,0,0,-1,99,677.8201)"
       style="font-variant:normal;font-weight:300;font-stretch:normal;font-size:20px;font-family:'Rubik Light';-inkscape-font-specification:Rubik-Light;writing-mode:lr-tb;fill:#000000;fill-opacity:1;fill-rule:nonzero;stroke:none"
       id="text60"><tspan
         x="0 11.72 21.360001 32.32 47.5 58.52 69.480003 74.440002 84.959999 95.919998 105.84 117.26 127.78 143.48 154.2 165.92 177.64 188.36 193.32001 204.28 215.42 226 236.72 249.8 260.32001 265.28 276.60001 287.56 295.72 306.76001 317.14001 326.78 336.70001 348.42001 353.38 359.56 370.89999 382.22 386.76001 397.76001 398.38 413 417.54001 422.5 433.84 445.76001 449.70001 459.23999 464.20001 477.28 488.29999 500.01999 504.98001 514.71997 521.09802"
         y="0"
         id="tspan56">изошло сокращение объема погрузки (–4,2 %, –8,7 млн т) </tspan><tspan
         x="0 11.72 21.360001 30.9 40.540001 51.060001 56.02 66.540001 76.919998 92.620003 103.34 113.86 123.6 134.24001 144.96001 156.67999 168.39999 179.36 187.28 198.24001 203.2 213.72 224.67999 234.60001 246.02 256.54001 272.23999 282.95999 294.67999 306.39999 316.57999 321.54001 332.85999 343.82001 351.98001 363.01999 373.39999 383.04001 392.95999 404.67999 409.64001 420.28 425.23999 436.95999 447.48001 458.79999 470.22 480.73999 491.38 502.39999"
         y="26"
         id="tspan58">из-за существенного сокращения погрузки в направле</tspan></text><text
       transform="matrix(1,0,0,-1,612.12,651.8201)"
       style="font-variant:normal;font-weight:300;font-stretch:normal;font-size:20px;font-family:'Rubik Light';-inkscape-font-specification:Rubik-Light;writing-mode:lr-tb;fill:#000000;fill-opacity:1;fill-rule:nonzero;stroke:none"
       id="text64"><tspan
         x="0"
         y="0"
         id="tspan62">-</tspan></text><text
       transform="matrix(1,0,0,-1,99,625.8201)"
       style="font-variant:normal;font-weight:300;font-stretch:normal;font-size:20px;font-family:'Rubik Light';-inkscape-font-specification:Rubik-Light;writing-mode:lr-tb;fill:#000000;fill-opacity:1;fill-rule:nonzero;stroke:none"
       id="text68"><tspan
         x="0 11.72 23.440001 35.16 40.119999 50.84 61.48 72.900002 83.860001 95.18 105.9 117.62 128.14 138.06 149.78 159.94 164.89999 175.42 185.16 196.58 207.10001 218.82001 223.78 229.96001 240.98 250.82001 255.36 266.60001 267.23999 281.85999 286.39999 291.35999 301.45999 309.62 312.79999 320.56 325.51999 338.60001 349.62 361.34 366.29999 376.04001 382.22 387.17999 397.82001 402.78 413.29999 425.01999 436.04001 446.42001 451.38 462.70001 474.12 485.84 497.56"
         y="0"
         id="tspan66">нии европейских стран (–9,5 %, –7,1 млн т) в силу приня</tspan></text><text
       transform="matrix(1,0,0,-1,606.74,625.8201)"
       style="font-variant:normal;font-weight:300;font-stretch:normal;font-size:20px;font-family:'Rubik Light';-inkscape-font-specification:Rubik-Light;writing-mode:lr-tb;fill:#000000;fill-opacity:1;fill-rule:nonzero;stroke:none"
       id="text72"><tspan
         x="0"
         y="0"
         id="tspan70">-</tspan></text><text
       transform="matrix(1,0,0,-1,99,599.8201)"
       style="font-variant:normal;font-weight:300;font-stretch:normal;font-size:20px;font-family:'Rubik Light';-inkscape-font-specification:Rubik-Light;writing-mode:lr-tb;fill:#000000;fill-opacity:1;fill-rule:nonzero;stroke:none"
       id="text78"><tspan
         x="0 9.7399998 21.459999 31.639999 36.599998 47.240002 57.959999 69.279999 79.660004 95.360001 107.08 120.16 131.88 136.84 147.36 156.78 167.74001 179.46001 190.42 203.5 215.22 225.14 235.66 248.74001 260.45999 265.42001 277.20001 287.72 299.04001 309.56 320.88 332.60001 343.56 355.28 360.23999 371.88 382.51999 393.94 404.89999 416.22 429.20001 434.16 445.57999 456.29999 471.48001 482.20001 493.92001 505.64001 517.55798"
         y="0"
         id="tspan74">тия ведущими экономиками Западной Европы решений </tspan><tspan
         x="0 10.96 15.92 27.24 38.66 49.380001 59.299999 70.720001 81.239998 96.940002 107.66 119.38 131.10001 142.82001 147.78 159.5 170.02 181.34 192.10001 203.12 212.44 222.08 233.03999 243.67999 254.2 265.92001 277.64001 287.82001 292.78 303.16 310.79999 321.82001 332 336.95999 347.60001 352.56 363.07999 374.79999 385.51999 396.94 404.85999 415.57999 425.32001 437.04001 446.45999 457.17999 462.14001 473.85999 483.5 488.45999 498.98001 508.39801"
         y="26"
         id="tspan76">о прекращении использования угля в энергетике из эко</tspan></text><text
       transform="matrix(1,0,0,-1,618.358,573.8201)"
       style="font-variant:normal;font-weight:300;font-stretch:normal;font-size:20px;font-family:'Rubik Light';-inkscape-font-specification:Rubik-Light;writing-mode:lr-tb;fill:#000000;fill-opacity:1;fill-rule:nonzero;stroke:none"
       id="text82"><tspan
         x="0"
         y="0"
         id="tspan80">-</tspan></text><text
       transform="matrix(1,0,0,-1,99,547.8201)"
       style="font-variant:normal;font-weight:300;font-stretch:normal;font-size:20px;font-family:'Rubik Light';-inkscape-font-specification:Rubik-Light;writing-mode:lr-tb;fill:#000000;fill-opacity:1;fill-rule:nonzero;stroke:none"
       id="text88"><tspan
         x="0 11.02 21.98 30.139999 41.860001 52.200001 62.919998 73.440002 83.360001 95.080002 105.24 110.2 120.72 131.67999 142.64 153.78 165.2 175.72 190.5 201.22 212.94 224.66 236.38 241.36 246.32001 256.95999 261.92001 273.64001 284.16 295.48001 306.89999 317.42001 328.06 339.07999 349.79999 361.51999 373.23999 384.95999 389.92001 400.44 410.17999 421.60001 432.12 443.84 448.79999 461.60001 472.54001 485.10001"
         y="0"
         id="tspan84">логических соображений; в направлении стран АТР </tspan><tspan
         x="0 6.1799998 16.700001 24.459999 29 40 40.639999 55.259998 59.799999 64.760002 75.480003 83.239998 87.5 98.940002 103.9 116.98 128 139.72 144.67999 154.42 160.60001 165.56 176.88 187.84 196 207.03999 217.42 227.06 236.98 247.5 252.46001 263.42001 273.94 284.95999 295.92001 310.70001 322.42001 334.14001 345.16 355.67999 366.20001 375.51999 380.48001 392.20001 403.92001 417.29999 428.72 439.23999 449.76001 459.5 470.54001 480.92001 490.84 500.57999 510.95999"
         y="26"
         id="tspan86">(–1,2 %, –1,6 млн т) погрузка осложнилась инфраструктур</tspan></text><text
       transform="matrix(1,0,0,-1,621.38,521.8201)"
       style="font-variant:normal;font-weight:300;font-stretch:normal;font-size:20px;font-family:'Rubik Light';-inkscape-font-specification:Rubik-Light;writing-mode:lr-tb;fill:#000000;fill-opacity:1;fill-rule:nonzero;stroke:none"
       id="text92"><tspan
         x="0"
         y="0"
         id="tspan90">-</tspan></text><text
       transform="matrix(1,0,0,-1,99,495.8201)"
       style="font-variant:normal;font-weight:300;font-stretch:normal;font-size:20px;font-family:'Rubik Light';-inkscape-font-specification:Rubik-Light;writing-mode:lr-tb;fill:#000000;fill-opacity:1;fill-rule:nonzero;stroke:none"
       id="text96"><tspan
         x="0 11.72 24.700001 37.779999 49.5 54.459999 65.419998 73.580002 85 95.519997 107.24 118.96 129.3 140.02 151.74001 163.46001 173.64 186.72 198.44 203.39999 216.25999 227.22 237.74001 247.48 258.44 268.78 280.5 291.45999 299.38 310.34 315.29999 326.62 337.38 348.39999 360.12 368.04001 379 390.72 401.23999"
         y="0"
         id="tspan94">ными ограничениями Восточного полигона.</tspan></text><text
       transform="matrix(1,0,0,-1,99,422.8201)"
       style="font-variant:normal;font-weight:500;font-stretch:normal;font-size:28px;font-family:'Rubik Medium';-inkscape-font-specification:Rubik-Medium;writing-mode:lr-tb;fill:#000000;fill-opacity:1;fill-rule:nonzero;stroke:none"
       id="text100"><tspan
         x="0 20.440001 36.624001 58.015999 72.884003 87.751999 94.136002 111.608 117.992 135.464 151.64799 173.03999 187.908 204.092 221.228 238.42 255.024 272.63599 288.65201 304.69601 319.564"
         y="0"
         id="tspan98">Нефть и нефтепродукты</tspan></text><text
       transform="matrix(1,0,0,-1,99,386.8201)"
       style="font-variant:normal;font-weight:300;font-stretch:normal;font-size:20px;font-family:'Rubik Light';-inkscape-font-specification:Rubik-Light;writing-mode:lr-tb;fill:#000000;fill-opacity:1;fill-rule:nonzero;stroke:none"
       id="text104"><tspan
         x="0 14 25.620001 36.779999 48.700001 58.540001 69.699997 85.080002 96.300003 107.46 112.62 123.34 135.25999 147.17999 162.16 173.08 185 196.92 207.84 213 224.52 235.67999 244.03999 255.278 265.858 275.698 285.81799 297.73801 302.89801 314.81799 325.73801 339.31799 349.258 359.638 371.55801 384.73801 395.09799 400.258 408.61801 419.85599"
         y="0"
         id="tspan102">Произошло снижение погрузки нефтяных гру</tspan></text><text
       transform="matrix(1,0,0,-1,528.96,386.8201)"
       style="font-variant:normal;font-weight:300;font-stretch:normal;font-size:20px;font-family:'Rubik Light';-inkscape-font-specification:Rubik-Light;writing-mode:lr-tb;fill:#000000;fill-opacity:1;fill-rule:nonzero;stroke:none"
       id="text108"><tspan
         x="0"
         y="0"
         id="tspan106">-</tspan></text><text
       transform="matrix(1,0,0,-1,99,360.8201)"
       style="font-variant:normal;font-weight:300;font-stretch:normal;font-size:20px;font-family:'Rubik Light';-inkscape-font-specification:Rubik-Light;writing-mode:lr-tb;fill:#000000;fill-opacity:1;fill-rule:nonzero;stroke:none"
       id="text114"><tspan
         x="0 9.8400002 21 31.84 37 47.84 53 64.919998 75.839996 89.419998 99.360001 110.28 121.62 132.53999 144.46001 154.3 166.22 178.14 189.3 200.14 213.32001 223.67999 228.84 240.86 252.78 263.5 273.44 284.35999 295.98001 307.89999 318.62 328.98001 334.14001 344.98001 350.14001 361.34 373.66 384.85999 397.17999 402.34 410.45401 421.61401 433.134 443.71399"
         y="0"
         id="tspan110">зов в нефтебензиновых цистернах в 2020 году </tspan><tspan
         x="0 6.3800001 17.1 25.059999 37.380001 38.220001 53.040001 57.779999 62.939999 73.580002 84.779999 96.300003 101.04 112.24 117.4 130.67999 141.89999 153.82001 158.98 168.92 180.08 192 203.118 209.498 214.658 224.778 229.938 240.51801 252.138 263.298 274.138 286.05801 301.31799 306.478 317.67801 329.99799 337.95801 349.39801 354.55801 362.67599 373.836 385.35599 396.07599 400.836 405.996 418.396 428.336 439.496 444.65601 456.17599 467.79599 478.95599"
         y="26"
         id="tspan112">(–10 %, –23,2 млн тонн) к уровню 2019 года. Это прои</tspan></text><text
       transform="matrix(1,0,0,-1,589.876,334.8201)"
       style="font-variant:normal;font-weight:300;font-stretch:normal;font-size:20px;font-family:'Rubik Light';-inkscape-font-specification:Rubik-Light;writing-mode:lr-tb;fill:#000000;fill-opacity:1;fill-rule:nonzero;stroke:none"
       id="text118"><tspan
         x="0"
         y="0"
         id="tspan116">-</tspan></text><text
       transform="matrix(1,0,0,-1,99,308.8201)"
       style="font-variant:normal;font-weight:300;font-stretch:normal;font-size:20px;font-family:'Rubik Light';-inkscape-font-specification:Rubik-Light;writing-mode:lr-tb;fill:#000000;fill-opacity:1;fill-rule:nonzero;stroke:none"
       id="text124"><tspan
         x="0 9.8400002 21 36.380001 47.599998 58.759998 63.919998 75.839996 86.559998 91.720001 105.3 116.46 128.38 139.3 144.46001 154.3 165.02 175.14 186.36 201.62 212.16 223.08 235 246.92 257.29999 262.45999 273.17999 284.70001 295.53601 306.75601 316.87601 328.79599 333.95599 347.19601 361.19601 373.03601 385.31601 397.87601 402.616 407.776 418.616 423.776 435.396 446.116 459.396 469.51599 480.23599 490.59601"
         y="0"
         id="tspan120">зошло на фоне заключения сделки ОПЕК+, в рамках </tspan><tspan
         x="0 9.6199999 20.780001 30.719999 41.880001 53.5 64.660004 76.580002 81.739998 92.459999 102.4 114.02 124.74 136.66 149.84 159.06 169.64 180.17999 190.89999 201.62 211.56 223.48 235.39999 247.42 260.60001 265.76001 276.92001 288.26001 298.64001 308.48001 319.20001 330.42001 342.34 353.06 362.57999 367.73999 378.45999 390.38 402.29999 412.14001 424.06 434 443.51999 448.67999 460.20001 471.35999 482.70001"
         y="26"
         id="tspan122">которой страны-участницы обязались снизить добы</tspan></text><text
       transform="matrix(1,0,0,-1,594.88,282.8201)"
       style="font-variant:normal;font-weight:300;font-stretch:normal;font-size:20px;font-family:'Rubik Light';-inkscape-font-specification:Rubik-Light;writing-mode:lr-tb;fill:#000000;fill-opacity:1;fill-rule:nonzero;stroke:none"
       id="text128"><tspan
         x="0"
         y="0"
         id="tspan126">-</tspan></text><text
       transform="matrix(1,0,0,-1,99,256.8201)"
       style="font-variant:normal;font-weight:300;font-stretch:normal;font-size:20px;font-family:'Rubik Light';-inkscape-font-specification:Rubik-Light;writing-mode:lr-tb;fill:#000000;fill-opacity:1;fill-rule:nonzero;stroke:none"
       id="text134"><tspan
         x="0 10.54 21.120001 26.280001 38.200001 48.919998 54.080002 65.699997 76.620003 86.239998 97.400002 109.02 120.54 132.46001 145.64 156.56 161.72 169.67999 181.12 186.28 199.56 210.78 222.7 227.86 239.2 249.92 261.54001 273.16 283.996 295.216 306.13599 318.056 323.216 334.056 339.216 349.936 360.51599 370.45599 380.57599 392.496 397.25601 402.41599 414.69601 426.31601 437.47601 450.75601 461.67599 466.836 476.776 487.936 496.05399 506.974 511.71399"
         y="0"
         id="tspan130">чу на рекордные 19 млн баррелей в сутки. Кроме того, </tspan><tspan
         x="0 11.92 22.639999 27.799999 41.380001 52.540001 64.459999 75.379997 80.540001 92.059998 102.78 114.7 126.22 137.14 150.42 162.34 174.25999 179.42 190.14 200.72 216.62 227.53999 238.25999 248.2 259.04001 269.95999 281.88 293.79999 304.95999 310.12 320.84 332 342.12 353.73999 364.45999 374.39999 386.32001 397.54001 408.70001 419.42001 428.94 434.10001 445.62 456.78 466.72 478.34 489.26001 500.60001 511.82001"
         y="26"
         id="tspan132">на фоне пандемии существенно сократилось потребле</tspan></text><text
       transform="matrix(1,0,0,-1,621.74,230.8201)"
       style="font-variant:normal;font-weight:300;font-stretch:normal;font-size:20px;font-family:'Rubik Light';-inkscape-font-specification:Rubik-Light;writing-mode:lr-tb;fill:#000000;fill-opacity:1;fill-rule:nonzero;stroke:none"
       id="text138"><tspan
         x="0"
         y="0"
         id="tspan136">-</tspan></text><text
       transform="matrix(1,0,0,-1,99,204.8201)"
       style="font-variant:normal;font-weight:300;font-stretch:normal;font-size:20px;font-family:'Rubik Light';-inkscape-font-specification:Rubik-Light;writing-mode:lr-tb;fill:#000000;fill-opacity:1;fill-rule:nonzero;stroke:none"
       id="text142"><tspan
         x="0 11.92 23.84 34.759998 39.919998 50.639999 61.48 71.419998 82.580002 95.860001 107.02 118.36 130.28 141.5 151.02 162.94 174.10001 182.218 193.37801 198.53799 210.45799 215.618 226.338 237.17799 249.09801 259.81799 269.758 280.918 292.43799 303.65799 315.578 326.418 337.138 341.87799 347.03799 357.758 369.67801 381.59799 391.43799 403.358 414.578 425.73801 436.45801 445.978 451.138 461.258 471.978 482.09799 487.258 498.09799 510.01801"
         y="0"
         id="tspan140">ние автомобильного и авиатоплива, снизилось как вну</tspan></text><text
       transform="matrix(1,0,0,-1,619.12,204.8201)"
       style="font-variant:normal;font-weight:300;font-stretch:normal;font-size:20px;font-family:'Rubik Light';-inkscape-font-specification:Rubik-Light;writing-mode:lr-tb;fill:#000000;fill-opacity:1;fill-rule:nonzero;stroke:none"
       id="text146"><tspan
         x="0"
         y="0"
         id="tspan144">-</tspan></text><text
       transform="matrix(1,0,0,-1,99,178.8201)"
       style="font-variant:normal;font-weight:300;font-stretch:normal;font-size:20px;font-family:'Rubik Light';-inkscape-font-specification:Rubik-Light;writing-mode:lr-tb;fill:#000000;fill-opacity:1;fill-rule:nonzero;stroke:none"
       id="text152"><tspan
         x="0 9.9399996 21.559999 32.48 44.400002 56.32 67.239998 78.160004 82.900002 88.059998 98 108.72 118.84 124 135.92 141.08 154.36 166.28 177.89999 189.06 199.89999 211.06 221.98 227.14 238.66 249.82001 259.76001 271.38 282.29999 293.64001 304.85999 315.78 327.70001 339.62 350.54001 355.70001 367.62 378.54001 392.12 402.06 412.44 424.35999 437.54001 447.89999 453.06 461.42001 472.65399 483.23401 493.07401 504.23401 515.07397 519.83398"
         y="0"
         id="tspan148">треннее, так и мировое потребление нефтяных грузов. </tspan><tspan
         x="0 14 24.719999 29.879999 43.459999 54.619999 66.540001 77.459999 82.620003 93.199997 104.04 114.878 126.098 138.01801 148.558 159.478 171.39799 183.31799 193.698 198.858 206.698 217.918 228.498 239.838 251.758 263.67801 276.858 282.01801 293.53799 304.45801 316.078 326.99799 338.61801 349.33801 360.67801 371.83801 381.77802 391.89801 403.81799 408.978 420.89801 431.81799 445.39801 455.33801 467.258 472.418 483.93799 495.55801"
         y="26"
         id="tspan150">На фоне увеличения глубины переработки нефти про</tspan></text><text
       transform="matrix(1,0,0,-1,605.718,152.8201)"
       style="font-variant:normal;font-weight:300;font-stretch:normal;font-size:20px;font-family:'Rubik Light';-inkscape-font-specification:Rubik-Light;writing-mode:lr-tb;fill:#000000;fill-opacity:1;fill-rule:nonzero;stroke:none"
       id="text156"><tspan
         x="0"
         y="0"
         id="tspan154">-</tspan></text><text
       transform="matrix(1,0,0,-1,99,126.8201)"
       style="font-variant:normal;font-weight:300;font-stretch:normal;font-size:20px;font-family:'Rubik Light';-inkscape-font-specification:Rubik-Light;writing-mode:lr-tb;fill:#000000;fill-opacity:1;fill-rule:nonzero;stroke:none"
       id="text160"><tspan
         x="0 11.92 21.76 32.919998 48.299999 59.52 70.68 75.839996 86.559998 97.720001 107.84 119.46 130.17999 146.08 157 168.92 180.84 191.75999 196.92 208.44 220.06 231.22 243.14 252.98 263.82001 274.98001 286.5 297.22 307.16 318 328.72 333.88 347.16 357.88 367.72 378.29999 388.23999 398.95999 404.12 416.04001 420.78 425.94 436.06 446.78 456.89999 462.06 472.78 484 494.92001"
         y="0"
         id="tspan158">изошло сокращение производства мазута и, как след</tspan></text><text
       transform="matrix(1,0,0,-1,605.44,126.8201)"
       style="font-variant:normal;font-weight:300;font-stretch:normal;font-size:20px;font-family:'Rubik Light';-inkscape-font-specification:Rubik-Light;writing-mode:lr-tb;fill:#000000;fill-opacity:1;fill-rule:nonzero;stroke:none"
       id="text164"><tspan
         x="0"
         y="0"
         id="tspan162">-</tspan></text><text
       transform="matrix(1,0,0,-1,99,100.8201)"
       style="font-variant:normal;font-weight:300;font-stretch:normal;font-size:20px;font-family:'Rubik Light';-inkscape-font-specification:Rubik-Light;writing-mode:lr-tb;fill:#000000;fill-opacity:1;fill-rule:nonzero;stroke:none"
       id="text168"><tspan
         x="0 10.72 20.66 31.5 43.419998 54.34 59.080002 64.239998 75.760002 86.480003 98 108.92 120.84 132.75999 143.67999 148.84 160.36 171.52 179.88 191.118 201.698 211.53799 221.658 233.578 238.338 243.498 257.49799 268.65799 273.81799 285.73801 295.67801 306.83801 315.198 325.918 339.198 344.358 355.55801 367.87799 379.078 391.39801 396.55801 404.67599 415.836 427.35599 438.07599 443.23599 454.75601 466.37601"
         y="0"
         id="tspan166">ствие, падение погрузки. По итогам 2020 года про</tspan></text><text
       transform="matrix(1,0,0,-1,576.536,100.8201)"
       style="font-variant:normal;font-weight:300;font-stretch:normal;font-size:20px;font-family:'Rubik Light';-inkscape-font-specification:Rubik-Light;writing-mode:lr-tb;fill:#000000;fill-opacity:1;fill-rule:nonzero;stroke:none"
       id="text172"><tspan
         x="0"
         y="0"
         id="tspan170">-</tspan></text><text
       transform="matrix(1,0,0,-1,693,961.3001)"
       style="font-variant:normal;font-weight:300;font-stretch:normal;font-size:20px;font-family:'Rubik Light';-inkscape-font-specification:Rubik-Light;writing-mode:lr-tb;fill:#000000;fill-opacity:1;fill-rule:nonzero;stroke:none"
       id="text178"><tspan
         x="0 11.92 21.76 32.599998 43.759998 55.279999 66 75.940002 86.779999 97.940002 103.1 116.38 127.1 136.94 147.52 157.46001 168.17999 173.34 184.06 195.22 205.34 216.96001 227.67999 237.62 249.53999 260.76001 271.92001 282.64001 292.16 297.32001 303.70001 314.41599 322.37601 334.69601 335.51999 350.34 355.07999 360.23999 371.78 383.29999 387.76001 399.39999 404.56 417.84 429.06 440.98001 446.14001 456.07999 462.45999 467.20001"
         y="0"
         id="tspan174">изводство мазута сократилось (–10 %, –4,6 млн т), </tspan><tspan
         x="0 10.54 20.48 31.639999 36.799999 48.32 59.48 70.32 81.540001 93.459999 103.84 115.06 126.22 131.38 143.3 154.02 159.17999 169.89999 181.82001 193.74001 208.72 219.64 231.56 243.48 254.39999 259.56 270.72 282.06 292.84 303.76001 317.04001 327.76001 332.92001 344.44 355.60001 363.95999 375.19601 385.776 395.616 405.73599 417.65601 422.81601 433.65601 438.81601 450.73599 461.65601 475.23599 485.17599"
         y="26"
         id="tspan176">что повлияло на снижение объема погрузки в нефте</tspan></text><text
       transform="matrix(1,0,0,-1,1189.096,935.3001)"
       style="font-variant:normal;font-weight:300;font-stretch:normal;font-size:20px;font-family:'Rubik Light';-inkscape-font-specification:Rubik-Light;writing-mode:lr-tb;fill:#000000;fill-opacity:1;fill-rule:nonzero;stroke:none"
       id="text182"><tspan
         x="0"
         y="0"
         id="tspan180">-</tspan></text><text
       transform="matrix(1,0,0,-1,693,909.3001)"
       style="font-variant:normal;font-weight:300;font-stretch:normal;font-size:20px;font-family:'Rubik Light';-inkscape-font-specification:Rubik-Light;writing-mode:lr-tb;fill:#000000;fill-opacity:1;fill-rule:nonzero;stroke:none"
       id="text188"><tspan
         x="0 11.34 22.26 34.18 44.02 55.939999 67.860001 79.019997 89.860001 103.04 113.4 118.56 130.58 142.5 153.22 163.16 174.08 185.7 197.62 208.34 218.7 223.86 230.24001 240.95599 248.916 260.116 264.85599 276.29599 277.14001 291.95999 296.70001 301.85999 312.16 321.89999 327.06 340.34 351.56 363.48001 368.64001 378.57999 384.95999 389.72 394.88 408.88 420.04001 433.32001 445.23999 458.51999 469.67999 474.84 485.56 495.5 506.66 514.77802 525.698 530.43799"
         y="0"
         id="tspan184">бензиновых цистернах (–12,5 %, –7 млн т). Помимо этого, </tspan><tspan
         x="0 10.84 22 31.940001 37.099998 47.68 62.66 73.580002 78.739998 92.019997 103.94 115.1 123.218 134.37801 139.53799 150.758 161.67799 171.618 176.778 191.758 202.59801 213.81799 224.73801 234.578 246.498 257.65799 269.17801 280.33801 291.95801 303.11801 318.09799 330.01801 340.73801 351.11801 356.27802 367.43799 377.37799 388.99799 399.71799 410.43799 421.65799 431.17801 436.33801 448.258 458.978 469.33801 480.49799 492.01801 503.93799"
         y="26"
         id="tspan186">вот уже много лет железнодорожная отрасль находит</tspan></text><text
       transform="matrix(1,0,0,-1,1206.878,883.3001)"
       style="font-variant:normal;font-weight:300;font-stretch:normal;font-size:20px;font-family:'Rubik Light';-inkscape-font-specification:Rubik-Light;writing-mode:lr-tb;fill:#000000;fill-opacity:1;fill-rule:nonzero;stroke:none"
       id="text192"><tspan
         x="0"
         y="0"
         id="tspan190">-</tspan></text><text
       transform="matrix(1,0,0,-1,693,857.3001)"
       style="font-variant:normal;font-weight:300;font-stretch:normal;font-size:20px;font-family:'Rubik Light';-inkscape-font-specification:Rubik-Light;writing-mode:lr-tb;fill:#000000;fill-opacity:1;fill-rule:nonzero;stroke:none"
       id="text196"><tspan
         x="0 10.72 21.1 26.26 37.099998 42.259998 52.5 63.220001 74.440002 85.599998 96.440002 108.36 118.74 129.10001 134.25999 144.98 155.89999 167.52 177.03999 187.96001 197.8 209.72 220.88 232.8 237.96001 247.578 258.73801 270.65799 280.77802 291.358 302.978 313.89801 325.81799 337.83801 349.758 361.67801 366.83801 376.67801 387.39801 392.55801 402.49799 414.11801 424.83801 436.758 447.478 458.99799 470.15799 481.77802 491.71799"
         y="0"
         id="tspan194">ся в условиях серьезной конкуренции за транспорти</tspan></text><text
       transform="matrix(1,0,0,-1,1196.638,857.3001)"
       style="font-variant:normal;font-weight:300;font-stretch:normal;font-size:20px;font-family:'Rubik Light';-inkscape-font-specification:Rubik-Light;writing-mode:lr-tb;fill:#000000;fill-opacity:1;fill-rule:nonzero;stroke:none"
       id="text200"><tspan
         x="0"
         y="0"
         id="tspan198">-</tspan></text><text
       transform="matrix(1,0,0,-1,693,831.3001)"
       style="font-variant:normal;font-weight:300;font-stretch:normal;font-size:20px;font-family:'Rubik Light';-inkscape-font-specification:Rubik-Light;writing-mode:lr-tb;fill:#000000;fill-opacity:1;fill-rule:nonzero;stroke:none"
       id="text204"><tspan
         x="0 11.62 22.780001 33.619999 43.740002 54.32 59.48 70.199997 83.379997 95 106.16 118.08 123.24 135.16 146.08 159.66 169.60001 181.52 186.67999 197.39999 202.56 212.5 223.73801 234.31799 245.658 256.81799 268.33801 279.95801 291.11801 301.95801 313.11801 324.638 336.55801 349.73801 363.01801 368.17801 378.11801 389.73801 400.45801 412.37799 423.09799 434.61801 445.77802 457.39801 467.33801 478.49799 491.77802"
         y="0"
         id="tspan202">ровку сырой нефти с трубопроводным транспортом.</tspan></text><text
       transform="matrix(1,0,0,-1,693,762.3)"
       style="font-variant:normal;font-weight:500;font-stretch:normal;font-size:28px;font-family:'Rubik Medium';-inkscape-font-specification:Rubik-Medium;writing-mode:lr-tb;fill:#000000;fill-opacity:1;fill-rule:nonzero;stroke:none"
       id="text208"><tspan
         x="0 18.983999 35.167999 52.360001 69.832001 91.335999 107.52 113.904 133.616 149.8 164.668 180.68401 197.59599 214.508"
         y="0"
         id="tspan206">Черные металлы</tspan></text><text
       transform="matrix(1,0,0,-1,693,726.3)"
       style="font-variant:normal;font-weight:300;font-stretch:normal;font-size:20px;font-family:'Rubik Light';-inkscape-font-specification:Rubik-Light;writing-mode:lr-tb;fill:#000000;fill-opacity:1;fill-rule:nonzero;stroke:none"
       id="text212"><tspan
         x="0 14 25.16 30.32 42.240002 52.18 63.34 71.699997 82.419998 95.699997 100.86 112.06 124.38 135.58 147.89999 153.06 161.17799 172.338 183.858 194.578 199.73801 211.258 222.418 230.778 242.01801 252.59801 262.43799 272.55801 283.27802 288.43799 298.978 309.89801 321.51801 333.43799 346.61801 356.978 362.138 375.418 386.33801 396.27802 406.99799 418.21799 429.43799 440.59799 451.43799 456.59799 467.31799"
         y="0"
         id="tspan210">По итогам 2020 года погрузка черных металлов со</tspan></text><text
       transform="matrix(1,0,0,-1,1171.478,726.3)"
       style="font-variant:normal;font-weight:300;font-stretch:normal;font-size:20px;font-family:'Rubik Light';-inkscape-font-specification:Rubik-Light;writing-mode:lr-tb;fill:#000000;fill-opacity:1;fill-rule:nonzero;stroke:none"
       id="text216"><tspan
         x="0"
         y="0"
         id="tspan214">-</tspan></text><text
       transform="matrix(1,0,0,-1,693,700.3)"
       style="font-variant:normal;font-weight:300;font-stretch:normal;font-size:20px;font-family:'Rubik Light';-inkscape-font-specification:Rubik-Light;writing-mode:lr-tb;fill:#000000;fill-opacity:1;fill-rule:nonzero;stroke:none"
       id="text232"><tspan
         x="0 10.12 21.74 32.459999 42.400002 54.32 65.540001 76.260002 86.980003 96.5 101.66 113.58 124.3 129.46001 140.17799 148.138 160.45799 161.3 176.12 181.28 187.66 197.96001 206.32001 211.06 222.58 227.74001 241.02 252.24001 264.16 269.32001 279.26001 285.64001 290.79999 300.92001 306.07999 316.66 328.28 339.44 350.28 362.20001 377.45999 382.62 393.82001 406.14001 414.10001 425.54001 430.70001 438.81601 449.97601 461.496 472.216 476.97601"
         y="0"
         id="tspan218">кратилась на –10 % (–7,3 млн т) к уровню 2019 года. </tspan><tspan
         x="0 13.24 23.959999 35.880001 47.040001 57.880001 69.800003 80.959999 91.879997 97.040001 107.76 118.92 129.03999 140.66 151.38 167.28 178.2 190.12 202.03999 212.96001 218.12 227.73801 238.89799 249.618 261.53799 271.53799 282.758 293.918 304.638 314.15799 319.31799 330.83801 341.99799 350.358 361.59601 372.17599 382.01599 392.13599 404.056 409.216 420.056 431.97601 442.556 452.496 464.116 476.03601"
         y="26"
         id="tspan220">Основное сокращение коснулось погрузки внутри </tspan><tspan
         x="0 10.72 20.66 32.279999 43 54.919998 68.099998 73.260002 79.639999 90.360001 98.32 109.76 110.6 125.42 130.16 135.32001 146.86 158.5 163 175.36 180.52 193.8 205.02 216.94 222.10001 232.03999 238.42 243.17999 248.34 260.73999 270.67999 281.84 287 298.51999 310.14001 321.29999 333.22 343.06 354.22 369.60001 380.82001 391.98001 397.14001 409.06 419.78 424.94 438.51999 449.67999 461.60001 472.51999"
         y="52"
         id="tspan222">страны (–15 %, –6,8 млн т). Это произошло на фоне </tspan><tspan
         x="0 11.16 19.52 31.139999 41.860001 53.779999 65.699997 76.239998 88.160004 98.099998 108.94 120.16 129.67999 141.60001 154.78 165.14 170.3 180.42 191.14 202.75999 213.48 225.39999 235.34 247.25999 259.17999 271.10001 284.28 294.64001 299.79999 313.07999 324 335.62 340.78 351.62 363.54001 374.12 384.06 395.67999 407.60001 412.76001 423.48001 433.42001 445.04001 455.76001 467.67999 480.85999 486.01999 497.94 502.67999"
         y="78"
         id="tspan224">ограничительных карантинных мер внутри страны и, </tspan><tspan
         x="0 10.12 20.84 30.959999 36.119999 46.84 58.060001 68.980003 80.5 91.220001 101.16 112 123.92 134.84 139.58 144.74001 155.46001 167.38 179.3 194.28 205.2 217.12 229.03999 239.42 244.58 255.3 265.42001 275.35999 287.28 298.12 310.04001 321.20001 331.92001 341.85999 353.78 358.94 369.78 374.94 385.66 395.60001 407.22 418.38 430.29999 440.23999 451.07401 462.29401 471.814 483.73401 494.89401 508.17401"
         y="104"
         id="tspan226">как следствие, снижения активности в строительном </tspan><tspan
         x="0 11.92 17.08 28.6 40.220001 51.380001 63.299999 73.139999 83.980003 95.139999 106.66 117.38 127.32 138.16 149.08 161 172.92 184.08 197.36 202.52 213.24001 224.16 234.28 244.22 255.38 267 277.72 288.07999 292.84 298 311.51999 322.67999 333.39999 343.34 354.06 364 375.16 385.70001 397.62 408.78 413.94 424.66 436.57999 447.79999 457.32001 469.23999 479.95999 490.34"
         y="130"
         id="tspan228">и производственном секторах. Достаточно сильная </tspan><tspan
         x="0 9.6199999 20.780001 32.700001 42.82 53.400002 65.019997 75.940002 87.860001 99.879997 111.8 122.18 127.34 139.25999 149.98 155.14 166.06 176.89999 188.52 199.67999 211.2 222.12 234.03999 244.75999 254.37801 265.53799 278.81799 283.978 295.59799 308.77802 320.698 330.31601 341.23599 346.396 358.31601 363.47601 374.19601 386.116 398.03601 413.01599 423.936 435.85599 447.776 458.69601 463.85599 475.37601 486.53601 496.47601 508.09601"
         y="156"
         id="tspan230">конкуренция на европейском рынке и снижение потре</tspan></text><text
       transform="matrix(1,0,0,-1,1212.016,544.3)"
       style="font-variant:normal;font-weight:300;font-stretch:normal;font-size:20px;font-family:'Rubik Light';-inkscape-font-specification:Rubik-Light;writing-mode:lr-tb;fill:#000000;fill-opacity:1;fill-rule:nonzero;stroke:none"
       id="text236"><tspan
         x="0"
         y="0"
         id="tspan234">-</tspan></text><text
       transform="matrix(1,0,0,-1,693,518.3)"
       style="font-variant:normal;font-weight:300;font-stretch:normal;font-size:20px;font-family:'Rubik Light';-inkscape-font-specification:Rubik-Light;writing-mode:lr-tb;fill:#000000;fill-opacity:1;fill-rule:nonzero;stroke:none"
       id="text240"><tspan
         x="0 11.34 22.559999 33.48 45.400002 57.32 67.699997 72.860001 84.779999 95.699997 100.86 112.38 123.54 133.38 144.22 155.17799 166.39799 178.31799 189.53799 201.45799 206.618 217.778 227.718 240.89799 249.258 260.87799 271.59799 281.53799 291.05801 296.21799 307.73801 318.89801 328.73801 340.65799 352.67801 364.59799 376.51801 381.67801 391.51801 402.23801 407.39801 418.11801 428.65799 439.578 449.51801 454.67801 465.59799 476.43799 488.05801"
         y="0"
         id="tspan238">бления не позволили отыграть позиции за счет евро</tspan></text><text
       transform="matrix(1,0,0,-1,1192.218,518.3)"
       style="font-variant:normal;font-weight:300;font-stretch:normal;font-size:20px;font-family:'Rubik Light';-inkscape-font-specification:Rubik-Light;writing-mode:lr-tb;fill:#000000;fill-opacity:1;fill-rule:nonzero;stroke:none"
       id="text244"><tspan
         x="0"
         y="0"
         id="tspan242">-</tspan></text><text
       transform="matrix(1,0,0,-1,693,492.3)"
       style="font-variant:normal;font-weight:300;font-stretch:normal;font-size:20px;font-family:'Rubik Light';-inkscape-font-specification:Rubik-Light;writing-mode:lr-tb;fill:#000000;fill-opacity:1;fill-rule:nonzero;stroke:none"
       id="text252"><tspan
         x="0 11.52 22.440001 34.360001 45.080002 54.700001 65.860001 73.980003 85.139999 90.300003 101.02 110.64 121.36 132.88 144.03999 155.66 165.60001 176.32001 181.48 187.86 198.578 206.53799 218.058 218.89999 233.72 238.46001 243.62 254.34 262.29999 266.10001 277.54001 282.70001 295.98001 307.20001 319.12 324.28 334.22 340.60001 345.34 350.5 362.01999 373.64001 385.56 390.72 401.44 411.38 422.54001 435.82001 440.98001 452.5 463.66 472.01999 483.258 493.83801 503.67801 513.79797 524.51801"
         y="0"
         id="tspan246">пейского экспорта (–13 %, –1,9 млн т), при этом погрузка </tspan><tspan
         x="0 10.84 16 27.92 38.639999 50.16 61.779999 72.5 83.339996 94.559998 105.48 117.4 129.32001 141.24001 146.39999 157.12 167.06 178.67999 189.39999 201.32001 206.48 219.48 230.62 243.17999 248.34 254.476 266.75601 278.67599 288.616 299.336 310.45599 316.836 321.996 332.836 346.01599 357.63599 368.79599 379.51599 390.73599 401.45599 406.616 418.23599 429.15601 438.77399 449.93399 461.55399 473.07401 484.99399 498.17401 511.45401 523.37402"
         y="26"
         id="tspan248">в направлении стран АТР (Китай) выросла рекордными </tspan><tspan
         x="0 9.9399996 20.860001 34.139999 45.66 56.380001 69.660004 81.580002 86.739998 93.120003 105.378 116.898 128.338 129.17999 144 148.74001 153.89999 165.94 173.89999 178.03999 187.78 192.94 206.22 217.44 229.36 234.52 244.46001 250.84 256 267.92001 278.64001 283.79999 297.38 308.54001 320.45999 331.38 336.54001 347.26001 357.20001 368.82001 379.98001 391.89999 401.84 412.67599 423.896 433.41599 445.336 456.496 464.616 475.776 480.936 492.276 502.85599 516.13599 526.85602"
         y="52"
         id="tspan250">темпами (+35 %, +1,7 млн т) на фоне строительного бума.</tspan></text><text
       transform="matrix(1,0,0,-1,693,371.3)"
       style="font-variant:normal;font-weight:500;font-stretch:normal;font-size:28px;font-family:'Rubik Medium';-inkscape-font-specification:Rubik-Medium;writing-mode:lr-tb;fill:#000000;fill-opacity:1;fill-rule:nonzero;stroke:none"
       id="text256"><tspan
         x="0 18.48 34.495998 52.108002"
         y="0"
         id="tspan254">Руда</tspan></text><text
       transform="matrix(1,0,0,-1,693,335.3)"
       style="font-variant:normal;font-weight:300;font-stretch:normal;font-size:20px;font-family:'Rubik Light';-inkscape-font-specification:Rubik-Light;writing-mode:lr-tb;fill:#000000;fill-opacity:1;fill-rule:nonzero;stroke:none"
       id="text260"><tspan
         x="0 14 25.16 33.52 44.759998 55.34 65.18 75.300003 86.019997 91.18 102.42 113 124.52 137.7 142.86 153.58 164.74001 174.86 186.48 197.2 207.14 219.06 230.28 241 251.72 261.23999 266.39999 278.32001 289.23999 299.07999 311 321.72 332.26001 344.17999 354.12 364.95599 376.17599 385.69601 397.616 408.776 413.936 424.056 429.216 439.79599 451.41599 462.57599"
         y="0"
         id="tspan258">Погрузка руды сократилась незначительно к уров</tspan></text><text
       transform="matrix(1,0,0,-1,1166.416,335.3)"
       style="font-variant:normal;font-weight:300;font-stretch:normal;font-size:20px;font-family:'Rubik Light';-inkscape-font-specification:Rubik-Light;writing-mode:lr-tb;fill:#000000;fill-opacity:1;fill-rule:nonzero;stroke:none"
       id="text264"><tspan
         x="0"
         y="0"
         id="tspan262">-</tspan></text><text
       transform="matrix(1,0,0,-1,693,309.3)"
       style="font-variant:normal;font-weight:300;font-stretch:normal;font-size:20px;font-family:'Rubik Light';-inkscape-font-specification:Rubik-Light;writing-mode:lr-tb;fill:#000000;fill-opacity:1;fill-rule:nonzero;stroke:none"
       id="text268"><tspan
         x="0 11.92 27.18 32.34 43.540001 55.860001 63.82 75.260002 80.419998 88.540001 99.699997 111.22 121.94 127.1 133.48 145.02 156.95799 161.31799 173.218 174.06 188.88 193.62 198.78 210.32001 222.25999 227 238.44 243.60001 256.88 268.10001 280.01999 285.17999 295.12 301.5 306.66 316.5 327.22 332.38 343.10001 353.64001 364.56 374.5 379.66 391.28 402.44 413.16 423.10001 433.82001 438.98001 450.5 461.66 472.38 482.32001"
         y="0"
         id="tspan266">ню 2019 года (–0,4 %, –0,5 млн т) за счет роста поста</tspan></text><text
       transform="matrix(1,0,0,-1,1186.04,309.3)"
       style="font-variant:normal;font-weight:300;font-stretch:normal;font-size:20px;font-family:'Rubik Light';-inkscape-font-specification:Rubik-Light;writing-mode:lr-tb;fill:#000000;fill-opacity:1;fill-rule:nonzero;stroke:none"
       id="text272"><tspan
         x="0"
         y="0"
         id="tspan270">-</tspan></text><text
       transform="matrix(1,0,0,-1,693,283.3)"
       style="font-variant:normal;font-weight:300;font-stretch:normal;font-size:20px;font-family:'Rubik Light';-inkscape-font-specification:Rubik-Light;writing-mode:lr-tb;fill:#000000;fill-opacity:1;fill-rule:nonzero;stroke:none"
       id="text278"><tspan
         x="0 10.84 22 32.119999 37.279999 49.200001 59.919998 65.080002 75.800003 85.419998 96.139999 107.66 118.82 130.44 140.38 145.53999 151.92 163.938 174.89799 186.798 187.64 202.46001 207.2 212.36 224.92 236.14 240.5 252.39999 257.56 270.84 282.06 293.98001 299.14001 309.07999 313.82001 318.98001 329.82001 334.98001 344.92001 349.67999 352.17999 362.72 367.48001 372.64001 383.48001 388.64001 400.56 411.28 422.79999 434.42001 445.14001 455.98001 467.20001 478.12 490.04001 501.95999 513.88"
         y="0"
         id="tspan274">вок на экспорт (+24 %, +5,4 млн т, в т. ч. в направлении </tspan><tspan
         x="0.02 10.74 20.68 32.299999 43.02 54.939999 60.099998 73.099998 84.239998 96.800003 101.96 113.978 125.178 137.53799 138.38 153.2 157.94 163.10001 175.02 186.24001 198.16 203.32001 215.578 227.09801 232.258 245.53799 256.758 268.67801 273.83801 283.77802 288.51801 293.67801 304.51801 309.67801 321.59799 332.31799 343.83801 355.45801 366.17801 377.01801 388.23801 399.15799 411.078 422.99799 434.918 440.078 450.99799 461.83801 473.45801 484.61801 496.138 507.05801"
         y="26"
         id="tspan276">стран АТР +28 %, или +3 млн т, в направлении европей</tspan></text><text
       transform="matrix(1,0,0,-1,1211.978,257.3)"
       style="font-variant:normal;font-weight:300;font-stretch:normal;font-size:20px;font-family:'Rubik Light';-inkscape-font-specification:Rubik-Light;writing-mode:lr-tb;fill:#000000;fill-opacity:1;fill-rule:nonzero;stroke:none"
       id="text282"><tspan
         x="0"
         y="0"
         id="tspan280">-</tspan></text><text
       transform="matrix(1,0,0,-1,693.02,231.3)"
       style="font-variant:normal;font-weight:300;font-stretch:normal;font-size:20px;font-family:'Rubik Light';-inkscape-font-specification:Rubik-Light;writing-mode:lr-tb;fill:#000000;fill-opacity:1;fill-rule:nonzero;stroke:none"
       id="text290"><tspan
         x="0 10.72 20.84 32.759998 43.119999 48.279999 59 68.940002 80.559998 91.279999 103.2 108.36 123.7 128.86 141.118 152.638 164.95799 165.8 180.62 185.36 190.52 202.44 213.66 225.58 230.74001 242.998 254.51801 257.89801 265.858 271.01801 284.298 295.51801 307.43799 312.59799 322.53799 328.918 333.67801 338.83801 351.858 361.798 373.418 384.578 396.49799 406.43799 417.276 428.496 438.01599 449.936 463.116 475.03601 480.19601 491.53601 502.116 515.396"
         y="0"
         id="tspan284">ских стран — +30 %, или +3,1 млн т). Строительный бум </tspan><tspan
         x="0 10.84 16 28.280001 40.200001 50.139999 60.860001 71.779999 76.940002 88.860001 99.580002 104.74 118.32 129.48 141.39999 152.32001 157.48 168.64 179.36 190.58 201.74001 216.72 228.64 239.56 251.48 263.39999 273.78 278.94 290.10001 300.04001 311.95999 323.12 338.5 349.42001 361.34 373.26001 385.17999 390.34 401.06 406.22 419.22 430.06 440.78 450.72 462.34 473.06 484.28 496.20001 507.12 519.03998 523.78003"
         y="26"
         id="tspan286">в Китае на фоне осложнения отношений с Австралией, </tspan><tspan
         x="0 10.12 21.360001 31.940001 43.459999 55.380001 66.300003 78.220001 93.599998 105.52 118.8 123.96 135.48 146.64 157.36 167.3 178.02 188.86 204.75999 216.67999 226.298 237.45799 250.73801 255.89799 266.73801 271.89801 282.61801 292.55801 304.17801 314.89801 326.81799 337.39801 342.55801 357.53799 368.37601 379.59601 390.51599 400.35599 411.51599 422.75601 433.336 444.85599 456.776 467.936 476.05399 487.21399 492.37399 503.09399"
         y="52"
         id="tspan288">крупнейшим поставщиком в страну железорудного сы</tspan></text><text
       transform="matrix(1,0,0,-1,1209.294,179.3)"
       style="font-variant:normal;font-weight:300;font-stretch:normal;font-size:20px;font-family:'Rubik Light';-inkscape-font-specification:Rubik-Light;writing-mode:lr-tb;fill:#000000;fill-opacity:1;fill-rule:nonzero;stroke:none"
       id="text294"><tspan
         x="0"
         y="0"
         id="tspan292">-</tspan></text><text
       transform="matrix(1,0,0,-1,693.02,153.3)"
       style="font-variant:normal;font-weight:300;font-stretch:normal;font-size:20px;font-family:'Rubik Light';-inkscape-font-specification:Rubik-Light;writing-mode:lr-tb;fill:#000000;fill-opacity:1;fill-rule:nonzero;stroke:none"
       id="text298"><tspan
         x="0 11.62 21.139999 31.52 36.259998 41.419998 53.34 58.5 69.220001 80.379997 90.5 102.12 112.84 128.74001 139.66 151.58 163.5 174.42 179.58 191.10001 202.72 213.88 222.24001 234.16 245.32001 255.16 267.07999 278.23999 286.358 297.51801 302.67801 314.198 325.81799 336.73801 348.258 359.478 370.638 385.61801 396.53799 408.45801 420.37799 430.758 435.918 446.638 457.798 462.95801 473.67801 483.61801 494.77802 506.39801"
         y="0"
         id="tspan296">рья, и сокращение прогнозного предложения со сторо</tspan></text><text
       transform="matrix(1,0,0,-1,1210.578,153.3)"
       style="font-variant:normal;font-weight:300;font-stretch:normal;font-size:20px;font-family:'Rubik Light';-inkscape-font-specification:Rubik-Light;writing-mode:lr-tb;fill:#000000;fill-opacity:1;fill-rule:nonzero;stroke:none"
       id="text302"><tspan
         x="0"
         y="0"
         id="tspan300">-</tspan></text><text
       transform="matrix(1,0,0,-1,693.02,127.3)"
       style="font-variant:normal;font-weight:300;font-stretch:normal;font-size:20px;font-family:'Rubik Light';-inkscape-font-specification:Rubik-Light;writing-mode:lr-tb;fill:#000000;fill-opacity:1;fill-rule:nonzero;stroke:none"
       id="text306"><tspan
         x="0 11.92 25.1 30.26 42.900002 54.52 65.239998 75.080002 87 98.220001 110.14 122.06 127.22 138.74001 150.36 162.28 173.12 183.95799 195.17799 207.09801 212.258 222.37801 227.53799 238.87801 249.798 260.51801 272.03799 283.65799 294.578 306.59799 317.51801 329.03799 339.95801 351.87799 361.81799 373.73801 384.89801 398.17801 408.758 413.918 425.53799 436.698 447.418 457.358 467.93799 473.09799 486.37799 498.298 509.918"
         y="0"
         id="tspan304">ны Бразилии привели к беспрецедентному росту миро</tspan></text><text
       transform="matrix(1,0,0,-1,1214.098,127.3)"
       style="font-variant:normal;font-weight:300;font-stretch:normal;font-size:20px;font-family:'Rubik Light';-inkscape-font-specification:Rubik-Light;writing-mode:lr-tb;fill:#000000;fill-opacity:1;fill-rule:nonzero;stroke:none"
       id="text310"><tspan
         x="0"
         y="0"
         id="tspan308">-</tspan></text><text
       transform="matrix(1,0,0,-1,693.02,101.3)"
       style="font-variant:normal;font-weight:300;font-stretch:normal;font-size:20px;font-family:'Rubik Light';-inkscape-font-specification:Rubik-Light;writing-mode:lr-tb;fill:#000000;fill-opacity:1;fill-rule:nonzero;stroke:none"
       id="text314"><tspan
         x="0 10.84 24.02 34.380001 39.540001 51.560001 62.48 74.400002 79.559998 91.480003 102.2 107.36 122.34 133.17799 144.39799 155.31799 165.158 177.078 187.658 202.918 208.078 219.31599 229.896 241.416 251.996 257.15601 269.07599 274.23599 285.75601 296.91599 305.276 316.51599 327.09601 336.936 347.056 356.436"
         y="0"
         id="tspan312">вых цен на железную руду и погрузку.</tspan></text><text
       transform="matrix(1,0,0,-1,1287,953.8201)"
       style="font-variant:normal;font-weight:500;font-stretch:normal;font-size:28px;font-family:'Rubik Medium';-inkscape-font-specification:Rubik-Medium;writing-mode:lr-tb;fill:#000000;fill-opacity:1;fill-rule:nonzero;stroke:none"
       id="text318"><tspan
         x="0 22.736 40.208 57.68 73.863998 91.056 107.072 123.984 138.85201 156.32401 177.828 194.01199 200.396 216.412 234.024 250.62801 267.37201 284.564 300.74799 318.22 335.69199"
         y="0"
         id="tspan316">Минеральные удобрения</tspan></text><text
       transform="matrix(1,0,0,-1,1287,917.8201)"
       style="font-variant:normal;font-weight:300;font-stretch:normal;font-size:20px;font-family:'Rubik Light';-inkscape-font-specification:Rubik-Light;writing-mode:lr-tb;fill:#000000;fill-opacity:1;fill-rule:nonzero;stroke:none"
       id="text322"><tspan
         x="0 14 25.16 30.32 42.240002 52.18 63.34 71.699997 82.419998 95.699997 100.86 112.06 124.38 135.58 147.89999 153.06 161.17799 172.338 183.858 194.578 199.73801 211.258 222.418 230.778 242.01801 252.59801 262.43799 272.55801 283.27802 288.43799 301.71799 313.638 325.55801 336.478 348.09799 358.81799 370.03799 379.55801 391.478 404.65799 415.01801 420.17801 430.758 442.27802 453.43799 464.77802 476.39801"
         y="0"
         id="tspan320">По итогам 2020 года погрузка минеральных удобре</tspan></text><text
       transform="matrix(1,0,0,-1,1774.318,917.8201)"
       style="font-variant:normal;font-weight:300;font-stretch:normal;font-size:20px;font-family:'Rubik Light';-inkscape-font-specification:Rubik-Light;writing-mode:lr-tb;fill:#000000;fill-opacity:1;fill-rule:nonzero;stroke:none"
       id="text326"><tspan
         x="0"
         y="0"
         id="tspan324">-</tspan></text><text
       transform="matrix(1,0,0,-1,1287,891.8201)"
       style="font-variant:normal;font-weight:300;font-stretch:normal;font-size:20px;font-family:'Rubik Light';-inkscape-font-specification:Rubik-Light;writing-mode:lr-tb;fill:#000000;fill-opacity:1;fill-rule:nonzero;stroke:none"
       id="text334"><tspan
         x="0 11.92 23.84 35.759998 40.919998 51.5 62.34 73.18 84.400002 96.32 106.86 118.78 130 140.72 151.44 160.96001 166.12 172.5 184.758 196.278 200.418 210.158 211 225.82001 230.56 235.72 247.74001 258.94 263.67999 274.88 280.04001 293.32001 304.54001 316.45999 321.62 331.56 337.94 343.10001 353.22 358.38 368.95999 380.57999 391.73999 402.57999 414.5 429.76001 434.92001 446.12 458.44 466.39999 477.84 483 491.116 502.276 513.79602 524.51599"
         y="0"
         id="tspan328">ний увеличилась (+3,7 %, +2,2 млн т) к уровню 2019 года </tspan><tspan
         x="0 11.92 22.639999 27.799999 41.380001 52.540001 64.459999 75.379997 80.540001 92.160004 103.32 114.04 123.98 134.7 139.86 151.02 162.36 173.14 184.06 197.34 208.5 219.34 224.5 236.02 247.64 258.79999 270.72 280.56 291.39999 302.56 314.07999 324.79999 334.73999 345.57999 356.29999 361.45999 372.04001 383.56 394.72 406.06 417.67999 428.60001 440.51999 452.44 464.35999 469.51999 475.89999 488.45999 499.89999 500.72 515.53998 521.91998 526.67999"
         y="26"
         id="tspan330">на фоне роста объемов производства удобрений (+5 %). </tspan><tspan
         x="0 14 25.16 33.52 44.759998 55.34 65.18 75.300003 86.019997 91.115997 103.036 113.756 118.854 129.694 141.614 152.194 162.134 173.754 184.674 196.59399 208.51401 220.43401 232.354 237.45 249.07001 262.25 274.17001 285.32999 295.45001 300.548 312.06799 323.68799 334.608 345.448 358.62799 369.34799 381.26801 392.48801 403.20801 408.30399 418.884 430.504 441.664 452.504 463.42401 475.34399 484.86401 489.95999 501.48001 513.09998"
         y="52"
         id="tspan332">Погрузка на внутренний рынок превысила уровень про</tspan></text><text
       transform="matrix(1,0,0,-1,1811.26,839.8201)"
       style="font-variant:normal;font-weight:300;font-stretch:normal;font-size:20px;font-family:'Rubik Light';-inkscape-font-specification:Rubik-Light;writing-mode:lr-tb;fill:#000000;fill-opacity:1;fill-rule:nonzero;stroke:none"
       id="text338"><tspan
         x="0"
         y="0"
         id="tspan336">-</tspan></text><text
       transform="matrix(1,0,0,-1,1287,813.8201)"
       style="font-variant:normal;font-weight:300;font-stretch:normal;font-size:20px;font-family:'Rubik Light';-inkscape-font-specification:Rubik-Light;writing-mode:lr-tb;fill:#000000;fill-opacity:1;fill-rule:nonzero;stroke:none"
       id="text342"><tspan
         x="0 15.38 26.6 37.759998 45.880001 57.040001 62.200001 70.32 81.480003 93 103.72 108.88 120.8 131.52 136.67999 148.32001 152.45799 162.198 163.03999 177.86 183.02 189.39999 201.44 209.39999 213.53999 223.28 228.44 241.72 252.94 264.85999 270.01999 279.95999 286.34 291.07999 296.23999 306.78 316.72 327.88 333.04001 344.20001 355.54001 365.77802 376.49799 387.71799 398.87799 409.71799 420.93799 431.858 443.77802 454.93799 460.09799 470.81799 480.93799 490.87799 502.798"
         y="0"
         id="tspan340">шлого года на 6,7 % (+1,7 млн т), что обусловлено актив</tspan></text><text
       transform="matrix(1,0,0,-1,1800.638,813.8201)"
       style="font-variant:normal;font-weight:300;font-stretch:normal;font-size:20px;font-family:'Rubik Light';-inkscape-font-specification:Rubik-Light;writing-mode:lr-tb;fill:#000000;fill-opacity:1;fill-rule:nonzero;stroke:none"
       id="text346"><tspan
         x="0"
         y="0"
         id="tspan344">-</tspan></text><text
       transform="matrix(1,0,0,-1,1287,787.8201)"
       style="font-variant:normal;font-weight:300;font-stretch:normal;font-size:20px;font-family:'Rubik Light';-inkscape-font-specification:Rubik-Light;writing-mode:lr-tb;fill:#000000;fill-opacity:1;fill-rule:nonzero;stroke:none"
       id="text354"><tspan
         x="0 11.92 25.1 38.380001 43.540001 55.459999 66.18 77.699997 88.660004 99.879997 109.4 119.24 130.39999 141.24001 151.96001 163.88 175.8 186.72 200 205.16 215.74001 227.25999 238.42 249.75999 261.38 272.29999 284.22 296.14001 308.06 313.22 323.94 332.29999 343.92001 355.07999 366.60001 378.22 389.14001 400.66 412.17999 423.79999 435.72 446.10001 456.04001 467.95999 478.34 491.62 503.54001"
         y="0"
         id="tspan348">ным использованием удобрений агропредприятиями.</tspan><tspan
         x="0 14 25.16 33.52 44.759998 55.34 65.18 75.300003 86.019997 91.18 101.76 113.28 124.44 135.78 147.39999 158.32001 170.24001 182.16 194.08 199.24001 211.16 221.88 227.03999 237.75999 247.37801 258.09799 269.61801 280.77802 292.39801 302.33801 307.49799 318.078 328.918 339.75601 350.97601 362.896 373.436 385.35599 396.57599 407.29599 418.01599 427.53601 432.69601 442.81601 447.97601 458.556 470.17599 481.336 492.17599 504.09601 519.35602"
         y="26"
         id="tspan350">Погрузка удобрений на экспорт увеличилась к уровню </tspan><tspan
         x="0 11.2 23.52 31.48 42.919998 48.080002 56.200001 67.360001 78.879997 89.599998 94.760002 106.68 117.4 122.56 130.52 134.978 146.618 147.46001 162.28 167.44 173.82001 186.38 198.32001 202.78 214.42 219.58 232.86 244.08 256 261.16 271.10001 277.48001 282.22 287.38 298.22 303.38 314.54001 325.26001 337.17999 348.34 359.17999 371.10001 382.26001 395.54001 400.70001 410.54001 421.26001 426.42001 437.14001 447.67999 458.60001 468.54001 473.70001 484.85999"
         y="52"
         id="tspan352">2019 года на 1,6 % (+0,6 млн т), в основном за счет от</tspan></text><text
       transform="matrix(1,0,0,-1,1781.8,735.8201)"
       style="font-variant:normal;font-weight:300;font-stretch:normal;font-size:20px;font-family:'Rubik Light';-inkscape-font-specification:Rubik-Light;writing-mode:lr-tb;fill:#000000;fill-opacity:1;fill-rule:nonzero;stroke:none"
       id="text358"><tspan
         x="0"
         y="0"
         id="tspan356">-</tspan></text><text
       transform="matrix(1,0,0,-1,1287,709.8201)"
       style="font-variant:normal;font-weight:300;font-stretch:normal;font-size:20px;font-family:'Rubik Light';-inkscape-font-specification:Rubik-Light;writing-mode:lr-tb;fill:#000000;fill-opacity:1;fill-rule:nonzero;stroke:none"
       id="text362"><tspan
         x="0 8.3599997 19.6 30.18 40.02 50.139999 62.060001 67.220001 78.059998 83.220001 95.139999 105.86 117.38 129 139.72 150.56 161.78 172.7 184.62 196.53999 208.46001 213.62 225.89999 237.82001 247.75999 258.48001 268.85999 274.01999 285.94 291.10001 303.73999 315.35999 326.07999 335.92001 347.84 359.06 370.98001 382.89999 388.06 394.44 406.474 414.43399 418.79401 430.694 435.854 449.134 460.354 472.27399 477.43399 487.37399 493.754"
         y="0"
         id="tspan360">грузки в направлении Китая и Бразилии (+1,4 млн т).</tspan></text><text
       transform="matrix(1,0,0,-1,1287,652.8201)"
       style="font-variant:normal;font-weight:500;font-stretch:normal;font-size:28px;font-family:'Rubik Medium';-inkscape-font-specification:Rubik-Medium;writing-mode:lr-tb;fill:#000000;fill-opacity:1;fill-rule:nonzero;stroke:none"
       id="text366"><tspan
         x="0 22.736 40.208 57.68 73.863998 91.056 107.072 123.984 138.85201 156.32401 172.92799 186.368 202.384 217.252 234.444 251.048 268.51999 283.388 299.4292 316.34119 331.2092 348.68121 370.18521 386.3692 392.7532 405.24121 421.84241 437.8584 452.86639"
         y="0"
         id="tspan364">Минерально-строительные грузы</tspan></text><text
       transform="matrix(1,0,0,-1,1287,616.8201)"
       style="font-variant:normal;font-weight:300;font-stretch:normal;font-size:20px;font-family:'Rubik Light';-inkscape-font-specification:Rubik-Light;writing-mode:lr-tb;fill:#000000;fill-opacity:1;fill-rule:nonzero;stroke:none"
       id="text370"><tspan
         x="0 14 25.16 30.32 42.240002 52.18 63.34 71.699997 82.419998 95.699997 100.86 112.06 124.38 135.58 147.89999 153.06 161.17799 172.338 183.858 194.578 199.73801 211.258 222.418 230.778 242.01801 252.59801 262.43799 272.55801 283.27802 288.43799 301.71799 313.638 325.55801 336.478 348.09799 358.81799 370.03799 379.55801 391.478 402.638 412.37799 423.09799 433.03799 444.65799 455.81799 467.73801 477.67801 488.51599 499.73599"
         y="0"
         id="tspan368">По итогам 2020 года погрузка минерально-строитель</tspan></text><text
       transform="matrix(1,0,0,-1,1796.256,616.8201)"
       style="font-variant:normal;font-weight:300;font-stretch:normal;font-size:20px;font-family:'Rubik Light';-inkscape-font-specification:Rubik-Light;writing-mode:lr-tb;fill:#000000;fill-opacity:1;fill-rule:nonzero;stroke:none"
       id="text374"><tspan
         x="0"
         y="0"
         id="tspan372">-</tspan></text><text
       transform="matrix(1,0,0,-1,1287,590.8201)"
       style="font-variant:normal;font-weight:300;font-stretch:normal;font-size:20px;font-family:'Rubik Light';-inkscape-font-specification:Rubik-Light;writing-mode:lr-tb;fill:#000000;fill-opacity:1;fill-rule:nonzero;stroke:none"
       id="text382"><tspan
         x="0 11.92 25.1 35.459999 40.619999 48.98 60.220001 70.800003 80.639999 91.800003 102.64 107.8 118.38 129.22 140.058 151.278 163.198 173.73801 185.658 196.87801 207.59801 218.31799 227.838 232.998 243.118 248.278 258.858 270.478 281.638 292.478 304.39801 319.65799 324.81799 336.01801 348.33801 356.298 367.73801 372.89801 381.01599 392.17599 403.69601 414.41599 419.57599 431.496 442.216 447.37601 458.57599 461.95599 469.91599 470.73999 485.56 490.29999"
         y="0"
         id="tspan376">ных грузов увеличилась к уровню 2019 года на 2,1 %, </tspan><tspan
         x="0 6.3800001 18.940001 30.459999 33.84 41.799999 46.959999 60.240002 71.459999 83.379997 88.540001 98.480003 104.86 109.6 114.76 126.28 137.89999 149.82001 154.98 165.7 175.64 186.8 200.08 205.24001 216.75999 227.92 236.28 247.51601 258.09601 267.936 278.056 288.776 293.936 309.836 320.75601 332.09601 344.01599 354.396 359.556 370.396 383.57599 395.19601 406.35599 417.07599 428.29599 439.01599 444.17599 456.09601 466.81601 471.97601 480.33401 485.07401 496.27399 497.10001 511.92001"
         y="26"
         id="tspan378">(+4,1 млн т), при этом погрузка щебня выросла на 7,2 % </tspan><tspan
         x="0 6.3800001 17.82 26.18 30.68 43.040001 48.099998 61.380001 72.599998 84.519997 89.580002 99.519997 105.9 110.96 122.88 133.60001 138.662 152.242 163.40199 175.32201 186.242 191.302 202.922 213.842 224.562 235.782 247.702 257.54199 268.26199 280.28201 292.202 304.12201 309.18201 319.302 330.54199 341.12201 352.642 364.56201 375.72198 383.84201 395.00201 400.064 411.98401 422.70401 434.724 446.64401 457.80399 469.724 480.444 491.664 501.18399 513.104"
         y="52"
         id="tspan380">(+7,8 млн т) на фоне реализации крупного национально</tspan></text><text
       transform="matrix(1,0,0,-1,1811.264,538.8201)"
       style="font-variant:normal;font-weight:300;font-stretch:normal;font-size:20px;font-family:'Rubik Light';-inkscape-font-specification:Rubik-Light;writing-mode:lr-tb;fill:#000000;fill-opacity:1;fill-rule:nonzero;stroke:none"
       id="text386"><tspan
         x="0"
         y="0"
         id="tspan384">-</tspan></text><text
       transform="matrix(1,0,0,-1,1287,512.8201)"
       style="font-variant:normal;font-weight:300;font-stretch:normal;font-size:20px;font-family:'Rubik Light';-inkscape-font-specification:Rubik-Light;writing-mode:lr-tb;fill:#000000;fill-opacity:1;fill-rule:nonzero;stroke:none"
       id="text390"><tspan
         x="0 8.1199999 19.280001 24.440001 35.959999 47.580002 58.740002 69.660004 79.779999 89.720001 100.44 105.6 117.66 130.3 141.22 151.06 162.22 173.74001 184.46001 195.17999 207.10001 220.28 231.2 236.36 248.28 253.44 263.56 274.28 284.82001 295.73999 306.45999 316.39999 327.23999 338.16 350.07999 362 375.17999 386.10001 391.26001 401.98001 412.82001 422.76001 433.92001 447.20001 458.35999 469.70001 481.62 492.84"
         y="0"
         id="tspan388">го проекта «Безопасные и качественные автомобиль</tspan></text><text
       transform="matrix(1,0,0,-1,1789.36,512.8201)"
       style="font-variant:normal;font-weight:300;font-stretch:normal;font-size:20px;font-family:'Rubik Light';-inkscape-font-specification:Rubik-Light;writing-mode:lr-tb;fill:#000000;fill-opacity:1;fill-rule:nonzero;stroke:none"
       id="text394"><tspan
         x="0"
         y="0"
         id="tspan392">-</tspan></text><text
       transform="matrix(1,0,0,-1,1287,486.8201)"
       style="font-variant:normal;font-weight:300;font-stretch:normal;font-size:20px;font-family:'Rubik Light';-inkscape-font-specification:Rubik-Light;writing-mode:lr-tb;fill:#000000;fill-opacity:1;fill-rule:nonzero;stroke:none"
       id="text400"><tspan
         x="0 11.92 25.1 36.02 41.18 52.700001 63.860001 75.480003 86.639999 95 106.92 118.98 123.74 128.89999 142.89999 154.06 162.42 173.658 184.23801 194.078 204.198 214.918 220.078 232.09801 243.01801 256.298 267.21799 279.138 289.078 299.798 304.95801 315.67801 326.83801 336.95801 348.578 359.298 369.23801 381.15799 392.37799 403.09799 413.81799 423.33801 428.49799 440.418 451.138 456.298 467.81601 472.556 483.996 484.82001 499.64001"
         y="0"
         id="tspan396">ные дороги». Погрузка цемента сократилась на 4,5 % </tspan><tspan
         x="0 6.3800001 17.1 25.059999 29.799999 41 46.16 59.439999 70.660004 82.580002 87.739998 97.68 104.06 109.22 121.14 126.3 137.02 148.17999 158.89999 168.84 179.56 190.39999 202.32001 213.53999 224.25999 229.42 240.62 251.838 255.218 263.17801 268.33801 281.61801 292.83801 304.758 309.918 319.858 324.59799 329.758 341.27802 352.43799 360.798 372.03601 382.616 392.45599 402.57599 413.29599 418.45599 429.97601 441.59601 452.75601 466.03601 479.216"
         y="26"
         id="tspan398">(–1,2 млн т) и составила 25,1 млн т, погрузка промыш</tspan></text><text
       transform="matrix(1,0,0,-1,1781.596,460.8201)"
       style="font-variant:normal;font-weight:300;font-stretch:normal;font-size:20px;font-family:'Rubik Light';-inkscape-font-specification:Rubik-Light;writing-mode:lr-tb;fill:#000000;fill-opacity:1;fill-rule:nonzero;stroke:none"
       id="text404"><tspan
         x="0"
         y="0"
         id="tspan402">-</tspan></text><text
       transform="matrix(1,0,0,-1,1287,434.8201)"
       style="font-variant:normal;font-weight:300;font-stretch:normal;font-size:20px;font-family:'Rubik Light';-inkscape-font-specification:Rubik-Light;writing-mode:lr-tb;fill:#000000;fill-opacity:1;fill-rule:nonzero;stroke:none"
       id="text410"><tspan
         x="0 11.22 22.139999 34.060001 45.98 57.139999 65.260002 76.419998 81.580002 92.300003 105.48 117.1 126.62 137 142.16 152.88 164.03999 174.16 185.78 196.5 206.44 218.36 229.58 240.3 251.02 260.54001 265.70001 277.62 288.34 293.5 305.01999 309.478 321.11801 321.95999 336.78 341.94 348.32001 359.04001 367 371.73999 383.26001 388.42001 401.70001 412.92001 424.84 430 439.94 446.32001 451.48001 463.39999 474.12 479.28 492.85999 504.01999 515.94 526.85999"
         y="0"
         id="tspan406">ленного сырья сократилась на 3,6 % (–1,3 млн т) на фоне </tspan><tspan
         x="0 10.12 20.84 32.459999 43.18 55.099998 65.040001 76.959999 88.879997 100.8 113.98 124.34 129.5 140.66 149.02 160.64 171.36 183.28 195.2 205.74001 216.66 228.58 240.5 252.42 257.16 262.32001 273.16 284 295.16 306.67999 318.60001 331.88 345.06 355.42001 360.57999 371.42001 383.34 393.92001 403.85999 415.48001 427.39999 432.56 443.28 453.22 464.84 475.56 487.48001 500.66"
         y="26"
         id="tspan408">карантинных ограничений, вводимых внутри страны.</tspan></text><text
       transform="matrix(1,0,0,-1,99,953.8201)"
       style="font-variant:normal;font-weight:500;font-stretch:normal;font-size:28px;font-family:'Rubik Medium';-inkscape-font-specification:Rubik-Medium;writing-mode:lr-tb;fill:#000000;fill-opacity:1;fill-rule:nonzero;stroke:none"
       id="text418"><tspan
         x="0 19.459999 36.203999 51.212002 67.816002 85.008003 91.391998 108.528 124.712 141.90401 158.088 174.468 191.07201 206.08 222.68401 238.728 245.112 262.24799 278.85199 285.23599 301.84 317.85599 335.328 351.93201 368.31201 385.784 407.28799 427"
         y="0"
         id="tspan412">Обзор перевозок по основным </tspan><tspan
         x="0 16.379999 33.852001 51.464001 67.480003 87.192001 93.575996 106.064 122.668 138.68401 153.692 170.29601 186.67599 193.06 209.44 215.82401 233.18401 251.636 268.996 287.448 293.832 306.06519 322.66919 340.28119"
         y="33.992001"
         id="tspan414">видам грузов в 2020 году</tspan><tspan
         x="1188.012 1208.452 1225.644 1242.248 1254.736 1272.208 1288.812 1303.8199 1325.324 1331.708 1348.844 1365.028 1382.22 1398.4041 1414.7841 1431.3879 1446.396 1463"
         y="669.81598"
         id="tspan416">Прогнозы перевозок</tspan></text><text
       transform="matrix(1,0,0,-1,1287.012,250.0121)"
       style="font-variant:normal;font-weight:500;font-stretch:normal;font-size:28px;font-family:'Rubik Medium';-inkscape-font-specification:Rubik-Medium;writing-mode:lr-tb;fill:#000000;fill-opacity:1;fill-rule:nonzero;stroke:none"
       id="text422"><tspan
         x="0 17.472 33.487999 39.872002 57.231998 75.683998 93.043999 106.036 112.42 124.656 141.25999"
         y="0"
         id="tspan420">на 2021 год</tspan></text><text
       transform="matrix(1,0,0,-1,1287,204)"
       style="font-variant:normal;font-weight:300;font-stretch:normal;font-size:20px;font-family:'Rubik Light';-inkscape-font-specification:Rubik-Light;writing-mode:lr-tb;fill:#000000;fill-opacity:1;fill-rule:nonzero;stroke:none"
       id="text434"><tspan
         x="0 14 25.16 30.32 41.84 52.560001 64.480003 76.400002 89.580002 102.86 108.02 121.26 134.25999 147.5 152.66 164.72 177.28 196.42 209.94 222 226.74001 231.89999 242.74001 247.89999 259.10001 271.42001 282.62 290.57999 295.73999 303.85599 315.01599 326.53601 337.116 342.276 353.79599 365.41599 376.57599 384.936 396.85599 408.01599 417.85599 429.776 441.01599 451.25601 462.17599 472.116 482.836 493.216"
         y="0"
         id="tspan424">По данным ОАО «РЖД», в 2021 году прогнозируется </tspan><tspan
         x="0 11.52 22.68 31.040001 42.279999 52.860001 62.700001 72.82 83.540001 88.699997 99.540001 104.7 115.86 127.2 137.98 148.89999 162.17999 173.10001 178.25999 186.22 190.96001 202.16 213.8 225.7 230.86 244.14 255.36 266.98001 278.5 283.66 293.60001 304.76001 316.67999 328.60001 333.76001 340.14001 352.15399 363.354 368.09399 379.534 380.35999 395.17999 401.56 406.72 416.84 422 432.57999 444.20001 455.35999 466.20001 478.12 493.38"
         y="26"
         id="tspan426">погрузка в объеме 1,264 млрд тонн (+2,5 %) к уровню </tspan><tspan
         x="0 11.2 23.52 34.720001 47.040001 52.200001 60.32 71.480003 83 93.720001 98.879997 109.6 120.76 128.60001 139.82001 150.53999 161.25999 173.17999 184.34 189.5 201.56 215.56 227.17999 238.34 249.25999 259.38 269.32001 279.89999 285.06 298.64001 310.56 322.48001 333.20001 345.12 355.84 367 377.84 389 397.11801 408.27802"
         y="52"
         id="tspan428">2020 года согласно «Проекту финансового </tspan><tspan
         x="0 11.52 22.74 33.459999 45.380001 56.099998 61.259998 73.18 78.339996 90.260002 102.18 113.02 123.94 134.66 144.60001 156.52 168.53999 180.46001 191.62 203.53999 215.46001 226.62 238.53999 243.7 255.22 266.84 278 286.35999 297.98001 308.70001 321.98001 335.26001 348.44 353.60001 366.84 379.84 393.07999 398.23999 410.29999 422.85999 442 455.51999 467.57999"
         y="78"
         id="tspan430">плана и инвестиционной программы ОАО «РЖД» </tspan><tspan
         x="0 11.92 22.639999 27.709999 38.91 51.23 62.43 70.389999 75.459999 83.580002 94.739998 106.26 111.33 123.25 128.32201 140.242 150.96201 156.032 167.552 178.772 189.492 201.412 212.57201 223.412 236.592 248.51199 253.58 265.10001 276.01999 287.64001 299.56 310.72 322.23999 327.31 338.51001 350.82999 362.03 372.64999 387.09 398.29001 410.60999 421.81 433.32999 438.39999 446.51999 457.67999 469.20001 480.35999 491.20001 503.26001"
         y="104"
         id="tspan432">на 2021 год и на плановый период 2022—2023 годов».</tspan></text><g
       id="g436"
       transform="translate(1287,334)"><path
         d="M 0,0 H 534 V -234"
         style="fill:none;stroke:#e8e8ed;stroke-width:4;stroke-linecap:butt;stroke-linejoin:miter;stroke-miterlimit:4;stroke-dasharray:none;stroke-opacity:1"
         id="path438" /></g><text
       transform="matrix(1,0,0,-1,38.3,1023)"
       style="font-variant:normal;font-weight:300;font-stretch:normal;font-size:20px;font-family:'Rubik Light';-inkscape-font-specification:Rubik-Light;writing-mode:lr-tb;fill:#000000;fill-opacity:1;fill-rule:nonzero;stroke:none"
       id="text442"><tspan
         x="0 11.2"
         y="0"
         id="tspan440">22</tspan></text><g
       id="g444"><g
         id="g446"><g
           id="g448"
           clip-path="url(#clipPath452)"><text
             transform="matrix(1,0,0,-1,99,1023)"
             style="font-variant:normal;font-weight:300;font-stretch:normal;font-size:20px;font-family:'Rubik Light';-inkscape-font-specification:Rubik-Light;writing-mode:lr-tb;fill:#000000;fill-opacity:1;fill-rule:nonzero;stroke:none"
             id="text456"><tspan
               x="0 13.24 18.4 28.02 39.18 52.459999 63.98 74.699997 86.620003 98.540001"
               y="0"
               id="tspan454">О компании</tspan></text></g></g></g></g></svg>
