<?xml version="1.0" encoding="UTF-8" standalone="no"?>
<?xml-stylesheet type="text/css" href="main.css" ?>
<svg
   xmlns:dc="http://purl.org/dc/elements/1.1/"
   xmlns:cc="http://creativecommons.org/ns#"
   xmlns:rdf="http://www.w3.org/1999/02/22-rdf-syntax-ns#"
   xmlns:svg="http://www.w3.org/2000/svg"
   xmlns="http://www.w3.org/2000/svg"
   version="1.1"
   id="svg2"
   xml:space="preserve"
   width="2560"
   height="1440"
   viewBox="0 0 2560 1440"><metadata
     id="metadata8"><rdf:RDF><cc:Work
         rdf:about=""><dc:format>image/svg+xml</dc:format><dc:type
           rdf:resource="http://purl.org/dc/dcmitype/StillImage" /></cc:Work></rdf:RDF></metadata><defs
     id="defs6"><clipPath
       clipPathUnits="userSpaceOnUse"
       id="clipPath20"><path
         d="M 0,1080 H 1920 V 0 H 0 Z"
         id="path18" /></clipPath><clipPath
       clipPathUnits="userSpaceOnUse"
       id="clipPath36"><path
         d="M 0,0 H 1920 V 1080 H 0 Z"
         id="path34" /></clipPath><clipPath
       clipPathUnits="userSpaceOnUse"
       id="clipPath238"><path
         d="M 0,1080 H 1920 V 0 H 0 Z"
         id="path236" /></clipPath></defs><g
     id="g10"
     transform="matrix(1.3333333,0,0,-1.3333333,0,1440)"><g
       id="g12"><g
         id="g14"><g
           id="g16"
           clip-path="url(#clipPath20)"><path
             d="M 0,0 H 1920 V 1080 H 0 Z"
             style="fill:#ffffff;fill-opacity:1;fill-rule:nonzero;stroke:none"
             id="path22" /></g></g></g><text
       transform="matrix(1,0,0,-1,99,953.4)"
       style="font-variant:normal;font-weight:normal;font-stretch:normal;font-size:38px;font-family:'Prosto One';-inkscape-font-specification:ProstoOne-Regular;writing-mode:lr-tb;fill:#000000;fill-opacity:1;fill-rule:nonzero;stroke:none"
       id="text28"><tspan
         x="0 34.200001 64.029999 92.339996 126.54 156.56 169.86 204.06 235.98 262.95999 292.98001 324.14001 357.39001 390.07001 424.26999 456.19 488.10999 522.31 554.98999"
         y="0"
         id="tspan24">ОБЗОР ОПЕРАЦИОННОЙ </tspan><tspan
         x="0 33.060001 60.040001 90.440002 117.23 144.21001 175.75 205.77 237.69 271.89001 301.91 328.70001"
         y="45.599998"
         id="tspan26">ДЕЯТЕЛЬНОСТИ</tspan></text><g
       id="g30"><g
         id="g32"
         clip-path="url(#clipPath36)"><g
           id="g38"
           transform="translate(168.7294,350.23)"><path
             d="m 0,0 v 61.786 h -16.77 l -33.1,-50.312 h -0.882 V 61.786 H -63.551 V 0 h 16.77 l 33.1,50.311 h 0.883 L -12.798,0 Z M 48.544,61.786 V 0 H 61.342 V 55.166 H 97.531 V 0 h 12.798 v 61.786 z m 75.934,0 V 0 h 12.798 v 18.536 h 19.013 c 4.422,0 8.385,0.485 11.894,1.456 3.507,0.971 6.469,2.383 8.887,4.237 2.416,1.853 4.274,4.118 5.57,6.796 1.297,2.677 1.946,5.722 1.946,9.136 0,3.412 -0.648,6.457 -1.944,9.135 -1.297,2.677 -3.153,4.943 -5.569,6.796 -2.416,1.854 -5.379,3.266 -8.885,4.237 -3.505,0.971 -7.469,1.457 -11.888,1.457 z m 31.775,-6.62 c 4.648,0 8.253,-1.222 10.813,-3.663 2.559,-2.443 3.839,-6.223 3.839,-11.342 0,-5.12 -1.28,-8.901 -3.839,-11.342 -2.56,-2.443 -6.165,-3.663 -10.813,-3.663 h -18.977 v 30.01 z M 258.252,0 V 61.786 H 241.481 L 208.382,11.474 h -0.883 V 61.786 H 194.701 V 0 h 16.77 l 33.1,50.311 h 0.882 V 0 Z m 25.322,0 12.975,18.536 h 1.589 18.977 V 0 h 12.798 v 61.786 h -31.775 c -4.414,0 -8.372,-0.486 -11.872,-1.457 -3.502,-0.971 -6.459,-2.383 -8.871,-4.237 -2.413,-1.853 -4.267,-4.119 -5.56,-6.796 -1.296,-2.678 -1.942,-5.723 -1.942,-9.135 0,-4.709 1.176,-8.681 3.53,-11.916 2.353,-3.237 5.738,-5.708 10.151,-7.414 L 269.01,0 Z m 33.541,55.166 v -30.01 h -18.977 c -4.65,0 -8.239,1.22 -10.769,3.663 -2.531,2.441 -3.795,6.222 -3.795,11.342 0,5.119 1.264,8.899 3.795,11.342 2.53,2.441 6.119,3.663 10.769,3.663 z m 82.173,6.62 h -60.461 v -6.62 h 23.831 V 0 h 12.799 v 55.166 h 23.831 z m 57.954,0 V 33.541 H 421.053 V 61.786 H 408.255 V 0 h 12.798 v 26.921 h 36.189 V 0 h 12.798 v 61.786 z m 68.132,-6.002 c 2.617,-1.06 4.898,-2.679 6.84,-4.855 1.942,-2.178 3.487,-4.929 4.634,-8.253 1.147,-3.325 1.721,-7.253 1.721,-11.783 0,-4.532 -0.574,-8.46 -1.721,-11.784 -1.147,-3.325 -2.692,-6.076 -4.634,-8.252 -1.942,-2.178 -4.223,-3.796 -6.84,-4.855 -2.619,-1.059 -5.429,-1.589 -8.43,-1.589 -3.001,0 -5.811,0.53 -8.429,1.589 -2.619,1.059 -4.899,2.677 -6.841,4.855 -1.941,2.176 -3.486,4.927 -4.634,8.252 -1.147,3.324 -1.721,7.252 -1.721,11.784 0,4.53 0.574,8.458 1.721,11.783 1.148,3.324 2.693,6.075 4.634,8.253 1.942,2.176 4.222,3.795 6.841,4.855 2.618,1.059 5.428,1.588 8.429,1.588 3.001,0 5.811,-0.529 8.43,-1.588 m -22.905,5.649 c -4.356,-1.413 -8.077,-3.502 -11.166,-6.267 -3.089,-2.767 -5.472,-6.179 -7.149,-10.239 -1.677,-4.06 -2.516,-8.738 -2.516,-14.034 0,-5.296 0.839,-9.974 2.516,-14.034 1.677,-4.061 4.06,-7.474 7.149,-10.239 3.089,-2.767 6.81,-4.855 11.166,-6.267 4.354,-1.412 9.179,-2.118 14.475,-2.118 5.296,0 10.107,0.706 14.432,2.118 4.325,1.412 8.032,3.5 11.121,6.267 3.089,2.765 5.486,6.178 7.194,10.239 1.706,4.06 2.559,8.738 2.559,14.034 0,5.296 -0.853,9.974 -2.559,14.034 -1.708,4.06 -4.105,7.472 -7.194,10.239 -3.089,2.765 -6.796,4.854 -11.121,6.267 -4.325,1.412 -9.136,2.118 -14.432,2.118 -5.296,0 -10.121,-0.706 -14.475,-2.118 m 73.745,-43.78 1.235,44.133 h -14.122 l 1.324,-44.133 z m -1.06,-7.282 c -1.235,1.324 -2.824,1.986 -4.766,1.986 -2.001,0 -3.605,-0.662 -4.81,-1.986 -1.207,-1.324 -1.81,-2.868 -1.81,-4.634 0,-1.765 0.603,-3.31 1.81,-4.634 1.205,-1.324 2.809,-1.986 4.81,-1.986 2,0 3.604,0.662 4.811,1.986 1.205,1.324 1.809,2.869 1.809,4.634 0,1.766 -0.618,3.31 -1.854,4.634"
             style="fill:#faaa2d;fill-opacity:1;fill-rule:nonzero;stroke:none"
             id="path40" /></g><g
           id="g42"
           transform="translate(105.1786,517.9337)"><path
             d="m 0,0 v -61.786 h 12.798 v 18.536 h 19.013 c 4.422,0 8.385,0.486 11.894,1.456 3.507,0.971 6.47,2.384 8.887,4.237 2.416,1.854 4.274,4.118 5.571,6.797 1.296,2.677 1.946,5.722 1.946,9.135 0,3.412 -0.649,6.457 -1.945,9.135 -1.296,2.677 -3.153,4.943 -5.569,6.797 -2.416,1.853 -5.379,3.266 -8.884,4.237 C 40.205,-0.485 36.241,0 31.822,0 Z m 31.775,-6.62 c 4.648,0 8.253,-1.222 10.813,-3.663 2.56,-2.442 3.839,-6.223 3.839,-11.342 0,-5.119 -1.279,-8.901 -3.839,-11.342 -2.56,-2.442 -6.165,-3.663 -10.813,-3.663 H 12.798 v 30.01 z m 63.312,-0.883 h 0.883 l 13.24,-32.658 H 81.848 Z M 85.378,0 60.223,-61.786 h 12.71 l 5.825,15.005 h 33.541 l 5.826,-15.005 h 12.71 L 105.679,0 Z M 152.6,-24.714 V -6.62 h 40.161 V 0 h -52.959 v -61.786 h 32.658 c 4.53,0 8.502,0.442 11.916,1.324 3.412,0.883 6.266,2.148 8.561,3.796 2.295,1.646 4.016,3.603 5.164,5.869 1.147,2.265 1.721,4.781 1.721,7.547 0,2.765 -0.574,5.281 -1.721,7.547 -1.148,2.264 -2.869,4.221 -5.164,5.869 -2.295,1.647 -5.149,2.913 -8.561,3.796 -3.414,0.882 -7.386,1.324 -11.916,1.324 z m 19.86,-6.62 c 4.237,0 7.576,-1.046 10.018,-3.134 2.441,-2.089 3.663,-5.017 3.663,-8.782 0,-3.766 -1.222,-6.694 -3.663,-8.782 -2.442,-2.09 -5.781,-3.134 -10.018,-3.134 H 152.6 v 23.832 z m 79.773,25.332 c 2.617,-1.059 4.899,-2.678 6.84,-4.855 1.942,-2.177 3.487,-4.929 4.634,-8.252 1.148,-3.326 1.721,-7.253 1.721,-11.784 0,-4.532 -0.573,-8.459 -1.721,-11.783 -1.147,-3.325 -2.692,-6.077 -4.634,-8.253 -1.941,-2.178 -4.223,-3.795 -6.84,-4.855 -2.619,-1.059 -5.428,-1.588 -8.429,-1.588 -3.001,0 -5.812,0.529 -8.43,1.588 -2.619,1.06 -4.899,2.677 -6.84,4.855 -1.942,2.176 -3.487,4.928 -4.634,8.253 -1.148,3.324 -1.721,7.251 -1.721,11.783 0,4.531 0.573,8.458 1.721,11.784 1.147,3.323 2.692,6.075 4.634,8.252 1.941,2.177 4.221,3.796 6.84,4.855 2.618,1.059 5.429,1.589 8.43,1.589 3.001,0 5.81,-0.53 8.429,-1.589 m -22.905,5.649 c -4.355,-1.412 -8.076,-3.502 -11.165,-6.267 -3.09,-2.766 -5.473,-6.178 -7.15,-10.239 -1.677,-4.06 -2.516,-8.738 -2.516,-14.034 0,-5.296 0.839,-9.974 2.516,-14.034 1.677,-4.06 4.06,-7.474 7.15,-10.239 3.089,-2.766 6.81,-4.854 11.165,-6.267 4.354,-1.412 9.18,-2.118 14.476,-2.118 5.295,0 10.106,0.706 14.431,2.118 4.325,1.413 8.032,3.501 11.121,6.267 3.09,2.765 5.486,6.179 7.194,10.239 1.706,4.06 2.56,8.738 2.56,14.034 0,5.296 -0.854,9.974 -2.56,14.034 -1.708,4.061 -4.104,7.473 -7.194,10.239 -3.089,2.765 -6.796,4.855 -11.121,6.267 -4.325,1.412 -9.136,2.118 -14.431,2.118 -5.296,0 -10.122,-0.706 -14.476,-2.118 M 343.128,0 h -60.462 v -6.62 h 23.832 v -55.166 h 12.798 V -6.62 h 23.832 z m 29.408,-7.503 h 0.883 l 13.24,-32.658 H 359.297 Z M 362.827,0 337.672,-61.786 h 12.71 l 5.825,15.005 h 33.541 l 5.826,-15.005 h 12.71 L 383.128,0 Z m 100.419,0 h -60.462 v -6.62 h 23.832 v -55.166 h 12.798 V -6.62 h 23.832 z m 21.765,-22.949 V 0 h -12.799 v -61.786 h 32.658 c 9.061,0 15.888,1.751 20.478,5.252 4.59,3.5 6.885,8.223 6.885,14.167 0,5.942 -2.295,10.665 -6.885,14.166 -4.59,3.501 -11.417,5.252 -20.478,5.252 z m 19.859,-6.62 c 4.237,0 7.576,-1.074 10.019,-3.221 2.441,-2.149 3.663,-5.341 3.663,-9.577 0,-4.237 -1.222,-7.43 -3.663,-9.577 -2.443,-2.149 -5.782,-3.222 -10.019,-3.222 h -19.859 v 25.597 z m 99.165,-25.817 c -2.855,1.028 -5.326,2.603 -7.414,4.722 -2.09,2.118 -3.708,4.81 -4.855,8.076 -1.147,3.266 -1.721,7.163 -1.721,11.695 0,4.531 0.574,8.43 1.721,11.695 1.147,3.266 2.721,5.958 4.722,8.077 2,2.118 4.383,3.692 7.15,4.722 2.765,1.029 5.737,1.544 8.914,1.544 4.001,0 7.841,-0.692 11.519,-2.074 3.677,-1.383 7.194,-3.634 10.548,-6.752 l 4.413,5.296 c -3.354,3.118 -7.414,5.589 -12.181,7.414 -4.766,1.823 -9.827,2.736 -15.181,2.736 -5.296,0 -10.122,-0.706 -14.476,-2.118 -4.355,-1.412 -8.076,-3.502 -11.165,-6.267 -3.089,-2.766 -5.473,-6.178 -7.15,-10.239 -1.677,-4.06 -2.515,-8.738 -2.515,-14.034 0,-5.296 0.852,-9.974 2.559,-14.034 1.707,-4.06 4.134,-7.474 7.282,-10.239 3.148,-2.766 6.943,-4.854 11.387,-6.267 4.442,-1.412 9.429,-2.118 14.96,-2.118 5.354,0 10.416,0.913 15.182,2.736 4.766,1.824 8.827,4.295 12.181,7.415 l -4.414,5.296 c -3.354,-3.12 -6.871,-5.371 -10.547,-6.753 -3.678,-1.383 -7.518,-2.074 -11.519,-2.074 -3.413,0 -6.547,0.514 -9.4,1.545 M 684.046,0 v -61.786 h 12.798 V -6.62 h 36.189 v -55.166 h 12.798 V 0 Z M 811.174,-6.62 V 0 H 759.98 v -61.786 h 12.798 V -6.62 Z M 881.926,0 H 867.804 L 847.503,-27.804 H 832.939 V 0 H 820.14 v -61.786 h 12.799 v 27.363 h 15.446 l 20.301,-27.363 h 14.564 l -23.39,31.335 z m 40.16,-62.227 c 0.47,-0.176 1.028,-0.323 1.677,-0.441 1.176,-0.294 2.529,-0.442 4.06,-0.442 4.883,0 8.723,1.28 11.518,3.84 2.794,2.56 4.398,6.722 4.811,12.489 L 946.8,-6.62 h 27.803 v -55.166 h 12.799 V 0 h -52.518 l -3.089,-46.781 c -0.236,-3.53 -1.03,-6.032 -2.384,-7.502 -1.354,-1.472 -2.912,-2.207 -4.677,-2.207 h -2.648 z M 1055.391,-6.62 V 0 h -53.842 v -61.786 h 53.842 v 6.62 h -41.043 v 21.625 h 32.217 v 6.62 h -32.217 V -6.62 Z m 60.902,0 V 0 H 1065.1 v -61.786 h 12.798 V -6.62 Z M 1187.046,0 h -14.123 l -20.301,-27.804 h -14.563 V 0 h -12.799 v -61.786 h 12.799 v 27.363 h 15.446 l 20.301,-27.363 h 14.564 l -23.391,31.335 z m 47.407,-6.002 c 2.617,-1.059 4.898,-2.678 6.84,-4.855 1.942,-2.177 3.487,-4.929 4.634,-8.252 1.148,-3.326 1.721,-7.253 1.721,-11.784 0,-4.532 -0.573,-8.459 -1.721,-11.783 -1.147,-3.325 -2.692,-6.077 -4.634,-8.253 -1.942,-2.178 -4.223,-3.795 -6.84,-4.855 -2.619,-1.059 -5.429,-1.588 -8.43,-1.588 -3.001,0 -5.811,0.529 -8.429,1.588 -2.619,1.06 -4.899,2.677 -6.84,4.855 -1.942,2.176 -3.487,4.928 -4.634,8.253 -1.148,3.324 -1.722,7.251 -1.722,11.783 0,4.531 0.574,8.458 1.722,11.784 1.147,3.323 2.692,6.075 4.634,8.252 1.941,2.177 4.221,3.796 6.84,4.855 2.618,1.059 5.428,1.589 8.429,1.589 3.001,0 5.811,-0.53 8.43,-1.589 m -22.905,5.649 c -4.355,-1.412 -8.076,-3.502 -11.166,-6.267 -3.089,-2.766 -5.472,-6.178 -7.149,-10.239 -1.677,-4.06 -2.516,-8.738 -2.516,-14.034 0,-5.296 0.839,-9.974 2.516,-14.034 1.677,-4.06 4.06,-7.474 7.149,-10.239 3.09,-2.766 6.811,-4.854 11.166,-6.267 4.354,-1.412 9.179,-2.118 14.475,-2.118 5.296,0 10.107,0.706 14.432,2.118 4.325,1.413 8.032,3.501 11.121,6.267 3.089,2.765 5.486,6.179 7.194,10.239 1.706,4.06 2.559,8.738 2.559,14.034 0,5.296 -0.853,9.974 -2.559,14.034 -1.708,4.061 -4.105,7.473 -7.194,10.239 -3.089,2.765 -6.796,4.855 -11.121,6.267 -4.325,1.412 -9.136,2.118 -14.432,2.118 -5.296,0 -10.121,-0.706 -14.475,-2.118"
             style="fill:#faaa2d;fill-opacity:1;fill-rule:nonzero;stroke:none"
             id="path44" /></g><g
           id="g46"
           transform="translate(168.7294,562.0663)"><path
             d="m 0,0 v 61.786 h -16.77 l -33.1,-50.312 h -0.882 V 61.786 H -63.551 V 0 h 16.77 l 33.1,50.311 h 0.883 l 0,-50.311 z m 78.113,54.283 h 0.882 L 92.235,21.625 H 64.873 Z M 68.403,61.786 43.248,0 h 12.71 l 5.825,15.005 H 95.324 L 101.15,0 h 12.71 L 88.704,61.786 Z m 116.209,0 H 170.49 L 150.189,33.982 H 135.625 V 61.786 H 122.827 V 0 h 12.798 v 27.362 h 15.447 L 171.373,0 h 14.563 l -23.39,31.334 z m 72.025,0 H 242.514 L 222.213,33.982 H 207.65 V 61.786 H 194.851 V 0 h 12.799 v 27.362 h 15.446 L 243.397,0 h 14.564 L 234.57,31.334 Z m 62.385,0 -19.418,-36.189 h -0.883 l -20.742,36.189 h -14.564 l 25.156,-43.692 h 7.061 L 285.923,0 h 13.681 l 33.099,61.786 z m 22.596,0 V 0 h 12.798 v 18.536 h 19.013 c 4.422,0 8.385,0.485 11.894,1.456 3.507,0.971 6.47,2.383 8.887,4.237 2.416,1.853 4.274,4.118 5.571,6.796 1.296,2.677 1.946,5.722 1.946,9.136 0,3.412 -0.649,6.457 -1.945,9.135 -1.296,2.677 -3.153,4.943 -5.569,6.796 -2.416,1.854 -5.379,3.266 -8.884,4.237 -3.506,0.971 -7.47,1.457 -11.889,1.457 z m 31.775,-6.62 c 4.648,0 8.253,-1.222 10.813,-3.663 2.56,-2.443 3.839,-6.223 3.839,-11.342 0,-5.12 -1.279,-8.901 -3.839,-11.342 -2.56,-2.443 -6.165,-3.663 -10.813,-3.663 h -18.977 v 30.01 z m 63.312,-0.883 h 0.883 l 13.24,-32.658 H 423.466 Z M 426.996,61.786 401.841,0 h 12.71 l 5.825,15.005 h 33.541 L 459.743,0 h 12.71 l -25.156,61.786 z m 100.419,0 h -60.462 v -6.62 h 23.832 V 0 h 12.798 v 55.166 h 23.832 z m 57.953,0 V 33.541 H 549.18 V 61.786 H 536.381 V 0 h 12.799 v 26.921 h 36.188 V 0 h 12.799 V 61.786 Z M 653.5,55.784 c 2.617,-1.06 4.899,-2.679 6.84,-4.855 1.942,-2.178 3.487,-4.929 4.634,-8.253 1.148,-3.325 1.721,-7.253 1.721,-11.783 0,-4.532 -0.573,-8.46 -1.721,-11.784 -1.147,-3.325 -2.692,-6.076 -4.634,-8.252 -1.941,-2.178 -4.223,-3.796 -6.84,-4.855 -2.619,-1.059 -5.428,-1.589 -8.429,-1.589 -3.001,0 -5.812,0.53 -8.43,1.589 -2.619,1.059 -4.899,2.677 -6.84,4.855 -1.942,2.176 -3.487,4.927 -4.634,8.252 -1.148,3.324 -1.721,7.252 -1.721,11.784 0,4.53 0.573,8.458 1.721,11.783 1.147,3.324 2.692,6.075 4.634,8.253 1.941,2.176 4.221,3.795 6.84,4.855 2.618,1.059 5.429,1.588 8.43,1.588 3.001,0 5.81,-0.529 8.429,-1.588 m -22.905,5.648 c -4.355,-1.412 -8.076,-3.501 -11.165,-6.266 -3.09,-2.767 -5.473,-6.179 -7.15,-10.239 -1.677,-4.06 -2.515,-8.738 -2.515,-14.034 0,-5.296 0.838,-9.974 2.515,-14.034 1.677,-4.061 4.06,-7.474 7.15,-10.239 3.089,-2.767 6.81,-4.855 11.165,-6.267 4.354,-1.412 9.18,-2.118 14.476,-2.118 5.295,0 10.106,0.706 14.431,2.118 4.325,1.412 8.032,3.5 11.121,6.267 3.09,2.765 5.487,6.178 7.194,10.239 1.706,4.06 2.56,8.738 2.56,14.034 0,5.296 -0.854,9.974 -2.56,14.034 -1.707,4.06 -4.104,7.472 -7.194,10.239 -3.089,2.765 -6.796,4.854 -11.121,6.266 -4.325,1.413 -9.136,2.119 -14.431,2.119 -5.296,0 -10.122,-0.706 -14.476,-2.119 m 73.745,-43.779 1.236,44.133 h -14.123 l 1.324,-44.133 z m -1.059,-7.282 c -1.236,1.324 -2.825,1.986 -4.766,1.986 -2.002,0 -3.606,-0.662 -4.811,-1.986 -1.207,-1.324 -1.809,-2.868 -1.809,-4.634 0,-1.765 0.602,-3.31 1.809,-4.634 1.205,-1.324 2.809,-1.986 4.811,-1.986 1.999,0 3.603,0.662 4.81,1.986 1.205,1.324 1.809,2.869 1.809,4.634 0,1.766 -0.617,3.31 -1.853,4.634"
             style="fill:#faaa2d;fill-opacity:1;fill-rule:nonzero;stroke:none"
             id="path48" /></g><g
           id="g50"
           transform="translate(99.8827,674.6042)"><path
             d="M 0,0 V -20.742 H 10.592 L 12.357,-6.62 H 60.02 l 1.766,-14.122 H 72.377 V 0 H 64.875 V 55.166 H 15.446 L 11.916,9.268 C 11.68,6.384 10.812,4.118 9.312,2.471 7.811,0.823 6.179,0 4.413,0 Z M 27.362,48.546 H 52.076 V 0 H 18.094 c 1.06,0.588 2.03,1.353 2.913,2.295 0.764,0.764 1.47,1.735 2.118,2.913 0.647,1.176 1.029,2.529 1.148,4.06 z m 95.291,0.618 c 2.617,-1.06 4.898,-2.679 6.84,-4.855 1.942,-2.178 3.487,-4.929 4.634,-8.253 1.148,-3.325 1.721,-7.253 1.721,-11.783 0,-4.532 -0.573,-8.46 -1.721,-11.783 -1.147,-3.326 -2.692,-6.077 -4.634,-8.253 -1.942,-2.178 -4.223,-3.796 -6.84,-4.855 -2.619,-1.059 -5.429,-1.589 -8.43,-1.589 -3.001,0 -5.811,0.53 -8.429,1.589 -2.619,1.059 -4.899,2.677 -6.84,4.855 -1.942,2.176 -3.487,4.927 -4.634,8.253 -1.148,3.323 -1.722,7.251 -1.722,11.783 0,4.53 0.574,8.458 1.722,11.783 1.147,3.324 2.692,6.075 4.634,8.253 1.941,2.176 4.221,3.795 6.84,4.855 2.618,1.059 5.428,1.588 8.429,1.588 3.001,0 5.811,-0.529 8.43,-1.588 M 99.748,54.813 C 95.393,53.4 91.672,51.311 88.582,48.546 85.493,45.779 83.11,42.367 81.433,38.307 c -1.677,-4.06 -2.516,-8.738 -2.516,-14.034 0,-5.296 0.839,-9.974 2.516,-14.034 1.677,-4.06 4.06,-7.474 7.149,-10.239 3.09,-2.767 6.811,-4.855 11.166,-6.267 4.354,-1.412 9.18,-2.118 14.475,-2.118 5.296,0 10.107,0.706 14.432,2.118 4.325,1.412 8.032,3.5 11.121,6.267 3.089,2.765 5.486,6.179 7.194,10.239 1.706,4.06 2.559,8.738 2.559,14.034 0,5.296 -0.853,9.974 -2.559,14.034 -1.708,4.06 -4.105,7.472 -7.194,10.239 -3.089,2.765 -6.796,4.854 -11.121,6.267 -4.325,1.412 -9.136,2.118 -14.432,2.118 -5.295,0 -10.121,-0.706 -14.475,-2.118 m 87.161,-55.034 c -2.855,1.029 -5.326,2.604 -7.414,4.723 -2.089,2.118 -3.707,4.81 -4.855,8.076 -1.147,3.266 -1.721,7.163 -1.721,11.695 0,4.53 0.574,8.429 1.721,11.695 1.148,3.266 2.721,5.958 4.723,8.076 1.999,2.119 4.382,3.692 7.149,4.722 2.765,1.029 5.737,1.545 8.915,1.545 4.001,0 7.84,-0.692 11.518,-2.074 3.677,-1.383 7.194,-3.634 10.548,-6.752 l 4.413,5.296 c -3.354,3.118 -7.414,5.589 -12.18,7.414 -4.767,1.823 -9.828,2.736 -15.182,2.736 -5.296,0 -10.121,-0.706 -14.475,-2.118 -4.356,-1.413 -8.077,-3.502 -11.166,-6.267 -3.089,-2.767 -5.472,-6.179 -7.149,-10.239 -1.677,-4.06 -2.516,-8.738 -2.516,-14.034 0,-5.296 0.852,-9.974 2.56,-14.034 1.706,-4.06 4.133,-7.474 7.282,-10.239 3.147,-2.767 6.942,-4.855 11.386,-6.267 4.442,-1.412 9.429,-2.118 14.961,-2.118 5.354,0 10.415,0.913 15.181,2.736 4.767,1.823 8.827,4.295 12.181,7.414 l -4.413,5.296 c -3.354,-3.119 -6.871,-5.37 -10.548,-6.752 -3.678,-1.383 -7.518,-2.074 -11.519,-2.074 -3.413,0 -6.546,0.514 -9.4,1.544 m 102.546,55.387 h -60.462 v -6.62 h 23.832 V -6.62 h 12.798 v 55.166 h 23.832 z m 29.409,-7.503 h 0.882 l 13.24,-32.658 h -27.362 z m -9.709,7.503 -25.156,-61.786 h 12.71 l 5.826,15.005 h 33.54 l 5.826,-15.005 h 12.71 L 329.456,55.166 Z M 363.578,-6.62 h 32.658 c 9.474,0 16.402,1.545 20.787,4.634 4.383,3.089 6.575,7.282 6.575,12.578 0,4.001 -1.25,7.282 -3.751,9.841 -2.502,2.56 -5.958,4.281 -10.371,5.164 3.531,1.117 6.179,2.824 7.944,5.119 1.765,2.295 2.648,5.001 2.648,8.121 0,2.412 -0.53,4.618 -1.589,6.62 -1.059,1.999 -2.678,3.72 -4.855,5.163 -2.177,1.441 -4.929,2.56 -8.252,3.354 -3.325,0.794 -7.253,1.192 -11.784,1.192 h -30.01 z m 32.658,28.245 c 4.414,0 7.797,-0.898 10.151,-2.692 2.353,-1.796 3.53,-4.576 3.53,-8.341 0,-3.531 -1.177,-6.179 -3.53,-7.944 C 404.033,0.883 400.65,0 396.236,0 h -19.859 v 21.625 z m -19.859,6.62 v 20.301 h 17.211 c 4.237,0 7.428,-0.839 9.577,-2.516 2.147,-1.677 3.222,-4.075 3.222,-7.193 0,-7.062 -4.267,-10.592 -12.799,-10.592 z M 498.358,-6.62 v 61.786 h -16.77 l -33.1,-50.311 h -0.883 V 55.166 H 434.807 V -6.62 h 16.77 l 33.1,50.311 h 0.882 V -6.62 Z M 531.43,55.166 H 512.453 V -6.62 h 12.798 v 49.429 h 0.883 L 547.317,-6.62 h 15.005 l 21.184,49.429 h 0.883 V -6.62 h 12.798 V 55.166 H 578.21 L 555.261,2.207 h -0.883 z m 127.1,-24.715 v 18.095 h 40.16 v 6.62 H 645.731 V -6.62 h 32.658 c 4.531,0 8.503,0.441 11.916,1.324 3.412,0.883 6.267,2.147 8.562,3.796 2.295,1.646 4.016,3.603 5.163,5.869 1.148,2.265 1.721,4.78 1.721,7.547 0,2.765 -0.573,5.281 -1.721,7.546 -1.147,2.265 -2.868,4.222 -5.163,5.87 -2.295,1.647 -5.15,2.913 -8.562,3.796 -3.413,0.882 -7.385,1.323 -11.916,1.323 z m 19.859,-6.619 c 4.237,0 7.576,-1.046 10.018,-3.134 2.442,-2.089 3.663,-5.017 3.663,-8.782 0,-3.767 -1.221,-6.695 -3.663,-8.783 C 685.965,1.044 682.626,0 678.389,0 H 658.53 V 23.832 Z M 795.587,55.166 H 782.789 V -6.62 h 12.798 z M 728.505,32.217 V 55.166 H 715.707 V -6.62 H 746.6 c 9.061,0 15.887,1.75 20.477,5.252 4.59,3.5 6.885,8.222 6.885,14.166 0,5.943 -2.295,10.665 -6.885,14.167 -4.59,3.5 -11.416,5.252 -20.477,5.252 z m 18.095,-6.62 c 4.236,0 7.575,-1.074 10.018,-3.222 2.441,-2.148 3.663,-5.34 3.663,-9.577 0,-4.236 -1.222,-7.429 -3.663,-9.576 C 754.175,1.073 750.836,0 746.6,0 h -18.095 v 25.597 z m 88.203,-25.818 c -2.855,1.029 -5.327,2.604 -7.415,4.723 -2.089,2.118 -3.707,4.81 -4.854,8.076 -1.148,3.266 -1.721,7.163 -1.721,11.695 0,4.53 0.573,8.429 1.721,11.695 1.147,3.266 2.721,5.958 4.722,8.076 2,2.119 4.383,3.692 7.15,4.722 2.765,1.029 5.737,1.545 8.914,1.545 4.001,0 7.841,-0.692 11.519,-2.074 3.677,-1.383 7.193,-3.634 10.548,-6.752 l 4.413,5.296 c -3.354,3.118 -7.414,5.589 -12.181,7.414 -4.766,1.823 -9.827,2.736 -15.181,2.736 -5.296,0 -10.122,-0.706 -14.476,-2.118 -4.355,-1.413 -8.076,-3.502 -11.165,-6.267 -3.09,-2.767 -5.473,-6.179 -7.15,-10.239 -1.677,-4.06 -2.515,-8.738 -2.515,-14.034 0,-5.296 0.852,-9.974 2.559,-14.034 1.706,-4.06 4.134,-7.474 7.282,-10.239 3.147,-2.767 6.943,-4.855 11.386,-6.267 4.443,-1.412 9.43,-2.118 14.961,-2.118 5.354,0 10.416,0.913 15.182,2.736 4.766,1.823 8.826,4.295 12.18,7.414 l -4.413,5.296 c -3.354,-3.119 -6.871,-5.37 -10.547,-6.752 -3.679,-1.383 -7.518,-2.074 -11.519,-2.074 -3.413,0 -6.547,0.514 -9.4,1.544 m 102.546,55.387 h -60.462 v -6.62 h 23.832 V -6.62 h 12.798 v 55.166 h 23.832 z m 8.966,0 V -6.62 h 12.798 v 18.536 h 19.013 c 4.422,0 8.386,0.485 11.894,1.456 3.507,0.971 6.47,2.383 8.887,4.237 2.416,1.853 4.274,4.118 5.571,6.796 1.296,2.677 1.946,5.722 1.946,9.136 0,3.412 -0.649,6.457 -1.945,9.135 -1.296,2.677 -3.153,4.943 -5.569,6.797 -2.416,1.853 -5.379,3.265 -8.884,4.236 -3.506,0.971 -7.47,1.457 -11.889,1.457 z m 31.775,-6.62 c 4.648,0 8.253,-1.222 10.813,-3.663 2.56,-2.443 3.84,-6.223 3.84,-11.342 0,-5.12 -1.28,-8.901 -3.84,-11.342 -2.56,-2.443 -6.165,-3.663 -10.813,-3.663 h -18.977 v 30.01 z m 81.151,0.618 c 2.617,-1.06 4.899,-2.679 6.84,-4.855 1.942,-2.178 3.487,-4.929 4.634,-8.253 1.148,-3.325 1.721,-7.253 1.721,-11.783 0,-4.532 -0.573,-8.46 -1.721,-11.783 -1.147,-3.326 -2.692,-6.077 -4.634,-8.253 -1.941,-2.178 -4.223,-3.796 -6.84,-4.855 -2.619,-1.059 -5.428,-1.589 -8.43,-1.589 -3.001,0 -5.811,0.53 -8.429,1.589 -2.619,1.059 -4.899,2.677 -6.84,4.855 -1.942,2.176 -3.487,4.927 -4.634,8.253 -1.148,3.323 -1.721,7.251 -1.721,11.783 0,4.53 0.573,8.458 1.721,11.783 1.147,3.324 2.692,6.075 4.634,8.253 1.941,2.176 4.221,3.795 6.84,4.855 2.618,1.059 5.428,1.588 8.429,1.588 3.002,0 5.811,-0.529 8.43,-1.588 m -22.905,5.649 c -4.355,-1.413 -8.076,-3.502 -11.166,-6.267 -3.089,-2.767 -5.472,-6.179 -7.149,-10.239 -1.677,-4.06 -2.516,-8.738 -2.516,-14.034 0,-5.296 0.839,-9.974 2.516,-14.034 1.677,-4.06 4.06,-7.474 7.149,-10.239 3.09,-2.767 6.811,-4.855 11.166,-6.267 4.354,-1.412 9.18,-2.118 14.475,-2.118 5.296,0 10.107,0.706 14.432,2.118 4.325,1.412 8.032,3.5 11.121,6.267 3.089,2.765 5.486,6.179 7.194,10.239 1.706,4.06 2.56,8.738 2.56,14.034 0,5.296 -0.854,9.974 -2.56,14.034 -1.708,4.06 -4.105,7.472 -7.194,10.239 -3.089,2.765 -6.796,4.854 -11.121,6.267 -4.325,1.412 -9.136,2.118 -14.432,2.118 -5.295,0 -10.121,-0.706 -14.475,-2.118"
             style="fill:#faaa2d;fill-opacity:1;fill-rule:nonzero;stroke:none"
             id="path52" /></g></g></g><path
       d="m 1425.5,0.5 h 494 v 1078.999 h -494 z"
       style="fill:#e8e8ed;fill-opacity:1;fill-rule:nonzero;stroke:none"
       id="path54" /><text
       transform="matrix(1,0,0,-0.97087379,1485,961.3)"
       style="font-variant:normal;font-weight:300;font-stretch:normal;font-size:20.6px;font-family:'Rubik Light';-inkscape-font-specification:Rubik-Light;writing-mode:lr-tb;fill:#000000;fill-opacity:1;fill-rule:nonzero;stroke:none"
       id="text58"><tspan
         x="0 13.4518 18.7666 29.313801 40.3554 51.911999 63.406799 74.571999 86.849602 97.541 108.2118 113.5266 125.8042 137.0518 148.0934 158.3316 169.3732 181.05341 193.33099 204.8876 214.69321 226.97079 238.46561 250.74319 256.05801 268.3356 273.65039 285.92801"
         y="0"
         id="tspan56">В условиях нестабильной и из</tspan></text><text
       transform="matrix(1,0,0,-0.97087379,1781.0596,961.3)"
       style="font-variant:normal;font-weight:300;font-stretch:normal;font-size:20.6px;font-family:'Rubik Light';-inkscape-font-specification:Rubik-Light;writing-mode:lr-tb;fill:#000000;fill-opacity:1;fill-rule:nonzero;stroke:none"
       id="text62"><tspan
         x="0"
         y="0"
         id="tspan60">-</tspan></text><text
       transform="matrix(1,0,0,-0.97087379,1485,935.3)"
       style="font-variant:normal;font-weight:300;font-stretch:normal;font-size:20.6px;font-family:'Rubik Light';-inkscape-font-specification:Rubik-Light;writing-mode:lr-tb;fill:#000000;fill-opacity:1;fill-rule:nonzero;stroke:none"
       id="text68"><tspan
         x="0 13.6784 24.926001 37.203602 48.059799 60.337399 71.502602 82.997398 95.275002 100.5898 110.4984 121.9932 134.2708 145.37421 161.092 173.3696 183.7932 194.0314 204.9288 216.8974 230.47279 235.7876 247.7562 261.3316 273.60919 284.03281 295.0744"
         y="0"
         id="tspan64">менчивой конъюнктуры рынка </tspan><tspan
         x="0 11.1652 16.48 28.016001 40.705601 52.2416 64.931198 70.246002 78.609596 90.104401 101.97 112.8674 118.1822 131.8606 145.436 150.75079 163.0284 174.276 179.59081 189.82899 201.1178 212.67439 222.48 232.3886 243.88341 249.1982 260.23981 271.73459 282.4054 294.37399"
         y="26.780001"
         id="tspan66">в 2020 году мы не только сохра</tspan></text><text
       transform="matrix(1,0,0,-0.97087379,1790.4127,909.3)"
       style="font-variant:normal;font-weight:300;font-stretch:normal;font-size:20.6px;font-family:'Rubik Light';-inkscape-font-specification:Rubik-Light;writing-mode:lr-tb;fill:#000000;fill-opacity:1;fill-rule:nonzero;stroke:none"
       id="text72"><tspan
         x="0"
         y="0"
         id="tspan70">-</tspan></text><text
       transform="matrix(1,0,0,-0.97087379,1485,883.3)"
       style="font-variant:normal;font-weight:300;font-stretch:normal;font-size:20.6px;font-family:'Rubik Light';-inkscape-font-specification:Rubik-Light;writing-mode:lr-tb;fill:#000000;fill-opacity:1;fill-rule:nonzero;stroke:none"
       id="text76"><tspan
         x="0 12.2776 24.555201 36.111801 48.3894 53.704201 64.251404 75.292999 85.531197 97.026001 109.3036 120.1598 132.43739 143.6026 155.0974 166.13901 176.3772 186.1828 191.065 196.37981 208.65739 220.15221 225.467 237.7446 243.0594 255.33701 266.3786 278.3472"
         y="0"
         id="tspan74">нили устойчивость, но и нара</tspan></text><text
       transform="matrix(1,0,0,-0.97087379,1774.3856,883.3)"
       style="font-variant:normal;font-weight:300;font-stretch:normal;font-size:20.6px;font-family:'Rubik Light';-inkscape-font-specification:Rubik-Light;writing-mode:lr-tb;fill:#000000;fill-opacity:1;fill-rule:nonzero;stroke:none"
       id="text80"><tspan
         x="0"
         y="0"
         id="tspan78">-</tspan></text><text
       transform="matrix(1,0,0,-0.97087379,1485,857.3)"
       style="font-variant:normal;font-weight:300;font-stretch:normal;font-size:20.6px;font-family:'Rubik Light';-inkscape-font-specification:Rubik-Light;writing-mode:lr-tb;fill:#000000;fill-opacity:1;fill-rule:nonzero;stroke:none"
       id="text90"><tspan
         x="0 11.0416 21.2798 33.5574 45.113998 57.391602 62.706402 72.944603 84.1922 97.870598 109.7362 123.3116 128.6264 140.595 151.6366 161.7718 172.937 185.2146 195.4528 207.73039 218.4218 223.3246 228.6394 240.6698 252.1646 265.84299 277.70859 288.75021 301.0278 313.30539 323.9968"
         y="0"
         id="tspan82">стили темпы развития. Компания </tspan><tspan
         x="0 10.8974 22.062599 33.227798 44.784401 57.062 67.918198 80.195801 91.752403 102.794 108.1088 118.5324 130.089 142.36659 153.6142 165.8918 176.13 187.1716 197.5952 209.8728 222.15041 227.46519 239.3308 250.82561 262.79419 273.03241 287.01981 298.185 309.74161 319.54721 324.42941"
         y="26.780001"
         id="tspan84">увеличила клиентский портфель, </tspan><tspan
         x="0 11.8656 23.8342 36.111801 48.080399 59.575199 70.616798 82.173401 93.214996 98.5298 109.695 115.0098 126.5046 138.1848 149.28819 160.5358 174.2142 185.2558 195.92661 201.24139 213.10699 224.3546 236.3232 247.5708 258.73599 270.2308 280.366 291.86081 302.28439 307.1666"
         y="53.560001"
         id="tspan86">приросла в объемах перевозок, </tspan><tspan
         x="0 10.5472 21.5888 31.4974 42.992199 54.9608 67.238403 78.794998 89.836601 95.151398 107.532 119.8096 133.797 145.76559 157.26041 168.4256 179.323 195.0408 200.35561 210.5938 222.56239 233.604 245.88161 256.92319 270.91061 282.4054 294.37399 308.0524"
         y="80.339996"
         id="tspan88">ускорила цифровую трансформа</tspan></text><text
       transform="matrix(1,0,0,-0.97087379,1804.0902,779.3)"
       style="font-variant:normal;font-weight:300;font-stretch:normal;font-size:20.6px;font-family:'Rubik Light';-inkscape-font-specification:Rubik-Light;writing-mode:lr-tb;fill:#000000;fill-opacity:1;fill-rule:nonzero;stroke:none"
       id="text94"><tspan
         x="0"
         y="0"
         id="tspan92">-</tspan></text><text
       transform="matrix(1,0,0,-0.97087379,1485,753.3)"
       style="font-variant:normal;font-weight:300;font-stretch:normal;font-size:20.6px;font-family:'Rubik Light';-inkscape-font-specification:Rubik-Light;writing-mode:lr-tb;fill:#000000;fill-opacity:1;fill-rule:nonzero;stroke:none"
       id="text102"><tspan
         x="0 12.3806 24.658199 40.128799 45.031601 50.346401 66.414398 79.989799 85.304604 97.170197 109.1388 121.4164 132.45799 142.6962 153.5936 165.4592 177.7368 189.2934 201.571 206.8858 217.3094 222.62421 236.3026 247.34419 258.3858 274.2272 284.46539 295.50699 307.18719 319.46481 330.95959 343.23721"
         y="0"
         id="tspan96">цию. Мы приступили к масштабной </tspan><tspan
         x="0 11.4948 23.360399 33.598598 45.876202 59.5546 71.832199 81.9674 93.009003 105.3896 117.6672 129.94479 135.2596 146.9398 159.21741 169.3526 181.6302 192.87781 203.9194 213.9516 225.8172 237.7858 249.28059 261.66119 272.90881 283.95041 294.992 306.48679 317.65201 322.53421"
         y="26.780001"
         id="tspan98">оптимизации бизнес-процессов, </tspan><tspan
         x="0 12.2776 23.319201 35.699799 46.865002 58.4216 69.669197 81.9468 94.224403 105.7192 117.9968 123.3116 135.5892 146.6308 151.9456 163.8112 175.306 186.47121 200.0466 215.888 227.1356 239.41319 251.6908 262.93839 268.2532 279.74799 291.61359 302.86121 314.8298"
         y="53.560001"
         id="tspan100">нацеленной на повышение опера</tspan></text><text
       transform="matrix(1,0,0,-0.97087379,1810.8674,701.3)"
       style="font-variant:normal;font-weight:300;font-stretch:normal;font-size:20.6px;font-family:'Rubik Light';-inkscape-font-specification:Rubik-Light;writing-mode:lr-tb;fill:#000000;fill-opacity:1;fill-rule:nonzero;stroke:none"
       id="text106"><tspan
         x="0"
         y="0"
         id="tspan104">-</tspan></text><text
       transform="matrix(1,0,0,-0.97087379,1485,675.3)"
       style="font-variant:normal;font-weight:300;font-stretch:normal;font-size:20.6px;font-family:'Rubik Light';-inkscape-font-specification:Rubik-Light;writing-mode:lr-tb;fill:#000000;fill-opacity:1;fill-rule:nonzero;stroke:none"
       id="text110"><tspan
         x="0 12.3806 24.658199 36.153 48.430599 60.708199 72.203003 84.480598 89.795403 100.837 114.8244 128.8118 140.0594 150.483 160.72121 172.99879 184.164 196.4416 207.9364 218.978 229.2162 241.4938 246.80859 259.08621 264.401 274.82458 286.3812 298.65881 309.9064 322.18399"
         y="0"
         id="tspan108">ционной эффективности и клиент</tspan></text><text
       transform="matrix(1,0,0,-0.97087379,1817.4181,675.3)"
       style="font-variant:normal;font-weight:300;font-stretch:normal;font-size:20.6px;font-family:'Rubik Light';-inkscape-font-specification:Rubik-Light;writing-mode:lr-tb;fill:#000000;fill-opacity:1;fill-rule:nonzero;stroke:none"
       id="text114"><tspan
         x="0"
         y="0"
         id="tspan112">-</tspan></text><text
       transform="matrix(1,0,0,-0.97087379,1485,649.3)"
       style="font-variant:normal;font-weight:300;font-stretch:normal;font-size:20.6px;font-family:'Rubik Light';-inkscape-font-specification:Rubik-Light;writing-mode:lr-tb;fill:#000000;fill-opacity:1;fill-rule:nonzero;stroke:none"
       id="text118"><tspan
         x="0 11.0416 20.950199 32.445 40.808601 52.303398 57.618198 68.659798 79.907402 91.875999 103.0412 115.3188 126.3604 137.40199 142.30479 147.6196 161.0714 166.3862 177.9222 190.6118 202.1478 210.3466 215.66141 224.02499 235.51981 247.38541 258.28281 263.5976 275.87521 286.91681 300.59521 311.8428 323.8114"
         y="0"
         id="tspan116">ского сервиса. В 2021 году намере</tspan></text><text
       transform="matrix(1,0,0,-0.97087379,1820.0557,649.3)"
       style="font-variant:normal;font-weight:300;font-stretch:normal;font-size:20.6px;font-family:'Rubik Light';-inkscape-font-specification:Rubik-Light;writing-mode:lr-tb;fill:#000000;fill-opacity:1;fill-rule:nonzero;stroke:none"
       id="text122"><tspan
         x="0"
         y="0"
         id="tspan120">-</tspan></text><text
       transform="matrix(1,0,0,-0.97087379,1485,623.3)"
       style="font-variant:normal;font-weight:300;font-stretch:normal;font-size:20.6px;font-family:'Rubik Light';-inkscape-font-specification:Rubik-Light;writing-mode:lr-tb;fill:#000000;fill-opacity:1;fill-rule:nonzero;stroke:none"
       id="text130"><tspan
         x="0 12.2776 25.853001 31.167801 41.715 52.756599 65.034203 76.590797 88.868401 99.106598 108.9122 114.227 125.2686 135.50681 146.40421 151.71899 163.68761 174.7292 186.40939 197.90421 208.1424 219.03979 224.3546 236.6322 241.94701 252.1852 263.4328 277.11121 282.42599 293.46759 304.50919 318.18759 331.763 345.44141"
         y="0"
         id="tspan124">ны усилить эту работу и тем самым </tspan><tspan
         x="0 10.1352 21.1768 32.733398 44.228199 59.6576 71.935204 82.173401 91.978996 97.2938 107.7174 118.0174 129.57401 139.37959 149.6178 160.5152 172.09241 182.98981 188.3046 200.5822 211.8298 223.6954 235.664 246.91161 258.88019 272.4556 283.62079 295.89841 309.47379 320.14459"
         y="26.780001"
         id="tspan126">заложить культуру непрерывных </tspan><tspan
         x="0 10.3 21.8566 32.754002 43.610199 59.451599 70.699203 82.976799 95.254402 107.532 112.8468 124.012 129.3268 141.35719 152.85201 166.5304 178.396 189.43761 201.71519 213.9928 226.2704 231.1732 236.48801 249.89861 261.76419 273.259 284.3006 295.79541"
         y="53.560001"
         id="tspan128">улучшений в Компании. Способ</tspan></text><text
       transform="matrix(1,0,0,-0.97087379,1792.4717,571.3)"
       style="font-variant:normal;font-weight:300;font-stretch:normal;font-size:20.6px;font-family:'Rubik Light';-inkscape-font-specification:Rubik-Light;writing-mode:lr-tb;fill:#000000;fill-opacity:1;fill-rule:nonzero;stroke:none"
       id="text134"><tspan
         x="0"
         y="0"
         id="tspan132">-</tspan></text><text
       transform="matrix(1,0,0,-0.97087379,1485,545.3)"
       style="font-variant:normal;font-weight:300;font-stretch:normal;font-size:20.6px;font-family:'Rubik Light';-inkscape-font-specification:Rubik-Light;writing-mode:lr-tb;fill:#000000;fill-opacity:1;fill-rule:nonzero;stroke:none"
       id="text138"><tspan
         x="0 12.2776 23.7724 34.813999 45.0522 54.8578 60.1726 73.850998 85.098602 97.376198 108.0676 118.3058 128.1114 139.153 149.84441 155.15919 166.20081 171.51559 182.41299 193.2692 204.5168 214.755 226.2498 239.92821 245.243 255.4812 267.4498 278.69739 290.37759"
         y="0"
         id="tspan136">ность меняться с учетом требо</tspan></text><text
       transform="matrix(1,0,0,-0.97087379,1786.8687,545.3)"
       style="font-variant:normal;font-weight:300;font-stretch:normal;font-size:20.6px;font-family:'Rubik Light';-inkscape-font-specification:Rubik-Light;writing-mode:lr-tb;fill:#000000;fill-opacity:1;fill-rule:nonzero;stroke:none"
       id="text142"><tspan
         x="0"
         y="0"
         id="tspan140">-</tspan></text><text
       transform="matrix(1,0,0,-0.97087379,1485,519.3)"
       style="font-variant:normal;font-weight:300;font-stretch:normal;font-size:20.6px;font-family:'Rubik Light';-inkscape-font-specification:Rubik-Light;writing-mode:lr-tb;fill:#000000;fill-opacity:1;fill-rule:nonzero;stroke:none"
       id="text146"><tspan
         x="0 11.1652 22.2068 34.484402 46.762001 59.0396 64.354401 76.322998 89.898399 102.176 112.5996 123.6412 128.95599 140.5126 151.76019 167.18961 179.46719 189.7054 195.0202 206.18539 211.5002 222.995 234.03661 246.31419 257.80899 268.97421 280.2218 285.53659 295.44519 306.94"
         y="0"
         id="tspan144">ваний рынка лежит в основе кон</tspan></text><text
       transform="matrix(1,0,0,-0.97087379,1804.214,519.3)"
       style="font-variant:normal;font-weight:300;font-stretch:normal;font-size:20.6px;font-family:'Rubik Light';-inkscape-font-specification:Rubik-Light;writing-mode:lr-tb;fill:#000000;fill-opacity:1;fill-rule:nonzero;stroke:none"
       id="text150"><tspan
         x="0"
         y="0"
         id="tspan148">-</tspan></text><text
       transform="matrix(1,0,0,-0.97087379,1485,493.3)"
       style="font-variant:normal;font-weight:300;font-stretch:normal;font-size:20.6px;font-family:'Rubik Light';-inkscape-font-specification:Rubik-Light;writing-mode:lr-tb;fill:#000000;fill-opacity:1;fill-rule:nonzero;stroke:none"
       id="text156"><tspan
         x="0 10.4236 21.320999 33.2896 44.537201 56.8148 67.053001 78.547798 89.589401 101.455 112.9498 123.9914 135.48621 147.1664 159.444 170.9388 181.98039 192.2186 204.4962 209.811 221.67661 232.92419 244.89281 256.14041 268.00601 279.50079 290.66599 304.24139 314.9122"
         y="0"
         id="tspan152">курентоспособности передовых </tspan><tspan
         x="0 9.9085999 21.4034 35.081799 46.947399 57.988998 70.266602 82.544197 94.8218 99.724602 105.0394 119.4594 130.50101 146.34241 151.6572 162.8224 174.07001 184.49361 194.7318 206.22659 218.19521 223.50999 235.47861 246.9734 258.01501 268.2532 279.2948 284.60959 294.74481 305.78641 317.34299"
         y="26.780001"
         id="tspan154">компаний. Наш вектор роста зало</tspan></text><text
       transform="matrix(1,0,0,-0.97087379,1813.8341,467.3)"
       style="font-variant:normal;font-weight:300;font-stretch:normal;font-size:20.6px;font-family:'Rubik Light';-inkscape-font-specification:Rubik-Light;writing-mode:lr-tb;fill:#000000;fill-opacity:1;fill-rule:nonzero;stroke:none"
       id="text160"><tspan
         x="0"
         y="0"
         id="tspan158">-</tspan></text><text
       transform="matrix(1,0,0,-0.97087379,1485,441.3)"
       style="font-variant:normal;font-weight:300;font-stretch:normal;font-size:20.6px;font-family:'Rubik Light';-inkscape-font-specification:Rubik-Light;writing-mode:lr-tb;fill:#000000;fill-opacity:1;fill-rule:nonzero;stroke:none"
       id="text164"><tspan
         x="0 15.4294 26.677 38.954601 44.269402 55.434601 60.749401 74.160004 84.398201 96.366798 107.4084 117.6466 128.8942 137.505 149.78259 162.0602 171.16541 182.7014 195.39101 206.927 218.7926 223.6748 228.98959 238.89819 250.39301 260.6312 272.12601 284.0946 295.1362 305.82761 311.1424 323.42001"
         y="0"
         id="tspan162">жен в Стратегии-2023, которая на</tspan></text><text
       transform="matrix(1,0,0,-0.97087379,1819.4581,441.3)"
       style="font-variant:normal;font-weight:300;font-stretch:normal;font-size:20.6px;font-family:'Rubik Light';-inkscape-font-specification:Rubik-Light;writing-mode:lr-tb;fill:#000000;fill-opacity:1;fill-rule:nonzero;stroke:none"
       id="text168"><tspan
         x="0"
         y="0"
         id="tspan166">-</tspan></text><text
       transform="matrix(1,0,0,-0.97087379,1485,415.3)"
       style="font-variant:normal;font-weight:300;font-stretch:normal;font-size:20.6px;font-family:'Rubik Light';-inkscape-font-specification:Rubik-Light;writing-mode:lr-tb;fill:#000000;fill-opacity:1;fill-rule:nonzero;stroke:none"
       id="text174"><tspan
         x="0 12.3806 23.545799 35.102402 46.349998 58.627602 69.669197 74.984001 87.261597 98.3032 103.618 114.5154 124.939 136.90759 148.1552 160.0208 171.57739 182.825 195.1026 207.3802 218.62781 223.9426 235.49921 247.77679 259.6424 270.89001 282.85861 293.90021 304.32379 316.60141 327.27219"
         y="0"
         id="tspan170">целена на укрепление лидерских </tspan><tspan
         x="0 11.8656 23.360399 33.495602 45.773201 58.153801 70.431396 82.709 88.023804 99.189003 104.5038 115.5454 129.53281 140.7804 152.74899 163.9966 169.3114 184.7408 195.90601 207.4626 218.71021 228.8454 241.123 252.6178 264.4834 275.97821 287.94681 299.44159"
         y="26.780001"
         id="tspan172">позиций в сфере железнодорож</tspan></text><text
       transform="matrix(1,0,0,-0.97087379,1799.8669,389.3)"
       style="font-variant:normal;font-weight:300;font-stretch:normal;font-size:20.6px;font-family:'Rubik Light';-inkscape-font-specification:Rubik-Light;writing-mode:lr-tb;fill:#000000;fill-opacity:1;fill-rule:nonzero;stroke:none"
       id="text178"><tspan
         x="0"
         y="0"
         id="tspan176">-</tspan></text><text
       transform="matrix(1,0,0,-0.97087379,1485,363.3)"
       style="font-variant:normal;font-weight:300;font-stretch:normal;font-size:20.6px;font-family:'Rubik Light';-inkscape-font-specification:Rubik-Light;writing-mode:lr-tb;fill:#000000;fill-opacity:1;fill-rule:nonzero;stroke:none"
       id="text182"><tspan
         x="0 12.2776 25.853001 36.5238 41.8386 53.704201 64.951797 76.920403 88.167999 99.333199 110.828 120.9632 132.45799 142.88161 147.76379 153.0786 164.2438 177.8192 188.86079 199.099 211.0676 222.10921 234.3868 245.552 256.5936 268.87119 281.1488 292.39639 297.71121 309.57681 320.8656"
         y="0"
         id="tspan180">ных перевозок, выстраивание дол</tspan></text><text
       transform="matrix(1,0,0,-0.97087379,1817.4182,363.3)"
       style="font-variant:normal;font-weight:300;font-stretch:normal;font-size:20.6px;font-family:'Rubik Light';-inkscape-font-specification:Rubik-Light;writing-mode:lr-tb;fill:#000000;fill-opacity:1;fill-rule:nonzero;stroke:none"
       id="text186"><tspan
         x="0"
         y="0"
         id="tspan184">-</tspan></text><text
       transform="matrix(1,0,0,-0.97087379,1485,337.3)"
       style="font-variant:normal;font-weight:300;font-stretch:normal;font-size:20.6px;font-family:'Rubik Light';-inkscape-font-specification:Rubik-Light;writing-mode:lr-tb;fill:#000000;fill-opacity:1;fill-rule:nonzero;stroke:none"
       id="text190"><tspan
         x="0 8.3635998 19.8584 30.9 42.868599 54.3634 65.219597 77.4972 91.072601 101.7434 107.0582 118.553 128.7912 141.0688 152.5636 168.405 179.6526 191.93021 204.20779 216.4854 221.8002 232.8418 238.1566 250.0222 261.06381 273.03241 283.2706 295.54819 306.79581 318.7644"
         y="0"
         id="tspan188">госрочных отношений с партнера</tspan></text><text
       transform="matrix(1,0,0,-0.97087379,1814.8025,337.3)"
       style="font-variant:normal;font-weight:300;font-stretch:normal;font-size:20.6px;font-family:'Rubik Light';-inkscape-font-specification:Rubik-Light;writing-mode:lr-tb;fill:#000000;fill-opacity:1;fill-rule:nonzero;stroke:none"
       id="text194"><tspan
         x="0"
         y="0"
         id="tspan192">-</tspan></text><text
       transform="matrix(1,0,0,-0.97087379,1485,311.3)"
       style="font-variant:normal;font-weight:300;font-stretch:normal;font-size:20.6px;font-family:'Rubik Light';-inkscape-font-specification:Rubik-Light;writing-mode:lr-tb;fill:#000000;fill-opacity:1;fill-rule:nonzero;stroke:none"
       id="text202"><tspan
         x="0 13.6784 25.955999 30.8382 36.091202 48.368801 59.4104 71.276001 82.564796 94.121399 103.927 114.0622 125.557 136.7222 147.76379 160.0414 172.319 183.5666 188.8196 200.37621 211.27361 222.12981 237.97121 250.24879 260.91959 266.17261 279.85101 292.1286 304.0972 315.59201 326.7572 340.33261 351.00339"
         y="0"
         id="tspan196">ми, использование лучших мировых </tspan><tspan
         x="0 11.8656 23.8342 34.875801 45.2994 55.537601 67.815201 78.2388 83.553596 94.718803 100.0336 111.8992 123.8678 135.36259 147.74319 158.9908 170.03239 181.07401 192.1156 202.78641 208.1012 220.3788 225.6936 236.2408 247.28239 258.83899 269.73639 278.3472 289.38879 300.0596 304.9418"
         y="26.780001"
         id="tspan198">практик в процессах и услугах, </tspan><tspan
         x="0 11.9686 23.010201 33.145401 45.113998 56.155602 67.8358 79.330597 89.568802 99.992401 110.8898 116.2046 128.48219 140.7598 153.0374 164.5322 175.6974 186.739 199.1196 211.3972 222.892 235.1696 247.4472 261.02261 271.69339 277.00821 288.97681 300.2244 316.0658"
         y="53.560001"
         id="tspan200">разработку инновационных реше</tspan></text><text
       transform="matrix(1,0,0,-0.97087379,1812.3096,259.3)"
       style="font-variant:normal;font-weight:300;font-stretch:normal;font-size:20.6px;font-family:'Rubik Light';-inkscape-font-specification:Rubik-Light;writing-mode:lr-tb;fill:#000000;fill-opacity:1;fill-rule:nonzero;stroke:none"
       id="text206"><tspan
         x="0"
         y="0"
         id="tspan204">-</tspan></text><text
       transform="matrix(1,0,0,-0.97087379,1485,233.3)"
       style="font-variant:normal;font-weight:300;font-stretch:normal;font-size:20.6px;font-family:'Rubik Light';-inkscape-font-specification:Rubik-Light;writing-mode:lr-tb;fill:#000000;fill-opacity:1;fill-rule:nonzero;stroke:none"
       id="text212"><tspan
         x="0 12.2776 24.555201 36.832802 41.715 47.0298 59.3074 70.555 82.420601 94.389198 105.6368 117.6054 131.1808 142.34599 154.6236 166.11839 177.366 182.6808 194.9584 206 217.9686 229.01019 245.38721 257.66479 268.82999 279.87161 292.1492 304.42679 315.67441"
         y="0"
         id="tspan208">ний, непрерывное наращивание </tspan><tspan
         x="0 11.9686 23.2162 34.257801 45.155201 57.123798 68.165398 80.443001 91.937798 100.3014 111.7962 117.111 128.97659 140.47141 150.70959 161.9572 174.2348 186.6154 198.89301 209.9346 221.4912 232.53281"
         y="26.780001"
         id="tspan210">ресурсного потенциала.</tspan></text><text
       transform="matrix(1,0,0,-0.97087379,1485,129.3)"
       style="font-variant:normal;font-weight:500;font-stretch:normal;font-size:20.6px;font-family:'Rubik Medium';-inkscape-font-specification:Rubik-Medium;writing-mode:lr-tb;fill:#000000;fill-opacity:1;fill-rule:nonzero;stroke:none"
       id="text216"><tspan
         x="0 14.111 26.017799 38.666199 47.6684 59.575199 72.429604 77.126404 90.969597 102.7528 115.4012 127.1844 138.123 149.9062 161.813"
         y="0"
         id="tspan214">Сергей Каратаев</tspan></text><text
       transform="matrix(1,0,0,-0.97087379,1485,103.3)"
       style="font-variant:normal;font-weight:300;font-stretch:normal;font-size:20.6px;font-family:'Rubik Light';-inkscape-font-specification:Rubik-Light;writing-mode:lr-tb;fill:#000000;fill-opacity:1;fill-rule:nonzero;stroke:none"
       id="text220"><tspan
         x="0 7.7044001 18.952 31.229601 42.4772 54.445801 65.487396 77.043999 86.849602 99.127197 112.7026 124.9802 130.295 142.1606 154.4382 166.4068 177.6544 188.078 198.31619 209.811"
         y="0"
         id="tspan218">Генеральный директор</tspan></text><g
       id="g222"
       transform="translate(99,102)"><path
         d="M 0,0 H 337"
         style="fill:none;stroke:#e8f0ec;stroke-width:4;stroke-linecap:butt;stroke-linejoin:miter;stroke-miterlimit:4;stroke-dasharray:none;stroke-opacity:1"
         id="path224" /></g><text
       transform="matrix(1,0,0,-1,38.1401,1023)"
       style="font-variant:normal;font-weight:300;font-stretch:normal;font-size:20px;font-family:'Rubik Light';-inkscape-font-specification:Rubik-Light;writing-mode:lr-tb;fill:#000000;fill-opacity:1;fill-rule:nonzero;stroke:none"
       id="text228"><tspan
         x="0 11.2"
         y="0"
         id="tspan226">23</tspan></text><g
       id="g230"><g
         id="g232"><g
           id="g234"
           clip-path="url(#clipPath238)"><text
             transform="matrix(1,0,0,-1,99,1023)"
             style="font-variant:normal;font-weight:300;font-stretch:normal;font-size:20px;font-family:'Rubik Light';-inkscape-font-specification:Rubik-Light;writing-mode:lr-tb;fill:#000000;fill-opacity:1;fill-rule:nonzero;stroke:none"
             id="text242"><tspan
               x="0 13.24 18.4 28.02 39.18 52.459999 63.98 74.699997 86.620003 98.540001"
               y="0"
               id="tspan240">О компании</tspan></text></g></g></g></g></svg>
