<?xml version="1.0" encoding="UTF-8" standalone="no"?>
<?xml-stylesheet type="text/css" href="main.css" ?>
<svg
   xmlns:dc="http://purl.org/dc/elements/1.1/"
   xmlns:cc="http://creativecommons.org/ns#"
   xmlns:rdf="http://www.w3.org/1999/02/22-rdf-syntax-ns#"
   xmlns:svg="http://www.w3.org/2000/svg"
   xmlns="http://www.w3.org/2000/svg"
   version="1.1"
   id="svg2"
   xml:space="preserve"
   width="2560"
   height="1440"
   viewBox="0 0 2560 1440"><metadata
     id="metadata8"><rdf:RDF><cc:Work
         rdf:about=""><dc:format>image/svg+xml</dc:format><dc:type
           rdf:resource="http://purl.org/dc/dcmitype/StillImage" /></cc:Work></rdf:RDF></metadata><defs
     id="defs6"><clipPath
       clipPathUnits="userSpaceOnUse"
       id="clipPath20"><path
         d="M 0,1080 H 1920 V 0 H 0 Z"
         id="path18" /></clipPath></defs><g
     id="g10"
     transform="matrix(1.3333333,0,0,-1.3333333,0,1440)"><g
       id="g12"><g
         id="g14"><g
           id="g16"
           clip-path="url(#clipPath20)"><path
             d="M 0,0 H 1920 V 1080 H 0 Z"
             style="fill:#ffffff;fill-opacity:1;fill-rule:nonzero;stroke:none"
             id="path22" /></g></g></g><path
       d="M 0,0 H 831 V 1080 H 0 Z"
       style="fill:#f0f0f5;fill-opacity:1;fill-rule:nonzero;stroke:none"
       id="path24" /><text
       transform="matrix(1,0,0,-1,99,953.4)"
       style="font-variant:normal;font-weight:normal;font-stretch:normal;font-size:38px;font-family:'Prosto One';-inkscape-font-specification:ProstoOne-Regular;writing-mode:lr-tb;fill:#000000;fill-opacity:1;fill-rule:nonzero;stroke:none"
       id="text30"><tspan
         x="0 34.200001 64.029999 92.339996 126.54 156.56 169.86 199.88 239.59 271.51001 305.70999 335.54001 367.45999 401.66 426.73999 460.94"
         y="0"
         id="tspan26">ОБЗОР РЫНОЧНОГО </tspan><tspan
         x="0 34.200001 64.410004 94.43 124.64 168.14999 195.13 227.05 259.73001"
         y="45.599998"
         id="tspan28">ОКРУЖЕНИЯ</tspan></text><text
       transform="matrix(1,0,0,-1,99,821.6201)"
       style="font-variant:normal;font-weight:500;font-stretch:normal;font-size:28px;font-family:'Rubik Medium';-inkscape-font-specification:Rubik-Medium;writing-mode:lr-tb;fill:#000000;fill-opacity:1;fill-rule:nonzero;stroke:none"
       id="text38"><tspan
         x="0 21.280001 36.119999 52.695999 65.155998 82.599998 88.662003 105.77 122.962 139.53799 159.222 180.642 203.29401 220.17799 236.334 253.778 271.22198 287.798 300.258 316.83401 322.896 340.004 357.19601 373.772 391.216 406.19601 422.51999 439.09601 456.67999 472.668 487.508 503.832 519.82001 525.88202 543.32599 549.388 565.71198 583.15601 599.31201 621.96399 639.40802 655.56403 673.008"
         y="0"
         id="tspan32">Итоги промышленного производства и внешней </tspan><tspan
         x="0 14.84 31.416 48.608002 61.068001 77.643997 93.968002 110.852 128.29601 134.70799 151.032 157.444 175.896 192.472 208.46001 224.448 241.892 259.336 265.74799 282.07199 288.48401 305.81601 324.21201 341.54401 359.94 366.35199 378.81201 395.388 412.97198"
         y="33.992001"
         id="tspan34">торговли в России в 2020 году</tspan><tspan
         x="0 18.648001 34.636002 51.212002 68.655998 85.232002 104.916 122.36 138.34801 154.336 160.748 179.2 195.776 211.76401 227.752 245.196"
         y="131.60001"
         id="tspan36">Экономика России</tspan></text><text
       transform="matrix(1,0,0,-1,99,656.0281)"
       style="font-variant:normal;font-weight:500;font-stretch:normal;font-size:28px;font-family:'Rubik Medium';-inkscape-font-specification:Rubik-Medium;writing-mode:lr-tb;fill:#000000;fill-opacity:1;fill-rule:nonzero;stroke:none"
       id="text42"><tspan
         x="0 16.323999 22.736 40.068001 58.464001 75.795998 94.192001 100.604 113.064 129.64 147.224"
         y="0"
         id="tspan40">в 2020 году</tspan></text><text
       transform="matrix(1,0,0,-1,99,617)"
       style="font-variant:normal;font-weight:300;font-stretch:normal;font-size:20px;font-family:'Rubik Light';-inkscape-font-specification:Rubik-Light;writing-mode:lr-tb;fill:#000000;fill-opacity:1;fill-rule:nonzero;stroke:none"
       id="text76"><tspan
         x="0 13.06 18.219999 29.42 41.740002 52.939999 65.260002 70.419998 78.779999 89.940002 101.46 112.04 116.78 121.94 133.46001 144.62 149.78 161.3 172.02 183.94 195.86 209.03999 222.32001 227.48 240.03999 251.2 261.92001 272.64001 282.57999 293.29999 303.23999 313.95999 319.12 331.67999 348.17999 352.92001 358.07999 369.60001 380.32001 391.84 402.76001 414.67999 426.60001 437.51999 442.67999 455.73999 468.79999 482.79999 487.95999 498.67999 509.84 520.56 530.5 541.21997 552.06 563.97998 575.20001 586.35999"
         y="0"
         id="tspan44">В 2020 году, по данным Росстата РФ, падение ВВП составило </tspan><tspan
         x="0 11.02 22.540001 25.92 33.880001 34.720001 49.540001 54.279999 59.439999 70.959999 82.580002 93.739998 107.02 120.2 135.58 146.8 157.72 169.64 181.56 192.72 203.64 208.8 220.32001 231.94 243.10001 255.02 264.85999 275.70001 286.85999 298.38 309.10001 319.04001 329.88 341.04001 346.20001 356.92001 368.07999 378.20001 389.82001 400.54001 410.48001 422.39999 433.62 444.78 455.5 465.01999 470.17999 482.10001 492.82001 497.98001 508.61401 519.81403 524.27399 535.914 536.73999 551.56 556.32001"
         y="26"
         id="tspan46">–3,1 %, промышленное производство сократилось на –2,6 %. </tspan><tspan
         x="0 13.24 23.18 34.799999 46.720001 58.740002 69.459999 79.400002 90.32 101.54 111.06 122.98 133.7 144.08 149.24001 160.75999 172.67999 184.60001 195.32001 208.60001 220.52 230.64 241.36 246.52 257.67999 267.62 280.89999 291.82001 302.35999 313.28 325.20001 335.92001 341.07999 351.92001 357.07999 367.79999 378.72 387.07999 400.35999 411.28 423.20001 433.14001 444.06 449.22 460.73999 471.89999 483.23999 496.42001 506.95999 518.88"
         y="52"
         id="tspan48">Отрицательная динамика отмечена в сегменте добычи </tspan><tspan
         x="0 11.52 22.68 33.900002 44.82 54.66 66.580002 79.760002 90.120003 95.279999 107.2 117.92 128.03999 139.2 150.72 161.44 172.36 185.64 198.82001 209.17999 214.34 220.72 232.25999 243.89999 247.696 259.13599 259.95999 274.78 281.16 285.92001 291.07999 305.07999 315.79999 327.72 339.06 350.22 361.44 370.95999 386.34 397.26001 408.17999 413.34 424.17999 435.39999 447.32001 457.70001 469.62 481.54001 492.45999 497.62 509.54001 520.26001 525.41998 536.14001 546.08002 557.23999 567.17999"
         y="78"
         id="tspan50">полезных ископаемых (–6,9 %). Наибольшее влияние на этот </tspan><tspan
         x="0 11.52 22.68 32.799999 43.52 53.360001 64.080002 74.019997 84.940002 96.160004 105.68 110.84 122 132.12 142.84 152.67999 163.39999 174.62 185.34 190.5 202.02 213.17999 224.52 237.7 248.24001 258.95999 264.12 274.23999 284.95999 298.23999 309.16 321.07999 333 344.16 352.51999 363.67999 368.84 379.42001 387.78 399 409.38 414.54001 420.92001 432.45999 444.10001 448.84 460.35999 461.17999 476 482.38 487.12 492.28 503 516.17999 527.79999 538.96002 550.88"
         y="104"
         id="tspan52">показатель оказала добыча каменного угля (–6,3 %), сырой </tspan><tspan
         x="0 11.92 22.84 36.419998 46.360001 58.279999 63.439999 75.360001 80.519997 92.040001 103.66 115.58 127.2 138.36 149.88 161.8 172.96001 181.32001 192.48 197.64 206 216.72 226.56 237.28 242.44 248.82001 260.35999 272.47601 275.858 283.81799 284.66 299.48001 305.85999 310.60001 315.76001 327.28 338.89999 350.06 360.60001 372.51999 382.88 388.04001 399.56 410.72 421.94 432.85999 442.70001 454.62 467.79999 478.16 483.32001 495.23999 505.95999 516.08002 527.23999 538.76001 549.47998 560.40002 573.67999 586.85999 597.21997"
         y="130"
         id="tspan54">нефти и природного газа (–8,1 %), прочих полезных ископаемых </tspan><tspan
         x="0 6.3800001 17.1 25.059999 36.580002 40.939999 52.84 53.68 68.5 74.879997 79.639999 84.800003 97.860001 103.02 114.18 125.52 137.14 147.86 159.2 169.92 179.86 193.03999 203.88 214.60001 229.86 245.75999 257.67999 268.04001 273.20001 284.72 296.34 307.5 319.42001 329.26001 340.10001 351.26001 362.78 373.5 383.44 394.28 405 415.35999 420.51999 430.35999 441.07999 454.66 466.57999 476.70001 487.42001 499.34 510.95999 522.12 532.96002 543.67999 555.59998"
         y="156"
         id="tspan56">(–13,4 %). В обрабатывающих производствах зафиксирован </tspan><tspan
         x="0 11.62 22.780001 33.5 43.439999 48.599998 60.52 71.239998 76.400002 88.959999 100.898 105.36 117 117.84 132.66"
         y="182"
         id="tspan58">рост на +0,6 %.</tspan><tspan
         x="0 14.52 26.440001 37.279999 48.200001 58.919998 68.860001 80.779999 92.800003 104.72 116.64 121.8 132.64 137.8 148.96001 159.67999 171.60001 182.75999 193.60001 205.52 216.67999 228.60001 233.75999 243.88 254.60001 266.12 278.04001 287.98001 298.70001 309.92001 315.07999 325.92001 331.07999 342.28 354.60001 365.79999 378.12 383.28 391.64001 402.79999 414.32001 424.89999 430.06 440.78 452.70001 464.62 474.45999 486.38 497.60001 509.51999 520.23999 529.76001"
         y="221"
         id="tspan60">Инвестиции в основной капитал в 2020 году снизились </tspan><tspan
         x="0 11.92 22.639999 27.799999 38.52 46.48 50.84 62.740002 63.580002 78.400002 83.559998 93.68 98.839996 110.04 122.36 130.32001 141.75999 146.92 155.28 166.44 177.96001 188.53999 193.3 198.46001 211.52 223.44 234.36 249.74001 261.66 272.57999 282.51999 293.67999 305.29999 313.66 324.82001 335.66 348.84 360.76001 365.92001 377.07999 388.42001 399.57999 411.20001 422.35999 432.29999 437.04001 442.20001 453.72 464.88 470.04001 481.56 492.28 504.20001 516.12 529.29999 542.58002"
         y="247"
         id="tspan62">на –1,4 % к 2019 году. Внешнеторговый оборот, по данным </tspan><tspan
         x="0 16.5 27.639999 40.66 45.400002 50.560001 61.279999 72.440002 82.559998 94.18 104.9 114.84 126.76 137.98 148.7 159.08 164.24001 176.16 186.88 192.03999 202.758 210.718 221.938 225.31799 233.278 234.12 248.94 253.67999 258.84 269.67999 274.84 284.78 295.94 309.22 314.38 324.92001 336.84 347.56 358.78 369.70001 374.85999 385.57999 395.70001 406.42001 417.94 429.10001 440.72 450.66 455.82001 471.16 476.32001 488.23999 498.95999 504.12 514.75598 525.95599 537.896 542.03601 551.776 552.62 567.44 572.17999"
         y="273"
         id="tspan64">ФТС, сократился на –15,1 %, в том числе экспорт — на –20,7 %, </tspan><tspan
         x="0.02 11.94 25.219999 36.740002 47.900002 59.52 69.459999 74.620003 89.959999 95.120003 107.04 117.76 122.92 134.23801 145.45799 150.198 161.718 162.56 177.38"
         y="299"
         id="tspan66">импорт — на –5,3 %.</tspan><tspan
         x="0.02 14.02 25.18 30.34 41.860001 52.580002 64.5 76.419998 89.599998 102.88 108.04 120.6 131.75999 142.48 153.2 163.14 173.86 183.8 194.52 199.67999 212.24001 228.74001 233.48 238.64 250.16 261.32001 266.48001 278.39999 288.34 299.5 307.85999 318.57999 331.85999 337.01999 348.22 360.54001 371.73999 384.06 389.22 397.57999 408.73999 420.26001 430.98001 436.14001 444.5 456.12 466.70001 476.54001 487.70001 498.85999 510.20001 521.35999 532.97998 544.14001 554.08002"
         y="338"
         id="tspan68">По данным Росстата РФ, по итогам 2020 года грузооборот </tspan><tspan
         x="0.02 9.96 21.58 32.299999 44.220001 54.939999 66.459999 77.620003 89.239998 99.18 109.9 115.06 125.9 131.06 143.08 154 165.22 176.38 189.66 194.82001 205.53999 217.46001 229.38 239.22 251.14 262.35999 273.07999 283.45999 288.62 300.54001 311.26001 316.42001 327.95999 339.47601 343.276 354.716 355.54001 370.35999 375.51999 385.64001 390.79999 401.38 413 424.16 435 446.92001 462.17999 467.34 478.54001 490.85999 498.82001 510.26001 515.41998 523.78003 534.94 546.46002 557.17999 561.91998"
         y="364"
         id="tspan70">транспорта в целом снизился на –4,9 % к уровню 2019 года, </tspan><tspan
         x="0.02 10.86 16.02 25.959999 37.119999 50.400002 55.560001 66.099998 78.019997 88.739998 99.959999 110.88 116.04 131.02 141.94 153.16 164.08 173.92 185.84 197 208.52 219.67999 231.3 242.46001 257.44 269.35999 280.51999 288.88 300.04001 305.20001 317.12 327.84 333 343.63599 354.836 359.57599 370.776 371.60001 386.42001 391.16 396.32001 406.26001 417.88 428.45999 439.79999 450.95999 462.48001 474.10001 485.26001 496.10001 507.26001 518.78003 530.70001 541.85999 550.21997 561.38"
         y="390"
         id="tspan72">в том числе железнодорожного на –2,2 %, трубопроводного </tspan><tspan
         x="0.02 11.94 22.66 27.82 39.360001 51.48 55.84 68.160004 69 83.82 88.559998 93.720001 104.44 115.28 125.22 136.38 149.66 160.82001 172.16 184.08 195.3 204.82001 216.74001 227.89999 236.25999 247.42 252.58 264.5 275.22 280.38 291.09799 299.05801 303.418 315.31799 316.16 330.98001"
         y="416"
         id="tspan74">на –8,0 %, автомобильного на –1,4 %.</tspan></text><text
       transform="matrix(1,0,0,-1,891.04,961.3)"
       style="font-variant:normal;font-weight:500;font-stretch:normal;font-size:20px;font-family:'Rubik Medium';-inkscape-font-specification:Rubik-Medium;writing-mode:lr-tb;fill:#000000;fill-opacity:1;fill-rule:nonzero;stroke:none"
       id="text80"><tspan
         x="0 13.9 25.32 37.779999 49.619999 61.279999 73.739998 89.040001 100.58 105.16 117.38 129.22 140.64 152.06 162.75999 174.17999 184.78 196.32001 208.38 220.84 225.42 236.84 248.67999 261.42001 273.88 285.29999 297.35999 307.95999 320.42001 332.26001 341.88 353.38 364.79999 376.64001 389.10001 400.94 415 427.45999 439.01999 450.56 461.98001 473.39999 485.23999 494.14001 505.98001 510.56 522.84003 534.26001 544.96002 556.62 569.08002 579.67999 592.14001 603.62 608.20001 621.38 639.21997"
         y="0"
         id="tspan78">Основные показатели социально-экономического развития РФ:</tspan></text><text
       transform="matrix(1,0,0,-1,891.04,935.3)"
       style="font-variant:normal;font-weight:500;font-stretch:normal;font-size:20px;font-family:'Rubik Medium';-inkscape-font-specification:Rubik-Medium;writing-mode:lr-tb;fill:#000000;fill-opacity:1;fill-rule:nonzero;stroke:none"
       id="text84"><tspan
         x="0 11.42 23.700001 35.119999 46.779999 59.240002 70.779999 83.239998 95.699997 107.24 111.82 124.2 137.34 149.72 162.86 167.44 179.89999 184.48 196.86 210 219.25999 231.60001 236.17999 245.08 256.92001 269.48001 281.32001"
         y="0"
         id="tspan82">сравнение 2020 и 2019 годов</tspan></text><g
       id="g86"
       transform="translate(891,872.6001)"><path
         d="M 0,0 H 443"
         style="fill:none;stroke:#e9e9e9;stroke-width:1;stroke-linecap:butt;stroke-linejoin:miter;stroke-miterlimit:10;stroke-dasharray:none;stroke-opacity:1"
         id="path88" /></g><g
       id="g90"
       transform="translate(1334,872.6001)"><path
         d="M 0,0 H 121"
         style="fill:none;stroke:#e9e9e9;stroke-width:1;stroke-linecap:butt;stroke-linejoin:miter;stroke-miterlimit:10;stroke-dasharray:none;stroke-opacity:1"
         id="path92" /></g><g
       id="g94"
       transform="translate(1455,872.6001)"><path
         d="M 0,0 H 168"
         style="fill:none;stroke:#e9e9e9;stroke-width:1;stroke-linecap:butt;stroke-linejoin:miter;stroke-miterlimit:10;stroke-dasharray:none;stroke-opacity:1"
         id="path96" /></g><g
       id="g98"
       transform="translate(891,829.9001)"><path
         d="M 0,0 H 443"
         style="fill:none;stroke:#e9e9e9;stroke-width:1;stroke-linecap:butt;stroke-linejoin:miter;stroke-miterlimit:10;stroke-dasharray:none;stroke-opacity:1"
         id="path100" /></g><g
       id="g102"
       transform="translate(1334,829.9001)"><path
         d="M 0,0 H 121"
         style="fill:none;stroke:#e9e9e9;stroke-width:1;stroke-linecap:butt;stroke-linejoin:miter;stroke-miterlimit:10;stroke-dasharray:none;stroke-opacity:1"
         id="path104" /></g><g
       id="g106"
       transform="translate(1455,829.9001)"><path
         d="M 0,0 H 168"
         style="fill:none;stroke:#e9e9e9;stroke-width:1;stroke-linecap:butt;stroke-linejoin:miter;stroke-miterlimit:10;stroke-dasharray:none;stroke-opacity:1"
         id="path108" /></g><g
       id="g110"
       transform="translate(891,787.2002)"><path
         d="M 0,0 H 443"
         style="fill:none;stroke:#e9e9e9;stroke-width:1;stroke-linecap:butt;stroke-linejoin:miter;stroke-miterlimit:10;stroke-dasharray:none;stroke-opacity:1"
         id="path112" /></g><g
       id="g114"
       transform="translate(1334,787.2002)"><path
         d="M 0,0 H 121"
         style="fill:none;stroke:#e9e9e9;stroke-width:1;stroke-linecap:butt;stroke-linejoin:miter;stroke-miterlimit:10;stroke-dasharray:none;stroke-opacity:1"
         id="path116" /></g><g
       id="g118"
       transform="translate(1455,787.2002)"><path
         d="M 0,0 H 168"
         style="fill:none;stroke:#e9e9e9;stroke-width:1;stroke-linecap:butt;stroke-linejoin:miter;stroke-miterlimit:10;stroke-dasharray:none;stroke-opacity:1"
         id="path120" /></g><g
       id="g122"
       transform="translate(891,744.5002)"><path
         d="M 0,0 H 443"
         style="fill:none;stroke:#e9e9e9;stroke-width:1;stroke-linecap:butt;stroke-linejoin:miter;stroke-miterlimit:10;stroke-dasharray:none;stroke-opacity:1"
         id="path124" /></g><g
       id="g126"
       transform="translate(1334,744.5002)"><path
         d="M 0,0 H 121"
         style="fill:none;stroke:#e9e9e9;stroke-width:1;stroke-linecap:butt;stroke-linejoin:miter;stroke-miterlimit:10;stroke-dasharray:none;stroke-opacity:1"
         id="path128" /></g><g
       id="g130"
       transform="translate(1455,744.5002)"><path
         d="M 0,0 H 168"
         style="fill:none;stroke:#e9e9e9;stroke-width:1;stroke-linecap:butt;stroke-linejoin:miter;stroke-miterlimit:10;stroke-dasharray:none;stroke-opacity:1"
         id="path132" /></g><g
       id="g134"
       transform="translate(891,701.8003)"><path
         d="M 0,0 H 443"
         style="fill:none;stroke:#e9e9e9;stroke-width:1;stroke-linecap:butt;stroke-linejoin:miter;stroke-miterlimit:10;stroke-dasharray:none;stroke-opacity:1"
         id="path136" /></g><g
       id="g138"
       transform="translate(1334,701.8003)"><path
         d="M 0,0 H 121"
         style="fill:none;stroke:#e9e9e9;stroke-width:1;stroke-linecap:butt;stroke-linejoin:miter;stroke-miterlimit:10;stroke-dasharray:none;stroke-opacity:1"
         id="path140" /></g><g
       id="g142"
       transform="translate(1455,701.8003)"><path
         d="M 0,0 H 168"
         style="fill:none;stroke:#e9e9e9;stroke-width:1;stroke-linecap:butt;stroke-linejoin:miter;stroke-miterlimit:10;stroke-dasharray:none;stroke-opacity:1"
         id="path144" /></g><text
       transform="matrix(1,0,0,-1,891,884.6001)"
       style="font-variant:normal;font-weight:500;font-stretch:normal;font-size:20px;font-family:'Rubik Medium';-inkscape-font-specification:Rubik-Medium;writing-mode:lr-tb;fill:#000000;fill-opacity:1;fill-rule:nonzero;stroke:none"
       id="text148"><tspan
         x="0 14.58 26.42 37.84 49.259998 59.959999 71.379997 81.980003 93.519997 105.58"
         y="0"
         id="tspan146">Показатели</tspan></text><text
       transform="matrix(1,0,0,-1,1009.0389,891.2601)"
       style="font-variant:normal;font-weight:500;font-stretch:normal;font-size:11.66px;font-family:'Rubik Medium';-inkscape-font-specification:Rubik-Medium;writing-mode:lr-tb;fill:#000000;fill-opacity:1;fill-rule:nonzero;stroke:none"
       id="text152"><tspan
         x="0"
         y="0"
         id="tspan150">1</tspan></text><text
       transform="matrix(1,0,0,-1,1337.6812,884.6001)"
       style="font-variant:normal;font-weight:500;font-stretch:normal;font-size:20px;font-family:'Rubik Medium';-inkscape-font-specification:Rubik-Medium;writing-mode:lr-tb;fill:#000000;fill-opacity:1;fill-rule:nonzero;stroke:none"
       id="text156"><tspan
         x="0 12.38 25.52 37.900002 51.040001 53.540001 63.700001 66.199997 78.580002 91.720001 100.98 171.14 183.52 196.66 205.92 218.25999 220.75999 230.92 233.42 245.8 258.94 268.20001"
         y="0"
         id="tspan154">2020 / 20192019 / 2018</tspan></text><text
       transform="matrix(1,0,0,-1,891.0012,841.9001)"
       style="font-variant:normal;font-weight:300;font-stretch:normal;font-size:20px;font-family:'Rubik Light';-inkscape-font-specification:Rubik-Light;writing-mode:lr-tb;fill:#000000;fill-opacity:1;fill-rule:nonzero;stroke:none"
       id="text168"><tspan
         x="0 13.52 25.440001 37.360001 48.080002 61.360001 73.279999 83.400002 94.120003 99.279999 112.34 125.4 513.09998 522.32001 533.84003 537.21997 545.17999 673.28003 685.29999 696.5 700.85999 713.17999"
         y="0"
         id="tspan158">Динамика ВВП-3,1%+2,0%</tspan><tspan
         x="0 13.52 25.440001 37.360001 48.080002 61.360001 73.279999 83.400002 94.120003 99.279999 110.8 122.42 133.58 146.86 160.03999 175.42 186.64 197.56 209.48 221.39999 232.56 240.92 252.08 257.23999 268.76001 280.38 291.54001 303.45999 313.29999 324.14001 335.29999 346.82001 357.54001 367.48001 378.32001 509.04001 517.88 529.08002 533.53998 545.17999 673.14001 685.40002 696.91998 701.28003 713.17999"
         y="42.700001"
         id="tspan160">Динамика промышленного производства-2,6%+3,4%</tspan><tspan
         x="0 13.52 25.440001 37.360001 48.080002 61.360001 73.279999 83.400002 94.120003 99.279999 111.2 123.12 133.96001 144.88 155.60001 165.53999 177.46001 189.48 201.39999 213.32001 218.48 229.32001 234.48 245.64 256.35999 268.28 279.44 290.28 302.20001 313.35999 325.28 330.44 340.56 351.28 362.79999 374.72 384.66 395.38 512.03998 520.96002 528.91998 533.28003 545.17999 678.62 690.64001 701.84003 705.21997 713.17999"
         y="85.400002"
         id="tspan162">Динамика инвестиций в основной капитал-1,4%+2,1%</tspan><tspan
         x="0 14.52 26.440001 37.959999 48.880001 59 69.720001 74.879997 86.400002 97.559998 107.5 119.12 130.03999 141.38 153.3 163.24001 174.16 185.38 194.89999 205.62 215.74001 227.66 238.02 243.17999 255.2 266.12 505.14001 517.40002 528.91998 533.28003 545.17999 672.91998 685.47998 697 701.73999 713.17999"
         y="128.10001"
         id="tspan164">Индекс потребительских цен+3,4%+4,5%</tspan><tspan
         x="0 14.52 26.440001 37.959999 48.880001 59 69.720001 74.879997 86.900002 97.82 109.74 114.9 126.42 138.03999 149.2 161.12 170.96001 181.8 192.96001 204.48 216.39999 226.34 237.25999 248.48 259.39999 509.89999 518.73999 529.94 533.73999 545.17999 674.71997 686.73999 697.94 701.73999 713.17999"
         y="170.8"
         id="tspan166">Индекс цен производителей-2,9%+2,9%</tspan></text><text
       transform="matrix(1,0,0,-1,891,105.328)"
       style="font-variant:normal;font-weight:300;font-stretch:normal;font-size:9.328px;font-family:'Rubik Light';-inkscape-font-specification:Rubik-Light;writing-mode:lr-tb;fill:#000000;fill-opacity:1;fill-rule:nonzero;stroke:none"
       id="text172"><tspan
         x="0"
         y="0"
         id="tspan170">1</tspan></text><text
       transform="matrix(1,0,0,-1,898.8405,100)"
       style="font-variant:normal;font-weight:300;font-stretch:normal;font-size:16px;font-family:'Rubik Light';-inkscape-font-specification:Rubik-Light;writing-mode:lr-tb;fill:#000000;fill-opacity:1;fill-rule:nonzero;stroke:none"
       id="text176"><tspan
         x="0 11.2 20.128 24.256001 33.472 42.048 51.584 61.119999 71.664001 82.288002 86.416 96.463997 105.392 113.968 122.544 130.496 139.07201 147.024"
         y="0"
         id="tspan174">По данным Росстата</tspan></text><text
       transform="matrix(1,0,0,-1,891,573.5398)"
       style="font-variant:normal;font-weight:500;font-stretch:normal;font-size:20px;font-family:'Rubik Medium';-inkscape-font-specification:Rubik-Medium;writing-mode:lr-tb;fill:#000000;fill-opacity:1;fill-rule:nonzero;stroke:none"
       id="text180"><tspan
         x="0 15.2 25.9 39.959999 51.5 63.959999 75.5 87.959999 100.42 111.96 116.54 125.44 137.72 149.12 159.82001 171.66 183.5 195.44 207.28 219.56 231.39999 242 253.42 258 270.22 282.06 286.64001 298.29999 310.76001 323.32001 334.73999 348.79999 353.38 363.98001 376.26001 387.67999 400.14001 411.56 423.78 435.62 447.89999 458.5 469.92001 474.5 486.16 490.73999 503.12 516.26001 528.64001 541.78003 546.35999 555.26001 567.09998 579.65997"
         y="0"
         id="tspan178">Изменение грузооборота по видам транспорта в 2020 году</tspan></text><g
       id="g182"
       transform="translate(891,510.8398)"><path
         d="M 0,0 H 243"
         style="fill:none;stroke:#e9e9e9;stroke-width:1;stroke-linecap:butt;stroke-linejoin:miter;stroke-miterlimit:10;stroke-dasharray:none;stroke-opacity:1"
         id="path184" /></g><g
       id="g186"
       transform="translate(1134,510.8398)"><path
         d="M 0,0 H 180"
         style="fill:none;stroke:#e9e9e9;stroke-width:1;stroke-linecap:butt;stroke-linejoin:miter;stroke-miterlimit:10;stroke-dasharray:none;stroke-opacity:1"
         id="path188" /></g><g
       id="g190"
       transform="translate(1314,510.8398)"><path
         d="M 0,0 H 309"
         style="fill:none;stroke:#e9e9e9;stroke-width:1;stroke-linecap:butt;stroke-linejoin:miter;stroke-miterlimit:10;stroke-dasharray:none;stroke-opacity:1"
         id="path192" /></g><g
       id="g194"
       transform="translate(891,468.1399)"><path
         d="M 0,0 H 243"
         style="fill:none;stroke:#e9e9e9;stroke-width:1;stroke-linecap:butt;stroke-linejoin:miter;stroke-miterlimit:10;stroke-dasharray:none;stroke-opacity:1"
         id="path196" /></g><g
       id="g198"
       transform="translate(1134,468.1399)"><path
         d="M 0,0 H 180"
         style="fill:none;stroke:#e9e9e9;stroke-width:1;stroke-linecap:butt;stroke-linejoin:miter;stroke-miterlimit:10;stroke-dasharray:none;stroke-opacity:1"
         id="path200" /></g><g
       id="g202"
       transform="translate(1314,468.1399)"><path
         d="M 0,0 H 309"
         style="fill:none;stroke:#e9e9e9;stroke-width:1;stroke-linecap:butt;stroke-linejoin:miter;stroke-miterlimit:10;stroke-dasharray:none;stroke-opacity:1"
         id="path204" /></g><g
       id="g206"
       transform="translate(891,425.4399)"><path
         d="M 0,0 H 243"
         style="fill:none;stroke:#e9e9e9;stroke-width:1;stroke-linecap:butt;stroke-linejoin:miter;stroke-miterlimit:10;stroke-dasharray:none;stroke-opacity:1"
         id="path208" /></g><g
       id="g210"
       transform="translate(1134,425.4399)"><path
         d="M 0,0 H 180"
         style="fill:none;stroke:#e9e9e9;stroke-width:1;stroke-linecap:butt;stroke-linejoin:miter;stroke-miterlimit:10;stroke-dasharray:none;stroke-opacity:1"
         id="path212" /></g><g
       id="g214"
       transform="translate(1314,425.4399)"><path
         d="M 0,0 H 309"
         style="fill:none;stroke:#e9e9e9;stroke-width:1;stroke-linecap:butt;stroke-linejoin:miter;stroke-miterlimit:10;stroke-dasharray:none;stroke-opacity:1"
         id="path216" /></g><g
       id="g218"
       transform="translate(891,382.74)"><path
         d="M 0,0 H 243"
         style="fill:none;stroke:#e9e9e9;stroke-width:1;stroke-linecap:butt;stroke-linejoin:miter;stroke-miterlimit:10;stroke-dasharray:none;stroke-opacity:1"
         id="path220" /></g><g
       id="g222"
       transform="translate(1134,382.74)"><path
         d="M 0,0 H 180"
         style="fill:none;stroke:#e9e9e9;stroke-width:1;stroke-linecap:butt;stroke-linejoin:miter;stroke-miterlimit:10;stroke-dasharray:none;stroke-opacity:1"
         id="path224" /></g><g
       id="g226"
       transform="translate(1314,382.74)"><path
         d="M 0,0 H 309"
         style="fill:none;stroke:#e9e9e9;stroke-width:1;stroke-linecap:butt;stroke-linejoin:miter;stroke-miterlimit:10;stroke-dasharray:none;stroke-opacity:1"
         id="path228" /></g><g
       id="g230"
       transform="translate(891,340.04)"><path
         d="M 0,0 H 243"
         style="fill:none;stroke:#e9e9e9;stroke-width:1;stroke-linecap:butt;stroke-linejoin:miter;stroke-miterlimit:10;stroke-dasharray:none;stroke-opacity:1"
         id="path232" /></g><g
       id="g234"
       transform="translate(1134,340.04)"><path
         d="M 0,0 H 180"
         style="fill:none;stroke:#e9e9e9;stroke-width:1;stroke-linecap:butt;stroke-linejoin:miter;stroke-miterlimit:10;stroke-dasharray:none;stroke-opacity:1"
         id="path236" /></g><g
       id="g238"
       transform="translate(1314,340.04)"><path
         d="M 0,0 H 309"
         style="fill:none;stroke:#e9e9e9;stroke-width:1;stroke-linecap:butt;stroke-linejoin:miter;stroke-miterlimit:10;stroke-dasharray:none;stroke-opacity:1"
         id="path240" /></g><g
       id="g242"
       transform="translate(891,297.3401)"><path
         d="M 0,0 H 243"
         style="fill:none;stroke:#e9e9e9;stroke-width:1;stroke-linecap:butt;stroke-linejoin:miter;stroke-miterlimit:10;stroke-dasharray:none;stroke-opacity:1"
         id="path244" /></g><g
       id="g246"
       transform="translate(1134,297.3401)"><path
         d="M 0,0 H 180"
         style="fill:none;stroke:#e9e9e9;stroke-width:1;stroke-linecap:butt;stroke-linejoin:miter;stroke-miterlimit:10;stroke-dasharray:none;stroke-opacity:1"
         id="path248" /></g><g
       id="g250"
       transform="translate(1314,297.3401)"><path
         d="M 0,0 H 309"
         style="fill:none;stroke:#e9e9e9;stroke-width:1;stroke-linecap:butt;stroke-linejoin:miter;stroke-miterlimit:10;stroke-dasharray:none;stroke-opacity:1"
         id="path252" /></g><g
       id="g254"
       transform="translate(891,254.6401)"><path
         d="M 0,0 H 243"
         style="fill:none;stroke:#e9e9e9;stroke-width:1;stroke-linecap:butt;stroke-linejoin:miter;stroke-miterlimit:10;stroke-dasharray:none;stroke-opacity:1"
         id="path256" /></g><g
       id="g258"
       transform="translate(1134,254.6401)"><path
         d="M 0,0 H 180"
         style="fill:none;stroke:#e9e9e9;stroke-width:1;stroke-linecap:butt;stroke-linejoin:miter;stroke-miterlimit:10;stroke-dasharray:none;stroke-opacity:1"
         id="path260" /></g><g
       id="g262"
       transform="translate(1314,254.6401)"><path
         d="M 0,0 H 309"
         style="fill:none;stroke:#e9e9e9;stroke-width:1;stroke-linecap:butt;stroke-linejoin:miter;stroke-miterlimit:10;stroke-dasharray:none;stroke-opacity:1"
         id="path264" /></g><text
       transform="matrix(1,0,0,-1,1207.6013,522.8398)"
       style="font-variant:normal;font-weight:500;font-stretch:normal;font-size:20px;font-family:'Rubik Medium';-inkscape-font-specification:Rubik-Medium;writing-mode:lr-tb;fill:#000000;fill-opacity:1;fill-rule:nonzero;stroke:none"
       id="text270"><tspan
         x="0 14.06 26.120001 38.400002 50.959999 55.540001 66.139999 75.760002 87.18 101.24 189.25999 201.72 212.42 226.48 238.02 250.48 262.01999 274.48001 286.94 298.42001 303 314.42001 319 331.38 344.51999 353.78 366.12 370.70001 379.60001 391.44 404"
         y="0"
         id="tspan266">млрд т-км¹изменения к 2019 году</tspan><tspan
         x="-316.60001 -302.88 -291.45999 -279.92001 -271.01999 -259.17999 -253.89999 -249.32001 -237.66 -233.08 -222.48 -210.64 -196.58 -192 -180.44 -167.98 -156.56 -144.5 -132.96001 -127.48 34.400002 46.799999 51.380001 63.98 76.18 88.720001 94 360.51999 370.14001 382.95999 387.38 399.72"
         y="42.700001"
         id="tspan268">Всего, в том числе: 5 396,5-4,9%</tspan></text><text
       transform="matrix(1,0,0,-1,891.0013,437.4398)"
       style="font-variant:normal;font-weight:300;font-stretch:normal;font-size:20px;font-family:'Rubik Light';-inkscape-font-specification:Rubik-Light;writing-mode:lr-tb;fill:#000000;fill-opacity:1;fill-rule:nonzero;stroke:none"
       id="text286"><tspan
         x="0 19.139999 30.059999 41.279999 52.200001 62.040001 73.959999 85.120003 96.639999 107.8 119.42 130.58 145.56 157.48 170.66 182.58 356.54001 367.73999 372.89999 384.34 396.23999 407.76001 411.56 681.20001 690.03998 701.23999 705.97998 717.17999"
         y="0"
         id="tspan272">Железнодорожный 2 544,9-2,2%</tspan><tspan
         x="0 13 23.84 33.779999 44.939999 58.220001 69.379997 80.720001 92.639999 103.86 113.38 125.3 138.48 150.39999 377.92001 389.12 398.85999 406.82001 411.56 684.03998 692.96002 700.91998 705.28003 717.17999"
         y="42.700001"
         id="tspan274">Автомобильный 271,5-1,4%</tspan><tspan
         x="0 15.6 26.76 38.380001 49.099998 59.220001 70.379997 82.300003 383.72 395.62 406.82001 411.56 669.59998 681.64001 689.59998 701.23999 705.97998 717.17999"
         y="85.400002"
         id="tspan276">Морской 42,5+16,2%</tspan><tspan
         x="0 13.06 24.98 35.560001 45.5 57.119999 68.040001 79.959999 91.879997 103.8 115.72 120.88 131.72 142.88 154.39999 166.32001 179.5 191.42 383.48001 395.12 407.06 411.79999 679.21997 688.96002 701.08002 705.53998 717.17999"
         y="128.10001"
         id="tspan278">Внутренний водный 60,2-8,6%</tspan><tspan
         x="0 13.06 24.219999 34.060001 45.580002 56.16 71.540001 83.459999 96.639999 108.56 403.29999 411.66 415.04001 679.58002 688.79999 700.32001 704.82001 717.17999"
         y="170.8"
         id="tspan280">Воздушный 7,1-3,8%</tspan><tspan
         x="0 11.14 22.76 33.34 44.68 55.84 67.360001 78.980003 90.139999 100.98 112.14 123.66 135.58 148.75999 160.67999 357.42001 368.62 373.78 385.38 395.12 407.06 411.79999 678.64001 688.38 700.5 704.85999 717.17999"
         y="213.5"
         id="tspan282">Трубопроводный 2 470,2-8,0%</tspan><tspan
         x="-852.85999 -841.65997 -792 -778.76001 -773.59998 -763.47998 -752.32001 -739.03998 -727.52002 -716.79999 -704.88 -692.96002"
         y="-585.56"
         id="tspan284">23О компании</tspan></text></g></svg>
