<?xml version="1.0" encoding="UTF-8" standalone="no"?>
<?xml-stylesheet type="text/css" href="main.css" ?>
<svg
   xmlns:dc="http://purl.org/dc/elements/1.1/"
   xmlns:cc="http://creativecommons.org/ns#"
   xmlns:rdf="http://www.w3.org/1999/02/22-rdf-syntax-ns#"
   xmlns:svg="http://www.w3.org/2000/svg"
   xmlns="http://www.w3.org/2000/svg"
   version="1.1"
   id="svg2"
   xml:space="preserve"
   width="2560"
   height="1440"
   viewBox="0 0 2560 1440"><metadata
     id="metadata8"><rdf:RDF><cc:Work
         rdf:about=""><dc:format>image/svg+xml</dc:format><dc:type
           rdf:resource="http://purl.org/dc/dcmitype/StillImage" /></cc:Work></rdf:RDF></metadata><defs
     id="defs6"><clipPath
       clipPathUnits="userSpaceOnUse"
       id="clipPath20"><path
         d="M 0,1080 H 1920 V 0 H 0 Z"
         id="path18" /></clipPath><clipPath
       clipPathUnits="userSpaceOnUse"
       id="clipPath404"><path
         d="M 0,1080 H 1920 V 0 H 0 Z"
         id="path402" /></clipPath></defs><g
     id="g10"
     transform="matrix(1.3333333,0,0,-1.3333333,0,1440)"><g
       id="g12"><g
         id="g14"><g
           id="g16"
           clip-path="url(#clipPath20)"><path
             d="M 0,0 H 1920 V 1080 H 0 Z"
             style="fill:#ffffff;fill-opacity:1;fill-rule:nonzero;stroke:none"
             id="path22" /></g></g></g><text
       transform="matrix(1,0,0,-1,99,843.8201)"
       style="font-variant:normal;font-weight:500;font-stretch:normal;font-size:28px;font-family:'Rubik Medium';-inkscape-font-specification:Rubik-Medium;writing-mode:lr-tb;fill:#000000;fill-opacity:1;fill-rule:nonzero;stroke:none"
       id="text26"><tspan
         x="0 16.24 28.476 44.827999 61.740002"
         y="0"
         id="tspan24">Уголь</tspan></text><text
       transform="matrix(1,0,0,-1,99,807.8201)"
       style="font-variant:normal;font-weight:300;font-stretch:normal;font-size:20px;font-family:'Rubik Light';-inkscape-font-specification:Rubik-Light;writing-mode:lr-tb;fill:#000000;fill-opacity:1;fill-rule:nonzero;stroke:none"
       id="text42"><tspan
         x="0 13.24 23.18 34.799999 46.720001 58.740002 69.459999 79.400002 90.237999 101.458 110.978 122.898 133.618 143.998 149.158 160.67799 172.59801 184.51801 195.23801 208.51801 220.438 230.558 241.278 246.438 257.95801 269.11801 277.478 288.716 299.29599 309.13599 319.25601 331.17599 336.336 346.91599 354.75601 365.97601 376.35599 381.51599 387.896 399.216 410.65601 411.48001 426.29999 432.67999 437.84 447.95999 453.12 463.70001 475.32001 486.48001 497.32001 509.23999 524.5"
         y="0"
         id="tspan28">Отрицательная динамика погрузки угля (–5 %) к уровню </tspan><tspan
         x="0 11.2 23.52 31.48 42.919998 48.080002 56.200001 67.360001 78.879997 89.599998 94.339996 99.5 109.44 121.06 131.78 143.3 155.22 167.24001 179.16 190.32001 202.24001 214.16 225.32001 230.48 240.32001 251.03999 262.95999 274.88 288.16 298.88 314.14001 330.04001 340.95999 349.07599 360.23599 365.396 375.23599 387.15601 397.87601 408.41599 420.336 430.276 441.116 452.336 461.85599 473.776 484.35599 499.616"
         y="26"
         id="tspan30">2019 года, традиционно занимающего значительную </tspan><tspan
         x="0 11.52 22.48 33.700001 48.959999 54.119999 64.959999 70.120003 85.099998 95.938004 107.158 118.078 127.918 139.838 150.998 162.51801 173.67799 185.298 196.45799 211.438 223.358 236.53799 246.89799 252.058 263.578 274.49799 286.11801 297.03799 307.87799 319.03799 328.87799 338.99799 349.71799 360.078 364.81799 369.978 381.138 392.65799 404.27802 415.198 426.71799 437.55399 448.77399 459.15399 470.37399 481.09399 491.814 501.33401"
         y="52"
         id="tspan32">долю в железнодорожных перевозках, определялась </tspan><tspan
         x="0 10.84 16 27.16 37.880001 49.799999 60.959999 71.800003 83.720001 94.879997 108.16 113.32 124.04 135.2 145.32001 156.94 167.66 183.56 194.48 206.39999 218.32001 229.24001 242.52 247.67999 258.51999 270.44 281.01999 290.95999 302.57999 314.5 326.12 337.28 348 358.72 370.64001 382.56 393.28 402.896 414.056 422.17599 433.336 438.496 449.65601 460.996 471.776 482.69601 495.97601 506.69601"
         y="78"
         id="tspan34">в основном сокращением внутрироссийского объема </tspan><tspan
         x="0 11.52 22.68 31.040001 42.279999 52.860001 62.700001 72.82 84.739998 89.900002 96.279999 107.82 119.46 124.2 135.39999 136.24001 151.06 155.8 160.96001 176.3 181.46001 189.42 201.36 204.74001 212.7 217.86 231.14 242.36 254.28 259.44 269.38 275.76001 280.51999 285.67999 298.73999 303.89999 314.62 324.23801 334.95801 346.478 357.638 369.258 379.198 391.11801 402.27802 415.55801 420.71799 431.43799 442.59799 453.758 465.09799 480.99799 491.918 503.83801 515.758 527.67798"
         y="104"
         id="tspan36">погрузки (–6,2 %, — 10,1 млн т). В экспортном сообщении </tspan><tspan
         x="0 11.52 23.139999 34.299999 46.220001 56.060001 67.220001 82.599998 93.82 104.98 110.14 120.86 132.02 142.14 153.75999 164.48 180.38 191.3 203.22 215.14 226.06 231.22 242.38 253.72 264.5 275.42001 288.70001 299.42001 304.57999 316.10001 327.26001 335.62 346.85599 357.436 367.276 377.396 389.31601 394.47601 400.85599 412.396 423.914 428.65399 439.854 440.67999 455.5 460.23999 465.39999 480.73999 485.89999 498.01999 502.16 511.89999"
         y="130"
         id="tspan38">произошло сокращение объема погрузки (–4,2 %, — 8,7 </tspan><tspan
         x="0 13.28 24.5 36.419998 41.580002 51.52 57.900002 63.060001 74.980003 84.82 94.559998 104.4 115.12 120.28 131 141.58 157.48 168.39999 179.12 189.06 199.89999 210.82001 222.74001 234.66 245.82001 253.936 265.09601 270.25601 280.97601 292.13599 302.25601 313.87601 324.59601 340.496 351.41599 363.336 375.25601 385.63599 390.79599 402.31601 413.47601 421.836 433.07599 443.65601 453.496 463.616 475.53601 480.69601 491.53601 496.69601 508.616"
         y="156"
         id="tspan40">млн т) из-за существенного сокращения погрузки в на</tspan></text><text
       transform="matrix(1,0,0,-1,618.336,651.8201)"
       style="font-variant:normal;font-weight:300;font-stretch:normal;font-size:20px;font-family:'Rubik Light';-inkscape-font-specification:Rubik-Light;writing-mode:lr-tb;fill:#000000;fill-opacity:1;fill-rule:nonzero;stroke:none"
       id="text46"><tspan
         x="0"
         y="0"
         id="tspan44">-</tspan></text><text
       transform="matrix(1,0,0,-1,99,625.8201)"
       style="font-variant:normal;font-weight:300;font-stretch:normal;font-size:20px;font-family:'Rubik Light';-inkscape-font-specification:Rubik-Light;writing-mode:lr-tb;fill:#000000;fill-opacity:1;fill-rule:nonzero;stroke:none"
       id="text52"><tspan
         x="0 11.52 23.139999 33.860001 44.700001 55.919998 66.839996 78.760002 90.68 102.6 107.76 118.68 129.52 141.14 152.3 163.82001 174.74001 186.66 197.38 207.5 219.42 229.78 234.94 245.66 255.60001 267.22 277.94 289.85999 295.01999 301.39999 312.616 322.65601 327.396 338.836 339.66 354.48001 359.22 364.38 379.72 384.88 393.23999 396.62 404.57999 409.73999 423.01999 434.23999 446.16 451.32001 461.26001 467.64001 472.79999 483.64001 488.79999 499.51999 511.44 522.65997 533.23999"
         y="0"
         id="tspan48">правлении европейских стран (–9,5 %, — 7,1 млн т) в силу </tspan><tspan
         x="0 11.52 23.139999 35.060001 46.98 57.360001 67.300003 79.220001 89.599998 94.760002 105.6 116.52 128.03999 138.62 154.52 166.44 179.72 191.64 196.8 207.52 217.138 228.298 240.218 251.37801 264.65799 276.578 286.698 297.418 310.698 322.61801 327.77802 339.758 350.478 361.99799 372.71799 384.23801 396.15799 407.31799 419.23801 424.39801 436.23801 447.078 458.698 469.858 481.37799 494.55801 499.71799 511.33801"
         y="26"
         id="tspan50">принятия ведущими экономиками Западной Европы ре</tspan></text><text
       transform="matrix(1,0,0,-1,621.258,599.8201)"
       style="font-variant:normal;font-weight:300;font-stretch:normal;font-size:20px;font-family:'Rubik Light';-inkscape-font-specification:Rubik-Light;writing-mode:lr-tb;fill:#000000;fill-opacity:1;fill-rule:nonzero;stroke:none"
       id="text56"><tspan
         x="0"
         y="0"
         id="tspan54">-</tspan></text><text
       transform="matrix(1,0,0,-1,99,573.8201)"
       style="font-variant:normal;font-weight:300;font-stretch:normal;font-size:20px;font-family:'Rubik Light';-inkscape-font-specification:Rubik-Light;writing-mode:lr-tb;fill:#000000;fill-opacity:1;fill-rule:nonzero;stroke:none"
       id="text64"><tspan
         x="0 15.38 26.299999 38.220001 50.139999 62.060001 67.220001 78.379997 83.540001 95.059998 106.68 117.6 127.72 139.34 150.06 165.96001 176.88 188.8 200.72 212.64 217.8 229.72 240.44 251.96001 262.918 274.138 283.65799 293.49799 304.65799 315.49799 326.21799 338.138 350.05801 360.43799 365.59799 376.17801 384.01599 395.23599 405.616 410.776 421.616 426.776 437.496 449.41599 460.336 471.95599 480.07599 490.996 500.936 512.85602 522.474 533.39398"
         y="0"
         id="tspan58">шений о прекращении использования угля в энергетике </tspan><tspan
         x="0 11.92 21.76 26.92 37.639999 47.259998 58.220001 69.440002 80.599998 88.959999 100.88 111.42 122.34 133.06 143.17999 155.10001 165.46001 170.62 181.34 192.5 203.66 215 226.62 237.34 252.32001 263.23999 275.16 287.07999 299 304.17999 309.34 320.17999 325.34 337.26001 347.98001 359.5 371.12 381.84 392.67999 403.89999 414.82001 426.73999 438.66 450.57999 455.73999 466.45999 476.39999 488.01999 498.73999 510.66"
         y="26"
         id="tspan60">из экологических соображений; в направлении стран </tspan><tspan
         x="0 13 24.139999 36.700001 41.860001 48.240002 58.959999 66.919998 71.660004 82.860001 83.699997 98.519997 103.26 108.42 123.76 128.92 136.88 141.34 152.98 158.14 171.42 182.64 194.56 199.72 209.66 216.03999 221.2 232.72 243.88 252.24001 263.478 274.05801 283.89801 294.01801 304.73801 309.89801 321.05801 331.77802 342.99799 354.15799 369.138 381.05801 392.978 404.198 414.918 425.638 435.15799 440.31799 452.23801 464.15799 477.73801 489.358"
         y="52"
         id="tspan62">АТР (–1,2 %, — 1,6 млн т) погрузка осложнилась инфра</tspan></text><text
       transform="matrix(1,0,0,-1,599.078,521.8201)"
       style="font-variant:normal;font-weight:300;font-stretch:normal;font-size:20px;font-family:'Rubik Light';-inkscape-font-specification:Rubik-Light;writing-mode:lr-tb;fill:#000000;fill-opacity:1;fill-rule:nonzero;stroke:none"
       id="text68"><tspan
         x="0"
         y="0"
         id="tspan66">-</tspan></text><text
       transform="matrix(1,0,0,-1,99,495.8201)"
       style="font-variant:normal;font-weight:300;font-stretch:normal;font-size:20px;font-family:'Rubik Light';-inkscape-font-specification:Rubik-Light;writing-mode:lr-tb;fill:#000000;fill-opacity:1;fill-rule:nonzero;stroke:none"
       id="text72"><tspan
         x="0 10.72 20.66 31.9 42.48 52.599998 62.540001 73.120003 84.739998 96.660004 109.84 123.12 135.03999 140.2 151.36 159.72 171.34 182.06 193.98 205.89999 216.44 227.36 239.28 251.2 261.57999 274.85999 286.78 291.94 305 316.16 326.88 336.82001 347.98001 358.51999 370.44 381.60001 389.716 400.87601 406.03601 417.556 428.51599 439.73599 451.65601 459.776 470.936 482.85599 493.57599"
         y="0"
         id="tspan70">структурными ограничениями Восточного полигона.</tspan></text><text
       transform="matrix(1,0,0,-1,99,422.8201)"
       style="font-variant:normal;font-weight:500;font-stretch:normal;font-size:28px;font-family:'Rubik Medium';-inkscape-font-specification:Rubik-Medium;writing-mode:lr-tb;fill:#000000;fill-opacity:1;fill-rule:nonzero;stroke:none"
       id="text76"><tspan
         x="0 20.440001 36.624001 58.015999 72.884003 87.751999 94.136002 111.608 117.992 135.464 151.64799 173.03999 187.908 204.092 221.228 238.42 255.024 272.63599 288.65201 304.69601 319.564"
         y="0"
         id="tspan74">Нефть и нефтепродукты</tspan></text><text
       transform="matrix(1,0,0,-1,99,386.8201)"
       style="font-variant:normal;font-weight:300;font-stretch:normal;font-size:20px;font-family:'Rubik Light';-inkscape-font-specification:Rubik-Light;writing-mode:lr-tb;fill:#000000;fill-opacity:1;fill-rule:nonzero;stroke:none"
       id="text80"><tspan
         x="0 14 25.620001 36.779999 48.700001 58.540001 69.699997 85.080002 96.300003 107.46 112.62 123.34 135.25999 147.17999 162.16 173.08 185 196.92 207.84 213 224.52 235.67999 244.03999 255.278 265.858 275.698 285.81799 297.73801 302.89801 314.81799 325.73801 339.31799 349.258 359.638 371.55801 384.73801 395.09799 400.258 408.61801 419.85599 430.436 440.276 451.436 462.276 467.436 478.276 483.436 495.35599"
         y="0"
         id="tspan78">Произошло снижение погрузки нефтяных грузов в не</tspan></text><text
       transform="matrix(1,0,0,-1,605.276,386.8201)"
       style="font-variant:normal;font-weight:300;font-stretch:normal;font-size:20px;font-family:'Rubik Light';-inkscape-font-specification:Rubik-Light;writing-mode:lr-tb;fill:#000000;fill-opacity:1;fill-rule:nonzero;stroke:none"
       id="text84"><tspan
         x="0"
         y="0"
         id="tspan82">-</tspan></text><text
       transform="matrix(1,0,0,-1,99,360.8201)"
       style="font-variant:normal;font-weight:300;font-stretch:normal;font-size:20px;font-family:'Rubik Light';-inkscape-font-specification:Rubik-Light;writing-mode:lr-tb;fill:#000000;fill-opacity:1;fill-rule:nonzero;stroke:none"
       id="text92"><tspan
         x="0 13.58 23.52 34.439999 45.779999 56.700001 68.620003 78.459999 90.379997 102.3 113.46 124.3 137.48 147.84 153 165.02 176.94 187.66 197.60001 208.52 220.14 232.06 242.78 253.14 258.29999 269.14001 274.29999 285.5 297.82001 309.01999 321.34 326.5 334.616 345.776 357.29599 367.87601 373.03601 379.41599 390.13599 398.09601 410.41599 411.23999 426.06 430.79999 435.95999 451.29999 456.45999 467.66 479.17999 483.92001 495.12"
         y="0"
         id="tspan86">фтебензиновых цистернах в 2020 году (–10 %, — 23,2 </tspan><tspan
         x="0 13.28 24.5 36.419998 41.580002 51.52 62.68 74.599998 85.720001 92.099998 97.260002 107.38 112.54 123.12 134.74001 145.89999 156.74001 168.66 183.92 189.08 200.28 212.60001 220.56 232 237.16 245.276 256.436 267.95599 278.67599 283.436 288.59601 300.996 310.936 322.09601 327.25601 338.776 350.396 361.556 373.47601 383.31601 394.47601 409.85599 421.07599 432.23599 437.396 449.31601 460.03601 465.19601 478.776 489.936 501.85599 512.776"
         y="26"
         id="tspan88">млн тонн) к уровню 2019 года. Это произошло на фоне </tspan><tspan
         x="0 9.8400002 20.559999 30.68 41.900002 57.16 67.699997 78.620003 90.540001 102.46 112.84 118 128.72 140.24001 151.078 162.298 172.418 184.338 189.498 202.73801 216.73801 228.578 240.858 253.418 258.15799 263.31799 274.15799 279.31799 290.93799 301.65799 314.93799 325.05801 335.77802 346.138 351.298 360.91599 372.07599 382.01599 393.17599 404.79599 415.95599 427.87601 433.03601 443.75601 453.69601 465.31601 476.03601 487.95599 501.13599 510.354"
         y="52"
         id="tspan90">заключения сделки ОПЕК+, в рамках которой страны-у</tspan></text><text
       transform="matrix(1,0,0,-1,619.46,308.8201)"
       style="font-variant:normal;font-weight:300;font-stretch:normal;font-size:20px;font-family:'Rubik Light';-inkscape-font-specification:Rubik-Light;writing-mode:lr-tb;fill:#000000;fill-opacity:1;fill-rule:nonzero;stroke:none"
       id="text96"><tspan
         x="0"
         y="0"
         id="tspan94">-</tspan></text><text
       transform="matrix(1,0,0,-1,99,282.8201)"
       style="font-variant:normal;font-weight:300;font-stretch:normal;font-size:20px;font-family:'Rubik Light';-inkscape-font-specification:Rubik-Light;writing-mode:lr-tb;fill:#000000;fill-opacity:1;fill-rule:nonzero;stroke:none"
       id="text104"><tspan
         x="0 10.54 21.26 31.98 41.919998 53.84 65.760002 77.779999 90.959999 96.120003 107.28 118.62 129 138.84 149.56 160.78 172.7 183.42 192.94 198.10001 208.82001 220.74001 232.66 242.5 254.42 264.35999 273.88 279.04001 290.56 301.72 313.06 326.23999 336.78 347.35999 352.51999 364.44 375.16 380.32001 391.94 402.85999 412.47601 423.63599 435.25601 446.776 458.69601 471.87601 482.79599 487.95599 495.91599 507.35599"
         y="0"
         id="tspan98">частницы обязались снизить добычу на рекордные 19 </tspan><tspan
         x="0 13.28 24.5 36.419998 41.580002 52.919998 63.639999 75.260002 86.879997 97.718002 108.938 119.858 131.778 136.938 147.778 152.938 163.658 174.23801 184.17799 194.298 206.218 210.978 216.138 228.418 240.03799 251.198 264.478 275.39801 280.55801 290.49799 301.65799 309.776 320.69601 325.436 330.59601 342.51599 353.23599 358.396 371.97601 383.13599 395.056 405.97601 411.13599 422.65601 433.37601 445.29599 456.81601 467.73599 481.01599 492.936 504.85599"
         y="26"
         id="tspan100">млн баррелей в сутки. Кроме того, на фоне пандемии </tspan><tspan
         x="0 10.72 21.299999 37.200001 48.119999 58.84 68.779999 79.620003 90.540001 102.46 114.38 125.54 130.7 141.42 152.58 162.7 174.32001 185.03999 194.98 206.89999 218.12 229.28 240 249.52 254.67999 266.20001 277.35999 287.29999 298.92001 309.84 321.17999 332.39999 343.32001 355.23999 367.16 378.07999 383.23999 393.95999 404.79999 414.73999 425.89999 439.17999 450.34 461.67999 473.60001 484.82001"
         y="52"
         id="tspan102">существенно сократилось потребление автомобиль</tspan></text><text
       transform="matrix(1,0,0,-1,593.34,230.8201)"
       style="font-variant:normal;font-weight:300;font-stretch:normal;font-size:20px;font-family:'Rubik Light';-inkscape-font-specification:Rubik-Light;writing-mode:lr-tb;fill:#000000;fill-opacity:1;fill-rule:nonzero;stroke:none"
       id="text108"><tspan
         x="0"
         y="0"
         id="tspan106">-</tspan></text><text
       transform="matrix(1,0,0,-1,99,204.8201)"
       style="font-variant:normal;font-weight:300;font-stretch:normal;font-size:20px;font-family:'Rubik Light';-inkscape-font-specification:Rubik-Light;writing-mode:lr-tb;fill:#000000;fill-opacity:1;fill-rule:nonzero;stroke:none"
       id="text114"><tspan
         x="0 11.92 23.08 31.200001 42.360001 47.52 59.439999 64.599998 75.32 86.160004 98.080002 108.8 118.74 129.89999 141.42 152.64 164.56 175.39999 186.12 190.86 196.02 206.74001 218.66 230.58 240.42 252.34 263.56 274.72 285.44 294.95999 300.12 310.23999 320.95999 331.07999 336.23999 347.07999 359 369.57999 379.51999 391.14001 402.06 413.98001 425.89999 436.82001 447.73999 452.48001 457.64001 467.57999 478.29999 488.42001"
         y="0"
         id="tspan110">ного и авиатоплива, снизилось как внутреннее, так </tspan><tspan
         x="0 11.92 17.08 30.360001 42.279999 53.900002 65.059998 75.900002 87.059998 97.980003 103.14 114.66 125.82 135.75999 147.38 158.3 169.64 180.86 191.78 203.7 215.62 226.53999 231.7 243.62 254.53999 268.12 278.06 288.44 300.35999 313.54001 323.89999 329.06 337.42001 348.65601 359.23599 369.07599 380.23599 391.07599 395.836 400.996 414.996 425.716 430.87601 444.45599 455.616 467.53601 478.45599 483.616 494.19601 505.03601"
         y="26"
         id="tspan112">и мировое потребление нефтяных грузов. На фоне уве</tspan></text><text
       transform="matrix(1,0,0,-1,614.956,178.8201)"
       style="font-variant:normal;font-weight:300;font-stretch:normal;font-size:20px;font-family:'Rubik Light';-inkscape-font-specification:Rubik-Light;writing-mode:lr-tb;fill:#000000;fill-opacity:1;fill-rule:nonzero;stroke:none"
       id="text118"><tspan
         x="0"
         y="0"
         id="tspan116">-</tspan></text><text
       transform="matrix(1,0,0,-1,99,152.8201)"
       style="font-variant:normal;font-weight:300;font-stretch:normal;font-size:20px;font-family:'Rubik Light';-inkscape-font-specification:Rubik-Light;writing-mode:lr-tb;fill:#000000;fill-opacity:1;fill-rule:nonzero;stroke:none"
       id="text122"><tspan
         x="0 11.22 23.139999 33.68 44.599998 56.52 68.440002 78.82 83.980003 91.82 103.04 113.62 124.96 136.88 148.8 161.98 167.14 178.66 189.58 201.2 212.12 223.74001 234.46001 245.8 256.95999 266.89999 277.01999 288.94 294.10001 306.01999 316.94 330.51999 340.45999 352.38 357.54001 369.06 380.67999 391.84 403.76001 413.60001 424.76001 440.14001 451.35999 462.51999 467.67999 478.39999 489.56 499.67999 511.29999"
         y="0"
         id="tspan120">личения глубины переработки нефти произошло сокра</tspan></text><text
       transform="matrix(1,0,0,-1,621.02,152.8201)"
       style="font-variant:normal;font-weight:300;font-stretch:normal;font-size:20px;font-family:'Rubik Light';-inkscape-font-specification:Rubik-Light;writing-mode:lr-tb;fill:#000000;fill-opacity:1;fill-rule:nonzero;stroke:none"
       id="text126"><tspan
         x="0"
         y="0"
         id="tspan124">-</tspan></text><text
       transform="matrix(1,0,0,-1,99,126.8201)"
       style="font-variant:normal;font-weight:300;font-stretch:normal;font-size:20px;font-family:'Rubik Light';-inkscape-font-specification:Rubik-Light;writing-mode:lr-tb;fill:#000000;fill-opacity:1;fill-rule:nonzero;stroke:none"
       id="text134"><tspan
         x="0 15.9 26.82 38.740002 50.66 61.580002 66.739998 78.260002 89.879997 101.04 112.96 122.8 133.64 144.8 156.32001 167.03999 176.98 187.82001 198.53999 203.7 216.98 227.7 237.53999 248.12 258.06 268.78 273.94 285.85999 290.60001 295.76001 305.88 316.60001 326.72 331.88 342.60001 353.82001 364.73999 376.26001 386.98001 396.92001 407.76001 419.67999 430.60001 435.34 440.5 452.01999 462.73999 474.26001 485.17999 497.10001 509.01999 519.94"
         y="0"
         id="tspan128">щение производства мазута и, как следствие, падение </tspan><tspan
         x="0 11.52 22.68 31.040001 42.279999 52.860001 62.700001 72.82 84.739998 89.5 94.660004 108.66 119.82 124.98 136.89999 146.84 158 166.36 177.08 190.36 195.52 206.72 219.03999 230.24001 242.56 247.72 255.838 266.99799 278.51801 289.23801 294.39801 305.918 317.53799 328.698 340.61801 350.45801 361.298 372.45801 383.978 394.698 404.638 415.478 426.638 431.798 445.078 455.798 465.638 476.21799 486.15799 496.87799"
         y="26"
         id="tspan130">погрузки. По итогам 2020 года производство мазута </tspan><tspan
         x="594 604.71997 615.88 626 637.62 648.34003 658.28003 670.20001 681.41998 692.58002 703.29999 712.82001 717.97998 724.35999 735.078 743.03802 755.35797 756.20001 771.02002 775.76001 780.91998 796.26001 801.41998 812.94 817.40002 829.03998 834.20001 847.47998 858.70001 870.62 875.78003 885.71997 892.09998 896.84003 902 912.53998 922.47998 933.64001 938.79999 950.32001 961.47998 972.32001 983.53998 995.46002 1005.84 1017.06 1028.22 1033.38 1045.3 1056.02 1061.1801 1071.9 1083.8199"
         y="-834.47998"
         id="tspan132">сократилось (–10 %, — 4,6 млн т), что повлияло на сни</tspan></text><text
       transform="matrix(1,0,0,-1,1194.74,961.3001)"
       style="font-variant:normal;font-weight:300;font-stretch:normal;font-size:20px;font-family:'Rubik Light';-inkscape-font-specification:Rubik-Light;writing-mode:lr-tb;fill:#000000;fill-opacity:1;fill-rule:nonzero;stroke:none"
       id="text138"><tspan
         x="0"
         y="0"
         id="tspan136">-</tspan></text><text
       transform="matrix(1,0,0,-1,693,935.3001)"
       style="font-variant:normal;font-weight:300;font-stretch:normal;font-size:20px;font-family:'Rubik Light';-inkscape-font-specification:Rubik-Light;writing-mode:lr-tb;fill:#000000;fill-opacity:1;fill-rule:nonzero;stroke:none"
       id="text146"><tspan
         x="0 14.98 25.9 37.82 49.740002 60.66 65.82 76.980003 88.32 99.099998 110.02 123.3 134.02 139.17999 150.7 161.86 170.22 181.45799 192.03799 201.87801 211.998 223.918 229.078 239.918 245.078 256.99799 267.918 281.49799 291.43799 302.358 313.698 324.61801 336.53799 346.37799 358.298 370.21799 381.37799 392.21799 405.39801 415.758 420.918 432.93799 444.858 455.578 465.51801 476.43799 488.05801 499.978 510.698 521.05798"
         y="0"
         id="tspan140">жение объема погрузки в нефтебензиновых цистернах </tspan><tspan
         x="0 6.3800001 17.1 25.059999 36.259998 41 52.439999 53.279999 68.099998 72.839996 78 93.339996 98.5 108.24 113.4 126.68 137.89999 149.82001 154.98 164.92 171.3 176.06 181.22 195.22 206.38 219.66 231.58 244.86 256.01999 261.17999 271.89999 281.84 293 301.11801 312.03799 316.77802 321.93799 332.77802 343.93799 353.87799 359.03799 369.61801 384.59799 395.51801 400.67801 413.95801 425.87799 437.03799 445.15601 456.31601 461.47601 472.69601 483.616 493.556"
         y="26"
         id="tspan142">(–12,5 %, — 7 млн т). Помимо этого, вот уже много лет </tspan><tspan
         x="0 14.98 25.82 37.040001 47.959999 57.799999 69.720001 80.879997 92.400002 103.56 115.18 126.34 141.32001 153.24001 163.96001 174.34 179.5 190.66 200.60001 212.22 222.94 233.66 244.88 254.39999 259.56 271.48001 282.20001 292.56 303.72 315.23999 327.16 337.10001 347.82001 358.20001 363.35999 374.20001 379.35999 389.59601 400.31601 411.53601 422.69601 433.53601 445.45599 455.836 466.19601 471.35599 482.07599"
         y="52"
         id="tspan144">железнодорожная отрасль находится в условиях се</tspan></text><text
       transform="matrix(1,0,0,-1,1185.996,883.3001)"
       style="font-variant:normal;font-weight:300;font-stretch:normal;font-size:20px;font-family:'Rubik Light';-inkscape-font-specification:Rubik-Light;writing-mode:lr-tb;fill:#000000;fill-opacity:1;fill-rule:nonzero;stroke:none"
       id="text150"><tspan
         x="0"
         y="0"
         id="tspan148">-</tspan></text><text
       transform="matrix(1,0,0,-1,693,857.3001)"
       style="font-variant:normal;font-weight:300;font-stretch:normal;font-size:20px;font-family:'Rubik Light';-inkscape-font-specification:Rubik-Light;writing-mode:lr-tb;fill:#000000;fill-opacity:1;fill-rule:nonzero;stroke:none"
       id="text156"><tspan
         x="0 11.62 21.139999 32.060001 41.900002 53.82 64.980003 76.900002 82.059998 91.678001 102.838 114.758 124.878 135.45799 147.078 157.998 169.918 181.938 193.858 205.778 210.938 220.778 231.498 236.658 246.59801 258.21799 268.93799 280.858 291.578 303.09799 314.258 325.87799 335.81799 347.73801 359.358 370.51801 381.358 391.478 402.05801 407.21799 417.93799 431.11801 442.73801 453.89801 465.81799 470.978 482.89801 493.81799 507.39801 517.33801 529.258"
         y="0"
         id="tspan152">рьезной конкуренции за транспортировку сырой нефти </tspan><tspan
         x="0 10.72 15.88 25.82 37.060001 47.639999 58.98 70.139999 81.660004 93.279999 104.44 115.28 126.44 137.96001 149.88 163.06 176.34 181.5 191.44 203.06 213.78 225.7 236.42 247.94 259.10001 270.72 280.66 291.82001 305.10001"
         y="26"
         id="tspan154">с трубопроводным транспортом.</tspan></text><text
       transform="matrix(1,0,0,-1,693,762.3)"
       style="font-variant:normal;font-weight:500;font-stretch:normal;font-size:28px;font-family:'Rubik Medium';-inkscape-font-specification:Rubik-Medium;writing-mode:lr-tb;fill:#000000;fill-opacity:1;fill-rule:nonzero;stroke:none"
       id="text160"><tspan
         x="0 18.983999 35.167999 52.360001 69.832001 91.335999 107.52 113.904 133.616 149.8 164.668 180.68401 197.59599 214.508"
         y="0"
         id="tspan158">Черные металлы</tspan></text><text
       transform="matrix(1,0,0,-1,693,726.3)"
       style="font-variant:normal;font-weight:300;font-stretch:normal;font-size:20px;font-family:'Rubik Light';-inkscape-font-specification:Rubik-Light;writing-mode:lr-tb;fill:#000000;fill-opacity:1;fill-rule:nonzero;stroke:none"
       id="text164"><tspan
         x="0 14 25.16 30.32 42.240002 52.18 63.34 71.699997 82.419998 95.699997 100.86 112.06 124.38 135.58 147.89999 153.06 161.17799 172.338 183.858 194.578 199.73801 211.258 222.418 230.778 242.01801 252.59801 262.43799 272.55801 283.27802 288.43799 298.978 309.89801 321.51801 333.43799 346.61801 356.978 362.138 375.418 386.33801 396.27802 406.99799 418.21799 429.43799 440.59799 451.43799 456.59799 467.31799"
         y="0"
         id="tspan162">По итогам 2020 года погрузка черных металлов со</tspan></text><text
       transform="matrix(1,0,0,-1,1171.478,726.3)"
       style="font-variant:normal;font-weight:300;font-stretch:normal;font-size:20px;font-family:'Rubik Light';-inkscape-font-specification:Rubik-Light;writing-mode:lr-tb;fill:#000000;fill-opacity:1;fill-rule:nonzero;stroke:none"
       id="text168"><tspan
         x="0"
         y="0"
         id="tspan166">-</tspan></text><text
       transform="matrix(1,0,0,-1,693,700.3)"
       style="font-variant:normal;font-weight:300;font-stretch:normal;font-size:20px;font-family:'Rubik Light';-inkscape-font-specification:Rubik-Light;writing-mode:lr-tb;fill:#000000;fill-opacity:1;fill-rule:nonzero;stroke:none"
       id="text184"><tspan
         x="0 10.12 21.74 32.459999 42.400002 54.32 65.540001 76.260002 86.980003 96.5 101.66 113.58 124.3 129.46001 140.17799 148.138 160.45799 161.3 176.12 181.28 187.66 197.96001 206.32001 211.06 222.58 227.74001 241.02 252.24001 264.16 269.32001 279.26001 285.64001 290.79999 300.92001 306.07999 316.66 328.28 339.44 350.28 362.20001 377.45999 382.62 393.82001 406.14001 414.10001 425.54001 430.70001 438.81601 449.97601 461.496 472.216 476.97601"
         y="0"
         id="tspan170">кратилась на –10 % (–7,3 млн т) к уровню 2019 года. </tspan><tspan
         x="0 13.24 23.959999 35.880001 47.040001 57.880001 69.800003 80.959999 91.879997 97.040001 107.76 118.92 129.03999 140.66 151.38 167.28 178.2 190.12 202.03999 212.96001 218.12 227.73801 238.89799 249.618 261.53799 271.53799 282.758 293.918 304.638 314.15799 319.31799 330.83801 341.99799 350.358 361.59601 372.17599 382.01599 392.13599 404.056 409.216 420.056 431.97601 442.556 452.496 464.116 476.03601"
         y="26"
         id="tspan172">Основное сокращение коснулось погрузки внутри </tspan><tspan
         x="0 10.72 20.66 32.279999 43 54.919998 68.099998 73.260002 79.639999 90.360001 98.32 109.76 110.6 125.42 130.16 135.32001 150.66 155.82001 167.46001 171.96001 184.32001 189.48 202.75999 213.98 225.89999 231.06 241 247.38 252.14 257.29999 269.70001 279.64001 290.79999 295.95999 307.48001 319.10001 330.26001 342.17999 352.01999 363.17999 378.56 389.78 400.94 406.10001 418.01999 428.73999 433.89999 447.48001 458.64001 470.56 481.48001"
         y="52"
         id="tspan174">страны (–15 %, — 6,8 млн т). Это произошло на фоне </tspan><tspan
         x="0 11.16 19.52 31.139999 41.860001 53.779999 65.699997 76.239998 88.160004 98.099998 108.94 120.16 129.67999 141.60001 154.78 165.14 170.3 180.42 191.14 202.75999 213.48 225.39999 235.34 247.25999 259.17999 271.10001 284.28 294.64001 299.79999 313.07999 324 335.62 340.78 351.62 363.54001 374.12 384.06 395.67999 407.60001 412.76001 423.48001 433.42001 445.04001 455.76001 467.67999 480.85999 486.01999 497.94 502.67999"
         y="78"
         id="tspan176">ограничительных карантинных мер внутри страны и, </tspan><tspan
         x="0 10.12 20.84 30.959999 36.119999 46.84 58.060001 68.980003 80.5 91.220001 101.16 112 123.92 134.84 139.58 144.74001 155.46001 167.38 179.3 194.28 205.2 217.12 229.03999 239.42 244.58 255.3 265.42001 275.35999 287.28 298.12 310.04001 321.20001 331.92001 341.85999 353.78 358.94 369.78 374.94 385.66 395.60001 407.22 418.38 430.29999 440.23999 451.07401 462.29401 471.814 483.73401 494.89401 508.17401"
         y="104"
         id="tspan178">как следствие, снижения активности в строительном </tspan><tspan
         x="0 11.92 17.08 28.6 40.220001 51.380001 63.299999 73.139999 83.980003 95.139999 106.66 117.38 127.32 138.16 149.08 161 172.92 184.08 197.36 202.52 213.24001 224.16 234.28 244.22 255.38 267 277.72 288.07999 292.84 298 311.51999 322.67999 333.39999 343.34 354.06 364 375.16 385.70001 397.62 408.78 413.94 424.66 436.57999 447.79999 457.32001 469.23999 479.95999 490.34"
         y="130"
         id="tspan180">и производственном секторах. Достаточно сильная </tspan><tspan
         x="0 9.6199999 20.780001 32.700001 42.82 53.400002 65.019997 75.940002 87.860001 99.879997 111.8 122.18 127.34 139.25999 149.98 155.14 166.06 176.89999 188.52 199.67999 211.2 222.12 234.03999 244.75999 254.37801 265.53799 278.81799 283.978 295.59799 308.77802 320.698 330.31601 341.23599 346.396 358.31601 363.47601 374.19601 386.116 398.03601 413.01599 423.936 435.85599 447.776 458.69601 463.85599 475.37601 486.53601 496.47601 508.09601"
         y="156"
         id="tspan182">конкуренция на европейском рынке и снижение потре</tspan></text><text
       transform="matrix(1,0,0,-1,1212.016,544.3)"
       style="font-variant:normal;font-weight:300;font-stretch:normal;font-size:20px;font-family:'Rubik Light';-inkscape-font-specification:Rubik-Light;writing-mode:lr-tb;fill:#000000;fill-opacity:1;fill-rule:nonzero;stroke:none"
       id="text188"><tspan
         x="0"
         y="0"
         id="tspan186">-</tspan></text><text
       transform="matrix(1,0,0,-1,693,518.3)"
       style="font-variant:normal;font-weight:300;font-stretch:normal;font-size:20px;font-family:'Rubik Light';-inkscape-font-specification:Rubik-Light;writing-mode:lr-tb;fill:#000000;fill-opacity:1;fill-rule:nonzero;stroke:none"
       id="text192"><tspan
         x="0 11.34 22.559999 33.48 45.400002 57.32 67.699997 72.860001 84.779999 95.699997 100.86 112.38 123.54 133.38 144.22 155.17799 166.39799 178.31799 189.53799 201.45799 206.618 217.778 227.718 240.89799 249.258 260.87799 271.59799 281.53799 291.05801 296.21799 307.73801 318.89801 328.73801 340.65799 352.67801 364.59799 376.51801 381.67801 391.51801 402.23801 407.39801 418.11801 428.65799 439.578 449.51801 454.67801 465.59799 476.43799 488.05801"
         y="0"
         id="tspan190">бления не позволили отыграть позиции за счет евро</tspan></text><text
       transform="matrix(1,0,0,-1,1192.218,518.3)"
       style="font-variant:normal;font-weight:300;font-stretch:normal;font-size:20px;font-family:'Rubik Light';-inkscape-font-specification:Rubik-Light;writing-mode:lr-tb;fill:#000000;fill-opacity:1;fill-rule:nonzero;stroke:none"
       id="text196"><tspan
         x="0"
         y="0"
         id="tspan194">-</tspan></text><text
       transform="matrix(1,0,0,-1,693,492.3)"
       style="font-variant:normal;font-weight:300;font-stretch:normal;font-size:20px;font-family:'Rubik Light';-inkscape-font-specification:Rubik-Light;writing-mode:lr-tb;fill:#000000;fill-opacity:1;fill-rule:nonzero;stroke:none"
       id="text204"><tspan
         x="0 11.52 22.440001 34.360001 45.080002 54.700001 65.860001 73.980003 85.139999 90.267998 100.988 110.608 121.328 132.84801 144.008 155.62801 165.56799 176.28799 181.414 187.79401 198.51401 206.474 217.994 218.82001 233.64 238.38 243.508 258.84799 263.97601 271.936 275.73599 287.17599 292.30399 305.58401 316.80399 328.724 333.85001 343.79001 350.17001 354.91 360.03799 371.55801 383.17801 395.09799 400.22601 410.94601 420.88599 432.04599 445.32599 450.45401 461.974 473.134 481.49399 492.73199 503.31201 513.15198 523.27197 533.992"
         y="0"
         id="tspan198">пейского экспорта (–13 %, — 1,9 млн т), при этом погрузка </tspan><tspan
         x="0 10.84 16 27.92 38.639999 50.16 61.779999 72.5 83.339996 94.559998 105.48 117.4 129.32001 141.24001 146.39999 157.12 167.06 178.67999 189.39999 201.32001 206.48 219.48 230.62 243.17999 248.34 254.476 266.75601 278.67599 288.616 299.336 310.45599 316.836 321.996 332.836 346.01599 357.63599 368.79599 379.51599 390.73599 401.45599 406.616 418.23599 429.15601 438.77399 449.93399 461.55399 473.07401 484.99399 498.17401 511.45401 523.37402"
         y="26"
         id="tspan200">в направлении стран АТР (Китай) выросла рекордными </tspan><tspan
         x="0 9.9399996 20.860001 34.139999 45.66 56.380001 69.660004 81.580002 86.739998 93.120003 105.378 116.898 128.338 129.17999 144 148.74001 153.89999 165.94 173.89999 178.03999 187.78 192.94 206.22 217.44 229.36 234.52 244.46001 250.84 256 267.92001 278.64001 283.79999 297.38 308.54001 320.45999 331.38 336.54001 347.26001 357.20001 368.82001 379.98001 391.89999 401.84 412.67599 423.896 433.41599 445.336 456.496 464.616 475.776 480.936 492.276 502.85599 516.13599 526.85602"
         y="52"
         id="tspan202">темпами (+35 %, +1,7 млн т) на фоне строительного бума.</tspan></text><text
       transform="matrix(1,0,0,-1,693,371.3)"
       style="font-variant:normal;font-weight:500;font-stretch:normal;font-size:28px;font-family:'Rubik Medium';-inkscape-font-specification:Rubik-Medium;writing-mode:lr-tb;fill:#000000;fill-opacity:1;fill-rule:nonzero;stroke:none"
       id="text208"><tspan
         x="0 18.48 34.495998 52.108002"
         y="0"
         id="tspan206">Руда</tspan></text><text
       transform="matrix(1,0,0,-1,693,335.3)"
       style="font-variant:normal;font-weight:300;font-stretch:normal;font-size:20px;font-family:'Rubik Light';-inkscape-font-specification:Rubik-Light;writing-mode:lr-tb;fill:#000000;fill-opacity:1;fill-rule:nonzero;stroke:none"
       id="text212"><tspan
         x="0 14 25.16 33.52 44.759998 55.34 65.18 75.300003 86.019997 91.18 102.42 113 124.52 137.7 142.86 153.58 164.74001 174.86 186.48 197.2 207.14 219.06 230.28 241 251.72 261.23999 266.39999 278.32001 289.23999 299.07999 311 321.72 332.26001 344.17999 354.12 364.95599 376.17599 385.69601 397.616 408.776 413.936 424.056 429.216 439.79599 451.41599 462.57599"
         y="0"
         id="tspan210">Погрузка руды сократилась незначительно к уров</tspan></text><text
       transform="matrix(1,0,0,-1,1166.416,335.3)"
       style="font-variant:normal;font-weight:300;font-stretch:normal;font-size:20px;font-family:'Rubik Light';-inkscape-font-specification:Rubik-Light;writing-mode:lr-tb;fill:#000000;fill-opacity:1;fill-rule:nonzero;stroke:none"
       id="text216"><tspan
         x="0"
         y="0"
         id="tspan214">-</tspan></text><text
       transform="matrix(1,0,0,-1,693,309.3)"
       style="font-variant:normal;font-weight:300;font-stretch:normal;font-size:20px;font-family:'Rubik Light';-inkscape-font-specification:Rubik-Light;writing-mode:lr-tb;fill:#000000;fill-opacity:1;fill-rule:nonzero;stroke:none"
       id="text220"><tspan
         x="0 11.92 27.18 32.34 43.540001 55.860001 63.82 75.260002 80.419998 88.540001 99.699997 111.22 121.94 127.1 133.48 145.02 156.95799 161.31799 173.218 174.06 188.88 193.62 198.78 214.12 219.28 231.22 235.96001 247.39999 252.56 265.84 277.06 288.98001 294.14001 304.07999 310.45999 315.62 325.45999 336.17999 341.34 352.06 362.60001 373.51999 383.45999 388.62 400.23999 411.39999 422.12 432.06 442.78 447.94 459.45999 470.62 481.34 491.28"
         y="0"
         id="tspan218">ню 2019 года (–0,4 %, — 0,5 млн т) за счет роста поста</tspan></text><text
       transform="matrix(1,0,0,-1,1195,309.3)"
       style="font-variant:normal;font-weight:300;font-stretch:normal;font-size:20px;font-family:'Rubik Light';-inkscape-font-specification:Rubik-Light;writing-mode:lr-tb;fill:#000000;fill-opacity:1;fill-rule:nonzero;stroke:none"
       id="text224"><tspan
         x="0"
         y="0"
         id="tspan222">-</tspan></text><text
       transform="matrix(1,0,0,-1,693,283.3)"
       style="font-variant:normal;font-weight:300;font-stretch:normal;font-size:20px;font-family:'Rubik Light';-inkscape-font-specification:Rubik-Light;writing-mode:lr-tb;fill:#000000;fill-opacity:1;fill-rule:nonzero;stroke:none"
       id="text230"><tspan
         x="0 10.84 22 32.119999 37.279999 49.200001 59.919998 65.080002 75.800003 85.419998 96.139999 107.66 118.82 130.44 140.38 145.53999 151.92 163.938 174.89799 186.798 187.64 202.46001 207.2 212.36 224.92 236.14 240.5 252.39999 257.56 270.84 282.06 293.98001 299.14001 309.07999 313.82001 318.98001 329.82001 334.98001 344.92001 349.67999 352.17999 362.72 367.48001 372.64001 383.48001 388.64001 400.56 411.28 422.79999 434.42001 445.14001 455.98001 467.20001 478.12 490.04001 501.95999 513.88"
         y="0"
         id="tspan226">вок на экспорт (+24 %, +5,4 млн т, в т. ч. в направлении </tspan><tspan
         x="0.02 10.74 20.68 32.299999 43.02 54.939999 60.099998 73.099998 84.239998 96.800003 101.96 113.978 125.178 137.53799 138.38 153.2 157.94 163.10001 175.02 186.24001 198.16 203.32001 215.578 227.09801 232.258 245.53799 256.758 268.67801 273.83801 283.77802 288.51801 293.67801 304.51801 309.67801 321.59799 332.31799 343.83801 355.45801 366.17801 377.01801 388.23801 399.15799 411.078 422.99799 434.918 440.078 450.99799 461.83801 473.45801 484.61801 496.138 507.05801"
         y="26"
         id="tspan228">стран АТР +28 %, или +3 млн т, в направлении европей</tspan></text><text
       transform="matrix(1,0,0,-1,1211.978,257.3)"
       style="font-variant:normal;font-weight:300;font-stretch:normal;font-size:20px;font-family:'Rubik Light';-inkscape-font-specification:Rubik-Light;writing-mode:lr-tb;fill:#000000;fill-opacity:1;fill-rule:nonzero;stroke:none"
       id="text234"><tspan
         x="0"
         y="0"
         id="tspan232">-</tspan></text><text
       transform="matrix(1,0,0,-1,693.02,231.3)"
       style="font-variant:normal;font-weight:300;font-stretch:normal;font-size:20px;font-family:'Rubik Light';-inkscape-font-specification:Rubik-Light;writing-mode:lr-tb;fill:#000000;fill-opacity:1;fill-rule:nonzero;stroke:none"
       id="text242"><tspan
         x="0 10.72 20.84 32.759998 43.119999 48.279999 59 68.940002 80.559998 91.279999 103.2 108.36 123.7 128.86 141.118 152.638 164.95799 165.8 180.62 185.36 190.52 202.44 213.66 225.58 230.74001 242.998 254.51801 257.89801 265.858 271.01801 284.298 295.51801 307.43799 312.59799 322.53799 328.918 333.67801 338.83801 351.858 361.798 373.418 384.578 396.49799 406.43799 417.276 428.496 438.01599 449.936 463.116 475.03601 480.19601 491.53601 502.116 515.396"
         y="0"
         id="tspan236">ских стран — +30 %, или +3,1 млн т). Строительный бум </tspan><tspan
         x="0 10.84 16 28.280001 40.200001 50.139999 60.860001 71.779999 76.940002 88.860001 99.580002 104.74 118.32 129.48 141.39999 152.32001 157.48 168.64 179.36 190.58 201.74001 216.72 228.64 239.56 251.48 263.39999 273.78 278.94 290.10001 300.04001 311.95999 323.12 338.5 349.42001 361.34 373.26001 385.17999 390.34 401.06 406.22 419.22 430.06 440.78 450.72 462.34 473.06 484.28 496.20001 507.12 519.03998 523.78003"
         y="26"
         id="tspan238">в Китае на фоне осложнения отношений с Австралией, </tspan><tspan
         x="0 10.12 21.360001 31.940001 43.459999 55.380001 66.300003 78.220001 93.599998 105.52 118.8 123.96 135.48 146.64 157.36 167.3 178.02 188.86 204.75999 216.67999 226.298 237.45799 250.73801 255.89799 266.73801 271.89801 282.61801 292.55801 304.17801 314.89801 326.81799 337.39801 342.55801 357.53799 368.37601 379.59601 390.51599 400.35599 411.51599 422.75601 433.336 444.85599 456.776 467.936 476.05399 487.21399 492.37399 503.09399"
         y="52"
         id="tspan240">крупнейшим поставщиком в страну железорудного сы</tspan></text><text
       transform="matrix(1,0,0,-1,1209.294,179.3)"
       style="font-variant:normal;font-weight:300;font-stretch:normal;font-size:20px;font-family:'Rubik Light';-inkscape-font-specification:Rubik-Light;writing-mode:lr-tb;fill:#000000;fill-opacity:1;fill-rule:nonzero;stroke:none"
       id="text246"><tspan
         x="0"
         y="0"
         id="tspan244">-</tspan></text><text
       transform="matrix(1,0,0,-1,693.02,153.3)"
       style="font-variant:normal;font-weight:300;font-stretch:normal;font-size:20px;font-family:'Rubik Light';-inkscape-font-specification:Rubik-Light;writing-mode:lr-tb;fill:#000000;fill-opacity:1;fill-rule:nonzero;stroke:none"
       id="text250"><tspan
         x="0 11.62 21.139999 31.52 36.259998 41.419998 53.34 58.5 69.220001 80.379997 90.5 102.12 112.84 128.74001 139.66 151.58 163.5 174.42 179.58 191.10001 202.72 213.88 222.24001 234.16 245.32001 255.16 267.07999 278.23999 286.358 297.51801 302.67801 314.198 325.81799 336.73801 348.258 359.478 370.638 385.61801 396.53799 408.45801 420.37799 430.758 435.918 446.638 457.798 462.95801 473.67801 483.61801 494.77802 506.39801"
         y="0"
         id="tspan248">рья, и сокращение прогнозного предложения со сторо</tspan></text><text
       transform="matrix(1,0,0,-1,1210.578,153.3)"
       style="font-variant:normal;font-weight:300;font-stretch:normal;font-size:20px;font-family:'Rubik Light';-inkscape-font-specification:Rubik-Light;writing-mode:lr-tb;fill:#000000;fill-opacity:1;fill-rule:nonzero;stroke:none"
       id="text254"><tspan
         x="0"
         y="0"
         id="tspan252">-</tspan></text><text
       transform="matrix(1,0,0,-1,693.02,127.3)"
       style="font-variant:normal;font-weight:300;font-stretch:normal;font-size:20px;font-family:'Rubik Light';-inkscape-font-specification:Rubik-Light;writing-mode:lr-tb;fill:#000000;fill-opacity:1;fill-rule:nonzero;stroke:none"
       id="text258"><tspan
         x="0 11.92 25.1 30.26 42.900002 54.52 65.239998 75.080002 87 98.220001 110.14 122.06 127.22 138.74001 150.36 162.28 173.12 183.95799 195.17799 200.338 210.45799 215.618 226.95799 237.87801 248.59801 260.11801 271.73801 282.65799 294.67801 305.59799 317.11801 328.03799 339.95801 349.89801 361.81799 372.978 386.258 396.83801 401.99799 413.61801 424.77802 435.49799 445.43799 456.01801 461.17801 474.45801 486.37799 497.99799"
         y="0"
         id="tspan256">ны Бразилии привел к беспрецедентному росту миро</tspan></text><text
       transform="matrix(1,0,0,-1,1202.178,127.3)"
       style="font-variant:normal;font-weight:300;font-stretch:normal;font-size:20px;font-family:'Rubik Light';-inkscape-font-specification:Rubik-Light;writing-mode:lr-tb;fill:#000000;fill-opacity:1;fill-rule:nonzero;stroke:none"
       id="text262"><tspan
         x="0"
         y="0"
         id="tspan260">-</tspan></text><text
       transform="matrix(1,0,0,-1,693.02,101.3)"
       style="font-variant:normal;font-weight:300;font-stretch:normal;font-size:20px;font-family:'Rubik Light';-inkscape-font-specification:Rubik-Light;writing-mode:lr-tb;fill:#000000;fill-opacity:1;fill-rule:nonzero;stroke:none"
       id="text266"><tspan
         x="0 10.84 24.02 34.380001 39.540001 51.560001 62.48 74.400002 79.559998 91.480003 102.2 107.36 122.34 133.17799 144.39799 155.31799 165.158 177.078 187.658 202.918 208.078 219.31599 229.896 241.416 251.996 257.15601 269.07599 274.23599 285.75601 296.91599 305.276 316.51599 327.09601 336.936 347.056 356.436"
         y="0"
         id="tspan264">вых цен на железную руду и погрузку.</tspan></text><text
       transform="matrix(1,0,0,-1,1287,953.8201)"
       style="font-variant:normal;font-weight:500;font-stretch:normal;font-size:28px;font-family:'Rubik Medium';-inkscape-font-specification:Rubik-Medium;writing-mode:lr-tb;fill:#000000;fill-opacity:1;fill-rule:nonzero;stroke:none"
       id="text270"><tspan
         x="0 22.736 40.208 57.68 73.863998 91.056 107.072 123.984 138.85201 156.32401 177.828 194.01199 200.396 216.412 234.024 250.62801 267.37201 284.564 300.74799 318.22 335.69199"
         y="0"
         id="tspan268">Минеральные удобрения</tspan></text><text
       transform="matrix(1,0,0,-1,1287,917.8201)"
       style="font-variant:normal;font-weight:300;font-stretch:normal;font-size:20px;font-family:'Rubik Light';-inkscape-font-specification:Rubik-Light;writing-mode:lr-tb;fill:#000000;fill-opacity:1;fill-rule:nonzero;stroke:none"
       id="text274"><tspan
         x="0 14 25.16 30.32 42.240002 52.18 63.34 71.699997 82.419998 95.699997 100.86 112.06 124.38 135.58 147.89999 153.06 161.17799 172.338 183.858 194.578 199.73801 211.258 222.418 230.778 242.01801 252.59801 262.43799 272.55801 283.27802 288.43799 301.71799 313.638 325.55801 336.478 348.09799 358.81799 370.03799 379.55801 391.478 404.65799 415.01801 420.17801 430.758 442.27802 453.43799 464.77802 476.39801"
         y="0"
         id="tspan272">По итогам 2020 года погрузка минеральных удобре</tspan></text><text
       transform="matrix(1,0,0,-1,1774.318,917.8201)"
       style="font-variant:normal;font-weight:300;font-stretch:normal;font-size:20px;font-family:'Rubik Light';-inkscape-font-specification:Rubik-Light;writing-mode:lr-tb;fill:#000000;fill-opacity:1;fill-rule:nonzero;stroke:none"
       id="text278"><tspan
         x="0"
         y="0"
         id="tspan276">-</tspan></text><text
       transform="matrix(1,0,0,-1,1287,891.8201)"
       style="font-variant:normal;font-weight:300;font-stretch:normal;font-size:20px;font-family:'Rubik Light';-inkscape-font-specification:Rubik-Light;writing-mode:lr-tb;fill:#000000;fill-opacity:1;fill-rule:nonzero;stroke:none"
       id="text286"><tspan
         x="0 11.92 23.84 35.759998 40.919998 51.5 62.34 73.18 84.400002 96.32 106.86 118.78 130 140.72 151.44 160.96001 166.12 172.5 184.758 196.278 200.418 210.158 211 225.82001 230.56 235.72 246.92 251.66 262.85999 268.01999 281.29999 292.51999 304.44 309.60001 319.54001 325.92001 331.07999 341.20001 346.35999 356.94 368.56 379.72 390.56 402.48001 417.73999 422.89999 434.10001 446.42001 454.38 465.82001 470.98001 479.09601 490.25601 501.776 512.49597"
         y="0"
         id="tspan280">ний увеличилась (+3,7 %, 2,2 млн т) к уровню 2019 года </tspan><tspan
         x="0 11.92 22.639999 27.799999 41.380001 52.540001 64.459999 75.379997 80.540001 92.160004 103.32 114.04 123.98 134.7 139.86 151.02 162.36 173.14 184.06 197.34 208.5 219.34 224.5 236.02 247.64 258.79999 270.72 280.56 291.39999 302.56 314.07999 324.79999 334.73999 345.57999 356.29999 361.45999 372.04001 383.56 394.72 406.06 417.67999 428.60001 440.51999 452.44 464.35999 469.51999 475.89999 488.45999 499.89999 500.72 515.53998 521.91998 526.67999"
         y="26"
         id="tspan282">на фоне роста объемов производства удобрений (+5 %). </tspan><tspan
         x="0 14 25.16 33.52 44.759998 55.34 65.18 75.300003 86.019997 91.115997 103.036 113.756 118.854 129.694 141.614 152.194 162.134 173.754 184.674 196.59399 208.51401 220.43401 232.354 237.45 249.07001 262.25 274.17001 285.32999 295.45001 300.548 312.06799 323.68799 334.608 345.448 358.62799 369.34799 381.26801 392.48801 403.20801 408.30399 418.884 430.504 441.664 452.504 463.42401 475.34399 484.86401 489.95999 501.48001 513.09998"
         y="52"
         id="tspan284">Погрузка на внутренний рынок превысила уровень про</tspan></text><text
       transform="matrix(1,0,0,-1,1811.26,839.8201)"
       style="font-variant:normal;font-weight:300;font-stretch:normal;font-size:20px;font-family:'Rubik Light';-inkscape-font-specification:Rubik-Light;writing-mode:lr-tb;fill:#000000;fill-opacity:1;fill-rule:nonzero;stroke:none"
       id="text290"><tspan
         x="0"
         y="0"
         id="tspan288">-</tspan></text><text
       transform="matrix(1,0,0,-1,1287,813.8201)"
       style="font-variant:normal;font-weight:300;font-stretch:normal;font-size:20px;font-family:'Rubik Light';-inkscape-font-specification:Rubik-Light;writing-mode:lr-tb;fill:#000000;fill-opacity:1;fill-rule:nonzero;stroke:none"
       id="text294"><tspan
         x="0 15.38 26.6 37.759998 45.880001 57.040001 62.200001 70.32 81.480003 93 103.72 108.88 120.8 131.52 136.67999 148.32001 152.45799 162.198 163.03999 177.86 183.02 189.39999 201.44 209.39999 213.53999 223.28 228.44 241.72 252.94 264.85999 270.01999 279.95999 286.34 291.07999 296.23999 306.78 316.72 327.88 333.04001 344.20001 355.54001 365.77802 376.49799 387.71799 398.87799 409.71799 420.93799 431.858 443.77802 454.93799 460.09799 470.81799 480.93799 490.87799 502.798"
         y="0"
         id="tspan292">шлого года на 6,7 % (+1,7 млн т), что обусловлено актив</tspan></text><text
       transform="matrix(1,0,0,-1,1800.638,813.8201)"
       style="font-variant:normal;font-weight:300;font-stretch:normal;font-size:20px;font-family:'Rubik Light';-inkscape-font-specification:Rubik-Light;writing-mode:lr-tb;fill:#000000;fill-opacity:1;fill-rule:nonzero;stroke:none"
       id="text298"><tspan
         x="0"
         y="0"
         id="tspan296">-</tspan></text><text
       transform="matrix(1,0,0,-1,1287,787.8201)"
       style="font-variant:normal;font-weight:300;font-stretch:normal;font-size:20px;font-family:'Rubik Light';-inkscape-font-specification:Rubik-Light;writing-mode:lr-tb;fill:#000000;fill-opacity:1;fill-rule:nonzero;stroke:none"
       id="text306"><tspan
         x="0 11.92 25.1 38.380001 43.540001 55.459999 66.18 77.699997 88.660004 99.879997 109.4 119.24 130.39999 141.24001 151.96001 163.88 175.8 186.72 200 205.16 215.74001 227.25999 238.42 249.75999 261.38 272.29999 284.22 296.14001 308.06 313.22 323.94 332.29999 343.92001 355.07999 366.60001 378.22 389.14001 400.66 412.17999 423.79999 435.72 446.10001 456.04001 467.95999 478.34 491.62 503.54001"
         y="0"
         id="tspan300">ным использованием удобрений агропредприятиями.</tspan><tspan
         x="0 14 25.16 33.52 44.759998 55.34 65.18 75.300003 86.019997 91.18 101.76 113.28 124.44 135.78 147.39999 158.32001 170.24001 182.16 194.08 199.24001 211.16 221.88 227.03999 237.75999 247.37801 258.09799 269.61801 280.77802 292.39801 302.33801 307.49799 318.078 328.918 339.75601 350.97601 362.896 373.436 385.35599 396.57599 407.29599 418.01599 427.53601 432.69601 442.81601 447.97601 458.556 470.17599 481.336 492.17599 504.09601 519.35602"
         y="26"
         id="tspan302">Погрузка удобрений на экспорт увеличилась к уровню </tspan><tspan
         x="0 11.2 23.52 31.48 42.919998 48.080002 56.200001 67.360001 78.879997 89.599998 94.760002 106.68 117.4 122.56 130.52 134.978 146.618 147.46001 162.28 167.44 173.82001 186.38 198.32001 202.78 214.42 219.58 232.86 244.08 256 261.16 271.10001 277.48001 282.22 287.38 298.22 303.38 314.54001 325.26001 337.17999 348.34 359.17999 371.10001 382.26001 395.54001 400.70001 410.54001 421.26001 426.42001 437.14001 447.67999 458.60001 468.54001 473.70001 484.85999"
         y="52"
         id="tspan304">2019 года на 1,6 % (+0,6 млн т), в основном за счет от</tspan></text><text
       transform="matrix(1,0,0,-1,1781.8,735.8201)"
       style="font-variant:normal;font-weight:300;font-stretch:normal;font-size:20px;font-family:'Rubik Light';-inkscape-font-specification:Rubik-Light;writing-mode:lr-tb;fill:#000000;fill-opacity:1;fill-rule:nonzero;stroke:none"
       id="text310"><tspan
         x="0"
         y="0"
         id="tspan308">-</tspan></text><text
       transform="matrix(1,0,0,-1,1287,709.8201)"
       style="font-variant:normal;font-weight:300;font-stretch:normal;font-size:20px;font-family:'Rubik Light';-inkscape-font-specification:Rubik-Light;writing-mode:lr-tb;fill:#000000;fill-opacity:1;fill-rule:nonzero;stroke:none"
       id="text314"><tspan
         x="0 8.3599997 19.6 30.18 40.02 50.139999 62.060001 67.220001 78.059998 83.220001 95.139999 105.86 117.38 129 139.72 150.56 161.78 172.7 184.62 196.53999 208.46001 213.62 225.89999 237.82001 247.75999 258.48001 268.85999 274.01999 285.94 291.10001 303.73999 315.35999 326.07999 335.92001 347.84 359.06 370.98001 382.89999 388.06 394.44 406.474 414.43399 418.79401 430.694 435.854 449.134 460.354 472.27399 477.43399 487.37399 493.754"
         y="0"
         id="tspan312">грузки в направлении Китая и Бразилии (+1,4 млн т).</tspan></text><text
       transform="matrix(1,0,0,-1,1287,652.8201)"
       style="font-variant:normal;font-weight:500;font-stretch:normal;font-size:28px;font-family:'Rubik Medium';-inkscape-font-specification:Rubik-Medium;writing-mode:lr-tb;fill:#000000;fill-opacity:1;fill-rule:nonzero;stroke:none"
       id="text318"><tspan
         x="0 22.736 40.208 57.68 73.863998 91.056 107.072 123.984 138.85201 156.32401 172.92799 186.368 202.384 217.252 234.444 251.048 268.51999 283.388 299.4292 316.34119 331.2092 348.68121 370.18521 386.3692 392.7532 405.24121 421.84241 437.8584 452.86639"
         y="0"
         id="tspan316">Минерально-строительные грузы</tspan></text><text
       transform="matrix(1,0,0,-1,1287,616.8201)"
       style="font-variant:normal;font-weight:300;font-stretch:normal;font-size:20px;font-family:'Rubik Light';-inkscape-font-specification:Rubik-Light;writing-mode:lr-tb;fill:#000000;fill-opacity:1;fill-rule:nonzero;stroke:none"
       id="text322"><tspan
         x="0 14 25.16 30.32 42.240002 52.18 63.34 71.699997 82.419998 95.699997 100.86 112.06 124.38 135.58 147.89999 153.06 161.17799 172.338 183.858 194.578 199.73801 211.258 222.418 230.778 242.01801 252.59801 262.43799 272.55801 283.27802 288.43799 301.71799 313.638 325.55801 336.478 348.09799 358.81799 370.03799 379.55801 391.478 402.638 412.37799 423.09799 433.03799 444.65799 455.81799 467.73801 477.67801 488.51599 499.73599"
         y="0"
         id="tspan320">По итогам 2020 года погрузка минерально-строитель</tspan></text><text
       transform="matrix(1,0,0,-1,1796.256,616.8201)"
       style="font-variant:normal;font-weight:300;font-stretch:normal;font-size:20px;font-family:'Rubik Light';-inkscape-font-specification:Rubik-Light;writing-mode:lr-tb;fill:#000000;fill-opacity:1;fill-rule:nonzero;stroke:none"
       id="text326"><tspan
         x="0"
         y="0"
         id="tspan324">-</tspan></text><text
       transform="matrix(1,0,0,-1,1287,590.8201)"
       style="font-variant:normal;font-weight:300;font-stretch:normal;font-size:20px;font-family:'Rubik Light';-inkscape-font-specification:Rubik-Light;writing-mode:lr-tb;fill:#000000;fill-opacity:1;fill-rule:nonzero;stroke:none"
       id="text334"><tspan
         x="0 11.92 25.1 35.459999 40.619999 48.98 60.220001 70.800003 80.639999 91.800003 102.64 107.8 118.38 129.22 140.058 151.278 163.198 173.73801 185.658 196.87801 207.59801 218.31799 227.838 232.998 243.118 248.278 258.858 270.478 281.638 292.478 304.39801 319.65799 324.81799 336.01801 348.33801 356.298 367.73801 372.89801 381.01599 392.17599 403.69601 414.41599 419.57599 431.496 442.216 447.37601 458.57599 461.95599 469.91599 470.73999 485.56 490.29999"
         y="0"
         id="tspan328">ных грузов увеличилась к уровню 2019 года на 2,1 %, </tspan><tspan
         x="0 6.3800001 18.940001 30.459999 33.84 41.799999 46.959999 60.240002 71.459999 83.379997 88.540001 98.480003 104.86 109.6 114.76 126.28 137.89999 149.82001 154.98 165.7 175.64 186.8 200.08 205.24001 216.75999 227.92 236.28 247.51601 258.09601 267.936 278.056 288.776 293.936 309.836 320.75601 332.09601 344.01599 354.396 359.556 370.396 383.57599 395.19601 406.35599 417.07599 428.29599 439.01599 444.17599 456.09601 466.81601 471.97601 480.33401 485.07401 496.27399 497.10001 511.92001"
         y="26"
         id="tspan330">(+4,1 млн т), при этом погрузка щебня выросла на 7,2 % </tspan><tspan
         x="0 6.3800001 17.82 26.18 30.68 43.040001 48.099998 61.380001 72.599998 84.519997 89.580002 99.519997 105.9 110.96 122.88 133.60001 138.662 152.242 163.40199 175.32201 186.242 191.302 202.922 213.842 224.562 235.782 247.702 257.54199 268.26199 280.28201 292.202 304.12201 309.18201 319.302 330.54199 341.12201 352.642 364.56201 375.72198 383.84201 395.00201 400.064 411.98401 422.70401 434.724 446.64401 457.80399 469.724 480.444 491.664 501.18399 513.104"
         y="52"
         id="tspan332">(+7,8 млн т) на фоне реализации крупного национально</tspan></text><text
       transform="matrix(1,0,0,-1,1811.264,538.8201)"
       style="font-variant:normal;font-weight:300;font-stretch:normal;font-size:20px;font-family:'Rubik Light';-inkscape-font-specification:Rubik-Light;writing-mode:lr-tb;fill:#000000;fill-opacity:1;fill-rule:nonzero;stroke:none"
       id="text338"><tspan
         x="0"
         y="0"
         id="tspan336">-</tspan></text><text
       transform="matrix(1,0,0,-1,1287,512.8201)"
       style="font-variant:normal;font-weight:300;font-stretch:normal;font-size:20px;font-family:'Rubik Light';-inkscape-font-specification:Rubik-Light;writing-mode:lr-tb;fill:#000000;fill-opacity:1;fill-rule:nonzero;stroke:none"
       id="text342"><tspan
         x="0 8.1199999 19.280001 24.440001 35.959999 47.580002 58.740002 69.660004 79.779999 89.720001 100.44 105.6 117.66 130.3 141.22 151.06 162.22 173.74001 184.46001 195.17999 207.10001 220.28 231.2 236.36 248.28 253.44 263.56 274.28 284.82001 295.73999 306.45999 316.39999 327.23999 338.16 350.07999 362 375.17999 386.10001 391.26001 401.98001 412.82001 422.76001 433.92001 447.20001 458.35999 469.70001 481.62 492.84"
         y="0"
         id="tspan340">го проекта «Безопасные и качественные автомобиль</tspan></text><text
       transform="matrix(1,0,0,-1,1789.36,512.8201)"
       style="font-variant:normal;font-weight:300;font-stretch:normal;font-size:20px;font-family:'Rubik Light';-inkscape-font-specification:Rubik-Light;writing-mode:lr-tb;fill:#000000;fill-opacity:1;fill-rule:nonzero;stroke:none"
       id="text346"><tspan
         x="0"
         y="0"
         id="tspan344">-</tspan></text><text
       transform="matrix(1,0,0,-1,1287,486.8201)"
       style="font-variant:normal;font-weight:300;font-stretch:normal;font-size:20px;font-family:'Rubik Light';-inkscape-font-specification:Rubik-Light;writing-mode:lr-tb;fill:#000000;fill-opacity:1;fill-rule:nonzero;stroke:none"
       id="text352"><tspan
         x="0 11.92 25.1 36.02 41.18 52.700001 63.860001 75.480003 86.639999 95 106.92 118.98 123.74 128.89999 142.89999 154.06 162.42 173.658 184.23801 194.078 204.198 214.918 220.078 232.09801 243.01801 256.298 267.21799 279.138 289.078 299.798 304.95801 315.67801 326.83801 336.95801 348.578 359.298 369.23801 381.15799 392.37799 403.09799 413.81799 423.33801 428.49799 440.418 451.138 456.298 467.81601 472.556 483.996 484.82001 499.64001"
         y="0"
         id="tspan348">ные дороги». Погрузка цемента сократилась на 4,5 % </tspan><tspan
         x="0 6.3800001 17.1 25.059999 29.799999 41 46.16 59.439999 70.660004 82.580002 87.739998 97.68 104.06 109.22 121.14 126.3 137.02 148.17999 158.89999 168.84 179.56 190.39999 202.32001 213.53999 224.25999 229.42 240.62 251.838 255.218 263.17801 268.33801 281.61801 292.83801 304.758 309.918 319.858 324.59799 329.758 341.27802 352.43799 360.798 372.03601 382.616 392.45599 402.57599 413.29599 418.45599 429.97601 441.59601 452.75601 466.03601 479.216"
         y="26"
         id="tspan350">(–1,2 млн т) и составила 25,1 млн т, погрузка промыш</tspan></text><text
       transform="matrix(1,0,0,-1,1781.596,460.8201)"
       style="font-variant:normal;font-weight:300;font-stretch:normal;font-size:20px;font-family:'Rubik Light';-inkscape-font-specification:Rubik-Light;writing-mode:lr-tb;fill:#000000;fill-opacity:1;fill-rule:nonzero;stroke:none"
       id="text356"><tspan
         x="0"
         y="0"
         id="tspan354">-</tspan></text><text
       transform="matrix(1,0,0,-1,1287,434.8201)"
       style="font-variant:normal;font-weight:300;font-stretch:normal;font-size:20px;font-family:'Rubik Light';-inkscape-font-specification:Rubik-Light;writing-mode:lr-tb;fill:#000000;fill-opacity:1;fill-rule:nonzero;stroke:none"
       id="text362"><tspan
         x="0 11.22 22.139999 34.060001 45.98 57.139999 65.260002 76.419998 81.580002 92.300003 105.48 117.1 126.62 137 142.16 152.88 164.03999 174.16 185.78 196.5 206.44 218.36 229.58 240.3 251.02 260.54001 265.70001 277.62 288.34 293.5 305.01999 309.478 321.11801 321.95999 336.78 341.94 348.32001 359.04001 367 371.73999 383.26001 388.42001 401.70001 412.92001 424.84 430 439.94 446.32001 451.48001 463.39999 474.12 479.28 492.85999 504.01999 515.94 526.85999"
         y="0"
         id="tspan358">ленного сырья сократилась на 3,6 % (–1,3 млн т) на фоне </tspan><tspan
         x="0 10.12 20.84 32.459999 43.18 55.099998 65.040001 76.959999 88.879997 100.8 113.98 124.34 129.5 140.66 149.02 160.64 171.36 183.28 195.2 205.74001 216.66 228.58 240.5 252.42 257.16 262.32001 273.16 284 295.16 306.67999 318.60001 331.88 345.06 355.42001 360.57999 371.42001 383.34 393.92001 403.85999 415.48001 427.39999 432.56 443.28 453.22 464.84 475.56 487.48001 500.66"
         y="26"
         id="tspan360">карантинных ограничений, вводимых внутри страны.</tspan></text><text
       transform="matrix(1,0,0,-1,99,953.8201)"
       style="font-variant:normal;font-weight:500;font-stretch:normal;font-size:28px;font-family:'Rubik Medium';-inkscape-font-specification:Rubik-Medium;writing-mode:lr-tb;fill:#000000;fill-opacity:1;fill-rule:nonzero;stroke:none"
       id="text370"><tspan
         x="0 19.459999 36.203999 51.212002 67.816002 85.008003 91.391998 108.528 124.712 141.90401 158.088 174.468 191.07201 206.08 222.68401 238.728 245.112 262.24799 278.85199 285.23599 301.84 317.85599 335.328 351.93201 368.31201 385.784 407.28799 427"
         y="0"
         id="tspan364">Обзор перевозок по основным </tspan><tspan
         x="0 16.379999 33.852001 51.464001 67.480003 87.192001 93.575996 106.064 122.668 138.68401 153.692 170.29601 186.67599 193.06 209.44 215.82401 233.18401 251.636 268.996 287.448 293.832 306.06519 322.66919 340.28119"
         y="33.992001"
         id="tspan366">видам грузов в 2020 году</tspan><tspan
         x="1188.012 1208.452 1225.644 1242.248 1254.736 1272.208 1288.812 1303.8199 1325.324 1331.708 1348.844 1365.028 1382.22 1398.4041 1414.7841 1431.3879 1446.396 1463"
         y="669.81598"
         id="tspan368">Прогнозы перевозок</tspan></text><text
       transform="matrix(1,0,0,-1,1287.012,250.0121)"
       style="font-variant:normal;font-weight:500;font-stretch:normal;font-size:28px;font-family:'Rubik Medium';-inkscape-font-specification:Rubik-Medium;writing-mode:lr-tb;fill:#000000;fill-opacity:1;fill-rule:nonzero;stroke:none"
       id="text374"><tspan
         x="0 17.472 33.487999 39.872002 57.231998 75.683998 93.043999 106.036 112.42 124.656 141.25999"
         y="0"
         id="tspan372">на 2021 год</tspan></text><text
       transform="matrix(1,0,0,-1,1287,204)"
       style="font-variant:normal;font-weight:300;font-stretch:normal;font-size:20px;font-family:'Rubik Light';-inkscape-font-specification:Rubik-Light;writing-mode:lr-tb;fill:#000000;fill-opacity:1;fill-rule:nonzero;stroke:none"
       id="text386"><tspan
         x="0 14 25.16 30.32 41.84 52.560001 64.480003 76.400002 89.580002 102.86 108.02 121.26 134.25999 147.5 152.66 164.72 177.28 196.42 209.94 222 226.74001 231.89999 242.74001 247.89999 259.10001 271.42001 282.62 290.57999 295.73999 303.85599 315.01599 326.53601 337.116 342.276 353.79599 365.41599 376.57599 384.936 396.85599 408.01599 417.85599 429.776 441.01599 451.25601 462.17599 472.116 482.836 493.216"
         y="0"
         id="tspan376">По данным ОАО «РЖД», в 2021 году прогнозируется </tspan><tspan
         x="0 11.52 22.68 31.040001 42.279999 52.860001 62.700001 72.82 83.540001 88.699997 99.540001 104.7 115.86 127.2 137.98 148.89999 162.17999 173.10001 178.25999 186.22 190.96001 202.16 213.8 225.7 230.86 244.14 255.36 266.98001 278.5 283.66 293.60001 304.76001 316.67999 328.60001 333.76001 340.14001 352.15399 363.354 368.09399 379.534 380.35999 395.17999 401.56 406.72 416.84 422 432.57999 444.20001 455.35999 466.20001 478.12 493.38"
         y="26"
         id="tspan378">погрузка в объеме 1,264 млрд тонн (+2,5 %) к уровню </tspan><tspan
         x="0 11.2 23.52 34.720001 47.040001 52.200001 60.32 71.480003 83 93.720001 98.879997 109.6 120.76 128.60001 139.82001 150.53999 161.25999 173.17999 184.34 189.5 201.56 215.56 227.17999 238.34 249.25999 259.38 269.32001 279.89999 285.06 298.64001 310.56 322.48001 333.20001 345.12 355.84 367 377.84 389 397.11801 408.27802"
         y="52"
         id="tspan380">2020 года согласно «Проекту финансового </tspan><tspan
         x="0 11.52 22.74 33.459999 45.380001 56.099998 61.259998 73.18 78.339996 90.260002 102.18 113.02 123.94 134.66 144.60001 156.52 168.53999 180.46001 191.62 203.53999 215.46001 226.62 238.53999 243.7 255.22 266.84 278 286.35999 297.98001 308.70001 321.98001 335.26001 348.44 353.60001 366.84 379.84 393.07999 398.23999 410.29999 422.85999 442 455.51999 467.57999"
         y="78"
         id="tspan382">плана и инвестиционной программы ОАО «РЖД» </tspan><tspan
         x="0 11.92 22.639999 27.709999 38.91 51.23 62.43 70.389999 75.459999 83.580002 94.739998 106.26 111.33 123.25 128.32201 140.242 150.96201 156.032 167.552 178.772 189.492 201.412 212.57201 223.412 236.592 248.51199 253.58 265.10001 276.01999 287.64001 299.56 310.72 322.23999 327.31 338.51001 350.82999 362.03 372.64999 387.09 398.29001 410.60999 421.81 433.32999 438.39999 446.51999 457.67999 469.20001 480.35999 491.20001 503.26001"
         y="104"
         id="tspan384">на 2021 год и на плановый период 2022—2023 годов».</tspan></text><g
       id="g388"
       transform="translate(1287,334)"><path
         d="M 0,0 H 534 V -234"
         style="fill:none;stroke:#e8e8ed;stroke-width:4;stroke-linecap:butt;stroke-linejoin:miter;stroke-miterlimit:4;stroke-dasharray:none;stroke-opacity:1"
         id="path390" /></g><text
       transform="matrix(1,0,0,-1,38.1801,1023)"
       style="font-variant:normal;font-weight:300;font-stretch:normal;font-size:20px;font-family:'Rubik Light';-inkscape-font-specification:Rubik-Light;writing-mode:lr-tb;fill:#000000;fill-opacity:1;fill-rule:nonzero;stroke:none"
       id="text394"><tspan
         x="0 11.2"
         y="0"
         id="tspan392">25</tspan></text><g
       id="g396"><g
         id="g398"><g
           id="g400"
           clip-path="url(#clipPath404)"><text
             transform="matrix(1,0,0,-1,99,1023)"
             style="font-variant:normal;font-weight:300;font-stretch:normal;font-size:20px;font-family:'Rubik Light';-inkscape-font-specification:Rubik-Light;writing-mode:lr-tb;fill:#000000;fill-opacity:1;fill-rule:nonzero;stroke:none"
             id="text408"><tspan
               x="0 13.24 18.4 28.02 39.18 52.459999 63.98 74.699997 86.620003 98.540001"
               y="0"
               id="tspan406">О компании</tspan></text></g></g></g></g></svg>
