<?xml version="1.0" encoding="UTF-8" standalone="no"?>
<?xml-stylesheet type="text/css" href="main.css" ?>
<svg
   xmlns:dc="http://purl.org/dc/elements/1.1/"
   xmlns:cc="http://creativecommons.org/ns#"
   xmlns:rdf="http://www.w3.org/1999/02/22-rdf-syntax-ns#"
   xmlns:svg="http://www.w3.org/2000/svg"
   xmlns="http://www.w3.org/2000/svg"
   version="1.1"
   id="svg2"
   xml:space="preserve"
   width="2560"
   height="1440"
   viewBox="0 0 2560 1440"><metadata
     id="metadata8"><rdf:RDF><cc:Work
         rdf:about=""><dc:format>image/svg+xml</dc:format><dc:type
           rdf:resource="http://purl.org/dc/dcmitype/StillImage" /></cc:Work></rdf:RDF></metadata><defs
     id="defs6"><clipPath
       clipPathUnits="userSpaceOnUse"
       id="clipPath20"><path
         d="M 0,1080 H 1920 V 0 H 0 Z"
         id="path18" /></clipPath><clipPath
       clipPathUnits="userSpaceOnUse"
       id="clipPath162"><path
         d="M 0,0 H 1920 V 1080 H 0 Z"
         id="path160" /></clipPath><clipPath
       clipPathUnits="userSpaceOnUse"
       id="clipPath184"><path
         d="M 0,1080 H 1920 V 0 H 0 Z"
         id="path182" /></clipPath></defs><g
     id="g10"
     transform="matrix(1.3333333,0,0,-1.3333333,0,1440)"><g
       id="g12"><g
         id="g14"><g
           id="g16"
           clip-path="url(#clipPath20)"><path
             d="M 0,0 H 1920 V 1080 H 0 Z"
             style="fill:#ffffff;fill-opacity:1;fill-rule:nonzero;stroke:none"
             id="path22" /></g></g></g><text
       transform="matrix(1,0,0,-1,99,861.3)"
       style="font-variant:normal;font-weight:300;font-stretch:normal;font-size:20px;font-family:'Rubik Light';-inkscape-font-specification:Rubik-Light;writing-mode:lr-tb;fill:#000000;fill-opacity:1;fill-rule:nonzero;stroke:none"
       id="text44"><tspan
         x="0 13.24 23.959999 35.880001 47.040001 57.880001 69.800003 82.980003 96.260002 108.18 113.34 123.18 133.89999 145.42 156.14 166.67999 177.39999 190.67999 202.60001 207.75999 221.75999 231.86 244.14 249.3 260.14001 265.29999 276.45999 287.79999 299.01999 309.73999 320.45999 330.39999 342.32001 347.48001 358.20001 369.35999 380.88 391.79999 403.42001 418.39999 429.12 441.04001 452.95999 463.34"
         y="0"
         id="tspan24">Основными задачами ПГК в области содержания </tspan><tspan
         x="0 11.92 17.08 28.700001 39.619999 52.900002 64.059998 75.980003 85.919998 96.639999 101.8 113.32 124.48 136 146.84 158.75999 173.74001 185.66 196.82001 204.938 216.09801 221.258 231.978 243.138 253.858 263.798 274.51801 285.358 296.078 301.23801 311.61801 322.45801 333.67801 344.05801 359.31799 369.258 379.978 390.358 395.51801 406.23801 417.39801 427.51801 439.138 449.858 465.758 476.67801 488.59799 500.51801 511.43799"
         y="26"
         id="tspan26">и ремонта подвижного состава являются сокращение </tspan><tspan
         x="0 10.72 20.66 31.82 43.740002 57.02 68.18 78.900002 88.839996 100.76 105.92 120.9 132.82001 142.66 154.58 165.5 177.42 189.34 200.5 208.618 219.778 224.938 236.95799 248.87801 258.99799 270.21799 280.93799 286.09799 297.61801 308.33801 319.95801 330.078 340.798 345.53799 350.698 363.978 375.89801 387.81799 399.73801 413.01801 424.93799 434.77802 445.49799 457.51801 469.43799 479.81799"
         y="52"
         id="tspan28">стоимости жизненного цикла парка, минимизация </tspan><tspan
         x="0 10.84 22.459999 33.380001 46.66 57.580002 69.5 81.419998 86.580002 97.739998 107.68 118.52 129.74001 140.66 151.2 162.12 174.03999 185.96001 196.34 201.5 212.34 223.06 231.17599 242.336 254.256 265.41599 276.25601 281.41599 292.25601 303.41599 308.57599 319.41599 330.13599 341.056 346.216 357.056 368.97601 380.496 393.67599 398.836 410.45599 421.37601 434.65601 445.81601 457.73599 467.67599 478.836 489.67599 494.41599"
         y="78"
         id="tspan30">времени отвлечения вагонов во все виды ремонтов, </tspan><tspan
         x="0 10.72 24.299999 37.880001 48.799999 58.919998 68.860001 80.779999 91.620003 103.54 114.7 125.62 130.78 141.36 152.88 164.5 175.22 186.06 197.28 208.2 220.12 232.03999 242.96001 248.12 260.04001 273.32001 284.23999 299.5 315.39999 327.32001 340.60001 351.32001 361.70001 366.85999 376.70001 387.42001 398.94 409.66 420.38 431.54001 444.82001"
         y="104"
         id="tspan32">эффективное управление имеющимся запасом </tspan><tspan
         x="0 9.8400002 20.559999 32.080002 42.619999 53.34 64.059998 74 84.919998 96.839996 101.58 106.74 118.36 129.08 138.92 149.75999 161.67999 171.62 183.53999 194.46001 199.62 211.14 221.86 233.48 243.42 255.34 266.26001 277.88 288.60001 298.54001 309.38 320.10001 325.26001 335.98001 341.14001 351.85999 365.44 379.01999 389.94 400.06 410 421.92001 432.76001 444.67999 457.85999 471.14001 483.06"
         y="130"
         id="tspan34">запчастей, развитие партнерства с эффективными </tspan><tspan
         x="0 11.52 22.68 33.400002 43.34 54.060001 64.900002 80.800003 92.720001 102.84 113.56 126.84 138.75999 143.92 154.158 164.87801 176.09801 186.67799 195.03799 200.198 211.718 222.87801 228.03799 239.658 250.578 263.858 275.01801 286.93799 296.87799 307.45801 312.61801 323.45801 334.17801 342.29599 353.45599 365.37601 376.53601 387.37601"
         y="156"
         id="tspan36">поставщиками услуг по ремонту вагонов.</tspan><tspan
         x="0 13.06 18.219999 29.42 41.740002 52.939999 65.260002 70.419998 78.540001 89.699997 101.22 111.8 116.96 128.64 139.8 153.08 164.60001 175.32001 187.24001 199.16 209.53999 214.7 226.22 237.84 249 259.84 270.67801 281.89801 292.61801 297.77802 309.298 320.93799 324.31601 332.276 337.436 347.37601 360.556 371.276 376.03601 381.19601 392.716 403.936 414.65601 426.57599 437.73599 448.57599 461.75601 472.116"
         y="208"
         id="tspan38">В 2020 году Компания провела 36,1 тыс. плановых </tspan><tspan
         x="0 11.62 22.540001 35.82 46.98 58.900002 68.839996 80 90.839996 96 106.84 117.56 125.678 136.838 148.758 159.918 170.758 175.498 180.658 191.498 196.658 206.59801 217.758 231.03799 236.198 246.73801 258.65799 269.37799 280.59799 291.51801 296.67801 308.298 319.21799 331.138 342.298 353.138 363.858 375.87799 387.798 403.05801 408.21799 416.17801 421.33801 432.77802 445.09799 454.83801 459.99799 470.11801 481.73801 494.918 504.858 518.03802 528.39801"
         y="234"
         id="tspan40">ремонтов вагонов, в том числе реновацию 1 907 крытых </tspan><tspan
         x="0 10.84 21.559999 29.68 40.84 52.759998 63.919998 74.760002 79.919998 90.639999 95.800003 106.96 118.3 129.08 140 153.28 164.44 177.72 182.88 193 203.58 213.42 224.58 235.42 246.14 251.3 259.26001 270.45999 281.078 295.59799 303.55801 315.078 327.43799 329.94"
         y="260"
         id="tspan42">вагонов с объемом кузова 122—138 м</tspan></text><text
       transform="matrix(1,0,0,-1,442.2166,607.96)"
       style="font-variant:normal;font-weight:300;font-stretch:normal;font-size:11.66px;font-family:'Rubik Light';-inkscape-font-specification:Rubik-Light;writing-mode:lr-tb;fill:#000000;fill-opacity:1;fill-rule:nonzero;stroke:none"
       id="text48"><tspan
         x="0"
         y="0"
         id="tspan46">3</tspan></text><text
       transform="matrix(1,0,0,-1,448.9326,601.3)"
       style="font-variant:normal;font-weight:300;font-stretch:normal;font-size:20px;font-family:'Rubik Light';-inkscape-font-specification:Rubik-Light;writing-mode:lr-tb;fill:#000000;fill-opacity:1;fill-rule:nonzero;stroke:none"
       id="text126"><tspan
         x="0 4.7600002 9.9200001 23.92 34.02 46.299999 51.459999 61.400002 72.120003 82.239998 97.220001 108.14"
         y="0"
         id="tspan50">. ПГК также </tspan><tspan
         x="-349.94 -338.78 -327.44 -316.51999 -305.79999 -294.28 -283.35999 -272.82001 -260.89999 -249.67999 -238.96001 -233.8 -225.84 -214.302 -206.342 -201.60201 -190.162 -185.002 -175.062 -161.882 -151.162 -146.40199 -141.242 -131.302 -120.382 -110.022 -98.101997 -86.181999 -75.641998 -64.722 -54.001999 -43.882 -31.962 -21.601999 -16.441999 -5.2820001 6.0580001 16.778 27.997999 38.577999 53.557999 65.477997 76.318001 87.038002 98.958 110.878 122.798"
         y="26"
         id="tspan52">обеспечила 141,5 тыс. технических обслуживаний </tspan><tspan
         x="-349.94 -339.10001 -333.94 -322.78 -311.44 -300.66 -289.73999 -276.45999 -265.54001 -260.38 -249.24001 -236.67999 -227.76199 -219.802 -214.642 -202.722 -197.562 -186.422 -173.862 -165.022 -153.82201"
         y="52"
         id="tspan54">в объеме ТР-1 и ТР-2.</tspan><tspan
         x="-349.94 -336.88 -331.72 -320.51999 -308.20001 -297 -284.67999 -279.51999 -271.39999 -260.23999 -248.72 -238.14 -232.98 -222.14 -211.42 -203.3 -192.14 -180.22 -167.03999 -161.88 -147.88 -137.78 -125.5 -120.34 -108.82 -97.199997 -86.040001 -75.32 -65.379997 -54.66 -42.740002 -31.9 -21.18 -9.96 1.96 7.1199999 17.959999 23.120001 34.639999 45.860001 56.580002 68.5 79.660004 90.5 101.66 114.94"
         y="104"
         id="tspan56">В 2020 году вагоны ПГК простаивали в плановом </tspan><tspan
         x="-349.94 -338.32001 -327.39999 -314.12 -302.95999 -291.04001 -281.10001 -270.17999 -265.01999 -254.17999 -249.02 -238.3 -226.67999 -215.75999 -204.24001 -192.32001 -181.39999 -168.12 -162.96001 -151.03999 -140.32001 -135.16 -123.222 -118.724 -106.364 -101.204 -90.484001 -79.903999 -69.963997 -58.804001 -48.683998 -43.523998 -30.243999 -19.323999 -7.4039998 2.1159999 17.496 28.416 33.576 45.495998 56.655998 68.276001 81.556 92.276001 102.216 114.136 124.976 135.696 140.436"
         y="130"
         id="tspan58">ремонте в среднем на 0,8 суток меньше норматива, </tspan><tspan
         x="-349.94 -338.42001 -326.79999 -315.88 -304.35999 -294.12 -283.39999 -270.12 -258.95999 -249.02 -237.39999 -226.48 -214.56 -202.64 -191.48 -183.362 -172.202 -167.04201 -156.202 -145.48199 -137.362 -126.202 -114.282 -103.122 -91.501999 -80.582001 -67.302002 -56.141998 -44.222 -34.282001 -22.362 -9.1820002 4.098 16.018 21.177999 32.698002 44.318001 55.237999 66.758003 78.278 89.898003 101.818 112.198 122.138 134.058 144.438 157.718 169.638"
         y="156"
         id="tspan60">предусмотренного вагоноремонтными предприятиями.</tspan><tspan
         x="244.06 257.01999 262.07999 273.17999 285.39999 296.5 308.72 313.78 321.79999 332.85999 344.28 354.76001 359.82001 370.56 375.62 387.14001 397.76001 410.94 420.95999 431.57999 441.84 446.89999 458.42001 469.04001 480.28 491.34 501.17999 514.26001 518.90002 523.96002 535.78003 546.40002 557.82001 569.34003 579.96002 590.70001 601.82001 612.64001 624.46002 636.28003 647.34003 659.26001"
         y="-260"
         id="tspan62">В 2020 году в рамках работы, направленной </tspan><tspan
         x="244.06 255.88 266.5 271.56 282.98001 294.04001 304.78 317.85999 333.14001 343.95999 355.78 367.60001 378.42001 383.48001 394.54001 405.95999 416.78 428.29999 438.92001 450.84 462.66 473.72 485.54001 497.35999 508.42001 520.23999 525.29999 535.91998 549.40002 562.88 573.70001 583.71997 593.56 605.38 616.12 627.94 639 649.62 659.46002 671.28003 675.91998 680.97998 694.88 704.88 717.16199"
         y="-234"
         id="tspan64">на повышение операционной эффективности, ПГК </tspan><tspan
         x="244.06 255.58 266.20001 275.94 287.45999 298.07999 309.32001 320.38 330.22 340.84 351.95999 362.57999 367.64001 378.26001 388.10001 399.62 410.23999 420.07999 430.89999 439.16 450.98001 466.14001 471.20001 481.82001 492.88 504.29999 515.12 526.64001 541.52002 552.14001 563.96002 575.78003 586.06 591.12 602.53998 613.59998 625.02002 635.76001 647.58002 662.46002 674.28003 685.34003 693.362 704.52002"
         y="-208"
         id="tspan66">разработала стратегию содержания подвижного </tspan><tspan
         x="244.06 254.67999 265.73999 276.35999 286.20001 296.82001 307.56 318.17999 323.23999 334.66 345.72 350.78 361.88 374.10001 385.20001 396.62 401.67999 409.70001 420.76001 432.17999 442.79999 447.44 452.5 464.32001 474.94 486.35999 497.88 508.5 519.23999 530.35999 541.17999 553 564.82001 575.29999 590.46002 595.52002 607.34003 617.96002 623.02002 634.44 645.5 656.23999 669.32001 684.59998 695.41998 707.23999 719.06 729.97998"
         y="-182"
         id="tspan68">состава до 2023 года, направленную на повышение </tspan><tspan
         x="244.06 254.67999 268.16 281.64001 292.45999 302.48001 312.32001 324.14001 334.88 346.70001 357.76001 368.38 378.22 390.04001 395.10001 405.72 416.54001 428.06 438.79999 450.62 461.23999 473.06 484.12 495.94 501 514.09802 524.578 536.39801 546.41803 558.33801 570.15802 581.97803 587.03802 598.45801 609.51801 614.578 625.638 636.258 648.078 659.138 669.87799 681.698 694.77802 708.05603"
         y="-156"
         id="tspan70">эффективности сервисной функции по основным </tspan><tspan
         x="244.06 255.48 266.54001 276.56 287.17999 296.92001 307.54001 317.38 328.12 339.23999 349.51999 362.70001 367.76001 373.10001 383.72 394.78 404.79999 416.32001 426.94 442.73999 453.56 465.38 477.20001 488.01999 493.07999 503.70001 513.53998 524.59998 536.41998 549.59998 560.65997 571.28003 581.12 592.94 598 609.82001 614.88 625.62 637.14001 647.96002 661.14001 671.96002 683.78003 695.70001"
         y="-130"
         id="tspan72">показателям (сокращение стоимости и времени </tspan><tspan
         x="244.06 255.58 266.39999 279.57999 290.64001 302.45999 312.29999 323.35999 334.10001 338.73999 343.79999 355.22 366.28 377.01999 390.10001 405.38 416.20001 428.01999 439.84 450.66 455.72 467.54001 478.16 489.57999 500.39999 515.28003 527.09998 538.15997 548.78003 558.62 570.44 575.5 586.91998 597.97998 609.40002 620.14001 631.96002 646.84003 658.65997 669.71997 677.742 688.90198"
         y="-104"
         id="tspan74">ремонтов, повышение надежности подвижного </tspan><tspan
         x="244.06 254.67999 265.73999 276.35999 286.20001 296.82001 307.56 318.17999 323.23999 335.06 340.12 351.17999 362.60001 372.44 384.26001 397.44 409.26001 419 429.62 441.54001 453.35999 463.64001 468.70001 479.17999 490.60001 502.12 512.73999 523.47998 534.59998 545.41998 557.23999 569.06 579.34003 584.40002 594.14001 604.76001 616.17999 626.79999 637.41998 648.03998 661.21997 673.03998 678.09998 687.84003 698.46002 709.88 720.5 731.12 742.94 756.02002 766.38"
         y="-78"
         id="tspan76">состава и оптимизация управления запасами запасных </tspan><tspan
         x="244.06 254.5 265.12 275.73999 285.57999 296.39999 307.42001 313.70001 318.35999 323.42001 336.38 341.44 352.06 363.12 374.17999 384.01999 394.76001 405.57999 415.42001 426.04001 435.88 446.62 458.44 470.26001 475.32001 485.94 497 502.06 512.67999 522.52002 534.03998 544.65997 554.5 565.32001 573.58002 585.40002 596.21997 608.03998 613.09998 622.84003 633.46002 644.88 656 666.62 678.44 690.26001 701.78003 712.84003 723.58002 734.20001 746.02002 757.18201"
         y="-52"
         id="tspan78">частей). В соответствии со стратегией запланировано </tspan><tspan
         x="244.06 255.48 266.34 277.45999 287.94 298.38 309.20001 321.01999 332.84 343.66 348.72 359.34 368.85999 379.92001 391.73999 402.79999 415.98001 427.79999 438.23999 449.06 459.67999 469.70001 481.51999 491.78 496.84 507.45999 520.94 534.41998 545.23999 555.26001 565.09998 576.15997 586.90002 591.96002 603.78003 614.40002 624.84003 636.65997 648.47998 659.09998 669.48199"
         y="-26"
         id="tspan80">получение экономических эффектов начиная </tspan><tspan
         x="244.06 254.67999 259.73999 270.84 283.06 294.16 302.01999 307.07999 315.10001 326.16 337.57999 348.20001 352.84 357.89999 368.95999 380.38 392.20001 402.82001 412.34 423.39999 428.45999 440.04001 451.10001 464.28 475.70001 486.32001 498.14001 509.95999 521.78003 526.84003 537.32001 548.73999 559.35999 570.47998 581.53998 592.15997 601.58002 606.64001 618.06 629.12 639.73999 651.26001 662.32001 672.76001 684.58002 695.64001 700.70001 712.12 723.17999 733.79999 743.64001 755.46002 765.90002 775.41998"
         y="2.6645353e-14"
         id="tspan82">с 2021 года, однако Компании удалось досрочно достичь </tspan><tspan
         x="244.06 254.67999 268.16 281.64001 292.45999 302.48001 312.32001 323.38 334.12 339.17999 351 361.62 366.67999 377.29999 387.78 400.95999 414.14001 424.62 429.67999 440.92001 451.78201 462.90201 473.72198 484.54199 489.60199 501.022 510.004 521.54401 526.604 539.784 550.90399 562.724 567.784 578.92401 589.40399 600.64398 611.76398 622.58398 634.40399 639.46399 650.20398 655.26398 666.36401 678.58398 689.68402 701.90399 706.96399 714.98401 726.04401 737.46399 746.74402"
         y="26"
         id="tspan84">эффектов на сумму более 376 млн рублей в 2020 году.</tspan><tspan
         x="244.06 257.12 262.28 274.29999 285.14001 296.35999 307.51999 320.79999 325.95999 337.64001 348.79999 362.07999 373.60001 384.32001 396.23999 408.16 418.54001 423.70001 435.32001 446.23999 456.95999 468.17999 480.10001 489.94 501.10001 511.94 522.65997 533.88 544.59998 549.76001 560.91998 572.44 582.38 594.29999 607.58002 619.5 629.34003 640.06 652.08002 664 675.15997 687.08002 699 709.58002 724.84003"
         y="78"
         id="tspan86">В целом Компания реализовала оптимизационную </tspan><tspan
         x="244.06 255.58 267.20001 278.35999 286.72 298.34 309.06 322.34 335.62 346.20001 351.35999 362.20001 367.35999 377.89999 388.62 399.34 409.28 421.20001 426.35999 437.51999 448.85999 459.57999 470.79999 481.38 496.35999 508.28 519.12 529.84003 541.76001 553.67999 564.06 569.21997 580.06 590.78003 598.896 610.05603 621.97601 633.896 645.05603 653.17603 664.336 669.49597 681.01599 691.73602 703.35602 713.47601 724.19598"
         y="104"
         id="tspan88">программу в части обслуживания вагонного парка </tspan><tspan
         x="244.06 254.78 259.94 270.66 284.23999 297.82001 308.73999 318.85999 328.79999 339.95999 353.23999 358.39999 369.12 379.95999 393.14001 408.51999 419.44 424.60001 435.798 447.43799 459.758 464.918 478.198 489.418 501.33801 506.49799 517.73602 528.31598 539.65601 550.87598 561.79602 573.716 578.45599 583.61603 594.45599 604.57599 615.79602 631.05603 641.59601 652.31598 662.69598 667.85602 679.37598 688.45398 700.09399 705.25403 718.534 729.75403 741.67401"
         y="130"
         id="tspan90">с эффектом свыше 960 млн рублей, включая 376 млн </tspan><tspan
         x="244.06 255.3 265.88 277.22 288.44 299.35999 311.28 316.01999 321.17999 332.34 343.85999 355.78 366.5 377.22 389.14001 401.06 414.23999 424.60001 429.76001 440.60001 453.78 469.16 480.07999"
         y="156"
         id="tspan92">рублей, описанных выше.</tspan><tspan
         x="838.06 851.12 856.28003 867.90002 878.62 891.90002 902.02002 912.73999 923.09998 928.26001 939.78003 950.5 961.71997 971.23999 983.15997 994.08002 1006 1021.38 1032.3 1044.22 1049.38 1061 1071.92 1082.64 1093.86 1105.78 1115.62 1126.34 1138.36 1150.28 1162.2 1167.36 1178.88 1190.5 1201.66 1210.02 1221.64 1232.36 1245.64 1258.92 1272.1"
         y="-260"
         id="tspan94">В рамках дальнейшей реализации программы </tspan><tspan
         x="838.06 849.58002 860.73999 865.90002 876.62 887.78003 897.90002 909.52002 920.23999 936.14001 947.06 958.97998 970.90002 986.15997 991.32001 1002.94 1013.66 1024.38 1034.74 1045.9 1057.42 1068.58 1079.42 1084.58 1096.5 1107.22 1112.38 1123.1 1134.26 1145.78 1156.7 1168.3199 1183.3 1194.02 1205.9399 1217.86 1228.78 1233.9399 1244.78 1255.5 1263.616 1274.776 1286.696 1298.616 1309.776 1317.896 1329.056"
         y="-234"
         id="tspan96">по сокращению расходов на содержание вагонного </tspan><tspan
         x="838.06 849.58002 860.29999 871.91998 882.03998 892.76001 897.91998 909.26001 922.44 933.65997 944.82001 949.97998 961.5 973.12 984.28003 995.12 1006.04 1017.56 1028.48 1040.4 1051.5601 1056.72 1067.5601 1079.48 1090.4 1101.92 1113.54 1124.46 1136.38 1148.3 1159.22 1164.38 1176.3 1181.46 1192.98 1203.7 1214.92 1224.4399 1236.36 1247.28 1259.2 1274.58 1285.5 1296.42"
         y="-208"
         id="tspan98">парка было проведено внедрение и дальнейшее </tspan><tspan
         x="838.06 849.67999 860.40002 870.23999 881.08002 893 902.94 914.85999 925.78003 930.94 942.46002 954.08002 965.23999 973.59998 985.21997 995.94 1009.22 1022.5 1034.42 1045.58 1053.698 1064.858 1070.0179 1081.538 1093.158 1104.318 1115.838 1126.418 1136.538 1146.478 1157.198 1161.938 1167.098 1178.618 1189.778 1199.618 1210.458 1221.416 1232.636 1243.016 1258.276 1274.176 1285.0959 1293.2159 1304.376"
         y="-182"
         id="tspan100">развитие программного продукта, позволяющего </tspan><tspan
         x="838.06 848.78003 859.94 870.06 881.67999 892.40002 902.34003 914.26001 924.20001 933.71997 938.88 949.59998 960.76001 971.59998 982.76001 992.88 1003.46 1014.98 1026.9 1040.08 1051 1056.16 1067.78 1078.5 1089.22 1099.58 1110.74 1122.26 1135.4399 1140.6 1152.52 1163.24 1168.4 1179.92 1191.54 1202.7 1213.54 1224.46 1235.98 1246.9 1258.8199 1270.74 1281.66"
         y="-156"
         id="tspan102">сократить совокупные расходы на проведение </tspan><tspan
         x="838.06 849.58002 860.79999 871.52002 883.44 894.59998 905.44 918.62 928.97998 934.14001 945.76001 956.67999 969.96002 981.12 993.03998 1002.98 1014.14 1024.98 1030.14 1042.0601 1047.22 1058.74 1069.66 1081.28 1092.2 1103.72 1115.64 1126.36 1137.58 1148.74 1158.86 1169.58 1181.6 1193.52 1208.78 1213.9399 1224.78 1235.5 1243.616 1254.776 1266.696 1277.856 1288.696"
         y="-130"
         id="tspan104">плановых ремонтов и передислокацию вагонов </tspan><tspan
         x="838.06 848.90002 849.73999 858.91998 859.76001 871.67999 881.52002 886.67999 898.29999 909.21997 922.5 933.65997 945.58002 955.52002 966.23999 971.40002 982.91998 993.5 1003.44 1014.36 1027.64 1032.8 1043.96 1055.48 1065.42 1077.34 1090.62 1101.34 1112.5601 1122.08 1134 1145.16 1153.28 1164.4399 1169.6 1181.52 1191.88 1197.04 1208.66 1219.38 1230.1 1241.62 1253.24 1264.16 1275.6801 1286.5179 1297.738 1308.658 1320.578 1332.498 1342.8781"
         y="-104"
         id="tspan106">в / из ремонта путем оптимального их распределения </tspan><tspan
         x="838.08002 848.91998 854.08002 864.91998 875.64001 883.76001 894.91998 906.84003 918.76001 931.94 942.29999 947.46002 958.97998 969.90002 981.41998 992.33801 997.09802 1002.258 1015.318 1020.478 1031.998 1043.158 1054.678 1065.6379 1076.858 1088.778 1099.698 1111.618 1123.538 1134.458 1139.618 1151.238 1161.958 1171.798 1183.418 1194.1379 1205.478 1216.198 1226.1379 1239.318 1250.158 1260.8781 1276.1379 1286.078 1296.798 1307.178"
         y="-78"
         id="tspan108">в вагонных депо. В дополнение разрабатываются </tspan><tspan
         x="838.08002 849.59998 861.21997 872.38 880.73999 892.35999 903.08002 916.35999 929.64001 941.56 954.73999 965.65997 970.82001 982.34003 993.96002 1005.12 1016.64 1027.22 1037.34 1047.28 1060.46 1065.62 1077.54 1088.26 1093.42 1104.58 1115.3 1127.22 1138.38 1149.22 1160.14 1165.3 1176.64 1187.5959 1198.816 1208.3361 1223.7159 1235.636 1245.996 1251.156 1262.676 1273.396 1285.316 1297.236 1310.416 1320.776 1325.516"
         y="-52"
         id="tspan110">программные продукты на основе больших данных, </tspan><tspan
         x="838.08002 849.59998 860.76001 870.59998 881.44 892.40002 903.62 914 929.26001 945.15997 957.08002 968 973.15997 984.67999 995.84003 1006.68 1019.86 1030.58 1042.5 1052.4399 1061.96 1067.12 1077.84 1091.42 1105 1115.92 1126.04 1135.98 1147.9 1158.74 1170.66 1181.8199 1192.54 1202.48 1212 1217.16 1227.88 1237.496 1248.2159 1259.736 1270.9561 1281.536 1292.256 1302.196 1312.916 1324.936 1336.856 1348.776"
         y="-26"
         id="tspan112">позволяющие повысить эффективность эксплуатации </tspan><tspan
         x="838.08002 850 855.15997 866.78003 877.70001 890.97998 902.14001 914.06 924 935.15997 946 951.15997 962.67999 973.84003 985.35999 996.20001 1008.12 1023.1 1035.02 1046.1801 1054.298 1065.458 1070.618 1081.338 1092.498 1103.218 1113.158 1123.8781 1134.718 1145.438"
         y="2.6645353e-14"
         id="tspan114">и ремонтов подвижного состава.</tspan><tspan
         x="838.08002 851.14001 856.29999 867.5 879.82001 891.02002 898.97998 904.14001 912.26001 923.41998 934.94 945.52002 950.67999 964.67999 974.78003 987.06 992.21997 1003.74 1015.36 1026.52 1038.04 1048.998 1060.218 1075.198 1087.118 1097.058 1102.218 1113.738 1125.358 1136.5179 1147.438 1157.558 1167.498 1172.658 1184.178 1195.338 1200.498 1212.118 1223.038 1234.958 1246.118 1256.958 1267.678 1279.698 1291.618 1303.538"
         y="52"
         id="tspan116">В 2021 году ПГК продолжит проект по реновации </tspan><tspan
         x="838.08002 848.20001 859.82001 873 882.94 896.12 906.47998 911.64001 922.47998 933.20001 941.32001 952.47998 964.40002 975.56 986.40002 991.21997 996.38 1007.54 1022.52 1034.4399 1045.96 1056.6801 1067.6 1077.54 1088.26 1098.64 1103.38 1108.54 1119.08 1129.02 1140.1801 1145.34 1156.1801 1161.34 1172.54 1184.86 1196.0601 1204.02 1209.1801 1217.296 1228.4561 1239.976 1250.556 1255.7159 1267.056 1277.636 1289.156 1300.076 1310.016"
         y="78"
         id="tspan118">крытых вагонов: ожидается, что в 2021 году будет </tspan><tspan
         x="838.08002 848.08002 859.29999 869.88 880.41998 895.79999 906.71997 918.64001 929.79999 934.96002 944.58002 955.73999 969.02002 982.29999 993.21997 1004.84 1015.38 1026.3 1037.02 1046.6379 1057.798 1068.718 1073.8781 1085.798 1090.958 1100.8979 1111.818 1122.178 1134.098 1146.0179 1156.558 1167.478 1178.198 1187.816 1198.976 1209.896 1215.056 1225.776 1236.936 1247.656 1257.5959 1268.756 1279.136 1291.056 1302.976 1313.896"
         y="104"
         id="tspan120">улучшено коммерческое и техническое состояние </tspan><tspan
         x="838.08002 849.59998 860.76001 865.91998 873.88 879.03998 890.94 903.26001 914.90002 920.06 930.97998 942.5 954.41998 966.34003 978.26001 990.28003 995.44 1006.96 1018.12 1029.64 1040.48 1052.4 1067.38 1079.3 1090.46 1098.576 1109.736 1114.896 1125.616 1136.776 1147.496 1157.436 1168.156 1178.996 1189.7159 1194.876 1205.5959 1210.756 1221.916 1233.256 1244.036 1254.9561 1268.236 1279.396 1292.676 1297.8361 1307.9561 1318.536 1328.376 1339.536 1350.376 1361.0959"
         y="130"
         id="tspan122">до 1 406 единиц подвижного состава с объемом кузова </tspan><tspan
         x="838.08002 846.03998 857.23999 867.85999 882.38 890.34003 901.85999 914.21997 916.71997"
         y="156"
         id="tspan124">122—138 м</tspan></text><text
       transform="matrix(1,0,0,-1,1378.9196,451.9601)"
       style="font-variant:normal;font-weight:300;font-stretch:normal;font-size:11.66px;font-family:'Rubik Light';-inkscape-font-specification:Rubik-Light;writing-mode:lr-tb;fill:#000000;fill-opacity:1;fill-rule:nonzero;stroke:none"
       id="text130"><tspan
         x="0"
         y="0"
         id="tspan128">3</tspan></text><text
       transform="matrix(1,0,0,-1,1385.6356,445.3)"
       style="font-variant:normal;font-weight:300;font-stretch:normal;font-size:20px;font-family:'Rubik Light';-inkscape-font-specification:Rubik-Light;writing-mode:lr-tb;fill:#000000;fill-opacity:1;fill-rule:nonzero;stroke:none"
       id="text134"><tspan
         x="0"
         y="0"
         id="tspan132">.</tspan></text><text
       transform="matrix(1,0,0,-1,99,953.8201)"
       style="font-variant:normal;font-weight:500;font-stretch:normal;font-size:28px;font-family:'Rubik Medium';-inkscape-font-specification:Rubik-Medium;writing-mode:lr-tb;fill:#000000;fill-opacity:1;fill-rule:nonzero;stroke:none"
       id="text140"><tspan
         x="0 16.968 33.152 48.972 66.444 83.916 100.128 116.312 132.328 147.7252 164.32919 180.5132 186.8972 203.50121 220.24519 236.2612 253.1732 269.18921 293.24121 310.7132 327.0932 343.10919 360.58121 378.05319 394.23721 400.62119 418.0932 424.4772 441.66919 457.85321 477.56519 494.16919 511.6412 526.50922"
         y="0"
         id="tspan136">Техническое обслуживание и ремонт </tspan><tspan
         x="0 17.136 33.740002 51.352001 67.732002 85.204002 109.256 126.728 143.332 155.5652 172.1692 178.55321 194.5692 211.1732 227.18919 242.05721 258.07321 274.45319"
         y="33.992001"
         id="tspan138">подвижного состава</tspan></text><text
       transform="matrix(1,0,0,-1,85.0103,100)"
       style="font-variant:normal;font-weight:normal;font-stretch:normal;font-size:323.835px;font-family:'Prosto One';-inkscape-font-specification:ProstoOne-Regular;writing-mode:lr-tb;fill:#faaa2d;fill-opacity:1;fill-rule:nonzero;stroke:none"
       id="text144"><tspan
         x="0 233.58189 473.12234 513.60168 640.31818 900.51923"
         y="0"
         id="tspan142">36 100</tspan></text><text
       transform="matrix(1,0,0,-1,1287,178)"
       style="font-variant:normal;font-weight:500;font-stretch:normal;font-size:20px;font-family:'Rubik Medium';-inkscape-font-specification:Rubik-Medium;writing-mode:lr-tb;fill:#000000;fill-opacity:1;fill-rule:nonzero;stroke:none"
       id="text154"><tspan
         x="0 13.74 18.299999 30.700001 43.880001 56.279999 69.459999 74.019997 82.760002 94.620003 107.2 118.64 123.2 136.06 147.92 162 174.24001 185.67999 198.16 210.64 222.16 226.72 238.96001 251.24001 263.10001 274.79999 286.258 298.33801 309.77802 314.33801 326.95801 339.51801 343.496 352.776"
         y="0"
         id="tspan146">В 2020 году Компания провела 36,1 </tspan><tspan
         x="0 10.62 25.98 37.419998 42.799999 47.360001 59.599998 71.68 83.120003 95.599998 107.46 119.16 134.52 145.82001 150.38 162.66 174.22 188.3 200.16 212.64 223.25999 235.12 246.82001 251.38 263.07999 274.51999 283.25601 295.116 307.59601 319.45599 331.15601 336.45599 341.01599 352.716 357.276 367.896 379.75601 393.836"
         y="26"
         id="tspan148">тыс. плановых ремонтов вагонов, в том </tspan><tspan
         x="0 11.58 24.059999 35.5 47.580002 59.139999 63.700001 75.980003 87.540001 100.02 111.88 123.58 135.02 147.78 160.25999 176.98 181.53999 190.82001 195.38 207.74001 220.92 231.82001 236.38 247.84 260.12 275.48001 286.10001 301.45999 312.76001 317.32001 329.01999 340.45999 349.19601 361.056 373.53601 385.396 397.09601"
         y="52"
         id="tspan150">числе реновацию 1 907 крытых вагонов </tspan><tspan
         x="0 11.44 16 27.860001 39.82 52.060001 63.619999 77.699997 89.559998 103.64 108.2 119.66 131.10001 141.82001 153.67999 165.38 176.82001 181.38 190.66 203.06 215.118 229.698 238.978 251.59801 264.73801 267.23999 281.32001"
         y="78"
         id="tspan152">с объемом кузова 122—138 м3</tspan></text><g
       id="g156"><g
         id="g158"
         clip-path="url(#clipPath162)"><g
           id="g164"
           transform="translate(1438,326.6842)"><path
             d="m 0,0 h -136 c -11.046,0 -20,-8.954 -20,-20 0,-11.046 8.954,-20 20,-20 H 0 c 11.046,0 20,8.954 20,20 C 20,-8.954 11.046,0 0,0"
             style="fill:#e8e8ed;fill-opacity:1;fill-rule:nonzero;stroke:none"
             id="path166" /></g></g></g><text
       transform="matrix(1,0,0,-1,1302.4929,299.4028)"
       style="font-variant:normal;font-weight:500;font-stretch:normal;font-size:28px;font-family:'Rubik Medium';-inkscape-font-specification:Rubik-Medium;writing-mode:lr-tb;fill:#000000;fill-opacity:1;fill-rule:nonzero;stroke:none"
       id="text170"><tspan
         x="0 17.191999 33.375999 53.088001 69.692001 87.164001 102.032 118.636"
         y="0"
         id="tspan168">ремонтов</tspan></text><text
       transform="matrix(1,0,0,-1,38.1401,1023)"
       style="font-variant:normal;font-weight:300;font-stretch:normal;font-size:20px;font-family:'Rubik Light';-inkscape-font-specification:Rubik-Light;writing-mode:lr-tb;fill:#000000;fill-opacity:1;fill-rule:nonzero;stroke:none"
       id="text174"><tspan
         x="0 11.52"
         y="0"
         id="tspan172">32</tspan></text><g
       id="g176"><g
         id="g178"><g
           id="g180"
           clip-path="url(#clipPath184)"><text
             transform="matrix(1,0,0,-1,99,1023)"
             style="font-variant:normal;font-weight:300;font-stretch:normal;font-size:20px;font-family:'Rubik Light';-inkscape-font-specification:Rubik-Light;writing-mode:lr-tb;fill:#000000;fill-opacity:1;fill-rule:nonzero;stroke:none"
             id="text188"><tspan
               x="0 13.24 18.4 28.02 39.18 52.459999 63.98 74.699997 86.620003 98.540001"
               y="0"
               id="tspan186">О компании</tspan></text></g></g></g></g></svg>
