<?xml version="1.0" encoding="UTF-8" standalone="no"?>
<?xml-stylesheet type="text/css" href="main.css" ?>
<svg
   xmlns:dc="http://purl.org/dc/elements/1.1/"
   xmlns:cc="http://creativecommons.org/ns#"
   xmlns:rdf="http://www.w3.org/1999/02/22-rdf-syntax-ns#"
   xmlns:svg="http://www.w3.org/2000/svg"
   xmlns="http://www.w3.org/2000/svg"
   xmlns:sodipodi="http://sodipodi.sourceforge.net/DTD/sodipodi-0.dtd"
   xmlns:inkscape="http://www.inkscape.org/namespaces/inkscape"
   version="1.1"
   id="svg2"
   xml:space="preserve"
   width="2560"
   height="1440"
   viewBox="0 0 2560 1440"
   sodipodi:docname="34.svg"
   inkscape:version="1.0.2 (e86c8708, 2021-01-15)"><sodipodi:namedview
     pagecolor="#ffffff"
     bordercolor="#666666"
     borderopacity="1"
     objecttolerance="10"
     gridtolerance="10"
     guidetolerance="10"
     inkscape:pageopacity="0"
     inkscape:pageshadow="2"
     inkscape:window-width="2560"
     inkscape:window-height="988"
     id="namedview70"
     showgrid="false"
     inkscape:zoom="0.2984375"
     inkscape:cx="1280"
     inkscape:cy="720"
     inkscape:window-x="0"
     inkscape:window-y="22"
     inkscape:window-maximized="1"
     inkscape:current-layer="g10" /><metadata
     id="metadata8"><rdf:RDF><cc:Work
         rdf:about=""><dc:format>image/svg+xml</dc:format><dc:type
           rdf:resource="http://purl.org/dc/dcmitype/StillImage" /></cc:Work></rdf:RDF></metadata><defs
     id="defs6"><clipPath
       clipPathUnits="userSpaceOnUse"
       id="clipPath20"><path
         d="M 0,1080 H 1920 V 0 H 0 Z"
         id="path18" /></clipPath><clipPath
       clipPathUnits="userSpaceOnUse"
       id="clipPath30"><path
         d="M 0,0 H 1373 V 990 H 0 Z"
         id="path28" /></clipPath></defs><g
     id="g10"
     transform="matrix(1.3333333,0,0,-1.3333333,0,1440)"><g
       id="g12"><g
         id="g14"><g
           id="g16"
           clip-path="url(#clipPath20)"><path
             d="M 0,0 H 1920 V 1080 H 0 Z"
             style="fill:#ffffff;fill-opacity:1;fill-rule:nonzero;stroke:none"
             id="path22" /></g></g></g><text
       transform="matrix(1,0,0,-1,1375,861.1201)"
       style="font-variant:normal;font-weight:300;font-stretch:normal;font-size:20px;font-family:'Rubik Light';-inkscape-font-specification:Rubik-Light;writing-mode:lr-tb;fill:#000000;fill-opacity:1;fill-rule:nonzero;stroke:none"
       id="text40"><tspan
         x="0 12.64 25.82 37.040001 47.759998 52.919998 64.540001 75.260002 85.099998 96.720001 107.44 118.78 129.94 139.88 150.60001 162.52 173.24001 178.39999 189.92 201.53999 212.7 221.06 232.98 244.14 253.98 265.89999 276.62 287 292.16 305.44 316.60001 328.12 339.04001 350.26001 359.78 364.51999 369.67999 379.79999 390.95999 400.89999"
         y="0"
         id="tspan38">Была разработана прогнозная модель, кото</tspan></text><text
       transform="matrix(1,0,0,-1,1787.06,861.1201)"
       style="font-variant:normal;font-weight:300;font-stretch:normal;font-size:20px;font-family:'Rubik Light';-inkscape-font-specification:Rubik-Light;writing-mode:lr-tb;fill:#000000;fill-opacity:1;fill-rule:nonzero;stroke:none"
       id="text44"><tspan
         x="0"
         y="0"
         id="tspan42">-</tspan></text><text
       transform="matrix(1,0,0,-1,1375,835.1201)"
       style="font-variant:normal;font-weight:300;font-stretch:normal;font-size:20px;font-family:'Rubik Light';-inkscape-font-specification:Rubik-Light;writing-mode:lr-tb;fill:#000000;fill-opacity:1;fill-rule:nonzero;stroke:none"
       id="text48"><tspan
         x="0 11.62 22.34 32.720001 37.880001 49.400002 61.02 72.940002 78.099998 89.620003 100.78 114.06 125.22 141.12 153.03999 158.2 168.92 180.08 190.92 202.53999 213.46001 226.74001 237.66 249.58 261.5 274.67999 285.04001 290.20001 300.14001 311.06 321.42001 333.34 344.5 355.72 366.88 375.23999 387.16 399.07999 404.23999 417.51999"
         y="0"
         id="tspan46">рая при помощи современных технологий ма</tspan></text><text
       transform="matrix(1,0,0,-1,1803.24,835.1201)"
       style="font-variant:normal;font-weight:300;font-stretch:normal;font-size:20px;font-family:'Rubik Light';-inkscape-font-specification:Rubik-Light;writing-mode:lr-tb;fill:#000000;fill-opacity:1;fill-rule:nonzero;stroke:none"
       id="text52"><tspan
         x="0"
         y="0"
         id="tspan50">-</tspan></text><text
       transform="matrix(1,0,0,-1,1375,809.1201)"
       style="font-variant:normal;font-weight:300;font-stretch:normal;font-size:20px;font-family:'Rubik Light';-inkscape-font-specification:Rubik-Light;writing-mode:lr-tb;fill:#000000;fill-opacity:1;fill-rule:nonzero;stroke:none"
       id="text60"><tspan
         x="0 15.38 27.299999 39.220001 51.139999 62.299999 70.660004 81.82 86.980003 98.139999 109.48 120.06 130.60001 141.52 153.44 165.36 175.74001 180.89999 192.06 203.58 215.2 226.12 237.64 248.56 259.78 270.16 281.07999 291.01999 296.17999 307.70001 318.42001 328.35999 338.94 344.10001 355.62 367.23999 379.16 390.5 403.67999 413.62 425.54001 435.92001"
         y="0"
         id="tspan54">шинного обучения определяет дату прибытия </tspan><tspan
         x="0 10.84 21.559999 29.92 41.080002 53 64.160004 75 80.160004 91.68 102.9 113.28 118.44 128.56 139.78 151.7 162.62 174.53999 184.48 195.64 206.48 211.24001 216.39999 228.24001 238.96001 250.17999 262.10001 267.26001 278.88 289.60001 301.51999 311.04001 326.42001 337.34 342.5 354.01999 364.73999 376.35999 386.29999 398.22 409.14001 420.76001 433.94"
         y="26"
         id="tspan56">вагонов для клиентов. Если раньше партнеры </tspan><tspan
         x="0 13.28 24.440001 32.799999 44.02 55.939999 61.099998 72.260002 83.879997 95.800003 106.72 118.64 128.58 140.5 152.12 163.28 174.12 184.84 194.78 204.3 215.02 225.39999 230.56 240.5 251.66 262.88 272.39999 282.51999 293.67999 298.84 310.76001 321.48001 326.64001 337.35999 348.98001 360.14001 370.26001 375.42001 386.94"
         y="52"
         id="tspan58">могли ориентироваться только на срок до</tspan></text><text
       transform="matrix(1,0,0,-1,1773.1,757.1201)"
       style="font-variant:normal;font-weight:300;font-stretch:normal;font-size:20px;font-family:'Rubik Light';-inkscape-font-specification:Rubik-Light;writing-mode:lr-tb;fill:#000000;fill-opacity:1;fill-rule:nonzero;stroke:none"
       id="text64"><tspan
         x="0"
         y="0"
         id="tspan62">-</tspan></text><text
       transform="matrix(1,0,0,-1,1375,731.1201)"
       style="font-variant:normal;font-weight:300;font-stretch:normal;font-size:20px;font-family:'Rubik Light';-inkscape-font-specification:Rubik-Light;writing-mode:lr-tb;fill:#000000;fill-opacity:1;fill-rule:nonzero;stroke:none"
       id="text70"><tspan
         x="0 10.72 20.66 31.379999 42.220001 52.34 64.260002 69.419998 81.339996 91.18 96.339996 108.26 118.98 129.10001 140.32001 151.03999 162.56 174.48 185.64 197.56 202.3 207.46001 217.39999 228.56 233.72 243.66 254.58 266.10001 277.01999 288.64001 298.16 303.32001 314.48001 326.39999 338.32001 343.48001 355 366.16 377.38 387.95999 398.5 409.22 424.48001 434.42001"
         y="0"
         id="tspan66">ставки из накладной, то теперь они получают </tspan><tspan
         x="0 11.34 22.5 33.720001 44.639999 55.560001 60.720001 70.660004 81.82 92.360001 104.28 117.46 128.38 133.53999 145.46001 150.62 161.34 171.46001 181.39999 191.98 202.7 213.92 223.44 235.36 248.53999 259.45999 264.62 276.14001 286.85999 298.78 310.70001 323.88 334.79999 339.56 344.72 357.12 367.06 378.22 383.38 394.89999 406.06 416.89999"
         y="26"
         id="tspan68">более точные и актуальные данные. Это повы</tspan></text><text
       transform="matrix(1,0,0,-1,1805.08,705.1201)"
       style="font-variant:normal;font-weight:300;font-stretch:normal;font-size:20px;font-family:'Rubik Light';-inkscape-font-specification:Rubik-Light;writing-mode:lr-tb;fill:#000000;fill-opacity:1;fill-rule:nonzero;stroke:none"
       id="text74"><tspan
         x="0"
         y="0"
         id="tspan72">-</tspan></text><text
       transform="matrix(1,0,0,-1,1375,679.1201)"
       style="font-variant:normal;font-weight:300;font-stretch:normal;font-size:20px;font-family:'Rubik Light';-inkscape-font-specification:Rubik-Light;writing-mode:lr-tb;fill:#000000;fill-opacity:1;fill-rule:nonzero;stroke:none"
       id="text78"><tspan
         x="0 15.38 26.1 37.02 46.959999 52.119999 62.240002 72.959999 83.5 94.419998 105.14 115.08 125.92 137.08 142.24001 153.75999 164.98 175.7 187.62 199.53999 211.16 222.32001 233.16 243.88 255.8 267.72 278.10001 283.26001 291.62 303.23999 313.82001 323.66 334.82001 345.66 358.84 369.20001 374.35999 385.51999 397.04001"
         y="0"
         id="tspan76">шает качество планирования грузовых опе</tspan></text><text
       transform="matrix(1,0,0,-1,1782.96,679.1201)"
       style="font-variant:normal;font-weight:300;font-stretch:normal;font-size:20px;font-family:'Rubik Light';-inkscape-font-specification:Rubik-Light;writing-mode:lr-tb;fill:#000000;fill-opacity:1;fill-rule:nonzero;stroke:none"
       id="text82"><tspan
         x="0"
         y="0"
         id="tspan80">-</tspan></text><text
       transform="matrix(1,0,0,-1,1375,653.1201)"
       style="font-variant:normal;font-weight:300;font-stretch:normal;font-size:20px;font-family:'Rubik Light';-inkscape-font-specification:Rubik-Light;writing-mode:lr-tb;fill:#000000;fill-opacity:1;fill-rule:nonzero;stroke:none"
       id="text86"><tspan
         x="0 11.62 22.34 34.360001 46.279999 58.200001 63.360001 75.279999 86 91.160004 101.88 111.82 122.54 134.46001 146.48 158.39999 168.78 179.14 183.88 189.03999 199.75999 210.92 221.03999 232.66 243.38 259.28 270 280.92001 290.85999 296.01999 307.54001 319.16 330.32001 341.04001 350.98001 362.14001 374.06 378.79999 383.95999 395.12 406.64001 416.57999"
         y="0"
         id="tspan84">раций на станциях, сокращает простои, опти</tspan></text><text
       transform="matrix(1,0,0,-1,1803.5,653.1201)"
       style="font-variant:normal;font-weight:300;font-stretch:normal;font-size:20px;font-family:'Rubik Light';-inkscape-font-specification:Rubik-Light;writing-mode:lr-tb;fill:#000000;fill-opacity:1;fill-rule:nonzero;stroke:none"
       id="text90"><tspan
         x="0"
         y="0"
         id="tspan88">-</tspan></text><text
       transform="matrix(1,0,0,-1,1375,627.1201)"
       style="font-variant:normal;font-weight:300;font-stretch:normal;font-size:20px;font-family:'Rubik Light';-inkscape-font-specification:Rubik-Light;writing-mode:lr-tb;fill:#000000;fill-opacity:1;fill-rule:nonzero;stroke:none"
       id="text96"><tspan
         x="0 13.28 25.200001 35.040001 46.959999 58.580002 69.160004 80.080002 90.019997 95.18 106.7 118.32 129.48 141.39999 151.24001 162.08 173.24001 184.75999 195.48 205.42 216.25999 227.17999 239.10001 251.02 264.20001 276.12 281.28 293.29999 305.22 315.34 326.56 331.72 342.56 353.28 361.64001 372.79999 384.72 395.88 406.72 411.45999 416.62 427.34"
         y="0"
         id="tspan92">мизирует производственный цикл вагонов, а </tspan><tspan
         x="0 9.9399996 20.66 30.780001 45.759998 56.68 61.84 73.360001 84.519997 95.360001 108.54 123.92 134.64 145.56 155.5 160.66 171.88 183.03999 193.42 204.64 214.16 226.08 237.24001 247.96001 257.89999 267.42001 272.57999 282.70001 293.92001 305.84 316.76001 328.67999 338.62 349.78 360.62"
         y="26"
         id="tspan94">также повышает лояльность клиентов.</tspan></text><text
       transform="matrix(1,0,0,-1,1375,953.8201)"
       style="font-variant:normal;font-weight:500;font-stretch:normal;font-size:28px;font-family:'Rubik Medium';-inkscape-font-specification:Rubik-Medium;writing-mode:lr-tb;fill:#000000;fill-opacity:1;fill-rule:nonzero;stroke:none"
       id="text102"><tspan
         x="0 20.412001 37.604 54.18 66.639999 84.084 100.66 115.64 122.052 139.636 155.62399 170.464 191.884 198.29601 215.40401 232.59599 250.03999 266.75601 288.17599 303.01599 320.45999 336.53201"
         y="0"
         id="tspan98">Прогноз даты прибытия </tspan><tspan
         x="0 16.323999 32.312 44.771999 61.348 78.792 94.779999 101.192 117.516 123.928 144.48 163.24001"
         y="33.992001"
         id="tspan100">вагона в ЛКК</tspan></text><text
       transform="matrix(1,0,0,-1,1375,467.1201)"
       style="font-variant:normal;font-weight:300;font-stretch:normal;font-size:20px;font-family:'Rubik Light';-inkscape-font-specification:Rubik-Light;writing-mode:lr-tb;fill:#000000;fill-opacity:1;fill-rule:nonzero;stroke:none"
       id="text114"><tspan
         x="0 13.06 18.219999 29.42 41.740002 52.939999 65.260002 70.419998 78.779999 89.940002 101.46 112.04 117.2 131.2 141.3 153.58 158.74001 169.46001 179.58 189.52 201.44 212.28 224.2 235.36 240.52 252.14 262.85999 272.70001 283.54001 295.45999 306.29999 317.01999 328.23999 338.95999"
         y="0"
         id="tspan104">В 2020 году ПГК активно развивала </tspan><tspan
         x="0 11.92 22.639999 34.16 45.779999 56.5 67.339996 78.559998 89.480003 101.4 113.32 124.24 129.39999 140.12 152.03999 162.75999 173.98 185.89999 195.74001 206.46001 211.62 223.14 233.86 245.78 257.70001 270.88 281.23999 286.39999 298.32001 303.48001 316.76001 327.48001 342.85999 354.78 366.70001 378.62 389.78 398.14001 409.29999"
         y="26"
         id="tspan106">направление анализа данных и машинного </tspan><tspan
         x="0 11.16 22.5 33.080002 43.619999 54.540001 66.459999 78.379997 88.760002 93.5 98.660004 110 123.18 134.39999 146.32001 151.48 161.32001 172.03999 183.56 194.14 210.03999 220.96001 232.88 246.06 251.22 263.14001 274.06 284.78 294.89999 306.06 317.28 326.79999 336.92001 348.07999"
         y="52"
         id="tspan108">обучения, были запущены несколько </tspan><tspan
         x="0 11.52 23.139999 34.299999 42.66 54.580002 65.739998 75.580002 87.5 100.68 111.04 116.2 128.22 140.14 153.72 165.34 176.5 187.34 200.52 210.88 216.03999 227.56 239.17999 250.34 261.85999 272.44 282.56 292.5 303.66 314.5 319.23999 324.39999 334.51999 345.67999 355.62 366.78 378.39999 391.57999 402.5"
         y="78"
         id="tspan110">прогнозных цифровых продуктов, которые </tspan><tspan
         x="0 11.92 22.639999 34.16 45.32 56.540001 66.059998 75.900002 86.480003 101.74 111.68 122.4 132.78 137.94 149.86 155.02 165.86 171.02 182.53999 194.16 204.74001 213.10001 225.02 235.38 240.53999 252.06 263.67999 274.84 286.35999 296.94 307.06 317 327.72 338.07999 343.23999 355.51999 366.67999 379.95999 391.48001 402.20001 414.12 426.04001 437.95999"
         y="104"
         id="tspan112">используются и в других продуктах Компании.</tspan></text><text
       transform="matrix(1,0,0,-1,1375,525.8201)"
       style="font-variant:normal;font-weight:500;font-stretch:normal;font-size:28px;font-family:'Rubik Medium';-inkscape-font-specification:Rubik-Medium;writing-mode:lr-tb;fill:#000000;fill-opacity:1;fill-rule:nonzero;stroke:none"
       id="text118"><tspan
         x="0 19.684 35.672001 47.683998 63.672001 70.084 88.059998 104.048 111.44 127.596 145.06799 161.056 177.21201 183.62399 197.84801 204.25999 226.968 242.95599 258.944 276.556 283.948 301.42001 317.57599 323.98801 340.228 356.384 372.37201 384.048 401.51999 408.91199 426.384"
         y="0"
         id="tspan116">Data Science / Machine Learning</tspan></text><text
       transform="matrix(1,0,0,-1,37.7903,1023)"
       style="font-variant:normal;font-weight:300;font-stretch:normal;font-size:20px;font-family:'Rubik Light';-inkscape-font-specification:Rubik-Light;writing-mode:lr-tb;fill:#000000;fill-opacity:1;fill-rule:nonzero;stroke:none"
       id="text122"><tspan
         x="0 11.52 61.200001 74.440002 79.599998 89.720001 100.88 114.16 125.68 136.39999 148.32001 160.24001"
         y="0"
         id="tspan120">34О компании</tspan></text></g></svg>
