<?xml version="1.0" encoding="UTF-8" standalone="no"?>
<?xml-stylesheet type="text/css" href="main.css" ?>
<svg
   xmlns:dc="http://purl.org/dc/elements/1.1/"
   xmlns:cc="http://creativecommons.org/ns#"
   xmlns:rdf="http://www.w3.org/1999/02/22-rdf-syntax-ns#"
   xmlns:svg="http://www.w3.org/2000/svg"
   xmlns="http://www.w3.org/2000/svg"
   version="1.1"
   id="svg2"
   xml:space="preserve"
   width="2560"
   height="1440"
   viewBox="0 0 2560 1440"><metadata
     id="metadata8"><rdf:RDF><cc:Work
         rdf:about=""><dc:format>image/svg+xml</dc:format><dc:type
           rdf:resource="http://purl.org/dc/dcmitype/StillImage" /></cc:Work></rdf:RDF></metadata><defs
     id="defs6"><clipPath
       clipPathUnits="userSpaceOnUse"
       id="clipPath20"><path
         d="M 0,1080 H 1920 V 0 H 0 Z"
         id="path18" /></clipPath><clipPath
       clipPathUnits="userSpaceOnUse"
       id="clipPath106"><path
         d="M 0,1080 H 1920 V 0 H 0 Z"
         id="path104" /></clipPath></defs><g
     id="g10"
     transform="matrix(1.3333333,0,0,-1.3333333,0,1440)"><g
       id="g12"><g
         id="g14"><g
           id="g16"
           clip-path="url(#clipPath20)"><path
             d="M 0,0 H 1920 V 1080 H 0 Z"
             style="fill:#ffffff;fill-opacity:1;fill-rule:nonzero;stroke:none"
             id="path22" /></g></g></g><text
       transform="matrix(1,0,0,-1,99,953.4)"
       style="font-variant:normal;font-weight:normal;font-stretch:normal;font-size:38px;font-family:'Prosto One';-inkscape-font-specification:ProstoOne-Regular;writing-mode:lr-tb;fill:#000000;fill-opacity:1;fill-rule:nonzero;stroke:none"
       id="text30"><tspan
         x="0 31.16 63.080002 94.239998 125.78 158.46001 186.77 200.07001 237.88 270.56 302.48001 333.64001 365.56 395.57999 429.78 460.17999 499.89001 528.96002"
         y="0"
         id="tspan24">АНАЛИЗ ФИНАНСОВЫХ </tspan><tspan
         x="0 30.02 57 85.309998 115.52 147.06 177.08 203.87 235.03 261.82001 296.01999 326.42001 339.72 372.39999 385.70001 423.51001 456.19 488.10999 519.27002 551.19 581.21002 615.40997 645.81 680.01001 705.09003 739.28998"
         y="45.599998"
         id="tspan26">РЕЗУЛЬТАТОВ И ФИНАНСОВОГО </tspan><tspan
         x="0 31.92 66.120003 97.660004 131.86 175.37 202.35001 234.27 266.95001"
         y="91.199997"
         id="tspan28">ПОЛОЖЕНИЯ</tspan></text><text
       transform="matrix(1,0,0,-1,99.0001,667.9844)"
       style="font-variant:normal;font-weight:normal;font-stretch:normal;font-size:88.2651px;font-family:'Prosto One';-inkscape-font-specification:ProstoOne-Regular;writing-mode:lr-tb;fill:#faaa2d;fill-opacity:1;fill-rule:nonzero;stroke:none"
       id="text40"><tspan
         x="0 80.391853 156.32632 250.41692 304.17035 326.67795"
         y="0"
         id="tspan32">ОПЫТ, </tspan><tspan
         x="0 51.034882 125.3541 190.87328 265.1925 341.23288 405.40161 483.0484 552.2041 624.22845 726.94257 828.8446 906.49139 982.39056"
         y="105.91812"
         id="tspan34">ГАРАНТИРУЮЩИЙ </tspan><tspan
         x="0 73.286514 128.29332 202.57722 272.54498 349.82108 424.84641 495.026 570.93396 664.93628 727.60455"
         y="211.83624"
         id="tspan36">СТАБИЛЬНЫЕ </tspan><tspan
         x="0 70.223717 135.96356 200.90903 268.423 343.47482 403.45978 458.44894 523.58856 587.7132"
         y="317.75436"
         id="tspan38">РЕЗУЛЬТАТЫ</tspan></text><g
       id="g42"
       transform="translate(99,102)"><path
         d="M 0,0 H 337"
         style="fill:none;stroke:#e8f0ec;stroke-width:4;stroke-linecap:butt;stroke-linejoin:miter;stroke-miterlimit:4;stroke-dasharray:none;stroke-opacity:1"
         id="path44" /></g><path
       d="m 1425.5,0.5 h 494 v 1078.999 h -494 z"
       style="fill:#e8e8ed;fill-opacity:1;fill-rule:nonzero;stroke:none"
       id="path46" /><text
       transform="matrix(1,0,0,-0.97087379,1485,961.3)"
       style="font-variant:normal;font-weight:300;font-stretch:normal;font-size:20.6px;font-family:'Rubik Light';-inkscape-font-specification:Rubik-Light;writing-mode:lr-tb;fill:#000000;fill-opacity:1;fill-rule:nonzero;stroke:none"
       id="text80"><tspan
         x="0 11.536 24.225599 35.7616 48.451199 53.765999 62.129601 73.624397 85.489998 90.804802 101.97 115.5454 127.411 138.45261 150.0092 161.0508 171.7422 177.05701 188.0986 199.6552 211.14999 226.57941 238.85699 252.4324 266.11081"
         y="0"
         id="tspan48">2020 год выдался сложным </tspan><tspan
         x="0 11.8656 23.422199 34.113602 39.428398 50.593601 61.635201 72.882797 81.246399 92.741203 98.056 110.0246 123.6 135.87759 146.30119 157.3428 162.65759 174.1524 186.01801 197.26559 209.23421 220.2758 230.51401 242.0088 253.9774 265.4722 276.63739 281.54019"
         y="26.780001"
         id="tspan50">для всего рынка операторов. </tspan><tspan
         x="0 11.4742 22.7218 36.4002 41.715 53.992599 65.240196 70.555 84.233398 95.481003 107.7586 119.0062 130.2538 135.5686 149.9886 160.3916 173.03999 178.3548 189.2522 201.1178 212.15939 223.716 235.2108 246.2524 256.05801"
         y="53.560001"
         id="tspan52">Тем не менее ПГК удалось </tspan><tspan
         x="0 10.8974 22.062599 33.227798 44.784401 57.062 67.918198 80.195801 90.433998 100.2396 105.5544 114.1652 125.7424 136.6398 146.77499 158.26981 169.7646 181.44479 192.93961 204.9082 216.403 226.6412 231.95599 244.2336 255.27521 260.59 272.57919 273.4444 288.70901"
         y="80.339996"
         id="tspan54">увеличить грузооборот на 6 % </tspan><tspan
         x="0 11.8656 23.360399 28.6752 39.716801 51.685398 62.727001 73.892197 86.1698 97.417397 109.695 121.9726 137.6904 143.0052 154.0468 159.3616 171.2272 183.1958 194.6906 210.532 222.08859 235.664 249.34241 254.6572 263.02081 274.51559 286.3812 297.87601 311.55441 316.43661"
         y="107.12"
         id="tspan56">по сравнению с прошлым годом, </tspan><tspan
         x="0 11.8656 23.360399 28.6752 40.211201 52.942001 64.725197 70.040001 83.718399 95.275002 107.2436 119.1092 124.424 134.6622 144.6944 155.118 168.7964 173.6992 179.01401 192.42461 200.4998 212.0564 223.09801 234.96359 247.2412 257.4794 267.285"
         y="133.89999"
         id="tspan58">до 289 млрд т-км. Сгладить </tspan><tspan
         x="0 12.2776 23.5252 32.136002 43.177601 53.415798 65.693398 76.858597 89.1362 102.7116 113.9592 119.274 131.2426 144.81799 157.0956 168.59039 179.44659 191.7242 205.29961 216.5472 221.862 232.1002 244.0688 255.31641 267.59399 279.45959 293.035"
         y="160.67999"
         id="tspan60">негативные рыночные тренды </tspan><tspan
         x="0 11.8656 23.360399 37.038799 48.5336 56.608799 68.165398 80.443001 85.757797 98.0354 109.077 120.6336 132.91119 143.7674 156.045 167.2926 172.60741 184.47301 195.7618 207.31841 215.68201 227.1768 238.2184 250.187 261.68179 272.53799 284.81561 298.39099 309.0618"
         y="187.46001"
         id="tspan62">помогли наличие долгосрочных </tspan><tspan
         x="0 9.9085999 21.4034 33.681 43.919201 55.887798 66.929398 77.352997 87.591202 99.085999 110.2512 115.566 126.6076 131.92239 143.78799 154.82961 166.7982 177.03641 189.314 200.5616 212.5302 223.57179 237.2502 249.5278 254.41"
         y="214.24001"
         id="tspan64">контрактов с партнерами, </tspan><tspan
         x="0 11.9686 23.010201 33.145401 44.3106 56.5882 66.826401 79.103996 90.351601 95.666397 106.708 117.9556 129.92419 141.0894 153.367 164.4086 176.6862 190.2616 200.9324"
         y="241.02"
         id="tspan66">развитие сервисных </tspan><tspan
         x="0 11.8656 23.8342 35.328999 43.9398 55.908401 66.949997 80.628403 94.306801 99.621597 111.8992 117.214 129.07961 141.35719 152.5224 163.77 175.7386 186.7802 199.0578 213.0452 225.3228 235.7464 246.78799 259.16861 271.4462 282.1376"
         y="267.79999"
         id="tspan68">программ и диверсификация </tspan><tspan
         x="0 10.4236 21.9802 34.257801 45.505402 57.783001 68.021202 79.062798 88.969337 100.46414 108.82774 120.32254 125.63734 137.50294 148.99774 160.96634 171.20454 185.19194 196.35715 207.91374 218.60513 223.48734 228.80214 239.84373 245.15854 255.39674 266.43835 276.86194 292.29135 303.53894"
         y="294.57999"
         id="tspan70">клиентского портфеля, а также </tspan><tspan
         x="0 11.8656 23.360399 34.5256 48.101002 63.942402 75.190002 87.467598 99.745201 110.9928 116.3076 127.3492 141.33659 155.32401 166.57159 176.99519 187.2334 199.511 210.67619 222.9538 234.44859 245.4902 255.72839 268.00601"
         y="321.35999"
         id="tspan72">повышение эффективности </tspan><tspan
         x="0 11.9686 23.010201 34.690399 46.1852 56.423401 69.998802 75.313599 87.179199 98.220802 110.1894 120.613 131.6546 136.5368 141.85159 153.0168 158.3316 168.56979 180.06461 193.743 199.0578 209.914 222.1916 233.2332 244.78979 256.03741"
         y="348.14001"
         id="tspan74">работы парка, в том числе </tspan><tspan
         x="0 11.9686 23.4634 34.505001 44.743198 50.057999 61.923599 73.892197 85.387001 97.664597 107.7998 118.965 130.45979 142.32539 154.603 164.8412 176.00639 187.563 197.36861 209.64619 221.14101 232.1826 242.42081 254.69839"
         y="374.92001"
         id="tspan76">рост производительности </tspan><tspan
         x="0 11.8656 23.1544 34.710999 45.608398 56.773602 67.815201 76.178802 87.673599 99.951202 111.446 122.6112"
         y="401.70001"
         id="tspan78">полувагонов.</tspan></text><text
       transform="matrix(1,0,0,-0.97087379,1485,178)"
       style="font-variant:normal;font-weight:500;font-stretch:normal;font-size:20.6px;font-family:'Rubik Medium';-inkscape-font-specification:Rubik-Medium;writing-mode:lr-tb;fill:#000000;fill-opacity:1;fill-rule:nonzero;stroke:none"
       id="text84"><tspan
         x="0 14.2964 27.150801 40.005199 51.788399 56.485199 71.523201 83.43 95.233803 107.8822 119.6654 131.44859 143.6644 155.71539"
         y="0"
         id="tspan82">Анна Некрасова</tspan></text><text
       transform="matrix(1,0,0,-0.97087379,1485,152)"
       style="font-variant:normal;font-weight:300;font-stretch:normal;font-size:20.6px;font-family:'Rubik Light';-inkscape-font-specification:Rubik-Light;writing-mode:lr-tb;fill:#000000;fill-opacity:1;fill-rule:nonzero;stroke:none"
       id="text92"><tspan
         x="0 12.3394 23.381001 37.059399 48.306999 59.348598 69.5868 81.864403 92.1026 103.2678 114.8244 124.63 129.94479 137.6492 148.8968 161.17439 172.422 184.39059 195.43221 206.9888 216.7944 229.07201 240.5668 248.9304 260.4252"
         y="0"
         id="tspan86">Заместитель Генерального </tspan><tspan
         x="0 11.8656 24.1432 36.111801 47.359402 57.783001 68.021202 79.515999 91.484596 102.5262 107.841 119.7066 131.2014 136.5162 147.5578 157.4664 168.9612 181.2388 192.7336 206.412 218.68961 228.59821 239.84579"
         y="26.780001"
         id="tspan88">директора по экономике </tspan><tspan
         x="0 12.2776 17.5924 31.5798 43.857399 56.134998 67.176598 79.454201 90.495796 101.5374"
         y="53.560001"
         id="tspan90">и финансам</tspan></text><text
       transform="matrix(1,0,0,-1,37.5602,1023)"
       style="font-variant:normal;font-weight:300;font-stretch:normal;font-size:20px;font-family:'Rubik Light';-inkscape-font-specification:Rubik-Light;writing-mode:lr-tb;fill:#000000;fill-opacity:1;fill-rule:nonzero;stroke:none"
       id="text96"><tspan
         x="0 11.52"
         y="0"
         id="tspan94">38</tspan></text><g
       id="g98"><g
         id="g100"><g
           id="g102"
           clip-path="url(#clipPath106)"><text
             transform="matrix(1,0,0,-1,99,1023)"
             style="font-variant:normal;font-weight:300;font-stretch:normal;font-size:20px;font-family:'Rubik Light';-inkscape-font-specification:Rubik-Light;writing-mode:lr-tb;fill:#000000;fill-opacity:1;fill-rule:nonzero;stroke:none"
             id="text110"><tspan
               x="0 13.24 18.4 28.02 39.18 52.459999 63.98 74.699997 86.620003 98.540001"
               y="0"
               id="tspan108">О компании</tspan></text></g></g></g></g></svg>
