<?xml version="1.0" encoding="UTF-8" standalone="no"?>
<?xml-stylesheet type="text/css" href="main.css" ?>
<svg
   xmlns:dc="http://purl.org/dc/elements/1.1/"
   xmlns:cc="http://creativecommons.org/ns#"
   xmlns:rdf="http://www.w3.org/1999/02/22-rdf-syntax-ns#"
   xmlns:svg="http://www.w3.org/2000/svg"
   xmlns="http://www.w3.org/2000/svg"
   version="1.1"
   id="svg2"
   xml:space="preserve"
   width="2560"
   height="1440"
   viewBox="0 0 2560 1440"><metadata
     id="metadata8"><rdf:RDF><cc:Work
         rdf:about=""><dc:format>image/svg+xml</dc:format><dc:type
           rdf:resource="http://purl.org/dc/dcmitype/StillImage" /></cc:Work></rdf:RDF></metadata><defs
     id="defs6"><clipPath
       clipPathUnits="userSpaceOnUse"
       id="clipPath20"><path
         d="M 0,1080 H 1920 V 0 H 0 Z"
         id="path18" /></clipPath><linearGradient
       x1="0"
       y1="0"
       x2="1"
       y2="0"
       gradientUnits="userSpaceOnUse"
       gradientTransform="matrix(989.99933,206.82164,206.82164,-989.99933,827.92987,149.84293)"
       spreadMethod="pad"
       id="linearGradient254"><stop
         style="stop-opacity:1;stop-color:#faaa2d"
         offset="0"
         id="stop250" /><stop
         style="stop-opacity:1;stop-color:#2960a1"
         offset="1"
         id="stop252" /></linearGradient><clipPath
       clipPathUnits="userSpaceOnUse"
       id="clipPath264"><path
         d="M 0,0 H 1920 V 1080 H 0 Z"
         id="path262" /></clipPath><clipPath
       clipPathUnits="userSpaceOnUse"
       id="clipPath286"><path
         d="M 0,1080 H 1920 V 0 H 0 Z"
         id="path284" /></clipPath></defs><g
     id="g10"
     transform="matrix(1.3333333,0,0,-1.3333333,0,1440)"><g
       id="g12"><g
         id="g14"><g
           id="g16"
           clip-path="url(#clipPath20)"><path
             d="M 0,0 H 1920 V 1080 H 0 Z"
             style="fill:#ffffff;fill-opacity:1;fill-rule:nonzero;stroke:none"
             id="path22" /></g></g></g><text
       transform="matrix(1,0,0,-1,99,960.4)"
       style="font-variant:normal;font-weight:500;font-stretch:normal;font-size:28px;font-family:'Rubik Medium';-inkscape-font-specification:Rubik-Medium;writing-mode:lr-tb;fill:#000000;fill-opacity:1;fill-rule:nonzero;stroke:none"
       id="text26"><tspan
         x="0 19.431999 36.903999 52.919998 69.832001 87.304001 102.312 108.696 125.3 142.436 158.62 175.812 191.828 209.692 227.164 243.76801 261.23999 278.71201 300.216"
         y="0"
         id="tspan24">Анализ операционных</tspan></text><text
       transform="matrix(1,0,0,-1,99,926.408)"
       style="font-variant:normal;font-weight:500;font-stretch:normal;font-size:28px;font-family:'Rubik Medium';-inkscape-font-specification:Rubik-Medium;writing-mode:lr-tb;fill:#000000;fill-opacity:1;fill-rule:nonzero;stroke:none"
       id="text30"><tspan
         x="0 17.191999 33.208 49.223999 65.043999 81.648003 99.260002 115.864"
         y="0"
         id="tspan28">расходов</tspan></text><text
       transform="matrix(1,0,0,-1,99,874.4)"
       style="font-variant:normal;font-weight:300;font-stretch:normal;font-size:20px;font-family:'Rubik Light';-inkscape-font-specification:Rubik-Light;writing-mode:lr-tb;fill:#000000;fill-opacity:1;fill-rule:nonzero;stroke:none"
       id="text48"><tspan
         x="0 13.24 24.76 35.68 47.299999 58.02 70.040001 81.959999 93.120003 105.04 116.96 130.14 141.06 146.22 157.84 168.56 179.28 189.64 200.8 212.32001 225.5 230.66 241.5 246.66 257.85999 270.17999 281.38 293.70001 298.85999 306.97601 318.13599 329.65601 340.23599"
         y="0"
         id="tspan32">Операционные расходы в 2020 году </tspan><tspan
         x="0 10.84 24.02 35.639999 46.799999 57.52 68.739998 80.660004 85.82 97.739998 108.46 113.62 121.58 132.78 133.62 148.44 153.60001 165.52 170.67999 181.39999 192.56 203.28 213.22 223.94 234.78 246.7 257.92001 269.84 275 286.64001 297.84 303 314.44 325.95999 337.48001 342.64001 355.92001 367.14001 379.06"
         y="26"
         id="tspan34">выросли на 12 % и составили 62 533 млн </tspan><tspan
         x="0 11.24 21.82 33.16 44.380001 55.299999 67.220001 72.379997 83.900002 95.059998 100.22 110.94 122.56 133.28 144.12 156.03999 166.96001 178.88 190.8 206.06 211.22 221.94 227.10001 238.53999 249.98 255.14 266.57999 274.54001 282.5 287.66 300.94 312.16 324.07999 329.23999 340.47601 351.056 362.396 373.616 384.53601 396.45599"
         y="52"
         id="tspan36">рублей по сравнению с 55 911 млн рублей </tspan><tspan
         x="0 10.84 16 27.52 39.139999 50.299999 65.68 76.900002 88.059998 101.34 106.5 114.618 125.778 137.298 146.67799"
         y="78"
         id="tspan38">в прошлом году.</tspan><tspan
         x="0 13.52 24.74 35.119999 40.279999 51.799999 63.419998 75.339996 87.260002 97.639999 107.58 119.5 129.88 135.03999 145.62 157.14 168.75999 179.48 190.32001 201.53999 212.46001 224.38 234.92 245.84 256.56 266.67999 278.60001 288.95999 294.12 305.73999 316.66 332.04001 342.95999 354.88 366.79999 378.72"
         y="117"
         id="tspan40">Для принятия управленческих решений </tspan><tspan
         x="0 13.28 24.200001 36.119999 47.040001 58.560001 73.540001 86.82 97.739998 109.66 119.6 124.76 136.438 147.59801 160.87801 172.39799 183.118 195.03799 206.95799 218.87801 224.03799 234.758 246.67799 257.39801 268.61801 280.53799 290.37799 302.298 313.53601 323.776 334.69601 344.63599"
         y="143"
         id="tspan42">менеджмент Компании анализирует </tspan><tspan
         x="0 9.9399996 20.66 30.780001 45.759998 56.68 61.84 73 84.519997 95.440002 107.06 117.78 129.8 141.72 152.88 164.8 176.72 189.89999 200.82001 205.98 217.60001 228.32001 239.03999 249.39999 260.56 272.07999 285.26001 290.42001 301.26001 306.42001 318.04001 328.76001 338.60001 349.94 361.85999 372.70001 382.31601 393.23599"
         y="169"
         id="tspan44">также операционные расходы в разбивке </tspan><tspan
         x="0 11.92 22.639999 27.799999 39.32 50.240002 62.16 73.080002 88.059998 99.980003 113.16 124.08 129.24001 141.16 146.32001 158.24001 169.16 180.67999 191.60001 203.52 214.44 229.42 241.34 254.52 265.44"
         y="195"
         id="tspan46">на денежные и неденежные.</tspan></text><text
       transform="matrix(1,0,0,-1,831,961.3)"
       style="font-variant:normal;font-weight:500;font-stretch:normal;font-size:20px;font-family:'Rubik Medium';-inkscape-font-specification:Rubik-Medium;writing-mode:lr-tb;fill:#000000;fill-opacity:1;fill-rule:nonzero;stroke:none"
       id="text52"><tspan
         x="0 13.9 25.860001 42.560001 55.040001 66.599998 71.160004 83.019997 95.260002 106.82 119.1 130.53999 143.3 155.78 167.64 180.12 192.60001 207.96001 219.52 224.08 236.36 247.8 259.23999 270.54001 282.39999 294.98001 310.34 314.89999 326.60001 331.16 345.23999 357.32001 369.79999 374.35999 386.21399 397.65399 409.61401"
         y="0"
         id="tspan50">Общие операционные расходы в млн руб.</tspan></text><g
       id="g54"
       transform="translate(831,918.6001)"><path
         d="M 0,0 H 563"
         style="fill:none;stroke:#e6e7e8;stroke-width:1;stroke-linecap:butt;stroke-linejoin:miter;stroke-miterlimit:10;stroke-dasharray:none;stroke-opacity:1"
         id="path56" /></g><g
       id="g58"
       transform="translate(1394,918.6001)"><path
         d="M 0,0 H 91"
         style="fill:none;stroke:#e6e7e8;stroke-width:1;stroke-linecap:butt;stroke-linejoin:miter;stroke-miterlimit:10;stroke-dasharray:none;stroke-opacity:1"
         id="path60" /></g><g
       id="g62"
       transform="translate(1485,918.6001)"><path
         d="M 0,0 H 173"
         style="fill:none;stroke:#e6e7e8;stroke-width:1;stroke-linecap:butt;stroke-linejoin:miter;stroke-miterlimit:10;stroke-dasharray:none;stroke-opacity:1"
         id="path64" /></g><g
       id="g66"
       transform="translate(1658,918.6001)"><path
         d="M 0,0 H 163"
         style="fill:none;stroke:#e6e7e8;stroke-width:1;stroke-linecap:butt;stroke-linejoin:miter;stroke-miterlimit:10;stroke-dasharray:none;stroke-opacity:1"
         id="path68" /></g><g
       id="g70"
       transform="translate(831,785.9001)"><path
         d="M 0,0 H 563"
         style="fill:none;stroke:#e6e7e8;stroke-width:1;stroke-linecap:butt;stroke-linejoin:miter;stroke-miterlimit:10;stroke-dasharray:none;stroke-opacity:1"
         id="path72" /></g><g
       id="g74"
       transform="translate(1394,785.9001)"><path
         d="M 0,0 H 91"
         style="fill:none;stroke:#e6e7e8;stroke-width:1;stroke-linecap:butt;stroke-linejoin:miter;stroke-miterlimit:10;stroke-dasharray:none;stroke-opacity:1"
         id="path76" /></g><g
       id="g78"
       transform="translate(1485,785.9001)"><path
         d="M 0,0 H 173"
         style="fill:none;stroke:#e6e7e8;stroke-width:1;stroke-linecap:butt;stroke-linejoin:miter;stroke-miterlimit:10;stroke-dasharray:none;stroke-opacity:1"
         id="path80" /></g><g
       id="g82"
       transform="translate(1658,785.9001)"><path
         d="M 0,0 H 163"
         style="fill:none;stroke:#e6e7e8;stroke-width:1;stroke-linecap:butt;stroke-linejoin:miter;stroke-miterlimit:10;stroke-dasharray:none;stroke-opacity:1"
         id="path84" /></g><g
       id="g86"
       transform="translate(831,741.9001)"><path
         d="M 0,0 H 563"
         style="fill:none;stroke:#e6e7e8;stroke-width:1;stroke-linecap:butt;stroke-linejoin:miter;stroke-miterlimit:10;stroke-dasharray:none;stroke-opacity:1"
         id="path88" /></g><g
       id="g90"
       transform="translate(1394,741.9001)"><path
         d="M 0,0 H 91"
         style="fill:none;stroke:#e6e7e8;stroke-width:1;stroke-linecap:butt;stroke-linejoin:miter;stroke-miterlimit:10;stroke-dasharray:none;stroke-opacity:1"
         id="path92" /></g><g
       id="g94"
       transform="translate(1485,741.9001)"><path
         d="M 0,0 H 173"
         style="fill:none;stroke:#e6e7e8;stroke-width:1;stroke-linecap:butt;stroke-linejoin:miter;stroke-miterlimit:10;stroke-dasharray:none;stroke-opacity:1"
         id="path96" /></g><g
       id="g98"
       transform="translate(1658,741.9001)"><path
         d="M 0,0 H 163"
         style="fill:none;stroke:#e6e7e8;stroke-width:1;stroke-linecap:butt;stroke-linejoin:miter;stroke-miterlimit:10;stroke-dasharray:none;stroke-opacity:1"
         id="path100" /></g><g
       id="g102"
       transform="translate(831,872.6001)"><path
         d="M 0,0 H 563"
         style="fill:none;stroke:#e6e7e8;stroke-width:1;stroke-linecap:butt;stroke-linejoin:miter;stroke-miterlimit:10;stroke-dasharray:none;stroke-opacity:1"
         id="path104" /></g><g
       id="g106"
       transform="translate(1394,872.6001)"><path
         d="M 0,0 H 91"
         style="fill:none;stroke:#e6e7e8;stroke-width:1;stroke-linecap:butt;stroke-linejoin:miter;stroke-miterlimit:10;stroke-dasharray:none;stroke-opacity:1"
         id="path108" /></g><g
       id="g110"
       transform="translate(1485,872.6001)"><path
         d="M 0,0 H 173"
         style="fill:none;stroke:#e6e7e8;stroke-width:1;stroke-linecap:butt;stroke-linejoin:miter;stroke-miterlimit:10;stroke-dasharray:none;stroke-opacity:1"
         id="path112" /></g><g
       id="g114"
       transform="translate(1658,872.6001)"><path
         d="M 0,0 H 163"
         style="fill:none;stroke:#e6e7e8;stroke-width:1;stroke-linecap:butt;stroke-linejoin:miter;stroke-miterlimit:10;stroke-dasharray:none;stroke-opacity:1"
         id="path116" /></g><g
       id="g118"
       transform="translate(831,829.9001)"><path
         d="M 0,0 H 563"
         style="fill:none;stroke:#e6e7e8;stroke-width:1;stroke-linecap:butt;stroke-linejoin:miter;stroke-miterlimit:10;stroke-dasharray:none;stroke-opacity:1"
         id="path120" /></g><g
       id="g122"
       transform="translate(1394,829.9001)"><path
         d="M 0,0 H 91"
         style="fill:none;stroke:#e6e7e8;stroke-width:1;stroke-linecap:butt;stroke-linejoin:miter;stroke-miterlimit:10;stroke-dasharray:none;stroke-opacity:1"
         id="path124" /></g><g
       id="g126"
       transform="translate(1485,829.9001)"><path
         d="M 0,0 H 173"
         style="fill:none;stroke:#e6e7e8;stroke-width:1;stroke-linecap:butt;stroke-linejoin:miter;stroke-miterlimit:10;stroke-dasharray:none;stroke-opacity:1"
         id="path128" /></g><g
       id="g130"
       transform="translate(1658,829.9001)"><path
         d="M 0,0 H 163"
         style="fill:none;stroke:#e6e7e8;stroke-width:1;stroke-linecap:butt;stroke-linejoin:miter;stroke-miterlimit:10;stroke-dasharray:none;stroke-opacity:1"
         id="path132" /></g><text
       transform="matrix(1,0,0,-1,1433.8403,930.6001)"
       style="font-variant:normal;font-weight:500;font-stretch:normal;font-size:20px;font-family:'Rubik Medium';-inkscape-font-specification:Rubik-Medium;writing-mode:lr-tb;fill:#000000;fill-opacity:1;fill-rule:nonzero;stroke:none"
       id="text136"><tspan
         x="0 12.4 25.58 37.98"
         y="0"
         id="tspan134">2020</tspan></text><text
       transform="matrix(1,0,0,-1,1610.7803,930.6001)"
       style="font-variant:normal;font-weight:500;font-stretch:normal;font-size:20px;font-family:'Rubik Medium';-inkscape-font-specification:Rubik-Medium;writing-mode:lr-tb;fill:#000000;fill-opacity:1;fill-rule:nonzero;stroke:none"
       id="text140"><tspan
         x="0 12.4 25.58 34.860001 164.82001 180.03999 190.75999 204.84"
         y="0"
         id="tspan138">2019Изм.</tspan></text><text
       transform="matrix(1,0,0,-1,831.0003,886.2601)"
       style="font-variant:normal;font-weight:300;font-stretch:normal;font-size:20px;font-family:'Rubik Light';-inkscape-font-specification:Rubik-Light;writing-mode:lr-tb;fill:#000000;fill-opacity:1;fill-rule:nonzero;stroke:none"
       id="text152"><tspan
         x="0 13.02 22.959999 34.119999 46.040001 59.32 70.480003 81.199997 91.139999 100.66 105.82 117.34 128.96001 140.88 152.03999 163.38 175 185.92 195.86 206.78 218.7 230.62 243.8 254.16 259.32001 272.60001 283.32001 293.26001 304.17999 315.79999 327.72 338.44 349.66 360.82001 371.66 376.82001 388.73999 393.89999 404.134 414.854 426.07401 436.65399 591.08002 602.97998 615.29999 620.46002 631.90002 641.64001 654 763.21997 774.73999 786.64001 791.79999 803 815.35999 954.85999 962.82001 975.17999"
         y="0"
         id="tspan142">Стоимость приобретенных материалов и услуг40 578 34 28618%</tspan><tspan
         x="0 13 26.280001 37.439999 49.060001 59 70.919998 80.760002 91.480003 103.5 115.42 593.65997 601.62 613.52002 618.67999 630.20001 642.56 654 766.79999 774.76001 785.96002 791.12 803.47998 814.67999 956.02002 963.97998 975.17999"
         y="44.34"
         id="tspan144">Амортизация14 389 12 82012%</tspan><tspan
         x="0 12.56 23.280001 34 44.360001 55.52 67.040001 80.220001 85.379997 97.300003 108.02 113.18 124.7 135.62 147.24001 157.96001 169.12 181.03999 191.75999 602.90002 612.64001 617.79999 630.12 642.47998 654 777.12 786.85999 792.02002 803.91998 815.56 827 954.21997 963.73999 975.17999"
         y="87.699997"
         id="tspan146">Расходы на персонал7 083 7 465 -5%</tspan><tspan
         x="0 14 25.620001 36.779999 47.32 59.240002 70.160004 75.32 86.940002 97.660004 108.38 118.74 129.89999 141.42 618.21997 630.12 642.47998 772.97998 778.14001 786.09998 791.26001 802.78003 814.67999 827 941.90002 951.64001 963.28003 975.17999"
         y="131.7"
         id="tspan148">Прочие расходы483 1 340 -64%</tspan><tspan
         x="0 14.52 24.459999 35.619999 43.740002"
         y="175.06"
         id="tspan150">Итого</tspan></text><text
       transform="matrix(1,0,0,-1,1417.8203,711.2001)"
       style="font-variant:normal;font-weight:500;font-stretch:normal;font-size:20px;font-family:'Rubik Medium';-inkscape-font-specification:Rubik-Medium;writing-mode:lr-tb;fill:#000000;fill-opacity:1;fill-rule:nonzero;stroke:none"
       id="text158"><tspan
         x="0 12.56 24.959999 29.52 41.939999 54.560001 67.18 179.86 192.28 204.7 209.25999 221.62 230.89999 365.79999 375.07999 387.48001"
         y="0"
         id="tspan154">62 533 55 91112%</tspan><tspan
         x="-586.82001 -572.91998 -560.96002 -544.26001 -531.78003 -520.21997 -515.65997 -503.79999 -491.56 -480 -467.72 -456.28 -443.51999 -431.04001 -419.17999 -406.70001 -394.22 -378.85999 -367.29999 -362.73999 -350.45999 -339.01999 -327.57999 -316.28 -304.42001 -291.84 -276.48001 -271.92001 -260.22 -255.66 -241.58 -229.5 -217.02 -212.46001 -200.606 -189.166 -177.20599"
         y="88.699997"
         id="tspan156">Общие операционные расходы в млн руб.</tspan></text><g
       id="g160"
       transform="translate(831.25,533.5)"><path
         d="M 0,0 H 563"
         style="fill:none;stroke:#e6e7e8;stroke-width:1;stroke-linecap:butt;stroke-linejoin:miter;stroke-miterlimit:10;stroke-dasharray:none;stroke-opacity:1"
         id="path162" /></g><g
       id="g164"
       transform="translate(1394.25,533.5)"><path
         d="M 0,0 H 91"
         style="fill:none;stroke:#e6e7e8;stroke-width:1;stroke-linecap:butt;stroke-linejoin:miter;stroke-miterlimit:10;stroke-dasharray:none;stroke-opacity:1"
         id="path166" /></g><g
       id="g168"
       transform="translate(1485.25,533.5)"><path
         d="M 0,0 H 173"
         style="fill:none;stroke:#e6e7e8;stroke-width:1;stroke-linecap:butt;stroke-linejoin:miter;stroke-miterlimit:10;stroke-dasharray:none;stroke-opacity:1"
         id="path170" /></g><g
       id="g172"
       transform="translate(1658.25,533.5)"><path
         d="M 0,0 H 163"
         style="fill:none;stroke:#e6e7e8;stroke-width:1;stroke-linecap:butt;stroke-linejoin:miter;stroke-miterlimit:10;stroke-dasharray:none;stroke-opacity:1"
         id="path174" /></g><g
       id="g176"
       transform="translate(831.25,579.5)"><path
         d="M 0,0 H 563"
         style="fill:none;stroke:#e6e7e8;stroke-width:1;stroke-linecap:butt;stroke-linejoin:miter;stroke-miterlimit:10;stroke-dasharray:none;stroke-opacity:1"
         id="path178" /></g><g
       id="g180"
       transform="translate(1394.25,579.5)"><path
         d="M 0,0 H 91"
         style="fill:none;stroke:#e6e7e8;stroke-width:1;stroke-linecap:butt;stroke-linejoin:miter;stroke-miterlimit:10;stroke-dasharray:none;stroke-opacity:1"
         id="path182" /></g><g
       id="g184"
       transform="translate(1485.25,579.5)"><path
         d="M 0,0 H 173"
         style="fill:none;stroke:#e6e7e8;stroke-width:1;stroke-linecap:butt;stroke-linejoin:miter;stroke-miterlimit:10;stroke-dasharray:none;stroke-opacity:1"
         id="path186" /></g><g
       id="g188"
       transform="translate(1658.25,579.5)"><path
         d="M 0,0 H 163"
         style="fill:none;stroke:#e6e7e8;stroke-width:1;stroke-linecap:butt;stroke-linejoin:miter;stroke-miterlimit:10;stroke-dasharray:none;stroke-opacity:1"
         id="path190" /></g><g
       id="g192"
       transform="translate(831.25,481.5)"><path
         d="M 0,0 H 563"
         style="fill:none;stroke:#e6e7e8;stroke-width:1;stroke-linecap:butt;stroke-linejoin:miter;stroke-miterlimit:10;stroke-dasharray:none;stroke-opacity:1"
         id="path194" /></g><g
       id="g196"
       transform="translate(1394.25,481.5)"><path
         d="M 0,0 H 91"
         style="fill:none;stroke:#e6e7e8;stroke-width:1;stroke-linecap:butt;stroke-linejoin:miter;stroke-miterlimit:10;stroke-dasharray:none;stroke-opacity:1"
         id="path198" /></g><g
       id="g200"
       transform="translate(1485.25,481.5)"><path
         d="M 0,0 H 173"
         style="fill:none;stroke:#e6e7e8;stroke-width:1;stroke-linecap:butt;stroke-linejoin:miter;stroke-miterlimit:10;stroke-dasharray:none;stroke-opacity:1"
         id="path202" /></g><g
       id="g204"
       transform="translate(1658.25,481.5)"><path
         d="M 0,0 H 163"
         style="fill:none;stroke:#e6e7e8;stroke-width:1;stroke-linecap:butt;stroke-linejoin:miter;stroke-miterlimit:10;stroke-dasharray:none;stroke-opacity:1"
         id="path206" /></g><text
       transform="matrix(1,0,0,-1,1434.0903,591.65)"
       style="font-variant:normal;font-weight:500;font-stretch:normal;font-size:20px;font-family:'Rubik Medium';-inkscape-font-specification:Rubik-Medium;writing-mode:lr-tb;fill:#000000;fill-opacity:1;fill-rule:nonzero;stroke:none"
       id="text210"><tspan
         x="0 12.4 25.58 37.98"
         y="0"
         id="tspan208">2020</tspan></text><text
       transform="matrix(1,0,0,-1,1611.0303,591.65)"
       style="font-variant:normal;font-weight:500;font-stretch:normal;font-size:20px;font-family:'Rubik Medium';-inkscape-font-specification:Rubik-Medium;writing-mode:lr-tb;fill:#000000;fill-opacity:1;fill-rule:nonzero;stroke:none"
       id="text214"><tspan
         x="0 12.4 25.58 34.860001 164.82001 180.03999 190.75999 204.84"
         y="0"
         id="tspan212">2019Изм.</tspan></text><text
       transform="matrix(1,0,0,-1,831.2503,547.15)"
       style="font-variant:normal;font-weight:300;font-stretch:normal;font-size:20px;font-family:'Rubik Light';-inkscape-font-specification:Rubik-Light;writing-mode:lr-tb;fill:#000000;fill-opacity:1;fill-rule:nonzero;stroke:none"
       id="text220"><tspan
         x="0 13.24 24.58 40.48 52.400002 63.32 68.480003 79.639999 91.160004 102.08 113.7 124.42 136.44 148.36 159.52 171.44 183.36 196.53999 207.46001 212.62 224.14 235.06 246.98 257.89999 272.88 284.79999 297.98001 308.89999 314.06 325.67999 336.39999 347.12 357.48001 368.64001 380.16 592.82001 604.71997 617.08002 622.23999 630.20001 642.09998 763.41998 775.32001 786.52002 791.67999 803.20001 814.64001 955.32001 963.28003 975.17999"
         y="0"
         id="tspan216">Общие операционные денежные расходы48 14442 39814%</tspan><tspan
         x="0 13.24 24.58 40.48 52.400002 63.32 68.480003 79.639999 91.160004 102.08 113.7 124.42 136.44 148.36 159.52 171.44 183.36 196.53999 207.46001 212.62 224.53999 235.46001 246.98 257.89999 269.82001 280.73999 295.72 307.64001 320.82001 331.73999 336.89999 348.51999 359.23999 369.95999 380.32001 391.48001 403 593.65997 601.62 613.52002 618.67999 630.20001 642.56 771.82001 779.78003 791.29999 796.46002 807.52002 815.47998 963.53998 975.17999"
         y="49"
         id="tspan218">Общие операционные неденежные расходы14 38913 5136%</tspan></text><text
       transform="matrix(1,0,0,-1,831.2503,450.79)"
       style="font-variant:normal;font-weight:500;font-stretch:normal;font-size:20px;font-family:'Rubik Medium';-inkscape-font-specification:Rubik-Medium;writing-mode:lr-tb;fill:#000000;fill-opacity:1;fill-rule:nonzero;stroke:none"
       id="text224"><tspan
         x="0 15.22 25.84 37.700001 46.439999"
         y="0"
         id="tspan222">Итого</tspan></text><text
       transform="matrix(1,0,0,-1,1422.7703,450.79)"
       style="font-variant:normal;font-weight:300;font-stretch:normal;font-size:20px;font-family:'Rubik Light';-inkscape-font-specification:Rubik-Light;writing-mode:lr-tb;fill:#000000;fill-opacity:1;fill-rule:nonzero;stroke:none"
       id="text228"><tspan
         x="0 11.64 22.84 28 39.439999 50.959999 62.48 180.08 191.52 202.96001 208.12 219.56 227.52 364.5 372.45999 383.66"
         y="0"
         id="tspan226">62 533 55 91112%</tspan></text><g
       id="g230"
       transform="translate(99,102)"><path
         d="M 0,0 H 534"
         style="fill:none;stroke:#e8f0ec;stroke-width:4;stroke-linecap:butt;stroke-linejoin:miter;stroke-miterlimit:4;stroke-dasharray:none;stroke-opacity:1"
         id="path232" /></g><text
       transform="matrix(1,0,0,-1,831,100)"
       style="font-variant:normal;font-weight:500;font-stretch:normal;font-size:20px;font-family:'Rubik Medium';-inkscape-font-specification:Rubik-Medium;writing-mode:lr-tb;fill:#000000;fill-opacity:1;fill-rule:nonzero;stroke:none"
       id="text236"><tspan
         x="0 13.9 26.139999 37.700001 49.98 61.419998 74.18 86.660004 98.519997 111 123.48 138.84 150.39999 154.96001 167.24001 178.67999 190.12 201.42 213.28 225.86 241.22 245.78 257.48001 262.04001 274.44 287.62 300.01999 313.20001 317.76001 326.496 338.35599 350.936"
         y="0"
         id="tspan234">Операционные расходы в 2020 году</tspan></text><g
       id="g238"><g
         id="g240"><g
           id="g246"><g
             id="g248"><path
               d="m 1676.768,348.308 c -14.158,-5.116 -26.441,-12.15 -36.852,-21.098 v 0 l 12.33,-16.44 c 10.411,8.948 21.235,15.296 32.468,19.043 v 0 c 11.234,3.741 23.702,5.617 37.402,5.617 v 0 c 14.428,0 25.572,-3.061 33.428,-9.179 v 0 c 7.851,-6.122 11.781,-14.021 11.781,-23.701 v 0 c 0,-23.748 -13.246,-35.62 -39.729,-35.62 v 0 h -50.69 v -20.55 h 56.17 c 14.428,0 25.114,-2.971 32.058,-8.905 v 0 c 6.94,-5.938 10.412,-14.385 10.412,-25.345 v 0 c 0,-10.96 -4.342,-20.096 -13.016,-27.401 v 0 c -8.677,-7.308 -22.604,-10.959 -41.784,-10.959 v 0 c -13.701,0 -26.399,2.145 -38.086,6.439 v 0 c -11.692,4.29 -22.742,11.277 -33.154,20.961 v 0 l -13.7,-16.441 c 10.412,-9.683 23.152,-17.355 38.223,-23.015 v 0 c 15.069,-5.66 31.553,-8.494 49.457,-8.494 v 0 c 16.44,0 30.593,1.464 42.47,4.384 v 0 c 11.872,2.92 21.689,6.893 29.455,11.919 v 0 c 7.761,5.022 13.468,10.96 17.125,17.81 v 0 c 3.651,6.85 5.479,14.201 5.479,22.056 v 0 c 0,13.153 -3.882,23.792 -11.644,31.922 v 0 c -7.767,8.126 -18.495,13.927 -32.196,17.399 v 0 c 12.42,4.2 21.463,10.091 27.126,17.673 v 0 c 5.66,7.578 8.495,17.215 8.495,28.907 v 0 c 0,7.124 -1.781,13.79 -5.344,20.002 v 0 c -3.561,6.208 -8.904,11.598 -16.028,16.166 v 0 c -7.124,4.564 -15.986,8.125 -26.579,10.686 v 0 c -10.595,2.556 -22.925,3.836 -36.99,3.836 v 0 c -17.903,0 -33.932,-2.56 -48.087,-7.672 m -198.043,0 c -14.158,-5.116 -26.441,-12.15 -36.852,-21.098 v 0 l 12.33,-16.44 c 10.411,8.948 21.235,15.296 32.468,19.043 v 0 c 11.234,3.741 23.702,5.617 37.402,5.617 v 0 c 14.427,0 25.571,-3.061 33.427,-9.179 v 0 c 7.852,-6.122 11.782,-14.021 11.782,-23.701 v 0 c 0,-23.748 -13.246,-35.62 -39.729,-35.62 v 0 h -50.69 v -20.55 h 56.17 c 14.428,0 25.113,-2.971 32.058,-8.905 v 0 c 6.94,-5.938 10.412,-14.385 10.412,-25.345 v 0 c 0,-10.96 -4.342,-20.096 -13.016,-27.401 v 0 c -8.678,-7.308 -22.604,-10.959 -41.784,-10.959 v 0 c -13.701,0 -26.399,2.145 -38.086,6.439 v 0 c -11.692,4.29 -22.742,11.277 -33.155,20.961 v 0 l -13.699,-16.441 c 10.412,-9.683 23.152,-17.355 38.223,-23.015 v 0 c 15.069,-5.66 31.553,-8.494 49.456,-8.494 v 0 c 16.441,0 30.594,1.464 42.47,4.384 v 0 c 11.872,2.92 21.69,6.893 29.456,11.919 v 0 c 7.761,5.022 13.468,10.96 17.125,17.81 v 0 c 3.651,6.85 5.479,14.201 5.479,22.056 v 0 c 0,13.153 -3.883,23.792 -11.644,31.922 v 0 c -7.767,8.126 -18.495,13.927 -32.196,17.399 v 0 c 12.42,4.2 21.462,10.091 27.126,17.673 v 0 c 5.66,7.578 8.494,17.215 8.494,28.907 v 0 c 0,7.124 -1.781,13.79 -5.343,20.002 v 0 c -3.561,6.208 -8.904,11.598 -16.028,16.166 v 0 c -7.124,4.564 -15.987,8.125 -26.579,10.686 v 0 c -10.596,2.556 -22.926,3.836 -36.99,3.836 v 0 c -17.904,0 -33.932,-2.56 -48.087,-7.672 m -420.419,0 c -14.158,-5.116 -26.441,-12.15 -36.853,-21.098 v 0 l 12.33,-16.44 c 10.412,8.948 21.235,15.296 32.469,19.043 v 0 c 11.234,3.741 23.701,5.617 37.401,5.617 v 0 c 15.16,0 26.483,-3.472 33.976,-10.412 v 0 c 7.488,-6.945 11.234,-16.26 11.234,-27.948 v 0 c 0,-8.952 -2.603,-16.851 -7.809,-23.701 v 0 c -5.206,-6.85 -11.281,-12.652 -18.221,-17.399 v 0 l -98.64,-75.35 V 158.7 h 169.88 v 20.55 h -115.08 l 69.87,53.43 c 5.48,4.2 10.776,8.494 15.892,12.878 v 0 c 5.112,4.384 9.632,9.222 13.563,14.522 v 0 c 3.926,5.296 7.076,11.187 9.453,17.673 v 0 c 2.372,6.481 3.562,13.837 3.562,22.057 v 0 c 0,8.219 -1.738,15.755 -5.206,22.605 v 0 c -3.472,6.85 -8.725,12.784 -15.755,17.81 v 0 c -7.034,5.022 -15.849,8.905 -26.441,11.645 v 0 c -10.596,2.74 -23.111,4.11 -37.539,4.11 v 0 c -17.903,0 -33.932,-2.56 -48.086,-7.672 M 854.151,334.471 C 838.807,320.129 831.136,299.9 831.136,273.78 v 0 -45.21 c 0,-24.112 7.44,-42.701 22.33,-55.759 v 0 c 14.886,-13.062 37.127,-19.591 66.719,-19.591 v 0 c 14.796,0 27.717,1.644 38.771,4.932 v 0 c 11.05,3.288 20.319,7.852 27.811,13.7 v 0 c 7.488,5.844 13.105,12.921 16.851,21.235 v 0 c 3.742,8.31 5.617,17.399 5.617,27.263 v 0 c 0,9.864 -1.828,18.949 -5.479,27.263 v 0 c -3.657,8.31 -9.043,15.387 -16.167,21.235 v 0 c -7.124,5.844 -15.891,10.412 -26.303,13.7 v 0 c -10.413,3.287 -22.289,4.932 -35.621,4.932 v 0 c -8.219,0 -15.575,-0.732 -22.057,-2.192 v 0 c -6.486,-1.464 -11.919,-3.014 -16.303,-4.658 v 0 c -5.3,-2.013 -9.864,-4.294 -13.7,-6.85 v 0 c 0,21.188 4.521,36.759 13.563,46.717 v 0 c 9.042,9.954 21.415,14.933 37.127,14.933 v 0 c 4.016,0 8.537,-0.321 13.564,-0.959 v 0 c 5.021,-0.642 10.227,-1.782 15.617,-3.425 v 0 c 5.386,-1.644 10.866,-3.883 16.441,-6.713 v 0 c 5.569,-2.834 10.912,-6.44 16.028,-10.823 v 0 l 12.331,16.44 c -10.413,8.948 -22.379,15.524 -35.895,19.728 v 0 c -13.52,4.2 -27.126,6.302 -40.826,6.302 v 0 c -29.592,0 -52.06,-7.171 -67.404,-21.509 m 32.47,-148.234 c -8.679,9.221 -13.016,22.421 -13.016,39.593 v 0 24.66 c 3.468,3.287 7.578,6.208 12.33,8.768 v 0 c 4.2,2.192 9.359,4.247 15.482,6.165 v 0 c 6.117,1.917 13.288,2.877 21.508,2.877 v 0 c 6.208,0 11.962,-1.143 17.262,-3.426 v 0 c 5.296,-2.285 9.907,-5.526 13.837,-9.726 v 0 c 3.926,-4.205 7.03,-9.273 9.316,-15.207 v 0 c 2.283,-5.938 3.426,-12.467 3.426,-19.591 v 0 c 0,-7.124 -1.143,-13.657 -3.426,-19.592 v 0 c -2.286,-5.937 -5.48,-11.007 -9.59,-15.206 v 0 c -4.11,-4.204 -9.042,-7.445 -14.796,-9.727 v 0 C 933.2,173.539 926.941,172.4 920.185,172.4 v 0 c -13.7,0 -24.891,4.611 -33.564,13.837 M 1252.979,350.5 V 246.38 h 30.14 c 6.94,5.48 14.749,9.359 23.427,11.645 v 0 c 8.674,2.282 16.852,3.425 24.523,3.425 v 0 c 17.168,0 29.909,-3.884 38.223,-11.645 v 0 c 8.31,-7.766 12.467,-18.495 12.467,-32.195 v 0 c 0,-13.7 -4.247,-24.433 -12.74,-32.195 v 0 c -8.494,-7.766 -22.057,-11.645 -40.689,-11.645 v 0 c -13.153,0 -25.483,2.145 -36.99,6.439 v 0 c -11.509,4.29 -22.469,11.277 -32.881,20.961 v 0 l -13.7,-16.441 c 10.413,-9.683 23.106,-17.355 38.087,-23.015 v 0 c 14.976,-5.66 31.051,-8.494 48.223,-8.494 v 0 c 32.148,0 55.712,5.754 70.693,17.262 v 0 c 14.976,11.508 22.467,27.216 22.467,47.128 v 0 c 0,19.908 -7.354,35.62 -22.057,47.128 v 0 C 1387.466,276.246 1364.677,282 1333.809,282 v 0 c -6.212,0 -11.829,-0.458 -16.851,-1.37 v 0 c -5.026,-0.916 -9.362,-1.828 -13.015,-2.74 v 0 c -4.203,-1.28 -7.946,-2.65 -11.233,-4.11 v 0 57.54 h 115.08 v 19.18 z"
               style="fill:url(#linearGradient254);stroke:none"
               id="path256" /></g></g></g></g><g
       id="g258"><g
         id="g260"
         clip-path="url(#clipPath264)"><g
           id="g266"
           transform="translate(1806,356.25)"><path
             d="m 0,0 h -111 c -11.046,0 -20,-8.954 -20,-20 0,-11.046 8.954,-20 20,-20 H 0 c 11.046,0 20,8.954 20,20 C 20,-8.954 11.046,0 0,0"
             style="fill:#e8e8ed;fill-opacity:1;fill-rule:nonzero;stroke:none"
             id="path268" /></g></g></g><text
       transform="matrix(1,0,0,-1,1695.0786,328.9653)"
       style="font-variant:normal;font-weight:500;font-stretch:normal;font-size:28px;font-family:'Rubik Medium';-inkscape-font-specification:Rubik-Medium;writing-mode:lr-tb;fill:#000000;fill-opacity:1;fill-rule:nonzero;stroke:none"
       id="text272"><tspan
         x="0 19.712 36.624001 54.096001 60.48 77.084 93.099998"
         y="0"
         id="tspan270">млн руб</tspan></text><text
       transform="matrix(1,0,0,-1,37.5602,1023)"
       style="font-variant:normal;font-weight:300;font-stretch:normal;font-size:20px;font-family:'Rubik Light';-inkscape-font-specification:Rubik-Light;writing-mode:lr-tb;fill:#000000;fill-opacity:1;fill-rule:nonzero;stroke:none"
       id="text276"><tspan
         x="0 11.52"
         y="0"
         id="tspan274">38</tspan></text><g
       id="g278"><g
         id="g280"><g
           id="g282"
           clip-path="url(#clipPath286)"><text
             transform="matrix(1,0,0,-1,99,1023)"
             style="font-variant:normal;font-weight:300;font-stretch:normal;font-size:20px;font-family:'Rubik Light';-inkscape-font-specification:Rubik-Light;writing-mode:lr-tb;fill:#000000;fill-opacity:1;fill-rule:nonzero;stroke:none"
             id="text290"><tspan
               x="0 13.24 18.4 28.02 39.18 52.459999 63.98 74.699997 86.620003 98.540001"
               y="0"
               id="tspan288">О компании</tspan></text></g></g></g></g></svg>
