<?xml version="1.0" encoding="UTF-8" standalone="no"?>
<?xml-stylesheet type="text/css" href="main.css" ?>
<svg
   xmlns:dc="http://purl.org/dc/elements/1.1/"
   xmlns:cc="http://creativecommons.org/ns#"
   xmlns:rdf="http://www.w3.org/1999/02/22-rdf-syntax-ns#"
   xmlns:svg="http://www.w3.org/2000/svg"
   xmlns="http://www.w3.org/2000/svg"
   version="1.1"
   id="svg2"
   xml:space="preserve"
   width="2560"
   height="1440"
   viewBox="0 0 2560 1440"><metadata
     id="metadata8"><rdf:RDF><cc:Work
         rdf:about=""><dc:format>image/svg+xml</dc:format><dc:type
           rdf:resource="http://purl.org/dc/dcmitype/StillImage" /></cc:Work></rdf:RDF></metadata><defs
     id="defs6"><clipPath
       clipPathUnits="userSpaceOnUse"
       id="clipPath20"><path
         d="M 0,1080 H 1920 V 0 H 0 Z"
         id="path18" /></clipPath><clipPath
       clipPathUnits="userSpaceOnUse"
       id="clipPath380"><path
         d="M 0,1080 H 1920 V 0 H 0 Z"
         id="path378" /></clipPath></defs><g
     id="g10"
     transform="matrix(1.3333333,0,0,-1.3333333,0,1440)"><g
       id="g12"><g
         id="g14"><g
           id="g16"
           clip-path="url(#clipPath20)"><path
             d="M 0,0 H 1920 V 1080 H 0 Z"
             style="fill:#ffffff;fill-opacity:1;fill-rule:nonzero;stroke:none"
             id="path22" /></g></g></g><text
       transform="matrix(1,0,0,-1,99,953.8201)"
       style="font-variant:normal;font-weight:500;font-stretch:normal;font-size:28px;font-family:'Rubik Medium';-inkscape-font-specification:Rubik-Medium;writing-mode:lr-tb;fill:#000000;fill-opacity:1;fill-rule:nonzero;stroke:none"
       id="text26"><tspan
         x="0 19.431999 36.903999 52.919998 69.832001 87.304001 102.312 108.696 125.3 142.436 158.62 175.812 191.828 209.692 227.164 243.76801 261.23999 278.71201 300.216"
         y="0"
         id="tspan24">Анализ операционных</tspan></text><text
       transform="matrix(1,0,0,-1,99,919.8281)"
       style="font-variant:normal;font-weight:500;font-stretch:normal;font-size:28px;font-family:'Rubik Medium';-inkscape-font-specification:Rubik-Medium;writing-mode:lr-tb;fill:#000000;fill-opacity:1;fill-rule:nonzero;stroke:none"
       id="text30"><tspan
         x="0 17.191999 33.208 49.223999 65.043999 81.648003 99.260002 115.864"
         y="0"
         id="tspan28">расходов</tspan></text><text
       transform="matrix(1,0,0,-1,99,867.8201)"
       style="font-variant:normal;font-weight:300;font-stretch:normal;font-size:20px;font-family:'Rubik Light';-inkscape-font-specification:Rubik-Light;writing-mode:lr-tb;fill:#000000;fill-opacity:1;fill-rule:nonzero;stroke:none"
       id="text80"><tspan
         x="0 13.24 24.58 40.48 52.400002 63.32 68.480003 79.639999 91.160004 102.08 113.7 124.42 136.44 148.36 159.52 171.44 183.36 196.53999 207.46001 212.62 224.14 235.06 246.98 257.89999 272.88 284.79999 297.98001 308.89999 314.06 325.67999 336.39999 347.12 357.48001 368.64001 380.16 393.34"
         y="0"
         id="tspan32">Общие операционные денежные расходы </tspan><tspan
         x="0 14 27 40.240002 45.400002 57.459999 71.459999 81.559998 93.839996 105.9 111.06 121.9 127.06 138.25999 150.58 161.78 174.10001 179.25999 187.37801 198.53799 210.058 220.638 225.798 236.37801 247.218 258.05801 269.27802 281.198 291.73801 303.65799 314.87799 326.798 337.51801 347.03799 352.198 364.11801 374.83801 379.99799 387.95801 399.858 400.67999 415.5"
         y="26"
         id="tspan34">ПАО «ПГК» в 2020 году увеличились на 14 % </tspan><tspan
         x="0 11.92 17.08 27.799999 38.959999 49.68 59.619999 70.339996 81.18 93.099998 104.32 116.24 121.4 133.3 145.66 150.82001 158.78 170.67999 182.58 187.74001 201.02 212.24001 224.16 229.32001 240.556 251.136 262.47601 273.69601 284.616 296.53601 301.69601 313.216 324.37601 329.53601 340.25601 351.87601 362.59601 373.436 385.35599 396.276 408.19601 420.116 435.37601"
         y="52"
         id="tspan36">и составили 48 144 млн рублей по сравнению </tspan><tspan
         x="0 10.72 15.88 27.780001 38.98 44.139999 55.66 67.099998 79.459999 84.620003 97.900002 109.12 121.04 126.2 137.438 148.01801 159.358 170.578 181.498 193.418 198.578 206.696 217.856 229.37601 240.536 253.81599 258.97601 270.59601 281.31601 293.23599 304.15601 315.07599"
         y="78"
         id="tspan38">с 42 398 млн рублей годом ранее.</tspan><tspan
         x="0 14 24.719999 36.639999 47.98 58.939999 70.160004 81.080002 92 97.160004 107.88 118.46 134.36 145.28 156 165.94 176.78 187.7 199.62 211.53999 222.7 234.62 239.78 250.5 260.44 271.16 281.10001 290.62 301.54001 313.45999 318.62 330.23999 340.95999 351.67999 362.04001 373.20001 384.72 395.88 406.72"
         y="117"
         id="tspan40">Наиболее существенной статьей расходов </tspan><tspan
         x="0 10.84 16 26.719999 36.66 47.900002 58.48 68.599998 78.540001 89.120003 100.74 111.66 116.82 127.54 138.46001 149.8 160.72 171.44 181.38 192.53999 204.46001 217.74001 228.89999 239.62 249.56 261.48001 266.64001 277.01999 287.85999 299.07999 309.45999 324.72 334.66 345.38 355.76001 360.92001 370.76001 381.48001 391.42001 403.04001 413.76001 423.70001 436.88"
         y="143"
         id="tspan42">в структуре себестоимости являются затраты </tspan><tspan
         x="0 11.92 22.639999 27.799999 39.32 50.939999 62.099998 73.440002 84.360001 92.720001 97.879997 109.4 120.56 132.17999 143.34 158.32001 170.24001 182.16 192.52 197.67999 208.52 219.24001 227.358 238.51801 250.438 261.59799 272.43799 277.198 282.358 294.918 306.078 316.798 326.73801 331.89801 342.61801 352.55801 364.478 374.83801 379.99799 391.61801 402.33801 413.05801 423.418 434.578 446.09799 457.258 468.09799"
         y="169"
         id="tspan44">на пробег порожних вагонов. Рост этих расходов </tspan><tspan
         x="0 10.84 16 27.16 37.880001 49.799999 60.959999 71.800003 83.720001 94.879997 108.16 113.32 124.04 134.88 145.25999 155.10001 165.82001 177.74001"
         y="195"
         id="tspan46">в основном связан </tspan><tspan
         x="0 10.72 15.88 26.459999 37.299999 48.139999 59.360001 71.279999 81.82 92.739998 104.66 116.58 127.5 140.78 145.94 157.46001 168.17999 179.39999 188.92 200.84 212 222.72 232.66 244.58 249.74001 261.26001 272.17999 283.79999 294.72 305.56 316.72 326.56 337.72 347.84 353 364.51999 375.47601 386.69601 397.276 408.116 418.836 426.95401 438.11401 450.034 460.754 474.034 485.95401"
         y="221"
         id="tspan48">с увеличением дальности перевозок полувагонами </tspan><tspan
         x="0 11.92 17.08 28 42.98 53.900002 62.02 73.18 84.699997 96.620003 107.78 119.7 124.86 136.78 148.7 160.22 171.14 180.758 191.478 202.198 214.218 226.138 238.058 243.218 253.158 263.87799 275.49799 287.418 300.99799 311.71799 316.87799 327.59799 338.758 343.918 354.638 364.578 375.73801 387.358 398.51801 410.43799 423.61801 428.77802 441.33801 460.478 473.99799"
         y="247"
         id="tspan50">и ежегодной индексации тарифа со стороны РЖД.</tspan><tspan
         x="0 12.56 23.719999 34.439999 44.380001 49.540001 59.380001 70.099998 80.040001 91.660004 102.38 112.32 117.48 129.39999 140.12 145.28 157.64 158.48 173.3 178.03999 183.2 194.72 205.88 211.03999 222.94 228.10001 240 251.2 263.56 268.72 282 293.22 305.14001 310.29999 321.53799 332.11801 343.45801 354.67801 365.59799 377.51801 382.258"
         y="286"
         id="tspan52">Рост затрат на 8 %, до 4 428 млн рублей, </tspan><tspan
         x="0 11.52 22.68 27.84 38.560001 48.5 59.220001 69.160004 78.68 89.599998 94.760002 106.82 122.42 133.14 143.08 154 165.62 177.53999 188.25999 199.48 212.66 217.39999 222.56 234.17999 245.10001 258.38 269.54001 281.45999 291.39999 304.57999 309.73999 321.66 326.82001 336.76001 347.67999 358.04001 369.95999 381.88 392.42001 403.34 414.06 423.67599 434.836 445.75601"
         y="312"
         id="tspan54">по статье «Материалы, ремонты и техническое </tspan><tspan
         x="0 11.16 22.5 33.220001 44.439999 55.02 70 81.919998 92.760002 103.48 115.4 127.32 138.24001 150.3 155.46001 166.98 178.60001 189.75999 201.67999 211.52 222.67999 238.06 248.89799 260.11801 265.27802 273.116 284.336 295.056 305.896 317.81601 330.996 344.276 349.436 360.59601 371.936 383.556 394.276 404.116 415.276 428.556"
         y="338"
         id="tspan56">обслуживание» произошел главным образом </tspan><tspan
         x="0 11.92 21.76 31.5 41.34 52.060001 57.220001 67.800003 78.639999 89.477997 100.698 112.618 123.158 134.078 145.998 157.918 168.298 173.45799 183.298 194.01801 203.95799 215.578 226.298 236.23801 241.39799 253.31799 264.03799 269.198 279.436 290.15601 301.37601 311.95599 320.31601 332.23599 337.396 349.01599 359.936 373.216 384.37601 396.29599 406.23599 416.95599"
         y="364"
         id="tspan58">из-за увеличения затрат на услуги ремонта </tspan><tspan
         x="0 11.52 22.440001 32.380001 43.099998 54.32 65.239998 77.160004 81.919998 87.080002 99.480003 109.42 120.58 125.74 136.89999 148.24001 158.478 169.198 180.418 191.578 202.418 213.638 224.558 236.478 247.638 252.798 264.138 275.09601 286.31601 295.836 311.216 323.13599 336.41599 341.57599 351.19601 362.15601 373.37601 385.29599 395.836 406.75601 417.47601 427.41599 438.25601 449.41599 462.69601"
         y="390"
         id="tspan60">деталей. Это обусловлено большим количеством </tspan><tspan
         x="0 11.52 22.440001 34.060001 44.98 58.560001 69.720001 81.339996 94.620003 106.54 118.16 129.32001 140.16 150.88 162.8 174.72 186.64 191.8 203.72 208.88 220.39999 231.56 242.28 252.22 262.79999 274.32001 285.54001 296.45999 308.38 320.29999 332.22 337.38 350.39999 363.64001 377.64001 389.92001"
         y="416"
         id="tspan62">переформирований и поступлений СОНК </tspan><tspan
         x="0 10.84 16 27.200001 39.52 50.720001 63.040001 68.199997 76.32 87.480003 99 108.38 113.12 118.28 127.9 139.06 149 160.16 171.78 184.96001 195.88 201.03999 211.278 221.998 231.938 242.658 254.578 265.298 276.138 287.358 299.27802 310.11801 320.83801 336.09799 346.03799 356.758 367.138"
         y="442"
         id="tspan64">в 2020 году, которые устанавливаются </tspan><tspan
         x="0 11.52 22.68 34.200001 39.360001 47.720001 58.959999 69.540001 79.379997 90.540001 101.38 114.56 125.48 130.64 141.48 152.2 160.31799 171.478 183.39799 196.578 201.73801 212.578 222.418 233.138 246.418 257.33801 269.258 274.418 285.138 295.078 305.798 317.418 330.59799 340.95801 346.11801 355.73599 366.896 380.17599 391.69601 402.85599 414.776 425.69601 437.616 447.556 458.716 469.556"
         y="468"
         id="tspan66">под грузовые вагоны взамен старых компонентов.</tspan><tspan
         x="0 11.98 22.700001 32.639999 44.259998 54.98 64.919998 78.099998 83.260002 94.779999 105.94 111.1 122.26 133.78 144.7 156.32001 167.03999 179.06 190.98 202.14 214.06 225.98 237.14 249.06 254.22 264.94 276.56 287.48001 299.39999 310.92001 321.84 327 337.57999 350.85999 361.78 373.70001 383.22 398.60001 410.51999 421.73999 433.66 444.38 453.89999"
         y="507"
         id="tspan68">Затраты по операционной аренде уменьшились </tspan><tspan
         x="0 11.92 22.84 32.68 44.599998 55.32 65.860001 77.779999 87.720001 98.557999 109.778 119.298 131.218 142.138"
         y="533"
         id="tspan70">незначительно.</tspan><tspan
         x="0 13.24 24.58 40.48 52.400002 63.32 68.480003 79.639999 91.160004 102.08 113.7 124.42 136.44 148.36 159.52 171.44 183.36 196.53999 207.46001 212.62 224.53999 235.46001 246.98 257.89999 269.82001 280.73999 295.72 307.64001 320.82001 331.73999 336.89999 348.51999 359.23999 369.95999 380.32001 391.48001 403 416.17999"
         y="572"
         id="tspan72">Общие операционные неденежные расходы </tspan><tspan
         x="0 14 27 40.240002 45.400002 57.459999 71.459999 81.559998 93.839996 105.9 111.06 121.9 127.06 138.25999 150.58 161.78 174.10001 179.25999 187.37801 198.53799 210.058 220.638 225.798 236.638 247.798 257.638 269.258 280.418 291.138 302.358 314.27802 319.43799 331.358 342.078 347.23801 358.87799 359.70001 374.51999"
         y="598"
         id="tspan74">ПАО «ПГК» в 2020 году возросли на 6 % </tspan><tspan
         x="0 11.92 17.08 27.799999 38.959999 49.68 59.619999 70.339996 81.18 93.099998 104.32 116.24 121.4 129.36 141.25999 146.42 157.94 170.3 181.74001 186.89999 200.17999 211.39999 223.32001 228.48 239.716 250.29601 261.63599 272.85599 283.776 295.69601 300.85599 312.37601 323.53601 328.69601 339.41599 351.03601 361.75601 372.59601 384.51599 395.436 407.35599 419.276 434.53601"
         y="624"
         id="tspan76">и составили 14 389 млн рублей по сравнению </tspan><tspan
         x="0 10.72 15.88 23.84 35.360001 40.52 51.580002 59.540001 71.059998 76.220001 89.5 100.72 112.64 117.8 129.03799 139.618 150.95799 162.17799 173.09801 185.01801 190.17799 198.298 209.45799 220.978 232.138 245.418 250.578 262.198 272.918 284.83801 295.758 306.67801"
         y="650"
         id="tspan78">с 13 513 млн рублей годом ранее.</tspan></text><g
       id="g82"
       transform="translate(831,917.3)"><path
         d="M 0,0 H 563"
         style="fill:none;stroke:#e6e7e8;stroke-width:1;stroke-linecap:butt;stroke-linejoin:miter;stroke-miterlimit:10;stroke-dasharray:none;stroke-opacity:1"
         id="path84" /></g><g
       id="g86"
       transform="translate(1394,917.3)"><path
         d="M 0,0 H 91"
         style="fill:none;stroke:#e6e7e8;stroke-width:1;stroke-linecap:butt;stroke-linejoin:miter;stroke-miterlimit:10;stroke-dasharray:none;stroke-opacity:1"
         id="path88" /></g><g
       id="g90"
       transform="translate(1485,917.3)"><path
         d="M 0,0 H 173"
         style="fill:none;stroke:#e6e7e8;stroke-width:1;stroke-linecap:butt;stroke-linejoin:miter;stroke-miterlimit:10;stroke-dasharray:none;stroke-opacity:1"
         id="path92" /></g><g
       id="g94"
       transform="translate(1658,917.3)"><path
         d="M 0,0 H 163"
         style="fill:none;stroke:#e6e7e8;stroke-width:1;stroke-linecap:butt;stroke-linejoin:miter;stroke-miterlimit:10;stroke-dasharray:none;stroke-opacity:1"
         id="path96" /></g><g
       id="g98"
       transform="translate(831,874.6001)"><path
         d="M 0,0 H 563"
         style="fill:none;stroke:#e6e7e8;stroke-width:1;stroke-linecap:butt;stroke-linejoin:miter;stroke-miterlimit:10;stroke-dasharray:none;stroke-opacity:1"
         id="path100" /></g><g
       id="g102"
       transform="translate(1394,874.6001)"><path
         d="M 0,0 H 91"
         style="fill:none;stroke:#e6e7e8;stroke-width:1;stroke-linecap:butt;stroke-linejoin:miter;stroke-miterlimit:10;stroke-dasharray:none;stroke-opacity:1"
         id="path104" /></g><g
       id="g106"
       transform="translate(1485,874.6001)"><path
         d="M 0,0 H 173"
         style="fill:none;stroke:#e6e7e8;stroke-width:1;stroke-linecap:butt;stroke-linejoin:miter;stroke-miterlimit:10;stroke-dasharray:none;stroke-opacity:1"
         id="path108" /></g><g
       id="g110"
       transform="translate(1658,874.6001)"><path
         d="M 0,0 H 163"
         style="fill:none;stroke:#e6e7e8;stroke-width:1;stroke-linecap:butt;stroke-linejoin:miter;stroke-miterlimit:10;stroke-dasharray:none;stroke-opacity:1"
         id="path112" /></g><g
       id="g114"
       transform="translate(831,805.9001)"><path
         d="M 0,0 H 563"
         style="fill:none;stroke:#e6e7e8;stroke-width:1;stroke-linecap:butt;stroke-linejoin:miter;stroke-miterlimit:10;stroke-dasharray:none;stroke-opacity:1"
         id="path116" /></g><g
       id="g118"
       transform="translate(1394,805.9001)"><path
         d="M 0,0 H 91"
         style="fill:none;stroke:#e6e7e8;stroke-width:1;stroke-linecap:butt;stroke-linejoin:miter;stroke-miterlimit:10;stroke-dasharray:none;stroke-opacity:1"
         id="path120" /></g><g
       id="g122"
       transform="translate(1485,805.9001)"><path
         d="M 0,0 H 173"
         style="fill:none;stroke:#e6e7e8;stroke-width:1;stroke-linecap:butt;stroke-linejoin:miter;stroke-miterlimit:10;stroke-dasharray:none;stroke-opacity:1"
         id="path124" /></g><g
       id="g126"
       transform="translate(1658,805.9001)"><path
         d="M 0,0 H 163"
         style="fill:none;stroke:#e6e7e8;stroke-width:1;stroke-linecap:butt;stroke-linejoin:miter;stroke-miterlimit:10;stroke-dasharray:none;stroke-opacity:1"
         id="path128" /></g><g
       id="g130"
       transform="translate(831,763.2002)"><path
         d="M 0,0 H 563"
         style="fill:none;stroke:#e6e7e8;stroke-width:1;stroke-linecap:butt;stroke-linejoin:miter;stroke-miterlimit:10;stroke-dasharray:none;stroke-opacity:1"
         id="path132" /></g><g
       id="g134"
       transform="translate(1394,763.2002)"><path
         d="M 0,0 H 91"
         style="fill:none;stroke:#e6e7e8;stroke-width:1;stroke-linecap:butt;stroke-linejoin:miter;stroke-miterlimit:10;stroke-dasharray:none;stroke-opacity:1"
         id="path136" /></g><g
       id="g138"
       transform="translate(1485,763.2002)"><path
         d="M 0,0 H 173"
         style="fill:none;stroke:#e6e7e8;stroke-width:1;stroke-linecap:butt;stroke-linejoin:miter;stroke-miterlimit:10;stroke-dasharray:none;stroke-opacity:1"
         id="path140" /></g><g
       id="g142"
       transform="translate(1658,763.2002)"><path
         d="M 0,0 H 163"
         style="fill:none;stroke:#e6e7e8;stroke-width:1;stroke-linecap:butt;stroke-linejoin:miter;stroke-miterlimit:10;stroke-dasharray:none;stroke-opacity:1"
         id="path144" /></g><g
       id="g146"
       transform="translate(831,720.5002)"><path
         d="M 0,0 H 563"
         style="fill:none;stroke:#e6e7e8;stroke-width:1;stroke-linecap:butt;stroke-linejoin:miter;stroke-miterlimit:10;stroke-dasharray:none;stroke-opacity:1"
         id="path148" /></g><g
       id="g150"
       transform="translate(1394,720.5002)"><path
         d="M 0,0 H 91"
         style="fill:none;stroke:#e6e7e8;stroke-width:1;stroke-linecap:butt;stroke-linejoin:miter;stroke-miterlimit:10;stroke-dasharray:none;stroke-opacity:1"
         id="path152" /></g><g
       id="g154"
       transform="translate(1485,720.5002)"><path
         d="M 0,0 H 173"
         style="fill:none;stroke:#e6e7e8;stroke-width:1;stroke-linecap:butt;stroke-linejoin:miter;stroke-miterlimit:10;stroke-dasharray:none;stroke-opacity:1"
         id="path156" /></g><g
       id="g158"
       transform="translate(1658,720.5002)"><path
         d="M 0,0 H 163"
         style="fill:none;stroke:#e6e7e8;stroke-width:1;stroke-linecap:butt;stroke-linejoin:miter;stroke-miterlimit:10;stroke-dasharray:none;stroke-opacity:1"
         id="path160" /></g><g
       id="g162"
       transform="translate(831,677.8003)"><path
         d="M 0,0 H 563"
         style="fill:none;stroke:#e6e7e8;stroke-width:1;stroke-linecap:butt;stroke-linejoin:miter;stroke-miterlimit:10;stroke-dasharray:none;stroke-opacity:1"
         id="path164" /></g><g
       id="g166"
       transform="translate(1394,677.8003)"><path
         d="M 0,0 H 91"
         style="fill:none;stroke:#e6e7e8;stroke-width:1;stroke-linecap:butt;stroke-linejoin:miter;stroke-miterlimit:10;stroke-dasharray:none;stroke-opacity:1"
         id="path168" /></g><g
       id="g170"
       transform="translate(1485,677.8003)"><path
         d="M 0,0 H 173"
         style="fill:none;stroke:#e6e7e8;stroke-width:1;stroke-linecap:butt;stroke-linejoin:miter;stroke-miterlimit:10;stroke-dasharray:none;stroke-opacity:1"
         id="path172" /></g><g
       id="g174"
       transform="translate(1658,677.8003)"><path
         d="M 0,0 H 163"
         style="fill:none;stroke:#e6e7e8;stroke-width:1;stroke-linecap:butt;stroke-linejoin:miter;stroke-miterlimit:10;stroke-dasharray:none;stroke-opacity:1"
         id="path176" /></g><g
       id="g178"
       transform="translate(831,635.1003)"><path
         d="M 0,0 H 563"
         style="fill:none;stroke:#e6e7e8;stroke-width:1;stroke-linecap:butt;stroke-linejoin:miter;stroke-miterlimit:10;stroke-dasharray:none;stroke-opacity:1"
         id="path180" /></g><g
       id="g182"
       transform="translate(1394,635.1003)"><path
         d="M 0,0 H 91"
         style="fill:none;stroke:#e6e7e8;stroke-width:1;stroke-linecap:butt;stroke-linejoin:miter;stroke-miterlimit:10;stroke-dasharray:none;stroke-opacity:1"
         id="path184" /></g><g
       id="g186"
       transform="translate(1485,635.1003)"><path
         d="M 0,0 H 173"
         style="fill:none;stroke:#e6e7e8;stroke-width:1;stroke-linecap:butt;stroke-linejoin:miter;stroke-miterlimit:10;stroke-dasharray:none;stroke-opacity:1"
         id="path188" /></g><g
       id="g190"
       transform="translate(1658,635.1003)"><path
         d="M 0,0 H 163"
         style="fill:none;stroke:#e6e7e8;stroke-width:1;stroke-linecap:butt;stroke-linejoin:miter;stroke-miterlimit:10;stroke-dasharray:none;stroke-opacity:1"
         id="path192" /></g><g
       id="g194"
       transform="translate(831,592.4004)"><path
         d="M 0,0 H 563"
         style="fill:none;stroke:#e6e7e8;stroke-width:1;stroke-linecap:butt;stroke-linejoin:miter;stroke-miterlimit:10;stroke-dasharray:none;stroke-opacity:1"
         id="path196" /></g><g
       id="g198"
       transform="translate(1394,592.4004)"><path
         d="M 0,0 H 91"
         style="fill:none;stroke:#e6e7e8;stroke-width:1;stroke-linecap:butt;stroke-linejoin:miter;stroke-miterlimit:10;stroke-dasharray:none;stroke-opacity:1"
         id="path200" /></g><g
       id="g202"
       transform="translate(1485,592.4004)"><path
         d="M 0,0 H 173"
         style="fill:none;stroke:#e6e7e8;stroke-width:1;stroke-linecap:butt;stroke-linejoin:miter;stroke-miterlimit:10;stroke-dasharray:none;stroke-opacity:1"
         id="path204" /></g><g
       id="g206"
       transform="translate(1658,592.4004)"><path
         d="M 0,0 H 163"
         style="fill:none;stroke:#e6e7e8;stroke-width:1;stroke-linecap:butt;stroke-linejoin:miter;stroke-miterlimit:10;stroke-dasharray:none;stroke-opacity:1"
         id="path208" /></g><g
       id="g210"
       transform="translate(831,549.7004)"><path
         d="M 0,0 H 563"
         style="fill:none;stroke:#e6e7e8;stroke-width:1;stroke-linecap:butt;stroke-linejoin:miter;stroke-miterlimit:10;stroke-dasharray:none;stroke-opacity:1"
         id="path212" /></g><g
       id="g214"
       transform="translate(1394,549.7004)"><path
         d="M 0,0 H 91"
         style="fill:none;stroke:#e6e7e8;stroke-width:1;stroke-linecap:butt;stroke-linejoin:miter;stroke-miterlimit:10;stroke-dasharray:none;stroke-opacity:1"
         id="path216" /></g><g
       id="g218"
       transform="translate(1485,549.7004)"><path
         d="M 0,0 H 173"
         style="fill:none;stroke:#e6e7e8;stroke-width:1;stroke-linecap:butt;stroke-linejoin:miter;stroke-miterlimit:10;stroke-dasharray:none;stroke-opacity:1"
         id="path220" /></g><g
       id="g222"
       transform="translate(1658,549.7004)"><path
         d="M 0,0 H 163"
         style="fill:none;stroke:#e6e7e8;stroke-width:1;stroke-linecap:butt;stroke-linejoin:miter;stroke-miterlimit:10;stroke-dasharray:none;stroke-opacity:1"
         id="path224" /></g><g
       id="g226"
       transform="translate(831,507.0005)"><path
         d="M 0,0 H 563"
         style="fill:none;stroke:#e6e7e8;stroke-width:1;stroke-linecap:butt;stroke-linejoin:miter;stroke-miterlimit:10;stroke-dasharray:none;stroke-opacity:1"
         id="path228" /></g><g
       id="g230"
       transform="translate(1394,507.0005)"><path
         d="M 0,0 H 91"
         style="fill:none;stroke:#e6e7e8;stroke-width:1;stroke-linecap:butt;stroke-linejoin:miter;stroke-miterlimit:10;stroke-dasharray:none;stroke-opacity:1"
         id="path232" /></g><g
       id="g234"
       transform="translate(1485,507.0005)"><path
         d="M 0,0 H 173"
         style="fill:none;stroke:#e6e7e8;stroke-width:1;stroke-linecap:butt;stroke-linejoin:miter;stroke-miterlimit:10;stroke-dasharray:none;stroke-opacity:1"
         id="path236" /></g><g
       id="g238"
       transform="translate(1658,507.0005)"><path
         d="M 0,0 H 163"
         style="fill:none;stroke:#e6e7e8;stroke-width:1;stroke-linecap:butt;stroke-linejoin:miter;stroke-miterlimit:10;stroke-dasharray:none;stroke-opacity:1"
         id="path240" /></g><text
       transform="matrix(1,0,0,-1,1433.8403,929.3)"
       style="font-variant:normal;font-weight:500;font-stretch:normal;font-size:20px;font-family:'Rubik Medium';-inkscape-font-specification:Rubik-Medium;writing-mode:lr-tb;fill:#000000;fill-opacity:1;fill-rule:nonzero;stroke:none"
       id="text244"><tspan
         x="0 12.4 25.58 37.98"
         y="0"
         id="tspan242">2020</tspan></text><text
       transform="matrix(1,0,0,-1,1610.7803,929.3)"
       style="font-variant:normal;font-weight:500;font-stretch:normal;font-size:20px;font-family:'Rubik Medium';-inkscape-font-specification:Rubik-Medium;writing-mode:lr-tb;fill:#000000;fill-opacity:1;fill-rule:nonzero;stroke:none"
       id="text248"><tspan
         x="0 12.4 25.58 34.860001 164.82001 180.03999 190.75999 204.84"
         y="0"
         id="tspan246">2019Изм.</tspan></text><text
       transform="matrix(1,0,0,-1,831.0003,886.6)"
       style="font-variant:normal;font-weight:300;font-stretch:normal;font-size:20px;font-family:'Rubik Light';-inkscape-font-specification:Rubik-Light;writing-mode:lr-tb;fill:#000000;fill-opacity:1;fill-rule:nonzero;stroke:none"
       id="text272"><tspan
         x="0 13.02 23.940001 35.279999 46.200001 56.919998 66.860001 78.019997 89.940002 103.22 114.38 125.1 135.03999 144.56 149.72 163 173.72 183.66 194.58 206.2 218.12 228.84 240.06 251.22 262.06 267.22 279.14001 284.29999 294.53601 305.25601 316.47601 327.056 333.65601 338.396 343.556 354.396 359.556 369.496 380.65601 393.936 399.09601 409.63599 421.556 432.276 443.496 454.41599 591.08002 602.97998 615.29999 620.46002 631.90002 641.64001 654 763.21997 774.73999 786.64001 791.79999 803 815.35999 827 954.85999 962.82001 975.17999"
         y="0"
         id="tspan250">Себестоимость материалов и услуг, в том числе:40 578 34 286 18%</tspan><tspan
         x="0 19.139999 29.98 41.200001 52.119999 61.959999 73.879997 85.040001 96.559998 107.72 119.34 130.5 145.48 157.39999 170.58 182.5 187.66 197.60001 208.32001 219.94 231.86 245.44 250.25999 255.42 266.94 278.16 288.88 298.82001 309.54001"
         y="42.700001"
         id="tspan252">Железнодорожный тариф: плата </tspan><tspan
         x="0 9.8400002 20.559999 25.719999 37.240002 48.860001 60.02 71.360001 82.279999 90.639999 95.800003 107.32 118.48 130.10001 141.25999 156.24001 168.16 180.08 190.44 195.60001 206.44 217.16 225.278 236.438 248.358 259.51801"
         y="68.699997"
         id="tspan254">за пробег порожних вагонов</tspan><tspan
         x="591.5 602.46002 614.35999 619.52002 631.15997 642.79999 654 765.70001 776.90002 789.21997 794.38 804.12 815.56 827 955.78003 963.73999 975.17999"
         y="55.700001"
         id="tspan256">24 662 20 755 19%</tspan><tspan
         x="0 15.6 26.32 36.259998 47.18 58.799999 70.720001 81.440002 92.660004 105.84 110.58 115.74 127.36 138.28 151.56 162.72 174.64 184.58 197.75999 202.92 214.84 220 229.94 240.86 251.22 263.14001 275.06 285.60001 296.51999 307.23999 316.85599 328.01599 338.936 344.09601 355.25601 366.59601 377.31601 388.53601 399.116 414.09601 426.01599 436.85599 447.57599 459.496 471.41599 601.47998 613.38 618.53998 630.44 641.64001 654 774.78003 786.67999 791.84003 804.15997 815.35999 827 962.82001 975.17999"
         y="111.4"
         id="tspan258">Материалы, ремонты и техническое обслуживание4 428 4 096 8%</tspan><tspan
         x="0 11.14 22.76 33.48 45.400002 56.119999 67.639999 78.800003 90.419998 100.36 112.28 125.46 136.38 141.53999 151.778 162.498 173.718 184.298 192.658 599.56 604.71997 616.62 621.78003 632.82001 642.56 654 774.85999 786.76001 791.91998 803.44 814.64001 827 962.82001 975.17999"
         y="154.10001"
         id="tspan260">Транспортные услуги 4 679 4 328 8%</tspan><tspan
         x="0 13.24 24.76 35.68 47.299999 58.02 70.040001 81.959999 93.120003 105.04 116.96 127.68 138.06 143.22 153.94 165.56 176.48 188.39999 199.92 604.38 615.58002 620.73999 630.47998 641.67999 654 776.21997 787.41998 792.58002 804.94 814.67999 827 954.21997 963.73999 975.17999"
         y="196.8"
         id="tspan262">Операционная аренда2 720 2 870 -5%</tspan><tspan
         x="0 14 24.719999 35.939999 47.099998 55.459999 60.619999 72.540001 83.260002 88.419998 100.34 113.62 124.2 140.10001 151.02 161.74001 171.67999 182.52 632.82001 644.26001 654 804.03998 815.56 827 951.64001 963.53998 975.17999"
         y="239.5"
         id="tspan264">Налог на имущество57 39 46%</tspan><tspan
         x="0 14 25.620001 36.779999 47.32 59.240002 601.90002 613.79999 618.96002 631.28003 642.79999 654 779.79999 791 796.15997 804.12 815.56 827 951.29999 963.65997 975.17999"
         y="282.20001"
         id="tspan266">Прочие4 032 2 199 83%</tspan><tspan
         x="0 12.56 23.280001 34 44.360001 55.52 67.040001 80.220001 85.379997 97.300003 108.02 113.18 124.7 135.62 147.24001 157.96001 169.12 181.03999 191.75999 602.90002 612.64001 617.79999 630.12 642.47998 654 777.12 786.85999 792.02002 803.91998 815.56 827 954.21997 963.73999 975.17999"
         y="324.89999"
         id="tspan268">Расходы на персонал7 083 7 465 -5%</tspan><tspan
         x="0 14 25.620001 36.779999 47.32 59.240002 70.160004 75.32 86.839996 97.760002 109.68 120.6 135.58 147.5 160.67999 171.60001 176.75999 188.38 199.10001 209.82001 220.17999 231.34 242.86 618.21997 630.12 642.47998 654 794.02002 805.65997 817.26001 827 943.70001 952.53998 963.73999 975.17999"
         y="367.60001"
         id="tspan270">Прочие денежные расходы483 647 -25%</tspan></text><text
       transform="matrix(1,0,0,-1,831.0003,476.3)"
       style="font-variant:normal;font-weight:500;font-stretch:normal;font-size:20px;font-family:'Rubik Medium';-inkscape-font-specification:Rubik-Medium;writing-mode:lr-tb;fill:#000000;fill-opacity:1;fill-rule:nonzero;stroke:none"
       id="text278"><tspan
         x="0 15.22 25.84 37.700001 46.439999 587.84003 600.90002 614.03998 618.59998 627.88 640.94 758.85999 771.91998 784.32001 788.88 801.5 813.85999 951.96002 961.23999 974.29999"
         y="0"
         id="tspan274">Итого48 14442 39814%</tspan><tspan
         x="0 13.9 25.860001 42.560001 55.040001 66.599998 71.160004 83.019997 95.260002 106.82 119.1 130.53999 143.3 155.78 167.64 180.12 192.60001 207.96001 219.52 224.08 236.66 248.22 260.70001 272.26001 289.44 301.92001 317.28 328.84 333.39999 345.67999 357.12 368.56 379.85999 391.72 404.29999 419.66 424.22 435.92001 440.48001 454.56 466.64001 479.12 483.67999 495.534 506.974 518.93402"
         y="-483.70001"
         id="tspan276">Общие операционные денежные расходы в млн руб.</tspan></text><g
       id="g280"
       transform="translate(831.5,306.6001)"><path
         d="M 0,0 H 563"
         style="fill:none;stroke:#e6e7e8;stroke-width:0.914;stroke-linecap:butt;stroke-linejoin:miter;stroke-miterlimit:10;stroke-dasharray:none;stroke-opacity:1"
         id="path282" /></g><g
       id="g284"
       transform="translate(1394.5,306.6001)"><path
         d="M 0,0 H 91"
         style="fill:none;stroke:#e6e7e8;stroke-width:0.914;stroke-linecap:butt;stroke-linejoin:miter;stroke-miterlimit:10;stroke-dasharray:none;stroke-opacity:1"
         id="path286" /></g><g
       id="g288"
       transform="translate(1485.5,306.6001)"><path
         d="M 0,0 H 173"
         style="fill:none;stroke:#e6e7e8;stroke-width:0.914;stroke-linecap:butt;stroke-linejoin:miter;stroke-miterlimit:10;stroke-dasharray:none;stroke-opacity:1"
         id="path290" /></g><g
       id="g292"
       transform="translate(1658.5,306.6001)"><path
         d="M 0,0 H 163"
         style="fill:none;stroke:#e6e7e8;stroke-width:0.914;stroke-linecap:butt;stroke-linejoin:miter;stroke-miterlimit:10;stroke-dasharray:none;stroke-opacity:1"
         id="path294" /></g><g
       id="g296"
       transform="translate(831,263.9001)"><path
         d="M 0,0 H 563.5"
         style="fill:none;stroke:#e6e7e8;stroke-width:1;stroke-linecap:butt;stroke-linejoin:miter;stroke-miterlimit:10;stroke-dasharray:none;stroke-opacity:1"
         id="path298" /></g><g
       id="g300"
       transform="translate(1394.5,263.9001)"><path
         d="M 0,0 H 91"
         style="fill:none;stroke:#e6e7e8;stroke-width:1;stroke-linecap:butt;stroke-linejoin:miter;stroke-miterlimit:10;stroke-dasharray:none;stroke-opacity:1"
         id="path302" /></g><g
       id="g304"
       transform="translate(1485.5,263.9001)"><path
         d="M 0,0 H 173"
         style="fill:none;stroke:#e6e7e8;stroke-width:1;stroke-linecap:butt;stroke-linejoin:miter;stroke-miterlimit:10;stroke-dasharray:none;stroke-opacity:1"
         id="path306" /></g><g
       id="g308"
       transform="translate(1658.5,263.9001)"><path
         d="M 0,0 H 163.5"
         style="fill:none;stroke:#e6e7e8;stroke-width:1;stroke-linecap:butt;stroke-linejoin:miter;stroke-miterlimit:10;stroke-dasharray:none;stroke-opacity:1"
         id="path310" /></g><g
       id="g312"
       transform="translate(831,221.2002)"><path
         d="M 0,0 H 563.5"
         style="fill:none;stroke:#e6e7e8;stroke-width:1;stroke-linecap:butt;stroke-linejoin:miter;stroke-miterlimit:10;stroke-dasharray:none;stroke-opacity:1"
         id="path314" /></g><g
       id="g316"
       transform="translate(1394.5,221.2002)"><path
         d="M 0,0 H 91"
         style="fill:none;stroke:#e6e7e8;stroke-width:1;stroke-linecap:butt;stroke-linejoin:miter;stroke-miterlimit:10;stroke-dasharray:none;stroke-opacity:1"
         id="path318" /></g><g
       id="g320"
       transform="translate(1485.5,221.2002)"><path
         d="M 0,0 H 173"
         style="fill:none;stroke:#e6e7e8;stroke-width:1;stroke-linecap:butt;stroke-linejoin:miter;stroke-miterlimit:10;stroke-dasharray:none;stroke-opacity:1"
         id="path322" /></g><g
       id="g324"
       transform="translate(1658.5,221.2002)"><path
         d="M 0,0 H 163.5"
         style="fill:none;stroke:#e6e7e8;stroke-width:1;stroke-linecap:butt;stroke-linejoin:miter;stroke-miterlimit:10;stroke-dasharray:none;stroke-opacity:1"
         id="path326" /></g><text
       transform="matrix(1,0,0,-1,1438.7551,319.407)"
       style="font-variant:normal;font-weight:500;font-stretch:normal;font-size:18.2741px;font-family:'Rubik Medium';-inkscape-font-specification:Rubik-Medium;writing-mode:lr-tb;fill:#000000;fill-opacity:1;fill-rule:nonzero;stroke:none"
       id="text330"><tspan
         x="0 11.329942 23.372574 34.702515"
         y="0"
         id="tspan328">2020</tspan></text><text
       transform="matrix(1,0,0,-1,1615.356,319.407)"
       style="font-variant:normal;font-weight:500;font-stretch:normal;font-size:18.2741px;font-family:'Rubik Medium';-inkscape-font-specification:Rubik-Medium;writing-mode:lr-tb;fill:#000000;fill-opacity:1;fill-rule:nonzero;stroke:none"
       id="text334"><tspan
         x="0 11.329942 23.372574 31.851757 164.66791 178.57451 188.36942 201.23439"
         y="0"
         id="tspan332">2019Изм.</tspan></text><text
       transform="matrix(1,0,0,-1,831.5,275.9001)"
       style="font-variant:normal;font-weight:300;font-stretch:normal;font-size:20px;font-family:'Rubik Light';-inkscape-font-specification:Rubik-Light;writing-mode:lr-tb;fill:#000000;fill-opacity:1;fill-rule:nonzero;stroke:none"
       id="text338"><tspan
         x="0 13 26.280001 37.439999 49.060001 59 70.919998 80.760002 91.480003 103.5 115.42"
         y="0"
         id="tspan336">Амортизация</tspan></text><text
       transform="matrix(1,0,0,-1,1430.3679,276.707)"
       style="font-variant:normal;font-weight:300;font-stretch:normal;font-size:18.2741px;font-family:'Rubik Light';-inkscape-font-specification:Rubik-Light;writing-mode:lr-tb;fill:#000000;fill-opacity:1;fill-rule:nonzero;stroke:none"
       id="text342"><tspan
         x="0 7.2730918 18.146181 22.860899 33.38678 44.680176 55.132961 173.12883 180.40192 190.63541 195.35013 206.64352 216.87701 228.13387 360.09113 367.36423 377.59772"
         y="0"
         id="tspan340">14 389 12 820 12%</tspan></text><text
       transform="matrix(1,0,0,-1,832,233.2002)"
       style="font-variant:normal;font-weight:300;font-stretch:normal;font-size:20px;font-family:'Rubik Light';-inkscape-font-specification:Rubik-Light;writing-mode:lr-tb;fill:#000000;fill-opacity:1;fill-rule:nonzero;stroke:none"
       id="text346"><tspan
         x="0 14 25.620001 36.779999 47.32 58.240002"
         y="0"
         id="tspan344">Прочее</tspan></text><text
       transform="matrix(1,0,0,-1,1471.4838,234.007)"
       style="font-variant:normal;font-weight:300;font-stretch:normal;font-size:18.2741px;font-family:'Rubik Light';-inkscape-font-specification:Rubik-Light;writing-mode:lr-tb;fill:#000000;fill-opacity:1;fill-rule:nonzero;stroke:none"
       id="text350"><tspan
         x="0 155.75015 166.38568 176.49126 187.01714 298.03229 306.18256 313.45563 324.71249 335.96933"
         y="0"
         id="tspan348">—693 -100%</tspan></text><text
       transform="matrix(1,0,0,-1,831.5,190.5002)"
       style="font-variant:normal;font-weight:500;font-stretch:normal;font-size:20px;font-family:'Rubik Medium';-inkscape-font-specification:Rubik-Medium;writing-mode:lr-tb;fill:#000000;fill-opacity:1;fill-rule:nonzero;stroke:none"
       id="text354"><tspan
         x="0 15.22 25.84 37.700001 46.439999"
         y="0"
         id="tspan352">Итого</tspan></text><text
       transform="matrix(1,0,0,-1,1426.0913,191.3071)"
       style="font-variant:normal;font-weight:500;font-stretch:normal;font-size:18.2741px;font-family:'Rubik Medium';-inkscape-font-specification:Rubik-Medium;writing-mode:lr-tb;fill:#000000;fill-opacity:1;fill-rule:nonzero;stroke:none"
       id="text358"><tspan
         x="0 8.4791822 20.41217 24.578665 36.109623 48.115704 177.07603 185.55521 197.08617 201.25267 212.39987 220.87904 369.59366 381.06979"
         y="0"
         id="tspan356">14 38913 5136%</tspan></text><text
       transform="matrix(1,0,0,-1,831,349.3)"
       style="font-variant:normal;font-weight:500;font-stretch:normal;font-size:20px;font-family:'Rubik Medium';-inkscape-font-specification:Rubik-Medium;writing-mode:lr-tb;fill:#000000;fill-opacity:1;fill-rule:nonzero;stroke:none"
       id="text362"><tspan
         x="0 13.9 25.860001 42.560001 55.040001 66.599998 71.160004 83.019997 95.260002 106.82 119.1 130.53999 143.3 155.78 167.64 180.12 192.60001 207.96001 219.52 224.08 236.66 248.22 260.70001 272.26001 289.44 301.92001 317.28 328.84 333.39999 345.67999 357.12 368.56 379.85999 391.72 404.29999 419.66 424.22 435.92001 440.48001 454.56 466.64001 479.12 483.67999 495.534 506.974 518.93402"
         y="0"
         id="tspan360">Общие операционные денежные расходы в млн руб.</tspan></text><g
       id="g364"
       transform="translate(99,102)"><path
         d="M 0,0 H 534"
         style="fill:none;stroke:#e8f0ec;stroke-width:4;stroke-linecap:butt;stroke-linejoin:miter;stroke-miterlimit:4;stroke-dasharray:none;stroke-opacity:1"
         id="path366" /></g><text
       transform="matrix(1,0,0,-1,38.0202,1023)"
       style="font-variant:normal;font-weight:300;font-stretch:normal;font-size:20px;font-family:'Rubik Light';-inkscape-font-specification:Rubik-Light;writing-mode:lr-tb;fill:#000000;fill-opacity:1;fill-rule:nonzero;stroke:none"
       id="text370"><tspan
         x="0 11.52"
         y="0"
         id="tspan368">39</tspan></text><g
       id="g372"><g
         id="g374"><g
           id="g376"
           clip-path="url(#clipPath380)"><text
             transform="matrix(1,0,0,-1,99,1023)"
             style="font-variant:normal;font-weight:300;font-stretch:normal;font-size:20px;font-family:'Rubik Light';-inkscape-font-specification:Rubik-Light;writing-mode:lr-tb;fill:#000000;fill-opacity:1;fill-rule:nonzero;stroke:none"
             id="text384"><tspan
               x="0 13.24 18.4 28.02 39.18 52.459999 63.98 74.699997 86.620003 98.540001"
               y="0"
               id="tspan382">О компании</tspan></text></g></g></g></g></svg>
