<?xml version="1.0" encoding="UTF-8" standalone="no"?>
<?xml-stylesheet type="text/css" href="main.css" ?>
<svg
   xmlns:dc="http://purl.org/dc/elements/1.1/"
   xmlns:cc="http://creativecommons.org/ns#"
   xmlns:rdf="http://www.w3.org/1999/02/22-rdf-syntax-ns#"
   xmlns:svg="http://www.w3.org/2000/svg"
   xmlns="http://www.w3.org/2000/svg"
   version="1.1"
   id="svg2"
   xml:space="preserve"
   width="2560"
   height="1440"
   viewBox="0 0 2560 1440"><metadata
     id="metadata8"><rdf:RDF><cc:Work
         rdf:about=""><dc:format>image/svg+xml</dc:format><dc:type
           rdf:resource="http://purl.org/dc/dcmitype/StillImage" /></cc:Work></rdf:RDF></metadata><defs
     id="defs6"><clipPath
       clipPathUnits="userSpaceOnUse"
       id="clipPath20"><path
         d="M 0,1080 H 1920 V 0 H 0 Z"
         id="path18" /></clipPath><clipPath
       clipPathUnits="userSpaceOnUse"
       id="clipPath184"><path
         d="M 0,0 H 1920 V 1080 H 0 Z"
         id="path182" /></clipPath><linearGradient
       x1="0"
       y1="0"
       x2="1"
       y2="0"
       gradientUnits="userSpaceOnUse"
       gradientTransform="matrix(297.18008,297.18008,297.18008,-297.18008,875.13059,49.409973)"
       spreadMethod="pad"
       id="linearGradient212"><stop
         style="stop-opacity:1;stop-color:#0c50a8"
         offset="0"
         id="stop206" /><stop
         style="stop-opacity:1;stop-color:#0c50a8"
         offset="0.4854273"
         id="stop208" /><stop
         style="stop-opacity:1;stop-color:#fdb73e"
         offset="1"
         id="stop210" /></linearGradient><linearGradient
       x1="0"
       y1="0"
       x2="1"
       y2="0"
       gradientUnits="userSpaceOnUse"
       gradientTransform="matrix(598.28723,598.28723,598.28723,-598.28723,1029.5101,514.30637)"
       spreadMethod="pad"
       id="linearGradient238"><stop
         style="stop-opacity:1;stop-color:#0c50a8"
         offset="0"
         id="stop232" /><stop
         style="stop-opacity:1;stop-color:#0c50a8"
         offset="0.4854273"
         id="stop234" /><stop
         style="stop-opacity:1;stop-color:#fdb73e"
         offset="1"
         id="stop236" /></linearGradient><clipPath
       clipPathUnits="userSpaceOnUse"
       id="clipPath248"><path
         d="M 0,0 H 1920 V 1080 H 0 Z"
         id="path246" /></clipPath></defs><g
     id="g10"
     transform="matrix(1.3333333,0,0,-1.3333333,0,1440)"><g
       id="g12"><g
         id="g14"><g
           id="g16"
           clip-path="url(#clipPath20)"><path
             d="M 0,0 H 1920 V 1080 H 0 Z"
             style="fill:#ffffff;fill-opacity:1;fill-rule:nonzero;stroke:none"
             id="path22" /></g></g></g><text
       transform="matrix(1,0,0,-1,99,953.8201)"
       style="font-variant:normal;font-weight:500;font-stretch:normal;font-size:28px;font-family:'Rubik Medium';-inkscape-font-specification:Rubik-Medium;writing-mode:lr-tb;fill:#000000;fill-opacity:1;fill-rule:nonzero;stroke:none"
       id="text26"><tspan
         x="0 19.403999 36.848 52.835999 69.720001 87.164001 102.144 108.556 124.88 146.3 163.492 179.452 195.636 211.62399"
         y="0"
         id="tspan24">Анализ выручки</tspan></text><text
       transform="matrix(1,0,0,-1,99,901.8201)"
       style="font-variant:normal;font-weight:300;font-stretch:normal;font-size:20px;font-family:'Rubik Light';-inkscape-font-specification:Rubik-Light;writing-mode:lr-tb;fill:#000000;fill-opacity:1;fill-rule:nonzero;stroke:none"
       id="text68"><tspan
         x="0 11.44 22.879999 23.719999 38.540001 43.700001 54.540001 67.720001 79.339996 89.919998 100.46 110.58 122.5 127.66 139.94 151.10001 164.38 175.89999 186.62 198.53999 210.46001 222.38 227.53999 239.06 250.67999 262.60001 272.95999 284.12 295.64001 307.56 317.5 328.22 338.60001 343.76001 355.67999 366.39999 371.56 383.07999 394.23999 404.60001 415.76001 427.28 440.45999"
         y="0"
         id="tspan28">95 % выручки Компании приходится на доходы </tspan><tspan
         x="0 11.16 21.1 26.26 41.240002 52.16 63.380001 74.300003 84.139999 96.059998 107.22 118.74 129.89999 141.52 152.67999 167.66 179.58 192.75999 203.12 208.28 219.8 230.72 242.34 253.25999 264.10001 275.26001 285.10001 296.26001 306.38 311.12 316.28 326.39999 337.56 347.5 358.66 370.28 383.45999 394.38 399.54001 410.26001 422.17999 434.10001 443.94 455.85999 467.07999 479 489.72 499.23999"
         y="26"
         id="tspan30">от железнодорожных перевозок, которые снизились </tspan><tspan
         x="0 10.84 16 27.16 37.099998 47.639999 58.560001 68.5 80.419998 91.580002 104.86 110.02 121.54 132.46001 144.08 156 167.16 178.67999 189.60001 194.75999 206.67999 217.39999 222.56 234 234.84 249.66 254.39999 259.56 270.10001 280.04001 291.20001 296.35999 307.51999 318.85999 329.64001 340.01999 350.73999 362.66 373.04001 383.95999 393.89999 404.62 415 420.16 428.51999 439.73999 450.45999 461.29999 473.22 486.39999 499.67999"
         y="52"
         id="tspan32">в отчетном периоде на 5 %, что объясняется главным </tspan><tspan
         x="0 11.16 22.5 34.119999 44.84 54.68 65.839996 79.120003 84.279999 95 106.22 117.14 128.66 139.24001 154.5 170.39999 182.32001 195.60001 207.52 212.67999 226.25999 236.98 247.10001 257.04001 268.20001 279.82001 290.54001 303.82001 315.73999"
         y="78"
         id="tspan34">образом следующими факторами:</tspan><tspan
         x="0 7.5999999 18 28.58 38.939999 49.52 61.040001 76.419998 87.339996 99.260002 111.18 122.1 135.38 140.53999 152.56 163.48 175.39999 186.56 197.39999 208.56 220.48 225.64 235.75999 246.92 258.84 269.62 284.88 296.79999 306.92001 316.85999 327.44 339.06 352.23999 357.39999 369.32001 380.04001 385.20001 396.82001 410 421.92001 432.04001 442.95999"
         y="117"
         id="tspan36">• ухудшением ценовой конъюнктуры на рынке </tspan><tspan
         x="18 29.52 40.439999 52.060001 62.98 73.82 84.980003 94.82 105.98 116.1 121.26 132.78 143.94 155.16 165.74001 176.58 187.3 195.66 206.82001 218.74001 229.46001 242.74001 254.66 259.82001 271.73999 276.89999 287.01999 298.64001 311.82001 321.76001 334.94 348.22 360.14001 365.29999 376.14001 386.85999 395.22 406.38 418.29999 429.01999 442.29999 454.22"
         y="143"
         id="tspan38">перевозок полувагонами и крытыми вагонами;</tspan><tspan
         x="0 7.5999999 18 28.540001 39.259998 49.98 59.919998 71.839996 82.379997 94.300003 105.46 110.62 120.74 131.89999 145.17999 156.7 167.62 179.53999 190.25999 202.17999 213.8 224.96001 235.8 246.52 258.44 270.35999 283.54001 296.82001 301.98001 313.5 324.66 335.88 347.04001 362.01999 373.94 383.88 394.79999 406.01999 415.54001 427.45999 438.62 450.54001"
         y="182"
         id="tspan40">• частично компенсированным положительной </tspan><tspan
         x="18 29.52 41.439999 53.360001 64.080002 77.360001 89.279999 99.400002 110.56 122.48 127.64 136 147.62 158.2 168.03999 179.2 190.36 201.7 212.86 224.48 235.64 245.58 256.29999 261.45999 275.45999 285.56 297.84 303 314.92001 325.64001 330.79999 344.38 355.54001 367.45999 378.38 383.54001 395.16 406.32001 417.04001 426.98001 437.70001"
         y="208"
         id="tspan42">динамикой грузооборота ПГК на фоне роста </tspan><tspan
         x="18 29.52 41.139999 52.299999 64.220001 74.059998 84.900002 96.059998 107.58 119.5 129.44 140.36 151.58 161.10001 173.02 184.17999 194.89999 204.84 216.75999 221.92 233.44 244.60001 255.82001 266.39999 277.23999 287.95999 296.32001 307.48001 319.39999 330.56 341.39999 346.56 358.48001 363.64001 375.26001 386.17999 396.89999 408.12 420.04001 429.88 440.60001 452.62 464.54001 475.45999 487.38"
         y="234"
         id="tspan44">производительности полувагонов и реализацией </tspan><tspan
         x="18 31.280001 42.200001 53.82 64.980003 76.5 88.120003 100.04 110.42 120.36 132.28 144.2 149.36 160.88 172.03999 177.2 188.36 199.88 210.8 222.42 233.14 245.16 257.07999 268.23999 280.16 292.07999 303.23999 315.16 320.32001 331.04001 344.62 358.20001 369.12 379.23999 389.17999 401.10001 411.94 423.85999 435.01999 445.73999 455.67999 467.60001"
         y="260"
         id="tspan46">мероприятий по операционной эффективности.</tspan><tspan
         x="0 13.06 26.24 37.860001 48.439999 58.98 69.099998 79.82 84.980003 96.139999 106.08 111.24 122.4 133.92 144.84 156.46001 167.17999 179.2 191.12 202.28 214.2 226.12 237.28 249.2 254.36 265.07999 276.70001 287.62 299.54001 311.06 324.23999 329.39999 340.92001 352.07999 363.60001 374.44 386.35999 401.34 413.26001 424.42001 432.78 443.94"
         y="299"
         id="tspan48">Выручка от операционной аренды подвижного </tspan><tspan
         x="0 10.72 21.879999 32.599998 42.540001 53.259998 64.099998 74.82 79.980003 91.5 102.66 107.82 119.74 129.67999 140.84 149.2 159.92 173.2 178.36 189.56 201.88 213.08 225.39999 230.56 238.92 250.08 261.60001 272.32001 277.48001 288.20001 300.12 312.04001 321.88 333.79999 345.01999 355.73999 366.45999 375.98001 381.14001 393.06 403.78 408.94 420.14001 431.78 432.60001 447.42001 452.17999"
         y="325"
         id="tspan50">состава по итогам 2020 года снизилась на 26 %. </tspan><tspan
         x="0 11.26 24.540001 35.459999 47.380001 56.900002 72.279999 83.199997 95.120003 107.04 117.96 123.12 134.64 145.36 157.28 169.2 180.36 188.72 199.88 205.03999 216.56 227.72 237.84 248.56 258.39999 269.12 279.06 289.98001 301.20001 311.57999 316.73999 327.89999 339.23999 349.82001 360.54001 371.76001 382.92001 393.76001 404.98001 415.89999 427.82001 438.98001"
         y="351"
         id="tspan52">Уменьшение данного показателя обусловлено </tspan><tspan
         x="0 10.84 16 27.16 37.880001 49.799999 60.959999 71.800003 83.720001 94.879997 108.16 113.32 124.04 135.96001 147.88 162.86 173.78 185.7 197.62 208.53999 221.82001 226.98 237.10001 248.25999 259.48001 271.39999 281.94 292.85999 303.57999 313.51999 324.35999 335.07999 340.23999 350.35999 361.98001 375.16 385.10001 398.28 408.64001 413.79999 424.64001 435.35999 443.72 454.88 466.79999 477.95999 488.79999"
         y="377"
         id="tspan54">в основном снижением количества крытых вагонов </tspan><tspan
         x="0 11.92 17.08 28.6 39.82 50.540001 60.48 74.059998 85.220001 96.839996 110.12 114.86 120.02 131.53999 142.46001 154.08 165 176.52 187.24001 199.16 211.08 224.25999 234.62 239.78 250.62 255.78 266.5 278.12 289.04001 300.95999 312.48001 323.06 327.79999 332.95999 343.79999 354.64001 366.56 378.07999 388.66"
         y="403"
         id="tspan56">и платформ, переданных в аренду, ввиду:</tspan><tspan
         x="0 7.5999999 18 28.719999 40.639999 52.560001 67.540001 78.459999 90.379997 102.3 112.68 117.84 127.96 139.12 150.34 162.25999 172.8 183.72 194.44 204.38 215.22 225.94 231.10001 241.22 252.84 266.01999 275.95999 289.14001 299.5 304.66 315.5 326.22 334.57999 345.73999 357.66 368.82001 379.66 384.39999"
         y="442"
         id="tspan58">• снижения количества крытых вагонов, </tspan><tspan
         x="18 29.52 40.439999 52.060001 62.98 74.5 85.220001 97.139999 109.06 122.24 132.60001 137.75999 148.60001 153.75999 164.48 176.10001 187.02 198.94 210.46001 221.03999 226.2 237.36 248.88 259.79999 271.42001 282.14001 292.07999 303.23999 314.85999 325.57999 338.85999 344.01999 350.39999 361.92001 373.07999 381.44 392.60001 403.44 414.60001 426.22 439.39999"
         y="468"
         id="tspan60">переданных в аренду операторам (договоры </tspan><tspan
         x="18 28.719999 33.880001 42.240002 53.860001 64.440002 74.279999 85.440002 96.599998 106.54 118.06 129.67999 140.39999 151.24001 163.16 173.10001 184.02 195.24001 205.62 218.89999 230.82001 235.98 247.14 257.85999 267.79999 278.51999 289.73999 301.66 312.38 321.89999 327.06 338.98001 349.70001 354.85999 366.38 378 388.92001 403.89999 415.82001 426.73999 440.01999"
         y="494"
         id="tspan62">с грузоотправителями остались на прежнем </tspan><tspan
         x="18 28.58 40.200001 51.360001 62.200001 74.120003 85.040001 91.419998"
         y="520"
         id="tspan64">уровне);</tspan><tspan
         x="0 7.5999999 18 28.84 42.02 53.360001 66.540001 76.480003 88.400002 98.779999 103.94 115.46 126.68 137.39999 147.34 160.92 172.08 183.7 196.98 202.14 213.66 224.82001 229.98 240.7 252.32001 263.48001 273.60001 284.17999 289.34 300.06 311.28 321.85999 336.84 348.17999 361.35999"
         y="559"
         id="tspan66">• выбытия платформ по сроку службы.</tspan></text><g
       id="g70"
       transform="translate(99,102)"><path
         d="M 0,0 H 534"
         style="fill:none;stroke:#f0f0f5;stroke-width:4;stroke-linecap:butt;stroke-linejoin:miter;stroke-miterlimit:4;stroke-dasharray:none;stroke-opacity:1"
         id="path72" /></g><g
       id="g74"
       transform="translate(831,564.725)"><path
         d="M 0,0 H 502"
         style="fill:none;stroke:#e6e7e8;stroke-width:1;stroke-linecap:butt;stroke-linejoin:miter;stroke-miterlimit:10;stroke-dasharray:none;stroke-opacity:1"
         id="path76" /></g><g
       id="g78"
       transform="translate(1333,564.725)"><path
         d="M 0,0 H 151"
         style="fill:none;stroke:#e6e7e8;stroke-width:1;stroke-linecap:butt;stroke-linejoin:miter;stroke-miterlimit:10;stroke-dasharray:none;stroke-opacity:1"
         id="path80" /></g><g
       id="g82"
       transform="translate(1484,564.725)"><path
         d="M 0,0 H 168"
         style="fill:none;stroke:#e6e7e8;stroke-width:1;stroke-linecap:butt;stroke-linejoin:miter;stroke-miterlimit:10;stroke-dasharray:none;stroke-opacity:1"
         id="path84" /></g><g
       id="g86"
       transform="translate(1652,564.725)"><path
         d="M 0,0 H 168"
         style="fill:none;stroke:#e6e7e8;stroke-width:1;stroke-linecap:butt;stroke-linejoin:miter;stroke-miterlimit:10;stroke-dasharray:none;stroke-opacity:1"
         id="path88" /></g><g
       id="g90"
       transform="translate(831,520.1249)"><path
         d="M 0,0 H 502"
         style="fill:none;stroke:#e6e7e8;stroke-width:1;stroke-linecap:butt;stroke-linejoin:miter;stroke-miterlimit:10;stroke-dasharray:none;stroke-opacity:1"
         id="path92" /></g><g
       id="g94"
       transform="translate(1333,520.1249)"><path
         d="M 0,0 H 151"
         style="fill:none;stroke:#e6e7e8;stroke-width:1;stroke-linecap:butt;stroke-linejoin:miter;stroke-miterlimit:10;stroke-dasharray:none;stroke-opacity:1"
         id="path96" /></g><g
       id="g98"
       transform="translate(1484,520.1249)"><path
         d="M 0,0 H 168"
         style="fill:none;stroke:#e6e7e8;stroke-width:1;stroke-linecap:butt;stroke-linejoin:miter;stroke-miterlimit:10;stroke-dasharray:none;stroke-opacity:1"
         id="path100" /></g><g
       id="g102"
       transform="translate(1652,520.1249)"><path
         d="M 0,0 H 168"
         style="fill:none;stroke:#e6e7e8;stroke-width:1;stroke-linecap:butt;stroke-linejoin:miter;stroke-miterlimit:10;stroke-dasharray:none;stroke-opacity:1"
         id="path104" /></g><g
       id="g106"
       transform="translate(831,477.4249)"><path
         d="M 0,0 H 502"
         style="fill:none;stroke:#e6e7e8;stroke-width:1;stroke-linecap:butt;stroke-linejoin:miter;stroke-miterlimit:10;stroke-dasharray:none;stroke-opacity:1"
         id="path108" /></g><g
       id="g110"
       transform="translate(1333,477.4249)"><path
         d="M 0,0 H 151"
         style="fill:none;stroke:#e6e7e8;stroke-width:1;stroke-linecap:butt;stroke-linejoin:miter;stroke-miterlimit:10;stroke-dasharray:none;stroke-opacity:1"
         id="path112" /></g><g
       id="g114"
       transform="translate(1484,477.4249)"><path
         d="M 0,0 H 168"
         style="fill:none;stroke:#e6e7e8;stroke-width:1;stroke-linecap:butt;stroke-linejoin:miter;stroke-miterlimit:10;stroke-dasharray:none;stroke-opacity:1"
         id="path116" /></g><g
       id="g118"
       transform="translate(1652,477.4249)"><path
         d="M 0,0 H 168"
         style="fill:none;stroke:#e6e7e8;stroke-width:1;stroke-linecap:butt;stroke-linejoin:miter;stroke-miterlimit:10;stroke-dasharray:none;stroke-opacity:1"
         id="path120" /></g><g
       id="g122"
       transform="translate(831,434.725)"><path
         d="M 0,0 H 502"
         style="fill:none;stroke:#e6e7e8;stroke-width:1;stroke-linecap:butt;stroke-linejoin:miter;stroke-miterlimit:10;stroke-dasharray:none;stroke-opacity:1"
         id="path124" /></g><g
       id="g126"
       transform="translate(1333,434.725)"><path
         d="M 0,0 H 151"
         style="fill:none;stroke:#e6e7e8;stroke-width:1;stroke-linecap:butt;stroke-linejoin:miter;stroke-miterlimit:10;stroke-dasharray:none;stroke-opacity:1"
         id="path128" /></g><g
       id="g130"
       transform="translate(1484,434.725)"><path
         d="M 0,0 H 168"
         style="fill:none;stroke:#e6e7e8;stroke-width:1;stroke-linecap:butt;stroke-linejoin:miter;stroke-miterlimit:10;stroke-dasharray:none;stroke-opacity:1"
         id="path132" /></g><g
       id="g134"
       transform="translate(1652,434.725)"><path
         d="M 0,0 H 168"
         style="fill:none;stroke:#e6e7e8;stroke-width:1;stroke-linecap:butt;stroke-linejoin:miter;stroke-miterlimit:10;stroke-dasharray:none;stroke-opacity:1"
         id="path136" /></g><text
       transform="matrix(1,0,0,-1,831,576.725)"
       style="font-variant:normal;font-weight:500;font-stretch:normal;font-size:20px;font-family:'Rubik Medium';-inkscape-font-specification:Rubik-Medium;writing-mode:lr-tb;fill:#000000;fill-opacity:1;fill-rule:nonzero;stroke:none"
       id="text140"><tspan
         x="0 13.72 29.02 41.299999 52.700001 64.260002 75.68"
         y="0"
         id="tspan138">Выручка</tspan></text><text
       transform="matrix(1,0,0,-1,1428.96,576.725)"
       style="font-variant:normal;font-weight:500;font-stretch:normal;font-size:20px;font-family:'Rubik Medium';-inkscape-font-specification:Rubik-Medium;writing-mode:lr-tb;fill:#000000;fill-opacity:1;fill-rule:nonzero;stroke:none"
       id="text144"><tspan
         x="0 12.38 25.52 37.900002 171.92 184.3 197.44 206.7 219.03999"
         y="0"
         id="tspan142">20202019 </tspan></text><text
       transform="matrix(1,0,0,-1,1770.68,576.725)"
       style="font-variant:normal;font-weight:500;font-stretch:normal;font-size:20px;font-family:'Rubik Medium';-inkscape-font-specification:Rubik-Medium;writing-mode:lr-tb;fill:#000000;fill-opacity:1;fill-rule:nonzero;stroke:none"
       id="text148"><tspan
         x="0 15.2 25.9 39.959999"
         y="0"
         id="tspan146">Изм.</tspan></text><text
       transform="matrix(1,0,0,-1,831,534.025)"
       style="font-variant:normal;font-weight:300;font-stretch:normal;font-size:20px;font-family:'Rubik Light';-inkscape-font-specification:Rubik-Light;writing-mode:lr-tb;fill:#000000;fill-opacity:1;fill-rule:nonzero;stroke:none"
       id="text156"><tspan
         x="0 19.139999 30.059999 41.279999 52.200001 62.040001 73.959999 85.120003 96.639999 107.8 119.42 130.58 145.56 157.48 170.66 181.58 186.74001 198.25999 209.17999 220.8 231.72 242.56 253.72 263.56 273.67999 589.97998 599.71997 609.46002 614.62 625.58002 637.47998 649 760.03998 772.40002 780.35999 785.52002 797.84003 809.03998 817 949.21997 958.73999 970.17999"
         y="0"
         id="tspan150">Железнодорожные перевозки77 243 81 021 -5%</tspan><tspan
         x="0 13.24 24.76 35.68 47.299999 58.02 70.040001 81.959999 93.120003 105.04 116.96 127.68 138.06 143.22 153.94 165.56 176.48 188.39999 199.92 210.64 215.8 227.32001 238.48 250 260.84 272.76001 287.73999 299.66 310.82001 319.17999 330.34 335.5 346.22 357.38 368.10001 378.04001 388.76001 399.60001 596.44 601.59998 609.56 614.71997 625.91998 637.56 649 766.12 777.32001 782.47998 794.12 805.56 817 938.5 947.34003 958.53998 970.17999"
         y="44.599998"
         id="tspan152">Операционная аренда подвижного состава 1 969 2 655 -26%</tspan><tspan
         x="0 14 25.620001 36.779999 47.32 58.240002 69.160004 602.38 610.34003 615.5 626.94 636.67999 649 769.70001 780.90002 786.06 797.59998 805.56 817 940.94 949.85999 957.82001 970.17999"
         y="87.300003"
         id="tspan154">Прочее 1 970 2 415 -18%</tspan></text><text
       transform="matrix(1,0,0,-1,831,404.025)"
       style="font-variant:normal;font-weight:500;font-stretch:normal;font-size:20px;font-family:'Rubik Medium';-inkscape-font-specification:Rubik-Medium;writing-mode:lr-tb;fill:#000000;fill-opacity:1;fill-rule:nonzero;stroke:none"
       id="text160"><tspan
         x="0 15.2 25.799999 37.639999 46.540001"
         y="0"
         id="tspan158">Итого</tspan></text><text
       transform="matrix(1,0,0,-1,1418.28,404.025)"
       style="font-variant:normal;font-weight:500;font-stretch:normal;font-size:20px;font-family:'Rubik Medium';-inkscape-font-specification:Rubik-Medium;writing-mode:lr-tb;fill:#000000;fill-opacity:1;fill-rule:nonzero;stroke:none"
       id="text164"><tspan
         x="0 13.12 22.379999 26.959999 36.220001 49.34 160.16 164.74001 177.86 190.39999 194.98 208.12 220.46001"
         y="0"
         id="tspan162">81 182 86 091</tspan></text><text
       transform="matrix(1,0,0,-1,1778.16,404.025)"
       style="font-variant:normal;font-weight:500;font-stretch:normal;font-size:20px;font-family:'Rubik Medium';-inkscape-font-specification:Rubik-Medium;writing-mode:lr-tb;fill:#000000;fill-opacity:1;fill-rule:nonzero;stroke:none"
       id="text176"><tspan
         x="0 9.6199999 22.16"
         y="0"
         id="tspan166">-6%</tspan><tspan
         x="-503.16 -491.5 -476.20001 -463.92001 -452.51999 -440.95999 -429.54001 -417.07999 -412.5 -399.10001 -387.26001 -373.20001 -360.98001 -349.56 -337.10001 -324.64001 -312.17999"
         y="226.02"
         id="tspan168">выручки Компании </tspan><tspan
         x="-503.16 -490.94 -478.66 -466.20001 -454.92001 -443.07999 -430.51999 -418.06 -407.45999 -396.04001 -384.56 -379.98001 -367.51999 -356.10001 -351.51999 -338.95999 -327.12 -315.84 -304 -291.44 -276.14001"
         y="252.02"
         id="tspan170">приходится на доходы </tspan><tspan
         x="-503.16 -491.32001 -480.72 -476.14001 -459.01999 -447.48001 -435.42001 -423.88 -413.17999 -400.72 -388.88 -376.32001 -364.48001 -352.20001 -340.35999 -323.23999 -310.78 -295.48001 -284.20001"
         y="278.01999"
         id="tspan172">от железнодорожных </tspan><tspan
         x="-503.16 -490.94 -479.39999 -467.12 -455.57999 -443.92001 -432.07999 -421.38 -409.54001"
         y="304.01999"
         id="tspan174">перевозок</tspan></text><g
       id="g178"><g
         id="g180"
         clip-path="url(#clipPath184)"><g
           id="g186"
           transform="translate(1462,295.6667)"><path
             d="m 0,0 h -172 c -11.046,0 -20,-8.954 -20,-20 0,-11.046 8.954,-20 20,-20 H 0 c 11.046,0 20,8.954 20,20 C 20,-8.954 11.046,0 0,0"
             style="fill:#f0f0f5;fill-opacity:1;fill-rule:nonzero;stroke:none"
             id="path188" /></g></g></g><text
       transform="matrix(1,0,0,-1,1300.7247,268.288)"
       style="font-variant:normal;font-weight:500;font-stretch:normal;font-size:28px;font-family:'Rubik Medium';-inkscape-font-specification:Rubik-Medium;writing-mode:lr-tb;fill:#000000;fill-opacity:1;fill-rule:nonzero;stroke:none"
       id="text192"><tspan
         x="0 17.108 34.299999 50.875999 68.711998 84.867996 102.312 117.152 133.728"
         y="0"
         id="tspan190">процентов</tspan></text><g
       id="g194"><g
         id="g196"><g
           id="g202"><g
             id="g204"><path
               d="m 881.58,296.56 c -11.296,-3.36 -20.768,-8.028 -28.42,-14 v 0 c -7.656,-5.977 -13.396,-13.208 -17.22,-21.7 v 0 C 832.112,252.364 830.2,243.08 830.2,233 v 0 c 0,-10.08 1.863,-19.368 5.6,-27.86 v 0 c 3.732,-8.496 9.24,-15.728 16.52,-21.7 v 0 c 7.28,-5.976 16.24,-10.64 26.88,-14 v 0 c 10.64,-3.36 22.772,-5.04 36.4,-5.04 v 0 c 8.4,0 15.864,0.7 22.4,2.1 v 0 c 6.532,1.4 12.132,3.032 16.8,4.9 v 0 c 5.224,2.052 9.892,4.383 14,7 v 0 c 0,-21.656 -4.62,-37.568 -13.86,-47.74 v 0 C 945.7,120.484 933.052,115.4 917,115.4 v 0 c -4.297,0 -8.96,0.324 -14,0.98 v 0 c -5.04,0.652 -10.316,1.82 -15.82,3.5 v 0 c -5.508,1.68 -11.108,3.964 -16.8,6.86 v 0 c -5.696,2.892 -11.156,6.58 -16.38,11.06 v 0 L 841.4,121 c 10.64,-9.148 22.864,-15.868 36.68,-20.16 v 0 C 891.892,96.548 905.8,94.4 919.8,94.4 v 0 c 30.24,0 53.2,7.323 68.88,21.98 v 0 c 15.68,14.652 23.52,35.324 23.52,62.02 v 0 46.2 c 0,24.64 -7.608,43.632 -22.82,56.98 v 0 c -15.216,13.344 -37.94,20.02 -68.18,20.02 v 0 c -15.12,0 -28.328,-1.68 -39.62,-5.04 M 900.76,187.5 c -5.417,2.332 -10.128,5.644 -14.14,9.94 v 0 c -4.016,4.292 -7.188,9.472 -9.52,15.54 v 0 c -2.336,6.064 -3.5,12.74 -3.5,20.02 v 0 c 0,7.28 1.164,13.952 3.5,20.02 v 0 c 2.332,6.064 5.6,11.243 9.8,15.54 v 0 c 4.2,4.292 9.192,7.604 14.98,9.94 v 0 c 5.784,2.331 12.224,3.5 19.32,3.5 v 0 c 14,0 25.432,-4.716 34.3,-14.14 v 0 c 8.863,-9.428 13.3,-22.916 13.3,-40.46 v 0 -25.2 c -3.548,-3.548 -7.748,-6.628 -12.6,-9.24 v 0 c -4.296,-2.24 -9.568,-4.297 -15.82,-6.16 v 0 C 934.123,184.932 926.8,184 918.4,184 v 0 c -6.348,0 -12.228,1.164 -17.64,3.5 M 1042.241,296 V 189.6 h 30.8 c 7.092,5.6 15.073,9.564 23.94,11.9 v 0 c 8.864,2.332 17.22,3.5 25.06,3.5 v 0 c 17.543,0 30.564,-3.968 39.061,-11.9 v 0 c 8.491,-7.936 12.739,-18.9 12.739,-32.9 v 0 c 0,-14 -4.34,-24.968 -13.02,-32.9 v 0 c -8.68,-7.937 -22.54,-11.9 -41.58,-11.9 v 0 c -13.44,0 -26.04,2.192 -37.8,6.58 v 0 c -11.759,4.384 -22.96,11.524 -33.6,21.42 v 0 l -13.999,-16.8 c 10.639,-9.896 23.611,-17.736 38.919,-23.52 v 0 c 15.304,-5.784 31.732,-8.68 49.28,-8.68 v 0 c 32.852,0 56.932,5.88 72.24,17.64 v 0 c 15.304,11.76 22.96,27.812 22.96,48.16 v 0 c 0,20.344 -7.516,36.4 -22.54,48.16 v 0 c -15.028,11.76 -38.316,17.64 -69.859,17.64 v 0 c -6.349,0 -12.089,-0.468 -17.221,-1.4 v 0 c -5.136,-0.937 -9.568,-1.868 -13.299,-2.8 v 0 c -4.297,-1.308 -8.121,-2.709 -11.481,-4.2 v 0 58.8 h 117.601 V 296 Z"
               style="fill:url(#linearGradient212);stroke:none"
               id="path214" /></g></g></g></g><text
       transform="matrix(1,0,0,-1,831,961.3)"
       style="font-variant:normal;font-weight:500;font-stretch:normal;font-size:20px;font-family:'Rubik Medium';-inkscape-font-specification:Rubik-Medium;writing-mode:lr-tb;fill:#000000;fill-opacity:1;fill-rule:nonzero;stroke:none"
       id="text218"><tspan
         x="0 13.72 29.02 41.299999 52.700001 64.260002 75.68 87.099998 91.68 103.52 114.12 118.7 135.82001 147.36 159.42 170.96001 181.66 194.12 205.96001 218.52 230.36 242.64 254.48 271.60001 284.06 299.35999 310.64001 315.22 327.44 338.98001 351.26001 362.79999 374.45999 386.29999 397 408.84 420.26001 424.84 437.06 448.89999 453.48001 465.94 476.54001 488.38 497.28 508.70001 522.76001 527.34003 539.71997 552.85999 565.23999 578.38 582.96002 591.85999 603.70001 616.26001"
         y="0"
         id="tspan216">Выручка от железнодорожных перевозок по итогам 2020 года</tspan></text><g
       id="g220"><g
         id="g222"><g
           id="g228"><g
             id="g230"><path
               d="m 1679.168,909.21 c -14.469,-5.228 -27.021,-12.417 -37.661,-21.56 v 0 l 12.6,-16.8 c 10.64,9.144 21.7,15.632 33.181,19.46 v 0 c 11.479,3.824 24.219,5.74 38.219,5.74 v 0 c 14.744,0 26.132,-3.128 34.16,-9.38 v 0 c 8.024,-6.257 12.041,-14.328 12.041,-24.22 v 0 c 0,-24.268 -13.537,-36.4 -40.6,-36.4 v 0 h -51.801 v -21 h 57.401 c 14.743,0 25.663,-3.037 32.76,-9.1 v 0 c 7.091,-6.068 10.639,-14.7 10.639,-25.9 v 0 c 0,-11.2 -4.436,-20.536 -13.3,-28 v 0 c -8.868,-7.468 -23.099,-11.2 -42.7,-11.2 v 0 c -14,0 -26.976,2.192 -38.919,6.58 v 0 c -11.948,4.383 -23.241,11.524 -33.881,21.42 v 0 l -14,-16.8 c 10.641,-9.896 23.66,-17.736 39.06,-23.52 v 0 c 15.401,-5.784 32.244,-8.68 50.54,-8.68 v 0 c 16.801,0 31.264,1.496 43.4,4.48 v 0 c 12.132,2.983 22.164,7.043 30.101,12.18 v 0 c 7.931,5.131 13.763,11.2 17.499,18.199 v 0 c 3.733,7.001 5.6,14.513 5.6,22.541 v 0 c 0,13.44 -3.968,24.312 -11.9,32.62 v 0 c -7.936,8.304 -18.9,14.232 -32.899,17.78 v 0 c 12.692,4.292 21.931,10.312 27.72,18.06 v 0 c 5.783,7.744 8.679,17.592 8.679,29.54 v 0 c 0,7.28 -1.819,14.091 -5.46,20.44 v 0 c -3.64,6.344 -9.1,11.852 -16.38,16.52 v 0 c -7.28,4.664 -16.336,8.304 -27.159,10.92 v 0 c -10.829,2.612 -23.429,3.92 -37.801,3.92 v 0 c -18.296,0 -34.676,-2.616 -49.139,-7.84 m -397.763,0 c -14.469,-5.228 -27.02,-12.417 -37.661,-21.56 v 0 l 12.6,-16.8 c 10.641,9.144 21.7,15.632 33.18,19.46 v 0 c 11.481,3.824 24.22,5.74 38.221,5.74 v 0 c 15.491,0 27.064,-3.548 34.72,-10.64 v 0 c 7.652,-7.096 11.479,-16.617 11.479,-28.56 v 0 c 0,-9.148 -2.66,-17.22 -7.98,-24.22 v 0 c -5.32,-7 -11.528,-12.928 -18.619,-17.78 v 0 l -100.801,-77 v -22.4 h 173.6 v 21 h -117.599 l 71.399,54.6 c 5.6,4.292 11.012,8.68 16.24,13.16 v 0 c 5.225,4.48 9.844,9.423 13.86,14.84 v 0 c 4.012,5.412 7.232,11.432 9.661,18.06 v 0 c 2.423,6.624 3.639,14.14 3.639,22.54 v 0 c 0,8.4 -1.775,16.1 -5.32,23.1 v 0 c -3.547,7 -8.916,13.064 -16.1,18.2 v 0 c -7.188,5.132 -16.196,9.1 -27.02,11.9 v 0 c -10.827,2.8 -23.616,4.2 -38.359,4.2 v 0 c -18.296,0 -34.676,-2.616 -49.14,-7.84 m 272.548,2.24 -127.4,-129.08 v -22.12 h 137.2 v -44.8 h 40.6 v 44.8 h 23.8 v 19.6 h -23.8 v 131.6 z m 7,-36.4 h 2.8 v -95.2 h -96.6 z m -539.807,36.4 v -21 h 133 l -92.4,-175 h 42 l 91,172.2 v 23.8 z m -187.346,0 v -21 h 133 l -92.4,-175 h 42 l 91,172.2 v 23.8 z"
               style="fill:url(#linearGradient238);stroke:none"
               id="path240" /></g></g></g></g><g
       id="g242"><g
         id="g244"
         clip-path="url(#clipPath248)"><g
           id="g250"
           transform="translate(1807.6667,917.5)"><path
             d="m 0,0 h -117 c -11.046,0 -20,-8.954 -20,-20 0,-11.046 8.954,-20 20,-20 H 0 c 11.046,0 20,8.954 20,20 C 20,-8.954 11.046,0 0,0"
             style="fill:#f0f0f5;fill-opacity:1;fill-rule:nonzero;stroke:none"
             id="path252" /></g></g></g><text
       transform="matrix(1,0,0,-1,1690.4792,890.2153)"
       style="font-variant:normal;font-weight:500;font-stretch:normal;font-size:28px;font-family:'Rubik Medium';-inkscape-font-specification:Rubik-Medium;writing-mode:lr-tb;fill:#000000;fill-opacity:1;fill-rule:nonzero;stroke:none"
       id="text256"><tspan
         x="0 19.684 36.568001 54.012001 60.004002 77.195999 93.155998 109.872"
         y="0"
         id="tspan254">млн руб.</tspan></text><text
       transform="matrix(1,0,0,-1,38.0202,1023)"
       style="font-variant:normal;font-weight:300;font-stretch:normal;font-size:20px;font-family:'Rubik Light';-inkscape-font-specification:Rubik-Light;writing-mode:lr-tb;fill:#000000;fill-opacity:1;fill-rule:nonzero;stroke:none"
       id="text260"><tspan
         x="0 11.52 60.98 74.220001 79.379997 89.5 100.66 113.94 125.46 136.17999 148.10001 160.02"
         y="0"
         id="tspan258">39О компании</tspan></text></g></svg>
