<?xml version="1.0" encoding="UTF-8" standalone="no"?>
<?xml-stylesheet type="text/css" href="main.css" ?>
<svg
   xmlns:dc="http://purl.org/dc/elements/1.1/"
   xmlns:cc="http://creativecommons.org/ns#"
   xmlns:rdf="http://www.w3.org/1999/02/22-rdf-syntax-ns#"
   xmlns:svg="http://www.w3.org/2000/svg"
   xmlns="http://www.w3.org/2000/svg"
   version="1.1"
   id="svg2"
   xml:space="preserve"
   width="2560"
   height="1440"
   viewBox="0 0 2560 1440"><metadata
     id="metadata8"><rdf:RDF><cc:Work
         rdf:about=""><dc:format>image/svg+xml</dc:format><dc:type
           rdf:resource="http://purl.org/dc/dcmitype/StillImage" /></cc:Work></rdf:RDF></metadata><defs
     id="defs6"><clipPath
       clipPathUnits="userSpaceOnUse"
       id="clipPath20"><path
         d="M 0,1080 H 1920 V 0 H 0 Z"
         id="path18" /></clipPath><clipPath
       clipPathUnits="userSpaceOnUse"
       id="clipPath52"><path
         d="M 0,0 H 1920 V 1080 H 0 Z"
         id="path50" /></clipPath><clipPath
       clipPathUnits="userSpaceOnUse"
       id="clipPath114"><path
         d="M 0,0 H 1920 V 1080 H 0 Z"
         id="path112" /></clipPath><clipPath
       clipPathUnits="userSpaceOnUse"
       id="clipPath130"><path
         d="M 0,0 H 1920 V 1080 H 0 Z"
         id="path128" /></clipPath><clipPath
       clipPathUnits="userSpaceOnUse"
       id="clipPath146"><path
         d="M 0,0 H 1920 V 1080 H 0 Z"
         id="path144" /></clipPath><clipPath
       clipPathUnits="userSpaceOnUse"
       id="clipPath162"><path
         d="M 0,0 H 1920 V 1080 H 0 Z"
         id="path160" /></clipPath><clipPath
       clipPathUnits="userSpaceOnUse"
       id="clipPath244"><path
         d="M 0,1080 H 1920 V 0 H 0 Z"
         id="path242" /></clipPath></defs><g
     id="g10"
     transform="matrix(1.3333333,0,0,-1.3333333,0,1440)"><g
       id="g12"><g
         id="g14"><g
           id="g16"
           clip-path="url(#clipPath20)"><path
             d="M 0,0 H 1920 V 1080 H 0 Z"
             style="fill:#ffffff;fill-opacity:1;fill-rule:nonzero;stroke:none"
             id="path22" /></g></g></g><text
       transform="matrix(1,0,0,-1,1309.2947,896)"
       style="font-variant:normal;font-weight:normal;font-stretch:normal;font-size:120px;font-family:'Prosto One';-inkscape-font-specification:ProstoOne-Regular;writing-mode:lr-tb;fill:#faaa2d;fill-opacity:1;fill-rule:nonzero;stroke:none"
       id="text32"><tspan
         x="0 88.68 137.112 169.12801"
         y="0"
         id="tspan24">81,2</tspan><tspan
         x="-44.880001 42.959999 134.088 165.85201"
         y="159.24001"
         id="tspan26">34,5</tspan><tspan
         x="81.360001 169.2"
         y="318.48001"
         id="tspan28">42</tspan><tspan
         x="2.1600001 47.759998 130.164 160.104"
         y="477.72"
         id="tspan30">12,8</tspan></text><text
       transform="matrix(1,0,0,-1,1301.1347,259.04)"
       style="font-variant:normal;font-weight:normal;font-stretch:normal;font-size:120px;font-family:'Prosto One';-inkscape-font-specification:ProstoOne-Regular;writing-mode:lr-tb;fill:#faaa2d;fill-opacity:1;fill-rule:nonzero;stroke:none"
       id="text36"><tspan
         x="0 47.363998 136.644 166.524"
         y="0"
         id="tspan34">18,4</tspan></text><text
       transform="matrix(1,0,0,-1,1222.1747,99.8)"
       style="font-variant:normal;font-weight:normal;font-stretch:normal;font-size:120px;font-family:'Prosto One';-inkscape-font-specification:ProstoOne-Regular;writing-mode:lr-tb;fill:#faaa2d;fill-opacity:1;fill-rule:nonzero;stroke:none"
       id="text40"><tspan
         x="0 94.080002 125.844 211.57201"
         y="0"
         id="tspan38">0,53</tspan></text><text
       transform="matrix(1,0,0,-1,1517.5958,100)"
       style="font-variant:normal;font-weight:normal;font-stretch:normal;font-size:87px;font-family:'Prosto One';-inkscape-font-specification:ProstoOne-Regular;writing-mode:lr-tb;fill:#faaa2d;fill-opacity:1;fill-rule:nonzero;stroke:none"
       id="text44"><tspan
         x="0"
         y="0"
         id="tspan42">х</tspan></text><g
       id="g46"><g
         id="g48"
         clip-path="url(#clipPath52)"><g
           id="g54"
           transform="translate(1806,320.2)"><path
             d="m 0,0 h -142 c -11.046,0 -20,-8.954 -20,-20 0,-11.046 8.954,-20 20,-20 H 0 c 11.046,0 20,8.954 20,20 C 20,-8.954 11.046,0 0,0"
             style="fill:#e8e8ed;fill-opacity:1;fill-rule:nonzero;stroke:none"
             id="path56" /></g></g></g><text
       transform="matrix(1,0,0,-1,1664.0626,292.9184)"
       style="font-variant:normal;font-weight:500;font-stretch:normal;font-size:28px;font-family:'Rubik Medium';-inkscape-font-specification:Rubik-Medium;writing-mode:lr-tb;fill:#000000;fill-opacity:1;fill-rule:nonzero;stroke:none"
       id="text60"><tspan
         x="0 19.712 36.624001 53.816002 71.428001 77.811996 92.68 106.12 122.164"
         y="0"
         id="tspan58">млрд т-км</tspan></text><g
       id="g62"
       transform="translate(693,858.3984)"><path
         d="M 0,0 H 1128"
         style="fill:none;stroke:#e6e7e8;stroke-width:2;stroke-linecap:butt;stroke-linejoin:miter;stroke-miterlimit:4;stroke-dasharray:none;stroke-opacity:1"
         id="path64" /></g><g
       id="g66"
       transform="translate(693,699.2031)"><path
         d="M 0,0 H 1128"
         style="fill:none;stroke:#e6e7e8;stroke-width:2;stroke-linecap:butt;stroke-linejoin:miter;stroke-miterlimit:4;stroke-dasharray:none;stroke-opacity:1"
         id="path68" /></g><g
       id="g70"
       transform="translate(693,540)"><path
         d="M 0,0 H 1128"
         style="fill:none;stroke:#e6e7e8;stroke-width:2;stroke-linecap:butt;stroke-linejoin:miter;stroke-miterlimit:4;stroke-dasharray:none;stroke-opacity:1"
         id="path72" /></g><g
       id="g74"
       transform="translate(693,380.7969)"><path
         d="M 0,0 H 1128"
         style="fill:none;stroke:#e6e7e8;stroke-width:2;stroke-linecap:butt;stroke-linejoin:miter;stroke-miterlimit:4;stroke-dasharray:none;stroke-opacity:1"
         id="path76" /></g><g
       id="g78"
       transform="translate(693,221.6016)"><path
         d="M 0,0 H 1128"
         style="fill:none;stroke:#e6e7e8;stroke-width:2;stroke-linecap:butt;stroke-linejoin:miter;stroke-miterlimit:4;stroke-dasharray:none;stroke-opacity:1"
         id="path80" /></g><text
       transform="matrix(1,0,0,-1,693,928.2)"
       style="font-variant:normal;font-weight:500;font-stretch:normal;font-size:28px;font-family:'Rubik Medium';-inkscape-font-specification:Rubik-Medium;writing-mode:lr-tb;fill:#000000;fill-opacity:1;fill-rule:nonzero;stroke:none"
       id="text90"><tspan
         x="0 19.236 40.740002 57.344002 73.360001 89.571999 105.616 121.632 128.01601 138.15199 151.592 169.17599 191.15601"
         y="0"
         id="tspan82">Выручка (-6%)</tspan><tspan
         x="0 20.440001 37.043999 53.088001 69.103996 84.112 100.128 114.996 131.03999 147.952 162.82001 169.20399 186.64799 205.884 214.284 231.252 250.5412 269.24521 275.62921 285.7652 298.28119 315.44519 333.72919 355.7092"
         y="159.20799"
         id="tspan84">Показатель EBITDA (-24%)</tspan><tspan
         x="0 0 18.48 34.664001 52.136002 67.003998 83.019997 99.764 115.8052 132.71719 147.58521 165.05721 181.66119 197.6772 212.5452 227.41319 233.7972 250.9332 267.5372 273.9212 291.3652 310.6012 319.00119 335.96921 355.25839 373.9624 380.34641 390.48239 403.05441 416.04639 434.49841 440.88239 458.0184 465.55042 482.6864 490.21841"
         y="318.41599"
         id="tspan86"> Рентабельность по EBITDA (-10 п.п.)</tspan><tspan
         x="0 19.18 35.560001 52.164001 68.907997 85.512001 103.124 120.596 142.10001 159.57201"
         y="458.612"
         id="tspan88">Свободный </tspan></text><text
       transform="matrix(1,0,0,-1,693,435.596)"
       style="font-variant:normal;font-weight:500;font-stretch:normal;font-size:28px;font-family:'Rubik Medium';-inkscape-font-specification:Rubik-Medium;writing-mode:lr-tb;fill:#000000;fill-opacity:1;fill-rule:nonzero;stroke:none"
       id="text96"><tspan
         x="0 17.612 33.796001 51.268002 67.452003 91.503998 108.976 130.48 147.952 154.336 171.472 188.076 202.944 219.548"
         y="0"
         id="tspan92">денежный поток</tspan><tspan
         x="0 0 19.18 34.580002 51.183998 68.375999 85.568001 101.752 117.796 132.664 150.136 167.328 183.93201 200.312 216.328 233.8 251.272 272.776 290.24799"
         y="125.188"
         id="tspan94"> Скорректированный </tspan></text><text
       transform="matrix(1,0,0,-1,693,276.416)"
       style="font-variant:normal;font-weight:500;font-stretch:normal;font-size:28px;font-family:'Rubik Medium';-inkscape-font-specification:Rubik-Medium;writing-mode:lr-tb;fill:#000000;fill-opacity:1;fill-rule:nonzero;stroke:none"
       id="text102"><tspan
         x="0 16.212 33.683998 49.700001 64.568001 86.071999 103.544 109.928 127.54 143.892 160.804"
         y="0"
         id="tspan98">чистый долг</tspan><tspan
         x="0 0 20.440001 37.043999 53.088001 69.103996 84.112 100.128 114.996 131.03999 147.952"
         y="127.204"
         id="tspan100"> Показатель</tspan></text><text
       transform="matrix(1,0,0,-1,693,115.22)"
       style="font-variant:normal;font-weight:500;font-stretch:normal;font-size:28px;font-family:'Rubik Medium';-inkscape-font-specification:Rubik-Medium;writing-mode:lr-tb;fill:#000000;fill-opacity:1;fill-rule:nonzero;stroke:none"
       id="text106"><tspan
         x="0 18.983999 36.456001 52.472 67.339996 88.844002 106.316 112.7 130.312 146.66119 163.5732 176.0612 182.44521 196.6972 203.08121 220.52521 239.7612 248.16119 265.12921 284.4212"
         y="0"
         id="tspan104">Чистый долг / EBITDA</tspan></text><g
       id="g108"><g
         id="g110"
         clip-path="url(#clipPath114)"><g
           id="g116"
           transform="translate(1806,480.4)"><path
             d="m 0,0 h -142 c -11.046,0 -20,-8.954 -20,-20 0,-11.046 8.954,-20 20,-20 H 0 c 11.046,0 20,8.954 20,20 C 20,-8.954 11.046,0 0,0"
             style="fill:#e8e8ed;fill-opacity:1;fill-rule:nonzero;stroke:none"
             id="path118" /></g></g></g><text
       transform="matrix(1,0,0,-1,1671.5,453.1176)"
       style="font-variant:normal;font-weight:500;font-stretch:normal;font-size:28px;font-family:'Rubik Medium';-inkscape-font-specification:Rubik-Medium;writing-mode:lr-tb;fill:#000000;fill-opacity:1;fill-rule:nonzero;stroke:none"
       id="text122"><tspan
         x="0 19.712 36.624001 53.816002 71.428001 77.635597 94.239601 110.2556"
         y="0"
         id="tspan120">млрд руб</tspan></text><g
       id="g124"><g
         id="g126"
         clip-path="url(#clipPath130)"><g
           id="g132"
           transform="translate(1806,798.8)"><path
             d="m 0,0 h -142 c -11.046,0 -20,-8.954 -20,-20 0,-11.046 8.954,-20 20,-20 H 0 c 11.046,0 20,8.954 20,20 C 20,-8.954 11.046,0 0,0"
             style="fill:#e8e8ed;fill-opacity:1;fill-rule:nonzero;stroke:none"
             id="path134" /></g></g></g><text
       transform="matrix(1,0,0,-1,1671.5,771.5161)"
       style="font-variant:normal;font-weight:500;font-stretch:normal;font-size:28px;font-family:'Rubik Medium';-inkscape-font-specification:Rubik-Medium;writing-mode:lr-tb;fill:#000000;fill-opacity:1;fill-rule:nonzero;stroke:none"
       id="text138"><tspan
         x="0 19.712 36.624001 53.816002 71.428001 77.635597 94.239601 110.2556"
         y="0"
         id="tspan136">млрд руб</tspan></text><g
       id="g140"><g
         id="g142"
         clip-path="url(#clipPath146)"><g
           id="g148"
           transform="translate(1806,639.6)"><path
             d="m 0,0 h -142 c -11.046,0 -20,-8.954 -20,-20 0,-11.046 8.954,-20 20,-20 H 0 c 11.046,0 20,8.954 20,20 C 20,-8.954 11.046,0 0,0"
             style="fill:#e8e8ed;fill-opacity:1;fill-rule:nonzero;stroke:none"
             id="path150" /></g></g></g><text
       transform="matrix(1,0,0,-1,1668.361,612.3169)"
       style="font-variant:normal;font-weight:500;font-stretch:normal;font-size:28px;font-family:'Rubik Medium';-inkscape-font-specification:Rubik-Medium;writing-mode:lr-tb;fill:#000000;fill-opacity:1;fill-rule:nonzero;stroke:none"
       id="text154"><tspan
         x="0 17.136 34.327999 50.931999 68.739998 84.924004 102.396 117.264"
         y="0"
         id="tspan152">процента</tspan></text><g
       id="g156"><g
         id="g158"
         clip-path="url(#clipPath162)"><g
           id="g164"
           transform="translate(1806,958)"><path
             d="m 0,0 h -142 c -11.046,0 -20,-8.954 -20,-20 0,-11.046 8.954,-20 20,-20 H 0 c 11.046,0 20,8.954 20,20 C 20,-8.954 11.046,0 0,0"
             style="fill:#e8e8ed;fill-opacity:1;fill-rule:nonzero;stroke:none"
             id="path166" /></g></g></g><text
       transform="matrix(1,0,0,-1,1671.5,930.7153)"
       style="font-variant:normal;font-weight:500;font-stretch:normal;font-size:28px;font-family:'Rubik Medium';-inkscape-font-specification:Rubik-Medium;writing-mode:lr-tb;fill:#000000;fill-opacity:1;fill-rule:nonzero;stroke:none"
       id="text170"><tspan
         x="0 19.712 36.624001 53.816002 71.428001 77.635597 94.239601 110.2556"
         y="0"
         id="tspan168">млрд руб</tspan></text><text
       transform="matrix(1,0,0,-1,99,953.4)"
       style="font-variant:normal;font-weight:normal;font-stretch:normal;font-size:38px;font-family:'Prosto One';-inkscape-font-specification:ProstoOne-Regular;writing-mode:lr-tb;fill:#000000;fill-opacity:1;fill-rule:nonzero;stroke:none"
       id="text176"><tspan
         x="0 30.209999 61.75 105.64 135.47 162.45 192.85001 232.56 259.54001"
         y="0"
         id="tspan172">КЛЮЧЕВЫЕ </tspan><tspan
         x="0 30.02 57 85.309998 115.52 147.06 177.08 203.87 235.03 261.82001"
         y="45.599998"
         id="tspan174">РЕЗУЛЬТАТЫ</tspan></text><text
       transform="matrix(1,0,0,-1,99,821.6201)"
       style="font-variant:normal;font-weight:500;font-stretch:normal;font-size:28px;font-family:'Rubik Medium';-inkscape-font-specification:Rubik-Medium;writing-mode:lr-tb;fill:#000000;fill-opacity:1;fill-rule:nonzero;stroke:none"
       id="text180"><tspan
         x="0 19.431999 36.903999 52.919998 69.832001 87.304001 102.312 108.696 130.088 147.56 165.032 181.048 198.52 214.536 231.14 247.52 269.02399"
         y="0"
         id="tspan178">Анализ финансовых</tspan></text><text
       transform="matrix(1,0,0,-1,99,787.6281)"
       style="font-variant:normal;font-weight:500;font-stretch:normal;font-size:28px;font-family:'Rubik Medium';-inkscape-font-specification:Rubik-Medium;writing-mode:lr-tb;fill:#000000;fill-opacity:1;fill-rule:nonzero;stroke:none"
       id="text184"><tspan
         x="0 17.191999 33.375999 48.383999 63.476002 80.388 95.255997 110.124 126.14 141.008 157.612"
         y="0"
         id="tspan182">результатов</tspan></text><text
       transform="matrix(1,0,0,-1,99,748.6201)"
       style="font-variant:normal;font-weight:300;font-stretch:normal;font-size:20px;font-family:'Rubik Light';-inkscape-font-specification:Rubik-Light;writing-mode:lr-tb;fill:#000000;fill-opacity:1;fill-rule:nonzero;stroke:none"
       id="text226"><tspan
         x="0 13.06 18.219999 29.42 41.740002 52.939999 65.260002 70.419998 78.540001 89.699997 101.22 111.8 116.96 128.58 141.75999 153.67999 164.84 174.96001 180.12 195.10001 205.938 217.158 228.078 237.918 249.838 260.99799 272.51801 283.67801 295.298 306.45801 321.43799 333.358 346.53799 356.89801"
         y="0"
         id="tspan186">В 2020 году рынок железнодорожных </tspan><tspan
         x="0 11.52 22.440001 34.060001 44.98 55.82 66.980003 76.82 87.980003 98.099998 103.26 114.78 126.4 137.56 149.08 160 173.28 184.44 196.36 207.08 217.02 228.64 240.56 252.17999 263.34 274.17999 284.89999 296.12 301.28 312 323.51999 334.23999 345.76001 350.92001 362.44 373.60001 381.95999 393.19601 403.776 413.616 423.73599 435.65601"
         y="26"
         id="tspan188">перевозок продемонстрировал спад погрузки </tspan><tspan
         x="0 6.3800001 17.02 28.219999 32.959999 44.16 45 59.82 66.199997 70.959999 76.120003 88.68 99.839996 110.56 120.5 125.66 137.17999 147.89999 159.52 169.64 180.36 185.52 197.44 208.16 213.32001 224.03999 234.96001 244.89999 256.82001 261.98001 272.82001 277.98001 288.22 298.94 310.16 321.32001 332.16 344.07999 354.45999 364.82001"
         y="52"
         id="tspan190">(–2,2 %). Рост парка на сети в условиях </tspan><tspan
         x="0 11.52 22.24 34.16 45.68 56.599998 69.879997 81.800003 93.720001 98.879997 108.82 119.778 130.998 140.51801 150.138 161.298 166.45799 177.03799 187.39799 197.978 209.498 224.87801 236.798 248.01801 253.17799 264.09799 272.216 283.37601 288.53601 299.25601 310.41599 321.13599 331.07599 342.23599 352.616 364.53601 376.45599 387.37601"
         y="78"
         id="tspan192">пандемии только ухудшил его состояние </tspan><tspan
         x="0 11.52 22.68 27.84 38.560001 50.18 60.900002 71.739998 83.660004 94.580002 106.5 118.42 133.67999 138.84 149.56 154.72 165.92 178.24001 186.2 197.64 202.8 210.918 222.078 233.59801 244.758 258.03799 262.798 267.95801 278.436 291.716 302.63599 314.556 324.07599 339.45599 350.37601 362.29599 374.216 385.13599"
         y="104"
         id="tspan194">по сравнению с 2019 годом. Уменьшение </tspan><tspan
         x="0 11.62 24.799999 36.720001 47.880001 58.419998 70.339996 83.519997 93.879997 99.040001 109.76 119.7 130.42 141.25999 152.42 162.53999 167.7 179.62 190.34 195.5 207.02 218.17999 229.7 240.53999 252.46001 267.44 279.35999 290.51999 302.44 307.60001 318.32001 329.48001 340.20001 350.14001 360.85999 371.70001 376.44"
         y="130"
         id="tspan196">рыночных ставок на подвижной состав, </tspan><tspan
         x="0 11.16 21.879999 33.040001 44.380001 55.299999 67.220001 79.139999 90.300003 95.459999 106.98 117.938 129.158 139.73801 150.578 161.298 169.418 180.578 192.498 205.67799 210.418 215.578 225.51801 236.23801 246.358 261.33801 272.258 277.418 288.138 298.71799 314.61801 325.53799 336.258 346.198 357.03799 367.95801 379.87799 391.798 402.95801"
         y="156"
         id="tspan198">особенно полувагоны, также существенно </tspan><tspan
         x="0 11.52 22.68 33.52 44.740002 56.66 67.040001 78.260002 89.419998 94.580002 106.5 117.22 122.38 135.96001 147.88 159.8 170.52 182.44 193.16 204.32001 215.16 228.34 239.25999 244.42 255.94 267.10001 277.22 287.94 297.78 308.5 318.44 329.276 340.496 352.41599"
         y="182"
         id="tspan200">повлияло на финансовые показатели.</tspan><tspan
         x="0 13.06 23.780001 35 45.919998 57.439999 68.160004 78.099998 88.940002 100.86 111.78 116.94 128.86 139.78 151.12 162.34 173.06 181.17799 192.338 203.858 215.478 227.39799 237.778 247.718 259.638 270.798 282.71799 287.87799 297.496 308.65601 320.57599 331.35599 346.616 358.53601 368.65601 378.59601 389.17599 400.79599 413.97601"
         y="221"
         id="tspan202">Вследствие неблагоприятной конъюнктуры </tspan><tspan
         x="0 11.92 22.639999 27.799999 39.419998 52.599998 64.519997 74.139999 85.059998 90.220001 101.74 112.66 124.28 135.2 146.03999 157.2 167.03999 178.2 188.32001 193.06 198.22 208.75999 219.48 230.2 240.14 252.06 262.60001 274.51999 285.67999"
         y="247"
         id="tspan204">на рынке перевозок, частично </tspan><tspan
         x="0 9.6199999 20.780001 34.060001 45.580002 56.5 68.419998 79.139999 91.059998 102.68 113.84 124.68 135.39999 147.32001 159.24001 170.39999 181.32001 186.48 198 208.92 220.84 231.56 241.5 252.34 264.26001 274.64001 287.92001 299.84 305 318.28 329.20001 341.12 352.04001 363.56 378.54001 391.82001 402.73999 414.66 424.60001 435.32001"
         y="273"
         id="tspan206">компенсированное действиями менеджмента </tspan><tspan
         x="0 11.52 22.68 27.84 39.360001 50.52 61.360001 74.540001 89.919998 100.84 112.76 124.68 139.94 145.10001 155.82001 169.39999 182.98 193.89999 204.02 213.96001 225.88 236.72 248.64 259.79999 270.51999 280.45999 292.38 297.54001 309.45999 320.17999 331.70001 342.65601 353.87601 363.396 373.23599 384.396 395.23599 405.95599 417.87601 429.79599 440.17599"
         y="299"
         id="tspan208">по повышению эффективности использования </tspan><tspan
         x="0 11.52 22.68 34.200001 45.040001 56.959999 71.940002 83.860001 95.019997 103.14 114.3 119.46 130.17999 141.34 152.06 162 172.72 183.56 194.28 199.02 204.17999 213.798 224.95799 236.87801 247.59801 258.55801 269.77802 281.698 293.21799 305.138 316.758 327.918 338.758 349.478 361.39801 373.31799 384.03799 394.418"
         y="325"
         id="tspan210">подвижного состава, консолидированная </tspan><tspan
         x="0 10.84 24.02 35.259998 45.84 56.380001 66.5 77.220001 82.379997 96.379997 106.48 118.76 123.92 134.64 145.8 156.52 166.46001 177.17999 188.02 199.94 211.16 221.88 227.03999 239.39999 247.36 252.52 260.48001 272.84 284.04001 289.20001 302.48001 313.70001 325.62"
         y="351"
         id="tspan212">выручка ПГК составила 81 182 млн </tspan><tspan
         x="0 11.24 21.82 33.16 44.380001 55.299999 67.220001 72.379997 78.760002 90.300003 101.94 102.78 117.6 122.76 132.88 138.03999 149.24001 161.56 169.52 180.96001 186.12 192.72 197.48 203.86 208.62 213.78 225.45799 236.618 249.89799 261.418 272.138 284.05801 295.978 306.358 311.51801 321.45801 332.17801 342.298 357.27802 368.198"
         y="377"
         id="tspan214">рублей (–6 % к 2019 г.). Компания также </tspan><tspan
         x="0 11.52 23.139999 34.299999 45.82 56.779999 68 82.980003 94.900002 106.12 116.84 122 132.12 142.7 154.32001 165.03999 170.2 182.12 192.84 198 209.52 220.67999 231.52 244.7 260.07999 271 282.92001 294.84 305.76001 310.92001 321.04001 331.76001 342.29999 353.22 363.94 373.88 384.72 395.44"
         y="403"
         id="tspan216">продолжила курс на повышение качества </tspan><tspan
         x="0 10.24 20.959999 32.18 42.759998 51.119999 56.279999 68.199997 73.360001 84.980003 95.699997 106.42 121.8 133.72 145.34 156.25999 168.17999 180.10001 191.02 196.17999 207.02 216.86 227.58 239.5 252.78 263.94 275.10001 285.04001 296.95999 308.12 323.5 334.42001 346.34 358.26001 370.17999"
         y="429"
         id="tspan218">услуг и расширение взаимоотношений </tspan><tspan
         x="0 10.72 15.88 26 37.220001 52.48 63.02 73.940002 84.779999 97.959999 111.24 123.16 128.32001 138.44 149.66 161.58 172.5 184.42 194.36 205.08 218.36 230.28 235.44 245.56 256.28 266.39999 271.56 282.39999 287.56 299.17999 309.89999 323.17999 333.29999 344.01999 354.38"
         y="455"
         id="tspan220">с ключевыми клиентами как в рамках </tspan><tspan
         x="0 11.52 22.440001 34.360001 45.080002 55.02 65.860001 76.440002 91.699997 107.6 119.52 129.88 135.03999 145.75999 156.67999 168.3 179.14 191.06 201.78 213.7 226.88 237.24001 242.39999 252.01601 263.17599 275.09601 285.03601 296.65601 307.37601 317.496 327.436 338.59601 349.436 354.17599 359.336 369.276 379.996 390.116"
         y="481"
         id="tspan222">действующих сервисных контрактов, так </tspan><tspan
         x="0 11.92 17.08 26.92 37.639999 42.799999 53.52 64.059998 74.980003 84.919998 90.080002 99.919998 110.64 120.76 131.98 147.24001 157.78 168.7 180.62 192.53999 202.92 208.08 220 231.16 242 255.17999 265.54001"
         y="507"
         id="tspan224">и за счет заключения новых.</tspan></text><g
       id="g228"
       transform="translate(99,102)"><path
         d="M 0,0 H 534"
         style="fill:none;stroke:#e8f0ec;stroke-width:4;stroke-linecap:butt;stroke-linejoin:miter;stroke-miterlimit:4;stroke-dasharray:none;stroke-opacity:1"
         id="path230" /></g><text
       transform="matrix(1,0,0,-1,38.0202,1023)"
       style="font-variant:normal;font-weight:300;font-stretch:normal;font-size:20px;font-family:'Rubik Light';-inkscape-font-specification:Rubik-Light;writing-mode:lr-tb;fill:#000000;fill-opacity:1;fill-rule:nonzero;stroke:none"
       id="text234"><tspan
         x="0 11.52"
         y="0"
         id="tspan232">39</tspan></text><g
       id="g236"><g
         id="g238"><g
           id="g240"
           clip-path="url(#clipPath244)"><text
             transform="matrix(1,0,0,-1,99,1023)"
             style="font-variant:normal;font-weight:300;font-stretch:normal;font-size:20px;font-family:'Rubik Light';-inkscape-font-specification:Rubik-Light;writing-mode:lr-tb;fill:#000000;fill-opacity:1;fill-rule:nonzero;stroke:none"
             id="text248"><tspan
               x="0 13.24 18.4 28.02 39.18 52.459999 63.98 74.699997 86.620003 98.540001"
               y="0"
               id="tspan246">О компании</tspan></text></g></g></g></g></svg>
