<?xml version="1.0" encoding="UTF-8" standalone="no"?>
<?xml-stylesheet type="text/css" href="main.css" ?>
<svg
   xmlns:dc="http://purl.org/dc/elements/1.1/"
   xmlns:cc="http://creativecommons.org/ns#"
   xmlns:rdf="http://www.w3.org/1999/02/22-rdf-syntax-ns#"
   xmlns:svg="http://www.w3.org/2000/svg"
   xmlns="http://www.w3.org/2000/svg"
   version="1.1"
   id="svg2"
   xml:space="preserve"
   width="2560"
   height="1440"
   viewBox="0 0 2560 1440"><metadata
     id="metadata8"><rdf:RDF><cc:Work
         rdf:about=""><dc:format>image/svg+xml</dc:format><dc:type
           rdf:resource="http://purl.org/dc/dcmitype/StillImage" /></cc:Work></rdf:RDF></metadata><defs
     id="defs6"><clipPath
       clipPathUnits="userSpaceOnUse"
       id="clipPath20"><path
         d="M 0,1080 H 1920 V 0 H 0 Z"
         id="path18" /></clipPath><clipPath
       clipPathUnits="userSpaceOnUse"
       id="clipPath240"><path
         d="M 0,0 H 1920 V 1080 H 0 Z"
         id="path238" /></clipPath><linearGradient
       x1="0"
       y1="0"
       x2="1"
       y2="0"
       gradientUnits="userSpaceOnUse"
       gradientTransform="matrix(1482.4708,161.04787,161.04787,-1482.4708,97.076172,95.290161)"
       spreadMethod="pad"
       id="linearGradient266"><stop
         style="stop-opacity:1;stop-color:#faaa2d"
         offset="0"
         id="stop262" /><stop
         style="stop-opacity:1;stop-color:#2960a1"
         offset="1"
         id="stop264" /></linearGradient><linearGradient
       x1="0"
       y1="0"
       x2="1"
       y2="0"
       gradientUnits="userSpaceOnUse"
       gradientTransform="matrix(1482.4708,161.04787,161.04787,-1482.4708,97.076145,95.290146)"
       spreadMethod="pad"
       id="linearGradient336"><stop
         style="stop-opacity:1;stop-color:#faaa2d"
         offset="0"
         id="stop332" /><stop
         style="stop-opacity:1;stop-color:#2960a1"
         offset="1"
         id="stop334" /></linearGradient><clipPath
       clipPathUnits="userSpaceOnUse"
       id="clipPath346"><path
         d="M 0,0 H 1920 V 1080 H 0 Z"
         id="path344" /></clipPath><clipPath
       clipPathUnits="userSpaceOnUse"
       id="clipPath368"><path
         d="M 0,1080 H 1920 V 0 H 0 Z"
         id="path366" /></clipPath></defs><g
     id="g10"
     transform="matrix(1.3333333,0,0,-1.3333333,0,1440)"><g
       id="g12"><g
         id="g14"><g
           id="g16"
           clip-path="url(#clipPath20)"><path
             d="M 0,0 H 1920 V 1080 H 0 Z"
             style="fill:#ffffff;fill-opacity:1;fill-rule:nonzero;stroke:none"
             id="path22" /></g></g></g><text
       transform="matrix(1,0,0,-1,831,961.3)"
       style="font-variant:normal;font-weight:500;font-stretch:normal;font-size:20px;font-family:'Rubik Medium';-inkscape-font-specification:Rubik-Medium;writing-mode:lr-tb;fill:#000000;fill-opacity:1;fill-rule:nonzero;stroke:none"
       id="text26"><tspan
         x="0 17.860001 30.34 42.82 54.259998 66.739998 78.18 90.040001 101.74 117.1 128.66 133.22 145.8 157.66 168.96001 180.82001 193.39999 208.75999 213.32001 225.02 229.58 243.66 255.74001 268.22 272.78 284.63599 296.07599 308.03601"
         y="0"
         id="tspan24">Финансовые доходы в млн руб.</tspan></text><g
       id="g28"
       transform="translate(831,919.3407)"><path
         d="M 0,0 H 563"
         style="fill:none;stroke:#e6e7e8;stroke-width:1;stroke-linecap:butt;stroke-linejoin:miter;stroke-miterlimit:10;stroke-dasharray:none;stroke-opacity:1"
         id="path30" /></g><g
       id="g32"
       transform="translate(1394,919.3407)"><path
         d="M 0,0 H 91"
         style="fill:none;stroke:#e6e7e8;stroke-width:1;stroke-linecap:butt;stroke-linejoin:miter;stroke-miterlimit:10;stroke-dasharray:none;stroke-opacity:1"
         id="path34" /></g><g
       id="g36"
       transform="translate(1485,919.3407)"><path
         d="M 0,0 H 173"
         style="fill:none;stroke:#e6e7e8;stroke-width:1;stroke-linecap:butt;stroke-linejoin:miter;stroke-miterlimit:10;stroke-dasharray:none;stroke-opacity:1"
         id="path38" /></g><g
       id="g40"
       transform="translate(1658,919.3407)"><path
         d="M 0,0 H 163"
         style="fill:none;stroke:#e6e7e8;stroke-width:1;stroke-linecap:butt;stroke-linejoin:miter;stroke-miterlimit:10;stroke-dasharray:none;stroke-opacity:1"
         id="path42" /></g><g
       id="g44"
       transform="translate(831,833.9408)"><path
         d="M 0,0 H 563"
         style="fill:none;stroke:#e6e7e8;stroke-width:1;stroke-linecap:butt;stroke-linejoin:miter;stroke-miterlimit:10;stroke-dasharray:none;stroke-opacity:1"
         id="path46" /></g><g
       id="g48"
       transform="translate(1394,833.9408)"><path
         d="M 0,0 H 91"
         style="fill:none;stroke:#e6e7e8;stroke-width:1;stroke-linecap:butt;stroke-linejoin:miter;stroke-miterlimit:10;stroke-dasharray:none;stroke-opacity:1"
         id="path50" /></g><g
       id="g52"
       transform="translate(1485,833.9408)"><path
         d="M 0,0 H 173"
         style="fill:none;stroke:#e6e7e8;stroke-width:1;stroke-linecap:butt;stroke-linejoin:miter;stroke-miterlimit:10;stroke-dasharray:none;stroke-opacity:1"
         id="path54" /></g><g
       id="g56"
       transform="translate(1658,833.9408)"><path
         d="M 0,0 H 163"
         style="fill:none;stroke:#e6e7e8;stroke-width:1;stroke-linecap:butt;stroke-linejoin:miter;stroke-miterlimit:10;stroke-dasharray:none;stroke-opacity:1"
         id="path58" /></g><g
       id="g60"
       transform="translate(831,876.6407)"><path
         d="M 0,0 H 563"
         style="fill:none;stroke:#e6e7e8;stroke-width:1;stroke-linecap:butt;stroke-linejoin:miter;stroke-miterlimit:10;stroke-dasharray:none;stroke-opacity:1"
         id="path62" /></g><g
       id="g64"
       transform="translate(1394,876.6407)"><path
         d="M 0,0 H 91"
         style="fill:none;stroke:#e6e7e8;stroke-width:1;stroke-linecap:butt;stroke-linejoin:miter;stroke-miterlimit:10;stroke-dasharray:none;stroke-opacity:1"
         id="path66" /></g><g
       id="g68"
       transform="translate(1485,876.6407)"><path
         d="M 0,0 H 173"
         style="fill:none;stroke:#e6e7e8;stroke-width:1;stroke-linecap:butt;stroke-linejoin:miter;stroke-miterlimit:10;stroke-dasharray:none;stroke-opacity:1"
         id="path70" /></g><g
       id="g72"
       transform="translate(1658,876.6407)"><path
         d="M 0,0 H 163"
         style="fill:none;stroke:#e6e7e8;stroke-width:1;stroke-linecap:butt;stroke-linejoin:miter;stroke-miterlimit:10;stroke-dasharray:none;stroke-opacity:1"
         id="path74" /></g><text
       transform="matrix(1,0,0,-1,1435.8665,931.3407)"
       style="font-variant:normal;font-weight:500;font-stretch:normal;font-size:19.2079px;font-family:'Rubik Medium';-inkscape-font-specification:Rubik-Medium;writing-mode:lr-tb;fill:#000000;fill-opacity:1;fill-rule:nonzero;stroke:none"
       id="text78"><tspan
         x="0 11.908898 24.566904 36.475803"
         y="0"
         id="tspan76">2020</tspan></text><text
       transform="matrix(1,0,0,-1,1612.656,931.3407)"
       style="font-variant:normal;font-weight:500;font-stretch:normal;font-size:19.2079px;font-family:'Rubik Medium';-inkscape-font-specification:Rubik-Medium;writing-mode:lr-tb;fill:#000000;fill-opacity:1;fill-rule:nonzero;stroke:none"
       id="text82"><tspan
         x="0 11.908898 24.566904 33.47937 164.74615 179.36337 189.6588 203.18117"
         y="0"
         id="tspan80">2019Изм.</tspan></text><text
       transform="matrix(1,0,0,-1,831,888.6407)"
       style="font-variant:normal;font-weight:300;font-stretch:normal;font-size:20px;font-family:'Rubik Light';-inkscape-font-specification:Rubik-Light;writing-mode:lr-tb;fill:#000000;fill-opacity:1;fill-rule:nonzero;stroke:none"
       id="text86"><tspan
         x="0 14 25.620001 36.779999 48.799999 59.720001 71.639999 81.580002 94.760002 99.919998 111.44 122.6 127.76 139.28 150.2 161.72 172.88 182.72 194.64 204.58 215.3"
         y="0"
         id="tspan84">Проценты по депозитам</tspan></text><text
       transform="matrix(1,0,0,-1,1449.8691,889.3813)"
       style="font-variant:normal;font-weight:300;font-stretch:normal;font-size:19.2079px;font-family:'Rubik Light';-inkscape-font-specification:Rubik-Light;writing-mode:lr-tb;fill:#000000;fill-opacity:1;fill-rule:nonzero;stroke:none"
       id="text90"><tspan
         x="0 11.870482 23.299183 164.18913 171.83388 176.78951 188.62158 200.49207 326.89926 335.38913 346.14557 356.90198"
         y="0"
         id="tspan88">8401 081-22%</tspan></text><text
       transform="matrix(1,0,0,-1,831,845.9408)"
       style="font-variant:normal;font-weight:300;font-stretch:normal;font-size:20px;font-family:'Rubik Light';-inkscape-font-specification:Rubik-Light;writing-mode:lr-tb;fill:#000000;fill-opacity:1;fill-rule:nonzero;stroke:none"
       id="text94"><tspan
         x="0 14 25.620001 36.779999 47.32 59.240002 70.160004 75.32 88.900002 100.82 112.74 123.46 135.38 146.10001 157.25999 168.10001 181.28 192.2 197.36 208.88 220.03999 230.39999 241.56 253.08"
         y="0"
         id="tspan92">Прочие финансовые доходы</tspan></text><text
       transform="matrix(1,0,0,-1,1455.6122,846.6814)"
       style="font-variant:normal;font-weight:300;font-stretch:normal;font-size:19.2079px;font-family:'Rubik Light';-inkscape-font-specification:Rubik-Light;writing-mode:lr-tb;fill:#000000;fill-opacity:1;fill-rule:nonzero;stroke:none"
       id="text98"><tspan
         x="0 7.6447444 18.401169 177.74991 185.39465 194.7489 320.9256 329.4155 340.17191 351.15881"
         y="0"
         id="tspan96">129171-25%</tspan></text><text
       transform="matrix(1,0,0,-1,831,803.2408)"
       style="font-variant:normal;font-weight:500;font-stretch:normal;font-size:20px;font-family:'Rubik Medium';-inkscape-font-specification:Rubik-Medium;writing-mode:lr-tb;fill:#000000;fill-opacity:1;fill-rule:nonzero;stroke:none"
       id="text102"><tspan
         x="0 15.22 25.84 37.700001 46.439999"
         y="0"
         id="tspan100">Итого</tspan></text><text
       transform="matrix(1,0,0,-1,1449.3311,803.9814)"
       style="font-variant:normal;font-weight:500;font-stretch:normal;font-size:19.2079px;font-family:'Rubik Medium';-inkscape-font-specification:Rubik-Medium;writing-mode:lr-tb;fill:#000000;fill-opacity:1;fill-rule:nonzero;stroke:none"
       id="text106"><tspan
         x="0 11.736027 23.798588 159.63686 168.54932 172.92873 184.83762 196.76573 323.97964 332.56558 344.47449 356.59467"
         y="0"
         id="tspan104">9691 252-23%</tspan></text><text
       transform="matrix(1,0,0,-1,831,713.3)"
       style="font-variant:normal;font-weight:500;font-stretch:normal;font-size:20px;font-family:'Rubik Medium';-inkscape-font-specification:Rubik-Medium;writing-mode:lr-tb;fill:#000000;fill-opacity:1;fill-rule:nonzero;stroke:none"
       id="text110"><tspan
         x="0 17.860001 30.34 42.82 54.259998 66.739998 78.18 90.040001 101.74 117.1 128.66 133.22 145.5 156.94 168.38 179.67999 191.53999 204.12 219.48 224.03999 235.74001 240.3 254.38 266.45999 278.94 283.5 295.35599 306.79599 318.75601"
         y="0"
         id="tspan108">Финансовые расходы в млн руб.</tspan></text><g
       id="g112"
       transform="translate(831,627.9001)"><path
         d="M 0,0 H 563"
         style="fill:none;stroke:#e6e7e8;stroke-width:1;stroke-linecap:butt;stroke-linejoin:miter;stroke-miterlimit:10;stroke-dasharray:none;stroke-opacity:1"
         id="path114" /></g><g
       id="g116"
       transform="translate(1394,627.9001)"><path
         d="M 0,0 H 91"
         style="fill:none;stroke:#e6e7e8;stroke-width:1;stroke-linecap:butt;stroke-linejoin:miter;stroke-miterlimit:10;stroke-dasharray:none;stroke-opacity:1"
         id="path118" /></g><g
       id="g120"
       transform="translate(1485,627.9001)"><path
         d="M 0,0 H 173"
         style="fill:none;stroke:#e6e7e8;stroke-width:1;stroke-linecap:butt;stroke-linejoin:miter;stroke-miterlimit:10;stroke-dasharray:none;stroke-opacity:1"
         id="path122" /></g><g
       id="g124"
       transform="translate(1658,627.9001)"><path
         d="M 0,0 H 163"
         style="fill:none;stroke:#e6e7e8;stroke-width:1;stroke-linecap:butt;stroke-linejoin:miter;stroke-miterlimit:10;stroke-dasharray:none;stroke-opacity:1"
         id="path126" /></g><g
       id="g128"
       transform="translate(831,559.2002)"><path
         d="M 0,0 H 563"
         style="fill:none;stroke:#e6e7e8;stroke-width:1;stroke-linecap:butt;stroke-linejoin:miter;stroke-miterlimit:10;stroke-dasharray:none;stroke-opacity:1"
         id="path130" /></g><g
       id="g132"
       transform="translate(1394,559.2002)"><path
         d="M 0,0 H 91"
         style="fill:none;stroke:#e6e7e8;stroke-width:1;stroke-linecap:butt;stroke-linejoin:miter;stroke-miterlimit:10;stroke-dasharray:none;stroke-opacity:1"
         id="path134" /></g><g
       id="g136"
       transform="translate(1485,559.2002)"><path
         d="M 0,0 H 173"
         style="fill:none;stroke:#e6e7e8;stroke-width:1;stroke-linecap:butt;stroke-linejoin:miter;stroke-miterlimit:10;stroke-dasharray:none;stroke-opacity:1"
         id="path138" /></g><g
       id="g140"
       transform="translate(1658,559.2002)"><path
         d="M 0,0 H 163"
         style="fill:none;stroke:#e6e7e8;stroke-width:1;stroke-linecap:butt;stroke-linejoin:miter;stroke-miterlimit:10;stroke-dasharray:none;stroke-opacity:1"
         id="path142" /></g><g
       id="g144"
       transform="translate(831,516.5002)"><path
         d="M 0,0 H 563"
         style="fill:none;stroke:#e6e7e8;stroke-width:1;stroke-linecap:butt;stroke-linejoin:miter;stroke-miterlimit:10;stroke-dasharray:none;stroke-opacity:1"
         id="path146" /></g><g
       id="g148"
       transform="translate(1394,516.5002)"><path
         d="M 0,0 H 91"
         style="fill:none;stroke:#e6e7e8;stroke-width:1;stroke-linecap:butt;stroke-linejoin:miter;stroke-miterlimit:10;stroke-dasharray:none;stroke-opacity:1"
         id="path150" /></g><g
       id="g152"
       transform="translate(1485,516.5002)"><path
         d="M 0,0 H 173"
         style="fill:none;stroke:#e6e7e8;stroke-width:1;stroke-linecap:butt;stroke-linejoin:miter;stroke-miterlimit:10;stroke-dasharray:none;stroke-opacity:1"
         id="path154" /></g><g
       id="g156"
       transform="translate(1658,516.5002)"><path
         d="M 0,0 H 163"
         style="fill:none;stroke:#e6e7e8;stroke-width:1;stroke-linecap:butt;stroke-linejoin:miter;stroke-miterlimit:10;stroke-dasharray:none;stroke-opacity:1"
         id="path158" /></g><g
       id="g160"
       transform="translate(831,670.6001)"><path
         d="M 0,0 H 563"
         style="fill:none;stroke:#e6e7e8;stroke-width:1;stroke-linecap:butt;stroke-linejoin:miter;stroke-miterlimit:10;stroke-dasharray:none;stroke-opacity:1"
         id="path162" /></g><g
       id="g164"
       transform="translate(1394,670.6001)"><path
         d="M 0,0 H 91"
         style="fill:none;stroke:#e6e7e8;stroke-width:1;stroke-linecap:butt;stroke-linejoin:miter;stroke-miterlimit:10;stroke-dasharray:none;stroke-opacity:1"
         id="path166" /></g><g
       id="g168"
       transform="translate(1485,670.6001)"><path
         d="M 0,0 H 173"
         style="fill:none;stroke:#e6e7e8;stroke-width:1;stroke-linecap:butt;stroke-linejoin:miter;stroke-miterlimit:10;stroke-dasharray:none;stroke-opacity:1"
         id="path170" /></g><g
       id="g172"
       transform="translate(1658,670.6001)"><path
         d="M 0,0 H 163"
         style="fill:none;stroke:#e6e7e8;stroke-width:1;stroke-linecap:butt;stroke-linejoin:miter;stroke-miterlimit:10;stroke-dasharray:none;stroke-opacity:1"
         id="path174" /></g><g
       id="g176"
       transform="translate(831,473.8003)"><path
         d="M 0,0 H 563"
         style="fill:none;stroke:#e6e7e8;stroke-width:1;stroke-linecap:butt;stroke-linejoin:miter;stroke-miterlimit:10;stroke-dasharray:none;stroke-opacity:1"
         id="path178" /></g><g
       id="g180"
       transform="translate(1394,473.8003)"><path
         d="M 0,0 H 91"
         style="fill:none;stroke:#e6e7e8;stroke-width:1;stroke-linecap:butt;stroke-linejoin:miter;stroke-miterlimit:10;stroke-dasharray:none;stroke-opacity:1"
         id="path182" /></g><g
       id="g184"
       transform="translate(1485,473.8003)"><path
         d="M 0,0 H 173"
         style="fill:none;stroke:#e6e7e8;stroke-width:1;stroke-linecap:butt;stroke-linejoin:miter;stroke-miterlimit:10;stroke-dasharray:none;stroke-opacity:1"
         id="path186" /></g><g
       id="g188"
       transform="translate(1658,473.8003)"><path
         d="M 0,0 H 163"
         style="fill:none;stroke:#e6e7e8;stroke-width:1;stroke-linecap:butt;stroke-linejoin:miter;stroke-miterlimit:10;stroke-dasharray:none;stroke-opacity:1"
         id="path190" /></g><text
       transform="matrix(1,0,0,-1,1433.8403,682.6001)"
       style="font-variant:normal;font-weight:500;font-stretch:normal;font-size:20px;font-family:'Rubik Medium';-inkscape-font-specification:Rubik-Medium;writing-mode:lr-tb;fill:#000000;fill-opacity:1;fill-rule:nonzero;stroke:none"
       id="text194"><tspan
         x="0 12.4 25.58 37.98"
         y="0"
         id="tspan192">2020</tspan></text><text
       transform="matrix(1,0,0,-1,1610.7803,682.6001)"
       style="font-variant:normal;font-weight:500;font-stretch:normal;font-size:20px;font-family:'Rubik Medium';-inkscape-font-specification:Rubik-Medium;writing-mode:lr-tb;fill:#000000;fill-opacity:1;fill-rule:nonzero;stroke:none"
       id="text198"><tspan
         x="0 12.4 25.58 34.860001 164.82001 180.03999 190.75999 204.84"
         y="0"
         id="tspan196">2019Изм.</tspan></text><text
       transform="matrix(1,0,0,-1,831.0003,639.9001)"
       style="font-variant:normal;font-weight:300;font-stretch:normal;font-size:20px;font-family:'Rubik Light';-inkscape-font-specification:Rubik-Light;writing-mode:lr-tb;fill:#000000;fill-opacity:1;fill-rule:nonzero;stroke:none"
       id="text212"><tspan
         x="0 14 25.620001 36.779999 48.799999 59.720001 71.639999 81.580002 93.5 106.68 117.6 122.76 134.38 145.10001 155.82001 166.17999 177.34 188.86 202.03999 207.2 218.72 229.88 235.03999 246.38 257.10001 269.01999 278.638 289.798 300.638 311.358 321.478 333.39801 346.67801 351.83801 361.95801 373.578 384.49799 396.01801 407.93799 417.87799 428.59799 613.91998 619.08002 630.71997 642.35999 772.44 777.59998 785.56 790.71997 803.03998 815.35999 942.53998 951.76001 963.28003 975.17999"
         y="0"
         id="tspan200">Процентные расходы по банковским кредитам 666 1 006-34%</tspan><tspan
         x="0 14 25.620001 36.779999 48.799999 59.720001 71.639999 81.580002 93.5 106.68 117.6 122.76 134.38 145.10001 155.82001 166.17999 177.34 188.86 202.03999 207.2 218.72 229.88 235.03999 246.2 257.54001 267.92001 277.76001 288.48001 298.42001 309.25601 320.47601 329.996 340.716 350.65601 361.496 372.216 385.496"
         y="42.700001"
         id="tspan202">Процентные расходы по обязательствам </tspan><tspan
         x="0 13.58 25.5 37.419998 48.139999 60.060001 70.779999 81.940002 92.779999 103.94 112.058 123.218 128.37801 139.59801 151.51801 161.358 173.278 185.198 193.558"
         y="68.699997"
         id="tspan204">финансового лизинга</tspan><tspan
         x="606.35999 614.32001 619.47998 630.91998 642.35999 779.52002 787.47998 792.64001 804.28003 815.47998 953.53998 963.28003 975.17999"
         y="42.700001"
         id="tspan206">1 5561 623-4%</tspan><tspan
         x="0 14 25.620001 36.779999 48.799999 59.720001 71.639999 81.580002 93.5 106.68 117.6 122.76 134.38 145.10001 155.82001 166.17999 177.34 188.86 202.03999 207.2 218.72 229.88 235.03999 246.2 257.54001 268.76001 280.67999 289.04001 299.76001 311.78 323.70001 334.07999 641.67999 787.41998 792.58002 804.94 817.26001 933.65997 942.58002 950.53998 962.85999 975.17999"
         y="111.4"
         id="tspan208">Процентные расходы по облигациям0 807-100%</tspan><tspan
         x="0 14 25.620001 36.779999 47.32 59.240002 70.160004 75.32 88.900002 100.82 112.74 123.46 135.38 146.10001 157.25999 168.10001 181.28 192.2 197.36 208.98 219.7 230.42 240.78 251.94 263.45999 633.71997 641.67999 814.67999 942.58002 950.53998 962.85999 975.17999"
         y="154.10001"
         id="tspan210">Прочие финансовые расходы100100%</tspan></text><text
       transform="matrix(1,0,0,-1,831.0003,443.1001)"
       style="font-variant:normal;font-weight:500;font-stretch:normal;font-size:20px;font-family:'Rubik Medium';-inkscape-font-specification:Rubik-Medium;writing-mode:lr-tb;fill:#000000;fill-opacity:1;fill-rule:nonzero;stroke:none"
       id="text216"><tspan
         x="0 15.22 25.84 37.700001 46.439999"
         y="0"
         id="tspan214">Итого</tspan></text><text
       transform="matrix(1,0,0,-1,1430.8403,443.1001)"
       style="font-variant:normal;font-weight:500;font-stretch:normal;font-size:20px;font-family:'Rubik Medium';-inkscape-font-specification:Rubik-Medium;writing-mode:lr-tb;fill:#000000;fill-opacity:1;fill-rule:nonzero;stroke:none"
       id="text220"><tspan
         x="0 12.4 16.959999 29.360001 41.759998"
         y="0"
         id="tspan218">2 222</tspan></text><text
       transform="matrix(1,0,0,-1,1602.5803,443.1001)"
       style="font-variant:normal;font-weight:500;font-stretch:normal;font-size:20px;font-family:'Rubik Medium';-inkscape-font-specification:Rubik-Medium;writing-mode:lr-tb;fill:#000000;fill-opacity:1;fill-rule:nonzero;stroke:none"
       id="text232"><tspan
         x="0 12.62 17.18 30.24 42.860001 168.38 177.67999 190.3 202.72"
         y="0"
         id="tspan222">3 436-35%</tspan><tspan
         x="25.42 39.119999 51.599998 64.080002 81.260002 92.82 105.3 117.78 129.34 133.89999 146.48 158.34 169.64 181.5 194.08 205.94 217.64"
         y="264.56"
         id="tspan224">Снижение доходов </tspan><tspan
         x="25.42 37.279999 47.900002 52.459999 67.739998 80.220001 92.699997 104.14 116.62 128.06 139.92 151.62 163.48 175.96001"
         y="290.56"
         id="tspan226">от финансовой </tspan><tspan
         x="25.42 38 49.560001 61.080002 71.699997 83.160004 95.239998 105.86 118.34 130.2 141.64 152.25999 164.74001"
         y="316.56"
         id="tspan228">деятельности </tspan><tspan
         x="25.42 37.119999 41.68 54.080002 67.260002 79.660004 92.839996 97.400002 106.14 118 130.58"
         y="342.56"
         id="tspan230">в 2020 году</tspan></text><g
       id="g234"><g
         id="g236"
         clip-path="url(#clipPath240)"><g
           id="g242"
           transform="translate(1781,256)"><path
             d="m 0,0 h -138 c -11.046,0 -20,-8.954 -20,-20 0,-11.046 8.954,-20 20,-20 H 0 c 11.046,0 20,8.954 20,20 C 20,-8.954 11.046,0 0,0"
             style="fill:#e8e8ed;fill-opacity:1;fill-rule:nonzero;stroke:none"
             id="path244" /></g></g></g><text
       transform="matrix(1,0,0,-1,1643.986,228.62)"
       style="font-variant:normal;font-weight:500;font-stretch:normal;font-size:28px;font-family:'Rubik Medium';-inkscape-font-specification:Rubik-Medium;writing-mode:lr-tb;fill:#000000;fill-opacity:1;fill-rule:nonzero;stroke:none"
       id="text248"><tspan
         x="0 17.136 34.327999 50.931999 68.739998 84.924004 102.396 117.264"
         y="0"
         id="tspan246">процента</tspan></text><g
       id="g250"><g
         id="g252"><g
           id="g258"><g
             id="g260"><path
               d="m 1455.277,250.903 c -11.268,-4.073 -21.043,-9.671 -29.33,-16.791 v 0 l 9.813,-13.085 c 8.286,7.121 16.9,12.175 25.841,15.156 v 0 c 8.941,2.978 18.863,4.471 29.766,4.471 v 0 c 11.483,0 20.352,-2.437 26.604,-7.306 v 0 c 6.249,-4.872 9.377,-11.159 9.377,-18.863 v 0 c 0,-18.9 -10.542,-28.349 -31.62,-28.349 v 0 h -40.342 v -16.355 h 44.703 c 11.484,0 19.988,-2.364 25.515,-7.087 v 0 c 5.523,-4.726 8.286,-11.448 8.286,-20.171 v 0 c 0,-8.723 -3.455,-15.994 -10.358,-21.807 v 0 c -6.907,-5.816 -17.99,-8.723 -33.255,-8.723 v 0 c -10.904,0 -21.01,1.708 -30.311,5.125 v 0 c -9.306,3.415 -18.1,8.975 -26.387,16.682 v 0 l -10.903,-13.084 c 8.286,-7.707 18.426,-13.813 30.42,-18.318 v 0 c 11.994,-4.504 25.112,-6.759 39.361,-6.759 v 0 c 13.085,0 24.349,1.165 33.801,3.489 v 0 c 9.448,2.324 17.261,5.485 23.442,9.486 v 0 c 6.178,3.997 10.719,8.723 13.63,14.174 v 0 c 2.906,5.452 4.36,11.302 4.36,17.554 v 0 c 0,10.467 -3.09,18.935 -9.267,25.406 v 0 c -6.181,6.466 -14.72,11.083 -25.623,13.846 v 0 c 9.885,3.343 17.081,8.032 21.588,14.066 v 0 c 4.505,6.031 6.76,13.701 6.76,23.006 v 0 c 0,5.67 -1.417,10.975 -4.252,15.919 v 0 c -2.834,4.94 -7.087,9.231 -12.757,12.866 v 0 c -5.669,3.632 -12.722,6.467 -21.152,8.505 v 0 c -8.434,2.034 -18.246,3.052 -29.44,3.052 v 0 c -14.249,0 -27.005,-2.037 -38.27,-6.105 m -152.601,0 c -11.268,-4.073 -21.044,-9.671 -29.33,-16.791 v 0 l 9.814,-13.085 c 8.286,7.121 16.9,12.175 25.84,15.156 v 0 c 8.941,2.978 18.863,4.471 29.766,4.471 v 0 c 12.066,0 21.078,-2.764 27.041,-8.287 v 0 c 5.959,-5.527 8.94,-12.941 8.94,-22.243 v 0 c 0,-7.125 -2.072,-13.411 -6.214,-18.863 v 0 c -4.144,-5.452 -8.979,-10.069 -14.502,-13.847 v 0 l -78.504,-59.969 V 100 h 135.201 v 16.355 h -91.588 l 55.607,42.523 c 4.362,3.342 8.576,6.76 12.648,10.249 v 0 c 4.069,3.489 7.667,7.34 10.795,11.558 v 0 c 3.124,4.215 5.632,8.904 7.523,14.065 v 0 c 1.888,5.159 2.835,11.012 2.835,17.555 v 0 c 0,6.542 -1.384,12.538 -4.143,17.991 v 0 c -2.764,5.451 -6.944,10.173 -12.539,14.174 v 0 c -5.599,3.997 -12.614,7.086 -21.044,9.267 v 0 c -8.433,2.181 -18.392,3.271 -29.875,3.271 v 0 c -14.249,0 -27.006,-2.037 -38.271,-6.105 m -126.259,-89.844 h 100.31 v 19.626 h -100.31 z"
               style="fill:url(#linearGradient266);stroke:none"
               id="path268" /></g></g></g></g><text
       transform="matrix(1,0,0,-1,99,953.8201)"
       style="font-variant:normal;font-weight:500;font-stretch:normal;font-size:28px;font-family:'Rubik Medium';-inkscape-font-specification:Rubik-Medium;writing-mode:lr-tb;fill:#000000;fill-opacity:1;fill-rule:nonzero;stroke:none"
       id="text272"><tspan
         x="0 19.431999 36.903999 52.919998 69.832001 87.304001 102.312 108.696 130.088 147.56 165.032 181.048 198.52 214.536 231.14 247.52 269.02399 284.84399 291.228 308.84 325.444 341.26401 357.86801 375.48001 392.08401 408.46399"
         y="0"
         id="tspan270">Анализ финансовых доходов </tspan></text><text
       transform="matrix(1,0,0,-1,99,919.8281)"
       style="font-variant:normal;font-weight:500;font-stretch:normal;font-size:28px;font-family:'Rubik Medium';-inkscape-font-specification:Rubik-Medium;writing-mode:lr-tb;fill:#000000;fill-opacity:1;fill-rule:nonzero;stroke:none"
       id="text276"><tspan
         x="0 17.472 23.856001 41.048 57.063999 73.080002 88.900002 105.504 123.116 139.72"
         y="0"
         id="tspan274">и расходов</tspan></text><text
       transform="matrix(1,0,0,-1,99,867.8201)"
       style="font-variant:normal;font-weight:300;font-stretch:normal;font-size:20px;font-family:'Rubik Light';-inkscape-font-specification:Rubik-Light;writing-mode:lr-tb;fill:#000000;fill-opacity:1;fill-rule:nonzero;stroke:none"
       id="text312"><tspan
         x="0 13.52 24.68 35.040001 46.200001 57.720001 70.900002 76.059998 87.220001 97.160004 102.32 115.9 127.82 139.74001 150.46001 162.38 173.10001 184.25999 195.10001 206.25999 218.17999 223.34 234.86 245.78 256.16 266.10001 276.936 288.15601 297.67599 309.59601 320.75601 331.47601 341.41599 353.336"
         y="0"
         id="tspan278">Доходы от финансовой деятельности </tspan><tspan
         x="0 10.84 16 27.200001 39.52 50.720001 63.040001 68.199997 76.32 87.480003 99 109.58 114.74 125.46 136.62 147.34 157.28 168 178.84 190.75999 201.98 213.89999 219.06 230.258 241.89799 253.338 258.49799 271.77802 282.99799 294.918 300.078 311.31601 321.896 333.23599 344.45599 355.37601 367.29599"
         y="26"
         id="tspan280">в 2020 году составили 969 млн рублей </tspan><tspan
         x="0 11.92 17.08 28.6 40.220001 51.139999 62.66 73.379997 83.32 94.040001 104.88 116.1 126.48 141.74001 151.67999 156.84 167.56 178.72 190.06 201.22 213.14 218.3 229.82001 241.44 252.60001 264.62 275.54001 287.45999 297.39999 309.32001 322.5 333.42001 338.57999 350.10001 361.26001 371.62 382.78 394.29999 407.48001"
         y="52"
         id="tspan282">и представляют собой процентные доходы </tspan><tspan
         x="0 11.16 21.1 26.26 37.880001 48.599998 58.439999 71.720001 82.639999 98.540001 109.46 121.38 133.3 143.67999 148.84 159.67999 171.3 182.22 195.5 206.42 218.34 230.25999 241.42 246.58 257.29999 268.14001 279.29999 290.64001 301.79999 313.32001 325.23999 338.42001 348.78 353.94 365.45999 376.38 388.29999 399.22 414.20001 426.12 439.29999 449.66"
         y="78"
         id="tspan284">от размещения временно свободных денежных </tspan><tspan
         x="0 10.72 22.34 33.259998 44.779999 55.5 65.440002 76.279999 81.440002 93.360001 104.08 109.24 120.76 131.67999 143.2 154.36 164.2 176.12 186.06 196.78 207.14 212.3 224.22 229.38 240.89999 252.52 263.67999 274.22 286.14001 297.06 302.22 315.79999 327.72 339.64001 350.35999 362.28 373 384.16 395 408.17999 419.10001"
         y="104"
         id="tspan286">средств на депозитах и прочие финансовые </tspan><tspan
         x="0 11.52 22.68 33.040001 44.200001 55.720001 68.900002 73.660004 78.82 91.839996 103.76 115.68 130.66 141.58 153.5 165.42 176.34 181.5 193.02 204.64 215.8 227.82001 238.74001 250.66 260.60001 272.51999 285.70001 296.06 301.22 312.73999 323.89999 334.26001 345.42001 356.94 368.10001 378.94"
         y="130"
         id="tspan288">доходы. Снижение процентных доходов </tspan><tspan
         x="0 11.52 22.68 27.84 38.560001 50.18 60.900002 71.739998 83.660004 94.580002 106.5 118.42 133.67999 138.84 149.56 154.72 165.92 178.24001 186.2 197.64 202.8 210.918 222.078 233.59801 244.758 258.03799 263.198 269.578 280.216 291.41599 302.616 303.44 318.26001 324.64001 329.79999 340.64001 345.79999 356.95999 367.67999 379.60001 390.76001 401.60001 413.51999 424.67999 437.95999"
         y="156"
         id="tspan290">по сравнению с 2019 годом (–22 %) в основном </tspan><tspan
         x="0 10.72 21.559999 31.940001 41.779999 52.5 64.419998 75.580002 80.739998 91.459999 102.62 107.78 118.5 130.42 142.34 157.32001 168.24001 180.16 192.08 203 216.28 221.44 233.06 246.24001 258.16 269.32001 279.85999 291.78 304.95999 315.32001 320.48001 331.20001 341.14001 351.85999 362.70001 373.85999 383.98001"
         y="182"
         id="tspan292">связано со снижением рыночных ставок </tspan><tspan
         x="0 11.62 22.34 32.18 45.459999 56.380001 72.279999 83.199997 95.120003 107.04 117.42"
         y="208"
         id="tspan294">размещения.</tspan><tspan
         x="0 16.5 28.42 40.34 51.060001 62.98 73.699997 84.860001 95.699997 108.88 119.8 124.96 136.58 147.3 158.02 168.38 179.53999 191.06 204.24001 209.39999 223.39999 233.5 245.78 250.94 260.78 271.5 276.66 284.62 295.82001 300.98001 314.26001 325.17999 335.89999 346.28 358.29999 369.22 380.06"
         y="247"
         id="tspan296">Финансовые расходы ПГК за 12 месяцев </tspan><tspan
         x="0 11.2 23.52 34.720001 47.040001 52.200001 60.32 71.480003 83 93.720001 98.879997 109.6 120.76 131.48 141.42 152.14 162.98 174.89999 186.12 198.03999 203.2 214.39999 219.56 230.75999 241.96001 253.16 258.32001 271.60001 282.82001 294.73999 299.89999 311.138 321.71799 333.05801 344.27802 355.198 367.11801"
         y="273"
         id="tspan298">2020 года составили 2 222 млн рублей </tspan><tspan
         x="0 11.92 17.08 27.799999 38.959999 49.68 59.619999 70.779999 81.160004 92.379997 104.3 109.46 121.38 131.22 136.38 148 158.72 169.44 179.8 190.96001 202.48 213.64 224.48 229.64 241.16 252.32001 257.48001 268.82001 279.54001 291.45999 301.07599 312.23599 323.07599 333.79599 343.91599 355.836 369.116 374.276 384.396 396.01599 406.936 418.45599 430.37601 440.31601 451.03601 464.31601"
         y="299"
         id="tspan300">и состояли из расходов по банковским кредитам </tspan><tspan
         x="0 11.92 17.08 28.24 39.580002 49.959999 59.799999 70.519997 80.459999 91.297997 102.518 112.038 122.758 132.698 143.53799 154.258 167.53799 172.698 184.218 195.37801 200.53799 214.118 226.03799 237.95799 248.67799 260.59799 271.31799 282.478 293.31799 304.478 317.758 328.33801 333.49799 344.71799 356.638 366.478 378.39801 390.31799 398.67801 408.05399 412.814"
         y="325"
         id="tspan302">и обязательствам по финансовому лизингу. </tspan><tspan
         x="0 13.02 24.940001 36.860001 51.84 62.759998 74.68 86.599998 97.519997 102.68 114.3 125.02 135.74001 146.10001 157.25999 168.78 179.94 190.78 195.94 207.46001 218.62 223.78 234.5 246.12 256.84 267.67999 279.60001 290.51999 302.44 314.35999 329.62 334.78 345.5 350.66 361.85999 374.17999 382.14001 393.57999 398.73999 406.85599 418.01599 429.53601 440.69601 453.97601"
         y="351"
         id="tspan304">Снижение расходов по сравнению с 2019 годом </tspan><tspan
         x="0 11.92 22.639999 27.799999 39.32 50.759998 51.599998 66.419998 71.580002 82.739998 94.080002 104.32 115.04 126.26 137.42 148.25999 159.48 170.39999 182.32001 193.48 198.64 209.22 222.5 233.42 245.34 254.86 270.23999 281.16 293.07999 305 315.92001 329.20001 334.35999 345.07999 355.66 368.94 382.22 395.39999"
         y="377"
         id="tspan306">на 35 % обусловлено уменьшением суммы </tspan><tspan
         x="0 11.16 21.879999 33.799999 44.959999 55.799999 67.720001 78.879997 87 98.160004 103.32 114.84 125.8 137.02 145.38 156.10001 161.25999 172.78 183.94 189.10001 200.44 211.16 223.08 232.698 243.858 254.698 265.418 275.53799 287.45801 300.73801 305.89801 316.01801 327.638 338.55801 350.078 361.99799 371.93799 382.65799 395.93799"
         y="403"
         id="tspan308">основного долга по банковским кредитам </tspan><tspan
         x="0 11.92 17.08 28.6 39.759998 48.119999 58.84 74.220001 85.139999 97.059998 108.98 119.9 133.17999 138.34 149.5 160.84 172.06 183.98 192.34 203.06 215.08 227 238.92"
         y="429"
         id="tspan310">и погашением облигаций.</tspan></text><text
       transform="matrix(1,0,0,-1,629,126.5401)"
       style="font-variant:normal;font-weight:500;font-stretch:normal;font-size:20px;font-family:'Rubik Medium';-inkscape-font-specification:Rubik-Medium;writing-mode:lr-tb;fill:#000000;fill-opacity:1;fill-rule:nonzero;stroke:none"
       id="text318"><tspan
         x="0 14.92 26.780001 38.080002 49.939999 62.52 77.879997 82.440002 94.300003 104.92 109.48 124.76 137.24001 149.72 161.16 173.64 185.08 196.94 208.64 220.5 232.98"
         y="0"
         id="tspan314">Доходы от финансовой </tspan><tspan
         x="0 12.58 24.139999 35.66 46.279999 57.740002 69.82 80.440002 92.919998 104.78 116.22 126.84 139.32001 143.88 155.58 160.14 172.53999 185.72 198.12 211.3 215.86 224.59801 236.45799 249.03799"
         y="26"
         id="tspan316">деятельности в 2020 году</tspan></text><g
       id="g320"><g
         id="g322"><g
           id="g328"><g
             id="g330"><path
               d="m 460.764,253.615 c -8.798,-2.617 -16.175,-6.253 -22.134,-10.904 v 0 c -5.963,-4.654 -10.433,-10.286 -13.411,-16.9 v 0 c -2.981,-6.617 -4.471,-13.847 -4.471,-21.697 v 0 c 0,-7.851 1.452,-15.084 4.362,-21.698 v 0 c 2.907,-6.617 7.196,-12.249 12.866,-16.901 v 0 c 5.669,-4.654 12.648,-8.286 20.934,-10.903 v 0 c 8.286,-2.616 17.735,-3.925 28.349,-3.925 v 0 c 6.542,0 12.354,0.545 17.446,1.635 v 0 c 5.087,1.091 9.448,2.362 13.083,3.816 v 0 c 4.069,1.599 7.704,3.415 10.903,5.452 v 0 c 0,-16.865 -3.598,-29.259 -10.793,-37.18 v 0 c -7.197,-7.926 -17.047,-11.885 -29.549,-11.885 v 0 c -3.345,0 -6.978,0.252 -10.904,0.763 v 0 c -3.924,0.508 -8.034,1.418 -12.32,2.726 v 0 c -4.29,1.309 -8.651,3.088 -13.084,5.343 v 0 c -4.436,2.252 -8.688,5.125 -12.757,8.614 v 0 l -9.813,-13.084 c 8.286,-7.125 17.806,-12.358 28.567,-15.701 v 0 c 10.757,-3.342 21.588,-5.016 32.492,-5.016 v 0 c 23.551,0 41.433,5.704 53.644,17.118 v 0 c 12.212,11.412 18.318,27.511 18.318,48.302 v 0 35.982 c 0,19.189 -5.925,33.98 -17.772,44.376 v 0 c -11.851,10.392 -29.548,15.591 -53.1,15.591 v 0 c -11.775,0 -22.062,-1.307 -30.856,-3.924 m 14.937,-84.938 c -4.218,1.816 -7.887,4.396 -11.012,7.742 v 0 c -3.128,3.342 -5.598,7.376 -7.414,12.102 v 0 c -1.82,4.723 -2.726,9.923 -2.726,15.593 v 0 c 0,5.669 0.906,10.865 2.726,15.591 v 0 c 1.816,4.723 4.361,8.757 7.632,12.103 v 0 c 3.271,3.342 7.159,5.922 11.666,7.741 v 0 c 4.505,1.817 9.521,2.726 15.047,2.726 v 0 c 10.904,0 19.807,-3.673 26.713,-11.012 v 0 c 6.903,-7.343 10.358,-17.848 10.358,-31.511 v 0 -19.626 c -2.763,-2.763 -6.034,-5.162 -9.812,-7.196 v 0 c -3.346,-1.745 -7.452,-3.346 -12.321,-4.797 v 0 c -4.873,-1.456 -10.576,-2.181 -17.118,-2.181 v 0 c -4.945,0 -9.524,0.906 -13.739,2.725 m -189.65,71.744 c -12.212,-11.414 -18.318,-27.513 -18.318,-48.302 v 0 -35.981 c 0,-19.189 5.922,-33.984 17.772,-44.376 v 0 C 297.353,101.366 315.053,96.17 338.604,96.17 v 0 c 11.776,0 22.059,1.309 30.857,3.925 v 0 c 8.795,2.618 16.171,6.249 22.134,10.904 v 0 c 5.959,4.651 10.43,10.283 13.411,16.9 v 0 c 2.978,6.613 4.471,13.847 4.471,21.697 v 0 c 0,7.851 -1.456,15.081 -4.362,21.698 v 0 c -2.909,6.614 -7.196,12.247 -12.866,16.901 v 0 c -5.669,4.651 -12.648,8.286 -20.934,10.903 v 0 c -8.286,2.616 -17.738,3.925 -28.349,3.925 v 0 c -6.542,0 -12.396,-0.582 -17.555,-1.744 v 0 c -5.161,-1.166 -9.485,-2.399 -12.974,-3.707 v 0 c -4.218,-1.602 -7.851,-3.418 -10.904,-5.453 v 0 c 0,16.864 3.599,29.256 10.795,37.181 v 0 c 7.195,7.922 17.043,11.885 29.548,11.885 v 0 c 3.196,0 6.794,-0.256 10.794,-0.764 v 0 c 3.996,-0.511 8.14,-1.417 12.429,-2.726 v 0 c 4.287,-1.307 8.648,-3.089 13.085,-5.342 v 0 c 4.433,-2.255 8.686,-5.125 12.757,-8.614 v 0 l 9.813,13.084 c -8.287,7.122 -17.81,12.355 -28.567,15.702 v 0 c -10.761,3.342 -21.588,5.014 -32.492,5.014 v 0 c -23.551,0 -41.433,-5.706 -53.644,-17.118 m 25.84,-117.973 c -6.906,7.338 -10.358,17.843 -10.358,31.51 v 0 19.626 c 2.76,2.617 6.031,4.941 9.813,6.978 v 0 c 3.343,1.745 7.448,3.38 12.321,4.906 v 0 c 4.869,1.527 10.576,2.29 17.118,2.29 v 0 c 4.941,0 9.52,-0.909 13.738,-2.725 v 0 c 4.215,-1.82 7.885,-4.399 11.013,-7.742 v 0 c 3.125,-3.346 5.594,-7.38 7.414,-12.102 v 0 c 1.816,-4.726 2.726,-9.923 2.726,-15.593 v 0 c 0,-5.669 -0.91,-10.868 -2.726,-15.591 v 0 c -1.82,-4.726 -4.361,-8.76 -7.632,-12.103 v 0 c -3.271,-3.346 -7.196,-5.925 -11.776,-7.741 v 0 c -4.579,-1.819 -9.56,-2.726 -14.938,-2.726 v 0 c -10.902,0 -19.81,3.67 -26.713,11.013 M 143.567,253.615 c -8.797,-2.617 -16.174,-6.253 -22.134,-10.904 v 0 c -5.962,-4.654 -10.432,-10.286 -13.41,-16.9 v 0 c -2.982,-6.617 -4.471,-13.847 -4.471,-21.697 v 0 c 0,-7.851 1.452,-15.084 4.362,-21.698 v 0 c 2.906,-6.617 7.196,-12.249 12.865,-16.901 v 0 c 5.67,-4.654 12.649,-8.286 20.935,-10.903 v 0 c 8.286,-2.616 17.735,-3.925 28.348,-3.925 v 0 c 6.542,0 12.355,0.545 17.446,1.635 v 0 c 5.087,1.091 9.449,2.362 13.084,3.816 v 0 c 4.068,1.599 7.704,3.415 10.903,5.452 v 0 c 0,-16.865 -3.598,-29.259 -10.794,-37.18 v 0 c -7.196,-7.926 -17.047,-11.885 -29.548,-11.885 v 0 c -3.346,0 -6.979,0.252 -10.904,0.763 v 0 c -3.924,0.508 -8.034,1.418 -12.321,2.726 v 0 c -4.289,1.309 -8.65,3.088 -13.083,5.343 v 0 c -4.437,2.252 -8.688,5.125 -12.757,8.614 v 0 l -9.813,-13.084 c 8.286,-7.125 17.806,-12.358 28.567,-15.701 v 0 c 10.757,-3.342 21.588,-5.016 32.492,-5.016 v 0 c 23.551,0 41.432,5.704 53.644,17.118 v 0 c 12.212,11.412 18.318,27.511 18.318,48.302 v 0 35.982 c 0,19.189 -5.926,33.98 -17.772,44.376 v 0 c -11.852,10.392 -29.549,15.591 -53.1,15.591 v 0 c -11.776,0 -22.062,-1.307 -30.857,-3.924 m 14.938,-84.938 c -4.218,1.816 -7.888,4.396 -11.012,7.742 v 0 c -3.128,3.342 -5.598,7.376 -7.414,12.102 v 0 c -1.82,4.723 -2.726,9.923 -2.726,15.593 v 0 c 0,5.669 0.906,10.865 2.726,15.591 v 0 c 1.816,4.723 4.361,8.757 7.632,12.103 v 0 c 3.271,3.342 7.158,5.922 11.666,7.741 v 0 c 4.505,1.817 9.521,2.726 15.047,2.726 v 0 c 10.903,0 19.807,-3.673 26.713,-11.012 v 0 c 6.903,-7.343 10.358,-17.848 10.358,-31.511 v 0 -19.626 c -2.763,-2.763 -6.034,-5.162 -9.812,-7.196 v 0 c -3.346,-1.745 -7.452,-3.346 -12.321,-4.797 v 0 c -4.873,-1.456 -10.577,-2.181 -17.119,-2.181 v 0 c -4.944,0 -9.523,0.906 -13.738,2.725"
               style="fill:url(#linearGradient336);stroke:none"
               id="path338" /></g></g></g></g><g
       id="g340"><g
         id="g342"
         clip-path="url(#clipPath346)"><g
           id="g348"
           transform="translate(755,256.584)"><path
             d="m 0,0 h -111 c -11.046,0 -20,-8.954 -20,-20 0,-11.046 8.954,-20 20,-20 H 0 c 11.046,0 20,8.954 20,20 C 20,-8.954 11.046,0 0,0"
             style="fill:#e8e8ed;fill-opacity:1;fill-rule:nonzero;stroke:none"
             id="path350" /></g></g></g><text
       transform="matrix(1,0,0,-1,644.0786,229.3013)"
       style="font-variant:normal;font-weight:500;font-stretch:normal;font-size:28px;font-family:'Rubik Medium';-inkscape-font-specification:Rubik-Medium;writing-mode:lr-tb;fill:#000000;fill-opacity:1;fill-rule:nonzero;stroke:none"
       id="text354"><tspan
         x="0 19.712 36.624001 54.096001 60.48 77.084 93.099998"
         y="0"
         id="tspan352">млн руб</tspan></text><text
       transform="matrix(1,0,0,-1,37.3902,1023)"
       style="font-variant:normal;font-weight:300;font-stretch:normal;font-size:20px;font-family:'Rubik Light';-inkscape-font-specification:Rubik-Light;writing-mode:lr-tb;fill:#000000;fill-opacity:1;fill-rule:nonzero;stroke:none"
       id="text358"><tspan
         x="0 11.9"
         y="0"
         id="tspan356">40</tspan></text><g
       id="g360"><g
         id="g362"><g
           id="g364"
           clip-path="url(#clipPath368)"><text
             transform="matrix(1,0,0,-1,99,1023)"
             style="font-variant:normal;font-weight:300;font-stretch:normal;font-size:20px;font-family:'Rubik Light';-inkscape-font-specification:Rubik-Light;writing-mode:lr-tb;fill:#000000;fill-opacity:1;fill-rule:nonzero;stroke:none"
             id="text372"><tspan
               x="0 13.24 18.4 28.02 39.18 52.459999 63.98 74.699997 86.620003 98.540001"
               y="0"
               id="tspan370">О компании</tspan></text></g></g></g></g></svg>
