<?xml version="1.0" encoding="UTF-8" standalone="no"?>
<svg
   xmlns:dc="http://purl.org/dc/elements/1.1/"
   xmlns:cc="http://creativecommons.org/ns#"
   xmlns:rdf="http://www.w3.org/1999/02/22-rdf-syntax-ns#"
   xmlns:svg="http://www.w3.org/2000/svg"
   xmlns="http://www.w3.org/2000/svg"
   xmlns:sodipodi="http://sodipodi.sourceforge.net/DTD/sodipodi-0.dtd"
   xmlns:inkscape="http://www.inkscape.org/namespaces/inkscape"
   version="1.1"
   id="svg2"
   xml:space="preserve"
   width="2560"
   height="1440"
   viewBox="0 0 2560 1440"
   sodipodi:docname="42.svg"
   inkscape:version="1.0.2 (e86c8708, 2021-01-15)"><sodipodi:namedview
     pagecolor="#ffffff"
     bordercolor="#666666"
     borderopacity="1"
     objecttolerance="10"
     gridtolerance="10"
     guidetolerance="10"
     inkscape:pageopacity="0"
     inkscape:pageshadow="2"
     inkscape:window-width="2560"
     inkscape:window-height="988"
     id="namedview215"
     showgrid="false"
     inkscape:zoom="1.19375"
     inkscape:cx="2140.6547"
     inkscape:cy="472.71507"
     inkscape:window-x="0"
     inkscape:window-y="22"
     inkscape:window-maximized="0"
     inkscape:current-layer="g10"
     inkscape:document-rotation="0" /><metadata
     id="metadata8"><rdf:RDF><cc:Work
         rdf:about=""><dc:format>image/svg+xml</dc:format><dc:type
           rdf:resource="http://purl.org/dc/dcmitype/StillImage" /></cc:Work></rdf:RDF></metadata><defs
     id="defs6"><clipPath
       clipPathUnits="userSpaceOnUse"
       id="clipPath20"><path
         d="M 0,1080 H 1920 V 0 H 0 Z"
         id="path18" /></clipPath><linearGradient
       x1="0"
       y1="0"
       x2="1"
       y2="0"
       gradientUnits="userSpaceOnUse"
       gradientTransform="matrix(526.37585,194.71233,194.71233,-526.37585,692.44573,196.71333)"
       spreadMethod="pad"
       id="linearGradient292"><stop
         style="stop-opacity:1;stop-color:#faaa2d"
         offset="0"
         id="stop288" /><stop
         style="stop-opacity:1;stop-color:#2960a1"
         offset="1"
         id="stop290" /></linearGradient><clipPath
       clipPathUnits="userSpaceOnUse"
       id="clipPath302"><path
         d="M 0,0 H 1920 V 1080 H 0 Z"
         id="path300" /></clipPath><clipPath
       clipPathUnits="userSpaceOnUse"
       id="clipPath412"><path
         d="M 0,1080 H 1920 V 0 H 0 Z"
         id="path410" /></clipPath></defs><g
     id="g10"
     transform="matrix(1.3333333,0,0,-1.3333333,0,1440)"><g
       id="g12"><g
         id="g14"><g
           id="g16"
           clip-path="url(#clipPath20)"><path
             d="M 0,0 H 1920 V 1080 H 0 Z"
             style="fill:#ffffff;fill-opacity:1;fill-rule:nonzero;stroke:none"
             id="path22" /></g></g></g><text
       transform="matrix(1,0,0,-1,1287,960.4)"
       style="font-variant:normal;font-weight:500;font-stretch:normal;font-size:28px;font-family:'Rubik Medium';-inkscape-font-specification:Rubik-Medium;writing-mode:lr-tb;fill:#000000;fill-opacity:1;fill-rule:nonzero;stroke:none"
       id="text26"><tspan
         x="0 21.308001 36.316002 56.028 72.211998 89.683998 105.868 123.34 140.812 156.996 163.38 179.396 194.26401 210.8652 226.8812 242.9252 257.79321 273.8092 291.00119 312.50519 318.88919 336.50119 352.8504 369.76239 382.2504 398.26639"
         y="0"
         id="tspan24">Изменение структуры долга </tspan></text><text
       transform="matrix(1,0,0,-1,1287,926.408)"
       style="font-variant:normal;font-weight:500;font-stretch:normal;font-size:28px;font-family:'Rubik Medium';-inkscape-font-specification:Rubik-Medium;writing-mode:lr-tb;fill:#000000;fill-opacity:1;fill-rule:nonzero;stroke:none"
       id="text32"><tspan
         x="0 16.379999 22.764 40.124001 58.576 75.935997 94.388 100.772 113.008 129.612 147.224 161.756 169.17599 175.56 195.272 212.18401 229.65601 236.03999 252.6412 268.6572 285.40121"
         y="0"
         id="tspan28">в 2020 году, млн руб.</tspan><tspan
         x="-1188.012 -1166.704 -1149.2321 -1132.8521 -1116.668 -1100.652 -1085.7841 -1068.312 -1050.448 -1032.976"
         y="-27.412001"
         id="tspan30">Инвестиции</tspan></text><text
       transform="matrix(1,0,0,-1,99,901.8201)"
       style="font-variant:normal;font-weight:300;font-stretch:normal;font-size:20px;font-family:'Rubik Light';-inkscape-font-specification:Rubik-Light;writing-mode:lr-tb;fill:#000000;fill-opacity:1;fill-rule:nonzero;stroke:none"
       id="text38"><tspan
         x="0 13.06 18.219999 29.42 41.740002 52.939999 65.260002 70.419998 78.540001 89.699997 101.22 111.8 116.96 128.64 139.8 153.08 164.60001 175.32001 187.24001 199.16 209.53999 214.7 226.22 237.84 249 260.51999 271.478 282.698 297.67801 309.59799 320.81799 331.53799 336.698 348.61801 360.53799 371.37799 382.298 393.01801 402.95801 414.87799 426.49799 437.65799 448.49799 459.21799 469.15799 478.67801"
         y="0"
         id="tspan34">В 2020 году Компания продолжила инвестировать </tspan><tspan
         x="0 10.84 16 27.52 39.139999 51.060001 62.220001 73.559998 85.18 96.099998 106.04 116.96 128.88 140.8 151.72 156.88 168.39999 179.12 190.74001 200.86 211.58 216.74001 227.58 232.74001 244.25999 255.88 267.79999 278.95999 290.57999 302.5 312.44 323.35999 333.29999 345.22 358.39999 368.76001 373.92001 384.64001 395.56 403.92001 417.20001 428.12 440.04001 449.98001 460.70001 471.06 476.22 487.56 499.48001"
         y="26"
         id="tspan36">в приобретение парка в приоритетных сегментах биз</tspan></text><text
       transform="matrix(1,0,0,-1,608.32,875.8201)"
       style="font-variant:normal;font-weight:300;font-stretch:normal;font-size:20px;font-family:'Rubik Light';-inkscape-font-specification:Rubik-Light;writing-mode:lr-tb;fill:#000000;fill-opacity:1;fill-rule:nonzero;stroke:none"
       id="text42"><tspan
         x="0"
         y="0"
         id="tspan40">-</tspan></text><text
       transform="matrix(1,0,0,-1,99,849.8201)"
       style="font-variant:normal;font-weight:300;font-stretch:normal;font-size:20px;font-family:'Rubik Light';-inkscape-font-specification:Rubik-Light;writing-mode:lr-tb;fill:#000000;fill-opacity:1;fill-rule:nonzero;stroke:none"
       id="text46"><tspan
         x="0 11.92 22.84 33.560001 44.279999 49.040001 54.200001 67.440002 78.779999 94.68 106.6 118.52 123.68 134.84 146.17999 156.96001 167.88 181.16 186.32001 197.16 208.38 219.53999 234.52 245.44 257.35999 269.28 281.20001 286.35999 297.20001 302.35999 313.88 325.04001 336.56 347.39999 359.32001 374.29999 386.22 397.38 409.29999 414.45999 425.17999 436.34 447.06 457 467.72 478.56 483.72 494.44"
         y="0"
         id="tspan44">неса. Общий объем вложений в подвижной состав со</tspan></text><text
       transform="matrix(1,0,0,-1,604.6,849.8201)"
       style="font-variant:normal;font-weight:300;font-stretch:normal;font-size:20px;font-family:'Rubik Light';-inkscape-font-specification:Rubik-Light;writing-mode:lr-tb;fill:#000000;fill-opacity:1;fill-rule:nonzero;stroke:none"
       id="text50"><tspan
         x="0"
         y="0"
         id="tspan48">-</tspan></text><text
       transform="matrix(1,0,0,-1,99,823.8201)"
       style="font-variant:normal;font-weight:300;font-stretch:normal;font-size:20px;font-family:'Rubik Light';-inkscape-font-specification:Rubik-Light;writing-mode:lr-tb;fill:#000000;fill-opacity:1;fill-rule:nonzero;stroke:none"
       id="text58"><tspan
         x="0 10.72 20.66 31.379999 42.220001 54.139999 65.360001 70.519997 82.160004 86.297997 96.038002 101.198 114.478 125.698 137.31799 148.838 153.998 165.23801 175.81799 187.158 198.37801 209.298 221.218 225.978 231.138 242.81599 253.976 267.25601 278.776 289.496 301.41599 313.336 323.716 328.87601 340.396 352.01599 363.936 375.09601 386.436 398.056 408.89401 420.11401 430.83401 435.99399 447.194 451.65399 463.29401 468.45401 478.39401 491.57401 502.29401 507.05399"
         y="0"
         id="tspan52">ставил 6,7 млрд рублей. Компания приобрела 2,6 тыс. </tspan><tspan
         x="0 10.84 21.559999 29.68 40.84 52.759998 63.919998 74.760002 79.5 84.660004 95.5 105.62 116.84 132.10001 142.64 153.36 163.74001 168.89999 176.86 181.60001 192.8 197.96001 207.89999 221.08 231.8 236.56 241.72 252.08 263.23999 274.76001 286.28 297.20001 308.82001 319.98001 330.82001 340.56 352.57999 363.5 376.78 387.70001 399.62 409.56 420.72 431.56 442.72 452.56 463.72 474.56 479.29999"
         y="26"
         id="tspan54">вагонов, включая 1,2 тыс. хопперов-цементовозов, </tspan><tspan
         x="0 10.54 20.48 31.639999 36.799999 48.32 59.48 69.32 80.160004 91.120003 102.34 114.26 125.48 136.64 141.8 151.64 163.56 174.28 184.82001 196.74001 206.67999 217.51801 228.73801 238.258 250.17799 261.33801 266.49799 277.078 287.918 298.75601 309.97601 321.896 332.436 344.35599 354.29599 363.81601 368.97601 380.496 391.45599 402.67599 417.936 423.09601 437.09601 447.19601 459.47601 464.63599 475.47601 480.63599 491.35599 502.276"
         y="52"
         id="tspan56">что позволило значительно увеличить долю ПГК в сег</tspan></text><text
       transform="matrix(1,0,0,-1,608.5,771.8201)"
       style="font-variant:normal;font-weight:300;font-stretch:normal;font-size:20px;font-family:'Rubik Light';-inkscape-font-specification:Rubik-Light;writing-mode:lr-tb;fill:#000000;fill-opacity:1;fill-rule:nonzero;stroke:none"
       id="text62"><tspan
         x="0"
         y="0"
         id="tspan60">-</tspan></text><text
       transform="matrix(1,0,0,-1,99,745.8201)"
       style="font-variant:normal;font-weight:300;font-stretch:normal;font-size:20px;font-family:'Rubik Light';-inkscape-font-specification:Rubik-Light;writing-mode:lr-tb;fill:#000000;fill-opacity:1;fill-rule:nonzero;stroke:none"
       id="text68"><tspan
         x="0 13.28 24.200001 36.119999 46.060001 56.98 62.139999 73.660004 84.580002 96.199997 107.12 117.96 129.12 138.96001 150.12 160.24001 165.39999 177.42 188.34 201.62 212.53999 224.46001 234.39999 245.12 250.28 262.20001 267.35999 280.64001 292.56 304.48001 315.39999 327.01999 337.73999 348.95999 358.48001 370.39999 383.57999 393.94 399.10001 409.67999 421.20001 432.35999 443.70001 455.32001 466.23999 478.16 490.07999 502"
         y="0"
         id="tspan64">менте перевозок цемента и минеральных удобрений.</tspan><tspan
         x="0 13.02 24.24 35.16 46.68 57.259998 67.639999 72.800003 83.519997 93.459999 105.08 115.8 125.74 136.66 145.02 156.94 168.86 174.02 186.03999 197.96001 211.53999 223.16 234.32001 245.16 256.32001 268.23999 273.39999 283.34 294.95999 305.67999 317.60001 328.32001 341.89999 353.06 364.67999 377.95999 388.67999 400.70001 412.62 424.54001 429.28 434.44 448.44 458.54001 470.82001 475.98001 487.89999"
         y="52"
         id="tspan66">Следуя стратегии цифровой трансформации, ПГК ин</tspan></text><text
       transform="matrix(1,0,0,-1,598.82,693.8201)"
       style="font-variant:normal;font-weight:300;font-stretch:normal;font-size:20px;font-family:'Rubik Light';-inkscape-font-specification:Rubik-Light;writing-mode:lr-tb;fill:#000000;fill-opacity:1;fill-rule:nonzero;stroke:none"
       id="text72"><tspan
         x="0"
         y="0"
         id="tspan70">-</tspan></text><text
       transform="matrix(1,0,0,-1,99,667.8201)"
       style="font-variant:normal;font-weight:300;font-stretch:normal;font-size:20px;font-family:'Rubik Light';-inkscape-font-specification:Rubik-Light;writing-mode:lr-tb;fill:#000000;fill-opacity:1;fill-rule:nonzero;stroke:none"
       id="text78"><tspan
         x="0 10.84 21.76 32.48 42.419998 54.34 65.959999 77.120003 87.959999 98.68 109.9 120.62 125.78 137.718 142.45799 153.89799 159.058 172.338 183.558 195.17799 206.698 211.858 223.09801 233.67799 245.01801 256.23801 267.15799 279.078 284.23801 295.078 300.23801 305.258 315.07599 324.81601 336.336 347.95599 359.116 370.03601 380.15601 390.09601 403.276 408.01599 413.17599 424.01599 434.13599 445.35599 460.616 471.15601 481.87601 492.25601"
         y="0"
         id="tspan74">вестировала 0,5 млрд рублей в IT-проекты, включая </tspan><tspan
         x="0 11.52 22.24 33.459999 42.98 54.900002 65.82 77.739998 93.120003 104.04 114.96 120.12 131.74001 142.46001 152.3 163.14 175.06 185 196.92 207.84 213 224.52 235.74001 246.46001 256.39999 269.98001 281.14001 292.76001 306.04001 319.22 324.38 336.276 349.276 360.276 365.01599 370.17599 382.19601 394.116 407.69601 419.31601 430.47601 441.31601 454.496 464.85599 470.01599 480.13599 491.35599"
         y="26"
         id="tspan76">дальнейшее развитие платформы SAP, цифровых кли</tspan></text><text
       transform="matrix(1,0,0,-1,602.276,641.8201)"
       style="font-variant:normal;font-weight:300;font-stretch:normal;font-size:20px;font-family:'Rubik Light';-inkscape-font-specification:Rubik-Light;writing-mode:lr-tb;fill:#000000;fill-opacity:1;fill-rule:nonzero;stroke:none"
       id="text82"><tspan
         x="0"
         y="0"
         id="tspan80">-</tspan></text><text
       transform="matrix(1,0,0,-1,99,615.8201)"
       style="font-variant:normal;font-weight:300;font-stretch:normal;font-size:20px;font-family:'Rubik Light';-inkscape-font-specification:Rubik-Light;writing-mode:lr-tb;fill:#000000;fill-opacity:1;fill-rule:nonzero;stroke:none"
       id="text86"><tspan
         x="0 10.92 22.84 32.779999 43.5 53.619999 65.540001 75.900002 81.059998 91.779999 102.7 114.32 125.16 137.08 147.8 158.96001 169.8 174.96001 186.88 192.03999 203.56 215.17999 226.34 237.25999 247.38 257.32001 268.48001 279.32001 284.48001 296 307.16 312.32001 323.04001 333.88 343.82001 354.98001 368.26001 378.98001 388.92001 400.84 410.67999 421.39999 433.42001 445.34 457.26001 462.42001 473.76001 485.67999"
         y="0"
         id="tspan84">ентских сервисов и проектов по автоматизации биз</tspan></text><text
       transform="matrix(1,0,0,-1,594.52,615.8201)"
       style="font-variant:normal;font-weight:300;font-stretch:normal;font-size:20px;font-family:'Rubik Light';-inkscape-font-specification:Rubik-Light;writing-mode:lr-tb;fill:#000000;fill-opacity:1;fill-rule:nonzero;stroke:none"
       id="text90"><tspan
         x="0"
         y="0"
         id="tspan88">-</tspan></text><text
       transform="matrix(1,0,0,-1,99,589.8201)"
       style="font-variant:normal;font-weight:300;font-stretch:normal;font-size:20px;font-family:'Rubik Light';-inkscape-font-specification:Rubik-Light;writing-mode:lr-tb;fill:#000000;fill-opacity:1;fill-rule:nonzero;stroke:none"
       id="text94"><tspan
         x="0 11.92 22.84 33.560001 43.299999 54.82 66.440002 77.599998 89.620003 100.54 111.26 121.98 133.14 143.98 148.72 153.88 165.39999 176.56 187.39999 200.58 215.96001 226.67999 241.94 257.84 269.76001 280.12 285.28 296.79999 308.42001 319.57999 331.5 341.34 352.17999 363.34 374.85999 386.78 396.72 407.556 418.776 428.29599 440.216 451.37601 462.09601 472.03601 481.556 486.716 496.65601 507.89401"
         y="0"
         id="tspan92">нес-процессов, повышающих производительность тру</tspan></text><text
       transform="matrix(1,0,0,-1,617,589.8201)"
       style="font-variant:normal;font-weight:300;font-stretch:normal;font-size:20px;font-family:'Rubik Light';-inkscape-font-specification:Rubik-Light;writing-mode:lr-tb;fill:#000000;fill-opacity:1;fill-rule:nonzero;stroke:none"
       id="text98"><tspan
         x="0"
         y="0"
         id="tspan96">-</tspan></text><text
       transform="matrix(1,0,0,-1,99,563.8201)"
       style="font-variant:normal;font-weight:300;font-stretch:normal;font-size:20px;font-family:'Rubik Light';-inkscape-font-specification:Rubik-Light;writing-mode:lr-tb;fill:#000000;fill-opacity:1;fill-rule:nonzero;stroke:none"
       id="text104"><tspan
         x="0 11.52 22.24 27.4 39.32 44.48 54.599998 65.32 75.860001 86.779999 97.5 107.44 118.28 129.44 134.60001 145.75999 157.10001 167.82001 179.03999 189.62 204.60001 216.52 227.36 238.08 250 261.92001 272.29999 277.45999 287.57999 298.79999 310.72 321.64001 333.56 343.5 354.66 365.5 370.66 382.336 393.496 406.776 418.29599 429.01599 440.936 452.85599 464.776"
         y="0"
         id="tspan100">да и качество обслуживания клиентов Компании.</tspan><tspan
         x="0 13.06 18.219999 28.940001 40.099998 51.259998 61.200001 72.040001 82.959999 92.900002 103.62 113.56 124.4 136.32001 148.24001 153.39999 164.12 169.28 181.2 193.12 203.96001 214.88 225.60001 235.53999 247.46001 259.48001 271.39999 282.56 294.48001 306.39999 319.57999 332.85999 344.78 349.94 361.10001 372.44 382.82001 392.66 403.38 413.32001 424.15601 435.37601 444.896 455.616 465.556 476.396"
         y="52"
         id="tspan102">В соответствии с инвестиционными обязательства</tspan></text><text
       transform="matrix(1,0,0,-1,586.116,511.8201)"
       style="font-variant:normal;font-weight:300;font-stretch:normal;font-size:20px;font-family:'Rubik Light';-inkscape-font-specification:Rubik-Light;writing-mode:lr-tb;fill:#000000;fill-opacity:1;fill-rule:nonzero;stroke:none"
       id="text108"><tspan
         x="0"
         y="0"
         id="tspan106">-</tspan></text><text
       transform="matrix(1,0,0,-1,99,485.8201)"
       style="font-variant:normal;font-weight:300;font-stretch:normal;font-size:20px;font-family:'Rubik Light';-inkscape-font-specification:Rubik-Light;writing-mode:lr-tb;fill:#000000;fill-opacity:1;fill-rule:nonzero;stroke:none"
       id="text114"><tspan
         x="0 13.28 25.200001 30.360001 41.880001 53.040001 58.200001 69.720001 80.879997 89 100.16 111 122.16 133.78 144.5 157.78 162.94 173.66 185.28 196.2 208.12 219.64 232.82001 237.98 249.5 261.12 272.28 285.56 298.73999 309.57999 320.73999 331.28 343.20001 354.35999 364.10001 375.62 387.23999 398.39999 409.92001 420.64001 432.26001 443.42001 453.95999 465.88 479.06 489.42001"
         y="0"
         id="tspan110">ми по договорам аренды промывочно-пропарочных </tspan><tspan
         x="0 10.72 20.66 31.379999 43.299999 55.32 67.239998 79.160004 84.32 90.458 104.458 118.458 131.478 137.858 143.01801 153.858 159.01801 170.218 182.53799 193.73801 206.058 211.218 219.338 230.498 242.01801 252.59801 257.758 269.43799 280.59799 293.87799 305.39801 316.11801 328.03799 339.95801 350.33801 355.49799 365.33801 376.05801 386.89801 397.81799 409.43799 424.81799 436.73801 447.95801 458.67801 463.83801 475.45801"
         y="26"
         id="tspan112">станций (ППС) в 2020 году Компания завершила ре</tspan></text><text
       transform="matrix(1,0,0,-1,585.378,459.8201)"
       style="font-variant:normal;font-weight:300;font-stretch:normal;font-size:20px;font-family:'Rubik Light';-inkscape-font-specification:Rubik-Light;writing-mode:lr-tb;fill:#000000;fill-opacity:1;fill-rule:nonzero;stroke:none"
       id="text118"><tspan
         x="0"
         y="0"
         id="tspan116">-</tspan></text><text
       transform="matrix(1,0,0,-1,99,433.8201)"
       style="font-variant:normal;font-weight:300;font-stretch:normal;font-size:20px;font-family:'Rubik Light';-inkscape-font-specification:Rubik-Light;writing-mode:lr-tb;fill:#000000;fill-opacity:1;fill-rule:nonzero;stroke:none"
       id="text124"><tspan
         x="0 9.6199999 20.780001 32.700001 43.419998 53.360001 64.599998 75.18 85.300003 97.32 109.24 124.5 129.66 140.38 152 162.72 172.56 183.14 188.3 199.82001 210.66 221.24001 231.60001 236.75999 247.48 257.42001 268.14001 280.06 292.07999 304 315.92001 321.07999 336.5 341.66 355.66 369.66 382.67999 387.84 400.84 411.38 423.29999 435.22 445.94 456.06 461.22 473.14001 478.29999 492.29999 506.29999 519.32001"
         y="0"
         id="tspan120">конструкцию сразу двух станций — ППС Ачинск и ППС </tspan><tspan
         x="0 13.24 23.959999 34.880001 46.799999 58.82 72 76.739998 81.900002 92.620003 97.779999 107.72 118.44 128.56 143.53999 154.46001 159.62 169.46001 180.17999 191.02 201.94 213.56 228.94 240.86 252.08 262.79999 267.95999 279.48001 290.39999 302.01999 312.85999 326.04001 337.95999 343.12 353.84 363.78 374.5 386.01999 391.17999 402.79999 413.72 423.336 434.496 446.41599 457.13599 467.07599 478.314 488.89401"
         y="26"
         id="tspan122">Осенцы, а также завершила первый этап реконструк</tspan></text><text
       transform="matrix(1,0,0,-1,597.08,407.8201)"
       style="font-variant:normal;font-weight:300;font-stretch:normal;font-size:20px;font-family:'Rubik Light';-inkscape-font-specification:Rubik-Light;writing-mode:lr-tb;fill:#000000;fill-opacity:1;fill-rule:nonzero;stroke:none"
       id="text128"><tspan
         x="0"
         y="0"
         id="tspan126">-</tspan></text><text
       transform="matrix(1,0,0,-1,99,381.8201)"
       style="font-variant:normal;font-weight:300;font-stretch:normal;font-size:20px;font-family:'Rubik Light';-inkscape-font-specification:Rubik-Light;writing-mode:lr-tb;fill:#000000;fill-opacity:1;fill-rule:nonzero;stroke:none"
       id="text132"><tspan
         x="0 12.02 23.940001 35.860001 41.02 51.139999 62.380001 72.959999 84.480003 96.400002 107.32 119.24 134.62 145.53999 157.46001 162.62 173.34 183.28 194 205.92 217.94 229.86 241.78 246.94 257.78 262.94 273.66 285.28 296.20001 308.12 319.64001 330.56 335.72 346.29999 351.45999 365.45999 375.56 387.84 393 408.42001 413.57999 427.57999 441.57999 454.60001 459.76001 471.43799 482.59799"
         y="0"
         id="tspan130">ции крупнейшей станции в аренде у ПГК — ППС Ком</tspan></text><text
       transform="matrix(1,0,0,-1,594.878,381.8201)"
       style="font-variant:normal;font-weight:300;font-stretch:normal;font-size:20px;font-family:'Rubik Light';-inkscape-font-specification:Rubik-Light;writing-mode:lr-tb;fill:#000000;fill-opacity:1;fill-rule:nonzero;stroke:none"
       id="text136"><tspan
         x="0"
         y="0"
         id="tspan134">-</tspan></text><text
       transform="matrix(1,0,0,-1,99,355.8201)"
       style="font-variant:normal;font-weight:300;font-stretch:normal;font-size:20px;font-family:'Rubik Light';-inkscape-font-specification:Rubik-Light;writing-mode:lr-tb;fill:#000000;fill-opacity:1;fill-rule:nonzero;stroke:none"
       id="text140"><tspan
         x="0 11.34 23.26 35.18 45.900002 55.84 66.559998 76.68 87.400002 97.779999 102.54 107.7 120.94 132.28 148.17999 160.10001 172.02 177.17999 188.34 199.67999 210.46001 221.38 234.66 239.82001 251.74001 263.66 274.5 285.42001 296.14001 306.07999 318 330.01999 341.94"
         y="0"
         id="tspan138">бинатская. Общий объем инвестиций</tspan></text><text
       transform="matrix(1,0,0,-1,452.8553,362.4801)"
       style="font-variant:normal;font-weight:300;font-stretch:normal;font-size:11.66px;font-family:'Rubik Light';-inkscape-font-specification:Rubik-Light;writing-mode:lr-tb;fill:#000000;fill-opacity:1;fill-rule:nonzero;stroke:none"
       id="text144"><tspan
         x="0 4.6406798"
         y="0"
         id="tspan142">1 </tspan></text><text
       transform="matrix(1,0,0,-1,460.5041,355.8201)"
       style="font-variant:normal;font-weight:300;font-stretch:normal;font-size:20px;font-family:'Rubik Light';-inkscape-font-specification:Rubik-Light;writing-mode:lr-tb;fill:#000000;fill-opacity:1;fill-rule:nonzero;stroke:none"
       id="text152"><tspan
         x="0 10.84 16 27.620001 38.540001 48.16 59.32 71.239998 81.959999 91.900002 103.138 113.718 123.838 135.858 147.778 163.03799"
         y="0"
         id="tspan146">в реконструкцию </tspan><tspan
         x="-361.5 -350.78 -339.62 -328.89999 -318.95999 -308.23999 -297.39999 -285.48001 -274.26001 -269.10001 -257.16199 -252.422 -241.222 -236.062 -222.782 -211.562 -199.942 -188.422 -183.26199 -172.022 -161.442 -150.10201 -138.882 -127.962 -116.042"
         y="26"
         id="tspan148">составил 0,2 млрд рублей.</tspan><tspan
         x="-361.5 -348.44 -337.22 -326.06 -311.07999 -300.16 -288.23999 -276.32001 -265.94 -260.78 -249.94 -244.78 -233.16 -222.24001 -208.96001 -197.8 -185.88 -175.94 -171.2 -166.03999 -156.2 -145.48 -135.36 -124.78 -113.26 -103.14 -92.559998 -87.400002 -77.783997 -66.823997 -55.604 -44.683998 -33.964001 -22.044001 -8.8640003 1.4960001 6.6560001 18.176001 28.896 40.515999 45.675999 57.596001 62.756001 73.975998 85.896004 95.835999 109.016 119.376 124.536 136.056"
         y="78"
         id="tspan150">Вложения в ремонт, закупку колесных пар и литых де</tspan></text><text
       transform="matrix(1,0,0,-1,607.4801,277.8201)"
       style="font-variant:normal;font-weight:300;font-stretch:normal;font-size:20px;font-family:'Rubik Light';-inkscape-font-specification:Rubik-Light;writing-mode:lr-tb;fill:#000000;fill-opacity:1;fill-rule:nonzero;stroke:none"
       id="text156"><tspan
         x="0"
         y="0"
         id="tspan154">-</tspan></text><text
       transform="matrix(1,0,0,-1,99.0041,251.8201)"
       style="font-variant:normal;font-weight:300;font-stretch:normal;font-size:20px;font-family:'Rubik Light';-inkscape-font-specification:Rubik-Light;writing-mode:lr-tb;fill:#000000;fill-opacity:1;fill-rule:nonzero;stroke:none"
       id="text162"><tspan
         x="0 9.9399996 20.66 31.879999 42.799999 54.720001 59.880001 70.599998 81.760002 92.480003 102.42 113.14 123.98 135.89999 147.12 159.03999 164.2 172.16 184.09801 187.89799 199.338 204.498 217.778 228.998 240.618 252.138 257.298 268.53601 279.116 290.45599 301.67599 312.59601 324.51599 329.25601 334.41599 344.95599 354.896 366.056 371.216 383.13599 393.85599 399.01599 410.53601 415.276 426.47601 431.63599 444.91599 456.13599 467.75601 479.276 484.436 495.67401 506.254 517.59399"
         y="0"
         id="tspan158">талей составили 10,9 млрд рублей, что на 3,2 млрд руб-</tspan><tspan
         x="0 11.22 22.139999 34.060001 39.220001 52.5 63.419998 75.339996 84.860001 100.24 111.16 116.32 127.84 139 149.12 159.84 169.67999 180.39999 190.34 201.17799 212.39799 222.778 227.938 239.45799 251.078 262.23801 277.61801 288.83801 299.99799 308.116 319.276 324.436 332.556 343.716 355.23599 365.95599"
         y="26"
         id="tspan160">лей меньше показателя прошлого года.</tspan></text><text
       transform="matrix(1,0,0,-1,693,953.8201)"
       style="font-variant:normal;font-weight:500;font-stretch:normal;font-size:28px;font-family:'Rubik Medium';-inkscape-font-specification:Rubik-Medium;writing-mode:lr-tb;fill:#000000;fill-opacity:1;fill-rule:nonzero;stroke:none"
       id="text168"><tspan
         x="0 25.004 42.476002 59.948002 75.963997 93.435997 109.452 126.056 142.436 158.452 174.58 180.964 198.10001 214.4492 231.36121 248.83321 263.7012 281.17319 297.21719 313.23318"
         y="0"
         id="tspan164">Финансовая политика </tspan><tspan
         x="0 17.472 23.856001 39.872002 57.007999 74.199997 90.216003 106.596 123.508 139.692 157.164 174.636 190.82001 197.20399 214.81599 231.16521 248.07719 260.3132 276.91721 293.29721 314.80121 334.51321 340.89719 358.0332 374.63721 391.82919 406.6972 428.0892 444.1304 461.04239 477.22641"
         y="33.992001"
         id="tspan166">и управление долговым портфелем</tspan></text><text
       transform="matrix(1,0,0,-1,693,867.8201)"
       style="font-variant:normal;font-weight:300;font-stretch:normal;font-size:20px;font-family:'Rubik Light';-inkscape-font-specification:Rubik-Light;writing-mode:lr-tb;fill:#000000;fill-opacity:1;fill-rule:nonzero;stroke:none"
       id="text172"><tspan
         x="0 13.06 18.219999 29.42 41.740002 52.939999 65.260002 70.419998 78.540001 89.699997 101.22 111.8 116.96 130.2 141.53999 157.44 168.36 179.08 189.02 199.86 211.02 216.17999 227.7 239.32001 250.48 262 272.95801 284.17801 299.15799 311.078 322.298 333.45801 338.61801 348.73801 359.31799 370.93799 381.65799 386.81799 398.73801 409.45801 414.61801 425.77802 437.298 447.23801 459.15799 472.43799 484.358 494.198"
         y="0"
         id="tspan170">В 2020 году Общество продолжило курс на оптимиза</tspan></text><text
       transform="matrix(1,0,0,-1,1197.918,867.8201)"
       style="font-variant:normal;font-weight:300;font-stretch:normal;font-size:20px;font-family:'Rubik Light';-inkscape-font-specification:Rubik-Light;writing-mode:lr-tb;fill:#000000;fill-opacity:1;fill-rule:nonzero;stroke:none"
       id="text176"><tspan
         x="0"
         y="0"
         id="tspan174">-</tspan></text><text
       transform="matrix(1,0,0,-1,693,841.8201)"
       style="font-variant:normal;font-weight:300;font-stretch:normal;font-size:20px;font-family:'Rubik Light';-inkscape-font-specification:Rubik-Light;writing-mode:lr-tb;fill:#000000;fill-opacity:1;fill-rule:nonzero;stroke:none"
       id="text182"><tspan
         x="0 12.02 23.940001 39.200001 44.360001 54.48 66.099998 77.019997 88.540001 100.46 110.4 122.32 133.48 141.59801 152.758 157.918 169.438 180.59801 192.218 202.158 215.73801 226.578 237.798 248.17799"
         y="0"
         id="tspan178">цию кредитного портфеля.</tspan><tspan
         x="0 13.06 18.219999 28.940001 40.459999 52.080002 62.919998 74.139999 85.059998 90.220001 101.42 113.74 124.94 137.25999 142.42 150.53799 161.698 173.218 183.938 189.09801 203.09801 213.198 225.478 230.638 242.158 253.118 264.33801 276.258 287.418 298.138 308.078 317.59799 332.858 338.01801 349.53799 360.698 369.05801 379.77802 390.49799 402.418 413.638 424.358 429.51801 440.67801 451.39801 461.33801 472.05801 482.89801 498.27802"
         y="52"
         id="tspan180">В апреле 2020 года ПГК полностью погасила оставшу</tspan></text><text
       transform="matrix(1,0,0,-1,1201.38,789.8201)"
       style="font-variant:normal;font-weight:300;font-stretch:normal;font-size:20px;font-family:'Rubik Light';-inkscape-font-specification:Rubik-Light;writing-mode:lr-tb;fill:#000000;fill-opacity:1;fill-rule:nonzero;stroke:none"
       id="text186"><tspan
         x="0"
         y="0"
         id="tspan184">-</tspan></text><text
       transform="matrix(1,0,0,-1,693,763.8201)"
       style="font-variant:normal;font-weight:300;font-stretch:normal;font-size:20px;font-family:'Rubik Light';-inkscape-font-specification:Rubik-Light;writing-mode:lr-tb;fill:#000000;fill-opacity:1;fill-rule:nonzero;stroke:none"
       id="text190"><tspan
         x="0 15.26 25.98 36.360001 41.52 52.060001 62.779999 73.5 83.440002 92.959999 98.120003 109.28 120.62 131.84 143.75999 152.12 162.84 174.86 186.78 197.94 209.86 221.78 232.94 241.058 252.218 257.37799 268.21799 281.39801 292.918 303.15799 313.87799 323.99799 334.71799 339.87799 350.59799 361.51801 373.138 385.05801 396.978 402.138 414.45801 425.978 430.71799 435.87799 447.49799 458.21799 468.05801 481.33801"
         y="0"
         id="tspan188">юся часть облигационного выпуска серии 03, разме</tspan></text><text
       transform="matrix(1,0,0,-1,1185.258,763.8201)"
       style="font-variant:normal;font-weight:300;font-stretch:normal;font-size:20px;font-family:'Rubik Light';-inkscape-font-specification:Rubik-Light;writing-mode:lr-tb;fill:#000000;fill-opacity:1;fill-rule:nonzero;stroke:none"
       id="text194"><tspan
         x="0"
         y="0"
         id="tspan192">-</tspan></text><text
       transform="matrix(1,0,0,-1,693,737.8201)"
       style="font-variant:normal;font-weight:300;font-stretch:normal;font-size:20px;font-family:'Rubik Light';-inkscape-font-specification:Rubik-Light;writing-mode:lr-tb;fill:#000000;fill-opacity:1;fill-rule:nonzero;stroke:none"
       id="text198"><tspan
         x="0 15.9 26.82 38.740002 50.66 61.82 69.940002 81.099998 86.260002 97.099998 102.26 113.46 125.78 133.74001 145.17999 150.34 158.45799 169.618 181.138 191.718 196.87801 207.59801 212.758 222.87801 233.45799 244.978 256.138 268.05801 279.21799 292.49799 297.65799 305.61801 313.578 318.07599 330.436 331.28 346.10001 351.26001 359.38 370.54001 382.06 393.22 404.06 417.23999 427.60001 432.34 437.5 449.42001 460.14001 465.29999 476.01999 486.60001"
         y="0"
         id="tspan196">щенного в 2015 году с купоном 11,8 % годовых, на сум</tspan></text><text
       transform="matrix(1,0,0,-1,1192.88,737.8201)"
       style="font-variant:normal;font-weight:300;font-stretch:normal;font-size:20px;font-family:'Rubik Light';-inkscape-font-specification:Rubik-Light;writing-mode:lr-tb;fill:#000000;fill-opacity:1;fill-rule:nonzero;stroke:none"
       id="text202"><tspan
         x="0"
         y="0"
         id="tspan200">-</tspan></text><text
       transform="matrix(1,0,0,-1,693,711.8201)"
       style="font-variant:normal;font-weight:300;font-stretch:normal;font-size:20px;font-family:'Rubik Light';-inkscape-font-specification:Rubik-Light;writing-mode:lr-tb;fill:#000000;fill-opacity:1;fill-rule:nonzero;stroke:none"
       id="text216"><tspan
         x="0 13.28 23.860001 29.02 40.220001 44.580002 56.900002 62.060001 75.339996 86.559998 98.480003 103.64 114.878 125.458 136.798 148.01801 158.938 170.858 175.618 180.778 191.918 202.638 212.758 227.73801 238.658 243.81799 255.496 266.65601 279.936 291.45599 302.17599 314.09601 326.01599 336.396 341.556 353.07599 364.69601 375.85599 386.69601 397.534 408.754 419.474 424.634 434.87399 445.59399 457.11401 468.034 483.414 495.33401 508.51401 519.43402"
         y="0"
         id="tspan204">му 2,0 млн рублей. Также Компания провела успешные </tspan><tspan
         x="0 11.52 22.440001 34.060001 44.98 53.099998 64.260002 75.099998 86.260002 97.879997 111.06 116.22 126.94 132.10001 143.32001 155.24001 165.08 177 188.92 197.03799 208.198 219.03799 232.218 245.498 257.418 262.578 272.198 283.358 296.638 308.15799 318.87799 330.798 342.71799 353.09799 366.37799 378.298 383.45801 394.978 406.138 411.298 422.01801 433.93799 445.858 460.83801 471.758 483.67801 495.59799 510.858"
         y="26"
         id="tspan206">переговоры с лизинговыми компаниями по снижению </tspan><tspan
         x="0 10.72 20.66 31.82 43.740002 57.02 68.18 78.900002 88.839996 100.76 105.92 117.44 129.06 140.98 151.82001 163.03999 173.96001 184.5 195.42 207.34 219.25999 232.44 242.8 247.96001 259.57999 270.5 281.22 291.79999 303.42001 314.14001 325.29999 336.14001 341.29999 356.72 361.88 372.60001 384.22 395.14001 406.66 418.57999 428.95999 439.34 444.5 455.22 465.16 475.88 486.72 496.84 507.56"
         y="52"
         id="tspan208">стоимости привлеченных ресурсов — средняя ставка </tspan><tspan
         x="0 11.52 22.68 27.84 39.360001 50.52 62.139999 72.080002 85.660004 96.498001 107.718 122.978 128.138 138.858 150.778 162.698 172.53799 184.45799 195.67799 206.39799 217.118 226.638 231.798 242.51801 247.67799 255.638 267.57599 270.95599 278.91599 286.87601 287.70001 302.51999 307.67999 319.20001 330.35999 335.51999 343.88 348.62 360.06 369.79999 370.64001 385.45999 390.22 395.38 405.85999 416.70001 427.54001 438.76001 450.67999 461.22 472.14001 484.06 495.98001 506.89999"
         y="78"
         id="tspan210">по портфелю снизилась с 10,11 % до 7,57 %. Увеличение </tspan><tspan
         x="0 11.52 22.48 33.700001 42.060001 52.779999 57.939999 69.459999 80.620003 85.779999 99.360001 111.28 123.2 133.92 145.84 156.56 167.72 178.56 189.72 203 213.58 218.74001 229.96001 241.88 251.72 263.64001 275.56 283.92001 294.5 299.66 310.38 321.22 331.60001 341.44 352.16 364.07999 375.23999 380.39999 391.12 396.28 407.44 417.38 429 439.72 454.70001 465.62 477.54001 489.45999 500.38 513.65997"
         y="104"
         id="tspan212">долга по финансовому лизингу связано с отражением </tspan><tspan
         x="0 11.52 23.139999 35.060001 45.900002 57.119999 68.040001 78.580002 89.5 101.42 113.34 124.5 132.618 143.778 148.938 159.778 164.938 176.138 188.45799 199.658 211.978 217.138 225.258 236.418 247.938 258.51801 263.67801 275.198 285.918 297.53799 307.65799 318.37799 323.53799 335.05801 346.01599 357.23599 367.81601 378.65601 389.37601 397.496 408.65601 420.57599 431.73599 442.57599 447.73599 459.65601 464.81601 476.836"
         y="130"
         id="tspan214">привлеченного в 2020 году парка полувагонов и ци</tspan></text><text
       transform="matrix(1,0,0,-1,1181.756,581.8201)"
       style="font-variant:normal;font-weight:300;font-stretch:normal;font-size:20px;font-family:'Rubik Light';-inkscape-font-specification:Rubik-Light;writing-mode:lr-tb;fill:#000000;fill-opacity:1;fill-rule:nonzero;stroke:none"
       id="text220"><tspan
         x="0"
         y="0"
         id="tspan218">-</tspan></text><text
       transform="matrix(1,0,0,-1,693,555.8201)"
       style="font-variant:normal;font-weight:300;font-stretch:normal;font-size:20px;font-family:'Rubik Light';-inkscape-font-specification:Rubik-Light;writing-mode:lr-tb;fill:#000000;fill-opacity:1;fill-rule:nonzero;stroke:none"
       id="text228"><tspan
         x="0 10.72 20.66 31.58 43.200001 55.119999 60.279999 70.400002 81.120003 91.239998 96.400002 107.92 118.878 130.09801 138.218 149.37801 160.09801 171.718 182.87801 193.418 205.338 216.498 228.418 233.578 244.298 255.918 266.83801 278.758 290.27802 303.45801 308.61801 320.138 331.298 336.45801 347.17801 357.11801 367.83801 379.758 391.27802 401.99799 413.61801 423.55801 434.27802 447.55801 452.71799 457.73801 469.138 481.93799 494.03799 499.198 507.15799 518.79797 523.55798"
         y="0"
         id="tspan222">стерн как долгосрочной аренды по стандартам IFRS 16. </tspan><tspan
         x="0 13.06 18.219999 29.84 40.759998 50.599998 60.599998 71.82 81.339996 91.279999 102 111.94 122.86 128.02 139.17999 150.52 166.42 177.14 187.52 192.67999 203.39999 213.98 227.25999 240.53999 251.25999 256.42001 270 281.92001 293.84 304.56 316.48001 327.20001 338.35999 349.20001 360.35999 372.28 377.44 387.28 398 409.51999 420.47601 431.69601 446.67599 457.59601 469.51599 481.436 492.59601 503.31601 513.25598 525.17603"
         y="26"
         id="tspan224">В результате общая сумма финансовой задолженности </tspan><tspan
         x="0 10.84 24.02 35.639999 46.799999 57.52 68.739998 79.459999 84.620003 96.540001 107.26 112.42 123.378 135.278 136.12 150.94 156.10001 171.44 176.60001 187.32001 192.48 203.67999 214.88 220.03999 229.12 240.75999 252.39999 257.56 269.07999 280.23999 285.39999 296.60001 308.95999 314.12 322.07999 334.39999 345.84 351 364.28 375.5 387.42001 392.57999 403.81799 414.39801 425.73801 436.95801 447.87799 459.798 464.53799 469.698 480.418 485.578 497.09799"
         y="52"
         id="tspan226">выросла на 24 % — с 22 766 до 28 105 млн рублей, а по</tspan></text><text
       transform="matrix(1,0,0,-1,1201.258,503.8201)"
       style="font-variant:normal;font-weight:300;font-stretch:normal;font-size:20px;font-family:'Rubik Light';-inkscape-font-specification:Rubik-Light;writing-mode:lr-tb;fill:#000000;fill-opacity:1;fill-rule:nonzero;stroke:none"
       id="text232"><tspan
         x="0"
         y="0"
         id="tspan230">-</tspan></text><text
       transform="matrix(1,0,0,-1,693,477.8201)"
       style="font-variant:normal;font-weight:300;font-stretch:normal;font-size:20px;font-family:'Rubik Light';-inkscape-font-specification:Rubik-Light;writing-mode:lr-tb;fill:#000000;fill-opacity:1;fill-rule:nonzero;stroke:none"
       id="text238"><tspan
         x="0 10.12 20.84 30.68 41.400002 51.34 62.18 73.400002 82.919998 88.080002 99.239998 109.18 121.1 132.25999 147.64 158.56 170.48 182.39999 192.78 197.94 208.48 220.39999 231.12 241.06 252.22 260.33801 271.49799 276.65799 288.17801 299.138 310.358 318.71799 329.43799 334.59799 344.71799 349.87799 361.71799 374.77802 379.798 390.93799 404.25601 416.716 421.87601 432.45599 443.29599 454.13599 465.35599 477.276 487.81601 499.73599 510.95599 521.67603 532.05603"
         y="0"
         id="tspan234">казатель отношения чистого долга к EBITDA увеличился </tspan><tspan
         x="0 11.52 22.68 27.84 38.419998 50.040001 61.200001 72.040001 83.959999 94.339996 99.5 111.438 116.178 127.618 139.138 149.498 154.658 166.17799 177.338 182.498 193.218 204.37801 215.09801 225.03799 236.198 246.578 258.49799 270.418 285.67801 290.83801 302.758 313.478 318.638 329.75601 337.716 342.87601 354.396 365.31601 375.436 386.15601 397.496 409.116 419.496 424.65601 435.85599 448.17599 459.37601 471.69601 476.85599 483.45401"
         y="26"
         id="tspan236">до уровня 0,53х по состоянию на 31 декабря 2020 г.</tspan></text><text
       transform="matrix(1,0,0,-1,1425,875.2)"
       style="font-variant:normal;font-weight:500;font-stretch:normal;font-size:16px;font-family:'Rubik Medium';-inkscape-font-specification:Rubik-Medium;writing-mode:lr-tb;fill:#000000;fill-opacity:1;fill-rule:nonzero;stroke:none"
       id="text244"><tspan
         x="0 9.8400002 17.264 20.912001 30.976 40.223999 49.391998 58.543999 68.112 77.935997 87.152 90.800003 100.72 111.264 121.184"
         y="0"
         id="tspan240">31 декабря 2020</tspan><tspan
         x="0 9.8400002 17.264 20.912001 30.976 40.223999 49.391998 58.543999 68.112 77.935997 87.152 90.800003 100.72 111.264 118.688"
         y="136.39999"
         id="tspan242">31 декабря 2019</tspan></text><text
       transform="matrix(1,0,0,-1,1287,859.7468)"
       style="font-variant:normal;font-weight:500;font-stretch:normal;font-size:38.0759px;font-family:'Rubik Medium';-inkscape-font-specification:Rubik-Medium;writing-mode:lr-tb;fill:#000000;fill-opacity:1;fill-rule:nonzero;stroke:none"
       id="text248"><tspan
         x="0 23.607058 48.622925 57.30423 74.971451 100.06347"
         y="0"
         id="tspan246">28 105</tspan></text><path
       d="m 1287,799.52 h 122.663 v 35.156 H 1287 Z"
       style="fill:#faaa2d;fill-opacity:1;fill-rule:nonzero;stroke:none"
       id="path250" /><path
       d="m 1419.663,799.52 h 399.366 v 35.156 h -399.366 z"
       style="fill:#2960a1;fill-opacity:1;fill-rule:nonzero;stroke:none"
       id="path252" /><text
       transform="matrix(1,0,0,-1,1327.1636,811.4991)"
       style="font-variant:normal;font-weight:500;font-stretch:normal;font-size:16px;font-family:'Rubik Medium';-inkscape-font-specification:Rubik-Medium;writing-mode:lr-tb;fill:#ffffff;fill-opacity:1;fill-rule:nonzero;stroke:none"
       id="text256"><tspan
         x="0 9.9359999 11.936 22.48 32.416"
         y="0"
         id="tspan254">5 052</tspan></text><text
       transform="matrix(1,0,0,-1,1593.0516,811.4991)"
       style="font-variant:normal;font-weight:500;font-stretch:normal;font-size:16px;font-family:'Rubik Medium';-inkscape-font-specification:Rubik-Medium;writing-mode:lr-tb;fill:#ffffff;fill-opacity:1;fill-rule:nonzero;stroke:none"
       id="text260"><tspan
         x="0 9.9200001 20.016001 22.016001 32.560001 42.495998"
         y="0"
         id="tspan258">23 053</tspan></text><text
       transform="matrix(1,0,0,-1,99,125.328)"
       style="font-variant:normal;font-weight:300;font-stretch:normal;font-size:9.328px;font-family:'Rubik Light';-inkscape-font-specification:Rubik-Light;writing-mode:lr-tb;fill:#000000;fill-opacity:1;fill-rule:nonzero;stroke:none"
       id="text264"><tspan
         x="0"
         y="0"
         id="tspan262">4</tspan></text><text
       transform="matrix(1,0,0,-1,108.678,120)"
       style="font-variant:normal;font-weight:300;font-stretch:normal;font-size:16px;font-family:'Rubik Light';-inkscape-font-specification:Rubik-Light;writing-mode:lr-tb;fill:#000000;fill-opacity:1;fill-rule:nonzero;stroke:none"
       id="text270"><tspan
         x="0 11.616 21.152 29.823999 38.560001 47.136002 55.088001 64.624001 74.239998 83.776001 93.311996 97.440002 106.112 110.24 119.536 128.272 135.9664 144.89439 154.4304 163.00639 170.9584 179.95039 188.4144 196.51041 206.1264 215.6624 227.87041 231.9984 243.19839 254.39841 264.81439 268.94241 278.15839 287.0864 296.3024 305.5184 314.09439 323.31039 331.88641 344.09439 352.04639 356.17441 365.39041 374.31839 383.53439 387.66241 396.87839 405.61441 415.15039 423.72641 431.67841 440.3504 449.88641 458.62241"
         y="0"
         id="tspan266">Инвестиции в реконструкцию ППС подпадают под действие </tspan><tspan
         x="-9.6800003 -1.104 6.848 15.424 24.959999 34.175999 42.751999 52.048 60 68.575996 72.704002 76.720001 85.839996 96.080002 105.76 109.888 116.256 125.568 129.696 139.23199 143.36 152.28799 160.24001 169.536 178.112 190.09599 198.672 210.88 218.832 227.408 235.71201 239.84 248.51199 252.64 265.12 275.53601 288.73599 299.328 303.45599 312.12799 316.25601 327.12 336.65601 346.19199 354.76801 364.30399 372.88 381.80801 390.48001 399.40799 408.944 413.07199 422.28799 431.02399 439.328 447.28 455.9472 464.92319 472.53922 482.0752 491.0032 499.57919 507.53119 517.0672"
         y="20"
         id="tspan268">стандарта IFRS 16 и отражаются в МСФО в финансовой деятельности.</tspan></text><text
       transform="matrix(1,0,0,-1,693,101.25)"
       style="font-variant:normal;font-weight:500;font-stretch:normal;font-size:20px;font-family:'Rubik Medium';-inkscape-font-specification:Rubik-Medium;writing-mode:lr-tb;fill:#000000;fill-opacity:1;fill-rule:nonzero;stroke:none"
       id="text274"><tspan
         x="0 13.7 25.98 37.540001 50.119999 62.599998 74.120003 85.639999 90.199997 101.64 112.26 123.7 135.39999 146.86 158.3 162.86 175.10001 186.96001 191.52 203.75999 215.62 227.89999 238.52 253.8 265.25601 277.336"
         y="0"
         id="tspan272">Средняя ставка по портфелю</tspan></text><g
       id="g276"><g
         id="g278"><g
           id="g284"><g
             id="g286"><path
               d="m 1064.358,391.562 v -18.679 h 118.3 L 1100.47,217.224 h 37.359 l 80.942,153.168 v 21.17 z m -161.783,0 v -94.641 h 27.396 c 6.308,4.981 13.405,8.507 21.294,10.585 v 0 c 7.884,2.074 15.316,3.113 22.29,3.113 v 0 c 15.604,0 27.186,-3.529 34.743,-10.584 v 0 c 7.554,-7.06 11.332,-16.811 11.332,-29.265 v 0 c 0,-12.452 -3.86,-22.208 -11.581,-29.263 v 0 c -7.721,-7.06 -20.049,-10.585 -36.984,-10.585 v 0 c -11.955,0 -23.163,1.949 -33.623,5.853 v 0 c -10.46,3.898 -20.422,10.25 -29.887,19.053 v 0 l -12.452,-14.944 c 9.465,-8.803 21.002,-15.776 34.619,-20.92 v 0 c 13.612,-5.145 28.224,-7.722 43.833,-7.722 v 0 c 29.221,0 50.64,5.231 64.256,15.691 v 0 c 13.612,10.461 20.423,24.738 20.423,42.837 v 0 c 0,18.096 -6.687,32.378 -20.05,42.838 v 0 c -13.367,10.46 -34.081,15.69 -62.139,15.69 v 0 c -5.646,0 -10.752,-0.416 -15.317,-1.245 v 0 c -4.568,-0.833 -8.51,-1.662 -11.829,-2.491 v 0 c -3.822,-1.163 -7.223,-2.408 -10.212,-3.735 v 0 52.301 h 104.603 v 17.434 z m -209.575,0 V 372.883 H 811.3 L 729.112,217.224 h 37.359 l 80.942,153.168 v 21.17 z M 839.268,246.488 c -3.406,-3.736 -5.106,-8.094 -5.106,-13.076 v 0 c 0,-4.98 1.658,-9.339 4.981,-13.075 v 0 c 3.32,-3.736 7.472,-5.603 12.453,-5.603 v 0 c 1.658,0 3.152,0.167 4.483,0.497 v 0 c 0.662,0.168 1.245,0.417 1.743,0.747 v 0 c -0.666,-4.98 -2.863,-8.922 -6.599,-11.829 v 0 c -3.736,-2.904 -7.764,-4.359 -12.08,-4.359 v 0 -8.716 c 3.985,0 8.009,0.708 12.08,2.116 v 0 c 4.066,1.412 7.678,3.654 10.833,6.724 v 0 c 3.153,3.075 5.728,6.974 7.721,11.707 v 0 c 1.993,4.731 2.988,10.335 2.988,16.811 v 0 c 0,6.308 -1.743,11.829 -5.23,16.561 v 0 c -3.486,4.733 -8.386,7.099 -14.694,7.099 v 0 c -5.647,0 -10.172,-1.869 -13.573,-5.604"
               style="fill:url(#linearGradient292);stroke:none"
               id="path294" /></g></g></g></g><g
       id="g296"><g
         id="g298"
         clip-path="url(#clipPath302)"><g
           id="g304"
           transform="translate(845.75,180)"><path
             d="m 0,0 h -138 c -11.046,0 -20,-8.954 -20,-20 0,-11.046 8.954,-20 20,-20 H 0 c 11.046,0 20,8.954 20,20 C 20,-8.954 11.046,0 0,0"
             style="fill:#e8e8ed;fill-opacity:1;fill-rule:nonzero;stroke:none"
             id="path306" /></g></g></g><text
       transform="matrix(1,0,0,-1,710.111,152.7173)"
       style="font-variant:normal;font-weight:500;font-stretch:normal;font-size:28px;font-family:'Rubik Medium';-inkscape-font-specification:Rubik-Medium;writing-mode:lr-tb;fill:#000000;fill-opacity:1;fill-rule:nonzero;stroke:none"
       id="text310"><tspan
         x="0 17.136 34.327999 50.931999 68.739998 84.924004 102.396 117.264"
         y="0"
         id="tspan308">процента</tspan></text><text
       transform="matrix(1,0,0,-1,1287,723.3468)"
       style="font-variant:normal;font-weight:500;font-stretch:normal;font-size:38.0759px;font-family:'Rubik Medium';-inkscape-font-specification:Rubik-Medium;writing-mode:lr-tb;fill:#000000;fill-opacity:1;fill-rule:nonzero;stroke:none"
       id="text314"><tspan
         x="0 23.607058 47.214115 55.89542 75.580658 99.492325"
         y="0"
         id="tspan312">22 766</tspan></text><text
       transform="matrix(1,0,0,-1,1309.9446,613.8681)"
       style="font-variant:normal;font-weight:300;font-stretch:normal;font-size:16px;font-family:'Rubik Light';-inkscape-font-specification:Rubik-Light;writing-mode:lr-tb;fill:#000000;fill-opacity:1;fill-rule:nonzero;stroke:none"
       id="text318"><tspan
         x="0 10.112 18.688 28.224001 35.919998 44.848 53.52 62.096001 70.192001 79.727997 88.463997 92.592003 100.688 109.984 118.72 127.936 137.472 145.424"
         y="0"
         id="tspan316">Банковские кредиты</tspan></text><path
       d="m 1287,612.906 h 12.945 V 626 H 1287 Z"
       style="fill:#faaa2d;fill-opacity:1;fill-rule:nonzero;stroke:none"
       id="path320" /><text
       transform="matrix(1,0,0,-1,1525.9368,613.8681)"
       style="font-variant:normal;font-weight:300;font-stretch:normal;font-size:16px;font-family:'Rubik Light';-inkscape-font-specification:Rubik-Light;writing-mode:lr-tb;fill:#000000;fill-opacity:1;fill-rule:nonzero;stroke:none"
       id="text324"><tspan
         x="0 10.592 19.664 28.639999 38.175999 44.863998 53.439999 63.056 72.592003"
         y="0"
         id="tspan322">Облигации</tspan></text><path
       d="m 1502.992,612.906 h 12.945 V 626 h -12.945 z"
       style="fill:#2960a1;fill-opacity:1;fill-rule:nonzero;stroke:none"
       id="path326" /><text
       transform="matrix(1,0,0,-1,1668.0896,613.8681)"
       style="font-variant:normal;font-weight:300;font-stretch:normal;font-size:16px;font-family:'Rubik Light';-inkscape-font-specification:Rubik-Light;writing-mode:lr-tb;fill:#000000;fill-opacity:1;fill-rule:nonzero;stroke:none"
       id="text330"><tspan
         x="0 13.2 22.736 32.271999 40.848 50.383999 58.959999 67.888 76.559998 87.103996 96.639999 100.768 109.744 119.28 127.152 136.688 146.224"
         y="0"
         id="tspan328">Финансовый лизинг</tspan></text><path
       d="m 1645.145,612.906 h 12.945 V 626 h -12.945 z"
       style="fill:#9ea3aa;fill-opacity:1;fill-rule:nonzero;stroke:none"
       id="path332" /><path
       d="m 1460.913,666.012 h 296.476 v 35.156 h -296.476 z"
       style="fill:#2960a1;fill-opacity:1;fill-rule:nonzero;stroke:none"
       id="path334" /><path
       d="m 1767.389,666.012 h 2.377 v 35.156 h -2.377 z"
       style="fill:#9ea3aa;fill-opacity:1;fill-rule:nonzero;stroke:none"
       id="path336" /><path
       d="m 1287,666.012 h 163.913 v 35.156 H 1287 Z"
       style="fill:#faaa2d;fill-opacity:1;fill-rule:nonzero;stroke:none"
       id="path338" /><text
       transform="matrix(1,0,0,-1,1348.7568,677.9911)"
       style="font-variant:normal;font-weight:500;font-stretch:normal;font-size:16px;font-family:'Rubik Medium';-inkscape-font-specification:Rubik-Medium;writing-mode:lr-tb;fill:#000000;fill-opacity:1;fill-rule:nonzero;stroke:none"
       id="text344"><tspan
         x="0 10.512 12.512 19.936001 29.856001 234.992 242.416 252.864 254.864 264.91199 275.35999"
         y="0"
         id="tspan340"
         style="fill:#ffffff">8 12014 6442</tspan></text><text
       transform="matrix(1,0,0,-1,1287,478.7416)"
       style="font-variant:normal;font-weight:500;font-stretch:normal;font-size:28px;font-family:'Rubik Medium';-inkscape-font-specification:Rubik-Medium;writing-mode:lr-tb;fill:#000000;fill-opacity:1;fill-rule:nonzero;stroke:none"
       id="text348"><tspan
         x="0 19.18 34.048 50.652 66.667999 82.711998 97.580002 113.596 130.78799 146.804 153.188 169.23199 186.424 202.608 220.22 237.692 252.56 270.03201 286.63599 298.8692 315.47321 321.85721 338.99319 355.5972 372.78922 387.6572 409.04919 425.0932 442.00519"
         y="0"
         id="tspan346">Структура кредитного портфеля</tspan></text><text
       transform="matrix(1,0,0,-1,1287,419.8167)"
       style="font-variant:normal;font-weight:300;font-stretch:normal;font-size:20px;font-family:'Rubik Light';-inkscape-font-specification:Rubik-Light;writing-mode:lr-tb;fill:#000000;fill-opacity:1;fill-rule:nonzero;stroke:none"
       id="text354"><tspan
         x="0 12.96 23.780001 34.400002 43.82 48.880001 62.360001 74.18 86 96.620003 108.44 119.06 130.12 140.86 153.94 165.75999 170.82001 182.24001 193.10001 204.22 212.48 217.53999 229.12 240.17999 253.36 264.78 275.39999 287.22 299.04001 310.85999 315.92001 327.73999 338.79999 351.98001 363.79999 375.62 387.44 398.95999 410.01999 420.76001 431.38 443.20001 448.26001 459 464.06 475.20001 485.67999 496.92001 508.04001 518.32001 528.58002 533.32202"
         y="0"
         id="tspan350">Весь финансовый долг Компании номинирован в рублях, </tspan><tspan
         x="0 10.74 15.8 26.42 37.16 47.439999 57.18 69 74.059998 84.68 89.739998 100.18 111 124.18 129.24001 140.3 152.12 157.17999 169 179.82001 184.88 196.3 207.36 218.78 229.52 240.34 251.86 266.73999 277.56 289.38 294.44 305.17999 315.79999 326.92001 342.07999 351.92001 363.73999 374.79999 387.98001 398.45999 403.51999 415.04001 426.85999 437.48001 447.5 456.78"
         y="26"
         id="tspan352">в связи с чем он не подвержен валютному риску.</tspan></text><text
       transform="matrix(1,0,0,-1,1309.9446,100.945)"
       style="font-variant:normal;font-weight:300;font-stretch:normal;font-size:16px;font-family:'Rubik Light';-inkscape-font-specification:Rubik-Light;writing-mode:lr-tb;fill:#000000;fill-opacity:1;fill-rule:nonzero;stroke:none"
       id="text358"><tspan
         x="0 10.816 19.584 28.559999 35.056 43.984001 52.560001 61.855999 70.783997 79.216003 88.751999 97.328003 105.632 109.76 118.336 127.632 136.368 145.90401 155.12"
         y="0"
         id="tspan356">Долгосрочная аренда</tspan></text><path
       d="m 1287,100 h 12.945 v 13.094 H 1287 Z"
       style="fill:#faaa2d;fill-opacity:1;fill-rule:nonzero;stroke:none"
       id="path360" /><text
       transform="matrix(1,0,0,-1,1547.8696,100.945)"
       style="font-variant:normal;font-weight:300;font-stretch:normal;font-size:16px;font-family:'Rubik Light';-inkscape-font-specification:Rubik-Light;writing-mode:lr-tb;fill:#000000;fill-opacity:1;fill-rule:nonzero;stroke:none"
       id="text364"><tspan
         x="0 9.8240004 19.120001 27.856001 37.071999 46.608002 54.560001"
         y="0"
         id="tspan362">Кредиты</tspan></text><path
       d="m 1524.925,100 h 12.945 v 13.094 h -12.945 z"
       style="fill:#2960a1;fill-opacity:1;fill-rule:nonzero;stroke:none"
       id="path366" /><text
       transform="matrix(1,0,0,-1,1687.2034,101.645)"
       style="font-variant:normal;font-weight:300;font-stretch:normal;font-size:14px;font-family:'Rubik Light';-inkscape-font-specification:Rubik-Light;writing-mode:lr-tb;fill:#000000;fill-opacity:1;fill-rule:nonzero;stroke:none"
       id="text370"><tspan
         x="0 11.55 19.893999 28.238001 35.742001 44.085999 51.59 59.402 66.989998 76.216003 84.559998 88.171997 96.026001 104.37 111.258 119.602 127.946"
         y="0"
         id="tspan368">Финансовый лизинг</tspan></text><path
       d="m 1664.259,100 h 12.945 v 13.094 h -12.945 z"
       style="fill:#9ea3aa;fill-opacity:1;fill-rule:nonzero;stroke:none"
       id="path372" /><text
       transform="matrix(1,0,0,-1,1286.5934,291.7122)"
       style="font-variant:normal;font-weight:500;font-stretch:normal;font-size:38.0759px;font-family:'Rubik Medium';-inkscape-font-specification:Rubik-Medium;writing-mode:lr-tb;fill:#000000;fill-opacity:1;fill-rule:nonzero;stroke:none"
       id="text376"><tspan
         x="0 23.911665 47.937557"
         y="0"
         id="tspan374">63%</tspan></text><text
       transform="matrix(1,0,0,-1,1284.9561,224.50824)"
       style="font-variant:normal;font-weight:500;font-stretch:normal;font-size:38.0759px;font-family:'Rubik Medium';-inkscape-font-specification:Rubik-Medium;writing-mode:lr-tb;fill:#000000;fill-opacity:1;fill-rule:nonzero;stroke:none"
       id="text382"><tspan
         x="0 17.667217 41.198124"
         y="0"
         id="tspan378">19%</tspan><tspan
         x="0 17.667217 42.683083"
         y="67.165886"
         id="tspan380">18%</tspan></text><path
       d="M 1821,322.617 H 1376.469 V 287.461 H 1821 Z"
       style="fill:#f2f2f2;fill-opacity:1;fill-rule:nonzero;stroke:none"
       id="path384" /><path
       d="m 1637.438,287.461 h -260.969 v 35.156 h 260.969 z"
       style="fill:#faaa2d;fill-opacity:1;fill-rule:nonzero;stroke:none"
       id="path386" /><path
       d="M 1821,255.439 H 1376.469 V 220.283 H 1821 Z"
       style="fill:#f2f2f2;fill-opacity:1;fill-rule:nonzero;stroke:none"
       id="path388" /><path
       d="m 1465.406,220.268 h -88.938 v 35.156 h 88.938 z"
       style="fill:#2960a1;fill-opacity:1;fill-rule:nonzero;stroke:none"
       id="path390" /><path
       d="M 1821,188.246 H 1376.469 V 153.09 H 1821 Z"
       style="fill:#f2f2f2;fill-opacity:1;fill-rule:nonzero;stroke:none"
       id="path392" /><path
       d="m 1451.813,153.09 h -75.344 v 35.156 h 75.344 z"
       style="fill:#9ea3aa;fill-opacity:1;fill-rule:nonzero;stroke:none"
       id="path394" /><text
       transform="matrix(1,0,0,-1,1287,352.6167)"
       style="font-variant:normal;font-weight:500;font-stretch:normal;font-size:16px;font-family:'Rubik Medium';-inkscape-font-specification:Rubik-Medium;writing-mode:lr-tb;fill:#000000;fill-opacity:1;fill-rule:nonzero;stroke:none"
       id="text398"><tspan
         x="0 9.8400002 17.264 20.511999 27.936001 37.855999 42.16 52.080002 62.624001 72.543999"
         y="0"
         id="tspan396">31.12.2020</tspan></text><text
       transform="matrix(1,0,0,-1,37.9502,1023)"
       style="font-variant:normal;font-weight:300;font-stretch:normal;font-size:20px;font-family:'Rubik Light';-inkscape-font-specification:Rubik-Light;writing-mode:lr-tb;fill:#000000;fill-opacity:1;fill-rule:nonzero;stroke:none"
       id="text402"><tspan
         x="0 11.9"
         y="0"
         id="tspan400">42</tspan></text><g
       id="g404"><g
         id="g406"><g
           id="g408"
           clip-path="url(#clipPath412)"><text
             transform="matrix(1,0,0,-1,99,1023)"
             style="font-variant:normal;font-weight:300;font-stretch:normal;font-size:20px;font-family:'Rubik Light';-inkscape-font-specification:Rubik-Light;writing-mode:lr-tb;fill:#000000;fill-opacity:1;fill-rule:nonzero;stroke:none"
             id="text416"><tspan
               x="0 13.24 18.4 28.02 39.18 52.459999 63.98 74.699997 86.620003 98.540001"
               y="0"
               id="tspan414">О компании</tspan></text></g></g></g><text
       transform="scale(1,-1)"
       style="font-variant:normal;font-weight:500;font-stretch:normal;font-size:16px;font-family:'Rubik Medium';-inkscape-font-specification:Rubik-Medium;writing-mode:lr-tb;fill:#000000;fill-opacity:1;fill-rule:nonzero;stroke:none"
       id="text344-7"
       x="1777.4576"
       y="-677.94421"><tspan
         id="tspan340-9"
         style="fill:#000000">2</tspan></text></g></svg>
