<?xml version="1.0" encoding="UTF-8" standalone="no"?>
<?xml-stylesheet type="text/css" href="main.css" ?>
<svg
   xmlns:dc="http://purl.org/dc/elements/1.1/"
   xmlns:cc="http://creativecommons.org/ns#"
   xmlns:rdf="http://www.w3.org/1999/02/22-rdf-syntax-ns#"
   xmlns:svg="http://www.w3.org/2000/svg"
   xmlns="http://www.w3.org/2000/svg"
   version="1.1"
   id="svg2"
   xml:space="preserve"
   width="2560"
   height="1440"
   viewBox="0 0 2560 1440"><metadata
     id="metadata8"><rdf:RDF><cc:Work
         rdf:about=""><dc:format>image/svg+xml</dc:format><dc:type
           rdf:resource="http://purl.org/dc/dcmitype/StillImage" /></cc:Work></rdf:RDF></metadata><defs
     id="defs6"><clipPath
       clipPathUnits="userSpaceOnUse"
       id="clipPath20"><path
         d="M 0,1080 H 1920 V 0 H 0 Z"
         id="path18" /></clipPath></defs><g
     id="g10"
     transform="matrix(1.3333333,0,0,-1.3333333,0,1440)"><g
       id="g12"><g
         id="g14"><g
           id="g16"
           clip-path="url(#clipPath20)"><path
             d="M 0,0 H 1920 V 1080 H 0 Z"
             style="fill:#ffffff;fill-opacity:1;fill-rule:nonzero;stroke:none"
             id="path22" /></g></g></g><text
       transform="matrix(1,0,0,-1,99,953.8201)"
       style="font-variant:normal;font-weight:500;font-stretch:normal;font-size:28px;font-family:'Rubik Medium';-inkscape-font-specification:Rubik-Medium;writing-mode:lr-tb;fill:#000000;fill-opacity:1;fill-rule:nonzero;stroke:none"
       id="text28"><tspan
         x="0 24.976 42.419998 59.863998 75.851997 93.295998 109.284 125.86 142.18401 158.172 174.244"
         y="0"
         id="tspan24">Финансовая </tspan><tspan
         x="0 16.576 31.416 47.599998 63.756001 78.596001 96.040001 112.616 128.604 143.444 158.284 164.696 181.804 198.38 204.79201 227.5 246.65199 271.62799"
         y="33.992001"
         id="tspan26">отчетность по МСФО</tspan></text><text
       transform="matrix(1,0,0,-1,99,867.8201)"
       style="font-variant:normal;font-weight:300;font-stretch:normal;font-size:20px;font-family:'Rubik Light';-inkscape-font-specification:Rubik-Light;writing-mode:lr-tb;fill:#000000;fill-opacity:1;fill-rule:nonzero;stroke:none"
       id="text48"><tspan
         x="0 12.28 23.440001 35.360001 46.080002 57.240002 68.459999 80.379997 91.900002 103.82 115.44 126.6 137.44 148.16 160.08 172 182.72 193.10001 198.25999 211.84 223.75999 235.67999 246.39999 258.32001 269.04001 280.20001 291.04001 301.76001 312.14001"
         y="0"
         id="tspan30">Консолидированная финансовая </tspan><tspan
         x="0 11.16 21.1 31.639999 42.560001 52.5 64.419998 75.580002 86.300003 96.239998 105.76 110.92 120.76 131.48 136.64 147.84 160.16 171.36 183.67999 188.84 200.75999 205.92 217.12 229.44 237.39999 248.84 254 262.35999 273.51999 285.04001 298.22 302.95999"
         y="26"
         id="tspan32">отчетность за 2020 и 2019 годы, </tspan><tspan
         x="0 10.72 15.88 25.82 36.540001 46.66 61.639999 72.559998 77.720001 88.440002 99.019997 110.54 122.46 132.39999 143.56 155.17999 165.89999 176.02 187.17999 198.10001 203.25999 213.10001 223.82001 233.94 245.16 260.42001 270.95999 281.88 293.79999 305.72 316.64001"
         y="52"
         id="tspan34">а также аудиторское заключение </tspan><tspan
         x="0 11.92 22.84 32.68 43.400002 54.240002 66.160004 76.879997 88.800003 102.08 115.26 125.62 130.78 141.5 152.08 163.60001 175.52 185.46001 196.62 208.24001 219.39999 230.24001"
         y="78"
         id="tspan36">независимых аудиторов </tspan><tspan
         x="0 11.62 22.34 32.18 45.459999 56.380001 72.279999 83.199997 95.120003 108.3 113.46 125.38 136.10001 141.25999 153.17999 165.10001 175.03999 185.96001 197.58 209.5 220.42 230.36 240.10001 250.82001 261.54001 273.45999 283.39999 294.32001"
         y="104"
         id="tspan38">размещены на интернет-сайте </tspan><tspan
         x="0 12.28 23.440001 36.720001 48.240002 58.959999 70.879997 82.800003 94.720001 99.879997 115.6 131.32001 147.03999 151.8 163.42 175.03999 184.78 200.5 211.42 223.02 227.78 234.74001"
         y="130"
         id="tspan40">Компании www.pgkweb.ru</tspan><tspan
         x="0 14 27 40.240002 45.400002 57.459999 71.459999 81.559998 93.839996 105.9 110.66 115.82 128.10001 139.25999 151.17999 161.89999 173.06 184.28 196.2 207.72 219.64 231.25999 242.42 253.25999 263.98001 275.89999 287.82001 298.54001 308.92001"
         y="182"
         id="tspan42">ПАО «ПГК». Консолидированная </tspan><tspan
         x="0 13.58 25.5 37.419998 48.139999 60.060001 70.779999 81.940002 92.779999 103.5 113.88 119.04 130.2 140.14 150.67999 161.60001 171.53999 183.46001 194.62 205.34 215.28 224.8 229.96001 239.8 250.52 255.67999 266.88 279.20001 290.39999 302.72"
         y="208"
         id="tspan44">финансовая отчетность за 2020 </tspan><tspan
         x="0 11.92 17.08 28.280001 40.599998 48.560001 60 65.160004 73.519997 84.68 96.199997"
         y="234"
         id="tspan46">и 2019 годы</tspan></text><g
       id="g50"
       transform="translate(495,869.1201)"><path
         d="M 0,0 H 921"
         style="fill:none;stroke:#e9e9e9;stroke-width:1;stroke-linecap:butt;stroke-linejoin:miter;stroke-miterlimit:10;stroke-dasharray:none;stroke-opacity:1"
         id="path52" /></g><g
       id="g54"
       transform="translate(1416,869.1201)"><path
         d="M 0,0 H 200"
         style="fill:none;stroke:#e9e9e9;stroke-width:1;stroke-linecap:butt;stroke-linejoin:miter;stroke-miterlimit:10;stroke-dasharray:none;stroke-opacity:1"
         id="path56" /></g><g
       id="g58"
       transform="translate(1616,869.1201)"><path
         d="M 0,0 H 200"
         style="fill:none;stroke:#e9e9e9;stroke-width:1;stroke-linecap:butt;stroke-linejoin:miter;stroke-miterlimit:10;stroke-dasharray:none;stroke-opacity:1"
         id="path60" /></g><g
       id="g62"
       transform="translate(495,836.4202)"><path
         d="M 0,0 H 921"
         style="fill:none;stroke:#e9e9e9;stroke-width:1;stroke-linecap:butt;stroke-linejoin:miter;stroke-miterlimit:10;stroke-dasharray:none;stroke-opacity:1"
         id="path64" /></g><g
       id="g66"
       transform="translate(1416,836.4202)"><path
         d="M 0,0 H 200"
         style="fill:none;stroke:#e9e9e9;stroke-width:1;stroke-linecap:butt;stroke-linejoin:miter;stroke-miterlimit:10;stroke-dasharray:none;stroke-opacity:1"
         id="path68" /></g><g
       id="g70"
       transform="translate(1616,836.4202)"><path
         d="M 0,0 H 200"
         style="fill:none;stroke:#e9e9e9;stroke-width:1;stroke-linecap:butt;stroke-linejoin:miter;stroke-miterlimit:10;stroke-dasharray:none;stroke-opacity:1"
         id="path72" /></g><g
       id="g74"
       transform="translate(495,607.5205)"><path
         d="M 0,0 H 921"
         style="fill:none;stroke:#e9e9e9;stroke-width:1;stroke-linecap:butt;stroke-linejoin:miter;stroke-miterlimit:10;stroke-dasharray:none;stroke-opacity:1"
         id="path76" /></g><g
       id="g78"
       transform="translate(1416,607.5205)"><path
         d="M 0,0 H 200"
         style="fill:none;stroke:#e9e9e9;stroke-width:1;stroke-linecap:butt;stroke-linejoin:miter;stroke-miterlimit:10;stroke-dasharray:none;stroke-opacity:1"
         id="path80" /></g><g
       id="g82"
       transform="translate(1616,607.5205)"><path
         d="M 0,0 H 200"
         style="fill:none;stroke:#e9e9e9;stroke-width:1;stroke-linecap:butt;stroke-linejoin:miter;stroke-miterlimit:10;stroke-dasharray:none;stroke-opacity:1"
         id="path84" /></g><g
       id="g86"
       transform="translate(495,574.8206)"><path
         d="M 0,0 H 921"
         style="fill:none;stroke:#e9e9e9;stroke-width:1;stroke-linecap:butt;stroke-linejoin:miter;stroke-miterlimit:10;stroke-dasharray:none;stroke-opacity:1"
         id="path88" /></g><g
       id="g90"
       transform="translate(1416,574.8206)"><path
         d="M 0,0 H 200"
         style="fill:none;stroke:#e9e9e9;stroke-width:1;stroke-linecap:butt;stroke-linejoin:miter;stroke-miterlimit:10;stroke-dasharray:none;stroke-opacity:1"
         id="path92" /></g><g
       id="g94"
       transform="translate(1616,574.8206)"><path
         d="M 0,0 H 200"
         style="fill:none;stroke:#e9e9e9;stroke-width:1;stroke-linecap:butt;stroke-linejoin:miter;stroke-miterlimit:10;stroke-dasharray:none;stroke-opacity:1"
         id="path96" /></g><g
       id="g98"
       transform="translate(495,546.1206)"><path
         d="M 0,0 H 921"
         style="fill:none;stroke:#e9e9e9;stroke-width:1;stroke-linecap:butt;stroke-linejoin:miter;stroke-miterlimit:10;stroke-dasharray:none;stroke-opacity:1"
         id="path100" /></g><g
       id="g102"
       transform="translate(1416,546.1206)"><path
         d="M 0,0 H 200"
         style="fill:none;stroke:#e9e9e9;stroke-width:1;stroke-linecap:butt;stroke-linejoin:miter;stroke-miterlimit:10;stroke-dasharray:none;stroke-opacity:1"
         id="path104" /></g><g
       id="g106"
       transform="translate(1616,546.1206)"><path
         d="M 0,0 H 200"
         style="fill:none;stroke:#e9e9e9;stroke-width:1;stroke-linecap:butt;stroke-linejoin:miter;stroke-miterlimit:10;stroke-dasharray:none;stroke-opacity:1"
         id="path108" /></g><g
       id="g110"
       transform="translate(495,513.4207)"><path
         d="M 0,0 H 921"
         style="fill:none;stroke:#e9e9e9;stroke-width:1;stroke-linecap:butt;stroke-linejoin:miter;stroke-miterlimit:10;stroke-dasharray:none;stroke-opacity:1"
         id="path112" /></g><g
       id="g114"
       transform="translate(1416,513.4207)"><path
         d="M 0,0 H 200"
         style="fill:none;stroke:#e9e9e9;stroke-width:1;stroke-linecap:butt;stroke-linejoin:miter;stroke-miterlimit:10;stroke-dasharray:none;stroke-opacity:1"
         id="path116" /></g><g
       id="g118"
       transform="translate(1616,513.4207)"><path
         d="M 0,0 H 200"
         style="fill:none;stroke:#e9e9e9;stroke-width:1;stroke-linecap:butt;stroke-linejoin:miter;stroke-miterlimit:10;stroke-dasharray:none;stroke-opacity:1"
         id="path120" /></g><g
       id="g122"
       transform="translate(495,480.7207)"><path
         d="M 0,0 H 921"
         style="fill:none;stroke:#e9e9e9;stroke-width:1;stroke-linecap:butt;stroke-linejoin:miter;stroke-miterlimit:10;stroke-dasharray:none;stroke-opacity:1"
         id="path124" /></g><g
       id="g126"
       transform="translate(1416,480.7207)"><path
         d="M 0,0 H 200"
         style="fill:none;stroke:#e9e9e9;stroke-width:1;stroke-linecap:butt;stroke-linejoin:miter;stroke-miterlimit:10;stroke-dasharray:none;stroke-opacity:1"
         id="path128" /></g><g
       id="g130"
       transform="translate(1616,480.7207)"><path
         d="M 0,0 H 200"
         style="fill:none;stroke:#e9e9e9;stroke-width:1;stroke-linecap:butt;stroke-linejoin:miter;stroke-miterlimit:10;stroke-dasharray:none;stroke-opacity:1"
         id="path132" /></g><g
       id="g134"
       transform="translate(495,448.0208)"><path
         d="M 0,0 H 921"
         style="fill:none;stroke:#e9e9e9;stroke-width:1;stroke-linecap:butt;stroke-linejoin:miter;stroke-miterlimit:10;stroke-dasharray:none;stroke-opacity:1"
         id="path136" /></g><g
       id="g138"
       transform="translate(1416,448.0208)"><path
         d="M 0,0 H 200"
         style="fill:none;stroke:#e9e9e9;stroke-width:1;stroke-linecap:butt;stroke-linejoin:miter;stroke-miterlimit:10;stroke-dasharray:none;stroke-opacity:1"
         id="path140" /></g><g
       id="g142"
       transform="translate(1616,448.0208)"><path
         d="M 0,0 H 200"
         style="fill:none;stroke:#e9e9e9;stroke-width:1;stroke-linecap:butt;stroke-linejoin:miter;stroke-miterlimit:10;stroke-dasharray:none;stroke-opacity:1"
         id="path144" /></g><g
       id="g146"
       transform="translate(495,415.3208)"><path
         d="M 0,0 H 921"
         style="fill:none;stroke:#e9e9e9;stroke-width:1;stroke-linecap:butt;stroke-linejoin:miter;stroke-miterlimit:10;stroke-dasharray:none;stroke-opacity:1"
         id="path148" /></g><g
       id="g150"
       transform="translate(1416,415.3208)"><path
         d="M 0,0 H 200"
         style="fill:none;stroke:#e9e9e9;stroke-width:1;stroke-linecap:butt;stroke-linejoin:miter;stroke-miterlimit:10;stroke-dasharray:none;stroke-opacity:1"
         id="path152" /></g><g
       id="g154"
       transform="translate(1616,415.3208)"><path
         d="M 0,0 H 200"
         style="fill:none;stroke:#e9e9e9;stroke-width:1;stroke-linecap:butt;stroke-linejoin:miter;stroke-miterlimit:10;stroke-dasharray:none;stroke-opacity:1"
         id="path156" /></g><g
       id="g158"
       transform="translate(495,382.6208)"><path
         d="M 0,0 H 921"
         style="fill:none;stroke:#e9e9e9;stroke-width:1;stroke-linecap:butt;stroke-linejoin:miter;stroke-miterlimit:10;stroke-dasharray:none;stroke-opacity:1"
         id="path160" /></g><g
       id="g162"
       transform="translate(1416,382.6208)"><path
         d="M 0,0 H 200"
         style="fill:none;stroke:#e9e9e9;stroke-width:1;stroke-linecap:butt;stroke-linejoin:miter;stroke-miterlimit:10;stroke-dasharray:none;stroke-opacity:1"
         id="path164" /></g><g
       id="g166"
       transform="translate(1616,382.6208)"><path
         d="M 0,0 H 200"
         style="fill:none;stroke:#e9e9e9;stroke-width:1;stroke-linecap:butt;stroke-linejoin:miter;stroke-miterlimit:10;stroke-dasharray:none;stroke-opacity:1"
         id="path168" /></g><g
       id="g170"
       transform="translate(495,353.9209)"><path
         d="M 0,0 H 921"
         style="fill:none;stroke:#e9e9e9;stroke-width:1;stroke-linecap:butt;stroke-linejoin:miter;stroke-miterlimit:10;stroke-dasharray:none;stroke-opacity:1"
         id="path172" /></g><g
       id="g174"
       transform="translate(1416,353.9209)"><path
         d="M 0,0 H 200"
         style="fill:none;stroke:#e9e9e9;stroke-width:1;stroke-linecap:butt;stroke-linejoin:miter;stroke-miterlimit:10;stroke-dasharray:none;stroke-opacity:1"
         id="path176" /></g><g
       id="g178"
       transform="translate(1616,353.9209)"><path
         d="M 0,0 H 200"
         style="fill:none;stroke:#e9e9e9;stroke-width:1;stroke-linecap:butt;stroke-linejoin:miter;stroke-miterlimit:10;stroke-dasharray:none;stroke-opacity:1"
         id="path180" /></g><g
       id="g182"
       transform="translate(495,321.2209)"><path
         d="M 0,0 H 921"
         style="fill:none;stroke:#e9e9e9;stroke-width:1;stroke-linecap:butt;stroke-linejoin:miter;stroke-miterlimit:10;stroke-dasharray:none;stroke-opacity:1"
         id="path184" /></g><g
       id="g186"
       transform="translate(1416,321.2209)"><path
         d="M 0,0 H 200"
         style="fill:none;stroke:#e9e9e9;stroke-width:1;stroke-linecap:butt;stroke-linejoin:miter;stroke-miterlimit:10;stroke-dasharray:none;stroke-opacity:1"
         id="path188" /></g><g
       id="g190"
       transform="translate(1616,321.2209)"><path
         d="M 0,0 H 200"
         style="fill:none;stroke:#e9e9e9;stroke-width:1;stroke-linecap:butt;stroke-linejoin:miter;stroke-miterlimit:10;stroke-dasharray:none;stroke-opacity:1"
         id="path192" /></g><g
       id="g194"
       transform="translate(495,288.521)"><path
         d="M 0,0 H 921"
         style="fill:none;stroke:#e9e9e9;stroke-width:1;stroke-linecap:butt;stroke-linejoin:miter;stroke-miterlimit:10;stroke-dasharray:none;stroke-opacity:1"
         id="path196" /></g><g
       id="g198"
       transform="translate(1416,288.521)"><path
         d="M 0,0 H 200"
         style="fill:none;stroke:#e9e9e9;stroke-width:1;stroke-linecap:butt;stroke-linejoin:miter;stroke-miterlimit:10;stroke-dasharray:none;stroke-opacity:1"
         id="path200" /></g><g
       id="g202"
       transform="translate(1616,288.521)"><path
         d="M 0,0 H 200"
         style="fill:none;stroke:#e9e9e9;stroke-width:1;stroke-linecap:butt;stroke-linejoin:miter;stroke-miterlimit:10;stroke-dasharray:none;stroke-opacity:1"
         id="path204" /></g><g
       id="g206"
       transform="translate(495,255.821)"><path
         d="M 0,0 H 921"
         style="fill:none;stroke:#e9e9e9;stroke-width:1;stroke-linecap:butt;stroke-linejoin:miter;stroke-miterlimit:10;stroke-dasharray:none;stroke-opacity:1"
         id="path208" /></g><g
       id="g210"
       transform="translate(1416,255.821)"><path
         d="M 0,0 H 200"
         style="fill:none;stroke:#e9e9e9;stroke-width:1;stroke-linecap:butt;stroke-linejoin:miter;stroke-miterlimit:10;stroke-dasharray:none;stroke-opacity:1"
         id="path212" /></g><g
       id="g214"
       transform="translate(1616,255.821)"><path
         d="M 0,0 H 200"
         style="fill:none;stroke:#e9e9e9;stroke-width:1;stroke-linecap:butt;stroke-linejoin:miter;stroke-miterlimit:10;stroke-dasharray:none;stroke-opacity:1"
         id="path216" /></g><g
       id="g218"
       transform="translate(495,223.1211)"><path
         d="M 0,0 H 921"
         style="fill:none;stroke:#e9e9e9;stroke-width:1;stroke-linecap:butt;stroke-linejoin:miter;stroke-miterlimit:10;stroke-dasharray:none;stroke-opacity:1"
         id="path220" /></g><g
       id="g222"
       transform="translate(1416,223.1211)"><path
         d="M 0,0 H 200"
         style="fill:none;stroke:#e9e9e9;stroke-width:1;stroke-linecap:butt;stroke-linejoin:miter;stroke-miterlimit:10;stroke-dasharray:none;stroke-opacity:1"
         id="path224" /></g><g
       id="g226"
       transform="translate(1616,223.1211)"><path
         d="M 0,0 H 200"
         style="fill:none;stroke:#e9e9e9;stroke-width:1;stroke-linecap:butt;stroke-linejoin:miter;stroke-miterlimit:10;stroke-dasharray:none;stroke-opacity:1"
         id="path228" /></g><g
       id="g230"
       transform="translate(495,190.4211)"><path
         d="M 0,0 H 921"
         style="fill:none;stroke:#e9e9e9;stroke-width:1;stroke-linecap:butt;stroke-linejoin:miter;stroke-miterlimit:10;stroke-dasharray:none;stroke-opacity:1"
         id="path232" /></g><g
       id="g234"
       transform="translate(1416,190.4211)"><path
         d="M 0,0 H 200"
         style="fill:none;stroke:#e9e9e9;stroke-width:1;stroke-linecap:butt;stroke-linejoin:miter;stroke-miterlimit:10;stroke-dasharray:none;stroke-opacity:1"
         id="path236" /></g><g
       id="g238"
       transform="translate(1616,190.4211)"><path
         d="M 0,0 H 200"
         style="fill:none;stroke:#e9e9e9;stroke-width:1;stroke-linecap:butt;stroke-linejoin:miter;stroke-miterlimit:10;stroke-dasharray:none;stroke-opacity:1"
         id="path240" /></g><g
       id="g242"
       transform="translate(495,157.7212)"><path
         d="M 0,0 H 921"
         style="fill:none;stroke:#e9e9e9;stroke-width:1;stroke-linecap:butt;stroke-linejoin:miter;stroke-miterlimit:10;stroke-dasharray:none;stroke-opacity:1"
         id="path244" /></g><g
       id="g246"
       transform="translate(1416,157.7212)"><path
         d="M 0,0 H 200"
         style="fill:none;stroke:#e9e9e9;stroke-width:1;stroke-linecap:butt;stroke-linejoin:miter;stroke-miterlimit:10;stroke-dasharray:none;stroke-opacity:1"
         id="path248" /></g><g
       id="g250"
       transform="translate(1616,157.7212)"><path
         d="M 0,0 H 200"
         style="fill:none;stroke:#e9e9e9;stroke-width:1;stroke-linecap:butt;stroke-linejoin:miter;stroke-miterlimit:10;stroke-dasharray:none;stroke-opacity:1"
         id="path252" /></g><g
       id="g254"
       transform="translate(495,125.0212)"><path
         d="M 0,0 H 921"
         style="fill:none;stroke:#e9e9e9;stroke-width:1;stroke-linecap:butt;stroke-linejoin:miter;stroke-miterlimit:10;stroke-dasharray:none;stroke-opacity:1"
         id="path256" /></g><g
       id="g258"
       transform="translate(1416,125.0212)"><path
         d="M 0,0 H 200"
         style="fill:none;stroke:#e9e9e9;stroke-width:1;stroke-linecap:butt;stroke-linejoin:miter;stroke-miterlimit:10;stroke-dasharray:none;stroke-opacity:1"
         id="path260" /></g><g
       id="g262"
       transform="translate(1616,125.0212)"><path
         d="M 0,0 H 200"
         style="fill:none;stroke:#e9e9e9;stroke-width:1;stroke-linecap:butt;stroke-linejoin:miter;stroke-miterlimit:10;stroke-dasharray:none;stroke-opacity:1"
         id="path264" /></g><g
       id="g266"
       transform="translate(495,803.7202)"><path
         d="M 0,0 H 921"
         style="fill:none;stroke:#e9e9e9;stroke-width:1;stroke-linecap:butt;stroke-linejoin:miter;stroke-miterlimit:10;stroke-dasharray:none;stroke-opacity:1"
         id="path268" /></g><g
       id="g270"
       transform="translate(1416,803.7202)"><path
         d="M 0,0 H 200"
         style="fill:none;stroke:#e9e9e9;stroke-width:1;stroke-linecap:butt;stroke-linejoin:miter;stroke-miterlimit:10;stroke-dasharray:none;stroke-opacity:1"
         id="path272" /></g><g
       id="g274"
       transform="translate(1616,803.7202)"><path
         d="M 0,0 H 200"
         style="fill:none;stroke:#e9e9e9;stroke-width:1;stroke-linecap:butt;stroke-linejoin:miter;stroke-miterlimit:10;stroke-dasharray:none;stroke-opacity:1"
         id="path276" /></g><g
       id="g278"
       transform="translate(495,771.0203)"><path
         d="M 0,0 H 921"
         style="fill:none;stroke:#e9e9e9;stroke-width:1;stroke-linecap:butt;stroke-linejoin:miter;stroke-miterlimit:10;stroke-dasharray:none;stroke-opacity:1"
         id="path280" /></g><g
       id="g282"
       transform="translate(1416,771.0203)"><path
         d="M 0,0 H 200"
         style="fill:none;stroke:#e9e9e9;stroke-width:1;stroke-linecap:butt;stroke-linejoin:miter;stroke-miterlimit:10;stroke-dasharray:none;stroke-opacity:1"
         id="path284" /></g><g
       id="g286"
       transform="translate(1616,771.0203)"><path
         d="M 0,0 H 200"
         style="fill:none;stroke:#e9e9e9;stroke-width:1;stroke-linecap:butt;stroke-linejoin:miter;stroke-miterlimit:10;stroke-dasharray:none;stroke-opacity:1"
         id="path288" /></g><g
       id="g290"
       transform="translate(495,738.3203)"><path
         d="M 0,0 H 921"
         style="fill:none;stroke:#e9e9e9;stroke-width:1;stroke-linecap:butt;stroke-linejoin:miter;stroke-miterlimit:10;stroke-dasharray:none;stroke-opacity:1"
         id="path292" /></g><g
       id="g294"
       transform="translate(1416,738.3203)"><path
         d="M 0,0 H 200"
         style="fill:none;stroke:#e9e9e9;stroke-width:1;stroke-linecap:butt;stroke-linejoin:miter;stroke-miterlimit:10;stroke-dasharray:none;stroke-opacity:1"
         id="path296" /></g><g
       id="g298"
       transform="translate(1616,738.3203)"><path
         d="M 0,0 H 200"
         style="fill:none;stroke:#e9e9e9;stroke-width:1;stroke-linecap:butt;stroke-linejoin:miter;stroke-miterlimit:10;stroke-dasharray:none;stroke-opacity:1"
         id="path300" /></g><g
       id="g302"
       transform="translate(495,705.6204)"><path
         d="M 0,0 H 921"
         style="fill:none;stroke:#e9e9e9;stroke-width:1;stroke-linecap:butt;stroke-linejoin:miter;stroke-miterlimit:10;stroke-dasharray:none;stroke-opacity:1"
         id="path304" /></g><g
       id="g306"
       transform="translate(1416,705.6204)"><path
         d="M 0,0 H 200"
         style="fill:none;stroke:#e9e9e9;stroke-width:1;stroke-linecap:butt;stroke-linejoin:miter;stroke-miterlimit:10;stroke-dasharray:none;stroke-opacity:1"
         id="path308" /></g><g
       id="g310"
       transform="translate(1616,705.6204)"><path
         d="M 0,0 H 200"
         style="fill:none;stroke:#e9e9e9;stroke-width:1;stroke-linecap:butt;stroke-linejoin:miter;stroke-miterlimit:10;stroke-dasharray:none;stroke-opacity:1"
         id="path312" /></g><g
       id="g314"
       transform="translate(495,672.9204)"><path
         d="M 0,0 H 921"
         style="fill:none;stroke:#e9e9e9;stroke-width:1;stroke-linecap:butt;stroke-linejoin:miter;stroke-miterlimit:10;stroke-dasharray:none;stroke-opacity:1"
         id="path316" /></g><g
       id="g318"
       transform="translate(1416,672.9204)"><path
         d="M 0,0 H 200"
         style="fill:none;stroke:#e9e9e9;stroke-width:1;stroke-linecap:butt;stroke-linejoin:miter;stroke-miterlimit:10;stroke-dasharray:none;stroke-opacity:1"
         id="path320" /></g><g
       id="g322"
       transform="translate(1616,672.9204)"><path
         d="M 0,0 H 200"
         style="fill:none;stroke:#e9e9e9;stroke-width:1;stroke-linecap:butt;stroke-linejoin:miter;stroke-miterlimit:10;stroke-dasharray:none;stroke-opacity:1"
         id="path324" /></g><g
       id="g326"
       transform="translate(495,640.2205)"><path
         d="M 0,0 H 921"
         style="fill:none;stroke:#e9e9e9;stroke-width:1;stroke-linecap:butt;stroke-linejoin:miter;stroke-miterlimit:10;stroke-dasharray:none;stroke-opacity:1"
         id="path328" /></g><g
       id="g330"
       transform="translate(1416,640.2205)"><path
         d="M 0,0 H 200"
         style="fill:none;stroke:#e9e9e9;stroke-width:1;stroke-linecap:butt;stroke-linejoin:miter;stroke-miterlimit:10;stroke-dasharray:none;stroke-opacity:1"
         id="path332" /></g><g
       id="g334"
       transform="translate(1616,640.2205)"><path
         d="M 0,0 H 200"
         style="fill:none;stroke:#e9e9e9;stroke-width:1;stroke-linecap:butt;stroke-linejoin:miter;stroke-miterlimit:10;stroke-dasharray:none;stroke-opacity:1"
         id="path336" /></g><text
       transform="matrix(1,0,0,-1,495,953.8201)"
       style="font-variant:normal;font-weight:500;font-stretch:normal;font-size:28px;font-family:'Rubik Medium';-inkscape-font-specification:Rubik-Medium;writing-mode:lr-tb;fill:#000000;fill-opacity:1;fill-rule:nonzero;stroke:none"
       id="text340"><tspan
         x="0 18.76 35.335999 52.779999 68.767998 85.344002 102.228 119.672 137.256 154.7 171.892 188.468 204.79201 220.78 238.224 255.668 277.08801 294.53201 300.944 317.51999 332.35999 348.54401 364.70001 379.54001 385.952 402.52802 408.94 426.048 443.23999 460.68399 477.39999 498.82001 515.70398 531.776 547.56799 553.97998 571.42401 588.30798 605.75201 612.164 628.12402 644.84003 666.26001 681.09998 697.08801 713.07599 728.86798 735.28003 752.724 759.13599 776.24402 793.43597 810.01202 826.19598 842.35199 862.03601 868.448 884.43597 901.01202 917.336 933.91199 949.90002 965.85999 982.96802 1000.412 1016.988 1036.672 1043.084 1060.668 1077.244 1093.036 1109.6121 1127.196 1143.3521 1149.764 1164.744 1180.7321 1187.144 1199.604 1216.1801 1233.764"
         y="0"
         id="tspan338">Консолидированный отчет о прибылях или убытках и прочем совокупном доходе за год,</tspan></text><text
       transform="matrix(1,0,0,-1,495,919.8281)"
       style="font-variant:normal;font-weight:500;font-stretch:normal;font-size:28px;font-family:'Rubik Medium';-inkscape-font-specification:Rubik-Medium;writing-mode:lr-tb;fill:#000000;fill-opacity:1;fill-rule:nonzero;stroke:none"
       id="text344"><tspan
         x="0 14.98 30.968 46.956001 63.532001 80.975998 97.160004 114.604 130.92799 153.58 171.024 188.468 204.45599 220.528 226.94 244.1292 257.0932 263.50519 281.0892 297.24521 313.23318 329.22119 345.93719 363.12921 379.2012 385.61319 395.72119 412.0452 418.45721 438.1412 455.02521 472.46921 478.8812 496.07321 512.0332 528.74921 536.25317"
         y="0"
         id="tspan342">закончившийся 31 декабря (в млн руб.)</tspan></text><text
       transform="matrix(1,0,0,-1,1564.9606,875.1201)"
       style="font-variant:normal;font-weight:500;font-stretch:normal;font-size:20px;font-family:'Rubik Medium';-inkscape-font-specification:Rubik-Medium;writing-mode:lr-tb;fill:#000000;fill-opacity:1;fill-rule:nonzero;stroke:none"
       id="text348"><tspan
         x="0 12.38 25.52 37.900002 203.92 216.3 229.44 238.7"
         y="0"
         id="tspan346">20202019</tspan></text><text
       transform="matrix(1,0,0,-1,495.0006,843.4201)"
       style="font-variant:normal;font-weight:500;font-stretch:normal;font-size:20px;font-family:'Rubik Medium';-inkscape-font-specification:Rubik-Medium;writing-mode:lr-tb;fill:#000000;fill-opacity:1;fill-rule:nonzero;stroke:none"
       id="text352"><tspan
         x="0 14.58 26.860001 38.700001 51.259998 63.099998 75.160004 92.279999 103.7 120.38 137.06 149.52 161.06 172.48 183.96001 188.53999 200.38 212.60001 224.14 236.42 247.84 260.57999 273.04001"
         y="0"
         id="tspan350">Продолжающиеся операции</tspan></text><text
       transform="matrix(1,0,0,-1,495.0006,810.7201)"
       style="font-variant:normal;font-weight:300;font-stretch:normal;font-size:20px;font-family:'Rubik Light';-inkscape-font-specification:Rubik-Light;writing-mode:lr-tb;fill:#000000;fill-opacity:1;fill-rule:nonzero;stroke:none"
       id="text368"><tspan
         x="0 13.06 26.24 37.860001 48.439999 58.98 69.099998 1065.78 1078.14 1086.1 1089.48 1097.4399 1109.8 1260.92 1273.28 1284.92 1289.28 1301.6 1313.04"
         y="0"
         id="tspan354">Выручка81,18286,091</tspan><tspan
         x="0 13.02 22.959999 34.119999 46.040001 59.32 70.480003 81.199997 91.139999 100.66 105.82 117.34 128.96001 140.88 152.03999 163.38 175 185.92 195.86 206.78 218.7 230.62 243.8 254.16 259.32001 269.89999 280.62 291.84 302.42001 310.78 315.94 327.85999 333.01999 346.29999 357.01999 366.95999 377.88 389.5 401.42001 412.14001 423.35999 434.51999 1047.5601 1053.08 1064.98 1076.92 1081.66 1093.1 1102.84 1114.62 1121 1245.96 1252.34 1263.86 1275.38 1280.12 1291.3199 1303.6801 1314.618 1320.998"
         y="32.700001"
         id="tspan356">Стоимость приобретенных услуг и материалов(40,578) (34,286) </tspan><tspan
         x="0 13 26.280001 37.439999 49.060001 59 70.919998 80.760002 91.480003 103.5 115.42 1050.0601 1055.74 1063.7 1075.22 1079.96 1091.48 1103.84 1114.62 1121 1250 1255.6801 1263.64 1274.84 1279.34 1291.7 1302.9 1314.62 1321"
         y="65.400002"
         id="tspan358">Амортизация(14,389) (12,820) </tspan><tspan
         x="0 12.56 23.280001 34 44.360001 55.52 67.040001 80.220001 85.379997 97.300003 108.02 113.18 124.7 135.62 147.24001 157.96001 169.12 181.03999 191.75999 1062.26 1067.72 1079.36 1083.16 1094.6 1103.6801 1114.62 1121 1260.54 1266.92 1275.28 1279.64 1291.54 1303.1801 1314.62 1321"
         y="98.099998"
         id="tspan360">Расходы на персонал(6,976) (7,465) </tspan><tspan
         x="0 6.3800001 17.639999 28.98 42.16 52.099998 63.259998 73.379997 78.540001 89.699997 99.639999 104.8 115.96 127.3 138.22 148.94 160.96001 171.88 183.8 194.72 206.64 218.56 228.94 235.32001 236.16 245.34 246.17999 259.23999 270.39999 281.12 291.84 301.78 312.5 324.42001 335.57999 346.42001 357.64001 368.56 380.48001 392.39999 403.32001 408.48001 419.06 430.39999 443.57999 453.51999 463.64001 474.35999 479.51999 490.67999 500.62 505.78 516.94 528.28003 539.20001 549.91998 561.94 572.85999 584.78003 595.70001 607.62 619.53998 1080.72 1086.4 1094.36 1106.6801 1114.64 1121.02 1285.58 1297.02 1308.66"
         y="130.8"
         id="tspan362">(Убыток от обесценения) / Восстановление убытка от обесценения(101) 568</tspan><tspan
         x="0.02 14.02 25.639999 36.799999 47.34 59.259998 70.18 75.339996 86.860001 98.019997 108.38 119.54 131.06 1069.2 1080.4 1084.9 1097.26 1109.58 1275.34 1283.3 1287.4399 1297.1801 1308.7"
         y="163.5"
         id="tspan364">Прочие доходы2,8091,730</tspan><tspan
         x="0.02 14.02 25.639999 36.799999 47.34 59.259998 70.18 75.339996 86.959999 97.68 108.4 118.76 129.92 141.44 1073.34 1078.86 1090.76 1103.12 1114.64 1121.02 1261.12 1266.8 1274.76 1279.5 1291.02 1302.92 1314.64 1321.02"
         y="196.2"
         id="tspan366">Прочие расходы(483) (1,340) </tspan></text><text
       transform="matrix(1,0,0,-1,495.0206,581.8201)"
       style="font-variant:normal;font-weight:500;font-stretch:normal;font-size:20px;font-family:'Rubik Medium';-inkscape-font-specification:Rubik-Medium;writing-mode:lr-tb;fill:#000000;fill-opacity:1;fill-rule:nonzero;stroke:none"
       id="text372"><tspan
         x="0 14.58 26.860001 39.32 51.259998 66.559998 78.620003 89.220001 93.800003 105.64 116.24 120.82 132.66 144.88 156.42 168.7 180.12 192.86 205.32001 217.16 229.62 242.08 253.92 266.38 270.95999 283.51999 295.06 306.54001 317.14001 328.67999 340.73999 351.34 363.79999 375.64001 387.06 397.66 1055.6801 1068.0601 1077.3199 1082.38 1095.42 1107.96 1254.36 1266.96 1279.34 1284.4 1297.02 1307.88"
         y="0"
         id="tspan370">Прибыль от операционной деятельности21,46432,478</tspan></text><text
       transform="matrix(1,0,0,-1,495.0206,520.4201)"
       style="font-variant:normal;font-weight:300;font-stretch:normal;font-size:20px;font-family:'Rubik Light';-inkscape-font-specification:Rubik-Light;writing-mode:lr-tb;fill:#000000;fill-opacity:1;fill-rule:nonzero;stroke:none"
       id="text380"><tspan
         x="0 16.5 28.42 40.34 51.060001 62.98 73.699997 84.860001 95.699997 108.88 119.8 124.96 136.48 147.64 158 169.16 180.67999 1086.72 1097.92 1109.5601 1274.46 1282.42 1287.16 1298.36 1309.8"
         y="0"
         id="tspan374">Финансовые доходы9691,252</tspan><tspan
         x="0 16.5 28.42 40.34 51.060001 62.98 73.699997 84.860001 95.699997 108.88 119.8 124.96 136.58 147.3 158.02 168.38 179.53999 191.06 1059.46 1065.4399 1076.64 1081.38 1092.58 1103.78 1114.62 1121 1258 1264.38 1275.9 1280.26 1292.16 1303.6801 1314.618 1320.998"
         y="32.700001"
         id="tspan376">Финансовые расходы(2,222) (3,436) </tspan><tspan
         x="0 12.28 22.860001 34.48 45.200001 56.360001 67.199997 77.919998 88.300003 93.459999 105.08 115.8 125.64 137.56 149.48 161.5 1069.42 1080.9399 1085.6801 1097.2 1109.1 1258.16 1264.14 1275.34 1279.84 1292.2 1303.84 1314.62 1321"
         y="65.400002"
         id="tspan378">Курсовая разница3,344(2,869) </tspan></text><text
       transform="matrix(1,0,0,-1,495.0206,422.3201)"
       style="font-variant:normal;font-weight:500;font-stretch:normal;font-size:20px;font-family:'Rubik Medium';-inkscape-font-specification:Rubik-Medium;writing-mode:lr-tb;fill:#000000;fill-opacity:1;fill-rule:nonzero;stroke:none"
       id="text386"><tspan
         x="0 13.52 25.98 37.400002 48 63.299999 74.839996 79.419998 94.660004 107.12 119.58 131 143.46001 154.88 166.72 178.38 193.67999 205.22 209.8 222.36 234.2 245.48 257.32001 269.88 285.17999 286.01999 296.17999 297.01999 304.23999 316.51999 327.94 339.35999 350.64001 362.48001 375.04001 390.34 397.56 1068.84 1081.22 1086.28 1099.42 1111.76 1251.4 1258.34 1270.6 1275.66 1288.8 1301.2 1313.8 1321.02"
         y="0"
         id="tspan382">Чистые финансовые доходы / (расходы) 2,091(5,053) </tspan><tspan
         x="0.02 14.6 26.879999 39.34 51.279999 66.580002 78.639999 89.239998 93.82 106.38 118.22 122.8 135.25999 146.67999 158.74001 170.58 179.48 191.32001 203.16 215.10001 227.16 239 256.12 267.66 280.12 292.57999 1053.5601 1065.9399 1078.54 1083.8199 1096.22 1108.62 1256.12 1268.5 1278.14 1283.2 1296.24 1308.62"
         y="32.700001"
         id="tspan384">Прибыль до налогообложения23,55527,425</tspan></text><text
       transform="matrix(1,0,0,-1,495.0406,328.2201)"
       style="font-variant:normal;font-weight:300;font-stretch:normal;font-size:20px;font-family:'Rubik Light';-inkscape-font-specification:Rubik-Light;writing-mode:lr-tb;fill:#000000;fill-opacity:1;fill-rule:nonzero;stroke:none"
       id="text392"><tspan
         x="0 11.14 22.059999 32.18 42.759998 58.66 70.580002 82.5 87.660004 99.580002 110.3 121.52 132.67999 141.03999 146.2 158.12 168.84 174 185.52 197.14 209.06 220.39999 233.58 244.8 1058.24 1063.76 1075.28 1079.64 1091.54 1103.1801 1114.62 1121 1259.1801 1264.7 1276.22 1280.02 1291.46 1302.9 1314.62 1321"
         y="0"
         id="tspan388">Текущий налог на прибыль(4,465) (4,990) </tspan><tspan
         x="0 13.24 23.18 34.400002 45.560001 60.540001 71.459999 83.379997 95.300003 108.48 120.4 125.56 137.48 148.2 159.42 170.58 178.94 184.10001 196.02 206.74001 211.89999 223.42 235.03999 246.96001 258.29999 271.48001 282.70001 1074.74 1081.12 1092.64 1103.84 1114.62 1121 1274.1801 1279.98 1292.34 1303.78 1314.62 1321"
         y="32.700001"
         id="tspan390">Отложенный налог на прибыль(329) (892) </tspan></text><text
       transform="matrix(1,0,0,-1,495.0406,262.8201)"
       style="font-variant:normal;font-weight:500;font-stretch:normal;font-size:20px;font-family:'Rubik Medium';-inkscape-font-specification:Rubik-Medium;writing-mode:lr-tb;fill:#000000;fill-opacity:1;fill-rule:nonzero;stroke:none"
       id="text398"><tspan
         x="0 14.58 26.860001 39.32 51.259998 66.559998 78.620003 89.220001 93.800003 106.26 110.84 122.68 134.62 151.3 163.75999 176.22 180.8 192.22 204.06 215.72 227.56 238.98 250.38 262.60001 275.06 290.35999 302.82001 307.39999 319.95999 331.79999 343.07999 354.92001 367.48001 372.06 382.76001 394.17999 398.76001 407.66 419.5 432.06 436.64001 448.85999 460.70001 465.28 477.5 489.78 501.62 514.17999 526.02002 538.08002 555.20001 566.62 583.29999 599.97998 612.44 626.5 637.91998 649.40002 653.97998 665.82001 678.03998 689.58002 701.85999 713.28003 726.02002 738.47998 749.96002 1062.46 1071.72 1084.7 1089.38 1099.66 1111.74 1256.04 1268.42 1277.6801 1282.96 1295.36 1308.4"
         y="0"
         id="tspan394">Прибыль и общий совокупный доход за год по продолжающимся операциям18,76121,543</tspan><tspan
         x="0 14.58 26.860001 38.400002 49.82 62.099998 73.519997 90.199997 101.74 114.2 126.66 138.08 149.56 154.14 166.7 178.24001 189.72 200.32001 211.86 223.92 234.52 246.98 258.82001 270.23999 280.84"
         y="32.700001"
         id="tspan396">Прекращенная деятельность</tspan></text><text
       transform="matrix(1,0,0,-1,495.0406,197.4201)"
       style="font-variant:normal;font-weight:300;font-stretch:normal;font-size:20px;font-family:'Rubik Light';-inkscape-font-specification:Rubik-Light;writing-mode:lr-tb;fill:#000000;fill-opacity:1;fill-rule:nonzero;stroke:none"
       id="text402"><tspan
         x="0 14 25.620001 37.540001 48.880001 62.060001 73.279999 82.800003 87.959999 99.120003 109.06 114.22 125.74 137.36 148.28 158.39999 170.02 180.74001 196.64 207.56 219.48 231.39999 242.56 254.48 259.64001 271.16 282.07999 292.45999 302.39999 313.32001 324.54001 334.06 345.98001 357.14001 367.85999 377.79999 389.72 394.45999 399.62 411.14001 422.29999 433.01999 444.23999 455.16 460.32001 471.16 484.34 494.88 505.79999 515.73999 526.46002 531.62 543.53998 554.26001 565.47998 576.64001 585 595.71997 600.88 612.79999 623.52002 628.67999 640.20001 651.82001 663.73999 675.08002 688.26001 699.47998 1075.74 1084.1 1088.46 1100.0601 1109.1 1273.12 1284.3199 1288.78 1299.8199 1309.5601"
         y="0"
         id="tspan400">Прибыль от прекращенной деятельности, после вычета налога на прибыль7,4742,679</tspan></text><text
       transform="matrix(1,0,0,-1,495.0406,164.7201)"
       style="font-variant:normal;font-weight:500;font-stretch:normal;font-size:20px;font-family:'Rubik Medium';-inkscape-font-specification:Rubik-Medium;writing-mode:lr-tb;fill:#000000;fill-opacity:1;fill-rule:nonzero;stroke:none"
       id="text406"><tspan
         x="0 14.58 26.860001 39.32 51.259998 66.559998 78.620003 89.220001 93.800003 106.26 110.84 122.68 134.62 151.3 163.75999 176.22 180.8 192.22 204.06 215.72 227.56 238.98 250.38 262.60001 275.06 290.35999 302.82001 307.39999 319.95999 331.79999 343.07999 354.92001 367.48001 372.06 382.76001 394.17999 398.76001 407.66 419.5 1053.42 1065.8 1078.34 1083.62 1096 1108.6 1253.52 1265.76 1278.58 1283.86 1296.24 1308.62"
         y="0"
         id="tspan404">Прибыль и общий совокупный доход за год26,23524,222</tspan></text><text
       transform="matrix(1,0,0,-1,495.0406,132.0201)"
       style="font-variant:normal;font-weight:300;font-stretch:normal;font-size:20px;font-family:'Rubik Light';-inkscape-font-specification:Rubik-Light;writing-mode:lr-tb;fill:#000000;fill-opacity:1;fill-rule:nonzero;stroke:none"
       id="text414"><tspan
         x="0 14 25.620001 37.540001 48.880001 62.060001 73.279999 82.800003 87.959999 99.879997 105.04 116.2 127.54 143.44 155.36 167.28 172.44 183.16 194.32001 205.16 216.32001 226.44 237.02 248.53999 260.45999 273.64001 285.56 290.72 302.23999 313.39999 323.76001 334.92001 346.44 351.60001 361.44 372.16 377.32001 385.67999 396.84 408.35999 413.10001 418.26001 429.78 441.39999 453.32001 463.85999 475.78 485.72 496.44 511.70001 527.59998 539.52002 551.44 562.15997 572.53998"
         y="0"
         id="tspan408">Прибыль и общий совокупный доход за год, причитающийся:</tspan><tspan
         x="0 13.02 24.18 35.52 46.240002 56.18 67.019997 77.940002 89.860001 101.78 113.7 123.82 134.53999 147.82001 152.98 165.25999 176.42 189.7 201.22 211.94 223.86 235.78 1059.26 1070.46 1082.1 1086.84 1098.04 1109.5601 1260.1801 1271.14 1282.66 1287.4 1298.6 1309.8"
         y="32.700001"
         id="tspan410">Собственникам Компании26,23524,222</tspan><tspan
         x="-457.28 -445.38 -396.01999 -382.78 -377.62 -367.5 -356.34 -343.06 -331.54001 -320.82001 -308.89999 -296.98001"
         y="-890.97998"
         id="tspan412">46О компании</tspan></text></g></svg>
