<?xml version="1.0" encoding="UTF-8" standalone="no"?>
<?xml-stylesheet type="text/css" href="main.css" ?>
<svg
   xmlns:dc="http://purl.org/dc/elements/1.1/"
   xmlns:cc="http://creativecommons.org/ns#"
   xmlns:rdf="http://www.w3.org/1999/02/22-rdf-syntax-ns#"
   xmlns:svg="http://www.w3.org/2000/svg"
   xmlns="http://www.w3.org/2000/svg"
   version="1.1"
   id="svg2"
   xml:space="preserve"
   width="2560"
   height="1440"
   viewBox="0 0 2560 1440"><metadata
     id="metadata8"><rdf:RDF><cc:Work
         rdf:about=""><dc:format>image/svg+xml</dc:format><dc:type
           rdf:resource="http://purl.org/dc/dcmitype/StillImage" /></cc:Work></rdf:RDF></metadata><defs
     id="defs6"><clipPath
       clipPathUnits="userSpaceOnUse"
       id="clipPath20"><path
         d="M 0,1080 H 1920 V 0 H 0 Z"
         id="path18" /></clipPath></defs><g
     id="g10"
     transform="matrix(1.3333333,0,0,-1.3333333,0,1440)"><g
       id="g12"><g
         id="g14"><g
           id="g16"
           clip-path="url(#clipPath20)"><path
             d="M 0,0 H 1920 V 1080 H 0 Z"
             style="fill:#ffffff;fill-opacity:1;fill-rule:nonzero;stroke:none"
             id="path22" /></g></g></g><g
       id="g24"
       transform="translate(292.8791,94.9844)"><path
         d="M 0,0 9.121,10.047 0,20.094 H -27.879 V 10.047 0 Z"
         style="fill:#f0f0f5;fill-opacity:1;fill-rule:nonzero;stroke:none"
         id="path26" /></g><text
       transform="matrix(1,0,0,-1,97,99.4401)"
       style="font-variant:normal;font-weight:300;font-stretch:normal;font-size:16px;font-family:'Rubik Light';-inkscape-font-specification:Rubik-Light;writing-mode:lr-tb;fill:#000000;fill-opacity:1;fill-rule:nonzero;stroke:none"
       id="text30"><tspan
         x="0 11.2 20.496 29.424 38.639999 47.568001 56.543999 68.528 77.264 86.800003 96.335999 105.072 109.2 118.736 127.312 131.44 140.01601 147.968 157.26401 161.07201"
         y="0"
         id="tspan28">Продолжение на стр. </tspan></text><text
       transform="matrix(1,0,0,-1,270.456,99.4401)"
       style="font-variant:normal;font-weight:500;font-stretch:normal;font-size:16px;font-family:'Rubik Medium';-inkscape-font-specification:Rubik-Medium;writing-mode:lr-tb;fill:#000000;fill-opacity:1;fill-rule:nonzero;stroke:none"
       id="text34"><tspan
         x="0 10.096"
         y="0"
         id="tspan32">47</tspan></text><g
       id="g36"
       transform="translate(495,867.1201)"><path
         d="M 0,0 H 921"
         style="fill:none;stroke:#e9e9e9;stroke-width:1;stroke-linecap:butt;stroke-linejoin:miter;stroke-miterlimit:10;stroke-dasharray:none;stroke-opacity:1"
         id="path38" /></g><g
       id="g40"
       transform="translate(1416,867.1201)"><path
         d="M 0,0 H 200"
         style="fill:none;stroke:#e9e9e9;stroke-width:1;stroke-linecap:butt;stroke-linejoin:miter;stroke-miterlimit:10;stroke-dasharray:none;stroke-opacity:1"
         id="path42" /></g><g
       id="g44"
       transform="translate(1616,867.1201)"><path
         d="M 0,0 H 200"
         style="fill:none;stroke:#e9e9e9;stroke-width:1;stroke-linecap:butt;stroke-linejoin:miter;stroke-miterlimit:10;stroke-dasharray:none;stroke-opacity:1"
         id="path46" /></g><g
       id="g48"
       transform="translate(495,834.4202)"><path
         d="M 0,0 H 921"
         style="fill:none;stroke:#e9e9e9;stroke-width:1;stroke-linecap:butt;stroke-linejoin:miter;stroke-miterlimit:10;stroke-dasharray:none;stroke-opacity:1"
         id="path50" /></g><g
       id="g52"
       transform="translate(1416,834.4202)"><path
         d="M 0,0 H 200"
         style="fill:none;stroke:#e9e9e9;stroke-width:1;stroke-linecap:butt;stroke-linejoin:miter;stroke-miterlimit:10;stroke-dasharray:none;stroke-opacity:1"
         id="path54" /></g><g
       id="g56"
       transform="translate(1616,834.4202)"><path
         d="M 0,0 H 200"
         style="fill:none;stroke:#e9e9e9;stroke-width:1;stroke-linecap:butt;stroke-linejoin:miter;stroke-miterlimit:10;stroke-dasharray:none;stroke-opacity:1"
         id="path58" /></g><g
       id="g60"
       transform="translate(495,801.7202)"><path
         d="M 0,0 H 921"
         style="fill:none;stroke:#e9e9e9;stroke-width:1;stroke-linecap:butt;stroke-linejoin:miter;stroke-miterlimit:10;stroke-dasharray:none;stroke-opacity:1"
         id="path62" /></g><g
       id="g64"
       transform="translate(1416,801.7202)"><path
         d="M 0,0 H 200"
         style="fill:none;stroke:#e9e9e9;stroke-width:1;stroke-linecap:butt;stroke-linejoin:miter;stroke-miterlimit:10;stroke-dasharray:none;stroke-opacity:1"
         id="path66" /></g><g
       id="g68"
       transform="translate(1616,801.7202)"><path
         d="M 0,0 H 200"
         style="fill:none;stroke:#e9e9e9;stroke-width:1;stroke-linecap:butt;stroke-linejoin:miter;stroke-miterlimit:10;stroke-dasharray:none;stroke-opacity:1"
         id="path70" /></g><g
       id="g72"
       transform="translate(495,769.0203)"><path
         d="M 0,0 H 921"
         style="fill:none;stroke:#e9e9e9;stroke-width:1;stroke-linecap:butt;stroke-linejoin:miter;stroke-miterlimit:10;stroke-dasharray:none;stroke-opacity:1"
         id="path74" /></g><g
       id="g76"
       transform="translate(1416,769.0203)"><path
         d="M 0,0 H 200"
         style="fill:none;stroke:#e9e9e9;stroke-width:1;stroke-linecap:butt;stroke-linejoin:miter;stroke-miterlimit:10;stroke-dasharray:none;stroke-opacity:1"
         id="path78" /></g><g
       id="g80"
       transform="translate(1616,769.0203)"><path
         d="M 0,0 H 200"
         style="fill:none;stroke:#e9e9e9;stroke-width:1;stroke-linecap:butt;stroke-linejoin:miter;stroke-miterlimit:10;stroke-dasharray:none;stroke-opacity:1"
         id="path82" /></g><g
       id="g84"
       transform="translate(495,736.3203)"><path
         d="M 0,0 H 921"
         style="fill:none;stroke:#e9e9e9;stroke-width:1;stroke-linecap:butt;stroke-linejoin:miter;stroke-miterlimit:10;stroke-dasharray:none;stroke-opacity:1"
         id="path86" /></g><g
       id="g88"
       transform="translate(1416,736.3203)"><path
         d="M 0,0 H 200"
         style="fill:none;stroke:#e9e9e9;stroke-width:1;stroke-linecap:butt;stroke-linejoin:miter;stroke-miterlimit:10;stroke-dasharray:none;stroke-opacity:1"
         id="path90" /></g><g
       id="g92"
       transform="translate(1616,736.3203)"><path
         d="M 0,0 H 200"
         style="fill:none;stroke:#e9e9e9;stroke-width:1;stroke-linecap:butt;stroke-linejoin:miter;stroke-miterlimit:10;stroke-dasharray:none;stroke-opacity:1"
         id="path94" /></g><g
       id="g96"
       transform="translate(495,703.6204)"><path
         d="M 0,0 H 921"
         style="fill:none;stroke:#e9e9e9;stroke-width:1;stroke-linecap:butt;stroke-linejoin:miter;stroke-miterlimit:10;stroke-dasharray:none;stroke-opacity:1"
         id="path98" /></g><g
       id="g100"
       transform="translate(1416,703.6204)"><path
         d="M 0,0 H 200"
         style="fill:none;stroke:#e9e9e9;stroke-width:1;stroke-linecap:butt;stroke-linejoin:miter;stroke-miterlimit:10;stroke-dasharray:none;stroke-opacity:1"
         id="path102" /></g><g
       id="g104"
       transform="translate(1616,703.6204)"><path
         d="M 0,0 H 200"
         style="fill:none;stroke:#e9e9e9;stroke-width:1;stroke-linecap:butt;stroke-linejoin:miter;stroke-miterlimit:10;stroke-dasharray:none;stroke-opacity:1"
         id="path106" /></g><g
       id="g108"
       transform="translate(495,670.9204)"><path
         d="M 0,0 H 921"
         style="fill:none;stroke:#e9e9e9;stroke-width:1;stroke-linecap:butt;stroke-linejoin:miter;stroke-miterlimit:10;stroke-dasharray:none;stroke-opacity:1"
         id="path110" /></g><g
       id="g112"
       transform="translate(1416,670.9204)"><path
         d="M 0,0 H 200"
         style="fill:none;stroke:#e9e9e9;stroke-width:1;stroke-linecap:butt;stroke-linejoin:miter;stroke-miterlimit:10;stroke-dasharray:none;stroke-opacity:1"
         id="path114" /></g><g
       id="g116"
       transform="translate(1616,670.9204)"><path
         d="M 0,0 H 200"
         style="fill:none;stroke:#e9e9e9;stroke-width:1;stroke-linecap:butt;stroke-linejoin:miter;stroke-miterlimit:10;stroke-dasharray:none;stroke-opacity:1"
         id="path118" /></g><g
       id="g120"
       transform="translate(495,638.2205)"><path
         d="M 0,0 H 921"
         style="fill:none;stroke:#e9e9e9;stroke-width:1;stroke-linecap:butt;stroke-linejoin:miter;stroke-miterlimit:10;stroke-dasharray:none;stroke-opacity:1"
         id="path122" /></g><g
       id="g124"
       transform="translate(1416,638.2205)"><path
         d="M 0,0 H 200"
         style="fill:none;stroke:#e9e9e9;stroke-width:1;stroke-linecap:butt;stroke-linejoin:miter;stroke-miterlimit:10;stroke-dasharray:none;stroke-opacity:1"
         id="path126" /></g><g
       id="g128"
       transform="translate(1616,638.2205)"><path
         d="M 0,0 H 200"
         style="fill:none;stroke:#e9e9e9;stroke-width:1;stroke-linecap:butt;stroke-linejoin:miter;stroke-miterlimit:10;stroke-dasharray:none;stroke-opacity:1"
         id="path130" /></g><g
       id="g132"
       transform="translate(495,605.5205)"><path
         d="M 0,0 H 921"
         style="fill:none;stroke:#e9e9e9;stroke-width:1;stroke-linecap:butt;stroke-linejoin:miter;stroke-miterlimit:10;stroke-dasharray:none;stroke-opacity:1"
         id="path134" /></g><g
       id="g136"
       transform="translate(1416,605.5205)"><path
         d="M 0,0 H 200"
         style="fill:none;stroke:#e9e9e9;stroke-width:1;stroke-linecap:butt;stroke-linejoin:miter;stroke-miterlimit:10;stroke-dasharray:none;stroke-opacity:1"
         id="path138" /></g><g
       id="g140"
       transform="translate(1616,605.5205)"><path
         d="M 0,0 H 200"
         style="fill:none;stroke:#e9e9e9;stroke-width:1;stroke-linecap:butt;stroke-linejoin:miter;stroke-miterlimit:10;stroke-dasharray:none;stroke-opacity:1"
         id="path142" /></g><g
       id="g144"
       transform="translate(495,572.8206)"><path
         d="M 0,0 H 921"
         style="fill:none;stroke:#e9e9e9;stroke-width:1;stroke-linecap:butt;stroke-linejoin:miter;stroke-miterlimit:10;stroke-dasharray:none;stroke-opacity:1"
         id="path146" /></g><g
       id="g148"
       transform="translate(1416,572.8206)"><path
         d="M 0,0 H 200"
         style="fill:none;stroke:#e9e9e9;stroke-width:1;stroke-linecap:butt;stroke-linejoin:miter;stroke-miterlimit:10;stroke-dasharray:none;stroke-opacity:1"
         id="path150" /></g><g
       id="g152"
       transform="translate(1616,572.8206)"><path
         d="M 0,0 H 200"
         style="fill:none;stroke:#e9e9e9;stroke-width:1;stroke-linecap:butt;stroke-linejoin:miter;stroke-miterlimit:10;stroke-dasharray:none;stroke-opacity:1"
         id="path154" /></g><g
       id="g156"
       transform="translate(495,540.1206)"><path
         d="M 0,0 H 921"
         style="fill:none;stroke:#e9e9e9;stroke-width:1;stroke-linecap:butt;stroke-linejoin:miter;stroke-miterlimit:10;stroke-dasharray:none;stroke-opacity:1"
         id="path158" /></g><g
       id="g160"
       transform="translate(1416,540.1206)"><path
         d="M 0,0 H 200"
         style="fill:none;stroke:#e9e9e9;stroke-width:1;stroke-linecap:butt;stroke-linejoin:miter;stroke-miterlimit:10;stroke-dasharray:none;stroke-opacity:1"
         id="path162" /></g><g
       id="g164"
       transform="translate(1616,540.1206)"><path
         d="M 0,0 H 200"
         style="fill:none;stroke:#e9e9e9;stroke-width:1;stroke-linecap:butt;stroke-linejoin:miter;stroke-miterlimit:10;stroke-dasharray:none;stroke-opacity:1"
         id="path166" /></g><g
       id="g168"
       transform="translate(495,507.4207)"><path
         d="M 0,0 H 921"
         style="fill:none;stroke:#e9e9e9;stroke-width:1;stroke-linecap:butt;stroke-linejoin:miter;stroke-miterlimit:10;stroke-dasharray:none;stroke-opacity:1"
         id="path170" /></g><g
       id="g172"
       transform="translate(1416,507.4207)"><path
         d="M 0,0 H 200"
         style="fill:none;stroke:#e9e9e9;stroke-width:1;stroke-linecap:butt;stroke-linejoin:miter;stroke-miterlimit:10;stroke-dasharray:none;stroke-opacity:1"
         id="path174" /></g><g
       id="g176"
       transform="translate(1616,507.4207)"><path
         d="M 0,0 H 200"
         style="fill:none;stroke:#e9e9e9;stroke-width:1;stroke-linecap:butt;stroke-linejoin:miter;stroke-miterlimit:10;stroke-dasharray:none;stroke-opacity:1"
         id="path178" /></g><g
       id="g180"
       transform="translate(495,474.7207)"><path
         d="M 0,0 H 921"
         style="fill:none;stroke:#e9e9e9;stroke-width:1;stroke-linecap:butt;stroke-linejoin:miter;stroke-miterlimit:10;stroke-dasharray:none;stroke-opacity:1"
         id="path182" /></g><g
       id="g184"
       transform="translate(1416,474.7207)"><path
         d="M 0,0 H 200"
         style="fill:none;stroke:#e9e9e9;stroke-width:1;stroke-linecap:butt;stroke-linejoin:miter;stroke-miterlimit:10;stroke-dasharray:none;stroke-opacity:1"
         id="path186" /></g><g
       id="g188"
       transform="translate(1616,474.7207)"><path
         d="M 0,0 H 200"
         style="fill:none;stroke:#e9e9e9;stroke-width:1;stroke-linecap:butt;stroke-linejoin:miter;stroke-miterlimit:10;stroke-dasharray:none;stroke-opacity:1"
         id="path190" /></g><g
       id="g192"
       transform="translate(495,442.0208)"><path
         d="M 0,0 H 921"
         style="fill:none;stroke:#e9e9e9;stroke-width:1;stroke-linecap:butt;stroke-linejoin:miter;stroke-miterlimit:10;stroke-dasharray:none;stroke-opacity:1"
         id="path194" /></g><g
       id="g196"
       transform="translate(1416,442.0208)"><path
         d="M 0,0 H 200"
         style="fill:none;stroke:#e9e9e9;stroke-width:1;stroke-linecap:butt;stroke-linejoin:miter;stroke-miterlimit:10;stroke-dasharray:none;stroke-opacity:1"
         id="path198" /></g><g
       id="g200"
       transform="translate(1616,442.0208)"><path
         d="M 0,0 H 200"
         style="fill:none;stroke:#e9e9e9;stroke-width:1;stroke-linecap:butt;stroke-linejoin:miter;stroke-miterlimit:10;stroke-dasharray:none;stroke-opacity:1"
         id="path202" /></g><g
       id="g204"
       transform="translate(495,409.3208)"><path
         d="M 0,0 H 921"
         style="fill:none;stroke:#e9e9e9;stroke-width:1;stroke-linecap:butt;stroke-linejoin:miter;stroke-miterlimit:10;stroke-dasharray:none;stroke-opacity:1"
         id="path206" /></g><g
       id="g208"
       transform="translate(1416,409.3208)"><path
         d="M 0,0 H 200"
         style="fill:none;stroke:#e9e9e9;stroke-width:1;stroke-linecap:butt;stroke-linejoin:miter;stroke-miterlimit:10;stroke-dasharray:none;stroke-opacity:1"
         id="path210" /></g><g
       id="g212"
       transform="translate(1616,409.3208)"><path
         d="M 0,0 H 200"
         style="fill:none;stroke:#e9e9e9;stroke-width:1;stroke-linecap:butt;stroke-linejoin:miter;stroke-miterlimit:10;stroke-dasharray:none;stroke-opacity:1"
         id="path214" /></g><g
       id="g216"
       transform="translate(495,376.6208)"><path
         d="M 0,0 H 921"
         style="fill:none;stroke:#e9e9e9;stroke-width:1;stroke-linecap:butt;stroke-linejoin:miter;stroke-miterlimit:10;stroke-dasharray:none;stroke-opacity:1"
         id="path218" /></g><g
       id="g220"
       transform="translate(1416,376.6208)"><path
         d="M 0,0 H 200"
         style="fill:none;stroke:#e9e9e9;stroke-width:1;stroke-linecap:butt;stroke-linejoin:miter;stroke-miterlimit:10;stroke-dasharray:none;stroke-opacity:1"
         id="path222" /></g><g
       id="g224"
       transform="translate(1616,376.6208)"><path
         d="M 0,0 H 200"
         style="fill:none;stroke:#e9e9e9;stroke-width:1;stroke-linecap:butt;stroke-linejoin:miter;stroke-miterlimit:10;stroke-dasharray:none;stroke-opacity:1"
         id="path226" /></g><g
       id="g228"
       transform="translate(495,343.9209)"><path
         d="M 0,0 H 921"
         style="fill:none;stroke:#e9e9e9;stroke-width:1;stroke-linecap:butt;stroke-linejoin:miter;stroke-miterlimit:10;stroke-dasharray:none;stroke-opacity:1"
         id="path230" /></g><g
       id="g232"
       transform="translate(1416,343.9209)"><path
         d="M 0,0 H 200"
         style="fill:none;stroke:#e9e9e9;stroke-width:1;stroke-linecap:butt;stroke-linejoin:miter;stroke-miterlimit:10;stroke-dasharray:none;stroke-opacity:1"
         id="path234" /></g><g
       id="g236"
       transform="translate(1616,343.9209)"><path
         d="M 0,0 H 200"
         style="fill:none;stroke:#e9e9e9;stroke-width:1;stroke-linecap:butt;stroke-linejoin:miter;stroke-miterlimit:10;stroke-dasharray:none;stroke-opacity:1"
         id="path238" /></g><g
       id="g240"
       transform="translate(495,311.2209)"><path
         d="M 0,0 H 921"
         style="fill:none;stroke:#e9e9e9;stroke-width:1;stroke-linecap:butt;stroke-linejoin:miter;stroke-miterlimit:10;stroke-dasharray:none;stroke-opacity:1"
         id="path242" /></g><g
       id="g244"
       transform="translate(1416,311.2209)"><path
         d="M 0,0 H 200"
         style="fill:none;stroke:#e9e9e9;stroke-width:1;stroke-linecap:butt;stroke-linejoin:miter;stroke-miterlimit:10;stroke-dasharray:none;stroke-opacity:1"
         id="path246" /></g><g
       id="g248"
       transform="translate(1616,311.2209)"><path
         d="M 0,0 H 200"
         style="fill:none;stroke:#e9e9e9;stroke-width:1;stroke-linecap:butt;stroke-linejoin:miter;stroke-miterlimit:10;stroke-dasharray:none;stroke-opacity:1"
         id="path250" /></g><text
       transform="matrix(1,0,0,-1,495,953.8201)"
       style="font-variant:normal;font-weight:500;font-stretch:normal;font-size:28px;font-family:'Rubik Medium';-inkscape-font-specification:Rubik-Medium;writing-mode:lr-tb;fill:#000000;fill-opacity:1;fill-rule:nonzero;stroke:none"
       id="text254"><tspan
         x="0 18.76 35.335999 52.779999 68.767998 85.344002 102.228 119.672 137.256 154.7 171.892 188.468 204.79201 220.78 238.224 255.668 277.08801 294.53201 300.944 317.51999 332.35999 348.54401 364.70001 379.54001 385.952 402.52802 408.94 430.276 447.72 465.164 481.15201 498.59601 514.58398 531.15997 547.48401 564.06 583.74402 590.15601 607.26398 623.84003 640.724 657.29999 681.26801 697.42401 714.86798 732.31201 749.75598 756.16803 771.14801 787.13599 793.54797 806.008 822.58398 840.16803"
         y="0"
         id="tspan252">Консолидированный отчет о финансовом положении за год,</tspan></text><text
       transform="matrix(1,0,0,-1,495,919.8281)"
       style="font-variant:normal;font-weight:500;font-stretch:normal;font-size:28px;font-family:'Rubik Medium';-inkscape-font-specification:Rubik-Medium;writing-mode:lr-tb;fill:#000000;fill-opacity:1;fill-rule:nonzero;stroke:none"
       id="text258"><tspan
         x="0 14.98 30.968 46.956001 63.532001 80.975998 97.160004 114.604 130.92799 153.58 171.024 188.468 204.45599 220.528 226.94 244.1292 257.0932 263.50519 281.0892 297.24521 313.23318 329.22119 345.93719 363.12921 379.2012 385.61319 395.72119 412.0452 418.45721 438.1412 455.02521 472.46921 478.8812 496.07321 512.0332 528.74921 536.25317"
         y="0"
         id="tspan256">закончившийся 31 декабря (в млн руб.)</tspan></text><text
       transform="matrix(1,0,0,-1,1564.9606,874.1201)"
       style="font-variant:normal;font-weight:500;font-stretch:normal;font-size:20px;font-family:'Rubik Medium';-inkscape-font-specification:Rubik-Medium;writing-mode:lr-tb;fill:#000000;fill-opacity:1;fill-rule:nonzero;stroke:none"
       id="text262"><tspan
         x="0 12.38 25.52 37.900002 203.92 216.3 229.44 238.7"
         y="0"
         id="tspan260">20202019</tspan></text><text
       transform="matrix(1,0,0,-1,495.0006,841.4201)"
       style="font-variant:normal;font-weight:300;font-stretch:normal;font-size:20px;font-family:'Rubik Light';-inkscape-font-specification:Rubik-Light;writing-mode:lr-tb;fill:#000000;fill-opacity:1;fill-rule:nonzero;stroke:none"
       id="text272"><tspan
         x="0 13.24 23.959999 35.880001 47.040001 57.880001 69.800003 82.980003 93.900002 99.059998 109.78 121.4 132.32001 143.84 154.56 164.5 175.34 1056.96 1068.4 1080.52 1084.88 1097.2 1108.64 1265.1 1276.54 1288.48 1291.86 1299.8199 1309.5601"
         y="0"
         id="tspan264">Основные средства98,05890,175</tspan><tspan
         x="0 14 24.92 38.200001 48.919998 58.860001 69.779999 81.400002 93.32 104.04 115.26 124.78 136.7 149.88 160.8 165.96001 176.67999 186.8 196.74001 208.66 219.5 232.67999 237.84 249.75999 254.92 263.28 273.85999 285.38 296.22 308.14001 1072.26 1083.78 1088.14 1099.74 1109.48 1272.88 1284.4 1288.54 1297.58 1309.48"
         y="32.700001"
         id="tspan266">Нематериальные активы и гудвил3,4733,743</tspan><tspan
         x="0 13 23.120001 33.060001 44.98 55.82 69 74.160004 85 90.160004 103.74 114.9 126.52 139.8 150.72 155.88 167.39999 179.02 189.74001 200.58 211.3 216.46001 227.98 239.14 250.36 259.88 269.72 280.88 291.72 302.44 314.35999 326.28 1061.08 1072.04 1083.5601 1088.02 1099.66 1111.26 1262.14 1270.1 1281.74 1286.2 1297.84 1309.48"
         y="65.400002"
         id="tspan268">Активы в форме права пользования24,64716,663</tspan><tspan
         x="0 14 25.620001 36.779999 47.32 59.240002 70.160004 75.32 86.160004 98.080002 109 120.16 131.5 142.66 154.28 165.44 175.38 187.3 200.48 211.39999 216.56 227.28 237.39999 247.34 259.26001 270.10001 1072.48 1080.4399 1084.8 1097.12 1109.48 1286.96 1298.16 1309.36"
         y="98.099998"
         id="tspan270">Прочие внеоборотные активы1,083296</tspan></text><text
       transform="matrix(1,0,0,-1,495.0006,710.6201)"
       style="font-variant:normal;font-weight:500;font-stretch:normal;font-size:20px;font-family:'Rubik Medium';-inkscape-font-specification:Rubik-Medium;writing-mode:lr-tb;fill:#000000;fill-opacity:1;fill-rule:nonzero;stroke:none"
       id="text276"><tspan
         x="0 15.2 25.799999 37.639999 46.540001 58.380001 62.959999 74.620003 87.080002 98.620003 110.46 122.4 134.24001 146.52 158.36 168.96001 181.42 196.72 208 212.58 224 235.42 246.02 258.48001 270.14001 281.98001 1050.72 1059.98 1072.36 1082 1087.28 1099.66 1111.74 1249.58 1258.84 1268.1 1281.02 1286.16 1299.28 1310.14"
         y="0"
         id="tspan274">Итого внеоборотных активов127,261110,877</tspan></text><text
       transform="matrix(1,0,0,-1,495.0006,645.2201)"
       style="font-variant:normal;font-weight:300;font-stretch:normal;font-size:20px;font-family:'Rubik Light';-inkscape-font-specification:Rubik-Light;writing-mode:lr-tb;fill:#000000;fill-opacity:1;fill-rule:nonzero;stroke:none"
       id="text296"><tspan
         x="0 11.98 22.700001 34.220001 44.939999 55.66 1074.26 1082.22 1086.96 1098.16 1109.36 1272.64 1280.6 1285.34 1296.78 1308.6801"
         y="0"
         id="tspan278">Запасы1,2961,540</tspan><tspan
         x="0 14 27.52 40.540001 45.700001 55.82 60.98 71.82 82.980003 92.82 106.1 117.02 132.92 143.84 155.75999 167.67999 1078.74 1090.26 1093.64 1101.6 1109.5601 1274.74 1285.9399 1290.08 1299.8199 1311.26"
         y="32.700001"
         id="tspan280">НДС к возмещению3,1192,757</tspan><tspan
         x="0 14 25.620001 36.540001 48.060001 59.220001 70.739998 81.959999 92.68 102.62 113.34 118.5 130.02 141.17999 146.34 158.25999 168.98 180.2 191.36 199.72 210.3 215.46001 227.38 238.10001 243.25999 254.78 266.39999 278.32001 289.66 302.84 314.06 1098.9 1108.64 1275.5 1286.7 1290.08 1298.04 1309.5601"
         y="65.400002"
         id="tspan282">Предоплата по налогу на прибыль782,139</tspan><tspan
         x="0 11.14 22.299999 33.919998 42.279999 53.439999 64.279999 75 85.379997 90.540001 102.46 107.62 119.14 130.75999 141.92 152.46001 163.17999 173.56 178.72 190.24001 201.16 212.5 224.42 234.36 245.52 257.14001 267.85999 277.98001 288.70001 299.07999 304.23999 314.07999 324.79999 336.32001 347.48001 358.70001 373.67999 384.60001 396.51999 408.44 419.60001 430.32001 440.26001 1061.4 1069.36 1081.3 1086.04 1097.48 1109.8 1270.02 1281.66 1286.02 1297.92 1309.36"
         y="98.099998"
         id="tspan284">Торговая и прочая дебиторская задолженность10,5026,456</tspan><tspan
         x="0 13 23.84 34.560001 46.48 57.200001 70.379997 75.540001 86.379997 99.559998 111.08 121.8 133.72 145.64 158.82001 1076.86 1088.0601 1091.86 1103.3 1113.04 1278.54 1290.0601 1293.4399 1301.4 1309.36"
         y="130.8"
         id="tspan286">Авансы выданные2,9714,116</tspan><tspan
         x="0 12.64 23.360001 35.279999 45.400002 56.560001 67.400002 78.120003 88.239998 100.16 111.08 116.24 127.76 138.67999 150.2 161.36 171.2 183.12 193.06 1100.5 1105.66 1121 1273.38 1285.5 1289.86 1301.4 1309.36"
         y="163.5"
         id="tspan288">Банковские депозиты — 8,416</tspan><tspan
         x="0 13.52 24.440001 36.360001 47.279999 62.259998 74.18 87.360001 98.279999 103.44 114.16 125.78 136.7 148.22 158.94 168.88 179.72 190.44 195.60001 207.52 212.67999 224.60001 234.96001 240.12 250.84 260.95999 271.79999 283.72 294.56 305.28 316.5 327.42001 339.34 349.28 1071.3 1081.34 1085.8 1097.4399 1109.8 1266.1 1277.3 1285.66 1289.04 1297 1308.64"
         y="196.2"
         id="tspan290">Денежные средства и их эквиваленты9,68227,168</tspan><tspan
         x="1061.08 1072.28 1080.64 1085.1 1096.74 1108.64 1259.54 1270.98 1282.1801 1286.92 1298.36 1309.8"
         y="228.89999"
         id="tspan292">27,64852,592</tspan><tspan
         x="0 13 23.120001 33.060001 44.98 55.82 69 73.739998 78.900002 90.419998 102.04 112.96 124.48 136.39999 147.12 156.96001 168.88 179.60001 190.14 201.06 212.98 224.89999 238.08 249 254.16 265.67999 276.89999 287.28 292.44 303.95999 315.57999 326.73999 338.26001 348.98001 363.95999 1100.5 1105.66 1121 1267.22 1275.1801 1283.14 1287.5 1299.8199 1309.5601"
         y="261.60001"
         id="tspan294">Активы, предназначенные для продажи — 11,079</tspan></text><text
       transform="matrix(1,0,0,-1,495.0006,350.9201)"
       style="font-variant:normal;font-weight:500;font-stretch:normal;font-size:20px;font-family:'Rubik Medium';-inkscape-font-specification:Rubik-Medium;writing-mode:lr-tb;fill:#000000;fill-opacity:1;fill-rule:nonzero;stroke:none"
       id="text302"><tspan
         x="0 15.2 25.799999 37.639999 46.540001 58.380001 62.959999 74.800003 86.739998 98.580002 110.86 122.7 133.3 145.75999 161.06 172.34 176.92 188.34 199.75999 210.36 222.82001 234.48 246.32001 1055.16 1067.54 1077.1801 1082.3 1094.84 1107.88 1258.72 1271.26 1283.86 1288.98 1300.88 1311.74"
         y="0"
         id="tspan298">Итого оборотных активов27,64863,671</tspan><tspan
         x="0 15.2 25.799999 37.639999 46.540001 58.380001 62.959999 74.379997 85.800003 96.400002 108.86 120.52 132.36 1044.28 1053.54 1065.9399 1078.76 1083.1801 1095.52 1108.66 1244.88 1254.14 1264.34 1277.16 1282.4399 1294.84 1307.88"
         y="32.700001"
         id="tspan300">Итого активов154,909174,548</tspan></text><text
       transform="matrix(1,0,0,-1,37.7206,1023.0001)"
       style="font-variant:normal;font-weight:300;font-stretch:normal;font-size:20px;font-family:'Rubik Light';-inkscape-font-specification:Rubik-Light;writing-mode:lr-tb;fill:#000000;fill-opacity:1;fill-rule:nonzero;stroke:none"
       id="text306"><tspan
         x="0 11.9 61.259998 74.5 79.660004 89.779999 100.94 114.22 125.74 136.46001 148.38 160.3"
         y="0"
         id="tspan304">46О компании</tspan></text></g></svg>
