<?xml version="1.0" encoding="UTF-8" standalone="no"?>
<?xml-stylesheet type="text/css" href="main.css" ?>
<svg
   xmlns:dc="http://purl.org/dc/elements/1.1/"
   xmlns:cc="http://creativecommons.org/ns#"
   xmlns:rdf="http://www.w3.org/1999/02/22-rdf-syntax-ns#"
   xmlns:svg="http://www.w3.org/2000/svg"
   xmlns="http://www.w3.org/2000/svg"
   version="1.1"
   id="svg2"
   xml:space="preserve"
   width="2560"
   height="1440"
   viewBox="0 0 2560 1440"><metadata
     id="metadata8"><rdf:RDF><cc:Work
         rdf:about=""><dc:format>image/svg+xml</dc:format><dc:type
           rdf:resource="http://purl.org/dc/dcmitype/StillImage" /></cc:Work></rdf:RDF></metadata><defs
     id="defs6"><clipPath
       clipPathUnits="userSpaceOnUse"
       id="clipPath20"><path
         d="M 0,1080 H 1920 V 0 H 0 Z"
         id="path18" /></clipPath><clipPath
       clipPathUnits="userSpaceOnUse"
       id="clipPath380"><path
         d="M 0,1080 H 1920 V 0 H 0 Z"
         id="path378" /></clipPath></defs><g
     id="g10"
     transform="matrix(1.3333333,0,0,-1.3333333,0,1440)"><g
       id="g12"><g
         id="g14"><g
           id="g16"
           clip-path="url(#clipPath20)"><path
             d="M 0,0 H 1920 V 1080 H 0 Z"
             style="fill:#ffffff;fill-opacity:1;fill-rule:nonzero;stroke:none"
             id="path22" /></g></g></g><g
       id="g24"
       transform="translate(495,867.1201)"><path
         d="M 0,0 H 921"
         style="fill:none;stroke:#e9e9e9;stroke-width:1;stroke-linecap:butt;stroke-linejoin:miter;stroke-miterlimit:10;stroke-dasharray:none;stroke-opacity:1"
         id="path26" /></g><g
       id="g28"
       transform="translate(1416,867.1201)"><path
         d="M 0,0 H 200"
         style="fill:none;stroke:#e9e9e9;stroke-width:1;stroke-linecap:butt;stroke-linejoin:miter;stroke-miterlimit:10;stroke-dasharray:none;stroke-opacity:1"
         id="path30" /></g><g
       id="g32"
       transform="translate(1616,867.1201)"><path
         d="M 0,0 H 200"
         style="fill:none;stroke:#e9e9e9;stroke-width:1;stroke-linecap:butt;stroke-linejoin:miter;stroke-miterlimit:10;stroke-dasharray:none;stroke-opacity:1"
         id="path34" /></g><g
       id="g36"
       transform="translate(495,834.4202)"><path
         d="M 0,0 H 921"
         style="fill:none;stroke:#e9e9e9;stroke-width:1;stroke-linecap:butt;stroke-linejoin:miter;stroke-miterlimit:10;stroke-dasharray:none;stroke-opacity:1"
         id="path38" /></g><g
       id="g40"
       transform="translate(1416,834.4202)"><path
         d="M 0,0 H 200"
         style="fill:none;stroke:#e9e9e9;stroke-width:1;stroke-linecap:butt;stroke-linejoin:miter;stroke-miterlimit:10;stroke-dasharray:none;stroke-opacity:1"
         id="path42" /></g><g
       id="g44"
       transform="translate(1616,834.4202)"><path
         d="M 0,0 H 200"
         style="fill:none;stroke:#e9e9e9;stroke-width:1;stroke-linecap:butt;stroke-linejoin:miter;stroke-miterlimit:10;stroke-dasharray:none;stroke-opacity:1"
         id="path46" /></g><g
       id="g48"
       transform="translate(495,801.7202)"><path
         d="M 0,0 H 921"
         style="fill:none;stroke:#e9e9e9;stroke-width:1;stroke-linecap:butt;stroke-linejoin:miter;stroke-miterlimit:10;stroke-dasharray:none;stroke-opacity:1"
         id="path50" /></g><g
       id="g52"
       transform="translate(1416,801.7202)"><path
         d="M 0,0 H 200"
         style="fill:none;stroke:#e9e9e9;stroke-width:1;stroke-linecap:butt;stroke-linejoin:miter;stroke-miterlimit:10;stroke-dasharray:none;stroke-opacity:1"
         id="path54" /></g><g
       id="g56"
       transform="translate(1616,801.7202)"><path
         d="M 0,0 H 200"
         style="fill:none;stroke:#e9e9e9;stroke-width:1;stroke-linecap:butt;stroke-linejoin:miter;stroke-miterlimit:10;stroke-dasharray:none;stroke-opacity:1"
         id="path58" /></g><g
       id="g60"
       transform="translate(495,769.0203)"><path
         d="M 0,0 H 921"
         style="fill:none;stroke:#e9e9e9;stroke-width:1;stroke-linecap:butt;stroke-linejoin:miter;stroke-miterlimit:10;stroke-dasharray:none;stroke-opacity:1"
         id="path62" /></g><g
       id="g64"
       transform="translate(1416,769.0203)"><path
         d="M 0,0 H 200"
         style="fill:none;stroke:#e9e9e9;stroke-width:1;stroke-linecap:butt;stroke-linejoin:miter;stroke-miterlimit:10;stroke-dasharray:none;stroke-opacity:1"
         id="path66" /></g><g
       id="g68"
       transform="translate(1616,769.0203)"><path
         d="M 0,0 H 200"
         style="fill:none;stroke:#e9e9e9;stroke-width:1;stroke-linecap:butt;stroke-linejoin:miter;stroke-miterlimit:10;stroke-dasharray:none;stroke-opacity:1"
         id="path70" /></g><g
       id="g72"
       transform="translate(495,736.3203)"><path
         d="M 0,0 H 921"
         style="fill:none;stroke:#e9e9e9;stroke-width:1;stroke-linecap:butt;stroke-linejoin:miter;stroke-miterlimit:10;stroke-dasharray:none;stroke-opacity:1"
         id="path74" /></g><g
       id="g76"
       transform="translate(1416,736.3203)"><path
         d="M 0,0 H 200"
         style="fill:none;stroke:#e9e9e9;stroke-width:1;stroke-linecap:butt;stroke-linejoin:miter;stroke-miterlimit:10;stroke-dasharray:none;stroke-opacity:1"
         id="path78" /></g><g
       id="g80"
       transform="translate(1616,736.3203)"><path
         d="M 0,0 H 200"
         style="fill:none;stroke:#e9e9e9;stroke-width:1;stroke-linecap:butt;stroke-linejoin:miter;stroke-miterlimit:10;stroke-dasharray:none;stroke-opacity:1"
         id="path82" /></g><g
       id="g84"
       transform="translate(495,703.6204)"><path
         d="M 0,0 H 921"
         style="fill:none;stroke:#e9e9e9;stroke-width:1;stroke-linecap:butt;stroke-linejoin:miter;stroke-miterlimit:10;stroke-dasharray:none;stroke-opacity:1"
         id="path86" /></g><g
       id="g88"
       transform="translate(1416,703.6204)"><path
         d="M 0,0 H 200"
         style="fill:none;stroke:#e9e9e9;stroke-width:1;stroke-linecap:butt;stroke-linejoin:miter;stroke-miterlimit:10;stroke-dasharray:none;stroke-opacity:1"
         id="path90" /></g><g
       id="g92"
       transform="translate(1616,703.6204)"><path
         d="M 0,0 H 200"
         style="fill:none;stroke:#e9e9e9;stroke-width:1;stroke-linecap:butt;stroke-linejoin:miter;stroke-miterlimit:10;stroke-dasharray:none;stroke-opacity:1"
         id="path94" /></g><g
       id="g96"
       transform="translate(495,670.9204)"><path
         d="M 0,0 H 921"
         style="fill:none;stroke:#e9e9e9;stroke-width:1;stroke-linecap:butt;stroke-linejoin:miter;stroke-miterlimit:10;stroke-dasharray:none;stroke-opacity:1"
         id="path98" /></g><g
       id="g100"
       transform="translate(1416,670.9204)"><path
         d="M 0,0 H 200"
         style="fill:none;stroke:#e9e9e9;stroke-width:1;stroke-linecap:butt;stroke-linejoin:miter;stroke-miterlimit:10;stroke-dasharray:none;stroke-opacity:1"
         id="path102" /></g><g
       id="g104"
       transform="translate(1616,670.9204)"><path
         d="M 0,0 H 200"
         style="fill:none;stroke:#e9e9e9;stroke-width:1;stroke-linecap:butt;stroke-linejoin:miter;stroke-miterlimit:10;stroke-dasharray:none;stroke-opacity:1"
         id="path106" /></g><g
       id="g108"
       transform="translate(495,638.2205)"><path
         d="M 0,0 H 921"
         style="fill:none;stroke:#e9e9e9;stroke-width:1;stroke-linecap:butt;stroke-linejoin:miter;stroke-miterlimit:10;stroke-dasharray:none;stroke-opacity:1"
         id="path110" /></g><g
       id="g112"
       transform="translate(1416,638.2205)"><path
         d="M 0,0 H 200"
         style="fill:none;stroke:#e9e9e9;stroke-width:1;stroke-linecap:butt;stroke-linejoin:miter;stroke-miterlimit:10;stroke-dasharray:none;stroke-opacity:1"
         id="path114" /></g><g
       id="g116"
       transform="translate(1616,638.2205)"><path
         d="M 0,0 H 200"
         style="fill:none;stroke:#e9e9e9;stroke-width:1;stroke-linecap:butt;stroke-linejoin:miter;stroke-miterlimit:10;stroke-dasharray:none;stroke-opacity:1"
         id="path118" /></g><g
       id="g120"
       transform="translate(495,605.5205)"><path
         d="M 0,0 H 921"
         style="fill:none;stroke:#e9e9e9;stroke-width:1;stroke-linecap:butt;stroke-linejoin:miter;stroke-miterlimit:10;stroke-dasharray:none;stroke-opacity:1"
         id="path122" /></g><g
       id="g124"
       transform="translate(1416,605.5205)"><path
         d="M 0,0 H 200"
         style="fill:none;stroke:#e9e9e9;stroke-width:1;stroke-linecap:butt;stroke-linejoin:miter;stroke-miterlimit:10;stroke-dasharray:none;stroke-opacity:1"
         id="path126" /></g><g
       id="g128"
       transform="translate(1616,605.5205)"><path
         d="M 0,0 H 200"
         style="fill:none;stroke:#e9e9e9;stroke-width:1;stroke-linecap:butt;stroke-linejoin:miter;stroke-miterlimit:10;stroke-dasharray:none;stroke-opacity:1"
         id="path130" /></g><g
       id="g132"
       transform="translate(495,572.8206)"><path
         d="M 0,0 H 921"
         style="fill:none;stroke:#e9e9e9;stroke-width:1;stroke-linecap:butt;stroke-linejoin:miter;stroke-miterlimit:10;stroke-dasharray:none;stroke-opacity:1"
         id="path134" /></g><g
       id="g136"
       transform="translate(1416,572.8206)"><path
         d="M 0,0 H 200"
         style="fill:none;stroke:#e9e9e9;stroke-width:1;stroke-linecap:butt;stroke-linejoin:miter;stroke-miterlimit:10;stroke-dasharray:none;stroke-opacity:1"
         id="path138" /></g><g
       id="g140"
       transform="translate(1616,572.8206)"><path
         d="M 0,0 H 200"
         style="fill:none;stroke:#e9e9e9;stroke-width:1;stroke-linecap:butt;stroke-linejoin:miter;stroke-miterlimit:10;stroke-dasharray:none;stroke-opacity:1"
         id="path142" /></g><g
       id="g144"
       transform="translate(495,514.1206)"><path
         d="M 0,0 H 921"
         style="fill:none;stroke:#e9e9e9;stroke-width:1;stroke-linecap:butt;stroke-linejoin:miter;stroke-miterlimit:10;stroke-dasharray:none;stroke-opacity:1"
         id="path146" /></g><g
       id="g148"
       transform="translate(1416,514.1206)"><path
         d="M 0,0 H 200"
         style="fill:none;stroke:#e9e9e9;stroke-width:1;stroke-linecap:butt;stroke-linejoin:miter;stroke-miterlimit:10;stroke-dasharray:none;stroke-opacity:1"
         id="path150" /></g><g
       id="g152"
       transform="translate(1616,514.1206)"><path
         d="M 0,0 H 200"
         style="fill:none;stroke:#e9e9e9;stroke-width:1;stroke-linecap:butt;stroke-linejoin:miter;stroke-miterlimit:10;stroke-dasharray:none;stroke-opacity:1"
         id="path154" /></g><g
       id="g156"
       transform="translate(495,481.4207)"><path
         d="M 0,0 H 921"
         style="fill:none;stroke:#e9e9e9;stroke-width:1;stroke-linecap:butt;stroke-linejoin:miter;stroke-miterlimit:10;stroke-dasharray:none;stroke-opacity:1"
         id="path158" /></g><g
       id="g160"
       transform="translate(1416,481.4207)"><path
         d="M 0,0 H 200"
         style="fill:none;stroke:#e9e9e9;stroke-width:1;stroke-linecap:butt;stroke-linejoin:miter;stroke-miterlimit:10;stroke-dasharray:none;stroke-opacity:1"
         id="path162" /></g><g
       id="g164"
       transform="translate(1616,481.4207)"><path
         d="M 0,0 H 200"
         style="fill:none;stroke:#e9e9e9;stroke-width:1;stroke-linecap:butt;stroke-linejoin:miter;stroke-miterlimit:10;stroke-dasharray:none;stroke-opacity:1"
         id="path166" /></g><g
       id="g168"
       transform="translate(495,448.7207)"><path
         d="M 0,0 H 921"
         style="fill:none;stroke:#e9e9e9;stroke-width:1;stroke-linecap:butt;stroke-linejoin:miter;stroke-miterlimit:10;stroke-dasharray:none;stroke-opacity:1"
         id="path170" /></g><g
       id="g172"
       transform="translate(1416,448.7207)"><path
         d="M 0,0 H 200"
         style="fill:none;stroke:#e9e9e9;stroke-width:1;stroke-linecap:butt;stroke-linejoin:miter;stroke-miterlimit:10;stroke-dasharray:none;stroke-opacity:1"
         id="path174" /></g><g
       id="g176"
       transform="translate(1616,448.7207)"><path
         d="M 0,0 H 200"
         style="fill:none;stroke:#e9e9e9;stroke-width:1;stroke-linecap:butt;stroke-linejoin:miter;stroke-miterlimit:10;stroke-dasharray:none;stroke-opacity:1"
         id="path178" /></g><g
       id="g180"
       transform="translate(495,416.0208)"><path
         d="M 0,0 H 921"
         style="fill:none;stroke:#e9e9e9;stroke-width:1;stroke-linecap:butt;stroke-linejoin:miter;stroke-miterlimit:10;stroke-dasharray:none;stroke-opacity:1"
         id="path182" /></g><g
       id="g184"
       transform="translate(1416,416.0208)"><path
         d="M 0,0 H 200"
         style="fill:none;stroke:#e9e9e9;stroke-width:1;stroke-linecap:butt;stroke-linejoin:miter;stroke-miterlimit:10;stroke-dasharray:none;stroke-opacity:1"
         id="path186" /></g><g
       id="g188"
       transform="translate(1616,416.0208)"><path
         d="M 0,0 H 200"
         style="fill:none;stroke:#e9e9e9;stroke-width:1;stroke-linecap:butt;stroke-linejoin:miter;stroke-miterlimit:10;stroke-dasharray:none;stroke-opacity:1"
         id="path190" /></g><g
       id="g192"
       transform="translate(495,383.3208)"><path
         d="M 0,0 H 921"
         style="fill:none;stroke:#e9e9e9;stroke-width:1;stroke-linecap:butt;stroke-linejoin:miter;stroke-miterlimit:10;stroke-dasharray:none;stroke-opacity:1"
         id="path194" /></g><g
       id="g196"
       transform="translate(1416,383.3208)"><path
         d="M 0,0 H 200"
         style="fill:none;stroke:#e9e9e9;stroke-width:1;stroke-linecap:butt;stroke-linejoin:miter;stroke-miterlimit:10;stroke-dasharray:none;stroke-opacity:1"
         id="path198" /></g><g
       id="g200"
       transform="translate(1616,383.3208)"><path
         d="M 0,0 H 200"
         style="fill:none;stroke:#e9e9e9;stroke-width:1;stroke-linecap:butt;stroke-linejoin:miter;stroke-miterlimit:10;stroke-dasharray:none;stroke-opacity:1"
         id="path202" /></g><g
       id="g204"
       transform="translate(495,350.6208)"><path
         d="M 0,0 H 921"
         style="fill:none;stroke:#e9e9e9;stroke-width:1;stroke-linecap:butt;stroke-linejoin:miter;stroke-miterlimit:10;stroke-dasharray:none;stroke-opacity:1"
         id="path206" /></g><g
       id="g208"
       transform="translate(1416,350.6208)"><path
         d="M 0,0 H 200"
         style="fill:none;stroke:#e9e9e9;stroke-width:1;stroke-linecap:butt;stroke-linejoin:miter;stroke-miterlimit:10;stroke-dasharray:none;stroke-opacity:1"
         id="path210" /></g><g
       id="g212"
       transform="translate(1616,350.6208)"><path
         d="M 0,0 H 200"
         style="fill:none;stroke:#e9e9e9;stroke-width:1;stroke-linecap:butt;stroke-linejoin:miter;stroke-miterlimit:10;stroke-dasharray:none;stroke-opacity:1"
         id="path214" /></g><g
       id="g216"
       transform="translate(495,317.9209)"><path
         d="M 0,0 H 921"
         style="fill:none;stroke:#e9e9e9;stroke-width:1;stroke-linecap:butt;stroke-linejoin:miter;stroke-miterlimit:10;stroke-dasharray:none;stroke-opacity:1"
         id="path218" /></g><g
       id="g220"
       transform="translate(1416,317.9209)"><path
         d="M 0,0 H 200"
         style="fill:none;stroke:#e9e9e9;stroke-width:1;stroke-linecap:butt;stroke-linejoin:miter;stroke-miterlimit:10;stroke-dasharray:none;stroke-opacity:1"
         id="path222" /></g><g
       id="g224"
       transform="translate(1616,317.9209)"><path
         d="M 0,0 H 200"
         style="fill:none;stroke:#e9e9e9;stroke-width:1;stroke-linecap:butt;stroke-linejoin:miter;stroke-miterlimit:10;stroke-dasharray:none;stroke-opacity:1"
         id="path226" /></g><g
       id="g228"
       transform="translate(495,285.2209)"><path
         d="M 0,0 H 921"
         style="fill:none;stroke:#e9e9e9;stroke-width:1;stroke-linecap:butt;stroke-linejoin:miter;stroke-miterlimit:10;stroke-dasharray:none;stroke-opacity:1"
         id="path230" /></g><g
       id="g232"
       transform="translate(1416,285.2209)"><path
         d="M 0,0 H 200"
         style="fill:none;stroke:#e9e9e9;stroke-width:1;stroke-linecap:butt;stroke-linejoin:miter;stroke-miterlimit:10;stroke-dasharray:none;stroke-opacity:1"
         id="path234" /></g><g
       id="g236"
       transform="translate(1616,285.2209)"><path
         d="M 0,0 H 200"
         style="fill:none;stroke:#e9e9e9;stroke-width:1;stroke-linecap:butt;stroke-linejoin:miter;stroke-miterlimit:10;stroke-dasharray:none;stroke-opacity:1"
         id="path238" /></g><g
       id="g240"
       transform="translate(495,252.521)"><path
         d="M 0,0 H 921"
         style="fill:none;stroke:#e9e9e9;stroke-width:1;stroke-linecap:butt;stroke-linejoin:miter;stroke-miterlimit:10;stroke-dasharray:none;stroke-opacity:1"
         id="path242" /></g><g
       id="g244"
       transform="translate(1416,252.521)"><path
         d="M 0,0 H 200"
         style="fill:none;stroke:#e9e9e9;stroke-width:1;stroke-linecap:butt;stroke-linejoin:miter;stroke-miterlimit:10;stroke-dasharray:none;stroke-opacity:1"
         id="path246" /></g><g
       id="g248"
       transform="translate(1616,252.521)"><path
         d="M 0,0 H 200"
         style="fill:none;stroke:#e9e9e9;stroke-width:1;stroke-linecap:butt;stroke-linejoin:miter;stroke-miterlimit:10;stroke-dasharray:none;stroke-opacity:1"
         id="path250" /></g><g
       id="g252"
       transform="translate(495,219.821)"><path
         d="M 0,0 H 921"
         style="fill:none;stroke:#e9e9e9;stroke-width:1;stroke-linecap:butt;stroke-linejoin:miter;stroke-miterlimit:10;stroke-dasharray:none;stroke-opacity:1"
         id="path254" /></g><g
       id="g256"
       transform="translate(1416,219.821)"><path
         d="M 0,0 H 200"
         style="fill:none;stroke:#e9e9e9;stroke-width:1;stroke-linecap:butt;stroke-linejoin:miter;stroke-miterlimit:10;stroke-dasharray:none;stroke-opacity:1"
         id="path258" /></g><g
       id="g260"
       transform="translate(1616,219.821)"><path
         d="M 0,0 H 200"
         style="fill:none;stroke:#e9e9e9;stroke-width:1;stroke-linecap:butt;stroke-linejoin:miter;stroke-miterlimit:10;stroke-dasharray:none;stroke-opacity:1"
         id="path262" /></g><text
       transform="matrix(1,0,0,-1,495,953.8201)"
       style="font-variant:normal;font-weight:500;font-stretch:normal;font-size:28px;font-family:'Rubik Medium';-inkscape-font-specification:Rubik-Medium;writing-mode:lr-tb;fill:#000000;fill-opacity:1;fill-rule:nonzero;stroke:none"
       id="text266"><tspan
         x="0 18.004 34.608002 52.080002 68.096001 84.447998 101.36 118.832 136.444 153.916 171.108 187.71201 204.092 220.108 237.58 255.052 276.556 294.02802 300.41199 317.01599 331.884 348.09601 364.28 379.14801 385.53201 402.13599 408.51999 426.13199 442.51199 459.98401 484.03601 500.22 517.69202 535.164 552.63599 559.02002 576.63202 592.81598 610.28802 626.47198 650.52399 667.99597 689.5 705.32001 711.70398 727.71997 744.91199 761.09601 778.70801 794.724 809.59198 825.97198 832.35602 847.36401 863.38 869.76398 881.98877 898.59277 916.20477"
         y="0"
         id="tspan264">Консолидированный отчет о движении денежных средств за год,</tspan></text><text
       transform="matrix(1,0,0,-1,495,919.8281)"
       style="font-variant:normal;font-weight:500;font-stretch:normal;font-size:28px;font-family:'Rubik Medium';-inkscape-font-specification:Rubik-Medium;writing-mode:lr-tb;fill:#000000;fill-opacity:1;fill-rule:nonzero;stroke:none"
       id="text270"><tspan
         x="0 15.008 31.024 46.424 63.028 80.5 96.711998 114.184 130.564 153.244 170.716 188.188 204.20399 220.332 226.716 243.9332 256.9252 263.3092 280.9212 297.10519 313.1492 329.16519 345.90921 363.1012 379.22919 385.61319 394.9624 411.34241 417.72641 437.43839 454.3504 471.82239 478.20639 494.81039 510.82639 527.57037 535.10242"
         y="0"
         id="tspan268">закончившийся 31 декабря (в млн руб.)</tspan></text><text
       transform="matrix(1,0,0,-1,1564.8403,874.1201)"
       style="font-variant:normal;font-weight:500;font-stretch:normal;font-size:20px;font-family:'Rubik Medium';-inkscape-font-specification:Rubik-Medium;writing-mode:lr-tb;fill:#000000;fill-opacity:1;fill-rule:nonzero;stroke:none"
       id="text274"><tspan
         x="0 12.4 25.58 37.98"
         y="0"
         id="tspan272">2020</tspan></text><text
       transform="matrix(1,0,0,-1,1768.7803,874.1201)"
       style="font-variant:normal;font-weight:500;font-stretch:normal;font-size:20px;font-family:'Rubik Medium';-inkscape-font-specification:Rubik-Medium;writing-mode:lr-tb;fill:#000000;fill-opacity:1;fill-rule:nonzero;stroke:none"
       id="text280"><tspan
         x="0 12.4 25.58 34.860001"
         y="0"
         id="tspan276">2019</tspan><tspan
         x="-1269.78 -1254.86 -1243.3 -1230.8199 -1219.26 -1202.08 -1189.6 -1174.24 -1162.6801 -1158.12 -1145.88 -1134.02 -1123.4 -1111.54 -1100.08 -1087.6 -1083.04 -1071.1801 -1060.5601 -1056 -1043.52 -1031.04 -1019.34 -1007.78 -996.34003 -985.71997 -973.23999 -960.47998 -948 -936.14001 -923.65997 -911.17999 -899.32001 -886.84003 -882.28003 -869.70001 -858.14001 -846.62 -836 -824.54602 -812.466 -801.84601 -789.36603 -777.50598 -766.06598 -755.44598"
         y="32.700001"
         id="tspan278">Денежные потоки от инвестиционной деятельности</tspan></text><text
       transform="matrix(1,0,0,-1,499.0003,808.7201)"
       style="font-variant:normal;font-weight:300;font-stretch:normal;font-size:20px;font-family:'Rubik Light';-inkscape-font-specification:Rubik-Light;writing-mode:lr-tb;fill:#000000;fill-opacity:1;fill-rule:nonzero;stroke:none"
       id="text298"><tspan
         x="0 14 25.16 35.880001 45.82 56.400002 67.919998 79.139999 90.059998 101.98 113.9 124.28 129.44 140.60001 150.53999 155.7 167.22 178.84 190 201.52 212.24001 227.22 239.14 244.3 255.46001 266.17999 278.10001 289.26001 300.10001 312.01999 325.20001 335.56 340.72 351.44 363.06 373.98001 385.5 396.22 406.16 417 422.16 434.07999 439.23999 450.76001 462.38 473.54001 484.07999 496 506.35999 511.51999 522.23999 532.35999 542.29999 554.21997 565.06 576.21997 1071.0601 1082.26 1085.64 1093.6 1101.5601 1261.66 1272.86 1277.6 1289.12 1300.64"
         y="0"
         id="tspan282">Поступления от продажи основных средств и прочих активов2,1192,338</tspan><tspan
         x="0 14 25.16 35.880001 45.82 56.400002 67.919998 79.139999 90.059998 101.98 113.9 124.28 129.44 140.60001 150.53999 155.7 166.53999 179.72 191.06 204.24001 214.17999 226.10001 236.48 241.64 252.48 263.20001 271.31799 282.478 294.39801 305.55801 316.39801 321.138 326.298 337.81799 349.43799 360.358 371.87799 383.798 394.51801 404.358 416.27802 426.99799 437.53799 448.45801 460.37799 472.298 485.478 495.83801 500.99799 512.51801 523.73798 534.11798 539.27802 550.79797 562.41803 573.578 585.09802 595.81799 610.79797 1092.5 1097.66 1113 1283.86 1295.3 1303.26"
         y="32.700001"
         id="tspan284">Поступления от выбытия вагонов, предназначенных для продажи — 917</tspan><tspan
         x="0 14 25.16 35.880001 45.82 56.400002 67.919998 79.139999 90.059998 101.98 113.9 124.28 129.44 140.60001 150.53999 155.7 167.22 178.84 190 201.52 212.24001 227.22 239.14 244.3 256.32001 268.23999 278.95999 288.89999 299.82001 311.44 1060.54 1068.5 1076.86 1081.6 1092.72 1100.6801 1265.76 1273.72 1278.46 1289.9 1301.8"
         y="65.400002"
         id="tspan286">Поступления от продажи цистерн17,3101,542</tspan><tspan
         x="0 14 25.620001 37.540001 48.700001 60.040001 71.660004 82.580002 92.519997 103.44 115.36 127.28 138.2 143.36 155.28 166.2 179.48 190.2 200.14 211.06 222.67999 234.60001 245.32001 256.54001 266.06 277.98001 291.16 301.51999 306.67999 317.39999 327.51999 337.45999 349.38 360.22 371.38 1067.62 1073.72 1085.16 1094.9 1106.62 1113 1255.34 1261.02 1268.98 1273.72 1285.16 1294.9 1306.62 1313"
         y="98.099998"
         id="tspan288">Приобретение нематериальных активов(570) (1,570) </tspan><tspan
         x="0 14 25.620001 37.540001 48.700001 60.040001 71.660004 82.580002 92.519997 103.44 115.36 127.28 138.2 143.36 154.52 165.24001 177.16 188.32001 199.16 211.08 224.25999 234.62 239.78 250.5 262.12 273.04001 284.56 295.28 305.22 1049.12 1054.8 1062.76 1071.12 1075.58 1087.22 1098.66 1106.62 1113 1245.02 1250.7 1258.66 1270.78 1275.14 1287.46 1298.66 1306.62 1313"
         y="130.8"
         id="tspan290">Приобретение основных средств(17,691) (18,021) </tspan><tspan
         x="0 12.56 23.280001 33.119999 46.400002 57.32 73.220001 84.139999 96.059998 107.98 118.9 124.06 135.58 146.5 158.02 169.17999 179.02 190.94 200.88 212.03999 1092.5 1097.66 1113 1246.4 1252.08 1260.04 1270.08 1274.4399 1286.34 1298.66 1306.62 1313"
         y="163.5"
         id="tspan292">Размещение депозитов — (19,401) </tspan><tspan
         x="0 14 25.16 33.52 44.240002 59.619999 70.540001 82.459999 94.379997 105.3 110.46 121.98 132.89999 144.42 155.58 165.42 177.34 187.28 198.44 1067.38 1079.5 1084.24 1095.3 1103.26 1257.66 1268.86 1276.8199 1281.5601 1292.6801 1300.64"
         y="196.2"
         id="tspan294">Погашение депозитов8,51721,318</tspan><tspan
         x="0 14 25.620001 36.779999 48.799999 59.720001 71.639999 81.580002 94.760002 99.919998 111.44 122.4 133.62 144.2 154.74001 165.66 177.58 189.5 202.67999 1081.24 1093.6 1105.04 1264.5601 1272.52 1276.88 1289.2 1301.5601"
         y="228.89999"
         id="tspan296">Проценты полученные8911,085</tspan></text><text
       transform="matrix(1,0,0,-1,499.0003,547.1201)"
       style="font-variant:normal;font-weight:500;font-stretch:normal;font-size:20px;font-family:'Rubik Medium';-inkscape-font-specification:Rubik-Medium;writing-mode:lr-tb;fill:#000000;fill-opacity:1;fill-rule:nonzero;stroke:none"
       id="text302"><tspan
         x="0 13.56 26.040001 37.48 48.099998 63.459999 75.940002 80.5 92.739998 104.6 115.22 127.08 138.53999 143.10001 155.67999 167.24001 179.72 191.28 208.46001 220.94 236.3 247.60001 252.16 263.60001 275.88 287.44 300.01999 311.45999 322.07999 333.78 338.34 350.20001 360.82001 361.64001 371.82001"
         y="0"
         id="tspan300">Чистый поток денежных средств от / </tspan></text><text
       transform="matrix(1,0,0,-1,499.0003,521.1201)"
       style="font-variant:normal;font-weight:500;font-stretch:normal;font-size:20px;font-family:'Rubik Medium';-inkscape-font-specification:Rubik-Medium;writing-mode:lr-tb;fill:#000000;fill-opacity:1;fill-rule:nonzero;stroke:none"
       id="text308"><tspan
         x="0 6.6799998 19.16 30.6 42.84 54.52 66.599998 77.220001 87.940002 99.800003 111.5 122.94 135.42 147.89999 163.25999 174.56 179.12 190.82001 198.06 202.62 214.48 225.10001 229.66 242.14 254.62 266.32001 277.88 289.32001 299.94 312.42001 325.17999 337.66 349.51999 362 374.48001 386.34 398.82001 403.38 415.95999 427.51999 439.04001 449.66 461.11401 473.194 483.814 496.29401 508.15399 519.59399 530.21399"
         y="0"
         id="tspan304">(использованных в) от инвестиционной деятельности</tspan><tspan
         x="1050.14 1059.42 1072.38 1077.6801 1090.1 1100.4399 1240.48 1247.0601 1256.34 1265.62 1270.3199 1281.22 1293.58 1305.76 1313"
         y="-26"
         id="tspan306">10,576(11,792) </tspan></text><text
       transform="matrix(1,0,0,-1,499.0003,488.4201)"
       style="font-variant:normal;font-weight:300;font-stretch:normal;font-size:20px;font-family:'Rubik Light';-inkscape-font-specification:Rubik-Light;writing-mode:lr-tb;fill:#000000;fill-opacity:1;fill-rule:nonzero;stroke:none"
       id="text320"><tspan
         x="0 13.52 24.440001 36.360001 47.279999 62.259998 74.18 87.360001 98.279999 103.44 114.96 126.12 136.06 147.22 157.34 169.25999 174.42 185.58 195.52 200.67999 214.25999 226.17999 238.10001 248.82001 260.73999 271.45999 282.62 293.45999 304.62 316.54001 321.70001 333.22 344.14001 354.51999 364.45999 375.29599 386.51599 396.03601 407.95599 419.116 429.836 439.776"
         y="0"
         id="tspan310">Денежные потоки от финансовой деятельности</tspan><tspan
         x="0 13.52 25.440001 36.279999 48.200001 59.720001 70.639999 82.559998 94.080002 107.26 112.42 123.26 136.44 147.96001 159.17999 169.89999 180.44 191.36 203.28 215.2 228.38 1036.42 1042.52 1053.96 1065.9 1070.26 1082.58 1094.9 1106.62 1113 1292.5 1297.66 1313"
         y="32.700001"
         id="tspan312">Дивиденды выплаченные(50,000)  — </tspan><tspan
         x="0 14 25.16 33.52 44.240002 59.619999 70.540001 82.459999 94.379997 105.3 110.46 120.3 131.02 141.94 155.22 167.14 180.32001 190.67999 195.84 206.56 218.17999 229.10001 240.62 251.34 261.28 1049.8199 1056.2 1067.72 1072.08 1084.4 1095.84 1106.62 1113 1249.04 1254.72 1262.6801 1271.04 1275.4 1287.72 1295.6801 1306.62 1313"
         y="65.400002"
         id="tspan314">Погашение заемных средств(3,059) (17,016) </tspan><tspan
         x="0 13.06 26.24 37.759998 48.98 59.700001 69.639999 82.82 87.980003 99.5 110.66 115.82 126.98 138.32001 148.7 158.53999 169.25999 179.2 190.03799 201.258 210.778 221.498 231.438 242.278 252.998 266.27802 271.43799 282.15799 293.77802 304.698 316.61801 328.138 1053.1801 1058.64 1070.28 1074.78 1087.14 1096.88 1106.62 1113 1254.24 1259.76 1271.28 1276.02 1287.22 1298.66 1306.62 1313"
         y="98.099998"
         id="tspan316">Выплаты по обязательствам аренды(6,877) (4,291) </tspan><tspan
         x="0 14 25.620001 36.779999 48.799999 59.720001 71.639999 81.580002 94.760002 99.919998 110.5 122.02 133.24001 143.96001 154.5 165.42 177.34 189.25999 202.44 1051.66 1057.64 1068.84 1073.58 1085.1 1094.84 1106.62 1113 1254.42 1260.8 1272.3199 1276.46 1286.2 1295.24 1306.62 1313"
         y="130.8"
         id="tspan318">Проценты уплаченные(2,378) (3,774) </tspan></text><text
       transform="matrix(1,0,0,-1,499.0003,324.9201)"
       style="font-variant:normal;font-weight:500;font-stretch:normal;font-size:20px;font-family:'Rubik Medium';-inkscape-font-specification:Rubik-Medium;writing-mode:lr-tb;fill:#000000;fill-opacity:1;fill-rule:nonzero;stroke:none"
       id="text326"><tspan
         x="0 13.56 26.040001 37.48 48.099998 63.459999 75.940002 80.5 92.739998 104.6 115.22 127.08 138.53999 143.10001 155.67999 167.24001 179.72 191.28 208.46001 220.94 236.3 247.60001 252.16 263.60001 275.88 287.44 300.01999 311.45999 322.07999 333.78 339.07999 343.64001 356.12 367.56 379.79999 391.47601 403.556 414.17599 424.896 436.75601 448.45599 459.896 472.37601 484.85599 500.216 511.51599 516.07599 527.776 532.336 547.61603 560.09601 572.57599 584.01599 596.49597 607.93597 619.79602 631.49597 643.35602 655.836 660.396 672.97601 684.53601 696.05603 706.67603 718.13 730.21002 740.83002 753.31 765.16998 776.60999 787.22998 1035.04 1041.4 1053.96 1066.36 1071.66 1083.96 1093.24 1105.76 1113 1233.38 1240.38 1252.78 1265.08 1270.16 1283.34 1296.48 1305.76 1313"
         y="0"
         id="tspan322">Чистый поток денежных средств, использованных в финансовой деятельности(62,314) (25,081) </tspan><tspan
         x="0 14.6 26.16 36.779999 47.400002 59.259998 63.82 70.959999 82.400002 96.480003 108.04 120.52 131.14 147.34 158.89999 171.38 183.86 194.578 201.81799 202.66 212.84 213.67999 225.12 236.82001 248.28 260.35999 272.84 284.42001 295.98001 308.45999 320.94 332.5 337.06 349.64001 361.20001 373.67999 385.23999 402.42001 414.89999 430.26001 441.56 446.12 457.56 469.84 481.39999 493.98001 505.42001 516.03998 527.73999 532.29999 544.78003 549.34003 561.82001 573.12 577.67999 589.20001 600.65997 612.35999 624.84003 636.53998 647.97998 660.06 671.62 684.09998 694.71997 706.58002 1032.46 1039.46 1051.86 1064.8199 1069.52 1080.42 1093.6 1105.78 1113.02 1257.36 1269.76 1275.0601 1287.46 1300.6"
         y="32.700001"
         id="tspan324">Нетто (уменьшение) / увеличение денежных средств и их эквивалентов(20,702) 2,285</tspan></text><text
       transform="matrix(1,0,0,-1,499.0203,259.5201)"
       style="font-variant:normal;font-weight:300;font-stretch:normal;font-size:20px;font-family:'Rubik Light';-inkscape-font-specification:Rubik-Light;writing-mode:lr-tb;fill:#000000;fill-opacity:1;fill-rule:nonzero;stroke:none"
       id="text332"><tspan
         x="0 13.52 24.440001 36.360001 47.279999 62.259998 74.18 87.360001 98.279999 103.44 114.16 125.78 136.7 148.22 158.94 168.88 179.72 190.44 195.60001 207.52 212.67999 224.60001 234.96001 240.12 250.84 260.95999 271.79999 283.72 294.56 305.28 316.5 327.42001 339.34 349.28 362.45999 367.62 379.54001 390.26001 395.42001 407.34 418.06 428.60001 439.32001 450.54001 461.70001 466.85999 474.974 486.134 497.65399 1058.1 1069.3 1077.66 1081.04 1089 1100.64 1250.72 1261.92 1273.5601 1278.02 1289.66 1301.1"
         y="0"
         id="tspan328">Денежные средства и их эквиваленты на начало года27,16826,654</tspan><tspan
         x="0 13.06 24.280001 36.200001 46.580002 58.5 70.419998 81.339996 86.5 98.419998 108.26 121.54 132.46001 144.38 155.3 167.22 179.14 191.06 196.22 207.06 217.78 229 244.25999 254.2 266.12 279.29999 289.66 294.82001 304.94 315.51999 327.14001 337.85999 349.01999 359.85999 365.01999 376.94 387.66 392.82001 404.34 415.26001 427.17999 438.10001 453.07999 465 478.17999 489.10001 494.26001 504.98001 516.59998 527.52002 539.03998 549.76001 559.70001 570.53998 581.26001 586.41998 598.34003 603.5 615.41998 625.78003 630.94 641.65997 651.78003 662.62 674.53998 685.38 696.09998 707.32001 718.23999 730.15997 740.09998 1065.9399 1077.46 1082.2 1093.4 1101.36 1261.4 1267.08 1275.04 1279.1801 1288.92 1298.66 1306.62 1313"
         y="32.700001"
         id="tspan330">Влияние изменений валютных курсов на денежные средства и их эквиваленты3,216(1,771) </tspan></text><text
       transform="matrix(1,0,0,-1,499.0203,194.1201)"
       style="font-variant:normal;font-weight:500;font-stretch:normal;font-size:20px;font-family:'Rubik Medium';-inkscape-font-specification:Rubik-Medium;writing-mode:lr-tb;fill:#000000;fill-opacity:1;fill-rule:nonzero;stroke:none"
       id="text336"><tspan
         x="0 14.92 26.48 38.959999 50.52 67.699997 80.18 95.540001 107.1 111.66 123.1 135.38 146.94 159.52 170.96001 181.58 193.28 204.72 209.28 221.75999 226.32001 238.8 250.10001 254.66 266.17999 277.64001 289.34 301.82001 313.51999 324.95999 337.04001 348.60001 361.07999 371.70001 387.06 391.62 404.10001 415.54001 420.10001 431.09399 442.95401 455.43399 466.99399 479.754 484.314 493.05399 504.914 517.49402 1058.5601 1069.76 1074.9 1087.46 1100.6 1251.96 1264.36 1274.04 1278.02 1287.3 1299.86"
         y="0"
         id="tspan334">Денежные средства и их эквиваленты на конец года9,68227,168</tspan></text><text
       transform="matrix(1,0,0,-1,99.0203,851.3001)"
       style="font-variant:normal;font-weight:300;font-stretch:normal;font-size:20px;font-family:'Rubik Light';-inkscape-font-specification:Rubik-Light;writing-mode:lr-tb;fill:#000000;fill-opacity:1;fill-rule:nonzero;stroke:none"
       id="text354"><tspan
         x="0 13 23.58 35.099998 47.02 56.959999 68.120003 79.739998 90.459999 100.08 111.24 122.16 127.32 137.16 147.88 158 169.22 184.48 195.02 205.94 217.86 229.78 240.7"
         y="0"
         id="tspan338">Аудиторское заключение </tspan><tspan
         x="0 11.92 22.84 32.68 43.400002 54.240002 66.160004 76.879997 88.800003 102.08 115.26 125.62 130.78 141.5 152.08 163.60001 175.52 185.46001 196.62 208.24001 219.39999 230.24001"
         y="26"
         id="tspan340">независимых аудиторов </tspan><tspan
         x="0 11.16 16.32 27.66 38.240002 48.599998 56.959999 67.68 78.900002 88.839996 99.760002 111.38 122.1 131.718 142.87801 154.798 159.95799 171.118 181.058 191.59801 202.51801 212.45799 224.37801 235.53799 246.258 256.198 268.11801"
         y="52"
         id="tspan342">о бухгалтерской отчетности </tspan><tspan
         x="0 14 24.58 35.919998 47.139999 59.060001 69.599998 81.519997 92.68 100.8 111.96 117.12 127.84 137.96001 149.98 161.89999 173.06 184.98 195.89999 207.52 219.44 230.60001 238.718 249.87801"
         y="78"
         id="tspan344">Публичного акционерного </tspan><tspan
         x="0 11.16 22.5 38.400002 49.32 60.040001 69.980003 80.82 91.540001 96.699997 108.76 122.76 133.67999 145.3 156.14 166.86 177.24001 182.39999 190.498 201.73801 212.31799 222.158 233.31799 244.158 254.87801 265.258"
         y="104"
         id="tspan346">общества «Первая Грузовая </tspan><tspan
         x="0 11.68 22.84 36.119999 47.639999 58.360001 70.279999 82.199997 92.580002 104.64 109.8 119.64 130.36 135.52 146.72 159.03999 170.24001 182.56 187.72 195.838 206.998 218.51801 223.67799 235.298 246.01801 255.858 269.138 280.05801 295.95801 306.87799 318.798 329.95801"
         y="130"
         id="tspan348">Компания» за 2020 год размещено </tspan><tspan
         x="0 11.92 22.639999 27.799999 39.720001 51.639999 61.580002 72.5 84.120003 96.040001 106.96 116.9 126.64 137.36 148.08 160 169.94 180.86 186.02 197.698 208.858 222.138 233.658 244.37801 256.298 268.21799 280.138"
         y="156"
         id="tspan350">на интернет-сайте Компании </tspan><tspan
         x="0 15.72 31.440001 46.32 51.080002 62.700001 74.32 84.059998 99.519997 110.44 121.8 126.56 133.52"
         y="182"
         id="tspan352">www.pgkweb.ru</tspan></text><g
       id="g356"
       transform="translate(220.1209,984)"><path
         d="M 0,0 -9.121,-10.047 0,-20.094 H 27.879 V -10.047 0 Z"
         style="fill:#faaa2d;fill-opacity:1;fill-rule:nonzero;stroke:none"
         id="path358" /></g><text
       transform="matrix(1,0,0,-1,98,968.3599)"
       style="font-variant:normal;font-weight:300;font-stretch:normal;font-size:16px;font-family:'Rubik Light';-inkscape-font-specification:Rubik-Light;writing-mode:lr-tb;fill:#000000;fill-opacity:1;fill-rule:nonzero;stroke:none"
       id="text362"><tspan
         x="0 11.2 19.775999 28.208 36.784 45.759998 54.688 58.816002 68.351997 76.928001 81.056 89.632004 97.584 106.6864 110.4944"
         y="0"
         id="tspan360">Начало на стр. </tspan></text><text
       transform="matrix(1,0,0,-1,220.8784,968.3599)"
       style="font-variant:normal;font-weight:500;font-stretch:normal;font-size:16px;font-family:'Rubik Medium';-inkscape-font-specification:Rubik-Medium;writing-mode:lr-tb;fill:#ffffff;fill-opacity:1;fill-rule:nonzero;stroke:none"
       id="text366"><tspan
         x="0 10.112"
         y="0"
         id="tspan364">47</tspan></text><text
       transform="matrix(1,0,0,-1,37.3702,1023)"
       style="font-variant:normal;font-weight:300;font-stretch:normal;font-size:20px;font-family:'Rubik Light';-inkscape-font-specification:Rubik-Light;writing-mode:lr-tb;fill:#000000;fill-opacity:1;fill-rule:nonzero;stroke:none"
       id="text370"><tspan
         x="0 11.9"
         y="0"
         id="tspan368">48</tspan></text><g
       id="g372"><g
         id="g374"><g
           id="g376"
           clip-path="url(#clipPath380)"><text
             transform="matrix(1,0,0,-1,99,1023)"
             style="font-variant:normal;font-weight:300;font-stretch:normal;font-size:20px;font-family:'Rubik Light';-inkscape-font-specification:Rubik-Light;writing-mode:lr-tb;fill:#000000;fill-opacity:1;fill-rule:nonzero;stroke:none"
             id="text384"><tspan
               x="0 13.24 18.4 28.02 39.18 52.459999 63.98 74.699997 86.620003 98.540001"
               y="0"
               id="tspan382">О компании</tspan></text></g></g></g></g></svg>
