<?xml version="1.0" encoding="UTF-8" standalone="no"?>
<?xml-stylesheet type="text/css" href="main.css" ?>
<svg
   xmlns:dc="http://purl.org/dc/elements/1.1/"
   xmlns:cc="http://creativecommons.org/ns#"
   xmlns:rdf="http://www.w3.org/1999/02/22-rdf-syntax-ns#"
   xmlns:svg="http://www.w3.org/2000/svg"
   xmlns="http://www.w3.org/2000/svg"
   version="1.1"
   id="svg2"
   xml:space="preserve"
   width="2560"
   height="1440"
   viewBox="0 0 2560 1440"><metadata
     id="metadata8"><rdf:RDF><cc:Work
         rdf:about=""><dc:format>image/svg+xml</dc:format><dc:type
           rdf:resource="http://purl.org/dc/dcmitype/StillImage" /></cc:Work></rdf:RDF></metadata><defs
     id="defs6"><clipPath
       clipPathUnits="userSpaceOnUse"
       id="clipPath20"><path
         d="M 0,1080 H 1920 V 0 H 0 Z"
         id="path18" /></clipPath><clipPath
       clipPathUnits="userSpaceOnUse"
       id="clipPath244"><path
         d="M 0,1080 H 1920 V 0 H 0 Z"
         id="path242" /></clipPath></defs><g
     id="g10"
     transform="matrix(1.3333333,0,0,-1.3333333,0,1440)"><g
       id="g12"><g
         id="g14"><g
           id="g16"
           clip-path="url(#clipPath20)"><path
             d="M 0,0 H 1920 V 1080 H 0 Z"
             style="fill:#ffffff;fill-opacity:1;fill-rule:nonzero;stroke:none"
             id="path22" /></g></g></g><text
       transform="matrix(1,0,0,-1,99,915.22)"
       style="font-variant:normal;font-weight:300;font-stretch:normal;font-size:20px;font-family:'Rubik Light';-inkscape-font-specification:Rubik-Light;writing-mode:lr-tb;fill:#000000;fill-opacity:1;fill-rule:nonzero;stroke:none"
       id="text40"><tspan
         x="0 13.06 18.219999 28.459999 39.18 50.400002 61.560001 72.400002 84.32 94.699997 105.06 110.22 121.74 132.46001 144.38 155.89999 166.82001 180.10001 192.02 203.94 209.10001 218.718 229.87801 241.498 252.658 264.578 275.298 286.138 298.05801 309.29599 319.53601 330.25601 340.97601 346.13599 351.87601 364.896 377.75601 390.51599 395.53601 409.07599 417.996 425.95599 436.73401 443.11401"
         y="0"
         id="tspan24">В условиях пандемии коронавируса (COVID-19) </tspan><tspan
         x="0 9.8400002 20.559999 31.280001 42.200001 53.720001 64.440002 76.360001 88.279999 98.660004 103.82 116.84 128 138.84 149.75999 159.7 170.42 175.58 187.10001 199.02 210.64 221.56 231.67999 241.62 252.78 264.39999 275.56 286.39999 291.56 303.48001 308.64001 319.56 327.67599 338.836 343.996 355.67599 366.836 380.116 392.03601 401.97601 412.896 422.836 433.996 444.836"
         y="26"
         id="tspan26">заседания Совета директоров и его Комитетов </tspan><tspan
         x="0 11.52 23.139999 34.299999 45.139999 56.299999 67.82 79.739998 90.959999 102.88 113.6 123.12 128.28 139.44 151.36 162.58 173.3 185.22 197.14 202.3 213.14 218.3 231.88 243.03999 254.66 267.94 278.85999 284.01999 294.85999 306.78 318.29999 329.22 340.38 349.996 361.15601 373.07599 386.65601 397.57599 409.19601 420.116 432.03601 444.056 455.97601 467.896"
         y="52"
         id="tspan28">проводились онлайн в форме видеоконференций </tspan><tspan
         x="0 11.52 23.139999 35.060001 40.220001 51.84 62.759998 78.139999 89.059998 100.98 112.9 124.82 129.98 140.82001 151.98 163.5 175.12 186.28 197 208.16 219 223.74001 228.89999 238.84 250.46001 261.38 272.72 283.29999 298.56 314.45999 326.38 336.73999 341.89999 353.06 363.60001 375.51999 386.67999 394.79599 405.95599 411.116 422.276 433.616 444.336 454.91599 469.896 481.41599 492.336 504.25601 516.17603 526.55603 531.31598"
         y="78"
         id="tspan30">при решении вопросов, требующих очного обсуждения. </tspan><tspan
         x="0 12.4 22.34 33.5 38.66 50.18 61.34 71.18 82.019997 92.980003 104.2 116.12 127.34 138.5 143.66 153.5 165.42 176.14 186.67999 198.60001 208.53999 219.37801 230.59801 240.118 252.03799 263.198 268.358 279.87799 291.03799 301.87799 315.05801 325.77802 337.698 347.638 357.15799 362.31799 373.03799 386.61801 400.198 411.11801 421.23801 431.17801 443.09799 453.93799 465.858 477.01801 487.73801 497.67801 507.198"
         y="104"
         id="tspan32">Это позволило значительно повысить эффективность </tspan><tspan
         x="0 11.92 17.08 28.24 39.759998 50.68 62.299999 73.019997 82.959999 94.879997 105.72 117.64 128.8 139.52 149.46001 158.98 164.14 175.75999 186.48 197.82001 208.98 218.92 232.10001 237.25999 247.98 257.92001 269.84 280.20001 285.35999 296.51999 308.14001 316.5 327.22 339.14001 350.29999 361.14001"
         y="130"
         id="tspan34">и оперативность работы этих органов.</tspan><tspan
         x="0 13.06 18.219999 29.42 41.740002 52.939999 65.260002 70.419998 78.540001 89.699997 101.22 111.8 116.96 129.98 141.14 151.98 162.89999 172.84 184 197.28 202.44 213.96001 225.88 237.5 248.42 258.54001 268.48001 279.64001 291.26001 302.42001 313.26001 318.42001 330.34 335.5 346.42001 354.53601 365.69601 370.85599 382.53601 393.69601 406.97601 418.896 428.836 439.75601 449.69601 460.41599 473.69601 485.616"
         y="156"
         id="tspan36">В 2020 году Советом директоров и его Комитетами </tspan><tspan
         x="0 11.34 24.52 35.740002 46.900002 52.060001 63.580002 75.199997 86.360001 97.199997 108.12 119.64 130.56 142.48 153.64 158.8 169.64 174.8 185.52 196.67999 207.52 218.67999 228.8 239.38 250.89999 262.82001 273.98001 284.70001 294.64001 306.56 311.72 323.06 334.01599 345.23599 356.15601 367.07599 372.23599 384.13599 396.45599 401.616 411.45599 422.17599 432.896 443.81601 455.336 466.056 477.97601 489.896 501.81601"
         y="182"
         id="tspan38">было проведено в совокупности более 40 заседаний.</tspan></text><text
       transform="matrix(1,0,0,-1,99,681.22)"
       style="font-variant:normal;font-weight:normal;font-stretch:normal;font-size:20px;font-family:'Prosto One';-inkscape-font-specification:ProstoOne-Regular;writing-mode:lr-tb;fill:#faaa2d;fill-opacity:1;fill-rule:nonzero;stroke:none"
       id="text44"><tspan
         x="0 16.4"
         y="0"
         id="tspan42">05</tspan></text><text
       transform="matrix(1,0,0,-1,134.46,681.22)"
       style="font-variant:normal;font-weight:500;font-stretch:normal;font-size:20px;font-family:'Rubik Medium';-inkscape-font-specification:Rubik-Medium;writing-mode:lr-tb;fill:#000000;fill-opacity:1;fill-rule:nonzero;stroke:none"
       id="text52"><tspan
         x="0 13.7 25.66 37.099998 49.18 60.619999 73.099998 84.540001 97.019997 109.3 121.16 132.86 144.3 156.78 169.25999 180.7 192.22 196.78 208.22 220.7 232.14 242.75999 254.32001 268.39999 279.84 284.39999 296.10001 307.95999 318.67999 331.16 342.60001 351.51999 363.79999 375.23999 392.42001 405 416.56 429.04001 441.51999 453.04001"
         y="0"
         id="tspan46">Сбалансированная система вознаграждения </tspan><tspan
         x="-35.459999 -23.6 -11.32 -2.4000001 9.04 21.52 33.380001 45.080002 49.639999 61.080002 73.32 85.599998 97.040001 108.74 120.82 132.38 144.86 157.34 168.86 174.16 178.72 190.58 202.53999 214.10001 225.53999 237.78 249.34 260.92001 273.39999 285.10001 296.54001 313.26001 329.95999 341.39999 352.92001 357.48001 368.92001 380.88 392.95999 405.44 422.62 434.17999 446.66 459.14001 470.70001"
         y="26"
         id="tspan48">органов управления, обеспечивающая сближение </tspan><tspan
         x="-35.459999 -22.98 -11.68 -7.1199999 5.3600001 17.84 28.459999 40.02 52.299999 63.860001 75.300003 87.160004 98.860001 103.42 114.86 119.42 131.89999 144.38 155 166.56 178.84 190.39999 201.84 213.28 227.36 239.84 244.39999 257.25601 269.116 283.19601 295.436 306.87601 319.35599 331.836 344.31601"
         y="52"
         id="tspan50">их интересов с интересами Компании.</tspan></text><text
       transform="matrix(1,0,0,-1,99,603.22)"
       style="font-variant:normal;font-weight:300;font-stretch:normal;font-size:20px;font-family:'Rubik Light';-inkscape-font-specification:Rubik-Light;writing-mode:lr-tb;fill:#000000;fill-opacity:1;fill-rule:nonzero;stroke:none"
       id="text68"><tspan
         x="0 13.06 18.219999 29.9 41.060001 54.34 65.860001 76.580002 88.5 100.42 112.34 117.5 129.02 139.94 151.86 162.58 172.52 183.36 193.59801 204.51801 214.45799 219.618 233.618 244.578 255.798 266.95801 281.93799 292.858 304.77802 316.698 327.61801 332.77802 343.93799 349.09799 359.93799 373.11801 384.638 395.858 406.578 416.51801 427.43799 432.59799 443.138 454.358 465.27802 477.198 487.918 501.198"
         y="0"
         id="tspan54">В Компании действует Положение о выплате членам </tspan><tspan
         x="0 13.02 24.18 35.02 45.939999 55.880001 66.599998 71.760002 83.279999 95.199997 106.82 117.74 127.86 137.8 148.96001 160.58 171.74001 182.58 187.74001 198.58 209.74001 219.58 231.5 242.22 250.58 262.20001 272.92001 287.89999 299.42001 310.34 322.26001 334.17999 346.10001 351.26001 363.17999 368.34 377.95599 389.116 402.396 413.91599 424.836 436.75601 447.47601 458.19601 470.216 482.13599 494.056 498.79599"
         y="26"
         id="tspan56">Совета директоров вознаграждений и компенсаций, </tspan><tspan
         x="0 11.62 22.34 32.18 43.799999 54.52 65.860001 77.019997 86.959999 97.68 109.6 121.52 132.67999 143.60001 148.75999 160.67999 165.84 176.42 186.36 197.2 208.12 219.74001 234.72 246.24001 257.16 269.07999 281 292.16 303.07999 308.23999 319.07999 324.23999 334.95999 346.12 357.28 367.22 378.06 388.98001 398.92001 409.64001 419.57999 430.42001 442.34 454.26001"
         y="52"
         id="tspan58">разработанное и утвержденное в соответствии </tspan><tspan
         x="0 10.72 15.88 27.5 38.419998 48.040001 59.200001 72.480003 83.400002 95.32 106.84 117.56 129.58 141.5 151.88 165.16 177.08 182.24001 193.918 205.078 216.59801 227.51801 237.138 247.858 258.578 263.73801 273.358 284.51801 296.138 307.65799 318.81799 330.43799 341.15799 351.09799 363.01801 373.858 385.77802 396.93799 405.056 416.216 421.37601 431.95599 443.47601 455.09601 465.81601 476.65601 487.87601 498.79599 510.716 522.63599 533.01599"
         y="78"
         id="tspan60">с рекомендациями Кодекса корпоративного управления </tspan><tspan
         x="0 12.64 23.360001 35.279999 45.400002 56.119999 61.279999 73.839996 85 95.720001 106.44 118.36 130.28 135.03999 140.2 153.25999 158.42 169.62 181.94 193.14 205.46001 210.62 218.73801 229.89799 241.418 251.998 257.15799 267.99799 281.17801 292.698 303.918 314.638 324.578 335.298 340.45801 351.298 362.45801 372.298 384.21799 394.93799 403.298 414.918 425.638 440.61801 452.138 463.05801 474.978 486.89801 498.81799"
         y="104"
         id="tspan62">Банка России. В 2020 году выплата вознаграждений </tspan><tspan
         x="0 10.54 21.76 32.68 44.599998 55.32 68.599998 73.760002 86.779999 97.940002 108.78 119.7 129.64 140.36 145.52 157.03999 168.96001 180.58 191.5 201.62 211.56 222.72 234.34 245.5 256.34 261.5 273.01999 284.64001 295.79999 307.72 317.56 328.39999 339.56 351.07999 363 374.22 384.94 395.66 405.17999 410.34 422.26001 432.98001 438.14001 449.29999 460.01999 471.94 483.10001 493.94 504.85999"
         y="130"
         id="tspan64">членам Совета директоров производилась на основе </tspan><tspan
         x="0 11.92 23.08 33.919998 45.080002 53.200001 64.360001 69.519997 83.519997 94.480003 105.7 116.86 131.84 142.75999 154.67999 166.60001 176.98"
         y="156"
         id="tspan66">нового Положения.</tspan></text><text
       transform="matrix(1,0,0,-1,99,395.22)"
       style="font-variant:normal;font-weight:normal;font-stretch:normal;font-size:20px;font-family:'Prosto One';-inkscape-font-specification:ProstoOne-Regular;writing-mode:lr-tb;fill:#faaa2d;fill-opacity:1;fill-rule:nonzero;stroke:none"
       id="text72"><tspan
         x="0 16.4"
         y="0"
         id="tspan70">06</tspan></text><text
       transform="matrix(1,0,0,-1,134.76,395.22)"
       style="font-variant:normal;font-weight:500;font-stretch:normal;font-size:20px;font-family:'Rubik Medium';-inkscape-font-specification:Rubik-Medium;writing-mode:lr-tb;fill:#000000;fill-opacity:1;fill-rule:nonzero;stroke:none"
       id="text78"><tspan
         x="0 13.2 24.639999 36.080002 47.540001 59.82 75.18 85.800003 98.279999 109.84 114.4 126.64 138.31799 150.39799 162.87801 174.73801 187.218 191.778 204.258 208.81799 220.278 231.718 243.298 254.858 266.298 276.918 288.61801 300.17801 312.65799 325.138 336.99799 349.478 354.03799 369.31799 381.798 394.27802 405.71799 418.198 429.638 441.49799 453.198 465.05801 477.53799"
         y="0"
         id="tspan74">Раскрытие полной и качественной финансовой </tspan><tspan
         x="-35.759998 -23.280001 -18.719999 -6.2399998 5.3200002 20.6 33.080002 45.560001 57 69.480003 80.919998 92.779999 104.48 116.34 128.82001 133.38 145.86 158.34 173.62 185.48 197.75999 211.84 223.28 236.03999 248.52 261"
         y="26"
         id="tspan76">и нефинансовой информации.</tspan></text><text
       transform="matrix(1,0,0,-1,99,343.22)"
       style="font-variant:normal;font-weight:300;font-stretch:normal;font-size:20px;font-family:'Rubik Light';-inkscape-font-specification:Rubik-Light;writing-mode:lr-tb;fill:#000000;fill-opacity:1;fill-rule:nonzero;stroke:none"
       id="text88"><tspan
         x="0 14 24.1 36.380001 41.540001 53.459999 64.18 69.339996 80.959999 91.879997 100.24 110.238 121.458 131.838 143.45799 155.37801 166.53799 178.45799 183.618 194.778 205.498 217.418 228.578 239.418 250.338 255.498 266.65799 277.37799 287.95801 303.858 314.77802 325.49799 335.43799 346.27802 357.49799 367.87799 378.798 388.73801 393.89801 405.51801 416.23801 426.95801 437.078 448.698 461.87799 471.81799 483.73801 494.65799"
         y="0"
         id="tspan80">ПГК на регулярной основе осуществляет раскрытие </tspan><tspan
         x="0 11.52 22.48 33.700001 45.619999 56.779999 68.699997 73.860001 85.779999 90.940002 101.66 111.78 121.72 132.3 143.02 154.24001 163.75999 175.67999 186.84 198.75999 203.92 215.84 227.75999 241.34 252.5 264.12 277.39999 288.12 300.14001 312.06 323.98001 329.14001 340.29999 345.45999 356.17999 367.10001 378.44 389.35999"
         y="26"
         id="tspan82">полной и актуальной информации о себе </tspan><tspan
         x="0 11.92 22.639999 27.799999 39.720001 51.639999 65.220001 76.379997 88 101.28 112 124.02 135.94 147.10001 159.02 170.94 184.12 194.48 199.64 211.16 222.38 233.53999 249.44 260.16 271.67999 281.79999 292.51999 302.88 308.04001 320.10001 334.62 346.54001 356.48001 367.39999 379.01999 392.60001 403.32001 412.936 423.65601 434.37601 446.436"
         y="52"
         id="tspan84">на информационных площадках «Интерфакса» </tspan><tspan
         x="0 11.92 17.08 29 40.919998 50.860001 61.779999 73.400002 85.32 96.239998 106.18 115.92 126.64 137.36 149.28 159.22 170.14 175.3 186.978 198.138 211.418 222.938 233.658 245.578 257.49799 269.418"
         y="78"
         id="tspan86">и интернет-сайте Компании.</tspan></text><text
       transform="matrix(1,0,0,-1,99,213.22)"
       style="font-variant:normal;font-weight:normal;font-stretch:normal;font-size:20px;font-family:'Prosto One';-inkscape-font-specification:ProstoOne-Regular;writing-mode:lr-tb;fill:#faaa2d;fill-opacity:1;fill-rule:nonzero;stroke:none"
       id="text92"><tspan
         x="0 16.4"
         y="0"
         id="tspan90">07</tspan></text><text
       transform="matrix(1,0,0,-1,132.96,213.22)"
       style="font-variant:normal;font-weight:500;font-stretch:normal;font-size:20px;font-family:'Rubik Medium';-inkscape-font-specification:Rubik-Medium;writing-mode:lr-tb;fill:#000000;fill-opacity:1;fill-rule:nonzero;stroke:none"
       id="text100"><tspan
         x="0 13.34 28.620001 43.900002 55.459999 66.919998 77.540001 90.019997 101.72 114.2 125.64 137.16 141.72 153.16 165.64 177.08 187.7 199.25999 213.34 224.78 229.34 240.78 253.02 265.29999 276.73999 288.44 300.51999 312.07999 324.56 337.04001 348.56 353.12 365.39999 377.88 389.32001 400.78 412.22 426.29999 438.78"
         y="0"
         id="tspan94">Эффективная система управления рисками </tspan><tspan
         x="-33.959999 -21.48 -16.92 -5.2199998 7.2600002 18.700001 29.32 41.599998 53.16 65.639999 78.120003 89.68 98.417999 110.278 114.838 125.838 137.698 150.17799 160.798 173.078 184.758 196.838 208.358 213.658 218.218 229.73801 245.01801 260.298 271.858 283.31799 293.93799 306.418 318.11801 330.59799 342.03799 353.55801 358.11801 372.97601 384.41599 396.896 408.35599 421.116 433.59601 445.116"
         y="26"
         id="tspan96">и внутреннего контроля, эффективная функция </tspan><tspan
         x="-33.959999 -22.26 -9.7799997 1.66 12.28 24.559999 36.119999 48.599998 61.080002 72.639999 81.377998 93.237999 97.797997 109.238 120.678 133.258 145.73801 156.358 167.798"
         y="52"
         id="tspan98">внутреннего аудита.</tspan></text><text
       transform="matrix(1,0,0,-1,99,135.22)"
       style="font-variant:normal;font-weight:300;font-stretch:normal;font-size:20px;font-family:'Rubik Light';-inkscape-font-specification:Rubik-Light;writing-mode:lr-tb;fill:#000000;fill-opacity:1;fill-rule:nonzero;stroke:none"
       id="text114"><tspan
         x="0 13.06 18.219999 29.42 41.740002 52.939999 65.260002 70.419998 78.540001 89.699997 101.22 111.8 116.96 127.54 137.48 148.32001 159.24001 170.86 185.84 197.36 208.28 220.2 230.92 236.08 248 259.16 270 280.72 291.10001 296.26001 307.88 318.79999 330.32001 341.04001 351.16 363.17999 375.10001 385.48001 390.64001 404.64001 415.59601 426.81601 437.97601 452.95599 463.87601 475.79599 487.716 498.09601"
         y="0"
         id="tspan102">В 2020 году утверждена новая редакция Положения </tspan><tspan
         x="0 11.16 22.5 27.66 38.139999 49.66 61.279999 72 82.839996 94.059998 104.98 116.9 128.82001 140.74001 145.89999 156.74001 168.66 179.24001 189.17999 200.8 211.72 223.64 235.56 246.48 254.59599 265.75601 270.91599 281.63599 292.216 303.73599 315.65601 325.59601 336.31601 341.47601 355.47601 365.57599 377.85599 382.59601 387.75601 399.37601 410.09601 419.936 431.556 442.276 453.616 464.776 474.716 485.436 497.35599 509.276 519.99597 530.37598"
         y="26"
         id="tspan104">об Управлении внутреннего аудита ПГК, разработанная </tspan><tspan
         x="594 604.84003 610 620.71997 631.88 643.03998 652.97998 663.82001 674.73999 684.67999 695.40002 705.34003 716.17999 728.09998 740.02002 745.17999 755.90002 761.06 772.73798 783.89801 795.41803 806.33801 815.95801 826.67798 837.83801 851.11798 856.27802 865.89801 877.05798 888.67798 900.198 911.35797 922.97803 933.698 943.638 955.55798 966.39801 978.31799 989.47803 997.59601 1008.756 1013.916 1024.496 1036.016 1047.636 1058.356 1069.196 1080.416 1091.3361 1103.256 1115.176 1125.556"
         y="-826.08002"
         id="tspan106">в соответствии с Кодексом корпоративного управления </tspan><tspan
         x="594 606.64001 617.35999 629.28003 639.40002 650.12 655.28003 667.84003 679 689.71997 700.44 712.35999 724.28003 729.44 741.35999 746.52002 756.35999 767.08002 777.20001 788.82001 799.73999 811.26001 822.47998 832.85999 848.12 864.02002 874.73999 885.12 890.28003 901.79999 912.96002 924.47998 935.64001 945.58002 956.12 967.03998 976.97998 988.90002 1000.06 1010.78 1020.72 1030.24"
         y="-800.08002"
         id="tspan108">Банка России и закрепляющая подотчетность </tspan><tspan
         x="594 604.47998 616 627.62 638.34003 649.17999 660.40002 671.32001 683.23999 695.15997 705.53998 710.70001 721.53998 733.46002 744.03998 753.97998 765.59998 776.52002 788.44 800.35999 811.28003 819.39801 830.55798 835.71802 846.43799 857.01801 868.53802 880.45801 890.39801 901.11798 906.27802 920.27802 930.37799 942.65802 947.81799 959.73798 970.65802 982.17798 993.33801 1004.058 1015.678 1026.598 1038.118 1048.838 1058.778 1069.618 1080.538 1092.458 1104.3781 1115.538"
         y="-774.08002"
         id="tspan110">Управления внутреннего аудита ПГК непосредственно </tspan><tspan
         x="594 607.02002 618.17999 629.02002 639.94 649.88 660.46002 665.62 677.14001 689.06 700.67999 711.59998 721.71997 731.65997 742.82001 754.44 765.59998 776.44 781.59998 793.27802 804.43799 817.71802 829.23798 839.95801 851.87799 863.79797 875.71802"
         y="-748.08002"
         id="tspan112">Совету директоров Компании.</tspan></text><text
       transform="matrix(1,0,0,-1,693,831.3)"
       style="font-variant:normal;font-weight:normal;font-stretch:normal;font-size:20px;font-family:'Prosto One';-inkscape-font-specification:ProstoOne-Regular;writing-mode:lr-tb;fill:#faaa2d;fill-opacity:1;fill-rule:nonzero;stroke:none"
       id="text118"><tspan
         x="0 16.4"
         y="0"
         id="tspan116">08</tspan></text><text
       transform="matrix(1,0,0,-1,728.96,831.3)"
       style="font-variant:normal;font-weight:500;font-stretch:normal;font-size:20px;font-family:'Rubik Medium';-inkscape-font-specification:Rubik-Medium;writing-mode:lr-tb;fill:#000000;fill-opacity:1;fill-rule:nonzero;stroke:none"
       id="text124"><tspan
         x="0 13.7 25.66 37.099998 49.18 60.619999 73.099998 84.540001 97.019997 109.3 121.16 132.86 144.3 156.78 169.25999 180.7 192.22 196.78 209.36 221.84 233.53999 246.02 258.60001 270.16 282.64001 295.22 307.70001 319.14001 330.66 335.22 347.45999 359.13599 371.216 383.69601 394.31601 406.79599 418.25601 429.69601 434.996"
         y="0"
         id="tspan120">Сбалансированная дивидендная политика, </tspan><tspan
         x="-35.959999 -24.1 -13.48 -1.78 9.7799997 21.360001 32.799999 49.52 66.220001 77.660004 89.18 93.739998 106.22 118.7 129.32001 140.88 153.16 164.72 176.16 187.60001 201.67999 206.24001 217.23599 229.09599 243.17599 255.416 266.85599 279.336 291.81601 304.29599 308.85599 321.336 325.896 337.45599 349.01599 353.57599 365.01599 376.47601 389.23599 401.716 413.57599 426.056 437.616 449.896 461.75601 473.45599"
         y="26"
         id="tspan122">отвечающая интересам компании и ее акционеров.</tspan></text><text
       transform="matrix(1,0,0,-1,693,779.3)"
       style="font-variant:normal;font-weight:300;font-stretch:normal;font-size:20px;font-family:'Rubik Light';-inkscape-font-specification:Rubik-Light;writing-mode:lr-tb;fill:#000000;fill-opacity:1;fill-rule:nonzero;stroke:none"
       id="text130"><tspan
         x="0 13.06 18.219999 29.42 41.740002 52.939999 65.260002 70.419998 78.540001 89.699997 101.22 111.8 116.96 128.64 139.8 153.08 164.60001 175.32001 187.24001 199.16 209.53999 214.7 225.53999 238.72 250.24001 261.45999 272.17999 282.12 294.04001 305.26001 315.98001 321.14001 332.66 344.57999 355.42001 367.34 378.85999 389.78 401.70001 413.22 426.39999 431.56 442.28 453.12 464.28 476.20001 489.48001"
         y="0"
         id="tspan126">В 2020 году Компания выплатила дивиденды своим </tspan><tspan
         x="0 10.72 20.84 32.860001 44.779999 55.939999 67.860001 78.779999 90.400002 101.12 114.4 119.56 131.08 142.24001 147.39999 159.32001 169.25999 180.42 188.78 199.5 212.78 217.94 229.14 241.46001 249.42 260.85999 266.01999 274.138 285.298 296.81799 307.53799 312.698 324.61801 329.77802 341.21799 346.37799 359.65799 370.578 381.298 391.67801 403.698 414.61801 425.45801 430.61801 441.81799 454.138 465.33801 477.65799 482.81799 490.93399 502.09399 513.61401 524.33398"
         y="26"
         id="tspan128">акционерам по итогам 2019 года и 9 месяцев 2020 года.</tspan></text><text
       transform="matrix(1,0,0,-1,693,701.3)"
       style="font-variant:normal;font-weight:normal;font-stretch:normal;font-size:20px;font-family:'Prosto One';-inkscape-font-specification:ProstoOne-Regular;writing-mode:lr-tb;fill:#faaa2d;fill-opacity:1;fill-rule:nonzero;stroke:none"
       id="text134"><tspan
         x="0 16.4"
         y="0"
         id="tspan132">09</tspan></text><text
       transform="matrix(1,0,0,-1,728.76,701.3)"
       style="font-variant:normal;font-weight:500;font-stretch:normal;font-size:20px;font-family:'Rubik Medium';-inkscape-font-specification:Rubik-Medium;writing-mode:lr-tb;fill:#000000;fill-opacity:1;fill-rule:nonzero;stroke:none"
       id="text142"><tspan
         x="0 14.6 26.040001 38.619999 50.18 67.360001 79.839996 95.199997 106.76 111.32 123.56 135.84 147.7 160.418 171.978 184.558 195.998 208.278 223.638 228.198 240.438 252.718 264.27802 276.858 288.298 300.53799 312.81799 324.37799 341.55801 354.138 365.698 378.17801 390.65799 402.17801"
         y="0"
         id="tspan136">Надежные процедуры предупреждения </tspan><tspan
         x="-35.759998 -23.280001 -18.719999 -7.2800002 5 16.559999 25.48 36.259998 48.34 60.82 73.099998 84.959999 96.660004 108.1 120.58 133.06 144.58 149.14 160.138 171.998 184.478 199.59801 211.67799 224.158 235.618 246.23801 258.09799 269.798 274.358 286.83801 299.31799 309.93799 321.49799 333.77802 345.33801 356.77802 368.638 380.33801 385.638"
         y="26"
         id="tspan138">и урегулирования конфликтов интересов, </tspan><tspan
         x="-35.759998 -23.280001 -11.72 0.86000001 12.72 24.959999 36.400002 53.060001 64.620003 77.099998 89.580002 101.14 105.7 116.698 128.558 140.838 153.078 164.938 177.218 188.658 199.278 211.758 223.45799 235.938 251.298 262.59799 267.15799 278.15601 290.01599 302.496 317.616 329.69601 342.17599 353.63599 364.25601 376.116"
         y="52"
         id="tspan140">недопущение корпоративных конфликтов</tspan></text><text
       transform="matrix(1,0,0,-1,693,623.3)"
       style="font-variant:normal;font-weight:300;font-stretch:normal;font-size:20px;font-family:'Rubik Light';-inkscape-font-specification:Rubik-Light;writing-mode:lr-tb;fill:#000000;fill-opacity:1;fill-rule:nonzero;stroke:none"
       id="text176"><tspan
         x="0 13.06 18.219999 32.220001 42.32 54.599998 59.759998 70.339996 80.279999 91.120003 102.04 113.66 128.64 140.16 151.08 163 168.16 180.08 185.24001 196.75999 207.67999 219.60001 230.32001 240.25999 251.10001 261.336 272.25601 282.19601 287.35599 299.03601 310.19601 321.716 332.63599 342.25601 352.97601 358.13599 369.65601 380.496 391.716 402.87601 413.716 424.87601 436.79599 441.95599 452.67599 462.616 474.53601 484.65601 496.57599 501.31601"
         y="0"
         id="tspan144">В ПГК утвержден и действует Кодекс деловой этики, </tspan><tspan
         x="0 11.16 21.1 32.720001 43.439999 58.419998 69.139999 84.400002 100.3 112.22 124.14 129.3 140.82001 152.44 164.36 176.28 186.66 196.60001 209.78 220.7 225.86 236.7 241.86 255.86 265.95999 278.23999 283.39999 294.12 304.06 314.78 326.70001 338.22 348.94 360.56 370.5 383.67999 388.84 400.35999 411.51999 422.35999 433.28 444.79999 455.72 467.64001 479.56 489.94 494.67999"
         y="26"
         id="tspan146">отражающий принятые в ПГК стандарты поведения, </tspan><tspan
         x="0 8.3599997 19.08 30.700001 41.419998 53.34 63.279999 75.199997 86.440002 97.019997 112.28 128.17999 140.10001 151.02 156.17999 166.72 177.64 188.36 198.3 210.22 221.38 232.3 237.46001 249.38 254.53999 265.26001 276.78 288.39999 299.12 309.95999 320.88 332.39999 343.62 355.54001 366.38 377.54001 388.45999 393.62 404.78 414.72 426.64001 437.79999 453.17999 464.10001 476.01999 487.94 498.85999"
         y="52"
         id="tspan148">гарантирующие честное и справедливое отношение </tspan><tspan
         x="0 10.12 15.28 25.82 37.040001 47.959999 59.880001 70.599998 83.879997 89.040001 98.657997 109.818 123.098 133.81799 145.73801 157.258 170.438 175.17799 180.338 190.45799 201.67799 213.59801 224.51801 236.438 246.37801 257.09799 270.37799 275.53799 287.45801 292.61801 304.138 314.858 326.478 336.418 348.33801 359.258 370.87799 381.59799 394.87799"
         y="78"
         id="tspan150">к членам команды, клиентам и партнерам.</tspan><tspan
         x="0 14 25.16 36.68 48.200001 59.119999 70.739998 85.720001 97.639999 108.48 119.2 129.58 134.74001 146.25999 157.88 169.8 181.72 193.74001 205.66 217.17999 230.36 235.52 247.58 260.57999 272.5 282.44 294.35999 303.97601 315.13599 326.75601 337.996 348.57599 360.09601 372.116 384.03601 395.19601 407.116 419.03601 430.19601 442.116"
         y="104"
         id="tspan152">Поддерживая принципы «Антикоррупционной </tspan><tspan
         x="0 10.36 21.08 32.700001 42.639999 54.560001 66.480003 71.639999 83.260002 94.419998 105.14 115.86 127.78 139.7 150.42 160.03799 171.198 179.31799 190.478 195.638 206.978 218.89799 228.73801 240.658 251.578 262.298 273.01801 285.078 289.81799 294.978 308.978 319.078 331.358 336.51801 346.358 357.078 367.45801 378.298 389.51801 399.89801 410.81799 420.758"
         y="130"
         id="tspan154">хартии российского бизнеса», ПГК заявляет </tspan><tspan
         x="0 11.16 16.32 28.24 39.16 49.099998 60.02 71.639999 83.160004 95.080002 108.36 119.52 130.24001 140.17999 152.10001 157.25999 167.38 172.53999 183.75999 199.02 210.36 223.53999 236.82001 241.98 253.5 265.12 276.28 286.66 297.5 308.72 319.64001 331.56 343.48001 353.85999 367.14001 372.29999 381.91599 393.07599 404.69601 415.93399 426.51401 438.034 450.05399 461.974 473.89401 478.634"
         y="156"
         id="tspan156">о нетерпимости к любым проявлениям коррупции, </tspan><tspan
         x="0 10.36 22.280001 38.18 49.099998 61.02 72.940002 84.860001 90.019997 101.94 107.1 119.02 130.94 144.12 154.48 159.64 169.48 180.7 191.478 202.058 213.578 224.73801 234.67799 246.298 257.21799 268.55801 279.77802 290.698 302.61801 314.53799 326.45801 331.21799 336.37799 349.89801 361.11801 371.49799 376.65799 388.17801 399.33801 410.858 422.37799 433.298 444.918 459.89801 470.61801 482.53799 494.45801 504.83801"
         y="182"
         id="tspan158">хищений и иных злоупотреблений. Для поддержания </tspan><tspan
         x="0 9.8400002 20.559999 30.940001 41.779999 53 63.919998 75.839996 87.760002 100.94 111.3 116.46 127.98 139.60001 151.52 163.44 175.46001 187.38 198.89999 210.06 220.89999 226.06 236.89999 242.06 253.73599 264.896 278.17599 289.69601 300.41599 312.336 324.25601 336.17599 341.336 351.91599 361.85599 372.69601 383.616 395.23599 410.216 421.73599 432.65601 444.57599 457.75601"
         y="208"
         id="tspan160">заявленных принципов в Компании утверждены </tspan><tspan
         x="0 14 24.959999 36.18 47.34 62.32 73.239998 85.160004 97.080002 107.46 112.62 123.78 135.12 140.28 151 162.92 172.86 184.78 194.39799 205.558 217.17799 228.418 238.998 250.51801 262.53799 274.45801 285.61801 297.53799 309.45801 320.61801 332.53799 337.698 349.21799 360.17599 371.396 383.31601 393.25601 405.17599 414.79599 425.716"
         y="234"
         id="tspan162">Положения об антикоррупционной политике </tspan><tspan
         x="0 11.92 17.08 26.700001 37.860001 49.779999 63.18 74.400002 86.32 96.440002 106.38 117.3 122.46 134.38 146.3 156.24001 167.16 178.78 189.7 200.42 211.58 222.42 227.16 232.32001 243.94 254.86 263.22 273.21799 284.43799 294.81799 306.43799 318.358 329.51801 334.67801 346.198 357.81799 368.978 379.81799 390.978 402.49799 414.418 424.358 435.078 445.45801"
         y="260"
         id="tspan164">и конфликте интересов, регулярно проводится </tspan><tspan
         x="0 11.16 22.5 33.080002 43.619999 54.540001 66.459999 78.379997 89.300003 94.459999 106.08 116.8 128.14 139.3 149.24001 161.16 173.08 182.698 193.858 204.698 209.858 221.37801 232.53799 237.698 248.53799 259.698 271.21799 282.83801 293.99799 304.71799 315.43799 328.71799 333.87799 345.39801 357.01801 368.17801 378.11801 390.03799 400.87799 412.03799 423.55801 434.478 446.39801 457.11801 467.05801 477.89801 489.81799 500.198"
         y="286"
         id="tspan166">обучение работников по вопросам противодействия </tspan><tspan
         x="0 9.6199999 20.780001 32.400002 43.639999 54.220001 65.739998 77.760002 89.68 101.6 106.76 118.68 123.84 135.36 146.98 157.89999 169.42 180.58 190.52 201.36 212.98 223.7 239.60001 250.52 262.44 274.35999 289.62 294.78 304.396 315.556 327.47601 340.87601 352.09601 364.01599 374.13599 384.07599 394.79599 399.95599 411.87601 423.79599 433.73599 444.65601 456.276 467.19601 477.91599 489.07599 499.91599 504.65601"
         y="312"
         id="tspan168">коррупции и предотвращению конфликта интересов, </tspan><tspan
         x="0 11.16 22.780001 31.139999 41.860001 53.779999 65.699997 75.540001 86.699997 97.540001 108.26 120.18 133.36 138.52 148.64 159.87801 170.45799 178.298 189.51801 200.67799 211.39799 221.978 231.918 243.078 253.618 265.53799 278.71799 289.638 294.798 306.31799 316.89801 328.81799 338.93799 348.87799 362.05801 367.21799 378.73801 389.89801 400.73801 411.65799 423.27802 435.198 445.578"
         y="338"
         id="tspan170">организованы круглосуточные пункты доверия </tspan><tspan
         x="0 11.52 22.68 27.84 39.18 50.34 61.959999 71.480003 82.82 93.739998 98.900002 109.62 114.78 124.398 135.558 147.17799 158.418 168.998 180.51801 192.53799 204.45799 215.37801 227.298 232.03799 237.198 247.918 253.078 263.01801 273.73801 283.858 298.83801 309.758 314.918 325.638 336.798 346.638 358.15799 368.87799 380.798 385.95801 399.23801 410.15799 420.87799 431.59799 442.51801 454.43799 465.95801 480.93799 491.858 503.478"
         y="364"
         id="tspan172">по борьбе с коррупцией, а также создан мессенджер </tspan><tspan
         x="0 12.06 26.059999 36.16 48.439999 53.599998 65.120003 76.739998 87.900002 97.839996 109.76 120.6 125.76 135.37801 146.53799 158.158 169.39799 179.978 191.498 203.51801 215.438 227.358 239.418"
         y="390"
         id="tspan174">«ПГК против коррупции».</tspan></text><text
       transform="matrix(1,0,0,-1,693,181.3)"
       style="font-variant:normal;font-weight:normal;font-stretch:normal;font-size:20px;font-family:'Prosto One';-inkscape-font-specification:ProstoOne-Regular;writing-mode:lr-tb;fill:#faaa2d;fill-opacity:1;fill-rule:nonzero;stroke:none"
       id="text180"><tspan
         x="0 8"
         y="0"
         id="tspan178">10</tspan></text><text
       transform="matrix(1,0,0,-1,721.96,181.3)"
       style="font-variant:normal;font-weight:500;font-stretch:normal;font-size:20px;font-family:'Rubik Medium';-inkscape-font-specification:Rubik-Medium;writing-mode:lr-tb;fill:#000000;fill-opacity:1;fill-rule:nonzero;stroke:none"
       id="text186"><tspan
         x="0 13.34 28.620001 43.900002 55.459999 66.919998 77.540001 90.019997 101.72 114.2 126.06 137.62 142.17999 153.62 165.86 178.14 189.58 201.28 213.36 224.92 237.39999 249.88 261.44 266 278.48001 283.04001 294.03601 305.896 318.37601 328.996 341.276 352.95599 365.03601 375.65601"
         y="0"
         id="tspan182">Эффективное управление и контроль </tspan><tspan
         x="-28.959999 -16.379999 -4.8200002 6.6999998 17.32 28.780001 40.860001 51.48 63.959999 75.82 87.260002 97.879997 110.36 114.92 127.5 139.36 150.94 162.5 174.78 187.25999 199.74001 211.03999 215.60001 227.46001 239.42 256.07599 267.63599 279.07599 289.69601 301.396"
         y="26"
         id="tspan184">деятельности дочерних обществ.</tspan></text><text
       transform="matrix(1,0,0,-1,693,129.3)"
       style="font-variant:normal;font-weight:300;font-stretch:normal;font-size:20px;font-family:'Rubik Light';-inkscape-font-specification:Rubik-Light;writing-mode:lr-tb;fill:#000000;fill-opacity:1;fill-rule:nonzero;stroke:none"
       id="text202"><tspan
         x="0 11.26 21.200001 32.040001 42.959999 54.580002 69.559998 81.080002 92 103.92 109.08 121 132.16 143 156.17999 168.10001 173.25999 184.78 195.94 207.56 217.94 229.46001 240.62 250.74001 255.89999 266.73999 276.57999 287.29999 299.22 312.5 323.66 335.17999 346.10001 358.01999 368.73999 378.67999 389.51999 401.44 411.82001 416.98001 430.98001 441.07999 453.35999"
         y="0"
         id="tspan188">Утвержден новый порядок взаимодействия ПГК </tspan><tspan
         x="0 10.72 21.879999 27.040001 37.759998 48.599998 59.759998 71.68 84.959999 96.879997 102.04 113.56 124.72 135.25999 146.17999 157.8 169.72 181.64 194.92 206.84 212 223.16 234.5 250.39999 261.32001 272.04001 281.98001 292.82001 303.54001 316.82001 328.73999 333.5 338.66 353.17999 363.01999 376.29999 387.22 399.14001 410.06 421.98001 433.89999 444.62 455"
         y="26"
         id="tspan190">со своими дочерними обществами. Измененная </tspan><tspan
         x="594 604.71997 614.65997 625.90002 636.47998 646.59998 656.53998 667.12 678.73999 689.46002 694.62 705.20001 716.71997 728.34003 739.06 749.90002 761.12 772.03998 783.96002 795.88 806.26001 811.41998 822.26001 832.38 843.59998 858.85999 869.40002 880.12 891.03998 900.97998 906.14001 918.06 928.78003 938.62 950.53998 961.26001 971.79999 982.71997 994.64001 1006.56 1017.48 1022.64 1032.76 1043.34 1054.96 1065.6801 1075.62 1086.78 1098.4 1109.5601 1120.4"
         y="-832"
         id="tspan192">структура управления включает назначение кураторов </tspan><tspan
         x="594 605.91998 615.76001 620.91998 631.46002 643.38 654.09998 665.32001 676.03998 681.20001 692.71997 704.34003 715.5 729.08002 741 752.21997 761.73999 773.65997 786.84003 797.20001 802.35999 812.29999 823.46002 834.97998 844.71997 858 868.91998 880.84003 891.76001 903.28003 918.26001 929.17999 940.79999 951.96002 962.79999 967.53998 972.70001 982.31598 993.47601 1003.416 1014.576 1026.196 1039.376 1050.296"
         y="-806"
         id="tspan194">из числа профильных топ-менеджеров, которые </tspan><tspan
         x="594 605.15997 615.09998 625.94 636.85999 647.40002 658.12 673.38 683.32001 688.47998 698.32001 709.03998 714.20001 725.82001 736.73999 747.46002 758.67999 770.59998 780.44 791.15997 803.17999 815.09998 830.35999 835.52002 846.23999 856.17999 867.79999 878.52002 888.46002 899.38 907.73999 919.65997 930.20001 941.12 951.84003 961.96002 973.88 984.23999 989.40002 1000.92 1012.14 1022.86 1034.78 1045.9399 1056.78"
         y="-780"
         id="tspan196">отвечают за реализацию стратегических планов </tspan><tspan
         x="594 605.91998 611.08002 624.65997 636.58002 648.5 659.21997 671.14001 681.85999 693.02002 703.85999 717.03998 727.96002 733.12 744.64001 755.79999 765.91998 776.64001 786.47998 797.20001 807.14001 817.97803 829.198 841.11798 846.27802 857.79797 868.71802 879.09802 889.03802 899.87598 911.09601 920.61603 932.53601 943.69598 954.41602 964.35602 976.276 981.43597 991.55603 1002.136 1013.756 1025.676 1036.9139 1047.1541 1058.074 1071.354 1084.5341 1094.894"
         y="-754"
         id="tspan198">и финансовые показатели деятельности курируемых </tspan><tspan
         x="594 605.91998 619.20001 631.12 636.28003 647.79999 658.96002 669.5 680.41998 692.03998 703.96002 715.88 726.23999 731.40002 741.01801 752.17798 765.45801 776.97803 787.698 799.61798 811.53802 823.45801"
         y="-728"
         id="tspan200">ими дочерних компаний.</tspan></text><text
       transform="matrix(1,0,0,-1,1287,304)"
       style="font-variant:normal;font-weight:500;font-stretch:normal;font-size:28px;font-family:'Rubik Medium';-inkscape-font-specification:Rubik-Medium;writing-mode:lr-tb;fill:#000000;fill-opacity:1;fill-rule:nonzero;stroke:none"
       id="text218"><tspan
         x="0 19.18 35.784 42.167999 58.548 74.564003 90.748001 110.46 127.932 134.31599 151.92799 168.532 184.576 200.592 220.304 236.48801 253.96001 268.828 284.84399 304.556 322.02802 329.448"
         y="0"
         id="tspan204">Со всеми документами, </tspan><tspan
         x="0 17.191999 33.375999 45.051998 61.964001 77.980003 97.692001 113.876 131.34801 146.216 163.688 180.2892 196.30521 219.7132 243.0932 260.56519 280.27719 297.74921 304.13321 321.60519 337.62119 354.7572 371.94919 387.96521 404.34521 421.2572 437.44119 454.91321 472.38519 488.51321"
         y="33.992001"
         id="tspan206">регламентирующими направления </tspan><tspan
         x="0 17.472 23.856001 40.459999 56.476002 73.947998 90.552002 106.932 124.404 145.908 162.092 168.476 185.612 202.804 220.276 237.748 255.612 273.08401 290.22 311.724"
         y="67.984001"
         id="tspan208">и основные принципы </tspan><tspan
         x="0 15.4 32.004002 49.195999 66.332001 82.935997 100.128 116.144 131.01199 148.48399 164.864 182.336 198.94 211.1732 227.77721 234.16119 250.1772 267.3132 284.50519 300.52121 316.90121 333.8132 349.99719 367.46921 384.94119 401.06921 408.4892"
         y="101.976"
         id="tspan210">корпоративного управления, </tspan><tspan
         x="0 19.712 36.316002 60.368 77.839996 94.444 100.828 117.432 132.44 149.912 165.92799 181.3252 197.9292 217.6412 235.1132 249.9812 264.84921 280.8652 296.99319 303.3772 319.7572 326.1412 342.1572 358.5372 375.1412 391.88519 408.4892 426.1012 443.57321 460.17719 479.88919"
         y="135.968"
         id="tspan212">можно ознакомиться в свободном </tspan><tspan
         x="0 17.612 34.216 50.231998 65.099998 81.115997 98.251999 114.436 120.82 138.29201 154.308 160.692 177.29601 198.688 216.16 234.024 251.496 267.51199 284.42401 299.29199 316.76401 333.36801 353.07999 359.46399 375.48001 391.496 408.96799 423.836 440.01999"
         y="169.96001"
         id="tspan214">доступе на официальном сайте </tspan><tspan
         x="0 20.440001 35.672001 54.487999 60.872002 77.251999 83.636002 100.828 116.844 131.85201 149.464 165.5052 182.41721 198.6012 204.9852 222.2052 243.5132 260.9852 277.3652 293.54919 309.56519 324.4332 341.0372 358.22919 374.24521 393.95721 411.17719"
         y="203.952"
         id="tspan216">ПГК в разделе «Инвесторам».</tspan></text><g
       id="g220"
       transform="translate(221.1209,984)"><path
         d="M 0,0 -9.121,-10.047 0,-20.094 H 27.879 V -10.047 0 Z"
         style="fill:#faaa2d;fill-opacity:1;fill-rule:nonzero;stroke:none"
         id="path222" /></g><text
       transform="matrix(1,0,0,-1,99,968.3599)"
       style="font-variant:normal;font-weight:300;font-stretch:normal;font-size:16px;font-family:'Rubik Light';-inkscape-font-specification:Rubik-Light;writing-mode:lr-tb;fill:#000000;fill-opacity:1;fill-rule:nonzero;stroke:none"
       id="text226"><tspan
         x="0 11.2 19.775999 28.208 36.784 45.759998 54.688 58.816002 68.351997 76.928001 81.056 89.632004 97.584 106.6864 110.4944"
         y="0"
         id="tspan224">Начало на стр. </tspan></text><text
       transform="matrix(1,0,0,-1,221.8784,968.3599)"
       style="font-variant:normal;font-weight:500;font-stretch:normal;font-size:16px;font-family:'Rubik Medium';-inkscape-font-specification:Rubik-Medium;writing-mode:lr-tb;fill:#ffffff;fill-opacity:1;fill-rule:nonzero;stroke:none"
       id="text230"><tspan
         x="0 9.9359999"
         y="0"
         id="tspan228">52</tspan></text><text
       transform="matrix(1,0,0,-1,38.0202,1023)"
       style="font-variant:normal;font-weight:300;font-stretch:normal;font-size:20px;font-family:'Rubik Light';-inkscape-font-specification:Rubik-Light;writing-mode:lr-tb;fill:#000000;fill-opacity:1;fill-rule:nonzero;stroke:none"
       id="text234"><tspan
         x="0 11.44"
         y="0"
         id="tspan232">53</tspan></text><g
       id="g236"><g
         id="g238"><g
           id="g240"
           clip-path="url(#clipPath244)"><text
             transform="matrix(1,0,0,-1,99,1023)"
             style="font-variant:normal;font-weight:300;font-stretch:normal;font-size:20px;font-family:'Rubik Light';-inkscape-font-specification:Rubik-Light;writing-mode:lr-tb;fill:#000000;fill-opacity:1;fill-rule:nonzero;stroke:none"
             id="text248"><tspan
               x="0 13.24 18.4 28.02 39.18 52.459999 63.98 74.699997 86.620003 98.540001"
               y="0"
               id="tspan246">О компании</tspan></text></g></g></g></g></svg>
