<?xml version="1.0" encoding="UTF-8" standalone="no"?>
<?xml-stylesheet type="text/css" href="main.css" ?>
<svg
   xmlns:dc="http://purl.org/dc/elements/1.1/"
   xmlns:cc="http://creativecommons.org/ns#"
   xmlns:rdf="http://www.w3.org/1999/02/22-rdf-syntax-ns#"
   xmlns:svg="http://www.w3.org/2000/svg"
   xmlns="http://www.w3.org/2000/svg"
   version="1.1"
   id="svg2"
   xml:space="preserve"
   width="2560"
   height="1440"
   viewBox="0 0 2560 1440"><metadata
     id="metadata8"><rdf:RDF><cc:Work
         rdf:about=""><dc:format>image/svg+xml</dc:format><dc:type
           rdf:resource="http://purl.org/dc/dcmitype/StillImage" /></cc:Work></rdf:RDF></metadata><defs
     id="defs6"><clipPath
       clipPathUnits="userSpaceOnUse"
       id="clipPath20"><path
         d="M 0,1080 H 1920 V 0 H 0 Z"
         id="path18" /></clipPath><clipPath
       clipPathUnits="userSpaceOnUse"
       id="clipPath176"><path
         d="M 0,0 H 1920 V 1080 H 0 Z"
         id="path174" /></clipPath></defs><g
     id="g10"
     transform="matrix(1.3333333,0,0,-1.3333333,0,1440)"><g
       id="g12"><g
         id="g14"><g
           id="g16"
           clip-path="url(#clipPath20)"><path
             d="M 0,0 H 1920 V 1080 H 0 Z"
             style="fill:#ffffff;fill-opacity:1;fill-rule:nonzero;stroke:none"
             id="path22" /></g></g></g><path
       d="M 0,0 H 633 V 1080 H 0 Z"
       style="fill:#f0f0f5;fill-opacity:1;fill-rule:nonzero;stroke:none"
       id="path24" /><text
       transform="matrix(1,0,0,-1,99,953.4)"
       style="font-variant:normal;font-weight:normal;font-stretch:normal;font-size:38px;font-family:'Prosto One';-inkscape-font-specification:ProstoOne-Regular;writing-mode:lr-tb;fill:#000000;fill-opacity:1;fill-rule:nonzero;stroke:none"
       id="text32"><tspan
         x="0 30.02 62.700001 92.720001 119.51 146.49001 188.28999 219.45"
         y="0"
         id="tspan26">СИСТЕМА </tspan><tspan
         x="0 30.209999 64.410004 94.43 126.35 160.55 190.57001 221.73 248.52 281.20001 311.60001 343.51999 377.72 402.79999 437"
         y="45.599998"
         id="tspan28">КОРПОРАТИВНОГО </tspan><tspan
         x="0 30.209999 62.130001 92.150002 123.31 153.71001 185.25 212.23 244.14999 276.82999"
         y="91.199997"
         id="tspan30">УПРАВЛЕНИЯ</tspan></text><text
       transform="matrix(1,0,0,-1,99,783.5001)"
       style="font-variant:normal;font-weight:300;font-stretch:normal;font-size:20px;font-family:'Rubik Light';-inkscape-font-specification:Rubik-Light;writing-mode:lr-tb;fill:#000000;fill-opacity:1;fill-rule:nonzero;stroke:none"
       id="text68"><tspan
         x="0 11.2 23.52 34.720001 47.040001 52.200001 60.560001 71.720001 83.239998 88.400002 99.120003 109.06 119.78 131 136.16 147.5 158.42 169.14 180.66 192.28 203.2 215.22 226.14 237.66 248.58 260.5 270.44 282.35999 295.54001 308.82001 313.98001 325.5 336.72 347.10001 352.26001 363.10001 373.82001 384.73999 393.10001 404.26001"
         y="0"
         id="tspan34">2020 год стал беспрецедентным для всего </tspan><tspan
         x="0 13.28 25.200001 36.82 47.98 58.82 69.980003 78.339996 89.5 94.660004 105.38 116.54 127.7 139.03999 154.94 165.86 176.58 186.52 197.36 208.08 212.84 218 231.06 241.78 252.7 263.85999 275.20001 291.10001 303.01999 314.94 320.10001 330.82001 340.94 352.10001 364.01999 375.17999 388.45999 400.38 410.92001 421.84 432.56 442.67999 454.60001 466.51999"
         y="26"
         id="tspan36">мирового сообщества. Всеобщий экономический </tspan><tspan
         x="0 10.12 21.74 33.66 43.5 55.419998 66.139999 70.879997 76.040001 86.879997 100.06 109.9 120.74 131.46001 143.38 155.3 168.48 180.39999 185.56 197.08 207.8 219.72 231.24001 242.16 255.44 267.35999 278.28 290.20001 295.35999 305.48001 316.64001 328.26001 339.42001 351.34 362.06 372.89999 384.82001 396.44 407.01999 417.73999 429.66 440.82001 452.73999"
         y="52"
         id="tspan38">кризис, вызванный пандемией коронавирусной </tspan><tspan
         x="0 11.92 23.84 37.419998 48.34 58.459999 70.480003 82.400002 94.32 99.480003 112.5 125.74 138.5 143.52 157.06 165.978 173.938 183.978 188.718 193.87801 204.59801 215.758 227.778 239.698 250.418 261.638 271.15799 283.078 294.23801 305.15799 310.31799 321.83801 333.758 344.478 354.418 365.138 377.05801 389.078 400.99799 412.61801 423.77802 434.61801 445.33801 457.258 469.17801 480.09799 484.83801"
         y="78"
         id="tspan40">инфекции COVID-19, социальное дистанцирование, </tspan><tspan
         x="0 11.52 23.139999 34.299999 45.919998 59.099998 69.940002 75.099998 87.120003 99.040001 112.62 124.24 135.39999 146.24001 159.42 169.78 174.94 184.88 195.8 206.16 218.08 229.24001 240.46001 251.62 259.98001 271.89999 283.82001 288.98001 300.5 311.66 322.38 332.32001 343.04001 353.88 365.79999 377.01999 388.94 394.10001 408.10001 418.20001 430.48001"
         y="104"
         id="tspan42">прорыв цифровых технологий поставили ПГК </tspan><tspan
         x="0 11.52 22.440001 34.060001 44.98 56.5 61.66 72.879997 84.800003 96.82 107.98 121.26 126.42 138.34 149.25999 160.42 171.75999 182.12 193.28 204.8 216.72 230 241.16 251.88 261.82001 273.73999 278.89999 290.23999 303.42001 314.14001 324.07999 335.70001 346.85999 358.78 363.94 375.45999 386.38 398 408.92001 419.64001 429.57999 441.20001 452.35999 464.28 474.39999 486.32001"
         y="130"
         id="tspan44">перед лицом необходимости быстрой перестройки </tspan><tspan
         x="0 11.62 22.34 33.68 44.84 54.779999 67.959999 73.120003 86.400002 98.32 109.48 117.84 129.75999 140.12 145.28 156 167.92 178.64 188.58 199.5 212.78 217.94 230.22 241.38 254.66 266.17999 276.89999 288.82001 300.73999 312.66 317.39999 322.56 333.39999 338.56 348.5 359.66 372.94 378.10001 388.64001 400.56 411.28 422.5 433.42001"
         y="156"
         id="tspan46">работы многих систем Компании, в том числе </tspan><tspan
         x="0 10.12 21.280001 32.900002 44.419998 55.580002 67.199997 77.919998 87.860001 99.779999 110.62 122.54 133.7 142.06 153.22 158.38 168.96001 180.48 192.10001 202.82001 213.66 224.88 235.8 247.72 259.64001 270.01999"
         y="182"
         id="tspan48">корпоративного управления.</tspan><tspan
         x="0 13.06 18.219999 28.940001 38.880001 50.799999 61.16 66.32 76.900002 87.620003 98.839996 110 120.84 132.75999 143.14 153.5 158.66 169.82001 180.53999 191.7 203.03999 213.62 228.88 234.03999 245.66 256.82001 268.04001 277.56 282.72 293.44 306.62 314.98001 326.60001 337.32001 348.54001 360.45999 365.62 377.54001 388.26001 399.78 410.70001 425.67999 437.60001 448.76001 459.48001 469.42001 478.94"
         y="221"
         id="tspan50">В этих условиях особую роль сыграли надежность </tspan><tspan
         x="0 11.16 22.780001 31.139999 41.860001 53.779999 65.699997 75.540001 86.260002 98.279999 110.2 121.36 133.28 145.2 156.36 168.28 173.44 186.72 197.88 209.39999 220.32001 231.53999 243.46001 248.62 262.62 272.72 285 289.73999 294.89999 305.82001 316.73999 321.89999 332.62 344.14001 355.29999 366.01999 377.17999 388.51999 400.44 411.60001 422.32001 432.26001 441.78"
         y="247"
         id="tspan52">организационной модели ПГК, ее способность </tspan><tspan
         x="0 10.12 15.28 26.620001 39.799999 50.52 60.459999 72.080002 85.260002 98.540001 103.7 115.62 125.46 138.74001 149.66 161.58 172.5 184.42 196.34 206.72 220 225.16 237.08 242.24001 252.96001 264.48001 275.20001 286.72 296.66 307.38 319.39999 331.32001 343.23999 347.98001 353.14001 363.98001 377.16 387.88 399.04001 409.16 419.88 430.26001"
         y="273"
         id="tspan54">к быстрым изменениям и адаптации, высокая </tspan><tspan
         x="0 10.84 22 32.84 44.060001 54.98 65.519997 76.440002 88.360001 100.28 111.44 122.16 132.10001 141.62 146.78 157.62 168.34 179.25999 189.62 194.78 205.7 216.62 221.78 232.5 243.72 254.64 267.92001 278.84 290.76001 300.70001 311.85999 322.70001 327.85999 338.70001 343.85999 354.44 365.95999 377.57999 388.29999 399.14001 410.35999 421.28 433.20001 445.12 456.04001"
         y="299"
         id="tspan56">вовлеченность всех ее элементов в управление </tspan><tspan
         x="0 12.28 23.440001 36.720001 48.240002 58.959999 70.879997 82.800003 93.720001 105.64 110.8 121.64 126.8 137.38 148.10001 159.32001 170.48 181.32001 193.24001 203.62 213.98 219.14 229.25999 240.88 252.8 262.64001 274.56 285.28 296 300.73999 305.89999 316.73999 326.57999 337.29999 349.22 362.5 373.66 385.17999 396.34 408.26001 420.17999 433.45999 444.17999 456.10001 468.01999 478.94"
         y="325"
         id="tspan58">Компанией в условиях кризиса, взаимопонимание </tspan><tspan
         x="0 13.28 24.200001 39.18 50.700001 61.279999 66.440002 79.459999 90.620003 101.46 112.38 122.32 133.48 146.75999 151.92 163.44 175.36 186.98 197.89999 208.02 217.96001 229.12 240.74001 251.89999 262.73999 267.89999 279.82001 284.98001 296.89999 307.62 319.14001 330.29999 341.51999 353.44 365.35999 375.29999 386.22 397.44 406.95999 418.88 432.06 445.34 457.26001"
         y="351"
         id="tspan60">между Советом директоров и исполнительными </tspan><tspan
         x="0 11.16 22.780001 31.139999 41.860001 53.779999 64.5 77.779999 89.699997 94.459999 99.620003 112.68 123.4 134.32001 139.48 150.2 160.14 171.3 176.46001 187.62 198.96001 209.88 220.60001 232.12 243.03999 253.58 265.5 276.72 287.88 293.04001 303.62 314.34 324.28 335.44 347.35999 357.89999 369.82001 380.66 391.82001 402.54001 412.48001 422"
         y="377"
         id="tspan62">органами. Все это обеспечило устойчивость </tspan><tspan
         x="0 11.34 23.26 33.099998 45.02 55.939999 66.660004 77.379997 82.120003 87.279999 98.620003 109.54 119.38 130.53999 142.06 152.78 163.5 175.42 186.58 197.3 207.24001 216.75999 221.92 232.64 243.8 253.74001 265.35999 275.94 287.45999 299.38 311.29999 321.42001 332.57999 343.42001 348.16 353.32001 363.16 373.88 389.78 401.70001 411.64001 422.22"
         y="403"
         id="tspan64">бизнеса, безопасность сотрудников, защиту </tspan><tspan
         x="0 11.92 23.84 33.779999 44.700001 56.32 67.239998 77.959999 89.120003 99.959999 105.12 117.04 122.2 133.72 145.34 156.06 166.89999 172.06 182.78 192.89999 204.92 216.84 228 239.92 250.84 262.45999 273.62 284.45999"
         y="429"
         id="tspan66">интересов и прав акционеров.</tspan></text><text
       transform="matrix(1,0,0,-1,711,791.3001)"
       style="font-variant:normal;font-weight:500;font-stretch:normal;font-size:20px;font-family:'Rubik Medium';-inkscape-font-specification:Rubik-Medium;writing-mode:lr-tb;fill:#000000;fill-opacity:1;fill-rule:nonzero;stroke:none"
       id="text80"><tspan
         x="0 12.38 25.52 37.900002 51.040001 55.619999 64.519997 76.360001 88.919998 93.5 105.72 117.56 128.98 140.39999 151.10001 162.52 174.58 179.86 184.44 196 206.60001 218.44 223.02 235.58 247.64 259.12 263.70001 278.28 289.14001 302.54001 307.12 318.54001 330.82001 343.28 353.98001 366.44 377.85999 382.44 397.66"
         y="0"
         id="tspan70">2020 год показал, что для ПГК кризис — </tspan><tspan
         x="0 11.5 22.1 33.939999 38.52 50.18 62.459999 74 88.059998 99.540001 104.12 115.78 127.62 138.32001 152.38 164.22 181.34 193.8 205.64 217.06 227.66 239.2 251.66 257.01999 261.60001 275 286.84 300.89999 313.12 324.54001 337 349.45999 360.94"
         y="26"
         id="tspan72">это время возможностей. Компания </tspan><tspan
         x="0 12.46 24 28.58 39.18 51.02 63.080002 73.68 85.099998 96.940002 101.52 112.94 127 138.84 147.74001 159.8 171.22 175.8 187.22 199.06 210.34 222.62 234.03999 246.5 258.95999 269.56 280.16 284.73999 296.39999 311.70001 323.12 334.95999 346.38 358.84 371.29999 375.88 387.28 399.56 411.39999 423.06 434.60001 447.06 457.66"
         y="52"
         id="tspan74">не только смогла сохранить высокий уровень </tspan><tspan
         x="0 11.42 23.26 35.540001 47.759998 59.599998 71.879997 83.300003 93.900002 106.36 118.02 130.48 142.32001 151.22 163.06 167.64 179.03999 191.25999 203.53999 214.96001 226.62 238.67999 250.22 262.67999 275.14001 286.62 291.89999 296.48001 308.94 320.78 325.35999 337.82001 342.39999 354.06 369.35999 381.01999 392.56 404.62 416.04001"
         y="78"
         id="tspan76">корпоративного управления, но и вывела </tspan><tspan
         x="0 11.54 20.440001 32.279999 36.860001 49.32 60.740002 65.32 77.779999 89.620003 101.28 112.68 129.36 133.94 145.36 155.96001 167.36 179.58 191.12 203.58 214.17999 218.75999 231.03999 242.46001 253.16 264.82001 277.28 287.88 300.34 311.82001"
         y="104"
         id="tspan78">его на новую ступень развития:</tspan></text><text
       transform="matrix(1,0,0,-1,693,648.3001)"
       style="font-variant:normal;font-weight:300;font-stretch:normal;font-size:20px;font-family:'Rubik Light';-inkscape-font-specification:Rubik-Light;writing-mode:lr-tb;fill:#000000;fill-opacity:1;fill-rule:nonzero;stroke:none"
       id="text160"><tspan
         x="0 7.5999999 18 30.280001 41.439999 54.720001 66.239998 76.959999 88.879997 100.8 111.72 123.64 128.8 140.32001 151.94 163.86 175.02 186.36 197.98 208.89999 218.84 229.75999 241.67999 246.84 257.56 267.5 278.22 288.16 298.73999 309.45999 314.62 326.14001 336.72 348.06 359.28 371.20001 381.73999 393.66 404.82001 413.17999 424.34"
         y="0"
         id="tspan82">• Компанией приобретен статус публичного </tspan><tspan
         x="18 28.719999 38.84 50.860001 62.779999 73.940002 85.860001 96.779999 108.4 120.32 131.48 139.84 151 156.16 167.32001 178.66 194.56 205.48 216.2 226.14 236.98 247.7"
         y="26"
         id="tspan84">акционерного общества.</tspan><tspan
         x="0 7.5999999 18 32.279999 43.200001 55.119999 65.059998 76.68 87.400002 98.620003 108.14 120.06 133.24001 146.52 151.67999 164.32001 175.03999 186.96001 197.08 208.24001 221.52 226.67999 236.52 247.24001 258.85999 269.78 278.14001 290.06 300.78 310.72 322.34 334.26001 345.88 357.04001 367.88 378.60001 390.51999 395.67999 407.20001 418.82001 429.98001 440.70001 452.22 463.14001 473.26001 483.20001"
         y="65"
         id="tspan86">• Центральным Банком зарегистрирован проспект </tspan><tspan
         x="18 30.02 40.939999 52.860001 64.779999 77.959999 88.32 93.480003 104.82 115.4 128.67999 139.39999 147.75999 152.92 166.92 177.02 189.3"
         y="91"
         id="tspan88">ценных бумаг ПГК.</tspan><tspan
         x="0 7.5999999 18 31.24 42.580002 54.5 65.660004 76.5 87.720001 98.639999 110.56 115.72 127.34 137.72 149.24001 154.39999 165.24001 177.16 187.74001 197.67999 209.3 220.22 232.14 244.06 255.98 266.34 271.5 281.62 292.78 304.39999 315.92001 327.07999 338.70001 349.42001 359.35999 371.28 382.12 394.04001 407.22 417.57999"
         y="130"
         id="tspan90">• Обновлен ряд внутренних корпоративных </tspan><tspan
         x="18 29.52 40.68 50.799999 61.380001 74.660004 85.580002 97.5 107.44 118.6 129.44 134.60001 148.60001 158.7 170.98"
         y="156"
         id="tspan92">документов ПГК.</tspan><tspan
         x="0 7.5999999 18 32 43.16 54.68 64.620003 75.459999 86.379997 98 112.98 124.5 135.42 147.34 152.5 163.22 173.16 183.88 193.82001 204.39999 215.12 220.28 234.28 245.89999 256.82001 268.34 279.06 289.98001 301.5 312.22 322.16 333.07999 344.29999 354.67999 359.84 372.85999 384.01999 394.85999 405.78 415.72 426.44"
         y="195"
         id="tspan94">• Подтвержден статус Председателя Совета </tspan><tspan
         x="18 29.52 41.439999 53.060001 63.98 74.099998 84.040001 95.199997 106.82 117.98 128.82001 133.98 144.82001 149.98 160.10001 170.82001 181.36 192.28 203 212.94 223.78 234.7 239.86 251.78 262.70001 272.54001 283.26001 294.10001 306.01999 316.73999 328.66 341.94 353.10001 361.45999 372.62 377.78 389.29999 401.22 412.84 423.76001 433.88 443.82001 454.98001 466.60001 477.32001"
         y="221"
         id="tspan96">директоров в качестве независимого директора.</tspan><tspan
         x="0 7.5999999 18 31.059999 42.580002 53.5 65.120003 75.959999 89.139999 100.06 105.22 116.74 128.36 139.52 150.36 161.28 172.8 183.72 195.64 206.36 211.52 222.67999 234.7 245.62 257.54001 267.66 278.38 283.54001 294.26001 307.84 321.42001 332.34 342.45999 352.39999 364.32001 375.16 387.07999 398.23999 408.95999 418.89999 430.82001 435.98001 447.60001 458.32001 469.66 480.82001 490.76001 503.94"
         y="260"
         id="tspan98">• Впервые проведена оценка эффективности работы </tspan><tspan
         x="18 31.02 42.18 53.02 63.939999 73.879997 84.599998 89.760002 101.28 113.2 124.82 135.74001 145.86 155.8 166.96001 178.58 189.74001 200.58"
         y="286"
         id="tspan100">Совета директоров.</tspan><tspan
         x="0 7.5999999 18 31.02 42.240002 53.16 64.68 75.260002 85.639999 90.800003 102.02 112.6 123.14 138.52 150.44 163.72 168.88 179.60001 189.53999 200.25999 212.17999 223.7 234.42 246.03999 255.98 266.70001 279.98001 285.14001 298.42001 310.34 321.95999 333.12 343.95999 355.12 367.04001 372.20001 383.72 395.34 406.06 416.17999 426.12 438.04001 448.16 460.07999"
         y="325"
         id="tspan102">• Следуя лучшим стандартам мировой практики </tspan><tspan
         x="18 28.120001 39.279999 50.900002 62.419998 73.580002 85.199997 95.919998 105.86 117.78 128.62 140.53999 151.7 160.06 171.22 176.38 186.96001 198.48 210.10001 220.82001 231.66 242.88 253.8 265.72 277.64001 288.01999 292.76001 297.92001 309.84 321 331.84 345.01999 356.94 362.10001 372.82001 383.98001 394.70001 404.64001 415.35999 426.20001 431.35999 444.38 455.54001 466.38 477.29999 487.23999 497.95999"
         y="351"
         id="tspan104">корпоративного управления, новый состав Совета </tspan><tspan
         x="18 29.52 41.439999 53.060001 63.98 74.099998 84.040001 95.199997 106.82 117.98 128.82001 133.98 144.7 158.28 169.44 181.06 194.34 206.25999 217.88 229.03999 239.88 250.60001 262.51999 267.67999 278.39999 283.56 294.14001 304.67999 315.60001 325.54001 336.70001 349.98001 355.14001 366.76001 377.67999 387.79999 398.95999 412.23999 423.16 435.07999 446.60001 457.32001 469.34 481.26001 493.17999"
         y="377"
         id="tspan106">директоров сформирован с учетом рекомендаций </tspan><tspan
         x="18 29.52 40.68 45.84 54.200001 65.120003 77.040001 88.559998 99.480003 111.1 123.02 134.17999 147.46001 158.03999 163.2 175.12 180.28 191.8 203.42 214.58 228.16 239.08 249.8 260.51999 272.44 283.60001 295.51999 306.23999 317.45999 326.98001 338.89999 350.06 363.34 373.92001 379.07999 390.70001 401.42001 411.26001 423.17999 434.34 445.5 456.84 468.45999 479.17999 489.01999 500.94 516.20001 521.38"
         y="403"
         id="tspan108">по гендерному и профессиональному разнообразию; </tspan><tspan
         x="18 28.84 34 44.720001 55.880001 66.599998 76.540001 87.260002 98.099998 103.26 116.28 127.44 138.28 149.2 159.14 169.86 175.02 186.53999 198.46001 210.08 221 231.12 241.06 252.22 263.84 275 285.84 291 301.84 313 328.38 339.29999 350.51999 355.67999 367.60001 378.76001 389.60001 402.78 414.70001"
         y="429"
         id="tspan110">в состав Совета директоров вошел новый </tspan><tspan
         x="18 29.92 40.84 50.68 61.400002 72.239998 84.160004 94.879997 106.8 120.08 133.25999 145.17999 150.34 161.86 173.78 185.39999 196.32001 206.44 216.38 227.53999 239.16 244.32001 259.66 264.82001 277.82001 289.73999 300.45999 311.17999 321.12 331.84 342.56 354.48001 364.85999 370.01999 383.62 394.34 404.92001 414.85999 425.78 437.39999 448.73999 459.45999 469.82001"
         y="455"
         id="tspan112">независимый директор — Анастасия Лаутербах.</tspan><tspan
         x="0 7.5999999 18 29.26 40.099998 51.02 62.240002 74.160004 84.699997 95.620003 107.54 118.7 123.86 134.39999 146.32001 157.03999 168.25999 179.42 184.58 196.5 207.42 217.25999 227.98 238.82001 250.74001 261.45999 273.38 286.66 299.84 310.20001 315.35999 326.88 338.79999 350.42001 361.34 371.45999 381.39999 392.56 404.17999 415.34 426.17999 431"
         y="494"
         id="tspan114">• Увеличено число независимых директоров: </tspan><tspan
         x="18 29.92 39.759998 44.919998 56.360001 61.52 72.059998 83.279999 94.199997 106.12 117.28 128.12 133.28 146.3 157.46001 168.3 179.22 189.16 199.88 205.03999 216.56 228.48 240.10001 251.02 261.14001 271.07999 282.23999 293.85999 305.01999 315.85999 321.01999 332.92001 338.07999 348.45999 359.29999 370.51999 380.89999 396.16 406.10001 416.82001 427.20001"
         y="520"
         id="tspan116">из 9 членов Совета директоров 4 являются </tspan><tspan
         x="18 29.92 40.84 50.68 61.400002 72.239998 84.160004 94.879997 106.8 120.08 133.25999 146.53999 158.46001"
         y="546"
         id="tspan118">независимыми.</tspan><tspan
         x="594 601.59998 612 625.02002 636.17999 646.02002 657.53998 668.26001 680.17999 685.34003 697.26001 708.41998 719.26001 732.44 744.35999 749.52002 761.79999 772.96002 786.23999 798.15997 808.09998 819.02002 828.96002 834.12 845.64001 857.26001 869.17999 874.34003 887.35999 898.52002 909.35999 920.28003 930.21997 941.14001 946.29999 957.82001 969.73999 981.35999 992.28003 1002.4 1012.34 1023.5 1035.12 1046.28 1057.12 1061.86"
         y="-313"
         id="tspan120">• Создан новый Комитет при Совете директоров, </tspan><tspan
         x="612 623.15997 633.09998 643.94 654.85999 665.40002 676.12 691.38 707.28003 719.20001 731.12 736.28003 746.12 756.84003 762 773.91998 784.64001 796.15997 807.78003 818.5 829.34003 840.56 851.47998 863.40002 875.32001 886.23999 891.40002 903.41998 915.34003 928.91998 940.53998 951.70001 962.53998 973.70001 982.06 993.21997 998.38 1010 1020.72 1030.5601 1041.4 1053.3199 1063.26 1075.1801 1085.5601"
         y="-287"
         id="tspan122">отвечающий за направление цифрового развития </tspan><tspan
         x="612 623.91998 629.08002 639.20001 650.35999 662.28003 672.21997 683.84003 695 706.21997 715.73999 720.90002 730.73999 741.46002 746.62 758.23999 769.15997 779.88 791.09998 803.02002 812.85999 823.58002 835.59998 847.52002 858.44 870.35999 875.52002 880.53998 891.67999 901.41998 912.14001 922.08002 933.70001 944.41998 954.35999 965.28003 973.64001 985.56 997.47998 1002.64 1016.64 1026.74 1039.02 1043.78 1048.9399 1060.78 1069.14 1080.3"
         y="-261"
         id="tspan124">и контроль за реализацией IT-стратегии ПГК. Его </tspan><tspan
         x="612 622.84003 634 643.84003 652.20001 663.41998 674.14001 684.97998 696.90002 708.12 713.28003 725.20001 736.12 745.96002 756.67999 767.52002 779.44 790.15997 802.08002 815.35999 828.53998 840.46002 845.62 857.14001 869.06 880.67999 891.59998 901.71997 911.65997 922.82001 934.44"
         y="-235"
         id="tspan126">возглавил независимый директор.</tspan><tspan
         x="594 601.59998 612 623.26001 633.20001 644.03998 654.96002 666.58002 681.56 693.08002 704 715.91998 721.06 731.90002 742.73999 753.90002 765.41998 777.34003 790.52002 802.44 807.58002 817.70001 828.28003 839.90002 850.62 855.76001 867.28003 878.5 888.88 894.02002 904.85999 916.78003 927.94 938.78003 948.29999 953.44202 965.362 975.20203 986.54199 998.16199 1008.882 1020.802 1032.722 1045.902 1056.262 1061.4 1071.9399 1083.16 1094.08 1106 1117.16 1128"
         y="-196"
         id="tspan128">• Утвержден вводный курс для вновь избранных членов </tspan><tspan
         x="612 625.02002 636.17999 647.02002 657.94 667.88 678.59998 683.76001 695.28003 707.20001 718.82001 729.73999 739.85999 749.79999 760.96002 772.58002 783.73999 794.58002"
         y="-170"
         id="tspan130">Совета директоров.</tspan><tspan
         x="594 601.59998 612 626.52002 636.35999 649.64001 660.56 672.47998 683.40002 695.32001 706.03998 711.20001 721.91998 731.85999 743.47998 754.06 764.17999 774.12 784.70001 796.32001 807.03998 812.20001 822.78003 834.29999 845.91998 856.64001 867.47998 878.70001 889.62 901.53998 913.46002 923.84003 929 940.52002 951.67999 962.21997 973.14001 984.76001 996.67999 1008.6 1021.88 1033.8"
         y="-131"
         id="tspan132">• Изменена структура управления дочерними </tspan><tspan
         x="612 623.15997 634.5 650.40002 661.32001 672.03998 681.97998 692.82001 703.53998 716.82001 728.73999 733.90002 746.17999 757.34003 770.62 782.14001 792.85999 804.78003 816.70001 828.62 833.38 838.53998 853.06 862.90002 868.06 878.59998 890.52002 901.23999 912.46002 923.17999 928.34003 938.28003 949.44 960.96002 970.70001 983.97998 994.90002 1006.82 1017.74 1029.26 1044.24 1055.16 1066.78 1077.9399 1088.78"
         y="-105"
         id="tspan134">обществами Компании. Из числа топ-менеджеров </tspan><tspan
         x="612 624.28003 635.44 648.71997 660.23999 670.96002 682.88 694.79999 706.71997 711.88 723.79999 734.52002 744.35999 756.28003 767 777.53998 788.26001 803.52002 813.46002 824.17999 834.56 839.71997 849.84003 860.41998 872.03998 882.76001 892.70001 903.85999 915.47998 928.65997 933.40002 938.56 948.67999 959.84003 969.78003 980.94 992.56 1005.74 1016.66"
         y="-79"
         id="tspan136">Компании назначаются кураторы, которые </tspan><tspan
         x="612 623.15997 633.09998 643.94 654.85999 665.40002 676.12 691.38 701.32001 706.47998 716.32001 727.03998 732.20001 743.82001 754.73999 765.46002 776.67999 788.59998 798.44 809.15997 821.17999 833.09998 848.35999 853.52002 866.53998 876.47998 888.09998 898.82001 908.76001 919.67999 928.03998 939.96002 951.88 957.03998 968.96002 974.12 987.70001 999.62 1011.54 1022.26 1034.1801 1044.9 1056.0601 1066.9 1078.0601"
         y="-53"
         id="tspan138">отвечают за реализацию Стратегии и финансово-</tspan><tspan
         x="612 622.71997 632.84003 644 655.91998 667.08002 680.35999 692.28003 702.82001 713.73999 724.46002 734.58002 746.5 757.41998 762.58002 774.09998 785.26001 795.38 806.09998 815.94 826.65997 836.59998 847.52002 858.73999 870.65997 875.82001 887.34003 898.26001 908.64001 918.58002 929.5 940.71997 950.23999 962.15997 973.32001 984.03998 993.97998 1005.9 1011.06 1021.18 1031.76 1043.38 1055.3 1066.92 1077.5 1088.42 1101.7 1114.88 1125.24"
         y="-27"
         id="tspan140">экономические показатели деятельности курируемых </tspan><tspan
         x="612 623.91998 637.20001 649.12 654.28003 665.79999 676.96002 687.5 698.41998 710.03998 721.96002 733.88 744.23999 749.40002 759.52002 770.67999 783.96002 795.47998 806.20001 818.12 830.03998 841.96002"
         y="-1"
         id="tspan142">ими дочерних компаний.</tspan><tspan
         x="594 601.59998 612 625.06 638.23999 649.76001 660.97998 671.70001 682.23999 693.15997 705.08002 718.26001 723.41998 731.78003 742.94 754.46002 765.62 776.46002 789.64001 800.56 805.71997 817.64001 822.79999 834.32001 845.94 857.09998 870.38 881.29999 896.28003 906.85999 916.79999 927.96002 938.5 950.41998 963.59998 974.52002 979.67999 991.20001 1003.12 1013.96 1025.88 1037.4 1048.3199 1060.24 1071.76 1084.9399"
         y="38"
         id="tspan144">• Выплачены годовые и промежуточные дивиденды </tspan><tspan
         x="612 622.71997 632.84003 644.85999 656.78003 667.94 679.85999 690.78003 702.40002 713.12 726.40002 731.56 742.40002 747.56 758.28003 769.44 780.28003 791.44 801.56 812.14001 823.65997 835.58002 846.73999 860.02002 865.17999 876.79999 887.52002 897.35999 910.64001 921.56 933.17999 944.09998 949.26001 960.70001 973.02002 978.17999 991.46002 1002.68 1014.3 1025.8199 1030.98 1042.6 1053.1801 1064.52 1075.74 1086.66 1098.58"
         y="64"
         id="tspan146">акционерам в совокупном размере 50 млрд рублей.</tspan><tspan
         x="594 601.59998 612 625.02002 636.17999 647.02002 657.94 667.88 673.03998 684.56 696.47998 708.09998 719.02002 729.14001 739.08002 750.23999 761.85999 773.02002 783.85999 789.02002 800.94 806.09998 817.02002 825.38 836.53998 841.70001 853.97998 865.14001 878.41998 890.34003 900.28003 911.20001 921.14001 934.32001 939.47998 950.20001 963.78003 977.35999 988.28003 998.40002 1008.34 1020.26 1031.1 1043.02 1054.1801"
         y="103"
         id="tspan148">• Совет директоров и его Комитеты эффективно </tspan><tspan
         x="612 623.91998 634.64001 646.15997 657.32001 668.53998 678.06 687.90002 699.06 709.90002 720.62 731.84003 743.76001 748.91998 759.76001 770.91998 780.76001 794.03998 805.20001 820.17999 832.09998 843.26001 853.97998 863.91998 875.84003 881 892.15997 904.08002 915.29999 926.02002 937.94 949.85999 955.02002 965.73999 976.32001 987.84003 999.76001 1010.92 1020.66"
         y="129"
         id="tspan150">использовали возможности онлайн аудио- </tspan><tspan
         x="612 623.91998 629.08002 639.91998 651.84003 663.35999 674.28003 685.44 695.56 706.71997 718.64001 732.21997 743.14001 754.76001 765.67999 777.59998 789.62 801.53998 813.46002 818.62 830.14001 841.35999 851.73999 856.90002 868.41998 880.03998 891.20001 902.03998 912.96002 924.47998 935.40002 947.32001 959.23999 969.62 974.78003 985.5 996.34003 1007.5 1019.42 1029.78"
         y="155"
         id="tspan152">и видеоконференций для проведения своих </tspan><tspan
         x="612 621.84003 632.56 643.28003 654.20001 665.71997 676.44 688.35999 700.28003 712.20001 716.94 722.09998 732.64001 742.58002 753.73999 758.90002 770.41998 781.58002 791.41998 802.26001 813.41998 824.64001 836.56 847.78003 858.94 864.09998 873.94 885.85999 896.58002 907.12 919.03998 928.97998 939.90002 951.12 960.64001 972.56 983.71997 988.88 1000.4 1011.56 1022.4 1035.58 1046.3 1058.22 1068.16 1077.6801"
         y="181"
         id="tspan154">заседаний, что позволило значительно повысить </tspan><tspan
         x="612 623.15997 634.67999 645.59998 657.21997 667.94 677.88 689.79999 700.64001 712.56 723.71997 734.44 744.38 753.90002 759.06 770.97998 776.14001 786.85999 800.44 814.02002 824.94 835.06 845 856.91998 867.76001 879.67999 890.84003 901.56 911.5 921.02002 926.17999 937.79999 948.52002 959.85999 971.02002 980.96002 994.14001 999.29999 1010.02 1019.96 1031.88 1042.24 1047.4 1058.5601 1070.1801 1078.54 1089.26 1101.1801 1112.34 1123.1801"
         y="207"
         id="tspan156">оперативность и эффективность работы этих органов </tspan><tspan
         x="612 622.84003 628 639.91998 651.08002 661.91998 675.09998 685.46002 690.62 702.14001 713.35999 723.73999 728.90002 739.73999 750.46002 761.38 771.73999 776.90002 787.47998 798.20001 809.41998 820.58002 831.41998 843.34003 853.71997 864.08002 869.23999 880.44 892.76001 903.96002 916.28003 921.44 929.79999 940.96002 952.47998 963.20001"
         y="233"
         id="tspan158">в новых для всех условиях 2020 года.</tspan></text><text
       transform="matrix(1,0,0,-1,1304.5,168)"
       style="font-variant:normal;font-weight:500;font-stretch:normal;font-size:28px;font-family:'Rubik Medium';-inkscape-font-specification:Rubik-Medium;writing-mode:lr-tb;fill:#000000;fill-opacity:1;fill-rule:nonzero;stroke:none"
       id="text168"><tspan
         x="0 18.76 38.220001 60.928001 81.339996 100.744 121.156 142.436 159.85201 181.132 186.66479 207.0768 225.52879 246.80881 266.2688 284.41281 302.86481 320.28079 337.22079 354.63681 375.0488 380.5816 399.73361 416.67361 436.07761 453.01761 470.34961 489.50159"
         y="0"
         id="tspan162">КОМПАНИЕЙ ПРИОБРЕТЕН СТАТУС </tspan><tspan
         x="0 20.412001 37.743999 55.888 76.440002 97.720001 116.648 137.06 156.52 171.724 191.18401 197.59599 217 235.75999 256.95599 278.23599 297.69601 318.108 335.52399 353.97601 374.388 393.84799 409.052 428.51199"
         y="33.992001"
         id="tspan164">ПУБЛИЧНОГО АКЦИОНЕРНОГО </tspan><tspan
         x="0 19.459999 37.604 65.603996 83.019997 102.172 119.112 138.32001"
         y="67.984001"
         id="tspan166">ОБЩЕСТВА</tspan></text><g
       id="g170"><g
         id="g172"
         clip-path="url(#clipPath176)"><g
           id="g178"
           transform="translate(1262.4,184.75)"><path
             d="m 0,0 c -1.4,1.9 -3.367,2.85 -5.9,2.85 -2.267,0 -4.084,-0.75 -5.45,-2.25 -1.367,-1.5 -2.05,-3.25 -2.05,-5.25 0,-2 0.666,-3.75 2,-5.25 1.333,-1.5 3,-2.25 5,-2.25 0.666,0 1.266,0.067 1.8,0.2 0.266,0.067 0.5,0.167 0.7,0.3 -0.267,-2 -1.15,-3.583 -2.65,-4.75 -1.5,-1.166 -3.117,-1.75 -4.85,-1.75 v -3.5 c 1.6,0 3.216,0.284 4.85,0.85 1.633,0.567 3.083,1.467 4.35,2.7 1.266,1.234 2.3,2.8 3.1,4.7 0.8,1.9 1.2,4.15 1.2,6.75 C 2.1,-4.117 1.4,-1.9 0,0 M 20,0 C 18.6,1.9 16.633,2.85 14.1,2.85 11.833,2.85 10.016,2.1 8.65,0.6 7.283,-0.9 6.6,-2.65 6.6,-4.65 c 0,-2 0.666,-3.75 2,-5.25 1.333,-1.5 3,-2.25 5,-2.25 0.666,0 1.266,0.067 1.8,0.2 0.266,0.067 0.5,0.167 0.7,0.3 -0.267,-2 -1.15,-3.583 -2.65,-4.75 -1.5,-1.166 -3.117,-1.75 -4.85,-1.75 v -3.5 c 1.6,0 3.216,0.284 4.85,0.85 1.633,0.567 3.083,1.467 4.35,2.7 1.266,1.234 2.3,2.8 3.1,4.7 0.8,1.9 1.2,4.15 1.2,6.75 0,2.533 -0.7,4.75 -2.1,6.65"
             style="fill:#fdb73e;fill-opacity:1;fill-rule:nonzero;stroke:none"
             id="path180" /></g></g></g><text
       transform="matrix(1,0,0,-1,711,953.8201)"
       style="font-variant:normal;font-weight:500;font-stretch:normal;font-size:28px;font-family:'Rubik Medium';-inkscape-font-specification:Rubik-Medium;writing-mode:lr-tb;fill:#000000;fill-opacity:1;fill-rule:nonzero;stroke:none"
       id="text188"><tspan
         x="0 19.459999 35.448002 52.891998 69.468002 85.792 103.236 124.656 140.812 147.224 164.808 181.384 197.37199 212.21201 229.65601 253.62399 269.78 287.224 304.668 320.73999 327.15201 343.47601 349.888 365.87601 387.21201 403.36801 420.56 436.716"
         y="0"
         id="tspan182">Основные достижения в сфере </tspan><tspan
         x="0 15.988 32.563999 49.756001 66.863998 83.440002 100.632 116.62 131.46001 148.90401 165.228 182.672 199.248 211.70799 228.284 234.696 250.65601 267.76401 284.95599 300.944 317.26801 334.15201 350.30801 367.75201 385.19601 401.26801"
         y="33.992001"
         id="tspan184">корпоративного управления </tspan><tspan
         x="0 16.323999 22.736 40.068001 58.464001 75.795998 94.192001 100.604 113.064 129.64 147.224"
         y="67.984001"
         id="tspan186">в 2020 году</tspan></text><text
       transform="matrix(1,0,0,-1,38.0202,1023)"
       style="font-variant:normal;font-weight:300;font-stretch:normal;font-size:20px;font-family:'Rubik Light';-inkscape-font-specification:Rubik-Light;writing-mode:lr-tb;fill:#000000;fill-opacity:1;fill-rule:nonzero;stroke:none"
       id="text192"><tspan
         x="0 11.44 60.98 73.260002 84.419998 96.040001 107.56 118.72 130.34 141.06 151 162.92 173.75999 185.67999 196.84 207.75999 212.92 223.5 235.02 246.64 257.35999 268.20001 279.42001 290.34 302.26001 314.17999"
         y="0"
         id="tspan190">53Корпоративное управление</tspan></text></g></svg>
