<?xml version="1.0" encoding="UTF-8" standalone="no"?>
<?xml-stylesheet type="text/css" href="main.css" ?>
<svg
   xmlns:dc="http://purl.org/dc/elements/1.1/"
   xmlns:cc="http://creativecommons.org/ns#"
   xmlns:rdf="http://www.w3.org/1999/02/22-rdf-syntax-ns#"
   xmlns:svg="http://www.w3.org/2000/svg"
   xmlns="http://www.w3.org/2000/svg"
   version="1.1"
   id="svg2"
   xml:space="preserve"
   width="2560"
   height="1440"
   viewBox="0 0 2560 1440"><metadata
     id="metadata8"><rdf:RDF><cc:Work
         rdf:about=""><dc:format>image/svg+xml</dc:format><dc:type
           rdf:resource="http://purl.org/dc/dcmitype/StillImage" /></cc:Work></rdf:RDF></metadata><defs
     id="defs6"><clipPath
       clipPathUnits="userSpaceOnUse"
       id="clipPath20"><path
         d="M 0,1080 H 1920 V 0 H 0 Z"
         id="path18" /></clipPath></defs><g
     id="g10"
     transform="matrix(1.3333333,0,0,-1.3333333,0,1440)"><g
       id="g12"><g
         id="g14"><g
           id="g16"
           clip-path="url(#clipPath20)"><path
             d="M 0,0 H 1920 V 1080 H 0 Z"
             style="fill:#ffffff;fill-opacity:1;fill-rule:nonzero;stroke:none"
             id="path22" /></g></g></g><path
       d="M 0,0 H 633 V 1080 H 0 Z"
       style="fill:#f0f0f5;fill-opacity:1;fill-rule:nonzero;stroke:none"
       id="path24" /><text
       transform="matrix(1,0,0,-1,99,953.8201)"
       style="font-variant:normal;font-weight:500;font-stretch:normal;font-size:28px;font-family:'Rubik Medium';-inkscape-font-specification:Rubik-Medium;writing-mode:lr-tb;fill:#000000;fill-opacity:1;fill-rule:nonzero;stroke:none"
       id="text30"><tspan
         x="0 19.459999 25.872 41.860001 58.436001 75.152 92.036003 115.388 132.972 149.12801 166.57201 184.01601 201.46001 207.87199 226.632 243.20799 260.79199 276.948 292.936 308.92401 324.91199"
         y="0"
         id="tspan26">О соблюдении Кодекса </tspan><tspan
         x="0 15.988 32.563999 49.756001 66.863998 83.440002 100.632 116.62 131.46001 148.90401 165.228 182.672 199.248 211.70799 228.284 234.696 250.65601 267.76401 284.95599 300.944 317.26801 334.15201 350.30801 367.75201 385.19601"
         y="33.992001"
         id="tspan28">корпоративного управления</tspan></text><text
       transform="matrix(1,0,0,-1,99,867.8201)"
       style="font-variant:normal;font-weight:300;font-stretch:normal;font-size:20px;font-family:'Rubik Light';-inkscape-font-specification:Rubik-Light;writing-mode:lr-tb;fill:#000000;fill-opacity:1;fill-rule:nonzero;stroke:none"
       id="text80"><tspan
         x="0 14 24.1 36.380001 41.540001 53.060001 64.220001 74.940002 84.879997 96.040001 106.42 118.34 130.25999 141.42 146.58 157.16 168.38 178.96001 189.5 204.88 215.60001 226.52 236.46001 241.62 252.34 264.26001 274.98001 284.92001 295.84 309.12 319.70001 324.85999 336.78 341.94 353.45999 365.07999 375.79999 385.92001 395.85999 407.78 417.89999 428.48001"
         y="0"
         id="tspan32">ПГК постоянно улучшает систему и практику </tspan><tspan
         x="0 10.12 21.280001 32.900002 44.419998 55.580002 67.199997 77.919998 87.860001 99.779999 110.62 122.54 133.7 142.06 153.22 158.38 168.96001 180.48 192.10001 202.82001 213.66 224.88 235.8 247.72 259.64001 270.01999 274.76001 279.92001 291.84 303.76001 313.70001 324.62 332.98001 344.60001 356.51999 368.14001 378.72 389.10001 394.26001 405.10001 410.26001 420.98001 431.82001 442.98001 458.23999"
         y="26"
         id="tspan34">корпоративного управления, интегрируя в свою </tspan><tspan
         x="0 11.52 22.440001 32.82 42.759998 53.68 64.900002 74.419998 86.339996 97.5 108.22 118.16 127.68 132.84 144.36 155.98 167.89999 179.82001 191.84 203.75999 215.28 228.46001 233.62 245.89999 257.06 268.57999 279.5 289.62 300.34 311.06 316.22 326.34 337.5 349.12 360.64001 371.79999 383.42001 394.14001 404.07999 416 426.84 438.76001 449.92001 458.28 469.44"
         y="52"
         id="tspan36">деятельность принципы Кодекса корпоративного </tspan><tspan
         x="0 10.58 22.1 33.720001 44.439999 55.279999 66.5 77.419998 89.339996 101.26 111.64 116.8 129.44 140.16 152.08 162.2 172.92 178.08 190.64 201.8 212.52 223.24001 235.16 247.08 251.84 257 270.06 275.22 286.42001 298.73999 309.94 322.26001 327.42001 335.78 346.94 358.45999 369.04001 374.20001 385.35999 396.07999 408 419.16 430 441.92001 452.64001 463.01999"
         y="78"
         id="tspan38">управления Банка России. В 2020 году основная </tspan><tspan
         x="0 11.62 22.34 33.68 44.84 54.779999 65.5 70.660004 81.5 86.660004 97.379997 107.32 118.48 131.75999 136.92 148.84 159.56 171.08 182.7 193.42 204.25999 215.48 226.39999 238.32001 250.24001 262.16 267.32001 278.66 291.84 303.06 313.78 318.94 330.85999 341.57999 353.60001 364.51999 375.73999 386.66 398.57999 409.29999"
         y="104"
         id="tspan40">работа в этом направлении была нацелена </tspan><tspan
         x="0 11.92 22.639999 27.799999 38.959999 50.299999 62.220001 73.379997 84.220001 95.440002 106.36 118.28 130.2 141.12 146.28 157.12 169.03999 179.62 189.56 201.17999 212.10001 224.02 235.94 247.86 258.22 263.38 274.89999 286.06 296.17999 306.76001 320.04001 330.95999 342.88 352.82001 363.98001 374.82001 379.98001 392.26001 403.42001 416.70001 428.22 438.94 450.85999 462.78 474.70001 479.44"
         y="130"
         id="tspan42">на обновление внутренних документов Компании, </tspan><tspan
         x="0 10.84 20.959999 32.18 47.439999 57.98 68.699997 83.959999 99.860001 111.78 122.14 127.3 138.92 149.84 159.96001 171.12 184.39999 195.32001 207.24001 218.75999 229.48 241.5 253.42 265.34 270.5 282.78 293.94 305.45999 316.38 326.5 337.22 347.94 352.76001 357.92001 368.5 378.44 389.28 400.20001 411.82001 426.79999 438.32001 449.23999 461.16 474.34"
         y="156"
         id="tspan44">включающих рекомендации Кодекса: утверждены </tspan><tspan
         x="0 11.92 23.08 33.919998 47.099998 58.02 63.18 74.800003 85.720001 97.239998 107.96 118.08 130.10001 142.02 153.94 159.10001 170.36 181.08 191.02 201.74001 212.58 223.3 228.46001 242.46001 252.56 264.84 270 276.38 288 298.92001 310.44 315.20001 320.35999 342.94 345.44 355.17999 360.34 372.26001 377.42001 389.20001 395.57999 400.32001"
         y="182"
         id="tspan46">новые редакции Устава ПГК (ред. № 7 и 8), </tspan><tspan
         x="0 11.52 22.68 33.900002 45.060001 60.040001 70.959999 82.879997 94.800003 105.18 110.34 121.5 126.66 136.78 147.94 159.56 171.08 182.24001 193.86 204.58 214.52 226.44 237.28 249.2 262.38 272.73999 277.89999 289.06 300.67999 309.04001 319.76001 331.67999 342.39999 352.76001 357.92001 370.20001 381.35999 394.64001 406.16 416.88 428.79999 440.72 452.64001"
         y="208"
         id="tspan48">положения о корпоративных органах Компании </tspan><tspan
         x="0 6.3800001 20.379999 31.540001 42.759998 53.919998 68.900002 79.82 91.739998 103.66 114.58 119.74 130.89999 142.24001 147.39999 158.56 169.89999 185.8 196.72 210 215.16 225.88 237.03999 248.38 260 270.72 282.64001 294.56 306.48001 311.64001 322.35999 332.48001 344.5 356.42001 367.57999 379.5 390.42001 402.04001 413.20001 424.04001 428.78"
         y="234"
         id="tspan50">(Положение об общем собрании акционеров, </tspan><tspan
         x="0 13.02 24.18 35.02 45.939999 55.880001 66.800003 71.959999 83.480003 95.400002 107.02 117.94 128.06 138 149.16 160.78 171.94 182.78 187.52 192.67999 206.67999 218.3 229.02 239.86 251.08 262 273.92001 285.84 297.76001 304.14001 308.88 314.04001 324.76001 334.88 344.82001 355.39999 366.12 377.34 389.26001 399.10001 411.01999 422.64001 433.79999 444.64001 455.35999 467.28 480.45999"
         y="260"
         id="tspan52">Совете директоров, Правлении), актуализированы </tspan><tspan
         x="0 14 25.16 36.380001 47.540001 62.52 73.440002 85.360001 97.279999 107.66 112.82 123.98 135.32001 140.48 151.74001 163.25999 174.88 185.60001 196.44 207.66 218.58 230.5 242.42 254.34 259.5 270.34 282.26001 292.84 302.78 314.39999 325.32001 337.23999 349.16 360.07999 368.44 379.60001 384.76001 395.48001 406.06 417.57999 429.5 439.44 450.16"
         y="286"
         id="tspan54">Положения об Управлении внутреннего аудита </tspan><tspan
         x="0 11.92 17.08 29.360001 40.52 53.799999 65.720001 75.660004 86.580002 96.519997 107.44 112.6 124.12 135.28 140.44 151.16 161.74001 173.25999 185.17999 195.12 205.7 210.86 223.88 235.03999 245.88 256.79999 266.73999 277.45999 282.62 294.14001 306.06 317.67999 328.60001 338.72 348.66 359.82001 371.44 382.60001 393.44"
         y="312"
         id="tspan56">и Комитете по аудиту Совета директоров.</tspan><tspan
         x="0 14 25.16 38.439999 50.360001 63.639999 74.800003 79.959999 90.68 100.62 111.78 120.14 131.3 136.03999 141.2 152.03999 157.2 171.2 181.3 193.58 198.74001 210.08 223.25999 234.48 245.2 250.36 261.88 273.5 284.66 295.5 306.42001 317.94 328.85999 340.78 351.5 356.66 367.82001 379.84 390.76001 402.67999 412.79999 423.51999"
         y="351"
         id="tspan58">Помимо этого, в ПГК была проведена оценка </tspan><tspan
         x="0 6.3800001 17.1 27.82 41.099998 52.259998 63.419998 75.440002 86.360001 98.279999 108.4 119.12 125.5 130.66 141.38 154.96001 168.53999 179.46001 189.58 199.52 211.44 222.28 234.2 245.36 256.07999 266.01999 277.94 283.10001 296.12 307.28 318.12 329.04001 338.98001 349.70001 354.85999 366.38 378.29999 389.92001 400.84 410.95999 420.89999 432.06 443.67999 454.84 465.67999"
         y="377"
         id="tspan60">(самооценка) эффективности Совета директоров </tspan><tspan
         x="0 11.92 22.639999 27.799999 38.959999 49.68 61.599998 72.760002 83.599998 94.519997 99.68 111.3 122.02 131.86 143.48 154.2 165.53999 176.7 186.64 197.36 209.28 221.2 232.36 240.72 251.88 257.04001 268.95999 274.12 284.70001 294.64001 305.48001 316.39999 328.01999 343 354.51999 365.44 377.35999 389.28 400.44 408.79999 419.95999"
         y="403"
         id="tspan62">на основе разработанного и утвержденного </tspan><tspan
         x="0 14 25.16 36.380001 47.540001 62.52 73.440002 85.360001 97.279999 107.66 112.82 123.98 135.32001 140.48 151.64 163.66 174.58 186.5 196.62 207.53999 212.7 224.22 235.14 245.52 255.46001 266.38 277.60001 287.12 299.04001 310.20001 320.92001 330.85999 342.78 347.94 360.95999 372.12 382.95999 393.88 403.82001 414.54001"
         y="429"
         id="tspan64">Положения об оценке деятельности Совета </tspan><tspan
         x="0 11.52 23.440001 35.060001 45.98 56.099998 66.040001 77.199997 88.82 99.980003 110.82 116 121.16 132.78 143.7 153.53999 164.12 175.34 184.86 194.8 205.52 215.46001 228.64 233.8 244.96001 256.98001 267.89999 279.82001 289.94 301.85999 307.01999 318.64001 329.35999 340.07999 350.79999 364.07999 374.79999 384.73999 396.35999 408.28 419.12 429.84 441.06 452.98001 463.70001 473.22"
         y="455"
         id="tspan66">директоров; результаты оценки рассматривались </tspan><tspan
         x="0 11.92 22.639999 27.799999 38.959999 49.5 61.419998 72.580002 85.860001 91.019997 100.86 111.58 122.3 133.22 144.74001 155.46001 167.38 179.3 191.22 196.38 209.39999 220.56 231.39999 242.32001 252.25999 262.98001 268.14001 279.66 291.57999 303.20001 314.12 324.23999 334.17999 345.34 356.95999 368.12 378.95999"
         y="481"
         id="tspan68">на очном заседании Совета директоров.</tspan><tspan
         x="0 13.52 24.68 36.200001 47.360001 58.580002 70.5 82.419998 92.360001 103.28 114.5 124.02 135.94 147.10001 152.25999 163.10001 168.25999 179.46001 191.78 202.98 215.3 220.46001 228.82001 239.98 251.5 262.07999 267.23999 278.57999 291.76001 302.98001 308.14001 319.76001 330.48001 340.32001 351.94 362.66 374 385.16 395.10001 405.82001 417.73999"
         y="520"
         id="tspan70">Дополнительно в 2020 году был разработан </tspan><tspan
         x="0 11.92 17.08 27.66 37.599998 48.439999 59.360001 70.980003 85.959999 97.480003 108.4 120.32 125.48 136.32001 147.16 158.32001 169.84 181.75999 194.94 206.86 212.02 222.14 232.72 244.34 255.06 260.22 271.73999 282.95999 293.34 298.5 309.34 321.26001 332.42001 343.26001 352.78 357.94 369.85999 379.70001 391.04001 402.66 413.38 425.29999 437.22 450.39999 460.76001"
         y="546"
         id="tspan72">и утвержден вводный курс для вновь избранных </tspan><tspan
         x="0 10.54 21.76 32.68 44.599998 55.759998 66.599998 71.760002 84.779999 95.940002 106.78 117.7 127.64 138.36 143.52 155.03999 166.96001 178.58 189.5 199.62 209.56 220.72 232.34 243.5 254.34 259.07999 264.23999 274.35999 285.51999 295.45999 306.62 318.23999 331.42001 343.34 348.5 360.01999 371.17999 384.45999 395.62 403.98001 409.14001 421.06 432.22 443.06 456.23999 469.51999"
         y="572"
         id="tspan74">членов Совета директоров, который помог новым </tspan><tspan
         x="0 11.52 23.440001 35.060001 45.98 56.099998 66.040001 77.199997 88.82 99.540001 112.82 117.98 129.32001 142.5 153.22 163.16 174.78 185.7 196.62 201.78 213.7 225.62 235.56 246.48 254.84 266.45999 278.38 290 301.16 312 322.72 332.66 342.17999 352.89999 363.28 368.44 379.28 384.44 396.06 406.78 418.12 429.28 439.22 449.79999"
         y="598"
         id="tspan76">директорам быстрее интегрироваться в работу </tspan><tspan
         x="0 13.02 24.18 35.02 45.939999 55.880001 66.599998 71.760002 83.68 88.839996 99.760002 108.12 119.28 124.44 136.72 147.88 161.16 173.08 183.02 193.94 203.88 215.03999 225.88"
         y="624"
         id="tspan78">Совета и его Комитетов.</tspan></text><text
       transform="matrix(1,0,0,-1,693,944.2805)"
       style="font-variant:normal;font-weight:normal;font-stretch:normal;font-size:38px;font-family:'Prosto One';-inkscape-font-specification:ProstoOne-Regular;writing-mode:lr-tb;fill:#000000;fill-opacity:1;fill-rule:nonzero;stroke:none"
       id="text86"><tspan
         x="0 31.92 61.939999 94.620003 126.54 159.78999 192.47 224.39 264.10001 277.39999 307.60999 341.81 371.82999 403.75 437.95001 467.97 499.13 525.91998 558.59998 589 620.91998 655.12 680.20001 714.40002"
         y="0"
         id="tspan82">ПРИНЦИПЫ КОРПОРАТИВНОГО </tspan><tspan
         x="0 30.209999 62.130001 92.150002 123.31 153.71001 185.25 212.23 244.14999 276.82999 307.23001 320.53 352.45001 377.53"
         y="45.599998"
         id="tspan84">УПРАВЛЕНИЯ ПГК</tspan></text><text
       transform="matrix(1,0,0,-1,693,819.9805)"
       style="font-variant:normal;font-weight:300;font-stretch:normal;font-size:20px;font-family:'Rubik Light';-inkscape-font-specification:Rubik-Light;writing-mode:lr-tb;fill:#000000;fill-opacity:1;fill-rule:nonzero;stroke:none"
       id="text108"><tspan
         x="0 14 25.620001 37.540001 49.459999 61.48 73.400002 84.919998 98.099998 103.26 113.38 124.54 136.16 147.67999 158.84 170.46001 181.17999 191.12 203.03999 213.88 225.8 236.96001 245.32001 256.48001 261.64001 272.22 283.73999 295.35999 306.07999 316.92001 328.14001 339.06 350.98001 362.89999 373.28"
         y="0"
         id="tspan88">Принципы корпоративного управления </tspan><tspan
         x="0 13.24 24.58 40.48 51.400002 62.119999 72.059998 82.900002 93.620003 98.779999 109.5 123.08 134.24001 145.86 159.14 169.72 180.94 192.86 204.48 215.64 226.48 237.2 249.12 262.29999 267.45999 278.17999 283.34 293.92001 304.45999 315.38 325.32001 336.48001 349.76001 354.92001 364.85999 376.48001 387.39999 398.73999 409.89999 420.73999 431.45999 443.38 455.29999 467.22"
         y="26"
         id="tspan90">Общества сформулированы с учетом требований </tspan><tspan
         x="0 9.8400002 20.559999 30.68 41.84 53.759998 64.919998 76.440002 87.160004 97.099998 108.02 119.24 128.75999 139.48 149.42 160.25999 170.98 176.14 188.7 199.86 210.58 221.3 233.22 245.14 255.86 265.98001 277.14001 289.06 294.22 310.72 321.64001 333.16 344.07999 355.70001 366.42001 378.44 390.35999 402.28 407.01999"
         y="52"
         id="tspan92">законодательства Российской Федерации, </tspan><tspan
         x="0 14 25.620001 37.540001 49.459999 61.48 73.400002 84.919998 96.080002 106.92 112.08 122.2 133.36 144.98 156.5 167.66 179.28 190 199.94 211.86 222.7 234.62 245.78 254.14 265.29999 270.45999 281.04001 292.56 304.17999 314.89999 325.73999 336.95999 347.88 359.79999 371.72 382.10001 387.26001 400.5 412.12 420.48001 431.20001 443.12 455.04001 464.88 475.60001 487.62 499.54001 511.45999"
         y="78"
         id="tspan94">Принципов корпоративного управления Организации </tspan><tspan
         x="0 10.72 20.84 32 43.919998 55.080002 68.360001 80.279999 90.82 101.74 112.46 122.58 133.74001 142.10001 153.25999 158.42 169.14 180.3 190.24001 201.86 212.44 223.96001 235.88 247.8 258.34 269.26001 279.98001 289.92001 300.76001 311.48001 316.64001 328.56 333.72 345.34 356.06 365.89999 376.73999 388.66 398.60001 410.51999 420.89999 426.06 432.44 445.67999 458.07999 471.10001 483.66 490.04001 494.78"
         y="104"
         id="tspan96">экономического сотрудничества и развития (ОЭСР), </tspan><tspan
         x="0 11.52 22.68 33.900002 45.060001 60.040001 70.959999 82.879997 94.800003 106.72 111.88 124.16 135.32001 146.84 157.75999 167.88 178.60001 189.32001 194.48 204.60001 215.75999 227.38 238.89999 250.06 261.67999 272.39999 282.34 294.26001 305.10001 317.01999 328.17999 336.54001 347.70001 352.85999 363.44 374.95999 386.57999 397.29999 408.14001 419.35999 430.28 442.20001 454.12 464.5 469.23999"
         y="130"
         id="tspan98">положений Кодекса корпоративного управления, </tspan><tspan
         x="0 11.16 22.68 33.84 45.18 56.799999 67.720001 79.639999 91.559998 102.72 111.08 122.24 127.4 140.42 151.58 162.42 173.34 183.28 194.44 207.72 212.88 224.39999 236.32001 247.94 258.85999 268.98001 278.92001 290.07999 301.70001 312.85999 323.70001 328.85999 341.5 352.22 364.14001 374.26001 384.98001 390.14001 402.70001 413.85999 424.57999 435.29999 447.22 459.14001"
         y="156"
         id="tspan100">одобренного Советом директоров Банка России </tspan><tspan
         x="0 11.2 19.16 24.32 37.599998 48.32 59.939999 69.879997 80.599998 85.760002 96.959999 109.28 117.24 129.14 134.3 142.66 153.82001 165.34 176.06 180.8 185.96001 199.24001 210.16 225.14 236.66 247.24001 259.16 269.88 281.5 292.66 304.17999 316.10001 327.26001 339.17999 344.34 356.26001 361.42001 372.94 383.85999 395.48001 406.39999 417.92001 429.07999 439.92001 451.07999 463"
         y="182"
         id="tspan102">21 марта 2014 года, международной и передовой </tspan><tspan
         x="0 11.62 22.780001 33.5 44.220001 56.139999 68.059998 78.779999 88.900002 100.06 111.98 117.14 128.66 140.28 151 161.12 171.06 182.98 193.10001 205.02 210.17999 221.02 226.17999 237.34 248.67999 259.89999 270.62 281.34 291.28 303.20001 308.35999 318.48001 329.64001 341.26001 352.78 363.94 375.56 386.28 396.22 408.14001 418.98001 430.89999 442.06 450.42001 461.57999"
         y="208"
         id="tspan104">российской практики в области корпоративного </tspan><tspan
         x="0 10.58 22.1 33.720001 44.439999 55.279999 66.5 77.419998 89.339996 101.26 111.64"
         y="234"
         id="tspan106">управления.</tspan></text><text
       transform="matrix(1,0,0,-1,693,490.9805)"
       style="font-variant:normal;font-weight:500;font-stretch:normal;font-size:28px;font-family:'Rubik Medium';-inkscape-font-specification:Rubik-Medium;writing-mode:lr-tb;fill:#000000;fill-opacity:1;fill-rule:nonzero;stroke:none"
       id="text116"><tspan
         x="0 18.648001 39.984001 61.32 77.475998 93.463997 108.304 125.748 142.07201 159.51601 176.092 192.248 198.66 214.64799 231.224 248.416 265.52399 282.10001 299.29199 315.28 330.12 347.564 363.888 381.332 397.90799 414.064"
         y="0"
         id="tspan110">Эффективное корпоративное </tspan><tspan
         x="0 15.96 33.068001 50.259998 66.248001 82.571999 99.456001 115.612 133.056 150.5 166.65601 173.06799 189.392 195.804 216.216 231.42 250.17999 256.59201 273.30801 289.29599 304.276 321.72 338.91199 354.87201 371.02802 385.86801 401.85599 417.92801"
         y="33.992001"
         id="tspan112">управление в ПГК базируется </tspan><tspan
         x="0 17.444 33.431999 39.844002 55.832001 72.716003 88.872002 106.456 122.416 145.76801 169.12 186.564 202.356 208.76801 225.87601 243.06799 260.51199 277.95599 295.79199 313.23599 330.34399 346.332 362.12399"
         y="67.984001"
         id="tspan114">на следующих принципах:</tspan></text><text
       transform="matrix(1,0,0,-1,693,360.9805)"
       style="font-variant:normal;font-weight:normal;font-stretch:normal;font-size:20px;font-family:'Prosto One';-inkscape-font-specification:ProstoOne-Regular;writing-mode:lr-tb;fill:#fdb73e;fill-opacity:1;fill-rule:nonzero;stroke:none"
       id="text120"><tspan
         x="0 16.4"
         y="0"
         id="tspan118">01</tspan></text><text
       transform="matrix(1,0,0,-1,721.98,360.9805)"
       style="font-variant:normal;font-weight:500;font-stretch:normal;font-size:20px;font-family:'Rubik Medium';-inkscape-font-specification:Rubik-Medium;writing-mode:lr-tb;fill:#000000;fill-opacity:1;fill-rule:nonzero;stroke:none"
       id="text126"><tspan
         x="0 12.38 23.799999 34.400002 46.240002 58.700001 70.260002 82.720001 94.379997 106.22 117.76 122.34 134.62 146.03999 156.74001 168.39999 180.86 191.46001 203.92 215.46001 220.03999 232.5 237.08 249.3 260.84 273.12 284.54001 296.76001 308.29999 319.72 330.32001 342.78 354.44 366.89999 382.20001 394.66 399.23999 411.51999 423.35999 434.78 445.38"
         y="0"
         id="tspan122">Устойчивое развитие и перспективный рост </tspan><tspan
         x="-28.98 -16.42 -4.5799999 6.6999998 18.540001 31.1 43.560001 55.400002 66.82 77.419998 89.879997 94.459999 106.92 119.38 131.03999 142.58 154 164.60001 177.06 189.8 202.25999 214.72 219.3 230.96001 235.53999 246.96001 258.38 271.12 283.57999 295.42001 307.88 319.42001 331.70001 344.16 359.45999 371.92001 376.5 387.92001 399.34 411.56 424.01999 434.62 446.04001"
         y="26"
         id="tspan124">доходности инвестиций в акционерный капитал</tspan></text><text
       transform="matrix(1,0,0,-1,693,308.9805)"
       style="font-variant:normal;font-weight:300;font-stretch:normal;font-size:20px;font-family:'Rubik Light';-inkscape-font-specification:Rubik-Light;writing-mode:lr-tb;fill:#000000;fill-opacity:1;fill-rule:nonzero;stroke:none"
       id="text132"><tspan
         x="0 14 24.1 36.380001 41.540001 53.16 64.080002 74.800003 86.019997 97.940002 107.78 118.36 129.28 139.22 144.38 154.96001 164.89999 175.74001 186.66 198.28 213.25999 224.78 235.7 247.62 259.54001 270.12 285.38 290.54001 303.56 314.72 325.56 336.48001 346.42001 357.57999 370.85999 376.01999 387.54001 399.45999 411.07999 422 432.12 442.06 453.22 464.84 476 486.84"
         y="0"
         id="tspan128">ПГК реализует утвержденную Советом директоров </tspan><tspan
         x="0 13.02 22.959999 34.580002 45.299999 55.240002 66.160004 74.519997 86.440002 101.7 106.86 118.48 129.2 139.03999 149.88 161.8 171.74001 183.66 194.03999 199.2 210.72 221.88 227.03999 238.24001 250.56 261.76001 273.28 278.44 286.79999 297.95999 309.48001 320.20001"
         y="26"
         id="tspan130">Стратегию развития до 2023 года.</tspan></text><text
       transform="matrix(1,0,0,-1,693,230.9805)"
       style="font-variant:normal;font-weight:normal;font-stretch:normal;font-size:20px;font-family:'Prosto One';-inkscape-font-specification:ProstoOne-Regular;writing-mode:lr-tb;fill:#fdb73e;fill-opacity:1;fill-rule:nonzero;stroke:none"
       id="text136"><tspan
         x="0 16.4"
         y="0"
         id="tspan134">02</tspan></text><text
       transform="matrix(1,0,0,-1,727.78,230.9805)"
       style="font-variant:normal;font-weight:500;font-stretch:normal;font-size:20px;font-family:'Rubik Medium';-inkscape-font-specification:Rubik-Medium;writing-mode:lr-tb;fill:#000000;fill-opacity:1;fill-rule:nonzero;stroke:none"
       id="text142"><tspan
         x="0 13.32 28.559999 43.799999 55.34 66.760002 77.360001 89.82 101.48 113.94 125.36 136.84 141.42 153.25999 165.53999 174.44 185.86 198.32001 210.78 221.48 232.89999 245.64 258.10001 269.57999 274.16 285.82001 296.51999 307.94 320.39999 334.45999 346.29999 358.85999 370.39999 382.85999 394.28 404.88 416.54001 429 440.48001"
         y="0"
         id="tspan138">Эффективная организация взаимодействия </tspan><tspan
         x="-34.779999 -23.360001 -18.780001 -7.3600001 4.0599999 16.799999 29.26 41.099998 53.560001 65.099998 77.379997 88.800003 102.86 115.32 120.6 125.18 135.88 147.3 163.98 176.44 187.03999 198.46001 203.03999 215.5 226.78 231.36 243.58 255.86 267.28 278.94 283.51999 295.98001 300.56 313.01999 325.48001 336.07999 347.62 359.89999 371.44 382.85999 394.70001"
         y="26"
         id="tspan140">с акционерами, защита их прав и интересов</tspan></text><text
       transform="matrix(1,0,0,-1,693,178.9805)"
       style="font-variant:normal;font-weight:300;font-stretch:normal;font-size:20px;font-family:'Rubik Light';-inkscape-font-specification:Rubik-Light;writing-mode:lr-tb;fill:#000000;fill-opacity:1;fill-rule:nonzero;stroke:none"
       id="text160"><tspan
         x="0 13 23.120001 35.139999 47.060001 58.220001 70.139999 81.059998 92.68 103.4 116.68 121.84 132.56 143.39999 154.56 165.48 176.32001 187.94 198.86 212.14 223.06 234.98 246.89999 258.06 263.22 274.73999 286.35999 297.28 308.79999 319.95999 330.67999 340.62 351.34 362.17999 373.39999 383.78 394.70001 404.64001 415.35999 425.73999 430.89999 442.42001 453.57999 464.79999 476.72 487.44 497.82001"
         y="0"
         id="tspan144">Акционерам своевременно предоставляется полная </tspan><tspan
         x="0 11.92 17.08 29 39.720001 50.259998 61.18 72.800003 84.32 97.5 108.34 119.06 134.32001 150.22 160.94 171.32001 176.48 188.39999 200.32001 213.89999 225.06 236.67999 249.96001 260.67999 272.70001 284.62 295 300.16 311.67999 322.89999 333.28 338.44 349.95999 361.57999 373.5 385.42001 395.79999 405.73999 417.66 428.04001"
         y="26"
         id="tspan146">и исчерпывающая информация для принятия </tspan><tspan
         x="0 10.84 20.68 31.52 42.439999 57.82 68.739998 80.660004 92.580002 105.76 116.12 121.28 133.2 138.36 149.52 160.86 172.02 182.74001 194.66 205.82001 216.66 227.38 239.3 251.22 264.39999 274.76001 279.92001 291.54001 302.45999 317.84 328.76001 340.67999 352.60001 364.51999 369.26001 374.42001 385.26001 390.42001 400.35999 411.51999 424.79999 429.95999 440.5 452.42001 463.14001 474.35999 485.28"
         y="52"
         id="tspan148">взвешенных и обоснованных решений, в том числе </tspan><tspan
         x="0 10.72 20.84 31.559999 43.080002 54 65.620003 75.559998 87.480003 98.639999 109.56 114.72 128 139.92 150.84 162.75999 174.67999 185.60001 190.75999 203.78 214.94 225.78 236.7 246.64 257.35999 262.51999 274.04001 285.95999 297.57999 308.5 318.62 328.56 339.72 351.34 362.5 373.34 378.5 390.01999 401.17999 406.34 417.17999 427.89999 438.82001 452.10001"
         y="78"
         id="tspan150">экспертное мнение Совета директоров по всем </tspan><tspan
         x="594 604.84003 616 627.52002 639.14001 650.29999 661.02002 671.73999 685.02002 689.76001 694.91998 706.53998 717.46002 732.84003 743.76001 755.67999 767.59998 778.52002 783.67999 795.20001 806.35999 811.52002 821.64001 832.79999 842.73999 853.90002 865.52002 878.70001 891.97998 897.14001 908.65997 920.28003 932.20001 944.12 956.03998 969.32001 980.03998 990.96002 1000.9 1011.62 1022"
         y="-641"
         id="tspan152">вопросам, решение по которым принимается </tspan><tspan
         x="594 604.71997 614.84003 626.85999 638.78003 649.94 661.85999 672.78003 684.40002 695.12 708.40002 720.32001 725.08002 730.23999 743.76001 754.97998 765.35999 770.52002 781.85999 793.02002 804.23999 815.15997 826.08002 831.23999 839.59998 850.82001 861.40002 872.73999 883.90002 894.02002 905.17999 917.09998 922.26001 933.78003 945.40002 956.56 968.17999 978.90002 990.23999 1001.4 1011.34 1021.46 1033.38 1038.54 1049.38 1060.54 1072.0601 1083.6801 1094.84 1105.5601 1116.28"
         y="-615"
         id="tspan154">акционерами. Для более глубокой проработки вопроса </tspan><tspan
         x="594 605.52002 617.14001 629.06 639.90002 651.12 662.03998 672.15997 682.88 698.14001 708.08002 718.79999 729.17999 734.34003 745.85999 757.47998 768.64001 782.21997 794.14001 805.35999 814.88 826.79999 839.97998 850.90002 856.06 868.34003 879.5 892.78003 904.70001 914.64001 925.56 935.5 948.67999 953.84003 965.35999 976.97998 988.90002 994.06 1007.08 1018.24 1029.08 1040 1049.9399 1060.86"
         y="-589"
         id="tspan156">привлекаются профильные Комитеты при Совете </tspan><tspan
         x="594 605.52002 617.44 629.06 639.97998 650.09998 660.03998 671.20001 682.82001 693.97998 704.82001"
         y="-563"
         id="tspan158">директоров.</tspan></text><text
       transform="matrix(1,0,0,-1,1287,689.9805)"
       style="font-variant:normal;font-weight:normal;font-stretch:normal;font-size:20px;font-family:'Prosto One';-inkscape-font-specification:ProstoOne-Regular;writing-mode:lr-tb;fill:#fdb73e;fill-opacity:1;fill-rule:nonzero;stroke:none"
       id="text164"><tspan
         x="0 16.4"
         y="0"
         id="tspan162">03</tspan></text><text
       transform="matrix(1,0,0,-1,1322.68,689.9805)"
       style="font-variant:normal;font-weight:500;font-stretch:normal;font-size:20px;font-family:'Rubik Medium';-inkscape-font-specification:Rubik-Medium;writing-mode:lr-tb;fill:#000000;fill-opacity:1;fill-rule:nonzero;stroke:none"
       id="text176"><tspan
         x="0 13.9 25.84 37.380001 48.799999 61.02 72.559998 84.120003 95.660004 108.12 120.58 132.12 136.7 149.16 160.58 173.14 184.67999 201.8 214.25999 229.56 240.84 245.42 257.88 262.45999 273.95999 289.20001 304.44 315.98001 327.39999 338 350.45999 362.12 374.57999 389.88 401.16"
         y="0"
         id="tspan166">Обеспечение надежных и эффективных </tspan><tspan
         x="-35.68 -24.26 -12.04 -0.2 11.22 23.059999 35 46.84 58.5 63.080002 74.480003 86.040001 97.580002 108.18 119.6 124.18 136.39999 148.67999 160.10001 171.75999 176.34 187.75999 199.17999 211.92 224.38 236.22 248.67999 260.22 272.5 284.34 296 300.57999 313.04001 324.45999 329.04001 340.45999 351.88 364.62 377.07999 389.54001 394.82001"
         y="26"
         id="tspan168">способов учета прав акционеров на акции, </tspan><tspan
         x="-35.68 -24.26 -19.68 -9.0799999 2.3399999 13.76 30.879999 42.419998 47 55.900002 67.32 79.599998 91.019997 103.48 114.08 126.54 138.82001 150.66 162.32001 173.74001 186.2 198.66 210.2 214.78 226.44 238.28 248.98 263.04001 274.88 292 304.45999 316.29999 327.72 338.32001 350.78 355.35999 366.78 378.44 390.28 402.22 414.06 426.62 439.07999 450.92001 459.82001 471.66"
         y="52"
         id="tspan170">а также гарантирование возможности свободного </tspan><tspan
         x="-35.68 -23.219999 -18.639999 -6.1799998 5.3600001 17.200001 29.139999 41.419998 52.959999 67.019997 78.559998 91.019997 103.48 114.08 125.62 137.67999 148.28 160.74001 172.58 181.48 193.32001 197.89999 209.74001 220.34 231.89999 243.3 260.42001 272.98001 284.51999 296.98001 309.44 320.92001 325.5 336.92001 348.34 361.07999 373.54001 385.38 397.84 409.38 421.66 433.07999 447.14001 459.60001"
         y="78"
         id="tspan172">и необременительного отчуждения акционерами </tspan><tspan
         x="-35.68 -23.459999 -11.18 1.28 13.74 25.16 37.720001 49.779999 61.32 78.440002 89.860001 106.54 119 130.28 134.86 147.32001 161.38 165.96001 177.38 188.8 201.53999 214"
         y="104"
         id="tspan174">принадлежащих им акций</tspan></text><text
       transform="matrix(1,0,0,-1,1287,559.9805)"
       style="font-variant:normal;font-weight:300;font-stretch:normal;font-size:20px;font-family:'Rubik Light';-inkscape-font-specification:Rubik-Light;writing-mode:lr-tb;fill:#000000;fill-opacity:1;fill-rule:nonzero;stroke:none"
       id="text182"><tspan
         x="0 13.06 23.98 35.5 46.419998 58.34 70.260002 81.18 86.339996 98.260002 103.42 113.78 125.4 136.12 148.03999 158.96001 170.88 182.8 193.72 198.88 209.60001 219.72 231.74001 243.66 255.58 260.73999 274.73999 284.84 297.12 302.28 313.44 324.16 334.73999 350.64001 361.56 372.28 382.22 393.06 404.28 414.66 425.57999 435.51999 446.23999 456.62"
         y="0"
         id="tspan178">Ведение и хранение акций ПГК осуществляется </tspan><tspan
         x="0 11.52 23.139999 34.299999 47.880001 58.799999 69.519997 80.239998 92.160004 103.32 115.24 125.96 137.17999 146.7 158.62 171.8 185.08 190.24001 201.86 212.78 221.14 233.06 243.78 253.72 265.34 276.06 286 297.16 308.78 319.94 333.22"
         y="26"
         id="tspan180">профессиональным регистратором.</tspan></text><text
       transform="matrix(1,0,0,-1,1287,481.9805)"
       style="font-variant:normal;font-weight:normal;font-stretch:normal;font-size:20px;font-family:'Prosto One';-inkscape-font-specification:ProstoOne-Regular;writing-mode:lr-tb;fill:#fdb73e;fill-opacity:1;fill-rule:nonzero;stroke:none"
       id="text186"><tspan
         x="0 16.4"
         y="0"
         id="tspan184">04</tspan></text><text
       transform="matrix(1,0,0,-1,1323.18,481.9805)"
       style="font-variant:normal;font-weight:500;font-stretch:normal;font-size:20px;font-family:'Rubik Medium';-inkscape-font-specification:Rubik-Medium;writing-mode:lr-tb;fill:#000000;fill-opacity:1;fill-rule:nonzero;stroke:none"
       id="text192"><tspan
         x="0 13.32 28.559999 43.799999 55.34 66.760002 77.360001 89.82 101.48 113.94 125.36 136.84 141.42 153.7 165.12 177.06 188.89999 199.5 210.92 215.5 229.17999 241.02 252.67999 264.22 274.82001 286.23999 290.82001 303.38 315.84 328.12 339.66 351.07999 361.67999 373.51999 385.79999 397.64001 409.29999"
         y="0"
         id="tspan188">Эффективная работа Совета директоров </tspan><tspan
         x="-36.18 -23.719999 -19.139999 -7.5999999 1.3 13.14 17.719999 29.139999 40.98 55.040001 67.5 78.099998 89.639999 100.24 112.08"
         y="26"
         id="tspan190">и его комитетов</tspan></text><text
       transform="matrix(1,0,0,-1,1287,429.9805)"
       style="font-variant:normal;font-weight:300;font-stretch:normal;font-size:20px;font-family:'Rubik Light';-inkscape-font-specification:Rubik-Light;writing-mode:lr-tb;fill:#000000;fill-opacity:1;fill-rule:nonzero;stroke:none"
       id="text216"><tspan
         x="0 13.02 24.18 34.900002 44.84 55.560001 66.400002 71.559998 84.580002 95.739998 106.58 117.5 127.44 138.16 143.32001 154.84 166.75999 178.38 189.3 199.42 209.36 220.52 232.14 243.3 254.14 259.29999 273.29999 283.39999 295.67999 300.84 312.45999 323.17999 333.01999 344.94 356.10001 367.26001 378.60001 390.22 400.94 410.78 421.70001 433.62"
         y="0"
         id="tspan194">Состав Совета директоров ПГК разнообразен </tspan><tspan
         x="0 11.52 22.68 27.84 36.200001 47.119999 59.040001 70.559998 81.480003 93.099998 105.02 116.18 128.10001 133.25999 145.17999 150.34 161.17999 172.34 182.17999 193.8 204.52 215.24001 225.17999 237.10001 248.25999 260.17999 265.34 276.06 286 297.62 308.20001 318.32001 328.26001 338.84 350.45999 361.38 366.12 371.28 381.39999 392.56 405.84 417.35999 428.28 438.22 449.14001 461.06 473.07999 485 495.38 508.66 513.40002"
         y="26"
         id="tspan196">по гендерной и возрастной структуре, компетенциям, </tspan><tspan
         x="0 9.8400002 21.76 32.48 44.400002 56.32 66.699997 79.980003 85.139999 97.059998 102.22 113.74 125.36 136.52 150.10001 161.02 171.74001 182.46001 194.38 205.53999 217.46001 228.17999 239.39999 248.92 260.84 272 285.28 295.85999 301.01999 312.17999 323.70001 336.88 346.82001 357.39999 362.16 367.32001 380.38 385.54001 396.73999 409.06 420.26001 432.57999 437.73999 446.10001 457.26001 468.78 479.35999 484.51999 495.67999 507.60001"
         y="52"
         id="tspan198">знаниям и профессиональному опыту. В 2020 году он </tspan><tspan
         x="0 11.62 22.34 33.060001 48.439999 60.360001 71.980003 82.900002 94.82 99.980003 111.5 122.66 127.82 139.25999 144.42 154.96001 165.88 177.10001 188.25999 199.10001 210.02 220.14 224.96001 230.12 240.96001 246.12 258.04001 268.95999 277.32001 288.48001 293.64001 304.48001 315.64001 331.01999 342.23999 354.16 359.32001 372.38 383.60001 394.32001 405.84 417.76001 431.04001 442.95999 454.57999 459.73999 473.34 485.26001 495.98001 507.89999 519.82001 524.56"
         y="78"
         id="tspan200">расширен до 9 человек: в него вошли Владимир Лисин, </tspan><tspan
         x="0 10.72 15.83 25.77 36.490002 46.610001 61.59 72.510002 77.622002 89.542 100.462 110.302 121.022 131.862 143.782 154.502 166.422 179.702 192.882 204.802 209.91 221.42999 233.35001 244.97 255.89 266.01001 275.95001 287.10999 298.73001 303.84 319.17999 324.29199 337.29199 349.21201 359.93201 370.65201 380.59201 391.31201 402.03201 413.952 424.332 429.44199 443.04199 453.76199 464.34201 474.28201 485.202 496.82199 508.16199 518.88202 529.242"
         y="104"
         id="tspan202">а также независимый директор — Анастасия Лаутербах.</tspan><tspan
         x="0 11.26 21.98 33.900002 45.119999 56.040001 67.959999 78.68 83.839996 94.68 105.84 116.68 127.9 138.82001 149.36 160.28 172.2 184.12 195.28 206 215.94 225.46001 230.62 241.16 252.38 263.29999 275.22 286.38 297.22 302.38 315.39999 326.56 337.39999 348.32001 358.26001 368.98001 374.14001 385.66 397.57999 409.20001 420.12 430.23999 440.17999 451.34 462.95999 474.12 484.95999"
         y="130"
         id="tspan204">Усилена вовлеченность членов Совета директоров </tspan><tspan
         x="0 10.84 16 27.52 38.439999 48.82 58.759998 69.68 80.900002 90.419998 102.34 113.5 124.22 134.16 143.67999 148.84 158.96001 170.12 183.39999 195.32001 205.25999 216.17999 226.12 237.28 248.12 252.94 258.10001 269.72 280.44 291.16 306.54001 318.45999 330.07999 341 352.92001 366.10001 371.26001 381.98001 393.14001 403.85999 413.79999 424.51999 435.35999 448.54001"
         y="156"
         id="tspan206">в деятельность комитетов: расширены составы </tspan><tspan
         x="0 12.28 23.440001 36.720001 48.639999 58.580002 69.5 79.440002 90.599998 101.44 106.6 118.12 129.28 134.44 145.16 155.10001 166.72 177.44 187.38 198.3 206.66 218.58 229.12 240.03999 250.75999 260.88 272.04001 285.32001 295.89999 301.06 312.57999 323.79999 334.51999 346.44 358.35999 369.98001 381.14001 391.98001 402.70001 414.62 426.54001 441.79999 446.54001"
         y="182"
         id="tspan208">Комитетов по стратегическому планированию, </tspan><tspan
         x="0 10.12 20.84 32.360001 43.98 54.700001 67.980003 73.139999 85.059998 90.220001 101.06 112.22 122.06 133.98 144.7 153.06 164.67999 175.39999 190.38 201.89999 212.82001 224.74001 236.66 247.03999 260.32001 265.07999 270.23999 283.26001 294.42001 304.26001 315.78 326.5 338.42001 343.57999 355.10001 366.26001 377.78 388.94 400.16 412.07999 424 433.94 444.85999 456.07999 465.60001 477.51999 490.70001 502.62"
         y="208"
         id="tspan210">кадрам и вознаграждениям. Создан дополнительный </tspan><tspan
         x="0 12.28 23.440001 36.720001 48.639999 58.580002 69.5 79.440002 84.599998 96.120003 107.28 112.44 124.46 136.38 149.96001 161.58 172.74001 183.58 194.74001 208.02 218.60001 223.75999 235.38 246.10001 255.94 266.78 278.70001 288.64001 300.56 315.82001 320.56 325.72 335.84 347 356.94 368.10001 379.72 392.89999 404.82001 409.98001 420.82001 431.98001 441.82001 450.17999 461.39999 472.12 482.95999 494.88 506.10001"
         y="234"
         id="tspan212">Комитет по цифровому развитию, который возглавил </tspan><tspan
         x="0 11.92 22.84 32.68 43.400002 54.240002 66.160004 76.879997 88.800003 102.08 115.26 127.18 132.34 143.86 155.78 167.39999 178.32001 188.44 198.38 209.53999 221.16"
         y="260"
         id="tspan214">независимый директор.</tspan></text><g
       id="g218"
       transform="translate(1482.8792,95.9063)"><path
         d="M 0,0 9.121,10.047 0,20.094 H -27.879 V 10.047 0 Z"
         style="fill:#f0f0f5;fill-opacity:1;fill-rule:nonzero;stroke:none"
         id="path220" /></g><text
       transform="matrix(1,0,0,-1,1287,100.36)"
       style="font-variant:normal;font-weight:300;font-stretch:normal;font-size:16px;font-family:'Rubik Light';-inkscape-font-specification:Rubik-Light;writing-mode:lr-tb;fill:#000000;fill-opacity:1;fill-rule:nonzero;stroke:none"
       id="text224"><tspan
         x="0 11.2 20.496 29.424 38.639999 47.568001 56.543999 68.528 77.264 86.800003 96.335999 105.072 109.2 118.736 127.312 131.44 140.01601 147.968 157.26401 161.07201"
         y="0"
         id="tspan222">Продолжение на стр. </tspan></text><text
       transform="matrix(1,0,0,-1,1460.456,100.36)"
       style="font-variant:normal;font-weight:500;font-stretch:normal;font-size:16px;font-family:'Rubik Medium';-inkscape-font-specification:Rubik-Medium;writing-mode:lr-tb;fill:#000000;fill-opacity:1;fill-rule:nonzero;stroke:none"
       id="text228"><tspan
         x="0 9.9200001"
         y="0"
         id="tspan226">55</tspan></text><text
       transform="matrix(1,0,0,-1,37.8302,1023)"
       style="font-variant:normal;font-weight:300;font-stretch:normal;font-size:20px;font-family:'Rubik Light';-inkscape-font-specification:Rubik-Light;writing-mode:lr-tb;fill:#000000;fill-opacity:1;fill-rule:nonzero;stroke:none"
       id="text232"><tspan
         x="0 11.44"
         y="0"
         id="tspan230">54</tspan></text><text
       transform="matrix(1,0,0,-1,98.9902,1023)"
       style="font-variant:normal;font-weight:300;font-stretch:normal;font-size:20px;font-family:'Rubik Light';-inkscape-font-specification:Rubik-Light;writing-mode:lr-tb;fill:#000000;fill-opacity:1;fill-rule:nonzero;stroke:none"
       id="text236"><tspan
         x="0 12.28 23.440001 35.060001 46.580002 57.740002 69.360001 80.080002 90.019997 101.94 112.78 124.7 135.86 146.78 151.94 162.52 174.03999 185.66 196.38 207.22 218.44 229.36 241.28 253.2"
         y="0"
         id="tspan234">Корпоративное управление</tspan></text></g></svg>
