<?xml version="1.0" encoding="UTF-8" standalone="no"?>
<?xml-stylesheet type="text/css" href="main.css" ?>
<svg
   xmlns:dc="http://purl.org/dc/elements/1.1/"
   xmlns:cc="http://creativecommons.org/ns#"
   xmlns:rdf="http://www.w3.org/1999/02/22-rdf-syntax-ns#"
   xmlns:svg="http://www.w3.org/2000/svg"
   xmlns="http://www.w3.org/2000/svg"
   version="1.1"
   id="svg2"
   xml:space="preserve"
   width="2560"
   height="1440"
   viewBox="0 0 2560 1440"><metadata
     id="metadata8"><rdf:RDF><cc:Work
         rdf:about=""><dc:format>image/svg+xml</dc:format><dc:type
           rdf:resource="http://purl.org/dc/dcmitype/StillImage" /></cc:Work></rdf:RDF></metadata><defs
     id="defs6"><clipPath
       clipPathUnits="userSpaceOnUse"
       id="clipPath20"><path
         d="M 0,1080 H 1920 V 0 H 0 Z"
         id="path18" /></clipPath></defs><g
     id="g10"
     transform="matrix(1.3333333,0,0,-1.3333333,0,1440)"><g
       id="g12"><g
         id="g14"><g
           id="g16"
           clip-path="url(#clipPath20)"><path
             d="M 0,0 H 1920 V 1080 H 0 Z"
             style="fill:#ffffff;fill-opacity:1;fill-rule:nonzero;stroke:none"
             id="path22" /></g></g></g><text
       transform="matrix(1,0,0,-1,99,915.22)"
       style="font-variant:normal;font-weight:300;font-stretch:normal;font-size:20px;font-family:'Rubik Light';-inkscape-font-specification:Rubik-Light;writing-mode:lr-tb;fill:#000000;fill-opacity:1;fill-rule:nonzero;stroke:none"
       id="text40"><tspan
         x="0 13.06 18.219999 28.799999 39.52 50.740002 61.900002 72.739998 84.660004 95.040001 105.4 110.56 122.08 132.8 144.72 156.24001 167.16 180.44 192.36 204.28 209.44 219.56 230.72 242.34 253.5 265.42001 276.14001 286.98001 298.89999 310.51999 321.10001 331.82001 342.54001 347.70001 354.07999 367.10001 380.34 393.10001 398.12 411.66 420.57401 428.534 439.314 445.694"
         y="0"
         id="tspan24">В условиях пандемии коронавируса (COVID-19) </tspan><tspan
         x="0 9.8400002 20.559999 31.280001 42.200001 53.720001 64.440002 76.360001 88.279999 98.660004 103.82 116.84 128 138.84 149.75999 159.7 170.42 175.58 187.10001 199.02 210.64 221.56 231.67999 241.62 252.78 264.39999 275.56 286.39999 291.56 303.48001 308.64001 319.56 327.92001 339.07999 344.23999 356.51999 367.67999 380.95999 392.88 402.82001 413.73999 423.67999 434.84 445.67999"
         y="26"
         id="tspan26">заседания Совета директоров и его Комитетов </tspan><tspan
         x="0 11.52 23.139999 34.299999 45.139999 56.299999 67.82 79.739998 90.959999 102.88 113.6 123.12 128.28 139.44 151.36 162.58 173.3 185.22 197.14 202.3 213.14 218.3 231.88 243.03999 254.66 267.94 278.85999 284.01999 294.85999 306.78 318.29999 329.22 340.38 350.5 361.66 373.57999 387.16 398.07999 409.70001 420.62 432.54001 444.56 456.48001 468.39999"
         y="52"
         id="tspan28">проводились онлайн в форме видеоконференций </tspan><tspan
         x="0 11.52 23.139999 35.060001 40.220001 51.84 62.759998 78.139999 89.059998 100.98 112.9 124.82 129.98 140.82001 151.98 163.5 175.12 186.28 197 208.16 219 223.74001 228.89999 238.84 250.46001 261.38 272.72 283.29999 298.56 314.45999 326.38 336.73999 341.89999 353.06 363.60001 375.51999 386.67999 395.04001 406.20001 411.35999 422.51999 433.85999 444.57999 455.16 470.14001 481.66 492.57999 504.5 516.41998 526.79999 531.56"
         y="78"
         id="tspan30">при решении вопросов, требующих очного обсуждения. </tspan><tspan
         x="0 12.4 22.34 33.5 38.66 50.18 61.34 71.18 82.019997 93.18 104.4 116.32 127.54 138.7 143.86 153.7 165.62 176.34 186.88 198.8 208.74001 219.66 230.88 240.39999 252.32001 263.48001 268.64001 280.16 291.32001 302.16 315.34 326.06 337.98001 347.92001 357.44 362.60001 373.32001 386.89999 400.48001 411.39999 421.51999 431.45999 443.38 454.22 466.14001 477.29999 488.01999 497.95999 507.48001"
         y="104"
         id="tspan32">Это позволило значительно повысить эффективность </tspan><tspan
         x="0 11.92 17.08 28.24 39.759998 50.68 62.299999 73.019997 82.959999 94.879997 105.72 117.64 128.8 139.52 149.46001 158.98 164.14 175.75999 186.48 197.82001 208.98 218.92 232.10001 237.25999 247.98 257.92001 269.84 280.20001 285.35999 296.51999 308.14001 316.5 327.22 339.14001 350.29999 361.14001"
         y="130"
         id="tspan34">и оперативность работы этих органов.</tspan><tspan
         x="0 13.06 18.219999 29.42 41.740002 52.939999 65.260002 70.419998 78.779999 89.940002 101.46 112.04 117.2 130.22 141.38 152.22 163.14 173.08 184.24001 197.52 202.67999 214.2 226.12 237.74001 248.66 258.78 268.72 279.88 291.5 302.66 313.5 318.66 330.57999 335.73999 346.66 355.01999 366.17999 371.34 383.62 394.78 408.06 419.98001 429.92001 440.84 450.78 461.5 474.78 486.70001"
         y="156"
         id="tspan36">В 2020 году Советом директоров и его Комитетами </tspan><tspan
         x="0 11.34 24.52 35.740002 46.900002 52.060001 63.580002 75.199997 86.360001 97.199997 108.12 119.64 130.56 142.48 153.64 158.8 169.64 174.8 185.52 196.67999 207.52 218.67999 228.8 239.38 250.89999 262.82001 273.98001 284.70001 294.64001 306.56 311.72 323.06 334.22 345.44 356.35999 367.28 372.44 384.34 396.66 401.82001 411.66 422.38 433.10001 444.01999 455.54001 466.26001 478.17999 490.10001 502.01999"
         y="182"
         id="tspan38">было проведено в совокупности более 40 заседаний.</tspan></text><text
       transform="matrix(1,0,0,-1,99,681.22)"
       style="font-variant:normal;font-weight:normal;font-stretch:normal;font-size:20px;font-family:'Prosto One';-inkscape-font-specification:ProstoOne-Regular;writing-mode:lr-tb;fill:#fdb73e;fill-opacity:1;fill-rule:nonzero;stroke:none"
       id="text44"><tspan
         x="0 16.4"
         y="0"
         id="tspan42">05</tspan></text><text
       transform="matrix(1,0,0,-1,134.48,681.22)"
       style="font-variant:normal;font-weight:500;font-stretch:normal;font-size:20px;font-family:'Rubik Medium';-inkscape-font-specification:Rubik-Medium;writing-mode:lr-tb;fill:#000000;fill-opacity:1;fill-rule:nonzero;stroke:none"
       id="text52"><tspan
         x="0 13.68 25.620001 37.040001 49.099998 60.52 72.980003 84.400002 96.860001 109.14 120.98 132.64 144.06 156.52 168.98 180.39999 191.88 196.46001 207.88 220.34 231.75999 242.36 253.89999 267.95999 279.38 283.95999 295.62 307.45999 318.16 330.62 342.04001 350.94 363.22 374.64001 391.76001 404.32001 415.85999 428.32001 440.78 452.26001"
         y="0"
         id="tspan46">Сбалансированная система вознаграждения </tspan><tspan
         x="-35.48 -23.639999 -11.36 -2.46 8.96 21.42 33.259998 44.919998 49.5 60.900002 73.120003 85.400002 96.82 108.48 120.54 132.08 144.53999 157 168.48 173.75999 178.34 190.17999 202.12 213.66 225.08 237.3 248.84 260.39999 272.85999 284.51999 295.94 312.62 329.29999 340.72 352.20001 356.78 368.20001 380.14001 392.20001 404.66 421.78 433.32001 445.78 458.23999 469.78"
         y="26"
         id="tspan48">органов управления, обеспечивающая сближение </tspan><tspan
         x="-35.48 -23.02 -11.74 -7.1599998 5.3000002 17.76 28.360001 39.900002 52.18 63.720001 75.139999 86.980003 98.639999 103.22 114.64 119.22 131.67999 144.14 154.74001 166.28 178.56 190.10001 201.52 212.94 227 239.46001 244.03999 257.44 269.28 283.34 295.56 306.98001 319.44 331.89999 344.35999"
         y="52"
         id="tspan50">их интересов с интересами Компании.</tspan></text><text
       transform="matrix(1,0,0,-1,99,603.22)"
       style="font-variant:normal;font-weight:300;font-stretch:normal;font-size:20px;font-family:'Rubik Light';-inkscape-font-specification:Rubik-Light;writing-mode:lr-tb;fill:#000000;fill-opacity:1;fill-rule:nonzero;stroke:none"
       id="text68"><tspan
         x="0 13.06 18.219999 30.5 41.66 54.939999 66.459999 77.18 89.099998 101.02 112.94 118.1 129.62 140.53999 152.46001 163.17999 173.12 183.96001 194.53999 205.46001 215.39999 220.56 234.56 245.72 256.94 268.10001 283.07999 294 305.92001 317.84 328.76001 333.92001 345.07999 350.23999 361.07999 374.26001 385.78 397 407.72 417.66 428.57999 433.73999 444.28 455.5 466.42001 478.34 489.06 502.34"
         y="0"
         id="tspan54">В Компании действует Положение о выплате членам </tspan><tspan
         x="0 13.02 24.18 35.02 45.939999 55.880001 66.599998 71.760002 83.279999 95.199997 106.82 117.74 127.86 137.8 148.96001 160.58 171.74001 182.58 187.74001 198.58 209.74001 219.58 231.5 242.22 250.58 262.20001 272.92001 287.89999 299.42001 310.34 322.26001 334.17999 346.10001 351.26001 363.17999 368.34 378.45999 389.62 402.89999 414.42001 425.34 437.26001 447.98001 458.70001 470.72 482.64001 494.56 499.29999"
         y="26"
         id="tspan56">Совета директоров вознаграждений и компенсаций, </tspan><tspan
         x="0 11.62 22.34 32.18 43.799999 54.52 65.860001 77.019997 86.959999 97.68 109.6 121.52 132.67999 143.60001 148.75999 160.67999 165.84 176.42 186.36 197.2 208.12 219.74001 234.72 246.24001 257.16 269.07999 281 292.16 303.07999 308.23999 319.07999 324.23999 334.95999 346.12 357.28 367.22 378.06 388.98001 398.92001 409.64001 419.57999 430.42001 442.34 454.26001"
         y="52"
         id="tspan58">разработанное и утвержденное в соответствии </tspan><tspan
         x="0 10.72 15.542 27.162001 38.082001 48.202 59.362 72.641998 83.561996 95.482002 107.002 117.722 129.742 141.662 152.04201 165.32201 177.242 182.06 194.34 205.5 217.02 227.94 238.06 248.78 259.5 264.32199 274.44199 285.60199 297.22198 308.742 319.90201 331.522 342.242 352.18201 364.10199 374.94199 386.862 398.022 406.38199 417.54199 422.362 432.94199 444.46201 456.082 466.802 477.642 488.862 499.78201 511.702 523.62201 534.00201"
         y="78"
         id="tspan60">с рекомендациями Кодекса корпоративного управления </tspan><tspan
         x="0 12.64 23.360001 35.279999 45.400002 56.119999 61.279999 73.839996 85 95.720001 106.44 118.36 130.28 135.03999 140.2 153.25999 158.42 169.62 181.94 193.14 205.46001 210.62 218.98 230.14 241.66 252.24001 257.39999 268.23999 281.42001 292.94 304.16 314.88 324.82001 335.54001 340.70001 351.54001 362.70001 372.54001 384.45999 395.17999 403.54001 415.16 425.88 440.85999 452.38 463.29999 475.22 487.14001 499.06"
         y="104"
         id="tspan62">Банка России. В 2020 году выплата вознаграждений </tspan><tspan
         x="0 10.54 21.76 32.68 44.599998 55.32 68.599998 73.760002 86.779999 97.940002 108.78 119.7 129.64 140.36 145.52 157.03999 168.96001 180.58 191.5 201.62 211.56 222.72 234.34 245.5 256.34 261.5 273.01999 284.64001 295.79999 307.72 317.56 328.39999 339.56 351.07999 363 374.22 384.94 395.66 405.17999 410.34 422.26001 432.98001 438.14001 449.29999 460.01999 471.94 483.10001 493.94 504.85999"
         y="130"
         id="tspan64">членам Совета директоров производилась на основе </tspan><tspan
         x="0 11.92 23.08 33.919998 45.080002 53.439999 64.599998 69.760002 83.760002 94.919998 106.14 117.3 132.28 143.2 155.12 167.03999 177.42"
         y="156"
         id="tspan66">нового Положения.</tspan></text><text
       transform="matrix(1,0,0,-1,99,395.22)"
       style="font-variant:normal;font-weight:normal;font-stretch:normal;font-size:20px;font-family:'Prosto One';-inkscape-font-specification:ProstoOne-Regular;writing-mode:lr-tb;fill:#fdb73e;fill-opacity:1;fill-rule:nonzero;stroke:none"
       id="text72"><tspan
         x="0 16.4"
         y="0"
         id="tspan70">06</tspan></text><text
       transform="matrix(1,0,0,-1,134.78,395.22)"
       style="font-variant:normal;font-weight:500;font-stretch:normal;font-size:20px;font-family:'Rubik Medium';-inkscape-font-specification:Rubik-Medium;writing-mode:lr-tb;fill:#000000;fill-opacity:1;fill-rule:nonzero;stroke:none"
       id="text78"><tspan
         x="0 13.18 24.6 36.02 47.439999 59.720001 75.019997 85.620003 98.080002 109.62 114.2 126.42 138.25999 150.32001 162.78 174.62 187.08 191.66 204.12 208.7 220.12 231.53999 243.10001 254.64 266.06 276.66 288.32001 299.85999 312.32001 324.78 336.62 349.07999 353.66 368.89999 381.35999 393.82001 405.23999 417.70001 429.12 440.95999 452.62 464.45999 476.92001"
         y="0"
         id="tspan74">Раскрытие полной и качественной финансовой </tspan><tspan
         x="-35.779999 -23.32 -18.74 -6.2800002 5.2600002 20.5 32.959999 45.419998 56.84 69.300003 80.720001 92.559998 104.22 116.06 128.52 133.10001 145.56 158.02 173.25999 185.10001 197.38 211.44 222.86 235.60001 248.06 260.51999"
         y="26"
         id="tspan76">и нефинансовой информации.</tspan></text><text
       transform="matrix(1,0,0,-1,99,343.22)"
       style="font-variant:normal;font-weight:300;font-stretch:normal;font-size:20px;font-family:'Rubik Light';-inkscape-font-specification:Rubik-Light;writing-mode:lr-tb;fill:#000000;fill-opacity:1;fill-rule:nonzero;stroke:none"
       id="text88"><tspan
         x="0 14 24.1 36.380001 41.540001 53.459999 64.18 69.339996 80.959999 91.879997 100.24 110.82 122.04 132.42 144.03999 155.96001 167.12 179.03999 184.2 195.36 206.08 218 229.16 240 250.92 256.07999 267.23999 277.95999 288.54001 304.44 315.35999 326.07999 336.01999 346.85999 358.07999 368.45999 379.38 389.32001 394.48001 406.10001 416.82001 427.54001 437.66 449.28 462.45999 472.39999 484.32001 495.23999"
         y="0"
         id="tspan80">ПГК на регулярной основе осуществляет раскрытие </tspan><tspan
         x="0 11.52 22.68 33.900002 45.82 56.98 68.900002 74.059998 85.980003 91.139999 101.86 111.98 121.92 132.5 143.22 154.44 163.96001 175.88 187.03999 198.96001 204.12 216.03999 227.96001 241.53999 252.7 264.32001 277.60001 288.32001 300.34 312.26001 324.17999 329.34 340.5 345.66 356.38 367.29999 378.64001 389.56"
         y="26"
         id="tspan82">полной и актуальной информации о себе </tspan><tspan
         x="0 11.92 22.639999 27.799999 39.720001 51.639999 65.220001 76.379997 88 101.28 112 124.02 135.94 147.10001 159.02 170.94 184.12 194.48 199.64 211.16 222.38 233.53999 249.44 260.16 271.67999 281.79999 292.51999 302.88 308.04001 320.10001 334.62 346.54001 356.48001 367.39999 379.01999 392.60001 403.32001 413.44 424.16 434.88 446.94"
         y="52"
         id="tspan84">на информационных площадках «Интерфакса» </tspan><tspan
         x="0 11.92 17.08 29 40.919998 50.860001 61.779999 73.400002 85.32 96.239998 106.18 115.92 126.64 137.36 149.28 159.22 170.14 175.3 187.58 198.74001 212.02 223.53999 234.25999 246.17999 258.10001 270.01999"
         y="78"
         id="tspan86">и интернет-сайте Компании.</tspan></text><text
       transform="matrix(1,0,0,-1,99,213.22)"
       style="font-variant:normal;font-weight:normal;font-stretch:normal;font-size:20px;font-family:'Prosto One';-inkscape-font-specification:ProstoOne-Regular;writing-mode:lr-tb;fill:#fdb73e;fill-opacity:1;fill-rule:nonzero;stroke:none"
       id="text92"><tspan
         x="0 16.4"
         y="0"
         id="tspan90">07</tspan></text><text
       transform="matrix(1,0,0,-1,132.98,213.22)"
       style="font-variant:normal;font-weight:500;font-stretch:normal;font-size:20px;font-family:'Rubik Medium';-inkscape-font-specification:Rubik-Medium;writing-mode:lr-tb;fill:#000000;fill-opacity:1;fill-rule:nonzero;stroke:none"
       id="text100"><tspan
         x="0 13.32 28.559999 43.799999 55.34 66.760002 77.360001 89.82 101.48 113.94 125.36 136.84 141.42 152.84 165.3 176.72 187.32001 198.86 212.92 224.34 228.92 240.32001 252.53999 264.82001 276.23999 287.89999 299.95999 311.5 323.95999 336.42001 347.89999 352.48001 364.76001 377.22 388.64001 400.06 411.48001 425.54001 438"
         y="0"
         id="tspan94">Эффективная система управления рисками </tspan><tspan
         x="-33.98 -21.52 -16.940001 -5.2800002 7.1799998 18.58 29.18 41.459999 53 65.459999 77.919998 89.459999 98.360001 110.2 114.78 126.2 138.03999 150.5 161.10001 173.38 185.22 197.28 208.75999 214.03999 218.62 230.12 245.36 260.60001 272.14001 283.56 294.16 306.62 318.28 330.73999 342.16 353.64001 358.22 373.45999 384.85999 397.32001 408.73999 421.48001 433.94 445.42001"
         y="26"
         id="tspan96">и внутреннего контроля, эффективная функция </tspan><tspan
         x="-33.98 -22.32 -9.8599997 1.54 12.14 24.42 35.959999 48.419998 60.880001 72.419998 81.32 93.160004 97.739998 109.16 120.56 133.12 145.58 156.17999 167.60001"
         y="52"
         id="tspan98">внутреннего аудита.</tspan></text><text
       transform="matrix(1,0,0,-1,99,135.22)"
       style="font-variant:normal;font-weight:300;font-stretch:normal;font-size:20px;font-family:'Rubik Light';-inkscape-font-specification:Rubik-Light;writing-mode:lr-tb;fill:#000000;fill-opacity:1;fill-rule:nonzero;stroke:none"
       id="text114"><tspan
         x="0 13.06 18.219999 29.42 41.740002 52.939999 65.260002 70.419998 78.779999 89.940002 101.46 112.04 117.2 127.78 137.72 148.56 159.48 171.10001 186.08 197.60001 208.52 220.44 231.16 236.32001 248.24001 259.39999 270.23999 280.95999 291.34 296.5 308.12 319.04001 330.56 341.28 351.39999 363.42001 375.34 385.72 390.88 404.88 416.04001 427.26001 438.42001 453.39999 464.32001 476.23999 488.16 498.54001"
         y="0"
         id="tspan102">В 2020 году утверждена новая редакция Положения </tspan><tspan
         x="0 11.16 22.5 27.66 38.919998 50.439999 62.060001 72.779999 83.620003 94.839996 105.76 117.68 129.60001 141.52 146.67999 157.52 169.44 180.02 189.96001 201.58 212.5 224.42 236.34 247.25999 255.62 266.78 271.94 282.66 293.23999 304.76001 316.67999 326.62 337.34 342.5 356.5 366.60001 378.88 383.62 388.78 400.39999 411.12 420.95999 432.57999 443.29999 454.64001 465.79999 475.73999 486.45999 498.38 510.29999 521.02002 531.40002"
         y="26"
         id="tspan104">об Управлении внутреннего аудита ПГК, разработанная </tspan><tspan
         x="594 604.84003 610 620.71997 631.88 643.03998 652.97998 663.82001 674.73999 684.67999 695.40002 705.34003 716.17999 728.09998 740.02002 745.17999 755.90002 761.06 773.34003 784.5 796.02002 806.94 817.06 827.78003 838.94 852.21997 857.38 867.5 878.65997 890.28003 901.79999 912.96002 924.58002 935.29999 945.23999 957.15997 968 979.91998 991.08002 999.44 1010.6 1015.76 1026.34 1037.86 1049.48 1060.2 1071.04 1082.26 1093.1801 1105.1 1117.02 1127.4"
         y="-826.08002"
         id="tspan106">в соответствии с Кодексом корпоративного управления </tspan><tspan
         x="594 606.64001 617.35999 629.28003 639.40002 650.12 655.28003 667.84003 679 689.71997 700.44 712.35999 724.28003 729.44 741.35999 746.52002 756.35999 767.08002 777.20001 788.82001 799.73999 811.26001 822.47998 832.85999 848.12 864.02002 874.73999 885.12 890.28003 901.79999 912.96002 924.47998 935.64001 945.58002 956.12 967.03998 976.97998 988.90002 1000.06 1010.78 1020.72 1030.24"
         y="-800.08002"
         id="tspan108">Банка России и закрепляющая подотчетность </tspan><tspan
         x="594 605.26001 616.78003 628.40002 639.12 649.96002 661.17999 672.09998 684.02002 695.94 706.32001 711.47998 722.32001 734.23999 744.82001 754.76001 766.38 777.29999 789.21997 801.14001 812.06 820.41998 831.58002 836.73999 847.46002 858.03998 869.56 881.47998 891.41998 902.14001 907.29999 921.29999 931.40002 943.67999 948.84003 960.76001 971.67999 983.20001 994.35999 1005.08 1016.7 1027.62 1039.14 1049.86 1059.8 1070.64 1081.5601 1093.48 1105.4 1116.5601"
         y="-774.08002"
         id="tspan110">Управления внутреннего аудита ПГК непосредственно </tspan><tspan
         x="594 607.02002 618.17999 629.02002 639.94 649.88 660.46002 665.62 677.14001 689.06 700.67999 711.59998 721.71997 731.65997 742.82001 754.44 765.59998 776.44 781.59998 793.88 805.03998 818.32001 829.84003 840.56 852.47998 864.40002 876.32001"
         y="-748.08002"
         id="tspan112">Совету директоров Компании.</tspan></text><text
       transform="matrix(1,0,0,-1,693,831.3)"
       style="font-variant:normal;font-weight:normal;font-stretch:normal;font-size:20px;font-family:'Prosto One';-inkscape-font-specification:ProstoOne-Regular;writing-mode:lr-tb;fill:#fdb73e;fill-opacity:1;fill-rule:nonzero;stroke:none"
       id="text118"><tspan
         x="0 16.4"
         y="0"
         id="tspan116">08</tspan></text><text
       transform="matrix(1,0,0,-1,728.98,831.3)"
       style="font-variant:normal;font-weight:500;font-stretch:normal;font-size:20px;font-family:'Rubik Medium';-inkscape-font-specification:Rubik-Medium;writing-mode:lr-tb;fill:#000000;fill-opacity:1;fill-rule:nonzero;stroke:none"
       id="text124"><tspan
         x="0 13.68 25.620001 37.040001 49.099998 60.52 72.980003 84.400002 96.860001 109.14 120.98 132.64 144.06 156.52 168.98 180.39999 191.88 196.46001 209.02 221.48 233.14 245.60001 258.16 269.70001 282.16 294.72 307.17999 318.60001 330.07999 334.66 346.88 358.72 370.78 383.23999 393.84 406.29999 417.72 429.14001 434.42001"
         y="0"
         id="tspan120">Сбалансированная дивидендная политика, </tspan><tspan
         x="-35.98 -24.139999 -13.54 -1.88 9.6599998 21.219999 32.639999 49.32 66 77.419998 88.900002 93.480003 105.94 118.4 129 140.53999 152.82001 164.36 175.78 187.2 201.25999 205.84 217.25999 229.10001 243.16 255.38 266.79999 279.26001 291.72 304.17999 308.76001 321.22 325.79999 337.34 348.88 353.45999 364.88 376.29999 389.04001 401.5 413.34 425.79999 437.34 449.62 461.45999 473.12"
         y="26"
         id="tspan122">отвечающая интересам компании и ее акционеров.</tspan></text><text
       transform="matrix(1,0,0,-1,693,779.3)"
       style="font-variant:normal;font-weight:300;font-stretch:normal;font-size:20px;font-family:'Rubik Light';-inkscape-font-specification:Rubik-Light;writing-mode:lr-tb;fill:#000000;fill-opacity:1;fill-rule:nonzero;stroke:none"
       id="text130"><tspan
         x="0 13.06 18.219999 29.42 41.740002 52.939999 65.260002 70.419998 78.779999 89.940002 101.46 112.04 117.2 129.48 140.64 153.92 165.44 176.16 188.08 200 210.38 215.53999 226.38 239.56 251.08 262.29999 273.01999 282.95999 294.88 306.10001 316.82001 321.98001 333.5 345.42001 356.26001 368.17999 379.70001 390.62 402.54001 414.06 427.23999 432.39999 443.12 453.95999 465.12 477.04001 490.32001"
         y="0"
         id="tspan126">В 2020 году Компания выплатила дивиденды своим </tspan><tspan
         x="0 10.72 20.84 32.860001 44.779999 55.939999 67.860001 78.779999 90.400002 101.12 114.4 119.56 131.08 142.24001 147.39999 159.32001 169.25999 180.42 188.78 199.5 212.78 217.94 229.14 241.46001 249.42 260.85999 266.01999 274.38 285.54001 297.06 307.78 312.94 324.85999 330.01999 341.45999 346.62 359.89999 370.82001 381.54001 391.92001 403.94 414.85999 425.70001 430.85999 442.06 454.38 465.57999 477.89999 483.06 491.42001 502.57999 514.09998 524.82001"
         y="26"
         id="tspan128">акционерам по итогам 2019 года и 9 месяцев 2020 года.</tspan></text><text
       transform="matrix(1,0,0,-1,693,701.3)"
       style="font-variant:normal;font-weight:normal;font-stretch:normal;font-size:20px;font-family:'Prosto One';-inkscape-font-specification:ProstoOne-Regular;writing-mode:lr-tb;fill:#fdb73e;fill-opacity:1;fill-rule:nonzero;stroke:none"
       id="text134"><tspan
         x="0 16.4"
         y="0"
         id="tspan132">09</tspan></text><text
       transform="matrix(1,0,0,-1,728.78,701.3)"
       style="font-variant:normal;font-weight:500;font-stretch:normal;font-size:20px;font-family:'Rubik Medium';-inkscape-font-specification:Rubik-Medium;writing-mode:lr-tb;fill:#000000;fill-opacity:1;fill-rule:nonzero;stroke:none"
       id="text142"><tspan
         x="0 14.58 26 38.560001 50.099998 67.220001 79.68 94.980003 106.52 111.1 123.32 135.60001 147.44 160.17999 171.72 184.28 195.67999 207.96001 223.25999 227.84 240.06 252.34 263.88 276.44 287.84 300.06 312.34 323.88 341 353.56 365.10001 377.56 390.01999 401.5"
         y="0"
         id="tspan136">Надежные процедуры предупреждения </tspan><tspan
         x="-35.779999 -23.32 -18.74 -7.3400002 4.9400001 16.48 25.379999 36.779999 48.84 61.299999 73.580002 85.419998 97.080002 108.5 120.96 133.42 144.89999 149.48 160.89999 172.74001 185.2 200.44 212.5 224.96001 236.38 246.98 258.82001 270.48001 275.06 287.51999 299.98001 310.57999 322.12 334.39999 345.94 357.35999 369.20001 380.85999 386.14001"
         y="26"
         id="tspan138">и урегулирования конфликтов интересов, </tspan><tspan
         x="-35.779999 -23.32 -11.78 0.77999997 12.62 24.84 36.240002 52.919998 64.459999 76.919998 89.379997 100.92 105.5 116.92 128.75999 141.03999 153.25999 165.10001 177.38 188.8 199.39999 211.86 223.52 235.98 251.28 262.56 267.14001 278.56 290.39999 302.85999 318.10001 330.16 342.62 354.04001 364.64001 376.48001"
         y="52"
         id="tspan140">недопущение корпоративных конфликтов</tspan></text><text
       transform="matrix(1,0,0,-1,693,623.3)"
       style="font-variant:normal;font-weight:300;font-stretch:normal;font-size:20px;font-family:'Rubik Light';-inkscape-font-specification:Rubik-Light;writing-mode:lr-tb;fill:#000000;fill-opacity:1;fill-rule:nonzero;stroke:none"
       id="text176"><tspan
         x="0 13.06 18.219999 32.220001 42.32 54.599998 59.759998 70.339996 80.279999 91.120003 102.04 113.66 128.64 140.16 151.08 163 168.16 180.08 185.24001 196.75999 207.67999 219.60001 230.32001 240.25999 251.10001 261.67999 272.60001 282.54001 287.70001 299.98001 311.14001 322.66 333.57999 343.70001 354.42001 359.57999 371.10001 382.01999 393.23999 404.39999 415.23999 426.39999 438.32001 443.48001 454.20001 464.14001 476.06 486.17999 498.10001 502.84"
         y="0"
         id="tspan144">В ПГК утвержден и действует Кодекс деловой этики, </tspan><tspan
         x="0 11.16 21.1 32.720001 43.439999 58.419998 69.139999 84.400002 100.3 112.22 124.14 129.3 140.82001 152.44 164.36 176.28 186.66 196.60001 209.78 220.7 225.86 236.7 241.86 255.86 265.95999 278.23999 283.39999 294.12 304.06 314.78 326.70001 338.22 348.94 360.56 370.5 383.67999 388.84 400.35999 411.51999 422.35999 433.28 444.79999 455.72 467.64001 479.56 489.94 494.67999"
         y="26"
         id="tspan146">отражающий принятые в ПГК стандарты поведения, </tspan><tspan
         x="0 8.3599997 19.08 30.700001 41.419998 53.34 63.279999 75.199997 86.82 97.400002 112.66 128.56 140.48 151.39999 156.56 167.10001 178.02 188.74001 198.67999 210.60001 221.75999 232.67999 237.84 249.75999 254.92 265.64001 277.16 288.78 299.5 310.34 321.26001 332.78 344 355.92001 366.76001 377.92001 388.84 394 405.16 415.10001 427.01999 438.17999 453.56 464.48001 476.39999 488.32001 499.23999"
         y="52"
         id="tspan148">гарантирующие честное и справедливое отношение </tspan><tspan
         x="0 10.12 15.28 25.82 37.040001 47.959999 59.880001 70.599998 83.879997 89.040001 99.160004 110.32 123.6 134.32001 146.24001 157.75999 170.94 175.67999 180.84 190.96001 202.17999 214.10001 225.02 236.94 246.88 257.60001 270.88 276.04001 287.95999 293.12 304.64001 315.35999 326.98001 336.92001 348.84 359.76001 371.38 382.10001 395.38"
         y="78"
         id="tspan150">к членам команды, клиентам и партнерам.</tspan><tspan
         x="0 14 25.16 36.68 48.200001 59.119999 70.739998 85.720001 97.639999 108.48 119.2 129.58 134.74001 146.25999 157.88 169.8 181.72 193.74001 205.66 217.17999 230.36 235.52 247.58 260.57999 272.5 282.44 294.35999 304.48001 315.64001 327.26001 338.88 349.45999 360.98001 373 384.92001 396.07999 408 419.92001 431.07999 443"
         y="104"
         id="tspan152">Поддерживая принципы «Антикоррупционной </tspan><tspan
         x="0 10.36 21.08 32.700001 42.639999 54.560001 66.480003 71.639999 83.260002 94.419998 105.14 115.86 127.78 139.7 150.42 160.53999 171.7 180.06 191.22 196.38 207.72 219.64 229.48 241.39999 252.32001 263.04001 273.76001 285.82001 290.56 295.72 309.72 319.82001 332.10001 337.26001 347.10001 357.82001 368.20001 379.04001 390.26001 400.64001 411.56 421.5"
         y="130"
         id="tspan154">хартии российского бизнеса», ПГК заявляет </tspan><tspan
         x="0 11.16 16.32 28.24 39.16 49.099998 60.02 71.639999 83.160004 95.080002 108.36 119.52 130.24001 140.17999 152.10001 157.25999 167.38 172.53999 183.75999 199.02 210.36 223.53999 236.82001 241.98 253.5 265.12 276.28 286.66 297.5 308.72 319.64001 331.56 343.48001 353.85999 367.14001 372.29999 382.42001 393.57999 405.20001 416.82001 427.39999 438.92001 450.94 462.85999 474.78 479.51999"
         y="156"
         id="tspan156">о нетерпимости к любым проявлениям коррупции, </tspan><tspan
         x="0 10.36 22.280001 38.18 49.099998 61.02 72.940002 84.860001 90.019997 101.94 107.1 119.02 130.94 144.12 154.48 159.64 169.48 180.7 191.86 202.44 213.96001 225.12 235.06 246.67999 257.60001 268.94 280.16 291.07999 303 314.92001 326.84 331.60001 336.76001 350.28 361.5 371.88 377.04001 388.56 399.72 411.23999 422.76001 433.67999 445.29999 460.28 471 482.92001 494.84 505.22"
         y="182"
         id="tspan158">хищений и иных злоупотреблений. Для поддержания </tspan><tspan
         x="0 9.8400002 20.559999 30.940001 41.779999 53 63.919998 75.839996 87.760002 100.94 111.3 116.46 127.98 139.60001 151.52 163.44 175.46001 187.38 198.89999 210.06 220.89999 226.06 236.89999 242.06 254.34 265.5 278.78 290.29999 301.01999 312.94 324.85999 336.78 341.94 352.51999 362.45999 373.29999 384.22 395.84 410.82001 422.34 433.26001 445.17999 458.35999"
         y="208"
         id="tspan160">заявленных принципов в Компании утверждены </tspan><tspan
         x="0 14 25.16 36.380001 47.540001 62.52 73.440002 85.360001 97.279999 107.66 112.82 123.98 135.32001 140.48 151.2 163.12 173.06 184.98 195.10001 206.25999 217.88 229.5 240.08 251.60001 263.62 275.54001 286.70001 298.62 310.54001 321.70001 333.62 338.78 350.29999 361.45999 372.67999 384.60001 394.54001 406.45999 416.57999 427.5"
         y="234"
         id="tspan162">Положения об антикоррупционной политике </tspan><tspan
         x="0 11.92 17.08 27.200001 38.360001 50.279999 63.860001 75.080002 87 97.120003 107.06 117.98 123.14 135.06 146.98 156.92 167.84 179.46001 190.38 201.10001 212.25999 223.10001 227.84 233 244.62 255.53999 263.89999 274.48001 285.70001 296.07999 307.70001 319.62 330.78 335.94 347.45999 359.07999 370.23999 381.07999 392.23999 403.76001 415.67999 425.62 436.34 446.72"
         y="260"
         id="tspan164">и конфликте интересов, регулярно проводится </tspan><tspan
         x="0 11.16 22.5 33.080002 43.619999 54.540001 66.459999 78.379997 89.300003 94.459999 106.08 116.8 128.14 139.3 149.24001 161.16 173.08 183.2 194.36 205.2 210.36 221.88 233.03999 238.2 249.03999 260.20001 271.72 283.34 294.5 305.22 315.94 329.22 334.38 345.89999 357.51999 368.67999 378.62 390.54001 401.38 412.54001 424.06 434.98001 446.89999 457.62 467.56 478.39999 490.32001 500.70001"
         y="286"
         id="tspan166">обучение работников по вопросам противодействия </tspan><tspan
         x="0 10.12 21.280001 32.900002 44.52 55.099998 66.620003 78.639999 90.559998 102.48 107.64 119.56 124.72 136.24001 147.86 158.78 170.3 181.46001 191.39999 202.24001 213.86 224.58 240.48 251.39999 263.32001 275.23999 290.5 295.66 305.78 316.94 328.85999 342.44 353.66 365.57999 375.70001 385.64001 396.35999 401.51999 413.44 425.35999 435.29999 446.22 457.84 468.76001 479.48001 490.64001 501.48001 506.22"
         y="312"
         id="tspan168">коррупции и предотвращению конфликта интересов, </tspan><tspan
         x="0 11.16 22.780001 31.139999 41.860001 53.779999 65.699997 75.540001 86.699997 97.540001 108.26 120.18 133.36 138.52 148.64 160.25999 170.84 179.2 190.42 201.58 212.3 222.88 232.82001 243.98 254.52 266.44 279.62 290.54001 295.70001 307.22 317.79999 329.72 339.84 349.78 362.95999 368.12 379.64001 390.79999 401.64001 412.56 424.17999 436.10001 446.48001"
         y="338"
         id="tspan170">организованы круглосуточные пункты доверия </tspan><tspan
         x="0 11.52 22.68 27.84 39.18 50.34 61.959999 71.480003 82.82 93.739998 98.900002 109.62 114.78 124.9 136.06 147.67999 159.3 169.88 181.39999 193.42 205.34 216.25999 228.17999 232.92 238.08 248.8 253.96001 263.89999 274.62 284.73999 299.72 310.64001 315.79999 326.51999 337.67999 347.51999 359.04001 369.76001 381.67999 386.84 400.12 411.04001 421.76001 432.48001 443.39999 455.32001 466.84 481.82001 492.73999 504.35999"
         y="364"
         id="tspan172">по борьбе с коррупцией, а также создан мессенджер </tspan><tspan
         x="0 12.06 26.059999 36.16 48.439999 53.599998 65.120003 76.739998 87.900002 97.839996 109.76 120.6 125.76 135.88 147.03999 158.66 170.28 180.86 192.38 204.39999 216.32001 228.24001 240.3"
         y="390"
         id="tspan174">«ПГК против коррупции».</tspan></text><text
       transform="matrix(1,0,0,-1,693,181.3)"
       style="font-variant:normal;font-weight:normal;font-stretch:normal;font-size:20px;font-family:'Prosto One';-inkscape-font-specification:ProstoOne-Regular;writing-mode:lr-tb;fill:#fdb73e;fill-opacity:1;fill-rule:nonzero;stroke:none"
       id="text180"><tspan
         x="0 8"
         y="0"
         id="tspan178">10</tspan></text><text
       transform="matrix(1,0,0,-1,721.98,181.3)"
       style="font-variant:normal;font-weight:500;font-stretch:normal;font-size:20px;font-family:'Rubik Medium';-inkscape-font-specification:Rubik-Medium;writing-mode:lr-tb;fill:#000000;fill-opacity:1;fill-rule:nonzero;stroke:none"
       id="text186"><tspan
         x="0 13.32 28.559999 43.799999 55.34 66.760002 77.360001 89.82 101.48 113.94 125.78 137.32001 141.89999 153.3 165.52 177.8 189.22 200.88 212.94 224.48 236.94 249.39999 260.94 265.51999 277.98001 282.56 293.98001 305.82001 318.28 328.88 341.16 353 365.06 375.66"
         y="0"
         id="tspan182">Эффективное управление и контроль </tspan><tspan
         x="-28.98 -16.42 -4.8800001 6.5999999 17.200001 28.74 40.799999 51.400002 63.860001 75.699997 87.120003 97.720001 110.18 114.76 127.32 139.16 150.72 162.25999 174.53999 187 199.46001 210.74001 215.32001 227.16 239.10001 255.78 267.32001 278.73999 289.34 301"
         y="26"
         id="tspan184">деятельности дочерних обществ.</tspan></text><text
       transform="matrix(1,0,0,-1,693,129.3)"
       style="font-variant:normal;font-weight:300;font-stretch:normal;font-size:20px;font-family:'Rubik Light';-inkscape-font-specification:Rubik-Light;writing-mode:lr-tb;fill:#000000;fill-opacity:1;fill-rule:nonzero;stroke:none"
       id="text202"><tspan
         x="0 11.26 21.200001 32.040001 42.959999 54.580002 69.559998 81.080002 92 103.92 109.08 121 132.16 143 156.17999 168.10001 173.25999 184.78 195.94 207.56 217.94 229.46001 240.62 250.74001 255.89999 266.73999 276.57999 287.29999 299.22 312.5 323.66 335.17999 346.10001 358.01999 368.73999 378.67999 389.51999 401.44 411.82001 416.98001 430.98001 441.07999 453.35999"
         y="0"
         id="tspan188">Утвержден новый порядок взаимодействия ПГК </tspan><tspan
         x="0 10.72 21.879999 27.040001 37.759998 48.599998 59.759998 71.68 84.959999 96.879997 102.04 113.56 124.72 135.25999 146.17999 157.8 169.72 181.64 194.92 206.84 212 223.16 234.5 250.39999 261.32001 272.04001 281.98001 292.82001 303.54001 316.82001 328.73999 333.5 338.66 353.17999 363.01999 376.29999 387.22 399.14001 410.06 421.98001 433.89999 444.62 455"
         y="26"
         id="tspan190">со своими дочерними обществами. Измененная </tspan><tspan
         x="594 604.71997 614.65997 626.28003 636.85999 646.97998 656.91998 667.5 679.12 689.84003 695 705.58002 717.09998 728.71997 739.44 750.28003 761.5 772.41998 784.34003 796.26001 806.64001 811.79999 822.64001 832.76001 843.97998 859.23999 869.78003 880.5 891.41998 901.35999 906.52002 918.44 929.15997 939 950.91998 961.64001 972.17999 983.09998 995.02002 1006.94 1017.86 1023.02 1033.14 1043.72 1055.34 1066.0601 1076 1087.16 1098.78 1109.9399 1120.78"
         y="-832"
         id="tspan192">структура управления включает назначение кураторов </tspan><tspan
         x="594 605.91998 615.76001 620.91998 631.46002 643.38 654.09998 665.32001 676.03998 681.20001 692.71997 704.34003 715.5 729.08002 741 752.21997 761.73999 773.65997 786.84003 797.20001 802.35999 812.29999 823.46002 834.97998 844.71997 858 868.91998 880.84003 891.76001 903.28003 918.26001 929.17999 940.79999 951.96002 962.79999 967.53998 972.70001 982.82001 993.97998 1003.92 1015.08 1026.7 1039.88 1050.8"
         y="-806"
         id="tspan194">из числа профильных топ-менеджеров, которые </tspan><tspan
         x="594 605.15997 615.09998 625.94 636.85999 647.40002 658.12 673.38 683.32001 688.47998 698.32001 709.03998 714.20001 725.82001 736.73999 747.46002 758.67999 770.59998 780.44 791.15997 803.17999 815.09998 830.35999 835.52002 846.23999 856.17999 867.79999 878.52002 888.46002 899.38 907.73999 919.65997 930.20001 941.12 951.84003 961.96002 973.88 984.23999 989.40002 1000.92 1012.14 1022.86 1034.78 1045.9399 1056.78"
         y="-780"
         id="tspan196">отвечают за реализацию стратегических планов </tspan><tspan
         x="594 605.91998 611.08002 624.65997 636.58002 648.5 659.21997 671.14001 681.85999 693.02002 703.85999 717.03998 727.96002 733.12 744.64001 755.79999 765.91998 776.64001 786.47998 797.20001 807.14001 818.06 829.28003 841.20001 846.35999 857.88 868.79999 879.17999 889.12 900.03998 911.26001 920.78003 932.70001 943.85999 954.58002 964.52002 976.44 981.59998 991.71997 1002.3 1013.92 1025.84 1037.46 1048.04 1058.96 1072.24 1085.42 1095.78"
         y="-754"
         id="tspan198">и финансовые показатели деятельности курируемых </tspan><tspan
         x="594 605.91998 619.20001 631.12 636.28003 647.79999 658.96002 669.5 680.41998 692.03998 703.96002 715.88 726.23999 731.40002 741.52002 752.67999 765.96002 777.47998 788.20001 800.12 812.03998 823.96002"
         y="-728"
         id="tspan200">ими дочерних компаний.</tspan></text><text
       transform="matrix(1,0,0,-1,1287,304)"
       style="font-variant:normal;font-weight:500;font-stretch:normal;font-size:28px;font-family:'Rubik Medium';-inkscape-font-specification:Rubik-Medium;writing-mode:lr-tb;fill:#000000;fill-opacity:1;fill-rule:nonzero;stroke:none"
       id="text218"><tspan
         x="0 19.152 35.728001 42.139999 58.464001 74.452003 90.608002 110.292 127.736 134.14799 151.73199 168.308 184.29601 200.256 219.94 236.09599 253.53999 268.38 284.36801 304.052 321.496 328.888"
         y="0"
         id="tspan204">Со всеми документами, </tspan><tspan
         x="0 17.191999 33.348 45.807999 62.692001 78.68 98.363998 114.52 131.964 146.804 164.248 181.44 197.39999 220.752 244.104 261.548 281.23199 298.67599 305.08801 322.53201 338.51999 355.62799 372.82001 388.80801 405.13199 422.01599 438.172 455.616 473.06 489.13199"
         y="33.992001"
         id="tspan206">регламентирующими направления </tspan><tspan
         x="0 17.444 23.856001 40.431999 56.419998 73.863998 90.440002 106.764 124.208 145.62801 161.784 168.196 185.304 202.496 219.94 237.384 255.22 272.664 289.772 311.19199"
         y="67.984001"
         id="tspan208">и основные принципы </tspan><tspan
         x="0 15.988 32.563999 49.756001 66.863998 83.440002 100.632 116.62 131.46001 148.90401 165.228 182.672 199.248 211.70799 228.284 234.696 250.65601 267.76401 284.95599 300.944 317.26801 334.15201 350.30801 367.75201 385.19601 401.26801 408.66"
         y="101.976"
         id="tspan210">корпоративного управления, </tspan><tspan
         x="0 19.684 36.259998 60.228001 77.671997 94.248001 100.66 117.236 132.216 149.66 165.64799 181.636 198.21201 217.896 235.34 250.17999 265.01999 281.008 297.07999 303.492 319.81601 326.228 342.216 358.54001 375.116 391.832 408.40799 425.992 443.436 460.01199 479.69601"
         y="135.968"
         id="tspan212">можно ознакомиться в свободном </tspan><tspan
         x="0 17.584 34.16 50.147999 64.987999 80.947998 98.056 114.212 120.624 138.06799 154.056 160.468 177.04401 198.38 215.82401 233.66 251.104 267.09201 283.97601 298.81601 316.26001 332.836 352.51999 358.93201 374.92001 390.90799 408.35199 423.19199 439.34799"
         y="169.96001"
         id="tspan214">доступе на официальном сайте </tspan><tspan
         x="0 20.412001 35.616001 54.375999 60.787998 77.112 83.524002 100.716 116.704 131.68401 149.26801 165.424 182.308 198.464 204.87601 222.09599 243.37601 260.82001 277.14401 293.29999 309.28799 324.12799 340.70401 357.896 373.884 393.56799 410.78799"
         y="203.952"
         id="tspan216">ПГК в разделе «Инвесторам».</tspan></text><g
       id="g220"
       transform="translate(221.1209,984)"><path
         d="M 0,0 -9.121,-10.047 0,-20.094 H 27.879 V -10.047 0 Z"
         style="fill:#f0f0f5;fill-opacity:1;fill-rule:nonzero;stroke:none"
         id="path222" /></g><text
       transform="matrix(1,0,0,-1,99,968.3599)"
       style="font-variant:normal;font-weight:300;font-stretch:normal;font-size:16px;font-family:'Rubik Light';-inkscape-font-specification:Rubik-Light;writing-mode:lr-tb;fill:#000000;fill-opacity:1;fill-rule:nonzero;stroke:none"
       id="text226"><tspan
         x="0 11.2 19.775999 28.208 36.784 45.759998 54.688 58.816002 68.351997 76.928001 81.056 89.632004 97.584 106.88 110.688"
         y="0"
         id="tspan224">Начало на стр. </tspan></text><text
       transform="matrix(1,0,0,-1,222.072,968.3599)"
       style="font-variant:normal;font-weight:500;font-stretch:normal;font-size:16px;font-family:'Rubik Medium';-inkscape-font-specification:Rubik-Medium;writing-mode:lr-tb;fill:#000000;fill-opacity:1;fill-rule:nonzero;stroke:none"
       id="text230"><tspan
         x="0 9.9200001"
         y="0"
         id="tspan228">54</tspan></text><text
       transform="matrix(1,0,0,-1,38.0602,1023)"
       style="font-variant:normal;font-weight:300;font-stretch:normal;font-size:20px;font-family:'Rubik Light';-inkscape-font-specification:Rubik-Light;writing-mode:lr-tb;fill:#000000;fill-opacity:1;fill-rule:nonzero;stroke:none"
       id="text234"><tspan
         x="0 11.44"
         y="0"
         id="tspan232">55</tspan></text><text
       transform="matrix(1,0,0,-1,99.0002,1023)"
       style="font-variant:normal;font-weight:300;font-stretch:normal;font-size:20px;font-family:'Rubik Light';-inkscape-font-specification:Rubik-Light;writing-mode:lr-tb;fill:#000000;fill-opacity:1;fill-rule:nonzero;stroke:none"
       id="text238"><tspan
         x="0 12.28 23.440001 35.060001 46.580002 57.740002 69.360001 80.080002 90.019997 101.94 112.78 124.7 135.86 146.78 151.94 162.52 174.03999 185.66 196.38 207.22 218.44 229.36 241.28 253.2"
         y="0"
         id="tspan236">Корпоративное управление</tspan></text></g></svg>
