<?xml version="1.0" encoding="UTF-8" standalone="no"?>
<?xml-stylesheet type="text/css" href="main.css" ?>
<svg
   xmlns:dc="http://purl.org/dc/elements/1.1/"
   xmlns:cc="http://creativecommons.org/ns#"
   xmlns:rdf="http://www.w3.org/1999/02/22-rdf-syntax-ns#"
   xmlns:svg="http://www.w3.org/2000/svg"
   xmlns="http://www.w3.org/2000/svg"
   version="1.1"
   id="svg2"
   xml:space="preserve"
   width="2560"
   height="1440"
   viewBox="0 0 2560 1440"><metadata
     id="metadata8"><rdf:RDF><cc:Work
         rdf:about=""><dc:format>image/svg+xml</dc:format><dc:type
           rdf:resource="http://purl.org/dc/dcmitype/StillImage" /></cc:Work></rdf:RDF></metadata><defs
     id="defs6"><clipPath
       clipPathUnits="userSpaceOnUse"
       id="clipPath20"><path
         d="M 0,1080 H 1920 V 0 H 0 Z"
         id="path18" /></clipPath><clipPath
       clipPathUnits="userSpaceOnUse"
       id="clipPath172"><path
         d="M 0,1080 H 1920 V 0 H 0 Z"
         id="path170" /></clipPath></defs><g
     id="g10"
     transform="matrix(1.3333333,0,0,-1.3333333,0,1440)"><g
       id="g12"><g
         id="g14"><g
           id="g16"
           clip-path="url(#clipPath20)"><path
             d="M 0,0 H 1920 V 1080 H 0 Z"
             style="fill:#ffffff;fill-opacity:1;fill-rule:nonzero;stroke:none"
             id="path22" /></g></g></g><path
       d="M 0,0 H 633 V 1080 H 0 Z"
       style="fill:#e8e8ed;fill-opacity:1;fill-rule:nonzero;stroke:none"
       id="path24" /><text
       transform="matrix(1,0,0,-1,693,953.8201)"
       style="font-variant:normal;font-weight:500;font-stretch:normal;font-size:28px;font-family:'Rubik Medium';-inkscape-font-specification:Rubik-Medium;writing-mode:lr-tb;fill:#000000;fill-opacity:1;fill-rule:nonzero;stroke:none"
       id="text34"><tspan
         x="0 19.459999 34.327999 50.540001 66.723999 81.592003 87.975998 104.58 110.964 128.15601 144.172 160.916 177.52 192.388 208.57201 214.95599 234.416 251.16 274.4812 290.66519 302.90121 319.50519 325.88919 341.90521 358.50919 375.2532 392.44519 408.46121 425.9332 443.40521 459.5332"
         y="0"
         id="tspan26">Отчет о работе Общего собрания </tspan><tspan
         x="0 16.016001 32.060001 49.924 67.396004 84 101.472 117.656 134.84801 151.452 167.832 174.216 190.59599 196.98 214.34 232.79201 250.15199 268.604 274.98801 287.22119 303.8252 321.43719"
         y="33.992001"
         id="tspan28">акционеров в 2020 году</tspan><tspan
         x="-593.992 -574.53198 -557.78802 -534.46399 -518.28003 -502.09601 -495.71201 -479.69601 -463.09201 -446.34799 -429.15601 -413.14001 -395.668 -378.19601 -362.01199"
         y="0"
         id="tspan30">Общее собрание </tspan><tspan
         x="-593.992 -577.97601 -561.93201 -544.06799 -526.59601 -509.992 -492.51999 -476.336 -459.14401 -442.54001"
         y="33.992001"
         id="tspan32">акционеров</tspan></text><text
       transform="matrix(1,0,0,-1,99,867.8201)"
       style="font-variant:normal;font-weight:300;font-stretch:normal;font-size:20px;font-family:'Rubik Light';-inkscape-font-specification:Rubik-Light;writing-mode:lr-tb;fill:#000000;fill-opacity:1;fill-rule:nonzero;stroke:none"
       id="text162"><tspan
         x="0 12.56 23.48 38.860001 49.779999 61.700001 73.620003 84.540001 89.699997 101.62 112.34 124.26 135.60001 146.558 157.778 168.698 179.618 184.778 195.498 206.078 221.978 232.89799 243.618 253.558 264.39801 275.31799 287.23801 299.15799 312.33801 322.698"
         y="0"
         id="tspan36">Решение наиболее существенных </tspan><tspan
         x="0 11.52 22.74 33.119999 38.279999 49.799999 60.720001 71.099998 81.040001 91.877998 103.098 112.618 124.538 135.698 146.418 156.358 168.278 173.438 185.118 196.278 209.558 221.078 231.798 243.718 255.638 267.55801 272.71799 283.55801 294.71799 306.23801 317.858 329.01801 339.73801 350.89801 361.73801"
         y="26"
         id="tspan38">для деятельности Компании вопросов </tspan><tspan
         x="0 11.52 23.139999 35.060001 46.98 58.900002 72.18 82.900002 93.82 103.76 114.48 124.86 130.02 140.74001 150.86 162.88 174.8 185.96001 197.88 208.8 220.42 231.14 244.42 256.34 261.5 266.936 277.85599 289.37601 301.29599 313.216 323.936 333.87601 344.716 355.63599 367.556 379.47601 392.65601 405.936"
         y="52"
         id="tspan40">принимается акционерами (единственным </tspan><tspan
         x="0 10.72 20.84 32.860001 44.779999 55.939999 67.860001 78.779999 90.400002 101.56 114.04 120.42 125.58 139.58 149.67999 161.96001"
         y="78"
         id="tspan42">акционером) ПГК.</tspan><tspan
         x="0 13.02 24.24 35.16 46.68 57.259998 67.639999 72.800003 84.019997 94.599998 105.14 120.52 131.44 143.36 148.52 160.03999 171.66 182.38 192.5 202.44 214.36 223.976 234.896 240.056 249.67599 260.836 272.45599 283.97601 295.13599 306.75601 317.47601 327.41599 339.336 350.17599 362.09601 373.25601 381.37601 392.53601"
         y="117"
         id="tspan44">Следуя лучшей практике корпоративного </tspan><tspan
         x="0 10.58 22.1 33.720001 44.439999 55.279999 66.5 77.419998 89.339996 101.26 111.64 116.8 128.32001 139.53999 149.92 155.08 166.60001 178.22 190.14 202.06 212.44 222.38 234.3 244.67999 249.84 260.56 270.67999 282.70001 294.62 305.78 317.70001 328.62 340.23999 350.95999 364.23999 376.16"
         y="143"
         id="tspan46">управления для принятия акционерами </tspan><tspan
         x="0 10.84 20.68 31.52 42.439999 57.82 68.739998 80.660004 92.580002 105.76 116.12 121.28 132.89999 143.82001 159.2 170.12 182.03999 193.96001 205.88 210.62 215.78 228.8 239.96001 250.8 261.72 271.66 276.82001 288.34 300.26001 311.88 322.79999 332.92001 342.85999 354.01999 365.64001 376.79999 387.64001"
         y="169"
         id="tspan48">взвешенных решений, Совет директоров </tspan><tspan
         x="0 11.68 22.84 36.119999 47.639999 58.360001 70.279999 82.199997 94.120003 99.279999 110.12 123.3 134.92 145.64 156.98 167.7 177.64 190.82001 201.66 212.38 223.3 233.24001 238.39999 249.92 261.14001 271.51999 276.67999 288.60001 300.51999 310.88"
         y="195"
         id="tspan50">Компании вырабатывает для них </tspan><tspan
         x="0 11.62 22.540001 32.16 43.32 56.599998 67.519997 79.440002 90.959999 101.68 113.7 125.62 137.53999 142.7 154.22 165.38 170.53999 181.38 192.10001 203.02 216.3 221.46001 232.3 243.46001 254.98 266.60001 277.76001 288.48001 299.20001 312.48001 317.64001 329.16 340.32001 351.16 362.07999 372.79999 382.73999 392.85999 404.78"
         y="221"
         id="tspan52">рекомендации по всем вопросам повестки </tspan><tspan
         x="0 11.52 23.440001 33.82 38.560001 43.507999 55.028 66.648003 78.568001 89.407997 100.628 111.548 121.668 132.388 142.76801 147.716 159.23599 170.45599 180.836 185.784 197.12399 208.084 219.304 230.224 241.144 246.092 253.93401 265.15399 275.73401 287.07401 298.23401 307.85199 319.01199 330.93201 335.88199 347.40201 359.022 370.18201 381.802 392.522 403.862 415.022 424.96201 435.082 447.00201"
         y="247"
         id="tspan54">дня, привлекая для более глубокой проработки </tspan><tspan
         x="0 10.84 22 33.52 45.139999 56.299999 67.019997 78.18 89.019997 94.18 104.9 115.74 126.9 138.82001 143.98 155.5 167.12 178.28 191.86 203.78 215 224.52 236.44 249.62 260.54001 265.70001 277.37799 288.53799 301.81799 313.73801 323.67801 334.59799 344.53799 357.71799"
         y="273"
         id="tspan56">вопросов свои профильные Комитеты.</tspan><tspan
         x="0 13.02 26.6 37.52 49.139999 59.860001 65.019997 74.638 85.797997 99.078003 110.598 121.518 131.45799 142.37801 154.298 166.31799 178.23801 190.158 194.89799 200.058 211.578 222.73801 234.358 244.73801 256.258 267.418 277.53799 282.698 293.418 304.578 314.418 327.59799 338.43799 349.15799 353.89801"
         y="312"
         id="tspan58">Сфера компетенции, порядок созыва, </tspan><tspan
         x="0 11.52 23.139999 34.299999 45.139999 56.060001 67.580002 78.5 90.419998 102.34 112.72 117.88 129.8 134.96001 146.48 157.64 169.16 180 190.92 202.44 213.36 225.28 237.2 247.58 252.74001 264.66 274.60001 285.76001 293.87601 305.03601 315.87601 321.03601 334.276 345.616 361.51599 372.436 380.556 391.716"
         y="338"
         id="tspan60">проведения и подведения итогов Общего </tspan><tspan
         x="0 10.72 21.879999 33.220001 44.84 55.560001 67.480003 79.400002 89.779999 94.940002 105.66 115.78 127.8 139.72 150.88 162.8 173.72 185.34 196.5 207.34 212.5 223.66 235.17999 246.8 257.72 269.23999 280.078 291.298 301.67801 316.93799 326.87799 337.59799 347.978"
         y="364"
         id="tspan62">собрания акционеров определяются </tspan><tspan
         x="0 9.9799995 20.700001 30.639999 41.360001 52.200001 63.360001 76.639999 81.800003 93.720001 98.879997 112.88 123.838 135.058 146.218 161.198 172.118 184.03799 195.95799 206.87801 220.158 225.31799 236.478 241.638 253.158 264.31799 275.93799 286.31799 297.83801 307.45599 318.37601"
         y="390"
         id="tspan64">Уставом и Положением о порядке </tspan><tspan
         x="0 11.52 22.68 34.200001 42.32 53.48 63.419998 74.580002 85.419998 95.540001 107.46 112.62 124.54 129.7 141.22 152.84 164 174.84 185.75999 197.28 208.2 220.12 232.03999 242.42 247.58 260.82001 272.16 288.06 298.98001 307.09601 318.25601 323.41599 334.13599 345.29599 356.63599 368.25601 378.97601 390.896 402.81601 413.19601"
         y="416"
         id="tspan66">подготовки и проведения Общего собрания </tspan><tspan
         x="0 10.72 20.84 32.860001 44.779999 55.939999 67.860001 78.779999 90.400002 101.56 112.4 117.56 131.56 141.66 153.94"
         y="442"
         id="tspan68">акционеров ПГК.</tspan><tspan
         x="0 13.06 18.219999 29.42 41.740002 52.939999 65.260002 70.419998 78.540001 89.699997 101.22 111.8 116.96 127.68 137.8 149.82001 161.74001 172.89999 184.82001 195.74001 207.36 218.08 231.36 243.28 248.44 259.01999 268.95999 279.79999 290.72 302.34 317.32001 328.84 339.76001 351.67999 362.39999"
         y="481"
         id="tspan70">В 2020 году акционерами утверждена </tspan><tspan
         x="0 11.92 23.08 33.919998 44.639999 55.02 60.18 71.800003 82.720001 94.239998 104.96 115.08 127.1 139.02 149.39999 154.56 168.56 179.51801 190.73801 201.89799 216.87801 227.798 239.718 251.638 262.01801 267.17801 278.33801 283.49799 295.01801 306.17801 317.798 328.17801 339.698 349.31601 360.23599"
         y="507"
         id="tspan72">новая редакция Положения о порядке </tspan><tspan
         x="0 11.52 22.68 34.200001 42.32 53.48 63.419998 74.580002 85.419998 95.540001 107.46 112.62 124.54 129.7 141.22 152.84 164 174.84 185.75999 197.28 208.2 220.12 232.03999 242.42 247.58 260.82001 272.16 288.06 298.98001 307.09601 318.25601 323.41599 334.13599 345.29599 356.63599 368.25601 378.97601 390.896 402.81601 413.19601"
         y="533"
         id="tspan74">подготовки и проведения Общего собрания </tspan><tspan
         x="0 10.72 20.84 32.860001 44.779999 55.939999 67.860001 78.779999 90.400002 101.56 112.4 117.56 131.56 141.66 153.94"
         y="559"
         id="tspan76">акционеров ПГК.</tspan><tspan
         x="594 607.02002 612.17999 623.38 635.70001 643.65997 655.09998 660.26001 668.38 679.53998 691.06 701.78003 706.94 717.78003 728.5 739.41998 744.58002 752.698 763.65802 774.87799 786.03802 796.758 807.33801 822.59802 838.49799 850.41803 861.33801 866.49799 877.21802 887.33801 899.35797 911.27802 923.198 928.35797 940.03601 951.19598 964.47601 975.99597 986.716 998.63599 1010.556 1022.476"
         y="6.6999998"
         id="tspan78">С 2019 года все голосующие акции Компании </tspan><tspan
         x="594 605.52002 617.14001 629.06 640.97998 651.70001 663.21997 674.44 685.35999 700.34003 711.06 721 726.15997 737.08002 748.59998 760.52002 772.44 783.15997 793.09998 803.94 814.85999 826.78003 838.70001 849.85999 863.14001 873.71997 878.88 889.59998 899.71997 911.73999 923.65997 934.82001 946.73999 957.65997 968.896 979.47601 984.63599 999.97601"
         y="32.700001"
         id="tspan80">принадлежат единственному акционеру — </tspan><tspan
         x="594 605.40002 616.35999 628.20001 639 652.02002 666.02002 677.85999 690.65997 695.82001 709.09998 721.90002 735.14001 748.96002 761.05798 766.21802 780.21802 793.45801 804.41803 817.95801 822.97803 836.65802 849.93799 862.03802 867.198 878.15802 883.17798 898.77802 903.79797 914.93799 926.77802 939.93597 944.69598 949.85602 962.91602 968.07599 978.79602 989.95599 1001.116 1011.056 1021.896 1032.816 1042.756 1053.476 1063.416 1074.256 1086.176 1098.0959"
         y="58.700001"
         id="tspan82">FLETCHER GROUP HOLDINGS LIMITED. В соответствии </tspan><tspan
         x="594 604.71997 609.88 626.38 637.29999 648.82001 659.73999 671.35999 682.08002 693.29999 702.82001 714.73999 727.91998 741.20001 746.35999 756.20001 766.91998 776.53802 787.698 799.61798 810.77802 824.05798 829.21802 841.27802 854.51801 865.85797 871.01801 881.73798 891.85797 903.87799 915.79797 926.95801 938.87799 949.79797 961.41803 973.33801 986.51801 996.87799 1002.038 1013.198 1024.538 1040.438 1051.358 1062.078 1072.0179 1082.858 1093.578 1103.938 1115.998"
         y="84.699997"
         id="tspan84">с Федеральным законом «Об акционерных обществах» </tspan><tspan
         x="594 605.62 616.53998 631.91998 642.84003 654.76001 666.67999 677.06 682.21997 693.14001 704.65997 716.58002 728.5 739.21997 749.15997 760 770.91998 782.84003 794.76001 805.91998 814.03802 825.198 830.35797 841.078 851.198 863.21802 875.138 886.29797 898.21802 909.138 920.758 931.47803 936.638 948.15802 959.77802 971.698 983.61798 995.53802 1008.818 1019.538 1034.798 1044.738 1055.458 1065.838 1070.998 1081.718 1091.658 1103.578 1116.858"
         y="110.7"
         id="tspan86">решения единственного акционера принимаются этим </tspan><tspan
         x="594 604.71997 614.84003 626.85999 638.78003 649.94 661.85999 672.78003 684.40002 695.56 708.84003 714 724.91998 736.44 748.35999 760.28003 771.23798 782.45801 794.37799 804.91803 816.83801 827.99799 833.15802 845.078 850.23798 861.39801 874.97803 886.138 897.758 911.03802 922.258 932.638 947.89801 957.83801 968.55798 978.93799 984.09802 995.61798 1007.538 1018.258 1027.778 1041.058 1051.978 1063.8979 1075.818 1086.734"
         y="136.7"
         id="tspan88">акционером единолично и оформляются письменно.</tspan><tspan
         x="594 607.06 612.21997 623.41998 635.73999 646.94 659.26001 664.41998 672.53998 683.70001 695.21997 705.79999 710.96002 721.67999 731.79999 743.82001 755.73999 766.90002 778.82001 789.73999 801.35999 812.52002 825.79999 830.96002 842.638 853.79797 867.078 878.59802 889.31799 901.23798 913.15802 925.078 930.23798 941.758 953.37799 965.29797 977.21802 987.59802 997.53802 1002.698 1014.318 1024.698 1036.218"
         y="175.7"
         id="tspan90">В 2020 году акционером Компании принят ряд </tspan><tspan
         x="594 604.12 615.34003 630.59998 641.14001 652.06 662.90002 676.08002 686.44 691.59998 703.21997 714.14001 729.52002 740.44 752.35999 764.28003 776.20001 780.94 786.09998 797.62 808.34003 819.17999 834.56 846.47998 856.84003 862 873.91998 885.08002 895.91998 909.09998 921.02002 926.17999 938.09998 951.38 962.90002 972.896 984.11603 993.63599 1004.356"
         y="201.7"
         id="tspan92">ключевых решений, давших новый импульс </tspan><tspan
         x="594 604.12 609.28003 620.79999 631.96002 642.79999 655.97998 671.35999 682.28003 694.20001 706.12 721.38 726.53998 737.26001 747.20001 757.91998 769.84003 781.35999 792.08002 803.70001 813.64001 824.79999 835.64001 840.79999 850.41803 861.578 873.198 884.71802 895.87799 907.49799 918.21802 928.15802 940.078 950.91803 962.83801 973.99799 982.11603 993.276 998.43597 1009.016 1020.536 1032.156 1042.876 1053.7159 1064.936 1075.856 1087.776 1099.696 1110.076"
         y="227.7"
         id="tspan94">к повышению стандартов корпоративного управления </tspan><tspan
         x="594 605.91998 611.08002 622.59998 633.32001 644.53998 654.06 665.97998 676.90002 688.82001 704.20001 715.12 728.40002 738.97998 744.14001 755.76001 766.47998 776.32001 787.15997 799.08002 809.02002 820.94 836.20001 841.35999 852.08002 864 874.71997 884.65997 895.58002 908.85999 922.03998 927.20001 936.81598 947.97601 959.59601 971.11603 982.276 993.896 1004.616 1014.556 1026.476 1037.316 1049.236 1060.396 1068.514 1079.674"
         y="253.7"
         id="tspan96">и дальнейшему развитию системы корпоративного </tspan><tspan
         x="594 604.58002 616.09998 627.71997 638.44 649.28003 660.5 671.41998 683.34003 695.26001 705.64001 710.79999 721.64001 726.79999 740.79999 750.90002 763.17999"
         y="279.70001"
         id="tspan98">управления в ПГК:</tspan><tspan
         x="594 601.59998 612 623.26001 633.20001 644.03998 654.96002 666.58002 681.56 693.08002 704 715.91998 721.08002 731.05798 741.77802 751.71802 762.43799 773.27802 778.43799 792.43799 802.53802 814.81799 819.97803 830.81799 835.97803 847.59802 858.51801 870.03802 880.758 890.87799 902.89801 914.81799 926.73798 931.89801 954.47803 956.97998 965.34003 970.08002"
         y="318.70001"
         id="tspan100">• Утвержден Устав ПГК в редакции № 7, </tspan><tspan
         x="612 622.71997 633.88 645.03998 654.97998 665.82001 676.73999 686.67999 697.40002 707.34003 718.17999 728.76001 744.02002 759.91998 771.84003 783.76001 788.91998 798.85999 810.47998 821.40002 832.73999 843.90002 854.73999 865.46002 877.38 889.29999 899.67999 912.96002 917.70001 922.85999 934.38 946 956.91998 968.44 978.67603 989.396 1002.676 1013.836 1023.776 1035.396 1046.316 1058.236 1070.156 1083.3361 1096.616"
         y="344.70001"
         id="tspan102">соответствующий требованиям, предусмотренным </tspan><tspan
         x="612 623.52002 634.73999 645.12 650.28003 661.79999 672.38 683.71997 694.94 706.85999 717.40002 729.32001 742.5 752.85999 758.02002 769.17999 780.52002 796.41998 807.34003 818.06 828 838.84003"
         y="370.70001"
         id="tspan104">для публичных обществ.</tspan><tspan
         x="594 601.59998 612 623.26001 633.20001 644.03998 654.96002 666.58002 681.56 693.08002 704 715.91998 721.08002 731.05798 741.77802 751.71802 762.43799 773.27802 778.43799 792.43799 802.53802 814.81799 819.97803 830.81799 835.97803 847.59802 858.51801 870.03802 880.758 890.87799 902.89801 914.81799 926.73798 931.89801 954.47803 956.97998 969.09998 973.84003 979 990.52002 1001.68 1012.4 1023.62 1034.54"
         y="409.70001"
         id="tspan106">• Утвержден Устав ПГК в редакции № 8, после </tspan><tspan
         x="612 623.62 634.53998 642.90002 654.82001 665.53998 675.47998 687.09998 697.82001 709.84003 721.76001 733.67999 738.84003 748.45801 759.61798 769.55798 780.71802 792.33801 803.49799 811.61798 822.77802 827.93799 835.89801 847.41803 851.79797 864.11798 875.33801 880.09802 891.29797 903.61798 914.81799 927.138 932.29797 946.29797 956.39801 968.67798 973.83801 985.35797 996.97803 1008.898 1020.058 1031.3979 1043.0179 1053.856 1065.076 1075.796"
         y="435.70001"
         id="tspan108">регистрации которого 14.05.2020 ПГК приобрела </tspan><tspan
         x="612 622.71997 632.65997 643.38 653.32001 663.56 674.28003 679.44 693.44 704.02002 715.35999 726.58002 738.5 749.03998 760.96002 772.12 780.23798 791.39801 796.55798 807.27802 817.39801 829.41803 841.33801 852.49799 864.41803 875.33801 886.95801 898.87799 910.03802 918.15802 929.31799 934.47803 945.638 956.97803 972.87799 983.79797 994.51801 1004.458 1015.298 1026.0179"
         y="461.70001"
         id="tspan110">статус Публичного акционерного общества.</tspan><tspan
         x="594 601.59998 612 623.26001 633.20001 644.03998 654.96002 666.58002 681.56 693.08002 704 715.91998 729.09998 734.26001 746.17999 757.34003 768.17999 781.35999 792.28003 797.44 809.06 819.97998 831.5 842.21997 852.34003 864.35999 876.28003 888.20001 893.35999 904.20001 916.12 926.70001 936.64001 948.26001 959.17999 971.09998 983.02002 994.94 1005.3 1010.46 1021.98 1033.14 1043.26 1053.84 1067.12 1078.04 1089.96 1099.9 1111.0601 1121.9 1126.64"
         y="500.70001"
         id="tspan112">• Утверждены новые редакции внутренних документов, </tspan><tspan
         x="612 623.62 634.53998 642.90002 652.90002 664.12 676.03998 687.28003 697.85999 713.12 729.02002 740.94 751.29999 756.46002 767.97998 778.90002 789.28003 799.21997 810.05798 821.27802 830.79797 842.71802 853.87799 864.59802 874.53802 884.05798 889.21802 900.37799 911.99799 920.35797 931.078 942.99799 954.15802 964.99799 970.15802 980.73798 992.258 1003.878 1014.598 1025.438 1036.658 1047.578 1059.498 1071.418 1081.798"
         y="526.70001"
         id="tspan114">регулирующих деятельность органов управления </tspan><tspan
         x="612 625.23999 636.58002 652.47998 663.40002 674.12 684.06 694.90002 705.62"
         y="552.70001"
         id="tspan116">Общества:</tspan><tspan
         x="645.34003 630 648 662 672.96002 684.17999 695.34003 710.32001 721.23999 733.15997 745.08002 756 761.15997 772.32001 777.47998 789 800.15997 811.78003 822.15997 833.67999 843.29797 854.21802 859.37799 870.89801 882.05798 893.578 901.698 912.85797 922.79797 933.95801 944.79797 954.91803 966.83801 971.99799 983.91803 989.078 1000.598 1012.218 1023.378 1034.218 1045.1379 1056.658 1067.578 1079.498 1091.418 1101.798"
         y="591.70001"
         id="tspan118"> —Положение о порядке подготовки и проведения </tspan><tspan
         x="648 661.23999 672.58002 688.47998 699.40002 707.52002 718.67999 723.84003 734.56 745.71997 757.06 768.67999 779.40002 791.32001 803.23999 813.62 818.78003 829.5 839.62 851.64001 863.56 874.71997 886.64001 897.56 909.17999 920.34003 931.17999 936.34003 949.58002 960.91998 976.82001 987.73999 998.46002 1008.4 1019.24 1029.96"
         y="617.70001"
         id="tspan120">Общего собрания акционеров Общества;</tspan><tspan
         x="645.34003 630 648 662 672.96002 684.17999 695.34003 710.32001 721.23999 733.15997 745.08002 756 761.15997 772.32001 777.47998 790.5 801.65997 812.5 823.41998 833.35999 844.28003 849.44 860.96002 872.88 884.5 895.41998 905.53998 915.47998 926.64001 938.26001 949.41998 960.26001 965.41998 979.41998 989.52002 1001.8"
         y="656.70001"
         id="tspan122"> —Положение о Совете директоров ПГК;</tspan><tspan
         x="645.34003 630 648 662 672.96002 684.17999 695.34003 710.32001 721.23999 733.15997 745.08002 756 761.15997 772.32001 777.47998 791.47998 803.09998 813.82001 824.65997 835.88 846.79999 858.71997 870.64001 882.56 887.71997 901.71997 911.82001 924.09998"
         y="695.70001"
         id="tspan124"> —Положение о Правлении ПГК.</tspan><tspan
         x="1188 1195.6 1206 1217.6801 1228.64 1239.86 1251.78 1262.3199 1273.24 1283.96 1293.9 1304.74 1315.66 1327.58 1339.5 1352.6801 1364.6 1369.76 1380.48 1391.64 1402.36 1412.3 1423.02 1433.86 1439.02 1452.04 1463.2 1474.04 1484.96 1494.9 1505.62 1510.78 1522.3 1534.22 1545.84 1556.76 1566.88 1576.8199 1587.98 1599.6 1610.76 1621.6 1626.76 1637.34 1648.1801 1659.014 1670.234 1682.1541 1692.694 1703.614 1715.5341"
         y="6.6999998"
         id="tspan126">• Количественный состав Совета директоров увеличен </tspan><tspan
         x="1206 1217.52 1228.6801 1233.84 1245.28 1250.4399 1260.98 1271.8199 1283.04 1294.2 1305.04 1315.96 1326.08 1330.8199 1335.98 1346.8199 1356.9399 1368.16 1383.42 1393.96 1404.6801 1415.0601 1420.22 1432.12 1437.28 1449.2 1460.12 1469.96 1480.6801 1491.52 1503.4399 1514.16 1526.08 1539.36 1552.54 1562.9 1568.0601 1579.58 1591.5 1603.12 1614.04 1624.16 1634.1 1645.26 1656.88 1668.04 1678.88 1683.64"
         y="32.700001"
         id="tspan128">до 9 человек, включая 4 независимых директоров. </tspan><tspan
         x="1206 1219.0601 1224.22 1236.14 1247.3 1258.14 1271.3199 1283.24 1288.4 1299.12 1310.28 1321 1330.9399 1341.66 1352.5 1357.66 1370.6801 1381.84 1392.6801 1403.6 1413.54 1424.26 1429.42 1440.9399 1452.86 1464.48 1475.4 1485.52 1495.46 1506.62 1518.24 1529.4 1540.24 1545.4 1556.24 1567.4 1582.78 1593.616 1604.8361 1609.996 1623.056 1634.276 1644.996 1656.516 1668.436 1681.7159 1693.636 1705.256"
         y="58.700001"
         id="tspan130">В новый состав Совета директоров вошел Владимир </tspan><tspan
         x="1206 1219.6 1231.52 1242.24 1254.16 1266.08 1270.8199 1275.98 1286.7 1291.86 1301.8 1312.52 1322.64 1337.62 1348.54 1353.7 1365.62 1375.46 1386.8 1398.42 1409.14 1421.0601 1426.22 1437.74 1448.9 1460.42 1471.3781 1482.598 1494.5179 1506.438 1516.3781 1527.2159 1538.436 1547.9561 1559.876 1573.056 1584.976 1590.136 1602.056 1612.976 1622.816 1633.536 1644.376 1656.296 1667.016 1678.936 1692.2159 1705.396 1717.316"
         y="84.699997"
         id="tspan132">Лисин, а также избран дополнительный независимый </tspan><tspan
         x="1206 1217.92 1229.84 1241 1251.72 1261.66 1273.28 1284 1295.92 1307.84 1321.02 1332.9399 1338.1 1349.62 1361.54 1373.16 1384.08 1394.2 1404.14 1415.3 1426.92 1432.08 1447.42 1452.58 1465.58 1477.5 1488.22 1498.9399 1508.88 1519.6 1530.3199 1542.24 1552.62 1557.78 1571.38 1582.1 1592.6801 1602.62 1613.54 1625.16 1636.5 1647.22 1657.58"
         y="110.7"
         id="tspan134">иностранный директор — Анастасия Лаутербах.</tspan><tspan
         x="1188 1195.6 1206 1220 1231.62 1243.54 1255.46 1265.84 1275.78 1280.9399 1292.5601 1302.9399 1314.46 1319.62 1330.78 1342.12 1352.5 1362.34 1373.0601 1383 1393.838 1405.058 1414.578 1426.498 1439.678 1450.038 1455.198 1466.818 1477.738 1493.118 1504.038 1515.958 1527.8781 1539.798 1544.538 1549.698 1561.218 1572.838 1583.7581 1595.278 1605.516 1616.236 1629.516 1640.676 1650.616 1662.236 1673.156 1685.076 1696.996 1710.176 1720.536"
         y="149.7"
         id="tspan136">• Принят ряд обязательных решений, предусмотренных </tspan><tspan
         x="1206 1222.5 1233.42 1244.9399 1255.86 1267.48 1278.2 1289.42 1298.9399 1310.86 1324.04 1337.3199 1342.48 1352.3199 1363.04 1372.658 1383.818 1395.738 1406.8979 1420.178 1425.338 1437.3979 1450.6379 1461.978 1467.1379 1477.858 1487.978 1499.998 1511.918 1523.078 1534.998 1545.918 1557.538 1569.458 1582.6379 1592.998 1598.158 1609.318 1620.658 1636.558 1647.478 1658.198 1668.1379 1678.978 1689.698 1700.058 1712.118 1716.858"
         y="175.7"
         id="tspan138">Федеральным законом «Об акционерных обществах», </tspan><tspan
         x="1206 1216.84 1222 1231.9399 1243.1 1256.38 1261.54 1272.08 1284 1294.72 1305.9399 1316.86 1322.02 1332.6 1342.54 1353.38 1364.3 1375.92 1390.9 1402.42 1413.34 1425.26 1438.4399 1443.6 1451.7159 1462.876 1474.396 1485.556 1496.396 1507.556 1519.476 1524.636 1535.796 1545.736 1556.276 1567.196 1577.136 1582.296 1595.536 1606.876 1622.776 1633.696 1644.416 1654.356 1665.196 1675.916 1680.656"
         y="201.7"
         id="tspan140">в том числе утверждены годовой отчет Общества, </tspan><tspan
         x="1206 1214.12 1225.28 1236.8 1247.96 1258.8 1269.52 1279.9 1285.0601 1296.4 1306.98 1317.34 1325.7 1336.42 1347.64 1357.58 1368.5 1380.12 1390.84 1400.96 1411.6801 1422.0601 1427.22 1433.6 1447.1801 1459.1 1471.02 1481.74 1493.66 1504.38 1515.54 1526.38 1537.1 1546.676 1553.056 1558.2159 1569.376 1579.316 1589.856 1600.776 1610.7159 1622.636 1633.796 1644.516 1654.4561 1663.976"
         y="227.7"
         id="tspan142">годовая бухгалтерская (финансовая) отчетность </tspan><tspan
         x="1206 1215.84 1226.5601 1231.72 1242.92 1255.24 1263.2 1274.64 1279.8 1287.92 1299.08 1310.6 1315.34 1320.5 1330.62 1341.34 1353.26 1364.78 1376.7 1388.22 1398.9399 1408.88 1419.46 1431.08 1441.8 1446.96 1457.6801 1468.26 1479.78 1491.7 1501.64 1512.8 1524.42 1535.14 1540.3 1552.22 1562.9399 1568.1 1579.3 1591.62 1602.8199 1615.14 1620.3 1628.416 1639.576 1651.0959"
         y="253.7"
         id="tspan144">за 2019 год, кандидатура аудитора на 2020 год.</tspan><tspan
         x="1188 1195.6 1206 1220 1231.62 1243.54 1255.46 1265.84 1275.78 1286.9399 1292.1 1303.72 1314.64 1330.02 1340.9399 1352.86 1364.78 1375.7 1380.86 1392.02 1397.1801 1408.02 1421.2 1432.72 1443.9399 1454.66 1464.6 1475.52 1480.6801 1491.52 1502.6801 1512.52 1524.4399 1535.16 1543.52 1555.14 1565.86 1580.84 1592.36 1603.28 1615.2 1627.12 1639.04"
         y="292.70001"
         id="tspan146">• Принято решение о выплате вознаграждений </tspan><tspan
         x="1206 1216.54 1227.76 1238.6801 1250.6 1261.3199 1274.6 1279.76 1292.78 1303.9399 1314.78 1325.7 1335.64 1346.36 1351.52 1363.04 1374.96 1386.58 1397.5 1407.62 1417.5601 1428.72 1440.34 1451.5 1462.34 1467.5 1479.02 1490.1801 1495.34 1507.26 1517.2 1528.36 1536.72 1547.4399 1560.72 1565.88 1577.5 1588.22 1599.5601 1610.72 1620.66 1633.84 1639 1649.84 1655 1666.2 1678.52 1686.48 1697.554"
         y="318.70001"
         id="tspan148">членам Совета директоров по итогам работы в 2019—</tspan><tspan
         x="1206 1217.2 1229.52 1240.72 1253.04 1258.2 1266.3199 1277.48 1289 1299.72 1310.08"
         y="344.70001"
         id="tspan150">2020 годах.</tspan><tspan
         x="1188 1195.6 1206 1219.0601 1224.22 1234.16 1245.08 1255.62 1266.54 1278.46 1290.38 1301.3 1306.46 1317.66 1329.98 1341.1801 1353.5 1358.66 1366.778 1377.938 1389.458 1400.178 1405.338 1416.858 1428.478 1440.3979 1452.318 1462.698 1472.6379 1485.818 1490.978 1502.598 1513.5179 1528.8979 1539.818 1551.738 1563.658 1574.038 1579.198 1590.358 1595.5179 1606.358 1619.538 1631.058 1642.278 1652.998 1662.938 1673.858"
         y="383.70001"
         id="tspan152">• В течение 2020 года приняты решения о выплате </tspan><tspan
         x="1206 1217.52 1229.4399 1240.28 1252.2 1263.72 1274.64 1286.5601 1298.08 1309.24 1320.08 1325.24 1336.76 1347.92 1353.08 1365 1374.9399 1386.1 1394.46 1405.1801 1418.46 1423.62 1434.8199 1447.14 1455.1 1466.54 1471.7 1479.816 1490.976 1502.496 1513.2159 1517.9561 1523.116 1533.8361 1538.996 1548.936 1559.656 1569.776 1584.756 1595.676"
         y="409.70001"
         id="tspan154">дивидендов по итогам 2019 года, а также </tspan><tspan
         x="1206 1217.52 1229.14 1240.3 1253.58 1264.5 1279.48 1290.0601 1300 1311.16 1321.7 1333.62 1346.8 1357.16 1362.3199 1373.84 1385.76 1396.6 1408.52 1420.04 1430.96 1442.88 1454.4 1465.5601 1476.4 1481.5601 1493.08 1504.24 1509.4 1521.3199 1531.26 1542.42 1550.78 1561.5 1574.78 1579.9399 1591.5601 1602.28 1613.62 1624.78 1634.72 1647.9"
         y="435.70001"
         id="tspan156">промежуточных дивидендов по итогам работы </tspan><tspan
         x="1206 1217.6801 1228.84 1242.12 1253.64 1264.36 1276.28 1288.2 1300.12 1305.28 1315.12 1325.84 1331 1342.4399 1347.6 1360.88 1371.8 1382.52 1392.9 1404.92 1415.84 1426.6801 1431.84 1443.04 1455.36 1466.5601 1478.88 1484.04 1492.156 1503.316 1514.8361 1525.556"
         y="461.70001"
         id="tspan158">Компании за 9 месяцев 2020 года.</tspan><tspan
         x="-60.939999 -49.5"
         y="-155.17999"
         id="tspan160">55</tspan></text><g
       id="g164"><g
         id="g166"><g
           id="g168"
           clip-path="url(#clipPath172)"><text
             transform="matrix(1,0,0,-1,99,1023)"
             style="font-variant:normal;font-weight:300;font-stretch:normal;font-size:20px;font-family:'Rubik Light';-inkscape-font-specification:Rubik-Light;writing-mode:lr-tb;fill:#000000;fill-opacity:1;fill-rule:nonzero;stroke:none"
             id="text176"><tspan
               x="0 13.24 18.4 28.02 39.18 52.459999 63.98 74.699997 86.620003 98.540001"
               y="0"
               id="tspan174">О компании</tspan></text></g></g></g></g></svg>
