<?xml version="1.0" encoding="UTF-8" standalone="no"?>
<?xml-stylesheet type="text/css" href="main.css" ?>
<svg
   xmlns:dc="http://purl.org/dc/elements/1.1/"
   xmlns:cc="http://creativecommons.org/ns#"
   xmlns:rdf="http://www.w3.org/1999/02/22-rdf-syntax-ns#"
   xmlns:svg="http://www.w3.org/2000/svg"
   xmlns="http://www.w3.org/2000/svg"
   version="1.1"
   id="svg2"
   xml:space="preserve"
   width="2560"
   height="1440"
   viewBox="0 0 2560 1440"><metadata
     id="metadata8"><rdf:RDF><cc:Work
         rdf:about=""><dc:format>image/svg+xml</dc:format><dc:type
           rdf:resource="http://purl.org/dc/dcmitype/StillImage" /></cc:Work></rdf:RDF></metadata><defs
     id="defs6"><clipPath
       clipPathUnits="userSpaceOnUse"
       id="clipPath20"><path
         d="M 0,1080 H 1920 V 0 H 0 Z"
         id="path18" /></clipPath><clipPath
       clipPathUnits="userSpaceOnUse"
       id="clipPath172"><path
         d="M 0,0 H 1920 V 1080 H 0 Z"
         id="path170" /></clipPath><clipPath
       clipPathUnits="userSpaceOnUse"
       id="clipPath240"><path
         d="M 0,0 H 1920 V 1080 H 0 Z"
         id="path238" /></clipPath><clipPath
       clipPathUnits="userSpaceOnUse"
       id="clipPath256"><path
         d="M 0,0 H 1920 V 1080 H 0 Z"
         id="path254" /></clipPath><clipPath
       clipPathUnits="userSpaceOnUse"
       id="clipPath284"><path
         d="M 0,0 H 1920 V 1080 H 0 Z"
         id="path282" /></clipPath><clipPath
       clipPathUnits="userSpaceOnUse"
       id="clipPath312"><path
         d="M 0,0 H 1920 V 1080 H 0 Z"
         id="path310" /></clipPath><clipPath
       clipPathUnits="userSpaceOnUse"
       id="clipPath366"><path
         d="M 0,1080 H 1920 V 0 H 0 Z"
         id="path364" /></clipPath></defs><g
     id="g10"
     transform="matrix(1.3333333,0,0,-1.3333333,0,1440)"><g
       id="g12"><g
         id="g14"><g
           id="g16"
           clip-path="url(#clipPath20)"><path
             d="M 0,0 H 1920 V 1080 H 0 Z"
             style="fill:#ffffff;fill-opacity:1;fill-rule:nonzero;stroke:none"
             id="path22" /></g></g></g><text
       transform="matrix(1,0,0,-1,99,953.4)"
       style="font-variant:normal;font-weight:normal;font-stretch:normal;font-size:38px;font-family:'Prosto One';-inkscape-font-specification:ProstoOne-Regular;writing-mode:lr-tb;fill:#000000;fill-opacity:1;fill-rule:nonzero;stroke:none"
       id="text28"><tspan
         x="0 30.02 56.810001 86.830002 117.04 147.25 174.03999 204.25 234.27 265.42999 278.73001 308.94 343.14001 373.16 405.07999 439.28 469.29999 500.45999 527.25 559.92999 590.33002 622.25 656.45001 681.53003 715.72998"
         y="0"
         id="tspan24">СТРУКТУРА КОРПОРАТИВНОГО </tspan><tspan
         x="0 30.209999 62.130001 92.150002 123.31 153.71001 185.25 212.23 244.14999 276.82999"
         y="45.599998"
         id="tspan26">УПРАВЛЕНИЯ</tspan></text><text
       transform="matrix(1,0,0,-1,99,821.6201)"
       style="font-variant:normal;font-weight:500;font-stretch:normal;font-size:28px;font-family:'Rubik Medium';-inkscape-font-specification:Rubik-Medium;writing-mode:lr-tb;fill:#000000;fill-opacity:1;fill-rule:nonzero;stroke:none"
       id="text36"><tspan
         x="0 19.236 25.620001 41.636002 58.240002 74.844002 89.711998 106.092 122.276 137.144 153.16 168.028 184.408 201.88 219.35201 225.73599 241.752 248.136 265.74799 281.93201 299.40399 315.42001 330.28799 346.668 362.68399 386.09201 409.47198 426.944 446.65601 464.12799 470.51199 485.9064 502.51041 519.70239 536.83838 553.44238 570.6344 586.65039 601.51837 618.99042 635.37042 652.84241 674.34637 694.05841 711.5304"
         y="0"
         id="tspan30">В соответствии с действующими корпоративными </tspan><tspan
         x="0 17.612 34.216 50.259998 66.276001 85.987999 102.172 119.644 134.51199 150.528 170.24001 187.71201 194.09599 214.536 229.76801 248.584 254.968 270.98401 285.85199 302.45319 318.46921 334.51321 349.3812 365.39719 382.5892 398.60519 404.9892 420.38641 436.99039 454.1824 471.31839 487.92239 505.11441 521.13037 535.99841 553.4704 569.8504 587.32239 603.92639 616.16241 632.76642 639.15039 655.16638 672.30243 689.49438 705.51038 721.89038 738.80243 754.98639 772.45837 789.93042 806.05841"
         y="33.992001"
         id="tspan32">документами ПГК структура корпоративного управления </tspan><tspan
         x="0 18.004 34.608002 54.32 71.456001 87.472 104.944 122.416 139.888 146.272 162.65199 178.696 195.608 219.01601 235.228 251.244 267.42801 282.29599"
         y="67.984001"
         id="tspan34">Компании включает:</tspan></text><text
       transform="matrix(1,0,0,-1,99,694.637)"
       style="font-variant:normal;font-weight:normal;font-stretch:normal;font-size:20px;font-family:'Prosto One';-inkscape-font-specification:ProstoOne-Regular;writing-mode:lr-tb;fill:#faaa2d;fill-opacity:1;fill-rule:nonzero;stroke:none"
       id="text40"><tspan
         x="0 16.4"
         y="0"
         id="tspan38">01</tspan></text><text
       transform="matrix(1,0,0,-1,127.96,694.637)"
       style="font-variant:normal;font-weight:500;font-stretch:normal;font-size:20px;font-family:'Rubik Medium';-inkscape-font-specification:Rubik-Medium;writing-mode:lr-tb;fill:#000000;fill-opacity:1;fill-rule:nonzero;stroke:none"
       id="text44"><tspan
         x="0 13.9 25.860001 42.52 54.080002 65.639999 70.199997 81.639999 93.5 105.46 117.74 129.17999 141.66 154.14 165.7 170.25999 181.7 193.16 205.92 218.39999 230.25999 242.74001 254.3 266.57999 278.44"
         y="0"
         id="tspan42">Общее собрание акционеров</tspan></text><text
       transform="matrix(1,0,0,-1,99,658.637)"
       style="font-variant:normal;font-weight:300;font-stretch:normal;font-size:20px;font-family:'Rubik Light';-inkscape-font-specification:Rubik-Light;writing-mode:lr-tb;fill:#000000;fill-opacity:1;fill-rule:nonzero;stroke:none"
       id="text54"><tspan
         x="0 6.1399999 17.98 29.5 41.419998 53.34 64.059998 74 84.839996 95.760002 107.68 119.6 132.78 144.7 149.86 160.58 170.7 182.72 194.64 205.8 217.72 228.64 239.31799 245.698 250.858 266.198 271.358 282.198 295.37799 306.09799 321.478 333.39801 345.31799 350.478 361.638 373.258 381.61801 392.33801 404.258"
         y="0"
         id="tspan46">(Единственный акционер) — высший орган </tspan><tspan
         x="0 10.58 22.1 33.720001 44.439999 55.279999 66.5 77.419998 89.339996 101.26 111.64 116.8 128.478 139.638 152.918 164.438 175.158 187.078 198.998 210.918 215.658 220.81799 232.338 243.95799 255.87801 267.798 279.71799 292.99799 303.71799 318.978 334.87799 346.798 358.71799"
         y="26"
         id="tspan48">управления Компании, принимающий </tspan><tspan
         x="0 11.62 22.540001 37.919998 48.84 60.759998 72.68 83.059998 88.220001 99.739998 110.9 116.06 127.98 138.7 150.62 161.96001 172.918 184.138 195.058 205.978 211.138 221.858 232.438 248.338 259.258 269.978 279.918 290.758 301.67801 313.59799 325.51801 338.698 351.978"
         y="52"
         id="tspan50">решения по наиболее существенным </tspan><tspan
         x="0 10.84 22 33.52 45.139999 56.299999 67.019997 77.739998 91.019997 96.18 107.7 118.62 129 138.94 149.778 160.998 170.51801 182.438 193.59801 204.31799 214.258 226.17799 231.338 245.338 255.438 267.71799"
         y="78"
         id="tspan52">вопросам деятельности ПГК.</tspan></text><text
       transform="matrix(1,0,0,-1,99,530.637)"
       style="font-variant:normal;font-weight:normal;font-stretch:normal;font-size:20px;font-family:'Prosto One';-inkscape-font-specification:ProstoOne-Regular;writing-mode:lr-tb;fill:#faaa2d;fill-opacity:1;fill-rule:nonzero;stroke:none"
       id="text58"><tspan
         x="0 16.4"
         y="0"
         id="tspan56">02</tspan></text><text
       transform="matrix(1,0,0,-1,133.76,530.637)"
       style="font-variant:normal;font-weight:500;font-stretch:normal;font-size:20px;font-family:'Rubik Medium';-inkscape-font-specification:Rubik-Medium;writing-mode:lr-tb;fill:#000000;fill-opacity:1;fill-rule:nonzero;stroke:none"
       id="text62"><tspan
         x="0 13.7 25.559999 37.259998 48.82 59.439999 64 76.580002 89.059998 101.34 112.9 124.36 134.98 146.84 159.12 170.98"
         y="0"
         id="tspan60">Совет директоров</tspan></text><text
       transform="matrix(1,0,0,-1,99,494.637)"
       style="font-variant:normal;font-weight:300;font-stretch:normal;font-size:20px;font-family:'Rubik Light';-inkscape-font-specification:Rubik-Light;writing-mode:lr-tb;fill:#000000;fill-opacity:1;fill-rule:nonzero;stroke:none"
       id="text74"><tspan
         x="0 11.68 22.84 34.459999 45.98 57.139999 68.760002 79.480003 89.419998 101.34 112.18 124.1 137.28 149.2 154.34599 165.506 177.12601 185.48599 196.20599 208.12601 212.866 218.01401 227.634 238.79401 248.73399 259.89401 271.51401 284.694 296.61401 301.76199 312.922 323.642 334.22198 350.12201 361.04199 371.76199 381.702 392.54199 403.76199 414.142 425.06201 435.00201"
         y="0"
         id="tspan64">Корпоративный орган, который осуществляет </tspan><tspan
         x="0 11.16 22.5 38.400002 49.32 60.240002 64.994003 76.234001 86.814003 96.433998 107.594 118.434 129.59399 141.114 151.834 161.774 172.614 183.774 188.528 200.048 210.968 221.34801 231.28799 242.12801 253.34801 262.86801 274.78799 285.948 296.668 306.608 316.12799 331.388 336.14001 347.82199 358.98199 372.26199 383.78201 394.50201 406.422 418.34201 430.26199 435.00201"
         y="26"
         id="tspan66">общее руководство деятельностью Компании, </tspan><tspan
         x="0 9.6199999 20.780001 32.700001 42.639999 54.259998 65.220001 76.440002 88.360001 99.599998 109.84 120.76 130.7 135.86 147.48 158.39999 169.12 180.34 192.25999 202.10001 212.82001 224.84 236.75999 252.02 257.17999 270.20001 280.14001 291.76001 302.48001 312.42001 323.34 331.70001 343.62 355.54001"
         y="52"
         id="tspan68">контролирует реализацию Стратегии </tspan><tspan
         x="0 14 24.1 36.380001 41.540001 53.459999 58.619999 70.139999 81.760002 93.68 105.6 117.52 130.8 141.52 152.44 162.38 167.53999 179.16 190.08 205.46001 216.38 228.3 240.22 250.60001 255.75999 267.28 278.44 283.60001 294.44 305.60001 317.12 328.73999 339.89999 350.62 361.34 374.62 379.35999"
         y="78"
         id="tspan70">ПГК и принимает решения по вопросам, </tspan><tspan
         x="0 11.16 21.1 33.02 43.939999 54.66 65.580002 77.5 89.419998 102.6 115.88 121.04 131.01801 141.73801 151.67799 162.39799 173.23801 184.39799 197.67799 202.838 216.838 226.938 239.218 244.37801 254.498 259.65799 270.578 278.69601 289.85599 295.01599 304.63599 315.79599 329.07599 340.59601 351.51599 361.45599 372.37601 384.29599 396.31601 408.23599 420.15601"
         y="104"
         id="tspan72">отнесенным Уставом ПГК к его компетенции.</tspan></text><text
       transform="matrix(1,0,0,-1,99,340.637)"
       style="font-variant:normal;font-weight:normal;font-stretch:normal;font-size:20px;font-family:'Prosto One';-inkscape-font-specification:ProstoOne-Regular;writing-mode:lr-tb;fill:#faaa2d;fill-opacity:1;fill-rule:nonzero;stroke:none"
       id="text78"><tspan
         x="0 16.4"
         y="0"
         id="tspan76">03</tspan></text><text
       transform="matrix(1,0,0,-1,134.66,340.637)"
       style="font-variant:normal;font-weight:500;font-stretch:normal;font-size:20px;font-family:'Rubik Medium';-inkscape-font-specification:Rubik-Medium;writing-mode:lr-tb;fill:#000000;fill-opacity:1;fill-rule:nonzero;stroke:none"
       id="text82"><tspan
         x="0 12.86 24.719999 38.799999 51.279999 61.900002 73.459999 84.080002 99.440002 104 117.7 129.56 141.25999 152.82001 163.44 174.88 179.44 192.02 204.5 216.78 228.34 239.8 250.42 262.28 274.56 286.42001"
         y="0"
         id="tspan80">Комитеты Совета директоров</tspan></text><text
       transform="matrix(1,0,0,-1,99,304.637)"
       style="font-variant:normal;font-weight:300;font-stretch:normal;font-size:20px;font-family:'Rubik Light';-inkscape-font-specification:Rubik-Light;writing-mode:lr-tb;fill:#000000;fill-opacity:1;fill-rule:nonzero;stroke:none"
       id="text96"><tspan
         x="0 11.68 22.84 34.759998 45.48 55.48 66.699997 76.220001 86.160004 96.879997 106.82 118.74 129.58 141.5 154.67999 165.60001 170.75999 181.92 193.53999 201.89999 212.62 224.53999 237.72 242.88 255.89999 267.06 277.89999 288.82001 298.76001 309.48001 314.64001 326.16 338.07999 349.70001 360.62 370.73999 380.67999 391.84 403.45999 414.62 425.45999 430.20001"
         y="0"
         id="tspan84">Консультативные органы Совета директоров, </tspan><tspan
         x="0 10.72 24.299999 35.459999 47.080002 60.360001 72.279999 83.900002 95.059998 105.9 116.62 128.53999 140.46001 153.64 164.56 169.72 181.24001 192.46001 202.84 208 219.52 231.14 242.06 253.58 264.42001 275.14001 286.76001 298.67999 308.62 319.45599 330.67599 340.19601 352.116 363.276 371.396 382.556"
         y="26"
         id="tspan86">сформированные для предварительного </tspan><tspan
         x="0 11.62 22.34 33.060001 43.779999 57.060001 68.220001 78.160004 89.779999 100.7 112.62 124.54 134.92 140.08 152 162.72 174.64 185.98 196.938 208.158 219.078 229.998 235.158 245.998 256.71799 271.698 283.61801 296.798 307.15799 312.31799 323.15799 334.31799 345.83801 357.45801 368.61801 379.33801 390.49799 401.33801"
         y="52"
         id="tspan88">рассмотрения наиболее важных вопросов </tspan><tspan
         x="0 11.52 22.440001 32.82 42.759998 53.599998 64.82 74.339996 86.260002 97.419998 108.14 118.08 130 135.16 146.838 157.998 171.278 182.798 193.51801 205.438 217.358 229.278 234.438 246.358 251.51801 263.03799 274.65799 285.578 297.09799 307.81799 317.758 328.478 339.31799 350.53799 360.918 376.17801 392.078 403.99799 414.918"
         y="78"
         id="tspan90">деятельности Компании и представляющие </tspan><tspan
         x="0 13.02 24.18 35.02 45.939999 55.880001 66.459999 71.620003 83.139999 95.059998 106.68 117.6 127.72 137.66 148.82001 160.44 171.60001 182.44 187.60001 199.22 210.14 219.758 230.918 244.198 255.118 267.03799 278.55801 289.27802 301.298 313.21799 325.138"
         y="104"
         id="tspan92">Совету директоров рекомендации </tspan><tspan
         x="0 11.52 22.74 33.119999 38.279999 49.799999 61.419998 73.339996 85.260002 95.639999 105.58 117.5 127.88 133.03999 144.96001 158.24001 163.39999 174.24001 184.08 194.92 205.84 221.22 232.14 244.06 255.98 269.16 279.51999 284.67999 296.29999 307.22 322.60001 333.51999 345.44 357.35999 369.28"
         y="130"
         id="tspan94">для принятия им взвешенных решений.</tspan></text><text
       transform="matrix(1,0,0,-1,594,694.637)"
       style="font-variant:normal;font-weight:normal;font-stretch:normal;font-size:20px;font-family:'Prosto One';-inkscape-font-specification:ProstoOne-Regular;writing-mode:lr-tb;fill:#faaa2d;fill-opacity:1;fill-rule:nonzero;stroke:none"
       id="text100"><tspan
         x="0 16.4"
         y="0"
         id="tspan98">04</tspan></text><text
       transform="matrix(1,0,0,-1,630.16,694.637)"
       style="font-variant:normal;font-weight:500;font-stretch:normal;font-size:20px;font-family:'Rubik Medium';-inkscape-font-specification:Rubik-Medium;writing-mode:lr-tb;fill:#000000;fill-opacity:1;fill-rule:nonzero;stroke:none"
       id="text106"><tspan
         x="0 14.6 26.879999 38.32 50.02 62.099998 73.660004 86.139999 98.620003 110.18 114.74 127.22 131.78 140.338 151.89799 164.37801 175.938 188.218 199.658 211.73801 222.358 234.838 250.198 262.67801 267.23801 279.81799 292.298 304.578 316.138 327.59799 338.21799 350.078 362.358"
         y="0"
         id="tspan102">Правление и Генеральный директор </tspan><tspan
         x="-36.16 -29.059999 -14.46 -2.1800001 9.3800001 21.959999 33.400002 44.959999 57.540001 68.980003 79.599998 91.059998 103.14 113.76 118.32 132.92 145.2 156.64 168.34 180.42 191.98 204.46001 216.94 227.896"
         y="24"
         id="tspan104">(Председатель Правления)</tspan></text><text
       transform="matrix(1,0,0,-1,594,634.637)"
       style="font-variant:normal;font-weight:300;font-stretch:normal;font-size:20px;font-family:'Rubik Light';-inkscape-font-specification:Rubik-Light;writing-mode:lr-tb;fill:#000000;fill-opacity:1;fill-rule:nonzero;stroke:none"
       id="text120"><tspan
         x="0 14.52 25.24 36.759998 47.720001 58.939999 70.860001 82.779999 92.720001 103.558 114.778 124.298 136.218 149.39799 160.31799 165.478 176.638 188.258 196.618 207.338 219.258 232.438 237.59801 249.278 260.43799 273.71799 285.23801 295.95801 307.87799 319.798 331.71799 336.45801 341.61801 351.23599 362.396 372.336 383.496 395.116 408.29599 419.216"
         y="0"
         id="tspan108">Исполнительные органы Компании, которые </tspan><tspan
         x="0 11.16 21.879999 32.459999 48.360001 59.279999 70 79.940002 90.779999 102 112.38 127.64 137.58 142.74001 153.89999 165.42 176.34 187.96001 198.67999 208.62 220.53999 231.38 243.3 254.46001 265.38 270.54001 281.12 292.64001 304.26001 314.98001 325.82001 337.04001 347.95999 359.88 371.79999 382.72"
         y="26"
         id="tspan110">осуществляют оперативное управление </tspan><tspan
         x="0 9.9399996 20.860001 30.98 41.560001 57.459999 68.379997 80.300003 85.459999 96.980003 107.9 118.28 128.22 139.058 150.278 159.798 171.718 182.87801 193.59801 203.53799 213.058 228.31799 233.478 245.39799 250.558 261.71799 273.05801 283.978 294.698 306.21799 317.138 327.67801 339.59799 350.43799 361.15799 376.418 386.358"
         y="52"
         id="tspan112">текущей деятельностью и обеспечивают </tspan><tspan
         x="0 10.72 24.299999 37.880001 48.799999 58.919998 68.860001 80.779999 91.620003 103.54 114.12 129.38 134.53999 146.16 156.88 168.22 179.38 189.32001 199.89999 205.06 216.73599 227.896 241.17599 252.696 263.41599 275.336 287.25601 299.17599 303.91599 309.07599 320.69601 331.616 342.336 353.556 365.47601 375.31601 385.896 396.276"
         y="78"
         id="tspan114">эффективную работу Компании, реализуя </tspan><tspan
         x="0 11.52 22.68 33.400002 43.34 54.060001 64.900002 76.120003 87.040001 98.959999 110.88 124.06 134.98 140.14 153.16 164.32001 175.16 186.08 196.02 207.17999 220.46001 225.62 237.14 249.06 260.67999 271.60001 281.72 291.66 302.82001 314.44 325.60001 336.44"
         y="104"
         id="tspan116">поставленные Советом директоров </tspan><tspan
         x="0 11.92 17.08 27.799999 37.919998 49.939999 61.860001 73.019997 84.940002 95.860001 107.48 118.64 131.92 137.08 146.92 157.64 169.16 179.88 190.42 202.34"
         y="130"
         id="tspan118">и акционером задачи.</tspan></text><text
       transform="matrix(1,0,0,-1,594,454.637)"
       style="font-variant:normal;font-weight:normal;font-stretch:normal;font-size:20px;font-family:'Prosto One';-inkscape-font-specification:ProstoOne-Regular;writing-mode:lr-tb;fill:#faaa2d;fill-opacity:1;fill-rule:nonzero;stroke:none"
       id="text124"><tspan
         x="0 16.4"
         y="0"
         id="tspan122">05</tspan></text><text
       transform="matrix(1,0,0,-1,629.46,454.637)"
       style="font-variant:normal;font-weight:500;font-stretch:normal;font-size:20px;font-family:'Rubik Medium';-inkscape-font-specification:Rubik-Medium;writing-mode:lr-tb;fill:#000000;fill-opacity:1;fill-rule:nonzero;stroke:none"
       id="text128"><tspan
         x="0 13.7 25.26 36.720001 49 60.560001 71.18 82.620003 94.900002 105.52 110.08 123.78 135.64 147.34 158.89999 169.52 180.96001 185.52 198.10001 210.58 222.86 234.42 245.88 256.5 268.35999 280.64001 292.5"
         y="0"
         id="tspan126">Секретарь Совета директоров</tspan></text><text
       transform="matrix(1,0,0,-1,594,418.637)"
       style="font-variant:normal;font-weight:300;font-stretch:normal;font-size:20px;font-family:'Rubik Light';-inkscape-font-specification:Rubik-Light;writing-mode:lr-tb;fill:#000000;fill-opacity:1;fill-rule:nonzero;stroke:none"
       id="text142"><tspan
         x="0 13.02 24.18 34.119999 45.360001 55.939999 67.459999 79.379997 91.300003 101.42 106.58 120.58 130.67999 142.96001 147.7 152.86 163.78 178.75999 189.67999 197.798 208.95799 220.478 232.39799 243.558 248.718 260.638 270.478 281.81799 293.73801 305.358 316.078 326.99799 340.27802 353.45801 365.37799"
         y="0"
         id="tspan130">Сотрудник ПГК, ежегодно избираемый </tspan><tspan
         x="0 13.02 24.18 35.02 45.939999 55.880001 67.040001 80.32 85.480003 97 108.92 120.54 131.46001 141.58 151.52 162.67999 174.3 185.46001 196.3 201.03999 206.2 215.81799 226.978 236.918 248.078 259.698 272.87799 284.798 289.95801 301.11801 312.45801 323.37799 334.09799 345.61801 356.53799 367.078 378.99799 389.83801 400.55801 411.478 421.418"
         y="26"
         id="tspan132">Советом директоров, который обеспечивает </tspan><tspan
         x="0 10.84 20.68 31.4 43.32 56.599998 67.760002 79.279999 90.199997 102.12 112.84 122.78 133.62 145.53999 156.46001 161.62 172.34 177.5 188.22 198.34 210.36 222.28 233.44 245.36 256.28 267.89999 278.62 291.89999 303.82001 308.56"
         y="52"
         id="tspan134">взаимодействие с акционерами, </tspan><tspan
         x="0 9.6199999 20.780001 31.940001 43.560001 55.080002 67 78.919998 89.639999 101.66 113.58 128.84 134 145.52 156.44 168.36 179.08 189.02 199.86 211.78 223.7 228.86 240.53799 251.698 264.978 276.49799 287.21799 299.138 311.05801 322.978 328.138 339.65799 350.81799 355.978 365.81799 376.53799 392.43799 404.358 414.298 425.21799"
         y="78"
         id="tspan136">координацию действий Компании по защите </tspan><tspan
         x="0 11.52 23.139999 33.860001 44.700001 49.860001 61.779999 66.940002 78.860001 90.779999 100.72 111.64 123.26 134.17999 144.89999 156.06 166.89999 172.06 182.78 192.89999 204.92 216.84 228 239.92 250.84 262.45999 273.62 284.45999 289.20001 294.35999 305.07999 310.23999 320.17999 330.89999 341.01999 356 366.92001"
         y="104"
         id="tspan138">прав и интересов акционеров, а также </tspan><tspan
         x="0 11.52 22.68 34.200001 45.720001 56.639999 68.260002 83.239998 93.360001 103.94 109.1 120.72 131.44 142.78 153.94 163.88 177.06 182.22 195.24001 206.39999 217.24001 228.16 238.10001 248.82001 253.98 265.5 277.42001 289.04001 299.95999 310.07999 320.01999 331.17999 342.79999 353.95999 364.79999"
         y="130"
         id="tspan140">поддержку работы Совета директоров.</tspan></text><text
       transform="matrix(1,0,0,-1,594,238.637)"
       style="font-variant:normal;font-weight:normal;font-stretch:normal;font-size:20px;font-family:'Prosto One';-inkscape-font-specification:ProstoOne-Regular;writing-mode:lr-tb;fill:#faaa2d;fill-opacity:1;fill-rule:nonzero;stroke:none"
       id="text146"><tspan
         x="0 16.4"
         y="0"
         id="tspan144">06</tspan></text><text
       transform="matrix(1,0,0,-1,629.76,238.637)"
       style="font-variant:normal;font-weight:500;font-stretch:normal;font-size:20px;font-family:'Rubik Medium';-inkscape-font-specification:Rubik-Medium;writing-mode:lr-tb;fill:#000000;fill-opacity:1;fill-rule:nonzero;stroke:none"
       id="text152"><tspan
         x="0 13.9 26.18 35.099998 46.540001 59.02 74.379997 78.940002 89.938004 101.798 114.278 124.898 137.17799 148.858 160.938 172.45799 177.01801 187.73801 199.17799 203.73801 219.01801 231.498 243.978 255.418 267.89801 279.33801 291.198 302.89801 314.758"
         y="0"
         id="tspan148">Органы контроля за финансово-</tspan><tspan
         x="-35.759998 -24.459999 -12.6 -1.88 9.6400003 22.120001 33.560001 44.18 55.880001 67.440002 79.919998 92.400002 104.26 116.74 121.3 133.88 145.44 156.96001 167.58 179.036 191.116 201.73599 214.216 226.076 237.51601 248.136 258.75601 275.47601 280.03601 294.63599 305.51599"
         y="24"
         id="tspan150">хозяйственной деятельностью ПГК</tspan></text><text
       transform="matrix(1,0,0,-1,594,178.637)"
       style="font-variant:normal;font-weight:300;font-stretch:normal;font-size:20px;font-family:'Rubik Light';-inkscape-font-specification:Rubik-Light;writing-mode:lr-tb;fill:#000000;fill-opacity:1;fill-rule:nonzero;stroke:none"
       id="text160"><tspan
         x="0 14 24.92 34.759998 45.48 56.32 68.239998 78.959999 90.879997 104.16 117.34 129.25999 134.42 145.14 155.72 167.24001 179.16 189.10001 200.25999 211.638 216.37801 221.53799 233.218 244.37801 257.65799 269.578 279.51801 290.43799 300.37799 305.53799 317.05801 328.21799 333.37799 344.09799 354.67801 366.198 378.11801 388.05801 397.436 402.17599"
         y="0"
         id="tspan154">Независимый аудитор, Комитет по аудиту, </tspan><tspan
         x="0 10.48 22 33.619999 44.34 55.18 66.400002 77.32 89.239998 101.16 112.08 117.24 128.08 140 150.58 160.52 172.14 183.06 194.98 206.89999 217.82001 225.938 237.09801 242.258 252.978 263.55801 275.078 286.99799 296.93799 307.65799 312.81799 324.63599 329.69601 340.07599 351.496 363.01599 373.63599 384.37601 395.496 406.32001"
         y="26"
         id="tspan156">Управление внутреннего аудита и Управле-</tspan><tspan
         x="0 11.92 23.84 34.759998 39.919998 55.52 68.540001 85.040001 98.279999 103.44 115.36 120.52 131.36 143.28 153.86 163.8 175.42 186.34 198.25999 210.17999 221.10001 229.218 240.37801 245.53799 255.158 266.31799 278.23801 288.17801 299.798 310.75601 321.97601"
         y="52"
         id="tspan158">ние МСФО и внутреннего контроля</tspan></text><text
       transform="matrix(1,0,0,-1,594,100.637)"
       style="font-variant:normal;font-weight:300;font-stretch:normal;font-size:20px;font-family:'Rubik Light';-inkscape-font-specification:Rubik-Light;writing-mode:lr-tb;fill:#000000;fill-opacity:1;fill-rule:nonzero;stroke:none"
       id="text164"><tspan
         x="0 5.5799999 17.1 28.26 33.419998 44.139999 55.299999 66.019997 75.959999 87.120003 97.5 109.42 121.34 136.60001 141.75999 153.67999 164.39999 169.56 180.67799 188.638 192.03799 199.998 211.198 215.95799 227.158 239.478 250.67799 262.39801 268.77802"
         y="0"
         id="tspan162">(по состоянию на 31.12.2020).</tspan></text><g
       id="g166"><g
         id="g168"
         clip-path="url(#clipPath172)"><g
           id="g174"
           transform="translate(1139,846.8125)"><path
             d="m 0,0 c 0,0 -5,0 -5,-5 v -62 c 0,0 0,-5 5,-5 h 412 c 0,0 5,0 5,5 v 62 c 0,0 0,5 -5,5 z"
             style="fill:none;stroke:#e8e8ed;stroke-width:2;stroke-linecap:butt;stroke-linejoin:miter;stroke-miterlimit:4;stroke-dasharray:none;stroke-opacity:1"
             id="path176" /></g><g
           id="g178"
           transform="translate(1139,732.8125)"><path
             d="m 0,0 c 0,0 -5,0 -5,-5 v -374.594 c 0,0 0,-5 5,-5 h 412 c 0,0 5,0 5,5 V -5 c 0,0 0,5 -5,5 z"
             style="fill:none;stroke:#e8e8ed;stroke-width:2;stroke-linecap:butt;stroke-linejoin:miter;stroke-miterlimit:4;stroke-dasharray:none;stroke-opacity:1"
             id="path180" /></g></g></g><text
       transform="matrix(1,0,0,-1,1163,615.2)"
       style="font-variant:normal;font-weight:500;font-stretch:normal;font-size:16px;font-family:'Rubik Medium';-inkscape-font-specification:Rubik-Medium;writing-mode:lr-tb;fill:#000000;fill-opacity:1;fill-rule:nonzero;stroke:none"
       id="text184"><tspan
         x="0 9.1199999 12.768 23.056 32.543999 43.807999 53.792 62.287998 71.536003 80.031998 83.68 93.472 102.96 106.608 115.76 124.256 134.08 143.23199 151.728 160.976 168.112 178.09599 187.36 196.608 205.75999 214.55679 224.0448 235.30881 244.4608 248.1088 257.90079 267.56479 276.7168 286.70081 296.68481 306.50879 315.9968 325.35681 334.50879 344.4928 354.47681"
         y="0"
         id="tspan182">– Комитет по стратегическому планированию</tspan></text><text
       transform="matrix(1,0,0,-1,1171.8,596)"
       style="font-variant:normal;font-weight:300;font-stretch:normal;font-size:16px;font-family:'Rubik Light';-inkscape-font-specification:Rubik-Light;writing-mode:lr-tb;fill:#000000;fill-opacity:1;fill-rule:nonzero;stroke:none"
       id="text188"><tspan
         x="0 4.1279998 15.328 24.624001 33.360001 42.576 51.152 59.888 69.103996 77.68 85.632004 94.304001 103.28 110.896 114.752 118.88 129.23199 138.20799 146.944 153.632 157.75999 167.87199 176.448 183.136 192.43201 201.968"
         y="0"
         id="tspan186"> Председатель: Олег Багрин</tspan></text><text
       transform="matrix(1,0,0,-1,1163,564.8)"
       style="font-variant:normal;font-weight:500;font-stretch:normal;font-size:16px;font-family:'Rubik Medium';-inkscape-font-specification:Rubik-Medium;writing-mode:lr-tb;fill:#000000;fill-opacity:1;fill-rule:nonzero;stroke:none"
       id="text192"><tspan
         x="0 9.1199999 12.768 23.056 32.543999 43.807999 53.792 62.287998 71.536003 80.031998 83.68 93.472 102.96 106.608 115.776 124.928 134.992 144.81599 153.968 165.23199 168.88 178.864 182.51199 191.87199 201.36 209.936 219.92 229.07201 236.20799 246.032 255.18401 268.92801 278.992 288.23999 298.224 308.20801 317.42401"
         y="0"
         id="tspan190">– Комитет по кадрам и вознаграждениям</tspan></text><text
       transform="matrix(1,0,0,-1,1171.8,545.6)"
       style="font-variant:normal;font-weight:300;font-stretch:normal;font-size:16px;font-family:'Rubik Light';-inkscape-font-specification:Rubik-Light;writing-mode:lr-tb;fill:#000000;fill-opacity:1;fill-rule:nonzero;stroke:none"
       id="text198"><tspan
         x="0 4.1279998 4.1279998 15.328 24.624001 33.360001 42.576 51.152 59.888 69.103996 77.68 85.632004 94.304001 103.28 110.896 114.752 118.88 130.08 138.65601 147.328 156 164.976 169.104 178.92799 188.464 197.75999 209.968 218.256 226.832 236.368 245.98399 254.72 263.392"
         y="0"
         id="tspan194">  Председатель: Павел Кирюханцев </tspan><tspan
         x="4.1279998 8.592 18.128 26.864 34.736 43.312 51.984001 61.52 70.096001 79.632004 90.255997 100.8 110.336 114.464 123.68 133.216 142.51199 151.248 159.34399 167.29601 176.224 184.7648"
         y="19.200001"
         id="tspan196">(независимый директор)</tspan></text><text
       transform="matrix(1,0,0,-1,1163,495.2)"
       style="font-variant:normal;font-weight:500;font-stretch:normal;font-size:16px;font-family:'Rubik Medium';-inkscape-font-specification:Rubik-Medium;writing-mode:lr-tb;fill:#000000;fill-opacity:1;fill-rule:nonzero;stroke:none"
       id="text202"><tspan
         x="0 9.1199999 12.768 23.056 32.543999 43.807999 53.792 62.287998 71.536003 80.031998 83.68 93.472 102.96 106.608 116.816 126.8 139.024 148.84801 158.336 167.696 177.18401 188.448 197.60001 201.248 211.07201 220.224 228.8 238.16 248.144 256.64001 266.62399"
         y="0"
         id="tspan200">– Комитет по цифровому развитию</tspan></text><text
       transform="matrix(1,0,0,-1,1171.8,476)"
       style="font-variant:normal;font-weight:300;font-stretch:normal;font-size:16px;font-family:'Rubik Light';-inkscape-font-specification:Rubik-Light;writing-mode:lr-tb;fill:#000000;fill-opacity:1;fill-rule:nonzero;stroke:none"
       id="text208"><tspan
         x="0 4.1279998 4.1279998 15.328 24.624001 33.360001 42.576 51.152 59.888 69.103996 77.68 85.632004 94.304001 103.28 110.896 114.752 118.88 129.28 138.81599 147.392 155.968 163.92 172.496 181.07201 190.608 198.912 203.03999 213.92 222.496 230.96001 238.912 247.64799 256.944 266.01599 274.59201 282.88"
         y="0"
         id="tspan204">  Председатель: Анастасия Лаутербах </tspan><tspan
         x="4.1279998 8.592 18.128 26.864 34.736 43.312 51.984001 61.52 70.096001 79.632004 90.255997 100.8 110.336 114.464 123.68 133.216 142.51199 151.248 159.34399 167.29601 176.224 184.7648"
         y="19.200001"
         id="tspan206">(независимый директор)</tspan></text><text
       transform="matrix(1,0,0,-1,1163,425.6)"
       style="font-variant:normal;font-weight:500;font-stretch:normal;font-size:16px;font-family:'Rubik Medium';-inkscape-font-specification:Rubik-Medium;writing-mode:lr-tb;fill:#000000;fill-opacity:1;fill-rule:nonzero;stroke:none"
       id="text212"><tspan
         x="0 9.1199999 12.768 23.056 32.543999 43.807999 53.792 62.287998 71.536003 80.031998 83.68 93.472 102.96 106.608 115.76 124.912 134.976 144.96001 153.45599"
         y="0"
         id="tspan210">– Комитет по аудиту</tspan></text><text
       transform="matrix(1,0,0,-1,1171.8,406.4)"
       style="font-variant:normal;font-weight:300;font-stretch:normal;font-size:16px;font-family:'Rubik Light';-inkscape-font-specification:Rubik-Light;writing-mode:lr-tb;fill:#000000;fill-opacity:1;fill-rule:nonzero;stroke:none"
       id="text218"><tspan
         x="0 4.1279998 4.1279998 15.328 24.624001 33.360001 42.576 51.152 59.888 69.103996 77.68 85.632004 94.304001 103.28 110.896 114.752 118.88 131.36 139.936 149.23199 157.328 161.45599 172.048 179.744 188.48 197.056 204.70399 215.15199 224.08 233.616 242.192 250.92799 260.46399"
         y="0"
         id="tspan214">  Председатель: Марк Окес-Войсей </tspan><tspan
         x="4.1279998 8.592 18.128 26.864 34.736 43.312 51.984001 61.52 70.096001 79.632004 90.255997 100.8 110.336 114.464 123.68 133.216 142.51199 151.248 159.34399 167.29601 176.224 184.7648"
         y="19.200001"
         id="tspan216">(независимый директор)</tspan></text><text
       transform="matrix(1,0,0,-1,1163,689.8)"
       style="font-variant:normal;font-weight:500;font-stretch:normal;font-size:20px;font-family:'Rubik Medium';-inkscape-font-specification:Rubik-Medium;writing-mode:lr-tb;fill:#000000;fill-opacity:1;fill-rule:nonzero;stroke:none"
       id="text222"><tspan
         x="0 13.7 25.559999 37.259998 48.82 59.439999 64 76.580002 89.059998 101.34 112.9 124.36 134.98 146.84 159.12 170.98"
         y="0"
         id="tspan220">Совет директоров</tspan></text><text
       transform="matrix(1,0,0,-1,1163,665.6)"
       style="font-variant:normal;font-weight:300;font-stretch:normal;font-size:16px;font-family:'Rubik Light';-inkscape-font-specification:Rubik-Light;writing-mode:lr-tb;fill:#000000;fill-opacity:1;fill-rule:nonzero;stroke:none"
       id="text228"><tspan
         x="0 11.2 20.496 29.232 38.448002 47.023998 55.759998 64.975998 73.552002 81.503998 90.1744 99.150398 106.7664 110.6224 114.7504 125.1504 134.1264 142.8624 150.5584 159.1344 167.7104 177.2464 186.4624 195.75841 199.8864 210.3344 219.1008 228.0768 237.00481 249.30881 258.84479"
         y="0"
         id="tspan224">Председатель: Александр Волошин</tspan><tspan
         x="0 4.4640002 14 22.736 30.608 39.183998 47.855999 57.391998 65.968002 75.503998 86.127998 96.671997 106.208 110.336 119.552 129.088 138.384 147.12 155.216 163.168 172.09599 180.6384"
         y="19.200001"
         id="tspan226">(независимый директор)</tspan></text><text
       transform="matrix(1,0,0,-1,1230.5017,803.8)"
       style="font-variant:normal;font-weight:500;font-stretch:normal;font-size:20px;font-family:'Rubik Medium';-inkscape-font-specification:Rubik-Medium;writing-mode:lr-tb;fill:#000000;fill-opacity:1;fill-rule:nonzero;stroke:none"
       id="text232"><tspan
         x="0 12.46 25.040001 37.52 50 61.439999 72.059998 83.760002 95.32 107.8 120.28 135.64 148.12 152.67999 164.12 175.58 188.34 200.82001 212.67999 225.16 236.72"
         y="0"
         id="tspan230">Единственный акционер</tspan></text><g
       id="g234"><g
         id="g236"
         clip-path="url(#clipPath240)"><g
           id="g242"
           transform="translate(1603,846.8125)"><path
             d="m 0,0 c 0,0 -5,0 -5,-5 v -62 c 0,0 0,-5 5,-5 h 212 c 0,0 5,0 5,5 v 62 c 0,0 0,5 -5,5 z"
             style="fill:none;stroke:#e8e8ed;stroke-width:2;stroke-linecap:butt;stroke-linejoin:miter;stroke-miterlimit:4;stroke-dasharray:none;stroke-opacity:1"
             id="path244" /></g></g></g><text
       transform="matrix(1,0,0,-1,1637.5288,805.2)"
       style="font-variant:normal;font-weight:500;font-stretch:normal;font-size:16px;font-family:'Rubik Medium';-inkscape-font-specification:Rubik-Medium;writing-mode:lr-tb;fill:#000000;fill-opacity:1;fill-rule:nonzero;stroke:none"
       id="text248"><tspan
         x="0 10.992 20.976 30.224001 43.183998 53.167999 63.152 73.136002 76.783997 85.935997 95.087997 105.152 115.136 123.632 133.12"
         y="0"
         id="tspan246">Внешний аудитор</tspan></text><g
       id="g250"><g
         id="g252"
         clip-path="url(#clipPath256)"><g
           id="g258"
           transform="translate(1603,306.1875)"><path
             d="m 0,0 c 0,0 -5,0 -5,-5 v -62 c 0,0 0,-5 5,-5 h 212 c 0,0 5,0 5,5 v 62 c 0,0 0,5 -5,5 z"
             style="fill:none;stroke:#e8e8ed;stroke-width:2;stroke-linecap:butt;stroke-linejoin:miter;stroke-miterlimit:4;stroke-dasharray:none;stroke-opacity:1"
             id="path260" /></g></g></g><text
       transform="matrix(1,0,0,-1,1661.2325,274.6)"
       style="font-variant:normal;font-weight:500;font-stretch:normal;font-size:16px;font-family:'Rubik Medium';-inkscape-font-specification:Rubik-Medium;writing-mode:lr-tb;fill:#000000;fill-opacity:1;fill-rule:nonzero;stroke:none"
       id="text264"><tspan
         x="0 9.2799997 19.072001 28.896 38.048 47.408001 57.071999 66.32 76.304001 86.288002"
         y="0"
         id="tspan262">Управление</tspan></text><text
       transform="matrix(1,0,0,-1,1628.3045,254.6)"
       style="font-variant:normal;font-weight:500;font-stretch:normal;font-size:16px;font-family:'Rubik Medium';-inkscape-font-specification:Rubik-Medium;writing-mode:lr-tb;fill:#000000;fill-opacity:1;fill-rule:nonzero;stroke:none"
       id="text272"><tspan
         x="0 9.3599997 19.344 28.496 36.992001 46.816002 56.063999 66.047997 76.031998 85.279999 92.270401 101.7584 105.4064 114.5584 123.7104 133.7744 143.75841 152.25439"
         y="0"
         id="tspan266">внутреннего аудита</tspan><tspan
         x="-445.29599 -436.17599 -432.52802 -420.84799 -411.02399 -401.87201 -392.51199 -382.84799 -373.60001 -363.616 -353.63199"
         y="27.296"
         id="tspan268">– Правление</tspan><tspan
         x="-445.29599 -436.17599 -432.52802 -425.67999 -416.43201 -406.448 -397.20001 -387.37601 -378.224 -368.56 -360.064 -350.07999 -337.79199 -327.80801 -324.16 -314.09601 -304.112 -294.28799 -285.04001 -275.87201 -267.37601 -257.888"
         y="52.256001"
         id="tspan270">– Генеральный директор</tspan></text><text
       transform="matrix(1,0,0,-1,1163,263.2)"
       style="font-variant:normal;font-weight:500;font-stretch:normal;font-size:20px;font-family:'Rubik Medium';-inkscape-font-specification:Rubik-Medium;writing-mode:lr-tb;fill:#000000;fill-opacity:1;fill-rule:nonzero;stroke:none"
       id="text276"><tspan
         x="0 15.22 26.66 38.900002 50.580002 62.66 75.139999 87.620003 98.239998 109.698 121.778 132.39799 144.87801 160.23801 171.798 176.358 188.218 200.498 209.418 220.858 233.338"
         y="0"
         id="tspan274">Исполнительные органы</tspan></text><g
       id="g278"><g
         id="g280"
         clip-path="url(#clipPath284)"><g
           id="g286"
           transform="translate(1139,306.1875)"><path
             d="m 0,0 c 0,0 -5,0 -5,-5 v -132.875 c 0,0 0,-5 5,-5 h 412 c 0,0 5,0 5,5 V -5 c 0,0 0,5 -5,5 z"
             style="fill:none;stroke:#e8e8ed;stroke-width:2;stroke-linecap:butt;stroke-linejoin:miter;stroke-miterlimit:4;stroke-dasharray:none;stroke-opacity:1"
             id="path288" /></g></g></g><g
       id="g290"
       transform="translate(1345,307.1875)"><path
         d="M 0,0 V 38.531"
         style="fill:none;stroke:#faaa2d;stroke-width:2;stroke-linecap:butt;stroke-linejoin:miter;stroke-miterlimit:4;stroke-dasharray:none;stroke-opacity:1"
         id="path292" /></g><g
       id="g294"
       transform="translate(1340.2764,340.6562)"><path
         d="M 0,0 4.724,5.062 9.447,0"
         style="fill:none;stroke:#faaa2d;stroke-width:2;stroke-linecap:butt;stroke-linejoin:miter;stroke-miterlimit:4;stroke-dasharray:none;stroke-opacity:1"
         id="path296" /></g><g
       id="g298"
       transform="translate(1133,105.456)"><path
         d="M 0,0 H 38.531"
         style="fill:none;stroke:#faaa2d;stroke-width:2;stroke-linecap:butt;stroke-linejoin:miter;stroke-miterlimit:4;stroke-dasharray:none;stroke-opacity:1"
         id="path300" /></g><g
       id="g302"
       transform="translate(1166.4688,110.1796)"><path
         d="M 0,0 5.062,-4.724 0,-9.447"
         style="fill:none;stroke:#faaa2d;stroke-width:2;stroke-linecap:butt;stroke-linejoin:miter;stroke-miterlimit:4;stroke-dasharray:none;stroke-opacity:1"
         id="path304" /></g><g
       id="g306"><g
         id="g308"
         clip-path="url(#clipPath312)"><g
           id="g314"
           transform="translate(1709,307.1875)"><path
             d="m 0,0 v 70 c 0,0 0,10 -10,10 h -140.531"
             style="fill:none;stroke:#9ea3aa;stroke-width:2;stroke-linecap:butt;stroke-linejoin:miter;stroke-miterlimit:4;stroke-dasharray:none;stroke-opacity:1"
             id="path316" /></g><g
           id="g318"
           transform="translate(1563.5493,382.4687)"><path
             d="M 0,0 -5.081,4.719 0,9.469"
             style="fill:none;stroke:#9ea3aa;stroke-width:2;stroke-linecap:butt;stroke-linejoin:miter;stroke-miterlimit:4;stroke-dasharray:none;stroke-opacity:1"
             id="path320" /></g></g></g><g
       id="g322"
       transform="translate(1597,810.7812)"><path
         d="M 0,0 H -38.531"
         style="fill:none;stroke:#9ea3aa;stroke-width:2;stroke-linecap:butt;stroke-linejoin:miter;stroke-miterlimit:4;stroke-dasharray:none;stroke-opacity:1"
         id="path324" /></g><g
       id="g326"
       transform="translate(1563.5493,806.0625)"><path
         d="M 0,0 -5.081,4.719 0,9.469"
         style="fill:none;stroke:#9ea3aa;stroke-width:2;stroke-linecap:butt;stroke-linejoin:miter;stroke-miterlimit:4;stroke-dasharray:none;stroke-opacity:1"
         id="path328" /></g><g
       id="g330"
       transform="translate(1345,733.7812)"><path
         d="M 0,0 V 38.531"
         style="fill:none;stroke:#faaa2d;stroke-width:2;stroke-linecap:butt;stroke-linejoin:miter;stroke-miterlimit:4;stroke-dasharray:none;stroke-opacity:1"
         id="path332" /></g><g
       id="g334"
       transform="translate(1340.2764,767.25)"><path
         d="M 0,0 4.724,5.062 9.447,0"
         style="fill:none;stroke:#faaa2d;stroke-width:2;stroke-linecap:butt;stroke-linejoin:miter;stroke-miterlimit:4;stroke-dasharray:none;stroke-opacity:1"
         id="path336" /></g><text
       transform="matrix(1,0,0,-1,1193,99.856)"
       style="font-variant:normal;font-weight:300;font-stretch:normal;font-size:16px;font-family:'Rubik Light';-inkscape-font-specification:Rubik-Light;writing-mode:lr-tb;fill:#000000;fill-opacity:1;fill-rule:nonzero;stroke:none"
       id="text340"><tspan
         x="0 10.4 19.615999 30.24 39.776001 49.312 58.848 67.424004 75.375999 84.671997 93.248001 101.2 110.736 119.408 128.944 137.87199 146.608 150.73599 159.952 168.88 178.09599 186.528 196.064 205.60001 214.336 223.87199 233.408"
         y="0"
         id="tspan338">Административное подчинение</tspan></text><g
       id="g342"
       transform="translate(1533.8438,105.456)"><path
         d="M 0,0 H 38.531"
         style="fill:none;stroke:#9ea3aa;stroke-width:2;stroke-linecap:butt;stroke-linejoin:miter;stroke-miterlimit:4;stroke-dasharray:none;stroke-opacity:1"
         id="path344" /></g><g
       id="g346"
       transform="translate(1567.3125,110.1796)"><path
         d="M 0,0 5.062,-4.724 0,-9.447"
         style="fill:none;stroke:#9ea3aa;stroke-width:2;stroke-linecap:butt;stroke-linejoin:miter;stroke-miterlimit:4;stroke-dasharray:none;stroke-opacity:1"
         id="path348" /></g><text
       transform="matrix(1,0,0,-1,1593.8591,99.856)"
       style="font-variant:normal;font-weight:300;font-stretch:normal;font-size:16px;font-family:'Rubik Light';-inkscape-font-specification:Rubik-Light;writing-mode:lr-tb;fill:#000000;fill-opacity:1;fill-rule:nonzero;stroke:none"
       id="text352"><tspan
         x="0 13.2 21.664 31.200001 39.296001 48.911999 58.448002 67.375999 76.912003 85.487999 94.463997 102.08 111.616 120.544 129.28 133.408 142.62399 151.552 160.76801 169.2 178.73599 188.272 197.008 206.54401 216.08"
         y="0"
         id="tspan350">Функциональное подчинение</tspan></text><text
       transform="matrix(1,0,0,-1,38.9101,1023)"
       style="font-variant:normal;font-weight:300;font-stretch:normal;font-size:20px;font-family:'Rubik Light';-inkscape-font-specification:Rubik-Light;writing-mode:lr-tb;fill:#000000;fill-opacity:1;fill-rule:nonzero;stroke:none"
       id="text356"><tspan
         x="0 11.44"
         y="0"
         id="tspan354">57</tspan></text><g
       id="g358"><g
         id="g360"><g
           id="g362"
           clip-path="url(#clipPath366)"><text
             transform="matrix(1,0,0,-1,99,1023)"
             style="font-variant:normal;font-weight:300;font-stretch:normal;font-size:20px;font-family:'Rubik Light';-inkscape-font-specification:Rubik-Light;writing-mode:lr-tb;fill:#000000;fill-opacity:1;fill-rule:nonzero;stroke:none"
             id="text370"><tspan
               x="0 13.24 18.4 28.02 39.18 52.459999 63.98 74.699997 86.620003 98.540001"
               y="0"
               id="tspan368">О компании</tspan></text></g></g></g></g></svg>
