<?xml version="1.0" encoding="UTF-8" standalone="no"?>
<?xml-stylesheet type="text/css" href="main.css" ?>
<svg
   xmlns:dc="http://purl.org/dc/elements/1.1/"
   xmlns:cc="http://creativecommons.org/ns#"
   xmlns:rdf="http://www.w3.org/1999/02/22-rdf-syntax-ns#"
   xmlns:svg="http://www.w3.org/2000/svg"
   xmlns="http://www.w3.org/2000/svg"
   version="1.1"
   id="svg2"
   xml:space="preserve"
   width="2560"
   height="1440"
   viewBox="0 0 2560 1440"><metadata
     id="metadata8"><rdf:RDF><cc:Work
         rdf:about=""><dc:format>image/svg+xml</dc:format><dc:type
           rdf:resource="http://purl.org/dc/dcmitype/StillImage" /></cc:Work></rdf:RDF></metadata><defs
     id="defs6"><clipPath
       clipPathUnits="userSpaceOnUse"
       id="clipPath20"><path
         d="M 0,1080 H 1920 V 0 H 0 Z"
         id="path18" /></clipPath></defs><g
     id="g10"
     transform="matrix(1.3333333,0,0,-1.3333333,0,1440)"><g
       id="g12"><g
         id="g14"><g
           id="g16"
           clip-path="url(#clipPath20)"><path
             d="M 0,0 H 1920 V 1080 H 0 Z"
             style="fill:#ffffff;fill-opacity:1;fill-rule:nonzero;stroke:none"
             id="path22" /></g></g></g><text
       transform="matrix(1,0,0,-1,99,953.4)"
       style="font-variant:normal;font-weight:normal;font-stretch:normal;font-size:38px;font-family:'Prosto One';-inkscape-font-specification:ProstoOne-Regular;writing-mode:lr-tb;fill:#000000;fill-opacity:1;fill-rule:nonzero;stroke:none"
       id="text28"><tspan
         x="0 30.209999 60.23 87.019997 118.18 148.58 180.5 220.21001 252.89 266.19 296.39999 327.56 359.48001 392.16 418.95001 450.10999 481.64999"
         y="0"
         id="tspan24">УСТАВНЫЙ КАПИТАЛ </tspan><tspan
         x="0 32.68 45.98 77.139999 107.35 140.60001 173.28 207.48 239.39999 266.38 296.39999 328.32001 359.48001 389.88 403.17999 433.20001 459.98999 490.01001 520.21997 550.42999 577.21997 607.42999 637.45001"
         y="45.599998"
         id="tspan26">И АКЦИОНЕРНАЯ СТРУКТУРА</tspan></text><text
       transform="matrix(1,0,0,-1,99,829.1)"
       style="font-variant:normal;font-weight:300;font-stretch:normal;font-size:20px;font-family:'Rubik Light';-inkscape-font-specification:Rubik-Light;writing-mode:lr-tb;fill:#000000;fill-opacity:1;fill-rule:nonzero;stroke:none"
       id="text52"><tspan
         x="0 7.5999999 18 30.559999 41.279999 51.119999 64.400002 75.32 86.940002 92.099998 102.68 113.4 123.34 134.06 144.89999 156.82001 167.98 176.34 187.5 192.66 202.78 213.5 225.02 236.94 246.88 257.60001 268.82001 279.54001 284.70001 298.70001 308.79999 321.07999 326.23999 336.95999 350.54001 361.70001 373.32001 386.60001 398.51999 410.14001 421.29999 432.14001 442.85999 454.78"
         y="0"
         id="tspan30">• Размер уставного капитала ПГК сформирован </tspan><tspan
         x="18 29.92 39.759998 44.919998 56.080002 67.419998 80.599998 90.720001 102.64 113.8 124.64 135.56 147.48 159.39999 172.58 182.94 188.10001 200.02 213.3 224.22 236.14 248.06 261.23999 271.60001 276.76001 288.10001 299.01999 308.85999 320.38 331.54001 341.66 352.23999 365.51999 376.44 388.35999 398.29999 409.01999 420.64001 432.56 445.73999 456.10001 461.26001 471.98001 482.10001 494.12 506.04001 517.96002"
         y="26"
         id="tspan32">из обыкновенных именных бездокументарных акций </tspan><tspan
         x="18 29.92 35.080002 45.799999 56.959999 67.68 77.620003 88.339996 99.18 110.4 120.78 131.7 141.64 146.8 157.918 165.87801 171.03799 182.558 194.45799 206.09801 211.258 222.778 234.418 246.31799 251.478 262.918 274.358 284.09799 289.258 300.87799 311.45801 322.798 334.01801 344.93799 356.858"
         y="52"
         id="tspan34">и составляет 31 346 364 597 рублей.</tspan><tspan
         x="0 7.5999999 18 30.280001 41.439999 54.720001 66.239998 76.959999 88.879997 100.8 111.72 123.64 128.8 140.42 151.14 160.98 174.25999 185.17999 201.08 212 223.92 237.10001 242.25999 253.42 264.76001 277.94 288.06 299.98001 311.14001 321.98001 332.89999 344.82001 356.73999 369.92001 380.84"
         y="91"
         id="tspan36">• Компанией размещены обыкновенные </tspan><tspan
         x="18 29.92 43.200001 54.119999 66.040001 77.959999 91.139999 102.06 107.22 118.56 129.48 139.32001 150.84 162 172.12 182.7 195.98 206.89999 218.82001 228.75999 239.48 251.10001 263.01999 276.20001 287.12 292.28 303 313.12 325.14001 337.06 348.98001 354.14001 365.29999 376.82001 388.73999 400.66 411.38 421.5 432.66 443.5 454.66 466.57999"
         y="117"
         id="tspan38">именные бездокументарные акции одинаковой </tspan><tspan
         x="18 29.92 41.080002 54.360001 66.279999 78.199997 88.919998 100.14 109.66 121.58 132.74001 144.66 149.82001 160.53999 170.48 181.64 193.56 206.84 218 228.72 238.66 248.17999 263.44 268.60001 276.56 288 300.32001 305.48001 317.10001 327.67999 339.01999 350.23999 361.16 373.07999 378.23999 388.35999 399.07999 414.06 425.57999 436.29999 446.67999"
         y="143"
         id="tspan40">номинальной стоимостью 150 рублей каждая </tspan><tspan
         x="18 28.84 34 44.119999 55.279999 66.5 78.419998 88.959999 99.879997 110.6 120.54 131.38 142.3 147.46001 158.66 170.98 183.34 188.5 199.94 209.67999 221.12 226.28 235.358 246.998 258.51801 262.31799 273.758 286.11801 291.27802 306.65799 316.59799 327.17801 337.298 349.21799 354.37799 366.298 377.01801 382.17801 393.33801 404.67801 420.578 431.15799 446.418 451.578 462.298 472.87799 486.15799 499.43799 510.01801"
         y="169"
         id="tspan42">в количестве 208 975 763,98 штуки на общую сумму </tspan><tspan
         x="18 29.52 40.68 45.84 57.759998 68.919998 82.199997 94.120003 106.04 116.76 127.98 137.5 149.42 160.58 172.5 177.66 188.38 198.32001 209.48 221.39999 234.67999 245.84 256.56 266.5 278.42001 283.57999 294.69601 302.65601 307.81601 319.336 331.23599 342.87601 348.03601 359.556 371.19601 383.09601 388.25601 399.69601 411.13599 420.87601 426.03601 437.65601 448.23599 459.57599 470.79599 481.716 493.63599"
         y="195"
         id="tspan44">по номинальной стоимости 31 346 364 597 рублей.</tspan><tspan
         x="0 7.5999999 18 31.059999 41.779999 52.700001 57.860001 66.220001 77.379997 88.599998 99.760002 110.48 121.06 136.32001 152.22 164.14 175.06 180.22 190.94 201.06 213.08 225 236.92 242.08 253.60001 265.22 277.14001 289.06 299.78 311.29999 322.51999 333.44 348.42001 359.14001 369.07999 374.23999 385.16 396.67999 408.60001 420.51999 431.23999 441.17999 452.01999 462.94 474.85999 486.78 497.94 511.22 521.79999"
         y="234"
         id="tspan46">• Все голосующие акции принадлежат единственному </tspan><tspan
         x="18 28.719999 38.84 50.860001 62.779999 73.940002 85.860001 96.779999 108.4 118.98 124.14 138.14 148.24001 160.52 165.67999 181.02 186.17999 196.3 207.46001 220.74001 232.25999 242.98 254.89999 266.82001 278.73999 283.89999 295.29999 306.26001 318.10001 329.23999 342.26001 356.26001 368.10001 380.89999 386.06 399.34 412.14001 425.38 439.20001 451.76001"
         y="260"
         id="tspan48">акционеру ПГК — компании FLETCHER GROUP </tspan><tspan
         x="18 32 45.240002 56.200001 69.739998 74.760002 88.440002 101.72 113.82 118.98 129.94 134.96001 150.56 155.58 166.72 178.56"
         y="286"
         id="tspan50">HOLDINGS LIMITED</tspan></text><text
       transform="matrix(1,0,0,-1,291.0973,549.76)"
       style="font-variant:normal;font-weight:300;font-stretch:normal;font-size:11.66px;font-family:'Rubik Light';-inkscape-font-specification:Rubik-Light;writing-mode:lr-tb;fill:#000000;fill-opacity:1;fill-rule:nonzero;stroke:none"
       id="text56"><tspan
         x="0"
         y="0"
         id="tspan54">1</tspan></text><text
       transform="matrix(1,0,0,-1,295.7379,543.1)"
       style="font-variant:normal;font-weight:300;font-stretch:normal;font-size:20px;font-family:'Rubik Light';-inkscape-font-specification:Rubik-Light;writing-mode:lr-tb;fill:#000000;fill-opacity:1;fill-rule:nonzero;stroke:none"
       id="text70"><tspan
         x="0"
         y="0"
         id="tspan58">.</tspan><tspan
         x="-196.74001 -189.14 -178.74001 -164.22 -154.38 -141.10001 -130.17999 -118.26 -107.34 -95.419998 -83.5 -71.580002 -66.419998 -55.580002 -50.419998 -39.700001 -29.76 -18.139999 -7.5599999 2.5599999 12.5 23.08 34.700001 45.619999 50.779999 61.5 71.620003 83.639999 95.559998 106.72 118.64 129.56 141.17999 153.10001 164.25999 172.62 183.78 188.94 199.06 209.78 221.3 233.22 243.16 253.88 265.10001 275.82001"
         y="39"
         id="tspan60">• Изменений в структуре акционерного капитала </tspan><tspan
         x="-178.74001 -167.89999 -162.74001 -151.53999 -139.22 -128.02 -115.7 -110.54 -102.18 -91.019997 -79.5 -68.919998 -63.759998 -51.84 -40.919998 -35.759998 -24.24 -12.62 -1.46 10.46 21.18 31.540001 42.700001 54.220001 66.139999 77.360001 88.519997"
         y="65"
         id="tspan62">в 2020 году не происходило.</tspan><tspan
         x="-196.74001 -189.14 -178.74001 -168.64 -157.48 -146.75999 -136.17999 -124.66 -113.94 -102.32 -91.599998 -81.660004 -70.82 -59.900002 -47.98 -36.060001 -22.879999 -10.96 -5.8000002 5.8200002 16.74 25.1 37.02 47.740002 57.68 69.300003 80.019997 92.040001 103.96 115.12 127.04 138.96001 152.14 164.06 169.22 181.14 192.3 205.58 216.5 228.12 233.28 244.12 257.29999 268.82001 279.39999 290.12 300.23999 310.95999"
         y="104"
         id="tspan64">• Государственный регистрационный номер выпуска </tspan><tspan
         x="-178.74001 -166.72 -155.8 -143.88 -131.96001 -118.78 -108.42 -103.26 -91.919998 -81.339996 -68.059998 -57.34 -48.98 -43.82 -28.48 -23.32 -15.36 -5.6199999 6.6999998 17.32 26.84 38.279999 49.720001 61.16 72.360001 80.32 90.059998 101.9"
         y="130"
         id="tspan66">ценных бумаг — 1-02-55521-Е.</tspan><tspan
         x="-196.74001 -189.44 -178.74001 -165.03999 -153.72 -142.10001 -131.56 -119.94 -109.02 -98.400002 -90.339996 -78.720001 -67.400002 -56.540001 -46 -35.580002 -23.959999 -12.34 0.54000002 11.16 15.632 26.052 35.872002 47.591999 59.212002 70.832001 75.304001 87.283997 98.143997 111.124 122.344 132.76401 144.384 156.004 166.62399 178.244 182.716 194.336 204.95599 209.42799 220.748 231.168 240.70799 253.688 264.30801 279.90799 290.328 301.24799 312.86801 323.28799 332.508"
         y="169"
         id="tspan68">• Привилегированные акции Компанией не размещались.</tspan></text><text
       transform="matrix(1,0,0,-1,99,125.328)"
       style="font-variant:normal;font-weight:300;font-stretch:normal;font-size:9.328px;font-family:'Rubik Light';-inkscape-font-specification:Rubik-Light;writing-mode:lr-tb;fill:#000000;fill-opacity:1;fill-rule:nonzero;stroke:none"
       id="text74"><tspan
         x="0"
         y="0"
         id="tspan72">1</tspan></text><text
       transform="matrix(1,0,0,-1,102.7125,120)"
       style="font-variant:normal;font-weight:300;font-stretch:normal;font-size:16px;font-family:'Rubik Light';-inkscape-font-specification:Rubik-Light;writing-mode:lr-tb;fill:#000000;fill-opacity:1;fill-rule:nonzero;stroke:none"
       id="text80"><tspan
         x="0 10.112 18.848 28.384001 37.119999 47.984001 57.52 67.136002 76.671997 85.248001 94.543999 103.472 114.096 118.224 128.048 136.976 147.60001 156.81599 165.392 174.92799 184.464 194 198.12801 206.8 210.92799 219.504 228.43201 237.36 245.312 253.98399 262.72 270.672 279.24799 287.20001 295.87201 305.40799 314.944 319.07199 327.64801 331.776 340.70401 349.92001 359.216 367.952 377.168 385.90399 394.88 403.616 413.15201 422.68799 431.42401 442.048 446.17599 454.75201 462.70401 471.63199 478.32001 487.24799 491.37601 500.59201 509.51999 519.05603 527.35999 535.31201 544.84802 553.15198 557.28003 565.95203 570.08002 577.95203 586.52802 594.62402 603.552 613.08801 622.01599 631.23199 639.80798 647.76001 656.49597 665.47198 673.08801 681.664 689.61603 698.28802 707.02399"
         y="0"
         id="tspan76">Бенефициаром Компании в соответствии с определением этого понятия в законодательстве </tspan><tspan
         x="-3.7119999 6.336 15.264 23.84 32.416 41.952 51.487999 60.063999 68.160004 77.087997 86.624001 90.751999 103.952 112.688 121.904 130.64 139.936 148.51199 158.12801 167.664 177.2 181.328 189.632 198.304 207.28 215.584 224.32001 232.272 240.84801 249.15199 253.28 259.96799 268.896 277.47198 286.68799 295.616 304.832 314.36801 323.90399 328.03201 338.48001 347.45599 356.03201 365.24799 374.784 385.40799 394.944 404.23999 408.36801 419.24799 428.784 437.35999 446.896"
         y="20"
         id="tspan78">Российской Федерации является господин Владимир Лисин</tspan></text><path
       d="m 1029,0 h 891 v 1080 h -891 z"
       style="fill:#f0f0f5;fill-opacity:1;fill-rule:nonzero;stroke:none"
       id="path82" /><text
       transform="matrix(1,0,0,-1,1089,953.8201)"
       style="font-variant:normal;font-weight:500;font-stretch:normal;font-size:28px;font-family:'Rubik Medium';-inkscape-font-specification:Rubik-Medium;writing-mode:lr-tb;fill:#000000;fill-opacity:1;fill-rule:nonzero;stroke:none"
       id="text86"><tspan
         x="0 19.152 35.476002 51.632 69.216003 85.372002 102.816 120.26 136.332 142.744 159.32001 176.036 182.448 198.436 214.424 232.25999 249.70399 266.28 283.724 299.88 317.07199"
         y="0"
         id="tspan84">Сведения об акционере</tspan></text><text
       transform="matrix(1,0,0,-1,1089,919.8281)"
       style="font-variant:normal;font-weight:500;font-stretch:normal;font-size:28px;font-family:'Rubik Medium';-inkscape-font-specification:Rubik-Medium;writing-mode:lr-tb;fill:#000000;fill-opacity:1;fill-rule:nonzero;stroke:none"
       id="text90"><tspan
         x="0 17.108 33.683998 40.096001 56.084 72.660004 88.648003 103.488 120.064 136.136 153.58 171.024 194.37601 200.78799 218.23199 234.22 240.632 257.8212 270.78519 276.44119 289.40521 306.73721 314.24121 331.57321 349.96921 367.30121"
         y="0"
         id="tspan88">по состоянию на 31.12.2020</tspan></text><text
       transform="matrix(1,0,0,-1,1089,833.6441)"
       style="font-variant:normal;font-weight:300;font-stretch:normal;font-size:28px;font-family:'Rubik Light';-inkscape-font-specification:Rubik-Light;writing-mode:lr-tb;fill:#000000;fill-opacity:1;fill-rule:nonzero;stroke:none"
       id="text96"><tspan
         x="0 23.1 42.139999 58.716 74.311996 92.092003 108.668 126.252 133.476 147.616 165.2 180.964 200.564 207.78799 224.84 243.37601 262.41599 281.34399 301.672 321.272 335.41199 352.18399 359.40799 378.448 398.776 420.616 440.944 456.54001 473.116 492.04401"
         y="0"
         id="tspan92">ФЛЕТЧЕР ГРУП ХОЛДИНГЗ ЛИМИТЕД </tspan><tspan
         x="0 8.9320002 24.892 40.236 56.812 72.407997 90.636002 110.236 126.812 144.73199 151.95599 170.548 188.468 207.004 226.35201 243.936 251.16 270.76001 289.29599 304.64001 323.59601 330.62399 349.776 368.36801 385.30801 392.53201 407.87601 414.90399 436.74399 443.772 459.36801 475.944 494.89999"
         y="33.992001"
         id="tspan94">(FLETCHER GROUP HOLDINGS LIMITED)</tspan></text><text
       transform="matrix(1,0,0,-1,1089,733.6401)"
       style="font-variant:normal;font-weight:500;font-stretch:normal;font-size:20px;font-family:'Rubik Medium';-inkscape-font-specification:Rubik-Medium;writing-mode:lr-tb;fill:#000000;fill-opacity:1;fill-rule:nonzero;stroke:none"
       id="text100"><tspan
         x="0 13.68 25.34 36.880001 49.439999 60.98 73.440002 85.900002 97.379997 101.96 113.8 118.38 130.66 142.2 151.10001 163.56 174.98 185.58 197.86 209.28 222.02 234.48"
         y="0"
         id="tspan98">Сведения о регистрации</tspan></text><text
       transform="matrix(1,0,0,-1,1089,701.6401)"
       style="font-variant:normal;font-weight:300;font-stretch:normal;font-size:20px;font-family:'Rubik Light';-inkscape-font-specification:Rubik-Light;writing-mode:lr-tb;fill:#000000;fill-opacity:1;fill-rule:nonzero;stroke:none"
       id="text108"><tspan
         x="0 13.02 23.940001 35.560001 45.5 57.419998 71 82.919998 93.040001 103.76 113.7 118.86 130.78 142.7 152.82001 163.98 175.60001 187.12 198.28 209.89999 220.62 232.64 244.56 256.48001 261.64001 277.23999 289.16 301.07999 313 323.72 333.66 344.57999 356.20001 366.92001 376.85999 387.70001 398.42001 403.57999 413.51999 424.67999 436.29999 444.66 455.82001 466.66 477.88 489.79999 494.54001"
         y="0"
         id="tspan102">Сертификат инкорпорации Министерства торговли, </tspan><tspan
         x="0 11.52 23.139999 34.299999 47.580002 60.759998 76.139999 87.360001 98.279999 110.2 122.12 133.28 144 153.94 165.86 171.02 182.94 188.10001 198.03999 208.62 220.24001 232.16 242 255.28 266 270.76001 275.92001 289.44 300.35999 311.88 322.60001 334.22 344.16 354.88 368.16 379.07999 391 400.94 406.10001 418.66 429.57999 437.94 449.85999 460.57999 470.51999 482.14001 492.85999 502.79999 513.96002 525.58002 536.29999"
         y="26"
         id="tspan104">промышленности и туризма. Департамент Регистратора </tspan><tspan
         x="0 12.28 23.440001 36.720001 48.240002 58.959999 70.879997 82.800003 94.720001 99.879997 111.8 116.96 130.2 143.78 155.7 167.72 179.64 190.36 201.58 211.10001 223.02 234.17999 242.53999 253.7 258.85999 272.45999 284.38 294.5 305.34 317.26001 328.78 339.5 349.44 360.60001 372.22 382.94 388.10001 396.45999 401.22 406.38 420.38 432.29999 442.42001 453.57999 464.29999 476.22 488.14001 492.88 498.04001 510.32001 522.23999 533.76001 545.38"
         y="52"
         id="tspan106">Компаний и Официального Ликвидатора г. Никосии, Кипр.</tspan></text><text
       transform="matrix(1,0,0,-1,1089,597.6401)"
       style="font-variant:normal;font-weight:500;font-stretch:normal;font-size:20px;font-family:'Rubik Medium';-inkscape-font-specification:Rubik-Medium;writing-mode:lr-tb;fill:#000000;fill-opacity:1;fill-rule:nonzero;stroke:none"
       id="text112"><tspan
         x="0 14.9 26.32 36.919998 48.34 52.919998 65.199997 76.739998 85.639999 98.099998 109.52 120.12 132.39999 143.82001 156.56 169.02"
         y="0"
         id="tspan110">Дата регистрации</tspan></text><text
       transform="matrix(1,0,0,-1,1089,565.6401)"
       style="font-variant:normal;font-weight:300;font-stretch:normal;font-size:20px;font-family:'Rubik Light';-inkscape-font-specification:Rubik-Light;writing-mode:lr-tb;fill:#000000;fill-opacity:1;fill-rule:nonzero;stroke:none"
       id="text116"><tspan
         x="0 12.32 20.68 24.08 32.040001 40 43.400002 51.360001 62.799999 74.239998 83.980003 89.139999 111.72 116.88 128.32001 140.64 151.84 161.58"
         y="0"
         id="tspan114">07.11.1997 № 90278</tspan></text><text
       transform="matrix(1,0,0,-1,1089,513.6401)"
       style="font-variant:normal;font-weight:500;font-stretch:normal;font-size:20px;font-family:'Rubik Medium';-inkscape-font-specification:Rubik-Medium;writing-mode:lr-tb;fill:#000000;fill-opacity:1;fill-rule:nonzero;stroke:none"
       id="text120"><tspan
         x="0 16.219999 27.76 39.18 49.779999 61.619999 66.199997 78.660004 90.080002 101.36 113.2 130.32001 142.88 154.42 166.88 179.34"
         y="0"
         id="tspan118">Место нахождения</tspan></text><text
       transform="matrix(1,0,0,-1,1089,481.6401)"
       style="font-variant:normal;font-weight:300;font-stretch:normal;font-size:20px;font-family:'Rubik Light';-inkscape-font-specification:Rubik-Light;writing-mode:lr-tb;fill:#000000;fill-opacity:1;fill-rule:nonzero;stroke:none"
       id="text126"><tspan
         x="0 11.2 23.559999 28.719999 41.959999 52.080002 62.02 73.18 84.019997 95.639999 107.56 118.14 122.88 128.03999 139.56 151.2 162.418 167.158 172.31799 185.37801 198.37801 217.278 231.798 245.03799 256.17801 270.698 283.71799 288.87799 301.89801 316.418 332.918 345.478 358.478 372.478 383.61801 388.77802 401.418 415.93799 429.53799 443.05801 457.578 471.578 481.67801 486.418"
         y="0"
         id="tspan122">28 Октовриу, 365, ВАШИОТИС СИФРАНТ БИЛДИНГ, </tspan><tspan
         x="0 10.12 20.959999 31.68 43.299999 53.240002 65.160004 76.779999 87.5 92.660004 101.84 107 118.16 131.74001 143.66 154.38 159.53999 170.74001 183.06 191.02 195.75999 200.92 214.92 225.84 236.56 248.08 259.23999 270.45999 282.38 287.12 292.28 303.39801 311.358 323.67801 332.03799 336.77802 341.93799 355.53799 367.45801 380.73801 391.45801 402.17801 412.89801 424.05801 435.27802 440.01801 445.17801 457.45801 469.37799 480.89801"
         y="26"
         id="tspan124">квартира / офис 201, Неаполи, 3107, Лимассол, Кипр</tspan></text><text
       transform="matrix(1,0,0,-1,1089,403.6401)"
       style="font-variant:normal;font-weight:500;font-stretch:normal;font-size:20px;font-family:'Rubik Medium';-inkscape-font-specification:Rubik-Medium;writing-mode:lr-tb;fill:#000000;fill-opacity:1;fill-rule:nonzero;stroke:none"
       id="text130"><tspan
         x="0 13.4 25.24 37.299999 46.919998 58.580002 70.419998 75 86.419998 97.839996 110.58 123.04 135.5"
         y="0"
         id="tspan128">Кол-во акций,</tspan></text><text
       transform="matrix(1,0,0,-1,1089,377.6401)"
       style="font-variant:normal;font-weight:500;font-stretch:normal;font-size:20px;font-family:'Rubik Medium';-inkscape-font-specification:Rubik-Medium;writing-mode:lr-tb;fill:#000000;fill-opacity:1;fill-rule:nonzero;stroke:none"
       id="text134"><tspan
         x="0 12.22 24.5 36.959999 49.419998 60.84 73.400002 85.459999 97 114.12 125.54 142.22 154.67999 165.96001 170.53999 181.96001 193.38 206.12 218.58 230.42 242.88 254.42 266.70001"
         y="0"
         id="tspan132">принадлежащих акционеру</tspan></text><text
       transform="matrix(1,0,0,-1,1089,345.6401)"
       style="font-variant:normal;font-weight:300;font-stretch:normal;font-size:20px;font-family:'Rubik Light';-inkscape-font-specification:Rubik-Light;writing-mode:lr-tb;fill:#000000;fill-opacity:1;fill-rule:nonzero;stroke:none"
       id="text138"><tspan
         x="0 11.2 23.52 35.880001 41.040001 52.48 62.220001 73.660004 78.82 87.900002 99.540001 111.06 114.86 126.3 138.66 143.82001 159.2 169.14"
         y="0"
         id="tspan136">208 975 763,98 шт.</tspan></text><text
       transform="matrix(1,0,0,-1,1089,293.6401)"
       style="font-variant:normal;font-weight:500;font-stretch:normal;font-size:20px;font-family:'Rubik Medium';-inkscape-font-specification:Rubik-Medium;writing-mode:lr-tb;fill:#000000;fill-opacity:1;fill-rule:nonzero;stroke:none"
       id="text142"><tspan
         x="0 14.9 26.74 38.799999 50.279999 54.860001 66.519997 71.099998 82.5 93.919998 104.52 115.94 127.6 140.06 151.89999 165.96001 170.53999 181.96001 193.38 205.60001 218.06 228.66 240.08 252.14"
         y="0"
         id="tspan140">Доля в уставном капитале</tspan></text><text
       transform="matrix(1,0,0,-1,1089,261.6401)"
       style="font-variant:normal;font-weight:300;font-stretch:normal;font-size:20px;font-family:'Rubik Light';-inkscape-font-specification:Rubik-Light;writing-mode:lr-tb;fill:#000000;fill-opacity:1;fill-rule:nonzero;stroke:none"
       id="text148"><tspan
         x="0 7.96 20.280001 32.599998 37.759998"
         y="0"
         id="tspan144">100 %</tspan><tspan
         x="-1051.4 -1039.96 -990 -977.71997 -966.56 -954.94 -943.41998 -932.26001 -920.64001 -909.91998 -899.97998 -888.06 -877.21997 -865.29999 -854.14001 -843.21997 -838.06 -827.47998 -815.96002 -804.34003 -793.62 -782.78003 -771.56 -760.64001 -748.71997 -736.79999"
         y="-761.35999"
         id="tspan146">58Корпоративное управление</tspan></text></g></svg>
