<?xml version="1.0" encoding="UTF-8" standalone="no"?>
<?xml-stylesheet type="text/css" href="main.css" ?>
<svg
   xmlns:dc="http://purl.org/dc/elements/1.1/"
   xmlns:cc="http://creativecommons.org/ns#"
   xmlns:rdf="http://www.w3.org/1999/02/22-rdf-syntax-ns#"
   xmlns:svg="http://www.w3.org/2000/svg"
   xmlns="http://www.w3.org/2000/svg"
   version="1.1"
   id="svg2"
   xml:space="preserve"
   width="2560"
   height="1440"
   viewBox="0 0 2560 1440"><metadata
     id="metadata8"><rdf:RDF><cc:Work
         rdf:about=""><dc:format>image/svg+xml</dc:format><dc:type
           rdf:resource="http://purl.org/dc/dcmitype/StillImage" /></cc:Work></rdf:RDF></metadata><defs
     id="defs6"><clipPath
       clipPathUnits="userSpaceOnUse"
       id="clipPath20"><path
         d="M 0,1080 H 1920 V 0 H 0 Z"
         id="path18" /></clipPath><clipPath
       clipPathUnits="userSpaceOnUse"
       id="clipPath98"><path
         d="M 0,0 H 1920 V 1080 H 0 Z"
         id="path96" /></clipPath><clipPath
       clipPathUnits="userSpaceOnUse"
       id="clipPath122"><path
         d="M 0,0 H 1920 V 1080 H 0 Z"
         id="path120" /></clipPath><clipPath
       clipPathUnits="userSpaceOnUse"
       id="clipPath228"><path
         d="M 0,0 H 1920 V 1080 H 0 Z"
         id="path226" /></clipPath><clipPath
       clipPathUnits="userSpaceOnUse"
       id="clipPath250"><path
         d="M 0,1080 H 1920 V 0 H 0 Z"
         id="path248" /></clipPath></defs><g
     id="g10"
     transform="matrix(1.3333333,0,0,-1.3333333,0,1440)"><g
       id="g12"><g
         id="g14"><g
           id="g16"
           clip-path="url(#clipPath20)"><path
             d="M 0,0 H 1920 V 1080 H 0 Z"
             style="fill:#ffffff;fill-opacity:1;fill-rule:nonzero;stroke:none"
             id="path22" /></g></g></g><path
       d="M 0,0 H 633 V 1080 H 0 Z"
       style="fill:#e8e8ed;fill-opacity:1;fill-rule:nonzero;stroke:none"
       id="path24" /><text
       transform="matrix(1,0,0,-1,693,875.1201)"
       style="font-variant:normal;font-weight:300;font-stretch:normal;font-size:20px;font-family:'Rubik Light';-inkscape-font-specification:Rubik-Light;writing-mode:lr-tb;fill:#000000;fill-opacity:1;fill-rule:nonzero;stroke:none"
       id="text32"><tspan
         x="0 14 24.1 36.380001 41.540001 52.700001 62.82 73.540001 83.379997 96.559998 107.4 118.12 129.03999 138.98 144.14 154.98 165.89999 176.62 186.14 191.3 200.918 212.078 225.358 236.87801 248.09801 259.01801 268.638 279.358 284.51801 294.75601 305.47601 316.69601 327.276 333.87601 338.616 343.776 354.496 365.336 375.716 385.556 396.276 408.19601 420.116 433.29599 443.65601"
         y="0"
         id="tspan26">ПГК оказывает весь комплекс услуг, связанных </tspan><tspan
         x="0 10.72 15.88 30.860001 41.700001 52.919998 63.84 73.68 85.599998 96.760002 108.28 119.44 131.06 142.22 157.2 169.12 180.28 192.2 197.36 208.88 219.8 231.42 242.34 253.17999 264.34 274.17999 283.79599 294.95599 306.87601 312.03601 320.396 331.63599 342.216 352.056 363.216 374.056"
         y="26"
         id="tspan28">с железнодорожной перевозкой грузов </tspan><tspan
         x="0 11.92 17.08 28.299999 39.459999 47.82 59.740002 70.459999 80.400002 92.32 101.938 113.098 125.018"
         y="52"
         id="tspan30">и логистикой:</tspan></text><text
       transform="matrix(1,0,0,-1,99,944.2805)"
       style="font-variant:normal;font-weight:normal;font-stretch:normal;font-size:38px;font-family:'Prosto One';-inkscape-font-specification:ProstoOne-Regular;writing-mode:lr-tb;fill:#000000;fill-opacity:1;fill-rule:nonzero;stroke:none"
       id="text38"><tspan
         x="0 30.209999 64.410004 106.21 138.13 169.28999 201.21001 233.89 264.29001"
         y="0"
         id="tspan34">КОМПАНИЯ </tspan><tspan
         x="0 30.02 57 82.080002 116.28 149.34 181.25999"
         y="45.599998"
         id="tspan36">СЕГОДНЯ</tspan></text><text
       transform="matrix(1,0,0,-1,99,819.9805)"
       style="font-variant:normal;font-weight:300;font-stretch:normal;font-size:20px;font-family:'Rubik Light';-inkscape-font-specification:Rubik-Light;writing-mode:lr-tb;fill:#000000;fill-opacity:1;fill-rule:nonzero;stroke:none"
       id="text80"><tspan
         x="0 14 24.92 36.540001 47.380001 58.099998 68.480003 73.639999 82 93.239998 103.82 113.66 124.82 135.66 146.38 156.75999 161.92 171.53799 182.698 195.978 207.498 218.218 230.138 242.058 252.438 257.59799 263.73801 277.73801 287.83801 300.11801 306.49799 311.65799 326.99799 332.15799 342.27802 353.51599 364.09601 375.616 387.53601 398.45599 410.37601 425.75601 437.67599 449.59601"
         y="0"
         id="tspan40">Первая грузовая компания (ПГК) — крупнейший </tspan><tspan
         x="0 10.84 16 28.559999 39.720001 50.439999 61.16 73.080002 85 90.160004 100.7 111.42 122.14 132.08 144 157.17999 169.10001 174.25999 185.42 196.94 207.86 219.48 230.2 240.14 251.3 262.92001 268.07999 276.44 287.67801 298.258 308.09799 319.258 330.09799 343.27802 353.638"
         y="26"
         id="tspan42">в России частный оператор грузовых </tspan><tspan
         x="0 14.98 25.82 37.040001 47.959999 57.799999 69.720001 80.879997 92.400002 103.56 115.18 126.34 141.32001 153.24001 166.42 176.78 181.94 193.46001 204.38 216 226.92 237.75999 248.92 258.76001 269.92001 280.04001 284.79999 289.95999 303.20001 314.54001 325.76001 336.48001 348 358.72 369.64001 379.57999"
         y="52"
         id="tspan44">железнодорожных перевозок. Обладает </tspan><tspan
         x="0 11.16 22.68 34.599998 46.52 59.799999 64.959999 76.879997 86.720001 91.879997 102.6 113.32 126.6 139.78 150.14 155.3 166.64 177.59801 188.81799 198.338 213.718 225.638 235.998 241.158 253.078 258.23801 268.95801 280.298 291.01801 302.23801 312.95801 324.87799 335.59799 347.51801 359.138 370.298 381.138 391.858 403.77802 415.698 428.87799 439.23801"
         y="78"
         id="tspan46">одним из самых больших и сбалансированных </tspan><tspan
         x="0 11.52 22.24 33.860001 43.48 54.639999 65.480003 70.639999 82.160004 93.32 104.84 115.68 127.6 142.58 154.5 165.66 173.778 184.938 190.09801 200.81799 211.978 222.698 232.638 243.358 254.198 264.918 270.078 280.918 286.078 296.798 306.73801 318.358 329.078 340.99799 351.918 356.67801 361.83801 375.83801 385.93799 398.21799"
         y="104"
         id="tspan48">парков подвижного состава в стране. ПГК </tspan><tspan
         x="0 11.62 22.34 33.68 44.84 54.779999 65.5 76.419998 86.360001 91.519997 102.24 107.4 118.92 130.53999 141.46001 152.98 164.5 176.12 188.03999 198.42 208.36 220.28 230.66 243.94 255.86 261.01999 270.95999 282.12 293.64001 304.85999 316.78 327.62 339.54001 350.70001"
         y="130"
         id="tspan50">работает с предприятиями топливно-</tspan><tspan
         x="0 10.72 22.639999 33.560001 45.18 53.299999 64.220001 74.160004 86.080002 96.620003 107.54 118.26 127.878 139.03799 147.158 158.31799 163.478 173.09801 184.258 197.53799 209.058 220.278 231.198 240.81799 251.53799 262.258 266.99799 272.15799 285.43799 296.358 306.298 317.01801 328.23801 339.45801 350.03799 361.65799 370.01801 381.93799 392.478 403.39801 414.11801 423.73599 434.896 446.81601 451.556"
         y="156"
         id="tspan52">энергетического комплекса, металлургической, </tspan><tspan
         x="0 8.1199999 19.280001 30.9 42.82 53.98 65.5 76.660004 88 101.18 112.02 122.74 138 153.89999 164.82001 176.74001 181.48 186.64 197.36 207.3 218.92 230.08 242 251.94 262.77802 273.99799 283.51801 295.43799 306.59799 318.51801 323.67801 335.59799 340.758 351.11801 363.03799 376.31799 388.23801 398.77802 409.698 420.418 430.03601 441.19601 453.116"
         y="182"
         id="tspan54">горнодобывающей, строительной и химической </tspan><tspan
         x="0 11.16 21.1 32.720001 43.439999 54.16 65.379997 76.300003 88.220001 92.959999 98.120003 109.64 121.26 132.42 144.34 154.17999 165.02 176.17999 187.7 199.62 209.56 220.39799 231.618 241.998 255.278 267.198 272.358 282.298 293.45801 304.298 315.01801 326.638 337.798 348.638"
         y="208"
         id="tspan56">отраслей, производителями товаров </tspan><tspan
         x="0 11.92 22.639999 34.259998 45.419998 56.939999 68.860001 80.019997 88.139999 99.300003 104.46 115.98 127.14 137.08 148.7 159.62 170.96001 182.17999 193.10001 205.02 216.94 227.32001 232.08 237.24001 248.918 260.078 273.358 284.87799 295.59799 307.51801 319.43799 329.81799 334.978 346.59799 357.31799 367.15799 377.99799 389.918 400.758 411.478 422.39801 432.33801"
         y="234"
         id="tspan58">народного потребления. Компания развивает </tspan><tspan
         x="0 10.72 21.879999 31.82 43.060001 53.639999 65.160004 77.080002 89 99.540001 110.46 121.18 131.12 141.96001 153.12 158.28 170.2 181.12 186.28 196.22 207.17799 218.39799 227.918 237.53799 248.698 253.858 264.578 269.73801 279.858 291.09799 301.67801 313.198 325.11801 336.03799 347.95801 363.33801 375.258 388.53799 400.45801"
         y="260"
         id="tspan60">сотрудничество не только с крупнейшими </tspan><tspan
         x="0 11.16 21.1 32.02 42.560001 53.48 64.199997 74.139999 84.980003 95.900002 107.82 119.74 132.92 146.2 158.12 163.28 174.8 186.42 197.58 210.86 224.03999 239.42 250.64 261.56 273.48001 285.39999 298.57999 311.85999 323.78 328.94 340.45999 351.67999 362.84 378.73999 389.45999 400.98001 411.10001 421.82001 435.10001 447.01999 451.76001"
         y="286"
         id="tspan62">отечественными промышленными площадками, </tspan><tspan
         x="0 11.92 23.08 28.24 40.16 45.32 56.84 68.459999 79.379997 90.900002 102.12 112.84 121.2 131.92 142.84 152.78 157.94 167.88 179.5 190.22 202.14 212.86 224.38 235.53999 247.16 257.10001 269.01999 282.20001 293.12 298.28 309.89999 320.82001 336.20001 347.12 359.04001 370.95999 381.34"
         y="312"
         id="tspan64">но и предлагает транспортные решения </tspan><tspan
         x="0 11.52 22.74 33.119999 38.279999 49 60.619999 71.540001 83.059998 94.980003 105.9 114.018 125.178 130.338 142.258 147.418 160.698 171.418 182.638 193.798 201.918 213.078 218.23801 229.578 241.498 251.338 263.258 274.17801 284.89801 295.61801 300.37799 305.53799 318.59799 323.758 334.67801 345.59799 350.758 360.87799 372.09799 384.01801 394.93799 406.858 416.798 427.51801 437.134 448.29401 461.57401"
         y="338"
         id="tspan66">для среднего и малого бизнеса. В ее клиентском </tspan><tspan
         x="0 11.52 22.68 34.299999 44.240002 57.82 68.660004 79.879997 90.800003 95.959999 111.3 116.46 127.62 137.23801 148.198 159.418 170.578 175.73801 186.938 192.09801 202.03799 215.218 225.938 230.698 235.858 247.37801 258.99799 269.918 281.43799 292.95801 304.578 316.49799 326.87799 336.81799 348.73801 360.65799"
         y="364"
         id="tspan68">портфеле — около 2 тыс. предприятий.</tspan><tspan
         x="0 14 25.16 35.880001 45.82 56.98 67.360001 79.279999 91.199997 102.36 113.28 118.44 128.44 139.66 150.24001 160.78 176.16 187.08 199 210.92 221.84 227 237.12 248.34 260.26001 271.17999 283.10001 293.04001 303.76001 313.37601 324.53601 332.65601 343.81601 348.97601 359.69601 370.616 382.23599 393.07599 404.996 415.716 426.436 431.17599"
         y="390"
         id="tspan70">Постоянное улучшение клиентского сервиса, </tspan><tspan
         x="0 11.62 22.34 32.18 43.02 54.939999 64.879997 75.599998 85.980003 91.139999 105.66 116.8 126.54 138.46001 150.38 163.96001 175.58 186.3 197.02 206.96001 218.198 228.778 238.89799 248.838 259.418 271.03799 281.758 286.49799 291.65799 303.578 315.49799 327.01801 338.93799 349.77802 361.698 373.21799 383.798 394.51801 405.73801 415.258 427.17801 440.358 452.27802"
         y="416"
         id="tspan72">развитая ИТ-инфраструктура, индивидуальный </tspan><tspan
         x="0 11.52 22.68 34.200001 44.560001 55.720001 67.239998 72.400002 82.519997 87.68 96.040001 107.278 117.858 127.698 138.858 150.01801 159.95799 171.478 183.09801 193.81799 204.658 216.578 226.51801 237.358 248.578 258.95801 272.23801 277.39801 289.31799 294.478 306.39801 317.31799 328.83801 340.45801 351.37799 362.99799 376.17801 387.01801 398.93799 409.65799 420.03799"
         y="442"
         id="tspan74">подход к грузоотправителям и непрерывная </tspan><tspan
         x="0 11.16 22.68 32.619999 44.540001 57.82 69.739998 79.580002 90.300003 102.32 114.24 124.62 129.78 141 152.16 160.52 172.44 183.16 193.10001 205.02 215.14 227.06 232.22 247.56 252.72 262.84 274.06 289.32001 299.85999 310.78 321.62 334.79999 345.72"
         y="468"
         id="tspan76">оптимизация логистики — ключевые </tspan><tspan
         x="0 9.6199999 20.780001 32.700001 42.82 53.400002 65.019997 75.940002 87.860001 97.800003 109.72 122.9 133.82001 138.98 150.5 162.12 173.03999 184.96001 198.24001 208.82001 224.72 235.64 246.36 256.29999 267.14001 277.85999 283.01999 297.01999 307.12 319.39999"
         y="494"
         id="tspan78">конкурентные преимущества ПГК.</tspan></text><text
       transform="matrix(1,0,0,-1,96.7996,168)"
       style="font-variant:normal;font-weight:500;font-stretch:normal;font-size:28px;font-family:'Rubik Medium';-inkscape-font-specification:Rubik-Medium;writing-mode:lr-tb;fill:#000000;fill-opacity:1;fill-rule:nonzero;stroke:none"
       id="text86"><tspan
         x="0 20.440001 37.883999 56.363998 75.599998 95.031998 114.128 120.512 135.744 154.224 171.612 189.728 209.188 228.424 247.856 266.952 273.336 294.84 301.224 320.45999 339.892 367.13599 388.444"
         y="0"
         id="tspan82">ПЕРВАЯ ГРУЗОВАЯ — ВАШИ </tspan><tspan
         x="0 20.440001 37.883999 56.363998 73.807999 93.043999 112.504 130.62 149.436 170.744 177.12801 196.364 202.748 223.188 242.62 263.508 280.952 309.84799 330.28799 355.09601"
         y="33.992001"
         id="tspan84">ПЕРЕВОЗКИ В НАДЕЖНЫХ</tspan></text><text
       transform="matrix(1,0,0,-1,96.7996,100.016)"
       style="font-variant:normal;font-weight:500;font-stretch:normal;font-size:28px;font-family:'Rubik Medium';-inkscape-font-specification:Rubik-Medium;writing-mode:lr-tb;fill:#000000;fill-opacity:1;fill-rule:nonzero;stroke:none"
       id="text90"><tspan
         x="0 18.48 35.868 54.683998 74.115997"
         y="0"
         id="tspan88">РУКАХ</tspan></text><g
       id="g92"><g
         id="g94"
         clip-path="url(#clipPath98)"><g
           id="g100"
           transform="translate(54.4,184.75)"><path
             d="m 0,0 c -1.4,1.9 -3.367,2.85 -5.9,2.85 -2.267,0 -4.084,-0.75 -5.45,-2.25 -1.367,-1.5 -2.05,-3.25 -2.05,-5.25 0,-2 0.666,-3.75 2,-5.25 1.333,-1.5 3,-2.25 5,-2.25 0.666,0 1.266,0.067 1.8,0.2 0.266,0.067 0.5,0.167 0.7,0.3 -0.267,-2 -1.15,-3.583 -2.65,-4.75 -1.5,-1.166 -3.117,-1.75 -4.85,-1.75 v -3.5 c 1.6,0 3.216,0.284 4.85,0.85 1.633,0.567 3.083,1.467 4.35,2.7 1.266,1.234 2.3,2.8 3.1,4.7 0.8,1.9 1.2,4.15 1.2,6.75 C 2.1,-4.117 1.4,-1.9 0,0 M 20,0 C 18.6,1.9 16.633,2.85 14.1,2.85 11.833,2.85 10.016,2.1 8.65,0.6 7.283,-0.9 6.6,-2.65 6.6,-4.65 c 0,-2 0.666,-3.75 2,-5.25 1.333,-1.5 3,-2.25 5,-2.25 0.666,0 1.266,0.067 1.8,0.2 0.266,0.067 0.5,0.167 0.7,0.3 -0.267,-2 -1.15,-3.583 -2.65,-4.75 -1.5,-1.166 -3.117,-1.75 -4.85,-1.75 v -3.5 c 1.6,0 3.216,0.284 4.85,0.85 1.633,0.567 3.083,1.467 4.35,2.7 1.266,1.234 2.3,2.8 3.1,4.7 0.8,1.9 1.2,4.15 1.2,6.75 0,2.533 -0.7,4.75 -2.1,6.65"
             style="fill:#faaa2d;fill-opacity:1;fill-rule:nonzero;stroke:none"
             id="path102" /></g></g></g><text
       transform="matrix(1,0,0,-1,1287,204)"
       style="font-variant:normal;font-weight:500;font-stretch:normal;font-size:20px;font-family:'Rubik Medium';-inkscape-font-specification:Rubik-Medium;writing-mode:lr-tb;fill:#000000;fill-opacity:1;fill-rule:nonzero;stroke:none"
       id="text114"><tspan
         x="0 13.74 18.299999 30.700001 43.880001 56.279999 69.459999 74.019997 82.760002 94.620003 107.2 118.64 123.2 136.06 147.92 162 174.24001 185.67999 198.16 210.64 222.16 226.72 238.58 250.53999 262.78 274.29999 286 298.48001 310.56 322 326.56 338.42001 342.98001 355.22 367.29999 378.73999 391.22 402.66 413.95999"
         y="0"
         id="tspan104">В 2020 году Компания объявила о планах </tspan><tspan
         x="0 12.48 24.959999 36.66 48.220001 59.66 70.279999 82.760002 95.040001 106.9 118.6 130.03999 140.66 151.28 155.84 167.7 178.698 190.37801 202.45799 214.31799 218.87801 232.01801 245.198 249.758 263.83801 275.918 288.198 300.77802 305.33801 317.19601 328.63599 340.59601 352.67599 364.23599 376.716 381.276 392.97601 397.53601 409.81601 421.25601 431.97601 443.67599 456.15601 466.776 479.25601 490.81601"
         y="26"
         id="tspan106">инвестировать около 80 млрд рублей в развитие </tspan><tspan
         x="0 11.46 23.540001 36.02 47.580002 60.060001 70.68 82.120003 93.117996 104.978 113.718 125.578 130.138 141.578 153.138 165.418 177.118 189.59801 201.03799 212.478 217.778 222.338 235.09801 247.578 262.858 275.138 286.99799 298.698 314.05801 325.61801 330.17801 340.798 352.358 363.65799 376.138 387.81601 399.896 411.75601 420.67599 433.15601 445.63599 450.936"
         y="52"
         id="tspan108">клиентского сервиса, цифровые технологии, </tspan><tspan
         x="0 11.44 16 26.620001 38.060001 49.52 66.699997 78.260002 82.82 94.68 106.64 119.12 130.98 142.67999 154.75999 166.32001 178.8 191.28 202.84 207.39999 219.64 231.5 244.08 255.78 268.26001 285.44 297.92001 309.78 318.51599 330.37601 334.936 346.37601 358.23599 369.67599 380.29599 391.73599 403.436 414.87601 419.436 431.13599 435.69601 447.97601 459.41599 473.496 484.95599 496.396 507.69601"
         y="78"
         id="tspan110">а также обновление подвижного состава в рамках </tspan><tspan
         x="0 12.28 23.84 35.279999 47.360001 59.84 70.559998 82 94.760002 107.24 119.72 124.28 137.98 148.60001 160.88 172.32001 182.94 194.5 203.42 215.89999 228.38 237.31799 249.718 262.89801 275.298"
         y="104"
         id="tspan112">реализации Стратегии-2023</tspan></text><g
       id="g116"><g
         id="g118"
         clip-path="url(#clipPath122)"><g
           id="g124"
           transform="translate(1357.8993,573.1783)"><path
             d="m 0,0 c -13.835,-3.49 -25.2,-8.299 -34.097,-14.432 -8.902,-6.134 -15.458,-13.531 -19.664,-22.19 -4.211,-8.66 -6.314,-18.165 -6.314,-28.504 0,-13.711 4.268,-25.257 12.809,-34.638 8.535,-9.381 20.504,-15.876 35.9,-19.484 -9.144,-1.928 -17.318,-4.815 -24.535,-8.659 -7.216,-3.851 -13.474,-8.604 -18.762,-14.252 -5.294,-5.655 -9.325,-12.031 -12.087,-19.123 -2.768,-7.098 -4.149,-14.737 -4.149,-22.912 0,-10.345 2.463,-20.205 7.396,-29.586 4.928,-9.381 12.448,-17.624 22.551,-24.716 10.103,-7.098 22.731,-12.752 37.885,-16.958 15.154,-4.206 32.834,-6.314 53.039,-6.314 20.206,0 37.885,2.108 53.039,6.314 15.155,4.206 27.783,9.86 37.886,16.958 10.102,7.092 17.617,15.335 22.55,24.716 4.928,9.381 7.397,19.241 7.397,29.586 0,8.175 -1.387,15.814 -4.149,22.912 -2.769,7.092 -6.799,13.468 -12.088,19.123 -5.293,5.648 -11.608,10.401 -18.942,14.252 -7.34,3.844 -15.459,6.731 -24.355,8.659 15.391,3.608 27.36,10.103 35.901,19.484 8.535,9.381 12.809,20.927 12.809,34.638 0,10.339 -2.109,19.844 -6.315,28.504 -4.211,8.659 -10.768,16.056 -19.664,22.19 C 125.139,-8.299 113.774,-3.49 99.945,0 86.11,3.484 69.456,5.232 49.972,5.232 30.489,5.232 13.829,3.484 0,0 m 1.082,-221.899 c -10.706,9.742 -16.056,22.309 -16.056,37.705 0,14.432 5.412,26.458 16.237,36.081 10.824,9.618 27.061,14.433 48.709,14.433 21.649,0 37.885,-4.815 48.71,-14.433 10.824,-9.623 16.236,-21.649 16.236,-36.081 0,-15.396 -5.356,-27.963 -16.056,-37.705 -10.706,-9.742 -27.004,-14.613 -48.89,-14.613 -21.891,0 -38.189,4.871 -48.89,14.613 m 8.299,125.562 c -9.02,8.057 -13.53,18.458 -13.53,31.211 0,13.71 4.51,24.653 13.53,32.833 9.02,8.175 22.551,12.268 40.591,12.268 18.041,0 31.571,-4.093 40.591,-12.268 9.021,-8.18 13.531,-19.123 13.531,-32.833 0,-12.753 -4.51,-23.154 -13.531,-31.211 -9.02,-8.061 -22.55,-12.087 -40.591,-12.087 -18.04,0 -31.571,4.026 -40.591,12.087 m 331.249,70.359 c 8.897,-3.969 16.778,-10.284 23.633,-18.943 6.856,-8.659 12.386,-19.845 16.598,-33.555 4.205,-13.711 6.314,-30.308 6.314,-49.792 0,-19.484 -2.109,-36.081 -6.314,-49.792 -4.212,-13.711 -9.742,-24.896 -16.598,-33.556 -6.855,-8.659 -14.736,-14.973 -23.633,-18.942 -8.901,-3.969 -18.04,-5.954 -27.421,-5.954 -9.381,0 -18.526,1.985 -27.422,5.954 -8.902,3.969 -16.778,10.283 -23.633,18.942 -6.855,8.66 -12.392,19.845 -16.597,33.556 -4.212,13.711 -6.314,30.308 -6.314,49.792 0,19.484 2.102,36.081 6.314,49.792 4.205,13.71 9.742,24.896 16.597,33.555 6.855,8.659 14.731,14.974 23.633,18.943 8.896,3.969 18.041,5.953 27.422,5.953 9.381,0 18.52,-1.984 27.421,-5.953 m -79.739,23.091 c -15.875,-5.412 -29.586,-13.654 -41.132,-24.715 -11.546,-11.067 -20.51,-24.958 -26.881,-41.674 -6.376,-16.721 -9.561,-36.385 -9.561,-58.992 0,-22.613 3.185,-42.277 9.561,-58.993 6.371,-16.721 15.335,-30.612 26.881,-41.673 11.546,-11.067 25.257,-19.304 41.132,-24.716 15.876,-5.412 33.313,-8.118 52.318,-8.118 18.999,0 36.442,2.706 52.317,8.118 15.876,5.412 29.587,13.649 41.133,24.716 11.546,11.061 20.504,24.952 26.88,41.673 6.371,16.716 9.562,36.38 9.562,58.993 0,22.607 -3.191,42.271 -9.562,58.992 -6.376,16.716 -15.334,30.607 -26.88,41.674 -11.546,11.061 -25.257,19.303 -41.133,24.715 -15.875,5.413 -33.318,8.119 -52.317,8.119 -19.005,0 -36.442,-2.706 -52.318,-8.119"
             style="fill:#faaa2d;fill-opacity:1;fill-rule:nonzero;stroke:none"
             id="path126" /></g></g></g><text
       transform="matrix(1,0,0,-1,1287,875.1201)"
       style="font-variant:normal;font-weight:300;font-stretch:normal;font-size:20px;font-family:'Rubik Light';-inkscape-font-specification:Rubik-Light;writing-mode:lr-tb;fill:#000000;fill-opacity:1;fill-rule:nonzero;stroke:none"
       id="text150"><tspan
         x="0 12.64 23.860001 34.580002 42.700001 53.860001 65.379997 76.099998 87.720001 98.099998 103.26 114.88 125.6 135.44 146.28 158.2 168.14 179.3 191.22 196.38 209.96001 221.88 233.10001 245.02 255.74001 266.95999 276.48001 288.39999 299.56 311.48001 316.64001 327.35999 338.28 348.22 360.14001 365.29999 376.45999 387.98001 398.89999 410.51999 421.23999 431.17999 442.34 453.95999"
         y="0"
         id="tspan128">Благодаря развитой филиальной сети оператор </tspan><tspan
         x="0 11.16 21.280001 32 41.84 55.02 65.860001 76.580002 87.5 97.440002 102.6 114.12 125.078 136.298 148.218 161.39799 173.31799 178.478 188.09801 199.258 212.53799 224.058 235.278 246.198 255.81799 266.53799 271.698 282.918 294.078 302.43799 314.358 325.078 335.01801 346.93799 357.478 368.39801 379.11801 389.23801 401.15799 411.51801 416.67801 426.91599 437.63599 448.85599 459.436 467.79599 472.616"
         y="26"
         id="tspan130">оказывает полный комплекс логистических услуг: </tspan><tspan
         x="0 11.16 21.1 26.26 37.779999 48.939999 60.459999 68.580002 79.739998 89.68 100.84 111.68 121.8 133.72 138.88 149.72 160.44 168.558 179.718 191.638 202.798 213.638 218.798 230.31799 241.478 246.638 257.798 269.418 277.77802 288.49799 300.418 312.33801 322.17801 332.89801 344.918 356.83801 368.758 373.918 387.198 398.11801 413.09799 424.61801 435.198 447.11801 457.83801 469.45801 480.61801 492.138 504.05801 517.23798 527.59802"
         y="52"
         id="tspan132">от подготовки вагонов до организации международных </tspan><tspan
         x="0 13.28 23.280001 34.5 44.02 53.959999 65.879997 79.160004 90.32 101.84 112.56 123.78 133.3 145.22 158.39999 168.75999 173.92 185.44 196.36 207.98 218.89999 229.74001 240.89999 250.74001 261.89999 272.01999 277.17999 292.51999 297.67999 309.60001 320.32001 325.48001 336.32001 347.04001 357.95999 371.23999 376.39999 387.92001 399.54001 410.70001 421.42001 431.35999 442.98001 453.70001 465.62 476.34 486.28 497.12 508.04001"
         y="78"
         id="tspan134">мультимодальных перевозок — на всем пространстве </tspan><tspan
         x="0 9.6199999 20.58 31.799999 42.720001 54.639999 59.799999 67.760002 79.199997 90.400002 102.34 107.1 112.26 127.86 138.58 149.3 164.67999 174.62 185.34 196.67999 208.60001 219.32001 229.7 234.86 246.88 258.79999 272.38 284 295.16 306 316.72 327.10001 332.26001 342.20001 353.82001 364.54001 376.45999 387.17999 400.76001 411.92001 423.54001 436.82001 447.54001 459.56 471.48001 481.85999 486.60001"
         y="104"
         id="tspan136">колеи 1520. Масштабная цифровая трансформация, </tspan><tspan
         x="0 9.6199999 20.780001 30.719999 41.880001 53.5 64.220001 74.599998 79.760002 91.279999 102.9 114.06 125.98 136.7 147.06 158.22 169.74001 181.66 191.60001 196.75999 207.60001 212.75999 226.75999 236.86 249.14 253.88 259.04001 269.76001 281.28 292.44 303.16 314.32001 325.66 336.38 346.32001 357.16 367.396 378.31601 388.25601 393.41599 404.57599 416.09601 427.01599 438.63599 449.35599 459.29599 471.216 482.056 493.97601 505.13599 518.41602 528.99597"
         y="130"
         id="tspan138">которая происходит в ПГК, способствует оперативному </tspan><tspan
         x="0 11.92 17.08 25.440001 37.360001 48.700001 58.32 69.480003 82.760002 93.339996 98.5 110.12 121.04 131.75999 140.12 152.03999 163.66 174.82001 185.66 196.38 208.3 220.22 235.48 240.64 252.56 263.28 268.44 280.06 293.23999 305.16 316.32001 326.85999 338.78 351.95999 362.88 368.04001 379.95999 389.79999 403.07999 414 425.92001 436.84 448.76001 460.67999 471.06 475.79999"
         y="156"
         id="tspan140">и гибкому реагированию на рыночные изменения, </tspan><tspan
         x="0 11.52 22.68 33.52 46.700001 62.080002 73 84.919998 96.839996 112.1 117.26 127.98 137.59801 148.758 160.37801 171.53799 182.258 192.198 204.118 209.278 220.89799 231.81799 242.53799 252.658 264.67801 276.59799 288.51801 293.67801 305.59799 316.31799 321.478 331.31799 342.03799 353.55801 365.17801 376.33801 387.05801 400.23801"
         y="182"
         id="tspan142">повышению скорости реакции на запросы </tspan><tspan
         x="0 8.3599997 19.6 30.18 40.02 51.18 62.34 72.279999 83.800003 95.419998 106.14 116.98 128.89999 138.84 149.67799 160.89799 171.81799 183.73801"
         y="208"
         id="tspan144">грузоотправителей.</tspan><tspan
         x="-570 -558.84003 -547.32001 -536.40002 -524.78003 -512.85999 -501.23999 -490.07999 -479.23999 -468.51999 -456.60001 -444.67999 -433.76001"
         y="92.400002"
         id="tspan146">оперирование </tspan><tspan
         x="-570 -558.47998 -547.32001 -535.79999 -524.96002 -513.03998 -498.06 -486.14001 -472.95999 -459.67999 -455.08401 -444.36401 -433.20401 -422.48401 -412.54401 -401.82401 -390.98401 -379.82401"
         y="118.4"
         id="tspan148">подвижным составом</tspan></text><g
       id="g152"
       transform="translate(695,793.1211)"><path
         d="M 0,0 V -36.398"
         style="fill:none;stroke:#e8e8ed;stroke-width:4;stroke-linecap:butt;stroke-linejoin:miter;stroke-miterlimit:4;stroke-dasharray:none;stroke-opacity:1"
         id="path154" /></g><text
       transform="matrix(1,0,0,-1,717,716.3201)"
       style="font-variant:normal;font-weight:300;font-stretch:normal;font-size:20px;font-family:'Rubik Light';-inkscape-font-specification:Rubik-Light;writing-mode:lr-tb;fill:#000000;fill-opacity:1;fill-rule:nonzero;stroke:none"
       id="text160"><tspan
         x="0 10.72 20.34 31.059999 42.580002 53.5 65.019997 76.940002 88.559998 99.720001 110.56 121.28 133.2 145.12 156.03999"
         y="0"
         id="tspan156">экспедирование </tspan><tspan
         x="0 8.3599997 19.6 30.18 40.02 51.18"
         y="26"
         id="tspan158">грузов</tspan></text><g
       id="g162"
       transform="translate(695,726.7187)"><path
         d="M 0,0 V -36.398"
         style="fill:none;stroke:#e8e8ed;stroke-width:4;stroke-linecap:butt;stroke-linejoin:miter;stroke-miterlimit:4;stroke-dasharray:none;stroke-opacity:1"
         id="path164" /></g><text
       transform="matrix(1,0,0,-1,717.0001,583.5201)"
       style="font-variant:normal;font-weight:300;font-stretch:normal;font-size:20px;font-family:'Rubik Light';-inkscape-font-specification:Rubik-Light;writing-mode:lr-tb;fill:#000000;fill-opacity:1;fill-rule:nonzero;stroke:none"
       id="text170"><tspan
         x="0 11.52 22.68 34.200001 42.32 53.48 63.419998 74.580002 85.419998 95.540001 106.26"
         y="0"
         id="tspan166">подготовка </tspan><tspan
         x="0 10.84 21.559999 29.68 40.84 52.759998 63.919998 74.760002 79.559998 89.68 94.480003 106 117.16 125.52 136.75999 147.34 157.17999 166.8"
         y="26"
         id="tspan168">вагонов к погрузке</tspan></text><g
       id="g172"
       transform="translate(695,593.9219)"><path
         d="M 0,0 V -36.398"
         style="fill:none;stroke:#e8e8ed;stroke-width:4;stroke-linecap:butt;stroke-linejoin:miter;stroke-miterlimit:4;stroke-dasharray:none;stroke-opacity:1"
         id="path174" /></g><text
       transform="matrix(1,0,0,-1,717.0001,517.1201)"
       style="font-variant:normal;font-weight:300;font-stretch:normal;font-size:20px;font-family:'Rubik Light';-inkscape-font-specification:Rubik-Light;writing-mode:lr-tb;fill:#000000;fill-opacity:1;fill-rule:nonzero;stroke:none"
       id="text180"><tspan
         x="0 10.58 22.1 33.720001 44.439999 55.279999 66.5 77.419998 89.339996 101.26 112.18 117.34 128.17999 140.10001 150.67999 160.62 172.24001 183.16 195.08 207 217.92 229.84"
         y="0"
         id="tspan176">управление внутренней </tspan><tspan
         x="0 11.22 22.379999 30.74 42.66 53.380001 63.32 75.239998 84.860001 96.019997 107.94 112.648 124.168 135.78799 146.70799 158.228 169.748 181.368 193.28799 203.668 213.608 225.528"
         y="26"
         id="tspan178">логистикой предприятий</tspan></text><g
       id="g182"
       transform="translate(695,527.5195)"><path
         d="M 0,0 V -36.398"
         style="fill:none;stroke:#e8e8ed;stroke-width:4;stroke-linecap:butt;stroke-linejoin:miter;stroke-miterlimit:4;stroke-dasharray:none;stroke-opacity:1"
         id="path184" /></g><text
       transform="matrix(1,0,0,-1,717,649.9201)"
       style="font-variant:normal;font-weight:300;font-stretch:normal;font-size:20px;font-family:'Rubik Light';-inkscape-font-specification:Rubik-Light;writing-mode:lr-tb;fill:#000000;fill-opacity:1;fill-rule:nonzero;stroke:none"
       id="text190"><tspan
         x="0 11.52 22.68 34.200001 42.32 53.48 63.419998 74.580002 85.419998 95.540001 106.26 111.42 122.26 132.98 141.09801 152.258 164.17799 175.338 186.17799 191.338 201.45799 206.618 218.138 229.058 240.67799 251.59801 262.43799 273.59799 283.43799 293.55801 304.27802 317.55801"
         y="0"
         id="tspan186">подготовка вагонов к перевозкам </tspan><tspan
         x="0 11.92 22.639999 27.799999 39.32 50.939999 62.099998 75.379997 88.559998 99.400002 110.56 121.1 133.02 144.17999 153.92 165.44 177.06 188.22 199.74001 210.46001 222.08 233.24001 243.78 255.7 268.88 279.23999 284.39999 295.12 305.06 315.78 327.70001 339.72 351.64001 362.01999 372.38 377.54001 383.67599 397.67599 411.67599 424.69601"
         y="26"
         id="tspan188">на промывочно-пропарочных станциях (ППС)</tspan></text><g
       id="g192"
       transform="translate(695,660.3203)"><path
         d="M 0,0 V -36.398"
         style="fill:none;stroke:#e8e8ed;stroke-width:4;stroke-linecap:butt;stroke-linejoin:miter;stroke-miterlimit:4;stroke-dasharray:none;stroke-opacity:1"
         id="path194" /></g><g
       id="g196"
       transform="translate(695,394.7187)"><path
         d="M 0,0 V -36.398"
         style="fill:none;stroke:#e8e8ed;stroke-width:4;stroke-linecap:butt;stroke-linejoin:miter;stroke-miterlimit:4;stroke-dasharray:none;stroke-opacity:1"
         id="path198" /></g><text
       transform="matrix(1,0,0,-1,717,384.3201)"
       style="font-variant:normal;font-weight:300;font-stretch:normal;font-size:20px;font-family:'Rubik Light';-inkscape-font-specification:Rubik-Light;writing-mode:lr-tb;fill:#000000;fill-opacity:1;fill-rule:nonzero;stroke:none"
       id="text208"><tspan
         x="0 11.52 23.139999 34.060001 45.580002 56.740002 67.459999 77.400002 88.120003 98.959999 110.18 121.1 133.02 144.94 155.86"
         y="0"
         id="tspan200">предоставление </tspan><tspan
         x="0 10.84 21.559999 29.68 40.84 52.759998 63.919998 74.760002 79.730003 90.57 95.540001 106.26 117.88 128.8 140.72 152.24001"
         y="26"
         id="tspan202">вагонов в аренду</tspan><tspan
         x="0 11.62 22.540001 35.82 46.98 58.900002 68.839996 72.741997 84.262001 95.421997 106.942 117.782 129.702 144.68201 156.60201 167.76199 175.882 187.04201"
         y="-66.400002"
         id="tspan204">ремонт подвижного </tspan><tspan
         x="0 10.72 21.879999 32.599998 42.540001 53.259998 64.099998"
         y="-40.400002"
         id="tspan206">состава</tspan></text><g
       id="g210"
       transform="translate(695,461.1211)"><path
         d="M 0,0 V -36.398"
         style="fill:none;stroke:#e8e8ed;stroke-width:4;stroke-linecap:butt;stroke-linejoin:miter;stroke-miterlimit:4;stroke-dasharray:none;stroke-opacity:1"
         id="path212" /></g><text
       transform="matrix(1,0,0,-1,693,953.8201)"
       style="font-variant:normal;font-weight:500;font-stretch:normal;font-size:28px;font-family:'Rubik Medium';-inkscape-font-specification:Rubik-Medium;writing-mode:lr-tb;fill:#000000;fill-opacity:1;fill-rule:nonzero;stroke:none"
       id="text216"><tspan
         x="0 20.440001 36.456001 59.136002 76.608002 82.991997 98.475998 114.492 131.40401 147.42 159.908"
         y="0"
         id="tspan214">Наши услуги</tspan></text><g
       id="g218"
       transform="translate(693,102)"><path
         d="M 0,0 H 534"
         style="fill:none;stroke:#e8f0ec;stroke-width:4;stroke-linecap:butt;stroke-linejoin:miter;stroke-miterlimit:4;stroke-dasharray:none;stroke-opacity:1"
         id="path220" /></g><g
       id="g222"><g
         id="g224"
         clip-path="url(#clipPath228)"><g
           id="g230"
           transform="translate(1781,578.41)"><path
             d="m 0,0 h -142 c -11.046,0 -20,-8.954 -20,-20 0,-11.046 8.954,-20 20,-20 H 0 c 11.046,0 20,8.954 20,20 C 20,-8.954 11.046,0 0,0"
             style="fill:#e8e8ed;fill-opacity:1;fill-rule:nonzero;stroke:none"
             id="path232" /></g></g></g><text
       transform="matrix(1,0,0,-1,1646.5,551.1255)"
       style="font-variant:normal;font-weight:500;font-stretch:normal;font-size:28px;font-family:'Rubik Medium';-inkscape-font-specification:Rubik-Medium;writing-mode:lr-tb;fill:#000000;fill-opacity:1;fill-rule:nonzero;stroke:none"
       id="text236"><tspan
         x="0 19.712 36.624001 53.816002 71.428001 77.635597 94.239601 110.2556"
         y="0"
         id="tspan234">млрд руб</tspan></text><text
       transform="matrix(1,0,0,-1,43.6801,1023)"
       style="font-variant:normal;font-weight:300;font-stretch:normal;font-size:20px;font-family:'Rubik Light';-inkscape-font-specification:Rubik-Light;writing-mode:lr-tb;fill:#000000;fill-opacity:1;fill-rule:nonzero;stroke:none"
       id="text240"><tspan
         x="0"
         y="0"
         id="tspan238">6</tspan></text><g
       id="g242"><g
         id="g244"><g
           id="g246"
           clip-path="url(#clipPath250)"><text
             transform="matrix(1,0,0,-1,99,1023)"
             style="font-variant:normal;font-weight:300;font-stretch:normal;font-size:20px;font-family:'Rubik Light';-inkscape-font-specification:Rubik-Light;writing-mode:lr-tb;fill:#000000;fill-opacity:1;fill-rule:nonzero;stroke:none"
             id="text254"><tspan
               x="0 13.24 18.4 28.02 39.18 52.459999 63.98 74.699997 86.620003 98.540001"
               y="0"
               id="tspan252">О компании</tspan></text></g></g></g></g></svg>
