<?xml version="1.0" encoding="UTF-8" standalone="no"?>
<?xml-stylesheet type="text/css" href="main.css" ?>
<svg
   xmlns:dc="http://purl.org/dc/elements/1.1/"
   xmlns:cc="http://creativecommons.org/ns#"
   xmlns:rdf="http://www.w3.org/1999/02/22-rdf-syntax-ns#"
   xmlns:svg="http://www.w3.org/2000/svg"
   xmlns="http://www.w3.org/2000/svg"
   version="1.1"
   id="svg2"
   xml:space="preserve"
   width="2560"
   height="1440"
   viewBox="0 0 2560 1440"><metadata
     id="metadata8"><rdf:RDF><cc:Work
         rdf:about=""><dc:format>image/svg+xml</dc:format><dc:type
           rdf:resource="http://purl.org/dc/dcmitype/StillImage" /></cc:Work></rdf:RDF></metadata><defs
     id="defs6"><clipPath
       clipPathUnits="userSpaceOnUse"
       id="clipPath20"><path
         d="M 0,1080 H 1920 V 0 H 0 Z"
         id="path18" /></clipPath><clipPath
       clipPathUnits="userSpaceOnUse"
       id="clipPath100"><path
         d="M 0,0 H 1920 V 1080 H 0 Z"
         id="path98" /></clipPath><linearGradient
       x1="0"
       y1="0"
       x2="1"
       y2="0"
       gradientUnits="userSpaceOnUse"
       gradientTransform="matrix(545.29187,292.38293,292.38293,-545.29187,1280.4444,350.06281)"
       spreadMethod="pad"
       id="linearGradient230"><stop
         style="stop-opacity:1;stop-color:#faaa2d"
         offset="0"
         id="stop226" /><stop
         style="stop-opacity:1;stop-color:#2960a1"
         offset="1"
         id="stop228" /></linearGradient><clipPath
       clipPathUnits="userSpaceOnUse"
       id="clipPath240"><path
         d="M 0,0 H 1920 V 1080 H 0 Z"
         id="path238" /></clipPath><clipPath
       clipPathUnits="userSpaceOnUse"
       id="clipPath262"><path
         d="M 0,1080 H 1920 V 0 H 0 Z"
         id="path260" /></clipPath></defs><g
     id="g10"
     transform="matrix(1.3333333,0,0,-1.3333333,0,1440)"><g
       id="g12"><g
         id="g14"><g
           id="g16"
           clip-path="url(#clipPath20)"><path
             d="M 0,0 H 1920 V 1080 H 0 Z"
             style="fill:#ffffff;fill-opacity:1;fill-rule:nonzero;stroke:none"
             id="path22" /></g></g></g><path
       d="M 0,0 H 633 V 1080 H 0 Z"
       style="fill:#e8e8ed;fill-opacity:1;fill-rule:nonzero;stroke:none"
       id="path24" /><text
       transform="matrix(1,0,0,-1,693,875.1201)"
       style="font-variant:normal;font-weight:300;font-stretch:normal;font-size:20px;font-family:'Rubik Light';-inkscape-font-specification:Rubik-Light;writing-mode:lr-tb;fill:#000000;fill-opacity:1;fill-rule:nonzero;stroke:none"
       id="text32"><tspan
         x="0 14 24.1 36.380001 41.540001 52.700001 62.82 73.540001 83.379997 96.559998 107.4 118.12 129.03999 138.98 144.14 154.98 165.89999 176.62 186.14 191.3 200.918 212.078 225.358 236.87801 248.09801 259.01801 268.638 279.358 284.51801 294.75601 305.47601 316.69601 327.276 333.87601 338.616 343.776 354.496 365.336 375.716 385.556 396.276 408.19601 420.116 433.29599 443.65601"
         y="0"
         id="tspan26">ПГК оказывает весь комплекс услуг, связанных </tspan><tspan
         x="0 10.72 15.88 30.860001 41.700001 52.919998 63.84 73.68 85.599998 96.760002 108.28 119.44 131.06 142.22 157.2 169.12 180.28 192.2 197.36 208.88 219.8 231.42 242.34 253.17999 264.34 274.17999 283.79599 294.95599 306.87601 312.03601 320.396 331.63599 342.216 352.056 363.216 374.056"
         y="26"
         id="tspan28">с железнодорожной перевозкой грузов </tspan><tspan
         x="0 11.92 17.08 28.299999 39.459999 47.82 59.740002 70.459999 80.400002 92.32 101.938 113.098 125.018"
         y="52"
         id="tspan30">и логистикой:</tspan></text><text
       transform="matrix(1,0,0,-1,99,944.2805)"
       style="font-variant:normal;font-weight:normal;font-stretch:normal;font-size:38px;font-family:'Prosto One';-inkscape-font-specification:ProstoOne-Regular;writing-mode:lr-tb;fill:#000000;fill-opacity:1;fill-rule:nonzero;stroke:none"
       id="text38"><tspan
         x="0 30.209999 64.410004 106.21 138.13 169.28999 201.21001 233.89 264.29001"
         y="0"
         id="tspan34">КОМПАНИЯ </tspan><tspan
         x="0 30.02 57 82.080002 116.28 149.34 181.25999"
         y="45.599998"
         id="tspan36">СЕГОДНЯ</tspan></text><text
       transform="matrix(1,0,0,-1,99,819.9805)"
       style="font-variant:normal;font-weight:300;font-stretch:normal;font-size:20px;font-family:'Rubik Light';-inkscape-font-specification:Rubik-Light;writing-mode:lr-tb;fill:#000000;fill-opacity:1;fill-rule:nonzero;stroke:none"
       id="text80"><tspan
         x="0 14 24.92 36.540001 47.380001 58.099998 68.480003 73.639999 82 93.239998 103.82 113.66 124.82 135.66 146.38 156.75999 161.92 171.53799 182.698 195.978 207.498 218.218 230.138 242.058 252.438 257.59799 263.73801 277.73801 287.83801 300.11801 306.49799 311.65799 326.99799 332.15799 342.27802 353.51599 364.09601 375.616 387.53601 398.45599 410.37601 425.75601 437.67599 449.59601"
         y="0"
         id="tspan40">Первая грузовая компания (ПГК) — крупнейший </tspan><tspan
         x="0 10.84 16 28.559999 39.720001 50.439999 61.16 73.080002 85 90.160004 100.7 111.42 122.14 132.08 144 157.17999 169.10001 174.25999 185.42 196.94 207.86 219.48 230.2 240.14 251.3 262.92001 268.07999 276.44 287.67801 298.258 308.09799 319.258 330.09799 343.27802 353.638"
         y="26"
         id="tspan42">в России частный оператор грузовых </tspan><tspan
         x="0 14.98 25.82 37.040001 47.959999 57.799999 69.720001 80.879997 92.400002 103.56 115.18 126.34 141.32001 153.24001 166.42 176.78 181.94 193.46001 204.38 216 226.92 237.75999 248.92 258.76001 269.92001 280.04001 284.79999 289.95999 303.20001 314.54001 325.76001 336.48001 348 358.72 369.64001 379.57999"
         y="52"
         id="tspan44">железнодорожных перевозок. Обладает </tspan><tspan
         x="0 11.16 22.68 34.599998 46.52 59.799999 64.959999 76.879997 86.720001 91.879997 102.6 113.32 126.6 139.78 150.14 155.3 166.64 177.59801 188.81799 198.338 213.718 225.638 235.998 241.158 253.078 258.23801 268.95801 280.298 291.01801 302.23801 312.95801 324.87799 335.59799 347.51801 359.138 370.298 381.138 391.858 403.77802 415.698 428.87799 439.23801"
         y="78"
         id="tspan46">одним из самых больших и сбалансированных </tspan><tspan
         x="0 11.52 22.24 33.860001 43.48 54.639999 65.480003 70.639999 82.160004 93.32 104.84 115.68 127.6 142.58 154.5 165.66 173.778 184.938 190.09801 200.81799 211.978 222.698 232.638 243.358 254.198 264.918 270.078 280.918 286.078 296.798 306.73801 318.358 329.078 340.99799 351.918 356.67801 361.83801 375.83801 385.93799 398.21799"
         y="104"
         id="tspan48">парков подвижного состава в стране. ПГК </tspan><tspan
         x="0 11.62 22.34 33.68 44.84 54.779999 65.5 76.419998 86.360001 91.519997 102.24 107.4 118.92 130.53999 141.46001 152.98 164.5 176.12 188.03999 198.42 208.36 220.28 230.66 243.94 255.86 261.01999 270.95999 282.12 293.64001 304.85999 316.78 327.62 339.54001 350.70001"
         y="130"
         id="tspan50">работает с предприятиями топливно-</tspan><tspan
         x="0 10.72 22.639999 33.560001 45.18 53.299999 64.220001 74.160004 86.080002 96.620003 107.54 118.26 127.878 139.03799 147.158 158.31799 163.478 173.09801 184.258 197.53799 209.058 220.278 231.198 240.81799 251.53799 262.258 266.99799 272.15799 285.43799 296.358 306.298 317.01801 328.23801 339.45801 350.03799 361.65799 370.01801 381.93799 392.478 403.39801 414.11801 423.73599 434.896 446.81601 451.556"
         y="156"
         id="tspan52">энергетического комплекса, металлургической, </tspan><tspan
         x="0 8.1199999 19.280001 30.9 42.82 53.98 65.5 76.660004 88 101.18 112.02 122.74 138 153.89999 164.82001 176.74001 181.48 186.64 197.36 207.3 218.92 230.08 242 251.94 262.77802 273.99799 283.51801 295.43799 306.59799 318.51801 323.67801 335.59799 340.758 351.11801 363.03799 376.31799 388.23801 398.77802 409.698 420.418 430.03601 441.19601 453.116"
         y="182"
         id="tspan54">горнодобывающей, строительной и химической </tspan><tspan
         x="0 11.16 21.1 32.720001 43.439999 54.16 65.379997 76.300003 88.220001 92.959999 98.120003 109.64 121.26 132.42 144.34 154.17999 165.02 176.17999 187.7 199.62 209.56 220.39799 231.618 241.998 255.278 267.198 272.358 282.298 293.45801 304.298 315.01801 326.638 337.798 348.638"
         y="208"
         id="tspan56">отраслей, производителями товаров </tspan><tspan
         x="0 11.92 22.639999 34.259998 45.419998 56.939999 68.860001 80.019997 88.139999 99.300003 104.46 115.98 127.14 137.08 148.7 159.62 170.96001 182.17999 193.10001 205.02 216.94 227.32001 232.08 237.24001 248.918 260.078 273.358 284.87799 295.59799 307.51801 319.43799 329.81799 334.978 346.59799 357.31799 367.15799 377.99799 389.918 400.758 411.478 422.39801 432.33801"
         y="234"
         id="tspan58">народного потребления. Компания развивает </tspan><tspan
         x="0 10.72 21.879999 31.82 43.060001 53.639999 65.160004 77.080002 89 99.540001 110.46 121.18 131.12 141.96001 153.12 158.28 170.2 181.12 186.28 196.22 207.17799 218.39799 227.918 237.53799 248.698 253.858 264.578 269.73801 279.858 291.09799 301.67801 313.198 325.11801 336.03799 347.95801 363.33801 375.258 388.53799 400.45801"
         y="260"
         id="tspan60">сотрудничество не только с крупнейшими </tspan><tspan
         x="0 11.16 21.1 32.02 42.560001 53.48 64.199997 74.139999 84.980003 95.900002 107.82 119.74 132.92 146.2 158.12 163.28 174.8 186.42 197.58 210.86 224.03999 239.42 250.64 261.56 273.48001 285.39999 298.57999 311.85999 323.78 328.94 340.45999 351.67999 362.84 378.73999 389.45999 400.98001 411.10001 421.82001 435.10001 447.01999 451.76001"
         y="286"
         id="tspan62">отечественными промышленными площадками, </tspan><tspan
         x="0 11.92 23.08 28.24 40.16 45.32 56.84 68.459999 79.379997 90.900002 102.12 112.84 121.2 131.92 142.84 152.78 157.94 167.88 179.5 190.22 202.14 212.86 224.38 235.53999 247.16 257.10001 269.01999 282.20001 293.12 298.28 309.89999 320.82001 336.20001 347.12 359.04001 370.95999 381.34"
         y="312"
         id="tspan64">но и предлагает транспортные решения </tspan><tspan
         x="0 11.52 22.74 33.119999 38.279999 49 60.619999 71.540001 83.059998 94.980003 105.9 114.018 125.178 130.338 142.258 147.418 160.698 171.418 182.638 193.798 201.918 213.078 218.23801 229.578 241.498 251.338 263.258 274.17801 284.89801 295.61801 300.37799 305.53799 318.59799 323.758 334.67801 345.59799 350.758 360.87799 372.09799 384.01801 394.93799 406.858 416.798 427.51801 437.134 448.29401 461.57401"
         y="338"
         id="tspan66">для среднего и малого бизнеса. В ее клиентском </tspan><tspan
         x="0 11.52 22.68 34.299999 44.240002 57.82 68.660004 79.879997 90.800003 95.959999 111.3 116.46 127.62 137.23801 148.198 159.418 170.578 175.73801 186.938 192.09801 202.03799 215.218 225.938 230.698 235.858 247.37801 258.99799 269.918 281.43799 292.95801 304.578 316.49799 326.87799 336.81799 348.73801 360.65799"
         y="364"
         id="tspan68">портфеле — около 2 тыс. предприятий.</tspan><tspan
         x="0 14 25.16 35.880001 45.82 56.98 67.360001 79.279999 91.199997 102.36 113.28 118.44 128.44 139.66 150.24001 160.78 176.16 187.08 199 210.92 221.84 227 237.12 248.34 260.26001 271.17999 283.10001 293.04001 303.76001 313.37601 324.53601 332.65601 343.81601 348.97601 359.69601 370.616 382.23599 393.07599 404.996 415.716 426.436 431.17599"
         y="390"
         id="tspan70">Постоянное улучшение клиентского сервиса, </tspan><tspan
         x="0 11.62 22.34 32.18 43.02 54.939999 64.879997 75.599998 85.980003 91.139999 105.66 116.8 126.54 138.46001 150.38 163.96001 175.58 186.3 197.02 206.96001 218.198 228.778 238.89799 248.838 259.418 271.03799 281.758 286.49799 291.65799 303.578 315.49799 327.01801 338.93799 349.77802 361.698 373.21799 383.798 394.51801 405.73801 415.258 427.17801 440.358 452.27802"
         y="416"
         id="tspan72">развитая ИТ-инфраструктура, индивидуальный </tspan><tspan
         x="0 11.52 22.68 34.200001 44.560001 55.720001 67.239998 72.400002 82.519997 87.68 96.040001 107.278 117.858 127.698 138.858 150.01801 159.95799 171.478 183.09801 193.81799 204.658 216.578 226.51801 237.358 248.578 258.95801 272.23801 277.39801 289.31799 294.478 306.39801 317.31799 328.83801 340.45801 351.37799 362.99799 376.17801 387.01801 398.93799 409.65799 420.03799"
         y="442"
         id="tspan74">подход к грузоотправителям и непрерывная </tspan><tspan
         x="0 11.16 22.68 32.619999 44.540001 57.82 69.739998 79.580002 90.300003 102.32 114.24 124.62 129.78 141 152.16 160.52 172.44 183.16 193.10001 205.02 215.14 227.06 232.22 247.56 252.72 262.84 274.06 289.32001 299.85999 310.78 321.62 334.79999 345.72"
         y="468"
         id="tspan76">оптимизация логистики — ключевые </tspan><tspan
         x="0 9.6199999 20.780001 32.700001 42.82 53.400002 65.019997 75.940002 87.860001 97.800003 109.72 122.9 133.82001 138.98 150.5 162.12 173.03999 184.96001 198.24001 208.82001 224.72 235.64 246.36 256.29999 267.14001 277.85999 283.01999 297.01999 307.12 319.39999"
         y="494"
         id="tspan78">конкурентные преимущества ПГК.</tspan></text><text
       transform="matrix(1,0,0,-1,96.7996,168)"
       style="font-variant:normal;font-weight:500;font-stretch:normal;font-size:28px;font-family:'Rubik Medium';-inkscape-font-specification:Rubik-Medium;writing-mode:lr-tb;fill:#000000;fill-opacity:1;fill-rule:nonzero;stroke:none"
       id="text84"><tspan
         x="0 20.440001 35.672001 54.487999 60.872002 82.375999 88.760002 109.2 128.632 155.87601 177.18401 183.56799 202.048 219.492 246.73599 264.17999 284.62 305.92801"
         y="0"
         id="tspan82">ПГК — НАШИ РЕШЕНИЯ</tspan></text><text
       transform="matrix(1,0,0,-1,96.7996,134.008)"
       style="font-variant:normal;font-weight:500;font-stretch:normal;font-size:28px;font-family:'Rubik Medium';-inkscape-font-specification:Rubik-Medium;writing-mode:lr-tb;fill:#000000;fill-opacity:1;fill-rule:nonzero;stroke:none"
       id="text88"><tspan
         x="0 18.48 37.911999 56.084 75.543999 92.512001 111.944 139.832 156.8 163.18401 183.62399 203.056 209.44 229.88 249.312 276.556 297.86401"
         y="0"
         id="tspan86">РАБОТАЮТ НА НАШИХ</tspan></text><text
       transform="matrix(1,0,0,-1,96.7996,100.016)"
       style="font-variant:normal;font-weight:500;font-stretch:normal;font-size:28px;font-family:'Rubik Medium';-inkscape-font-specification:Rubik-Medium;writing-mode:lr-tb;fill:#000000;fill-opacity:1;fill-rule:nonzero;stroke:none"
       id="text92"><tspan
         x="0 18.816 39.396 60.703999 78.148003 98.587997 115.556 135.01601"
         y="0"
         id="tspan90">КЛИЕНТОВ</tspan></text><g
       id="g94"><g
         id="g96"
         clip-path="url(#clipPath100)"><g
           id="g102"
           transform="translate(54.4,184.75)"><path
             d="m 0,0 c -1.4,1.9 -3.367,2.85 -5.9,2.85 -2.267,0 -4.084,-0.75 -5.45,-2.25 -1.367,-1.5 -2.05,-3.25 -2.05,-5.25 0,-2 0.666,-3.75 2,-5.25 1.333,-1.5 3,-2.25 5,-2.25 0.666,0 1.266,0.067 1.8,0.2 0.266,0.067 0.5,0.167 0.7,0.3 -0.267,-2 -1.15,-3.583 -2.65,-4.75 -1.5,-1.166 -3.117,-1.75 -4.85,-1.75 v -3.5 c 1.6,0 3.216,0.284 4.85,0.85 1.633,0.567 3.083,1.467 4.35,2.7 1.266,1.234 2.3,2.8 3.1,4.7 0.8,1.9 1.2,4.15 1.2,6.75 C 2.1,-4.117 1.4,-1.9 0,0 M 20,0 C 18.6,1.9 16.633,2.85 14.1,2.85 11.833,2.85 10.016,2.1 8.65,0.6 7.283,-0.9 6.6,-2.65 6.6,-4.65 c 0,-2 0.666,-3.75 2,-5.25 1.333,-1.5 3,-2.25 5,-2.25 0.666,0 1.266,0.067 1.8,0.2 0.266,0.067 0.5,0.167 0.7,0.3 -0.267,-2 -1.15,-3.583 -2.65,-4.75 -1.5,-1.166 -3.117,-1.75 -4.85,-1.75 v -3.5 c 1.6,0 3.216,0.284 4.85,0.85 1.633,0.567 3.083,1.467 4.35,2.7 1.266,1.234 2.3,2.8 3.1,4.7 0.8,1.9 1.2,4.15 1.2,6.75 0,2.533 -0.7,4.75 -2.1,6.65"
             style="fill:#faaa2d;fill-opacity:1;fill-rule:nonzero;stroke:none"
             id="path104" /></g></g></g><text
       transform="matrix(1,0,0,-1,1287,270)"
       style="font-variant:normal;font-weight:500;font-stretch:normal;font-size:26px;font-family:'Rubik Medium';-inkscape-font-specification:Rubik-Medium;writing-mode:lr-tb;fill:#000000;fill-opacity:1;fill-rule:nonzero;stroke:none"
       id="text118"><tspan
         x="0 17.862 23.790001 39.91 57.043999 73.164001 90.297997 96.225998 107.588 123.006 139.36 154.23199 160.16 176.87801 192.29601 210.60001 226.51199 241.384 257.608 273.832 288.80801 294.73599 310.15399 325.702 341.61401 356.59 371.79999 388.02399 403.728 418.60001"
         y="0"
         id="tspan106">В 2020 году Компания объявила </tspan><tspan
         x="0 15.418 21.346001 37.257999 52.962002 67.834 84.057999 98.93 113.62 119.548 135.772 151.996 167.20599 182.23399 197.106 210.912 227.136 243.10001 258.51801 273.728 288.60001 302.40601 316.21201 322.14001 337.55801 351.85281 367.0368 382.74081 398.15881"
         y="34.007999"
         id="tspan108">о планах инвестировать около </tspan><tspan
         x="0 17.082001 34.216 40.144001 58.448002 74.152 90.115997 106.47 112.398 127.816 142.688 158.23599 173.94 188.968 205.192 211.12 226.33 232.258 248.222 263.09399 277.03 292.23999 308.46399 322.26999 338.49399 353.522 359.45001 374.34799 390.052 406.276 421.30399 437.52802 451.33401 466.20599 480.50079 495.91879 507.28079 522.69879"
         y="68.015999"
         id="tspan110">80 млрд рублей в развитие клиентского </tspan><tspan
         x="0 14.872 29.9 45.863998 61.074001 77.297997 92.169998 107.042 113.932 119.86 136.448 152.672 172.536 188.5 203.918 219.12801 239.09599 254.12399 260.052 273.858 288.88599 303.57599 319.79999 334.97879 350.6828 366.1008 377.69681 393.92081 410.14481 417.03479 422.9628 437.83481 443.76279 457.56879 472.4408 487.33881 509.67279 524.70081"
         y="102.024"
         id="tspan112">сервиса, цифровые технологии, а также </tspan><tspan
         x="0 15.418 30.966 47.189999 62.608002 77.818001 93.522003 108.55 124.774 140.998 156.026 161.95399 177.866 193.284 209.638 224.84801 241.07201 263.40601 279.63 295.048 306.40741 321.82541 327.75339 342.6254 358.0434 372.91541 386.72141 401.59341 416.80341 431.67542"
         y="136.032"
         id="tspan114">обновление подвижного состава </tspan><tspan
         x="0 15.21 21.138 37.102001 51.973999 70.278 85.176003 100.048 114.738 120.666 136.63 151.658 166.53 182.23399 198.45799 212.394 227.26601 243.854 260.078 276.302 282.23001 300.04001 313.84601 329.81 344.68201 358.48801 373.51599 385.112 401.336 417.56 429.17679 445.29681 462.43079 478.55081"
         y="170.03999"
         id="tspan116">в рамках реализации Стратегии-2023</tspan></text><text
       transform="matrix(1,0,0,-1,1287,961.3)"
       style="font-variant:normal;font-weight:300;font-stretch:normal;font-size:20px;font-family:'Rubik Light';-inkscape-font-specification:Rubik-Light;writing-mode:lr-tb;fill:#000000;fill-opacity:1;fill-rule:nonzero;stroke:none"
       id="text142"><tspan
         x="0 12.64 23.860001 34.580002 42.700001 53.860001 65.379997 76.099998 87.720001 98.099998 103.26 114.88 125.6 135.44 146.28 158.2 168.14 179.3 191.22 196.38 209.96001 221.88 233.10001 245.02 255.74001 266.95999 276.48001 288.39999 299.56 311.48001 316.64001 327.35999 338.28 348.22 360.14001 365.29999 376.45999 387.98001 398.89999 410.51999 421.23999 431.17999 442.34 453.95999"
         y="0"
         id="tspan120">Благодаря развитой филиальной сети оператор </tspan><tspan
         x="0 11.16 21.280001 32 41.84 55.02 65.860001 76.580002 87.5 97.440002 102.6 114.12 125.078 136.298 148.218 161.39799 173.31799 178.478 188.09801 199.258 212.53799 224.058 235.278 246.198 255.81799 266.53799 271.698 282.918 294.078 302.43799 314.358 325.078 335.01801 346.93799 357.478 368.39801 379.11801 389.23801 401.15799 411.51801 416.67801 426.91599 437.63599 448.85599 459.436 467.79599 472.616"
         y="26"
         id="tspan122">оказывает полный комплекс логистических услуг: </tspan><tspan
         x="0 11.16 21.1 26.26 37.779999 48.939999 60.459999 68.580002 79.739998 89.68 100.84 111.68 121.8 133.72 138.88 149.72 160.44 168.558 179.718 191.638 202.798 213.638 218.798 230.31799 241.478 246.638 257.798 269.418 277.77802 288.49799 300.418 312.33801 322.17801 332.89801 344.918 356.83801 368.758 373.918 387.198 398.11801 413.09799 424.61801 435.198 447.11801 457.83801 469.45801 480.61801 492.138 504.05801 517.23798 527.59802"
         y="52"
         id="tspan124">от подготовки вагонов до организации международных </tspan><tspan
         x="0 13.28 23.280001 34.5 44.02 53.959999 65.879997 79.160004 90.32 101.84 112.56 123.78 133.3 145.22 158.39999 168.75999 173.92 185.44 196.36 207.98 218.89999 229.74001 240.89999 250.74001 261.89999 272.01999 277.17999 292.51999 297.67999 309.60001 320.32001 325.48001 336.32001 347.04001 357.95999 371.23999 376.39999 387.92001 399.54001 410.70001 421.42001 431.35999 442.98001 453.70001 465.62 476.34 486.28 497.12 508.04001"
         y="78"
         id="tspan126">мультимодальных перевозок — на всем пространстве </tspan><tspan
         x="0 9.6199999 20.58 31.799999 42.720001 54.639999 59.799999 67.760002 79.199997 90.400002 102.34 107.1 112.26 127.86 138.58 149.3 164.67999 174.62 185.34 196.67999 208.60001 219.32001 229.7 234.86 246.88 258.79999 272.38 284 295.16 306 316.72 327.10001 332.26001 342.20001 353.82001 364.54001 376.45999 387.17999 400.76001 411.92001 423.54001 436.82001 447.54001 459.56 471.48001 481.85999 486.60001"
         y="104"
         id="tspan128">колеи 1520. Масштабная цифровая трансформация, </tspan><tspan
         x="0 9.6199999 20.780001 30.719999 41.880001 53.5 64.220001 74.599998 79.760002 91.279999 102.9 114.06 125.98 136.7 147.06 158.22 169.74001 181.66 191.60001 196.75999 207.60001 212.75999 226.75999 236.86 249.14 253.88 259.04001 269.76001 281.28 292.44 303.16 314.32001 325.66 336.38 346.32001 357.16 367.396 378.31601 388.25601 393.41599 404.57599 416.09601 427.01599 438.63599 449.35599 459.29599 471.216 482.056 493.97601 505.13599 518.41602 528.99597"
         y="130"
         id="tspan130">которая происходит в ПГК, способствует оперативному </tspan><tspan
         x="0 11.92 17.08 25.440001 37.360001 48.700001 58.32 69.480003 82.760002 93.339996 98.5 110.12 121.04 131.75999 140.12 152.03999 163.66 174.82001 185.66 196.38 208.3 220.22 235.48 240.64 252.56 263.28 268.44 280.06 293.23999 305.16 316.32001 326.85999 338.78 351.95999 362.88 368.04001 379.95999 389.79999 403.07999 414 425.92001 436.84 448.76001 460.67999 471.06 475.79999"
         y="156"
         id="tspan132">и гибкому реагированию на рыночные изменения, </tspan><tspan
         x="0 11.52 22.68 33.52 46.700001 62.080002 73 84.919998 96.839996 112.1 117.26 127.98 137.59801 148.758 160.37801 171.53799 182.258 192.198 204.118 209.278 220.89799 231.81799 242.53799 252.658 264.67801 276.59799 288.51801 293.67801 305.59799 316.31799 321.478 331.31799 342.03799 353.55801 365.17801 376.33801 387.05801 400.23801"
         y="182"
         id="tspan134">повышению скорости реакции на запросы </tspan><tspan
         x="0 8.3599997 19.6 30.18 40.02 51.18 62.34 72.279999 83.800003 95.419998 106.14 116.98 128.89999 138.84 149.67799 160.89799 171.81799 183.73801"
         y="208"
         id="tspan136">грузоотправителей.</tspan><tspan
         x="-570 -558.84003 -547.32001 -536.40002 -524.78003 -512.85999 -501.23999 -490.07999 -479.23999 -468.51999 -456.60001 -444.67999 -433.76001"
         y="178.58"
         id="tspan138">оперирование </tspan><tspan
         x="-570 -558.47998 -547.32001 -535.79999 -524.96002 -513.03998 -498.06 -486.14001 -472.95999 -459.67999 -455.08401 -444.36401 -433.20401 -422.48401 -412.54401 -401.82401 -390.98401 -379.82401"
         y="204.58"
         id="tspan140">подвижным составом</tspan></text><g
       id="g144"
       transform="translate(695,793.1211)"><path
         d="M 0,0 V -36.398"
         style="fill:none;stroke:#e8e8ed;stroke-width:4;stroke-linecap:butt;stroke-linejoin:miter;stroke-miterlimit:4;stroke-dasharray:none;stroke-opacity:1"
         id="path146" /></g><text
       transform="matrix(1,0,0,-1,717,716.3201)"
       style="font-variant:normal;font-weight:300;font-stretch:normal;font-size:20px;font-family:'Rubik Light';-inkscape-font-specification:Rubik-Light;writing-mode:lr-tb;fill:#000000;fill-opacity:1;fill-rule:nonzero;stroke:none"
       id="text152"><tspan
         x="0 10.72 20.34 31.059999 42.580002 53.5 65.019997 76.940002 88.559998 99.720001 110.56 121.28 133.2 145.12 156.03999"
         y="0"
         id="tspan148">экспедирование </tspan><tspan
         x="0 8.3599997 19.6 30.18 40.02 51.18"
         y="26"
         id="tspan150">грузов</tspan></text><g
       id="g154"
       transform="translate(695,726.7187)"><path
         d="M 0,0 V -36.398"
         style="fill:none;stroke:#e8e8ed;stroke-width:4;stroke-linecap:butt;stroke-linejoin:miter;stroke-miterlimit:4;stroke-dasharray:none;stroke-opacity:1"
         id="path156" /></g><text
       transform="matrix(1,0,0,-1,717.0001,517.1201)"
       style="font-variant:normal;font-weight:300;font-stretch:normal;font-size:20px;font-family:'Rubik Light';-inkscape-font-specification:Rubik-Light;writing-mode:lr-tb;fill:#000000;fill-opacity:1;fill-rule:nonzero;stroke:none"
       id="text162"><tspan
         x="0 11.52 22.68 34.200001 42.32 53.48 63.419998 74.580002 85.419998 95.540001 106.26"
         y="0"
         id="tspan158">подготовка </tspan><tspan
         x="0 10.84 21.559999 29.68 40.84 52.759998 63.919998 74.760002 79.559998 89.68 94.480003 106 117.16 125.52 136.75999 147.34 157.17999 166.8"
         y="26"
         id="tspan160">вагонов к погрузке</tspan></text><g
       id="g164"
       transform="translate(695,527.5195)"><path
         d="M 0,0 V -36.398"
         style="fill:none;stroke:#e8e8ed;stroke-width:4;stroke-linecap:butt;stroke-linejoin:miter;stroke-miterlimit:4;stroke-dasharray:none;stroke-opacity:1"
         id="path166" /></g><text
       transform="matrix(1,0,0,-1,717.0001,450.7201)"
       style="font-variant:normal;font-weight:300;font-stretch:normal;font-size:20px;font-family:'Rubik Light';-inkscape-font-specification:Rubik-Light;writing-mode:lr-tb;fill:#000000;fill-opacity:1;fill-rule:nonzero;stroke:none"
       id="text172"><tspan
         x="0 10.58 22.1 33.720001 44.439999 55.279999 66.5 77.419998 89.339996 101.26 112.18 117.34 128.17999 140.10001 150.67999 160.62 172.24001 183.16 195.08 207 217.92 229.84"
         y="0"
         id="tspan168">управление внутренней </tspan><tspan
         x="0 11.22 22.379999 30.74 42.66 53.380001 63.32 75.239998 84.860001 96.019997 107.94 112.648 124.168 135.78799 146.70799 158.228 169.748 181.368 193.28799 203.668 213.608 225.528"
         y="26"
         id="tspan170">логистикой предприятий</tspan></text><g
       id="g174"
       transform="translate(695,461.1211)"><path
         d="M 0,0 V -36.398"
         style="fill:none;stroke:#e8e8ed;stroke-width:4;stroke-linecap:butt;stroke-linejoin:miter;stroke-miterlimit:4;stroke-dasharray:none;stroke-opacity:1"
         id="path176" /></g><text
       transform="matrix(1,0,0,-1,717,583.5201)"
       style="font-variant:normal;font-weight:300;font-stretch:normal;font-size:20px;font-family:'Rubik Light';-inkscape-font-specification:Rubik-Light;writing-mode:lr-tb;fill:#000000;fill-opacity:1;fill-rule:nonzero;stroke:none"
       id="text182"><tspan
         x="0 11.52 22.68 34.200001 42.32 53.48 63.419998 74.580002 85.419998 95.540001 106.26 111.42 122.26 132.98 141.09801 152.258 164.17799 175.338 186.17799 191.338 201.45799 206.618 218.138 229.058 240.67799 251.59801 262.43799 273.59799 283.43799 293.55801 304.27802 317.55801"
         y="0"
         id="tspan178">подготовка вагонов к перевозкам </tspan><tspan
         x="0 11.92 22.639999 27.799999 39.32 50.939999 62.099998 75.379997 88.559998 99.400002 110.56 121.1 133.02 144.17999 153.92 165.44 177.06 188.22 199.74001 210.46001 222.08 233.24001 243.78 255.7 268.88 279.23999 284.39999 295.12 305.06 315.78 327.70001 339.72 351.64001 362.01999 372.38 377.54001 383.67599 397.67599 411.67599 424.69601"
         y="26"
         id="tspan180">на промывочно-пропарочных станциях (ППС)</tspan></text><g
       id="g184"
       transform="translate(695,593.9219)"><path
         d="M 0,0 V -36.398"
         style="fill:none;stroke:#e8e8ed;stroke-width:4;stroke-linecap:butt;stroke-linejoin:miter;stroke-miterlimit:4;stroke-dasharray:none;stroke-opacity:1"
         id="path186" /></g><g
       id="g188"
       transform="translate(695,660.3203)"><path
         d="M 0,0 V -36.398"
         style="fill:none;stroke:#e8e8ed;stroke-width:4;stroke-linecap:butt;stroke-linejoin:miter;stroke-miterlimit:4;stroke-dasharray:none;stroke-opacity:1"
         id="path190" /></g><text
       transform="matrix(1,0,0,-1,717,649.9201)"
       style="font-variant:normal;font-weight:300;font-stretch:normal;font-size:20px;font-family:'Rubik Light';-inkscape-font-specification:Rubik-Light;writing-mode:lr-tb;fill:#000000;fill-opacity:1;fill-rule:nonzero;stroke:none"
       id="text200"><tspan
         x="0 11.52 23.139999 34.060001 45.580002 56.740002 67.459999 77.400002 88.120003 98.959999 110.18 121.1 133.02 144.94 155.86"
         y="0"
         id="tspan192">предоставление </tspan><tspan
         x="0 10.84 21.559999 29.68 40.84 52.759998 63.919998 74.760002 79.730003 90.57 95.540001 106.26 117.88 128.8 140.72 152.24001"
         y="26"
         id="tspan194">вагонов в аренду</tspan><tspan
         x="0 11.62 22.540001 35.82 46.98 58.900002 68.839996 72.741997 84.262001 95.421997 106.942 117.782 129.702 144.68201 156.60201 167.76199 175.882 187.04201"
         y="265.60001"
         id="tspan196">ремонт подвижного </tspan><tspan
         x="0 10.72 21.879999 32.599998 42.540001 53.259998 64.099998"
         y="291.60001"
         id="tspan198">состава</tspan></text><g
       id="g202"
       transform="translate(695,394.7187)"><path
         d="M 0,0 V -36.398"
         style="fill:none;stroke:#e8e8ed;stroke-width:4;stroke-linecap:butt;stroke-linejoin:miter;stroke-miterlimit:4;stroke-dasharray:none;stroke-opacity:1"
         id="path204" /></g><text
       transform="matrix(1,0,0,-1,693,953.8201)"
       style="font-variant:normal;font-weight:500;font-stretch:normal;font-size:28px;font-family:'Rubik Medium';-inkscape-font-specification:Rubik-Medium;writing-mode:lr-tb;fill:#000000;fill-opacity:1;fill-rule:nonzero;stroke:none"
       id="text208"><tspan
         x="0 20.440001 36.456001 59.136002 76.608002 82.991997 98.475998 114.492 131.40401 147.42 159.908"
         y="0"
         id="tspan206">Наши услуги</tspan></text><g
       id="g210"
       transform="translate(693,102)"><path
         d="M 0,0 H 534"
         style="fill:none;stroke:#e8f0ec;stroke-width:4;stroke-linecap:butt;stroke-linejoin:miter;stroke-miterlimit:4;stroke-dasharray:none;stroke-opacity:1"
         id="path212" /></g><g
       id="g214"><g
         id="g216"><g
           id="g222"><g
             id="g224"><path
               d="m 1633.129,625.661 c -16.796,-5.727 -31.303,-14.447 -43.518,-26.149 v 0 c -12.216,-11.709 -21.7,-26.406 -28.44,-44.092 v 0 c -6.747,-17.692 -10.116,-38.497 -10.116,-62.415 v 0 c 0,-23.925 3.369,-44.73 10.116,-62.416 v 0 c 6.74,-17.692 16.224,-32.388 28.44,-44.091 v 0 c 12.215,-11.709 26.722,-20.424 43.518,-26.15 v 0 c 16.798,-5.726 35.246,-8.589 55.354,-8.589 v 0 c 20.101,0 38.556,2.863 55.352,8.589 v 0 c 16.797,5.726 31.303,14.441 43.519,26.15 v 0 c 12.217,11.703 21.695,26.399 28.44,44.091 v 0 c 6.74,17.686 10.117,38.491 10.117,62.416 v 0 c 0,23.918 -3.377,44.723 -10.117,62.415 v 0 c -6.745,17.686 -16.223,32.383 -28.44,44.092 v 0 c -12.216,11.702 -26.722,20.422 -43.519,26.149 v 0 c -16.796,5.726 -35.251,8.589 -55.352,8.589 v 0 c -20.108,0 -38.556,-2.863 -55.354,-8.589 M 1659.47,384.78 c -9.418,4.199 -17.751,10.88 -25.004,20.042 v 0 c -7.253,9.161 -13.111,20.995 -17.56,35.502 v 0 c -4.456,14.506 -6.681,32.066 -6.681,52.681 v 0 c 0,20.613 2.225,38.174 6.681,52.68 v 0 c 4.449,14.506 10.307,26.341 17.56,35.503 v 0 c 7.253,9.162 15.586,15.842 25.004,20.041 v 0 c 9.413,4.199 19.088,6.299 29.013,6.299 v 0 c 9.925,0 19.594,-2.1 29.012,-6.299 v 0 c 9.412,-4.199 17.751,-10.879 25.005,-20.041 v 0 c 7.253,-9.162 13.104,-20.997 17.56,-35.503 v 0 c 4.449,-14.506 6.68,-32.067 6.68,-52.68 v 0 c 0,-20.615 -2.231,-38.175 -6.68,-52.681 v 0 c -4.456,-14.507 -10.307,-26.341 -17.56,-35.502 v 0 c -7.254,-9.162 -15.593,-15.843 -25.005,-20.042 v 0 c -9.418,-4.2 -19.087,-6.298 -29.012,-6.298 v 0 c -9.925,0 -19.6,2.098 -29.013,6.298 m -302.368,243.935 c -14.638,-3.693 -26.663,-8.781 -36.075,-15.271 v 0 c -9.418,-6.488 -16.355,-14.315 -20.805,-23.476 v 0 c -4.456,-9.162 -6.681,-19.219 -6.681,-30.158 v 0 c 0,-14.506 4.516,-26.722 13.552,-36.648 v 0 c 9.031,-9.925 21.694,-16.797 37.984,-20.614 v 0 c -9.675,-2.04 -18.324,-5.094 -25.959,-9.162 v 0 c -7.634,-4.074 -14.256,-9.102 -19.85,-15.078 v 0 c -5.602,-5.984 -9.866,-12.73 -12.789,-20.233 v 0 c -2.929,-7.51 -4.39,-15.592 -4.39,-24.241 v 0 c 0,-10.946 2.607,-21.378 7.826,-31.303 v 0 c 5.213,-9.926 13.17,-18.646 23.859,-26.149 v 0 c 10.689,-7.51 24.05,-13.493 40.083,-17.943 v 0 c 16.033,-4.449 34.739,-6.68 56.116,-6.68 v 0 c 21.378,0 40.084,2.231 56.117,6.68 v 0 c 16.034,4.45 29.394,10.433 40.083,17.943 v 0 c 10.689,7.503 18.64,16.223 23.859,26.149 v 0 c 5.213,9.925 7.826,20.357 7.826,31.303 v 0 c 0,8.649 -1.467,16.731 -4.39,24.241 v 0 c -2.929,7.503 -7.194,14.249 -12.788,20.233 v 0 c -5.601,5.976 -12.282,11.004 -20.043,15.078 v 0 c -7.766,4.068 -16.354,7.122 -25.767,9.162 v 0 c 16.284,3.817 28.947,10.689 37.984,20.614 v 0 c 9.031,9.926 13.551,22.142 13.551,36.648 v 0 c 0,10.939 -2.23,20.996 -6.68,30.158 v 0 c -4.455,9.161 -11.392,16.988 -20.805,23.476 v 0 c -9.418,6.49 -21.443,11.578 -36.074,15.271 v 0 c -14.638,3.686 -32.258,5.535 -52.873,5.535 v 0 c -20.613,0 -38.24,-1.849 -52.871,-5.535 m 9.925,-101.926 c -9.543,8.524 -14.315,19.528 -14.315,33.021 v 0 c 0,14.506 4.772,26.084 14.315,34.738 v 0 c 9.544,8.649 23.859,12.98 42.946,12.98 v 0 c 19.087,0 33.403,-4.331 42.946,-12.98 v 0 c 9.544,-8.654 14.316,-20.232 14.316,-34.738 v 0 c 0,-13.493 -4.772,-24.497 -14.316,-33.021 v 0 c -9.543,-8.529 -23.859,-12.788 -42.946,-12.788 v 0 c -19.087,0 -33.402,4.259 -42.946,12.788 m -8.779,-132.847 c -11.328,10.307 -16.989,23.602 -16.989,39.892 v 0 c 0,15.27 5.727,27.993 17.179,38.175 v 0 c 11.452,10.175 28.631,15.269 51.535,15.269 v 0 c 22.905,0 40.084,-5.094 51.536,-15.269 v 0 c 11.453,-10.182 17.178,-22.905 17.178,-38.175 v 0 c 0,-16.29 -5.666,-29.585 -16.987,-39.892 v 0 c -11.328,-10.307 -28.572,-15.46 -51.727,-15.46 v 0 c -23.16,0 -40.405,5.153 -51.725,15.46"
               style="fill:url(#linearGradient230);stroke:none"
               id="path232" /></g></g></g></g><g
       id="g234"><g
         id="g236"
         clip-path="url(#clipPath240)"><g
           id="g242"
           transform="translate(1805.9109,634.875)"><path
             d="m 0,0 h -142 c -11.046,0 -20,-8.954 -20,-20 0,-11.046 8.954,-20 20,-20 H 0 c 11.046,0 20,8.954 20,20 C 20,-8.954 11.046,0 0,0"
             style="fill:#e8e8ed;fill-opacity:1;fill-rule:nonzero;stroke:none"
             id="path244" /></g></g></g><text
       transform="matrix(1,0,0,-1,1671.4109,607.5903)"
       style="font-variant:normal;font-weight:500;font-stretch:normal;font-size:28px;font-family:'Rubik Medium';-inkscape-font-specification:Rubik-Medium;writing-mode:lr-tb;fill:#000000;fill-opacity:1;fill-rule:nonzero;stroke:none"
       id="text248"><tspan
         x="0 19.712 36.624001 53.816002 71.428001 77.635597 94.239601 110.2556"
         y="0"
         id="tspan246">млрд руб</tspan></text><text
       transform="matrix(1,0,0,-1,43.6801,1023)"
       style="font-variant:normal;font-weight:300;font-stretch:normal;font-size:20px;font-family:'Rubik Light';-inkscape-font-specification:Rubik-Light;writing-mode:lr-tb;fill:#000000;fill-opacity:1;fill-rule:nonzero;stroke:none"
       id="text252"><tspan
         x="0"
         y="0"
         id="tspan250">6</tspan></text><g
       id="g254"><g
         id="g256"><g
           id="g258"
           clip-path="url(#clipPath262)"><text
             transform="matrix(1,0,0,-1,99,1023)"
             style="font-variant:normal;font-weight:300;font-stretch:normal;font-size:20px;font-family:'Rubik Light';-inkscape-font-specification:Rubik-Light;writing-mode:lr-tb;fill:#000000;fill-opacity:1;fill-rule:nonzero;stroke:none"
             id="text266"><tspan
               x="0 13.24 18.4 28.02 39.18 52.459999 63.98 74.699997 86.620003 98.540001"
               y="0"
               id="tspan264">О компании</tspan></text></g></g></g></g></svg>
