<?xml version="1.0" encoding="UTF-8" standalone="no"?>
<?xml-stylesheet type="text/css" href="main.css" ?>
<svg
   xmlns:dc="http://purl.org/dc/elements/1.1/"
   xmlns:cc="http://creativecommons.org/ns#"
   xmlns:rdf="http://www.w3.org/1999/02/22-rdf-syntax-ns#"
   xmlns:svg="http://www.w3.org/2000/svg"
   xmlns="http://www.w3.org/2000/svg"
   version="1.1"
   id="svg2"
   xml:space="preserve"
   width="2560"
   height="1440"
   viewBox="0 0 2560 1440"><metadata
     id="metadata8"><rdf:RDF><cc:Work
         rdf:about=""><dc:format>image/svg+xml</dc:format><dc:type
           rdf:resource="http://purl.org/dc/dcmitype/StillImage" /></cc:Work></rdf:RDF></metadata><defs
     id="defs6"><clipPath
       clipPathUnits="userSpaceOnUse"
       id="clipPath20"><path
         d="M 0,1080 H 1920 V 0 H 0 Z"
         id="path18" /></clipPath><clipPath
       clipPathUnits="userSpaceOnUse"
       id="clipPath320"><path
         d="M 0,1080 H 1920 V 0 H 0 Z"
         id="path318" /></clipPath></defs><g
     id="g10"
     transform="matrix(1.3333333,0,0,-1.3333333,0,1440)"><g
       id="g12"><g
         id="g14"><g
           id="g16"
           clip-path="url(#clipPath20)"><path
             d="M 0,0 H 1920 V 1080 H 0 Z"
             style="fill:#ffffff;fill-opacity:1;fill-rule:nonzero;stroke:none"
             id="path22" /></g></g></g><text
       transform="matrix(1,0,0,-1,117,807.0804)"
       style="font-variant:normal;font-weight:normal;font-stretch:normal;font-size:28px;font-family:'Prosto One';-inkscape-font-specification:ProstoOne-Regular;writing-mode:lr-tb;fill:#000000;fill-opacity:1;fill-rule:nonzero;stroke:none"
       id="text28"><tspan
         x="0 22.4 47.599998 70.839996 96.040001 126.7 150.78 174.3"
         y="0"
         id="tspan24">ВОЛОШИН </tspan><tspan
         x="0 22.959999 46.200001 66.080002 88.339996 110.46 133.42 156.94 181.3 203.42 213.22 235.34 255.08 278.04001 301.28 323.39999 343.28 365.67999 389.76001"
         y="33.599998"
         id="tspan26">АЛЕКСАНДР СТАЛЬЕВИЧ</tspan></text><text
       transform="matrix(1,0,0,-1,99,717.4804)"
       style="font-variant:normal;font-weight:normal;font-stretch:normal;font-size:18px;font-family:Rubik;-inkscape-font-specification:Rubik-Regular;writing-mode:lr-tb;fill:#faaa2d;fill-opacity:1;fill-rule:nonzero;stroke:none"
       id="text32"><tspan
         x="0 6.8579998"
         y="0"
         id="tspan30">• </tspan></text><text
       transform="matrix(1,0,0,-1,117,717.4804)"
       style="font-variant:normal;font-weight:500;font-stretch:normal;font-size:20px;font-family:'Rubik Medium';-inkscape-font-specification:Rubik-Medium;writing-mode:lr-tb;fill:#000000;fill-opacity:1;fill-rule:nonzero;stroke:none"
       id="text36"><tspan
         x="0 14.6 26.879999 38.439999 51.02 62.459999 74.019997 86.599998 98.040001 108.66 120.118 132.198"
         y="0"
         id="tspan34">Председатель</tspan></text><text
       transform="matrix(1,0,0,-1,99,691.4803)"
       style="font-variant:normal;font-weight:normal;font-stretch:normal;font-size:18px;font-family:Rubik;-inkscape-font-specification:Rubik-Regular;writing-mode:lr-tb;fill:#faaa2d;fill-opacity:1;fill-rule:nonzero;stroke:none"
       id="text40"><tspan
         x="0 6.8579998"
         y="0"
         id="tspan38">• </tspan></text><text
       transform="matrix(1,0,0,-1,117,691.4803)"
       style="font-variant:normal;font-weight:500;font-stretch:normal;font-size:20px;font-family:'Rubik Medium';-inkscape-font-specification:Rubik-Medium;writing-mode:lr-tb;fill:#000000;fill-opacity:1;fill-rule:nonzero;stroke:none"
       id="text44"><tspan
         x="0 14.6 26.16 36.880001 48.32 60.02 72.5 83.940002 96.419998 110.5 125.86 138.34 142.89999 155.48 167.96001 180.24001 191.8 203.25999 213.88 225.74001"
         y="0"
         id="tspan42">Независимый директор</tspan></text><text
       transform="matrix(1,0,0,-1,99,665.4803)"
       style="font-variant:normal;font-weight:normal;font-stretch:normal;font-size:18px;font-family:Rubik;-inkscape-font-specification:Rubik-Regular;writing-mode:lr-tb;fill:#faaa2d;fill-opacity:1;fill-rule:nonzero;stroke:none"
       id="text48"><tspan
         x="0 6.8579998"
         y="0"
         id="tspan46">• </tspan></text><text
       transform="matrix(1,0,0,-1,117,665.4803)"
       style="font-variant:normal;font-weight:500;font-stretch:normal;font-size:20px;font-family:'Rubik Medium';-inkscape-font-specification:Rubik-Medium;writing-mode:lr-tb;fill:#000000;fill-opacity:1;fill-rule:nonzero;stroke:none"
       id="text52"><tspan
         x="0 13.56 25.639999 37.200001 49.68 54.240002 67.099998 78.959999 93.040001 105.52 116.14 127.7 138.32001 149.75999 154.32001 166.56 178.42 182.98 194.42 205.03999 217.32001 228.75999 239.38 250.94 259.85999 272.34 283.92001 295.48001 306.92001 317.91599 329.776 343.85599 355.29599 359.85599 372.09601 384.17599 395.616 408.09601 420.57599 432.85599 444.716 456.41599 467.85599 480.336 492.81601"
         y="0"
         id="tspan50">Член Комитета по стратегическому планированию</tspan></text><text
       transform="matrix(1,0,0,-1,99,639.4803)"
       style="font-variant:normal;font-weight:normal;font-stretch:normal;font-size:18px;font-family:Rubik;-inkscape-font-specification:Rubik-Regular;writing-mode:lr-tb;fill:#faaa2d;fill-opacity:1;fill-rule:nonzero;stroke:none"
       id="text56"><tspan
         x="0 6.8579998"
         y="0"
         id="tspan54">• </tspan></text><text
       transform="matrix(1,0,0,-1,117,639.4803)"
       style="font-variant:normal;font-weight:500;font-stretch:normal;font-size:20px;font-family:'Rubik Medium';-inkscape-font-specification:Rubik-Medium;writing-mode:lr-tb;fill:#000000;fill-opacity:1;fill-rule:nonzero;stroke:none"
       id="text60"><tspan
         x="0 13.56 25.639999 37.200001 49.68 54.240002 67.099998 78.959999 93.040001 105.52 116.14 127.7 138.32001 149.75999 154.32001 166.56 178.42 182.98 194.44 205.88 218.46001 230.74001 242.17999 256.26001 260.82001 273.29999 277.85999 289.56 301.42001 312.14001 324.62 336.06 344.98001 357.26001 368.70001 385.88 398.45999 410.01999 422.5 434.98001 446.5"
         y="0"
         id="tspan58">Член Комитета по кадрам и вознаграждениям</tspan></text><text
       transform="matrix(1,0,0,-1,99,613.4803)"
       style="font-variant:normal;font-weight:normal;font-stretch:normal;font-size:18px;font-family:Rubik;-inkscape-font-specification:Rubik-Regular;writing-mode:lr-tb;fill:#faaa2d;fill-opacity:1;fill-rule:nonzero;stroke:none"
       id="text64"><tspan
         x="0 6.8579998"
         y="0"
         id="tspan62">• </tspan></text><text
       transform="matrix(1,0,0,-1,117,613.4803)"
       style="font-variant:normal;font-weight:500;font-stretch:normal;font-size:20px;font-family:'Rubik Medium';-inkscape-font-specification:Rubik-Medium;writing-mode:lr-tb;fill:#000000;fill-opacity:1;fill-rule:nonzero;stroke:none"
       id="text68"><tspan
         x="0 13.56 25.639999 37.200001 49.68 54.240002 67.099998 78.959999 93.040001 105.52 116.14 127.7 138.32001 149.75999 154.32001 166.56 178.42 182.98 195.74001 208.22 223.5 235.78 247.64 259.34 271.20001 285.28 296.72 301.28 313.56 325 335.72 347.42001 359.89999 370.51999 383"
         y="0"
         id="tspan66">Член Комитета по цифровому развитию</tspan></text><text
       transform="matrix(1,0,0,-1,99,559.4803)"
       style="font-variant:normal;font-weight:normal;font-stretch:normal;font-size:18px;font-family:Rubik;-inkscape-font-specification:Rubik-Regular;writing-mode:lr-tb;fill:#faaa2d;fill-opacity:1;fill-rule:nonzero;stroke:none"
       id="text72"><tspan
         x="0 6.8579998"
         y="0"
         id="tspan70">• </tspan></text><text
       transform="matrix(1,0,0,-1,117,559.4803)"
       style="font-variant:normal;font-weight:300;font-stretch:normal;font-size:18px;font-family:'Rubik Light';-inkscape-font-specification:Rubik-Light;writing-mode:lr-tb;fill:#000000;fill-opacity:1;fill-rule:nonzero;stroke:none"
       id="text76"><tspan
         x="0 6.7319999 16.775999 27.143999 31.788 42.245998 52.290001 65.772003 76.139999 85.968002 96.695999 107.424 116.766 121.104 125.748 132.912 143.20799 153.504"
         y="0"
         id="tspan74">Год рождения: 1956</tspan></text><text
       transform="matrix(1,0,0,-1,99,525.4783)"
       style="font-variant:normal;font-weight:normal;font-stretch:normal;font-size:18px;font-family:Rubik;-inkscape-font-specification:Rubik-Regular;writing-mode:lr-tb;fill:#faaa2d;fill-opacity:1;fill-rule:nonzero;stroke:none"
       id="text80"><tspan
         x="0 6.8579998"
         y="0"
         id="tspan78">• </tspan></text><text
       transform="matrix(1,0,0,-1,117,525.4783)"
       style="font-variant:normal;font-weight:300;font-stretch:normal;font-size:18px;font-family:'Rubik Light';-inkscape-font-specification:Rubik-Light;writing-mode:lr-tb;fill:#000000;fill-opacity:1;fill-rule:nonzero;stroke:none"
       id="text86"><tspan
         x="0 11.754 16.398001 23.562 33.858002 42.624001 53.748001 58.391998 65.699997 75.744003 86.112 95.634003 100.278 110.322 118.98 129.024 139.752 149.23801 159.966 170.064 174.70799 188.748 198.79201 208.44 217.09621 227.1402 236.89619 246.5442 255.65221 266.38019 277.10818 281.7522 292.48019 303.20819 312.8562 321.80219 332.53021 341.4762 350.9982 359.94421"
         y="0"
         id="tspan82">В 1978 году окончил Московский институт </tspan><tspan
         x="0 10.728 21.455999 34.938 44.765999 55.493999 65.321999 75.779999 85.823997 95.580002 100.224 109.17 119.628 129.276 140.004 149.65199 160.02 170.064 180.522 189.468 199.116"
         y="23.993999"
         id="tspan84">инженеров транспорта.</tspan></text><text
       transform="matrix(1,0,0,-1,99,467.4823)"
       style="font-variant:normal;font-weight:normal;font-stretch:normal;font-size:18px;font-family:Rubik;-inkscape-font-specification:Rubik-Regular;writing-mode:lr-tb;fill:#faaa2d;fill-opacity:1;fill-rule:nonzero;stroke:none"
       id="text90"><tspan
         x="0 6.8579998"
         y="0"
         id="tspan88">• </tspan></text><text
       transform="matrix(1,0,0,-1,117,467.4823)"
       style="font-variant:normal;font-weight:300;font-stretch:normal;font-size:18px;font-family:'Rubik Light';-inkscape-font-specification:Rubik-Light;writing-mode:lr-tb;fill:#000000;fill-opacity:1;fill-rule:nonzero;stroke:none"
       id="text96"><tspan
         x="0 11.754 16.398001 23.562 33.858002 44.981998 55.458 60.102001 67.410004 77.454002 87.821999 97.344002 101.988 112.032 120.6882 130.73219 141.46021 150.9462 161.67419 171.7722 176.4162 188.1702 197.81821 207.64619 217.2942 227.3382 241.0722 249.92821 260.65619 270.17819 283.9122"
         y="0"
         id="tspan92">В 1986 году окончил Всесоюзную </tspan><tspan
         x="0 9.6479998 18.756001 28.403999 38.771999 48.599998 60.551998 71.279999 85.014 89.657997 99.414001 110.142 119.97 133.812 144.53999 154.368 165.09599 169.74001 178.686 188.73 199.188 206.4942 216.53819 226.2942 236.3922 247.12019"
         y="23.993999"
         id="tspan94">академию внешней торговли.</tspan></text><text
       transform="matrix(1,0,0,-1,99,409.4863)"
       style="font-variant:normal;font-weight:normal;font-stretch:normal;font-size:18px;font-family:Rubik;-inkscape-font-specification:Rubik-Regular;writing-mode:lr-tb;fill:#faaa2d;fill-opacity:1;fill-rule:nonzero;stroke:none"
       id="text100"><tspan
         x="0 6.8579998"
         y="0"
         id="tspan98">• </tspan></text><text
       transform="matrix(1,0,0,-1,117,409.4863)"
       style="font-variant:normal;font-weight:300;font-stretch:normal;font-size:18px;font-family:'Rubik Light';-inkscape-font-specification:Rubik-Light;writing-mode:lr-tb;fill:#000000;fill-opacity:1;fill-rule:nonzero;stroke:none"
       id="text110"><tspan
         x="0 11.43 21.528 31.356001 42.084 46.728001 58.445999 68.489998 78.246002 88.073997 97.019997 106.668 111.312 121.68 132.408 142.866 152.694 161.802 170.748 180.79201 191.25 201.29401 211.05 215.694 226.998 237.528 247.968 252.01801 256.03201 265.67999 270.32401 280.18799 284.202 300.00601 304.01999 310.48199 320.31 330.75 335.39401 347.112 357.15601 372.95999 383.418 393.06601 403.41061 412.50061"
         y="0"
         id="tspan102">Член Совета директоров Public Limited Company </tspan><tspan
         x="0 9.6120005 19.26 29.879999 40.32 50.004002 59.327999 63.972 76.122002 80.405998 85.050003 95.218201 99.502197 103.7682 108.4122 118.9242 128.9682 140.9202 151.28819 160.9362 171.6642 182.3922 193.12019 197.76421 208.61819 219.6702 229.7682 239.59621 249.6402 261.59219 266.23621 277.19821 287.06039 297.15839 307.5264 318.25439 328.98239 336.29041 345.93839 350.5824 362.82239 373.55042 385.50241 396.23041 405.17639 415.00439 425.37241 436.22641 440.4924"
         y="23.993999"
         id="tspan104">Yandex N. V., Компании «Клеом Холдингс Лимитед», </tspan><tspan
         x="0 11.7 20.808001 31.625999 42.354 52.397999 63.125999 72.954002 83.412003 94.139999 104.184 111.4902 121.5342 126.1782 136.2222 146.42821 160.7382 170.56619 180.2142 189.1602 198.9162 208.56419 213.20821 224.06219 235.76221 246.4902 256.13821 266.23621 276.9642 285.91019 296.63821 306.12421 315.95221 325.60019 334.25641 344.30042 354.12839"
         y="47.987999"
         id="tspan106">Акционерного общества «Аналитическое </tspan><tspan
         x="0 11.052 21.51 31.337999 41.706001 52.433998 61.380001 72.108002 82.152 91.980003 96.624001 107.928 117.756 128.48399 137.42999 148.158 158.886 166.1922 176.23621 185.9922 196.03619 205.8642 210.50819 222.20821 229.5162 239.34419 250.0722 259.01819 268.6662 277.61221 287.36819 297.4122 308.2662"
         y="71.982002"
         id="tspan108">Кредитное Рейтинговое Агентство».</tspan></text><text
       transform="matrix(1,0,0,-1,99,303.5023)"
       style="font-variant:normal;font-weight:normal;font-stretch:normal;font-size:18px;font-family:Rubik;-inkscape-font-specification:Rubik-Regular;writing-mode:lr-tb;fill:#faaa2d;fill-opacity:1;fill-rule:nonzero;stroke:none"
       id="text114"><tspan
         x="0 6.8579998"
         y="0"
         id="tspan112">• </tspan></text><text
       transform="matrix(1,0,0,-1,117,303.5023)"
       style="font-variant:normal;font-weight:300;font-stretch:normal;font-size:18px;font-family:'Rubik Light';-inkscape-font-specification:Rubik-Light;writing-mode:lr-tb;fill:#000000;fill-opacity:1;fill-rule:nonzero;stroke:none"
       id="text118"><tspan
         x="0 12.168 22.032 32.130001 41.958 52.686001 57.330002 66.851997 76.337997 85.986 95.634003 104.58 115.308 124.65 129.29401 139.05 143.694 152.9082 162.5562 171.5022 181.15021 190.9062 201.6342 211.67821 223.6302 228.2742 237.3822 247.0302 257.39819 268.12619 277.0722 286.72021 296.81821 306.64621 311.29019 323.8902 332.98019 344.0322 348.67621 359.40421 369.23221 373.87619 384.60419 396.55621 406.38419 416.21219 425.1582"
         y="0"
         id="tspan116">Долей участия в уставном капитале ПГК не имеет.</tspan></text><text
       transform="matrix(1,0,0,-1,711,807.0804)"
       style="font-variant:normal;font-weight:normal;font-stretch:normal;font-size:28px;font-family:'Prosto One';-inkscape-font-specification:ProstoOne-Regular;writing-mode:lr-tb;fill:#000000;fill-opacity:1;fill-rule:nonzero;stroke:none"
       id="text124"><tspan
         x="0 21.98 44.240002 66.5 90.580002 114.1"
         y="0"
         id="tspan120">БУКИН </tspan><tspan
         x="0 25.200001 48.439999 68.32 86.800003 96.599998 128.94 151.06 173.17999 193.06 215.46001 239.53999 261.51999"
         y="33.599998"
         id="tspan122">ОЛЕГ ЮРЬЕВИЧ </tspan></text><text
       transform="matrix(1,0,0,-1,693,717.4804)"
       style="font-variant:normal;font-weight:normal;font-stretch:normal;font-size:18px;font-family:Rubik;-inkscape-font-specification:Rubik-Regular;writing-mode:lr-tb;fill:#faaa2d;fill-opacity:1;fill-rule:nonzero;stroke:none"
       id="text128"><tspan
         x="0 6.8579998"
         y="0"
         id="tspan126">• </tspan></text><text
       transform="matrix(1,0,0,-1,711,717.4804)"
       style="font-variant:normal;font-weight:500;font-stretch:normal;font-size:20px;font-family:'Rubik Medium';-inkscape-font-specification:Rubik-Medium;writing-mode:lr-tb;fill:#000000;fill-opacity:1;fill-rule:nonzero;stroke:none"
       id="text132"><tspan
         x="0 12.94 24.379999 38.459999 50.02 61.459999 72.080002 84.559998 95.18 106.638 118.718 129.338 133.89799 148.498 160.778 172.338 184.918 196.358 207.918 220.498 231.938 242.558 254.01601 266.09601"
         y="0"
         id="tspan130">Заместитель Председателя</tspan></text><text
       transform="matrix(1,0,0,-1,693,691.4803)"
       style="font-variant:normal;font-weight:normal;font-stretch:normal;font-size:18px;font-family:Rubik;-inkscape-font-specification:Rubik-Regular;writing-mode:lr-tb;fill:#faaa2d;fill-opacity:1;fill-rule:nonzero;stroke:none"
       id="text136"><tspan
         x="0 6.8579998"
         y="0"
         id="tspan134">• </tspan></text><text
       transform="matrix(1,0,0,-1,711,691.4803)"
       style="font-variant:normal;font-weight:500;font-stretch:normal;font-size:20px;font-family:'Rubik Medium';-inkscape-font-specification:Rubik-Medium;writing-mode:lr-tb;fill:#000000;fill-opacity:1;fill-rule:nonzero;stroke:none"
       id="text140"><tspan
         x="0 13.56 25.639999 37.200001 49.68 54.240002 67.099998 78.959999 93.040001 105.52 116.14 127.7 138.32001 149.75999 154.32001 166.56 178.42 182.98 194.42 205.03999 217.32001 228.75999 239.38 250.94 259.85999 272.34 283.92001 295.48001 306.92001 317.91599 329.776 343.85599 355.29599 359.85599 372.09601 384.17599 395.616 408.09601 420.57599 432.85599 444.716 456.41599 467.85599 480.336 492.81601"
         y="0"
         id="tspan138">Член Комитета по стратегическому планированию</tspan></text><text
       transform="matrix(1,0,0,-1,693,665.4803)"
       style="font-variant:normal;font-weight:normal;font-stretch:normal;font-size:18px;font-family:Rubik;-inkscape-font-specification:Rubik-Regular;writing-mode:lr-tb;fill:#faaa2d;fill-opacity:1;fill-rule:nonzero;stroke:none"
       id="text144"><tspan
         x="0 6.8579998"
         y="0"
         id="tspan142">• </tspan></text><text
       transform="matrix(1,0,0,-1,711,665.4803)"
       style="font-variant:normal;font-weight:500;font-stretch:normal;font-size:20px;font-family:'Rubik Medium';-inkscape-font-specification:Rubik-Medium;writing-mode:lr-tb;fill:#000000;fill-opacity:1;fill-rule:nonzero;stroke:none"
       id="text148"><tspan
         x="0 13.56 25.639999 37.200001 49.68 54.240002 67.099998 78.959999 93.040001 105.52 116.14 127.7 138.32001 149.75999 154.32001 166.56 178.42 182.98 194.44 205.88 218.46001 230.74001 242.17999 256.26001 260.82001 273.29999 277.85999 289.56 301.42001 312.14001 324.62 336.06 344.98001 357.26001 368.70001 385.88 398.45999 410.01999 422.5 434.98001 446.5"
         y="0"
         id="tspan146">Член Комитета по кадрам и вознаграждениям</tspan></text><text
       transform="matrix(1,0,0,-1,693,639.4803)"
       style="font-variant:normal;font-weight:normal;font-stretch:normal;font-size:18px;font-family:Rubik;-inkscape-font-specification:Rubik-Regular;writing-mode:lr-tb;fill:#faaa2d;fill-opacity:1;fill-rule:nonzero;stroke:none"
       id="text152"><tspan
         x="0 6.8579998"
         y="0"
         id="tspan150">• </tspan></text><text
       transform="matrix(1,0,0,-1,711,639.4803)"
       style="font-variant:normal;font-weight:500;font-stretch:normal;font-size:20px;font-family:'Rubik Medium';-inkscape-font-specification:Rubik-Medium;writing-mode:lr-tb;fill:#000000;fill-opacity:1;fill-rule:nonzero;stroke:none"
       id="text156"><tspan
         x="0 13.56 25.639999 37.200001 49.68 54.240002 67.099998 78.959999 93.040001 105.52 116.14 127.7 138.32001 149.75999 154.32001 166.56 178.42 182.98 195.74001 208.22 223.5 235.78 247.64 259.34 271.20001 285.28 296.72 301.28 313.56 325 335.72 347.42001 359.89999 370.51999 383"
         y="0"
         id="tspan154">Член Комитета по цифровому развитию</tspan></text><text
       transform="matrix(1,0,0,-1,693,559.4803)"
       style="font-variant:normal;font-weight:normal;font-stretch:normal;font-size:18px;font-family:Rubik;-inkscape-font-specification:Rubik-Regular;writing-mode:lr-tb;fill:#faaa2d;fill-opacity:1;fill-rule:nonzero;stroke:none"
       id="text160"><tspan
         x="0 6.8579998"
         y="0"
         id="tspan158">• </tspan></text><text
       transform="matrix(1,0,0,-1,711,559.4803)"
       style="font-variant:normal;font-weight:300;font-stretch:normal;font-size:18px;font-family:'Rubik Light';-inkscape-font-specification:Rubik-Light;writing-mode:lr-tb;fill:#000000;fill-opacity:1;fill-rule:nonzero;stroke:none"
       id="text164"><tspan
         x="0 6.7319999 16.775999 27.143999 31.788 42.245998 52.290001 65.772003 76.139999 85.968002 96.695999 107.424 116.766 121.104 125.748 132.912 142.9902 153.4662"
         y="0"
         id="tspan162">Год рождения: 1966</tspan></text><text
       transform="matrix(1,0,0,-1,693,525.4783)"
       style="font-variant:normal;font-weight:normal;font-stretch:normal;font-size:18px;font-family:Rubik;-inkscape-font-specification:Rubik-Regular;writing-mode:lr-tb;fill:#faaa2d;fill-opacity:1;fill-rule:nonzero;stroke:none"
       id="text168"><tspan
         x="0 6.8579998"
         y="0"
         id="tspan166">• </tspan></text><text
       transform="matrix(1,0,0,-1,711,525.4783)"
       style="font-variant:normal;font-weight:300;font-stretch:normal;font-size:18px;font-family:'Rubik Light';-inkscape-font-specification:Rubik-Light;writing-mode:lr-tb;fill:#000000;fill-opacity:1;fill-rule:nonzero;stroke:none"
       id="text178"><tspan
         x="0 11.754 16.398001 23.562 33.858002 44.981998 56.105999 60.75 68.057999 78.101997 88.470001 97.991997 102.636 112.68 121.3362 131.3802 142.1082 151.59419 162.3222 172.4202 177.06419 191.1042 201.14819 210.7962 219.45419 229.4982 239.2542 248.90221 258.01019 268.73819 279.46619 284.1102 294.15421 304.61221 314.98019 324.8082 335.53619 345.1842 349.82819 359.85419 369.96841 379.49039 389.8584 399.9024 409.65839 419.70239 427.01041 437.05441"
         y="0"
         id="tspan170">В 1988 году окончил Московский ордена Трудового </tspan><tspan
         x="0 11.052 21.51 31.158001 40.806 51.534 61.577999 68.886002 78.93 83.573997 94.356003 105.084 114.732 126.684 136.51199 147.24001 157.968 162.612 175.67999 186.408 196.056 205.002 215.73 224.67599 234.198 243.144 247.78799 257.31 267.67801 278.13599 287.784 297.54001 307.638 317.466 328.194 338.922 348.26401"
         y="23.993999"
         id="tspan172">Красного Знамени Институт управления </tspan><tspan
         x="0 10.728 22.68 26.964001 31.608 43.326 53.153999 63.612 70.918198 80.962196 85.606201 97.522202 107.9802 118.3482 131.8302 141.87421 152.6022 163.3302 172.4382 183.1662 193.53419 202.3902 212.2182 216.8622 227.23019 237.2742 241.9182 251.56619 261.9342 271.76221 282.5802 293.3082 302.95621 313.0542 321.62219 332.35019 342.3942 352.04221 360.98819 371.71619"
         y="47.987999"
         id="tspan174">им. Серго Орджоникидзе по специальности </tspan><tspan
         x="0 10.854 22.77 33.228001 40.751999 50.400002 61.127998 71.856003 80.711998 90.360001 101.178 111.906 121.248 125.892 135.414 145.782 156.24001 165.888 175.644 185.742 195.57001 206.298 217.026 226.368 231.01199 241.74001 251.388 256.03201 264.978 275.436 285.08401 295.81201 305.45999 315.828 325.87201 336.32999 345.276 355.104 365.95801"
         y="71.982002"
         id="tspan176">«Организация управления на транспорте».</tspan></text><text
       transform="matrix(1,0,0,-1,693,419.4943)"
       style="font-variant:normal;font-weight:normal;font-stretch:normal;font-size:18px;font-family:Rubik;-inkscape-font-specification:Rubik-Regular;writing-mode:lr-tb;fill:#faaa2d;fill-opacity:1;fill-rule:nonzero;stroke:none"
       id="text182"><tspan
         x="0 6.8579998"
         y="0"
         id="tspan180">• </tspan></text><text
       transform="matrix(1,0,0,-1,711,419.4943)"
       style="font-variant:normal;font-weight:300;font-stretch:normal;font-size:18px;font-family:'Rubik Light';-inkscape-font-specification:Rubik-Light;writing-mode:lr-tb;fill:#000000;fill-opacity:1;fill-rule:nonzero;stroke:none"
       id="text198"><tspan
         x="0 12.6 23.058001 32.886002 43.254002 52.902 62.73 73.098 82.746002 91.692001 101.4462 111.5442 120.1122 124.7562 136.4742 146.5182 156.2742 166.1022 175.0482 184.6962 189.34019 199.70821 210.4362 220.8942 230.7222 239.8302 248.7762 258.82019 269.2782 279.3222 289.07819 293.7222 305.42221 317.3382 321.98221 332.83621 346.87619 356.9202 367.3782 377.02621 385.6824 395.72641 406.45441 411.09839 421.4664 431.51041 441.96841 450.9144"
         y="0"
         id="tspan184">Председатель Совета директоров АО «Морской порт </tspan><tspan
         x="0 11.718 21.365999 32.094002 41.202 50.147999 58.751999 71.351997 81.18 90.125999 99.954002 110.412 120.618 130.14 140.59801 148.12199 158.976 163.242 167.886 179.586 191.502 196.146 207 217.026 226.548 236.196 246.564 256.21201 266.94 277.668 287.31601 296.42401 307.15201 317.88 322.52399 334.47601 344.51999 354.978 364.62601 373.2804 383.3244 394.0524 398.69641 407.6424 417.6864 428.14441 435.45239 445.4964 455.25241 467.11441 477.84241"
         y="23.993999"
         id="tspan186">Санкт-Петербург», АО «Туапсинский морской торговый </tspan><tspan
         x="0 10.368 20.412001 30.870001 39.816002 50.669998 54.936001 59.580002 71.279999 83.195999 87.839996 98.694 111.294 121.122 131.58 141.336 150.98399 160.326 164.97 177.57001 187.614 198.07201 207.01801 217.062 226.81799 236.466 245.808 250.452 260.96219 271.0062 282.95819 293.3262 302.97421 313.70221 324.43021 333.77219 344.62619 348.89221 353.53619 365.23621 377.15219 381.7962 392.65021 404.36819 413.8902 424.25821 434.30219 443.62619 453.6702 464.03821 474.7662 484.41422 493.7562"
         y="47.987999"
         id="tspan188">порт», АО «Первая Портовая Компания», АО «Судоходная </tspan><tspan
         x="0 8.658 18.702 30.653999 41.021999 50.669998 61.397999 72.125999 81.468002 86.112 96.966003 108.72 118.584 128.68201 142.164 151.812 160.4682 170.51221 180.34019 184.98421 195.3522 205.0002 215.45821 225.5022 234.8262 244.87019 255.2382 264.8862 273.83221 283.5882 293.6322 304.48621 308.7522 313.39621 322.8822 332.98019 342.8082 353.53619 358.18021 369.89819 379.9422 389.69821 399.52621 408.4722 418.12021"
         y="71.982002"
         id="tspan190">компания «Волжское пароходство», член Совета </tspan><tspan
         x="0 10.368 21.096001 31.554001 41.382 50.490002 59.436001 69.480003 79.938004 89.982002 99.737999 104.382 114.642 124.506 135.162 144.8802 156.59821 169.1982 179.8542 191.37421 196.0182 207.9702 219.4902 231.4062 243.84419 254.73241 259.3764 271.97641 283.8924 293.75641 305.94241 310.46039 322.7724 334.7244 345.61441 350.25839 360.12241 364.64041 378.68039 383.19839 393.2244 403.8804 415.7226 419.98859"
         y="95.975998"
         id="tspan192">директоров FLETCHER GROUP HOLDINGS LIMITED, </tspan><tspan
         x="0 9.4860001 19.584 29.412001 40.139999 44.784 57.383999 67.842003 77.669998 86.526001 97.253998 107.622 118.35 127.872 139.82401 149.472 154.116 165.834 177.138 189.054 193.698 205.416 215.46001 229.194 238.05 242.694 252.216 261.702 271.35001 280.99799 289.944 300.672 311.39999 320.05441 330.09839 339.8544 344.49841 354.95639 366.81839 377.54639 386.65439 396.3024 400.94641 410.16061 419.80859 429.90659 439.42859 446.95261"
         y="119.97"
         id="tspan194">член Президиума СРО Союз участников рынка услуг </tspan><tspan
         x="0 10.044 20.412001 30.24 40.698002 50.346001 59.292 69.335999 79.793999 89.837997 99.594002 104.238 117.72 127.4742 137.5722 147.40021 156.2562 166.98421 177.0282 187.39619 197.4402 207.89819 217.9422 231.42419 242.15221 252.1962 259.50421 269.54819 274.1922 284.56021 294.60419 304.9722 314.72821 325.45621 338.9382 349.6662 359.71021 367.01639 377.06039 381.70441 391.35239 401.39639 411.0444 419.99039 429.6384 439.39441 449.04239"
         y="143.964"
         id="tspan196">операторов железнодорожного подвижного состава.</tspan></text><text
       transform="matrix(1,0,0,-1,693,241.5283)"
       style="font-variant:normal;font-weight:normal;font-stretch:normal;font-size:18px;font-family:Rubik;-inkscape-font-specification:Rubik-Regular;writing-mode:lr-tb;fill:#faaa2d;fill-opacity:1;fill-rule:nonzero;stroke:none"
       id="text202"><tspan
         x="0 6.8579998"
         y="0"
         id="tspan200">• </tspan></text><text
       transform="matrix(1,0,0,-1,711,241.5283)"
       style="font-variant:normal;font-weight:300;font-stretch:normal;font-size:18px;font-family:'Rubik Light';-inkscape-font-specification:Rubik-Light;writing-mode:lr-tb;fill:#000000;fill-opacity:1;fill-rule:nonzero;stroke:none"
       id="text206"><tspan
         x="0 12.168 22.032 32.130001 41.958 52.686001 57.330002 66.851997 76.337997 85.986 95.634003 104.58 115.308 124.65 129.29401 139.05 143.694 152.9082 162.5562 171.5022 181.15021 190.9062 201.6342 211.67821 223.6302 228.2742 237.3822 247.0302 257.39819 268.12619 277.0722 286.72021 296.81821 306.64621 311.29019 323.8902 332.98019 344.0322 348.67621 359.40421 369.23221 373.87619 384.60419 396.55621 406.38419 416.21219 425.1582"
         y="0"
         id="tspan204">Долей участия в уставном капитале ПГК не имеет.</tspan></text><text
       transform="matrix(1,0,0,-1,1305,807.0804)"
       style="font-variant:normal;font-weight:normal;font-stretch:normal;font-size:28px;font-family:'Prosto One';-inkscape-font-specification:ProstoOne-Regular;writing-mode:lr-tb;fill:#000000;fill-opacity:1;fill-rule:nonzero;stroke:none"
       id="text212"><tspan
         x="0 21.98 44.939999 63.419998 85.540001 109.62 133.14"
         y="0"
         id="tspan208">БАГРИН </tspan><tspan
         x="0 25.200001 48.439999 68.32 86.800003 96.599998 119 142.24001 165.2 189.56 213.64 244.44 268.51999 290.64001 315.84 338.23999 362.32001"
         y="33.599998"
         id="tspan210">ОЛЕГ ВЛАДИМИРОВИЧ</tspan></text><text
       transform="matrix(1,0,0,-1,1287,717.4804)"
       style="font-variant:normal;font-weight:normal;font-stretch:normal;font-size:18px;font-family:Rubik;-inkscape-font-specification:Rubik-Regular;writing-mode:lr-tb;fill:#faaa2d;fill-opacity:1;fill-rule:nonzero;stroke:none"
       id="text216"><tspan
         x="0 6.8579998"
         y="0"
         id="tspan214">• </tspan></text><text
       transform="matrix(1,0,0,-1,1305,717.4804)"
       style="font-variant:normal;font-weight:500;font-stretch:normal;font-size:20px;font-family:'Rubik Medium';-inkscape-font-specification:Rubik-Medium;writing-mode:lr-tb;fill:#000000;fill-opacity:1;fill-rule:nonzero;stroke:none"
       id="text222"><tspan
         x="0 14.6 26.879999 38.439999 51.02 62.459999 74.019997 86.599998 98.040001 108.66 120.118 132.198 142.81799 147.37801 160.23801 172.09801 186.17799 198.658 209.278 220.838 231.45799 242.89799"
         y="0"
         id="tspan218">Председатель Комитета </tspan><tspan
         x="0 12.24 24.1 28.66 40.099998 50.720001 63 74.440002 85.059998 96.620003 105.54 118.02 129.60001 141.16 152.60001 163.59801 175.45799 189.53799 200.978 205.53799 217.778 229.858 241.298 253.778 266.258 278.53799 290.39801 302.09799 313.53799 326.01801 338.49799"
         y="26"
         id="tspan220">по стратегическому планированию</tspan></text><text
       transform="matrix(1,0,0,-1,1287,665.4803)"
       style="font-variant:normal;font-weight:normal;font-stretch:normal;font-size:18px;font-family:Rubik;-inkscape-font-specification:Rubik-Regular;writing-mode:lr-tb;fill:#faaa2d;fill-opacity:1;fill-rule:nonzero;stroke:none"
       id="text226"><tspan
         x="0 6.8579998"
         y="0"
         id="tspan224">• </tspan></text><text
       transform="matrix(1,0,0,-1,1305,665.4803)"
       style="font-variant:normal;font-weight:500;font-stretch:normal;font-size:20px;font-family:'Rubik Medium';-inkscape-font-specification:Rubik-Medium;writing-mode:lr-tb;fill:#000000;fill-opacity:1;fill-rule:nonzero;stroke:none"
       id="text230"><tspan
         x="0 13.56 25.639999 37.200001 49.68 54.240002 67.099998 78.959999 93.040001 105.52 116.14 127.7 138.32001 149.75999 154.32001 166.56 178.42 182.98 195.74001 208.22 223.5 235.78 247.64 259.34 271.20001 285.28 296.72 301.28 313.56 325 335.72 347.42001 359.89999 370.51999 383"
         y="0"
         id="tspan228">Член Комитета по цифровому развитию</tspan></text><text
       transform="matrix(1,0,0,-1,1287,559.4803)"
       style="font-variant:normal;font-weight:normal;font-stretch:normal;font-size:18px;font-family:Rubik;-inkscape-font-specification:Rubik-Regular;writing-mode:lr-tb;fill:#faaa2d;fill-opacity:1;fill-rule:nonzero;stroke:none"
       id="text234"><tspan
         x="0 6.8579998"
         y="0"
         id="tspan232">• </tspan></text><text
       transform="matrix(1,0,0,-1,1305,559.4803)"
       style="font-variant:normal;font-weight:300;font-stretch:normal;font-size:18px;font-family:'Rubik Light';-inkscape-font-specification:Rubik-Light;writing-mode:lr-tb;fill:#000000;fill-opacity:1;fill-rule:nonzero;stroke:none"
       id="text238"><tspan
         x="0 6.7319999 16.775999 27.143999 31.788 42.245998 52.290001 65.772003 76.139999 85.968002 96.695999 107.424 116.766 121.104 125.748 132.912 143.20799 151.34219"
         y="0"
         id="tspan236">Год рождения: 1974</tspan></text><text
       transform="matrix(1,0,0,-1,1287,525.4783)"
       style="font-variant:normal;font-weight:normal;font-stretch:normal;font-size:18px;font-family:Rubik;-inkscape-font-specification:Rubik-Regular;writing-mode:lr-tb;fill:#faaa2d;fill-opacity:1;fill-rule:nonzero;stroke:none"
       id="text242"><tspan
         x="0 6.8579998"
         y="0"
         id="tspan240">• </tspan></text><text
       transform="matrix(1,0,0,-1,1305,525.4783)"
       style="font-variant:normal;font-weight:300;font-stretch:normal;font-size:18px;font-family:'Rubik Light';-inkscape-font-specification:Rubik-Light;writing-mode:lr-tb;fill:#000000;fill-opacity:1;fill-rule:nonzero;stroke:none"
       id="text248"><tspan
         x="0 11.754 16.398001 23.562 33.858002 43.938 54.414001 59.057999 66.365997 76.410004 86.778 96.300003 100.944 110.988 119.646 129.69 140.418 149.90401 160.632 170.73 175.37399 182.1042 192.14819 201.7962 211.31821 221.6862 231.3342 241.79221 251.4402 260.3862 270.14221 279.97021 290.69821 301.42621 310.94821 324.68219 329.3262 338.97421 348.08221 357.73019 368.09821 377.92621 389.8782 400.6062 414.34021"
         y="0"
         id="tspan244">В 1996 году окончил Государственную академию </tspan><tspan
         x="0 9.5220003 19.889999 30.348 39.995998 49.751999 59.849998 69.678001 80.405998 91.134003 100.476 105.12 115.848 127.8 132.084 136.728 148.446 158.274 168.73199 176.03819 186.0822 190.7262 202.6422 213.1002 223.4682 236.9502 246.9942 257.7222 268.4502 277.5582 288.28619 298.65421 307.51019 317.3382 321.98221 327.00061 332.94061 337.22461 341.86859 355.9086 365.95261 375.60059 384.70859 394.4646 404.11261 409.85461"
         y="23.993999"
         id="tspan246">управления им. Серго Орджоникидзе (г. Москва).</tspan></text><text
       transform="matrix(1,0,0,-1,1287,467.4823)"
       style="font-variant:normal;font-weight:normal;font-stretch:normal;font-size:18px;font-family:Rubik;-inkscape-font-specification:Rubik-Regular;writing-mode:lr-tb;fill:#faaa2d;fill-opacity:1;fill-rule:nonzero;stroke:none"
       id="text252"><tspan
         x="0 6.8579998"
         y="0"
         id="tspan250">• </tspan></text><text
       transform="matrix(1,0,0,-1,1305,467.4823)"
       style="font-variant:normal;font-weight:300;font-stretch:normal;font-size:18px;font-family:'Rubik Light';-inkscape-font-specification:Rubik-Light;writing-mode:lr-tb;fill:#000000;fill-opacity:1;fill-rule:nonzero;stroke:none"
       id="text256"><tspan
         x="0 13.068 25.02 34.848 44.675999 53.622002 58.265999 67.914001 76.860001 86.688004 97.056 106.884 117.612 126.18 130.82401 139.93201 149.58 160.308 170.67599 181.40401 191.772 201.42 210.366 220.01401 224.658 234.306 242.9604 253.00439 263.73239 273.7764 285.72839 296.45639 305.94241 315.77039 325.4184 334.5264 345.25439 354.5784 359.22241 369.95041 379.59839 389.12039 398.22839"
         y="0"
         id="tspan254">Имеет степень кандидата экономических наук.</tspan></text><text
       transform="matrix(1,0,0,-1,1287,433.4803)"
       style="font-variant:normal;font-weight:normal;font-stretch:normal;font-size:18px;font-family:Rubik;-inkscape-font-specification:Rubik-Regular;writing-mode:lr-tb;fill:#faaa2d;fill-opacity:1;fill-rule:nonzero;stroke:none"
       id="text260"><tspan
         x="0 6.8579998"
         y="0"
         id="tspan258">• </tspan></text><text
       transform="matrix(1,0,0,-1,1305,433.4803)"
       style="font-variant:normal;font-weight:300;font-stretch:normal;font-size:18px;font-family:'Rubik Light';-inkscape-font-specification:Rubik-Light;writing-mode:lr-tb;fill:#000000;fill-opacity:1;fill-rule:nonzero;stroke:none"
       id="text266"><tspan
         x="0 11.754 16.398001 26.478001 37.566002 48.653999 58.950001 63.594002 70.902 80.945999 91.314003 100.836 105.48 115.848 125.712 135.81 145.332 154.81799 165.54601 175.644 180.28799 189.936 198.882 208.71001 219.078 228.90601 239.634 248.202 252.84599 266.88599 278.51041 289.7244"
         y="0"
         id="tspan262">В 2005 году получил степень MBA </tspan><tspan
         x="0 10.512 20.34 32.292 42.498001 52.956001 63.683998 74.052002 87.533997 97.181999 105.8382 115.8822 123.1902 133.23421 137.8782 147.40021 158.1282 168.8562 178.6122 188.4402 198.89819 208.5462 219.2742 228.2202 238.0482 246.9942 256.64221"
         y="23.993999"
         id="tspan264">Кембриджского университета.</tspan></text><text
       transform="matrix(1,0,0,-1,1287,375.4843)"
       style="font-variant:normal;font-weight:normal;font-stretch:normal;font-size:18px;font-family:Rubik;-inkscape-font-specification:Rubik-Regular;writing-mode:lr-tb;fill:#faaa2d;fill-opacity:1;fill-rule:nonzero;stroke:none"
       id="text270"><tspan
         x="0 6.8579998"
         y="0"
         id="tspan268">• </tspan></text><text
       transform="matrix(1,0,0,-1,1305,375.4843)"
       style="font-variant:normal;font-weight:300;font-stretch:normal;font-size:18px;font-family:'Rubik Light';-inkscape-font-specification:Rubik-Light;writing-mode:lr-tb;fill:#000000;fill-opacity:1;fill-rule:nonzero;stroke:none"
       id="text276"><tspan
         x="0 11.43 21.528 31.356001 42.084 46.728001 58.445999 68.489998 78.246002 88.073997 97.019997 106.668 111.312 121.68 132.408 142.866 152.694 161.802 170.748 180.79201 191.25 201.29401 211.05 215.694 228.29401 239.994 251.91 256.55399 267.40799 280.008 292.24799 306.28799 317.34 328.194 332.45999"
         y="0"
         id="tspan272">Член Совета директоров ПАО «НЛМК», </tspan><tspan
         x="0 10.26 20.124001 30.780001 40.5 52.217999 64.818001 75.473999 86.994003 91.638 103.59 115.11 127.026 139.464 150.3522 154.9962 167.59621 179.51221 189.37621 201.56219 206.0802 218.3922 230.34419 241.23421 245.8782 255.7422 260.26019 274.3002 278.81821 288.84421 299.50021 311.34241"
         y="23.993999"
         id="tspan274">FLETCHER GROUP HOLDINGS LIMITED.</tspan></text><text
       transform="matrix(1,0,0,-1,1287,317.4883)"
       style="font-variant:normal;font-weight:normal;font-stretch:normal;font-size:18px;font-family:Rubik;-inkscape-font-specification:Rubik-Regular;writing-mode:lr-tb;fill:#faaa2d;fill-opacity:1;fill-rule:nonzero;stroke:none"
       id="text280"><tspan
         x="0 6.8579998"
         y="0"
         id="tspan278">• </tspan></text><text
       transform="matrix(1,0,0,-1,1305,317.4883)"
       style="font-variant:normal;font-weight:300;font-stretch:normal;font-size:18px;font-family:'Rubik Light';-inkscape-font-specification:Rubik-Light;writing-mode:lr-tb;fill:#000000;fill-opacity:1;fill-rule:nonzero;stroke:none"
       id="text284"><tspan
         x="0 12.168 22.032 32.130001 41.958 52.686001 57.330002 66.851997 76.337997 85.986 95.634003 104.58 115.308 124.65 129.29401 139.05 143.694 152.9082 162.5562 171.5022 181.15021 190.9062 201.6342 211.67821 223.6302 228.2742 237.3822 247.0302 257.39819 268.12619 277.0722 286.72021 296.81821 306.64621 311.29019 323.8902 332.98019 344.0322 348.67621 359.40421 369.23221 373.87619 384.60419 396.55621 406.38419 416.21219 425.1582"
         y="0"
         id="tspan282">Долей участия в уставном капитале ПГК не имеет.</tspan></text><path
       d="M 0,893.4 H 1920 V 1080 H 0 Z"
       style="fill:#e8e8ed;fill-opacity:1;fill-rule:nonzero;stroke:none"
       id="path286" /><text
       transform="matrix(1,0,0,-1,99,953.4)"
       style="font-variant:normal;font-weight:normal;font-stretch:normal;font-size:38px;font-family:'Prosto One';-inkscape-font-specification:ProstoOne-Regular;writing-mode:lr-tb;fill:#000000;fill-opacity:1;fill-rule:nonzero;stroke:none"
       id="text290"><tspan
         x="0 32.68 64.599998 102.41 136.61 166.63 208.42999 239.59 272.84 305.51999 335.92001 349.22 383.42001 396.72 426.54999 458.09 485.07001 516.98999 548.15002 577.21997 590.52002 620.53998 654.73999 685.14001 712.12 738.90997 770.07001 783.37 816.42999 849.10999 879.13 906.10999 936.32001 963.10999 997.31 1027.33 1061.53"
         y="0"
         id="tspan288">ИНФОРМАЦИЯ О ЧЛЕНАХ СОВЕТА ДИРЕКТОРОВ</tspan></text><text
       transform="matrix(1,0,0,-1,1545.0232,961.5)"
       style="font-variant:normal;font-weight:500;font-stretch:normal;font-size:20px;font-family:'Rubik Medium';-inkscape-font-specification:Rubik-Medium;writing-mode:lr-tb;fill:#000000;fill-opacity:1;fill-rule:nonzero;stroke:none"
       id="text294"><tspan
         x="0 12.24 24.1 28.66 40.099998 51.959999 63.400002 74.019997 85.879997 97.400002 109.88 122.36 139.08 143.64 156.12 167.56 172.12 184.418 193.698 197.758 207.03799 219.438 224.81799 237.218 250.39799 262.798"
         y="0"
         id="tspan292">по состоянию на 31.12.2020</tspan></text><g
       id="g296"
       transform="translate(99,102)"><path
         d="M 0,0 H 534"
         style="fill:none;stroke:#e8e8ed;stroke-width:4;stroke-linecap:butt;stroke-linejoin:miter;stroke-miterlimit:4;stroke-dasharray:none;stroke-opacity:1"
         id="path298" /></g><g
       id="g300"
       transform="translate(693,102)"><path
         d="M 0,0 H 534"
         style="fill:none;stroke:#e8e8ed;stroke-width:4;stroke-linecap:butt;stroke-linejoin:miter;stroke-miterlimit:4;stroke-dasharray:none;stroke-opacity:1"
         id="path302" /></g><g
       id="g304"
       transform="translate(1287,102)"><path
         d="M 0,0 H 534"
         style="fill:none;stroke:#e8e8ed;stroke-width:4;stroke-linecap:butt;stroke-linejoin:miter;stroke-miterlimit:4;stroke-dasharray:none;stroke-opacity:1"
         id="path306" /></g><text
       transform="matrix(1,0,0,-1,39.9501,1023)"
       style="font-variant:normal;font-weight:300;font-stretch:normal;font-size:20px;font-family:'Rubik Light';-inkscape-font-specification:Rubik-Light;writing-mode:lr-tb;fill:#000000;fill-opacity:1;fill-rule:nonzero;stroke:none"
       id="text310"><tspan
         x="0 11.14"
         y="0"
         id="tspan308">61</tspan></text><g
       id="g312"><g
         id="g314"><g
           id="g316"
           clip-path="url(#clipPath320)"><text
             transform="matrix(1,0,0,-1,99,1023)"
             style="font-variant:normal;font-weight:300;font-stretch:normal;font-size:20px;font-family:'Rubik Light';-inkscape-font-specification:Rubik-Light;writing-mode:lr-tb;fill:#000000;fill-opacity:1;fill-rule:nonzero;stroke:none"
             id="text324"><tspan
               x="0 13.24 18.4 28.02 39.18 52.459999 63.98 74.699997 86.620003 98.540001"
               y="0"
               id="tspan322">О компании</tspan></text></g></g></g></g></svg>
