<?xml version="1.0" encoding="UTF-8" standalone="no"?>
<?xml-stylesheet type="text/css" href="main.css" ?>
<svg
   xmlns:dc="http://purl.org/dc/elements/1.1/"
   xmlns:cc="http://creativecommons.org/ns#"
   xmlns:rdf="http://www.w3.org/1999/02/22-rdf-syntax-ns#"
   xmlns:svg="http://www.w3.org/2000/svg"
   xmlns="http://www.w3.org/2000/svg"
   version="1.1"
   id="svg2"
   xml:space="preserve"
   width="2560"
   height="1440"
   viewBox="0 0 2560 1440"><metadata
     id="metadata8"><rdf:RDF><cc:Work
         rdf:about=""><dc:format>image/svg+xml</dc:format><dc:type
           rdf:resource="http://purl.org/dc/dcmitype/StillImage" /></cc:Work></rdf:RDF></metadata><defs
     id="defs6"><clipPath
       clipPathUnits="userSpaceOnUse"
       id="clipPath20"><path
         d="M 0,1080 H 1920 V 0 H 0 Z"
         id="path18" /></clipPath></defs><g
     id="g10"
     transform="matrix(1.3333333,0,0,-1.3333333,0,1440)"><g
       id="g12"><g
         id="g14"><g
           id="g16"
           clip-path="url(#clipPath20)"><path
             d="M 0,0 H 1920 V 1080 H 0 Z"
             style="fill:#ffffff;fill-opacity:1;fill-rule:nonzero;stroke:none"
             id="path22" /></g></g></g><path
       d="M 0,893.4 H 1920 V 1080 H 0 Z"
       style="fill:#f0f0f5;fill-opacity:1;fill-rule:nonzero;stroke:none"
       id="path24" /><text
       transform="matrix(1,0,0,-1,99,953.4)"
       style="font-variant:normal;font-weight:normal;font-stretch:normal;font-size:38px;font-family:'Prosto One';-inkscape-font-specification:ProstoOne-Regular;writing-mode:lr-tb;fill:#000000;fill-opacity:1;fill-rule:nonzero;stroke:none"
       id="text28"><tspan
         x="0 32.68 64.599998 102.41 136.61 166.63 208.42999 239.59 272.84 305.51999 335.92001 349.22 383.42001 396.72 426.54999 458.09 485.07001 516.98999 548.15002 577.21997 590.52002 620.53998 654.73999 685.14001 712.12 738.90997 770.07001 783.37 816.42999 849.10999 879.13 906.10999 936.32001 963.10999 997.31 1027.33 1061.53"
         y="0"
         id="tspan26">ИНФОРМАЦИЯ О ЧЛЕНАХ СОВЕТА ДИРЕКТОРОВ</tspan></text><text
       transform="matrix(1,0,0,-1,117,807.0804)"
       style="font-variant:normal;font-weight:normal;font-stretch:normal;font-size:28px;font-family:'Prosto One';-inkscape-font-specification:ProstoOne-Regular;writing-mode:lr-tb;fill:#000000;fill-opacity:1;fill-rule:nonzero;stroke:none"
       id="text34"><tspan
         x="0 21.98 44.939999 64.68 93.940002 116.06 135.94 158.34"
         y="0"
         id="tspan30">БАТЫРЕВ </tspan><tspan
         x="0 22.959999 46.48 66.220001 91.419998 114.94 124.74 148.82001 170.94 193.2 216.16 239.67999 264.04001 283.92001 306.04001 331.23999 353.64001 377.72"
         y="33.599998"
         id="tspan32">АНТОН ИСКАНДЕРОВИЧ</tspan></text><text
       transform="matrix(1,0,0,-1,99,717.4804)"
       style="font-variant:normal;font-weight:normal;font-stretch:normal;font-size:18px;font-family:Rubik;-inkscape-font-specification:Rubik-Regular;writing-mode:lr-tb;fill:#fdb73e;fill-opacity:1;fill-rule:nonzero;stroke:none"
       id="text38"><tspan
         x="0 6.8759999"
         y="0"
         id="tspan36">• </tspan></text><text
       transform="matrix(1,0,0,-1,117,717.4804)"
       style="font-variant:normal;font-weight:500;font-stretch:normal;font-size:20px;font-family:'Rubik Medium';-inkscape-font-specification:Rubik-Medium;writing-mode:lr-tb;fill:#000000;fill-opacity:1;fill-rule:nonzero;stroke:none"
       id="text42"><tspan
         x="0 13.52 25.58 37.119999 49.580002 54.16 67.559998 79.400002 93.459999 105.92 116.52 128.06 138.66 150.08 154.66 166.88 178.72 183.3 194.72 205.32001 217.60001 229.02 239.62 251.16 260.06 272.51999 284.07999 295.62 307.04001 318.45999 330.29999 344.35999 355.76001 360.34 372.56 384.62 396.04001 408.5 420.95999 433.23999 445.07999 456.73999 468.16 480.62 493.07999"
         y="0"
         id="tspan40">Член Комитета по стратегическому планированию</tspan></text><text
       transform="matrix(1,0,0,-1,99,691.4803)"
       style="font-variant:normal;font-weight:normal;font-stretch:normal;font-size:18px;font-family:Rubik;-inkscape-font-specification:Rubik-Regular;writing-mode:lr-tb;fill:#fdb73e;fill-opacity:1;fill-rule:nonzero;stroke:none"
       id="text46"><tspan
         x="0 6.8759999"
         y="0"
         id="tspan44">• </tspan></text><text
       transform="matrix(1,0,0,-1,117,691.4803)"
       style="font-variant:normal;font-weight:500;font-stretch:normal;font-size:20px;font-family:'Rubik Medium';-inkscape-font-specification:Rubik-Medium;writing-mode:lr-tb;fill:#000000;fill-opacity:1;fill-rule:nonzero;stroke:none"
       id="text50"><tspan
         x="0 13.52 25.58 37.119999 49.580002 54.16 67.559998 79.400002 93.459999 105.92 116.52 128.06 138.66 150.08 154.66 166.88 178.72 183.3 194.72 206.12 218.67999 231.14 241.74001"
         y="0"
         id="tspan48">Член Комитета по аудиту</tspan></text><text
       transform="matrix(1,0,0,-1,99,585.4803)"
       style="font-variant:normal;font-weight:normal;font-stretch:normal;font-size:18px;font-family:Rubik;-inkscape-font-specification:Rubik-Regular;writing-mode:lr-tb;fill:#fdb73e;fill-opacity:1;fill-rule:nonzero;stroke:none"
       id="text54"><tspan
         x="0 6.8759999"
         y="0"
         id="tspan52">• </tspan></text><text
       transform="matrix(1,0,0,-1,117,585.4803)"
       style="font-variant:normal;font-weight:300;font-stretch:normal;font-size:18px;font-family:'Rubik Light';-inkscape-font-specification:Rubik-Light;writing-mode:lr-tb;fill:#000000;fill-opacity:1;fill-rule:nonzero;stroke:none"
       id="text58"><tspan
         x="0 9.0900002 19.134001 29.502001 34.146 44.604 54.647999 68.129997 78.498001 88.325996 99.054001 109.782 119.124 123.462 128.106 135.27 145.56599 154.332"
         y="0"
         id="tspan56">Год рождения: 1977</tspan></text><text
       transform="matrix(1,0,0,-1,99,551.4783)"
       style="font-variant:normal;font-weight:normal;font-stretch:normal;font-size:18px;font-family:Rubik;-inkscape-font-specification:Rubik-Regular;writing-mode:lr-tb;fill:#fdb73e;fill-opacity:1;fill-rule:nonzero;stroke:none"
       id="text62"><tspan
         x="0 6.8759999"
         y="0"
         id="tspan60">• </tspan></text><text
       transform="matrix(1,0,0,-1,117,551.4783)"
       style="font-variant:normal;font-weight:300;font-stretch:normal;font-size:18px;font-family:'Rubik Light';-inkscape-font-specification:Rubik-Light;writing-mode:lr-tb;fill:#000000;fill-opacity:1;fill-rule:nonzero;stroke:none"
       id="text68"><tspan
         x="0 11.754 16.398001 23.562 33.858002 44.153999 55.278 59.922001 67.445999 77.489998 87.858002 97.379997 102.024 112.068 121.176 131.22 141.948 151.43401 162.162 172.25999 176.90401 193.356 203.814 214.54201 224.91 235.638 245.12399 254.952 264.60001 273.70801 284.436 295.164"
         y="0"
         id="tspan64">В 1998 году окончил Юридический </tspan><tspan
         x="0 9.1079998 19.152 29.25 39.348 49.175999 59.543999 73.026001 77.669998 91.709999 100.8 110.934 115.578 126.306 138.258 142.54201 147.186 161.226 165.50999 170.15401 181.908 186.192 190.836 203.076 213.12 225.07201 235.116 245.84399 255.888 265.53601 275.57999 285.336 294.98401"
         y="23.993999"
         id="tspan66">колледж МГУ им. М. В. Ломоносова.</tspan></text><text
       transform="matrix(1,0,0,-1,99,493.4823)"
       style="font-variant:normal;font-weight:normal;font-stretch:normal;font-size:18px;font-family:Rubik;-inkscape-font-specification:Rubik-Regular;writing-mode:lr-tb;fill:#fdb73e;fill-opacity:1;fill-rule:nonzero;stroke:none"
       id="text72"><tspan
         x="0 6.8759999"
         y="0"
         id="tspan70">• </tspan></text><text
       transform="matrix(1,0,0,-1,117,493.4823)"
       style="font-variant:normal;font-weight:300;font-stretch:normal;font-size:18px;font-family:'Rubik Light';-inkscape-font-specification:Rubik-Light;writing-mode:lr-tb;fill:#000000;fill-opacity:1;fill-rule:nonzero;stroke:none"
       id="text76"><tspan
         x="0 11.754 16.398001 23.562 33.858002 44.153999 54.450001 59.094002 66.617996 76.662003 87.029999 96.552002 101.196 111.24 120.348 130.392 141.12 150.606 161.334 171.43201 176.076 188.51401 199.134 203.14799 212.79601 222.62399 228.888 237.744 241.758 248.22 257.79599 262.44 272.48401 278.96399 283.608 297.64801 301.66199 311.31 321.948 325.96201 336.42001 346.06799 356.68799 361.332 371.19601 380.84399 394.992 399.63599 410.526 420.17401 430.81201 440.85599 450.89999 454.95001"
         y="0"
         id="tspan74">В 1999 году окончил University of Michigan Law School.</tspan></text><text
       transform="matrix(1,0,0,-1,99,459.4803)"
       style="font-variant:normal;font-weight:normal;font-stretch:normal;font-size:18px;font-family:Rubik;-inkscape-font-specification:Rubik-Regular;writing-mode:lr-tb;fill:#fdb73e;fill-opacity:1;fill-rule:nonzero;stroke:none"
       id="text80"><tspan
         x="0 6.8759999"
         y="0"
         id="tspan78">• </tspan></text><text
       transform="matrix(1,0,0,-1,117,459.4803)"
       style="font-variant:normal;font-weight:300;font-stretch:normal;font-size:18px;font-family:'Rubik Light';-inkscape-font-specification:Rubik-Light;writing-mode:lr-tb;fill:#000000;fill-opacity:1;fill-rule:nonzero;stroke:none"
       id="text88"><tspan
         x="0 11.43 21.528 31.356001 42.084 46.728001 58.445999 68.489998 78.246002 88.073997 97.019997 106.668 111.312 121.68 132.408 142.866 152.694 161.802 170.748 180.79201 191.25 201.29401 211.05 215.694 225.95399 235.81799 246.474 256.5 268.21799 280.81799 291.474 302.99399 307.638 319.59 331.10999 343.026 355.46399 366.76801 371.41199 384.01199 395.92801 405.79199 417.978 422.496 434.80801 446.76001 457.64999"
         y="0"
         id="tspan82">Член Совета директоров FLETCHER GROUP HOLDINGS </tspan><tspan
         x="0 9.8640003 14.382 28.422001 32.939999 42.966 53.622002 65.807999 70.073997 74.718002 87.029999 96.893997 110.934 121.284 125.928 130.446 141.06599 151.506 155.52 165.168 175.78799 185.436 190.08 199.944 209.808 221.526 225.79201 230.436 241.326 251.964 261.612 267.87601 277.92001 288.54001 293.18399 304.90201 314.94601 324.59399 331.056 335.07001 345.69 356.14801 360.79199 370.65601 380.51999 392.23801 396.504 401.14801 413.45999 423.32401 437.36401 447.71399"
         y="23.993999"
         id="tspan84">LIMITED, NLMK Indiana LLC, Sharon Coating LLC, NLMK </tspan><tspan
         x="0 11.304 21.132 31.752001 42.372002 51.228001 60.804001 64.853996 74.501999 84.150002 94.769997 98.783997 108.432 113.076 122.94 132.804 144.522 148.78799 153.43201 165.132 177.048 181.692 192.54601 205.146 214.974 225.43201 235.188 244.836 254.17799 258.82199 271.422 281.466 291.92401 300.87 310.914 320.67001 330.31799 339.66 344.30399 355.35599 365.39999 377.35199 387.72 397.36801 408.09601 418.82401 428.16599 439.01999"
         y="47.987999"
         id="tspan86">Pennsylvania LLC, АО «Первая Портовая Компания».</tspan></text><text
       transform="matrix(1,0,0,-1,99,377.4903)"
       style="font-variant:normal;font-weight:normal;font-stretch:normal;font-size:18px;font-family:Rubik;-inkscape-font-specification:Rubik-Regular;writing-mode:lr-tb;fill:#fdb73e;fill-opacity:1;fill-rule:nonzero;stroke:none"
       id="text92"><tspan
         x="0 6.8759999"
         y="0"
         id="tspan90">• </tspan></text><text
       transform="matrix(1,0,0,-1,117,377.4903)"
       style="font-variant:normal;font-weight:300;font-stretch:normal;font-size:18px;font-family:'Rubik Light';-inkscape-font-specification:Rubik-Light;writing-mode:lr-tb;fill:#000000;fill-opacity:1;fill-rule:nonzero;stroke:none"
       id="text96"><tspan
         x="0 12.168 22.212 32.310001 42.138 52.866001 57.509998 67.031998 76.517998 86.166 95.814003 104.76 115.488 124.83 129.474 139.23 143.87399 153.396 163.04401 171.99001 181.638 191.394 202.12199 212.166 224.118 228.76199 237.87 247.51801 257.88599 268.61401 277.56 287.20801 297.306 307.134 311.77802 324.37799 333.46799 344.51999 349.164 359.892 369.72 374.36401 385.09201 397.04401 406.87201 416.70001 425.646"
         y="0"
         id="tspan94">Долей участия в уставном капитале ПГК не имеет.</tspan></text><text
       transform="matrix(1,0,0,-1,711,807.0804)"
       style="font-variant:normal;font-weight:normal;font-stretch:normal;font-size:28px;font-family:'Prosto One';-inkscape-font-specification:ProstoOne-Regular;writing-mode:lr-tb;fill:#000000;fill-opacity:1;fill-rule:nonzero;stroke:none"
       id="text102"><tspan
         x="0 22.26 46.34 68.459999 100.8 122.22 145.17999 168.7 193.2 213.08 235.48"
         y="0"
         id="tspan98">КИРЮХАНЦЕВ </tspan><tspan
         x="0 23.52 46.48 68.879997 88.760002 112 121.8 144.75999 168.28 191.24001 210.98 236.17999 259.42001 281.54001 301.42001 323.82001 347.89999"
         y="33.599998"
         id="tspan100">ПАВЕЛ АНАТОЛЬЕВИЧ</tspan></text><text
       transform="matrix(1,0,0,-1,693,717.4804)"
       style="font-variant:normal;font-weight:normal;font-stretch:normal;font-size:18px;font-family:Rubik;-inkscape-font-specification:Rubik-Regular;writing-mode:lr-tb;fill:#fdb73e;fill-opacity:1;fill-rule:nonzero;stroke:none"
       id="text106"><tspan
         x="0 6.8759999"
         y="0"
         id="tspan104">• </tspan></text><text
       transform="matrix(1,0,0,-1,711,717.4804)"
       style="font-variant:normal;font-weight:500;font-stretch:normal;font-size:20px;font-family:'Rubik Medium';-inkscape-font-specification:Rubik-Medium;writing-mode:lr-tb;fill:#000000;fill-opacity:1;fill-rule:nonzero;stroke:none"
       id="text110"><tspan
         x="0 14.58 26.120001 36.82 48.240002 59.900002 72.360001 83.779999 96.239998 110.3 125.6 138.06 142.64 155.2 167.66 179.94 191.48 202.89999 213.5 225.34"
         y="0"
         id="tspan108">Независимый директор</tspan></text><text
       transform="matrix(1,0,0,-1,693,691.4803)"
       style="font-variant:normal;font-weight:normal;font-stretch:normal;font-size:18px;font-family:Rubik;-inkscape-font-specification:Rubik-Regular;writing-mode:lr-tb;fill:#fdb73e;fill-opacity:1;fill-rule:nonzero;stroke:none"
       id="text114"><tspan
         x="0 6.8759999"
         y="0"
         id="tspan112">• </tspan></text><text
       transform="matrix(1,0,0,-1,711,691.4803)"
       style="font-variant:normal;font-weight:500;font-stretch:normal;font-size:20px;font-family:'Rubik Medium';-inkscape-font-specification:Rubik-Medium;writing-mode:lr-tb;fill:#000000;fill-opacity:1;fill-rule:nonzero;stroke:none"
       id="text120"><tspan
         x="0 14.58 26.860001 38.400002 50.959999 62.380001 73.919998 86.480003 97.900002 108.5 120.04 132.10001 142.7 147.28 160.67999 172.52 186.58 199.03999 209.64 221.17999 231.78 243.2 247.78 260 271.84 276.42001 287.84 299.26001 311.82001 324.10001 335.51999 349.57999"
         y="0"
         id="tspan116">Председатель Комитета по кадрам </tspan><tspan
         x="0 12.46 17.040001 28.700001 40.540001 51.240002 63.700001 75.120003 84.019997 96.300003 107.72 124.84 137.39999 148.94 161.39999 173.86 185.34"
         y="26"
         id="tspan118">и вознаграждениям</tspan></text><text
       transform="matrix(1,0,0,-1,693,585.4803)"
       style="font-variant:normal;font-weight:normal;font-stretch:normal;font-size:18px;font-family:Rubik;-inkscape-font-specification:Rubik-Regular;writing-mode:lr-tb;fill:#fdb73e;fill-opacity:1;fill-rule:nonzero;stroke:none"
       id="text124"><tspan
         x="0 6.8759999"
         y="0"
         id="tspan122">• </tspan></text><text
       transform="matrix(1,0,0,-1,711,585.4803)"
       style="font-variant:normal;font-weight:300;font-stretch:normal;font-size:18px;font-family:'Rubik Light';-inkscape-font-specification:Rubik-Light;writing-mode:lr-tb;fill:#000000;fill-opacity:1;fill-rule:nonzero;stroke:none"
       id="text128"><tspan
         x="0 9.0900002 19.134001 29.502001 34.146 44.604 54.647999 68.129997 78.498001 88.325996 99.054001 109.782 119.124 123.462 128.106 135.27 145.34821 155.8242"
         y="0"
         id="tspan126">Год рождения: 1964</tspan></text><text
       transform="matrix(1,0,0,-1,693,551.4783)"
       style="font-variant:normal;font-weight:normal;font-stretch:normal;font-size:18px;font-family:Rubik;-inkscape-font-specification:Rubik-Regular;writing-mode:lr-tb;fill:#fdb73e;fill-opacity:1;fill-rule:nonzero;stroke:none"
       id="text132"><tspan
         x="0 6.8759999"
         y="0"
         id="tspan130">• </tspan></text><text
       transform="matrix(1,0,0,-1,711,551.4783)"
       style="font-variant:normal;font-weight:300;font-stretch:normal;font-size:18px;font-family:'Rubik Light';-inkscape-font-specification:Rubik-Light;writing-mode:lr-tb;fill:#000000;fill-opacity:1;fill-rule:nonzero;stroke:none"
       id="text138"><tspan
         x="0 11.754 16.398001 23.562 33.858002 44.981998 55.458 60.102001 67.625999 77.669998 88.038002 97.559998 102.204 112.248 121.356 131.39999 142.12801 151.614 162.342 172.44 177.084 189.32401 199.15199 209.88 220.608 231.336 238.86 249.31799 258.966 269.33401 278.98199 288.09 298.81799 309.54599 314.19 321.71399 331.758 341.40601 350.92801 361.29599 370.944 381.40201 391.04999 399.996 409.75201 419.57999 430.30801 441.03601 452.89801 463.62601"
         y="0"
         id="tspan134">В 1986 году окончил Ленинградский государственный </tspan><tspan
         x="0 9.5220003 20.25 30.978001 40.734001 50.562 61.02 70.667999 81.396004 90.342003 100.17 109.116 113.76 124.128 134.172 138.81599 148.464 158.832 168.66 179.478 190.20599 199.854 209.952 218.52 229.248 239.29201 248.94 257.88599 268.61401 273.258 284.112 295.82999 305.87399 316.69199 327.42001 337.06799 347.16599 355.73401 366.46201 376.10999 385.452 390.09601 400.46399 410.112 420.84 430.164 440.20801 450.306 460.35001 467.87399 478.60199 487.944 498.798"
         y="23.993999"
         id="tspan136">университет по специальности «Социальная психология».</tspan></text><text
       transform="matrix(1,0,0,-1,693,493.4823)"
       style="font-variant:normal;font-weight:normal;font-stretch:normal;font-size:18px;font-family:Rubik;-inkscape-font-specification:Rubik-Regular;writing-mode:lr-tb;fill:#fdb73e;fill-opacity:1;fill-rule:nonzero;stroke:none"
       id="text142"><tspan
         x="0 6.8759999"
         y="0"
         id="tspan140">• </tspan></text><text
       transform="matrix(1,0,0,-1,711,493.4823)"
       style="font-variant:normal;font-weight:300;font-stretch:normal;font-size:18px;font-family:'Rubik Light';-inkscape-font-specification:Rubik-Light;writing-mode:lr-tb;fill:#000000;fill-opacity:1;fill-rule:nonzero;stroke:none"
       id="text148"><tspan
         x="0 11.754 16.398001 23.562 33.858002 44.153999 51.318001 55.962002 66.005997 75.113998 85.157997 95.886002 105.372 116.1 126.198 130.842 144.882 148.896 158.54401 169.18201 179.00999 183.06 187.70399 192.222 202.842 211.698 218.16 222.174 228.636 239.166 245.62801 255.45599 260.10001 265.84201 274.93201 284.76001 295.21799 307.17001 316.81799 327.54599 338.27399 347.616 353.358"
         y="0"
         id="tspan144">В 1991 окончил Michel Institute (Германия) </tspan><tspan
         x="0 10.728 15.372 25.128 29.771999 39.852001 50.939999 62.028 73.152 81.917999 93.870003 98.514 112.32 116.964 121.482 133.79401 144.68401 155.34 167.03999 179.226 183.87 189.612 204.46201 214.92 224.56799 235.29601 246.114 256.84201 266.18399 271.92599"
         y="23.993999"
         id="tspan146">и в 2008-м — INSEAD (Франция).</tspan></text><text
       transform="matrix(1,0,0,-1,693,435.4863)"
       style="font-variant:normal;font-weight:normal;font-stretch:normal;font-size:18px;font-family:Rubik;-inkscape-font-specification:Rubik-Regular;writing-mode:lr-tb;fill:#fdb73e;fill-opacity:1;fill-rule:nonzero;stroke:none"
       id="text152"><tspan
         x="0 6.8759999"
         y="0"
         id="tspan150">• </tspan></text><text
       transform="matrix(1,0,0,-1,711,435.4863)"
       style="font-variant:normal;font-weight:300;font-stretch:normal;font-size:18px;font-family:'Rubik Light';-inkscape-font-specification:Rubik-Light;writing-mode:lr-tb;fill:#000000;fill-opacity:1;fill-rule:nonzero;stroke:none"
       id="text158"><tspan
         x="0 9.0900002 18.917999 29.646 39.473999 49.931999 59.580002 69.678001 78.246002 88.973999 100.836 111.564 116.208 126.576 137.304 147.76199 157.59 166.698 175.644 185.688 196.146 200.78999 211.57201 223.272 235.188 239.832 250.686 261.46799 271.29599 280.944 289.89001 294.534 306.77399 317.50201 327.87 337.698 348.15601 357.80399 368.65799"
         y="0"
         id="tspan154">Генеральный директор ЗАО «Зест Лидерс» </tspan><tspan
         x="0 10.728 15.372 27.288 39.203999 51.119999 55.764 66.617996 77.400002 87.227997 96.875999 105.822 110.466 120.492 131.22 143.172 147.81599 159.98399 169.812 179.56799 189.396 199.494 209.53799 219.90601 231.858 241.686 252.414 261.35999 272.21399"
         y="23.993999"
         id="tspan156">и ООО «Зест Тим Девелопмент».</tspan></text><text
       transform="matrix(1,0,0,-1,693,377.4903)"
       style="font-variant:normal;font-weight:normal;font-stretch:normal;font-size:18px;font-family:Rubik;-inkscape-font-specification:Rubik-Regular;writing-mode:lr-tb;fill:#fdb73e;fill-opacity:1;fill-rule:nonzero;stroke:none"
       id="text162"><tspan
         x="0 6.8759999"
         y="0"
         id="tspan160">• </tspan></text><text
       transform="matrix(1,0,0,-1,711,377.4903)"
       style="font-variant:normal;font-weight:300;font-stretch:normal;font-size:18px;font-family:'Rubik Light';-inkscape-font-specification:Rubik-Light;writing-mode:lr-tb;fill:#000000;fill-opacity:1;fill-rule:nonzero;stroke:none"
       id="text168"><tspan
         x="0 11.43 21.528 31.356001 42.084 46.728001 56.375999 66.419998 76.176003 86.003998 94.949997 104.598 109.242 119.61 130.338 140.79601 150.62399 159.73199 168.67799 178.722 189.17999 199.224 208.98 213.62399 226.224 237.924 249.84 254.48399 265.33801 276.71399 286.362 297.09 306.198 310.84201 321.69601 333.414 343.06201 353.79001 362.89801 371.84399"
         y="0"
         id="tspan164">Член совета директоров ПАО «Банк «Санкт-</tspan><tspan
         x="0 12.6 22.427999 31.374001 41.202 51.66 61.866001 71.388 81.846001 89.370003 100.224 104.49 109.134 120.834 132.75 137.394 148.248 160.84801 170.67599 181.134 190.89 200.53799 209.88 214.524 227.12399 237.168 247.62601 256.57199 266.616 276.37201 286.01999 295.362 300.00601 311.05801 321.10199 333.05399 343.422 353.07001 363.798 374.526 383.86801 394.72198"
         y="23.993999"
         id="tspan166">Петербург», АО «Первая Портовая Компания».</tspan></text><text
       transform="matrix(1,0,0,-1,693,319.4943)"
       style="font-variant:normal;font-weight:normal;font-stretch:normal;font-size:18px;font-family:Rubik;-inkscape-font-specification:Rubik-Regular;writing-mode:lr-tb;fill:#fdb73e;fill-opacity:1;fill-rule:nonzero;stroke:none"
       id="text172"><tspan
         x="0 6.8759999"
         y="0"
         id="tspan170">• </tspan></text><text
       transform="matrix(1,0,0,-1,711,319.4943)"
       style="font-variant:normal;font-weight:300;font-stretch:normal;font-size:18px;font-family:'Rubik Light';-inkscape-font-specification:Rubik-Light;writing-mode:lr-tb;fill:#000000;fill-opacity:1;fill-rule:nonzero;stroke:none"
       id="text176"><tspan
         x="0 12.168 22.212 32.310001 42.138 52.866001 57.509998 67.031998 76.517998 86.166 95.814003 104.76 115.488 124.83 129.474 139.23 143.87399 153.396 163.04401 171.99001 181.638 191.394 202.12199 212.166 224.118 228.76199 237.87 247.51801 257.88599 268.61401 277.56 287.20801 297.306 307.134 311.77802 324.37799 333.46799 344.51999 349.164 359.892 369.72 374.36401 385.09201 397.04401 406.87201 416.70001 425.646"
         y="0"
         id="tspan174">Долей участия в уставном капитале ПГК не имеет.</tspan></text><text
       transform="matrix(1,0,0,-1,1305,807.0804)"
       style="font-variant:normal;font-weight:normal;font-stretch:normal;font-size:28px;font-family:'Prosto One';-inkscape-font-specification:ProstoOne-Regular;writing-mode:lr-tb;fill:#000000;fill-opacity:1;fill-rule:nonzero;stroke:none"
       id="text182"><tspan
         x="0 23.24 46.200001 68.459999 88.199997 108.08 130.2 152.17999 175.14 196.56"
         y="0"
         id="tspan178">ЛАУТЕРБАХ </tspan><tspan
         x="0 22.959999 46.48 69.440002 91.559998 111.3 134.25999 156.38 180.46001 202.86 212.66 235.06 259.14001 281.39999 301.14001 326.34 348.45999 373.66 396.06 419.57999"
         y="33.599998"
         id="tspan180">АНАСТАСИЯ ВИКТОРОВНА</tspan></text><text
       transform="matrix(1,0,0,-1,1287,717.4804)"
       style="font-variant:normal;font-weight:normal;font-stretch:normal;font-size:18px;font-family:Rubik;-inkscape-font-specification:Rubik-Regular;writing-mode:lr-tb;fill:#fdb73e;fill-opacity:1;fill-rule:nonzero;stroke:none"
       id="text186"><tspan
         x="0 6.8759999"
         y="0"
         id="tspan184">• </tspan></text><text
       transform="matrix(1,0,0,-1,1305,717.4804)"
       style="font-variant:normal;font-weight:500;font-stretch:normal;font-size:20px;font-family:'Rubik Medium';-inkscape-font-specification:Rubik-Medium;writing-mode:lr-tb;fill:#000000;fill-opacity:1;fill-rule:nonzero;stroke:none"
       id="text190"><tspan
         x="0 14.58 26.120001 36.82 48.240002 59.900002 72.360001 83.779999 96.239998 110.3 125.6 138.06 142.64 155.2 167.66 179.94 191.48 202.89999 213.5 225.34"
         y="0"
         id="tspan188">Независимый директор</tspan></text><text
       transform="matrix(1,0,0,-1,1287,691.4803)"
       style="font-variant:normal;font-weight:normal;font-stretch:normal;font-size:18px;font-family:Rubik;-inkscape-font-specification:Rubik-Regular;writing-mode:lr-tb;fill:#fdb73e;fill-opacity:1;fill-rule:nonzero;stroke:none"
       id="text194"><tspan
         x="0 6.8759999"
         y="0"
         id="tspan192">• </tspan></text><text
       transform="matrix(1,0,0,-1,1305,691.4803)"
       style="font-variant:normal;font-weight:500;font-stretch:normal;font-size:20px;font-family:'Rubik Medium';-inkscape-font-specification:Rubik-Medium;writing-mode:lr-tb;fill:#000000;fill-opacity:1;fill-rule:nonzero;stroke:none"
       id="text198"><tspan
         x="0 14.58 26.860001 38.400002 50.959999 62.380001 73.919998 86.480003 97.900002 108.5 120.04 132.10001 142.7 147.28 160.67999 172.52 186.58 199.03999 209.64 221.17999 231.78 243.2 247.78 260 271.84 276.42001 289.16 301.62 316.85999 329.14001 340.98001 352.64001 364.48001 378.54001 389.94 394.51999 406.79999 418.22 428.92001 440.57999 453.04001 463.64001 476.10001"
         y="0"
         id="tspan196">Председатель Комитета по цифровому развитию</tspan></text><text
       transform="matrix(1,0,0,-1,1287,665.4803)"
       style="font-variant:normal;font-weight:normal;font-stretch:normal;font-size:18px;font-family:Rubik;-inkscape-font-specification:Rubik-Regular;writing-mode:lr-tb;fill:#fdb73e;fill-opacity:1;fill-rule:nonzero;stroke:none"
       id="text202"><tspan
         x="0 6.8759999"
         y="0"
         id="tspan200">• </tspan></text><text
       transform="matrix(1,0,0,-1,1305,665.4803)"
       style="font-variant:normal;font-weight:500;font-stretch:normal;font-size:20px;font-family:'Rubik Medium';-inkscape-font-specification:Rubik-Medium;writing-mode:lr-tb;fill:#000000;fill-opacity:1;fill-rule:nonzero;stroke:none"
       id="text206"><tspan
         x="0 13.52 25.58 37.119999 49.580002 54.16 67.559998 79.400002 93.459999 105.92 116.52 128.06 138.66 150.08 154.66 166.88 178.72 183.3 194.72 205.32001 217.60001 229.02 239.62 251.16 260.06 272.51999 284.07999 295.62 307.04001 318.45999 330.29999 344.35999 355.76001 360.34 372.56 384.62 396.04001 408.5 420.95999 433.23999 445.07999 456.73999 468.16 480.62 493.07999"
         y="0"
         id="tspan204">Член Комитета по стратегическому планированию</tspan></text><text
       transform="matrix(1,0,0,-1,1287,639.4803)"
       style="font-variant:normal;font-weight:normal;font-stretch:normal;font-size:18px;font-family:Rubik;-inkscape-font-specification:Rubik-Regular;writing-mode:lr-tb;fill:#fdb73e;fill-opacity:1;fill-rule:nonzero;stroke:none"
       id="text210"><tspan
         x="0 6.8759999"
         y="0"
         id="tspan208">• </tspan></text><text
       transform="matrix(1,0,0,-1,1305,639.4803)"
       style="font-variant:normal;font-weight:500;font-stretch:normal;font-size:20px;font-family:'Rubik Medium';-inkscape-font-specification:Rubik-Medium;writing-mode:lr-tb;fill:#000000;fill-opacity:1;fill-rule:nonzero;stroke:none"
       id="text214"><tspan
         x="0 13.52 25.58 37.119999 49.580002 54.16 67.559998 79.400002 93.459999 105.92 116.52 128.06 138.66 150.08 154.66 166.88 178.72 183.3 194.72 206.12 218.67999 231.14 241.74001"
         y="0"
         id="tspan212">Член Комитета по аудиту</tspan></text><text
       transform="matrix(1,0,0,-1,1287,585.4803)"
       style="font-variant:normal;font-weight:normal;font-stretch:normal;font-size:18px;font-family:Rubik;-inkscape-font-specification:Rubik-Regular;writing-mode:lr-tb;fill:#fdb73e;fill-opacity:1;fill-rule:nonzero;stroke:none"
       id="text218"><tspan
         x="0 6.8759999"
         y="0"
         id="tspan216">• </tspan></text><text
       transform="matrix(1,0,0,-1,1305,585.4803)"
       style="font-variant:normal;font-weight:300;font-stretch:normal;font-size:18px;font-family:'Rubik Light';-inkscape-font-specification:Rubik-Light;writing-mode:lr-tb;fill:#000000;fill-opacity:1;fill-rule:nonzero;stroke:none"
       id="text222"><tspan
         x="0 9.0900002 19.134001 29.502001 34.146 44.604 54.647999 68.129997 78.498001 88.325996 99.054001 109.782 119.124 123.462 128.106 135.27 145.56599 154.332"
         y="0"
         id="tspan220">Год рождения: 1972</tspan></text><text
       transform="matrix(1,0,0,-1,1287,551.4783)"
       style="font-variant:normal;font-weight:normal;font-stretch:normal;font-size:18px;font-family:Rubik;-inkscape-font-specification:Rubik-Regular;writing-mode:lr-tb;fill:#fdb73e;fill-opacity:1;fill-rule:nonzero;stroke:none"
       id="text226"><tspan
         x="0 6.8759999"
         y="0"
         id="tspan224">• </tspan></text><text
       transform="matrix(1,0,0,-1,1305,551.4783)"
       style="font-variant:normal;font-weight:300;font-stretch:normal;font-size:18px;font-family:'Rubik Light';-inkscape-font-specification:Rubik-Light;writing-mode:lr-tb;fill:#000000;fill-opacity:1;fill-rule:nonzero;stroke:none"
       id="text232"><tspan
         x="0 11.916 21.024 31.068001 41.796001 51.282001 62.009998 72.108002 81.755997 86.400002 100.44 109.53 119.664 124.308 135.036 146.98801 151.272 155.916 169.95599 174.24001 178.884 190.638 194.922 199.56599 211.806 221.85001 233.802 243.84599 254.57401 264.61801 274.26599 284.31 294.06601 303.71399 307.98001 312.62399 324.14401 334.78201 344.60999 348.62399 359.24399 363.258 372.11401 381.76199 392.39999 402.228"
         y="0"
         id="tspan228">Окончила МГУ им. М. В. Ломоносова, Rheinische </tspan><tspan
         x="0 10.26 16.524 20.538 30.365999 40.806 47.07 51.084 60.731998 71.370003 80.136002 94.32 98.334 102.384 113.022 122.85 126.9 142.70399 151.56 160.326 172.76401 183.384 187.39799 197.04601 206.87399 213.138 221.994 226.008 232.47 242.118 248.58 253.224 264.978 275.022 285.642 296.26199"
         y="23.993999"
         id="tspan230">Friedrich-Wilhelms-Universitat Bonn.</tspan></text><text
       transform="matrix(1,0,0,-1,1287,493.4823)"
       style="font-variant:normal;font-weight:normal;font-stretch:normal;font-size:18px;font-family:Rubik;-inkscape-font-specification:Rubik-Regular;writing-mode:lr-tb;fill:#fdb73e;fill-opacity:1;fill-rule:nonzero;stroke:none"
       id="text236"><tspan
         x="0 6.8759999"
         y="0"
         id="tspan234">• </tspan></text><text
       transform="matrix(1,0,0,-1,1305,493.4823)"
       style="font-variant:normal;font-weight:300;font-stretch:normal;font-size:18px;font-family:'Rubik Light';-inkscape-font-specification:Rubik-Light;writing-mode:lr-tb;fill:#000000;fill-opacity:1;fill-rule:nonzero;stroke:none"
       id="text242"><tspan
         x="0 10.782 20.43 31.158001 41.886002 53.838001 63.486 73.314003 82.260002 86.903999 97.272003 107.316 117.414 130.896 141.62399 151.668 161.31599 170.26199 178.83 183.474 190.998 200.826 211.554 221.382 231.84 241.48801 251.586 260.15399 270.88199 280.92599 288.45001 298.49399 303.138 313.50601 324.23401 334.69199 344.51999 353.62799 362.57401 372.61801 383.07599 392.724"
         y="0"
         id="tspan238">Занимает должность генерального директора </tspan><tspan
         x="0 9.8640003 19.511999 30.042 36.504002 46.332001 52.596001 63.035999 72.683998 82.332001 92.970001 97.613998 109.332 119.376 129.996 138.85201 149.382 153.43201 159.894 163.908 174.528 184.98599 189.63 201.76199 206.40601 217.89 227.718 238.338 244.8 255.33 261.59399 265.608 276.228 286.686 291.32999 303.28201 319.086 329.526 342.12601"
         y="23.993999"
         id="tspan240">Lauterbach Consulting &amp; Venturing GmbH.</tspan></text><text
       transform="matrix(1,0,0,-1,1287,435.4863)"
       style="font-variant:normal;font-weight:normal;font-stretch:normal;font-size:18px;font-family:Rubik;-inkscape-font-specification:Rubik-Regular;writing-mode:lr-tb;fill:#fdb73e;fill-opacity:1;fill-rule:nonzero;stroke:none"
       id="text246"><tspan
         x="0 6.8759999"
         y="0"
         id="tspan244">• </tspan></text><text
       transform="matrix(1,0,0,-1,1305,435.4863)"
       style="font-variant:normal;font-weight:300;font-stretch:normal;font-size:18px;font-family:'Rubik Light';-inkscape-font-specification:Rubik-Light;writing-mode:lr-tb;fill:#000000;fill-opacity:1;fill-rule:nonzero;stroke:none"
       id="text256"><tspan
         x="0 11.43 21.528 31.356001 42.084 46.728001 56.375999 66.419998 76.176003 86.003998 94.949997 104.598 109.242 119.61 130.338 140.79601 150.62399 159.73199 168.67799 178.722 189.17999 199.224 208.98 213.62399 224.28 233.92799 242.784 252.36 263.48401 273.31201 279.77399 284.418 295.72198 305.586 317.30399 321.57001 326.21399 335.70001 345.798 355.62601 366.354"
         y="0"
         id="tspan248">Член совета директоров EasyJet PLC, член </tspan><tspan
         x="0 11.718 21.761999 31.518 41.346001 50.292 59.939999 64.584 73.692001 83.736 94.463997 104.112 113.634 123.732 132.3 141.246 150.894 161.62199 170.56799 180.612 190.368 195.01199 207.198 211.21201 215.26199 219.276 229.73399 239.562 250.18201 256.64401 261.28799 265.806 276.42599 286.07401 290.358 294.62399 299.26801 310.96799 314.98199 321.246 330.89401 334.90799 343.76401 347.77802 357.82199 368.44199 372.72601"
         y="23.993999"
         id="tspan250">Совета консультантов Diligent Inc., Aircision. </tspan><tspan
         x="0 12.6 23.058001 33.102001 45.324001 55.152 64.800003 74.447998 84.491997 94.949997 99.594002 110.322 119.97 129.078 138.60001 148.248 157.896 166.842 176.59801 186.42599 197.15401 207.882 217.92599 225.45 235.494 240.138 250.866 261.59399 270.54001 280.36801 290.466 300.564 310.392 319.5 328.44601 338.09399 342.35999 347.004 357.37201 367.01999 377.74799 388.47601 400.33801 409.66199"
         y="47.987999"
         id="tspan252">Профессор искусственного интеллекта, данных </tspan><tspan
         x="0 10.728 15.372 25.02 33.966 44.694 53.801998 64.529999 69.174004 79.542 89.190002 99.917999 110.646 122.508 131.832 136.476 149.076 159.12 168.06599 177.714 188.082 197.73 209.68201 219.33 228.438 238.48199 246.006 256.04999 260.694 270.216 280.944 291.672 301.42801 311.25601 321.71399 331.362 342.09 351.03601 360.86401 369.81 379.45801"
         y="71.982002"
         id="tspan254">и этики данных Потсдамского университета.</tspan></text><text
       transform="matrix(1,0,0,-1,1287,329.5023)"
       style="font-variant:normal;font-weight:normal;font-stretch:normal;font-size:18px;font-family:Rubik;-inkscape-font-specification:Rubik-Regular;writing-mode:lr-tb;fill:#fdb73e;fill-opacity:1;fill-rule:nonzero;stroke:none"
       id="text260"><tspan
         x="0 6.8759999"
         y="0"
         id="tspan258">• </tspan></text><text
       transform="matrix(1,0,0,-1,1305,329.5023)"
       style="font-variant:normal;font-weight:300;font-stretch:normal;font-size:18px;font-family:'Rubik Light';-inkscape-font-specification:Rubik-Light;writing-mode:lr-tb;fill:#000000;fill-opacity:1;fill-rule:nonzero;stroke:none"
       id="text264"><tspan
         x="0 12.168 22.212 32.310001 42.138 52.866001 57.509998 67.031998 76.517998 86.166 95.814003 104.76 115.488 124.83 129.474 139.23 143.87399 153.396 163.04401 171.99001 181.638 191.394 202.12199 212.166 224.118 228.76199 237.87 247.51801 257.88599 268.61401 277.56 287.20801 297.306 307.134 311.77802 324.37799 333.46799 344.51999 349.164 359.892 369.72 374.36401 385.09201 397.04401 406.87201 416.70001 425.646"
         y="0"
         id="tspan262">Долей участия в уставном капитале ПГК не имеет.</tspan></text><g
       id="g266"
       transform="translate(99,102)"><path
         d="M 0,0 H 534"
         style="fill:none;stroke:#f0f0f5;stroke-width:4;stroke-linecap:butt;stroke-linejoin:miter;stroke-miterlimit:4;stroke-dasharray:none;stroke-opacity:1"
         id="path268" /></g><g
       id="g270"
       transform="translate(693,102)"><path
         d="M 0,0 H 534"
         style="fill:none;stroke:#f0f0f5;stroke-width:4;stroke-linecap:butt;stroke-linejoin:miter;stroke-miterlimit:4;stroke-dasharray:none;stroke-opacity:1"
         id="path272" /></g><g
       id="g274"
       transform="translate(1287,102)"><path
         d="M 0,0 H 534"
         style="fill:none;stroke:#f0f0f5;stroke-width:4;stroke-linecap:butt;stroke-linejoin:miter;stroke-miterlimit:4;stroke-dasharray:none;stroke-opacity:1"
         id="path276" /></g><text
       transform="matrix(1,0,0,-1,1545.5034,961.5)"
       style="font-variant:normal;font-weight:500;font-stretch:normal;font-size:20px;font-family:'Rubik Medium';-inkscape-font-specification:Rubik-Medium;writing-mode:lr-tb;fill:#000000;fill-opacity:1;fill-rule:nonzero;stroke:none"
       id="text280"><tspan
         x="0 12.22 24.059999 28.639999 40.060001 51.900002 63.32 73.919998 85.760002 97.239998 109.7 122.16 138.84 143.42 155.88 167.3 171.88 184.158 193.418 197.45799 206.718 219.09801 224.45799 236.838 249.978 262.358"
         y="0"
         id="tspan278">по состоянию на 31.12.2020</tspan></text><text
       transform="matrix(1,0,0,-1,38.0834,1023)"
       style="font-variant:normal;font-weight:300;font-stretch:normal;font-size:20px;font-family:'Rubik Light';-inkscape-font-specification:Rubik-Light;writing-mode:lr-tb;fill:#000000;fill-opacity:1;fill-rule:nonzero;stroke:none"
       id="text284"><tspan
         x="0 11.64 60.919998 74.160004 79.32 89.440002 100.6 113.88 125.4 136.12 148.03999 159.96001"
         y="0"
         id="tspan282">62О компании</tspan></text></g></svg>
