<?xml version="1.0" encoding="UTF-8" standalone="no"?>
<?xml-stylesheet type="text/css" href="main.css" ?>
<svg
   xmlns:dc="http://purl.org/dc/elements/1.1/"
   xmlns:cc="http://creativecommons.org/ns#"
   xmlns:rdf="http://www.w3.org/1999/02/22-rdf-syntax-ns#"
   xmlns:svg="http://www.w3.org/2000/svg"
   xmlns="http://www.w3.org/2000/svg"
   version="1.1"
   id="svg2"
   xml:space="preserve"
   width="2560"
   height="1440"
   viewBox="0 0 2560 1440"><metadata
     id="metadata8"><rdf:RDF><cc:Work
         rdf:about=""><dc:format>image/svg+xml</dc:format><dc:type
           rdf:resource="http://purl.org/dc/dcmitype/StillImage" /></cc:Work></rdf:RDF></metadata><defs
     id="defs6"><clipPath
       clipPathUnits="userSpaceOnUse"
       id="clipPath20"><path
         d="M 0,1080 H 1920 V 0 H 0 Z"
         id="path18" /></clipPath><clipPath
       clipPathUnits="userSpaceOnUse"
       id="clipPath46"><path
         d="M 0,0 H 1920 V 1080 H 0 Z"
         id="path44" /></clipPath><clipPath
       clipPathUnits="userSpaceOnUse"
       id="clipPath304"><path
         d="M 0,1080 H 1920 V 0 H 0 Z"
         id="path302" /></clipPath></defs><g
     id="g10"
     transform="matrix(1.3333333,0,0,-1.3333333,0,1440)"><g
       id="g12"><g
         id="g14"><g
           id="g16"
           clip-path="url(#clipPath20)"><path
             d="M 0,0 H 1920 V 1080 H 0 Z"
             style="fill:#ffffff;fill-opacity:1;fill-rule:nonzero;stroke:none"
             id="path22" /></g></g></g><path
       d="m 1287,0 h 633 v 1080 h -633 z"
       style="fill:#e8e8ed;fill-opacity:1;fill-rule:nonzero;stroke:none"
       id="path24" /><text
       transform="matrix(1,0,0,-1,99,953.8201)"
       style="font-variant:normal;font-weight:500;font-stretch:normal;font-size:28px;font-family:'Rubik Medium';-inkscape-font-specification:Rubik-Medium;writing-mode:lr-tb;fill:#000000;fill-opacity:1;fill-rule:nonzero;stroke:none"
       id="text38"><tspan
         x="0 19.459999 37.268002 53.452 70.924004 86.968002 102.984 109.368 125.496 146.888 168.28 184.464 200.508 215.37601 232.84801 249.228 266.70001 283.30399 299.32001 314.18799 331.66"
         y="0"
         id="tspan26">Оценка эффективности </tspan><tspan
         x="0 19.18 35.784 52.164001 68.348 83.216003 99.232002 105.616 123.228 140.7 157.892 174.076 190.12 204.98801 221.592 238.784 255.388"
         y="33.992001"
         id="tspan28">Совета директоров</tspan><tspan
         x="0.50400001 18.676001 37.883999 58.464001 76.160004 103.404 124.712 145.15199 164.332 181.3 200.536 219.996 226.38 245.364 265.944 283.388 303.828 323.28799 342.52399 348.90799 368.08801 387.548 406.784 424.228 441.19601 460.62799 467.01199 487.89999 509.20801 527.68799 545.13202 563.948 580.91602 600.37598 618.85602 638.31598 657.552 664.97198"
         y="751.79999"
         id="tspan30">БОЛЬШИНСТВО ЧЛЕНОВ СОВЕТА ДИРЕКТОРОВ, </tspan><tspan
         x="0.50400001 20.944 39.424 60.731998 81.171997 100.268 119.504 146.748 168.056 186.62 193.004 210.392 229.37601 248.808 267.98801 284.95599 306.26401 323.70801 330.09201 349.328 355.71201 375.172 396.396 413.84 434.28 453.09601 470.54001 477.95999 484.34399 503.80399 520.77197 543.508 560.95203 577.91998 599.22803 619.80798 640.96759 648.38757 654.77161 673.75562 690.72357 710.18359 716.56763 735.74762 755.20758 774.4436 791.88757 808.85559"
         y="785.79199"
         id="tspan32">ПРИНЯВШИХ УЧАСТИЕ В ОЦЕНКЕ, ОТМЕТИЛИ, ЧТО СОВЕТ </tspan><tspan
         x="0.50400001 21.392 42.700001 61.18 78.624001 97.440002 114.408 133.868 152.34801 171.808 191.04401 197.42799 216.524 235.75999 256.34 275.436 292.88 309.84799 329.02802 348.12399 354.508 374.948 395.52802 414.98801 443.01599 462.448 483.336 501.1384 520.59839 541.90637 548.29041 569.17841 589.75842 608.85437 615.2384 634.47443 659.28241 677.76239 697.1944 715.36639 734.82642 751.79437 770.61041 791.9184"
         y="819.784"
         id="tspan34">ДИРЕКТОРОВ ЯВЛЯЕТСЯ ПЛОЩАДКОЙ ДЛЯ ВЫРАБОТКИ </tspan><tspan
         x="0.50400001 19.18 44.183998 69.188004 86.632004 105.448 122.416 143.724 162.96001 183.39999 208.20799 226.772 233.15601 250.54401 270.98401 289.46399 308.896 328.13199 348.71201 366.15601 386.59601 405.57999 422.8504 442.0304 460.84641 482.15439 500.71841 507.10239 525.5824 543.02643 570.27039 587.71442 608.15442 629.4624"
         y="853.776"
         id="tspan36">ЭФФЕКТИВНЫХ УПРАВЛЕНЧЕСКИХ РЕШЕНИЙ</tspan></text><g
       id="g40"><g
         id="g42"
         clip-path="url(#clipPath46)"><g
           id="g48"
           transform="translate(57.4,218.75)"><path
             d="m 0,0 c -1.4,1.9 -3.367,2.85 -5.9,2.85 -2.267,0 -4.084,-0.75 -5.45,-2.25 -1.367,-1.5 -2.05,-3.25 -2.05,-5.25 0,-2 0.666,-3.75 2,-5.25 1.333,-1.5 3,-2.25 5,-2.25 0.666,0 1.266,0.067 1.8,0.2 0.266,0.067 0.5,0.167 0.7,0.3 -0.267,-2 -1.15,-3.583 -2.65,-4.75 -1.5,-1.166 -3.117,-1.75 -4.85,-1.75 v -3.5 c 1.6,0 3.216,0.284 4.85,0.85 1.633,0.567 3.083,1.467 4.35,2.7 1.266,1.234 2.3,2.8 3.1,4.7 0.8,1.9 1.2,4.15 1.2,6.75 C 2.1,-4.117 1.4,-1.9 0,0 M 20,0 C 18.6,1.9 16.633,2.85 14.1,2.85 11.833,2.85 10.016,2.1 8.65,0.6 7.283,-0.9 6.6,-2.65 6.6,-4.65 c 0,-2 0.666,-3.75 2,-5.25 1.333,-1.5 3,-2.25 5,-2.25 0.666,0 1.266,0.067 1.8,0.2 0.266,0.067 0.5,0.167 0.7,0.3 -0.267,-2 -1.15,-3.583 -2.65,-4.75 -1.5,-1.166 -3.117,-1.75 -4.85,-1.75 v -3.5 c 1.6,0 3.216,0.284 4.85,0.85 1.633,0.567 3.083,1.467 4.35,2.7 1.266,1.234 2.3,2.8 3.1,4.7 0.8,1.9 1.2,4.15 1.2,6.75 0,2.533 -0.7,4.75 -2.1,6.65"
             style="fill:#faaa2d;fill-opacity:1;fill-rule:nonzero;stroke:none"
             id="path50" /></g></g></g><text
       transform="matrix(1,0,0,-1,1364.2739,961.3)"
       style="font-variant:normal;font-weight:500;font-stretch:normal;font-size:20px;font-family:'Rubik Medium';-inkscape-font-specification:Rubik-Medium;writing-mode:lr-tb;fill:#000000;fill-opacity:1;fill-rule:nonzero;stroke:none"
       id="text58"><tspan
         x="0 15.22 27.700001 42.98 54.84 67.120003 81.199997 93.68 105.96 117.82 129.52 140.96001 153.44 165.92 177.48 182.03999 193.74001 206.22 218.08 229.78 240.39999 244.96001 257.44 268.16 280.12 292.39999 303.84 316.32001 328.79999 344.16 355.45999 360.01999 371.60001 383.67999 395.23999 407.72 419.57999 431.28"
         y="0"
         id="tspan52">Информирование вновь избранных членов </tspan><tspan
         x="0 13.7 25.559999 37.259998 48.82 59.439999 70.879997 75.440002 88.019997 100.5 112.78 124.34 135.8 146.42 158.28 170.56 182.42 194.12 198.67999 210.53999 215.10001 227.38 238.82001 250.78 262.64001 273.26001 284.82001 289.38 302.23599 314.09601 328.17599 340.41599 351.85599 364.336 376.81601 389.29599"
         y="26"
         id="tspan54">Совета директоров о работе Компании </tspan><tspan
         x="0 12.48 17.040001 28.74 40.439999 52 64.580002 76.139999 88.620003 101.1 112.66 117.22 129.7 141 145.56 157.25999 161.82001 174.39999 186.078 198.158 215.338 227.81799 239.67799 251.118 261.73801"
         y="52"
         id="tspan56">и введение их в должность</tspan></text><text
       transform="matrix(1,0,0,-1,1364.2739,870.3)"
       style="font-variant:normal;font-weight:300;font-stretch:normal;font-size:20px;font-family:'Rubik Light';-inkscape-font-specification:Rubik-Light;writing-mode:lr-tb;fill:#000000;fill-opacity:1;fill-rule:nonzero;stroke:none"
       id="text62"><tspan
         x="0 13.52 24.74 35.119999 40.279999 51.799999 62.959999 73.800003 86.980003 102.36 113.28 125.2 137.12 147.5 152.66 163.38 176.96001 190.53999 201.46001 211.58 221.52 233.44 244.28 256.20001 267.35999 278.07999 288.01999 299.94 305.10001 316.62 327.54001 337.92001 347.85999 358.69601 369.91599 379.436 391.35599"
         y="0"
         id="tspan60">Для повышения эффективности деятельно</tspan></text><text
       transform="matrix(1,0,0,-1,1766.7899,870.3)"
       style="font-variant:normal;font-weight:300;font-stretch:normal;font-size:20px;font-family:'Rubik Light';-inkscape-font-specification:Rubik-Light;writing-mode:lr-tb;fill:#000000;fill-opacity:1;fill-rule:nonzero;stroke:none"
       id="text66"><tspan
         x="0"
         y="0"
         id="tspan64">-</tspan></text><text
       transform="matrix(1,0,0,-1,1364.2739,844.3)"
       style="font-variant:normal;font-weight:300;font-stretch:normal;font-size:20px;font-family:'Rubik Light';-inkscape-font-specification:Rubik-Light;writing-mode:lr-tb;fill:#000000;fill-opacity:1;fill-rule:nonzero;stroke:none"
       id="text70"><tspan
         x="0 10.72 20.66 32.580002 37.740002 50.759998 61.919998 72.760002 83.68 93.620003 104.34 109.5 121.02 132.94 144.56 155.48 165.60001 175.53999 186.7 198.32001 209.48 220.32001 225.48 237.39999 242.56 254.08 265.23999 276.76001 288.28 299.20001 310.82001 325.79999 336.51999 348.44 360.35999 370.73999 375.89999 387.42001 399.04001"
         y="0"
         id="tspan68">сти Совета директоров и поддержания пре</tspan></text><text
       transform="matrix(1,0,0,-1,1774.2339,844.3)"
       style="font-variant:normal;font-weight:300;font-stretch:normal;font-size:20px;font-family:'Rubik Light';-inkscape-font-specification:Rubik-Light;writing-mode:lr-tb;fill:#000000;fill-opacity:1;fill-rule:nonzero;stroke:none"
       id="text74"><tspan
         x="0"
         y="0"
         id="tspan72">-</tspan></text><text
       transform="matrix(1,0,0,-1,1364.2739,818.3)"
       style="font-variant:normal;font-weight:300;font-stretch:normal;font-size:20px;font-family:'Rubik Light';-inkscape-font-specification:Rubik-Light;writing-mode:lr-tb;fill:#000000;fill-opacity:1;fill-rule:nonzero;stroke:none"
       id="text80"><tspan
         x="0 10.92 24.200001 34.919998 44.860001 55.700001 66.620003 78.540001 90.459999 101.62 112.34 122.28 134.2 139.36 150.2 155.36 166.28 174.39799 185.558 190.718 202.338 213.058 224.39799 235.558 245.498 256.418 261.578 272.418 277.578 288.298 299.45801 310.61801 320.55801 331.39801 342.31799 352.258 362.978 372.918 383.758 395.67801 407.59799"
         y="0"
         id="tspan76">емственности в его работе в соответствии </tspan><tspan
         x="0 10.72 15.88 27.1 37.68 48.220001 63.599998 75.519997 88.800003 100.72 105.88 117.4 129.02 139.74001 149.86 159.8 171.72 181.84 192.56 205.84 217.75999 222.92 232.53799 243.698 255.31799 266.83801 277.99799 289.61801 300.33801 310.27802 322.198 333.03799 344.95801 356.11801 364.23599 375.396 380.556 391.13599 402.65601 414.276 424.996"
         y="26"
         id="tspan78">с лучшими практиками корпоративного управ</tspan></text><text
       transform="matrix(1,0,0,-1,1800.1099,792.3)"
       style="font-variant:normal;font-weight:300;font-stretch:normal;font-size:20px;font-family:'Rubik Light';-inkscape-font-specification:Rubik-Light;writing-mode:lr-tb;fill:#000000;fill-opacity:1;fill-rule:nonzero;stroke:none"
       id="text84"><tspan
         x="0"
         y="0"
         id="tspan82">-</tspan></text><text
       transform="matrix(1,0,0,-1,1364.2739,766.3)"
       style="font-variant:normal;font-weight:300;font-stretch:normal;font-size:20px;font-family:'Rubik Light';-inkscape-font-specification:Rubik-Light;writing-mode:lr-tb;fill:#000000;fill-opacity:1;fill-rule:nonzero;stroke:none"
       id="text136"><tspan
         x="0 11.22 22.139999 34.060001 45.98 56.360001 61.52 73.199997 84.360001 97.639999 109.56 119.5 130.42 140.36 145.52 157.03999 168.2 173.36 183.48 194.2 205.72 217.34 228.06 241.34 246.5 258.42001 263.57999 274.42001 285.57999 295.42001 307.34 318.06 326.42001 338.04001 348.76001 363.73999 375.26001 386.17999 398.10001 410.01999 420.39999 433.67999"
         y="0"
         id="tspan86">ления Комитет по кадрам и вознаграждениям </tspan><tspan
         x="0 10.84 16 27.200001 39.52 50.720001 63.040001 68.199997 76.32 87.480003 99 109.58 114.74 126.36 137.08 146.92 158.53999 169.25999 180.60001 191.75999 201.7 212.42 223.64 228.8 240.72 245.88 256.72 268.64001 279.56 291.07999 302.70001 314.62 325.84 331 345 356.62 367.78 376.14001 387.76001 398.48001 411.76001 425.04001 435.62"
         y="26"
         id="tspan88">в 2020 году разработал и внедрил Программу </tspan><tspan
         x="0 10.84 21.68 32.84 44.360001 56.279999 67.440002 75.559998 86.720001 91.879997 102 112.58 124.2 134.92 145.64 150.8 162.32001 173.53999 183.92 189.08 199.92 211.84 223 233.84 243.36 248.52 260.44 270.28 281.62 293.23999 303.95999 315.88 327.79999 340.98001 351.34 356.5 367.04001 378.26001 389.17999 401.10001 412.26001 423.10001"
         y="52"
         id="tspan90">вводного курса для вновь избранных членов.</tspan><tspan
         x="0 13.06 18.219999 30.24 41.080002 52.299999 62.68 73.040001 78.199997 90.120003 100.48 105.64 116.98 130.16 140.88 150.82001 162.44 173.60001 185.52 190.67999 202.60001 207.75999 218.48 232.06 245.64 256.56 266.67999 276.62 288.54001 299.38 311.29999 322.45999 334.38 339.54001 351.45999 363.38 373.32001 384.23999 392.60001 404.22 414.94 426.95999 438.88 450.79999"
         y="91"
         id="tspan92">В целях их быстрой и эффективной интеграции </tspan><tspan
         x="0 14 25.620001 36.779999 45.139999 56.759998 67.480003 80.760002 94.040001 104.76 109.92 121.54 132.46001 143.17999 154.39999 166.32001 176.16 186.39799 197.31799 207.258 217.978 228.358 233.51801 245.03799 256.198 261.358 271.298 282.918 293.83801 307.11801 312.27802 324.198 334.918 346.43799 358.05801 368.77802 379.61801 390.83801 401.758 413.67801 425.59799 435.978 449.258"
         y="117"
         id="tspan94">Программа реализуется по трем направлениям:</tspan><tspan
         x="0 7.5999999 18 31.24 41.080002 53 63.720001 73.339996 84.5 97.779999 109 119.92 131.84 143.75999 154.67999 159.84 170.67999 182.2 193.12 204.74001 215.58 228.75999 239.67999 244.84 256.76001 266.60001 277.94 289.56 300.28 312.20001 324.12 337.29999 347.66 352.82001 363.35999 374.57999 385.5 397.42001 408.57999 419.42001"
         y="156"
         id="tspan96">• Ознакомление впервые избранных членов </tspan><tspan
         x="18 31.02 42.18 53.02 63.939999 73.879997 84.599998 89.760002 101.28 113.2 124.82 135.74001 145.86 155.8 166.96001 178.58 189.74001 200.58 205.74001 216.46001 221.62 233.14 244.3 254.42 265 278.28 289.20001 301.12 311.06 321.78 335.06 346.98001 352.14001 365.38 376.72 392.62 403.54001 414.26001 424.20001 435.04001 445.76001"
         y="182"
         id="tspan98">Совета директоров с документами Общества.</tspan><tspan
         x="0 7.5999999 18 31.059999 41.779999 51.720001 63.34 74.260002 84.800003 96.720001 101.88 112.6 117.76 125.238 136.158 148.078 158.998 170.618 181.338 192.558 202.078 213.998 227.17799 240.45799 245.618 257.138 269.05801 280.67801 291.59799 301.71799 311.65799 322.81799 334.43799 345.59799 358.87799"
         y="221"
         id="tspan100">• Встречи с Генеральным директором </tspan><tspan
         x="18 24.139999 38.139999 49.759998 60.68 72.199997 82.919998 93.839996 105.36 116.08 126.02 136.858 148.078 158.998 172.278 177.438 191.438 203.058 213.778 224.618 235.838 246.758 258.67801 270.59799 280.17599 286.556 291.29599 296.45599 306.996 318.216 329.13599 341.056 351.776 365.056 376.97601 382.13599 395.15601 406.31601 417.15601 428.07599 438.01599 448.73599"
         y="247"
         id="tspan102">(Председателем Правления), членами Совета </tspan><tspan
         x="18 29.52 41.439999 53.060001 63.98 74.099998 84.040001 95.199997 106.82 117.98 128.82001 133.56 138.536 149.076 160.29601 171.216 183.136 193.856 207.136 219.056 224.034 238.034 249.65401 260.37399 271.21399 282.43399 293.354 305.27399 317.194 327.57401 332.552 344.47198 349.45001 359.57001 370.79001 386.04999 396.59 407.51001 418.35001 431.53 444.81 456.73001"
         y="273"
         id="tspan104">директоров, членами Правления и ключевыми </tspan><tspan
         x="18 29.24 39.82 49.439999 60.599998 71.440002 82.599998 94.120003 104.5 120.4 132.32001 145.60001 157.52 162.67999 174.3 185.02 196.36 207.52 217.46001 229.38 241.3 251.42 262.14001 275.42001 287.34 292.5 305.73999 317.07999 332.98001 343.89999 354.62 364.56 375.39999 386.12"
         y="299"
         id="tspan106">руководящими работниками Общества.</tspan><tspan
         x="0 7.5999999 18 32 43.619999 54.540001 66.059998 77.220001 87.940002 97.879997 108.6 119.44 130.66 141.58 153.5 165.42 176.34 181.5 193.42 205.34 218.92 230.08 241.7 254.98 265.70001 277.72 289.64001 301.56 306.72 318.23999 329.39999 334.56 345.39999 356.56 368.07999 379.70001 390.85999 401.57999 412.29999 425.57999"
         y="338"
         id="tspan108">• Предоставление информации по вопросам </tspan><tspan
         x="18 29.52 40.439999 50.82 60.759998 71.599998 82.82 92.339996 104.26 115.42 126.14 136.08 148 152.74001 157.89999 169.06 179.78 191.7 202.86 213.7 225.62 238.8 249.16 254.32001 265.84 277.45999 288.62 300.54001 310.38 321.22 332.38 343.89999 354.62 364.56 375.39999 386.32001 398.23999 410.16 423.34 433.70001"
         y="364"
         id="tspan110">деятельности, основных производственных </tspan><tspan
         x="18 29.92 35.080002 48.66 60.580002 72.5 83.220001 95.139999 105.86 117.02 127.86 141.03999 151.39999 156.56 168.08 179.24001 189.36 200.08 209.92 220.64 230.58 241.418 252.638 263.55801 275.478 280.638 293.87799 305.21799 321.11801 332.03799 342.758 352.698 363.53799 374.258 379.418 391.33801 396.49799 407.418 415.53601 426.69601"
         y="390"
         id="tspan112">и финансовых показателей Общества и его </tspan><tspan
         x="18 28.120001 39.34 54.599998 65.139999 76.059998 86.900002 100.08 110.44 115.6 127.12 138.28 148.82001 159.74001 171.36 183.28 195.2 205.56 210.72 220.338 231.498 244.778 256.298 267.01801 278.93799 290.858 302.77802 307.51801 312.67801 323.39801 335.31799 346.03799 355.978 366.89801 380.17801 393.358"
         y="416"
         id="tspan114">ключевых дочерних компаний, системы </tspan><tspan
         x="18 28.58 40.099998 51.720001 62.439999 73.279999 84.5 95.419998 107.34 119.26 129.64 134.8 146.42 158.34 169.06 179.17999 189.89999 203.17999 215.10001 220.25999 232.17999 237.34 248.17999 260.10001 270.67999 280.62 292.23999 303.16 315.07999 327 337.92001 346.03601 357.19601 362.35599 371.97601 383.13599 395.056 404.996 416.616 427.57599 438.79599 449.17599 453.91599"
         y="442"
         id="tspan116">управления рисками и внутреннего контроля, </tspan><tspan
         x="18 28.719999 40.639999 51.360001 61.299999 72.220001 85.5 98.68 103.84 113.458 124.618 136.23801 147.758 158.918 170.53799 181.258 191.198 203.118 213.95799 225.87801 237.03799 245.158 256.31799 261.478 272.05801 283.578 295.198 305.918 316.758 327.978 338.89801 350.81799 362.73801 373.11801 377.858 383.01801 393.73801 398.89801 408.83801 419.55801 429.67801 444.65799 455.578"
         y="468"
         id="tspan118">системы корпоративного управления, а также </tspan><tspan
         x="18 29.92 41.84 53 64.919998 70.080002 80.800003 91.379997 107.28 118.2 128.92 138.86 149.7 160.62 172.53999 184.46001 195.62 207.53999 212.7 224.62 236.53999 250.12 261.28 272.89999 286.17999 296.89999 308.92001 320.84 332.76001 337.92001 349.07999 354.23999 365.85999 376.57999 387.92001 399.07999 409.01999 419.94"
         y="494"
         id="tspan120">иной существенной информации о работе </tspan><tspan
         x="18 32 42.099998 54.380001 59.540001 65.120003 76.639999 87.800003 92.959999 104.12 114.06 125.58 136.418 147.638 157.158 169.078 180.23801 193.51801 204.09801 209.258 219.09801 229.81799 241.338 252.95799 264.11801 274.83801 285.418 290.578 301.11801 312.33801 323.258 335.17801 345.89801 351.05801 364.078 375.23801 386.078 396.99799 406.93799 417.65799"
         y="520"
         id="tspan122">ПГК (по отдельному запросу члена Совета </tspan><tspan
         x="18 29.52 41.439999 53.060001 63.98 74.099998 84.040001 95.199997 106.82 117.98 128.82001 135.2"
         y="546"
         id="tspan124">директоров).</tspan><tspan
         x="0 11.68 22.84 34 45.619999 57.139999 69.059998 80.980003 91.699997 101.64 112.8 124.42 135.58 148.86 154.02 167.3 178.22 193.2 204.72 215.3 220.46001 231.3 243.22 254.38 265.22 274.73999 279.89999 291.82001 301.66 313 324.62 335.34 347.26001 359.17999 372.35999 385.64001 397.56"
         y="585"
         id="tspan126">Координатором между вновь избранными </tspan><tspan
         x="0 10.54 21.76 32.68 44.599998 55.32 68.599998 80.519997 85.68 98.699997 109.86 120.7 131.62 141.56 152.28 157.44 168.96001 180.88 192.5 203.42 213.53999 223.48 234.64 246.25999 257.42001 268.26001 273.42001 285.34 290.5 303.78 314.70001 326.62 337.54001 349.06 364.04001 377.32001 388.23999 400.16 410.10001 421.26001 434.54001"
         y="611"
         id="tspan128">членами Совета директоров и менеджментом </tspan><tspan
         x="0 11.68 22.84 36.119999 47.639999 58.360001 70.279999 82.199997 94.120003 99.279999 109.66 120.5 131.72 142.10001 153.02 162.96001 173.67999 184.06 189.22 199.94 210.86 220.98 232.60001 243.52 253.46001 264.17999 275.79999 285.32001 290.48001 303.5 314.66 325.5 336.42001 346.35999 357.07999"
         y="637"
         id="tspan130">Компании является секретарь Совета </tspan><tspan
         x="0 11.52 23.440001 35.060001 45.98 56.099998 66.040001 77.199997 88.82 99.980003 110.82 115.98 129.98 140.08 152.36"
         y="663"
         id="tspan132">директоров ПГК.</tspan><tspan
         x="-1265.28 -1255.5601 -1244.34 -1233.76 -1223.22 -1207.84 -1197.12 -1186.74 -1181.58 -1170.0601 -1158.4399 -1147.72 -1137.6 -1127.66 -1115.74 -1105.62 -1095.04 -1089.88 -1080.262 -1069.1021 -1057.4821 -1045.962 -1034.802 -1023.182 -1012.462 -1002.522 -990.60199 -979.76202 -967.84198 -956.68201 -948.56201 -937.40198 -932.242 -921.66199 -910.14203 -898.52197 -887.802 -876.96198 -865.742 -854.82202 -842.90198 -830.98199 -820.60199 -815.862 -810.70203 -799.02399 -787.86401 -774.58398 -763.06403"
         y="-94.82"
         id="tspan134">Улучшая практику корпоративного управления, Компа</tspan></text><text
       transform="matrix(1,0,0,-1,611.9299,861.12)"
       style="font-variant:normal;font-weight:300;font-stretch:normal;font-size:20px;font-family:'Rubik Light';-inkscape-font-specification:Rubik-Light;writing-mode:lr-tb;fill:#000000;fill-opacity:1;fill-rule:nonzero;stroke:none"
       id="text140"><tspan
         x="0"
         y="0"
         id="tspan138">-</tspan></text><text
       transform="matrix(1,0,0,-1,98.9939,835.08)"
       style="font-variant:normal;font-weight:300;font-stretch:normal;font-size:20px;font-family:'Rubik Light';-inkscape-font-specification:Rubik-Light;writing-mode:lr-tb;fill:#000000;fill-opacity:1;fill-rule:nonzero;stroke:none"
       id="text144"><tspan
         x="0 11.92 23.84 34.220001 39.380001 50.220001 55.380001 66.580002 78.900002 90.099998 102.42 107.58 115.7 126.86 138.38 148.96001 154.12 165.64 177.25999 188.42 199.94 210.89799 222.118 237.09801 249.01801 260.23801 270.95801 276.11801 288.03799 299.95801 309.89801 320.81799 329.17801 340.798 352.71799 364.33801 375.49799 386.33801 397.05801 406.99799 416.51801 421.67801 432.51801 437.67801 448.39801 459.23801 470.39801 485.65799 490.81799 502.33801 513.258"
         y="0"
         id="tspan142">ния в 2020 году продолжила интегрировать в свою дея</tspan></text><text
       transform="matrix(1,0,0,-1,622.6319,835.08)"
       style="font-variant:normal;font-weight:300;font-stretch:normal;font-size:20px;font-family:'Rubik Light';-inkscape-font-specification:Rubik-Light;writing-mode:lr-tb;fill:#000000;fill-opacity:1;fill-rule:nonzero;stroke:none"
       id="text148"><tspan
         x="0"
         y="0"
         id="tspan146">-</tspan></text><text
       transform="matrix(1,0,0,-1,98.9939,809.04)"
       style="font-variant:normal;font-weight:300;font-stretch:normal;font-size:20px;font-family:'Rubik Light';-inkscape-font-specification:Rubik-Light;writing-mode:lr-tb;fill:#000000;fill-opacity:1;fill-rule:nonzero;stroke:none"
       id="text152"><tspan
         x="0 9.9399996 20.780001 32 41.52 53.439999 64.599998 75.32 85.260002 94.779999 99.940002 111.46 123.08 135 146.92 158.94 170.86 182.38 195.56 200.72 212.39799 223.558 235.078 245.998 255.618 266.33801 277.05801 282.21799 291.83801 302.99799 314.61801 326.138 337.298 348.918 359.638 369.578 381.49799 392.33801 404.258 415.418 423.53601 434.69601 439.85599 450.436 461.95599 473.57599 484.29599 495.13599 506.35599"
         y="0"
         id="tspan150">тельность принципы Кодекса корпоративного управле</tspan></text><text
       transform="matrix(1,0,0,-1,616.2699,809.04)"
       style="font-variant:normal;font-weight:300;font-stretch:normal;font-size:20px;font-family:'Rubik Light';-inkscape-font-specification:Rubik-Light;writing-mode:lr-tb;fill:#000000;fill-opacity:1;fill-rule:nonzero;stroke:none"
       id="text156"><tspan
         x="0"
         y="0"
         id="tspan154">-</tspan></text><text
       transform="matrix(1,0,0,-1,98.9939,783)"
       style="font-variant:normal;font-weight:300;font-stretch:normal;font-size:20px;font-family:'Rubik Light';-inkscape-font-specification:Rubik-Light;writing-mode:lr-tb;fill:#000000;fill-opacity:1;fill-rule:nonzero;stroke:none"
       id="text170"><tspan
         x="0 11.92 23.84 34.220001 39.380001 52.02 62.740002 74.660004 84.779999 95.5 100.66 113.22 124.38 135.10001 145.82001 157.74001 169.66"
         y="0"
         id="tspan158">ния Банка России.</tspan><tspan
         x="0 13.06 18.219999 29.42 41.740002 52.939999 65.260002 70.419998 78.540001 89.699997 101.22 111.8 116.96 129.98 141.14 151.98 162.89999 172.84 184 197.28 202.44 213.96001 225.88 237.5 248.42 258.54001 268.48001 279.64001 291.26001 302.42001 313.26001 318.42001 332.42001 342.51999 354.79999 359.95999 371.29999 384.48001 395.70001 406.85999 412.01999 422.60001 432.54001 443.38 454.29999 465.92001 480.89999 492.42001 503.34 515.26001 526.41998"
         y="39.040001"
         id="tspan160">В 2020 году Советом директоров ПГК было утверждено </tspan><tspan
         x="0 14 24.959999 36.18 47.34 62.32 73.239998 85.160004 97.080002 108 113.16 124.32 135.66 140.82001 151.98 164 174.92 186.84 196.45799 207.37801 212.53799 224.058 234.978 245.358 255.298 266.138 277.358 286.87799 298.798 309.95801 320.67801 330.61801 342.53799 347.698 360.71799 371.87799 382.71799 393.638 403.578 414.298 419.45801 430.978 442.89801 454.51801 465.43799 475.55801 485.49799 496.65799 508.27802 519.43799 530.27802"
         y="65.080002"
         id="tspan162">Положение об оценке деятельности Совета директоров </tspan><tspan
         x="0 11.92 17.08 29 39.720001 44.880001 55.799999 63.919998 75.080002 80.239998 91.400002 102.12 114.04 125.2 136.03999 146.96001 152.12 163.64 175.25999 186.42 197.25999 208.17999 219.7 230.62 242.53999 253.25999 258.42001 269.14001 279.85999 293.14001 304.29999 315.45999 327.48001 338.39999 350.32001 360.44 371.16 376.32001 387.04001 400.62 414.20001 425.12 435.23999 445.17999 457.10001 467.94 479.85999 491.01999 501.73999 511.67999 523.59998"
         y="91.120003"
         id="tspan164">и на его основе проведена самооценка эффективности </tspan><tspan
         x="0 11.52 22.440001 32.82 42.759998 53.599998 64.82 74.339996 86.260002 97.419998 108.14 118.08 130 135.16 148.17999 159.34 170.17999 181.10001 191.03999 201.75999 206.92 218.44 230.36 241.98 252.89999 263.01999 272.95999 284.12 295.73999 306.89999 317.73999 322.89999 334.57599 345.73599 359.01599 370.53601 381.25601 393.17599 405.09601 417.01599"
         y="117.16"
         id="tspan166">деятельности Совета директоров Компании.</tspan><tspan
         x="0 13.06 18.219999 28.34 39.060001 49.599998 60.52 71.239998 81.18 92.019997 102.94 108.1 120.02 131.94 142.66 152.60001 163.838 174.418 187.698 198.618 210.53799 220.478 231.198 236.358 247.87801 259.49799 270.65799 281.49799 292.418 303.93799 314.858 326.77802 338.698 349.078 354.23801 365.39801 377.418 388.33801 400.258 410.37799 422.298 427.45801 438.798 451.978 463.198 473.918 479.078 490.99799"
         y="156.2"
         id="tspan168">В качестве инструмента проведения оценки была ис</tspan></text><text
       transform="matrix(1,0,0,-1,600.7119,626.8)"
       style="font-variant:normal;font-weight:300;font-stretch:normal;font-size:20px;font-family:'Rubik Light';-inkscape-font-specification:Rubik-Light;writing-mode:lr-tb;fill:#000000;fill-opacity:1;fill-rule:nonzero;stroke:none"
       id="text174"><tspan
         x="0"
         y="0"
         id="tspan172">-</tspan></text><text
       transform="matrix(1,0,0,-1,98.9939,600.76)"
       style="font-variant:normal;font-weight:300;font-stretch:normal;font-size:20px;font-family:'Rubik Light';-inkscape-font-specification:Rubik-Light;writing-mode:lr-tb;fill:#000000;fill-opacity:1;fill-rule:nonzero;stroke:none"
       id="text180"><tspan
         x="0 11.52 22.48 33.700001 43.220001 53.060001 64.220001 75.059998 85.779999 97.699997 108.42 113.58 124.3 136.22 145.838 156.758 166.698 177.418 182.158 187.31799 198.478 209.998 221.158 232.498 244.118 255.03799 266.95801 278.87799 289.59799 299.978 305.138 316.81601 327.97601 341.25601 353.17599 363.116 374.03601 383.97601 395.13599 408.41599 413.57599 425.09601 436.25601 441.41599 451.53601 462.25601 473.776 485.396 496.116 509.396"
         y="0"
         id="tspan176">пользована анкета, одобренная Комитетом по кадрам </tspan><tspan
         x="0 11.92 17.08 27.92 39.080002 48.919998 60.84 71.559998 79.919998 91.540001 102.26 117.24 128.75999 139.67999 151.60001 163.52 173.89999 187.17999 192.34 206.34 216.44 228.72 233.48 238.64 251.64 263.56 273.17599 284.09601 294.03601 304.75601 309.91599 320.75601 330.87601 342.09601 357.35599 367.896 378.616 389.836 400.556 405.716 417.336 427.716 439.23599 444.396 455.23599 466.396 477.91599 489.53601"
         y="26.040001"
         id="tspan178">и вознаграждениям ПГК. Анкета включала ряд вопро</tspan></text><text
       transform="matrix(1,0,0,-1,599.6899,574.72)"
       style="font-variant:normal;font-weight:300;font-stretch:normal;font-size:20px;font-family:'Rubik Light';-inkscape-font-specification:Rubik-Light;writing-mode:lr-tb;fill:#000000;fill-opacity:1;fill-rule:nonzero;stroke:none"
       id="text184"><tspan
         x="0"
         y="0"
         id="tspan182">-</tspan></text><text
       transform="matrix(1,0,0,-1,98.9939,548.68)"
       style="font-variant:normal;font-weight:300;font-stretch:normal;font-size:20px;font-family:'Rubik Light';-inkscape-font-specification:Rubik-Light;writing-mode:lr-tb;fill:#000000;fill-opacity:1;fill-rule:nonzero;stroke:none"
       id="text188"><tspan
         x="0 10.72 21.879999 32.720001 37.459999 42.619999 52.740002 63.459999 74.18 84.900002 100.16 116.06 127.98 138.34 149.06 159.44 164.60001 176.22 186.94 198.28 209.44 219.38 232.56 237.72 250.74001 261.89999 272.73999 283.66 293.60001 304.32001 309.48001 321 332.92001 344.54001 355.45999 365.57999 375.51999 386.67999 398.29999 409.45999 420.29999 425.04001 430.20001 441.12 449.23599 460.396 465.556 477.23599 488.396 501.67599"
         y="0"
         id="tspan186">сов, касающихся работы Совета директоров, его Коми</tspan></text><text
       transform="matrix(1,0,0,-1,612.5899,548.68)"
       style="font-variant:normal;font-weight:300;font-stretch:normal;font-size:20px;font-family:'Rubik Light';-inkscape-font-specification:Rubik-Light;writing-mode:lr-tb;fill:#000000;fill-opacity:1;fill-rule:nonzero;stroke:none"
       id="text192"><tspan
         x="0"
         y="0"
         id="tspan190">-</tspan></text><text
       transform="matrix(1,0,0,-1,98.9939,522.64)"
       style="font-variant:normal;font-weight:300;font-stretch:normal;font-size:20px;font-family:'Rubik Light';-inkscape-font-specification:Rubik-Light;writing-mode:lr-tb;fill:#000000;fill-opacity:1;fill-rule:nonzero;stroke:none"
       id="text198"><tspan
         x="0 9.9399996 20.860001 30.799999 41.959999 52.799999 57.540001 62.591999 72.711998 83.431999 93.972 104.892 115.612 125.552 136.392 147.112 152.164 163.68401 174.84399 186.364 194.48399 205.644 215.584 226.744 237.584 247.70399 259.62399 264.67801 276.198 287.358 297.478 308.05801 321.33801 332.258 344.17801 354.11801 365.27802 376.11801 381.168 393.08801 398.142 409.66199 420.88199 431.60199 443.522 455.44199 467.06201 478.22198 489.06201 499.78201 511.702 523.62201 534.00201"
         y="0"
         id="tspan194">тетов, качества подготовки документов и планирования </tspan><tspan
         x="0 11.62 22.34 33.68 44.84 54.779999 67.959999 72.699997 77.860001 89.779999 94.940002 104.78 115.5 127.02 137.978 149.198 161.118 171.498 182.718 193.438 204.158 213.67799 218.838 228.95799 239.67799 254.658 266.17801 279.358 292.638 297.798 308.33801 319.55801 330.478 342.39801 353.55801 366.83801 371.99799 385.01801 396.17801 407.01801 417.93799 427.87799 438.59799 443.758 455.27802 467.198 478.81799 489.73801 499.858 509.798"
         y="26.040001"
         id="tspan196">работы, и заполнялась каждым членом Совета директо</tspan></text><text
       transform="matrix(1,0,0,-1,619.9519,496.6)"
       style="font-variant:normal;font-weight:300;font-stretch:normal;font-size:20px;font-family:'Rubik Light';-inkscape-font-specification:Rubik-Light;writing-mode:lr-tb;fill:#000000;fill-opacity:1;fill-rule:nonzero;stroke:none"
       id="text202"><tspan
         x="0"
         y="0"
         id="tspan200">-</tspan></text><text
       transform="matrix(1,0,0,-1,98.9939,470.56)"
       style="font-variant:normal;font-weight:300;font-stretch:normal;font-size:20px;font-family:'Rubik Light';-inkscape-font-specification:Rubik-Light;writing-mode:lr-tb;fill:#000000;fill-opacity:1;fill-rule:nonzero;stroke:none"
       id="text208"><tspan
         x="0 11.62 22.780001 33.619999 38.779999 50.700001 61.419998 66.580002 78.5 89.220001 99.760002 110.48 121.7 132.42 142.78 147.94 158.66 170.58 181.74001 193.66 205.58 218.86 230.78 241.94 252.66 262.60001 274.51999 279.67999 291.60001 296.76001 306.37601 317.53601 329.45599 343.03601 354.95599 366.47601 377.396 389.31601 401.336 413.25601 423.97601 435.19601 444.716 456.63599 467.79599 478.51599 488.45599 500.37601"
         y="0"
         id="tspan204">ров на началах анонимности и конфиденциальности.</tspan><tspan
         x="0 14 25.620001 36.779999 47.619999 58.540001 70.059998 80.980003 92.900002 104.82 115.54 125.92 131.08 142.24001 154.25999 165.17999 177.10001 187.22 197.94 203.10001 214.62 225.78 237.3 247.24001 258.07999 269 280.62 292.14001 304.06 315.28 326 331.16 341.88 355.45999 369.04001 379.95999 390.07999 400.01999 411.94 422.78 434.70001 445.85999 456.57999 466.51999 476.04001 481.20001 492.82001"
         y="39.040001"
         id="tspan206">Проведенная оценка подтвердила эффективность ра</tspan></text><text
       transform="matrix(1,0,0,-1,602.5339,431.52)"
       style="font-variant:normal;font-weight:300;font-stretch:normal;font-size:20px;font-family:'Rubik Light';-inkscape-font-specification:Rubik-Light;writing-mode:lr-tb;fill:#000000;fill-opacity:1;fill-rule:nonzero;stroke:none"
       id="text212"><tspan
         x="0"
         y="0"
         id="tspan210">-</tspan></text><text
       transform="matrix(1,0,0,-1,98.9939,405.48)"
       style="font-variant:normal;font-weight:300;font-stretch:normal;font-size:20px;font-family:'Rubik Light';-inkscape-font-specification:Rubik-Light;writing-mode:lr-tb;fill:#000000;fill-opacity:1;fill-rule:nonzero;stroke:none"
       id="text218"><tspan
         x="0 11.34 22.5 32.439999 45.619999 50.779999 63.799999 74.959999 85.800003 96.720001 106.66 117.38 122.54 134.06 145.98 157.60001 168.52 178.64 188.58 199.74001 211.36 222.52 233.36 238.52 250.198 261.358 274.638 286.15799 296.87799 308.798 320.71799 332.638 337.798 349.71799 354.87799 365.798 373.91599 385.07599 390.23599 399.85599 411.01599 424.29599 436.216 446.15601 457.07599 467.01599 478.17599 489.01599"
         y="0"
         id="tspan214">боты Совета директоров Компании и его комитетов </tspan><tspan
         x="594 604.84003 610 621.20001 633.52002 641.47998 652.91998 658.08002 666.20001 677.35999 688.88 698.26001 703.02002 708.17999 720.82001 731.77802 742.99799 752.51801 767.89801 779.81799 791.73798 802.45801 812.39801 823.23798 834.39801 839.55798 850.09802 861.31799 872.23798 884.15802 895.31799 906.15802 911.31799 924.33801 935.49799 946.33801 957.258 967.198 977.91803 983.078 994.59802 1006.518 1018.138 1029.058 1039.178 1049.118"
         y="-455.54001"
         id="tspan216">в 2019 году. Большинство членов Совета директо</tspan></text><text
       transform="matrix(1,0,0,-1,1159.2719,861.02)"
       style="font-variant:normal;font-weight:300;font-stretch:normal;font-size:20px;font-family:'Rubik Light';-inkscape-font-specification:Rubik-Light;writing-mode:lr-tb;fill:#000000;fill-opacity:1;fill-rule:nonzero;stroke:none"
       id="text222"><tspan
         x="0"
         y="0"
         id="tspan220">-</tspan></text><text
       transform="matrix(1,0,0,-1,692.9939,834.42)"
       style="font-variant:normal;font-weight:300;font-stretch:normal;font-size:20px;font-family:'Rubik Light';-inkscape-font-specification:Rubik-Light;writing-mode:lr-tb;fill:#000000;fill-opacity:1;fill-rule:nonzero;stroke:none"
       id="text226"><tspan
         x="0 11.62 22.780001 33.619999 38.360001 43.52 55.040001 66.660004 78.580002 90.5 100.88 111.72 127.1 139.02 149.38 154.53999 165.12 175.66 186.38 197.10001 207.03999 218.96001 229.88 235.03999 245.88 251.03999 262.20001 274.22 285.14001 297.06 306.67599 317.59601 322.336 327.496 338.65601 348.59601 361.87601 372.79599 382.73599 394.65601 405.87601 417.79599 422.53601 427.69601 438.23599 448.17599 459.336 464.496 477.51599"
         y="0"
         id="tspan224">ров, принявших участие в оценке, отметили, что Со</tspan></text><text
       transform="matrix(1,0,0,-1,1181.6699,834.42)"
       style="font-variant:normal;font-weight:300;font-stretch:normal;font-size:20px;font-family:'Rubik Light';-inkscape-font-specification:Rubik-Light;writing-mode:lr-tb;fill:#000000;fill-opacity:1;fill-rule:nonzero;stroke:none"
       id="text230"><tspan
         x="0"
         y="0"
         id="tspan228">-</tspan></text><text
       transform="matrix(1,0,0,-1,692.9939,807.82)"
       style="font-variant:normal;font-weight:300;font-stretch:normal;font-size:20px;font-family:'Rubik Light';-inkscape-font-specification:Rubik-Light;writing-mode:lr-tb;fill:#000000;fill-opacity:1;fill-rule:nonzero;stroke:none"
       id="text238"><tspan
         x="0 10.84 21.76 31.700001 36.860001 48.380001 60.299999 71.919998 82.839996 92.959999 102.9 114.06 125.68 136.84 147.67999 152.84 163.22 174.06 185.28 195.66 206.58 216.52 227.24001 237.62 242.78 254.3 265.51999 276.67999 292.57999 303.29999 314.82001 324.436 335.59601 347.51599 352.67599 364.19601 375.41599 385.79599 390.95599 401.79599 414.97601 426.59601 437.31601 448.65601 459.81601 469.75601 479.87601 491.79599"
         y="0"
         id="tspan232">вет директоров является площадкой для выработки </tspan><tspan
         x="0 10.72 24.299999 37.880001 48.799999 58.919998 68.860001 80.779999 91.620003 103.54 116.72 127.08 132.24001 142.82001 154.34 165.96001 176.67999 187.52 198.74001 209.66 221.58 232.12 243.03999 253.75999 263.88 275.79999 286.16 291.32001 302.94 313.85999 329.23999 340.16 352.07999 364 375.92001 381.10001 386.26001 397.42001 408.76001 419.48001 430.06 445.04001 456.56 467.48001 479.39999 491.32001 502.23999"
         y="26.6"
         id="tspan234">эффективных управленческих решений; обсуждение </tspan><tspan
         x="0 10.84 22 33.52 45.139999 56.299999 67.019997 78.18 89.019997 94.18 105.7 116.86 127.7 138.62 149.34 159.28 169.39999 181.32001 186.48 198 209.92 220.3 225.46001 235.84 246.67999 257.89999 268.28 279.20001 289.14001 299.85999 310.23999 315.39999 325.01599 336.17599 348.09601 358.81601 368.75601 379.996 390.57599 400.69601 410.63599 422.556 433.396 445.31601 458.496 471.776 476.51599 481.67599 492.396 497.556 507.17401"
         y="53.200001"
         id="tspan236">вопросов повестки дня является конструктивным, а ко</tspan></text><text
       transform="matrix(1,0,0,-1,1211.3279,754.62)"
       style="font-variant:normal;font-weight:300;font-stretch:normal;font-size:20px;font-family:'Rubik Light';-inkscape-font-specification:Rubik-Light;writing-mode:lr-tb;fill:#000000;fill-opacity:1;fill-rule:nonzero;stroke:none"
       id="text242"><tspan
         x="0"
         y="0"
         id="tspan240">-</tspan></text><text
       transform="matrix(1,0,0,-1,692.9939,728.02)"
       style="font-variant:normal;font-weight:300;font-stretch:normal;font-size:20px;font-family:'Rubik Light';-inkscape-font-specification:Rubik-Light;writing-mode:lr-tb;fill:#000000;fill-opacity:1;fill-rule:nonzero;stroke:none"
       id="text246"><tspan
         x="0 11.22 23.139999 33.68 44.599998 55.32 65.260002 76.099998 87.019997 91.760002 96.919998 108.54 119.46 127.82 137.81799 149.03799 159.418 171.03799 182.95799 194.118 204.838 214.778 224.298 229.45799 240.978 252.59801 263.758 274.59799 285.758 297.27802 309.198 322.478 335.65799 346.01801 351.17801 361.01801 371.73801 382.45801 393.37799 404.89801 415.61801 427.53799 439.45801 451.37799 456.53799 468.45801 473.61801 484.33801 495.49799 506.65799"
         y="0"
         id="tspan244">личество, регулярность проводимых заседаний и соот</tspan></text><text
       transform="matrix(1,0,0,-1,1209.5919,728.02)"
       style="font-variant:normal;font-weight:300;font-stretch:normal;font-size:20px;font-family:'Rubik Light';-inkscape-font-specification:Rubik-Light;writing-mode:lr-tb;fill:#000000;fill-opacity:1;fill-rule:nonzero;stroke:none"
       id="text250"><tspan
         x="0"
         y="0"
         id="tspan248">-</tspan></text><text
       transform="matrix(1,0,0,-1,692.9939,701.42)"
       style="font-variant:normal;font-weight:300;font-stretch:normal;font-size:20px;font-family:'Rubik Light';-inkscape-font-specification:Rubik-Light;writing-mode:lr-tb;fill:#000000;fill-opacity:1;fill-rule:nonzero;stroke:none"
       id="text254"><tspan
         x="0 11.92 23.08 38.459999 49.380001 61.299999 73.220001 84.139999 89.300003 99.139999 109.86 120.58 131.5 143.02 153.74001 165.66 177.58 189.5 194.66 205.5 210.66 221.82001 232.36 244.28 255.44 267.35999 272.51999 284.44 289.60001 299.44 310.16 321.32001 331.85999 343.78 354.94 366.85999 372.01999 385.60001 396.76001 408.38 421.66 432.38 442.73999 447.89999 463.23999 468.39999 479.92001 491.07999 501.79999 511.73999"
         y="0"
         id="tspan252">ношение заседаний в очной и заочной формах — доста</tspan></text><text
       transform="matrix(1,0,0,-1,1215.4539,701.42)"
       style="font-variant:normal;font-weight:300;font-stretch:normal;font-size:20px;font-family:'Rubik Light';-inkscape-font-specification:Rubik-Light;writing-mode:lr-tb;fill:#000000;fill-opacity:1;fill-rule:nonzero;stroke:none"
       id="text258"><tspan
         x="0"
         y="0"
         id="tspan256">-</tspan></text><text
       transform="matrix(1,0,0,-1,692.9939,674.82)"
       style="font-variant:normal;font-weight:300;font-stretch:normal;font-size:20px;font-family:'Rubik Light';-inkscape-font-specification:Rubik-Light;writing-mode:lr-tb;fill:#000000;fill-opacity:1;fill-rule:nonzero;stroke:none"
       id="text266"><tspan
         x="0 9.9399996 21.1 31.639999 43.560001 56.740002 70.019997"
         y="0"
         id="tspan260">точным.</tspan><tspan
         x="0 12.56 23.48 33.32 43.32 54.540001 64.059998 74 84.720001 94.660004 107.84 113 124.16 136.17999 147.10001 159.02 169.14 181.06 186.22 196.34 207.06 217.60001 228.52 239.24001 249.17999 260.01999 270.73999 275.89999 287.51999 298.23999 309.57999 320.73999 330.67999 343.85999 349.01999 362.04001 373.20001 384.04001 394.95999 404.89999 415.62 420.78 432.29999 444.22 455.84 466.76001 476.88 486.82001 497.98001 509.60001 520.76001 531.59998"
         y="41.599998"
         id="tspan262">Результаты оценки качества работы Совета директоров </tspan><tspan
         x="0 11.92 17.08 28.700001 39.619999 49.240002 60.400002 73.68 84.599998 96.519997 108.04 118.76 130.78 142.7 154.62 159.78 171.3 182.46001 187.62 199.14 209.86 221.08 230.60001 242.52 253.44 265.35999 280.73999 291.66 304.94 315.51999 320.67999 330.67599 341.896 352.47601 363.01599 378.396 389.31601 401.23599 413.15601 428.41599 433.57599 444.496 452.61401 463.77399 468.93399 480.45401 491.37399"
         y="68.199997"
         id="tspan264">и рекомендации по дальнейшему улучшению его дея</tspan></text><text
       transform="matrix(1,0,0,-1,1194.7479,606.62)"
       style="font-variant:normal;font-weight:300;font-stretch:normal;font-size:20px;font-family:'Rubik Light';-inkscape-font-specification:Rubik-Light;writing-mode:lr-tb;fill:#000000;fill-opacity:1;fill-rule:nonzero;stroke:none"
       id="text270"><tspan
         x="0"
         y="0"
         id="tspan268">-</tspan></text><text
       transform="matrix(1,0,0,-1,692.9939,580.02)"
       style="font-variant:normal;font-weight:300;font-stretch:normal;font-size:20px;font-family:'Rubik Light';-inkscape-font-specification:Rubik-Light;writing-mode:lr-tb;fill:#000000;fill-opacity:1;fill-rule:nonzero;stroke:none"
       id="text274"><tspan
         x="0 9.9399996 20.780001 32 41.52 53.439999 64.599998 75.32 85.260002 97.18 102.34 114.26 119.42 130.34 138.45799 149.618 154.778 164.39799 175.558 188.838 200.758 210.698 221.618 231.558 242.718 253.558 258.71799 270.33801 281.05801 291.77802 302.49799 315.77802 326.93799 336.87799 348.49799 359.418 371.33801 384.51801 389.67801 401.59799 412.31799 417.478 428.638 439.17801 451.09799 462.258 475.53799 480.698 490.53799 501.258 511.978"
         y="0"
         id="tspan272">тельности и его комитетов рассмотрены на очном засе</tspan></text><text
       transform="matrix(1,0,0,-1,1215.8919,580.02)"
       style="font-variant:normal;font-weight:300;font-stretch:normal;font-size:20px;font-family:'Rubik Light';-inkscape-font-specification:Rubik-Light;writing-mode:lr-tb;fill:#000000;fill-opacity:1;fill-rule:nonzero;stroke:none"
       id="text278"><tspan
         x="0"
         y="0"
         id="tspan276">-</tspan></text><text
       transform="matrix(1,0,0,-1,692.9939,553.42)"
       style="font-variant:normal;font-weight:300;font-stretch:normal;font-size:20px;font-family:'Rubik Light';-inkscape-font-specification:Rubik-Light;writing-mode:lr-tb;fill:#000000;fill-opacity:1;fill-rule:nonzero;stroke:none"
       id="text294"><tspan
         x="0 11.52 22.24 34.16 46.080002 58 63.16 74 79.160004 89.879997 101.4 113.02 123.858 135.078 145.998 151.158 162.358 174.67799 185.87801 198.198 203.358 211.478 222.638 234.158 244.87801 250.03799 261.95801 267.11801 278.27802 288.21799 299.83801 310.55801 325.53799 336.45801 348.37799 361.55801 366.71799 377.55801 382.71799 390.836 401.996 413.51599 424.67599 435.51599 446.67599 459.95599 465.116 476.276 486.216 496.75601 507.67599 517.61603 528.53601"
         y="0"
         id="tspan280">дании в апреле 2020 года и отражены в годовом отчете </tspan><tspan
         x="0 14 24.1 36.380001 41.540001 51.380001 62.099998 67.260002 78.459999 90.779999 98.739998 110.18 115.34 123.46 134.62 146.14"
         y="26.6"
         id="tspan282">ПГК за 2019 год.</tspan><tspan
         x="0 13.24 25.26 36.18 48.099998 58.220001 68.940002 74.099998 84.82 98.400002 111.98 122.9 133.02 142.96001 154.88 165.72 177.64 188.8 199.52 209.46001 221.38 226.53999 238.16 248.88 260.22 271.38 281.32001 294.5 299.66 312.67999 323.84 334.67999 345.60001 355.54001 366.26001 371.42001 382.94 394.85999 406.48001 417.39999 427.51999 437.45999 448.62 460.23999 471.39999 482.23999 487.39999 501.39999 511.5 523.78003"
         y="68.199997"
         id="tspan284">Оценка эффективности работы Совета директоров ПГК </tspan><tspan
         x="0 9.8400002 20.559999 25.719999 36.919998 49.240002 60.439999 72.760002 77.919998 86.040001 97.199997 108.72 113.88 125.4 137.02 148.17999 159.02 169.94 181.46001 192.38 204.3 215.02 220.17999 231.02 236.17999 247.38 259.70001 270.89999 278.85999 284.01999 292.138 303.298 314.81799 324.19601 328.95599 334.116 348.63599 358.57599 369.73599 378.09601 390.01599 395.17599 406.69601 418.31601 429.47601 429.48001 440.32001 451.23999 462.76001 473.67999 485.60001 497.51999 508.67999 520.59998"
         y="94.800003"
         id="tspan286">за 2020 год проведена в 2021 году. Итоги про веденной </tspan><tspan
         x="0 11.16 23.18 34.099998 46.02 56.139999 68.059998 73.220001 84.839996 95.559998 106.28 117 130.28 141.44 151.38 163 173.92 185.84 199.02 204.17999 216.10001 226.82001 231.98 243.14 253.67999 265.60001 276.76001 290.04001 295.20001 305.04001 315.76001 326.48001 337.39999 348.92001 359.64001 371.56 383.48001 395.39999 400.56 411.39999 416.56 429.84 440.56 452.17999 462.12 473.04001"
         y="121.4"
         id="tspan288">оценки рассмотрены на очном заседании в марте </tspan><tspan
         x="0 11.2 23.52 34.720001 42.68 47.84 55.959999 67.120003 78.639999 89.360001"
         y="148"
         id="tspan290">2021 года.</tspan><tspan
         x="-655.08002 -643.44"
         y="-469.42001"
         id="tspan292">63</tspan></text><g
       id="g296"><g
         id="g298"><g
           id="g300"
           clip-path="url(#clipPath304)"><text
             transform="matrix(1,0,0,-1,99,1023)"
             style="font-variant:normal;font-weight:300;font-stretch:normal;font-size:20px;font-family:'Rubik Light';-inkscape-font-specification:Rubik-Light;writing-mode:lr-tb;fill:#000000;fill-opacity:1;fill-rule:nonzero;stroke:none"
             id="text308"><tspan
               x="0 13.24 18.4 28.02 39.18 52.459999 63.98 74.699997 86.620003 98.540001"
               y="0"
               id="tspan306">О компании</tspan></text></g></g></g></g></svg>
