<?xml version="1.0" encoding="UTF-8" standalone="no"?>
<?xml-stylesheet type="text/css" href="main.css" ?>
<svg
   xmlns:dc="http://purl.org/dc/elements/1.1/"
   xmlns:cc="http://creativecommons.org/ns#"
   xmlns:rdf="http://www.w3.org/1999/02/22-rdf-syntax-ns#"
   xmlns:svg="http://www.w3.org/2000/svg"
   xmlns="http://www.w3.org/2000/svg"
   version="1.1"
   id="svg2"
   xml:space="preserve"
   width="2560"
   height="1440"
   viewBox="0 0 2560 1440"><metadata
     id="metadata8"><rdf:RDF><cc:Work
         rdf:about=""><dc:format>image/svg+xml</dc:format><dc:type
           rdf:resource="http://purl.org/dc/dcmitype/StillImage" /></cc:Work></rdf:RDF></metadata><defs
     id="defs6"><clipPath
       clipPathUnits="userSpaceOnUse"
       id="clipPath20"><path
         d="M 0,1080 H 1920 V 0 H 0 Z"
         id="path18" /></clipPath><clipPath
       clipPathUnits="userSpaceOnUse"
       id="clipPath330"><path
         d="M 0,0 H 1920 V 1080 H 0 Z"
         id="path328" /></clipPath><clipPath
       clipPathUnits="userSpaceOnUse"
       id="clipPath342"><path
         d="m 699,778.781 c 0,-8.281 6.716,-15 15,-15 v 0 c 8.284,0 15,6.719 15,15 v 0 c 0,8.282 -6.716,15 -15,15 v 0 c -8.284,0 -15,-6.718 -15,-15"
         id="path340" /></clipPath><clipPath
       clipPathUnits="userSpaceOnUse"
       id="clipPath430"><path
         d="M 0,0 H 1920 V 1080 H 0 Z"
         id="path428" /></clipPath><clipPath
       clipPathUnits="userSpaceOnUse"
       id="clipPath442"><path
         d="m 699,461.969 c 0,-8.282 6.716,-15 15,-15 v 0 c 8.284,0 15,6.718 15,15 v 0 c 0,8.281 -6.716,15 -15,15 v 0 c -8.284,0 -15,-6.719 -15,-15"
         id="path440" /></clipPath><clipPath
       clipPathUnits="userSpaceOnUse"
       id="clipPath478"><path
         d="M 0,0 H 1920 V 1080 H 0 Z"
         id="path476" /></clipPath><clipPath
       clipPathUnits="userSpaceOnUse"
       id="clipPath490"><path
         d="m 699,389.281 c 0,-8.281 6.716,-15 15,-15 v 0 c 8.284,0 15,6.719 15,15 v 0 c 0,8.281 -6.716,15 -15,15 v 0 c -8.284,0 -15,-6.719 -15,-15"
         id="path488" /></clipPath><clipPath
       clipPathUnits="userSpaceOnUse"
       id="clipPath546"><path
         d="M 0,0 H 1920 V 1080 H 0 Z"
         id="path544" /></clipPath><clipPath
       clipPathUnits="userSpaceOnUse"
       id="clipPath558"><path
         d="m 699,230.875 c 0,-8.282 6.716,-15 15,-15 v 0 c 8.284,0 15,6.718 15,15 v 0 c 0,8.281 -6.716,15 -15,15 v 0 c -8.284,0 -15,-6.719 -15,-15"
         id="path556" /></clipPath><clipPath
       clipPathUnits="userSpaceOnUse"
       id="clipPath600"><path
         d="M 0,1080 H 1920 V 0 H 0 Z"
         id="path598" /></clipPath></defs><g
     id="g10"
     transform="matrix(1.3333333,0,0,-1.3333333,0,1440)"><g
       id="g12"><g
         id="g14"><g
           id="g16"
           clip-path="url(#clipPath20)"><path
             d="M 0,0 H 1920 V 1080 H 0 Z"
             style="fill:#ffffff;fill-opacity:1;fill-rule:nonzero;stroke:none"
             id="path22" /></g></g></g><text
       transform="matrix(1,0,0,-1,99,953.8201)"
       style="font-variant:normal;font-weight:500;font-stretch:normal;font-size:28px;font-family:'Rubik Medium';-inkscape-font-specification:Rubik-Medium;writing-mode:lr-tb;fill:#000000;fill-opacity:1;fill-rule:nonzero;stroke:none"
       id="text26"><tspan
         x="0 20.440001 37.043999 43.428001 59.444 76.047997 92.064003 106.932 123.536 139.664 157.136 174.608 198.01601 204.39999 221.87199 237.888 244.272 261.4892 274.4812 280.16519 293.1572 310.51721 318.04919 335.40921 353.86121 371.22119 389.67319 396.05719 412.43719 418.8212 434.83719 451.44119 467.45721 482.3252 498.34119 514.72119 521.10522 539.10638 555.71039 575.42242 592.89441 607.76239 623.94641 638.81439 655.4184 671.7984 678.18237 694.56238 710.38239 726.98639 744.59839 762.07037 778.98242"
         y="0"
         id="tspan24">По состоянию на 31.12.2020 в состав Комитетов входили</tspan></text><g
       id="g28"
       transform="translate(99,815.1201)"><path
         d="M 0,0 H 246"
         style="fill:none;stroke:#e8e8ed;stroke-width:1;stroke-linecap:butt;stroke-linejoin:miter;stroke-miterlimit:10;stroke-dasharray:none;stroke-opacity:1"
         id="path30" /></g><g
       id="g32"
       transform="translate(345,815.1201)"><path
         d="M 0,0 H 246"
         style="fill:none;stroke:#e8e8ed;stroke-width:1;stroke-linecap:butt;stroke-linejoin:miter;stroke-miterlimit:10;stroke-dasharray:none;stroke-opacity:1"
         id="path34" /></g><g
       id="g36"
       transform="translate(591,815.1201)"><path
         d="M 0,0 H 246"
         style="fill:none;stroke:#e8e8ed;stroke-width:1;stroke-linecap:butt;stroke-linejoin:miter;stroke-miterlimit:10;stroke-dasharray:none;stroke-opacity:1"
         id="path38" /></g><g
       id="g40"
       transform="translate(837,815.1201)"><path
         d="M 0,0 H 246"
         style="fill:none;stroke:#e8e8ed;stroke-width:1;stroke-linecap:butt;stroke-linejoin:miter;stroke-miterlimit:10;stroke-dasharray:none;stroke-opacity:1"
         id="path42" /></g><g
       id="g44"
       transform="translate(1083,815.1201)"><path
         d="M 0,0 H 246"
         style="fill:none;stroke:#e8e8ed;stroke-width:1;stroke-linecap:butt;stroke-linejoin:miter;stroke-miterlimit:10;stroke-dasharray:none;stroke-opacity:1"
         id="path46" /></g><g
       id="g48"
       transform="translate(1329,815.1201)"><path
         d="M 0,0 H 246"
         style="fill:none;stroke:#e8e8ed;stroke-width:1;stroke-linecap:butt;stroke-linejoin:miter;stroke-miterlimit:10;stroke-dasharray:none;stroke-opacity:1"
         id="path50" /></g><g
       id="g52"
       transform="translate(1575,815.1201)"><path
         d="M 0,0 H 246"
         style="fill:none;stroke:#e8e8ed;stroke-width:1;stroke-linecap:butt;stroke-linejoin:miter;stroke-miterlimit:10;stroke-dasharray:none;stroke-opacity:1"
         id="path54" /></g><g
       id="g56"
       transform="translate(99,742.4202)"><path
         d="M 0,0 H 246"
         style="fill:none;stroke:#e8e8ed;stroke-width:1;stroke-linecap:butt;stroke-linejoin:miter;stroke-miterlimit:10;stroke-dasharray:none;stroke-opacity:1"
         id="path58" /></g><g
       id="g60"
       transform="translate(345,742.4202)"><path
         d="M 0,0 H 246"
         style="fill:none;stroke:#e8e8ed;stroke-width:1;stroke-linecap:butt;stroke-linejoin:miter;stroke-miterlimit:10;stroke-dasharray:none;stroke-opacity:1"
         id="path62" /></g><g
       id="g64"
       transform="translate(591,742.4202)"><path
         d="M 0,0 H 246"
         style="fill:none;stroke:#e8e8ed;stroke-width:1;stroke-linecap:butt;stroke-linejoin:miter;stroke-miterlimit:10;stroke-dasharray:none;stroke-opacity:1"
         id="path66" /></g><g
       id="g68"
       transform="translate(837,742.4202)"><path
         d="M 0,0 H 246"
         style="fill:none;stroke:#e8e8ed;stroke-width:1;stroke-linecap:butt;stroke-linejoin:miter;stroke-miterlimit:10;stroke-dasharray:none;stroke-opacity:1"
         id="path70" /></g><g
       id="g72"
       transform="translate(1083,742.4202)"><path
         d="M 0,0 H 246"
         style="fill:none;stroke:#e8e8ed;stroke-width:1;stroke-linecap:butt;stroke-linejoin:miter;stroke-miterlimit:10;stroke-dasharray:none;stroke-opacity:1"
         id="path74" /></g><g
       id="g76"
       transform="translate(1329,742.4202)"><path
         d="M 0,0 H 246"
         style="fill:none;stroke:#e8e8ed;stroke-width:1;stroke-linecap:butt;stroke-linejoin:miter;stroke-miterlimit:10;stroke-dasharray:none;stroke-opacity:1"
         id="path78" /></g><g
       id="g80"
       transform="translate(1575,742.4202)"><path
         d="M 0,0 H 246"
         style="fill:none;stroke:#e8e8ed;stroke-width:1;stroke-linecap:butt;stroke-linejoin:miter;stroke-miterlimit:10;stroke-dasharray:none;stroke-opacity:1"
         id="path82" /></g><g
       id="g84"
       transform="translate(99,669.7202)"><path
         d="M 0,0 H 246"
         style="fill:none;stroke:#e8e8ed;stroke-width:1;stroke-linecap:butt;stroke-linejoin:miter;stroke-miterlimit:10;stroke-dasharray:none;stroke-opacity:1"
         id="path86" /></g><g
       id="g88"
       transform="translate(345,669.7202)"><path
         d="M 0,0 H 246"
         style="fill:none;stroke:#e8e8ed;stroke-width:1;stroke-linecap:butt;stroke-linejoin:miter;stroke-miterlimit:10;stroke-dasharray:none;stroke-opacity:1"
         id="path90" /></g><g
       id="g92"
       transform="translate(591,669.7202)"><path
         d="M 0,0 H 246"
         style="fill:none;stroke:#e8e8ed;stroke-width:1;stroke-linecap:butt;stroke-linejoin:miter;stroke-miterlimit:10;stroke-dasharray:none;stroke-opacity:1"
         id="path94" /></g><g
       id="g96"
       transform="translate(837,669.7202)"><path
         d="M 0,0 H 246"
         style="fill:none;stroke:#e8e8ed;stroke-width:1;stroke-linecap:butt;stroke-linejoin:miter;stroke-miterlimit:10;stroke-dasharray:none;stroke-opacity:1"
         id="path98" /></g><g
       id="g100"
       transform="translate(1083,669.7202)"><path
         d="M 0,0 H 246"
         style="fill:none;stroke:#e8e8ed;stroke-width:1;stroke-linecap:butt;stroke-linejoin:miter;stroke-miterlimit:10;stroke-dasharray:none;stroke-opacity:1"
         id="path102" /></g><g
       id="g104"
       transform="translate(1329,669.7202)"><path
         d="M 0,0 H 246"
         style="fill:none;stroke:#e8e8ed;stroke-width:1;stroke-linecap:butt;stroke-linejoin:miter;stroke-miterlimit:10;stroke-dasharray:none;stroke-opacity:1"
         id="path106" /></g><g
       id="g108"
       transform="translate(1575,669.7202)"><path
         d="M 0,0 H 246"
         style="fill:none;stroke:#e8e8ed;stroke-width:1;stroke-linecap:butt;stroke-linejoin:miter;stroke-miterlimit:10;stroke-dasharray:none;stroke-opacity:1"
         id="path110" /></g><g
       id="g112"
       transform="translate(99,597.0203)"><path
         d="M 0,0 H 246"
         style="fill:none;stroke:#e8e8ed;stroke-width:1;stroke-linecap:butt;stroke-linejoin:miter;stroke-miterlimit:10;stroke-dasharray:none;stroke-opacity:1"
         id="path114" /></g><g
       id="g116"
       transform="translate(345,597.0203)"><path
         d="M 0,0 H 246"
         style="fill:none;stroke:#e8e8ed;stroke-width:1;stroke-linecap:butt;stroke-linejoin:miter;stroke-miterlimit:10;stroke-dasharray:none;stroke-opacity:1"
         id="path118" /></g><g
       id="g120"
       transform="translate(591,597.0203)"><path
         d="M 0,0 H 246"
         style="fill:none;stroke:#e8e8ed;stroke-width:1;stroke-linecap:butt;stroke-linejoin:miter;stroke-miterlimit:10;stroke-dasharray:none;stroke-opacity:1"
         id="path122" /></g><g
       id="g124"
       transform="translate(837,597.0203)"><path
         d="M 0,0 H 246"
         style="fill:none;stroke:#e8e8ed;stroke-width:1;stroke-linecap:butt;stroke-linejoin:miter;stroke-miterlimit:10;stroke-dasharray:none;stroke-opacity:1"
         id="path126" /></g><g
       id="g128"
       transform="translate(1083,597.0203)"><path
         d="M 0,0 H 246"
         style="fill:none;stroke:#e8e8ed;stroke-width:1;stroke-linecap:butt;stroke-linejoin:miter;stroke-miterlimit:10;stroke-dasharray:none;stroke-opacity:1"
         id="path130" /></g><g
       id="g132"
       transform="translate(1329,597.0203)"><path
         d="M 0,0 H 246"
         style="fill:none;stroke:#e8e8ed;stroke-width:1;stroke-linecap:butt;stroke-linejoin:miter;stroke-miterlimit:10;stroke-dasharray:none;stroke-opacity:1"
         id="path134" /></g><g
       id="g136"
       transform="translate(1575,597.0203)"><path
         d="M 0,0 H 246"
         style="fill:none;stroke:#e8e8ed;stroke-width:1;stroke-linecap:butt;stroke-linejoin:miter;stroke-miterlimit:10;stroke-dasharray:none;stroke-opacity:1"
         id="path138" /></g><g
       id="g140"
       transform="translate(99,498.3203)"><path
         d="M 0,0 H 246"
         style="fill:none;stroke:#e8e8ed;stroke-width:1;stroke-linecap:butt;stroke-linejoin:miter;stroke-miterlimit:10;stroke-dasharray:none;stroke-opacity:1"
         id="path142" /></g><g
       id="g144"
       transform="translate(345,498.3203)"><path
         d="M 0,0 H 246"
         style="fill:none;stroke:#e8e8ed;stroke-width:1;stroke-linecap:butt;stroke-linejoin:miter;stroke-miterlimit:10;stroke-dasharray:none;stroke-opacity:1"
         id="path146" /></g><g
       id="g148"
       transform="translate(591,498.3203)"><path
         d="M 0,0 H 246"
         style="fill:none;stroke:#e8e8ed;stroke-width:1;stroke-linecap:butt;stroke-linejoin:miter;stroke-miterlimit:10;stroke-dasharray:none;stroke-opacity:1"
         id="path150" /></g><g
       id="g152"
       transform="translate(837,498.3203)"><path
         d="M 0,0 H 246"
         style="fill:none;stroke:#e8e8ed;stroke-width:1;stroke-linecap:butt;stroke-linejoin:miter;stroke-miterlimit:10;stroke-dasharray:none;stroke-opacity:1"
         id="path154" /></g><g
       id="g156"
       transform="translate(1083,498.3203)"><path
         d="M 0,0 H 246"
         style="fill:none;stroke:#e8e8ed;stroke-width:1;stroke-linecap:butt;stroke-linejoin:miter;stroke-miterlimit:10;stroke-dasharray:none;stroke-opacity:1"
         id="path158" /></g><g
       id="g160"
       transform="translate(1329,498.3203)"><path
         d="M 0,0 H 246"
         style="fill:none;stroke:#e8e8ed;stroke-width:1;stroke-linecap:butt;stroke-linejoin:miter;stroke-miterlimit:10;stroke-dasharray:none;stroke-opacity:1"
         id="path162" /></g><g
       id="g164"
       transform="translate(1575,498.3203)"><path
         d="M 0,0 H 246"
         style="fill:none;stroke:#e8e8ed;stroke-width:1;stroke-linecap:butt;stroke-linejoin:miter;stroke-miterlimit:10;stroke-dasharray:none;stroke-opacity:1"
         id="path166" /></g><g
       id="g168"
       transform="translate(99,425.6204)"><path
         d="M 0,0 H 246"
         style="fill:none;stroke:#e8e8ed;stroke-width:1;stroke-linecap:butt;stroke-linejoin:miter;stroke-miterlimit:10;stroke-dasharray:none;stroke-opacity:1"
         id="path170" /></g><g
       id="g172"
       transform="translate(345,425.6204)"><path
         d="M 0,0 H 246"
         style="fill:none;stroke:#e8e8ed;stroke-width:1;stroke-linecap:butt;stroke-linejoin:miter;stroke-miterlimit:10;stroke-dasharray:none;stroke-opacity:1"
         id="path174" /></g><g
       id="g176"
       transform="translate(591,425.6204)"><path
         d="M 0,0 H 246"
         style="fill:none;stroke:#e8e8ed;stroke-width:1;stroke-linecap:butt;stroke-linejoin:miter;stroke-miterlimit:10;stroke-dasharray:none;stroke-opacity:1"
         id="path178" /></g><g
       id="g180"
       transform="translate(837,425.6204)"><path
         d="M 0,0 H 246"
         style="fill:none;stroke:#e8e8ed;stroke-width:1;stroke-linecap:butt;stroke-linejoin:miter;stroke-miterlimit:10;stroke-dasharray:none;stroke-opacity:1"
         id="path182" /></g><g
       id="g184"
       transform="translate(1083,425.6204)"><path
         d="M 0,0 H 246"
         style="fill:none;stroke:#e8e8ed;stroke-width:1;stroke-linecap:butt;stroke-linejoin:miter;stroke-miterlimit:10;stroke-dasharray:none;stroke-opacity:1"
         id="path186" /></g><g
       id="g188"
       transform="translate(1329,425.6204)"><path
         d="M 0,0 H 246"
         style="fill:none;stroke:#e8e8ed;stroke-width:1;stroke-linecap:butt;stroke-linejoin:miter;stroke-miterlimit:10;stroke-dasharray:none;stroke-opacity:1"
         id="path190" /></g><g
       id="g192"
       transform="translate(1575,425.6204)"><path
         d="M 0,0 H 246"
         style="fill:none;stroke:#e8e8ed;stroke-width:1;stroke-linecap:butt;stroke-linejoin:miter;stroke-miterlimit:10;stroke-dasharray:none;stroke-opacity:1"
         id="path194" /></g><g
       id="g196"
       transform="translate(99,352.9204)"><path
         d="M 0,0 H 246"
         style="fill:none;stroke:#e8e8ed;stroke-width:1;stroke-linecap:butt;stroke-linejoin:miter;stroke-miterlimit:10;stroke-dasharray:none;stroke-opacity:1"
         id="path198" /></g><g
       id="g200"
       transform="translate(345,352.9204)"><path
         d="M 0,0 H 246"
         style="fill:none;stroke:#e8e8ed;stroke-width:1;stroke-linecap:butt;stroke-linejoin:miter;stroke-miterlimit:10;stroke-dasharray:none;stroke-opacity:1"
         id="path202" /></g><g
       id="g204"
       transform="translate(591,352.9204)"><path
         d="M 0,0 H 246"
         style="fill:none;stroke:#e8e8ed;stroke-width:1;stroke-linecap:butt;stroke-linejoin:miter;stroke-miterlimit:10;stroke-dasharray:none;stroke-opacity:1"
         id="path206" /></g><g
       id="g208"
       transform="translate(837,352.9204)"><path
         d="M 0,0 H 246"
         style="fill:none;stroke:#e8e8ed;stroke-width:1;stroke-linecap:butt;stroke-linejoin:miter;stroke-miterlimit:10;stroke-dasharray:none;stroke-opacity:1"
         id="path210" /></g><g
       id="g212"
       transform="translate(1083,352.9204)"><path
         d="M 0,0 H 246"
         style="fill:none;stroke:#e8e8ed;stroke-width:1;stroke-linecap:butt;stroke-linejoin:miter;stroke-miterlimit:10;stroke-dasharray:none;stroke-opacity:1"
         id="path214" /></g><g
       id="g216"
       transform="translate(1329,352.9204)"><path
         d="M 0,0 H 246"
         style="fill:none;stroke:#e8e8ed;stroke-width:1;stroke-linecap:butt;stroke-linejoin:miter;stroke-miterlimit:10;stroke-dasharray:none;stroke-opacity:1"
         id="path218" /></g><g
       id="g220"
       transform="translate(1575,352.9204)"><path
         d="M 0,0 H 246"
         style="fill:none;stroke:#e8e8ed;stroke-width:1;stroke-linecap:butt;stroke-linejoin:miter;stroke-miterlimit:10;stroke-dasharray:none;stroke-opacity:1"
         id="path222" /></g><g
       id="g224"
       transform="translate(99,280.2205)"><path
         d="M 0,0 H 246"
         style="fill:none;stroke:#e8e8ed;stroke-width:1;stroke-linecap:butt;stroke-linejoin:miter;stroke-miterlimit:10;stroke-dasharray:none;stroke-opacity:1"
         id="path226" /></g><g
       id="g228"
       transform="translate(345,280.2205)"><path
         d="M 0,0 H 246"
         style="fill:none;stroke:#e8e8ed;stroke-width:1;stroke-linecap:butt;stroke-linejoin:miter;stroke-miterlimit:10;stroke-dasharray:none;stroke-opacity:1"
         id="path230" /></g><g
       id="g232"
       transform="translate(591,280.2205)"><path
         d="M 0,0 H 246"
         style="fill:none;stroke:#e8e8ed;stroke-width:1;stroke-linecap:butt;stroke-linejoin:miter;stroke-miterlimit:10;stroke-dasharray:none;stroke-opacity:1"
         id="path234" /></g><g
       id="g236"
       transform="translate(837,280.2205)"><path
         d="M 0,0 H 246"
         style="fill:none;stroke:#e8e8ed;stroke-width:1;stroke-linecap:butt;stroke-linejoin:miter;stroke-miterlimit:10;stroke-dasharray:none;stroke-opacity:1"
         id="path238" /></g><g
       id="g240"
       transform="translate(1083,280.2205)"><path
         d="M 0,0 H 246"
         style="fill:none;stroke:#e8e8ed;stroke-width:1;stroke-linecap:butt;stroke-linejoin:miter;stroke-miterlimit:10;stroke-dasharray:none;stroke-opacity:1"
         id="path242" /></g><g
       id="g244"
       transform="translate(1329,280.2205)"><path
         d="M 0,0 H 246"
         style="fill:none;stroke:#e8e8ed;stroke-width:1;stroke-linecap:butt;stroke-linejoin:miter;stroke-miterlimit:10;stroke-dasharray:none;stroke-opacity:1"
         id="path246" /></g><g
       id="g248"
       transform="translate(1575,280.2205)"><path
         d="M 0,0 H 246"
         style="fill:none;stroke:#e8e8ed;stroke-width:1;stroke-linecap:butt;stroke-linejoin:miter;stroke-miterlimit:10;stroke-dasharray:none;stroke-opacity:1"
         id="path250" /></g><g
       id="g252"
       transform="translate(99,181.5205)"><path
         d="M 0,0 H 246"
         style="fill:none;stroke:#e8e8ed;stroke-width:1;stroke-linecap:butt;stroke-linejoin:miter;stroke-miterlimit:10;stroke-dasharray:none;stroke-opacity:1"
         id="path254" /></g><g
       id="g256"
       transform="translate(345,181.5205)"><path
         d="M 0,0 H 246"
         style="fill:none;stroke:#e8e8ed;stroke-width:1;stroke-linecap:butt;stroke-linejoin:miter;stroke-miterlimit:10;stroke-dasharray:none;stroke-opacity:1"
         id="path258" /></g><g
       id="g260"
       transform="translate(591,181.5205)"><path
         d="M 0,0 H 246"
         style="fill:none;stroke:#e8e8ed;stroke-width:1;stroke-linecap:butt;stroke-linejoin:miter;stroke-miterlimit:10;stroke-dasharray:none;stroke-opacity:1"
         id="path262" /></g><g
       id="g264"
       transform="translate(837,181.5205)"><path
         d="M 0,0 H 246"
         style="fill:none;stroke:#e8e8ed;stroke-width:1;stroke-linecap:butt;stroke-linejoin:miter;stroke-miterlimit:10;stroke-dasharray:none;stroke-opacity:1"
         id="path266" /></g><g
       id="g268"
       transform="translate(1083,181.5205)"><path
         d="M 0,0 H 246"
         style="fill:none;stroke:#e8e8ed;stroke-width:1;stroke-linecap:butt;stroke-linejoin:miter;stroke-miterlimit:10;stroke-dasharray:none;stroke-opacity:1"
         id="path270" /></g><g
       id="g272"
       transform="translate(1329,181.5205)"><path
         d="M 0,0 H 246"
         style="fill:none;stroke:#e8e8ed;stroke-width:1;stroke-linecap:butt;stroke-linejoin:miter;stroke-miterlimit:10;stroke-dasharray:none;stroke-opacity:1"
         id="path274" /></g><g
       id="g276"
       transform="translate(1575,181.5205)"><path
         d="M 0,0 H 246"
         style="fill:none;stroke:#e8e8ed;stroke-width:1;stroke-linecap:butt;stroke-linejoin:miter;stroke-miterlimit:10;stroke-dasharray:none;stroke-opacity:1"
         id="path278" /></g><text
       transform="matrix(1,0,0,-1,103,855.1201)"
       style="font-variant:normal;font-weight:500;font-stretch:normal;font-size:20px;font-family:'Rubik Medium';-inkscape-font-specification:Rubik-Medium;writing-mode:lr-tb;fill:#000000;fill-opacity:1;fill-rule:nonzero;stroke:none"
       id="text290"><tspan
         x="0 17.860001 33.080002 308.56 323.48001 335.16 347.23999 364.42001 376.89999 388.76001 400.20001 410.82001 541.84003 556.44 568 578.71997 590.15997 601.85999 614.34003 625.78003 638.26001 652.34003 667.70001"
         y="0"
         id="tspan280">ФИОДолжностьНезависимый</tspan><tspan
         x="814.96002 827.82001 839.67999 853.76001 866.23999 876.85999 888.41998 899.03998"
         y="-26"
         id="tspan282">Комитет </tspan><tspan
         x="756.52002 768.76001 780.62 785.17999 796.62 807.23999 819.52002 830.96002 841.58002 853.14001 862.06 874.53998 886.12 897.67999 909.12 920.11798 931.97803 946.05798 957.49799"
         y="0"
         id="tspan284">по стратегическому </tspan><tspan
         x="782.15997 794.40002 806.47998 817.91998 830.40002 842.88 855.15997 867.02002 878.71997 890.15997 902.64001 915.12"
         y="26"
         id="tspan286">планированию</tspan><tspan
         x="1060.96 1073.8199 1085.6801 1099.76 1112.24 1122.86 1134.42"
         y="-13"
         id="tspan288">Комитет</tspan></text><text
       transform="matrix(1,0,0,-1,1156.68,842.1201)"
       style="font-variant:normal;font-weight:500;font-stretch:normal;font-size:20px;font-family:'Rubik Medium';-inkscape-font-specification:Rubik-Medium;writing-mode:lr-tb;fill:#000000;fill-opacity:1;fill-rule:nonzero;stroke:none"
       id="text296"><tspan
         x="0 12.24 24.1 28.66 40.099998 51.540001 64.120003 76.599998 87.220001"
         y="0"
         id="tspan292">по аудиту</tspan><tspan
         x="253.28 266.14001 278 292.07999 304.56 315.17999 326.73999"
         y="-39"
         id="tspan294">Комитет</tspan></text><text
       transform="matrix(1,0,0,-1,1392.5,855.1201)"
       style="font-variant:normal;font-weight:500;font-stretch:normal;font-size:20px;font-family:'Rubik Medium';-inkscape-font-specification:Rubik-Medium;writing-mode:lr-tb;fill:#000000;fill-opacity:1;fill-rule:nonzero;stroke:none"
       id="text304"><tspan
         x="0 12.24 24.1 28.66 40.119999 51.560001 64.139999 76.419998 87.860001 101.94 106.5 118.98"
         y="0"
         id="tspan298">по кадрам и </tspan><tspan
         x="-31.860001 -20.16 -8.3000002 2.4200001 14.9 26.34 35.259998 47.540001 58.98 76.160004 88.739998 100.3 112.78 125.26 136.78"
         y="26"
         id="tspan300">вознаграждениям</tspan><tspan
         x="263.45999 276.32001 288.17999 302.26001 314.73999 325.35999 336.92001"
         y="-26"
         id="tspan302">Комитет</tspan></text><text
       transform="matrix(1,0,0,-1,1626.8,855.1201)"
       style="font-variant:normal;font-weight:500;font-stretch:normal;font-size:20px;font-family:'Rubik Medium';-inkscape-font-specification:Rubik-Medium;writing-mode:lr-tb;fill:#000000;fill-opacity:1;fill-rule:nonzero;stroke:none"
       id="text312"><tspan
         x="0 12.24 24.1 28.66 41.419998 53.900002 69.18 81.459999 93.32 105.02 116.88 130.96001 142.39999"
         y="0"
         id="tspan306">по цифровому </tspan><tspan
         x="21.98 34.259998 45.700001 56.419998 68.120003 80.599998 91.220001 103.7"
         y="26"
         id="tspan308">развитию</tspan><tspan
         x="-1523.8 -1510.0601 -1498.38 -1486.3 -1474.4399 -1458.24 -1445.76"
         y="72.699997"
         id="tspan310">Волошин</tspan></text><text
       transform="matrix(1,0,0,-1,103,756.4201)"
       style="font-variant:normal;font-weight:500;font-stretch:normal;font-size:20px;font-family:'Rubik Medium';-inkscape-font-specification:Rubik-Medium;writing-mode:lr-tb;fill:#000000;fill-opacity:1;fill-rule:nonzero;stroke:none"
       id="text316"><tspan
         x="0 13.88 25.959999 37.52 48.52 59.959999 71.400002 83.879997 96.459999 108.74 113.3 127 137.62 149.06 161.14 171.75999 183.32001 195.02 207.5"
         y="0"
         id="tspan314">Александр Стальевич</tspan></text><text
       transform="matrix(1,0,0,-1,401.28,782.4201)"
       style="font-variant:normal;font-weight:300;font-stretch:normal;font-size:20px;font-family:'Rubik Light';-inkscape-font-specification:Rubik-Light;writing-mode:lr-tb;fill:#000000;fill-opacity:1;fill-rule:nonzero;stroke:none"
       id="text322"><tspan
         x="0 14 25.620001 36.540001 48.060001 58.779999 69.699997 81.220001 91.940002 101.88 112.718 123.938"
         y="0"
         id="tspan318">Председатель</tspan><tspan
         x="-24.559999 -11.54 -0.38 10.46 21.379999 31.32 42.040001 47.200001 58.720001 70.639999 82.260002 93.18 103.3 113.24 124.4 136.02 147.17999"
         y="26"
         id="tspan320">Совета директоров</tspan></text><g
       id="g324"><g
         id="g326"
         clip-path="url(#clipPath330)"><g
           id="g332"
           transform="translate(714,763.7812)"><path
             d="M 0,0 C 8.284,0 15,6.719 15,15 15,23.281 8.284,30 0,30 -8.284,30 -15,23.281 -15,15 -15,6.719 -8.284,0 0,0"
             style="fill:#faaa2d;fill-opacity:1;fill-rule:nonzero;stroke:none"
             id="path334" /></g></g></g><g
       id="g336"><g
         id="g338"
         clip-path="url(#clipPath342)"><g
           id="g344"
           transform="translate(714,787.1875)"><path
             d="M 0,0 V -16.812"
             style="fill:none;stroke:#ffffff;stroke-width:2;stroke-linecap:butt;stroke-linejoin:miter;stroke-miterlimit:4;stroke-dasharray:none;stroke-opacity:1"
             id="path346" /></g><g
           id="g348"
           transform="translate(722.4062,778.7812)"><path
             d="M 0,0 H -16.812"
             style="fill:none;stroke:#ffffff;stroke-width:2;stroke-linecap:butt;stroke-linejoin:miter;stroke-miterlimit:4;stroke-dasharray:none;stroke-opacity:1"
             id="path350" /></g></g></g><text
       transform="matrix(1,0,0,-1,889.2609,769.4202)"
       style="font-variant:normal;font-weight:300;font-stretch:normal;font-size:20px;font-family:'Rubik Light';-inkscape-font-specification:Rubik-Light;writing-mode:lr-tb;fill:#000000;fill-opacity:1;fill-rule:nonzero;stroke:none"
       id="text354"><tspan
         x="0 12.7 23.92 34.84 46.759998 51.919998 63.599998 74.760002 88.040001 99.959999 109.9 120.82 130.75999 492 504.70001 515.91998 526.84003 538.76001 543.91998 555.59998 566.76001 580.03998 591.96002 601.90002 612.82001 622.76001 738 750.70001 761.91998 772.84003 784.76001 789.91998 801.59998 812.76001 826.03998 837.96002 847.90002 858.82001 868.76001"
         y="0"
         id="tspan352">Член КомитетаЧлен КомитетаЧлен Комитета</tspan></text><text
       transform="matrix(1,0,0,-1,103.0009,709.7202)"
       style="font-variant:normal;font-weight:500;font-stretch:normal;font-size:20px;font-family:'Rubik Medium';-inkscape-font-specification:Rubik-Medium;writing-mode:lr-tb;fill:#000000;fill-opacity:1;fill-rule:nonzero;stroke:none"
       id="text358"><tspan
         x="0 12.98 24.42 33.34 45.619999 58.099998"
         y="0"
         id="tspan356">Багрин</tspan></text><text
       transform="matrix(1,0,0,-1,103.0009,683.7202)"
       style="font-variant:normal;font-weight:500;font-stretch:normal;font-size:20px;font-family:'Rubik Medium';-inkscape-font-specification:Rubik-Medium;writing-mode:lr-tb;fill:#000000;fill-opacity:1;fill-rule:nonzero;stroke:none"
       id="text362"><tspan
         x="0 13.64 25.719999 37.279999 46.200001 50.759998 64.5 76.580002 88.019997 100.6 113.08 127.16 139.64 151.92 163.78 175.48 187.96001"
         y="0"
         id="tspan360">Олег Владимирович</tspan></text><text
       transform="matrix(1,0,0,-1,408.7409,709.7202)"
       style="font-variant:normal;font-weight:300;font-stretch:normal;font-size:20px;font-family:'Rubik Light';-inkscape-font-specification:Rubik-Light;writing-mode:lr-tb;fill:#000000;fill-opacity:1;fill-rule:nonzero;stroke:none"
       id="text374"><tspan
         x="0 12.7 23.92 34.84 46.759998 51.919998 64.940002 76.099998 86.940002 97.860001 107.8 118.52"
         y="0"
         id="tspan364">Член Совета </tspan><tspan
         x="3.8399999 15.36 27.280001 38.900002 49.82 59.939999 69.879997 81.040001 92.660004 103.82"
         y="26"
         id="tspan366">директоров</tspan><tspan
         x="484.51999 498.51999 510.14001 521.06 532.58002 543.29999 554.21997 565.73999 576.46002 586.40002 597.23798 608.45801 617.97803"
         y="0"
         id="tspan368">Председатель </tspan><tspan
         x="506.45999 518.14001 529.29999 542.58002 554.5 564.44 575.35999 585.29999"
         y="26"
         id="tspan370">Комитета</tspan><tspan
         x="1218.5 1231.2 1242.42 1253.34 1265.26 1270.42 1282.1 1293.26 1306.54 1318.46 1328.4 1339.3199 1349.26"
         y="13"
         id="tspan372">Член Комитета</tspan></text><text
       transform="matrix(1,0,0,-1,102.9809,637.0202)"
       style="font-variant:normal;font-weight:500;font-stretch:normal;font-size:20px;font-family:'Rubik Medium';-inkscape-font-specification:Rubik-Medium;writing-mode:lr-tb;fill:#000000;fill-opacity:1;fill-rule:nonzero;stroke:none"
       id="text378"><tspan
         x="0 12.98 24.42 35.040001 50.400002 62.68 74.239998"
         y="0"
         id="tspan376">Батырев</tspan></text><text
       transform="matrix(1,0,0,-1,102.9809,611.0202)"
       style="font-variant:normal;font-weight:500;font-stretch:normal;font-size:20px;font-family:'Rubik Medium';-inkscape-font-specification:Rubik-Medium;writing-mode:lr-tb;fill:#000000;fill-opacity:1;fill-rule:nonzero;stroke:none"
       id="text382"><tspan
         x="0 13.88 26.360001 36.98 48.84 61.32 65.879997 81.099998 92.540001 104 115.44 127.92 140.5 152.06 164.34 176.2 187.89999 200.38"
         y="0"
         id="tspan380">Антон Искандерович</tspan></text><text
       transform="matrix(1,0,0,-1,408.7209,637.0202)"
       style="font-variant:normal;font-weight:300;font-stretch:normal;font-size:20px;font-family:'Rubik Light';-inkscape-font-specification:Rubik-Light;writing-mode:lr-tb;fill:#000000;fill-opacity:1;fill-rule:nonzero;stroke:none"
       id="text390"><tspan
         x="0 12.7 23.92 34.84 46.759998 51.919998 64.940002 76.099998 86.940002 97.860001 107.8 118.52"
         y="0"
         id="tspan384">Член Совета </tspan><tspan
         x="3.8399999 15.36 27.280001 38.900002 49.82 59.939999 69.879997 81.040001 92.660004 103.82"
         y="26"
         id="tspan386">директоров</tspan><tspan
         x="480.51999 493.22 504.44 515.35999 527.28003 532.44 544.12 555.28003 568.56 580.47998 590.41998 601.34003 611.28003 726.52002 739.21997 750.44 761.35999 773.28003 778.44 790.12 801.28003 814.56 826.47998 836.41998 847.34003 857.28003"
         y="13"
         id="tspan388">Член КомитетаЧлен Комитета</tspan></text><text
       transform="matrix(1,0,0,-1,102.9809,551.3202)"
       style="font-variant:normal;font-weight:500;font-stretch:normal;font-size:20px;font-family:'Rubik Medium';-inkscape-font-specification:Rubik-Medium;writing-mode:lr-tb;fill:#000000;fill-opacity:1;fill-rule:nonzero;stroke:none"
       id="text394"><tspan
         x="0 12.98 24.42 35.880001 48.360001"
         y="0"
         id="tspan392">Букин</tspan></text><text
       transform="matrix(1,0,0,-1,102.9809,525.3202)"
       style="font-variant:normal;font-weight:500;font-stretch:normal;font-size:20px;font-family:'Rubik Medium';-inkscape-font-specification:Rubik-Medium;writing-mode:lr-tb;fill:#000000;fill-opacity:1;fill-rule:nonzero;stroke:none"
       id="text398"><tspan
         x="0 13.64 25.719999 37.279999 46.200001 50.759998 70.68 82.959999 93.580002 105.14 116.84 129.32001"
         y="0"
         id="tspan396">Олег Юрьевич</tspan></text><text
       transform="matrix(1,0,0,-1,407.4809,564.3202)"
       style="font-variant:normal;font-weight:300;font-stretch:normal;font-size:20px;font-family:'Rubik Light';-inkscape-font-specification:Rubik-Light;writing-mode:lr-tb;fill:#000000;fill-opacity:1;fill-rule:nonzero;stroke:none"
       id="text408"><tspan
         x="0 11.98 22.700001 35.98 46.900002 57.619999 67.559998 79.480003 89.419998 100.258 111.478 120.998"
         y="0"
         id="tspan400">Заместитель </tspan><tspan
         x="-42.540001 -28.540001 -16.92 -6 5.52 16.24 27.16 38.68 49.400002 59.34 70.178001 81.398003 91.778 96.938004 109.958 121.118 131.95799 142.87801 152.81799 163.53799"
         y="26"
         id="tspan402">Председателя Совета </tspan><tspan
         x="5.0799999 16.6 28.52 40.139999 51.060001 61.18 71.120003 82.279999 93.900002 105.06"
         y="52"
         id="tspan404">директоров</tspan><tspan
         x="481.76001 494.45999 505.67999 516.59998 528.52002 533.67999 545.35999 556.52002 569.79999 581.71997 591.65997 602.58002 612.52002 973.76001 986.46002 997.67999 1008.6 1020.52 1025.6801 1037.36 1048.52 1061.8 1073.72 1083.66 1094.58 1104.52 1219.76 1232.46 1243.6801 1254.6 1266.52 1271.6801 1283.36 1294.52 1307.8 1319.72 1329.66 1340.58 1350.52"
         y="26"
         id="tspan406">Член КомитетаЧлен КомитетаЧлен Комитета</tspan></text><text
       transform="matrix(1,0,0,-1,102.9809,465.6202)"
       style="font-variant:normal;font-weight:500;font-stretch:normal;font-size:20px;font-family:'Rubik Medium';-inkscape-font-specification:Rubik-Medium;writing-mode:lr-tb;fill:#000000;fill-opacity:1;fill-rule:nonzero;stroke:none"
       id="text412"><tspan
         x="0 13.44 25.92 38.200001 54.919998 66.220001 77.660004 90.139999 102.858 114.418"
         y="0"
         id="tspan410">Кирюханцев</tspan></text><text
       transform="matrix(1,0,0,-1,102.9809,439.6202)"
       style="font-variant:normal;font-weight:500;font-stretch:normal;font-size:20px;font-family:'Rubik Medium';-inkscape-font-specification:Rubik-Medium;writing-mode:lr-tb;fill:#000000;fill-opacity:1;fill-rule:nonzero;stroke:none"
       id="text416"><tspan
         x="0 14.6 26.040001 37.740002 49.200001 61.279999 65.839996 79.720001 92.199997 103.64 114.26 125.938 138.01801 148.638 160.198 171.89799 184.37801"
         y="0"
         id="tspan414">Павел Анатольевич</tspan></text><text
       transform="matrix(1,0,0,-1,408.7209,465.6202)"
       style="font-variant:normal;font-weight:300;font-stretch:normal;font-size:20px;font-family:'Rubik Light';-inkscape-font-specification:Rubik-Light;writing-mode:lr-tb;fill:#000000;fill-opacity:1;fill-rule:nonzero;stroke:none"
       id="text422"><tspan
         x="0 12.7 23.92 34.84 46.759998 51.919998 64.940002 76.099998 86.940002 97.860001 107.8 118.52"
         y="0"
         id="tspan418">Член Совета </tspan><tspan
         x="3.8399999 15.36 27.280001 38.900002 49.82 59.939999 69.879997 81.040001 92.660004 103.82"
         y="26"
         id="tspan420">директоров</tspan></text><g
       id="g424"><g
         id="g426"
         clip-path="url(#clipPath430)"><g
           id="g432"
           transform="translate(714,446.9687)"><path
             d="M 0,0 C 8.284,0 15,6.719 15,15 15,23.281 8.284,30 0,30 -8.284,30 -15,23.281 -15,15 -15,6.719 -8.284,0 0,0"
             style="fill:#faaa2d;fill-opacity:1;fill-rule:nonzero;stroke:none"
             id="path434" /></g></g></g><g
       id="g436"><g
         id="g438"
         clip-path="url(#clipPath442)"><g
           id="g444"
           transform="translate(714,470.375)"><path
             d="M 0,0 V -16.812"
             style="fill:none;stroke:#ffffff;stroke-width:2;stroke-linecap:butt;stroke-linejoin:miter;stroke-miterlimit:4;stroke-dasharray:none;stroke-opacity:1"
             id="path446" /></g><g
           id="g448"
           transform="translate(722.4062,461.9687)"><path
             d="M 0,0 H -16.812"
             style="fill:none;stroke:#ffffff;stroke-width:2;stroke-linecap:butt;stroke-linejoin:miter;stroke-miterlimit:4;stroke-dasharray:none;stroke-opacity:1"
             id="path450" /></g></g></g><text
       transform="matrix(1,0,0,-1,1385.2709,465.6204)"
       style="font-variant:normal;font-weight:300;font-stretch:normal;font-size:20px;font-family:'Rubik Light';-inkscape-font-specification:Rubik-Light;writing-mode:lr-tb;fill:#000000;fill-opacity:1;fill-rule:nonzero;stroke:none"
       id="text456"><tspan
         x="0 14 25.620001 36.540001 48.060001 58.779999 69.699997 81.220001 91.940002 101.88 112.718 123.938 133.45799"
         y="0"
         id="tspan452">Председатель </tspan><tspan
         x="21.940001 33.619999 44.779999 58.060001 69.980003 79.919998 90.839996 100.78"
         y="26"
         id="tspan454">Комитета</tspan></text><text
       transform="matrix(1,0,0,-1,102.9909,392.9204)"
       style="font-variant:normal;font-weight:500;font-stretch:normal;font-size:20px;font-family:'Rubik Medium';-inkscape-font-specification:Rubik-Medium;writing-mode:lr-tb;fill:#000000;fill-opacity:1;fill-rule:nonzero;stroke:none"
       id="text460"><tspan
         x="0 14.7 26.139999 37.580002 48.200001 59.759998 72.040001 84 95.440002"
         y="0"
         id="tspan458">Лаутербах</tspan></text><text
       transform="matrix(1,0,0,-1,102.9909,366.9204)"
       style="font-variant:normal;font-weight:500;font-stretch:normal;font-size:20px;font-family:'Rubik Medium';-inkscape-font-specification:Rubik-Medium;writing-mode:lr-tb;fill:#000000;fill-opacity:1;fill-rule:nonzero;stroke:none"
       id="text464"><tspan
         x="0 13.88 26.360001 37.799999 49.240002 59.860001 71.300003 82.739998 95.220001 106.74 111.3 125.04 137.52 148.98 159.60001 171.46001 183.74001 195.60001 207.3 219.78"
         y="0"
         id="tspan462">Анастасия Викторовна</tspan></text><text
       transform="matrix(1,0,0,-1,408.7309,392.9204)"
       style="font-variant:normal;font-weight:300;font-stretch:normal;font-size:20px;font-family:'Rubik Light';-inkscape-font-specification:Rubik-Light;writing-mode:lr-tb;fill:#000000;fill-opacity:1;fill-rule:nonzero;stroke:none"
       id="text470"><tspan
         x="0 12.7 23.92 34.84 46.759998 51.919998 64.940002 76.099998 86.940002 97.860001 107.8 118.52"
         y="0"
         id="tspan466">Член Совета </tspan><tspan
         x="3.8399999 15.36 27.280001 38.900002 49.82 59.939999 69.879997 81.040001 92.660004 103.82"
         y="26"
         id="tspan468">директоров</tspan></text><g
       id="g472"><g
         id="g474"
         clip-path="url(#clipPath478)"><g
           id="g480"
           transform="translate(714,374.2812)"><path
             d="M 0,0 C 8.284,0 15,6.719 15,15 15,23.281 8.284,30 0,30 -8.284,30 -15,23.281 -15,15 -15,6.719 -8.284,0 0,0"
             style="fill:#faaa2d;fill-opacity:1;fill-rule:nonzero;stroke:none"
             id="path482" /></g></g></g><g
       id="g484"><g
         id="g486"
         clip-path="url(#clipPath490)"><g
           id="g492"
           transform="translate(714,397.6875)"><path
             d="M 0,0 V -16.812"
             style="fill:none;stroke:#ffffff;stroke-width:2;stroke-linecap:butt;stroke-linejoin:miter;stroke-miterlimit:4;stroke-dasharray:none;stroke-opacity:1"
             id="path494" /></g><g
           id="g496"
           transform="translate(722.4062,389.2812)"><path
             d="M 0,0 H -16.812"
             style="fill:none;stroke:#ffffff;stroke-width:2;stroke-linecap:butt;stroke-linejoin:miter;stroke-miterlimit:4;stroke-dasharray:none;stroke-opacity:1"
             id="path498" /></g></g></g><text
       transform="matrix(1,0,0,-1,889.2609,379.9204)"
       style="font-variant:normal;font-weight:300;font-stretch:normal;font-size:20px;font-family:'Rubik Light';-inkscape-font-specification:Rubik-Light;writing-mode:lr-tb;fill:#000000;fill-opacity:1;fill-rule:nonzero;stroke:none"
       id="text506"><tspan
         x="0 12.7 23.92 34.84 46.759998 51.919998 63.599998 74.760002 88.040001 99.959999 109.9 120.82 130.75999 246 258.70001 269.92001 280.84 292.76001 297.92001 309.60001 320.76001 334.04001 345.95999 355.89999 366.82001 376.76001"
         y="0"
         id="tspan500">Член КомитетаЧлен Комитета</tspan><tspan
         x="742 756 767.62 778.53998 790.06 800.78003 811.70001 823.21997 833.94 843.88 854.71802 865.93799 875.45801"
         y="-13"
         id="tspan502">Председатель </tspan><tspan
         x="763.94 775.62 786.78003 800.06 811.97998 821.91998 832.84003 842.78003"
         y="13"
         id="tspan504">Комитета</tspan></text><text
       transform="matrix(1,0,0,-1,102.9809,320.2204)"
       style="font-variant:normal;font-weight:500;font-stretch:normal;font-size:20px;font-family:'Rubik Medium';-inkscape-font-specification:Rubik-Medium;writing-mode:lr-tb;fill:#000000;fill-opacity:1;fill-rule:nonzero;stroke:none"
       id="text510"><tspan
         x="0 14.7 27.18 38.619999 51.099998"
         y="0"
         id="tspan508">Лисин</tspan></text><text
       transform="matrix(1,0,0,-1,102.9809,294.2204)"
       style="font-variant:normal;font-weight:500;font-stretch:normal;font-size:20px;font-family:'Rubik Medium';-inkscape-font-specification:Rubik-Medium;writing-mode:lr-tb;fill:#000000;fill-opacity:1;fill-rule:nonzero;stroke:none"
       id="text514"><tspan
         x="0 13.74 25.82 37.259998 49.84 62.32 76.400002 88.879997 101.16 105.72 119.42 130.98 143.25999 151.998 163.558 175.118 186.81799 199.298"
         y="0"
         id="tspan512">Владимир Сергеевич</tspan></text><text
       transform="matrix(1,0,0,-1,408.7209,320.2204)"
       style="font-variant:normal;font-weight:300;font-stretch:normal;font-size:20px;font-family:'Rubik Light';-inkscape-font-specification:Rubik-Light;writing-mode:lr-tb;fill:#000000;fill-opacity:1;fill-rule:nonzero;stroke:none"
       id="text522"><tspan
         x="0 12.7 23.92 34.84 46.759998 51.919998 64.940002 76.099998 86.940002 97.860001 107.8 118.52"
         y="0"
         id="tspan516">Член Совета </tspan><tspan
         x="3.8399999 15.36 27.280001 38.900002 49.82 59.939999 69.879997 81.040001 92.660004 103.82"
         y="26"
         id="tspan518">директоров</tspan><tspan
         x="480.51999 493.22 504.44 515.35999 527.28003 532.44 544.12 555.28003 568.56 580.47998 590.41998 601.34003 611.28003 972.52002 985.21997 996.44 1007.36 1019.28 1024.4399 1036.12 1047.28 1060.5601 1072.48 1082.42 1093.34 1103.28"
         y="13"
         id="tspan520">Член КомитетаЧлен Комитета</tspan></text><text
       transform="matrix(1,0,0,-1,102.9809,247.5204)"
       style="font-variant:normal;font-weight:500;font-stretch:normal;font-size:20px;font-family:'Rubik Medium';-inkscape-font-specification:Rubik-Medium;writing-mode:lr-tb;fill:#000000;fill-opacity:1;fill-rule:nonzero;stroke:none"
       id="text526"><tspan
         x="0 13.9 24.9 36.459999 47.900002 57.400002 71.139999 83 95.480003 106.92 118.48"
         y="0"
         id="tspan524">Окес-Войсей</tspan></text><text
       transform="matrix(1,0,0,-1,102.9809,221.5204)"
       style="font-variant:normal;font-weight:500;font-stretch:normal;font-size:20px;font-family:'Rubik Medium';-inkscape-font-specification:Rubik-Medium;writing-mode:lr-tb;fill:#000000;fill-opacity:1;fill-rule:nonzero;stroke:none"
       id="text532"><tspan
         x="0 16.24 27.68 39.959999 51.419998 55.98 70.900002 82.419998 94.120003 106.6 119.18"
         y="0"
         id="tspan528">Марк Дэвид </tspan><tspan
         x="0 13.88 25.959999 37.52 48.52 59.959999 71.400002 83.879997 96.459999 108.02"
         y="26"
         id="tspan530">Александер</tspan></text><text
       transform="matrix(1,0,0,-1,408.7209,234.5204)"
       style="font-variant:normal;font-weight:300;font-stretch:normal;font-size:20px;font-family:'Rubik Light';-inkscape-font-specification:Rubik-Light;writing-mode:lr-tb;fill:#000000;fill-opacity:1;fill-rule:nonzero;stroke:none"
       id="text538"><tspan
         x="0 12.7 23.92 34.84 46.759998 51.919998 64.940002 76.099998 86.940002 97.860001 107.8 118.52"
         y="0"
         id="tspan534">Член Совета </tspan><tspan
         x="3.8399999 15.36 27.280001 38.900002 49.82 59.939999 69.879997 81.040001 92.660004 103.82"
         y="26"
         id="tspan536">директоров</tspan></text><g
       id="g540"><g
         id="g542"
         clip-path="url(#clipPath546)"><g
           id="g548"
           transform="translate(714,215.875)"><path
             d="M 0,0 C 8.284,0 15,6.719 15,15 15,23.281 8.284,30 0,30 -8.284,30 -15,23.281 -15,15 -15,6.719 -8.284,0 0,0"
             style="fill:#faaa2d;fill-opacity:1;fill-rule:nonzero;stroke:none"
             id="path550" /></g></g></g><g
       id="g552"><g
         id="g554"
         clip-path="url(#clipPath558)"><g
           id="g560"
           transform="translate(714,239.2812)"><path
             d="M 0,0 V -16.812"
             style="fill:none;stroke:#ffffff;stroke-width:2;stroke-linecap:butt;stroke-linejoin:miter;stroke-miterlimit:4;stroke-dasharray:none;stroke-opacity:1"
             id="path562" /></g><g
           id="g564"
           transform="translate(722.4062,230.875)"><path
             d="M 0,0 H -16.812"
             style="fill:none;stroke:#ffffff;stroke-width:2;stroke-linecap:butt;stroke-linejoin:miter;stroke-miterlimit:4;stroke-dasharray:none;stroke-opacity:1"
             id="path566" /></g></g></g><text
       transform="matrix(1,0,0,-1,1139.2709,234.5205)"
       style="font-variant:normal;font-weight:300;font-stretch:normal;font-size:20px;font-family:'Rubik Light';-inkscape-font-specification:Rubik-Light;writing-mode:lr-tb;fill:#000000;fill-opacity:1;fill-rule:nonzero;stroke:none"
       id="text572"><tspan
         x="0 14 25.620001 36.540001 48.060001 58.779999 69.699997 81.220001 91.940002 101.88 112.718 123.938 133.45799"
         y="0"
         id="tspan568">Председатель </tspan><tspan
         x="21.940001 33.619999 44.779999 58.060001 69.980003 79.919998 90.839996 100.78"
         y="26"
         id="tspan570">Комитета</tspan></text><text
       transform="matrix(1,0,0,-1,102.9909,148.8205)"
       style="font-variant:normal;font-weight:500;font-stretch:normal;font-size:20px;font-family:'Rubik Medium';-inkscape-font-specification:Rubik-Medium;writing-mode:lr-tb;fill:#000000;fill-opacity:1;fill-rule:nonzero;stroke:none"
       id="text576"><tspan
         x="0 17.860001 29.42 42 53.860001 66.139999 78"
         y="0"
         id="tspan574">Федоров</tspan></text><text
       transform="matrix(1,0,0,-1,102.9909,122.8205)"
       style="font-variant:normal;font-weight:500;font-stretch:normal;font-size:20px;font-family:'Rubik Medium';-inkscape-font-specification:Rubik-Medium;writing-mode:lr-tb;fill:#000000;fill-opacity:1;fill-rule:nonzero;stroke:none"
       id="text580"><tspan
         x="0 15.22 23.959999 35.82 48.099998 58.720001 63.279999 77.879997 89.440002 100.06 112.34 124.2 135.89999 148.38"
         y="0"
         id="tspan578">Игорь Петрович</tspan></text><text
       transform="matrix(1,0,0,-1,408.7309,148.8205)"
       style="font-variant:normal;font-weight:300;font-stretch:normal;font-size:20px;font-family:'Rubik Light';-inkscape-font-specification:Rubik-Light;writing-mode:lr-tb;fill:#000000;fill-opacity:1;fill-rule:nonzero;stroke:none"
       id="text590"><tspan
         x="0 12.7 23.92 34.84 46.759998 51.919998 64.940002 76.099998 86.940002 97.860001 107.8 118.52"
         y="0"
         id="tspan582">Член Совета </tspan><tspan
         x="3.8399999 15.36 27.280001 38.900002 49.82 59.939999 69.879997 81.040001 92.660004 103.82"
         y="26"
         id="tspan584">директоров</tspan><tspan
         x="972.52002 985.21997 996.44 1007.36 1019.28 1024.4399 1036.12 1047.28 1060.5601 1072.48 1082.42 1093.34 1103.28"
         y="13"
         id="tspan586">Член Комитета</tspan><tspan
         x="-370.78 -359.14001"
         y="-874.17999"
         id="tspan588">65</tspan></text><g
       id="g592"><g
         id="g594"><g
           id="g596"
           clip-path="url(#clipPath600)"><text
             transform="matrix(1,0,0,-1,99,1023)"
             style="font-variant:normal;font-weight:300;font-stretch:normal;font-size:20px;font-family:'Rubik Light';-inkscape-font-specification:Rubik-Light;writing-mode:lr-tb;fill:#000000;fill-opacity:1;fill-rule:nonzero;stroke:none"
             id="text604"><tspan
               x="0 13.24 18.4 28.02 39.18 52.459999 63.98 74.699997 86.620003 98.540001"
               y="0"
               id="tspan602">О компании</tspan></text></g></g></g></g></svg>
