<?xml version="1.0" encoding="UTF-8" standalone="no"?>
<?xml-stylesheet type="text/css" href="main.css" ?>
<svg
   xmlns:dc="http://purl.org/dc/elements/1.1/"
   xmlns:cc="http://creativecommons.org/ns#"
   xmlns:rdf="http://www.w3.org/1999/02/22-rdf-syntax-ns#"
   xmlns:svg="http://www.w3.org/2000/svg"
   xmlns="http://www.w3.org/2000/svg"
   version="1.1"
   id="svg2"
   xml:space="preserve"
   width="2560"
   height="1440"
   viewBox="0 0 2560 1440"><metadata
     id="metadata8"><rdf:RDF><cc:Work
         rdf:about=""><dc:format>image/svg+xml</dc:format><dc:type
           rdf:resource="http://purl.org/dc/dcmitype/StillImage" /></cc:Work></rdf:RDF></metadata><defs
     id="defs6"><clipPath
       clipPathUnits="userSpaceOnUse"
       id="clipPath20"><path
         d="M 0,1080 H 1920 V 0 H 0 Z"
         id="path18" /></clipPath><clipPath
       clipPathUnits="userSpaceOnUse"
       id="clipPath292"><path
         d="M 0,0 H 1920 V 1080 H 0 Z"
         id="path290" /></clipPath></defs><g
     id="g10"
     transform="matrix(1.3333333,0,0,-1.3333333,0,1440)"><g
       id="g12"><g
         id="g14"><g
           id="g16"
           clip-path="url(#clipPath20)"><path
             d="M 0,0 H 1920 V 1080 H 0 Z"
             style="fill:#ffffff;fill-opacity:1;fill-rule:nonzero;stroke:none"
             id="path22" /></g></g></g><path
       d="M 0,893.4 H 1920 V 1080 H 0 Z"
       style="fill:#f0f0f5;fill-opacity:1;fill-rule:nonzero;stroke:none"
       id="path24" /><text
       transform="matrix(1,0,0,-1,99,953.4)"
       style="font-variant:normal;font-weight:normal;font-stretch:normal;font-size:38px;font-family:'Prosto One';-inkscape-font-specification:ProstoOne-Regular;writing-mode:lr-tb;fill:#000000;fill-opacity:1;fill-rule:nonzero;stroke:none"
       id="text28"><tspan
         x="0 32.68 64.599998 102.41 136.61 166.63 208.42999 239.59 272.84 305.51999 335.92001 349.22 383.42001 396.72 426.54999 458.09 485.07001 516.98999 548.15002 577.21997 590.52002 620.53998 654.73999 685.14001 712.12 738.90997 770.07001 783.37 816.42999 849.10999 879.13 906.10999 936.32001 963.10999 997.31 1027.33 1061.53"
         y="0"
         id="tspan26">ИНФОРМАЦИЯ О ЧЛЕНАХ СОВЕТА ДИРЕКТОРОВ</tspan></text><text
       transform="matrix(1,0,0,-1,117,807.0804)"
       style="font-variant:normal;font-weight:normal;font-stretch:normal;font-size:28px;font-family:'Prosto One';-inkscape-font-specification:ProstoOne-Regular;writing-mode:lr-tb;fill:#000000;fill-opacity:1;fill-rule:nonzero;stroke:none"
       id="text34"><tspan
         x="0 27.860001 47.740002 72.099998 97.300003 119.42 144.62 167.02"
         y="0"
         id="tspan30">ФЕДОРОВ </tspan><tspan
         x="0 24.08 42.560001 67.760002 89.879997 112 121.8 145.32001 165.2 184.94 207.06 232.25999 254.66 278.73999"
         y="33.599998"
         id="tspan32">ИГОРЬ ПЕТРОВИЧ</tspan></text><text
       transform="matrix(1,0,0,-1,99,717.4804)"
       style="font-variant:normal;font-weight:normal;font-stretch:normal;font-size:18px;font-family:Rubik;-inkscape-font-specification:Rubik-Regular;writing-mode:lr-tb;fill:#fdb73e;fill-opacity:1;fill-rule:nonzero;stroke:none"
       id="text38"><tspan
         x="0 6.8759999"
         y="0"
         id="tspan36">• </tspan></text><text
       transform="matrix(1,0,0,-1,117,717.4804)"
       style="font-variant:normal;font-weight:500;font-stretch:normal;font-size:20px;font-family:'Rubik Medium';-inkscape-font-specification:Rubik-Medium;writing-mode:lr-tb;fill:#000000;fill-opacity:1;fill-rule:nonzero;stroke:none"
       id="text42"><tspan
         x="0 13.52 25.58 37.119999 49.580002 54.16 67.559998 79.400002 93.459999 105.92 116.52 128.06 138.66 150.08 154.66 166.88 178.72 183.3 194.72 206.14 218.7 230.98 242.39999 256.45999 261.04001 273.5 278.07999 289.73999 301.57999 312.28 324.73999 336.16 345.06 357.34 368.76001 385.88 398.44 409.98001 422.44 434.89999 446.38"
         y="0"
         id="tspan40">Член Комитета по кадрам и вознаграждениям</tspan></text><text
       transform="matrix(1,0,0,-1,99,663.4803)"
       style="font-variant:normal;font-weight:normal;font-stretch:normal;font-size:18px;font-family:Rubik;-inkscape-font-specification:Rubik-Regular;writing-mode:lr-tb;fill:#fdb73e;fill-opacity:1;fill-rule:nonzero;stroke:none"
       id="text46"><tspan
         x="0 6.8759999"
         y="0"
         id="tspan44">• </tspan></text><text
       transform="matrix(1,0,0,-1,117,663.4803)"
       style="font-variant:normal;font-weight:300;font-stretch:normal;font-size:18px;font-family:'Rubik Light';-inkscape-font-specification:Rubik-Light;writing-mode:lr-tb;fill:#000000;fill-opacity:1;fill-rule:nonzero;stroke:none"
       id="text50"><tspan
         x="0 9.0900002 19.134001 29.502001 34.146 44.604 54.647999 68.129997 78.498001 88.325996 99.054001 109.782 119.124 123.462 128.106 135.27 145.34821 155.8242"
         y="0"
         id="tspan48">Год рождения: 1966</tspan></text><text
       transform="matrix(1,0,0,-1,99,629.4783)"
       style="font-variant:normal;font-weight:normal;font-stretch:normal;font-size:18px;font-family:Rubik;-inkscape-font-specification:Rubik-Regular;writing-mode:lr-tb;fill:#fdb73e;fill-opacity:1;fill-rule:nonzero;stroke:none"
       id="text54"><tspan
         x="0 6.8759999"
         y="0"
         id="tspan52">• </tspan></text><text
       transform="matrix(1,0,0,-1,117,629.4783)"
       style="font-variant:normal;font-weight:300;font-stretch:normal;font-size:18px;font-family:'Rubik Light';-inkscape-font-specification:Rubik-Light;writing-mode:lr-tb;fill:#000000;fill-opacity:1;fill-rule:nonzero;stroke:none"
       id="text60"><tspan
         x="0 11.754 16.398001 23.562 33.858002 44.153999 55.242001 59.886002 67.410004 77.454002 87.821999 97.344002 101.988 112.032 121.14 131.18401 141.912 151.39799 162.12601 172.224 176.868 190.908 200.952 210.60001 219.70799 229.752 239.508 249.15601 258.26401 268.992 279.72 284.36401 291.888 301.93201 311.57999 321.10199 331.47 341.11801 351.57599 361.224 370.17001 379.92599 389.754 400.48199 411.20999 423.07199 433.79999"
         y="0"
         id="tspan56">В 1990 году окончил Московский государственный </tspan><tspan
         x="0 9.5220003 20.25 30.978001 40.734001 50.562 61.02 70.667999 81.396004 90.342003 100.17 109.116 113.76 124.488 136.44 140.724 145.368 159.408 163.692 168.336 180.09 184.37399 189.01801 201.258 211.302 223.254 233.298 244.026 254.07001 263.71799 273.76199 283.51801 293.16599"
         y="23.993999"
         id="tspan58">университет им. М. В. Ломоносова.</tspan></text><text
       transform="matrix(1,0,0,-1,99,571.4823)"
       style="font-variant:normal;font-weight:normal;font-stretch:normal;font-size:18px;font-family:Rubik;-inkscape-font-specification:Rubik-Regular;writing-mode:lr-tb;fill:#fdb73e;fill-opacity:1;fill-rule:nonzero;stroke:none"
       id="text64"><tspan
         x="0 6.8759999"
         y="0"
         id="tspan62">• </tspan></text><text
       transform="matrix(1,0,0,-1,117,571.4823)"
       style="font-variant:normal;font-weight:300;font-stretch:normal;font-size:18px;font-family:'Rubik Light';-inkscape-font-specification:Rubik-Light;writing-mode:lr-tb;fill:#000000;fill-opacity:1;fill-rule:nonzero;stroke:none"
       id="text68"><tspan
         x="0 9.0900002 18.917999 29.646 39.473999 49.931999 59.580002 69.678001 78.246002 88.973999 100.836 111.564 116.208 126.576 137.304 147.76199 157.59 166.698 175.644 185.688 196.146 200.78999 212.49001 224.40601 229.05 239.90401 252.504 262.332 272.79001 282.54599 292.194 301.53601 306.17999 318.78 328.82401 339.28201 348.228 358.272 368.02802 377.67599 387.01801 391.66199 402.71399 412.758 424.70999 435.078 444.72601 455.45401 466.18201 475.52399 486.37799"
         y="0"
         id="tspan66">Генеральный директор АО «Первая Портовая Компания».</tspan></text><text
       transform="matrix(1,0,0,-1,99,537.4803)"
       style="font-variant:normal;font-weight:normal;font-stretch:normal;font-size:18px;font-family:Rubik;-inkscape-font-specification:Rubik-Regular;writing-mode:lr-tb;fill:#fdb73e;fill-opacity:1;fill-rule:nonzero;stroke:none"
       id="text72"><tspan
         x="0 6.8759999"
         y="0"
         id="tspan70">• </tspan></text><text
       transform="matrix(1,0,0,-1,117,537.4803)"
       style="font-variant:normal;font-weight:300;font-stretch:normal;font-size:18px;font-family:'Rubik Light';-inkscape-font-specification:Rubik-Light;writing-mode:lr-tb;fill:#000000;fill-opacity:1;fill-rule:nonzero;stroke:none"
       id="text82"><tspan
         x="0 11.43 21.528 31.356001 42.084 46.728001 58.445999 68.489998 78.246002 88.073997 97.019997 106.668 111.312 121.68 132.408 142.866 152.694 161.802 170.748 180.79201 191.25 201.29401 211.05 215.694 227.394 239.31 243.95399 254.808 268.84799 278.892 289.35001 298.99799 308.10599 318.14999 328.87799 333.522 343.89001 353.93399 364.392 373.33801 377.98199 389.70001 399.34799 410.07599 419.18399 428.13"
         y="0"
         id="tspan74">Член Совета директоров АО «Морской порт Санкт-</tspan><tspan
         x="0 12.6 22.427999 31.374001 41.202 51.66 61.866001 71.388 81.846001 89.370003 100.224 104.49 109.134 120.834 132.75 137.394 148.248 158.274 167.79601 177.444 187.812 197.46001 208.188 218.916 228.564 237.672 248.39999 259.12799 263.772 275.724 285.76801 296.22601 305.87399 314.98199 325.026 335.754 340.39801 349.34399 359.388 369.84601 377.37 387.414 397.17001 409.03201 419.76001"
         y="23.993999"
         id="tspan76">Петербург», АО «Туапсинский морской торговый </tspan><tspan
         x="0 10.368 20.412001 30.870001 39.816002 50.669998 54.936001 59.580002 71.279999 83.195999 87.839996 98.694 110.412 119.934 130.302 140.34599 149.67 159.714 170.082 180.81 190.45799 199.8 204.444 213.552 223.59599 235.548 245.916 255.564 266.29199 277.01999 286.362 291.00601 301.85999 313.61401 323.65799 333.75601 347.23801 356.88599 365.99399 376.03799 385.866"
         y="47.987999"
         id="tspan78">порт», АО «Судоходная компания «Волжское </tspan><tspan
         x="0 10.368 20.016001 30.474001 40.518002 49.841999 59.886002 70.253998 79.902 88.848 98.603996 108.648 119.502 123.768 128.412 140.112 152.028 156.672 167.526 180.12601 189.95399 200.412 210.168 219.81599 229.158 233.802 246.40199 256.44601 266.90399 275.85001 285.89401 295.64999 305.298 314.64001 319.284 330.336 340.38 352.332 362.70001 372.34799 383.07599 393.80399 403.146 414"
         y="71.982002"
         id="tspan80">пароходство», АО «Первая Портовая Компания».</tspan></text><text
       transform="matrix(1,0,0,-1,99,431.4963)"
       style="font-variant:normal;font-weight:normal;font-stretch:normal;font-size:18px;font-family:Rubik;-inkscape-font-specification:Rubik-Regular;writing-mode:lr-tb;fill:#fdb73e;fill-opacity:1;fill-rule:nonzero;stroke:none"
       id="text86"><tspan
         x="0 6.8759999"
         y="0"
         id="tspan84">• </tspan></text><text
       transform="matrix(1,0,0,-1,117,431.4963)"
       style="font-variant:normal;font-weight:300;font-stretch:normal;font-size:18px;font-family:'Rubik Light';-inkscape-font-specification:Rubik-Light;writing-mode:lr-tb;fill:#000000;fill-opacity:1;fill-rule:nonzero;stroke:none"
       id="text90"><tspan
         x="0 12.168 22.212 32.310001 42.138 52.866001 57.509998 67.031998 76.517998 86.166 95.814003 104.76 115.488 124.83 129.474 139.23 143.87399 153.396 163.04401 171.99001 181.638 191.394 202.12199 212.166 224.118 228.76199 237.87 247.51801 257.88599 268.61401 277.56 287.20801 297.306 307.134 311.77802 324.37799 333.46799 344.51999 349.164 359.892 369.72 374.36401 385.09201 397.04401 406.87201 416.70001 425.646"
         y="0"
         id="tspan88">Долей участия в уставном капитале ПГК не имеет.</tspan></text><g
       id="g92"
       transform="translate(99,102)"><path
         d="M 0,0 H 534"
         style="fill:none;stroke:#f0f0f5;stroke-width:4;stroke-linecap:butt;stroke-linejoin:miter;stroke-miterlimit:4;stroke-dasharray:none;stroke-opacity:1"
         id="path94" /></g><text
       transform="matrix(1,0,0,-1,891,807.2201)"
       style="font-variant:normal;font-weight:500;font-stretch:normal;font-size:28px;font-family:'Rubik Medium';-inkscape-font-specification:Rubik-Medium;writing-mode:lr-tb;fill:#000000;fill-opacity:1;fill-rule:nonzero;stroke:none"
       id="text98"><tspan
         x="0 18.76 35.335999 55.02 72.463997 87.304001 103.46 118.3 139.72 146.132 165.284 181.86 198.18401 214.34 229.17999"
         y="0"
         id="tspan96">Комитеты Совета</tspan></text><text
       transform="matrix(1,0,0,-1,891,773.2281)"
       style="font-variant:normal;font-weight:500;font-stretch:normal;font-size:28px;font-family:'Rubik Medium';-inkscape-font-specification:Rubik-Medium;writing-mode:lr-tb;fill:#000000;fill-opacity:1;fill-rule:nonzero;stroke:none"
       id="text102"><tspan
         x="0 17.584 35.028 52.220001 68.375999 84.363998 99.204002 115.78 132.972 149.548"
         y="0"
         id="tspan100">директоров</tspan></text><text
       transform="matrix(1,0,0,-1,891,737.2201)"
       style="font-variant:normal;font-weight:300;font-stretch:normal;font-size:20px;font-family:'Rubik Light';-inkscape-font-specification:Rubik-Light;writing-mode:lr-tb;fill:#000000;fill-opacity:1;fill-rule:nonzero;stroke:none"
       id="text106"><tspan
         x="0 12.18 23.24 36.419998 48.240002 58.080002 68.900002 78.739998 91.82 96.879997 108.3 119.82 131.64 136.7 149.62 160.67999 171.42 182.24001 192.08 202.89999 207.96001 219.38 231.2 242.72 253.53999 263.56 273.39999 284.45999 295.98001 307.04001 317.78 322.84 334.07999 347.16 358.28 370.10001 375.16 385.78 396.84"
         y="0"
         id="tspan104">Комитеты при Совете директоров были соз</tspan></text><text
       transform="matrix(1,0,0,-1,1297.58,737.2201)"
       style="font-variant:normal;font-weight:300;font-stretch:normal;font-size:20px;font-family:'Rubik Light';-inkscape-font-specification:Rubik-Light;writing-mode:lr-tb;fill:#000000;fill-opacity:1;fill-rule:nonzero;stroke:none"
       id="text110"><tspan
         x="0"
         y="0"
         id="tspan108">-</tspan></text><text
       transform="matrix(1,0,0,-1,891,711.2201)"
       style="font-variant:normal;font-weight:300;font-stretch:normal;font-size:20px;font-family:'Rubik Light';-inkscape-font-specification:Rubik-Light;writing-mode:lr-tb;fill:#000000;fill-opacity:1;fill-rule:nonzero;stroke:none"
       id="text118"><tspan
         x="0 11.42 22.040001 33.860001 46.939999 52 63.419998 74.540001 84.82 89.879997 101.3 112.82 123.64 135.06 145.8 156.42 167.94 179.75999 189.60001 200.42 211.53999 220.96001 232.78 243.84 255.66 260.72 271.20001 279.45999 290.57999 301.06 312.29999 323.42001 334.23999 346.06 357.88 368.94 380.85999"
         y="0"
         id="tspan112">даны для предварительной углубленной </tspan><tspan
         x="0 11.42 22.940001 34 45.52 56.139999 67.379997 78.440002 88.279999 98.300003 110.12 115.18 125.92 136.98 148.39999 159.92 170.98 181.60001 192.66 203.39999 208.46001 219.88 230.7 242.22 253.03999 264.45999 269.51999 281.34 291.60001 296.66 307.39999 320.48001 332.29999 343.12 353.73999 364.56 376.38 388.20001 399.01999 412.29999"
         y="26"
         id="tspan114">проработки вопросов перед их вынесением </tspan><tspan
         x="0 11.82 22.440001 27.5 39.02 49.639999 60.259998 70.879997 84.059998 95.120003 104.96 116.48 127.3 139.12 150.94 161.75999 166.82001 179.74001 190.8 201.53999 212.36 222.2 232.82001 237.88 249.3 261.12 272.64001 283.45999 293.48001 303.32001 314.38 325.89999 336.95999 347.70001 352.76001 364.57999 369.64001 381.06 392.12 402.85999"
         y="52"
         id="tspan116">на рассмотрение Совета директоров и повы</tspan></text><text
       transform="matrix(1,0,0,-1,1306.94,659.2201)"
       style="font-variant:normal;font-weight:300;font-stretch:normal;font-size:20px;font-family:'Rubik Light';-inkscape-font-specification:Rubik-Light;writing-mode:lr-tb;fill:#000000;fill-opacity:1;fill-rule:nonzero;stroke:none"
       id="text122"><tspan
         x="0"
         y="0"
         id="tspan120">-</tspan></text><text
       transform="matrix(1,0,0,-1,891,633.2201)"
       style="font-variant:normal;font-weight:300;font-stretch:normal;font-size:20px;font-family:'Rubik Light';-inkscape-font-specification:Rubik-Light;writing-mode:lr-tb;fill:#000000;fill-opacity:1;fill-rule:nonzero;stroke:none"
       id="text134"><tspan
         x="0 15.28 26.1 37.919998 49.740002 60.02 65.080002 75.699997 89.18 102.66 113.48 123.5 133.34 145.16 155.89999 167.72 178.78 189.39999 199.24001 211.06 216.12 227.53999 239.06 250.88 262.70001 274.51999 287.70001 298.32001 309.14001 322.32001 335.39999 345.66 350.72 362.23999 373.06 388.34 399.16 410.98001 422.79999 434.72"
         y="0"
         id="tspan124">шения эффективности принимаемых решений </tspan><tspan
         x="0 11.42 22.48 27.540001 38.599998 49.220001 61.040001 72.099998 82.839996 94.660004 107.74 120.92 125.98 136.72 147.53999 157.56 167.39999 178.46001 189.98 200.60001 213.78 218.84 230.36 240.98 250.72 261.45999 273.28 283.12 294.94 305.22 310.28 322.45999 333.51999 346.70001 358.12 368.73999 380.56 392.38 404.20001"
         y="26"
         id="tspan126">по основным векторам развития Компании.</tspan><tspan
         x="0 12.28 23.440001 36.720001 48.639999 58.580002 69.5 79.440002 92.620003 97.779999 109.3 120.46 131.98 143.14 153.08 163.62 174.53999 184.48 196.39999 209.58 214.74001 227.75999 238.92 249.75999 260.67999 270.62 281.20001 286.35999 297.88 309.79999 321.42001 332.34 342.45999 352.39999 363.56 375.17999 386.34 397.17999"
         y="65"
         id="tspan128">Комитеты подотчетны Совету директоров </tspan><tspan
         x="0 11.92 17.08 27.459999 38.299999 49.52 59.900002 75.160004 85.099998 95.82 106.2 111.36 122.28 130.64 141.8 146.96001 157.08 168.24001 180.16 190.88 201.46001 212.67999 222.2 232.14 242.86 252.8 264.72 275.56 287.48001 300.66 313.94 325.85999 331.01999 342.17999 353.79999 362.16 372.88 384.79999 395.51999 408.79999 420.72 425.48001"
         y="91"
         id="tspan130">и являются его консультативными органами. </tspan><tspan
         x="0 12.56 23.48 38.860001 49.779999 61.700001 73.620003 84 89.160004 101.44 112.6 125.88 137.8 147.74001 158.66 168.60001 179.75999 190.60001 195.75999 207.67999 218.84 229.56 239.94 249.88 255.03999 266.66 277.57999 287.70001 298.85999 312.14001 323.06 334.98001 346.5 357.22 367.16 378.07999 389.29999"
         y="117"
         id="tspan132">Решения Комитетов носят рекомендатель</tspan></text><text
       transform="matrix(1,0,0,-1,1289.82,516.2201)"
       style="font-variant:normal;font-weight:300;font-stretch:normal;font-size:20px;font-family:'Rubik Light';-inkscape-font-specification:Rubik-Light;writing-mode:lr-tb;fill:#000000;fill-opacity:1;fill-rule:nonzero;stroke:none"
       id="text138"><tspan
         x="0"
         y="0"
         id="tspan136">-</tspan></text><text
       transform="matrix(1,0,0,-1,891,490.2201)"
       style="font-variant:normal;font-weight:300;font-stretch:normal;font-size:20px;font-family:'Rubik Light';-inkscape-font-specification:Rubik-Light;writing-mode:lr-tb;fill:#000000;fill-opacity:1;fill-rule:nonzero;stroke:none"
       id="text144"><tspan
         x="0 11.92 25.1 37.02 42.18 52.540001 63.259998 74.879997 85.599998 95.720001 105.66 116.58 128.2 133.36 144.88 156.10001 166.48 171.64 184.66 195.82001 206.66 217.58 227.52 238.24001 243.39999 254.92 266.84 278.45999 289.38 299.5 309.44 320.60001 332.22 343.38 354.22 358.98001 364.14001 377.38 389.29999 401.22"
         y="0"
         id="tspan140">ный характер для Совета директоров. Они </tspan><tspan
         x="0 13.58 24.74 36.360001 49.639999 61.560001 73.18 83.760002 99.019997 108.96 119.68 130.06 135.22 147.14 156.98 162.14 172.67999 184.60001 195.32001 206.53999 217.25999 222.42 232.96001 244.17999 255.10001 267.01999 278.17999 289.01999 294.17999 307.20001 318.35999 329.20001 340.12 350.06 360.78 365.94 377.45999 389.38 401 411.92001"
         y="26"
         id="tspan142">формируются из числа членов Совета дирек</tspan></text><text
       transform="matrix(1,0,0,-1,1313.04,464.2201)"
       style="font-variant:normal;font-weight:300;font-stretch:normal;font-size:20px;font-family:'Rubik Light';-inkscape-font-specification:Rubik-Light;writing-mode:lr-tb;fill:#000000;fill-opacity:1;fill-rule:nonzero;stroke:none"
       id="text148"><tspan
         x="0"
         y="0"
         id="tspan146">-</tspan></text><text
       transform="matrix(1,0,0,-1,891,438.2201)"
       style="font-variant:normal;font-weight:300;font-stretch:normal;font-size:20px;font-family:'Rubik Light';-inkscape-font-specification:Rubik-Light;writing-mode:lr-tb;fill:#000000;fill-opacity:1;fill-rule:nonzero;stroke:none"
       id="text152"><tspan
         x="0 9.9399996 21.1 32.720001 43.880001 54.720001 59.459999 64.620003 75.339996 80.5 91.080002 101.62 112.54 122.48 133.64 146.92 152.08 164 174.36 179.52 191.03999 202.66 213.82001 227.39999 238.32001 249.03999 259.76001 271.67999 282.84 294.76001 305.48001 316.70001 326.22 338.14001 349.29999 357.66 368.82001 373.98001 385.14001 396.66"
         y="0"
         id="tspan150">торов, с учетом их профессионального опы</tspan></text><text
       transform="matrix(1,0,0,-1,1300.84,438.2201)"
       style="font-variant:normal;font-weight:300;font-stretch:normal;font-size:20px;font-family:'Rubik Light';-inkscape-font-specification:Rubik-Light;writing-mode:lr-tb;fill:#000000;fill-opacity:1;fill-rule:nonzero;stroke:none"
       id="text156"><tspan
         x="0"
         y="0"
         id="tspan154">-</tspan></text><text
       transform="matrix(1,0,0,-1,891,412.2201)"
       style="font-variant:normal;font-weight:300;font-stretch:normal;font-size:20px;font-family:'Rubik Light';-inkscape-font-specification:Rubik-Light;writing-mode:lr-tb;fill:#000000;fill-opacity:1;fill-rule:nonzero;stroke:none"
       id="text162"><tspan
         x="0 9.9399996 20.66 25.82 37.740002 42.900002 53.02 64.18 77.459999 88.980003 99.900002 109.84 120.76 132.67999 144.7 156.62 168.53999 173.28 178.44 190.36 201.28 212.44 223.78 234.14 245.3 256.82001 268.73999 282.01999 295.20001 305.56 310.72 322.23999 333.45999 343.84 349 360.62 371.34 382.67999 393.84 403.78 416.95999"
         y="0"
         id="tspan158">та и компетенций, необходимых для работы </tspan><tspan
         x="0 10.84 16 26.719999 37.880001 49.040001 58.98 69.82 80.739998 90.68 101.4 111.34 122.18 132.75999 148.02 163.92 174.84 188.12 193.28 205.56 216.72 230 241.92 251.86 262.78 272.72 283.64001 288.38 293.54001 304.26001 309.42001 319.35999 330.07999 340.20001 355.17999 366.10001 371.26001 382.88 393.79999 403.92001"
         y="26"
         id="tspan160">в соответствующем Комитете, а также реко</tspan></text><text
       transform="matrix(1,0,0,-1,1306.08,386.2201)"
       style="font-variant:normal;font-weight:300;font-stretch:normal;font-size:20px;font-family:'Rubik Light';-inkscape-font-specification:Rubik-Light;writing-mode:lr-tb;fill:#000000;fill-opacity:1;fill-rule:nonzero;stroke:none"
       id="text166"><tspan
         x="0"
         y="0"
         id="tspan164">-</tspan></text><text
       transform="matrix(1,0,0,-1,891,360.2201)"
       style="font-variant:normal;font-weight:300;font-stretch:normal;font-size:20px;font-family:'Rubik Light';-inkscape-font-specification:Rubik-Light;writing-mode:lr-tb;fill:#000000;fill-opacity:1;fill-rule:nonzero;stroke:none"
       id="text170"><tspan
         x="0 13.28 24.200001 36.119999 47.639999 58.360001 70.379997 82.300003 94.220001 99.379997 111.66 122.82 134.34 145.25999 155.38 166.10001 176.82001 181.98 192.10001 203.25999 214.88 226.39999 237.56 249.17999 259.89999 269.84 281.76001 292.60001 304.51999 315.67999 324.04001 335.20001 340.35999 350.94 362.45999 374.07999 384.79999 395.64001 406.85999"
         y="0"
         id="tspan168">мендаций Кодекса корпоративного управле</tspan></text><text
       transform="matrix(1,0,0,-1,1308.78,360.2201)"
       style="font-variant:normal;font-weight:300;font-stretch:normal;font-size:20px;font-family:'Rubik Light';-inkscape-font-specification:Rubik-Light;writing-mode:lr-tb;fill:#000000;fill-opacity:1;fill-rule:nonzero;stroke:none"
       id="text174"><tspan
         x="0"
         y="0"
         id="tspan172">-</tspan></text><text
       transform="matrix(1,0,0,-1,891,334.2201)"
       style="font-variant:normal;font-weight:300;font-stretch:normal;font-size:20px;font-family:'Rubik Light';-inkscape-font-specification:Rubik-Light;writing-mode:lr-tb;fill:#000000;fill-opacity:1;fill-rule:nonzero;stroke:none"
       id="text190"><tspan
         x="0 11.92 23.84 34.220001 39.380001 52.02 62.740002 74.660004 84.779999 95.5 100.66 113.22 124.38 135.10001 145.82001 157.74001 169.66"
         y="0"
         id="tspan176">ния Банка России.</tspan><tspan
         x="0 13.02 22.959999 33.68 43.619999 54.200001 64.919998 69.660004 74.82 86.839996 97.760002 108.98 120.9 125.64 130.8 140.64 151.36 162.88 173.60001 184.14 196.06 201.22 213.14 218.3 231.88 242.46001 254.38 264.5 276.51999 288.44 300.35999 305.51999 317.79999 328.95999 342.23999 354.16 364.10001 375.01999 384.95999 396.12 406.95999 411.70001"
         y="39"
         id="tspan178">Статус, цели, задачи и функции Комитетов, </tspan><tspan
         x="0 10.72 15.88 25.82 36.540001 46.66 61.639999 72.559998 77.720001 89.639999 100 105.16 115.88 127.04 137.75999 147.7 158.42 169.25999 174 179.16 190.67999 201.84 213.46001 223.84 235.36 246.52 256.64001 261.79999 275.38 286.54001 298.16 311.44 323.35999 334.98001 346.14001 356.98001 367.70001 379.62 391.54001 401.92001"
         y="65"
         id="tspan180">а также их состав, порядок формирования </tspan><tspan
         x="0 11.92 17.08 28.700001 39.419998 50.759998 61.919998 71.860001 85.040001 90.199997 101.36 112.88 124.5 135.42 146.94 157.86 169.08 179.46001 194.72 204.66 215.38 225.75999 230.92 244.92 256.07999 267.29999 278.45999 293.44 304.35999 316.28 328.20001 338.57999 351.85999 363.78"
         y="91"
         id="tspan182">и работы определяются Положениями </tspan><tspan
         x="0 11.16 16.32 28.6 39.759998 53.040001 64.959999 74.900002 85.82 95.760002 106.48 116.84 121.58 126.74 137.32001 147.25999 158.10001 169.02 180.64 195.62 207.14 218.06 229.98 241.89999 255.08 268.35999 280.28 285.44 298.45999 309.62 320.45999 331.38 341.32001 352.48001 365.76001"
         y="117"
         id="tspan184">о Комитетах, утвержденными Советом </tspan><tspan
         x="0 11.52 23.440001 35.060001 45.98 56.099998 66.040001 77.199997 88.82 99.980003 110.82 115.98 128.25999 139.42 152.7 164.22 174.94 186.86 198.78 210.7"
         y="143"
         id="tspan186">директоров Компании.</tspan><tspan
         x="0 13.06 18.219999 29.42 41.740002 52.939999 65.260002 70.419998 78.779999 89.940002 101.46 112.04 116.78 121.94 132.66 143.88 154.8 166.32001 176.89999 187.28 192.44 205.72 217.64 229.25999 240.42 251.25999 262.42001 275.70001 286.28 291.44 301.38 313 323.92001 335.84 347.35999 357.94 363.10001 374.62 385.78 390.94 401.78 413.70001"
         y="182"
         id="tspan188">В 2020 году, следуя мировому тренду по вне</tspan></text><text
       transform="matrix(1,0,0,-1,1315.62,152.2201)"
       style="font-variant:normal;font-weight:300;font-stretch:normal;font-size:20px;font-family:'Rubik Light';-inkscape-font-specification:Rubik-Light;writing-mode:lr-tb;fill:#000000;fill-opacity:1;fill-rule:nonzero;stroke:none"
       id="text194"><tspan
         x="0"
         y="0"
         id="tspan192">-</tspan></text><text
       transform="matrix(1,0,0,-1,891,126.2201)"
       style="font-variant:normal;font-weight:300;font-stretch:normal;font-size:20px;font-family:'Rubik Light';-inkscape-font-specification:Rubik-Light;writing-mode:lr-tb;fill:#000000;fill-opacity:1;fill-rule:nonzero;stroke:none"
       id="text198"><tspan
         x="0 11.52 23.139999 34.060001 45.98 57.900002 73.160004 78.32 89.160004 102.34 113.06 124.22 134.34 146.25999 156.62 161.78 171.72 182.64 193 204.92 216.08 227.3 238.46001 246.82001 258.73999 270.66 275.82001 286.66 291.82001 303.34 314.95999 326.12 338.04001 347.88 358.72 369.88"
         y="0"
         id="tspan196">дрению высоких технологий в производ</tspan></text><text
       transform="matrix(1,0,0,-1,1272.4,126.2201)"
       style="font-variant:normal;font-weight:300;font-stretch:normal;font-size:20px;font-family:'Rubik Light';-inkscape-font-specification:Rubik-Light;writing-mode:lr-tb;fill:#000000;fill-opacity:1;fill-rule:nonzero;stroke:none"
       id="text202"><tspan
         x="0"
         y="0"
         id="tspan200">-</tspan></text><text
       transform="matrix(1,0,0,-1,891,100.2201)"
       style="font-variant:normal;font-weight:300;font-stretch:normal;font-size:20px;font-family:'Rubik Light';-inkscape-font-specification:Rubik-Light;writing-mode:lr-tb;fill:#000000;fill-opacity:1;fill-rule:nonzero;stroke:none"
       id="text206"><tspan
         x="0 10.72 20.66 31.5 42.419998 54.34 66.260002 79.440002 90.360001 95.519997 107.44 112.6 122.72 133.88 145.5 157.02 168.17999 179.8 190.52 200.46001 212.38 223.22 235.14 248.32001 259.23999 264.39999 275.73999 287.66 297.5 309.42001 320.34 331.06 340.79999 352.32001 363.94 375.10001 387.12 398.04001"
         y="0"
         id="tspan204">ственные и корпоративные бизнес-процес</tspan></text><text
       transform="matrix(1,0,0,-1,1299.76,100.2201)"
       style="font-variant:normal;font-weight:300;font-stretch:normal;font-size:20px;font-family:'Rubik Light';-inkscape-font-specification:Rubik-Light;writing-mode:lr-tb;fill:#000000;fill-opacity:1;fill-rule:nonzero;stroke:none"
       id="text210"><tspan
         x="0"
         y="0"
         id="tspan208">-</tspan></text><text
       transform="matrix(1,0,0,-1,1386,737.2201)"
       style="font-variant:normal;font-weight:300;font-stretch:normal;font-size:20px;font-family:'Rubik Light';-inkscape-font-specification:Rubik-Light;writing-mode:lr-tb;fill:#000000;fill-opacity:1;fill-rule:nonzero;stroke:none"
       id="text222"><tspan
         x="0 10.72 23.9 28.639999 33.799999 44.52 49.68 59.619999 70.339996 80.459999 95.440002 106.36 111.52 122.1 132.64 144.56 154.5 167.67999 178.52 189.24001 199.62 204.78 215.36 226.08 236.2 247.36 258.98001 269.89999 281.82001 293.73999 304.66 309.39999 314.56 324.67999 335.84 345.78 356.94 368.56 379.72 390.64001"
         y="0"
         id="tspan212">сы, а также учитывая ускорение, которое </tspan><tspan
         x="0 11.52 23.139999 35.060001 46.580002 57.299999 68.519997 79.239998 84.400002 95.239998 105.96 116.88 128.03999 139.38 155.28 166.2 178.12 183.28 195.3 207.22 220.8 232.42 243.58 254.42 266.34 276.17999 286.89999 298.92001 310.84 322.76001 327.92001 339.44 350.16 362.07999 373.60001 384.51999 397.79999 409.72 420.10001"
         y="26"
         id="tspan214">придала всеобщей цифровизации пандемия </tspan><tspan
         x="0 10.12 21.280001 32.900002 44.060001 55.98 66.699997 77.540001 89.459999 101.08 111.66 122.38 133.10001 138.25999 144.64 157.66 170.89999 183.66 188.67999 202.22 211.138 219.09801 229.87801 236.258 240.998 246.158 256.99799 262.15799 276.15799 286.258 298.53799 303.698 315.21799 326.83801 338.758 343.918 356.93799 368.09799 378.93799 389.858 399.798 410.71799"
         y="52"
         id="tspan216">коронавируса (COVID-19), в ПГК при Совете </tspan><tspan
         x="0 11.52 23.440001 35.060001 45.98 56.099998 66.040001 77.199997 88.82 99.980003 110.82 115.56 120.72 132.24001 143.39999 156.67999 168.60001 181.88 193.03999 198.2 209.72 220.64 232.56 243.28 253.22 264.06 274.64001 289.89999 305.79999 317.72 328.07999 333.23999 345.51999 356.67999 369.95999 381.88 391.82001 402.73999 412.67999 423.84 434.67999"
         y="78"
         id="tspan218">директоров, помимо действующих Комитетов </tspan><tspan
         x="0 11.52 22.68 27.84 38.560001 49.139999 60.66 72.580002 82.519997 93.099998 97.839996 103 113.12 123.84 135.36 146.98 157.7 170.98 176.14 188.06 193.22 204.06 215.22 225.06 236.98 247.7 256.06 267.67999 278.39999 293.38 304.89999 315.82001 327.73999 339.66 350.04001 363.32001 368.06 373.22 383.94 389.10001 399.04001 409.76001"
         y="104"
         id="tspan220">по аудиту, кадрам и вознаграждениям, а так</tspan></text><text
       transform="matrix(1,0,0,-1,1805.88,633.2201)"
       style="font-variant:normal;font-weight:300;font-stretch:normal;font-size:20px;font-family:'Rubik Light';-inkscape-font-specification:Rubik-Light;writing-mode:lr-tb;fill:#000000;fill-opacity:1;fill-rule:nonzero;stroke:none"
       id="text226"><tspan
         x="0"
         y="0"
         id="tspan224">-</tspan></text><text
       transform="matrix(1,0,0,-1,1386,607.2201)"
       style="font-variant:normal;font-weight:300;font-stretch:normal;font-size:20px;font-family:'Rubik Light';-inkscape-font-specification:Rubik-Light;writing-mode:lr-tb;fill:#000000;fill-opacity:1;fill-rule:nonzero;stroke:none"
       id="text234"><tspan
         x="0 14.98 25.9 31.059999 41.779999 51.720001 63.34 74.059998 84 94.919998 103.28 115.2 125.74 136.66 147.38 157.5 168.66 181.94 192.52 197.67999 209.2 220.42 231.14 243.06 254.98 266.60001 277.76001 288.60001 299.32001 311.23999 323.16 338.42001 343.16 348.32001 359.04001 370.20001 380.04001 391.56 402.28 414.20001"
         y="0"
         id="tspan228">же стратегическому планированию, создан </tspan><tspan
         x="0 11.92 23.08 33.919998 47.099998 59.02 64.18 79.519997 84.68 96.959999 108.12 121.4 133.32001 143.25999 154.17999 164.12 169.28 180.8 191.96001 197.12 209.14 221.06 234.64 246.25999 257.42001 268.26001 279.42001 292.70001 303.28 308.44 320.06 330.78 340.62 351.45999 363.38 373.32001 385.23999 400.5"
         y="26"
         id="tspan230">новый — Комитет по цифровому развитию.</tspan><tspan
         x="0 13.52 24.74 35.119999 40.279999 51.439999 62.779999 73.699997 84.419998 95.940002 106.86 117.4 128.32001 140.24001 152.16 162.53999 167.7 178.42 189.75999 200.48 211.7 222.42 234.34 245.06 256.98001 268.60001 279.76001 290.60001 301.32001 313.23999 325.16 336.32001 344.67999 355.84 361 372.51999 383.67999"
         y="65"
         id="tspan232">Для обеспечения сбалансированного под</tspan></text><text
       transform="matrix(1,0,0,-1,1781.2,542.2201)"
       style="font-variant:normal;font-weight:300;font-stretch:normal;font-size:20px;font-family:'Rubik Light';-inkscape-font-specification:Rubik-Light;writing-mode:lr-tb;fill:#000000;fill-opacity:1;fill-rule:nonzero;stroke:none"
       id="text238"><tspan
         x="0"
         y="0"
         id="tspan236">-</tspan></text><text
       transform="matrix(1,0,0,-1,1386,516.2201)"
       style="font-variant:normal;font-weight:300;font-stretch:normal;font-size:20px;font-family:'Rubik Light';-inkscape-font-specification:Rubik-Light;writing-mode:lr-tb;fill:#000000;fill-opacity:1;fill-rule:nonzero;stroke:none"
       id="text244"><tspan
         x="0 10.36 21.52 33.040001 43.759998 48.919998 60.439999 72.059998 83.980003 89.139999 100.76 111.68 127.06 137.98 149.89999 161.82001 173.74001 178.89999 188.74001 199.46001 210.98 221.7 232.24001 237.39999 248.24001 253.39999 264.12 275.28 286 295.94 306.66 317.5 322.66 332.78 343.5 358.48001 370 381.16 389.51999 400.67999"
         y="0"
         id="tspan240">хода при решении задач в состав каждого </tspan><tspan
         x="0 12.28 23.440001 36.720001 48.639999 58.580002 69.5 79.440002 90.160004 95.32 106.16 116.52 127.68 139.2 151.12 161.06 166.22 176.34 187.06 197.17999 202.34 215.62 227.53999 239.46001 251.38 264.66 275.23999 288.51999 293.67999 304.84 316.35999 328.28 340.20001 345.35999 357.28 368.20001 378.04001 388.76001 399.60001"
         y="26"
         id="tspan242">Комитета входит как минимум один незави</tspan></text><text
       transform="matrix(1,0,0,-1,1797.52,490.2201)"
       style="font-variant:normal;font-weight:300;font-stretch:normal;font-size:20px;font-family:'Rubik Light';-inkscape-font-specification:Rubik-Light;writing-mode:lr-tb;fill:#000000;fill-opacity:1;fill-rule:nonzero;stroke:none"
       id="text248"><tspan
         x="0"
         y="0"
         id="tspan246">-</tspan></text><text
       transform="matrix(1,0,0,-1,1386,464.2201)"
       style="font-variant:normal;font-weight:300;font-stretch:normal;font-size:20px;font-family:'Rubik Light';-inkscape-font-specification:Rubik-Light;writing-mode:lr-tb;fill:#000000;fill-opacity:1;fill-rule:nonzero;stroke:none"
       id="text252"><tspan
         x="0 10.72 22.639999 35.919998 49.099998 61.02 66.18 77.699997 89.620003 101.24 112.16 122.28 132.22 143.38 155 159.75999 164.92 178.92 190.53999 202.46001 213.98 224.89999 236.52 251.5 263.42001 274.26001 284.98001 295.35999 306.07999 315.60001 320.76001 332.38 343.29999 353.42001 364.57999 377.85999 388.78"
         y="0"
         id="tspan250">симый директор. Придерживаясь рекомен</tspan></text><text
       transform="matrix(1,0,0,-1,1786.7,464.2201)"
       style="font-variant:normal;font-weight:300;font-stretch:normal;font-size:20px;font-family:'Rubik Light';-inkscape-font-specification:Rubik-Light;writing-mode:lr-tb;fill:#000000;fill-opacity:1;fill-rule:nonzero;stroke:none"
       id="text256"><tspan
         x="0"
         y="0"
         id="tspan254">-</tspan></text><text
       transform="matrix(1,0,0,-1,1386,438.2201)"
       style="font-variant:normal;font-weight:300;font-stretch:normal;font-size:20px;font-family:'Rubik Light';-inkscape-font-specification:Rubik-Light;writing-mode:lr-tb;fill:#000000;fill-opacity:1;fill-rule:nonzero;stroke:none"
       id="text264"><tspan
         x="0 11.52 22.24 34.259998 46.18 58.099998 63.259998 75.540001 86.699997 98.220001 109.14 119.26 129.98 140.7 145.86 155.98 167.14 178.75999 190.28 201.44 213.06 223.78 233.72 245.64 256.48001 268.39999 279.56 287.92001 299.07999 304.23999 314.82001 326.34 337.95999 348.67999 359.51999 370.73999 381.66 393.57999 405.5 415.88"
         y="0"
         id="tspan258">даций Кодекса корпоративного управления </tspan><tspan
         x="0 12.64 23.360001 35.279999 45.400002 56.119999 61.279999 73.839996 85 95.720001 106.44 118.36 130.28 135.02 140.17999 152.46001 163.62 176.89999 188.82001 198.75999 209.67999 219.62 232.8 237.96001 249.48 260.64001 265.79999 276.51999 287.10001 298.62 310.54001 320.48001 331.06 335.79999 340.95999 351.07999 361.79999 373.32001 384.94 395.66 408.94"
         y="26"
         id="tspan260">Банка России, Комитеты по аудиту, кадрам </tspan><tspan
         x="0 11.92 17.08 27.92 39.080002 48.919998 60.84 71.559998 79.919998 91.540001 102.26 117.24 128.75999 139.67999 151.60001 163.52 173.89999 187.17999 192.34 203.17999 214.34 224.17999 232.53999 243.75999 254.48 265.32001 276.54001 286.92001 302.17999 312.12 317.28 329.20001 340.12 349.95999 360.67999 371.51999 383.44 394.16"
         y="52"
         id="tspan262">и вознаграждениям возглавляют независи</tspan></text><text
       transform="matrix(1,0,0,-1,1792.08,386.2201)"
       style="font-variant:normal;font-weight:300;font-stretch:normal;font-size:20px;font-family:'Rubik Light';-inkscape-font-specification:Rubik-Light;writing-mode:lr-tb;fill:#000000;fill-opacity:1;fill-rule:nonzero;stroke:none"
       id="text268"><tspan
         x="0"
         y="0"
         id="tspan266">-</tspan></text><text
       transform="matrix(1,0,0,-1,1386,360.2201)"
       style="font-variant:normal;font-weight:300;font-stretch:normal;font-size:20px;font-family:'Rubik Light';-inkscape-font-specification:Rubik-Light;writing-mode:lr-tb;fill:#000000;fill-opacity:1;fill-rule:nonzero;stroke:none"
       id="text272"><tspan
         x="0 13.28 26.459999 37.380001 42.540001 54.060001 65.980003 77.599998 88.519997 98.639999 108.58 119.74 131.36 142.08"
         y="0"
         id="tspan270">мые директора.</tspan></text><text
       transform="matrix(1,0,0,-1,1441.5,202)"
       style="font-variant:normal;font-weight:500;font-stretch:normal;font-size:28px;font-family:'Rubik Medium';-inkscape-font-specification:Rubik-Medium;writing-mode:lr-tb;fill:#000000;fill-opacity:1;fill-rule:nonzero;stroke:none"
       id="text280"><tspan
         x="0 19.208 25.620001 42.952 61.348 78.68 97.075996 103.488 118.692 138.15199 159.01199 176.34399 182.756 201.908 221.368 239.45599 260.31601 279.72 300.13199"
         y="0"
         id="tspan274">В 2020 ГОДУ СОЗДАН </tspan><tspan
         x="0 20.412001 39.872002 59.080002 83.832001 105.112 111.524 130.284 149.744 172.452 193.73199 210.672 228.088 245.028"
         y="33.992001"
         id="tspan276">НОВЫЙ КОМИТЕТ </tspan><tspan
         x="0 20.412001 39.872002 46.284 67.480003 88.760002 113.736 132.188 151.64799 170.856 190.31599 213.024"
         y="67.984001"
         id="tspan278">ПО ЦИФРОВОМУ</tspan></text><text
       transform="matrix(1,0,0,-1,1441.5,100.024)"
       style="font-variant:normal;font-weight:500;font-stretch:normal;font-size:28px;font-family:'Rubik Medium';-inkscape-font-specification:Rubik-Medium;writing-mode:lr-tb;fill:#000000;fill-opacity:1;fill-rule:nonzero;stroke:none"
       id="text284"><tspan
         x="0 18.452 37.855999 55.944 75.152 96.431999 113.372 134.65199"
         y="0"
         id="tspan282">РАЗВИТИЮ</tspan></text><g
       id="g286"><g
         id="g288"
         clip-path="url(#clipPath292)"><g
           id="g294"
           transform="translate(1399.4,218.75)"><path
             d="m 0,0 c -1.4,1.9 -3.367,2.85 -5.9,2.85 -2.267,0 -4.084,-0.75 -5.45,-2.25 -1.367,-1.5 -2.05,-3.25 -2.05,-5.25 0,-2 0.666,-3.75 2,-5.25 1.333,-1.5 3,-2.25 5,-2.25 0.666,0 1.266,0.067 1.8,0.2 0.266,0.067 0.5,0.167 0.7,0.3 -0.267,-2 -1.15,-3.583 -2.65,-4.75 -1.5,-1.166 -3.117,-1.75 -4.85,-1.75 v -3.5 c 1.6,0 3.216,0.284 4.85,0.85 1.633,0.567 3.083,1.467 4.35,2.7 1.266,1.234 2.3,2.8 3.1,4.7 0.8,1.9 1.2,4.15 1.2,6.75 C 2.1,-4.117 1.4,-1.9 0,0 M 20,0 C 18.6,1.9 16.633,2.85 14.1,2.85 11.833,2.85 10.016,2.1 8.65,0.6 7.283,-0.9 6.6,-2.65 6.6,-4.65 c 0,-2 0.666,-3.75 2,-5.25 1.333,-1.5 3,-2.25 5,-2.25 0.666,0 1.266,0.067 1.8,0.2 0.266,0.067 0.5,0.167 0.7,0.3 -0.267,-2 -1.15,-3.583 -2.65,-4.75 -1.5,-1.166 -3.117,-1.75 -4.85,-1.75 v -3.5 c 1.6,0 3.216,0.284 4.85,0.85 1.633,0.567 3.083,1.467 4.35,2.7 1.266,1.234 2.3,2.8 3.1,4.7 0.8,1.9 1.2,4.15 1.2,6.75 0,2.533 -0.7,4.75 -2.1,6.65"
             style="fill:#fdb73e;fill-opacity:1;fill-rule:nonzero;stroke:none"
             id="path296" /></g></g></g><text
       transform="matrix(1,0,0,-1,1545.5034,961.5)"
       style="font-variant:normal;font-weight:500;font-stretch:normal;font-size:20px;font-family:'Rubik Medium';-inkscape-font-specification:Rubik-Medium;writing-mode:lr-tb;fill:#000000;fill-opacity:1;fill-rule:nonzero;stroke:none"
       id="text300"><tspan
         x="0 12.22 24.059999 28.639999 40.060001 51.900002 63.32 73.919998 85.760002 97.239998 109.7 122.16 138.84 143.42 155.88 167.3 171.88 184.158 193.418 197.45799 206.718 219.09801 224.45799 236.838 249.978 262.358"
         y="0"
         id="tspan298">по состоянию на 31.12.2020</tspan></text><text
       transform="matrix(1,0,0,-1,37.8634,1023)"
       style="font-variant:normal;font-weight:300;font-stretch:normal;font-size:20px;font-family:'Rubik Light';-inkscape-font-specification:Rubik-Light;writing-mode:lr-tb;fill:#000000;fill-opacity:1;fill-rule:nonzero;stroke:none"
       id="text304"><tspan
         x="0 11.64 61.139999 73.419998 84.580002 96.199997 107.72 118.88 130.5 141.22 151.16 163.08 173.92 185.84 197 207.92 213.08 223.66 235.17999 246.8 257.51999 268.35999 279.57999 290.5 302.42001 314.34"
         y="0"
         id="tspan302">66Корпоративное управление</tspan></text></g></svg>
