<?xml version="1.0" encoding="UTF-8" standalone="no"?>
<?xml-stylesheet type="text/css" href="main.css" ?>
<svg
   xmlns:dc="http://purl.org/dc/elements/1.1/"
   xmlns:cc="http://creativecommons.org/ns#"
   xmlns:rdf="http://www.w3.org/1999/02/22-rdf-syntax-ns#"
   xmlns:svg="http://www.w3.org/2000/svg"
   xmlns="http://www.w3.org/2000/svg"
   version="1.1"
   id="svg2"
   xml:space="preserve"
   width="2560"
   height="1440"
   viewBox="0 0 2560 1440"><metadata
     id="metadata8"><rdf:RDF><cc:Work
         rdf:about=""><dc:format>image/svg+xml</dc:format><dc:type
           rdf:resource="http://purl.org/dc/dcmitype/StillImage" /></cc:Work></rdf:RDF></metadata><defs
     id="defs6"><clipPath
       clipPathUnits="userSpaceOnUse"
       id="clipPath20"><path
         d="M 0,1080 H 1920 V 0 H 0 Z"
         id="path18" /></clipPath><clipPath
       clipPathUnits="userSpaceOnUse"
       id="clipPath384"><path
         d="M 0,1080 H 1920 V 0 H 0 Z"
         id="path382" /></clipPath></defs><g
     id="g10"
     transform="matrix(1.3333333,0,0,-1.3333333,0,1440)"><g
       id="g12"><g
         id="g14"><g
           id="g16"
           clip-path="url(#clipPath20)"><path
             d="M 0,0 H 1920 V 1080 H 0 Z"
             style="fill:#ffffff;fill-opacity:1;fill-rule:nonzero;stroke:none"
             id="path22" /></g></g></g><text
       transform="matrix(1,0,0,-1,99,953.8201)"
       style="font-variant:normal;font-weight:500;font-stretch:normal;font-size:28px;font-family:'Rubik Medium';-inkscape-font-specification:Rubik-Medium;writing-mode:lr-tb;fill:#000000;fill-opacity:1;fill-rule:nonzero;stroke:none"
       id="text26"><tspan
         x="0 18.004 34.608002 54.32 71.792 86.660004 102.844 117.712 124.096 141.23199 157.836 164.22 180.23599 196.252 213.864 231.336 246.20399"
         y="0"
         id="tspan24">Комитет по аудиту</tspan></text><text
       transform="matrix(1,0,0,-1,99,901.8201)"
       style="font-variant:normal;font-weight:300;font-stretch:normal;font-size:20px;font-family:'Rubik Light';-inkscape-font-specification:Rubik-Light;writing-mode:lr-tb;fill:#000000;fill-opacity:1;fill-rule:nonzero;stroke:none"
       id="text30"><tspan
         x="0 11.68 22.84 36.119999 48.040001 57.98 68.900002 78.839996 84 95.519997 106.68 111.84 122.56 133.14 144.66 156.58 166.52 177.10001 182.25999 193.42 203.53999 214.25999 224.10001 237.28 248.12 258.84 269.76001 279.70001 284.85999 295.57999 306.73999 318.26001 329.17999 341.10001 351.82001 361.76001 372.60001 384.51999 395.44 400.60001 413.62 424.78 435.62 446.54001 456.48001 467.06 472.22 483.73999"
         y="0"
         id="tspan28">Комитет по аудиту оказывает содействие Совету ди</tspan></text><text
       transform="matrix(1,0,0,-1,594.66,901.8201)"
       style="font-variant:normal;font-weight:300;font-stretch:normal;font-size:20px;font-family:'Rubik Light';-inkscape-font-specification:Rubik-Light;writing-mode:lr-tb;fill:#000000;fill-opacity:1;fill-rule:nonzero;stroke:none"
       id="text34"><tspan
         x="0"
         y="0"
         id="tspan32">-</tspan></text><text
       transform="matrix(1,0,0,-1,99,875.8201)"
       style="font-variant:normal;font-weight:300;font-stretch:normal;font-size:20px;font-family:'Rubik Light';-inkscape-font-specification:Rubik-Light;writing-mode:lr-tb;fill:#000000;fill-opacity:1;fill-rule:nonzero;stroke:none"
       id="text40"><tspan
         x="0 11.62 22.540001 32.66 42.599998 53.759998 65.379997 76.540001 87.379997 92.540001 103.38 108.54 119.26 131.17999 141.89999 153.12 165.03999 174.88 185.8 190.96001 202.88 208.03999 219.2 231.22 242.14 254.06 263.67599 274.59601 279.75601 293.336 305.25601 317.17599 327.896 339.81601 350.53601 361.69601 372.53601 383.69601 395.616 400.776 411.936 421.87601 432.41599 443.336 453.276 465.19601 476.35599 487.07599 497.01599 508.936 513.67603"
         y="0"
         id="tspan36">ректоров в анализе и оценке финансовой отчетности, </tspan><tspan
         x="0 11.16 21.879999 32.459999 48.360001 59.279999 70 79.940002 90.779999 102 112.92 124.84 136.75999 148.67999 153.84 163.45799 174.618 186.53799 196.478 208.09801 219.058 230.278 240.658 245.81799 255.658 266.37799 271.53799 283.05801 294.21799 304.93799 314.87799 326.03799 336.87799 347.798 359.418 371.33801 382.49799 393.21799 403.15799 412.67801 427.93799 433.09799 444.43799 455.01801 465.37799 473.73801 484.45801"
         y="26"
         id="tspan38">осуществлении контроля за достоверностью бухгал</tspan></text><text
       transform="matrix(1,0,0,-1,594.678,849.8201)"
       style="font-variant:normal;font-weight:300;font-stretch:normal;font-size:20px;font-family:'Rubik Light';-inkscape-font-specification:Rubik-Light;writing-mode:lr-tb;fill:#000000;fill-opacity:1;fill-rule:nonzero;stroke:none"
       id="text44"><tspan
         x="0"
         y="0"
         id="tspan42">-</tspan></text><text
       transform="matrix(1,0,0,-1,99,823.8201)"
       style="font-variant:normal;font-weight:300;font-stretch:normal;font-size:20px;font-family:'Rubik Light';-inkscape-font-specification:Rubik-Light;writing-mode:lr-tb;fill:#000000;fill-opacity:1;fill-rule:nonzero;stroke:none"
       id="text48"><tspan
         x="0 9.9399996 20.860001 32.48 43.200001 52.82 63.98 75.900002 81.059998 87.440002 101.02 112.94 124.86 135.58 147.5 158.22 169.38 180.22 191.38 202.498 208.87801 214.03799 225.198 235.138 245.67799 256.59799 266.53799 278.45801 289.61801 300.33801 310.27802 322.198 326.93799 332.09799 342.81799 353.978 364.698 374.638 385.358 396.198 407.418 418.33801 430.258 442.17801 453.33801 465.258 470.418 481.258 486.418 497.138"
         y="0"
         id="tspan46">терской (финансовой) отчетности, составленной в со</tspan></text><text
       transform="matrix(1,0,0,-1,607.298,823.8201)"
       style="font-variant:normal;font-weight:300;font-stretch:normal;font-size:20px;font-family:'Rubik Light';-inkscape-font-specification:Rubik-Light;writing-mode:lr-tb;fill:#000000;fill-opacity:1;fill-rule:nonzero;stroke:none"
       id="text52"><tspan
         x="0"
         y="0"
         id="tspan50">-</tspan></text><text
       transform="matrix(1,0,0,-1,99,797.8201)"
       style="font-variant:normal;font-weight:300;font-stretch:normal;font-size:20px;font-family:'Rubik Light';-inkscape-font-specification:Rubik-Light;writing-mode:lr-tb;fill:#000000;fill-opacity:1;fill-rule:nonzero;stroke:none"
       id="text58"><tspan
         x="0 11.16 21.1 31.940001 42.860001 52.799999 63.52 73.459999 84.300003 96.220001 108.14 113.3 124.02 129.17999 144.78 157.8 174.3 187.53999 192.7 204.62 209.78 222.34 235.36 248 257.57599 262.31601 267.47601 278.63599 289.97601 300.896 311.616 323.13599 334.056 344.59601 355.51599 367.436 379.35599 391.276 396.436 407.95599 419.57599 430.73599 441.57599 452.496 464.01599 474.936 486.85599 498.776 509.15601"
         y="0"
         id="tspan54">ответствии с МСФО и РСБУ, обеспечении проведения </tspan><tspan
         x="0 11.92 22.84 32.68 43.400002 54.240002 66.160004 76.879997 88.800003 102.08 113.24 121.358 132.51801 137.67799 148.39799 158.978 170.498 182.418 192.358 203.078 208.23801 221.81799 233.73801 245.658 256.37799 268.298 279.01801 290.17801 301.01801 312.17801 324.09799 329.258 340.418 350.358 360.89801 371.81799 381.758 393.67801 404.83801 415.55801 425.49799 437.418 442.15799 447.31799 456.936 468.09601 480.01599 489.95599 501.57599"
         y="26"
         id="tspan56">независимого аудита финансовой отчетности, контро</tspan></text><text
       transform="matrix(1,0,0,-1,611.736,771.8201)"
       style="font-variant:normal;font-weight:300;font-stretch:normal;font-size:20px;font-family:'Rubik Light';-inkscape-font-specification:Rubik-Light;writing-mode:lr-tb;fill:#000000;fill-opacity:1;fill-rule:nonzero;stroke:none"
       id="text62"><tspan
         x="0"
         y="0"
         id="tspan60">-</tspan></text><text
       transform="matrix(1,0,0,-1,99,745.8201)"
       style="font-variant:normal;font-weight:300;font-stretch:normal;font-size:20px;font-family:'Rubik Light';-inkscape-font-specification:Rubik-Light;writing-mode:lr-tb;fill:#000000;fill-opacity:1;fill-rule:nonzero;stroke:none"
       id="text68"><tspan
         x="0 11.22 22.139999 27.299999 37.139999 47.860001 53.02 64.639999 75.360001 86.699997 97.860001 107.8 118.96 130.88 136.03999 146.75999 158.67999 169.39999 179.34 190.25999 203.53999 216.72 221.88 232.72 244.64 255.22 265.16 276.78 287.70001 299.62 311.54001 322.45999 330.57599 341.73599 346.896 357.616 368.19601 379.716 391.63599 401.57599 412.29599 417.03601 422.19601 432.91599 438.07599 448.01599 458.73599 468.85599 483.836 494.75601"
         y="0"
         id="tspan64">ле за работой системы внутреннего аудита, а также </tspan><tspan
         x="0 9.8400002 20.559999 25.719999 36.439999 47.599998 58.939999 70.160004 85.419998 96.940002 107.86 119.78 131.7 142.62 155.89999 161.06 172.73801 183.89799 197.17799 208.698 219.418 231.338 243.258 254.17799 266.09799 271.258 281.198 292.81799 303.73801 315.078 326.23801 337.078 347.798 359.71799 371.638 383.55801 388.71799 398.55801 409.27802 418.89401 430.05399 441.974 453.134 464.65399 475.37399 485.314 496.15399 507.37399"
         y="26"
         id="tspan66">за соблюдением Компанией требований законодатель</tspan></text><text
       transform="matrix(1,0,0,-1,615.894,719.8201)"
       style="font-variant:normal;font-weight:300;font-stretch:normal;font-size:20px;font-family:'Rubik Light';-inkscape-font-specification:Rubik-Light;writing-mode:lr-tb;fill:#000000;fill-opacity:1;fill-rule:nonzero;stroke:none"
       id="text72"><tspan
         x="0"
         y="0"
         id="tspan70">-</tspan></text><text
       transform="matrix(1,0,0,-1,99,693.8201)"
       style="font-variant:normal;font-weight:300;font-stretch:normal;font-size:20px;font-family:'Rubik Light';-inkscape-font-specification:Rubik-Light;writing-mode:lr-tb;fill:#000000;fill-opacity:1;fill-rule:nonzero;stroke:none"
       id="text78"><tspan
         x="0 10.72 20.66 31.5 42.220001 46.959999 52.119999 64.040001 75.199997 86.82 100.1 110.82 120.76 132.67999 143.52 155.44 168.62 178.98 184.14 194.86 204.98 214.92 226.08 236.92 241.66 246.82001 258.44 269.35999 277.72 287.71799 298.93799 309.31799 319.258 330.418 342.03799 353.95801 367.138 377.49799 382.65799 393.37799 403.31799 414.03799 425.95801 437.478 448.198 459.81799 469.758 480.918 491.758"
         y="0"
         id="tspan74">ства, нормативных актов, регуляторных стандартов </tspan><tspan
         x="0 11.92 17.08 27.02 38.639999 49.560001 60.900002 72.059998 82.900002 93.620003 105.54 117.46 129.38 134.53999 145.38 150.53999 161.7 173.03999 184.25999 194.98 205.7 215.64 227.56 232.72 244.24001 255.39999 266.92001 275.03601 286.19601 296.13599 307.29599 318.13599 328.25601 340.17599 345.336 358.91599 370.836 382.75601 393.47601 405.396 416.116 427.276 438.116 449.276 461.19601 466.35599 477.51599 487.45599 497.996 508.91599"
         y="26"
         id="tspan76">и требований в области подготовки финансовой отчет</tspan></text><text
       transform="matrix(1,0,0,-1,617.856,667.8201)"
       style="font-variant:normal;font-weight:300;font-stretch:normal;font-size:20px;font-family:'Rubik Light';-inkscape-font-specification:Rubik-Light;writing-mode:lr-tb;fill:#000000;fill-opacity:1;fill-rule:nonzero;stroke:none"
       id="text82"><tspan
         x="0"
         y="0"
         id="tspan80">-</tspan></text><text
       transform="matrix(1,0,0,-1,99,641.8201)"
       style="font-variant:normal;font-weight:300;font-stretch:normal;font-size:20px;font-family:'Rubik Light';-inkscape-font-specification:Rubik-Light;writing-mode:lr-tb;fill:#000000;fill-opacity:1;fill-rule:nonzero;stroke:none"
       id="text92"><tspan
         x="0 11.92 23.08 33.799999 43.740002 55.66 60.400002 65.559998 76.480003 87.400002 92.559998 103.28 113.86 125.38 137.3 147.24001 157.96001 162.7 167.86 178.7 189.62 201.14 212.06 223.98 235.89999 246.28 251.44 262.78 273.35999 283.72 292.07999 302.79999 314.01999 323.95999 334.88 346.5 358.42001 370.34 375.5 387.42001 392.57999 403.16 413.70001 424.62 434.56 445.28"
         y="0"
         id="tspan84">ности, ее аудита, ведения бухгалтерии и учета.</tspan><tspan
         x="0 13.52 24.440001 34.82 44.759998 55.599998 66.82 76.339996 88.260002 99.419998 110.14 120.08 129.60001 134.75999 146.438 157.59801 170.87801 182.798 192.73801 203.658 213.59801 224.31799 229.058 234.218 245.138 253.258 264.418 269.578 279.198 290.358 303.638 315.15799 326.078 336.01801 346.93799 358.858 370.87799 382.798 393.17801 398.33801 410.258 415.418 428.616 439.19601 451.116 461.23599 473.25601 485.17599 497.09601 501.836"
         y="39"
         id="tspan86">Деятельность Комитета, его компетенция и функции, </tspan><tspan
         x="0 11.52 23.139999 34.299999 46.32 57.240002 68.760002 79.339996 90.959999 101.68 106.84 117.56 128.72 138.56 151.74001 162.58 173.3 178.46001 190.38 195.53999 207.06 218.67999 229.84 240.67999 251.60001 263.12 274.04001 285.95999 297.88 308.26001 313.42001 323.26001 333.98001 344.70001 355.62 367.14001 377.85999 389.78 401.70001 413.62 418.35999 423.51999 434.23999 439.39999 449.34 460.06 470.17999 485.16 496.07999"
         y="65"
         id="tspan88">процедура созыва и проведения заседаний, а также </tspan><tspan
         x="0 11.52 23.139999 33.860001 44.700001 55.419998 60.580002 72.5 77.660004 88.82 100.16 110.54 120.38 131.10001 143.02 154.94 166.10001 176.82001 186.75999 198.67999 203.84 214.75999 222.87801 234.03799 239.198 249.73801 260.95801 271.87799 283.798 294.95801 305.798 310.95801 322.11801 333.638 345.258 356.17801 367.698 378.53601 389.75601 400.67599 412.59601 425.776 430.936 441.776 446.936 460.936 471.89401 483.11401"
         y="91"
         id="tspan90">права и обязанности его членов определены в Поло</tspan></text><text
       transform="matrix(1,0,0,-1,593.274,550.8201)"
       style="font-variant:normal;font-weight:300;font-stretch:normal;font-size:20px;font-family:'Rubik Light';-inkscape-font-specification:Rubik-Light;writing-mode:lr-tb;fill:#000000;fill-opacity:1;fill-rule:nonzero;stroke:none"
       id="text96"><tspan
         x="0"
         y="0"
         id="tspan94">-</tspan></text><text
       transform="matrix(1,0,0,-1,99,524.8201)"
       style="font-variant:normal;font-weight:300;font-stretch:normal;font-size:20px;font-family:'Rubik Light';-inkscape-font-specification:Rubik-Light;writing-mode:lr-tb;fill:#000000;fill-opacity:1;fill-rule:nonzero;stroke:none"
       id="text102"><tspan
         x="0 14.98 25.9 37.82 49.740002 61.66 66.82 77.980003 83.139999 94.818001 105.978 119.258 131.17799 141.118 152.03799 161.978 172.89799 178.058 189.578 200.73801 205.89799 216.618 227.198 238.718 250.638 260.578 271.15799 276.31799 289.33801 300.49799 311.33801 322.258 332.198 342.918 348.078 359.59799 371.51801 383.138 394.05801 404.17801 414.11801 425.27802 436.89801 448.05801 458.89801 464.05801 478.05801 488.15799 500.43799 505.198"
         y="0"
         id="tspan98">жении о Комитете по аудиту Совета директоров ПГК. </tspan><tspan
         x="0 13.06 18.219999 30.139999 45.400002 57.32 68.239998 73.400002 84.599998 96.919998 108.12 120.44 125.6 133.718 144.87801 156.39799 167.118 172.278 185.298 196.45799 207.298 218.218 228.158 239.31799 252.59801 257.758 269.27802 281.198 292.81799 303.73801 313.858 323.798 334.95801 346.578 357.73801 368.578 373.73801 384.31799 394.258 405.09799 416.01801 427.638 442.61801 454.138 465.05801 476.978 487.698 492.858 504.77802"
         y="26"
         id="tspan100">В июне 2020 года Советом директоров утверждена но</tspan></text><text
       transform="matrix(1,0,0,-1,614.938,498.8201)"
       style="font-variant:normal;font-weight:300;font-stretch:normal;font-size:20px;font-family:'Rubik Light';-inkscape-font-specification:Rubik-Light;writing-mode:lr-tb;fill:#000000;fill-opacity:1;fill-rule:nonzero;stroke:none"
       id="text106"><tspan
         x="0"
         y="0"
         id="tspan104">-</tspan></text><text
       transform="matrix(1,0,0,-1,99,472.8201)"
       style="font-variant:normal;font-weight:300;font-stretch:normal;font-size:20px;font-family:'Rubik Light';-inkscape-font-specification:Rubik-Light;writing-mode:lr-tb;fill:#000000;fill-opacity:1;fill-rule:nonzero;stroke:none"
       id="text112"><tspan
         x="0 10.84 21.559999 31.940001 37.099998 48.720001 59.639999 71.160004 81.879997 92 104.02 115.94 126.32 131.48 145.48 156.438 167.658 178.81799 193.798 204.718 216.638 228.558 238.938 244.09801 255.258 260.418 272.09799 283.258 296.53799 308.45801 318.39801 329.31799 339.258 350.17801 354.918 360.078 371.698 382.418 392.258 403.87799 414.59799 425.93799 437.09799 447.03799 457.758 469.67801 481.59799 492.31799 502.698"
         y="0"
         id="tspan108">вая редакция Положения о Комитете, разработанная </tspan><tspan
         x="0 10.84 16 26.719999 37.880001 49.040001 58.98 69.82 80.739998 90.68 101.4 111.34 122.18 134.10001 146.02 151.17999 161.89999 167.06 178.67999 189.60001 199.218 210.37801 223.658 234.578 246.498 258.01801 268.73801 280.758 292.67801 303.05801 316.33801 328.258 333.418 345.09601 356.25601 367.776 378.69601 388.31601 399.03601 409.75601 414.91599 424.53601 435.69601 447.31601 458.836 469.996 481.616"
         y="26"
         id="tspan110">в соответствии с рекомендациями Кодекса корпора</tspan></text><text
       transform="matrix(1,0,0,-1,591.336,446.8201)"
       style="font-variant:normal;font-weight:300;font-stretch:normal;font-size:20px;font-family:'Rubik Light';-inkscape-font-specification:Rubik-Light;writing-mode:lr-tb;fill:#000000;fill-opacity:1;fill-rule:nonzero;stroke:none"
       id="text116"><tspan
         x="0"
         y="0"
         id="tspan114">-</tspan></text><text
       transform="matrix(1,0,0,-1,99,420.8201)"
       style="font-variant:normal;font-weight:300;font-stretch:normal;font-size:20px;font-family:'Rubik Light';-inkscape-font-specification:Rubik-Light;writing-mode:lr-tb;fill:#000000;fill-opacity:1;fill-rule:nonzero;stroke:none"
       id="text122"><tspan
         x="0 9.9399996 21.860001 32.700001 44.619999 55.779999 63.900002 75.059998 80.220001 90.800003 102.32 113.94 124.66 135.5 146.72 157.64 169.56 181.48 191.86 197.02 208.94 214.10001 228.10001 239.72 250.44 261.28 273.20001 284.42001 295.14001 308.42001 320.34 325.5 336.72 348.64001 359.35999 369.29999 381.22 393.14001 401.5 412.22 417.38 432.98001 444.14001 454.85999 464.47601 475.63599 486.47601 497.19601 506.814 517.974 529.89398"
         y="0"
         id="tspan118">тивного управления и Правилами листинга Московской </tspan><tspan
         x="0 12.64 24.559999 36.18 51.16 63.080002 67.839996 73 87 97.958 109.178 120.338 135.31799 146.23801 158.158 170.078 180.998 186.158 196.39799 207.118 217.058 227.778 239.698 250.418 261.258 272.478 284.39801 295.23801 305.95801 316.87799 326.81799 331.978 341.918 353.53799 364.45801 375.798 386.95801 397.798 408.51801 420.43799 432.358 442.73801 447.89801 458.01801 463.17801 473.89801 485.05801 495.77802 505.71799"
         y="26"
         id="tspan120">Биржи. Положение устанавливает требования к соста</tspan></text><text
       transform="matrix(1,0,0,-1,615.438,394.8201)"
       style="font-variant:normal;font-weight:300;font-stretch:normal;font-size:20px;font-family:'Rubik Light';-inkscape-font-specification:Rubik-Light;writing-mode:lr-tb;fill:#000000;fill-opacity:1;fill-rule:nonzero;stroke:none"
       id="text126"><tspan
         x="0"
         y="0"
         id="tspan124">-</tspan></text><text
       transform="matrix(1,0,0,-1,99,368.8201)"
       style="font-variant:normal;font-weight:300;font-stretch:normal;font-size:20px;font-family:'Rubik Light';-inkscape-font-specification:Rubik-Light;writing-mode:lr-tb;fill:#000000;fill-opacity:1;fill-rule:nonzero;stroke:none"
       id="text130"><tspan
         x="0 10.84 21.42 26.58 38.259998 49.419998 62.700001 74.620003 84.559998 95.480003 105.42 116.14 120.96 126.12 137.28 149.2 154.36 165.88 176.838 188.058 203.03799 213.95799 225.87801 231.03799 241.758 252.918 263.638 273.578 284.73801 295.11801 305.05801 314.578 319.73801 331.65799 341.49799 346.65799 358.578 369.49799 379.33801 390.05801 400.89801 412.81799 423.53799 435.45801 448.73801 461.918 472.27802 477.43799 488.95801"
         y="0"
         id="tspan128">ву Комитета: он должен состоять из независимых ди</tspan></text><text
       transform="matrix(1,0,0,-1,599.878,368.8201)"
       style="font-variant:normal;font-weight:300;font-stretch:normal;font-size:20px;font-family:'Rubik Light';-inkscape-font-specification:Rubik-Light;writing-mode:lr-tb;fill:#000000;fill-opacity:1;fill-rule:nonzero;stroke:none"
       id="text134"><tspan
         x="0"
         y="0"
         id="tspan132">-</tspan></text><text
       transform="matrix(1,0,0,-1,99,342.8201)"
       style="font-variant:normal;font-weight:300;font-stretch:normal;font-size:20px;font-family:'Rubik Light';-inkscape-font-specification:Rubik-Light;writing-mode:lr-tb;fill:#000000;fill-opacity:1;fill-rule:nonzero;stroke:none"
       id="text140"><tspan
         x="0 11.62 22.540001 32.66 42.599998 53.759998 65.379997 76.540001 87.379997 92.540001 104.46 115.68 127.6 132.34 137.5 148.42 159.14 170.36 182.28 187.44 198.16 209.32001 220.66 231.88 247.14 258.66 269.57999 281.5 293.42001 304.34 309.5 321.01999 331.73999 343.66 355.57999 366.73999 374.85599 386.01599 391.17599 401.116 412.73599 423.65601 434.996 446.15601 456.996 467.716 479.63599 491.556 501.936"
         y="0"
         id="tspan136">ректоров или, если соблюдение данного требования </tspan><tspan
         x="0 11.92 22.84 33.68 44.84 54.68 67.959999 79.120003 94.099998 106.02 117.18 122.34 133.17999 138.34 149.06 160.98 172.2 182.78 187.94 199.10001 210.44 221.22 232.14 242.25999 252.2 264.12 274.95999 286.88 300.06 310.42001 315.57999 327.10001 338.72 350.64001 361.17999 373.10001 385.01999 390.17999 405.51999 410.67999 422.01999 432.974 444.194 453.71399 469.09399 481.01401"
         y="26"
         id="tspan138">невозможно в силу объективных причин — большин</tspan></text><text
       transform="matrix(1,0,0,-1,591.934,316.8201)"
       style="font-variant:normal;font-weight:300;font-stretch:normal;font-size:20px;font-family:'Rubik Light';-inkscape-font-specification:Rubik-Light;writing-mode:lr-tb;fill:#000000;fill-opacity:1;fill-rule:nonzero;stroke:none"
       id="text144"><tspan
         x="0"
         y="0"
         id="tspan142">-</tspan></text><text
       transform="matrix(1,0,0,-1,99,290.8201)"
       style="font-variant:normal;font-weight:300;font-stretch:normal;font-size:20px;font-family:'Rubik Light';-inkscape-font-specification:Rubik-Light;writing-mode:lr-tb;fill:#000000;fill-opacity:1;fill-rule:nonzero;stroke:none"
       id="text156"><tspan
         x="0 10.72 20.66 31.5 42.66 47.82 59.740002 69.580002 74.739998 85.279999 97.199997 107.92 119.14 129.86 135.02 146.94 156.78 168.12 179.74001 190.46001 202.38 214.3 227.48 237.84 243 253.53999 264.76001 275.67999 287.60001 298.76001 309.60001 314.76001 326.436 337.59601 350.87601 362.79599 372.73599 383.65601 393.59601 404.31601 409.47601 420.996 431.95401 443.17401 458.15399 470.07401 483.254 488.414 499.754 512.93402 522.87402 532.39398"
         y="0"
         id="tspan146">ство из числа избранных членов Комитета должны быть </tspan><tspan
         x="0 11.92 22.84 32.68 43.400002 54.240002 66.160004 76.879997 88.800003 102.08 115.26 128.53999 140.46001 145.62 157.14 169.06 180.67999 191.60001 201.72 211.66 222.82001 234.44 245.16 258.44 270.35999"
         y="26"
         id="tspan148">независимыми директорами.</tspan><tspan
         x="0 11.64 16.799999 30.08 40.799999 51.18 56.34 67.540001 79.860001 91.059998 103.38 108.54 116.66 127.82 139.34 150.06 155.22 168.24001 179.39999 190.24001 201.16 211.10001 216.25999 227.78 239.7 251.32001 262.23999 272.35999 282.29999 293.45999 305.07999 316.23999 327.07999 332.23999 346.23999 356.34 368.62 373.78 384.5 398.07999 409.23999 420.85999 434.14001 446.06 457.67999 468.84 479.67999 490.39999 501.62"
         y="65"
         id="tspan150">6 мая 2020 года Совет директоров ПГК сформировал </tspan><tspan
         x="0 11.68 22.84 36.119999 48.040001 57.98 68.900002 78.839996 84 95.519997 106.68 111.84 122.56 133.14 144.66 156.58 166.52 177.10001 182.25999 193.10001 198.25999 207.87801 218.838 230.058 241.978 252.51801 263.43799 274.15799 284.09799 294.93799 305.858 311.01801 322.53799 327.698 338.23801 349.07599 360.29599 371.45599 382.29599 393.216 403.336 408.496 420.41599 430.25601 435.41599 445.95599 457.87601 468.59601 479.81601 490.53601"
         y="91"
         id="tspan152">Комитет по аудиту в количестве 3 человек из числа </tspan><tspan
         x="0 10.54 21.76 32.68 44.599998 55.759998 66.599998 71.760002 84.779999 95.940002 106.78 117.7 127.64 138.36 143.52 155.03999 166.96001 178.58 189.5 199.62 209.56 220.72 232.34 243.5 254.34 259.07999 264.23999 275.07999 285.20001 296.42001 311.67999 322.22 334.14001 344.98001 350.14001 360.98001 366.14001 378.06 388.98001 397.09399 408.254 413.414 424.93399 435.77399 446.354 456.71399 461.87399 473.79401 484.71399 494.55399"
         y="117"
         id="tspan154">членов Совета директоров, включив в него двух неза</tspan></text><text
       transform="matrix(1,0,0,-1,604.274,173.8201)"
       style="font-variant:normal;font-weight:300;font-stretch:normal;font-size:20px;font-family:'Rubik Light';-inkscape-font-specification:Rubik-Light;writing-mode:lr-tb;fill:#000000;fill-opacity:1;fill-rule:nonzero;stroke:none"
       id="text160"><tspan
         x="0"
         y="0"
         id="tspan158">-</tspan></text><text
       transform="matrix(1,0,0,-1,99,147.8201)"
       style="font-variant:normal;font-weight:300;font-stretch:normal;font-size:20px;font-family:'Rubik Light';-inkscape-font-specification:Rubik-Light;writing-mode:lr-tb;fill:#000000;fill-opacity:1;fill-rule:nonzero;stroke:none"
       id="text164"><tspan
         x="0 10.84 22.76 33.48 45.400002 58.68 71.860001 82.220001 87.379997 98.900002 110.82 122.44 133.36 143.48 153.42 164.58 176.2 187.36 198.2 203.36 218.7 223.86 239.46001 250.17999 261.79999 271.92001 282.64001 287.79999 301.04001 310.65601 321.57599 332.29599 341.85599 354.91599 366.07599 377.996 388.716 399.63599 411.556 416.716 428.63599 433.79599 446.79599 458.716 469.436 480.15601 490.09601"
         y="0"
         id="tspan162">висимых директоров — Марка Окес-Войсей и Анаста</tspan></text><text
       transform="matrix(1,0,0,-1,599.816,147.8201)"
       style="font-variant:normal;font-weight:300;font-stretch:normal;font-size:20px;font-family:'Rubik Light';-inkscape-font-specification:Rubik-Light;writing-mode:lr-tb;fill:#000000;fill-opacity:1;fill-rule:nonzero;stroke:none"
       id="text168"><tspan
         x="0"
         y="0"
         id="tspan166">-</tspan></text><text
       transform="matrix(1,0,0,-1,99,121.8201)"
       style="font-variant:normal;font-weight:300;font-stretch:normal;font-size:20px;font-family:'Rubik Light';-inkscape-font-specification:Rubik-Light;writing-mode:lr-tb;fill:#000000;fill-opacity:1;fill-rule:nonzero;stroke:none"
       id="text172"><tspan
         x="0 10.72 22.639999 37.900002 43.060001 56.66 67.379997 77.959999 87.900002 98.82 110.44 121.78 132.5 142.86 147.62 152.78 165.84 177 186.84 194.67799 205.89799 216.618 227.45799 239.37801 250.59801 255.758 267.436 278.59601 291.87601 303.79599 313.73599 324.65601 334.59601 339.75601 351.67599 362.59601 372.436 383.15601 393.996 405.91599 416.63599 428.556 441.836 455.01599 466.936 472.09601 483.616"
         y="0"
         id="tspan170">сию Лаутербах. Возглавил Комитет независимый ди</tspan></text><text
       transform="matrix(1,0,0,-1,594.536,121.8201)"
       style="font-variant:normal;font-weight:300;font-stretch:normal;font-size:20px;font-family:'Rubik Light';-inkscape-font-specification:Rubik-Light;writing-mode:lr-tb;fill:#000000;fill-opacity:1;fill-rule:nonzero;stroke:none"
       id="text176"><tspan
         x="0"
         y="0"
         id="tspan174">-</tspan></text><text
       transform="matrix(1,0,0,-1,99,95.8201)"
       style="font-variant:normal;font-weight:300;font-stretch:normal;font-size:20px;font-family:'Rubik Light';-inkscape-font-specification:Rubik-Light;writing-mode:lr-tb;fill:#000000;fill-opacity:1;fill-rule:nonzero;stroke:none"
       id="text180"><tspan
         x="0 11.62 22.540001 32.66 42.599998 53.759998 65.379997 70.540001 86.139999 96.860001 108.48 118.6 123.76 137 146.618 157.53799 168.258 177.81799 190.87801 202.03799 213.95799 224.67799 235.59801 247.51801"
         y="0"
         id="tspan178">ректор Марк Окес-Войсей.</tspan></text><text
       transform="matrix(1,0,0,-1,693,961.3001)"
       style="font-variant:normal;font-weight:500;font-stretch:normal;font-size:20px;font-family:'Rubik Medium';-inkscape-font-specification:Rubik-Medium;writing-mode:lr-tb;fill:#000000;fill-opacity:1;fill-rule:nonzero;stroke:none"
       id="text184"><tspan
         x="0 13.7 25.559999 37 47.619999 59.060001 70.760002 75.32 88.18 100.04 114.12 126.6 137.22 148.78 159.39999 170.84 175.39999 187.64 199.5 204.06 215.5 226.94 239.52 252 262.62"
         y="0"
         id="tspan182">Состав Комитета по аудиту</tspan></text><text
       transform="matrix(1,0,0,-1,693,935.3001)"
       style="font-variant:normal;font-weight:500;font-stretch:normal;font-size:20px;font-family:'Rubik Medium';-inkscape-font-specification:Rubik-Medium;writing-mode:lr-tb;fill:#000000;fill-opacity:1;fill-rule:nonzero;stroke:none"
       id="text190"><tspan
         x="0 11.44 16 29.18 38.459999 43.619999 56.799999 66.080002 71.459999 83.860001 97.040001 109.44 122.62 127.18 139.42 151.28 155.84 169.02 181.31799 186.478 199.658 211.95799 217.338 229.73801 242.918 255.31799"
         y="0"
         id="tspan186">с 01.01.2020 по 05.05.2020</tspan><tspan
         x="0 16.24 27.68 39.959999 51.419998 55.98 69.879997 80.879997 92.440002 103.88 113.38 127.12 138.98 151.46001 162.89999 174.46001"
         y="39"
         id="tspan188">Марк Окес-Войсей</tspan></text><path
       d="m 882.597,902.96 h 18.647 v 11.496 h -18.647 z"
       style="fill:#e8e8ed;fill-opacity:1;fill-rule:nonzero;stroke:none"
       id="path192" /><text
       transform="matrix(1,0,0,-1,885.7444,906.1078)"
       style="font-variant:normal;font-weight:normal;font-stretch:normal;font-size:10px;font-family:Rubik;-inkscape-font-specification:Rubik-Regular;writing-mode:lr-tb;fill:#000000;fill-opacity:1;fill-rule:nonzero;stroke:none"
       id="text196"><tspan
         x="0 6.3800001"
         y="0"
         id="tspan194">нд</tspan></text><text
       transform="matrix(1,0,0,-1,693,870.3001)"
       style="font-variant:normal;font-weight:300;font-stretch:normal;font-size:20px;font-family:'Rubik Light';-inkscape-font-specification:Rubik-Light;writing-mode:lr-tb;fill:#000000;fill-opacity:1;fill-rule:nonzero;stroke:none"
       id="text200"><tspan
         x="0 14 25.620001 36.540001 48.060001 58.779999 69.699997 81.220001 91.940002 101.88 112.718 123.938 133.45799 138.618 150.298 161.45799 174.73801 186.658 196.59801 207.51801 217.45799"
         y="0"
         id="tspan198">Председатель Комитета</tspan></text><text
       transform="matrix(1,0,0,-1,693,838.3001)"
       style="font-variant:normal;font-weight:500;font-stretch:normal;font-size:20px;font-family:'Rubik Medium';-inkscape-font-specification:Rubik-Medium;writing-mode:lr-tb;fill:#000000;fill-opacity:1;fill-rule:nonzero;stroke:none"
       id="text208"><tspan
         x="0 13.88 26.360001 36.98 48.84 61.32 65.879997 78.860001 90.300003 100.92 116.28 128.56 140.12"
         y="0"
         id="tspan202">Антон Батырев</tspan><tspan
         x="0 14.92 29 41.48 52.099998 64.379997 76.860001 89.339996 93.900002 108.6 121.08 132.52 145"
         y="32"
         id="tspan204">Дмитрий Лисин</tspan><tspan
         x="0 13.7 25.559999 37 47.619999 59.060001 70.760002 75.32 88.18 100.04 114.12 126.6 137.22 148.78 159.39999 170.84 175.39999 187.64 199.5 204.06 215.5 226.94 239.52 252 262.62"
         y="90.699997"
         id="tspan206">Состав Комитета по аудиту</tspan></text><text
       transform="matrix(1,0,0,-1,693,721.6001)"
       style="font-variant:normal;font-weight:500;font-stretch:normal;font-size:20px;font-family:'Rubik Medium';-inkscape-font-specification:Rubik-Medium;writing-mode:lr-tb;fill:#000000;fill-opacity:1;fill-rule:nonzero;stroke:none"
       id="text214"><tspan
         x="0 11.44 16 29.18 41.740002 46.900002 60.080002 72.379997 77.760002 90.160004 103.34 115.74 128.92 133.48 145.72 157.58 162.14 174.438 183.718 187.778 197.058 209.45799 214.838 227.23801 240.418 252.81799"
         y="0"
         id="tspan210">с 06.05.2020 по 31.12.2020</tspan><tspan
         x="0 16.24 27.68 39.959999 51.419998 55.98 69.879997 80.879997 92.440002 103.88 113.38 127.12 138.98 151.46001 162.89999 174.46001"
         y="39"
         id="tspan212">Марк Окес-Войсей</tspan></text><path
       d="m 882.597,689.26 h 18.647 v 11.496 h -18.647 z"
       style="fill:#e8e8ed;fill-opacity:1;fill-rule:nonzero;stroke:none"
       id="path216" /><text
       transform="matrix(1,0,0,-1,885.7444,692.4079)"
       style="font-variant:normal;font-weight:normal;font-stretch:normal;font-size:10px;font-family:Rubik;-inkscape-font-specification:Rubik-Regular;writing-mode:lr-tb;fill:#000000;fill-opacity:1;fill-rule:nonzero;stroke:none"
       id="text220"><tspan
         x="0 6.3800001"
         y="0"
         id="tspan218">нд</tspan></text><text
       transform="matrix(1,0,0,-1,693,656.6002)"
       style="font-variant:normal;font-weight:300;font-stretch:normal;font-size:20px;font-family:'Rubik Light';-inkscape-font-specification:Rubik-Light;writing-mode:lr-tb;fill:#000000;fill-opacity:1;fill-rule:nonzero;stroke:none"
       id="text224"><tspan
         x="0 14 25.620001 36.540001 48.060001 58.779999 69.699997 81.220001 91.940002 101.88 112.718 123.938 133.45799 138.618 150.298 161.45799 174.73801 186.658 196.59801 207.51801 217.45799"
         y="0"
         id="tspan222">Председатель Комитета</tspan></text><text
       transform="matrix(1,0,0,-1,693,624.6002)"
       style="font-variant:normal;font-weight:500;font-stretch:normal;font-size:20px;font-family:'Rubik Medium';-inkscape-font-specification:Rubik-Medium;writing-mode:lr-tb;fill:#000000;fill-opacity:1;fill-rule:nonzero;stroke:none"
       id="text228"><tspan
         x="0 13.88 26.360001 37.799999 49.240002 59.860001 71.300003 82.739998 95.220001 106.74 111.3 126 137.44 148.88 159.5 171.06 183.34 195.3 206.74001"
         y="0"
         id="tspan226">Анастасия Лаутербах</tspan></text><path
       d="m 913.695,631.26 h 18.647 v 11.496 h -18.647 z"
       style="fill:#e8e8ed;fill-opacity:1;fill-rule:nonzero;stroke:none"
       id="path230" /><text
       transform="matrix(1,0,0,-1,916.8427,634.4079)"
       style="font-variant:normal;font-weight:normal;font-stretch:normal;font-size:10px;font-family:Rubik;-inkscape-font-specification:Rubik-Regular;writing-mode:lr-tb;fill:#000000;fill-opacity:1;fill-rule:nonzero;stroke:none"
       id="text234"><tspan
         x="0 6.3800001"
         y="0"
         id="tspan232">нд</tspan></text><text
       transform="matrix(1,0,0,-1,693,592.6002)"
       style="font-variant:normal;font-weight:500;font-stretch:normal;font-size:20px;font-family:'Rubik Medium';-inkscape-font-specification:Rubik-Medium;writing-mode:lr-tb;fill:#000000;fill-opacity:1;fill-rule:nonzero;stroke:none"
       id="text240"><tspan
         x="0 13.88 26.360001 36.98 48.84 61.32 65.879997 78.860001 90.300003 100.92 116.28 128.56 140.12"
         y="0"
         id="tspan236">Антон Батырев</tspan><tspan
         x="594 607.73999 612.29999 624.15997 634.78003 646.35999 657.91998 668.53998 681.02002 692.88 706.96002 711.52002 723.76001 735.32001 747.59998 760.08002 771.94 784.52002 796.08002 800.64001 813.49799 825.35797 839.43799 851.91803 862.53802 874.09802 884.71802 896.578"
         y="-368.70001"
         id="tspan238">В отчетном периоде Комитетом</tspan></text><text
       transform="matrix(1,0,0,-1,1287,935.3002)"
       style="font-variant:normal;font-weight:500;font-stretch:normal;font-size:20px;font-family:'Rubik Medium';-inkscape-font-specification:Rubik-Medium;writing-mode:lr-tb;fill:#000000;fill-opacity:1;fill-rule:nonzero;stroke:none"
       id="text244"><tspan
         x="0 11.96 27.32 39.400002 51.880001 56.439999 68.720001 80.160004 91.599998 103.04 117.12 128.98 139.60001 151.88 163.44 175.92 191.28"
         y="0"
         id="tspan242">были рассмотрены:</tspan></text><text
       transform="matrix(1,0,0,-1,1287,896.3002)"
       style="font-variant:normal;font-weight:300;font-stretch:normal;font-size:20px;font-family:'Rubik Light';-inkscape-font-specification:Rubik-Light;writing-mode:lr-tb;fill:#000000;fill-opacity:1;fill-rule:nonzero;stroke:none"
       id="text276"><tspan
         x="0 7.96 12.72 18 30.639999 41.220001 51.580002 59.939999 70.660004 81.879997 91.82 102.74 114.36 125.08 135.2 145.92 156.3 161.46001 172.62 182.56 193.10001 204.02 213.96001 225.88 237.03999 247.75999 257.70001 267.22 271.95999 277.12 287.84 299 309.72 319.66 330.38 341.22 352.44 363.35999 375.28 387.20001 397.92001 408.29999"
         y="0"
         id="tspan246">1. Бухгалтерская отчетность, составленная </tspan><tspan
         x="18 28.84 34 44.720001 55.880001 67.040001 76.980003 87.82 98.739998 108.68 119.4 129.34 140.17999 152.10001 164.02 169.17999 179.89999 185.06 197.62 210.64 223.28 234.53999 239.7 251.62 256.78 272.38 285.39999 301.89999 314.73599 319.47601 324.63599 335.47601 340.63599 350.57599 361.73599 375.01599 380.17599 390.716 402.63599 413.35599 424.57599 435.496"
         y="26"
         id="tspan248">в соответствии с РСБУ и МСФО, в том числе </tspan><tspan
         x="18 29.52 41.139999 52.299999 65.580002 76.5 91.480003 102.06 112 123.16 133.7 145.62 156.34 166.72 171.88 178.25999 188.10001 198.82001 209.53999 220.46001 231.98 242.7 254.62 266.54001 276.92001 282.07999 293.60001 305.22 316.38 327.22 338.38 349.89999 361.82001 373.04001 384.95999 395.67999 405.20001 410.35999 421.07999 426.23999 436.82001 447.35999 458.07999 468.79999 478.73999 490.66 501.57999 514.85999"
         y="52"
         id="tspan250">промежуточная (заседания проводились с участием </tspan><tspan
         x="18 29.92 40.84 50.68 61.400002 72.239998 84.160004 94.879997 106.8 120.08 131.24001 139.358 150.51801 155.67799 166.39799 176.978 188.498 200.418 210.358 221.51801 233.138 243.858"
         y="78"
         id="tspan252">независимого аудитора)</tspan><tspan
         x="0 11.2 15.96 18 30.280001 41 52.919998 64.440002 76.360001 87.879997 98.599998 108.54 119.12 130.74001 141.46001 146.62 157.46001 169.38 180.3 195.67999 207.60001 218.52 226.638 237.798 242.95799 253.67799 264.258 275.77802 287.698 297.638 308.798 320.418 331.138 336.298 350.298 360.39801 372.67801 377.83801 389.758 400.478 405.638 416.83801 429.15799 440.358 452.67801 457.83801 465.95599 477.116 488.63599 493.37601"
         y="108"
         id="tspan254">2. Кандидатура внешнего аудитора ПГК на 2020 год, </tspan><tspan
         x="18 28.719999 33.880001 43.82 54.540001 64.660004 79.639999 90.559998 95.720001 107.34 118.06 127.9 141.17999 152.10001 163.72 168.88 180.03999 191.56 202.78 213.5 223.44 236.62 241.78 252.7 260.81799 271.978 277.138 287.37601 298.09601 309.31601 319.896"
         y="134"
         id="tspan256">а также размер оплаты его услуг</tspan><tspan
         x="0 11.52 16.280001 18 29.84 44.82 55.740002 65.860001 76.699997 87.419998 99.040001 108.98 119.7 130.92 140.44 152.36 165.53999 176.46001 181.62 192.78 202.72 213.25999 224.17999 234.12 247.3 252.46001 263.62 268.78 280.39999 291.32001 301.16 311.15601 322.37601 331.896 341.836 352.556 362.496 373.216 383.57599 388.73599 400.25601 411.17599 421.556 431.496 442.336 453.556 463.07599 474.996 486.15601 496.87601 506.81601 518.73602"
         y="164"
         id="tspan258">3. Ежеквартальные отчеты о результатах деятельности </tspan><tspan
         x="18 28.48 40 51.619999 62.34 73.18 84.400002 95.32 107.24 119.16 129.53999 134.7 145.53999 157.46001 168.03999 177.98 189.60001 200.52 212.44 224.36 235.28 243.39799 254.558 259.71799 270.43799 281.01801 292.53799 304.45801 314.39801 325.11801 330.27802 342.198 347.358 358.87799 370.09799 380.81799 392.73801 405.918 411.078 421.99799 430.116 441.276"
         y="190"
         id="tspan260">Управления внутреннего аудита и планы его </tspan><tspan
         x="18 29.52 40.439999 50.82 60.759998 71.599998 82.82 92.339996 104.26 115.42 126.14 136.08"
         y="216"
         id="tspan262">деятельности</tspan><tspan
         x="0 11.52 16.280001 18 32 43.619999 54.779999 66.800003 77.720001 89.239998 99.82 111.44 122.16 127.32 138.16 150.08 160.66 170.60001 182.22 193.14 205.06 216.98 227.89999 236.01801 247.17799 252.338 263.05801 273.638 285.15799 297.078 307.01801 317.73801 322.89801 336.89801 346.99799"
         y="246"
         id="tspan264">4. Процедура внутреннего аудита ПГК</tspan><tspan
         x="0 11.22 15.98 18 31.24 41.18 51.720001 62.639999 72.580002 77.739998 89.260002 100.42 105.58 118.86 130.02 141.94 153.86 163.8 174.96001 186.58 198.5 210.42 218.78 229.36 234.52 246.14 258.06 268.78 278.396 289.556 300.396 305.556 317.47601 322.63599 335.91599 346.836 358.45599 369.616 381.13599 392.75601 404.67599 415.056 424.996 436.91599 447.29599 460.57599"
         y="276"
         id="tspan266">5. Отчет по мониторингу рисков и мероприятиям;</tspan><tspan
         x="0 11.64 16.4 18 32.52 44.439999 58.02 69.18 80.800003 94.080002 104.8 116.82 128.74001 139.12 144.28 155.44 160.60001 171.44 182.66 194.58 204.96001 216.88 228.8 240.72 245.88 255.498 266.65799 278.27802 289.43799 301.358 312.078 322.918 334.83801 346.07599 356.31601 367.03601 377.75601 382.91599 388.65601 401.67599 414.53601 427.29599 432.31601 445.85599 454.776 462.73599 473.51599 479.896"
         y="306"
         id="tspan268">6. Информация о влиянии коронавируса (COVID-19) </tspan><tspan
         x="18 29.92 40.639999 45.799999 57.32 68.239998 78.620003 88.559998 99.400002 110.62 120.14 132.06 143.22 153.94 163.88 173.39999 178.56 192.56 202.66"
         y="332"
         id="tspan270">на деятельность ПГК</tspan><tspan
         x="0 8.3599997 13.12 18 32 43.16 54 67.18 78.099998 83.260002 94.879997 105.8 117.32 128.03999 138.16 150.17999 162.10001 174.02 179.17999 193.17999 204.138 215.358 226.51801 241.498 252.418 264.33801 276.258 288.17801 293.33801 304.49799 309.65799 321.33801 332.49799 345.77802 357.698 367.638 378.55801 388.49799 399.418 404.578 416.09799 427.258 432.418 443.138 453.71799 465.23801 477.15799 487.09799 497.67801"
         y="362"
         id="tspan272">7. Новые редакции Положений о Комитете по аудиту </tspan><tspan
         x="18 29.92 35.080002 45.560001 57.080002 68.699997 79.419998 90.260002 101.48 112.4 124.32 136.24001 148.16 153.32001 164.16 176.08 186.66 196.60001 208.22 219.14 231.06 242.98 253.89999 262.01801 273.17801 278.33801 289.05801 299.638 311.15799 323.078 333.01801"
         y="388"
         id="tspan274">и Управлении внутреннего аудита</tspan></text><g
       id="g278"
       transform="translate(1287,216.0999)"><path
         d="M 0,0 H 451"
         style="fill:none;stroke:#e8e8ed;stroke-width:1;stroke-linecap:butt;stroke-linejoin:miter;stroke-miterlimit:10;stroke-dasharray:none;stroke-opacity:1"
         id="path280" /></g><g
       id="g282"
       transform="translate(1738,216.0999)"><path
         d="M 0,0 H 83"
         style="fill:none;stroke:#e8e8ed;stroke-width:1;stroke-linecap:butt;stroke-linejoin:miter;stroke-miterlimit:10;stroke-dasharray:none;stroke-opacity:1"
         id="path284" /></g><g
       id="g286"
       transform="translate(1287,173.3999)"><path
         d="M 0,0 H 451"
         style="fill:none;stroke:#e8e8ed;stroke-width:1;stroke-linecap:butt;stroke-linejoin:miter;stroke-miterlimit:10;stroke-dasharray:none;stroke-opacity:1"
         id="path288" /></g><g
       id="g290"
       transform="translate(1738,173.3999)"><path
         d="M 0,0 H 83"
         style="fill:none;stroke:#e8e8ed;stroke-width:1;stroke-linecap:butt;stroke-linejoin:miter;stroke-miterlimit:10;stroke-dasharray:none;stroke-opacity:1"
         id="path292" /></g><g
       id="g294"
       transform="translate(1287,130.7)"><path
         d="M 0,0 H 451"
         style="fill:none;stroke:#e8e8ed;stroke-width:1;stroke-linecap:butt;stroke-linejoin:miter;stroke-miterlimit:10;stroke-dasharray:none;stroke-opacity:1"
         id="path296" /></g><g
       id="g298"
       transform="translate(1738,130.7)"><path
         d="M 0,0 H 83"
         style="fill:none;stroke:#e8e8ed;stroke-width:1;stroke-linecap:butt;stroke-linejoin:miter;stroke-miterlimit:10;stroke-dasharray:none;stroke-opacity:1"
         id="path300" /></g><text
       transform="matrix(1,0,0,-1,1287,228.0999)"
       style="font-variant:normal;font-weight:500;font-stretch:normal;font-size:20px;font-family:'Rubik Medium';-inkscape-font-specification:Rubik-Medium;writing-mode:lr-tb;fill:#000000;fill-opacity:1;fill-rule:nonzero;stroke:none"
       id="text304"><tspan
         x="0 12.98 24.42 35.040001 50.400002 62.68 74.239998 85.940002 90.5 104.38 116.86 127.48 139.34 151.82001 156.38 171.60001 183.03999 194.5 205.94 218.42 231 242.56 254.84 266.70001 278.39999 290.88"
         y="0"
         id="tspan302">Батырев Антон Искандерович</tspan></text><text
       transform="matrix(1,0,0,-1,1767.54,228.0999)"
       style="font-variant:normal;font-weight:300;font-stretch:normal;font-size:20px;font-family:'Rubik Light';-inkscape-font-specification:Rubik-Light;writing-mode:lr-tb;fill:#000000;fill-opacity:1;fill-rule:nonzero;stroke:none"
       id="text308"><tspan
         x="0 11.64 16.799999 28.719999 38.560001 43.720001"
         y="0"
         id="tspan306">6 из 7</tspan></text><text
       transform="matrix(1,0,0,-1,1287,185.3999)"
       style="font-variant:normal;font-weight:500;font-stretch:normal;font-size:20px;font-family:'Rubik Medium';-inkscape-font-specification:Rubik-Medium;writing-mode:lr-tb;fill:#000000;fill-opacity:1;fill-rule:nonzero;stroke:none"
       id="text312"><tspan
         x="0 14.7 26.139999 37.580002 48.200001 59.759998 72.040001 84 95.440002 106.74 111.3 125.18 137.66 149.10001 160.53999 171.16 182.60001 194.03999 206.52 218.03999 222.60001 236.34 248.82001 260.28 270.89999 282.76001 295.04001 306.89999 318.60001 331.07999"
         y="0"
         id="tspan310">Лаутербах Анастасия Викторовна</tspan></text><text
       transform="matrix(1,0,0,-1,1766.04,185.3999)"
       style="font-variant:normal;font-weight:300;font-stretch:normal;font-size:20px;font-family:'Rubik Light';-inkscape-font-specification:Rubik-Light;writing-mode:lr-tb;fill:#000000;fill-opacity:1;fill-rule:nonzero;stroke:none"
       id="text316"><tspan
         x="0 11.44 16.6 28.52 38.360001 43.52"
         y="0"
         id="tspan314">5 из 5</tspan></text><text
       transform="matrix(1,0,0,-1,1287,142.6999)"
       style="font-variant:normal;font-weight:500;font-stretch:normal;font-size:20px;font-family:'Rubik Medium';-inkscape-font-specification:Rubik-Medium;writing-mode:lr-tb;fill:#000000;fill-opacity:1;fill-rule:nonzero;stroke:none"
       id="text320"><tspan
         x="0 14.7 27.18 38.619999 51.099998 63.580002 68.139999 83.059998 97.139999 109.62 120.24 132.52 145 157.48 162.03999 175.78 187.86 199.3 211.88 224.36 238.44 250.92 263.20001 275.06 286.76001 299.23999"
         y="0"
         id="tspan318">Лисин Дмитрий Владимирович</tspan></text><text
       transform="matrix(1,0,0,-1,1769.76,142.6999)"
       style="font-variant:normal;font-weight:300;font-stretch:normal;font-size:20px;font-family:'Rubik Light';-inkscape-font-specification:Rubik-Light;writing-mode:lr-tb;fill:#000000;fill-opacity:1;fill-rule:nonzero;stroke:none"
       id="text324"><tspan
         x="0 7.96 13.12 25.040001 34.880001 40.040001"
         y="0"
         id="tspan322">1 из 2</tspan></text><text
       transform="matrix(1,0,0,-1,1287,99.9999)"
       style="font-variant:normal;font-weight:500;font-stretch:normal;font-size:20px;font-family:'Rubik Medium';-inkscape-font-specification:Rubik-Medium;writing-mode:lr-tb;fill:#000000;fill-opacity:1;fill-rule:nonzero;stroke:none"
       id="text328"><tspan
         x="0 13.9 24.9 36.459999 47.900002 57.400002 71.139999 83 95.480003 106.92 118.48 130.96001 135.52 151.75999 163.2 175.48 186.94 191.5 206.42 217.94 229.64 242.12 254.7 259.26001 273.14001 285.22 296.78 307.776 319.216 330.65601 343.13599 355.716 367.276"
         y="0"
         id="tspan326">Окес-Войсей Марк Дэвид Александер</tspan></text><text
       transform="matrix(1,0,0,-1,1769.44,99.9999)"
       style="font-variant:normal;font-weight:300;font-stretch:normal;font-size:20px;font-family:'Rubik Light';-inkscape-font-specification:Rubik-Light;writing-mode:lr-tb;fill:#000000;fill-opacity:1;fill-rule:nonzero;stroke:none"
       id="text332"><tspan
         x="0 9.7399998 14.9 26.82 36.66 41.82"
         y="0"
         id="tspan330">7 из 7</tspan></text><text
       transform="matrix(1,0,0,-1,1287,304.7999)"
       style="font-variant:normal;font-weight:500;font-stretch:normal;font-size:20px;font-family:'Rubik Medium';-inkscape-font-specification:Rubik-Medium;writing-mode:lr-tb;fill:#000000;fill-opacity:1;fill-rule:nonzero;stroke:none"
       id="text338"><tspan
         x="0 14.6 26.879999 39.360001 51.84 63.360001 73.980003 86.459999 98.019997 102.58 114.16 126.24 137.8 150.28 161.72 175.8 188.28 192.84 205.698 217.558 231.638 244.118 254.73801 266.298 276.918 288.358 292.918 304.358 315.93799 327.37799 338.81799 349.43799 361.918 373.43799"
         y="0"
         id="tspan334">Принятие членами Комитета участия </tspan><tspan
         x="0 11.7 16.26 26.98 38.419998 49.860001 61.419998 74 85.440002 97.919998 110.4 121.92 133.22 137.78 149.48 154.03999 166.44 179.62 192.02 205.2 209.75999 218.498 230.358 242.938"
         y="26"
         id="tspan336">в заседаниях в 2020 году</tspan></text><text
       transform="matrix(1,0,0,-1,693,474.6799)"
       style="font-variant:normal;font-weight:300;font-stretch:normal;font-size:20px;font-family:'Rubik Light';-inkscape-font-specification:Rubik-Light;writing-mode:lr-tb;fill:#000000;fill-opacity:1;fill-rule:nonzero;stroke:none"
       id="text360"><tspan
         x="0 16.5 27.08 39 49.119999 61.139999 73.059998 84.980003 90.139999 100.86 111.78 121.9 133.52 144.44 154.38 165.10001 176.72 187.10001 192.25999 203.938 215.09801 228.37801 240.298 250.23801 261.15799 271.09799 281.81799 286.978 297.81799 310.99799 322.51801 333.47601 344.69601 356.616 366.996 378.216 388.936 394.09601 407.09601 419.01599 430.936 441.65601"
         y="0"
         id="tspan340">Функции секретаря Комитета выполняла Анна </tspan><tspan
         x="0 12.84 28.219999 38.34 50.259998 62.18 72.900002 77.639999 82.800003 93.339996 104.56 115.48 127.4 132.56 145.56 156.28 167 178.16 190.17999 202.10001 212.82001 224.84 236.75999 248.67999 253.84 267.84 278.56 290.57999 302.5 313.66 325.57999 336.29999 347.51999 357.04001 368.95999 380.12 388.23599 399.396"
         y="26"
         id="tspan342">Яшкина, член Ассоциации Национального </tspan><tspan
         x="0 11.16 22.5 33.279999 44.200001 55.720001 67.639999 79.559998 90.480003 102.4 114.32 124.7 129.86 139.478 150.638 162.258 173.778 184.938 196.558 207.278 217.218 229.138 239.978 251.89799 265.078 275.43799 280.59799 291.31799 302.23801 312.358 323.978 334.89801 344.83801 355.55801 367.17801 378.09799 390.01801 395.17801 401.31601 415.31601 428.556 440.09601 453.116 459.496 464.23599"
         y="52"
         id="tspan344">объединения корпоративных секретарей (НОКС), </tspan><tspan
         x="0 10.84 22 37.380001 48.299999 59.82 75.199997 85.919998 96.300003 101.46 112.3 117.46 129.52 140.66 151.82001 163.34 172.258 180.218 192.53799 204.858 217.17799 222.338 233.95799 245.118 255.838 266.55801 278.478 290.39801 301.11801 311.23801 323.15799 333.51801 338.67801 351.95801 362.87799 374.798 385.71799 397.23801 412.21799 423.138 434.758 445.918 456.758 468.81799"
         y="78"
         id="tspan346">вошедшая в «Топ-1000 российских менеджеров» </tspan><tspan
         x="0 11.52 22.68 27.84 38.68 49.599998 61.220001 71.940002 83.860001 95.779999 100.94 113.94 124.66 135.38 146.53999 158.56 170.48 181.2 193.22 205.14 217.06 222.22 235.5 246.42 258.34 269.26001 280.78 295.76001 306.67999 318.29999 329.45999 340.29999 345.45999 358.01999 369.17999 379.89999 390.62 402.54001 414.45999"
         y="104"
         id="tspan348">по версии Ассоциации менеджеров России </tspan><tspan
         x="0 10.84 16 27.200001 39.52 47.48 59.119999 64.279999 72.400002 83.559998 95.080002 104.458 109.198 114.358 126.278 136.998 147.53799 158.258 169.478 178.998 190.918 202.838 212.95799 218.118 229.278 239.218 250.73801 261.578 272.798 283.51801 288.67801 298.29599 309.45599 321.07599 332.59601 343.75601 355.37601 366.09601 376.03601 387.95599 398.79599 410.716 421.87601 429.996 441.15601"
         y="130"
         id="tspan350">в 2016 году, начальник отдела корпоративного </tspan><tspan
         x="0 10.58 22.1 33.720001 44.439999 55.279999 66.5 77.419998 89.339996 101.26 111.64 116.8 130.8 140.89999 153.17999"
         y="156"
         id="tspan352">управления ПГК.</tspan><tspan
         x="0 13.06 18.219999 29.379999 39.32 49.860001 60.779999 70.720001 82.639999 93.800003 107.08 112.24 123.76 134.67999 146.3 158.22 169.38 180.89999 191.82001 196.98 208.32001 221.5 232.72 243.88 249.03999 260.56 272.17999 283.34 294.17999 305.10001 316.62 327.54001 339.45999 350.62 355.78 365.51999 370.67999 380.51999 391.23999 401.95999 412.88 424.39999 435.12 447.04001 458.95999 470.88"
         y="208"
         id="tspan354">В отчетном периоде было проведено 7 заседаний </tspan><tspan
         x="0 11.68 22.84 36.119999 48.040001 57.98 68.900002 78.839996 89.559998 94.300003 99.459999 110.3 121.02 131.94 137.10001 146.94 157.66 168.38 179.3 190.82001 201.53999 213.46001 225.38 235.75999 240.92 252.44 264.06 275.22 286.06 297.22 308.73999 320.66 331.88 343.79999 354.51999 364.04001 369.20001 380.35999 390.89999 402.82001 413.98001"
         y="234"
         id="tspan356">Комитета, все заседания проводились очно </tspan><tspan
         x="0 10.84 16 29.58 40.740002 52.360001 65.639999 76.360001 86.300003 97.220001 102.38 113.22 125.14 136.66 147.58 158.74001 168.358 179.51801 191.438 205.01801 215.938 227.558 238.478 250.39799 262.418 274.33801 286.258"
         y="260"
         id="tspan358">в формате видеоконференций.</tspan></text><path
       d="m 693,100 h 18.647 v 11.496 H 693 Z"
       style="fill:#e8e8ed;fill-opacity:1;fill-rule:nonzero;stroke:none"
       id="path362" /><text
       transform="matrix(1,0,0,-1,696.1478,103.1478)"
       style="font-variant:normal;font-weight:normal;font-stretch:normal;font-size:10px;font-family:Rubik;-inkscape-font-specification:Rubik-Regular;writing-mode:lr-tb;fill:#000000;fill-opacity:1;fill-rule:nonzero;stroke:none"
       id="text366"><tspan
         x="0 6.3800001"
         y="0"
         id="tspan364">нд</tspan></text><text
       transform="matrix(1,0,0,-1,716,100.4956)"
       style="font-variant:normal;font-weight:300;font-stretch:normal;font-size:16px;font-family:'Rubik Light';-inkscape-font-specification:Rubik-Light;writing-mode:lr-tb;fill:#000000;fill-opacity:1;fill-rule:nonzero;stroke:none"
       id="text370"><tspan
         x="0 12.272 16.4 25.936001 34.672001 42.543999 51.119999 59.792 69.328003 77.903999 87.440002 98.064003 108.608 118.144 122.272 131.48801 141.024 150.32001 159.056 167.15199 175.104 184.032"
         y="0"
         id="tspan368">— независимый директор</tspan></text><text
       transform="matrix(1,0,0,-1,37.8603,1023)"
       style="font-variant:normal;font-weight:300;font-stretch:normal;font-size:20px;font-family:'Rubik Light';-inkscape-font-specification:Rubik-Light;writing-mode:lr-tb;fill:#000000;fill-opacity:1;fill-rule:nonzero;stroke:none"
       id="text374"><tspan
         x="0 11.64"
         y="0"
         id="tspan372">66</tspan></text><g
       id="g376"><g
         id="g378"><g
           id="g380"
           clip-path="url(#clipPath384)"><text
             transform="matrix(1,0,0,-1,99,1023)"
             style="font-variant:normal;font-weight:300;font-stretch:normal;font-size:20px;font-family:'Rubik Light';-inkscape-font-specification:Rubik-Light;writing-mode:lr-tb;fill:#000000;fill-opacity:1;fill-rule:nonzero;stroke:none"
             id="text388"><tspan
               x="0 13.24 18.4 28.02 39.18 52.459999 63.98 74.699997 86.620003 98.540001"
               y="0"
               id="tspan386">О компании</tspan></text></g></g></g></g></svg>
