<?xml version="1.0" encoding="UTF-8" standalone="no"?>
<?xml-stylesheet type="text/css" href="main.css" ?>
<svg
   xmlns:dc="http://purl.org/dc/elements/1.1/"
   xmlns:cc="http://creativecommons.org/ns#"
   xmlns:rdf="http://www.w3.org/1999/02/22-rdf-syntax-ns#"
   xmlns:svg="http://www.w3.org/2000/svg"
   xmlns="http://www.w3.org/2000/svg"
   version="1.1"
   id="svg2"
   xml:space="preserve"
   width="2560"
   height="1440"
   viewBox="0 0 2560 1440"><metadata
     id="metadata8"><rdf:RDF><cc:Work
         rdf:about=""><dc:format>image/svg+xml</dc:format><dc:type
           rdf:resource="http://purl.org/dc/dcmitype/StillImage" /></cc:Work></rdf:RDF></metadata><defs
     id="defs6"><clipPath
       clipPathUnits="userSpaceOnUse"
       id="clipPath20"><path
         d="M 0,1080 H 1920 V 0 H 0 Z"
         id="path18" /></clipPath></defs><g
     id="g10"
     transform="matrix(1.3333333,0,0,-1.3333333,0,1440)"><g
       id="g12"><g
         id="g14"><g
           id="g16"
           clip-path="url(#clipPath20)"><path
             d="M 0,0 H 1920 V 1080 H 0 Z"
             style="fill:#ffffff;fill-opacity:1;fill-rule:nonzero;stroke:none"
             id="path22" /></g></g></g><text
       transform="matrix(1,0,0,-1,99,953.8201)"
       style="font-variant:normal;font-weight:500;font-stretch:normal;font-size:28px;font-family:'Rubik Medium';-inkscape-font-specification:Rubik-Medium;writing-mode:lr-tb;fill:#000000;fill-opacity:1;fill-rule:nonzero;stroke:none"
       id="text26"><tspan
         x="0 18.76 35.335999 55.02 72.463997 87.304001 103.46 118.3 124.712 141.82001 158.396 164.808 180.79601 196.756 214.34 231.784 246.62399"
         y="0"
         id="tspan24">Комитет по аудиту</tspan></text><text
       transform="matrix(1,0,0,-1,99,901.8201)"
       style="font-variant:normal;font-weight:300;font-stretch:normal;font-size:20px;font-family:'Rubik Light';-inkscape-font-specification:Rubik-Light;writing-mode:lr-tb;fill:#000000;fill-opacity:1;fill-rule:nonzero;stroke:none"
       id="text30"><tspan
         x="0 12.28 23.440001 36.720001 48.639999 58.580002 69.5 79.440002 84.599998 96.120003 107.28 112.44 123.16 133.74001 145.25999 157.17999 167.12 177.7 182.86 194.02 204.14 214.86 224.7 237.88 248.72 259.44 270.35999 280.29999 285.45999 296.17999 307.34 318.85999 329.78 341.70001 352.42001 362.35999 373.20001 385.12 396.04001 401.20001 414.22 425.38 436.22 447.14001 457.07999 467.66 472.82001 484.34"
         y="0"
         id="tspan28">Комитет по аудиту оказывает содействие Совету ди</tspan></text><text
       transform="matrix(1,0,0,-1,595.26,901.8201)"
       style="font-variant:normal;font-weight:300;font-stretch:normal;font-size:20px;font-family:'Rubik Light';-inkscape-font-specification:Rubik-Light;writing-mode:lr-tb;fill:#000000;fill-opacity:1;fill-rule:nonzero;stroke:none"
       id="text34"><tspan
         x="0"
         y="0"
         id="tspan32">-</tspan></text><text
       transform="matrix(1,0,0,-1,99,875.8201)"
       style="font-variant:normal;font-weight:300;font-stretch:normal;font-size:20px;font-family:'Rubik Light';-inkscape-font-specification:Rubik-Light;writing-mode:lr-tb;fill:#000000;fill-opacity:1;fill-rule:nonzero;stroke:none"
       id="text40"><tspan
         x="0 11.62 22.540001 32.66 42.599998 53.759998 65.379997 76.540001 87.379997 92.540001 103.38 108.54 119.26 131.17999 141.89999 153.12 165.03999 174.88 185.8 190.96001 202.88 208.03999 219.2 231.22 242.14 254.06 264.17999 275.10001 280.26001 293.84 305.76001 317.67999 328.39999 340.32001 351.04001 362.20001 373.04001 384.20001 396.12 401.28 412.44 422.38 432.92001 443.84 453.78 465.70001 476.85999 487.57999 497.51999 509.44 514.17999"
         y="0"
         id="tspan36">ректоров в анализе и оценке финансовой отчетности, </tspan><tspan
         x="0 11.16 21.879999 32.459999 48.360001 59.279999 70 79.940002 90.779999 102 112.92 124.84 136.75999 148.67999 153.84 163.96001 175.12 187.03999 196.98 208.60001 219.75999 230.98 241.36 246.52 256.35999 267.07999 272.23999 283.76001 294.92001 305.64001 315.57999 326.73999 337.57999 348.5 360.12 372.04001 383.20001 393.92001 403.85999 413.38 428.64001 433.79999 445.14001 455.72 466.07999 474.44 485.16"
         y="26"
         id="tspan38">осуществлении контроля за достоверностью бухгал</tspan></text><text
       transform="matrix(1,0,0,-1,595.38,849.8201)"
       style="font-variant:normal;font-weight:300;font-stretch:normal;font-size:20px;font-family:'Rubik Light';-inkscape-font-specification:Rubik-Light;writing-mode:lr-tb;fill:#000000;fill-opacity:1;fill-rule:nonzero;stroke:none"
       id="text44"><tspan
         x="0"
         y="0"
         id="tspan42">-</tspan></text><text
       transform="matrix(1,0,0,-1,99,823.8201)"
       style="font-variant:normal;font-weight:300;font-stretch:normal;font-size:20px;font-family:'Rubik Light';-inkscape-font-specification:Rubik-Light;writing-mode:lr-tb;fill:#000000;fill-opacity:1;fill-rule:nonzero;stroke:none"
       id="text48"><tspan
         x="0 9.9399996 20.860001 32.48 43.200001 53.32 64.480003 76.400002 81.559998 87.940002 101.52 113.44 125.36 136.08 148 158.72 169.88 180.72 191.88 203.8 210.17999 215.34 226.5 236.44 246.98 257.89999 267.84 279.76001 290.92001 301.64001 311.57999 323.5 328.23999 333.39999 344.12 355.28 366 375.94 386.66 397.5 408.72 419.64001 431.56 443.48001 454.64001 466.56 471.72 482.56 487.72 498.44"
         y="0"
         id="tspan46">терской (финансовой) отчетности, составленной в со</tspan></text><text
       transform="matrix(1,0,0,-1,608.6,823.8201)"
       style="font-variant:normal;font-weight:300;font-stretch:normal;font-size:20px;font-family:'Rubik Light';-inkscape-font-specification:Rubik-Light;writing-mode:lr-tb;fill:#000000;fill-opacity:1;fill-rule:nonzero;stroke:none"
       id="text52"><tspan
         x="0"
         y="0"
         id="tspan50">-</tspan></text><text
       transform="matrix(1,0,0,-1,99,797.8201)"
       style="font-variant:normal;font-weight:300;font-stretch:normal;font-size:20px;font-family:'Rubik Light';-inkscape-font-specification:Rubik-Light;writing-mode:lr-tb;fill:#000000;fill-opacity:1;fill-rule:nonzero;stroke:none"
       id="text58"><tspan
         x="0 11.16 21.1 31.940001 42.860001 52.799999 63.52 73.459999 84.300003 96.220001 108.14 113.3 124.02 129.17999 144.78 157.8 174.3 187.53999 192.7 204.62 209.78 222.34 235.36 248 259.26001 264 269.16 280.32001 291.66 302.57999 313.29999 324.82001 335.73999 346.28 357.20001 369.12 381.04001 392.95999 398.12 409.64001 421.26001 432.42001 443.26001 454.17999 465.70001 476.62 488.54001 500.45999 510.84"
         y="0"
         id="tspan54">ответствии с МСФО и РСБУ, обеспечении проведения </tspan><tspan
         x="0 11.92 22.84 32.68 43.400002 54.240002 66.160004 76.879997 88.800003 102.08 113.24 121.6 132.75999 137.92 148.64 159.22 170.74001 182.66 192.60001 203.32001 208.48 222.06 233.98 245.89999 256.62 268.54001 279.26001 290.42001 301.26001 312.42001 324.34 329.5 340.66 350.60001 361.14001 372.06 382 393.92001 405.07999 415.79999 425.73999 437.66 442.39999 447.56 457.67999 468.84 480.76001 490.70001 502.32001"
         y="26"
         id="tspan56">независимого аудита финансовой отчетности, контро</tspan></text><text
       transform="matrix(1,0,0,-1,612.48,771.8201)"
       style="font-variant:normal;font-weight:300;font-stretch:normal;font-size:20px;font-family:'Rubik Light';-inkscape-font-specification:Rubik-Light;writing-mode:lr-tb;fill:#000000;fill-opacity:1;fill-rule:nonzero;stroke:none"
       id="text62"><tspan
         x="0"
         y="0"
         id="tspan60">-</tspan></text><text
       transform="matrix(1,0,0,-1,99,745.8201)"
       style="font-variant:normal;font-weight:300;font-stretch:normal;font-size:20px;font-family:'Rubik Light';-inkscape-font-specification:Rubik-Light;writing-mode:lr-tb;fill:#000000;fill-opacity:1;fill-rule:nonzero;stroke:none"
       id="text68"><tspan
         x="0 11.22 22.139999 27.299999 37.139999 47.860001 53.02 64.639999 75.360001 86.699997 97.860001 107.8 118.96 130.88 136.03999 146.75999 158.67999 169.39999 179.34 190.25999 203.53999 216.72 221.88 232.72 244.64 255.22 265.16 276.78 287.70001 299.62 311.54001 322.45999 330.82001 341.98001 347.14001 357.85999 368.44 379.95999 391.88 401.82001 412.54001 417.28 422.44 433.16 438.32001 448.26001 458.98001 469.10001 484.07999 495"
         y="0"
         id="tspan64">ле за работой системы внутреннего аудита, а также </tspan><tspan
         x="0 9.8400002 20.559999 25.719999 36.439999 47.599998 58.939999 70.160004 85.419998 96.940002 107.86 119.78 131.7 142.62 155.89999 161.06 173.34 184.5 197.78 209.3 220.02 231.94 243.86 254.78 266.70001 271.85999 281.79999 293.42001 304.34 315.67999 326.84 337.67999 348.39999 360.32001 372.23999 384.16 389.32001 399.16 409.88 420 431.16 443.07999 454.23999 465.76001 476.48001 486.42001 497.34 508.56"
         y="26"
         id="tspan66">за соблюдением Компанией требований законодатель</tspan></text><text
       transform="matrix(1,0,0,-1,617.08,719.8201)"
       style="font-variant:normal;font-weight:300;font-stretch:normal;font-size:20px;font-family:'Rubik Light';-inkscape-font-specification:Rubik-Light;writing-mode:lr-tb;fill:#000000;fill-opacity:1;fill-rule:nonzero;stroke:none"
       id="text72"><tspan
         x="0"
         y="0"
         id="tspan70">-</tspan></text><text
       transform="matrix(1,0,0,-1,99,693.8201)"
       style="font-variant:normal;font-weight:300;font-stretch:normal;font-size:20px;font-family:'Rubik Light';-inkscape-font-specification:Rubik-Light;writing-mode:lr-tb;fill:#000000;fill-opacity:1;fill-rule:nonzero;stroke:none"
       id="text78"><tspan
         x="0 10.72 20.66 31.5 42.220001 46.959999 52.119999 64.040001 75.199997 86.82 100.1 110.82 120.76 132.67999 143.52 155.44 168.62 178.98 184.14 194.86 204.98 214.92 226.08 236.92 241.66 246.82001 258.44 269.35999 277.72 288.29999 299.51999 309.89999 319.84 331 342.62 354.54001 367.72 378.07999 383.23999 393.95999 403.89999 414.62 426.54001 438.06 448.78 460.39999 470.34 481.5 492.34"
         y="0"
         id="tspan74">ства, нормативных актов, регуляторных стандартов </tspan><tspan
         x="0 11.92 17.08 27.02 38.639999 49.560001 60.900002 72.059998 82.900002 93.620003 105.54 117.46 129.38 134.53999 145.38 150.53999 161.7 173.03999 184.25999 194.98 205.7 215.64 227.56 232.72 244.24001 255.39999 266.92001 275.28 286.44 296.38 307.54001 318.38 328.5 340.42001 345.57999 359.16 371.07999 383 393.72 405.64001 416.35999 427.51999 438.35999 449.51999 461.44 466.60001 477.76001 487.70001 498.23999 509.16"
         y="26"
         id="tspan76">и требований в области подготовки финансовой отчет</tspan></text><text
       transform="matrix(1,0,0,-1,618.1,667.8201)"
       style="font-variant:normal;font-weight:300;font-stretch:normal;font-size:20px;font-family:'Rubik Light';-inkscape-font-specification:Rubik-Light;writing-mode:lr-tb;fill:#000000;fill-opacity:1;fill-rule:nonzero;stroke:none"
       id="text82"><tspan
         x="0"
         y="0"
         id="tspan80">-</tspan></text><text
       transform="matrix(1,0,0,-1,99,641.8201)"
       style="font-variant:normal;font-weight:300;font-stretch:normal;font-size:20px;font-family:'Rubik Light';-inkscape-font-specification:Rubik-Light;writing-mode:lr-tb;fill:#000000;fill-opacity:1;fill-rule:nonzero;stroke:none"
       id="text92"><tspan
         x="0 11.92 23.08 33.799999 43.740002 55.66 60.400002 65.559998 76.480003 87.400002 92.559998 103.28 113.86 125.38 137.3 147.24001 157.96001 162.7 167.86 178.7 189.62 201.14 212.06 223.98 235.89999 246.28 251.44 262.78 273.35999 283.72 292.07999 302.79999 314.01999 323.95999 334.88 346.5 358.42001 370.34 375.5 387.42001 392.57999 403.16 413.70001 424.62 434.56 445.28"
         y="0"
         id="tspan84">ности, ее аудита, ведения бухгалтерии и учета.</tspan><tspan
         x="0 13.52 24.440001 34.82 44.759998 55.68 66.900002 76.419998 88.339996 99.5 110.22 120.16 129.67999 134.84 147.12 158.28 171.56 183.48 193.42 204.34 214.28 225 229.74001 234.89999 245.82001 254.17999 265.34 270.5 280.62 291.78 305.06 316.57999 327.5 337.44 348.35999 360.28 372.29999 384.22 394.60001 399.76001 411.67999 416.84 430.42001 441 452.92001 463.04001 475.06 486.98001 498.89999 503.64001"
         y="39"
         id="tspan86">Деятельность Комитета, его компетенция и функции, </tspan><tspan
         x="0 11.52 23.139999 34.299999 46.32 57.240002 68.760002 79.339996 90.959999 101.68 106.84 117.56 128.72 138.56 151.74001 162.58 173.3 178.46001 190.38 195.53999 207.06 218.67999 229.84 240.67999 251.60001 263.12 274.04001 285.95999 297.88 308.26001 313.42001 323.26001 333.98001 344.70001 355.62 367.14001 377.85999 389.78 401.70001 413.62 418.35999 423.51999 434.23999 439.39999 449.34 460.06 470.17999 485.16 496.07999"
         y="65"
         id="tspan88">процедура созыва и проведения заседаний, а также </tspan><tspan
         x="0 11.52 23.139999 33.860001 44.700001 55.419998 60.580002 72.5 77.660004 88.82 100.16 110.54 120.38 131.10001 143.02 154.94 166.10001 176.82001 186.75999 198.67999 203.84 214.75999 223.12 234.28 239.44 249.98 261.20001 272.12 284.04001 295.20001 306.04001 311.20001 322.35999 333.88 345.5 356.42001 367.94 378.85999 390.07999 401 412.92001 426.10001 431.26001 442.10001 447.26001 461.26001 472.42001 483.64001"
         y="91"
         id="tspan90">права и обязанности его членов определены в Поло</tspan></text><text
       transform="matrix(1,0,0,-1,593.8,550.8201)"
       style="font-variant:normal;font-weight:300;font-stretch:normal;font-size:20px;font-family:'Rubik Light';-inkscape-font-specification:Rubik-Light;writing-mode:lr-tb;fill:#000000;fill-opacity:1;fill-rule:nonzero;stroke:none"
       id="text96"><tspan
         x="0"
         y="0"
         id="tspan94">-</tspan></text><text
       transform="matrix(1,0,0,-1,99,524.8201)"
       style="font-variant:normal;font-weight:300;font-stretch:normal;font-size:20px;font-family:'Rubik Light';-inkscape-font-specification:Rubik-Light;writing-mode:lr-tb;fill:#000000;fill-opacity:1;fill-rule:nonzero;stroke:none"
       id="text102"><tspan
         x="0 14.98 25.9 37.82 49.740002 61.66 66.82 77.980003 83.139999 95.419998 106.58 119.86 131.78 141.72 152.64 162.58 173.5 178.66 190.17999 201.34 206.5 217.22 227.8 239.32001 251.24001 261.17999 271.76001 276.92001 289.94 301.10001 311.94 322.85999 332.79999 343.51999 348.67999 360.20001 372.12 383.73999 394.66 404.78 414.72 425.88 437.5 448.66 459.5 464.66 478.66 488.76001 501.04001 505.79999"
         y="0"
         id="tspan98">жении о Комитете по аудиту Совета директоров ПГК. </tspan><tspan
         x="0 13.06 18.219999 30.139999 45.400002 57.32 68.239998 73.400002 84.599998 96.919998 108.12 120.44 125.6 133.96001 145.12 156.64 167.36 172.52 185.53999 196.7 207.53999 218.46001 228.39999 239.56 252.84 258 269.51999 281.44 293.06 303.98001 314.10001 324.04001 335.20001 346.82001 357.98001 368.82001 373.98001 384.56 394.5 405.34 416.26001 427.88 442.85999 454.38 465.29999 477.22 487.94 493.10001 505.01999"
         y="26"
         id="tspan100">В июне 2020 года Советом директоров утверждена но</tspan></text><text
       transform="matrix(1,0,0,-1,615.18,498.8201)"
       style="font-variant:normal;font-weight:300;font-stretch:normal;font-size:20px;font-family:'Rubik Light';-inkscape-font-specification:Rubik-Light;writing-mode:lr-tb;fill:#000000;fill-opacity:1;fill-rule:nonzero;stroke:none"
       id="text106"><tspan
         x="0"
         y="0"
         id="tspan104">-</tspan></text><text
       transform="matrix(1,0,0,-1,99,472.8201)"
       style="font-variant:normal;font-weight:300;font-stretch:normal;font-size:20px;font-family:'Rubik Light';-inkscape-font-specification:Rubik-Light;writing-mode:lr-tb;fill:#000000;fill-opacity:1;fill-rule:nonzero;stroke:none"
       id="text112"><tspan
         x="0 10.84 21.559999 31.940001 37.099998 48.720001 59.639999 71.160004 81.879997 92 104.02 115.94 126.32 131.48 145.48 156.64 167.86 179.02 194 204.92 216.84 228.75999 239.14 244.3 255.46001 260.62 272.89999 284.06 297.34 309.26001 319.20001 330.12 340.06 350.98001 355.72 360.88 372.5 383.22 393.06 404.67999 415.39999 426.73999 437.89999 447.84 458.56 470.48001 482.39999 493.12 503.5"
         y="0"
         id="tspan108">вая редакция Положения о Комитете, разработанная </tspan><tspan
         x="0 10.84 16 26.719999 37.880001 49.040001 58.98 69.82 80.739998 90.68 101.4 111.34 122.18 134.10001 146.02 151.17999 161.89999 167.06 178.67999 189.60001 199.72 210.88 224.16 235.08 247 258.51999 269.23999 281.26001 293.17999 303.56 316.84 328.76001 333.92001 346.20001 357.35999 368.88 379.79999 389.92001 400.64001 411.35999 416.51999 426.64001 437.79999 449.42001 460.94 472.10001 483.72"
         y="26"
         id="tspan110">в соответствии с рекомендациями Кодекса корпора</tspan></text><text
       transform="matrix(1,0,0,-1,593.44,446.8201)"
       style="font-variant:normal;font-weight:300;font-stretch:normal;font-size:20px;font-family:'Rubik Light';-inkscape-font-specification:Rubik-Light;writing-mode:lr-tb;fill:#000000;fill-opacity:1;fill-rule:nonzero;stroke:none"
       id="text116"><tspan
         x="0"
         y="0"
         id="tspan114">-</tspan></text><text
       transform="matrix(1,0,0,-1,99,420.8201)"
       style="font-variant:normal;font-weight:300;font-stretch:normal;font-size:20px;font-family:'Rubik Light';-inkscape-font-specification:Rubik-Light;writing-mode:lr-tb;fill:#000000;fill-opacity:1;fill-rule:nonzero;stroke:none"
       id="text122"><tspan
         x="0 9.9399996 21.860001 32.700001 44.619999 55.779999 64.139999 75.300003 80.459999 91.040001 102.56 114.18 124.9 135.74001 146.96001 157.88 169.8 181.72 192.10001 197.25999 209.17999 214.34 228.34 239.96001 250.67999 261.51999 273.44 284.66 295.38 308.66 320.57999 325.73999 336.95999 348.88 359.60001 369.54001 381.45999 393.38 401.73999 412.45999 417.62 433.22 444.38 455.10001 465.22 476.38 487.22 497.94 508.06 519.21997 531.14001"
         y="0"
         id="tspan118">тивного управления и Правилами листинга Московской </tspan><tspan
         x="0 12.64 24.559999 36.18 51.16 63.080002 67.839996 73 87 98.160004 109.38 120.54 135.52 146.44 158.36 170.28 181.2 186.36 196.94 207.66 217.60001 228.32001 240.24001 250.96001 261.79999 273.01999 284.94 295.78 306.5 317.42001 327.35999 332.51999 342.45999 354.07999 365 376.34 387.5 398.34 409.06 420.98001 432.89999 443.28 448.44 458.56 463.72 474.44 485.60001 496.32001 506.26001"
         y="26"
         id="tspan120">Биржи. Положение устанавливает требования к соста</tspan></text><text
       transform="matrix(1,0,0,-1,615.98,394.8201)"
       style="font-variant:normal;font-weight:300;font-stretch:normal;font-size:20px;font-family:'Rubik Light';-inkscape-font-specification:Rubik-Light;writing-mode:lr-tb;fill:#000000;fill-opacity:1;fill-rule:nonzero;stroke:none"
       id="text126"><tspan
         x="0"
         y="0"
         id="tspan124">-</tspan></text><text
       transform="matrix(1,0,0,-1,99,368.8201)"
       style="font-variant:normal;font-weight:300;font-stretch:normal;font-size:20px;font-family:'Rubik Light';-inkscape-font-specification:Rubik-Light;writing-mode:lr-tb;fill:#000000;fill-opacity:1;fill-rule:nonzero;stroke:none"
       id="text130"><tspan
         x="0 10.84 21.42 26.58 38.860001 50.02 63.299999 75.220001 85.160004 96.080002 106.02 116.74 121.56 126.72 137.88 149.8 154.96001 166.48 177.64 188.86 203.84 214.75999 226.67999 231.84 242.56 253.72 264.44 274.38 285.54001 295.92001 305.85999 315.38 320.54001 332.45999 342.29999 347.45999 359.38 370.29999 380.14001 390.85999 401.70001 413.62 424.34 436.26001 449.54001 462.72 473.07999 478.23999 489.76001"
         y="0"
         id="tspan128">ву Комитета: он должен состоять из независимых ди</tspan></text><text
       transform="matrix(1,0,0,-1,600.68,368.8201)"
       style="font-variant:normal;font-weight:300;font-stretch:normal;font-size:20px;font-family:'Rubik Light';-inkscape-font-specification:Rubik-Light;writing-mode:lr-tb;fill:#000000;fill-opacity:1;fill-rule:nonzero;stroke:none"
       id="text134"><tspan
         x="0"
         y="0"
         id="tspan132">-</tspan></text><text
       transform="matrix(1,0,0,-1,99,342.8201)"
       style="font-variant:normal;font-weight:300;font-stretch:normal;font-size:20px;font-family:'Rubik Light';-inkscape-font-specification:Rubik-Light;writing-mode:lr-tb;fill:#000000;fill-opacity:1;fill-rule:nonzero;stroke:none"
       id="text140"><tspan
         x="0 11.62 22.540001 32.66 42.599998 53.759998 65.379997 76.540001 87.379997 92.540001 104.46 115.68 127.6 132.34 137.5 148.42 159.14 170.36 182.28 187.44 198.16 209.32001 220.66 231.88 247.14 258.66 269.57999 281.5 293.42001 304.34 309.5 321.01999 331.73999 343.66 355.57999 366.73999 375.10001 386.26001 391.42001 401.35999 412.98001 423.89999 435.23999 446.39999 457.23999 467.95999 479.88 491.79999 502.17999"
         y="0"
         id="tspan136">ректоров или, если соблюдение данного требования </tspan><tspan
         x="0 11.92 22.84 33.68 44.84 54.68 67.959999 79.120003 94.099998 106.02 117.18 122.34 133.17999 138.34 149.06 160.98 172.2 182.78 187.94 199.10001 210.44 221.22 232.14 242.25999 252.2 264.12 274.95999 286.88 300.06 310.42001 315.57999 327.10001 338.72 350.64001 361.17999 373.10001 385.01999 390.17999 405.51999 410.67999 422.01999 433.17999 444.39999 453.92001 469.29999 481.22"
         y="26"
         id="tspan138">невозможно в силу объективных причин — большин</tspan></text><text
       transform="matrix(1,0,0,-1,592.14,316.8201)"
       style="font-variant:normal;font-weight:300;font-stretch:normal;font-size:20px;font-family:'Rubik Light';-inkscape-font-specification:Rubik-Light;writing-mode:lr-tb;fill:#000000;fill-opacity:1;fill-rule:nonzero;stroke:none"
       id="text144"><tspan
         x="0"
         y="0"
         id="tspan142">-</tspan></text><text
       transform="matrix(1,0,0,-1,99,290.8201)"
       style="font-variant:normal;font-weight:300;font-stretch:normal;font-size:20px;font-family:'Rubik Light';-inkscape-font-specification:Rubik-Light;writing-mode:lr-tb;fill:#000000;fill-opacity:1;fill-rule:nonzero;stroke:none"
       id="text156"><tspan
         x="0 10.72 20.66 31.5 42.66 47.82 59.740002 69.580002 74.739998 85.279999 97.199997 107.92 119.14 129.86 135.02 146.94 156.78 168.12 179.74001 190.46001 202.38 214.3 227.48 237.84 243 253.53999 264.76001 275.67999 287.60001 298.76001 309.60001 314.76001 327.04001 338.20001 351.48001 363.39999 373.34 384.26001 394.20001 404.92001 410.07999 421.60001 432.76001 443.98001 458.95999 470.88 484.06 489.22 500.56 513.73999 523.67999 533.20001"
         y="0"
         id="tspan146">ство из числа избранных членов Комитета должны быть </tspan><tspan
         x="0 11.92 22.84 32.68 43.400002 54.240002 66.160004 76.879997 88.800003 102.08 115.26 128.53999 140.46001 145.62 157.14 169.06 180.67999 191.60001 201.72 211.66 222.82001 234.44 245.16 258.44 270.35999"
         y="26"
         id="tspan148">независимыми директорами.</tspan><tspan
         x="0 11.64 16.799999 30.08 40.799999 51.18 56.34 67.540001 79.860001 91.059998 103.38 108.54 116.9 128.06 139.58 150.3 155.46001 168.48 179.64 190.48 201.39999 211.34 216.5 228.02 239.94 251.56 262.48001 272.60001 282.54001 293.70001 305.32001 316.48001 327.32001 332.48001 346.48001 356.57999 368.85999 374.01999 384.73999 398.32001 409.48001 421.10001 434.38 446.29999 457.92001 469.07999 479.92001 490.64001 501.85999"
         y="65"
         id="tspan150">6 мая 2020 года Совет директоров ПГК сформировал </tspan><tspan
         x="0 12.28 23.440001 36.720001 48.639999 58.580002 69.5 79.440002 84.599998 96.120003 107.28 112.44 123.16 133.74001 145.25999 157.17999 167.12 177.7 182.86 193.7 198.86 208.98 220.14 231.36 243.28 253.82001 264.73999 275.45999 285.39999 296.23999 307.16 312.32001 323.84 329 339.54001 350.45999 361.67999 372.84 383.67999 394.60001 404.72 409.88 421.79999 431.64001 436.79999 447.34 459.26001 469.98001 481.20001 491.92001"
         y="91"
         id="tspan152">Комитет по аудиту в количестве 3 человек из числа </tspan><tspan
         x="0 10.54 21.76 32.68 44.599998 55.759998 66.599998 71.760002 84.779999 95.940002 106.78 117.7 127.64 138.36 143.52 155.03999 166.96001 178.58 189.5 199.62 209.56 220.72 232.34 243.5 254.34 259.07999 264.23999 275.07999 285.20001 296.42001 311.67999 322.22 334.14001 344.98001 350.14001 360.98001 366.14001 378.06 388.98001 397.34 408.5 413.66 425.17999 436.01999 446.60001 456.95999 462.12 474.04001 484.95999 494.79999"
         y="117"
         id="tspan154">членов Совета директоров, включив в него двух неза</tspan></text><text
       transform="matrix(1,0,0,-1,604.52,173.8201)"
       style="font-variant:normal;font-weight:300;font-stretch:normal;font-size:20px;font-family:'Rubik Light';-inkscape-font-specification:Rubik-Light;writing-mode:lr-tb;fill:#000000;fill-opacity:1;fill-rule:nonzero;stroke:none"
       id="text160"><tspan
         x="0"
         y="0"
         id="tspan158">-</tspan></text><text
       transform="matrix(1,0,0,-1,99,147.8201)"
       style="font-variant:normal;font-weight:300;font-stretch:normal;font-size:20px;font-family:'Rubik Light';-inkscape-font-specification:Rubik-Light;writing-mode:lr-tb;fill:#000000;fill-opacity:1;fill-rule:nonzero;stroke:none"
       id="text164"><tspan
         x="0 10.84 22.76 33.48 45.400002 58.68 71.860001 82.220001 87.379997 98.900002 110.82 122.44 133.36 143.48 153.42 164.58 176.2 187.36 198.2 203.36 218.7 223.86 239.46001 250.17999 261.79999 271.92001 282.64001 287.79999 301.04001 311.16 322.07999 332.79999 342.54001 355.60001 366.76001 378.67999 389.39999 400.32001 412.23999 417.39999 429.32001 434.48001 447.48001 459.39999 470.12 480.84 490.78"
         y="0"
         id="tspan162">висимых директоров — Марка Окес-Войсей и Анаста</tspan></text><text
       transform="matrix(1,0,0,-1,600.5,147.8201)"
       style="font-variant:normal;font-weight:300;font-stretch:normal;font-size:20px;font-family:'Rubik Light';-inkscape-font-specification:Rubik-Light;writing-mode:lr-tb;fill:#000000;fill-opacity:1;fill-rule:nonzero;stroke:none"
       id="text168"><tspan
         x="0"
         y="0"
         id="tspan166">-</tspan></text><text
       transform="matrix(1,0,0,-1,99,121.8201)"
       style="font-variant:normal;font-weight:300;font-stretch:normal;font-size:20px;font-family:'Rubik Light';-inkscape-font-specification:Rubik-Light;writing-mode:lr-tb;fill:#000000;fill-opacity:1;fill-rule:nonzero;stroke:none"
       id="text172"><tspan
         x="0 10.72 22.639999 37.900002 43.060001 56.66 67.379997 77.959999 87.900002 98.82 110.44 121.78 132.5 142.86 147.62 152.78 165.84 177 186.84 195.2 206.42 217.14 227.98 239.89999 251.12 256.28 268.56 279.72 293 304.92001 314.85999 325.78 335.72 340.88 352.79999 363.72 373.56 384.28 395.12 407.04001 417.76001 429.67999 442.95999 456.14001 468.06 473.22 484.73999"
         y="0"
         id="tspan170">сию Лаутербах. Возглавил Комитет независимый ди</tspan></text><text
       transform="matrix(1,0,0,-1,595.66,121.8201)"
       style="font-variant:normal;font-weight:300;font-stretch:normal;font-size:20px;font-family:'Rubik Light';-inkscape-font-specification:Rubik-Light;writing-mode:lr-tb;fill:#000000;fill-opacity:1;fill-rule:nonzero;stroke:none"
       id="text176"><tspan
         x="0"
         y="0"
         id="tspan174">-</tspan></text><text
       transform="matrix(1,0,0,-1,99,95.8201)"
       style="font-variant:normal;font-weight:300;font-stretch:normal;font-size:20px;font-family:'Rubik Light';-inkscape-font-specification:Rubik-Light;writing-mode:lr-tb;fill:#000000;fill-opacity:1;fill-rule:nonzero;stroke:none"
       id="text180"><tspan
         x="0 11.62 22.540001 32.66 42.599998 53.759998 65.379997 70.540001 86.139999 96.860001 108.48 118.6 123.76 137 147.12 158.03999 168.75999 178.5 191.56 202.72 214.64 225.36 236.28 248.2"
         y="0"
         id="tspan178">ректор Марк Окес-Войсей.</tspan></text><text
       transform="matrix(1,0,0,-1,693,961.3001)"
       style="font-variant:normal;font-weight:500;font-stretch:normal;font-size:20px;font-family:'Rubik Medium';-inkscape-font-specification:Rubik-Medium;writing-mode:lr-tb;fill:#000000;fill-opacity:1;fill-rule:nonzero;stroke:none"
       id="text184"><tspan
         x="0 13.68 25.52 36.939999 47.540001 58.959999 70.620003 75.199997 88.599998 100.44 114.5 126.96 137.56 149.10001 159.7 171.12 175.7 187.92 199.75999 204.34 215.75999 227.16 239.72 252.17999 262.78"
         y="0"
         id="tspan182">Состав Комитета по аудиту</tspan></text><text
       transform="matrix(1,0,0,-1,693,935.3001)"
       style="font-variant:normal;font-weight:500;font-stretch:normal;font-size:20px;font-family:'Rubik Medium';-inkscape-font-specification:Rubik-Medium;writing-mode:lr-tb;fill:#000000;fill-opacity:1;fill-rule:nonzero;stroke:none"
       id="text190"><tspan
         x="0 11.42 16 29.139999 38.400002 43.540001 56.68 65.940002 71.300003 83.68 96.82 109.2 122.34 126.92 139.14 150.98 155.56 168.7 180.95799 186.09801 199.23801 211.498 216.858 229.23801 242.37801 254.758"
         y="0"
         id="tspan186">с 01.01.2020 по 05.05.2020</tspan><tspan
         x="0 16.219999 27.639999 39.919998 51.34 55.919998 69.82 81.239998 92.779999 104.2 113.82 127.54 139.38 151.84 163.25999 174.8"
         y="39"
         id="tspan188">Марк Окес-Войсей</tspan></text><path
       d="m 882.928,902.96 h 18.692 v 11.496 h -18.692 z"
       style="fill:#f0f0f5;fill-opacity:1;fill-rule:nonzero;stroke:none"
       id="path192" /><text
       transform="matrix(1,0,0,-1,886.0757,906.1078)"
       style="font-variant:normal;font-weight:normal;font-stretch:normal;font-size:10px;font-family:Rubik;-inkscape-font-specification:Rubik-Regular;writing-mode:lr-tb;fill:#000000;fill-opacity:1;fill-rule:nonzero;stroke:none"
       id="text196"><tspan
         x="0 6.4000001"
         y="0"
         id="tspan194">нд</tspan></text><text
       transform="matrix(1,0,0,-1,693,870.3001)"
       style="font-variant:normal;font-weight:300;font-stretch:normal;font-size:20px;font-family:'Rubik Light';-inkscape-font-specification:Rubik-Light;writing-mode:lr-tb;fill:#000000;fill-opacity:1;fill-rule:nonzero;stroke:none"
       id="text200"><tspan
         x="0 14 25.620001 36.540001 48.060001 58.779999 69.699997 81.220001 91.940002 101.88 112.8 124.02 133.53999 138.7 150.98 162.14 175.42 187.34 197.28 208.2 218.14"
         y="0"
         id="tspan198">Председатель Комитета</tspan></text><text
       transform="matrix(1,0,0,-1,693,838.3001)"
       style="font-variant:normal;font-weight:500;font-stretch:normal;font-size:20px;font-family:'Rubik Medium';-inkscape-font-specification:Rubik-Medium;writing-mode:lr-tb;fill:#000000;fill-opacity:1;fill-rule:nonzero;stroke:none"
       id="text208"><tspan
         x="0 13.86 26.32 36.919998 48.759998 61.220001 65.800003 78.760002 90.18 100.78 116.08 128.36 139.89999"
         y="0"
         id="tspan202">Антон Батырев</tspan><tspan
         x="0 14.9 28.959999 41.419998 52.02 64.300003 76.760002 89.220001 93.800003 108.48 120.94 132.36 144.82001"
         y="32"
         id="tspan204">Дмитрий Лисин</tspan><tspan
         x="0 13.68 25.52 36.939999 47.540001 58.959999 70.620003 75.199997 88.599998 100.44 114.5 126.96 137.56 149.10001 159.7 171.12 175.7 187.92 199.75999 204.34 215.75999 227.16 239.72 252.17999 262.78"
         y="90.699997"
         id="tspan206">Состав Комитета по аудиту</tspan></text><text
       transform="matrix(1,0,0,-1,693,721.6001)"
       style="font-variant:normal;font-weight:500;font-stretch:normal;font-size:20px;font-family:'Rubik Medium';-inkscape-font-specification:Rubik-Medium;writing-mode:lr-tb;fill:#000000;fill-opacity:1;fill-rule:nonzero;stroke:none"
       id="text214"><tspan
         x="0 11.42 16 29.139999 41.68 46.82 59.959999 72.220001 77.580002 89.959999 103.1 115.48 128.62 133.2 145.42 157.25999 161.84 174.118 183.37801 187.418 196.67799 209.058 214.418 226.798 239.938 252.31799"
         y="0"
         id="tspan210">с 06.05.2020 по 31.12.2020</tspan><tspan
         x="0 16.219999 27.639999 39.919998 51.34 55.919998 69.82 81.239998 92.779999 104.2 113.82 127.54 139.38 151.84 163.25999 174.8"
         y="39"
         id="tspan212">Марк Окес-Войсей</tspan></text><path
       d="m 882.928,689.26 h 18.692 v 11.496 h -18.692 z"
       style="fill:#f0f0f5;fill-opacity:1;fill-rule:nonzero;stroke:none"
       id="path216" /><text
       transform="matrix(1,0,0,-1,886.0757,692.4079)"
       style="font-variant:normal;font-weight:normal;font-stretch:normal;font-size:10px;font-family:Rubik;-inkscape-font-specification:Rubik-Regular;writing-mode:lr-tb;fill:#000000;fill-opacity:1;fill-rule:nonzero;stroke:none"
       id="text220"><tspan
         x="0 6.4000001"
         y="0"
         id="tspan218">нд</tspan></text><text
       transform="matrix(1,0,0,-1,693,656.6002)"
       style="font-variant:normal;font-weight:300;font-stretch:normal;font-size:20px;font-family:'Rubik Light';-inkscape-font-specification:Rubik-Light;writing-mode:lr-tb;fill:#000000;fill-opacity:1;fill-rule:nonzero;stroke:none"
       id="text224"><tspan
         x="0 14 25.620001 36.540001 48.060001 58.779999 69.699997 81.220001 91.940002 101.88 112.8 124.02 133.53999 138.7 150.98 162.14 175.42 187.34 197.28 208.2 218.14"
         y="0"
         id="tspan222">Председатель Комитета</tspan></text><text
       transform="matrix(1,0,0,-1,693,624.6002)"
       style="font-variant:normal;font-weight:500;font-stretch:normal;font-size:20px;font-family:'Rubik Medium';-inkscape-font-specification:Rubik-Medium;writing-mode:lr-tb;fill:#000000;fill-opacity:1;fill-rule:nonzero;stroke:none"
       id="text228"><tspan
         x="0 13.86 26.32 37.740002 49.16 59.759998 71.18 82.599998 95.059998 106.54 111.12 125.8 137.22 148.62 159.22 170.75999 183.03999 194.98 206.39999"
         y="0"
         id="tspan226">Анастасия Лаутербах</tspan></text><path
       d="m 913.348,631.26 h 18.692 v 11.496 h -18.692 z"
       style="fill:#f0f0f5;fill-opacity:1;fill-rule:nonzero;stroke:none"
       id="path230" /><text
       transform="matrix(1,0,0,-1,916.4957,634.4079)"
       style="font-variant:normal;font-weight:normal;font-stretch:normal;font-size:10px;font-family:Rubik;-inkscape-font-specification:Rubik-Regular;writing-mode:lr-tb;fill:#000000;fill-opacity:1;fill-rule:nonzero;stroke:none"
       id="text234"><tspan
         x="0 6.4000001"
         y="0"
         id="tspan232">нд</tspan></text><text
       transform="matrix(1,0,0,-1,693,592.6002)"
       style="font-variant:normal;font-weight:500;font-stretch:normal;font-size:20px;font-family:'Rubik Medium';-inkscape-font-specification:Rubik-Medium;writing-mode:lr-tb;fill:#000000;fill-opacity:1;fill-rule:nonzero;stroke:none"
       id="text240"><tspan
         x="0 13.86 26.32 36.919998 48.759998 61.220001 65.800003 78.760002 90.18 100.78 116.08 128.36 139.89999"
         y="0"
         id="tspan236">Антон Батырев</tspan><tspan
         x="594 607.71997 612.29999 624.14001 634.73999 646.29999 657.84003 668.44 680.90002 692.73999 706.79999 711.38 723.59998 735.14001 747.41998 759.88 771.71997 784.28003 795.82001 800.40002 813.79999 825.64001 839.70001 852.15997 862.76001 874.29999 884.90002 896.73999"
         y="-368.70001"
         id="tspan238">В отчетном периоде Комитетом</tspan></text><text
       transform="matrix(1,0,0,-1,1287,935.3002)"
       style="font-variant:normal;font-weight:500;font-stretch:normal;font-size:20px;font-family:'Rubik Medium';-inkscape-font-specification:Rubik-Medium;writing-mode:lr-tb;fill:#000000;fill-opacity:1;fill-rule:nonzero;stroke:none"
       id="text244"><tspan
         x="0 11.94 27.24 39.299999 51.759998 56.34 68.620003 80.040001 91.459999 102.88 116.94 128.78 139.38 151.66 163.2 175.66 190.96001"
         y="0"
         id="tspan242">были рассмотрены:</tspan></text><text
       transform="matrix(1,0,0,-1,1287,896.3002)"
       style="font-variant:normal;font-weight:300;font-stretch:normal;font-size:20px;font-family:'Rubik Light';-inkscape-font-specification:Rubik-Light;writing-mode:lr-tb;fill:#000000;fill-opacity:1;fill-rule:nonzero;stroke:none"
       id="text278"><tspan
         x="0 7.96 12.72 18 30.639999 41.220001 51.580002 59.939999 70.660004 81.879997 91.82 102.74 114.36 125.08 135.2 145.92 156.3 161.46001 172.62 182.56 193.10001 204.02 213.96001 225.88 237.03999 247.75999 257.70001 267.22 271.95999 277.12 287.84 299 309.72 319.66 330.38 341.22 352.44 363.35999 375.28 387.20001 397.92001 408.29999"
         y="0"
         id="tspan246">1. Бухгалтерская отчетность, составленная </tspan><tspan
         x="18 28.84 34 44.720001 55.880001 67.040001 76.980003 87.82 98.739998 108.68 119.4 129.34 140.17999 152.10001 164.02 169.17999 179.89999 185.06 197.62 210.64 223.28 234.53999 239.7 251.62 256.78 272.38 285.39999 301.89999 315.14001 319.88 325.04001 335.88 341.04001 350.98001 362.14001 375.42001 380.57999 391.12 403.04001 413.76001 424.98001 435.89999"
         y="26"
         id="tspan248">в соответствии с РСБУ и МСФО, в том числе </tspan><tspan
         x="18 29.52 41.139999 52.299999 65.580002 76.5 91.480003 102.06 112 123.16 133.7 145.62 156.34 166.72 171.88 178.25999 188.10001 198.82001 209.53999 220.46001 231.98 242.7 254.62 266.54001 276.92001 282.07999 293.60001 305.22 316.38 327.22 338.38 349.89999 361.82001 373.04001 384.95999 395.67999 405.20001 410.35999 421.07999 426.23999 436.82001 447.35999 458.07999 468.79999 478.73999 490.66 501.57999 514.85999"
         y="52"
         id="tspan250">промежуточная (заседания проводились с участием </tspan><tspan
         x="18 29.92 40.84 50.68 61.400002 72.239998 84.160004 94.879997 106.8 120.08 131.24001 139.60001 150.75999 155.92 166.64 177.22 188.74001 200.66 210.60001 221.75999 233.38 244.10001"
         y="78"
         id="tspan252">независимого аудитора)</tspan><tspan
         x="0 11.2 15.96 18 30.280001 41 52.919998 64.440002 76.360001 87.879997 98.599998 108.54 119.12 130.74001 141.46001 146.62 157.46001 169.38 180.3 195.67999 207.60001 218.52 226.88 238.03999 243.2 253.92 264.5 276.01999 287.94 297.88 309.04001 320.66 331.38 336.54001 350.54001 360.64001 372.92001 378.07999 390 400.72 405.88 417.07999 429.39999 440.60001 452.92001 458.07999 466.44 477.60001 489.12 493.85999"
         y="108"
         id="tspan254">2. Кандидатура внешнего аудитора ПГК на 2020 год, </tspan><tspan
         x="18 28.719999 33.880001 43.82 54.540001 64.660004 79.639999 90.559998 95.720001 107.34 118.06 127.9 141.17999 152.10001 163.72 168.88 180.03999 191.56 202.78 213.5 223.44 236.62 241.78 252.7 261.06 272.22 277.38 287.95999 298.67999 309.89999 320.48001"
         y="134"
         id="tspan256">а также размер оплаты его услуг</tspan><tspan
         x="0 11.52 16.280001 18 29.84 44.82 55.740002 65.860001 76.699997 87.419998 99.040001 108.98 119.7 130.92 140.44 152.36 165.53999 176.46001 181.62 192.78 202.72 213.25999 224.17999 234.12 247.3 252.46001 263.62 268.78 280.39999 291.32001 301.16 311.73999 322.95999 332.48001 342.42001 353.14001 363.07999 373.79999 384.16 389.32001 400.84 411.76001 422.14001 432.07999 443 454.22 463.73999 475.66 486.82001 497.54001 507.48001 519.40002"
         y="164"
         id="tspan258">3. Ежеквартальные отчеты о результатах деятельности </tspan><tspan
         x="18 29.26 40.779999 52.400002 63.119999 73.959999 85.18 96.099998 108.02 119.94 130.32001 135.48 146.32001 158.24001 168.82001 178.75999 190.38 201.3 213.22 225.14 236.06 244.42 255.58 260.73999 271.45999 282.04001 293.56 305.48001 315.42001 326.14001 331.29999 343.22 348.38 359.89999 371.12 381.84 393.76001 406.94 412.10001 423.01999 431.38 442.54001"
         y="190"
         id="tspan260">Управления внутреннего аудита и планы его </tspan><tspan
         x="18 29.52 40.439999 50.82 60.759998 71.68 82.900002 92.419998 104.34 115.5 126.22 136.16"
         y="216"
         id="tspan262">деятельности</tspan><tspan
         x="0 11.52 16.280001 18 32 43.619999 54.779999 66.800003 77.720001 89.239998 99.82 111.44 122.16 127.32 138.16 150.08 160.66 170.60001 182.22 193.14 205.06 216.98 227.89999 236.25999 247.42 252.58 263.29999 273.88 285.39999 297.32001 307.26001 317.98001 323.14001 337.14001 347.23999"
         y="246"
         id="tspan264">4. Процедура внутреннего аудита ПГК</tspan><tspan
         x="0 11.22 15.98 18 31.24 41.18 51.720001 62.639999 72.580002 77.739998 89.260002 100.42 105.58 118.86 130.02 141.94 153.86 163.8 174.96001 186.58 198.5 210.42 218.78 229.36 234.52 246.14 258.06 268.78 278.89999 290.06 300.89999 306.06 317.98001 323.14001 336.42001 347.34 358.95999 370.12 381.64001 393.26001 405.17999 415.56 425.5 437.42001 447.79999 461.07999"
         y="276"
         id="tspan266">5. Отчет по мониторингу рисков и мероприятиям </tspan><tspan
         x="18 29.52 40.68 45.84 56.419998 67.940002 79.559998 90.279999 101.12 112.34 123.26 135.17999 147.10001 162.36 167.52 179.14 191.06 201.78 211.89999 222.62 235.89999"
         y="302"
         id="tspan268">по управлению рисками</tspan><tspan
         x="0 11.64 16.4 18 32.52 44.439999 58.02 69.18 80.800003 94.080002 104.8 116.82 128.74001 139.12 144.28 155.44 160.60001 171.44 182.66 194.58 204.96001 216.88 228.8 240.72 245.88 256 267.16 278.78 289.94 301.85999 312.57999 323.42001 335.34 346.95999 357.54001 368.26001 378.98001 384.14001 390.51999 403.54001 416.78 429.54001 434.56 448.10001 457.01401 464.974 475.754 482.134"
         y="332"
         id="tspan270">6. Информация о влиянии коронавируса (COVID-19) </tspan><tspan
         x="18 29.92 40.639999 45.799999 57.32 68.239998 78.620003 88.559998 99.480003 110.7 120.22 132.14 143.3 154.02 163.96001 173.48 178.64 192.64 202.74001"
         y="358"
         id="tspan272">на деятельность ПГК</tspan><tspan
         x="0 8.3599997 13.12 18 32 43.16 54 67.18 78.099998 83.260002 94.879997 105.8 117.32 128.03999 138.16 150.17999 162.10001 174.02 179.17999 193.17999 204.34 215.56 226.72 241.7 252.62 264.54001 276.45999 288.38 293.54001 304.70001 309.85999 322.14001 333.29999 346.57999 358.5 368.44 379.35999 389.29999 400.22 405.38 416.89999 428.06 433.22 443.94 454.51999 466.04001 477.95999 487.89999 498.48001"
         y="388"
         id="tspan274">7. Новые редакции Положений о Комитете по аудиту </tspan><tspan
         x="18 29.92 35.080002 46.34 57.860001 69.480003 80.199997 91.040001 102.26 113.18 125.1 137.02 148.94 154.10001 164.94 176.86 187.44 197.38 209 219.92 231.84 243.75999 254.67999 263.04001 274.20001 279.35999 290.07999 300.66 312.17999 324.10001 334.04001"
         y="414"
         id="tspan276">и Управлении внутреннего аудита</tspan></text><g
       id="g280"
       transform="translate(1287,216.0999)"><path
         d="M 0,0 H 451"
         style="fill:none;stroke:#f0f0f5;stroke-width:1;stroke-linecap:butt;stroke-linejoin:miter;stroke-miterlimit:10;stroke-dasharray:none;stroke-opacity:1"
         id="path282" /></g><g
       id="g284"
       transform="translate(1738,216.0999)"><path
         d="M 0,0 H 83"
         style="fill:none;stroke:#f0f0f5;stroke-width:1;stroke-linecap:butt;stroke-linejoin:miter;stroke-miterlimit:10;stroke-dasharray:none;stroke-opacity:1"
         id="path286" /></g><g
       id="g288"
       transform="translate(1287,173.3999)"><path
         d="M 0,0 H 451"
         style="fill:none;stroke:#f0f0f5;stroke-width:1;stroke-linecap:butt;stroke-linejoin:miter;stroke-miterlimit:10;stroke-dasharray:none;stroke-opacity:1"
         id="path290" /></g><g
       id="g292"
       transform="translate(1738,173.3999)"><path
         d="M 0,0 H 83"
         style="fill:none;stroke:#f0f0f5;stroke-width:1;stroke-linecap:butt;stroke-linejoin:miter;stroke-miterlimit:10;stroke-dasharray:none;stroke-opacity:1"
         id="path294" /></g><g
       id="g296"
       transform="translate(1287,130.7)"><path
         d="M 0,0 H 451"
         style="fill:none;stroke:#f0f0f5;stroke-width:1;stroke-linecap:butt;stroke-linejoin:miter;stroke-miterlimit:10;stroke-dasharray:none;stroke-opacity:1"
         id="path298" /></g><g
       id="g300"
       transform="translate(1738,130.7)"><path
         d="M 0,0 H 83"
         style="fill:none;stroke:#f0f0f5;stroke-width:1;stroke-linecap:butt;stroke-linejoin:miter;stroke-miterlimit:10;stroke-dasharray:none;stroke-opacity:1"
         id="path302" /></g><text
       transform="matrix(1,0,0,-1,1287,228.0999)"
       style="font-variant:normal;font-weight:500;font-stretch:normal;font-size:20px;font-family:'Rubik Medium';-inkscape-font-specification:Rubik-Medium;writing-mode:lr-tb;fill:#000000;fill-opacity:1;fill-rule:nonzero;stroke:none"
       id="text306"><tspan
         x="0 12.96 24.379999 34.98 50.279999 62.560001 74.099998 85.760002 90.339996 104.2 116.66 127.26 139.10001 151.56 156.14 171.34 182.75999 194.17999 205.60001 218.06 230.62 242.16 254.44 266.28 277.94 290.39999"
         y="0"
         id="tspan304">Батырев Антон Искандерович</tspan></text><text
       transform="matrix(1,0,0,-1,1767.54,228.0999)"
       style="font-variant:normal;font-weight:300;font-stretch:normal;font-size:20px;font-family:'Rubik Light';-inkscape-font-specification:Rubik-Light;writing-mode:lr-tb;fill:#000000;fill-opacity:1;fill-rule:nonzero;stroke:none"
       id="text310"><tspan
         x="0 11.64 16.799999 28.719999 38.560001 43.720001"
         y="0"
         id="tspan308">6 из 7</tspan></text><text
       transform="matrix(1,0,0,-1,1287,185.3999)"
       style="font-variant:normal;font-weight:500;font-stretch:normal;font-size:20px;font-family:'Rubik Medium';-inkscape-font-specification:Rubik-Medium;writing-mode:lr-tb;fill:#000000;fill-opacity:1;fill-rule:nonzero;stroke:none"
       id="text314"><tspan
         x="0 14.68 26.1 37.5 48.099998 59.639999 71.919998 83.860001 95.279999 106.56 111.14 125 137.46001 148.88 160.3 170.89999 182.32001 193.74001 206.2 217.67999 222.25999 235.98 248.44 259.85999 270.45999 282.29999 294.57999 306.42001 318.07999 330.54001"
         y="0"
         id="tspan312">Лаутербах Анастасия Викторовна</tspan></text><text
       transform="matrix(1,0,0,-1,1766.04,185.3999)"
       style="font-variant:normal;font-weight:300;font-stretch:normal;font-size:20px;font-family:'Rubik Light';-inkscape-font-specification:Rubik-Light;writing-mode:lr-tb;fill:#000000;fill-opacity:1;fill-rule:nonzero;stroke:none"
       id="text318"><tspan
         x="0 11.44 16.6 28.52 38.360001 43.52"
         y="0"
         id="tspan316">5 из 5</tspan></text><text
       transform="matrix(1,0,0,-1,1287,142.6999)"
       style="font-variant:normal;font-weight:500;font-stretch:normal;font-size:20px;font-family:'Rubik Medium';-inkscape-font-specification:Rubik-Medium;writing-mode:lr-tb;fill:#000000;fill-opacity:1;fill-rule:nonzero;stroke:none"
       id="text322"><tspan
         x="0 14.68 27.139999 38.560001 51.02 63.48 68.059998 82.959999 97.019997 109.48 120.08 132.36 144.82001 157.28 161.86 175.58 187.64 199.06 211.62 224.08 238.14 250.60001 262.88 274.72 286.38 298.84"
         y="0"
         id="tspan320">Лисин Дмитрий Владимирович</tspan></text><text
       transform="matrix(1,0,0,-1,1769.76,142.6999)"
       style="font-variant:normal;font-weight:300;font-stretch:normal;font-size:20px;font-family:'Rubik Light';-inkscape-font-specification:Rubik-Light;writing-mode:lr-tb;fill:#000000;fill-opacity:1;fill-rule:nonzero;stroke:none"
       id="text326"><tspan
         x="0 7.96 13.12 25.040001 34.880001 40.040001"
         y="0"
         id="tspan324">1 из 2</tspan></text><text
       transform="matrix(1,0,0,-1,1287,99.9999)"
       style="font-variant:normal;font-weight:500;font-stretch:normal;font-size:20px;font-family:'Rubik Medium';-inkscape-font-specification:Rubik-Medium;writing-mode:lr-tb;fill:#000000;fill-opacity:1;fill-rule:nonzero;stroke:none"
       id="text330"><tspan
         x="0 13.9 25.32 36.860001 48.279999 57.900002 71.620003 83.459999 95.919998 107.34 118.88 131.34 135.92 152.14 163.56 175.84 187.25999 191.84 206.74001 218.24001 229.89999 242.36 254.92 259.5 273.35999 285.42001 296.95999 308.38 319.79999 331.22 343.67999 356.23999 367.78"
         y="0"
         id="tspan328">Окес-Войсей Марк Дэвид Александер</tspan></text><text
       transform="matrix(1,0,0,-1,1769.44,99.9999)"
       style="font-variant:normal;font-weight:300;font-stretch:normal;font-size:20px;font-family:'Rubik Light';-inkscape-font-specification:Rubik-Light;writing-mode:lr-tb;fill:#000000;fill-opacity:1;fill-rule:nonzero;stroke:none"
       id="text334"><tspan
         x="0 9.7399998 14.9 26.82 36.66 41.82"
         y="0"
         id="tspan332">7 из 7</tspan></text><text
       transform="matrix(1,0,0,-1,1287,304.7999)"
       style="font-variant:normal;font-weight:500;font-stretch:normal;font-size:20px;font-family:'Rubik Medium';-inkscape-font-specification:Rubik-Medium;writing-mode:lr-tb;fill:#000000;fill-opacity:1;fill-rule:nonzero;stroke:none"
       id="text340"><tspan
         x="0 14.58 26.860001 39.32 51.779999 63.259998 73.860001 86.32 97.860001 102.44 114 126.06 137.60001 150.06 161.48 175.53999 188 192.58 205.98 217.82001 231.88 244.34 254.94 266.48001 277.07999 288.5 293.07999 304.48001 316.04001 327.45999 338.88 349.48001 361.94 373.42001"
         y="0"
         id="tspan336">Принятие членами Комитета участия </tspan><tspan
         x="0 11.66 16.24 26.940001 38.360001 49.779999 61.32 73.879997 85.300003 97.760002 110.22 121.7 132.98 137.56 149.22 153.8 166.17999 179.32001 191.7 204.84 209.42 218.32001 230.16 242.72"
         y="26"
         id="tspan338">в заседаниях в 2020 году</tspan></text><text
       transform="matrix(1,0,0,-1,693,474.6799)"
       style="font-variant:normal;font-weight:300;font-stretch:normal;font-size:20px;font-family:'Rubik Light';-inkscape-font-specification:Rubik-Light;writing-mode:lr-tb;fill:#000000;fill-opacity:1;fill-rule:nonzero;stroke:none"
       id="text362"><tspan
         x="0 16.5 27.08 39 49.119999 61.139999 73.059998 84.980003 90.139999 100.86 111.78 121.9 133.52 144.44 154.38 165.10001 176.72 187.10001 192.25999 204.53999 215.7 228.98 240.89999 250.84 261.76001 271.70001 282.42001 287.57999 298.42001 311.60001 323.12 334.28 345.5 357.42001 367.79999 379.01999 389.73999 394.89999 407.89999 419.82001 431.73999 442.45999"
         y="0"
         id="tspan342">Функции секретаря Комитета выполняла Анна </tspan><tspan
         x="0 12.84 28.219999 38.34 50.259998 62.18 72.900002 77.639999 82.800003 93.339996 104.56 115.48 127.4 132.56 145.56 156.28 167 178.16 190.17999 202.10001 212.82001 224.84 236.75999 248.67999 253.84 267.84 278.56 290.57999 302.5 313.66 325.57999 336.29999 347.51999 357.04001 368.95999 380.12 388.48001 399.64001"
         y="26"
         id="tspan344">Яшкина, член Ассоциации Национального </tspan><tspan
         x="0 11.16 22.5 33.279999 44.200001 55.720001 67.639999 79.559998 90.480003 102.4 114.32 124.7 129.86 139.98 151.14 162.75999 174.28 185.44 197.06 207.78 217.72 229.64 240.48 252.39999 265.57999 275.94 281.10001 291.82001 302.73999 312.85999 324.48001 335.39999 345.34 356.06 367.67999 378.60001 390.51999 395.67999 402.06 416.06 429.29999 441.57999 454.60001 460.98001 465.72"
         y="52"
         id="tspan346">объединения корпоративных секретарей (НОКС), </tspan><tspan
         x="0 10.84 22 37.380001 48.299999 59.82 75.199997 85.919998 96.300003 101.46 112.3 117.46 129.52 140.66 151.82001 163.34 172.258 180.218 192.53799 204.858 217.17799 222.338 233.95799 245.118 255.838 266.55801 278.478 290.39801 301.11801 311.23801 323.15799 333.51801 338.67801 351.95801 362.87799 374.798 385.71799 397.23801 412.21799 423.138 434.758 445.918 456.758 468.81799"
         y="78"
         id="tspan348">вошедшая в «Топ-1000 российских менеджеров» </tspan><tspan
         x="0 11.52 22.68 27.84 38.68 49.599998 61.220001 71.940002 83.860001 95.779999 100.94 113.94 124.66 135.38 146.53999 158.56 170.48 181.2 193.22 205.14 217.06 222.22 235.5 246.42 258.34 269.26001 280.78 295.76001 306.67999 318.29999 329.45999 340.29999 345.45999 358.01999 369.17999 379.89999 390.62 402.54001 414.45999"
         y="104"
         id="tspan350">по версии Ассоциации менеджеров России </tspan><tspan
         x="0 10.84 16 27.200001 39.52 47.48 59.119999 64.279999 72.639999 83.800003 95.32 105.9 110.64 115.8 127.72 138.44 148.98 159.7 170.92 180.44 192.36 204.28 214.39999 219.56 230.72 240.66 252.17999 263.10001 274.32001 285.04001 290.20001 300.32001 311.48001 323.10001 334.62 345.78 357.39999 368.12 378.06 389.98001 400.82001 412.73999 423.89999 432.26001 443.42001"
         y="130"
         id="tspan352">в 2016 году, начальник отдела корпоративного </tspan><tspan
         x="0 10.58 22.1 33.720001 44.439999 55.279999 66.5 77.419998 89.339996 101.26 111.64 116.8 130.8 140.89999 153.17999"
         y="156"
         id="tspan354">управления ПГК.</tspan><tspan
         x="0 13.06 18.219999 29.379999 39.32 49.860001 60.779999 70.720001 82.639999 93.800003 107.08 112.24 123.76 134.67999 146.3 158.22 169.38 180.89999 191.82001 196.98 208.32001 221.5 232.72 243.88 249.03999 260.56 272.17999 283.34 294.17999 305.10001 316.62 327.54001 339.45999 350.62 355.78 365.51999 370.67999 380.51999 391.23999 401.95999 412.88 424.39999 435.12 447.04001 458.95999 470.88"
         y="208"
         id="tspan356">В отчетном периоде было проведено 7 заседаний </tspan><tspan
         x="0 12.28 23.440001 36.720001 48.639999 58.580002 69.5 79.440002 90.160004 94.900002 100.06 110.9 121.62 132.53999 137.7 147.53999 158.25999 168.98 179.89999 191.42 202.14 214.06 225.98 236.36 241.52 253.03999 264.66 275.82001 286.66 297.82001 309.34 321.26001 332.48001 344.39999 355.12 364.64001 369.79999 380.95999 391.5 403.42001 414.57999"
         y="234"
         id="tspan358">Комитета, все заседания проводились очно </tspan><tspan
         x="0 10.84 16 29.58 40.740002 52.360001 65.639999 76.360001 86.300003 97.220001 102.38 113.22 125.14 136.66 147.58 158.74001 168.86 180.02 191.94 205.52 216.44 228.06 238.98 250.89999 262.92001 274.84 286.76001"
         y="260"
         id="tspan360">в формате видеоконференций.</tspan></text><path
       d="m 693,100 h 18.692 v 11.496 H 693 Z"
       style="fill:#f0f0f5;fill-opacity:1;fill-rule:nonzero;stroke:none"
       id="path364" /><text
       transform="matrix(1,0,0,-1,696.1478,103.1478)"
       style="font-variant:normal;font-weight:normal;font-stretch:normal;font-size:10px;font-family:Rubik;-inkscape-font-specification:Rubik-Regular;writing-mode:lr-tb;fill:#000000;fill-opacity:1;fill-rule:nonzero;stroke:none"
       id="text368"><tspan
         x="0 6.4000001"
         y="0"
         id="tspan366">нд</tspan></text><text
       transform="matrix(1,0,0,-1,716,100.4956)"
       style="font-variant:normal;font-weight:300;font-stretch:normal;font-size:16px;font-family:'Rubik Light';-inkscape-font-specification:Rubik-Light;writing-mode:lr-tb;fill:#000000;fill-opacity:1;fill-rule:nonzero;stroke:none"
       id="text372"><tspan
         x="0 12.272 16.4 25.936001 34.672001 42.543999 51.119999 59.792 69.328003 77.903999 87.440002 98.064003 108.608 118.144 122.272 131.48801 141.024 150.32001 159.056 167.15199 175.104 184.032"
         y="0"
         id="tspan370">— независимый директор</tspan></text><text
       transform="matrix(1,0,0,-1,37.5002,1023)"
       style="font-variant:normal;font-weight:300;font-stretch:normal;font-size:20px;font-family:'Rubik Light';-inkscape-font-specification:Rubik-Light;writing-mode:lr-tb;fill:#000000;fill-opacity:1;fill-rule:nonzero;stroke:none"
       id="text376"><tspan
         x="0 11.64 61.5 73.779999 84.940002 96.559998 108.08 119.24 130.86 141.58 151.52 163.44 174.28 186.2 197.36 208.28 213.44 224.02 235.53999 247.16 257.88 268.72 279.94 290.85999 302.78 314.70001"
         y="0"
         id="tspan374">68Корпоративное управление</tspan></text></g></svg>
