<?xml version="1.0" encoding="UTF-8" standalone="no"?>
<?xml-stylesheet type="text/css" href="main.css" ?>
<svg
   xmlns:dc="http://purl.org/dc/elements/1.1/"
   xmlns:cc="http://creativecommons.org/ns#"
   xmlns:rdf="http://www.w3.org/1999/02/22-rdf-syntax-ns#"
   xmlns:svg="http://www.w3.org/2000/svg"
   xmlns="http://www.w3.org/2000/svg"
   version="1.1"
   id="svg2"
   xml:space="preserve"
   width="2560"
   height="1440"
   viewBox="0 0 2560 1440"><metadata
     id="metadata8"><rdf:RDF><cc:Work
         rdf:about=""><dc:format>image/svg+xml</dc:format><dc:type
           rdf:resource="http://purl.org/dc/dcmitype/StillImage" /></cc:Work></rdf:RDF></metadata><defs
     id="defs6"><clipPath
       clipPathUnits="userSpaceOnUse"
       id="clipPath20"><path
         d="M 0,1080 H 1920 V 0 H 0 Z"
         id="path18" /></clipPath><clipPath
       clipPathUnits="userSpaceOnUse"
       id="clipPath256"><path
         d="M 0,1080 H 1920 V 0 H 0 Z"
         id="path254" /></clipPath></defs><g
     id="g10"
     transform="matrix(1.3333333,0,0,-1.3333333,0,1440)"><g
       id="g12"><g
         id="g14"><g
           id="g16"
           clip-path="url(#clipPath20)"><path
             d="M 0,0 H 1920 V 1080 H 0 Z"
             style="fill:#ffffff;fill-opacity:1;fill-rule:nonzero;stroke:none"
             id="path22" /></g></g></g><path
       d="M 0,893.4 H 1920 V 1080 H 0 Z"
       style="fill:#e8e8ed;fill-opacity:1;fill-rule:nonzero;stroke:none"
       id="path24" /><text
       transform="matrix(1,0,0,-1,99,953.4)"
       style="font-variant:normal;font-weight:normal;font-stretch:normal;font-size:38px;font-family:'Prosto One';-inkscape-font-specification:ProstoOne-Regular;writing-mode:lr-tb;fill:#000000;fill-opacity:1;fill-rule:nonzero;stroke:none"
       id="text28"><tspan
         x="0 32.68 64.599998 102.41 136.61 166.63 208.42999 239.59 272.84 305.51999 335.92001 349.22 383.42001 396.72 426.54999 458.09 485.07001 516.98999 548.15002 577.21997 590.52002 622.44 652.46002 683.62 714.02002 745.56 772.53998 804.46002 837.14001"
         y="0"
         id="tspan26">ИНФОРМАЦИЯ О ЧЛЕНАХ ПРАВЛЕНИЯ</tspan></text><text
       transform="matrix(1,0,0,-1,1425,960.4)"
       style="font-variant:normal;font-weight:500;font-stretch:normal;font-size:28px;font-family:'Rubik Medium';-inkscape-font-specification:Rubik-Medium;writing-mode:lr-tb;fill:#000000;fill-opacity:1;fill-rule:nonzero;stroke:none"
       id="text32"><tspan
         x="0 17.136 33.740002 40.124001 56.139999 72.744003 88.760002 103.628 120.232 136.36 153.832 171.304 194.71201 201.09599 218.56799 234.584 240.968 258.18521 271.17719 276.86121 289.85321 307.2132 314.74521 332.10519 350.55719 367.91721"
         y="0"
         id="tspan30">по состоянию на 31.12.2020</tspan></text><text
       transform="matrix(1,0,0,-1,453.008,807.072)"
       style="font-variant:normal;font-weight:normal;font-stretch:normal;font-size:28px;font-family:'Prosto One';-inkscape-font-specification:ProstoOne-Regular;writing-mode:lr-tb;fill:#000000;fill-opacity:1;fill-rule:nonzero;stroke:none"
       id="text38"><tspan
         x="0 30.66 54.18 77.139999 99.400002 109.2 129.08 151.48 169.96001 189.84 213.36 237.44 259.84"
         y="0"
         id="tspan34">ШПАК ЕВГЕНИЯ </tspan><tspan
         x="0 22.120001 44.52 66.919998 86.660004 111.86 133.98 157.22 180.17999 202.58 227.78 250.17999 273.70001"
         y="33.599998"
         id="tspan36">СВЯТОСЛАВОВНА</tspan></text><text
       transform="matrix(1,0,0,-1,435,721.4804)"
       style="font-variant:normal;font-weight:normal;font-stretch:normal;font-size:18px;font-family:Rubik;-inkscape-font-specification:Rubik-Regular;writing-mode:lr-tb;fill:#faaa2d;fill-opacity:1;fill-rule:nonzero;stroke:none"
       id="text42"><tspan
         x="0 6.8579998"
         y="0"
         id="tspan40">• </tspan></text><text
       transform="matrix(1,0,0,-1,453,721.4804)"
       style="font-variant:normal;font-weight:500;font-stretch:normal;font-size:20px;font-family:'Rubik Medium';-inkscape-font-specification:Rubik-Medium;writing-mode:lr-tb;fill:#000000;fill-opacity:1;fill-rule:nonzero;stroke:none"
       id="text50"><tspan
         x="0 10.72 22.16 36.240002 47.799999 59.240002 69.860001 82.339996 92.959999 104.418 116.498 127.118 131.67799 140.23801 151.798 164.278 175.838 188.118 199.558 211.638 222.258 234.73801 246.59801 255.336 267.19601 271.75601 284.336 296.81601 309.09601 320.65601 332.116 342.73599 354.59601 366.87601 378.31601"
         y="0"
         id="tspan44">заместитель Генерального директора </tspan><tspan
         x="0 12.24 24.1 28.66 40.900002 53.18 64.620003 76.32 88.18 99.879997 115.24 129.32001 133.88 145.58 157.44 169.67999 181.96001 193.82001 205.25999 216.7 230.78 235.34 250.53999 255.10001 267.57999 279.01999 290.60001 302.04001 314.12 324.73999 337.22 349.70001 361.16"
         y="26"
         id="tspan46">по правовым вопросам — начальник </tspan><tspan
         x="0 14.92 26.48 38.720001 50.16 62.439999 73.059998 84.5 98.580002 110.14 122.62 133.24001"
         y="52"
         id="tspan48">Департамента</tspan></text><text
       transform="matrix(1,0,0,-1,435,619.4803)"
       style="font-variant:normal;font-weight:normal;font-stretch:normal;font-size:18px;font-family:Rubik;-inkscape-font-specification:Rubik-Regular;writing-mode:lr-tb;fill:#faaa2d;fill-opacity:1;fill-rule:nonzero;stroke:none"
       id="text54"><tspan
         x="0 6.8579998"
         y="0"
         id="tspan52">• </tspan></text><text
       transform="matrix(1,0,0,-1,453,619.4803)"
       style="font-variant:normal;font-weight:300;font-stretch:normal;font-size:18px;font-family:'Rubik Light';-inkscape-font-specification:Rubik-Light;writing-mode:lr-tb;fill:#000000;fill-opacity:1;fill-rule:nonzero;stroke:none"
       id="text58"><tspan
         x="0 6.7319999 16.775999 27.143999 31.788 42.245998 52.290001 65.772003 76.139999 85.968002 96.695999 107.424 116.766 121.104 125.748 132.912 143.20799 151.974"
         y="0"
         id="tspan56">Год рождения: 1979</tspan></text><text
       transform="matrix(1,0,0,-1,435,595.4863)"
       style="font-variant:normal;font-weight:normal;font-stretch:normal;font-size:18px;font-family:Rubik;-inkscape-font-specification:Rubik-Regular;writing-mode:lr-tb;fill:#faaa2d;fill-opacity:1;fill-rule:nonzero;stroke:none"
       id="text62"><tspan
         x="0 6.8579998"
         y="0"
         id="tspan60">• </tspan></text><text
       transform="matrix(1,0,0,-1,453,595.4863)"
       style="font-variant:normal;font-weight:300;font-stretch:normal;font-size:18px;font-family:'Rubik Light';-inkscape-font-specification:Rubik-Light;writing-mode:lr-tb;fill:#000000;fill-opacity:1;fill-rule:nonzero;stroke:none"
       id="text72"><tspan
         x="0 11.754 16.398001 26.478001 37.566002 48.653999 55.818001 60.462002 67.769997 77.814003 88.181999 97.704002 102.348 112.392 121.05 131.09399 141.82201 151.308 162.036 172.134 181.782 186.42599 200.466 210.50999 220.158 228.81419 238.8582 248.6142 258.26221 267.37021 278.09821 288.8262"
         y="0"
         id="tspan64">В 2001 году окончила Московский </tspan><tspan
         x="0 7.3080001 17.351999 27 36.521999 46.889999 56.537998 66.996002 76.643997 85.589996 95.346001 105.174 115.902 126.63 138.492 149.22 153.864 163.386 174.114 184.842 194.59801 204.42599 214.884 224.532 235.25999 244.20599 254.034 262.98001"
         y="23.993999"
         id="tspan66">государственный университет </tspan><tspan
         x="0 10.728 22.68 26.964001 31.608 45.486 49.77 54.414001 66.167999 70.452003 75.096001 87.335999 97.379997 109.332 119.376 130.104 140.14799 149.79601 159.84 169.59599 179.244 183.528 188.172 201.24001 213.192 223.02 232.84801 241.79401 246.438 255.96001 265.44601 275.27399 286.00201 295.52399 309.258"
         y="47.987999"
         id="tspan68">им. М. В. Ломоносова. Имеет ученую </tspan><tspan
         x="0 9.6479998 18.594 28.422001 38.790001 48.618 59.346001 67.914001 72.557999 81.666 91.314003 102.042 112.41 123.138 133.506 143.15401 152.10001 161.748 166.392 180.12601 190.584 201.312 211.67999 222.408 231.894 241.722 251.37 260.478 271.20599 280.53 285.17401 295.90201 305.54999 315.07199 324.17999"
         y="71.982002"
         id="tspan70">степень кандидата юридических наук.</tspan></text><text
       transform="matrix(1,0,0,-1,435,499.5103)"
       style="font-variant:normal;font-weight:normal;font-stretch:normal;font-size:18px;font-family:Rubik;-inkscape-font-specification:Rubik-Regular;writing-mode:lr-tb;fill:#faaa2d;fill-opacity:1;fill-rule:nonzero;stroke:none"
       id="text76"><tspan
         x="0 6.8579998"
         y="0"
         id="tspan74">• </tspan></text><text
       transform="matrix(1,0,0,-1,453,499.5103)"
       style="font-variant:normal;font-weight:300;font-stretch:normal;font-size:18px;font-family:'Rubik Light';-inkscape-font-specification:Rubik-Light;writing-mode:lr-tb;fill:#000000;fill-opacity:1;fill-rule:nonzero;stroke:none"
       id="text82"><tspan
         x="0 11.754 16.398001 26.478001 37.566002 44.73 55.439999 60.084 67.391998 77.435997 87.804001 97.325996 101.97 112.698 122.346 131.832 141.48 151.578 161.226 165.87 176.328 185.976 196.18201 206.226 215.172 224.82001 233.76601 242.334 246.978 256.73401 261.37799 273.978 283.06799 294.12 298.76401 309.492 319.14001 323.784 334.15201 344.01239 354.11041 367.59241 378.3204 388.36441 398.01239 406.9584 417.6864"
         y="0"
         id="tspan78">В 2014 году начала работать в ПГК на должности </tspan><tspan
         x="0 10.728 20.375999 29.862 39.509998 49.608002 58.175999 68.903999 79.632004 88.739998 98.388 103.032 116.766 127.224 137.952 148.32001 159.048 168.534 178.362 188.00999 196.6662 206.71021 214.0182 224.06219 228.70621 240.87421 250.70219 261.07019 270.7182 281.17621 290.12219 299.7702 311.7222 321.5502 332.2782 341.22421 350.87219"
         y="23.993999"
         id="tspan80">начальника юридического Департамента.</tspan></text><text
       transform="matrix(1,0,0,-1,435,451.5223)"
       style="font-variant:normal;font-weight:normal;font-stretch:normal;font-size:18px;font-family:Rubik;-inkscape-font-specification:Rubik-Regular;writing-mode:lr-tb;fill:#faaa2d;fill-opacity:1;fill-rule:nonzero;stroke:none"
       id="text86"><tspan
         x="0 6.8579998"
         y="0"
         id="tspan84">• </tspan></text><text
       transform="matrix(1,0,0,-1,453,451.5223)"
       style="font-variant:normal;font-weight:300;font-stretch:normal;font-size:18px;font-family:'Rubik Light';-inkscape-font-specification:Rubik-Light;writing-mode:lr-tb;fill:#000000;fill-opacity:1;fill-rule:nonzero;stroke:none"
       id="text94"><tspan
         x="0 11.718 16.362 28.584 38.411999 48.167999 58.625999 68.274002 78.372002 87.713997 92.358002 102.438 113.526 120.69 131.814 136.45799 143.76421 153.8082 164.17619 173.8242 178.4682 192.2742 196.9182 205.7742 215.4222 227.37421 237.20219 246.8502 255.7962 266.5242 275.47021 285.2244 295.32239 303.89041"
         y="0"
         id="tspan88">С февраля 2018 года — заместитель </tspan><tspan
         x="0 6.7319999 16.559999 27.288 37.116001 47.574001 57.222 67.32 75.888 86.615997 96.660004 103.9662 114.0102 118.6542 129.0222 139.7502 150.20821 160.03619 169.1442 178.09019 188.1342 198.59219 208.2402 212.8842 225.48421 234.5742 245.62621 250.2702 260.63821 270.68219 275.3262 285.69421 296.15219 305.8002 315.55621 325.60019 335.3562 347.2182 359.1702"
         y="23.993999"
         id="tspan90">Генерального директора ПГК по правовым </tspan><tspan
         x="0 9.7559996 19.799999 30.167999 40.625999 50.669998 60.318001 69.966003 81.917999 86.561996 100.368 105.012 115.74 125.388 134.87399 144.522 154.62 163.188 173.916 184.644 193.752 198.396 210.564 220.392 230.75999 240.408 250.866 259.81201 269.45999 281.41199 291.23999 301.96799 310.914 320.56201"
         y="47.987999"
         id="tspan92">вопросам — начальник Департамента.</tspan></text><text
       transform="matrix(1,0,0,-1,435,379.5403)"
       style="font-variant:normal;font-weight:normal;font-stretch:normal;font-size:18px;font-family:Rubik;-inkscape-font-specification:Rubik-Regular;writing-mode:lr-tb;fill:#faaa2d;fill-opacity:1;fill-rule:nonzero;stroke:none"
       id="text98"><tspan
         x="0 6.8579998"
         y="0"
         id="tspan96">• </tspan></text><text
       transform="matrix(1,0,0,-1,453,379.5403)"
       style="font-variant:normal;font-weight:300;font-stretch:normal;font-size:18px;font-family:'Rubik Light';-inkscape-font-specification:Rubik-Light;writing-mode:lr-tb;fill:#000000;fill-opacity:1;fill-rule:nonzero;stroke:none"
       id="text104"><tspan
         x="0 11.556 21.312 31.41 40.751999 50.580002 59.526001 69.174004 78.515999 83.160004 92.646004 102.744 112.572 123.3 133.34399 145.29601 149.94 159.588 169.632 179.388 189.216 198.162 207.81 212.45399 222.82201 233.55 244.008 253.836 262.944 271.89001 281.93399 292.392 302.436 312.19199 316.836 328.53601 340.452"
         y="0"
         id="tspan100">Является членом совета директоров АО </tspan><tspan
         x="0 10.854 22.608 33.911999 46.512001 51.155998 62.009998 69.300003 79.758003 89.099998 97.956001 108.684 119.538 123.804 128.448 138.4182 144.4662 154.2942 158.3082 168.7662 179.26019 185.7222 190.3662 202.2822 212.90221 222.73019 227.37421 238.26421 247.9122 257.56021 268.18021 278.62021 282.63419 293.25421 302.75641 312.40439 316.4184 326.06641 330.71039 339.7644 346.22641 356.66641"
         y="23.993999"
         id="tspan102">«ВРП «Грязи», Freight One Scandinavia Ltd.</tspan></text><text
       transform="matrix(1,0,0,-1,435,331.5523)"
       style="font-variant:normal;font-weight:normal;font-stretch:normal;font-size:18px;font-family:Rubik;-inkscape-font-specification:Rubik-Regular;writing-mode:lr-tb;fill:#faaa2d;fill-opacity:1;fill-rule:nonzero;stroke:none"
       id="text108"><tspan
         x="0 6.8579998"
         y="0"
         id="tspan106">• </tspan></text><text
       transform="matrix(1,0,0,-1,453,331.5523)"
       style="font-variant:normal;font-weight:300;font-stretch:normal;font-size:18px;font-family:'Rubik Light';-inkscape-font-specification:Rubik-Light;writing-mode:lr-tb;fill:#000000;fill-opacity:1;fill-rule:nonzero;stroke:none"
       id="text112"><tspan
         x="0 12.168 22.032 32.130001 41.958 52.686001 57.330002 66.851997 76.337997 85.986 95.634003 104.58 115.308 124.65 129.29401 139.05 143.694 152.9082 162.5562 171.5022 181.15021 190.9062 201.6342 211.67821 223.6302 228.2742 237.3822 247.0302 257.39819 268.12619 277.0722 286.72021 296.81821 306.64621 311.29019 323.8902 332.98019 344.0322 348.67621 359.40421 369.23221 373.87619 384.60419 396.55621 406.38419 416.21219 425.1582"
         y="0"
         id="tspan110">Долей участия в уставном капитале ПГК не имеет.</tspan></text><text
       transform="matrix(1,0,0,-1,1107,816.4)"
       style="font-variant:normal;font-weight:500;font-stretch:normal;font-size:28px;font-family:'Rubik Medium';-inkscape-font-specification:Rubik-Medium;writing-mode:lr-tb;fill:#000000;fill-opacity:1;fill-rule:nonzero;stroke:none"
       id="text116"><tspan
         x="0 11.984 28.167999 45.639999 61.824001 79.015999 95.031998 111.944 126.812 144.284 165.78799 183.25999 189.644 207.256 224.728 241.92 258.104 274.14801 289.01599 305.62"
         y="0"
         id="tspan114">Генеральный директор</tspan></text><text
       transform="matrix(1,0,0,-1,1107,767)"
       style="font-variant:normal;font-weight:300;font-stretch:normal;font-size:20px;font-family:'Rubik Light';-inkscape-font-specification:Rubik-Light;writing-mode:lr-tb;fill:#000000;fill-opacity:1;fill-rule:nonzero;stroke:none"
       id="text130"><tspan
         x="0 13.06 18.219999 30.139999 41.060001 52.580002 64.199997 75.360001 86.080002 96.019997 107.18 120.46 125.62 136.82001 149.14 160.34 172.66 177.82001 185.938 197.09801 208.618 219.198 224.358 235.59801 246.17799 255.798 266.95801 277.798 288.95801 300.478 311.198 321.138 331.978 342.55801 347.71799 359.396 370.556 383.836 395.35599 406.07599 417.996 429.91599 441.836 446.996 457.836 468.996 474.15601 481.996 493.216 503.936 514.776 525.69598 530.85602 541.57599 546.73602 554.21399 565.13397 577.05402 587.974 599.59399 610.31403 621.534 631.05402 642.974 656.15399 669.43402"
         y="0"
         id="tspan118">В непростом 2020 году руководству Компании во главе с Генеральным </tspan><tspan
         x="0 11.52 23.440001 35.060001 45.98 56.099998 66.040001 77.199997 88.82 99.980003 113.26 118.42 129.94 141.56 153.48 163.84 175 186.52 198.44 209.66 220.82001 231.53999 241.06 246.22 257.84 268.76001 284.14001 294.85999 304.79999 314.32001 319.48001 332.76001 344.67999 355.84 370.82001 381.73999 392.45999 402.39999 413.23999 424.39999 429.56 441.48001 452.64001 463.48001 476.66 487.01999 492.17999 503.70001 515.32001 526.47998 537.82001 549.03998 559.96002 573.23999 577.97998 583.14001 593.97998 607.15997 618.67999 629.51202 640.73199 651.112 661.492"
         y="26"
         id="tspan120">директором приходилось решать множество новых проблем, выделяя </tspan><tspan
         x="0 11.52 23.139999 35.060001 46.220001 57.84 69.760002 79.699997 90.620003 100.56 113.74 118.9 130.82001 135.98 146.82001 157.98 169.5 181.12 192.28 203 216.17999 220.92 226.08 236.02 247.64 258.56 269.89999 280.48001 295.73999 311.64001 323.56 334.48001 339.64001 351.56 362.48001 375.76001 386.67999 398.20001 409.42001 420.34 432.26001 444.17999 455.34 463.45401 474.61401 479.77399 491.39401 502.314 513.034 521.39398 533.31403 544.93402 556.09399 566.93402 577.65399 589.57397 601.49402 611.87402"
         y="52"
         id="tspan122">приоритеты и вопросы, требующие немедленного реагирования.</tspan><tspan
         x="0 13.06 18.219999 29.42 41.740002 52.939999 65.260002 70.419998 78.540001 89.699997 101.22 111.8 116.96 129.98 141.14 151.98 162.89999 172.84 178 189.52 201.44 213.06 223.98 234.10001 244.03999 255.2 266.82001 277.98001 288.82001 293.98001 307.98001 318.07999 330.35999 335.51999 346.35999 359.54001 371.16 381.88 391.72 403.64001 414.85999 420.01999 430.73999 441.57999 452.73999 463.66 468.82001 480.34 491.5 502.34 513.26001 524.88 536.79999 547.71997 552.88 563 568.15997 579.67999 590.59998 602.52002 613.23999 623.17999 634.02002 644.59998 659.85999 675.76001 686.67999 699.96002 710.53998"
         y="91"
         id="tspan124">В 2020 году Совет директоров ПГК выразил свое доверие к действующему </tspan><tspan
         x="0 7.48 18.4 30.32 41.240002 52.860001 63.580002 74.800003 84.32 96.239998 107.4 120.68 131.25999 136.42 147.94 159.86 171.48 182.39999 192.52 202.46001 213.62 224.858 235.438 240.59801 254.59801 264.698 276.978 282.138 295.15799 306.078 317.698 325.81601 336.73599 351.996 357.15601 369.436 380.15601 391.776 402.496 412.436 423.15601 434.07599 444.91599 455.496 460.65601 472.57599 477.73599 489.25601 500.87601 512.03601 523.55603 534.776 546.69598 557.91602 563.07599 573.79602 585.41602 596.57599 606.69598"
         y="117"
         id="tspan126">Генеральному директору ПГК Сергею Каратаеву и продлил срок </tspan><tspan
         x="0 10.92 19.040001 30.200001 35.360001 46.880001 57.84 69.059998 80.980003 92.139999 105.42 116.58 127.12 139.03999 150.96001"
         y="143"
         id="tspan128">его полномочий.</tspan></text><text
       transform="matrix(1,0,0,-1,1107,569)"
       style="font-variant:normal;font-weight:500;font-stretch:normal;font-size:28px;font-family:'Rubik Medium';-inkscape-font-specification:Rubik-Medium;writing-mode:lr-tb;fill:#000000;fill-opacity:1;fill-rule:nonzero;stroke:none"
       id="text134"><tspan
         x="0 18.816 34.832001 52.023998 68.040001 82.907997 98.924004 115.108 131.48801 137.87199 157.052 173.23599 190.42799 202.66119 218.8452 236.3172 242.7012 265.43719 282.90921 298.72919 314.74521 332.21719 349.12921 365.73318 382.11319 399.58521"
         y="0"
         id="tspan132">Каратаев Сергей Михайлович</tspan></text><text
       transform="matrix(1,0,0,-1,1089,533)"
       style="font-variant:normal;font-weight:normal;font-stretch:normal;font-size:18px;font-family:Rubik;-inkscape-font-specification:Rubik-Regular;writing-mode:lr-tb;fill:#faaa2d;fill-opacity:1;fill-rule:nonzero;stroke:none"
       id="text138"><tspan
         x="0 6.8579998"
         y="0"
         id="tspan136">• </tspan></text><text
       transform="matrix(1,0,0,-1,1107,533)"
       style="font-variant:normal;font-weight:500;font-stretch:normal;font-size:20px;font-family:'Rubik Medium';-inkscape-font-specification:Rubik-Medium;writing-mode:lr-tb;fill:#000000;fill-opacity:1;fill-rule:nonzero;stroke:none"
       id="text142"><tspan
         x="0 8.5600004 20.120001 32.599998 44.16 56.439999 67.879997 79.959999 90.580002 103.06 118.42 130.89999 135.46001 148.03999 160.52 172.8 184.36 195.82001 206.44 218.3"
         y="0"
         id="tspan140">Генеральный директор</tspan></text><text
       transform="matrix(1,0,0,-1,1089,507)"
       style="font-variant:normal;font-weight:normal;font-stretch:normal;font-size:18px;font-family:Rubik;-inkscape-font-specification:Rubik-Regular;writing-mode:lr-tb;fill:#faaa2d;fill-opacity:1;fill-rule:nonzero;stroke:none"
       id="text146"><tspan
         x="0 6.8579998"
         y="0"
         id="tspan144">• </tspan></text><text
       transform="matrix(1,0,0,-1,1107,507)"
       style="font-variant:normal;font-weight:500;font-stretch:normal;font-size:20px;font-family:'Rubik Medium';-inkscape-font-specification:Rubik-Medium;writing-mode:lr-tb;fill:#000000;fill-opacity:1;fill-rule:nonzero;stroke:none"
       id="text150"><tspan
         x="0 14.6 26.879999 38.439999 51.02 62.459999 74.019997 86.599998 98.040001 108.66 120.118 132.198 142.81799 147.37801 161.978 174.258 185.698 197.39799 209.478 221.03799 233.51801 245.998"
         y="0"
         id="tspan148">Председатель Правления</tspan></text><text
       transform="matrix(1,0,0,-1,1089,457)"
       style="font-variant:normal;font-weight:normal;font-stretch:normal;font-size:18px;font-family:Rubik;-inkscape-font-specification:Rubik-Regular;writing-mode:lr-tb;fill:#faaa2d;fill-opacity:1;fill-rule:nonzero;stroke:none"
       id="text154"><tspan
         x="0 6.8579998"
         y="0"
         id="tspan152">• </tspan></text><text
       transform="matrix(1,0,0,-1,1107,457)"
       style="font-variant:normal;font-weight:300;font-stretch:normal;font-size:18px;font-family:'Rubik Light';-inkscape-font-specification:Rubik-Light;writing-mode:lr-tb;fill:#000000;fill-opacity:1;fill-rule:nonzero;stroke:none"
       id="text158"><tspan
         x="0 6.7319999 16.775999 27.143999 31.788 42.245998 52.290001 65.772003 76.139999 85.968002 96.695999 107.424 116.766 121.104 125.748 132.912 143.20799 151.974"
         y="0"
         id="tspan156">Год рождения: 1978</tspan></text><text
       transform="matrix(1,0,0,-1,1089,428.002)"
       style="font-variant:normal;font-weight:normal;font-stretch:normal;font-size:18px;font-family:Rubik;-inkscape-font-specification:Rubik-Regular;writing-mode:lr-tb;fill:#faaa2d;fill-opacity:1;fill-rule:nonzero;stroke:none"
       id="text162"><tspan
         x="0 6.8579998"
         y="0"
         id="tspan160">• </tspan></text><text
       transform="matrix(1,0,0,-1,1107,428.002)"
       style="font-variant:normal;font-weight:300;font-stretch:normal;font-size:18px;font-family:'Rubik Light';-inkscape-font-specification:Rubik-Light;writing-mode:lr-tb;fill:#000000;fill-opacity:1;fill-rule:nonzero;stroke:none"
       id="text168"><tspan
         x="0 11.754 16.398001 26.478001 37.566002 48.653999 59.742001 64.386002 71.694 81.737999 92.106003 101.628 106.272 116.316 124.974 135.01801 145.746 155.23199 165.96001 176.058 180.702 195.552 206.28 217.008 226.65601 237.384 247.032 257.07599 266.832 276.354 290.08801 294.73199 304.38 313.48801 323.13599 333.504 343.332 355.284 366.01199 379.746 384.39001 394.758 405.216 415.944 420.58801 433.18799 443.646 453.29401 463.04999 473.77802 482.724 492.47461 502.5726 511.14059 520.78857 529.73462 539.4906 549.3186"
         y="0"
         id="tspan164">В 2000 году окончил Финансовую академию при Правительстве </tspan><tspan
         x="0 11.304 26.153999 30.798 41.166 51.209999 55.854 65.501999 75.870003 85.697998 96.515999 107.244 116.892 126.99 135.558 146.286 156.33 165.978 174.924 185.65199 190.29601 201.14999 216 226.728 237.45599 247.104 257.832 267.48001 279.34201 283.98599 294.71399 299.358 308.466 318.92401 328.75201 339.12 349.84799 358.79401 369.64801"
         y="23.993999"
         id="tspan166">РФ по специальности «Финансы и кредит».</tspan></text><text
       transform="matrix(1,0,0,-1,1089,375.01)"
       style="font-variant:normal;font-weight:normal;font-stretch:normal;font-size:18px;font-family:Rubik;-inkscape-font-specification:Rubik-Regular;writing-mode:lr-tb;fill:#faaa2d;fill-opacity:1;fill-rule:nonzero;stroke:none"
       id="text172"><tspan
         x="0 6.8579998"
         y="0"
         id="tspan170">• </tspan></text><text
       transform="matrix(1,0,0,-1,1107,375.01)"
       style="font-variant:normal;font-weight:300;font-stretch:normal;font-size:18px;font-family:'Rubik Light';-inkscape-font-specification:Rubik-Light;writing-mode:lr-tb;fill:#000000;fill-opacity:1;fill-rule:nonzero;stroke:none"
       id="text176"><tspan
         x="0 11.754 16.398001 26.478001 37.566002 48.653999 58.950001 63.594002 70.902 80.945999 91.314003 100.836 105.48 115.848 125.712 135.81 145.332 154.81799 165.54601 175.644 180.28799 189.936 198.882 208.71001 219.078 228.90601 239.634 248.202 252.84599 266.88599 278.64001 290.34 294.98401 304.73999 309.384 319.59 330.31799 339.17401 349.90201 359.73001 369.37799 378.14401 391.98599 400.64041 410.50439 420.60239 430.43039 435.0744 439.59241 451.90439 462.7944 473.45041 485.15039 497.3364 501.98041 507.72241 522.57239 533.0304 542.67841 553.40637 564.22443 574.95239 583.57617 589.31818"
         y="0"
         id="tspan174">В 2009 году получил степень МВА в бизнес-школе INSEAD (Франция).</tspan></text><text
       transform="matrix(1,0,0,-1,1089,346.012)"
       style="font-variant:normal;font-weight:normal;font-stretch:normal;font-size:18px;font-family:Rubik;-inkscape-font-specification:Rubik-Regular;writing-mode:lr-tb;fill:#faaa2d;fill-opacity:1;fill-rule:nonzero;stroke:none"
       id="text180"><tspan
         x="0 6.8579998"
         y="0"
         id="tspan178">• </tspan></text><text
       transform="matrix(1,0,0,-1,1107,346.012)"
       style="font-variant:normal;font-weight:300;font-stretch:normal;font-size:18px;font-family:'Rubik Light';-inkscape-font-specification:Rubik-Light;writing-mode:lr-tb;fill:#000000;fill-opacity:1;fill-rule:nonzero;stroke:none"
       id="text184"><tspan
         x="0 13.068 25.02 34.848 44.675999 53.622002 58.265999 67.788002 77.274002 87.101997 97.830002 107.352 121.086 125.73 135.37801 144.32401 154.15199 164.52 174.34801 185.076 193.644 198.28799 207.396 217.04401 227.772 238.14 248.868 259.23599 268.884 277.82999 287.478 292.12201 301.76999 310.42441 320.46841 331.19641 341.24039 353.19241 363.92041 373.4064 383.23441 392.88239 401.99039 412.71841 422.04239 426.6864 437.4144 447.06241 456.58441 465.69241"
         y="0"
         id="tspan182">Имеет ученую степень кандидата экономических наук.</tspan></text><text
       transform="matrix(1,0,0,-1,1089,317.014)"
       style="font-variant:normal;font-weight:normal;font-stretch:normal;font-size:18px;font-family:Rubik;-inkscape-font-specification:Rubik-Regular;writing-mode:lr-tb;fill:#faaa2d;fill-opacity:1;fill-rule:nonzero;stroke:none"
       id="text188"><tspan
         x="0 6.8579998"
         y="0"
         id="tspan186">• </tspan></text><text
       transform="matrix(1,0,0,-1,1107,317.014)"
       style="font-variant:normal;font-weight:300;font-stretch:normal;font-size:18px;font-family:'Rubik Light';-inkscape-font-specification:Rubik-Light;writing-mode:lr-tb;fill:#000000;fill-opacity:1;fill-rule:nonzero;stroke:none"
       id="text194"><tspan
         x="0 11.718 16.362 26.441999 37.529999 44.694 54.773998 59.417999 69.786003 79.830002 84.473999 94.554001 105.642 112.806 123.282 127.926 135.23219 145.2762 155.6442 160.28819 169.1442 178.79221 189.5202 200.2482 212.2002 221.84821 231.9462 236.59019 246.95821 256.8204 266.9184 280.40039 291.12839 301.17239 310.8204 319.76639 328.33441 332.97839 341.83441 351.48239 363.43439 373.26239 382.9104 391.85641 402.58441 411.5304 421.28461 431.3826 440.72461"
         y="0"
         id="tspan190">С 2012 по 2016 год занимал должность заместителя </tspan><tspan
         x="0 6.7319999 16.559999 27.288 37.116001 47.574001 57.222 67.32 75.888 86.615997 96.660004 103.9662 114.0102 118.6542 129.0222 139.7502 150.20821 160.03619 169.1442 178.09019 188.1342 198.59219 208.2402 212.8842 225.48421 234.5742 245.62621 250.2702 260.63821 270.68219 275.3262 284.97421 293.6304 303.67441 314.4024 324.44641 336.39841 347.1264 355.78439 365.6124 370.25641 380.98441 385.62839 397.8504 408.5784 419.3064 428.95441 439.6824 449.33041 458.97839 470.93039"
         y="23.993999"
         id="tspan192">Генерального директора ПГК по экономике и финансам.</tspan></text><text
       transform="matrix(1,0,0,-1,1089,264.022)"
       style="font-variant:normal;font-weight:normal;font-stretch:normal;font-size:18px;font-family:Rubik;-inkscape-font-specification:Rubik-Regular;writing-mode:lr-tb;fill:#faaa2d;fill-opacity:1;fill-rule:nonzero;stroke:none"
       id="text198"><tspan
         x="0 6.8579998"
         y="0"
         id="tspan196">• </tspan></text><text
       transform="matrix(1,0,0,-1,1107,264.022)"
       style="font-variant:normal;font-weight:300;font-stretch:normal;font-size:18px;font-family:'Rubik Light';-inkscape-font-specification:Rubik-Light;writing-mode:lr-tb;fill:#000000;fill-opacity:1;fill-rule:nonzero;stroke:none"
       id="text204"><tspan
         x="0 11.754 16.398001 26.478001 37.566002 44.73 55.206001 59.849998 67.157997 77.202003 87.57 97.092003 101.736 112.104 121.932 132.39 142.218 156.06 165.81419 175.9122 180.5562 190.31219 194.95621 207.5562 219.2562 231.1722 235.81619 246.6702 259.2702 271.51019 285.5502 296.6022 307.45621 312.10019 322.82819 332.4762 337.12021 347.48819 357.3504 367.44839 380.93039 391.65839 401.70239 411.3504 420.29639 428.86441"
         y="0"
         id="tspan200">В 2016 году перешел в ПАО «НЛМК» на должность </tspan><tspan
         x="0 8.8559999 18.504 30.455999 40.284 49.931999 58.877998 69.606003 78.552002 88.306198 98.404198 107.7462 112.3902 122.1462 132.87421 143.6922 153.5202 162.28619 172.65421 183.1122 192.9402 201.7962 212.5242 222.8922 232.7202 243.4482 252.3942 262.04221 266.68619 277.0542 287.09821 291.74219 303.9642 314.6922 325.4202 335.06821 345.7962 355.44421 365.09219 377.04419"
         y="23.993999"
         id="tspan202">заместителя вице-президента по финансам.</tspan></text><text
       transform="matrix(1,0,0,-1,1089,211.03)"
       style="font-variant:normal;font-weight:normal;font-stretch:normal;font-size:18px;font-family:Rubik;-inkscape-font-specification:Rubik-Regular;writing-mode:lr-tb;fill:#faaa2d;fill-opacity:1;fill-rule:nonzero;stroke:none"
       id="text208"><tspan
         x="0 6.8579998"
         y="0"
         id="tspan206">• </tspan></text><text
       transform="matrix(1,0,0,-1,1107,211.03)"
       style="font-variant:normal;font-weight:300;font-stretch:normal;font-size:18px;font-family:'Rubik Light';-inkscape-font-specification:Rubik-Light;writing-mode:lr-tb;fill:#000000;fill-opacity:1;fill-rule:nonzero;stroke:none"
       id="text214"><tspan
         x="0 11.754 16.398001 26.478001 37.566002 44.73 52.812 65.807999 75.888 86.975998 94.139999 105.264 109.908 117.432 123.372 127.656 132.3 146.106 150.75 161.478 171.12601 181.494 191.3562 201.45419 212.18221 221.5242 235.25819 249.56821 260.2962 271.0242 275.66821 285.71219 295.91821 305.26019 314.11621 323.76419 334.49219 345.22021 355.26419 364.9122 373.85818 384.58621 389.23019 398.98621 409.7142 420.5322 430.3602"
         y="0"
         id="tspan210">В 2017—2018 гг. — исполняющий обязанности вице-</tspan><tspan
         x="0 10.368 20.826 30.653999 39.509998 50.237999 60.605999 70.433998 81.162003 90.108002 99.755997 104.4 114.768 124.812 129.45599 141.67799 152.40601 163.134 172.782 183.50999 193.158 202.806 214.758 219.40199 232.002 243.702 255.618 260.26199 271.116 283.716 295.95599 309.996 321.048 331.90201"
         y="23.993999"
         id="tspan212">президента по финансам ПАО «НЛМК».</tspan></text><text
       transform="matrix(1,0,0,-1,1089,158.038)"
       style="font-variant:normal;font-weight:normal;font-stretch:normal;font-size:18px;font-family:Rubik;-inkscape-font-specification:Rubik-Regular;writing-mode:lr-tb;fill:#faaa2d;fill-opacity:1;fill-rule:nonzero;stroke:none"
       id="text218"><tspan
         x="0 6.8579998"
         y="0"
         id="tspan216">• </tspan></text><text
       transform="matrix(1,0,0,-1,1107,158.038)"
       style="font-variant:normal;font-weight:300;font-stretch:normal;font-size:18px;font-family:'Rubik Light';-inkscape-font-specification:Rubik-Light;writing-mode:lr-tb;fill:#000000;fill-opacity:1;fill-rule:nonzero;stroke:none"
       id="text222"><tspan
         x="0 11.718 16.362 28.313999 37.962002 47.304001 51.948002 62.028 73.115997 80.279999 91.403999 96.047997 103.3542 113.3982 123.7662 133.4142 138.0582 151.8642 156.50819 166.87621 176.70419 187.1622 196.9182 208.7802 219.50819 224.15221 233.00819 242.6562 254.6082 264.43619 274.0842 283.03021 293.75821 302.70419 312.4584 322.5564 331.12439 335.7684 342.5004 352.3284 363.0564 372.8844 383.34241 392.99039 403.08841 411.6564 422.3844 432.42841 439.73459 449.77859 454.42261 464.79059 475.51859 485.97659 495.8046 504.9126 513.85858 523.90259 534.3606 544.00861 548.65259 561.25262 570.34259 581.39459"
         y="0"
         id="tspan220">С мая 2018 года — первый заместитель Генерального директора ПГК.</tspan></text><text
       transform="matrix(1,0,0,-1,1089,129.04)"
       style="font-variant:normal;font-weight:normal;font-stretch:normal;font-size:18px;font-family:Rubik;-inkscape-font-specification:Rubik-Regular;writing-mode:lr-tb;fill:#faaa2d;fill-opacity:1;fill-rule:nonzero;stroke:none"
       id="text226"><tspan
         x="0 6.8579998"
         y="0"
         id="tspan224">• </tspan></text><text
       transform="matrix(1,0,0,-1,1107,129.04)"
       style="font-variant:normal;font-weight:300;font-stretch:normal;font-size:18px;font-family:'Rubik Light';-inkscape-font-specification:Rubik-Light;writing-mode:lr-tb;fill:#000000;fill-opacity:1;fill-rule:nonzero;stroke:none"
       id="text230"><tspan
         x="0 11.718 16.362 26.01 36.377998 46.835999 56.590199 66.688202 76.030197 80.674202 90.754204 101.8422 109.0062 119.3022 123.9462 131.2542 141.2982 151.6662 161.31419 165.95821 179.76421 184.4082 191.1402 200.9682 211.6962 221.5242 231.98219 241.6302 251.7282 260.2962 271.0242 282.8862 293.6142 298.25821 308.62619 319.35419 329.81219 339.6402 348.7482 357.69421 367.73819 378.1962 382.84021 395.44019 404.53021 415.58221"
         y="0"
         id="tspan228">С апреля 2019 года — Генеральный директор ПГК.</tspan></text><text
       transform="matrix(1,0,0,-1,1089,100.042)"
       style="font-variant:normal;font-weight:normal;font-stretch:normal;font-size:18px;font-family:Rubik;-inkscape-font-specification:Rubik-Regular;writing-mode:lr-tb;fill:#faaa2d;fill-opacity:1;fill-rule:nonzero;stroke:none"
       id="text234"><tspan
         x="0 6.8579998"
         y="0"
         id="tspan232">• </tspan></text><text
       transform="matrix(1,0,0,-1,1107,100.042)"
       style="font-variant:normal;font-weight:300;font-stretch:normal;font-size:18px;font-family:'Rubik Light';-inkscape-font-specification:Rubik-Light;writing-mode:lr-tb;fill:#000000;fill-opacity:1;fill-rule:nonzero;stroke:none"
       id="text238"><tspan
         x="0 12.168 22.032 32.130001 41.958 52.686001 57.330002 66.851997 76.337997 85.986 95.634003 104.58 115.308 124.65 129.29401 139.05 143.694 152.9082 162.5562 171.5022 181.15021 190.9062 201.6342 211.67821 223.6302 228.2742 237.3822 247.0302 257.39819 268.12619 277.0722 286.72021 296.81821 306.64621 311.29019 323.8902 332.98019 344.0322 348.67621 359.40421 369.23221 373.87619 384.60419 396.55621 406.38419 416.21219 425.1582"
         y="0"
         id="tspan236">Долей участия в уставном капитале ПГК не имеет.</tspan></text><g
       id="g240"
       transform="translate(435,102)"><path
         d="M 0,0 H 456"
         style="fill:none;stroke:#e8f0ec;stroke-width:4;stroke-linecap:butt;stroke-linejoin:miter;stroke-miterlimit:4;stroke-dasharray:none;stroke-opacity:1"
         id="path242" /></g><text
       transform="matrix(1,0,0,-1,39.03,1023)"
       style="font-variant:normal;font-weight:300;font-stretch:normal;font-size:20px;font-family:'Rubik Light';-inkscape-font-specification:Rubik-Light;writing-mode:lr-tb;fill:#000000;fill-opacity:1;fill-rule:nonzero;stroke:none"
       id="text246"><tspan
         x="0 9.04"
         y="0"
         id="tspan244">74</tspan></text><g
       id="g248"><g
         id="g250"><g
           id="g252"
           clip-path="url(#clipPath256)"><text
             transform="matrix(1,0,0,-1,99,1023)"
             style="font-variant:normal;font-weight:300;font-stretch:normal;font-size:20px;font-family:'Rubik Light';-inkscape-font-specification:Rubik-Light;writing-mode:lr-tb;fill:#000000;fill-opacity:1;fill-rule:nonzero;stroke:none"
             id="text260"><tspan
               x="0 13.24 18.4 28.02 39.18 52.459999 63.98 74.699997 86.620003 98.540001"
               y="0"
               id="tspan258">О компании</tspan></text></g></g></g></g></svg>
