<?xml version="1.0" encoding="UTF-8" standalone="no"?>
<?xml-stylesheet type="text/css" href="main.css" ?>
<svg
   xmlns:dc="http://purl.org/dc/elements/1.1/"
   xmlns:cc="http://creativecommons.org/ns#"
   xmlns:rdf="http://www.w3.org/1999/02/22-rdf-syntax-ns#"
   xmlns:svg="http://www.w3.org/2000/svg"
   xmlns="http://www.w3.org/2000/svg"
   version="1.1"
   id="svg2"
   xml:space="preserve"
   width="2560"
   height="1440"
   viewBox="0 0 2560 1440"><metadata
     id="metadata8"><rdf:RDF><cc:Work
         rdf:about=""><dc:format>image/svg+xml</dc:format><dc:type
           rdf:resource="http://purl.org/dc/dcmitype/StillImage" /></cc:Work></rdf:RDF></metadata><defs
     id="defs6"><clipPath
       clipPathUnits="userSpaceOnUse"
       id="clipPath20"><path
         d="M 0,1080 H 1920 V 0 H 0 Z"
         id="path18" /></clipPath><clipPath
       clipPathUnits="userSpaceOnUse"
       id="clipPath254"><path
         d="M 0,1080 H 1920 V 0 H 0 Z"
         id="path252" /></clipPath></defs><g
     id="g10"
     transform="matrix(1.3333333,0,0,-1.3333333,0,1440)"><g
       id="g12"><g
         id="g14"><g
           id="g16"
           clip-path="url(#clipPath20)"><path
             d="M 0,0 H 1920 V 1080 H 0 Z"
             style="fill:#ffffff;fill-opacity:1;fill-rule:nonzero;stroke:none"
             id="path22" /></g></g></g><path
       d="M 0,893.4 H 1920 V 1080 H 0 Z"
       style="fill:#e8e8ed;fill-opacity:1;fill-rule:nonzero;stroke:none"
       id="path24" /><text
       transform="matrix(1,0,0,-1,1425,960.4)"
       style="font-variant:normal;font-weight:500;font-stretch:normal;font-size:28px;font-family:'Rubik Medium';-inkscape-font-specification:Rubik-Medium;writing-mode:lr-tb;fill:#000000;fill-opacity:1;fill-rule:nonzero;stroke:none"
       id="text28"><tspan
         x="0 17.136 33.740002 40.124001 56.139999 72.744003 88.760002 103.628 120.232 136.36 153.832 171.304 194.71201 201.09599 218.56799 234.584 240.968 258.18521 271.17719 276.86121 289.85321 307.2132 314.74521 332.10519 350.55719 367.91721"
         y="0"
         id="tspan26">по состоянию на 31.12.2020</tspan></text><text
       transform="matrix(1,0,0,-1,453.008,807.072)"
       style="font-variant:normal;font-weight:normal;font-stretch:normal;font-size:28px;font-family:'Prosto One';-inkscape-font-specification:ProstoOne-Regular;writing-mode:lr-tb;fill:#000000;fill-opacity:1;fill-rule:nonzero;stroke:none"
       id="text34"><tspan
         x="0 22.26 45.220001 67.339996 90.300003 110.04 133 152.88 175.28"
         y="0"
         id="tspan30">КАРАТАЕВ </tspan><tspan
         x="0 22.120001 42 64.120003 82.599998 102.48 126.56 136.36 167.16 191.24001 212.66 235.62 259.70001 282.94 308.14001 330.54001 354.62"
         y="33.599998"
         id="tspan32">СЕРГЕЙ МИХАЙЛОВИЧ</tspan></text><text
       transform="matrix(1,0,0,-1,435,721.4804)"
       style="font-variant:normal;font-weight:normal;font-stretch:normal;font-size:18px;font-family:Rubik;-inkscape-font-specification:Rubik-Regular;writing-mode:lr-tb;fill:#faaa2d;fill-opacity:1;fill-rule:nonzero;stroke:none"
       id="text38"><tspan
         x="0 6.8579998"
         y="0"
         id="tspan36">• </tspan></text><text
       transform="matrix(1,0,0,-1,453,721.4804)"
       style="font-variant:normal;font-weight:500;font-stretch:normal;font-size:20px;font-family:'Rubik Medium';-inkscape-font-specification:Rubik-Medium;writing-mode:lr-tb;fill:#000000;fill-opacity:1;fill-rule:nonzero;stroke:none"
       id="text42"><tspan
         x="0 14.6 26.879999 38.439999 51.02 62.459999 74.019997 86.599998 98.040001 108.66 120.118 132.198 142.81799 147.37801 161.978 174.258 185.698 197.39799 209.478 221.03799 233.51801 245.998"
         y="0"
         id="tspan40">Председатель Правления</tspan></text><text
       transform="matrix(1,0,0,-1,435,695.4803)"
       style="font-variant:normal;font-weight:normal;font-stretch:normal;font-size:18px;font-family:Rubik;-inkscape-font-specification:Rubik-Regular;writing-mode:lr-tb;fill:#faaa2d;fill-opacity:1;fill-rule:nonzero;stroke:none"
       id="text46"><tspan
         x="0 6.8579998"
         y="0"
         id="tspan44">• </tspan></text><text
       transform="matrix(1,0,0,-1,453,695.4803)"
       style="font-variant:normal;font-weight:500;font-stretch:normal;font-size:20px;font-family:'Rubik Medium';-inkscape-font-specification:Rubik-Medium;writing-mode:lr-tb;fill:#000000;fill-opacity:1;fill-rule:nonzero;stroke:none"
       id="text50"><tspan
         x="0 8.5600004 20.120001 32.599998 44.16 56.439999 67.879997 79.959999 90.580002 103.06 118.42 130.89999 135.46001 148.03999 160.52 172.8 184.36 195.82001 206.44 218.3"
         y="0"
         id="tspan48">Генеральный директор</tspan></text><text
       transform="matrix(1,0,0,-1,435,645.4803)"
       style="font-variant:normal;font-weight:normal;font-stretch:normal;font-size:18px;font-family:Rubik;-inkscape-font-specification:Rubik-Regular;writing-mode:lr-tb;fill:#faaa2d;fill-opacity:1;fill-rule:nonzero;stroke:none"
       id="text54"><tspan
         x="0 6.8579998"
         y="0"
         id="tspan52">• </tspan></text><text
       transform="matrix(1,0,0,-1,453,645.4803)"
       style="font-variant:normal;font-weight:300;font-stretch:normal;font-size:18px;font-family:'Rubik Light';-inkscape-font-specification:Rubik-Light;writing-mode:lr-tb;fill:#000000;fill-opacity:1;fill-rule:nonzero;stroke:none"
       id="text58"><tspan
         x="0 6.7319999 16.775999 27.143999 31.788 42.245998 52.290001 65.772003 76.139999 85.968002 96.695999 107.424 116.766 121.104 125.748 132.912 143.20799 151.974"
         y="0"
         id="tspan56">Год рождения: 1978</tspan></text><text
       transform="matrix(1,0,0,-1,435,616.4823)"
       style="font-variant:normal;font-weight:normal;font-stretch:normal;font-size:18px;font-family:Rubik;-inkscape-font-specification:Rubik-Regular;writing-mode:lr-tb;fill:#faaa2d;fill-opacity:1;fill-rule:nonzero;stroke:none"
       id="text62"><tspan
         x="0 6.8579998"
         y="0"
         id="tspan60">• </tspan></text><text
       transform="matrix(1,0,0,-1,453,616.4823)"
       style="font-variant:normal;font-weight:300;font-stretch:normal;font-size:18px;font-family:'Rubik Light';-inkscape-font-specification:Rubik-Light;writing-mode:lr-tb;fill:#000000;fill-opacity:1;fill-rule:nonzero;stroke:none"
       id="text70"><tspan
         x="0 11.754 16.398001 26.478001 37.566002 48.653999 59.742001 64.386002 71.694 81.737999 92.106003 101.628 106.272 116.316 124.974 135.01801 145.746 155.23199 165.96001 176.058 180.702 195.552 206.28 217.008 226.65601 237.384 247.032 257.07599 266.832 276.354 290.08801 294.73199 304.38 313.48801 323.13599 333.504 343.332 355.284 366.01199 379.746"
         y="0"
         id="tspan64">В 2000 году окончил Финансовую академию </tspan><tspan
         x="0 10.368 20.826 31.554001 36.198002 48.798 59.256001 68.903999 78.660004 89.388 98.334 108.0882 118.1862 126.7542 136.40221 145.34821 155.1042 164.93221 169.5762 180.8802 195.73019 200.37421 210.7422 220.78619 225.43021 235.0782 245.4462 255.2742 266.09219 276.82019 286.4682 296.56619 305.13419 315.86221 325.90619 335.5542 344.50021 355.22821"
         y="23.993999"
         id="tspan66">при Правительстве РФ по специальности </tspan><tspan
         x="0 10.854 25.704 36.431999 47.16 56.807999 67.536003 77.183998 89.045998 93.690002 104.418 109.062 118.17 128.62801 138.45599 148.82401 159.552 168.498 179.35201"
         y="47.987999"
         id="tspan68">«Финансы и кредит».</tspan></text><text
       transform="matrix(1,0,0,-1,435,539.4963)"
       style="font-variant:normal;font-weight:normal;font-stretch:normal;font-size:18px;font-family:Rubik;-inkscape-font-specification:Rubik-Regular;writing-mode:lr-tb;fill:#faaa2d;fill-opacity:1;fill-rule:nonzero;stroke:none"
       id="text74"><tspan
         x="0 6.8579998"
         y="0"
         id="tspan72">• </tspan></text><text
       transform="matrix(1,0,0,-1,453,539.4963)"
       style="font-variant:normal;font-weight:300;font-stretch:normal;font-size:18px;font-family:'Rubik Light';-inkscape-font-specification:Rubik-Light;writing-mode:lr-tb;fill:#000000;fill-opacity:1;fill-rule:nonzero;stroke:none"
       id="text80"><tspan
         x="0 11.754 16.398001 26.478001 37.566002 48.653999 58.950001 63.594002 70.902 80.945999 91.314003 100.836 105.48 115.848 125.712 135.81 145.332 154.81799 165.54601 175.644 180.28799 189.936 198.882 208.71001 219.078 228.90601 239.634 248.202 252.84599 266.88599 278.64001 290.34 294.98401 304.73999 309.384 319.59 330.31799 339.17401 349.90201 359.73001 369.37799 378.14401 391.98599 400.64041 410.50439 420.60239 430.43039"
         y="0"
         id="tspan76">В 2009 году получил степень МВА в бизнес-школе </tspan><tspan
         x="0 4.5180001 16.83 27.719999 38.375999 50.076 62.262001 66.905998 72.648003 87.498001 97.956001 107.604 118.332 129.14999 139.87801 148.4982 154.2402"
         y="23.993999"
         id="tspan78">INSEAD (Франция).</tspan></text><text
       transform="matrix(1,0,0,-1,435,486.5043)"
       style="font-variant:normal;font-weight:normal;font-stretch:normal;font-size:18px;font-family:Rubik;-inkscape-font-specification:Rubik-Regular;writing-mode:lr-tb;fill:#faaa2d;fill-opacity:1;fill-rule:nonzero;stroke:none"
       id="text84"><tspan
         x="0 6.8579998"
         y="0"
         id="tspan82">• </tspan></text><text
       transform="matrix(1,0,0,-1,453,486.5043)"
       style="font-variant:normal;font-weight:300;font-stretch:normal;font-size:18px;font-family:'Rubik Light';-inkscape-font-specification:Rubik-Light;writing-mode:lr-tb;fill:#000000;fill-opacity:1;fill-rule:nonzero;stroke:none"
       id="text90"><tspan
         x="0 13.068 25.02 34.848 44.675999 53.622002 58.265999 67.788002 77.274002 87.101997 97.830002 107.352 121.086 125.73 135.37801 144.32401 154.15199 164.52 174.34801 185.076 193.644 198.28799 207.396 217.04401 227.772 238.14 248.868 259.23599 268.884 277.82999 287.478"
         y="0"
         id="tspan86">Имеет ученую степень кандидата </tspan><tspan
         x="0 9.6479998 18.306 28.35 39.077999 49.122002 61.074001 71.802002 81.288002 91.115997 100.764 109.872 120.6 129.924 134.56799 145.29601 154.944 164.466 173.57401"
         y="23.993999"
         id="tspan88">экономических наук.</tspan></text><text
       transform="matrix(1,0,0,-1,435,433.5123)"
       style="font-variant:normal;font-weight:normal;font-stretch:normal;font-size:18px;font-family:Rubik;-inkscape-font-specification:Rubik-Regular;writing-mode:lr-tb;fill:#faaa2d;fill-opacity:1;fill-rule:nonzero;stroke:none"
       id="text94"><tspan
         x="0 6.8579998"
         y="0"
         id="tspan92">• </tspan></text><text
       transform="matrix(1,0,0,-1,453,433.5123)"
       style="font-variant:normal;font-weight:300;font-stretch:normal;font-size:18px;font-family:'Rubik Light';-inkscape-font-specification:Rubik-Light;writing-mode:lr-tb;fill:#000000;fill-opacity:1;fill-rule:nonzero;stroke:none"
       id="text102"><tspan
         x="0 11.718 16.362 26.441999 37.529999 44.694 54.773998 59.417999 69.786003 79.830002 84.473999 94.554001 105.642 112.806 123.282 127.926 135.23219 145.2762 155.6442 160.28819 169.1442 178.79221 189.5202 200.2482 212.2002 221.84821 231.9462 236.59019 246.95821 256.8204 266.9184 280.40039 291.12839 301.17239 310.8204 319.76639 328.33441"
         y="0"
         id="tspan96">С 2012 по 2016 год занимал должность </tspan><tspan
         x="0 8.8559999 18.504 30.455999 40.284 49.931999 58.877998 69.606003 78.552002 88.306198 98.404198 107.7462 112.3902 119.1222 128.9502 139.67821 149.5062 159.9642 169.6122 179.71021 188.2782 199.0062 209.0502 216.3564 226.40041 231.0444 241.4124 252.1404 262.59839 272.42639 281.53439 290.48041 300.52441 310.98239 320.6304 325.27441 337.87439 346.96439 358.01639"
         y="23.993999"
         id="tspan98">заместителя Генерального директора ПГК </tspan><tspan
         x="0 10.368 20.412001 25.056 34.703999 43.362 53.405998 64.134003 74.178001 86.129997 96.858002 105.516 115.344 119.988 130.716 135.36 147.582 158.31 169.03799 178.686 189.414 199.062 208.71001 220.662"
         y="47.987999"
         id="tspan100">по экономике и финансам.</tspan></text><text
       transform="matrix(1,0,0,-1,435,356.5263)"
       style="font-variant:normal;font-weight:normal;font-stretch:normal;font-size:18px;font-family:Rubik;-inkscape-font-specification:Rubik-Regular;writing-mode:lr-tb;fill:#faaa2d;fill-opacity:1;fill-rule:nonzero;stroke:none"
       id="text106"><tspan
         x="0 6.8579998"
         y="0"
         id="tspan104">• </tspan></text><text
       transform="matrix(1,0,0,-1,453,356.5263)"
       style="font-variant:normal;font-weight:300;font-stretch:normal;font-size:18px;font-family:'Rubik Light';-inkscape-font-specification:Rubik-Light;writing-mode:lr-tb;fill:#000000;fill-opacity:1;fill-rule:nonzero;stroke:none"
       id="text112"><tspan
         x="0 11.754 16.398001 26.478001 37.566002 44.73 55.206001 59.849998 67.157997 77.202003 87.57 97.092003 101.736 112.104 121.932 132.39 142.218 156.06 165.81419 175.9122 180.5562 190.31219 194.95621 207.5562 219.2562 231.1722 235.81619 246.6702 259.2702 271.51019 285.5502 296.6022 307.45621 312.10019 322.82819 332.4762 337.12021 347.48819 357.3504 367.44839 380.93039 391.65839 401.70239 411.3504 420.29639 428.86441"
         y="0"
         id="tspan108">В 2016 году перешел в ПАО «НЛМК» на должность </tspan><tspan
         x="0 8.8559999 18.504 30.455999 40.284 49.931999 58.877998 69.606003 78.552002 88.306198 98.404198 107.7462 112.3902 122.1462 132.87421 143.6922 153.5202 162.28619 172.65421 183.1122 192.9402 201.7962 212.5242 222.8922 232.7202 243.4482 252.3942 262.04221 266.68619 277.0542 287.09821 291.74219 303.9642 314.6922 325.4202 335.06821 345.7962 355.44421 365.09219 377.04419"
         y="23.993999"
         id="tspan110">заместителя вице-президента по финансам.</tspan></text><text
       transform="matrix(1,0,0,-1,435,303.5343)"
       style="font-variant:normal;font-weight:normal;font-stretch:normal;font-size:18px;font-family:Rubik;-inkscape-font-specification:Rubik-Regular;writing-mode:lr-tb;fill:#faaa2d;fill-opacity:1;fill-rule:nonzero;stroke:none"
       id="text116"><tspan
         x="0 6.8579998"
         y="0"
         id="tspan114">• </tspan></text><text
       transform="matrix(1,0,0,-1,453,303.5343)"
       style="font-variant:normal;font-weight:300;font-stretch:normal;font-size:18px;font-family:'Rubik Light';-inkscape-font-specification:Rubik-Light;writing-mode:lr-tb;fill:#000000;fill-opacity:1;fill-rule:nonzero;stroke:none"
       id="text122"><tspan
         x="0 11.754 16.398001 26.478001 37.566002 44.73 52.812 65.807999 75.888 86.975998 94.139999 105.264 109.908 117.432 123.372 127.656 132.3 146.106 150.75 161.478 171.12601 181.494 191.3562 201.45419 212.18221 221.5242 235.25819 249.56821 260.2962 271.0242 275.66821 285.71219 295.91821 305.26019 314.11621 323.76419 334.49219 345.22021 355.26419 364.9122 373.85818 384.58621"
         y="0"
         id="tspan118">В 2017—2018 гг. — исполняющий обязанности </tspan><tspan
         x="0 9.7559996 20.483999 31.302 41.130001 49.896 60.264 70.722 80.550003 89.405998 100.134 110.502 120.33 131.058 140.004 149.65199 154.29601 164.664 174.70799 179.35201 191.57401 202.302 213.03 222.67799 233.40601 243.054 252.702 264.65399 269.298 281.89801 293.59799 305.51401 310.15799 321.01199 333.612 345.85199 359.892 370.944 381.798"
         y="23.993999"
         id="tspan120">вице-президента по финансам ПАО «НЛМК».</tspan></text><text
       transform="matrix(1,0,0,-1,435,250.5423)"
       style="font-variant:normal;font-weight:normal;font-stretch:normal;font-size:18px;font-family:Rubik;-inkscape-font-specification:Rubik-Regular;writing-mode:lr-tb;fill:#faaa2d;fill-opacity:1;fill-rule:nonzero;stroke:none"
       id="text126"><tspan
         x="0 6.8579998"
         y="0"
         id="tspan124">• </tspan></text><text
       transform="matrix(1,0,0,-1,453,250.5423)"
       style="font-variant:normal;font-weight:300;font-stretch:normal;font-size:18px;font-family:'Rubik Light';-inkscape-font-specification:Rubik-Light;writing-mode:lr-tb;fill:#000000;fill-opacity:1;fill-rule:nonzero;stroke:none"
       id="text132"><tspan
         x="0 11.718 16.362 28.313999 37.962002 47.304001 51.948002 62.028 73.115997 80.279999 91.403999 96.047997 103.3542 113.3982 123.7662 133.4142 138.0582 151.8642 156.50819 166.87621 176.70419 187.1622 196.9182 208.7802 219.50819 224.15221 233.00819 242.6562 254.6082 264.43619 274.0842 283.03021 293.75821 302.70419 312.4584 322.5564 331.12439"
         y="0"
         id="tspan128">С мая 2018 года — первый заместитель </tspan><tspan
         x="0 6.7319999 16.559999 27.288 37.116001 47.574001 57.222 67.32 75.888 86.615997 96.660004 103.9662 114.0102 118.6542 129.0222 139.7502 150.20821 160.03619 169.1442 178.09019 188.1342 198.59219 208.2402 212.8842 225.48421 234.5742 245.62621"
         y="23.993999"
         id="tspan130">Генерального директора ПГК.</tspan></text><text
       transform="matrix(1,0,0,-1,435,197.5503)"
       style="font-variant:normal;font-weight:normal;font-stretch:normal;font-size:18px;font-family:Rubik;-inkscape-font-specification:Rubik-Regular;writing-mode:lr-tb;fill:#faaa2d;fill-opacity:1;fill-rule:nonzero;stroke:none"
       id="text136"><tspan
         x="0 6.8579998"
         y="0"
         id="tspan134">• </tspan></text><text
       transform="matrix(1,0,0,-1,453,197.5503)"
       style="font-variant:normal;font-weight:300;font-stretch:normal;font-size:18px;font-family:'Rubik Light';-inkscape-font-specification:Rubik-Light;writing-mode:lr-tb;fill:#000000;fill-opacity:1;fill-rule:nonzero;stroke:none"
       id="text140"><tspan
         x="0 11.718 16.362 26.01 36.377998 46.835999 56.590199 66.688202 76.030197 80.674202 90.754204 101.8422 109.0062 119.3022 123.9462 131.2542 141.2982 151.6662 161.31419 165.95821 179.76421 184.4082 191.1402 200.9682 211.6962 221.5242 231.98219 241.6302 251.7282 260.2962 271.0242 282.8862 293.6142 298.25821 308.62619 319.35419 329.81219 339.6402 348.7482 357.69421 367.73819 378.1962 382.84021 395.44019 404.53021 415.58221"
         y="0"
         id="tspan138">С апреля 2019 года — Генеральный директор ПГК.</tspan></text><text
       transform="matrix(1,0,0,-1,435,168.5523)"
       style="font-variant:normal;font-weight:normal;font-stretch:normal;font-size:18px;font-family:Rubik;-inkscape-font-specification:Rubik-Regular;writing-mode:lr-tb;fill:#faaa2d;fill-opacity:1;fill-rule:nonzero;stroke:none"
       id="text144"><tspan
         x="0 6.8579998"
         y="0"
         id="tspan142">• </tspan></text><text
       transform="matrix(1,0,0,-1,453,168.5523)"
       style="font-variant:normal;font-weight:300;font-stretch:normal;font-size:18px;font-family:'Rubik Light';-inkscape-font-specification:Rubik-Light;writing-mode:lr-tb;fill:#000000;fill-opacity:1;fill-rule:nonzero;stroke:none"
       id="text148"><tspan
         x="0 12.168 22.032 32.130001 41.958 52.686001 57.330002 66.851997 76.337997 85.986 95.634003 104.58 115.308 124.65 129.29401 139.05 143.694 152.9082 162.5562 171.5022 181.15021 190.9062 201.6342 211.67821 223.6302 228.2742 237.3822 247.0302 257.39819 268.12619 277.0722 286.72021 296.81821 306.64621 311.29019 323.8902 332.98019 344.0322 348.67621 359.40421 369.23221 373.87619 384.60419 396.55621 406.38419 416.21219 425.1582"
         y="0"
         id="tspan146">Долей участия в уставном капитале ПГК не имеет.</tspan></text><text
       transform="matrix(1,0,0,-1,1383,807.0804)"
       style="font-variant:normal;font-weight:normal;font-stretch:normal;font-size:28px;font-family:'Prosto One';-inkscape-font-specification:ProstoOne-Regular;writing-mode:lr-tb;fill:#000000;fill-opacity:1;fill-rule:nonzero;stroke:none"
       id="text154"><tspan
         x="0 22.4 46.48 70 95.199997 113.68 135.8 158.75999 183.12 208.32001 230.72"
         y="0"
         id="tspan150">ВИНОГРАДОВ </tspan><tspan
         x="0 23.52 46.48 68.879997 88.760002 112 121.8 144.75999 166.88 189.14 212.10001 236.46001 258.57999 278.45999 300.85999 324.94"
         y="33.599998"
         id="tspan152">ПАВЕЛ АРКАДЬЕВИЧ</tspan></text><text
       transform="matrix(1,0,0,-1,1365,721.4804)"
       style="font-variant:normal;font-weight:normal;font-stretch:normal;font-size:18px;font-family:Rubik;-inkscape-font-specification:Rubik-Regular;writing-mode:lr-tb;fill:#faaa2d;fill-opacity:1;fill-rule:nonzero;stroke:none"
       id="text158"><tspan
         x="0 6.8579998"
         y="0"
         id="tspan156">• </tspan></text><text
       transform="matrix(1,0,0,-1,1383,721.4804)"
       style="font-variant:normal;font-weight:500;font-stretch:normal;font-size:20px;font-family:'Rubik Medium';-inkscape-font-specification:Rubik-Medium;writing-mode:lr-tb;fill:#000000;fill-opacity:1;fill-rule:nonzero;stroke:none"
       id="text164"><tspan
         x="0 12.94 24.379999 38.459999 50.02 61.459999 72.080002 84.559998 95.18 106.638 118.718 129.338 133.89799 142.45799 154.01801 166.498 178.058 190.338 201.778 213.858 224.478 236.95799 248.81799 257.556 269.41599 273.97601 286.556 299.03601 311.31601 322.87601 334.336 344.95599 356.81601 369.09601 380.53601"
         y="0"
         id="tspan160">Заместитель Генерального директора </tspan><tspan
         x="0 12.24 24.1 28.66 40.099998 50.720001 63 74.440002 85.059998 96.620003 105.54 118.02 130.5 135.06 147.53999 152.10001 164.38 175.82001 186.53999 198.24001 210.72 221.34 233.82001"
         y="26"
         id="tspan162">по стратегии и развитию</tspan></text><text
       transform="matrix(1,0,0,-1,1365,645.4803)"
       style="font-variant:normal;font-weight:normal;font-stretch:normal;font-size:18px;font-family:Rubik;-inkscape-font-specification:Rubik-Regular;writing-mode:lr-tb;fill:#faaa2d;fill-opacity:1;fill-rule:nonzero;stroke:none"
       id="text168"><tspan
         x="0 6.8579998"
         y="0"
         id="tspan166">• </tspan></text><text
       transform="matrix(1,0,0,-1,1383,645.4803)"
       style="font-variant:normal;font-weight:300;font-stretch:normal;font-size:18px;font-family:'Rubik Light';-inkscape-font-specification:Rubik-Light;writing-mode:lr-tb;fill:#000000;fill-opacity:1;fill-rule:nonzero;stroke:none"
       id="text172"><tspan
         x="0 6.7319999 16.775999 27.143999 31.788 42.245998 52.290001 65.772003 76.139999 85.968002 96.695999 107.424 116.766 121.104 125.748 132.912 143.20799 151.974"
         y="0"
         id="tspan170">Год рождения: 1978</tspan></text><text
       transform="matrix(1,0,0,-1,1365,616.4823)"
       style="font-variant:normal;font-weight:normal;font-stretch:normal;font-size:18px;font-family:Rubik;-inkscape-font-specification:Rubik-Regular;writing-mode:lr-tb;fill:#faaa2d;fill-opacity:1;fill-rule:nonzero;stroke:none"
       id="text176"><tspan
         x="0 6.8579998"
         y="0"
         id="tspan174">• </tspan></text><text
       transform="matrix(1,0,0,-1,1383,616.4823)"
       style="font-variant:normal;font-weight:300;font-stretch:normal;font-size:18px;font-family:'Rubik Light';-inkscape-font-specification:Rubik-Light;writing-mode:lr-tb;fill:#000000;fill-opacity:1;fill-rule:nonzero;stroke:none"
       id="text184"><tspan
         x="0 11.754 16.398001 26.478001 37.566002 48.653999 55.818001 60.462002 67.769997 77.814003 88.181999 97.704002 102.348 112.392 121.05 131.09399 141.82201 151.308 162.036 172.134 176.778 190.81799 200.862 210.50999 219.1662 229.21021 238.9662 248.6142 257.7222 268.4502 279.17819 283.8222 291.13019 301.17419 310.8222 320.34421 330.71219 340.3602 350.81821 360.46619 369.4122 379.16821 388.99619 399.72421 410.45221 422.31421 433.04221"
         y="0"
         id="tspan178">В 2001 году окончил Московский государственный </tspan><tspan
         x="0 9.5220003 20.25 30.978001 40.734001 50.562 61.02 70.667999 81.396004 90.342003 100.17 109.116 113.76 124.488 136.44 140.724 145.368 159.2442 163.5282 168.1722 179.92619 184.21021 188.8542 201.09419 211.1382 223.09019 233.1342 243.8622 253.9062 263.5542 273.59821 283.35419 293.0022"
         y="23.993999"
         id="tspan180">университет им. М. В. Ломоносова </tspan><tspan
         x="0 10.368 20.412001 25.056 34.703999 45.071999 54.900002 65.718002 76.445999 86.094002 96.192001 104.76 115.488 125.532 135.17999 144.12601 154.854 159.498 170.35201 184.392 194.22 207.702 218.07001 227.592 238.32001 247.968 258.42599 268.47 278.83801 289.56601 301.42801 312.15601 316.79999 327.00601 337.73401 346.59 357.31799 367.146 376.79401 387.64801"
         y="47.987999"
         id="tspan182">по специальности «Международный бизнес».</tspan></text><text
       transform="matrix(1,0,0,-1,1365,539.4963)"
       style="font-variant:normal;font-weight:normal;font-stretch:normal;font-size:18px;font-family:Rubik;-inkscape-font-specification:Rubik-Regular;writing-mode:lr-tb;fill:#faaa2d;fill-opacity:1;fill-rule:nonzero;stroke:none"
       id="text188"><tspan
         x="0 6.8579998"
         y="0"
         id="tspan186">• </tspan></text><text
       transform="matrix(1,0,0,-1,1383,539.4963)"
       style="font-variant:normal;font-weight:300;font-stretch:normal;font-size:18px;font-family:'Rubik Light';-inkscape-font-specification:Rubik-Light;writing-mode:lr-tb;fill:#000000;fill-opacity:1;fill-rule:nonzero;stroke:none"
       id="text196"><tspan
         x="0 11.754 16.398001 26.478001 37.566002 44.73 53.495998 58.139999 65.447998 75.491997 85.860001 95.382004 100.026 108.882 118.53 129.258 139.98599 151.938 161.586 171.68401 176.328 186.696 196.5582 206.6562 220.1382 230.8662 240.9102 250.5582 259.50421 268.0722"
         y="0"
         id="tspan190">В 2017 году занимал должность </tspan><tspan
         x="0 8.8559999 18.504 30.455999 40.284 49.931999 58.877998 69.606003 78.552002 88.306198 98.404198 107.7462 112.3902 119.1222 128.9502 139.67821 149.5062 159.9642 169.6122 179.71021 188.2782 199.0062 209.0502 216.3564 226.40041 231.0444 241.4124 252.1404 262.59839 272.42639 281.53439 290.48041 300.52441 310.98239 320.6304"
         y="23.993999"
         id="tspan192">заместителя Генерального директора </tspan><tspan
         x="0 11.7 23.615999 28.26 39.113998 46.403999 56.52 66.042 76.410004 86.778 96.426003 101.07 109.7262 119.7702 131.7222 142.09019 151.7382 162.4662 173.1942 183.9222 188.56619 199.4202 211.12019 221.0022 229.6062 242.67419 253.40221 263.1582 272.98621 282.63419 291.5802 302.4342"
         y="47.987999"
         id="tspan194">АО «Группа компаний «АК-Инвест».</tspan></text><text
       transform="matrix(1,0,0,-1,1365,462.5103)"
       style="font-variant:normal;font-weight:normal;font-stretch:normal;font-size:18px;font-family:Rubik;-inkscape-font-specification:Rubik-Regular;writing-mode:lr-tb;fill:#faaa2d;fill-opacity:1;fill-rule:nonzero;stroke:none"
       id="text200"><tspan
         x="0 6.8579998"
         y="0"
         id="tspan198">• </tspan></text><text
       transform="matrix(1,0,0,-1,1383,462.5103)"
       style="font-variant:normal;font-weight:300;font-stretch:normal;font-size:18px;font-family:'Rubik Light';-inkscape-font-specification:Rubik-Light;writing-mode:lr-tb;fill:#000000;fill-opacity:1;fill-rule:nonzero;stroke:none"
       id="text208"><tspan
         x="0 11.718 16.362 26.441999 37.529999 44.694 53.459999 58.104 68.472 78.515999 83.160004 93.239998 104.328 111.492 121.788 126.432 133.7382 143.7822 154.15021 158.7942 172.6002 177.2442 186.1002 195.7482 207.7002 217.5282 227.17619 236.12219 246.8502 255.7962 265.55042 275.64841 284.2164"
         y="0"
         id="tspan202">С 2017 по 2019 год — заместитель </tspan><tspan
         x="0 6.7319999 16.559999 27.288 37.116001 47.574001 57.222 67.32 75.888 86.615997 96.660004 103.9662 114.0102 118.6542 129.0222 139.7502 150.20821 160.03619 169.1442 178.09019 188.1342 198.59219 208.2402 212.8842 223.2522 233.2962 237.9402 247.5882 256.53421 266.99219 276.6402 285.58621 295.41422 302.9382 313.6662 323.15219 332.98019 342.6282 351.28439 361.3284 373.2804 382.8024"
         y="23.993999"
         id="tspan204">Генерального директора по стратегическому </tspan><tspan
         x="0 10.458 20.106001 28.962 38.717999 49.445999 58.391998 69.120003 82.853996 87.498001 100.098 111.798 123.714 128.358 139.21201 150.912 160.668 171.396 181.04401 189.7002 199.7442 211.6962 222.06419 231.7122 242.4402 253.1682 262.51019 267.15421 283.6062 292.55219 302.2002 312.92819 323.3862 334.2402"
         y="47.987999"
         id="tspan206">развитию ПАО «Авиакомпания Ютэйр».</tspan></text><text
       transform="matrix(1,0,0,-1,1365,385.5243)"
       style="font-variant:normal;font-weight:normal;font-stretch:normal;font-size:18px;font-family:Rubik;-inkscape-font-specification:Rubik-Regular;writing-mode:lr-tb;fill:#faaa2d;fill-opacity:1;fill-rule:nonzero;stroke:none"
       id="text212"><tspan
         x="0 6.8579998"
         y="0"
         id="tspan210">• </tspan></text><text
       transform="matrix(1,0,0,-1,1383,385.5243)"
       style="font-variant:normal;font-weight:300;font-stretch:normal;font-size:18px;font-family:'Rubik Light';-inkscape-font-specification:Rubik-Light;writing-mode:lr-tb;fill:#000000;fill-opacity:1;fill-rule:nonzero;stroke:none"
       id="text220"><tspan
         x="0 11.718 16.362 26.01 36.377998 46.835999 56.590199 66.688202 76.030197 80.674202 90.754204 101.8422 109.0062 119.3022 123.9462 131.2542 141.2982 151.6662 161.31419 165.95821 175.3002 185.0562 195.15421 204.4962 214.3242 223.2702 232.9182 242.26019"
         y="0"
         id="tspan214">С апреля 2019 года является </tspan><tspan
         x="0 8.8559999 18.504 30.455999 40.284 49.931999 58.877998 69.606003 78.552002 88.306198 98.404198 108.2322 120.1842 124.8282 131.5602 141.3882 152.1162 161.9442 172.40221 182.0502 192.14819 200.7162 211.4442 221.4882 228.7944 238.83839 243.48241 253.8504 264.5784 275.03641 284.86441 293.97241 302.9184 312.9624 323.42041 333.06839"
         y="23.993999"
         id="tspan216">заместителем Генерального директора </tspan><tspan
         x="0 10.368 20.412001 25.056 34.703999 43.650002 54.108002 63.756001 72.702003 82.529999 90.054001 100.782 111.51 116.154 126.882 131.526 141.98399 151.632 160.48801 170.244 180.972 189.918 200.646 214.38 219.024 231.62399 240.714 251.76601"
         y="47.987999"
         id="tspan218">по стратегии и развитию ПГК.</tspan></text><text
       transform="matrix(1,0,0,-1,1365,308.5383)"
       style="font-variant:normal;font-weight:normal;font-stretch:normal;font-size:18px;font-family:Rubik;-inkscape-font-specification:Rubik-Regular;writing-mode:lr-tb;fill:#faaa2d;fill-opacity:1;fill-rule:nonzero;stroke:none"
       id="text224"><tspan
         x="0 6.8579998"
         y="0"
         id="tspan222">• </tspan></text><text
       transform="matrix(1,0,0,-1,1383,308.5383)"
       style="font-variant:normal;font-weight:300;font-stretch:normal;font-size:18px;font-family:'Rubik Light';-inkscape-font-specification:Rubik-Light;writing-mode:lr-tb;fill:#000000;fill-opacity:1;fill-rule:nonzero;stroke:none"
       id="text228"><tspan
         x="0 12.168 22.032 32.130001 41.958 52.686001 57.330002 66.851997 76.337997 85.986 95.634003 104.58 115.308 124.65 129.29401 139.05 143.694 152.9082 162.5562 171.5022 181.15021 190.9062 201.6342 211.67821 223.6302 228.2742 237.3822 247.0302 257.39819 268.12619 277.0722 286.72021 296.81821 306.64621 311.29019 323.8902 332.98019 344.0322 348.67621 359.40421 369.23221 373.87619 384.60419 396.55621 406.38419 416.21219 425.1582"
         y="0"
         id="tspan226">Долей участия в уставном капитале ПГК не имеет.</tspan></text><g
       id="g230"
       transform="translate(435,102)"><path
         d="M 0,0 H 456"
         style="fill:none;stroke:#e8f0ec;stroke-width:4;stroke-linecap:butt;stroke-linejoin:miter;stroke-miterlimit:4;stroke-dasharray:none;stroke-opacity:1"
         id="path232" /></g><g
       id="g234"
       transform="translate(1365,102)"><path
         d="M 0,0 H 456"
         style="fill:none;stroke:#e8f0ec;stroke-width:4;stroke-linecap:butt;stroke-linejoin:miter;stroke-miterlimit:4;stroke-dasharray:none;stroke-opacity:1"
         id="path236" /></g><text
       transform="matrix(1,0,0,-1,99,953.4)"
       style="font-variant:normal;font-weight:normal;font-stretch:normal;font-size:38px;font-family:'Prosto One';-inkscape-font-specification:ProstoOne-Regular;writing-mode:lr-tb;fill:#000000;fill-opacity:1;fill-rule:nonzero;stroke:none"
       id="text240"><tspan
         x="0 32.68 64.599998 102.41 136.61 166.63 208.42999 239.59 272.84 305.51999 335.92001 349.22 383.42001 396.72 426.54999 458.09 485.07001 516.98999 548.15002 577.21997 590.52002 622.44 652.46002 683.62 714.02002 745.56 772.53998 804.46002 837.14001"
         y="0"
         id="tspan238">ИНФОРМАЦИЯ О ЧЛЕНАХ ПРАВЛЕНИЯ</tspan></text><text
       transform="matrix(1,0,0,-1,39.03,1023)"
       style="font-variant:normal;font-weight:300;font-stretch:normal;font-size:20px;font-family:'Rubik Light';-inkscape-font-specification:Rubik-Light;writing-mode:lr-tb;fill:#000000;fill-opacity:1;fill-rule:nonzero;stroke:none"
       id="text244"><tspan
         x="0 9.04"
         y="0"
         id="tspan242">74</tspan></text><g
       id="g246"><g
         id="g248"><g
           id="g250"
           clip-path="url(#clipPath254)"><text
             transform="matrix(1,0,0,-1,99,1023)"
             style="font-variant:normal;font-weight:300;font-stretch:normal;font-size:20px;font-family:'Rubik Light';-inkscape-font-specification:Rubik-Light;writing-mode:lr-tb;fill:#000000;fill-opacity:1;fill-rule:nonzero;stroke:none"
             id="text258"><tspan
               x="0 13.24 18.4 28.02 39.18 52.459999 63.98 74.699997 86.620003 98.540001"
               y="0"
               id="tspan256">О компании</tspan></text></g></g></g></g></svg>
