<?xml version="1.0" encoding="UTF-8" standalone="no"?>
<?xml-stylesheet type="text/css" href="main.css" ?>
<svg
   xmlns:dc="http://purl.org/dc/elements/1.1/"
   xmlns:cc="http://creativecommons.org/ns#"
   xmlns:rdf="http://www.w3.org/1999/02/22-rdf-syntax-ns#"
   xmlns:svg="http://www.w3.org/2000/svg"
   xmlns="http://www.w3.org/2000/svg"
   version="1.1"
   id="svg2"
   xml:space="preserve"
   width="2560"
   height="1440"
   viewBox="0 0 2560 1440"><metadata
     id="metadata8"><rdf:RDF><cc:Work
         rdf:about=""><dc:format>image/svg+xml</dc:format><dc:type
           rdf:resource="http://purl.org/dc/dcmitype/StillImage" /></cc:Work></rdf:RDF></metadata><defs
     id="defs6"><clipPath
       clipPathUnits="userSpaceOnUse"
       id="clipPath20"><path
         d="M 0,1080 H 1920 V 0 H 0 Z"
         id="path18" /></clipPath><linearGradient
       x1="0"
       y1="0"
       x2="1"
       y2="0"
       gradientUnits="userSpaceOnUse"
       gradientTransform="matrix(1375.402,269.84314,269.84314,-1375.402,79.501566,65.480194)"
       spreadMethod="pad"
       id="linearGradient170"><stop
         style="stop-opacity:1;stop-color:#faaa2d"
         offset="0"
         id="stop166" /><stop
         style="stop-opacity:1;stop-color:#2960a1"
         offset="1"
         id="stop168" /></linearGradient><clipPath
       clipPathUnits="userSpaceOnUse"
       id="clipPath190"><path
         d="M 0,0 H 1920 V 1080 H 0 Z"
         id="path188" /></clipPath><clipPath
       clipPathUnits="userSpaceOnUse"
       id="clipPath212"><path
         d="M 0,1080 H 1920 V 0 H 0 Z"
         id="path210" /></clipPath></defs><g
     id="g10"
     transform="matrix(1.3333333,0,0,-1.3333333,0,1440)"><g
       id="g12"><g
         id="g14"><g
           id="g16"
           clip-path="url(#clipPath20)"><path
             d="M 0,0 H 1920 V 1080 H 0 Z"
             style="fill:#ffffff;fill-opacity:1;fill-rule:nonzero;stroke:none"
             id="path22" /></g></g></g><text
       transform="matrix(1,0,0,-1,99,953.8201)"
       style="font-variant:normal;font-weight:500;font-stretch:normal;font-size:28px;font-family:'Rubik Medium';-inkscape-font-specification:Rubik-Medium;writing-mode:lr-tb;fill:#000000;fill-opacity:1;fill-rule:nonzero;stroke:none"
       id="text30"><tspan
         x="0 19.459999 36.428001 55.411999 72.856003 89.823997 96.208 115.668 122.052 141.28799 160.748 178.864 199.304 218.73599 233.968 252.448 271.88 300.776 321.664 339.108 359.548 380.85599 399.952 418.51599"
         y="0"
         id="tspan24">ОТЧЕТ О ВОЗНАГРАЖДЕНИЯХ </tspan><tspan
         x="0 19.459999 37.939999 53.172001 72.603996 93.043999 112.504 131.74001 138.12399 155.51199 175.952 194.43201 213.864 233.10001 253.67999 271.12399 291.564 312.87201"
         y="33.992001"
         id="tspan26">ОРГАНОВ УПРАВЛЕНИЯ</tspan><tspan
         x="0 19.236 35.84 50.848 68.32 84.335999 96.823997 114.016 130.032 154.084 171.696 187.88 205.35201 222.82401 239.008 245.392 264.57199 281.17599 297.556 313.73999 328.608 344.62399 351.008 368.62 386.09201 403.284 419.46799 435.51199 450.38 466.98401 484.17599 500.78"
         y="109.592"
         id="tspan28">Вознаграждение Совета директоров</tspan></text><text
       transform="matrix(1,0,0,-1,99,804.2201)"
       style="font-variant:normal;font-weight:300;font-stretch:normal;font-size:20px;font-family:'Rubik Light';-inkscape-font-specification:Rubik-Light;writing-mode:lr-tb;fill:#000000;fill-opacity:1;fill-rule:nonzero;stroke:none"
       id="text34"><tspan
         x="0 13.06 18.219999 29.84 40.560001 53.84 63.959999 74.68 85.040001 90.199997 100.2 111.42 122 132.53999 147.92 158.84 170.75999 182.67999 193.06 198.22 208.94 220.86 231.58 241.52 252.44 265.72 278.89999 284.06 293.67599 304.836 316.45599 327.97601 339.13599 350.75601 361.47601 371.41599 383.336 394.17599 406.09601 417.25601 425.37601 436.53601 441.69601 452.276 463.79599 475.41599 486.13599 496.97601 508.19601"
         y="0"
         id="tspan32">В рамках улучшения системы корпоративного управле</tspan></text><text
       transform="matrix(1,0,0,-1,618.116,804.2201)"
       style="font-variant:normal;font-weight:300;font-stretch:normal;font-size:20px;font-family:'Rubik Light';-inkscape-font-specification:Rubik-Light;writing-mode:lr-tb;fill:#000000;fill-opacity:1;fill-rule:nonzero;stroke:none"
       id="text38"><tspan
         x="0"
         y="0"
         id="tspan36">-</tspan></text><text
       transform="matrix(1,0,0,-1,99,778.2201)"
       style="font-variant:normal;font-weight:300;font-stretch:normal;font-size:20px;font-family:'Rubik Light';-inkscape-font-specification:Rubik-Light;writing-mode:lr-tb;fill:#000000;fill-opacity:1;fill-rule:nonzero;stroke:none"
       id="text46"><tspan
         x="0 11.92 23.84 34.220001 39.380001 51.299999 56.459999 67.300003 79.220001 90.139999 101.66 113.28 124.2 136.12 148.03999 158.42 163.58 175.10001 186.72 198.64 210.56 222.58 234.5 246.02 257.17999 268.01999 273.17999 284.85599 296.01599 307.53601 318.45599 328.07599 338.79599 349.51599 354.67599 364.29599 375.45599 387.07599 398.59601 409.75601 421.37601 432.09601 442.03601 453.95599 464.79599 476.716 487.87601 495.99399 507.15399"
         y="0"
         id="tspan40">ния и внедрения принципов Кодекса корпоративного </tspan><tspan
         x="0 10.58 22.1 33.720001 44.439999 55.279999 66.5 77.419998 89.339996 101.26 111.64 116.38 121.54 133.16 144.08 153.698 164.858 178.138 189.058 200.978 212.498 223.658 234.498 245.218 257.138 269.05801 280.21799 288.336 299.496 304.65601 314.776 319.936 331.45599 343.07599 354.996 368.276 379.19601 391.116 402.03601 413.95599 425.87601 441.13599 446.29599 458.936 469.65601 481.57599 491.194 502.354 515.63397"
         y="26"
         id="tspan42">управления, рекомендованного к применению Банком </tspan><tspan
         x="0 12.56 23.719999 34.439999 45.16 57.080002 69 73.739998 78.900002 89.739998 94.900002 106.1 118.42 126.38 137.82001 142.98 151.09801 162.258 173.778 184.358 189.51801 200.358 205.51801 217.198 228.358 241.638 253.158 263.87799 275.798 287.71799 299.638 304.798 315.37799 325.31799 336.15799 347.078 358.698 373.67801 385.198 396.11801 408.03799 419.198 424.358 436.27802 447.43799 458.27802 469.43799 480.358 485.51801 499.51801"
         y="52"
         id="tspan44">России, в 2019 году в Компании утверждено новое По</tspan></text><text
       transform="matrix(1,0,0,-1,609.678,726.2201)"
       style="font-variant:normal;font-weight:300;font-stretch:normal;font-size:20px;font-family:'Rubik Light';-inkscape-font-specification:Rubik-Light;writing-mode:lr-tb;fill:#000000;fill-opacity:1;fill-rule:nonzero;stroke:none"
       id="text50"><tspan
         x="0"
         y="0"
         id="tspan48">-</tspan></text><text
       transform="matrix(1,0,0,-1,99,700.2201)"
       style="font-variant:normal;font-weight:300;font-stretch:normal;font-size:20px;font-family:'Rubik Light';-inkscape-font-specification:Rubik-Light;writing-mode:lr-tb;fill:#000000;fill-opacity:1;fill-rule:nonzero;stroke:none"
       id="text54"><tspan
         x="0 11.22 22.379999 37.360001 48.279999 60.200001 72.120003 83.040001 88.199997 99.360001 104.52 115.36 128.53999 140.06 151.28 162 171.94 182.86 188.02 198.56 209.78 220.7 232.62 243.34 256.62 261.78 274.79999 285.95999 296.79999 307.72 317.66 328.38 333.54001 345.06 356.98001 368.60001 379.51999 389.64001 399.57999 410.73999 422.35999 433.51999 444.35999 449.51999 463.51999 473.62 485.89999 491.06 501.89999 513.06"
         y="0"
         id="tspan52">ложение о выплате членам Совета директоров ПГК воз</tspan></text><text
       transform="matrix(1,0,0,-1,621.9,700.2201)"
       style="font-variant:normal;font-weight:300;font-stretch:normal;font-size:20px;font-family:'Rubik Light';-inkscape-font-specification:Rubik-Light;writing-mode:lr-tb;fill:#000000;fill-opacity:1;fill-rule:nonzero;stroke:none"
       id="text58"><tspan
         x="0"
         y="0"
         id="tspan56">-</tspan></text><text
       transform="matrix(1,0,0,-1,99,674.2201)"
       style="font-variant:normal;font-weight:300;font-stretch:normal;font-size:20px;font-family:'Rubik Light';-inkscape-font-specification:Rubik-Light;writing-mode:lr-tb;fill:#000000;fill-opacity:1;fill-rule:nonzero;stroke:none"
       id="text64"><tspan
         x="0 11.92 22.639999 31 42.619999 53.34 68.32 79.839996 90.760002 102.68 114.6 126.52 131.67999 143.60001 148.75999 158.37801 169.53799 182.81799 194.338 205.258 217.17799 227.89799 238.618 250.638 262.55801 274.478"
         y="0"
         id="tspan60">награждений и компенсаций.</tspan><tspan
         x="0 13.06 18.219999 28.940001 40.099998 51.259998 61.200001 72.040001 82.959999 92.900002 103.62 113.56 124.4 136.32001 148.24001 153.39999 164.12 169.28 179.86 189.98 200.7 210.53999 221.25999 233.17999 245.10001 258.28 271.56 276.72 290.72 301.67801 312.89801 324.05801 339.03799 349.95801 361.87799 373.798 384.71799 397.99799 403.15799 413.99799 419.15799 430.31799 441.03799 452.95801 464.11801 474.95801 485.87799 491.03799 501.87799 513.03802"
         y="39"
         id="tspan62">В соответствии с указанным Положением в основе воз</tspan></text><text
       transform="matrix(1,0,0,-1,621.878,635.2201)"
       style="font-variant:normal;font-weight:300;font-stretch:normal;font-size:20px;font-family:'Rubik Light';-inkscape-font-specification:Rubik-Light;writing-mode:lr-tb;fill:#000000;fill-opacity:1;fill-rule:nonzero;stroke:none"
       id="text68"><tspan
         x="0"
         y="0"
         id="tspan66">-</tspan></text><text
       transform="matrix(1,0,0,-1,99,609.2201)"
       style="font-variant:normal;font-weight:300;font-stretch:normal;font-size:20px;font-family:'Rubik Light';-inkscape-font-specification:Rubik-Light;writing-mode:lr-tb;fill:#000000;fill-opacity:1;fill-rule:nonzero;stroke:none"
       id="text74"><tspan
         x="0 11.92 22.639999 31 42.619999 53.34 68.32 79.839996 90.760002 102.68 114.6 124.98 130.14 140.67999 151.89999 162.82001 174.74001 185.89999 196.74001 201.89999 214.92 226.08 236.92 247.84 257.78 268.5 273.66 285.17999 297.10001 308.72 319.64001 329.76001 339.70001 350.85999 362.48001 373.64001 384.48001 389.64001 403.64001 413.73999 426.01999 431.17999 441.01999 451.73999 462.95999 474.12 489.10001 500.01999 511.94 523.09998"
         y="0"
         id="tspan70">награждения членов Совета директоров ПГК заложено </tspan><tspan
         x="0 12.06 23.4 34.119999 43.959999 55.119999 65.959999 77.120003 88.040001 93.199997 104.04 115.2 125.04 136.96001 147.67999 156.03999 167.66 178.38 193.36 204.88 215.8 227.72 239.64 250.56 262.62 267.35999 272.51999 282.13599 293.29599 303.23599 314.396 326.01599 337.17599 348.09601 353.25601 364.776 375.936 387.45599 398.41599 409.63599 421.556 431.936 442.85599 452.79599 463.51599 473.896 479.056 489.896"
         y="26"
         id="tspan72">«базовое вознаграждение», которое дополняется вы</tspan></text><text
       transform="matrix(1,0,0,-1,602.076,583.2201)"
       style="font-variant:normal;font-weight:300;font-stretch:normal;font-size:20px;font-family:'Rubik Light';-inkscape-font-specification:Rubik-Light;writing-mode:lr-tb;fill:#000000;fill-opacity:1;fill-rule:nonzero;stroke:none"
       id="text78"><tspan
         x="0"
         y="0"
         id="tspan76">-</tspan></text><text
       transform="matrix(1,0,0,-1,99,557.2201)"
       style="font-variant:normal;font-weight:300;font-stretch:normal;font-size:20px;font-family:'Rubik Light';-inkscape-font-specification:Rubik-Light;writing-mode:lr-tb;fill:#000000;fill-opacity:1;fill-rule:nonzero;stroke:none"
       id="text90"><tspan
         x="0 11.52 22.74 33.459999 43.400002 54.119999 67.400002 79.32 84.480003 94.32 105.04 110.2 120.78 131.32001 142.03999 152.75999 162.7 174.62 185.53999 190.7 201.53999 206.7 218.32001 229.03999 240.38 251.53999 261.48001 272.39999 277.56 290.57999 301.73999 312.57999 323.5 333.44 344.16 349.32001 360.84 372.76001 384.38 395.29999 405.42001 415.35999 426.51999 438.14001 449.29999 460.14001 465.29999 477.22 482.38 493.29999 501.414 512.57397"
         y="0"
         id="tspan80">платами за участие в работе Совета директоров и его </tspan><tspan
         x="0 11.68 22.84 36.119999 48.040001 57.98 68.900002 78.839996 90 100.84 105.6 110.76 123.32 134.03999 143.88 157.16 168.08 179.7 184.86 196.2 206.92 216.75999 227.92 238.75999 249.92 258.03601 269.19601 274.35599 285.19601 296.35599 306.19601 318.116 328.836 337.19601 348.81601 359.53601 374.51599 386.03601 396.95599 408.87601 420.79599 431.17599 436.336 446.57401 457.29401 467.23401 477.95401"
         y="26"
         id="tspan82">Комитетов. Размер базового вознаграждения уста-</tspan><tspan
         x="0 11.92 22.639999 33.48 44.700001 56.619999 67.459999 78.18 89.099998 99.040001 109.76 120.14 125.3 136.92 147.84 163.22 174.14 186.06 197.98 208.89999 222.17999 227.34 240.58 251.92 267.82001 278.73999 286.85599 298.01599 303.17599 313.896 325.056 336.396 348.01599 358.73599 370.65601 382.57599 392.95599 398.116 408.836 418.95599 430.97601 442.896 454.056 465.97601 476.896 488.51599 499.67599 510.51599"
         y="52"
         id="tspan84">навливается решением Общего собрания акционеров </tspan><tspan
         x="0 5.4400001 16.360001 27.879999 39.799999 51.720001 62.439999 72.379997 83.220001 94.139999 106.06 117.98 129.14 137.258 148.418 153.578 164.298 174.418 186.438 198.358 209.51801 221.438 232.358 243.978 254.698 261.078 266.23801 279.478 290.81799 306.71799 317.638 328.358 338.298 349.138 359.858"
         y="78"
         id="tspan86">(единственного акционера) Общества.</tspan><tspan
         x="594 606.70001 617.91998 628.84003 640.76001 651.47998 664.76001 669.91998 682.94 694.09998 704.94 715.85999 725.79999 736.52002 741.67999 753.20001 765.12 776.73999 787.65997 797.78003 807.71997 818.88 830.5 841.65997 852.5 857.65997 868.5 873.65997 883.5 894.21997 905.06 916.97998 927.70001 939.62 952.90002 964.06 974.78003 984.71997 996.64001 1001.8 1012.96 1022.9 1028.0601 1039.98 1050.34 1055.5 1066.08 1076.62"
         y="-288.60001"
         id="tspan88">Членам Совета директоров в зависимости от их уча</tspan></text><text
       transform="matrix(1,0,0,-1,1186.34,845.8201)"
       style="font-variant:normal;font-weight:300;font-stretch:normal;font-size:20px;font-family:'Rubik Light';-inkscape-font-specification:Rubik-Light;writing-mode:lr-tb;fill:#000000;fill-opacity:1;fill-rule:nonzero;stroke:none"
       id="text94"><tspan
         x="0"
         y="0"
         id="tspan92">-</tspan></text><text
       transform="matrix(1,0,0,-1,693,819.8201)"
       style="font-variant:normal;font-weight:300;font-stretch:normal;font-size:20px;font-family:'Rubik Light';-inkscape-font-specification:Rubik-Light;writing-mode:lr-tb;fill:#000000;fill-opacity:1;fill-rule:nonzero;stroke:none"
       id="text98"><tspan
         x="0 10.72 20.66 32.580002 42.959999 48.119999 58.959999 64.120003 75.739998 86.459999 97.800003 108.96 118.9 129.82001 134.98 148 159.16 170 180.92 190.86 201.58 206.74001 218.25999 230.17999 241.8 252.72 262.84 272.78 283.94 295.56 306.72 317.56 322.72 334.64001 339.79999 351.47601 362.63599 375.91599 387.836 397.776 408.69601 418.63599 429.79599 440.63599 445.79599 455.91599 461.07599 472.41599 483.13599 492.97601"
         y="0"
         id="tspan96">стия в работе Совета директоров и Комитетов к базо</tspan></text><text
       transform="matrix(1,0,0,-1,1197.136,819.8201)"
       style="font-variant:normal;font-weight:300;font-stretch:normal;font-size:20px;font-family:'Rubik Light';-inkscape-font-specification:Rubik-Light;writing-mode:lr-tb;fill:#000000;fill-opacity:1;fill-rule:nonzero;stroke:none"
       id="text102"><tspan
         x="0"
         y="0"
         id="tspan100">-</tspan></text><text
       transform="matrix(1,0,0,-1,693,793.8201)"
       style="font-variant:normal;font-weight:300;font-stretch:normal;font-size:20px;font-family:'Rubik Light';-inkscape-font-specification:Rubik-Light;writing-mode:lr-tb;fill:#000000;fill-opacity:1;fill-rule:nonzero;stroke:none"
       id="text152"><tspan
         x="0 10.84 22 35.279999 45.860001 51.02 61.860001 73.019997 82.860001 94.779999 105.5 113.86 125.48 136.2 151.17999 162.7 173.62 185.53999 197.46001 212.72 217.88 229.39999 240.56 251.89999 262.62 273.45999 284.67999 295.06 310.32001 320.26001 330.98001 341.35999 346.51999 357.23999 368.45999 379.38 390.89999 401.48001 416.73999 432.64001 444.56 455.48001 460.64001 471.35999 481.94 495.22 508.5 521.67999"
         y="0"
         id="tspan104">вому вознаграждению добавляются следующие суммы:</tspan><tspan
         x="0 7.5999999 18 32 43.619999 54.540001 66.059998 76.779999 87.699997 99.220001 109.94 119.88 130.718 141.938 157.198 162.358 175.37801 186.53799 197.37801 208.298 218.23801 228.95799 234.118 245.638 257.55801 269.17801 280.09799 290.21799 300.15799 311.31799 322.93799 334.09799 344.93799 350.09799 365.43799 370.59799 381.31799 391.89801 405.17801 418.45801 429.17801 434.33801 445.17801 450.33801 461.95801 472.67801 482.51801 495.798 506.71799 518.33801 529.258"
         y="35"
         id="tspan106">• Председателю Совета директоров — сумма в размере </tspan><tspan
         x="18 29.440001 41.759998 42.599998 57.419998 62.580002 73.919998 84.639999 94.480003 105.64 116.48 127.64 135.75999 146.92 152.08 162.92 174.08 183.92 195.84 206.56 214.92 226.53999 237.25999 252.24001 263.76001 274.67999 286.60001 298.51999 308.89999"
         y="61"
         id="tspan108">50 % базового вознаграждения;</tspan><tspan
         x="0 7.5999999 18 28.540001 39.759998 50.68 62.599998 73.18 78.339996 89.559998 104.82 116.16 127.32 135.438 146.59801 151.758 163.67799 173.51801 178.67799 190.358 201.51801 214.798 226.718 236.658 247.578 257.51801 268.67801 279.51801 284.67801 297.698 308.858 319.698 330.61801 340.55801 351.27802 356.43799 367.95801 379.87799 391.49799 402.418 412.53799 422.478 433.638 445.258 456.418 467.258"
         y="96"
         id="tspan110">• члену любого из Комитетов Совета директоров </tspan><tspan
         x="18 23.58 35.099998 46.720001 58.639999 70.559998 82.480003 95.760002 106.48 117.32 132.7 143.62 156.89999 167.48 172.64 183.22 193.75999 204.48 215.2 225.14 237.06 247.98 253.14 264.48001 275.436 286.65601 297.57599 308.496 313.65601 324.19601 335.116 348.396 353.556 364.396 369.556 381.07599 392.034 403.254 414.414 425.254 437.17401 449.09399 460.01401"
         y="122"
         id="tspan112">(принимавшему участие более чем в половине </tspan><tspan
         x="18 28.92 37.040001 48.200001 53.360001 63.200001 73.919998 84.639999 95.559998 107.08 117.8 129.72 141.64 152.758 159.138 164.298 179.638 184.798 195.51801 206.09801 219.37801 232.658 243.37801 248.53799 260.45801 270.298 275.45801 287.078 297.798 308.51801 319.05801 329.978 339.918 350.638 355.798 366.99799 378.43799 379.26001 394.07999 399.23999 410.57999 421.29999 431.14001 442.29999 453.14001 464.29999 472.42001 483.57999"
         y="148"
         id="tspan114">его заседаний) — сумма из расчета 25 % базового </tspan><tspan
         x="18 28.84 40 49.84 61.759998 72.480003 80.839996 92.459999 103.18 118.16 129.67999 140.60001 152.52 164.44 174.82001 179.98 189.82001 200.53999 205.7 216.24001 227.46001 238.38 250.3 261.01999 270.95999 281.79999 292.95999 298.12 308.95999 314.12 325.28 336.79999 348.72 359.88 373.16 378.32001 389.996 401.15601 414.436 426.35599 436.29599 447.216 457.15601 468.07599"
         y="174"
         id="tspan116">вознаграждения за членство в одном Комитете;</tspan><tspan
         x="0 7.5999999 18 29.52 41.139999 52.060001 63.580002 74.300003 85.220001 96.739998 107.46 117.4 128.23801 139.45799 154.718 159.87801 171.09801 186.358 197.698 208.858 216.976 228.136 233.29601 245.216 255.056 260.216 271.896 283.056 296.336 308.25601 318.19601 329.116 339.056 350.216 361.056 366.216 379.23599 390.396 401.23599 412.15601 422.09601 432.81601"
         y="209"
         id="tspan118">• председателю любого из Комитетов Совета </tspan><tspan
         x="18 29.52 41.439999 53.060001 63.98 74.099998 84.040001 95.199997 106.82 117.98 128.82001 133.98 139.558 151.078 162.698 174.618 186.53799 198.45799 211.73801 222.45799 233.298 248.67799 259.59799 272.87799 283.45801 288.61801 299.198 309.73801 320.45801 331.17801 341.11801 353.03799 363.95801 369.11801 380.45801 391.41599 402.63599 413.556 424.47601"
         y="235"
         id="tspan120">директоров (принимавшему участие более </tspan><tspan
         x="18 28.540001 39.459999 52.740002 57.900002 68.739998 73.900002 85.419998 96.379997 107.6 118.76 129.60001 141.52 153.44 164.36 169.52 180.44 188.558 199.718 204.87801 214.718 225.438 236.158 247.078 258.59799 269.31799 281.23801 293.15799 304.276 310.65601 315.81601 331.15601 336.31601 347.03601 357.616 370.896 384.17599 394.896 400.056 411.97601 421.81601 426.97601 438.59601 449.31601 460.03601 470.57599 481.496 491.436 502.15601"
         y="261"
         id="tspan122">чем в половине его заседаний) — сумма из расчета </tspan><tspan
         x="18 29.9 42.220001 43.060001 57.880001 63.040001 74.379997 85.099998 94.940002 106.1 116.94 128.10001 136.22 147.38 152.53999 163.38 174.53999 184.38 196.3 207.02 215.38 227 237.72 252.7 264.22 275.14001 287.06 298.98001 309.35999 314.51999 324.35999 335.07999 340.23999 351.76001 363.38 374.29999 385.82001 396.54001 407.45999 418.98001 429.70001 439.64001 450.47601 461.69601 471.216 481.936 491.87601 502.716 513.87598"
         y="287"
         id="tspan124">40 % базового вознаграждения за председательство </tspan><tspan
         x="18 28.84 34 45.16 56.68 68.599998 79.760002 93.040001 98.199997 109.88 121.04 134.32001 146.24001 156.17999 167.10001 177.03999 187.96001"
         y="313"
         id="tspan126">в одном Комитете.</tspan><tspan
         x="594 607.06 612.21997 622.94 634.15997 644.73999 655.28003 666 676.91998 682.08002 694 704.71997 716.23999 727.198 738.41803 750.33801 761.258 773.17798 785.09802 795.47803 800.638 811.17798 822.39801 833.31799 845.23798 856.39801 869.67798 874.83801 887.85797 899.01801 909.85797 920.77802 930.71802 941.43799 946.59802 958.11798 970.03802 981.65802 992.578 1002.698 1012.638 1023.798 1035.418 1046.578 1057.418"
         y="-52"
         id="tspan128">В случае исполнения членом Совета директоров </tspan><tspan
         x="594 605.91998 616.84003 627.56 637.17999 648.14001 659.35999 668.88 679 690.91998 701.28003 706.44 717.96002 729.12 740.64001 751.59802 762.81799 774.73798 786.65802 796.59802 807.43799 818.65802 828.17798 840.09802 853.27802 863.638 868.79797 879.95801 891.29797 901.67798 911.51801 922.23798 934.15802 946.078 957.23798 967.95801 977.89801 988.81799 1000.738 1005.478 1010.638 1021.218 1031.338 1042.058 1051.8979 1062.618 1074.538 1086.458 1099.6379 1109.998"
         y="-26"
         id="tspan130">нескольких дополнительных обязанностей, указанных </tspan><tspan
         x="594 604.84003 618.02002 633.40002 644.32001 649.06 654.21997 665.06 678.23999 689.76001 700.97998 711.70001 721.64001 734.82001 739.97998 749.82001 760.53998 765.70001 777.62 788.34003 799.85999 810.81799 822.03802 833.95801 844.87799 856.79797 868.71802 879.638 884.79797 894.91803 905.638 920.61798 932.138 943.29797 955.21802 960.37799 972.29797 982.138 987.29797 997.23798 1007.958 1018.078 1029.998 1040.358"
         y="7.1054274e-14"
         id="tspan132">выше, выплаты за исполнение каждой из таких </tspan><tspan
         x="594 605.15997 616.5 626.88 636.71997 647.44 659.35999 671.28003 682.44 693.15997 703.09998 714.02002 725.94 731.09998 741.82001 752.40002 765.67999 778.96002 790.88 802.11798 812.698 827.95801 837.89801 848.61798 858.99799"
         y="26"
         id="tspan134">обязанностей суммируются.</tspan><tspan
         x="594 606.70001 617.91998 628.84003 640.76001 651.34003 656.5 669.52002 680.67999 691.52002 702.44 712.38 723.09998 728.26001 739.78003 751.70001 763.32001 774.23999 784.35999 794.29999 805.46002 817.08002 828.23999 839.08002 843.82001 848.97998 859.70001 864.85999 875.44 885.97998 896.90002 906.84003 918 931.28003 936.44 947.65997 959.58002 970.12 982.03998 993.20001 1001.314 1012.474 1017.634 1028.474 1038.594 1049.814 1060.5341 1072.054 1082.774"
         y="65"
         id="tspan136">Члену Совета директоров, с учетом личного вклада </tspan><tspan
         x="594 604.84003 610 621.52002 632.44 642.82001 652.76001 663.59998 674.82001 684.34003 696.26001 707.41998 718.14001 728.08002 737.59998 742.76001 755.78003 766.94 777.78003 788.70001 798.64001 809.35999 814.52002 826.44 831.59998 843.27802 854.43799 867.71802 879.638 889.578 900.49799 910.43799 921.59802 932.43799 937.59802 949.11798 960.73798 972.65802 977.81799 989.73798 1000.658 1013.938 1018.678"
         y="91"
         id="tspan138">в деятельность Совета и Комитетов при нем, </tspan><tspan
         x="594 605.91998 616.64001 621.79999 632.96002 643.67999 655.59998 666.76001 677.59998 688.32001 700.23999 712.15997 724.08002 729.23999 740.85999 751.78003 761.39801 772.55798 785.83801 796.758 808.67798 820.198 830.91803 842.93799 854.85797 866.77802 871.93799 884.95801 896.11798 906.95801 917.87799 927.81799 938.53802 943.698 955.21802 967.138 978.758 989.67798 999.79797 1009.738 1020.898 1032.5179 1043.678 1054.5179"
         y="117"
         id="tspan140">на основании рекомендаций Совета директоров </tspan><tspan
         x="594 605.91998 611.08002 620.91998 631.64001 641.76001 652.97998 668.23999 678.78003 689.70001 701.62 713.53998 723.91998 729.08002 740.758 751.91803 765.198 777.11798 787.05798 797.97803 807.91803 818.638 823.79797 835.31799 846.47803 851.638 861.758 872.47803 883.99799 895.61798 906.33801 919.61798 924.77802 936.698 941.85797 952.698 963.85797 973.698 985.61798 996.33801 1004.698 1016.318 1027.038 1042.0179 1053.538 1064.458 1076.3781 1088.298 1098.678 1111.958"
         y="143"
         id="tspan142">и заключения Комитета по кадрам и вознаграждениям </tspan><tspan
         x="594 607.28003 618.44 633.41998 644.34003 654.28003 659.44 670.78003 683.96002 693.90002 703.41998 708.58002 719.41998 732.59998 744.12 755.34003 766.06 776.59998 787.52002 799.44 810.15997 815.32001 826.84003 838 849.52002 860.47601 871.69598 883.61603 895.53601 905.47601 916.31598 927.53601 937.05603 948.97601 959.69598 970.07599 975.23602 986.75598 998.37598 1009.296 1022.576 1034.496 1044.876"
         y="169"
         id="tspan144">может быть выплачена дополнительная премия.</tspan><tspan
         x="594 607.23999 617.96002 629.88 641.03998 651.88 662.59998 674.52002 686.44 697.35999 710.64001 715.79999 727.32001 738.53998 748.91998 754.08002 764.91998 778.09998 789.62 800.84003 811.56 821.5 834.67999 839.84003 850.67999 861.84003 871.67999 883.59998 894.32001 902.67999 914.29999 925.02002 940 951.52002 962.44 974.35999 986.28003 996.65997 1001.82 1012.2 1023.04 1034.26 1044.64 1055.5601 1065.5 1076.22 1086.6"
         y="208"
         id="tspan146">Основанием для выплаты вознаграждения является </tspan><tspan
         x="594 605.62 616.53998 631.91998 642.84003 654.76001 666.67999 677.59998 682.76001 696 707.34003 723.23999 734.15997 742.27802 753.43799 758.59802 769.31799 780.47803 791.81799 803.43799 814.15802 826.078 837.99799 848.37799 853.53802 864.258 874.37799 886.39801 898.31799 909.47803 921.39801 932.31799 943.93799 955.09802 965.93799 971.09802 976.53601 987.45599 998.97601 1010.896 1022.816 1033.536 1043.476 1054.316 1065.236 1077.156 1089.076 1100.236 1108.354 1119.514"
         y="234"
         id="tspan148">решение Общего собрания акционеров (единственного </tspan><tspan
         x="594 604.71997 614.84003 626.85999 638.78003 649.94 661.85999 672.78003 684.40002 695.12 701.5 706.65997 720.65997 730.76001 743.03998"
         y="260"
         id="tspan150">акционера) ПГК.</tspan></text><g
       id="g154"><g
         id="g156"><g
           id="g162"><g
             id="g164"><path
               d="m 1090.731,309.438 c -18.42,-17.217 -27.629,-41.5 -27.629,-72.856 v 0 -54.271 c 0,-28.945 8.931,-51.26 26.806,-66.935 v 0 c 17.87,-15.68 44.569,-23.517 80.092,-23.517 v 0 c 17.761,0 33.272,1.972 46.542,5.92 v 0 c 13.265,3.947 24.391,9.425 33.385,16.445 v 0 c 8.989,7.016 15.732,15.511 20.229,25.492 v 0 c 4.491,9.976 6.742,20.886 6.742,32.728 v 0 c 0,11.84 -2.194,22.746 -6.578,32.726 v 0 c -4.389,9.976 -10.854,18.472 -19.406,25.492 v 0 c -8.552,7.015 -19.077,12.499 -31.576,16.446 v 0 c -12.499,3.947 -26.756,5.921 -42.76,5.921 v 0 c -9.868,0 -18.697,-0.88 -26.478,-2.632 v 0 c -7.786,-1.758 -14.307,-3.618 -19.57,-5.592 v 0 c -6.363,-2.415 -11.842,-5.154 -16.446,-8.223 v 0 c 0,25.435 5.427,44.127 16.281,56.081 v 0 c 10.855,11.949 25.708,17.926 44.569,17.926 v 0 c 4.82,0 10.247,-0.385 16.281,-1.151 v 0 c 6.029,-0.77 12.278,-2.137 18.749,-4.111 v 0 c 6.465,-1.974 13.043,-4.662 19.735,-8.059 v 0 c 6.686,-3.402 13.1,-7.73 19.242,-12.992 v 0 l 14.801,19.735 c -12.499,10.742 -26.864,18.635 -43.088,23.682 v 0 c -16.231,5.041 -32.563,7.565 -49.01,7.565 v 0 c -35.523,0 -62.494,-8.608 -80.913,-25.82 m 38.976,-177.945 c -10.418,11.07 -15.623,26.915 -15.623,47.529 v 0 29.602 c 4.162,3.947 9.096,7.452 14.801,10.526 v 0 c 5.042,2.632 11.235,5.099 18.584,7.401 v 0 c 7.344,2.302 15.953,3.453 25.82,3.453 v 0 c 7.452,0 14.359,-1.372 20.722,-4.111 v 0 c 6.358,-2.745 11.893,-6.635 16.61,-11.677 v 0 c 4.713,-5.047 8.44,-11.132 11.184,-18.255 v 0 c 2.739,-7.128 4.111,-14.966 4.111,-23.517 v 0 c 0,-8.552 -1.372,-16.396 -4.111,-23.518 v 0 c -2.744,-7.128 -6.578,-13.214 -11.512,-18.255 v 0 c -4.935,-5.047 -10.855,-8.938 -17.762,-11.678 v 0 c -6.907,-2.744 -14.421,-4.111 -22.531,-4.111 v 0 c -16.446,0 -29.88,5.535 -40.293,16.611 M 879.108,326.048 c -16.996,-6.141 -31.741,-14.585 -44.24,-25.327 v 0 l 14.801,-19.735 c 12.5,10.742 25.492,18.364 38.977,22.86 v 0 c 13.486,4.492 28.452,6.743 44.898,6.743 v 0 c 18.199,0 31.792,-4.168 40.786,-12.498 v 0 c 8.988,-8.337 13.486,-19.52 13.486,-33.55 v 0 c 0,-10.746 -3.125,-20.229 -9.375,-28.452 v 0 c -6.249,-8.222 -13.542,-15.187 -21.872,-20.886 v 0 L 838.157,124.75 V 98.437 h 203.931 v 24.669 H 903.941 l 83.875,64.139 c 6.578,5.042 12.935,10.196 19.077,15.459 v 0 c 6.136,5.263 11.563,11.07 16.282,17.432 v 0 c 4.712,6.358 8.495,13.429 11.347,21.216 v 0 c 2.848,7.781 4.276,16.61 4.276,26.478 v 0 c 0,9.868 -2.086,18.913 -6.25,27.136 v 0 c -4.168,8.222 -10.473,15.346 -18.912,21.379 v 0 c -8.444,6.029 -19.026,10.691 -31.74,13.979 v 0 c -12.721,3.29 -27.743,4.934 -45.063,4.934 v 0 c -21.492,0 -40.734,-3.073 -57.725,-9.21 m -480.582,4.441 c -12.611,-3.182 -22.973,-7.565 -31.083,-13.157 v 0 c -8.114,-5.592 -14.092,-12.335 -17.925,-20.229 v 0 c -3.84,-7.893 -5.757,-16.559 -5.757,-25.984 v 0 c 0,-12.499 3.891,-23.024 11.677,-31.576 v 0 c 7.78,-8.552 18.692,-14.473 32.727,-17.761 v 0 c -8.336,-1.758 -15.788,-4.39 -22.366,-7.895 v 0 c -6.578,-3.51 -12.283,-7.843 -17.104,-12.993 v 0 c -4.826,-5.154 -8.5,-10.967 -11.019,-17.432 v 0 c -2.523,-6.471 -3.782,-13.434 -3.782,-20.886 v 0 c 0,-9.431 2.245,-18.419 6.743,-26.972 v 0 c 4.491,-8.552 11.347,-16.065 20.557,-22.531 v 0 c 9.21,-6.47 20.722,-11.625 34.536,-15.459 v 0 c 13.815,-3.834 29.932,-5.755 48.352,-5.755 v 0 c 18.419,0 34.536,1.921 48.35,5.755 v 0 c 13.815,3.834 25.327,8.989 34.537,15.459 v 0 c 9.21,6.466 16.06,13.979 20.558,22.531 v 0 c 4.492,8.553 6.742,17.541 6.742,26.972 v 0 c 0,7.452 -1.264,14.415 -3.782,20.886 v 0 c -2.524,6.465 -6.198,12.278 -11.019,17.432 v 0 c -4.826,5.15 -10.582,9.483 -17.268,12.993 v 0 c -6.692,3.505 -14.092,6.137 -22.202,7.895 v 0 c 14.03,3.288 24.941,9.209 32.727,17.761 v 0 c 7.781,8.552 11.677,19.077 11.677,31.576 v 0 c 0,9.425 -1.923,18.091 -5.756,25.984 v 0 c -3.839,7.894 -9.817,14.637 -17.927,20.229 v 0 c -8.114,5.592 -18.475,9.975 -31.082,13.157 v 0 c -12.612,3.176 -27.794,4.769 -45.555,4.769 v 0 c -17.762,0 -32.949,-1.593 -45.556,-4.769 m 8.552,-87.821 c -8.223,7.344 -12.334,16.825 -12.334,28.451 v 0 c 0,12.499 4.111,22.475 12.334,29.932 v 0 c 8.223,7.452 20.558,11.183 37.004,11.183 v 0 c 16.445,0 28.78,-3.731 37.003,-11.183 v 0 c 8.222,-7.457 12.335,-17.433 12.335,-29.932 v 0 c 0,-11.626 -4.113,-21.107 -12.335,-28.451 v 0 c -8.223,-7.35 -20.558,-11.02 -37.003,-11.02 v 0 c -16.446,0 -28.781,3.67 -37.004,11.02 m -7.565,-114.464 c -9.76,8.88 -14.637,20.336 -14.637,34.372 v 0 c 0,13.156 4.934,24.119 14.801,32.891 v 0 c 9.868,8.768 24.669,13.157 44.405,13.157 v 0 c 19.735,0 34.536,-4.389 44.404,-13.157 v 0 c 9.867,-8.772 14.801,-19.735 14.801,-32.891 v 0 c 0,-14.036 -4.882,-25.492 -14.637,-34.372 v 0 c -9.76,-8.881 -24.617,-13.322 -44.568,-13.322 v 0 c -19.957,0 -34.814,4.441 -44.569,13.322 m -244.88,202.285 c -12.612,-3.182 -22.973,-7.565 -31.083,-13.157 v 0 c -8.115,-5.592 -14.092,-12.335 -17.926,-20.229 v 0 c -3.839,-7.893 -5.756,-16.559 -5.756,-25.984 v 0 c 0,-12.499 3.89,-23.024 11.676,-31.576 v 0 c 7.782,-8.552 18.692,-14.473 32.728,-17.761 v 0 c -8.336,-1.758 -15.789,-4.39 -22.367,-7.895 v 0 c -6.578,-3.51 -12.283,-7.843 -17.104,-12.993 v 0 c -4.825,-5.154 -8.5,-10.967 -11.018,-17.432 v 0 C 91.259,176.991 90,170.028 90,162.576 v 0 c 0,-9.431 2.245,-18.419 6.743,-26.972 v 0 c 4.492,-8.552 11.348,-16.065 20.558,-22.531 v 0 c 9.209,-6.47 20.721,-11.625 34.536,-15.459 v 0 c 13.814,-3.834 29.931,-5.755 48.351,-5.755 v 0 c 18.419,0 34.537,1.921 48.352,5.755 v 0 c 13.814,3.834 25.325,8.989 34.535,15.459 v 0 c 9.21,6.466 16.061,13.979 20.558,22.531 v 0 c 4.492,8.553 6.743,17.541 6.743,26.972 v 0 c 0,7.452 -1.265,14.415 -3.783,20.886 v 0 c -2.524,6.465 -6.198,12.278 -11.019,17.432 v 0 c -4.825,5.15 -10.582,9.483 -17.268,12.993 v 0 c -6.691,3.505 -14.092,6.137 -22.202,7.895 v 0 c 14.031,3.288 24.942,9.209 32.728,17.761 v 0 c 7.781,8.552 11.676,19.077 11.676,31.576 v 0 c 0,9.425 -1.922,18.091 -5.756,25.984 v 0 c -3.839,7.894 -9.816,14.637 -17.926,20.229 v 0 c -8.115,5.592 -18.476,9.975 -31.083,13.157 v 0 c -12.611,3.176 -27.794,4.769 -45.555,4.769 v 0 c -17.762,0 -32.948,-1.593 -45.555,-4.769 m 8.551,-87.821 c -8.223,7.344 -12.334,16.825 -12.334,28.451 v 0 c 0,12.499 4.111,22.475 12.334,29.932 v 0 c 8.224,7.452 20.558,11.183 37.004,11.183 v 0 c 16.446,0 28.78,-3.731 37.003,-11.183 v 0 c 8.224,-7.457 12.335,-17.433 12.335,-29.932 v 0 c 0,-11.626 -4.111,-21.107 -12.335,-28.451 v 0 c -8.223,-7.35 -20.557,-11.02 -37.003,-11.02 v 0 c -16.446,0 -28.78,3.67 -37.004,11.02 m -7.565,-114.464 c -9.76,8.88 -14.637,20.336 -14.637,34.372 v 0 c 0,13.156 4.934,24.119 14.802,32.891 v 0 c 9.867,8.768 24.669,13.157 44.404,13.157 v 0 c 19.735,0 34.537,-4.389 44.404,-13.157 v 0 c 9.868,-8.772 14.801,-19.735 14.801,-32.891 v 0 c 0,-14.036 -4.882,-25.492 -14.636,-34.372 v 0 c -9.76,-8.881 -24.618,-13.322 -44.569,-13.322 v 0 c -19.956,0 -34.814,4.441 -44.569,13.322 m 1255.373,200.476 -55.916,-39.47 14.801,-21.38 39.471,21.38 h 3.289 V 98.437 h 47.693 V 328.68 Z m -799.162,0 V 304.011 H 768.067 L 659.524,98.437 h 49.338 L 815.76,300.721 v 27.959 z m 698.714,-191.596 c -4.497,-4.933 -6.743,-10.69 -6.743,-17.268 v 0 c 0,-6.578 2.189,-12.334 6.578,-17.268 v 0 c 4.384,-4.934 9.868,-7.401 16.446,-7.401 v 0 c 2.19,0 4.163,0.221 5.921,0.658 v 0 c 0.874,0.221 1.644,0.55 2.302,0.987 v 0 c -0.878,-6.579 -3.782,-11.784 -8.716,-15.624 v 0 c -4.934,-3.834 -10.253,-5.756 -15.953,-5.756 v 0 V 63.9 c 5.263,0 10.577,0.935 15.953,2.795 v 0 c 5.371,1.866 10.14,4.826 14.308,8.882 v 0 c 4.162,4.06 7.565,9.209 10.196,15.459 v 0 c 2.632,6.25 3.947,13.65 3.947,22.202 v 0 c 0,8.33 -2.302,15.623 -6.907,21.873 v 0 c -4.604,6.249 -11.075,9.374 -19.406,9.374 v 0 c -7.457,0 -13.434,-2.467 -17.926,-7.401"
               style="fill:url(#linearGradient170);stroke:none"
               id="path172" /></g></g></g></g><text
       transform="matrix(1,0,0,-1,1510,178)"
       style="font-variant:normal;font-weight:500;font-stretch:normal;font-size:20px;font-family:'Rubik Medium';-inkscape-font-specification:Rubik-Medium;writing-mode:lr-tb;fill:#000000;fill-opacity:1;fill-rule:nonzero;stroke:none"
       id="text182"><tspan
         x="0 13.7 25.139999 39.220001 53.299999 64.739998 69.300003 81 92.860001 103.58 116.06 127.5 136.42 148.7 160.14 177.32001 189.89999 201.46001 213.94 226.42 238.89999"
         y="0"
         id="tspan174">Сумма вознаграждений </tspan><tspan
         x="0 11.58 23.66 35.220001 47.700001 59.139999 73.220001 77.779999 91.480003 103.34 115.04 126.6 137.22 148.66 153.22 165.8 178.28 190.56 202.12 213.58 224.2 236.06 248.34 260.20001 271.89999 277.20001"
         y="26"
         id="tspan176">членам Совета директоров, </tspan><tspan
         x="0 11.7 27.059999 39.299999 51.380001 62.82 74.400002 85.959999 98.440002 110.92 122.36 133.88 138.44 150.14 154.7 167.10001 180.28 192.67999 205.86 210.42 219.158 231.01801 243.59801 253.978 259.27802"
         y="52"
         id="tspan178">выплаченная в 2020 году, </tspan><tspan
         x="0 11.44 23.299999 34.740002 45.360001 56.799999 68.5 80.980003 93.059998 104.5 109.06 122.2 135.34 137.84 148.74001 161.14 173.7 177.67999 186.96001 191.52 202.14 217.5 228.94 234.32001 238.88 250.73801 262.17801"
         y="78"
         id="tspan180">составила 88 726,1 тыс. руб</tspan></text><g
       id="g184"><g
         id="g186"
         clip-path="url(#clipPath190)"><g
           id="g192"
           transform="translate(1648,326.6842)"><path
             d="m 0,0 h -123 c -11.046,0 -20,-8.954 -20,-20 0,-11.046 8.954,-20 20,-20 H 0 c 11.046,0 20,8.954 20,20 C 20,-8.954 11.046,0 0,0"
             style="fill:#e8e8ed;fill-opacity:1;fill-rule:nonzero;stroke:none"
             id="path194" /></g></g></g><text
       transform="matrix(1,0,0,-1,1525,299.4009)"
       style="font-variant:normal;font-weight:500;font-stretch:normal;font-size:28px;font-family:'Rubik Medium';-inkscape-font-specification:Rubik-Medium;writing-mode:lr-tb;fill:#000000;fill-opacity:1;fill-rule:nonzero;stroke:none"
       id="text198"><tspan
         x="0 14.868 36.372002 52.388 59.919998 66.304001 82.907997 98.924004 115.668"
         y="0"
         id="tspan196">тыс. руб.</tspan></text><text
       transform="matrix(1,0,0,-1,38.9101,1023)"
       style="font-variant:normal;font-weight:300;font-stretch:normal;font-size:20px;font-family:'Rubik Light';-inkscape-font-specification:Rubik-Light;writing-mode:lr-tb;fill:#000000;fill-opacity:1;fill-rule:nonzero;stroke:none"
       id="text202"><tspan
         x="0 9.7399998"
         y="0"
         id="tspan200">75</tspan></text><g
       id="g204"><g
         id="g206"><g
           id="g208"
           clip-path="url(#clipPath212)"><text
             transform="matrix(1,0,0,-1,99,1023)"
             style="font-variant:normal;font-weight:300;font-stretch:normal;font-size:20px;font-family:'Rubik Light';-inkscape-font-specification:Rubik-Light;writing-mode:lr-tb;fill:#000000;fill-opacity:1;fill-rule:nonzero;stroke:none"
             id="text216"><tspan
               x="0 13.24 18.4 28.02 39.18 52.459999 63.98 74.699997 86.620003 98.540001"
               y="0"
               id="tspan214">О компании</tspan></text></g></g></g></g></svg>
