<?xml version="1.0" encoding="UTF-8" standalone="no"?>
<?xml-stylesheet type="text/css" href="main.css" ?>
<svg
   xmlns:dc="http://purl.org/dc/elements/1.1/"
   xmlns:cc="http://creativecommons.org/ns#"
   xmlns:rdf="http://www.w3.org/1999/02/22-rdf-syntax-ns#"
   xmlns:svg="http://www.w3.org/2000/svg"
   xmlns="http://www.w3.org/2000/svg"
   version="1.1"
   id="svg2"
   xml:space="preserve"
   width="2560"
   height="1440"
   viewBox="0 0 2560 1440"><metadata
     id="metadata8"><rdf:RDF><cc:Work
         rdf:about=""><dc:format>image/svg+xml</dc:format><dc:type
           rdf:resource="http://purl.org/dc/dcmitype/StillImage" /></cc:Work></rdf:RDF></metadata><defs
     id="defs6"><clipPath
       clipPathUnits="userSpaceOnUse"
       id="clipPath20"><path
         d="M 0,1080 H 1920 V 0 H 0 Z"
         id="path18" /></clipPath><clipPath
       clipPathUnits="userSpaceOnUse"
       id="clipPath190"><path
         d="M 0,0 H 1920 V 1080 H 0 Z"
         id="path188" /></clipPath><clipPath
       clipPathUnits="userSpaceOnUse"
       id="clipPath262"><path
         d="M 0,1080 H 1920 V 0 H 0 Z"
         id="path260" /></clipPath></defs><g
     id="g10"
     transform="matrix(1.3333333,0,0,-1.3333333,0,1440)"><g
       id="g12"><g
         id="g14"><g
           id="g16"
           clip-path="url(#clipPath20)"><path
             d="M 0,0 H 1920 V 1080 H 0 Z"
             style="fill:#ffffff;fill-opacity:1;fill-rule:nonzero;stroke:none"
             id="path22" /></g></g></g><path
       d="m 1287,0 h 633 v 1080 h -633 z"
       style="fill:#e8e8ed;fill-opacity:1;fill-rule:nonzero;stroke:none"
       id="path24" /><text
       transform="matrix(1,0,0,-1,1347,357.4998)"
       style="font-variant:normal;font-weight:500;font-stretch:normal;font-size:20px;font-family:'Rubik Medium';-inkscape-font-specification:Rubik-Medium;writing-mode:lr-tb;fill:#000000;fill-opacity:1;fill-rule:nonzero;stroke:none"
       id="text28"><tspan
         x="0 13.74 25.6 36.32 48.799999 60.240002 69.160004 81.440002 92.879997 110.06 122.64 134.2 146.67999 159.16 170.72 175.28 186.86 198.94 210.5 222.98 234.84 246.53999 251.10001 265.70001 277.98001 289.42001 301.12 313.20001 324.76001 337.23999 349.72"
         y="0"
         id="tspan26">Вознаграждение членов Правления</tspan></text><text
       transform="matrix(1,0,0,-1,1347,331.4998)"
       style="font-variant:normal;font-weight:500;font-stretch:normal;font-size:20px;font-family:'Rubik Medium';-inkscape-font-specification:Rubik-Medium;writing-mode:lr-tb;fill:#000000;fill-opacity:1;fill-rule:nonzero;stroke:none"
       id="text32"><tspan
         x="0 10.72 22.16 26.719999 39.119999 52.299999 64.699997 77.879997 82.440002 91.18 103.04 115.62 120.92 125.48 136.10001 151.46001 162.89999 168.28 172.84 184.698 196.138 208.09801"
         y="0"
         id="tspan30">за 2020 год, тыс. руб.</tspan></text><g
       id="g34"
       transform="translate(1347,258.7998)"><path
         d="M 0,0 H 349"
         style="fill:none;stroke:#bdbdbd;stroke-width:1;stroke-linecap:butt;stroke-linejoin:miter;stroke-miterlimit:10;stroke-dasharray:none;stroke-opacity:1"
         id="path36" /></g><g
       id="g38"
       transform="translate(1696,258.7998)"><path
         d="M 0,0 H 124"
         style="fill:none;stroke:#bdbdbd;stroke-width:1;stroke-linecap:butt;stroke-linejoin:miter;stroke-miterlimit:10;stroke-dasharray:none;stroke-opacity:1"
         id="path40" /></g><g
       id="g42"
       transform="translate(1347,216.0999)"><path
         d="M 0,0 H 349"
         style="fill:none;stroke:#bdbdbd;stroke-width:1;stroke-linecap:butt;stroke-linejoin:miter;stroke-miterlimit:10;stroke-dasharray:none;stroke-opacity:1"
         id="path44" /></g><g
       id="g46"
       transform="translate(1696,216.0999)"><path
         d="M 0,0 H 124"
         style="fill:none;stroke:#bdbdbd;stroke-width:1;stroke-linecap:butt;stroke-linejoin:miter;stroke-miterlimit:10;stroke-dasharray:none;stroke-opacity:1"
         id="path48" /></g><g
       id="g50"
       transform="translate(1347,173.3999)"><path
         d="M 0,0 H 349"
         style="fill:none;stroke:#bdbdbd;stroke-width:1;stroke-linecap:butt;stroke-linejoin:miter;stroke-miterlimit:10;stroke-dasharray:none;stroke-opacity:1"
         id="path52" /></g><g
       id="g54"
       transform="translate(1696,173.3999)"><path
         d="M 0,0 H 124"
         style="fill:none;stroke:#bdbdbd;stroke-width:1;stroke-linecap:butt;stroke-linejoin:miter;stroke-miterlimit:10;stroke-dasharray:none;stroke-opacity:1"
         id="path56" /></g><g
       id="g58"
       transform="translate(1347,130.7)"><path
         d="M 0,0 H 349"
         style="fill:none;stroke:#bdbdbd;stroke-width:1;stroke-linecap:butt;stroke-linejoin:miter;stroke-miterlimit:10;stroke-dasharray:none;stroke-opacity:1"
         id="path60" /></g><g
       id="g62"
       transform="translate(1696,130.7)"><path
         d="M 0,0 H 124"
         style="fill:none;stroke:#bdbdbd;stroke-width:1;stroke-linecap:butt;stroke-linejoin:miter;stroke-miterlimit:10;stroke-dasharray:none;stroke-opacity:1"
         id="path64" /></g><text
       transform="matrix(1,0,0,-1,1347,270.7998)"
       style="font-variant:normal;font-weight:300;font-stretch:normal;font-size:20px;font-family:'Rubik Light';-inkscape-font-specification:Rubik-Light;writing-mode:lr-tb;fill:#000000;fill-opacity:1;fill-rule:nonzero;stroke:none"
       id="text74"><tspan
         x="0 11.98 22.700001 34.32 45.040001 56.380001 67.540001 77.480003 89.400002 100.12 110.5 115.66 127.18 138.39999 149.12 159.06 378.35999 386.32001 394.28 405.72 410.88 423.23999 435.56 446.76001 450.89999 460.64001"
         y="0"
         id="tspan66">Заработная плата115 802,78</tspan><tspan
         x="0 14 25.620001 36.540001 49.82 61.740002 390.57999 401.64001 413.16 418.32001 426.28 436.01999 448.14001 452.28 461.35999"
         y="42.700001"
         id="tspan68">Премии93 178,76</tspan><tspan
         x="0 14.52 26.440001 39.619999 50.540001 55.700001 66.540001 78.459999 89.980003 103.16 108.32 119.16 130.32001 140.16 152.08 162.8 171.16 182.78 193.5 208.48 220 230.92 242.84 254.75999 412.67999 420.64001 425.79999 438.12 450.01999 461.66 465.04001"
         y="85.400002"
         id="tspan70">Иные виды вознаграждений1 046,1</tspan><tspan
         x="0 13.02 22.959999 34.580002 45.299999 55.66 66.82 77.660004 90.839996 101.76 106.92 117.76 127.6 139.52 150.67999 161.39999 389.35999 400.88 412.39999 417.56 429.92001 437.88 447.92001 452.06 461.10001"
         y="128.10001"
         id="tspan72">Страховые взносы33 819,74</tspan></text><text
       transform="matrix(1,0,0,-1,1347,99.9998)"
       style="font-variant:normal;font-weight:500;font-stretch:normal;font-size:20px;font-family:'Rubik Medium';-inkscape-font-specification:Rubik-Medium;writing-mode:lr-tb;fill:#000000;fill-opacity:1;fill-rule:nonzero;stroke:none"
       id="text78"><tspan
         x="0 15.22 27.34 41.240002 51.900002 363.98001 376.23999 389.29999 401.92001 406.48001 419.62 432.26001 441.94 447.23999 459.85999"
         y="0"
         id="tspan76">ИТОГО243 847,38</tspan></text><text
       transform="matrix(1,0,0,-1,1347,953.8201)"
       style="font-variant:normal;font-weight:500;font-stretch:normal;font-size:28px;font-family:'Rubik Medium';-inkscape-font-specification:Rubik-Medium;writing-mode:lr-tb;fill:#000000;fill-opacity:1;fill-rule:nonzero;stroke:none"
       id="text82"><tspan
         x="0 19.236 35.84 50.848 68.32 84.335999 96.823997 114.016 130.032 154.084 171.696 187.88 205.35201 222.82401"
         y="0"
         id="tspan80">Вознаграждение</tspan></text><text
       transform="matrix(1,0,0,-1,1347,919.8281)"
       style="font-variant:normal;font-weight:500;font-stretch:normal;font-size:28px;font-family:'Rubik Medium';-inkscape-font-specification:Rubik-Medium;writing-mode:lr-tb;fill:#000000;fill-opacity:1;fill-rule:nonzero;stroke:none"
       id="text86"><tspan
         x="0 16.212 33.124001 49.307999 66.779999 83.384003 99.764 106.148 126.588 143.78 159.79601 176.17599 193.088 209.272 226.744 244.216"
         y="0"
         id="tspan84">членов Правления</tspan></text><text
       transform="matrix(1,0,0,-1,1347,883.8201)"
       style="font-variant:normal;font-weight:300;font-stretch:normal;font-size:20px;font-family:'Rubik Light';-inkscape-font-specification:Rubik-Light;writing-mode:lr-tb;fill:#000000;fill-opacity:1;fill-rule:nonzero;stroke:none"
       id="text108"><tspan
         x="0 12.7 23.92 34.84 46.759998 59.939999 65.099998 79.099998 90.720001 101.44 112.28 123.5 134.42 146.34 158.25999 168.64 173.8 185.478 196.638 209.918 221.438 232.158 244.078 255.998 267.918 273.078 283.45801 294.298 305.51801 315.89801 331.15799 341.09799 351.81799 362.198 367.358 378.27802 389.198"
         y="0"
         id="tspan88">Члены Правления Компании являются ее </tspan><tspan
         x="0 10.72 21.879999 31.82 43.060001 53.639999 65.160004 77.080002 89 99.120003 109.84 123.12 135.03999 140.2 152.12 157.28 168.8 179.758 190.978 201.558 212.09801 222.81799 238.078 248.01801 253.17799 263.01801 273.73801 285.358 296.078 307.418 318.578 328.51801 340.43799 351.01801 366.27802 371.43799 382.95801 394.17801 404.89801 414.83801 425.418"
         y="26"
         id="tspan90">сотрудниками и получают заработную плату </tspan><tspan
         x="0 11.92 17.08 29 40.919998 54.099998 65.019997 70.18 81.019997 92.18 102.02 113.94 124.66 133.02 144.64 155.36 170.34 181.86 192.78 204.7 216.62 227 232.16 243 248.16 258.88 270.04001 281.20001 291.14001 301.98001 312.89999 322.84 333.56 343.5 354.34 366.26001 378.17999"
         y="52"
         id="tspan92">и иные вознаграждения в соответствии </tspan><tspan
         x="0 10.72 15.88 25.719999 36.439999 48.360001 60.279999 73.559998 84.279999 95.199997 108.48 119.64 131.56 136.72 148.24001 159.198 170.418 185.39799 197.31799 208.478 219.198 229.138 238.658 253.918 259.078 270.99799 281.71799 286.87799 298.03799 308.758 320.67801 331.83801 342.67801 353.39801 365.31799 377.23801 389.15799"
         y="78"
         id="tspan94">с занимаемой должностью на основании </tspan><tspan
         x="0 9.9399996 21.18 31.76 43.279999 54.439999 65.279999 76.440002 84.559998 95.720001 100.88 112.4 123.56 131.67799 142.838 153.67799 164.838 176.45799 187.17799 192.338 204.258 209.418 220.258 232.17799 242.758 252.698 264.31799 275.23801 287.15799 299.078 310.99799 321.358"
         y="104"
         id="tspan96">трудового договора и внутренних </tspan><tspan
         x="0 11.52 22.68 32.799999 43.380001 56.66 67.580002 79.5 89.440002 100.6 111.44 116.6 129.84 141.17999 157.08 168 178.72 188.66 199.5 210.22"
         y="130"
         id="tspan98">документов Общества.</tspan><tspan
         x="0 13.02 24.18 35.02 46.18 56.299999 66.879997 78.400002 90.32 103.5 115.42 120.58 132.2 142.92 152.75999 166.03999 176.96001 188.58 193.74001 204.58 215.74001 225.58 237.5 248.22 256.57999 268.20001 278.92001 293.89999 305.42001 316.34 328.26001 340.17999 352.10001"
         y="169"
         id="tspan100">Совокупный размер вознаграждений </tspan><tspan
         x="0 10.54 21.76 32.68 44.599998 55.32 68.599998 73.760002 87.760002 99.379997 110.1 120.94 132.16 143.08 155 166.92 177.3 182.46001 194.08 205 213.36 223.358 234.578 244.95799 256.578 268.49799 279.65799 284.81799 296.43799 307.15799 317.87799 327.99799 339.61801 352.798 363.638 374.358 385.27802 395.21799 405.93799 416.31799"
         y="195"
         id="tspan102">членам Правления регулярно раскрывается </tspan><tspan
         x="0 11.68 22.84 36.119999 47.639999 58.360001 70.279999 82.199997 93.120003 105.04 110.2 121.04 126.2 139.78 150.94 162.56 175.84 186.75999 191.92 203.08 213.02 223.56 234.48 244.42 255.14 260.29999 271.01999 284.29999 296.22 306.16 317.07999 329 338.94 349.66"
         y="221"
         id="tspan104">Компанией в форме отчета эмитента </tspan><tspan
         x="0 6.3800001 17.719999 28.639999 38.48 43.639999 54.220001 64.760002 75.68 85.620003 96.339996 101.5 112.22 122.16 133.78 144.5 154.86 166.02 176.86 190.03999 200.39999 205.56 216.39999 226.24001 238.16 249.32001 260.04001 271.20001 282.04001 288.42001"
         y="247"
         id="tspan106">(без учета страховых взносов).</tspan></text><text
       transform="matrix(1,0,0,-1,99,953.8201)"
       style="font-variant:normal;font-weight:500;font-stretch:normal;font-size:28px;font-family:'Rubik Medium';-inkscape-font-specification:Rubik-Medium;writing-mode:lr-tb;fill:#000000;fill-opacity:1;fill-rule:nonzero;stroke:none"
       id="text112"><tspan
         x="0 18.004 34.608002 54.32 71.456001 87.639999 105.112 121.128 137.144 155.008 172.48 188.608 194.992 212.18401 228.2 244.216 260.03601 276.64001 294.25201 310.85599"
         y="0"
         id="tspan110">Компенсация расходов</tspan></text><text
       transform="matrix(1,0,0,-1,99,919.8281)"
       style="font-variant:normal;font-weight:500;font-stretch:normal;font-size:28px;font-family:'Rubik Medium';-inkscape-font-specification:Rubik-Medium;writing-mode:lr-tb;fill:#000000;fill-opacity:1;fill-rule:nonzero;stroke:none"
       id="text116"><tspan
         x="0 16.212 33.124001 49.307999 66.779999 83.384003 99.764 106.148 125.328 141.93201 158.312 174.496 189.364 205.38 211.76401 229.37601 246.84801 264.04001 280.224 296.26801 311.13599 327.73999 344.93201 361.53601"
         y="0"
         id="tspan114">членов Совета директоров</tspan></text><text
       transform="matrix(1,0,0,-1,99,867.8201)"
       style="font-variant:normal;font-weight:300;font-stretch:normal;font-size:20px;font-family:'Rubik Light';-inkscape-font-specification:Rubik-Light;writing-mode:lr-tb;fill:#000000;fill-opacity:1;fill-rule:nonzero;stroke:none"
       id="text164"><tspan
         x="0 13.06 18.219999 28.940001 40.099998 51.259998 61.200001 72.040001 82.959999 92.900002 103.62 113.56 124.4 136.32001 148.24001 153.39999 164.12 169.28 179.86 189.8 200.64 211.56 223.17999 238.16 249.67999 260.60001 272.51999 284.44 297.62 310.89999 316.06 330.06 341.01599 352.23599 363.396 378.37601 389.29599 401.216 413.13599 424.056 437.336"
         y="0"
         id="tspan118">В соответствии с утвержденным Положением </tspan><tspan
         x="0 11.16 16.32 27.16 40.34 51.860001 63.080002 73.800003 83.739998 94.660004 99.82 110.36 121.58 132.5 144.42 155.14 168.42 173.58 186.60001 197.75999 208.60001 219.52 229.46001 240.17999 245.34 256.85999 268.78 280.39999 291.32001 301.44 311.38 322.54001 334.16 345.32001 356.16 361.32001 375.32001 385.42001 397.70001"
         y="26"
         id="tspan120">о выплате членам Совета директоров ПГК </tspan><tspan
         x="0 10.84 22 31.84 43.759998 54.48 62.84 74.459999 85.18 100.16 111.68 122.6 134.52 146.44 158.36 163.52 175.44 180.60001 190.218 201.37801 214.658 226.17799 237.09801 249.01801 259.73801 270.45801 282.478 294.39801 306.31799 311.478 323.39801 336.67801 341.83801 351.45599 362.616 375.896 387.41599 398.336 410.25601 420.97601 432.896 444.134 454.71399 469.974 479.914 490.634 501.01401"
         y="52"
         id="tspan122">вознаграждений и компенсаций им компенсируются </tspan><tspan
         x="0 10.72 21.940001 32.860001 44.380001 54.959999 70.220001 86.120003 98.040001 108.96 114.12 125.74 136.46001 147.17999 157.53999 168.7 180.22 193.39999 198.14 203.3 214.02 224.86 235.24001 245.08 255.8 267.72 279.64001 292.82001 303.73999 308.89999 319.62 324.78 336.70001 347.42001 358.94 369.896 381.116 393.03601 403.95599 415.87601 427.79599 438.716 451.996 457.15601 467.87601 478.716 489.87601 501.79599 512.15601"
         y="78"
         id="tspan124">следующие расходы, связанные с исполнением своих </tspan><tspan
         x="0 13.2 23.780001 35.700001 45.82 57.84 69.760002 81.68"
         y="104"
         id="tspan126">функций:</tspan><tspan
         x="0 7.5999999 18 29.620001 40.34 51.060001 61.419998 72.580002 84.099998 97.279999 102.02 107.18 117.9 128.74001 139.12 148.96001 159.67999 171.60001 183.52 196.7 207.62 212.78 223.5 228.66 240.17999 251.8 262.95999 273.88 283.72 295.23999 306.39999 319.67999 324.84 335.38 346.60001 357.51999 369.44 380.60001 391.44 396.60001 409.62 420.78 431.62 442.54001 452.48001 463.20001"
         y="143"
         id="tspan128">• расходы, связанные с проездом членов Совета </tspan><tspan
         x="18 29.52 41.439999 53.060001 63.98 74.099998 84.040001 95.199997 106.82 117.98 128.82001 133.98 144.10001 149.25999 162.53999 173.46001 184.17999 194.12 204.7 209.86 221.38 233 244.16 255 265.92001 277.44 288.35999 300.28 312.20001 322.57999 327.73999 337.57999 348.29999 359.01999 369.94 381.45999 392.17999 404.10001 416.01999 427.94 433.10001 446.12 457.28 468.12 479.04001 488.98001 499.70001"
         y="169"
         id="tspan130">директоров к месту проведения заседаний Совета </tspan><tspan
         x="18 29.52 41.439999 53.060001 63.98 74.099998 84.040001 95.199997 106.82 117.98 128.82001 133.98 140.118 151.798 162.95799 176.23801 188.158 198.09801 209.01801 218.95799 230.118 240.95799 246.118 259.138 270.298 281.138 292.05801 301.99799 312.71799 317.87799 329.39801 341.31799 352.93799 363.858 373.978 383.918 395.078 406.698 417.858 428.698 435.078"
         y="195"
         id="tspan132">директоров (Комитетов Совета директоров) </tspan><tspan
         x="18 29.92 30.76 39.939999 40.779999 52.700001 63.919998 75.839996 81 92.160004 103.5 119.4 131.32001 141.67999 146.84 157.56 168.72 180.06 191.67999 202.39999 214.32001 226.24001 238.16 243.32001 254.03999 264.16 276.17999 288.10001 299.26001 311.17999 322.10001 333.72 344.88 355.72 360.88 374.12 385.45999 401.35999 412.28 423 432.94 443.78 454.5"
         y="221"
         id="tspan134">и / или общих собраний акционеров Общества;</tspan><tspan
         x="0.02 7.6199999 18.02 29.639999 40.360001 51.080002 61.439999 72.599998 84.120003 97.300003 102.04 107.2 117.92 128.75999 139.14 148.98 159.7 171.62 183.53999 196.72 207.64 212.8 223.52 228.67999 240.2 251.82001 262.98001 277.95999 289.88 300.72 311.44 323.35999 335.28 346.20001 359.48001 364.64001 375.17999 386.39999 397.32001 409.23999 420.39999 431.23999 436.39999 449.42001 460.57999 471.42001 482.34 492.28 503"
         y="260"
         id="tspan136">• расходы, связанные с проживанием членов Совета </tspan><tspan
         x="18.02 29.540001 41.459999 53.080002 64 74.120003 84.059998 95.220001 106.84 118 128.84 134 144.84 150 161.52 172.44 184.06 195.98 207.14 218.66 223.82001 235.34 246.96001 258.12 268.95999 279.88 291.39999 302.32001 314.23999 326.16 336.54001 341.70001 351.54001 362.26001 372.98001 383.89999 395.42001 406.14001 418.06 429.98001 441.89999"
         y="286"
         id="tspan138">директоров в период проведения заседаний </tspan><tspan
         x="18.02 31.040001 42.200001 53.040001 63.959999 73.900002 84.620003 89.779999 101.3 113.22 124.84 135.75999 145.88 155.82001 166.98 178.60001 189.75999 200.60001 205.75999 211.89799 223.578 234.73801 248.01801 259.93799 269.87799 280.798 290.73801 301.89801 312.73801 317.89801 330.918 342.078 352.918 363.83801 373.77802 384.49799 389.65799 401.17801 413.09799 424.71799 435.638 445.758 455.698 466.858 478.478 489.638 500.478 506.858"
         y="312"
         id="tspan140">Совета директоров (Комитетов Совета директоров) </tspan><tspan
         x="18.02 29.940001 30.780001 39.959999 40.799999 52.720001 63.939999 75.860001 81.019997 92.18 103.52 119.42 131.34 141.7 146.86 157.58 168.74001 180.08 191.7 202.42 214.34 226.25999 238.17999 243.34 254.06 264.17999 276.20001 288.12 299.28 311.20001 322.12 333.73999 344.89999 355.73999 360.89999 374.14001 385.48001 401.38 412.29999 423.01999 432.95999 443.79999 454.51999"
         y="338"
         id="tspan142">и / или общих собраний акционеров Общества;</tspan><tspan
         x="594.03998 601.64001 612.03998 623.56 635.17999 646.09998 657.62 668.34003 678.28003 689 699.84003 711.76001 721.70001 732.53802 743.758 753.27802 763.99799 774.11798 786.03802 796.95801 802.11798 813.73798 824.45801 835.17798 845.53802 856.698 868.21802 881.39801"
         y="7.1054274e-14"
         id="tspan144">• представительские расходы;</tspan><tspan
         x="594.03998 601.64001 612.03998 623.96002 635.88 649.06 659.97998 665.14001 676.76001 687.47998 698.20001 708.56 719.71997 731.23999 744.41998 749.15997 754.32001 765.03998 775.88 786.26001 796.09998 806.82001 818.73999 830.65997 843.84003 854.76001 859.91998 870.64001 875.79999 887.71997 898.44 909.96002 920.91602 932.13599 944.05603 954.97601 966.896 978.81598 989.73602 1003.016 1008.176 1018.716 1029.936 1040.856 1052.776 1063.496 1076.776 1088.696"
         y="39"
         id="tspan146">• иные расходы, связанные с исполнением членами </tspan><tspan
         x="612.03998 625.06 636.21997 647.06 657.97998 667.91998 678.64001 683.79999 695.32001 707.23999 718.85999 729.78003 739.90002 749.84003 761 772.62 783.78003 794.62 799.78003 805.91803 817.59802 828.758 842.03802 853.95801 863.89801 874.81799 884.758 895.91803 906.758 911.91803 924.93799 936.09802 946.93799 957.85797 967.79797 978.51801 983.67798 995.198 1007.118 1018.738 1029.658 1039.778 1049.718 1060.8781 1072.498 1083.658 1094.498 1100.8781"
         y="65"
         id="tspan148">Совета директоров (Комитетов Совета директоров) </tspan><tspan
         x="612.03998 622.76001 633.59998 644.76001 656.67999 667.03998 672.20001 685.39801 695.97803 707.89801 718.01801 730.03802 741.95801 753.87799"
         y="91"
         id="tspan150">своих функций.</tspan><tspan
         x="594.03998 609.64001 620.35999 629.97998 640.70001 652.62 665.90002 676.62 687.84003 697.35999 709.28003 720 730.38 735.53998 746.26001 756.84003 770.12 783.40002 794.12 799.28003 808.89801 820.05798 833.33801 844.85797 855.77802 867.698 878.41803 890.33801 901.57599 911.81598 922.73602 936.01599 949.19598 959.55603 964.716 975.25598 986.47601 997.396 1009.316 1019.896 1025.056 1038.076 1049.236 1060.076 1070.996 1080.936 1091.656"
         y="130"
         id="tspan152">Максимальная сумма компенсируемых члену Совета </tspan><tspan
         x="594.03998 605.56 617.47998 629.09998 640.02002 650.14001 660.08002 671.23999 682.85999 694.02002 704.85999 710.02002 721.64001 732.35999 743.08002 753.44 764.59998 776.12 787.28003 798.12 803.28003 813.12 823.84003 829 840.62 851.34003 862.06 872.59998 883.52002 893.46002 905.38 918.56 930.47998 935.64001 947.15997 958.08002 969.70001 981.62 992.78003 1004.3 1009.46 1021.38 1032.3 1037.46 1050.74 1061.9 1076.88 1087.8 1097.74"
         y="156"
         id="tspan154">директоров расходов за расчетный период не может </tspan><tspan
         x="594.03998 605.56 617.17999 628.09998 638.94 652.12 667.5 678.21997 688.15997 697.67999 702.84003 714.35999 726.67999 727.52002 742.34003 747.5 758.65997 768.59998 773.76001 785.09998 795.82001 805.65997 816.82001 827.65997 838.82001 846.94 858.09998 863.26001 874.09998 885.26001 895.09998 907.02002 917.73999 926.09998 937.71997 948.44 963.41998 974.94 985.85999 997.78003 1009.7 1020.08 1024.84"
         y="182"
         id="tspan156">превышать 30 % от базового вознаграждения. </tspan><tspan
         x="594.03998 605.71997 616.88 630.15997 641.67999 652.59998 664.52002 675.23999 685.96002 697.97998 709.90002 720.28003 725.44 738.71997 749.88 764.85999 775.78003 785.71997 790.88 802.21997 815.40002 825.34003 834.85999 840.02002 850.85999 864.03998 875.56 886.78003 897.5 908.03998 918.96002 930.88 941.59998 946.76001 957.59998 962.76001 973.47998 984.70001 995.28003 1005.82 1016.54 1027.46 1032.2 1037.36 1048.28 1059 1070.22 1082.14"
         y="208"
         id="tspan158">Компенсация может быть выплачена в случае, если </tspan><tspan
         x="594.03998 604.58002 615.79999 626.71997 638.64001 643.79999 656.82001 667.97998 678.82001 689.73999 699.67999 710.40002 715.56 727.08002 739 750.62 761.53998 771.65997 781.59998 792.76001 804.38 815.53998 826.38 831.53998 843.06 854.67999 866.59998 878.52002 888.90002 900.12 905.28003 915.85999 926.40002 937.12 947.84003 957.78003 969.70001 980.62 985.78003 997.12 1008.074 1019.294 1030.214 1041.134"
         y="234"
         id="tspan160">член Совета директоров принял участие более </tspan><tspan
         x="594.03998 604.58002 615.5 628.78003 633.94 644.78003 649.94 661.46002 672.41998 683.64001 694.79999 705.64001 717.56 729.47998 740.40002 745.56 755.40002 766.12 776.84003 787.76001 799.28003 810 821.91998 833.84003 845.76001 850.91998 863.94 875.09998 885.94 896.85999 906.79999 917.52002 922.67999 934.20001 946.12 957.73999 968.65997 978.78003 988.71997 999.88 1011.5 1022.66 1033.5"
         y="260"
         id="tspan162">чем в половине заседаний Совета директоров.</tspan></text><text
       transform="matrix(1,0,0,-1,154.5,348.2)"
       style="font-variant:normal;font-weight:500;font-stretch:normal;font-size:28px;font-family:'Rubik Medium';-inkscape-font-specification:Rubik-Medium;writing-mode:lr-tb;fill:#000000;fill-opacity:1;fill-rule:nonzero;stroke:none"
       id="text182"><tspan
         x="0 17.808001 37.268002 60.004002 80.444 97.888 118.328 137.508 156.94 178.164 199.472 218.56799 224.952 247.688 267.14801 296.04401 313.48801 330.45599"
         y="0"
         id="tspan166">КОМПЕНСАЦИЯ МОЖЕТ </tspan><tspan
         x="0 18.172001 42.98 59.948002 77.643997 84.028 103.264 128.07201 148.51199 169.092 188.524 207.508 224.952 245.392 264.82401"
         y="35.448002"
         id="tspan168">БЫТЬ ВЫПЛАЧЕНА </tspan><tspan
         x="0 19.236 25.620001 44.799999 65.379997 82.767998 101.752 121.184 138.62801 146.048 152.43201 169.7052 188.88519 209.46519 230.77319 237.1572 256.1412 276.72119 294.16519 314.60519"
         y="70.896004"
         id="tspan170">В СЛУЧАЕ, ЕСЛИ ЧЛЕН </tspan><tspan
         x="0 19.18 38.639999 57.875999 75.32 92.288002 111.72 118.104 138.992 160.3 178.78 196.224 215.03999 232.008 251.468 269.948 289.40799 308.64401"
         y="106.344"
         id="tspan172">СОВЕТА ДИРЕКТОРОВ </tspan><tspan
         x="0 20.440001 38.919998 60.228001 80.667999 99.764 120.344 126.728 144.116 163.10001 182.532 201.71201 218.67999 239.98801 257.43201"
         y="141.79201"
         id="tspan174">ПРИНЯЛ УЧАСТИЕ </tspan><tspan
         x="0 18.172001 37.380001 57.959999 75.403999 92.848 99.232002 118.216 135.66 158.396 164.78 184.01601 190.39999 210.84 230.0452 250.6252 270.08521 289.3212 310.62921 331.06921 348.51321"
         y="177.24001"
         id="tspan176">БОЛЕЕ ЧЕМ В ПОЛОВИНЕ </tspan><tspan
         x="0 18.115999 37.548 56.728001 74.171997 95.059998 114.492 134.93201 156.24001 177.548 183.93201 203.112 222.57201 241.808 259.25201 276.22 295.65201"
         y="212.688"
         id="tspan178">ЗАСЕДАНИЙ СОВЕТА </tspan><tspan
         x="0 20.888 42.195999 60.675999 78.120003 96.935997 113.904 133.364 151.84399 171.304"
         y="248.136"
         id="tspan180">ДИРЕКТОРОВ</tspan></text><g
       id="g184"><g
         id="g186"
         clip-path="url(#clipPath190)"><g
           id="g192"
           transform="translate(112.4,364.95)"><path
             d="m 0,0 c -1.4,1.9 -3.367,2.85 -5.9,2.85 -2.267,0 -4.084,-0.75 -5.45,-2.25 -1.367,-1.5 -2.05,-3.25 -2.05,-5.25 0,-2 0.666,-3.75 2,-5.25 1.333,-1.5 3,-2.25 5,-2.25 0.666,0 1.266,0.067 1.8,0.2 0.266,0.067 0.5,0.167 0.7,0.3 -0.267,-2 -1.15,-3.583 -2.65,-4.75 -1.5,-1.166 -3.117,-1.75 -4.85,-1.75 v -3.5 c 1.6,0 3.216,0.284 4.85,0.85 1.633,0.567 3.083,1.467 4.35,2.7 1.266,1.234 2.3,2.8 3.1,4.7 0.8,1.9 1.2,4.15 1.2,6.75 C 2.1,-4.117 1.4,-1.9 0,0 M 20,0 C 18.6,1.9 16.633,2.85 14.1,2.85 11.833,2.85 10.016,2.1 8.65,0.6 7.283,-0.9 6.6,-2.65 6.6,-4.65 c 0,-2 0.666,-3.75 2,-5.25 1.333,-1.5 3,-2.25 5,-2.25 0.666,0 1.266,0.067 1.8,0.2 0.266,0.067 0.5,0.167 0.7,0.3 -0.267,-2 -1.15,-3.583 -2.65,-4.75 -1.5,-1.166 -3.117,-1.75 -4.85,-1.75 v -3.5 c 1.6,0 3.216,0.284 4.85,0.85 1.633,0.567 3.083,1.467 4.35,2.7 1.266,1.234 2.3,2.8 3.1,4.7 0.8,1.9 1.2,4.15 1.2,6.75 0,2.533 -0.7,4.75 -2.1,6.65"
             style="fill:#faaa2d;fill-opacity:1;fill-rule:nonzero;stroke:none"
             id="path194" /></g></g></g><text
       transform="matrix(1,0,0,-1,693,357.2998)"
       style="font-variant:normal;font-weight:500;font-stretch:normal;font-size:20px;font-family:'Rubik Medium';-inkscape-font-specification:Rubik-Medium;writing-mode:lr-tb;fill:#000000;fill-opacity:1;fill-rule:nonzero;stroke:none"
       id="text200"><tspan
         x="0 13.74 25.6 36.32 48.799999 60.240002 69.160004 81.440002 92.879997 110.06 122.64 134.2 146.67999 159.16 170.67999 175.24001 187.72 192.28 203.278 215.138 229.218 241.45799 253.01801 265.49799 276.93799 288.37799 301.138 313.61801 326.09799 330.65799 342.23801 354.31799 365.87799 378.358 389.798 403.87799 408.43799 422.138 433.99799 445.698 457.258 467.87799 479.31799"
         y="0"
         id="tspan196">Вознаграждения и компенсации членам Совета </tspan><tspan
         x="0 12.58 25.059999 37.34 48.900002 60.360001 70.980003 82.839996 95.120003 106.98 118.68 123.98 128.53999 140.24001 155.60001 167.84 179.92 191.36 202.94 214.5 226.98 239.46001 254.82001 266.38 270.94 282.64001 287.20001 299.60001 312.78 325.17999 338.35999 342.92001 351.65601 363.51599 376.09601 386.47601 391.776 396.336 406.95599 422.31601 433.75601 439.13599 443.69601 455.556 466.996 478.95599"
         y="26"
         id="tspan198">директоров, выплаченные в 2020 году, тыс. руб.</tspan></text><g
       id="g202"
       transform="translate(693,300.7998)"><path
         d="M 0,0 H 424"
         style="fill:none;stroke:#e8e8ed;stroke-width:1;stroke-linecap:butt;stroke-linejoin:miter;stroke-miterlimit:10;stroke-dasharray:none;stroke-opacity:1"
         id="path204" /></g><g
       id="g206"
       transform="translate(1117,300.7998)"><path
         d="M 0,0 H 109"
         style="fill:none;stroke:#e8e8ed;stroke-width:1;stroke-linecap:butt;stroke-linejoin:miter;stroke-miterlimit:10;stroke-dasharray:none;stroke-opacity:1"
         id="path208" /></g><g
       id="g210"
       transform="translate(693,216.0999)"><path
         d="M 0,0 H 424"
         style="fill:none;stroke:#e8e8ed;stroke-width:1;stroke-linecap:butt;stroke-linejoin:miter;stroke-miterlimit:10;stroke-dasharray:none;stroke-opacity:1"
         id="path212" /></g><g
       id="g214"
       transform="translate(1117,216.0999)"><path
         d="M 0,0 H 109"
         style="fill:none;stroke:#e8e8ed;stroke-width:1;stroke-linecap:butt;stroke-linejoin:miter;stroke-miterlimit:10;stroke-dasharray:none;stroke-opacity:1"
         id="path216" /></g><g
       id="g218"
       transform="translate(693,173.3999)"><path
         d="M 0,0 H 424"
         style="fill:none;stroke:#e8e8ed;stroke-width:1;stroke-linecap:butt;stroke-linejoin:miter;stroke-miterlimit:10;stroke-dasharray:none;stroke-opacity:1"
         id="path220" /></g><g
       id="g222"
       transform="translate(1117,173.3999)"><path
         d="M 0,0 H 109"
         style="fill:none;stroke:#e8e8ed;stroke-width:1;stroke-linecap:butt;stroke-linejoin:miter;stroke-miterlimit:10;stroke-dasharray:none;stroke-opacity:1"
         id="path224" /></g><g
       id="g226"
       transform="translate(693,130.7)"><path
         d="M 0,0 H 424"
         style="fill:none;stroke:#e8e8ed;stroke-width:1;stroke-linecap:butt;stroke-linejoin:miter;stroke-miterlimit:10;stroke-dasharray:none;stroke-opacity:1"
         id="path228" /></g><g
       id="g230"
       transform="translate(1117,130.7)"><path
         d="M 0,0 H 109"
         style="fill:none;stroke:#e8e8ed;stroke-width:1;stroke-linecap:butt;stroke-linejoin:miter;stroke-miterlimit:10;stroke-dasharray:none;stroke-opacity:1"
         id="path232" /></g><text
       transform="matrix(1,0,0,-1,693,262.0999)"
       style="font-variant:normal;font-weight:300;font-stretch:normal;font-size:20px;font-family:'Rubik Light';-inkscape-font-specification:Rubik-Light;writing-mode:lr-tb;fill:#000000;fill-opacity:1;fill-rule:nonzero;stroke:none"
       id="text244"><tspan
         x="0 13.06 24.219999 34.060001 45.98 56.700001 65.059998 76.68 87.400002 102.38 113.9 124.82 136.74001 148.66 159.58 164.74001 174.58 185.3 190.46001 201.03999 211.58 222.3 233.02 242.96001 254.88 265.79999 270.95999 281.79999 286.95999 298.57999 309.29999 320.64001 331.79999 341.73999 352.66"
         y="0"
         id="tspan234">Вознаграждение за участие в работе </tspan><tspan
         x="0 11.16 22.780001 31.139999 41.860001 53.779999 64.5 69.660004 80.239998 91.760002 103.38 114.1 124.94 136.16 147.08 159 170.92"
         y="26"
         id="tspan236">органа управления</tspan><tspan
         x="459.20001 471.56 483.92001 489.07999 498.82001 510.01999 521.65997 525.03998"
         y="0"
         id="tspan238">88 726,1</tspan><tspan
         x="0 11.68 22.84 36.119999 47.639999 58.560001 70.480003 81.199997 91.919998 103.94 115.86 469.67999 477.64001 482.79999 495.12 506.56 517.76001 521.56"
         y="76.699997"
         id="tspan240">Компенсации1 092,9</tspan><tspan
         x="0 13.02 22.959999 34.580002 45.299999 55.66 66.82 77.660004 90.839996 101.76 106.92 117.76 127.6 139.52 150.67999 161.39999 466.06 474.01999 485.92001 491.07999 499.04001 507 519.12 523.26001"
         y="119.4"
         id="tspan242">Страховые взносы14 118,7</tspan></text><text
       transform="matrix(1,0,0,-1,693,99.9999)"
       style="font-variant:normal;font-weight:500;font-stretch:normal;font-size:20px;font-family:'Rubik Medium';-inkscape-font-specification:Rubik-Medium;writing-mode:lr-tb;fill:#000000;fill-opacity:1;fill-rule:nonzero;stroke:none"
       id="text248"><tspan
         x="0 15.22 27.34 41.240002 51.900002 430.14001 439.42001 452.60001 465.22 469.78 481.92001 494.54001 504.22 508.92001 519.82001"
         y="0"
         id="tspan246">ИТОГО103 937,70</tspan></text><text
       transform="matrix(1,0,0,-1,39.14,1022.9999)"
       style="font-variant:normal;font-weight:300;font-stretch:normal;font-size:20px;font-family:'Rubik Light';-inkscape-font-specification:Rubik-Light;writing-mode:lr-tb;fill:#000000;fill-opacity:1;fill-rule:nonzero;stroke:none"
       id="text252"><tspan
         x="0 9.0799999"
         y="0"
         id="tspan250">76</tspan></text><g
       id="g254"><g
         id="g256"><g
           id="g258"
           clip-path="url(#clipPath262)"><text
             transform="matrix(1,0,0,-1,99,1023)"
             style="font-variant:normal;font-weight:300;font-stretch:normal;font-size:20px;font-family:'Rubik Light';-inkscape-font-specification:Rubik-Light;writing-mode:lr-tb;fill:#000000;fill-opacity:1;fill-rule:nonzero;stroke:none"
             id="text266"><tspan
               x="0 13.24 18.4 28.02 39.18 52.459999 63.98 74.699997 86.620003 98.540001"
               y="0"
               id="tspan264">О компании</tspan></text></g></g></g></g></svg>
