<?xml version="1.0" encoding="UTF-8" standalone="no"?>
<?xml-stylesheet type="text/css" href="main.css" ?>
<svg
   xmlns:dc="http://purl.org/dc/elements/1.1/"
   xmlns:cc="http://creativecommons.org/ns#"
   xmlns:rdf="http://www.w3.org/1999/02/22-rdf-syntax-ns#"
   xmlns:svg="http://www.w3.org/2000/svg"
   xmlns="http://www.w3.org/2000/svg"
   version="1.1"
   id="svg2"
   xml:space="preserve"
   width="2560"
   height="1440"
   viewBox="0 0 2560 1440"><metadata
     id="metadata8"><rdf:RDF><cc:Work
         rdf:about=""><dc:format>image/svg+xml</dc:format><dc:type
           rdf:resource="http://purl.org/dc/dcmitype/StillImage" /></cc:Work></rdf:RDF></metadata><defs
     id="defs6"><clipPath
       clipPathUnits="userSpaceOnUse"
       id="clipPath20"><path
         d="M 0,1080 H 1920 V 0 H 0 Z"
         id="path18" /></clipPath><clipPath
       clipPathUnits="userSpaceOnUse"
       id="clipPath40"><path
         d="M 0,0 H 1920 V 1080 H 0 Z"
         id="path38" /></clipPath><clipPath
       clipPathUnits="userSpaceOnUse"
       id="clipPath228"><path
         d="M 0,1080 H 1920 V 0 H 0 Z"
         id="path226" /></clipPath></defs><g
     id="g10"
     transform="matrix(1.3333333,0,0,-1.3333333,0,1440)"><g
       id="g12"><g
         id="g14"><g
           id="g16"
           clip-path="url(#clipPath20)"><path
             d="M 0,0 H 1920 V 1080 H 0 Z"
             style="fill:#ffffff;fill-opacity:1;fill-rule:nonzero;stroke:none"
             id="path22" /></g></g></g><path
       d="M 0,0 H 633 V 1080 H 0 Z"
       style="fill:#e8e8ed;fill-opacity:1;fill-rule:nonzero;stroke:none"
       id="path24" /><text
       transform="matrix(1,0,0,-1,97.5,134)"
       style="font-variant:normal;font-weight:500;font-stretch:normal;font-size:28px;font-family:'Rubik Medium';-inkscape-font-specification:Rubik-Medium;writing-mode:lr-tb;fill:#000000;fill-opacity:1;fill-rule:nonzero;stroke:none"
       id="text28"><tspan
         x="0 18.172001 37.380001 57.959999 75.655998 102.9 124.208 141.65199 148.036 167.496 185.668 206.416 223.86 246.59599 271.40399 277.78799 299.29199"
         y="0"
         id="tspan26">БОЛЬШИЕ ОБЪЕМЫ — </tspan></text><text
       transform="matrix(1,0,0,-1,97.5,100.008)"
       style="font-variant:normal;font-weight:500;font-stretch:normal;font-size:28px;font-family:'Rubik Medium';-inkscape-font-specification:Rubik-Medium;writing-mode:lr-tb;fill:#000000;fill-opacity:1;fill-rule:nonzero;stroke:none"
       id="text32"><tspan
         x="0 18.172001 37.380001 57.959999 75.655998 102.9 122.332 141.42799 147.812 167.272 184.24001 203.476 220.92 237.888 257.06799 274.03601 293.272 310.716 331.15601 351.59601 371.056 390.23599 407.20401"
         y="0"
         id="tspan30">БОЛЬШАЯ ОТВЕТСТВЕННОСТЬ</tspan></text><g
       id="g34"><g
         id="g36"
         clip-path="url(#clipPath40)"><g
           id="g42"
           transform="translate(55.4,150.75)"><path
             d="m 0,0 c -1.4,1.9 -3.367,2.85 -5.9,2.85 -2.267,0 -4.084,-0.75 -5.45,-2.25 -1.367,-1.5 -2.05,-3.25 -2.05,-5.25 0,-2 0.666,-3.75 2,-5.25 1.333,-1.5 3,-2.25 5,-2.25 0.666,0 1.266,0.067 1.8,0.2 0.266,0.067 0.5,0.167 0.7,0.3 -0.267,-2 -1.15,-3.583 -2.65,-4.75 -1.5,-1.166 -3.117,-1.75 -4.85,-1.75 v -3.5 c 1.6,0 3.216,0.284 4.85,0.85 1.633,0.567 3.083,1.467 4.35,2.7 1.266,1.234 2.3,2.8 3.1,4.7 0.8,1.9 1.2,4.15 1.2,6.75 C 2.1,-4.117 1.4,-1.9 0,0 M 20,0 C 18.6,1.9 16.633,2.85 14.1,2.85 11.833,2.85 10.016,2.1 8.65,0.6 7.283,-0.9 6.6,-2.65 6.6,-4.65 c 0,-2 0.666,-3.75 2,-5.25 1.333,-1.5 3,-2.25 5,-2.25 0.666,0 1.266,0.067 1.8,0.2 0.266,0.067 0.5,0.167 0.7,0.3 -0.267,-2 -1.15,-3.583 -2.65,-4.75 -1.5,-1.166 -3.117,-1.75 -4.85,-1.75 v -3.5 c 1.6,0 3.216,0.284 4.85,0.85 1.633,0.567 3.083,1.467 4.35,2.7 1.266,1.234 2.3,2.8 3.1,4.7 0.8,1.9 1.2,4.15 1.2,6.75 0,2.533 -0.7,4.75 -2.1,6.65"
             style="fill:#faaa2d;fill-opacity:1;fill-rule:nonzero;stroke:none"
             id="path44" /></g></g></g><text
       transform="matrix(1,0,0,-1,99,953.4)"
       style="font-variant:normal;font-weight:normal;font-stretch:normal;font-size:38px;font-family:'Prosto One';-inkscape-font-specification:ProstoOne-Regular;writing-mode:lr-tb;fill:#000000;fill-opacity:1;fill-rule:nonzero;stroke:none"
       id="text50"><tspan
         x="0 30.209999 62.130001 92.150002 123.31 153.71001 185.25 212.23 244.14999 276.82999 303.81"
         y="0"
         id="tspan46">УПРАВЛЕНИЕ </tspan><tspan
         x="0 30.02 62.700001 92.720001 122.93 154.09 195.89"
         y="45.599998"
         id="tspan48">РИСКАМИ</tspan></text><text
       transform="matrix(1,0,0,-1,693,960.4)"
       style="font-variant:normal;font-weight:500;font-stretch:normal;font-size:28px;font-family:'Rubik Medium';-inkscape-font-specification:Rubik-Medium;writing-mode:lr-tb;fill:#000000;fill-opacity:1;fill-rule:nonzero;stroke:none"
       id="text54"><tspan
         x="0 18.816 35.728001 59.136002 75.348 91.531998 107.912 129.416 145.60001 151.98399 169.17599 186.64799 202.664 218.70799"
         y="0"
         id="tspan52">Ключевые риски</tspan></text><text
       transform="matrix(1,0,0,-1,99,817.8801)"
       style="font-variant:normal;font-weight:300;font-stretch:normal;font-size:32px;font-family:'Rubik Light';-inkscape-font-specification:Rubik-Light;writing-mode:lr-tb;fill:#000000;fill-opacity:1;fill-rule:nonzero;stroke:none"
       id="text76"><tspan
         x="0 20.832001 38.175999 56.032001 73.503998 90.848 109.44 126.912 148.16 165.632 184.70399 203.776 221.632 239.104 247.36 264.70401 285.79199 302.39999 319.74399 337.69601 355.168 374.23999 393.31201 410.784 418.36801"
         y="0"
         id="tspan56">Своевременное выявление, </tspan><tspan
         x="0 17.152 38.880001 60.608002 78.080002 94.272003 110.176 129.248 146.592 165.664 183.52 200.992 209.248 226.17599 244.608 263.20001 280.35199 297.69601 315.64801 333.12 352.19199 371.26401 388.73599"
         y="37.984001"
         id="tspan58">эффективное управление </tspan><tspan
         x="0 19.072001 27.327999 40.703999 59.296001 76.447998 97.695999 115.552 131.45599 150.528 168.384 185.856 194.112 212.54401 231.136 248.608 267.04001 284.896 300.79999 318.14401 336.73599 353.888 379.328 396.79999 415.87201 434.944 452.41599"
         y="75.968002"
         id="tspan60">и грамотное предотвращение </tspan><tspan
         x="0 18.591999 37.664001 54.816002 70.208 88.064003 105.408 113.664 130.272 147.616 165.56799 182.17599 206.592 222.496 239.64799 256.25601 264.51199 281.85599 299.008 322.97601 342.048 363.13599 384.384 403.45599"
         y="113.952"
         id="tspan62">рисков являются важными </tspan><tspan
         x="0 16.832001 34.784 52.256001 73.503998 90.975998 110.048 125.952 143.104 164.35201 183.424 191.67999 210.752 227.90401 252.51199 269.98401 289.056 297.31201 314.46399 330.36801 348.95999 366.112 382.01599 399.48801 412.86401 431.936 451.008"
         y="151.936"
         id="tspan64">элементами нашей стратегии.</tspan><tspan
         x="0 20.096001 37.568001 50.944 66.944 84.896004 101.504 120.096 139.168 160.256 179.328 187.584 208.832 226.688 245.75999 264.832 280.73599 298.59201 317.18399 336.25601 355.328 368.70401"
         y="189.92"
         id="tspan66">Регулярный мониторинг </tspan><tspan
         x="0 17.152 35.007999 52.16 68.064003 85.919998 102.528 121.6 140.672 157.28 165.536 182.688 201.75999 218.912 234.81599 252.28799 273.53601 294.62399 302.88 320.224 339.29599 356.224 372.12799 390.72 408.19199 427.26401 446.336 463.80801 476.79361 494.6496"
         y="227.90401"
         id="tspan68">состояния системы внутреннего </tspan><tspan
         x="0 15.392 33.248001 52.32 68.223999 86.816002 104.352 122.304 138.912 147.168 166.24001 174.496 191.64799 210.72 227.87199 243.776 261.24799 282.496 303.58401 311.84 328.76801 347.20001 365.79199 382.944 400.28799 418.23999 435.71201 454.784 473.85599 490.46399"
         y="265.888"
         id="tspan70">контроля и системы управления </tspan><tspan
         x="0 18.591999 37.664001 54.816002 71.008003 88.160004 109.408 128.48 136.73599 154.08 162.336 180.256 199.968 217.888 237.60001 245.856 258.84479 276.70081 295.13281 312.06079"
         y="303.87201"
         id="tspan72">рисками в 2020 году </tspan><tspan
         x="0 17.856001 35.007999 51.936001 77.375999 94.848 112 127.904 145.248 163.2 179.808 197.75999 214.912 231.52 239.776 262.17599 280.76801 297.92001 315.26401 333.216 350.68799 369.76001 388.832 406.30399 427.552"
         y="341.85599"
         id="tspan74">осуществлялся Правлением.</tspan></text><text
       transform="matrix(1,0,0,-1,693,915.2003)"
       style="font-variant:normal;font-weight:normal;font-stretch:normal;font-size:20px;font-family:'Prosto One';-inkscape-font-specification:ProstoOne-Regular;writing-mode:lr-tb;fill:#faaa2d;fill-opacity:1;fill-rule:nonzero;stroke:none"
       id="text80"><tspan
         x="0 16.4"
         y="0"
         id="tspan78">01</tspan></text><text
       transform="matrix(1,0,0,-1,729.8997,915.2003)"
       style="font-variant:normal;font-weight:500;font-stretch:normal;font-size:20px;font-family:'Rubik Medium';-inkscape-font-specification:Rubik-Medium;writing-mode:lr-tb;fill:#000000;fill-opacity:1;fill-rule:nonzero;stroke:none"
       id="text84"><tspan
         x="0 16.24 27.68 39.139999 51.419998 63.279999 74.800003 85.800003 97.660004 110.14 122 136.08 148.56 160.14 171.7 183.14 194.60001 207.08 218.64 223.2 235.67999 240.24001 252.10001 262.72 275 286.44 297.88 309.95999 321.51999 333.22 348.57999 360.14001 364.70001 376.98001 389.45999 400.89999 412.35999 424.84"
         y="0"
         id="tspan82">Макроэкономические и отраслевые риски:</tspan></text><text
       transform="matrix(1,0,0,-1,692.9997,882.2003)"
       style="font-variant:normal;font-weight:300;font-stretch:normal;font-size:20px;font-family:'Rubik Light';-inkscape-font-specification:Rubik-Light;writing-mode:lr-tb;fill:#000000;fill-opacity:1;fill-rule:nonzero;stroke:none"
       id="text90"><tspan
         x="0 7.5999999 18 31.02 40.959999 52.580002 63.299999 75.220001 86.379997 97.220001 110.4 121.32 126.48 138.39999 143.56 155.17999 166.10001 174.46001 186.38 197.53999 209.46001 220.17999 231.39999 240.92 252.84 266.01999 276.94 282.10001 293.72 305.64001 316.35999 326.48001"
         y="0"
         id="tspan86">• Страновые и региональные риски</tspan><tspan
         x="0 7.5999999 18 31.24 41.18 52.799999 63.52 74.239998 85.459999 96.379997 107.22 120.4 131.32001 136.48 148.10001 160.02 170.74001 180.86"
         y="33"
         id="tspan88">• Отраслевые риски</tspan></text><text
       transform="matrix(1,0,0,-1,1286.9997,911.5603)"
       style="font-variant:normal;font-weight:normal;font-stretch:normal;font-size:20px;font-family:'Prosto One';-inkscape-font-specification:ProstoOne-Regular;writing-mode:lr-tb;fill:#faaa2d;fill-opacity:1;fill-rule:nonzero;stroke:none"
       id="text94"><tspan
         x="0 16.4"
         y="0"
         id="tspan92">02</tspan></text><text
       transform="matrix(1,0,0,-1,1329.6996,911.5601)"
       style="font-variant:normal;font-weight:500;font-stretch:normal;font-size:20px;font-family:'Rubik Medium';-inkscape-font-specification:Rubik-Medium;writing-mode:lr-tb;fill:#000000;fill-opacity:1;fill-rule:nonzero;stroke:none"
       id="text98"><tspan
         x="0 13.7 25.940001 37.5 50.259998 62.740002 78.019997 90.5 102.08 113.64 125.08 136.53999 149.02 160.58 165.14 177.72 189.8 201.32001 205.88 218.73801 230.59801 244.67799 256.918 268.358 280.83801 293.31799 305.798 310.358 322.638 335.11801 346.55801 358.01801 370.49799"
         y="0"
         id="tspan96">Специфические для Компании риски:</tspan></text><text
       transform="matrix(1,0,0,-1,1286.9996,878.5601)"
       style="font-variant:normal;font-weight:300;font-stretch:normal;font-size:20px;font-family:'Rubik Light';-inkscape-font-specification:Rubik-Light;writing-mode:lr-tb;fill:#000000;fill-opacity:1;fill-rule:nonzero;stroke:none"
       id="text108"><tspan
         x="0 7.5999999 18 31.02 40.959999 52.580002 63.299999 73.239998 84.160004 92.519997 104.44 114.98 125.9 136.62 146.74001 158.66 170.58 175.74001 187.36 199.28 210"
         y="0"
         id="tspan100">• Стратегический риск</tspan><tspan
         x="0 7.5999999 18 29.68 40.84 54.119999 67.400002 78.32 89.940002 100.48 111.4 122.12 132.24001 144.16 155.08 160.24001 171.86 183.78 194.5 204.62"
         y="33"
         id="tspan102">• Коммерческие риски</tspan><tspan
         x="0 7.5999999 18 34.5 46.419998 58.34 69.059998 80.980003 91.699997 102.86 113.7 126.88 137.8 142.96001 154.58 166.5 177.22 187.34"
         y="66"
         id="tspan104">• Финансовые риски</tspan><tspan
         x="0 7.5999999 18 32 43.619999 54.34 65.18 76.339996 87.18 100.36 111.28 116.44 128.06 139.98 150.7 160.82001"
         y="99"
         id="tspan106">• Правовые риски</tspan></text><text
       transform="matrix(1,0,0,-1,693,681.8201)"
       style="font-variant:normal;font-weight:500;font-stretch:normal;font-size:28px;font-family:'Rubik Medium';-inkscape-font-specification:Rubik-Medium;writing-mode:lr-tb;fill:#000000;fill-opacity:1;fill-rule:nonzero;stroke:none"
       id="text112"><tspan
         x="0 22.736 38.751999 54.796001 71.987999 88.592003 104.72 120.12 136.724 154.196 170.8 190.51199 207.98399 224.196 240.38 256.396 272.44 289.91199 306.09601"
         y="0"
         id="tspan110">Макроэкономические </tspan></text><text
       transform="matrix(1,0,0,-1,693,647.8281)"
       style="font-variant:normal;font-weight:500;font-stretch:normal;font-size:28px;font-family:'Rubik Medium';-inkscape-font-specification:Rubik-Medium;writing-mode:lr-tb;fill:#000000;fill-opacity:1;fill-rule:nonzero;stroke:none"
       id="text116"><tspan
         x="0 17.472 23.856001 40.459999 55.327999 72.519997 88.536003 104.552 121.464 137.64799 154.028 175.532 191.716 198.10001 215.29201 232.76401 248.78 264.82401 282.29599"
         y="0"
         id="tspan114">и отраслевые риски:</tspan></text><text
       transform="matrix(1,0,0,-1,693,595.8201)"
       style="font-variant:normal;font-weight:500;font-stretch:normal;font-size:20px;font-family:'Rubik Medium';-inkscape-font-specification:Rubik-Medium;writing-mode:lr-tb;fill:#000000;fill-opacity:1;fill-rule:nonzero;stroke:none"
       id="text120"><tspan
         x="0 13.7 24.32 36.599998 48.040001 60.52 72.379997 84.080002 99.440002 111 115.56 128.03999 132.60001 144.88 156.44 165.36 177.84 189.7 202.17999 213.62 225.7 236.32001 248.8 264.16 275.72 280.28 292.56 305.04001 316.48001 327.94"
         y="0"
         id="tspan118">Страновые и региональные риски</tspan></text><text
       transform="matrix(1,0,0,-1,693,569.8201)"
       style="font-variant:normal;font-weight:300;font-stretch:normal;font-size:20px;font-family:'Rubik Light';-inkscape-font-specification:Rubik-Light;writing-mode:lr-tb;fill:#000000;fill-opacity:1;fill-rule:nonzero;stroke:none"
       id="text184"><tspan
         x="0 13.24 23.959999 35.880001 47.040001 57.880001 69.800003 80.519997 90.900002 96.059998 107.58 118.5 128.88 138.82001 149.658 160.87801 170.39799 182.31799 193.478 204.198 214.138 223.658 228.81799 240.498 251.658 264.93799 276.45801 287.17801 299.09799 311.01801 322.93799 328.09799 338.81799 349.978 360.698 372.31799 383.23801 394.758 405.918 415.858 427.01801 437.55801 448.478 460.39801 471.11801"
         y="0"
         id="tspan122">Основная деятельность Компании сосредоточена </tspan><tspan
         x="0 10.84 16 28.559999 39.720001 50.439999 61.16 73.080002 85 95.720001 105.338 116.498 128.418 133.578 150.078 160.998 172.51801 183.438 195.058 205.778 217.798 229.718 241.638 246.37801 251.53799 263.45801 268.61801 278.73801 283.89801 295.05801 305.77802 317.698 328.858 339.698 351.61801 364.798 378.078 383.23801 393.95801 403.89801 415.51801 426.23801 438.15799 449.31799 460.15799 473.33801 486.61801"
         y="26"
         id="tspan124">в Российской Федерации, и к основным страновым </tspan><tspan
         x="0 11.92 17.08 28.700001 39.619999 47.98 59.900002 71.059998 82.980003 93.699997 104.92 114.44 126.36 139.53999 152.82001 157.98 169.60001 181.52 192.24001 202.36 213.08 226.36 231.10001 236.25999 247.10001 258.32001 270.23999 280.62 295.88 311.78 323.70001 336.98001 342.14001 354.06 364.78 369.94 380.85999 391.78 396.94 408.45999 419.38 429.76001 439.70001 450.534 461.754 471.27399 483.194 494.354 505.07401 515.01398 524.534 529.27399"
         y="52"
         id="tspan126">и региональным рискам, влияющим на ее деятельность, </tspan><tspan
         x="0 11.16 21.1 33.02 44.18 54.900002 65.279999 75.220001 85.940002 96.32 101.48 113.4 123.24 136.52 147.44 159.36 170.28 182.2 194.12 204.5 209.66 220.5 225.66 233.778 244.938 255.658 266.23801 277.758 288.478 300.09799 310.81799 320.758 331.59799 342.51801 354.43799 366.358 377.51801 389.43799 394.59799 406.11801 417.07599 428.29599 440.216 450.15601 462.07599 471.694 482.61401 487.354"
         y="78"
         id="tspan128">относятся изменения в государственной политике, </tspan><tspan
         x="0 10.58 20.940001 31.52 43.040001 58.419998 69.339996 81.260002 93.18 104.1 109.26 119.98 129.59801 140.758 152.67799 163.838 177.118 189.03799 199.578 210.498 221.218 230.838 241.998 253.918 259.078 269.798 281.71799 291.65799 302.23801 312.95801 324.978 336.89801 348.81799 353.978 364.09799 374.81799 384.93799 390.09799 400.93799 406.09799 418.65799 429.81799 440.53799 451.258 463.17801 475.09799 479.83801"
         y="104"
         id="tspan130">ухудшение экономической ситуации как в России, </tspan><tspan
         x="0 9.9399996 20.66 30.780001 35.939999 47.860001 53.02 63.860001 69.019997 82.300003 94.220001 105.84 116.76 121.52 126.68 139.74001 150.46001 161.38 166.53999 177.25999 187.2 199.12 204.28 217.86 228.58 238.7 248.64 259.79999 271.42001 284.60001 289.76001 303.04001 314.20001 322.56 333.14001 343.07999 348.23999 360.16 371.07999 382.42001 393.64001 404.35999 412.47601 423.63599 435.15601 446.776 458.69601 469.07599 479.01599 490.936 502.09601"
         y="130"
         id="tspan132">так и в мире. Все эти факторы могут неблагоприятно </tspan><tspan
         x="0 10.72 20.84 31.559999 41.400002 52.119999 62.060001 71.580002 82.300003 92.68 97.839996 109.76 120.48 125.64 136.36 145.978 157.138 169.058 180.218 193.498 205.418 215.95799 226.87801 237.59801 247.218 258.37799 270.298 275.45801 286.17801 296.11801 306.83801 318.17801 330.09799 341.31799 350.83801 362.758 373.918 384.638 394.578 406.49799 411.23801"
         y="156"
         id="tspan134">сказаться на экономической стабильности, </tspan><tspan
         x="0 11.52 22.68 32.619999 44.240002 55.16 66.5 78.419998 88.360001 99.197998 110.418 119.938 130.658 140.278 151.438 164.718 169.87801 180.59801 192.118 203.73801 214.89799 225.618 236.53799 241.698 253.618 264.33801 269.49799 281.11801 291.83801 301.67801 312.89801 324.81799 335.358 347.27802 360.45801 371.37799 376.53799 388.05801 399.67801 410.83801 422.358 432.93799 443.05801 452.99799 466.17801"
         y="182"
         id="tspan136">потребительском спросе на различные продукты </tspan><tspan
         x="0 11.92 17.08 27.32 38.040001 49.259998 59.84 68.199997 80.120003 84.860001 90.019997 100.86 106.02 115.96 127.12 140.39999 145.56 156.10001 168.02 178.74001 189.96001 200.88 206.03999 217.2 227.32001 238.03999 247.88 261.06 271.89999 282.62 293.54001 306.82001 320 330.92001 336.07999 347.75601 358.91599 372.19601 383.716 394.436 406.35599 418.276 429.19601 441.116 445.85599"
         y="208"
         id="tspan138">и услуги, в том числе оказываемые Компанией, </tspan><tspan
         x="0 11.92 17.08 27.02 37.939999 51.220001 56.380001 67.099998 77.82 91.099998 104.28 117.56 122.72 133.88 144 154.72 164.56 175.28 185.22 194.74001 199.89999 211.82001 222.74001 231.10001 241.82001 251.75999 263.67999 274.51999 286.44 297.60001 308.51999 313.67999 324.51999 335.73999 347.66 358.04001 369.95999 381.88 392.79999 397.95999 409.88 420.60001 425.76001 437.10001 449.01999 458.85999 470.78 481.70001 492.42001"
         y="234"
         id="tspan140">и тем самым оказать негативное влияние на бизнес </tspan><tspan
         x="0 11.68 22.84 36.119999 47.639999 58.360001 70.279999 82.199997 94.120003 99.279999 111.2 116.36 127.98 138.89999 149.62 160.84 172.75999 182.60001 193.32001 205.34 217.25999 232.52 237.67999 248.60001 259.51999 264.67999 276.60001 288.51999 299.35999 310.28 321 330.94 342.85999 354.88 366.79999 377.95999 389.88 401.79999 414.98001 425.34 430.5 442.01999 453.23999 463.95999 475.88 487.04001 497.88"
         y="260"
         id="tspan142">Компании и реализацию ее инвестиционных планов.</tspan><tspan
         x="0 13.06 18.219999 29.74 40.66 52.279999 63.119999 74.279999 87.559998 92.720001 102.84 113.68 124.4 136.02 145.96001 156.67999 167.89999 178.82001 183.98 195.17999 207.5 218.7 231.02 236.17999 244.298 255.45799 266.978 277.698 282.858 294.37799 305.99799 317.15799 329.078 338.918 350.078 365.45801 376.67801 388.59799 393.758 403.59799 415.51801 426.23801 436.77802 448.698 458.638 469.474 480.694 490.21399 502.134 515.31403 526.23401"
         y="312"
         id="tspan144">В первом квартале 2020 года произошли значительные </tspan><tspan
         x="0 11.52 22.68 32.619999 44.240002 54.619999 65.339996 76.260002 88.18 100.1 110.48 115.64 127.56 138.28 143.44 156.72 168.64 180.25999 191.42 202.25999 213.42 226.7 231.86 243.48 256.66 268.57999 278.19601 289.116 293.85599 299.01599 309.85599 323.03601 332.87601 343.716 354.436 366.35599 378.276 391.45599 402.37601 407.53601 418.37601 429.09601 440.616 453.79599 469.17599 478.79401 489.95401 501.87399"
         y="338"
         id="tspan146">потрясения на мировом рынке, вызванные вспышкой </tspan><tspan
         x="0 9.6199999 20.780001 32.400002 43.560001 55.48 66.199997 77.040001 88.959999 100.2 110.44 121.16 131.88 137.03999 148.96001 154.12 165.74001 176.66 186.5 196.62 208.53999 221.82001 226.98 237.7 249.62 261.54001 276.51999 287.44 299.35999 311.28 322.20001 335.48001 340.64001 352.66 363.57999 375.5 380.66 392.57999 403.29999 408.45999 420.38 431.29999 444.88 454.82001 464.34 469.07999 474.23999 484.78 494.72 505.634 510.37399"
         y="364"
         id="tspan148">коронавируса и резким снижением цен на нефть, что, </tspan><tspan
         x="0 10.84 16 26.719999 37.560001 48.720001 63.98 69.139999 80.300003 90.839996 101.76 113.38 124.3 135.82001 145.34 150.08 155.24001 166.39999 176.34 187.96001 198.67999 208.52 220.44 231.66 242.82001 253.53999 263.06 268.22 280.14001 290.85999 296.01999 309.60001 320.76001 332.67999 344.20001 355.35999 366.20001 379.38 389.73999 394.89999 406.82001 418.73999 430.26001 441.17999 450.79401 461.51401 472.23401 482.59399 487.33401"
         y="390"
         id="tspan150">в свою очередь, отразилось на фондовых индексах, </tspan><tspan
         x="0 11.52 23.139999 35.060001 45.900002 56.740002 67.959999 79.120003 84.279999 94.400002 99.559998 111.08 121.8 133.32001 144.24001 156.16 168.08 183.34 188.5 198.118 209.278 219.218 231.138 242.758 253.918 264.758 275.918 286.03799 291.198 302.53799 313.496 324.716 334.23599 349.616 361.53601 373.45599 384.17599 394.116 404.95599 415.67599 420.836 431.556 441.67599 453.69601 465.616 477.53601"
         y="416"
         id="tspan152">привело к падению котировок большинства акций </tspan><tspan
         x="0 11.92 17.08 30.66 42.580002 54.5 65.220001 77.139999 87.860001 99.019997 109.86 123.04 133.39999 138.56 150.48 162.39999 173.12 183.06 194.298 204.87801 218.158 229.078 240.998 250.938 262.09799 272.93799 277.67801 282.83801 293.55801 298.71799 308.65799 319.37799 329.49799 344.478 355.39801 360.55801 371.27802 383.198 395.11801 410.09799 421.01801 432.93799 444.858 460.11801"
         y="442"
         id="tspan154">и финансовых инструментов, а также снижению </tspan><tspan
         x="0 10.72 20.66 31.82 43.740002 57.02 68.18 78.900002 88.839996 100.76 105.92 117.54 128.7 139.42 150.14 162.06 173.98 184.7 194.31799 205.478 213.59801 224.758 229.918 241.158 251.73801 263.078 274.298 284.67801 289.83801 301.358 312.51801 317.67801 328.83801 338.77802 350.698 361.858 377.23801 388.15799 400.078 411.99799 427.258"
         y="468"
         id="tspan156">стоимости российского рубля по отношению </tspan><tspan
         x="594 604.12 609.28003 620.79999 632.03998 642.62 650.97998 662.90002 676.17999 681.34003 692.17999 702.90002 714.12 729.38 739.32001 750.03998 763.32001 768.08002 773.23999 785.64001 795.58002 807.5 812.65997 823.38 834.53998 845.88 859.06 869 880.91998 891.29999 896.46002 907.97998 919.14001 929.97998 943.15997 958.53998 969.26001 984.52002 994.46002 999.62 1010.2 1021.82 1032.98 1043.8199 1054.74 1066.66 1076.1801"
         y="-119.48"
         id="tspan158">к другим валютам. Эти события повышают уровень </tspan><tspan
         x="594 605.91998 616.84003 628 639.52002 651.14001 662.06 673.58002 684.41803 695.638 706.55798 718.47803 730.39801 741.55798 752.27802 762.21802 774.138 778.87799 784.03802 794.758 799.91803 809.85797 820.578 830.698 845.67798 856.59802 861.758 872.33801 883.95801 895.11798 905.95801 916.87799 928.79797 938.31799 943.47803 955.09802 967.01801 977.73798 987.85797 998.578 1003.738 1015.258 1026.8781 1038.798"
         y="-93.480003"
         id="tspan160">неопределенности, а также уровень риска при </tspan><tspan
         x="594 605.15997 615.88 626.46002 642.35999 653.28003 664 673.94 684.78003 696 706.91998 718.84003 730.76001 742.67999 747.48999 759.01001 769.92999 780.31 790.25 801.09003 812.31 821.83002 833.75 844.90997 855.63 865.57001 877.48999 882.302 893.14203 897.95203 910.51202 921.672 932.39203 943.112 955.03198 966.95203 977.672 987.29199 998.45203 1010.372 1015.184 1031.684 1042.604 1054.124 1065.0439 1076.6639 1087.384 1099.4041 1111.324 1123.244 1128.004"
         y="-67.480003"
         id="tspan162">осуществлении деятельности в Российской Федерации. </tspan><tspan
         x="594 605.67999 616.84003 630.12 641.64001 652.35999 664.28003 676.20001 686.58002 691.73999 702.58002 714.5 726.41998 739.70001 750.41998 760.35999 771.198 782.41803 791.93799 803.85797 815.01801 820.17798 830.89801 842.11798 853.03802 864.55798 876.47803 886.41803 891.578 901.41803 912.138 917.29797 928.01801 939.93799 949.87799 960.45801 971.17798 983.198 995.11798 1006.038 1017.958"
         y="-41.48"
         id="tspan164">Компания внимательно следит за ситуацией </tspan><tspan
         x="594 605.91998 611.08002 622.23999 634.26001 645.17999 657.09998 669.02002 679.85999 690.58002 701.5 711.44 716.59998 727.44 738.65997 750.58002 760.96002 772.88 784.79999 795.71997 800.88 812.03998 823.56 835.47998 846.20001 856.91998 868.84003 880.76001 893.94 904.29999 909.46002 920.62 931.96002 942.67999 952.62 963.78003 974.15997 984.09998 994.93597 1006.156 1015.676 1026.396 1036.3361 1047.176"
         y="-15.48"
         id="tspan166">и оценивает влияние описанных обстоятельств </tspan><tspan
         x="594 605.91998 616.64001 621.79999 632.71997 643.64001 648.79999 662.38 674.29999 686.21997 696.94 708.85999 719.58002 730.73999 741.58002 752.73999 762.47998 772.84003 784 793.84003 804.21997 816.14001 826.85999 836.79999 847.64001 858.56 870.47998 882.40002 892.97998 908.23999 913.40002 924.91998 935.84003 946.21997 956.15997 966.99597 978.216 987.73602 999.65601 1010.816 1021.536 1031.476 1040.996"
         y="10.52"
         id="tspan168">на ее финансово-хозяйственную деятельность.</tspan><tspan
         x="594 606.28003 617.90002 629.06 642.34003 653.26001 658.41998 668.35999 679.52002 687.64001 698.56 703.29999 708.46002 719.97998 731.14001 741.85999 751.47803 762.44 773.65997 783.17999 793.29999 803.88 809.03998 821.59998 832.76001 843.47998 854.20001 866.12 876.5 881.65997 893.17999 904.79999 915.96002 927.88 937.71997 948.56 959.71997 971.23999 983.15997 993.09998"
         y="62.52"
         id="tspan170">Кроме того, поскольку Россия производит </tspan><tspan
         x="594 605.91998 611.08002 621.79999 631.41998 642.14001 653.65997 664.82001 676.44 686.38 698.29999 709.53802 719.77802 730.698 740.638 745.79797 757.138 768.09802 779.31799 788.83801 804.21802 815.37799 826.29797 831.45801 841.078 852.03802 863.258 875.17798 885.71802 896.638 907.35797 917.29797 928.138 939.29797 944.45801 955.97803 967.59802 979.51801 991.138 1002.298 1013.818 1025.738 1038.918 1049.278"
         y="88.519997"
         id="tspan172">и экспортирует большое количество природных </tspan><tspan
         x="594 605.62 616.53998 627.26001 637.84003 649.46002 660.17999 671.34003 682.17999 686.91998 692.08002 702.20001 707.35999 718.52002 730.03998 741.96002 753.12 766.40002 776.97998 782.14001 794.06 803.90002 809.06 820.21997 830.94 842.85999 854.02002 864.85999 876.78003 889.96002 900.32001 905.47998 917.09998 929.02002 939.73999 949.35602 960.51599 971.35602 976.51599 988.19598 999.35602 1012.636 1024.156 1034.876 1046.796 1058.7159 1070.636"
         y="114.52"
         id="tspan174">ресурсов, к одному из основных рисков Компании </tspan><tspan
         x="594 605.15997 615.09998 627.02002 638.17999 648.90002 660.82001 670.76001 681.47998 691.85999 697.02002 707.73999 719.65997 731.58002 746.56 757.47998 769.40002 781.32001 792.23999 797.40002 809.41998 820.34003 832.26001 837.41998 849.34003 860.56 872.47998 877.64001 888.47998 899.32001 910.23999 921.76001 932.67999 944.59998 956.52002 967.44 972.59998 983.76001 992.12 1003.74 1014.46 1026.38 1038.3 1048.84 1059.76 1071.6801 1083.6 1095.52"
         y="140.52"
         id="tspan176">относится снижение цен или введение ограничений </tspan><tspan
         x="594 605.91998 616.64001 621.79999 633.32001 644.94 656.09998 667.62 678.20001 688.32001 700.34003 712.26001 727.52002 732.67999 744.59998 754.44 759.59998 772.15997 783.32001 794.03998 804.76001 816.67999 828.59998 833.76001 844.91998 855.64001 867.56 878.71997 889.56 901.47998 914.65997 927.94 939.85999 945.02002 955.73999 965.67999 977.29999 988.02002 999.94 1010.66 1023.94 1035.86"
         y="166.52"
         id="tspan178">на продукцию из России основными странами-</tspan><tspan
         x="594 605.91998 619.20001 630.71997 641.88 653.5 663.44 674.35999 685.97998 696.70001 709.97998 721.90002 726.64001 731.79999 742.34003 752.28003 763.44 768.59998 781.88 793.03998 808.02002 818.94 828.88 834.03998 843.88 854.59998 864.53998 875.70001 887.32001 900.59998 911.76001 921.59998 933.52002 943.46002 952.97998 958.14001 969.76001 980.47998 990.32001 1001.16 1013.08 1023.02 1034.9399 1045.86 1051.02 1062.9399 1074.16 1086.08"
         y="192.52"
         id="tspan180">импортерами, что может затормозить развитие или </tspan><tspan
         x="594 605.15997 615.28003 626 635.84003 646.56 656.5 666.02002 671.17999 683.09998 694.02002 702.38 713.09998 723.03998 734.96002 745.79999 757.71997 768.88 779.79999 784.96002 795.79999 807.02002 818.94 829.32001 841.23999 853.15997 864.08002 869.23999 881.15997 891.88 897.03998 908.65997 919.82001 930.53998 941.26001 953.17999 965.09998 975.82001 985.94 996.52002 1011.78 1016.94 1027.66 1037.276 1048.436 1060.356 1071.516 1084.796 1096.7159 1106.8361"
         y="218.52"
         id="tspan182">оказать негативное влияние на российскую экономику</tspan></text><text
       transform="matrix(1,0,0,-1,1287,299.3001)"
       style="font-variant:normal;font-weight:500;font-stretch:normal;font-size:20px;font-family:'Rubik Medium';-inkscape-font-specification:Rubik-Medium;writing-mode:lr-tb;fill:#000000;fill-opacity:1;fill-rule:nonzero;stroke:none"
       id="text188"><tspan
         x="0 13.9 24.52 36.799999 48.240002 59.68 71.760002 83.32 95.019997 110.38 121.94 126.5 138.78 151.25999 162.7 174.16"
         y="0"
         id="tspan186">Отраслевые риски</tspan></text><text
       transform="matrix(1,0,0,-1,1287,273.3001)"
       style="font-variant:normal;font-weight:300;font-stretch:normal;font-size:20px;font-family:'Rubik Light';-inkscape-font-specification:Rubik-Light;writing-mode:lr-tb;fill:#000000;fill-opacity:1;fill-rule:nonzero;stroke:none"
       id="text202"><tspan
         x="0 13.24 23.959999 35.880001 47.040001 57.880001 69.800003 80.959999 92.879997 98.040001 109.56 120.48 130.86 140.8 151.638 162.858 172.37801 184.298 195.45799 206.17799 216.118 225.638 240.89799 246.058 257.73801 268.89801 282.17801 293.698 304.418 316.33801 328.258 340.17801 345.33801 355.71799 366.55801 377.77802 388.15799 399.078 409.01801 419.73801 430.11801"
         y="0"
         id="tspan190">Основной деятельностью Компании является </tspan><tspan
         x="0 11.52 22.440001 32.82 42.759998 53.599998 64.82 74.339996 86.260002 97.419998 108.14 118.08 127.6 132.75999 143.60001 148.75999 159.48 173.06 183.98 195.60001 206.52 211.67999 220.03999 231.278 241.858 251.698 262.858 273.698 286.87799 297.23801 302.39801 317.37799 328.216 339.436 350.35599 360.19601 372.116 383.276 394.79599 405.95599 417.57599 428.73599 443.716 455.63599 468.81601 479.17599"
         y="26"
         id="tspan192">деятельность в сфере грузовых железнодорожных </tspan><tspan
         x="0 11.52 22.440001 34.060001 44.98 55.82 66.980003 76.82 87.980003 98.099998 103.26 114.1 119.26 131.82001 142.98 153.7 164.42 176.34 188.25999 193 198.16 207.778 218.938 228.87801 240.03799 251.658 262.37799 272.758 277.918 288.758 298.87799 310.09799 325.358 335.89801 346.61801 357.53799 367.478 372.638 383.798 393.918 404.638 414.478 425.198 437.11801 449.03799 459.95801"
         y="52"
         id="tspan194">перевозок в России, которая включает оказание </tspan><tspan
         x="0 10.24 20.959999 32.18 42.759998 51.119999 56.279999 67.800003 78.959999 84.120003 95.279999 106.8 117.72 129.34 141.25999 152.88 164.03999 174.88 185.60001 197.52 209.44 224.7 229.86 241.38 252.53999 264.06 274.89999 286.82001 301.79999 313.72 326.89999 340.17999 345.34 356.06 367.22 377.94 387.88 398.60001 409.44 420.60001 433.88 438.62"
         y="78"
         id="tspan196">услуг по оперированию подвижным составом, </tspan><tspan
         x="0 10.72 20.34 31.059999 42.580002 53.5 65.019997 76.940002 88.559998 99.720001 110.56 121.28 133.2 145.12 160.38 165.53999 173.89999 185.138 195.718 205.558 216.718 227.558 232.298 237.45799 249.078 259.99799 273.27802 284.43799 296.358 306.298 316.87799 322.03799 333.95801 339.11801 350.638 361.798 373.31799 381.436 392.59601 402.53601 413.69601 424.53601 434.15601 445.07599"
         y="104"
         id="tspan198">экспедированию грузов, ремонту и подготовке </tspan><tspan
         x="0 8.3599997 19.6 30.18 40.02 51.18 62.02 75.199997 85.559998 90.720001 101.56 112.28 120.398 131.558 143.478 154.638 165.478 170.638 182.558 193.278 198.438 209.95799 221.578 232.73801 246.01801 259.198 270.03799 281.198 291.73801 303.65799 314.81799 324.55801 336.078 347.698 358.858 370.37799 381.09799 392.71799 403.87799 414.418 426.33801 439.51801"
         y="130"
         id="tspan200">грузовых вагонов на промывочно-пропарочных</tspan></text><g
       id="g204"
       transform="translate(1818.8792,94.9844)"><path
         d="M 0,0 9.121,10.047 0,20.094 H -27.879 V 10.047 0 Z"
         style="fill:#faaa2d;fill-opacity:1;fill-rule:nonzero;stroke:none"
         id="path206" /></g><text
       transform="matrix(1,0,0,-1,1623,99.4401)"
       style="font-variant:normal;font-weight:300;font-stretch:normal;font-size:16px;font-family:'Rubik Light';-inkscape-font-specification:Rubik-Light;writing-mode:lr-tb;fill:#000000;fill-opacity:1;fill-rule:nonzero;stroke:none"
       id="text210"><tspan
         x="0 11.2 20.496 29.424 38.639999 47.408001 56.383999 68.367996 77.103996 86.639999 96.176003 104.912 109.0064 118.5424 127.1184 131.216 139.79201 147.744 156.84641 160.6544"
         y="0"
         id="tspan208">Продолжение на стр. </tspan></text><text
       transform="matrix(1,0,0,-1,1795.944,99.4401)"
       style="font-variant:normal;font-weight:500;font-stretch:normal;font-size:16px;font-family:'Rubik Medium';-inkscape-font-specification:Rubik-Medium;writing-mode:lr-tb;fill:#ffffff;fill-opacity:1;fill-rule:nonzero;stroke:none"
       id="text214"><tspan
         x="0 10.512"
         y="0"
         id="tspan212">80</tspan></text><text
       transform="matrix(1,0,0,-1,38.9101,1023)"
       style="font-variant:normal;font-weight:300;font-stretch:normal;font-size:20px;font-family:'Rubik Light';-inkscape-font-specification:Rubik-Light;writing-mode:lr-tb;fill:#000000;fill-opacity:1;fill-rule:nonzero;stroke:none"
       id="text218"><tspan
         x="0 9.7399998"
         y="0"
         id="tspan216">79</tspan></text><g
       id="g220"><g
         id="g222"><g
           id="g224"
           clip-path="url(#clipPath228)"><text
             transform="matrix(1,0,0,-1,99,1023)"
             style="font-variant:normal;font-weight:300;font-stretch:normal;font-size:20px;font-family:'Rubik Light';-inkscape-font-specification:Rubik-Light;writing-mode:lr-tb;fill:#000000;fill-opacity:1;fill-rule:nonzero;stroke:none"
             id="text232"><tspan
               x="0 13.24 18.4 28.02 39.18 52.459999 63.98 74.699997 86.620003 98.540001"
               y="0"
               id="tspan230">О компании</tspan></text></g></g></g></g></svg>
