<?xml version="1.0" encoding="UTF-8" standalone="no"?>
<?xml-stylesheet type="text/css" href="main.css" ?>
<svg
   xmlns:dc="http://purl.org/dc/elements/1.1/"
   xmlns:cc="http://creativecommons.org/ns#"
   xmlns:rdf="http://www.w3.org/1999/02/22-rdf-syntax-ns#"
   xmlns:svg="http://www.w3.org/2000/svg"
   xmlns="http://www.w3.org/2000/svg"
   version="1.1"
   id="svg2"
   xml:space="preserve"
   width="2560"
   height="1440"
   viewBox="0 0 2560 1440"><metadata
     id="metadata8"><rdf:RDF><cc:Work
         rdf:about=""><dc:format>image/svg+xml</dc:format><dc:type
           rdf:resource="http://purl.org/dc/dcmitype/StillImage" /></cc:Work></rdf:RDF></metadata><defs
     id="defs6"><clipPath
       clipPathUnits="userSpaceOnUse"
       id="clipPath20"><path
         d="M 0,1080 H 1920 V 0 H 0 Z"
         id="path18" /></clipPath><clipPath
       clipPathUnits="userSpaceOnUse"
       id="clipPath188"><path
         d="M 0,0 H 1920 V 1080 H 0 Z"
         id="path186" /></clipPath><clipPath
       clipPathUnits="userSpaceOnUse"
       id="clipPath286"><path
         d="M 0,1080 H 1920 V 0 H 0 Z"
         id="path284" /></clipPath></defs><g
     id="g10"
     transform="matrix(1.3333333,0,0,-1.3333333,0,1440)"><g
       id="g12"><g
         id="g14"><g
           id="g16"
           clip-path="url(#clipPath20)"><path
             d="M 0,0 H 1920 V 1080 H 0 Z"
             style="fill:#ffffff;fill-opacity:1;fill-rule:nonzero;stroke:none"
             id="path22" /></g></g></g><path
       d="m 1287,0 h 633 v 1080 h -633 z"
       style="fill:#e8e8ed;fill-opacity:1;fill-rule:nonzero;stroke:none"
       id="path24" /><text
       transform="matrix(1,0,0,-1,1347,357.4998)"
       style="font-variant:normal;font-weight:500;font-stretch:normal;font-size:20px;font-family:'Rubik Medium';-inkscape-font-specification:Rubik-Medium;writing-mode:lr-tb;fill:#000000;fill-opacity:1;fill-rule:nonzero;stroke:none"
       id="text28"><tspan
         x="0 13.74 25.6 36.32 48.799999 60.240002 69.160004 81.440002 92.879997 110.06 122.64 134.2 146.67999 159.16 170.72 175.28 186.86 198.94 210.5 222.98 234.84 246.53999 251.10001 265.70001 277.98001 289.42001 301.12 313.20001 324.76001 337.23999 349.72"
         y="0"
         id="tspan26">Вознаграждение членов Правления</tspan></text><text
       transform="matrix(1,0,0,-1,1347,331.4998)"
       style="font-variant:normal;font-weight:500;font-stretch:normal;font-size:20px;font-family:'Rubik Medium';-inkscape-font-specification:Rubik-Medium;writing-mode:lr-tb;fill:#000000;fill-opacity:1;fill-rule:nonzero;stroke:none"
       id="text32"><tspan
         x="0 10.72 22.16 26.719999 39.119999 52.299999 64.699997 77.879997 82.440002 91.18 103.04 115.62 120.92 125.48 136.10001 151.46001 162.89999 168.28 172.84 184.698 196.138 208.09801"
         y="0"
         id="tspan30">за 2020 год, тыс. руб.</tspan></text><g
       id="g34"
       transform="translate(1347,258.7998)"><path
         d="M 0,0 H 349"
         style="fill:none;stroke:#bdbdbd;stroke-width:1;stroke-linecap:butt;stroke-linejoin:miter;stroke-miterlimit:10;stroke-dasharray:none;stroke-opacity:1"
         id="path36" /></g><g
       id="g38"
       transform="translate(1696,258.7998)"><path
         d="M 0,0 H 124"
         style="fill:none;stroke:#bdbdbd;stroke-width:1;stroke-linecap:butt;stroke-linejoin:miter;stroke-miterlimit:10;stroke-dasharray:none;stroke-opacity:1"
         id="path40" /></g><g
       id="g42"
       transform="translate(1347,216.0999)"><path
         d="M 0,0 H 349"
         style="fill:none;stroke:#bdbdbd;stroke-width:1;stroke-linecap:butt;stroke-linejoin:miter;stroke-miterlimit:10;stroke-dasharray:none;stroke-opacity:1"
         id="path44" /></g><g
       id="g46"
       transform="translate(1696,216.0999)"><path
         d="M 0,0 H 124"
         style="fill:none;stroke:#bdbdbd;stroke-width:1;stroke-linecap:butt;stroke-linejoin:miter;stroke-miterlimit:10;stroke-dasharray:none;stroke-opacity:1"
         id="path48" /></g><g
       id="g50"
       transform="translate(1347,173.3999)"><path
         d="M 0,0 H 349"
         style="fill:none;stroke:#bdbdbd;stroke-width:1;stroke-linecap:butt;stroke-linejoin:miter;stroke-miterlimit:10;stroke-dasharray:none;stroke-opacity:1"
         id="path52" /></g><g
       id="g54"
       transform="translate(1696,173.3999)"><path
         d="M 0,0 H 124"
         style="fill:none;stroke:#bdbdbd;stroke-width:1;stroke-linecap:butt;stroke-linejoin:miter;stroke-miterlimit:10;stroke-dasharray:none;stroke-opacity:1"
         id="path56" /></g><g
       id="g58"
       transform="translate(1347,130.7)"><path
         d="M 0,0 H 349"
         style="fill:none;stroke:#bdbdbd;stroke-width:1;stroke-linecap:butt;stroke-linejoin:miter;stroke-miterlimit:10;stroke-dasharray:none;stroke-opacity:1"
         id="path60" /></g><g
       id="g62"
       transform="translate(1696,130.7)"><path
         d="M 0,0 H 124"
         style="fill:none;stroke:#bdbdbd;stroke-width:1;stroke-linecap:butt;stroke-linejoin:miter;stroke-miterlimit:10;stroke-dasharray:none;stroke-opacity:1"
         id="path64" /></g><text
       transform="matrix(1,0,0,-1,1347,270.7998)"
       style="font-variant:normal;font-weight:300;font-stretch:normal;font-size:20px;font-family:'Rubik Light';-inkscape-font-specification:Rubik-Light;writing-mode:lr-tb;fill:#000000;fill-opacity:1;fill-rule:nonzero;stroke:none"
       id="text74"><tspan
         x="0 11.98 22.700001 34.32 45.040001 56.380001 67.540001 77.480003 89.400002 100.12 110.5 115.66 127.18 138.39999 149.12 159.06 378.35999 386.32001 394.28 405.72 410.88 423.23999 435.56 446.76001 450.89999 460.64001"
         y="0"
         id="tspan66">Заработная плата115 802,78</tspan><tspan
         x="0 14 25.620001 36.540001 49.82 61.740002 390.57999 401.64001 413.16 418.32001 426.28 436.01999 448.14001 452.28 461.35999"
         y="42.700001"
         id="tspan68">Премии93 178,76</tspan><tspan
         x="0 14.52 26.440001 39.619999 50.540001 55.700001 66.540001 78.459999 89.980003 103.16 108.32 119.16 130.32001 140.16 152.08 162.8 171.16 182.78 193.5 208.48 220 230.92 242.84 254.75999 412.67999 420.64001 425.79999 438.12 450.01999 461.66 465.04001"
         y="85.400002"
         id="tspan70">Иные виды вознаграждений1 046,1</tspan><tspan
         x="0 13.02 22.959999 34.580002 45.299999 55.66 66.82 77.660004 90.839996 101.76 106.92 117.76 127.6 139.52 150.67999 161.39999 389.35999 400.88 412.39999 417.56 429.92001 437.88 447.92001 452.06 461.10001"
         y="128.10001"
         id="tspan72">Страховые взносы33 819,74</tspan></text><text
       transform="matrix(1,0,0,-1,1347,99.9998)"
       style="font-variant:normal;font-weight:500;font-stretch:normal;font-size:20px;font-family:'Rubik Medium';-inkscape-font-specification:Rubik-Medium;writing-mode:lr-tb;fill:#000000;fill-opacity:1;fill-rule:nonzero;stroke:none"
       id="text78"><tspan
         x="0 15.22 27.34 41.240002 51.900002 363.98001 376.23999 389.29999 401.92001 406.48001 419.62 432.26001 441.94 447.23999 459.85999"
         y="0"
         id="tspan76">ИТОГО243 847,38</tspan></text><text
       transform="matrix(1,0,0,-1,1347,953.8201)"
       style="font-variant:normal;font-weight:500;font-stretch:normal;font-size:28px;font-family:'Rubik Medium';-inkscape-font-specification:Rubik-Medium;writing-mode:lr-tb;fill:#000000;fill-opacity:1;fill-rule:nonzero;stroke:none"
       id="text82"><tspan
         x="0 19.236 35.84 50.848 68.32 84.335999 96.823997 114.016 130.032 154.084 171.696 187.88 205.35201 222.82401"
         y="0"
         id="tspan80">Вознаграждение</tspan></text><text
       transform="matrix(1,0,0,-1,1347,919.8281)"
       style="font-variant:normal;font-weight:500;font-stretch:normal;font-size:28px;font-family:'Rubik Medium';-inkscape-font-specification:Rubik-Medium;writing-mode:lr-tb;fill:#000000;fill-opacity:1;fill-rule:nonzero;stroke:none"
       id="text86"><tspan
         x="0 16.212 33.124001 49.307999 66.779999 83.384003 99.764 106.148 126.588 143.78 159.79601 176.17599 193.088 209.272 226.744 244.216"
         y="0"
         id="tspan84">членов Правления</tspan></text><text
       transform="matrix(1,0,0,-1,1347,883.8201)"
       style="font-variant:normal;font-weight:300;font-stretch:normal;font-size:20px;font-family:'Rubik Light';-inkscape-font-specification:Rubik-Light;writing-mode:lr-tb;fill:#000000;fill-opacity:1;fill-rule:nonzero;stroke:none"
       id="text108"><tspan
         x="0 12.7 23.92 34.84 46.759998 59.939999 65.099998 79.099998 90.720001 101.44 112.28 123.5 134.42 146.34 158.25999 168.64 173.8 185.478 196.638 209.918 221.438 232.158 244.078 255.998 267.918 273.078 283.45801 294.298 305.51801 315.89801 331.15799 341.09799 351.81799 362.198 367.358 378.27802 389.198"
         y="0"
         id="tspan88">Члены Правления Компании являются ее </tspan><tspan
         x="0 10.72 21.879999 31.82 43.060001 53.639999 65.160004 77.080002 89 99.120003 109.84 123.12 135.03999 140.2 152.12 157.28 168.8 179.758 190.978 201.558 212.09801 222.81799 238.078 248.01801 253.17799 263.01801 273.73801 285.358 296.078 307.418 318.578 328.51801 340.43799 351.01801 366.27802 371.43799 382.95801 394.17801 404.89801 414.83801 425.418"
         y="26"
         id="tspan90">сотрудниками и получают заработную плату </tspan><tspan
         x="0 11.92 17.08 29 40.919998 54.099998 65.019997 70.18 81.019997 92.18 102.02 113.94 124.66 133.02 144.64 155.36 170.34 181.86 192.78 204.7 216.62 227 232.16 243 248.16 258.88 270.04001 281.20001 291.14001 301.98001 312.89999 322.84 333.56 343.5 354.34 366.26001 378.17999"
         y="52"
         id="tspan92">и иные вознаграждения в соответствии </tspan><tspan
         x="0 10.72 15.88 25.719999 36.439999 48.360001 60.279999 73.559998 84.279999 95.199997 108.48 119.64 131.56 136.72 148.24001 159.198 170.418 185.39799 197.31799 208.478 219.198 229.138 238.658 253.918 259.078 270.99799 281.71799 286.87799 298.03799 308.758 320.67801 331.83801 342.67801 353.39801 365.31799 377.23801 389.15799"
         y="78"
         id="tspan94">с занимаемой должностью на основании </tspan><tspan
         x="0 9.9399996 21.18 31.76 43.279999 54.439999 65.279999 76.440002 84.559998 95.720001 100.88 112.4 123.56 131.67799 142.838 153.67799 164.838 176.45799 187.17799 192.338 204.258 209.418 220.258 232.17799 242.758 252.698 264.31799 275.23801 287.15799 299.078 310.99799 321.358"
         y="104"
         id="tspan96">трудового договора и внутренних </tspan><tspan
         x="0 11.52 22.68 32.799999 43.380001 56.66 67.580002 79.5 89.440002 100.6 111.44 116.6 129.84 141.17999 157.08 168 178.72 188.66 199.5 210.22"
         y="130"
         id="tspan98">документов Общества.</tspan><tspan
         x="0 13.02 24.18 35.02 46.18 56.299999 66.879997 78.400002 90.32 103.5 115.42 120.58 132.2 142.92 152.75999 166.03999 176.96001 188.58 193.74001 204.58 215.74001 225.58 237.5 248.22 256.57999 268.20001 278.92001 293.89999 305.42001 316.34 328.26001 340.17999 352.10001"
         y="169"
         id="tspan100">Совокупный размер вознаграждений </tspan><tspan
         x="0 10.54 21.76 32.68 44.599998 55.32 68.599998 73.760002 87.760002 99.379997 110.1 120.94 132.16 143.08 155 166.92 177.3 182.46001 194.08 205 213.36 223.358 234.578 244.95799 256.578 268.49799 279.65799 284.81799 296.43799 307.15799 317.87799 327.99799 339.61801 352.798 363.638 374.358 385.27802 395.21799 405.93799 416.31799"
         y="195"
         id="tspan102">членам Правления регулярно раскрывается </tspan><tspan
         x="0 11.68 22.84 36.119999 47.639999 58.360001 70.279999 82.199997 93.120003 105.04 110.2 121.04 126.2 139.78 150.94 162.56 175.84 186.75999 191.92 203.08 213.02 223.56 234.48 244.42 255.14 260.29999 271.01999 284.29999 296.22 306.16 317.07999 329 338.94 349.66"
         y="221"
         id="tspan104">Компанией в форме отчета эмитента </tspan><tspan
         x="0 6.3800001 17.719999 28.639999 38.48 43.639999 54.220001 64.760002 75.68 85.620003 96.339996 101.5 112.22 122.16 133.78 144.5 154.86 166.02 176.86 190.03999 200.39999 205.56 216.39999 226.24001 238.16 249.32001 260.04001 271.20001 282.04001 288.42001"
         y="247"
         id="tspan106">(без учета страховых взносов).</tspan></text><text
       transform="matrix(1,0,0,-1,99,953.8201)"
       style="font-variant:normal;font-weight:500;font-stretch:normal;font-size:28px;font-family:'Rubik Medium';-inkscape-font-specification:Rubik-Medium;writing-mode:lr-tb;fill:#000000;fill-opacity:1;fill-rule:nonzero;stroke:none"
       id="text112"><tspan
         x="0 18.004 34.608002 54.32 71.456001 87.639999 105.112 121.128 137.144 155.008 172.48 188.608 194.992 212.18401 228.2 244.216 260.03601 276.64001 294.25201 310.85599"
         y="0"
         id="tspan110">Компенсация расходов</tspan></text><text
       transform="matrix(1,0,0,-1,99,919.8281)"
       style="font-variant:normal;font-weight:500;font-stretch:normal;font-size:28px;font-family:'Rubik Medium';-inkscape-font-specification:Rubik-Medium;writing-mode:lr-tb;fill:#000000;fill-opacity:1;fill-rule:nonzero;stroke:none"
       id="text116"><tspan
         x="0 16.212 33.124001 49.307999 66.779999 83.384003 99.764 106.148 122.164 138.76801 155.14799 171.332 186.2 202.216 208.60001 226.21201 243.68401 260.87601 277.06 293.104 307.97198 324.57599 341.76801 358.37201"
         y="0"
         id="tspan114">членов совета директоров</tspan></text><text
       transform="matrix(1,0,0,-1,99,883.8201)"
       style="font-variant:normal;font-weight:300;font-stretch:normal;font-size:20px;font-family:'Rubik Light';-inkscape-font-specification:Rubik-Light;writing-mode:lr-tb;fill:#000000;fill-opacity:1;fill-rule:nonzero;stroke:none"
       id="text120"><tspan
         x="0 13.06 18.219999 28.940001 40.099998 51.259998 61.200001 72.040001 82.959999 92.900002 103.62 113.56 124.4 136.32001 148.24001 153.39999 164.12 169.28 179.86 189.8 200.64 211.56 223.17999 238.16 249.67999 260.60001 272.51999 284.44 297.62 310.89999 316.06 330.06 341.01599 352.23599 363.396 378.37601 389.29599 401.216 413.13599 424.056 437.336 442.496 453.65601 458.81601 469.65601"
         y="0"
         id="tspan118">В соответствии с утвержденным Положением о вы</tspan></text><text
       transform="matrix(1,0,0,-1,581.836,883.8201)"
       style="font-variant:normal;font-weight:300;font-stretch:normal;font-size:20px;font-family:'Rubik Light';-inkscape-font-specification:Rubik-Light;writing-mode:lr-tb;fill:#000000;fill-opacity:1;fill-rule:nonzero;stroke:none"
       id="text124"><tspan
         x="0"
         y="0"
         id="tspan122">-</tspan></text><text
       transform="matrix(1,0,0,-1,99,857.8201)"
       style="font-variant:normal;font-weight:300;font-stretch:normal;font-size:20px;font-family:'Rubik Light';-inkscape-font-specification:Rubik-Light;writing-mode:lr-tb;fill:#000000;fill-opacity:1;fill-rule:nonzero;stroke:none"
       id="text128"><tspan
         x="0 11.52 22.74 33.459999 43.400002 54.32 59.48 70.019997 81.239998 92.160004 104.08 114.8 128.08 133.24001 146.25999 157.42 168.25999 179.17999 189.12 199.84 205 216.52 228.44 240.06 250.98 261.10001 271.04001 282.20001 293.82001 304.98001 315.82001 320.98001 334.98001 345.07999 357.35999 362.51999 373.35999 384.51999 394.35999 406.28 417 425.35999 436.98001 447.70001 462.67999 474.20001"
         y="0"
         id="tspan126">плате членам Совета директоров ПГК вознагражде</tspan></text><text
       transform="matrix(1,0,0,-1,584.12,857.8201)"
       style="font-variant:normal;font-weight:300;font-stretch:normal;font-size:20px;font-family:'Rubik Light';-inkscape-font-specification:Rubik-Light;writing-mode:lr-tb;fill:#000000;fill-opacity:1;fill-rule:nonzero;stroke:none"
       id="text132"><tspan
         x="0"
         y="0"
         id="tspan130">-</tspan></text><text
       transform="matrix(1,0,0,-1,99,831.8201)"
       style="font-variant:normal;font-weight:300;font-stretch:normal;font-size:20px;font-family:'Rubik Light';-inkscape-font-specification:Rubik-Light;writing-mode:lr-tb;fill:#000000;fill-opacity:1;fill-rule:nonzero;stroke:none"
       id="text180"><tspan
         x="0 11.92 23.84 35.759998 40.919998 52.84 58 67.620003 78.779999 92.059998 103.58 114.5 126.42 137.14 147.86 159.88 171.8 183.72 188.88 200.8 214.08 219.24001 228.858 240.01801 253.298 264.81799 275.73801 287.65799 298.37799 310.298 321.53601 332.116 347.37601 357.31601 368.03601 378.41599 383.57599 394.29599 405.51599 416.436 427.95599 438.53601 453.79599 469.69601 481.616 492.53601"
         y="0"
         id="tspan134">ний и компенсаций им компенсируются следующие </tspan><tspan
         x="0 11.62 22.34 33.060001 43.419998 54.580002 66.099998 79.279999 84.019997 89.18 99.900002 110.74 121.12 130.96001 141.67999 153.60001 165.52 178.7 189.62 194.78 205.5 210.66 222.58 233.3 244.82001 255.778 266.99799 278.918 289.83801 301.758 313.67801 324.59799 337.87799 343.03799 353.758 364.59799 375.758 387.67801 398.03799 403.198 416.396 426.97601 438.896 449.01599 461.03601 472.95599 484.87601"
         y="26"
         id="tspan136">расходы, связанные с исполнением своих функций:</tspan><tspan
         x="0 7.5999999 18 29.620001 40.34 51.060001 61.419998 72.580002 84.099998 97.279999 102.02 107.18 117.9 128.74001 139.12 148.96001 159.67999 171.60001 183.52 196.7 207.62 212.78 223.5 228.66 240.17999 251.8 262.95999 273.88 283.72 295.23999 306.39999 319.67999 324.84 335.38 346.60001 357.51999 369.44 380.60001 391.44 396.60001 409.62 420.78 431.62 442.54001 452.48001 463.20001"
         y="65"
         id="tspan138">• расходы, связанные с проездом членов Совета </tspan><tspan
         x="18 29.52 41.439999 53.060001 63.98 74.099998 84.040001 95.199997 106.82 117.98 128.82001 133.98 144.10001 149.25999 162.53999 173.46001 184.17999 194.12 204.7 209.86 221.38 233 244.16 255 265.92001 277.44 288.35999 300.28 312.20001 322.57999 327.73999 337.57999 348.29999 359.01999 369.94 381.45999 392.17999 404.10001 416.01999 427.94"
         y="91"
         id="tspan140">директоров к месту проведения заседаний </tspan><tspan
         x="18 31.02 42.18 53.02 63.939999 73.879997 84.599998 89.760002 101.28 113.2 124.82 135.74001 145.86 155.8 166.96001 178.58 189.74001 200.58 205.74001 211.87801 223.558 234.718 247.998 259.918 269.858 280.77802 290.71799 301.87799 312.71799 317.87799 330.89801 342.05801 352.89801 363.81799 373.758 384.478"
         y="117"
         id="tspan142">Совета директоров (Комитетов Совета </tspan><tspan
         x="18 29.52 41.439999 53.060001 63.98 74.099998 84.040001 95.199997 106.82 117.98 128.82001 135.2 140.36 152.28 153.12 162.3 163.14 175.06 186.28 198.2 203.36 214.52 225.86 241.75999 253.67999 264.04001 269.20001 279.92001 291.07999 302.42001 314.04001 324.76001 336.67999 348.60001 360.51999 365.67999 376.39999 386.51999 398.54001 410.45999 421.62 433.54001 444.45999 456.07999 467.23999 478.07999"
         y="143"
         id="tspan144">директоров) и / или общих собраний акционеров </tspan><tspan
         x="18.02 31.26 42.599998 58.5 69.419998 80.139999 90.080002 100.92 111.64"
         y="169"
         id="tspan146">Общества;</tspan><tspan
         x="0.02 7.6199999 18.02 29.639999 40.360001 51.080002 61.439999 72.599998 84.120003 97.300003 102.04 107.2 117.92 128.75999 139.14 148.98 159.7 171.62 183.53999 196.72 207.64 212.8 223.52 228.67999 240.2 251.82001 262.98001 277.95999 289.88 300.72 311.44 323.35999 335.28 346.20001 359.48001 364.64001 375.17999 386.39999 397.32001 409.23999 420.39999 431.23999"
         y="208"
         id="tspan148">• расходы, связанные с проживанием членов </tspan><tspan
         x="18.02 31.040001 42.200001 53.040001 63.959999 73.900002 84.620003 89.779999 101.3 113.22 124.84 135.75999 145.88 155.82001 166.98 178.60001 189.75999 200.60001 205.75999 216.60001 221.75999 233.28 244.2 255.82001 267.73999 278.89999 290.42001 295.57999 307.10001 318.72 329.88 340.72 351.64001 363.16 374.07999 386 397.92001 408.29999"
         y="234"
         id="tspan150">Совета директоров в период проведения </tspan><tspan
         x="18.02 27.860001 38.580002 49.299999 60.220001 71.739998 82.459999 94.379997 106.3 118.22 123.38 136.39999 147.56 158.39999 169.32001 179.25999 189.98 195.14 206.66 218.58 230.2 241.12 251.24001 261.17999 272.34 283.95999 295.12 305.95999 311.12 317.25601 328.936 340.09601 353.37601 365.29599 375.23599 386.15601 396.09601 407.25601 418.09601 423.25601 436.276 447.436 458.276 469.19601 479.13599 489.85599"
         y="260"
         id="tspan152">заседаний Совета директоров (Комитетов Совета </tspan><tspan
         x="18.02 29.540001 41.459999 53.080002 64 74.120003 84.059998 95.220001 106.84 118 128.84 135.22 140.38 152.3 153.14 162.32001 163.16 175.08 186.3 198.22 203.38 214.53999 225.88 241.78 253.7 264.06 269.22 279.94 291.10001 302.44 314.06 324.78 336.70001 348.62 360.54001 365.70001 376.42001 386.54001 398.56 410.48001 421.64001 433.56 444.48001 456.10001 467.26001 478.10001"
         y="286"
         id="tspan154">директоров) и / или общих собраний акционеров </tspan><tspan
         x="18.040001 31.280001 42.619999 58.52 69.440002 80.160004 90.099998 100.94 111.66"
         y="312"
         id="tspan156">Общества;</tspan><tspan
         x="0.039999999 7.6399999 18.040001 29.559999 41.18 52.099998 63.619999 74.339996 84.279999 95 105.84 117.76 127.7 138.53799 149.758 159.278 169.998 180.118 192.03799 202.95799 208.118 219.73801 230.45799 241.17799 251.53799 262.698 274.21799 287.39801"
         y="351"
         id="tspan158">• представительские расходы;</tspan><tspan
         x="0.039999999 7.6399999 18.040001 29.959999 41.880001 55.060001 65.980003 71.139999 82.760002 93.480003 104.2 114.56 125.72 137.24001 150.42 155.16 160.32001 171.03999 181.88 192.25999 202.10001 212.82001 224.74001 236.66 249.84 260.76001 265.92001 276.64001 281.79999 293.72 304.44 315.95999 326.91599 338.13599 350.056 360.97601 372.896 384.81601 395.73599 409.01599"
         y="390"
         id="tspan160">• иные расходы, связанные с исполнением </tspan><tspan
         x="18.040001 28.58 39.799999 50.720001 62.639999 73.360001 86.639999 98.559998 103.72 116.74 127.9 138.74001 149.66 159.60001 170.32001 175.48 187 198.92 210.53999 221.46001 231.58 241.52 252.67999 264.29999 275.45999 286.29999 291.45999 297.59601 309.276 320.436 333.716 345.63599 355.57599 366.496 376.436 387.59601 398.436 403.59601 416.616 427.776 438.616 449.53601 459.47601 470.19601"
         y="416"
         id="tspan162">членами Совета директоров (Комитетов Совета </tspan><tspan
         x="18.040001 29.559999 41.48 53.099998 64.019997 74.139999 84.080002 95.239998 106.86 118.02 128.86 135.24001 140.39999 151.12 161.96001 173.12 185.03999 195.39999 200.56 213.758 224.338 236.258 246.37801 258.39801 270.31799 282.23801"
         y="442"
         id="tspan164">директоров) своих функций.</tspan><tspan
         x="0.039999999 15.64 26.360001 35.98 46.700001 58.619999 71.900002 82.620003 93.839996 103.36 115.28 126 136.38 141.53999 152.25999 162.84 176.12 189.39999 200.12 205.28 214.89799 226.058 239.338 250.858 261.77802 273.698 284.418 296.33801 307.57599 317.81601 328.73599 342.01599 355.19601 365.556 370.716 381.25601 392.47601 403.396 415.31601 425.896"
         y="481"
         id="tspan166">Максимальная сумма компенсируемых члену </tspan><tspan
         x="0.039999999 13.06 24.219999 35.060001 45.98 55.919998 66.639999 71.800003 83.32 95.239998 106.86 117.78 127.9 137.84 149 160.62 171.78 182.62 187.78 199.39999 210.12 220.84 231.2 242.36 253.88 265.04001 275.88 281.04001 290.88 301.60001 306.76001 318.38 329.10001 339.82001 350.35999 361.28 371.22 383.14001 396.32001 408.23999"
         y="507"
         id="tspan168">Совета директоров расходов за расчетный </tspan><tspan
         x="0.039999999 11.56 22.48 34.099998 46.02 57.18 68.699997 73.860001 85.779999 96.699997 101.86 115.14 126.3 141.28 152.2 162.14 167.3 178.82001 190.44 201.36 212.2 225.38 240.75999 251.48 261.42001 270.94 276.10001 287.62 299.94 300.76001 315.57999 320.73999 331.89999 341.84 347 358.34 369.06 378.89999 390.06 400.89999 412.06 420.17801 431.33801"
         y="533"
         id="tspan170">период не может превышать 30 % от базового </tspan><tspan
         x="0.039999999 10.88 22.040001 31.879999 43.799999 54.52 62.880001 74.5 85.220001 100.2 111.72 122.64 134.56 146.48 156.86 161.62 166.78 178.45799 189.618 202.89799 214.418 225.338 237.258 247.978 258.698 270.71799 282.638 293.01801 298.17801 311.45801 322.61801 337.59799 348.51801 358.45801 363.61801 374.95801 388.138 398.078 407.59799"
         y="559"
         id="tspan172">вознаграждения. Компенсация может быть </tspan><tspan
         x="0.039999999 10.88 24.059999 35.580002 46.799999 57.52 68.059998 78.980003 90.900002 101.62 106.78 117.62 122.78 133.5 144.72 155.3 165.84 176.56 187.48 192.22 197.38 208.3 219.02 230.24001 242.16 247.32001 257.85999 269.07999 280 291.92001 297.07999 310.10001 321.26001 332.10001 343.01999 352.95999 363.67999 368.84 380.35999 392.28 403.89999 414.82001 424.94 434.88 446.04001 457.66 468.82001 479.66"
         y="585"
         id="tspan174">выплачена в случае, если член Совета директоров </tspan><tspan
         x="0.039999999 11.56 23.18 35.099998 47.02 57.400002 68.620003 73.779999 84.360001 94.900002 105.62 116.34 126.28 138.2 149.12 154.28 165.62 176.578 187.798 198.718 209.638 214.798 225.338 236.258 249.53799 254.698 265.53799 270.698 282.21799 293.17599 304.396 315.556 326.396 338.31601 350.23599 361.15601 366.31601 376.15601 386.87601 397.59601 408.51599 420.03601 430.75601 442.67599 454.59601 466.51599"
         y="611"
         id="tspan176">принял участие более чем в половине заседаний </tspan><tspan
         x="0.039999999 13.06 24.219999 35.060001 45.98 55.919998 66.639999 71.800003 83.32 95.239998 106.86 117.78 127.9 137.84 149 160.62 171.78 182.62"
         y="637"
         id="tspan178">Совета директоров.</tspan></text><g
       id="g182"><g
         id="g184"
         clip-path="url(#clipPath188)"><g
           id="g190"
           transform="translate(854.9503,938.0524)"><path
             d="m 0,0 c 11.079,-8.638 16.624,-19.784 16.624,-33.442 0,-33.509 -18.69,-50.26 -56.059,-50.26 h -71.523 v -28.996 h 79.256 c 20.357,0 35.435,-4.192 45.233,-12.565 9.793,-8.379 14.692,-20.297 14.692,-35.762 0,-15.464 -6.126,-28.355 -18.364,-38.661 -12.245,-10.312 -31.896,-15.465 -58.959,-15.465 -19.331,0 -37.248,3.027 -53.739,9.086 -16.498,6.053 -32.089,15.911 -46.781,29.576 l -19.33,-23.197 c 14.691,-13.665 32.669,-24.49 53.932,-32.476 21.264,-7.986 44.521,-11.985 69.784,-11.985 23.197,0 43.168,2.066 59.925,6.186 16.752,4.12 30.603,9.726 41.561,16.818 10.952,7.086 19.005,15.464 24.164,25.13 5.153,9.665 7.732,20.037 7.732,31.122 0,18.558 -5.479,33.569 -16.431,45.041 -10.958,11.465 -26.097,19.65 -45.427,24.55 17.524,5.926 30.283,14.238 38.275,24.936 7.986,10.692 11.985,24.29 11.985,40.788 0,10.052 -2.513,19.458 -7.539,28.223 -5.026,8.759 -12.565,16.364 -22.617,22.81 -10.052,6.44 -22.557,11.466 -37.502,15.078 -14.951,3.606 -32.349,5.413 -52.193,5.413 -25.263,0 -47.879,-3.613 -67.851,-10.826 -19.977,-7.218 -37.308,-17.143 -51.999,-29.769 l 17.398,-23.197 c 14.691,12.626 29.962,21.584 45.813,26.87 15.851,5.28 33.442,7.926 52.773,7.926 C -26.809,12.952 -11.085,8.632 0,0 m 269.251,8.505 c 9.533,-4.252 17.978,-11.018 25.323,-20.297 7.346,-9.278 13.272,-21.264 17.785,-35.955 4.506,-14.691 6.766,-32.475 6.766,-53.353 0,-20.877 -2.26,-38.661 -6.766,-53.352 -4.513,-14.692 -10.439,-26.677 -17.785,-35.955 -7.345,-9.279 -15.79,-16.045 -25.323,-20.298 -9.538,-4.252 -19.33,-6.379 -29.382,-6.379 -10.052,0 -19.851,2.127 -29.383,6.379 -9.539,4.253 -17.978,11.019 -25.323,20.298 -7.346,9.278 -13.278,21.263 -17.785,35.955 -4.512,14.691 -6.765,32.475 -6.765,53.352 0,20.878 2.253,38.662 6.765,53.353 4.507,14.691 10.439,26.677 17.785,35.955 7.345,9.279 15.784,16.045 25.323,20.297 9.532,4.253 19.331,6.38 29.383,6.38 10.052,0 19.844,-2.127 29.382,-6.38 M 183.81,33.249 C 166.799,27.45 152.107,18.618 139.736,6.766 127.364,-5.092 117.759,-19.977 110.933,-37.888 c -6.832,-17.917 -10.245,-38.988 -10.245,-63.212 0,-24.229 3.413,-45.3 10.245,-63.211 6.826,-17.917 16.431,-32.802 28.803,-44.654 12.371,-11.858 27.063,-20.684 44.074,-26.483 17.011,-5.799 35.695,-8.699 56.059,-8.699 20.357,0 39.048,2.9 56.059,8.699 17.011,5.799 31.702,14.625 44.074,26.483 12.371,11.852 21.97,26.737 28.802,44.654 6.826,17.911 10.246,38.982 10.246,63.211 0,24.224 -3.42,45.295 -10.246,63.212 -6.832,17.911 -16.431,32.796 -28.802,44.654 -12.372,11.852 -27.063,20.684 -44.074,26.483 -17.011,5.799 -35.702,8.699 -56.059,8.699 -20.364,0 -39.048,-2.9 -56.059,-8.699"
             style="fill:#faaa2d;fill-opacity:1;fill-rule:nonzero;stroke:none"
             id="path192" /></g><g
           id="g194"
           transform="translate(1214,980)"><path
             d="m 0,0 h -151 c -11.046,0 -20,-8.954 -20,-20 0,-11.046 8.954,-20 20,-20 H 0 c 11.046,0 20,8.954 20,20 C 20,-8.954 11.046,0 0,0"
             style="fill:#e8e8ed;fill-opacity:1;fill-rule:nonzero;stroke:none"
             id="path196" /></g></g></g><text
       transform="matrix(1,0,0,-1,1063.3771,952.7192)"
       style="font-variant:normal;font-weight:500;font-stretch:normal;font-size:28px;font-family:'Rubik Medium';-inkscape-font-specification:Rubik-Medium;writing-mode:lr-tb;fill:#000000;fill-opacity:1;fill-rule:nonzero;stroke:none"
       id="text200"><tspan
         x="0 17.136 34.327999 50.931999 68.739998 84.924004 102.396 117.264 133.868"
         y="0"
         id="tspan198">процентов</tspan></text><text
       transform="matrix(1,0,0,-1,693,639.9055)"
       style="font-variant:normal;font-weight:500;font-stretch:normal;font-size:20px;font-family:'Rubik Medium';-inkscape-font-specification:Rubik-Medium;writing-mode:lr-tb;fill:#000000;fill-opacity:1;fill-rule:nonzero;stroke:none"
       id="text212"><tspan
         x="0 16.24 27.68 38.68 50.119999 62.599998 76.68 88.120003 100.2 110.82 123.3 134.74001 146.25999 150.82001 162.25999 173.7 187.78 201.86 213.3 217.86 228.858 240.718 254.798 267.03799 278.59799 291.078 302.51801 314.99799 326.85599 337.91599 349.47601 363.556 378.91599 390.216"
         y="0"
         id="tspan202">Максимальная сумма компенсируемых </tspan><tspan
         x="0 11.58 23.66 35.220001 47.700001 59.139999 63.700001 77.400002 89.260002 100.96 112.52 123.14 134.58 139.14 151.72 164.2 176.48 188.03999 199.5 210.12 221.98 234.25999 246.12 257.82001 262.38 274.66 286.10001 297.54001 308.84 320.70001 333.28 345.14001 356.84"
         y="26"
         id="tspan204">члену Совета директоров расходов </tspan><tspan
         x="0 10.72 22.16 26.719999 39 50.439999 61.880001 73.459999 85.019997 95.639999 108.12 123.48 135.96001 140.52 152.75999 164.32001 176.60001 189.08 200.94 213.52 218.08 230.56 242.12 246.67999 260.76001 272.62 289.79999 301.35999 311.98001 316.54001 328.78 341.06 352.62 364.32001 379.67999 395.88 407.32001 417.94 428.56"
         y="52"
         id="tspan206">за расчетный период не может превышать </tspan><tspan
         x="0 12.62 25.799999 26.639999 42.34 46.900002 58.759998 69.379997 73.940002 85.900002 97.339996 108.06 119.92 131.62 143.48 152.22 164.08 168.64 180.34 192.2 202.92 215.39999 226.84 235.75999 248.03999 259.48001 276.66 289.23999 300.79999 313.28 325.76001"
         y="78"
         id="tspan208">30 % от базового вознаграждения</tspan><tspan
         x="0 13.74 25.6 36.32 48.799999 60.240002 69.160004 81.440002 92.879997 110.06 122.64 134.2 146.67999 159.16 170.67999 175.24001 187.72 192.28 203.278 215.138 229.218 241.45799 253.01801 265.49799 276.93799 288.37799 301.138 313.61801"
         y="272.60001"
         id="tspan210">Вознаграждения и компенсации</tspan></text><text
       transform="matrix(1,0,0,-1,693,341.3055)"
       style="font-variant:normal;font-weight:500;font-stretch:normal;font-size:20px;font-family:'Rubik Medium';-inkscape-font-specification:Rubik-Medium;writing-mode:lr-tb;fill:#000000;fill-opacity:1;fill-rule:nonzero;stroke:none"
       id="text216"><tspan
         x="0 11.58 23.66 35.220001 47.700001 59.139999 73.220001 77.779999 91.480003 103.34 115.04 126.6 137.22 148.66 153.22 165.8 178.28 190.56 202.12 213.58 224.2 236.06 248.34 260.20001 271.89999 277.20001 281.76001 293.45999 308.82001 321.06 333.14001 344.57999 356.16 367.72 380.20001 392.67999 408.04001"
         y="0"
         id="tspan214">членам Совета директоров, выплаченные</tspan></text><text
       transform="matrix(1,0,0,-1,693,315.3055)"
       style="font-variant:normal;font-weight:500;font-stretch:normal;font-size:20px;font-family:'Rubik Medium';-inkscape-font-specification:Rubik-Medium;writing-mode:lr-tb;fill:#000000;fill-opacity:1;fill-rule:nonzero;stroke:none"
       id="text220"><tspan
         x="0 11.7 16.26 28.66 41.84 54.240002 67.419998 71.980003 80.720001 92.580002 105.16 115.54 120.84 125.4 136.02 151.38 162.82001 168.2 172.75999 184.618 196.058 208.01801"
         y="0"
         id="tspan218">в 2020 году, тыс. руб.</tspan></text><g
       id="g222"
       transform="translate(693,284.7998)"><path
         d="M 0,0 H 424"
         style="fill:none;stroke:#e8e8ed;stroke-width:1;stroke-linecap:butt;stroke-linejoin:miter;stroke-miterlimit:10;stroke-dasharray:none;stroke-opacity:1"
         id="path224" /></g><g
       id="g226"
       transform="translate(1117,284.7998)"><path
         d="M 0,0 H 109"
         style="fill:none;stroke:#e8e8ed;stroke-width:1;stroke-linecap:butt;stroke-linejoin:miter;stroke-miterlimit:10;stroke-dasharray:none;stroke-opacity:1"
         id="path228" /></g><g
       id="g230"
       transform="translate(693,216.0999)"><path
         d="M 0,0 H 424"
         style="fill:none;stroke:#e8e8ed;stroke-width:1;stroke-linecap:butt;stroke-linejoin:miter;stroke-miterlimit:10;stroke-dasharray:none;stroke-opacity:1"
         id="path232" /></g><g
       id="g234"
       transform="translate(1117,216.0999)"><path
         d="M 0,0 H 109"
         style="fill:none;stroke:#e8e8ed;stroke-width:1;stroke-linecap:butt;stroke-linejoin:miter;stroke-miterlimit:10;stroke-dasharray:none;stroke-opacity:1"
         id="path236" /></g><g
       id="g238"
       transform="translate(693,173.3999)"><path
         d="M 0,0 H 424"
         style="fill:none;stroke:#e8e8ed;stroke-width:1;stroke-linecap:butt;stroke-linejoin:miter;stroke-miterlimit:10;stroke-dasharray:none;stroke-opacity:1"
         id="path240" /></g><g
       id="g242"
       transform="translate(1117,173.3999)"><path
         d="M 0,0 H 109"
         style="fill:none;stroke:#e8e8ed;stroke-width:1;stroke-linecap:butt;stroke-linejoin:miter;stroke-miterlimit:10;stroke-dasharray:none;stroke-opacity:1"
         id="path244" /></g><g
       id="g246"
       transform="translate(693,130.7)"><path
         d="M 0,0 H 424"
         style="fill:none;stroke:#e8e8ed;stroke-width:1;stroke-linecap:butt;stroke-linejoin:miter;stroke-miterlimit:10;stroke-dasharray:none;stroke-opacity:1"
         id="path248" /></g><g
       id="g250"
       transform="translate(1117,130.7)"><path
         d="M 0,0 H 109"
         style="fill:none;stroke:#e8e8ed;stroke-width:1;stroke-linecap:butt;stroke-linejoin:miter;stroke-miterlimit:10;stroke-dasharray:none;stroke-opacity:1"
         id="path252" /></g><text
       transform="matrix(1,0,0,-1,693,254.0999)"
       style="font-variant:normal;font-weight:300;font-stretch:normal;font-size:20px;font-family:'Rubik Light';-inkscape-font-specification:Rubik-Light;writing-mode:lr-tb;fill:#000000;fill-opacity:1;fill-rule:nonzero;stroke:none"
       id="text264"><tspan
         x="0 13.06 24.219999 34.060001 45.98 56.700001 65.059998 76.68 87.400002 102.38 113.9 124.82 136.74001 148.66 159.58 164.74001 174.58 185.3 190.46001 201.03999 211.58 222.3 233.02 242.96001 254.88 265.79999 270.95999 281.79999 286.95999 298.57999 309.29999 320.64001 331.79999 341.73999 352.66"
         y="0"
         id="tspan254">Вознаграждение за участие в работе </tspan><tspan
         x="0 11.16 22.780001 31.139999 41.860001 53.779999 64.5 69.660004 80.239998 91.760002 103.38 114.1 124.94 136.16 147.08 159 170.92"
         y="26"
         id="tspan256">органа управления</tspan><tspan
         x="459.20001 471.56 483.92001 489.07999 498.82001 510.01999 521.65997 525.03998"
         y="0"
         id="tspan258">88 726,1</tspan><tspan
         x="0 11.68 22.84 36.119999 47.639999 58.560001 70.480003 81.199997 91.919998 103.94 115.86 469.67999 477.64001 482.79999 495.12 506.56 517.76001 521.56"
         y="68.699997"
         id="tspan260">Компенсации1 092,9</tspan><tspan
         x="0 13.02 22.959999 34.580002 45.299999 55.66 66.82 77.660004 90.839996 101.76 106.92 117.76 127.6 139.52 150.67999 161.39999 466.06 474.01999 485.92001 491.07999 499.04001 507 519.12 523.26001"
         y="111.4"
         id="tspan262">Страховые взносы14 118,7</tspan></text><text
       transform="matrix(1,0,0,-1,693,99.9999)"
       style="font-variant:normal;font-weight:500;font-stretch:normal;font-size:20px;font-family:'Rubik Medium';-inkscape-font-specification:Rubik-Medium;writing-mode:lr-tb;fill:#000000;fill-opacity:1;fill-rule:nonzero;stroke:none"
       id="text268"><tspan
         x="0 15.22 27.34 41.240002 51.900002 430.14001 439.42001 452.60001 465.22 469.78 481.92001 494.54001 504.22 508.92001 519.82001"
         y="0"
         id="tspan266">ИТОГО103 937,70</tspan></text><g
       id="g270"
       transform="translate(99,102)"><path
         d="M 0,0 H 138"
         style="fill:none;stroke:#e8f0ec;stroke-width:4;stroke-linecap:butt;stroke-linejoin:miter;stroke-miterlimit:4;stroke-dasharray:none;stroke-opacity:1"
         id="path272" /></g><text
       transform="matrix(1,0,0,-1,38.9101,1023)"
       style="font-variant:normal;font-weight:300;font-stretch:normal;font-size:20px;font-family:'Rubik Light';-inkscape-font-specification:Rubik-Light;writing-mode:lr-tb;fill:#000000;fill-opacity:1;fill-rule:nonzero;stroke:none"
       id="text276"><tspan
         x="0 9.7399998"
         y="0"
         id="tspan274">79</tspan></text><g
       id="g278"><g
         id="g280"><g
           id="g282"
           clip-path="url(#clipPath286)"><text
             transform="matrix(1,0,0,-1,99,1023)"
             style="font-variant:normal;font-weight:300;font-stretch:normal;font-size:20px;font-family:'Rubik Light';-inkscape-font-specification:Rubik-Light;writing-mode:lr-tb;fill:#000000;fill-opacity:1;fill-rule:nonzero;stroke:none"
             id="text290"><tspan
               x="0 13.24 18.4 28.02 39.18 52.459999 63.98 74.699997 86.620003 98.540001"
               y="0"
               id="tspan288">О компании</tspan></text></g></g></g></g></svg>
