<?xml version="1.0" encoding="UTF-8" standalone="no"?>
<?xml-stylesheet type="text/css" href="main.css" ?>
<svg
   xmlns:dc="http://purl.org/dc/elements/1.1/"
   xmlns:cc="http://creativecommons.org/ns#"
   xmlns:rdf="http://www.w3.org/1999/02/22-rdf-syntax-ns#"
   xmlns:svg="http://www.w3.org/2000/svg"
   xmlns="http://www.w3.org/2000/svg"
   version="1.1"
   id="svg2"
   xml:space="preserve"
   width="2560"
   height="1440"
   viewBox="0 0 2560 1440"><metadata
     id="metadata8"><rdf:RDF><cc:Work
         rdf:about=""><dc:format>image/svg+xml</dc:format><dc:type
           rdf:resource="http://purl.org/dc/dcmitype/StillImage" /></cc:Work></rdf:RDF></metadata><defs
     id="defs6"><clipPath
       clipPathUnits="userSpaceOnUse"
       id="clipPath20"><path
         d="M 0,1080 H 1920 V 0 H 0 Z"
         id="path18" /></clipPath></defs><g
     id="g10"
     transform="matrix(1.3333333,0,0,-1.3333333,0,1440)"><g
       id="g12"><g
         id="g14"><g
           id="g16"
           clip-path="url(#clipPath20)"><path
             d="M 0,0 H 1920 V 1080 H 0 Z"
             style="fill:#ffffff;fill-opacity:1;fill-rule:nonzero;stroke:none"
             id="path22" /></g></g></g><text
       transform="matrix(1,0,0,-1,99,944.2805)"
       style="font-variant:normal;font-weight:normal;font-stretch:normal;font-size:38px;font-family:'Prosto One';-inkscape-font-specification:ProstoOne-Regular;writing-mode:lr-tb;fill:#000000;fill-opacity:1;fill-rule:nonzero;stroke:none"
       id="text26"><tspan
         x="0 30.02 64.220001 97.279999 124.26 154.28 197.78999 228.95 260.87 293.54999"
         y="0"
         id="tspan24">СОДЕРЖАНИЕ</tspan></text><text
       transform="matrix(1,0,0,-1,99,865.4808)"
       style="font-variant:normal;font-weight:normal;font-stretch:normal;font-size:20px;font-family:'Prosto One';-inkscape-font-specification:ProstoOne-Regular;writing-mode:lr-tb;fill:#000000;fill-opacity:1;fill-rule:nonzero;stroke:none"
       id="text30"><tspan
         x="0 16.4 24.4 40 58 65 80.900002 98.900002 120.9 137.7 154.10001 170.89999 188.10001"
         y="0"
         id="tspan28">01 О КОМПАНИИ</tspan></text><text
       transform="matrix(1,0,0,-1,99,827.4808)"
       style="font-variant:normal;font-weight:300;font-stretch:normal;font-size:20px;font-family:'Rubik Light';-inkscape-font-specification:Rubik-Light;writing-mode:lr-tb;fill:#000000;fill-opacity:1;fill-rule:nonzero;stroke:none"
       id="text70"><tspan
         x="0 11.52 40 53.240002 64.580002 76.199997 86.919998 102.82 113.74 125.66 137.58 148.5 153.66 167.66 179.28 190.2 201.72 212.44 223.36 234.88 245.60001 255.53999 266.45999 277.67999 288.06 293.22 306.23999 317.39999 328.23999 339.16 349.10001 359.82001 364.98001 376.5 388.42001 400.04001 410.95999 421.07999 431.01999 442.17999 453.79999 464.95999"
         y="0"
         id="tspan32">3 Обращение Председателя Совета директоров</tspan><tspan
         x="0 11.44 40 53.240002 64.580002 76.199997 86.919998 102.82 113.74 125.66 137.58 148.5 153.66 163.75999 174.67999 186.60001 197.52 209.14 219.86 231.08 240.60001 252.52 263.67999 272.04001 283.20001 288.35999 299.88 311.79999 323.42001 334.34 344.45999 354.39999 365.56 377.17999"
         y="38"
         id="tspan34">5 Обращение Генерального директора</tspan><tspan
         x="0 7.96 20.280001 40 52.279999 63.439999 76.720001 88.239998 98.959999 110.88 122.8 133.17999 138.34 149.06 159.98 168.34 179.5 191.02 202.94"
         y="76"
         id="tspan36">10 Компания сегодня</tspan><tspan
         x="0 7.96 15.92 40 50.099998 61.02 72.18 80.540001 92.160004 102.88 116.46 128.38"
         y="114"
         id="tspan38">11 География</tspan><tspan
         x="0 7.96 19.16 40 53.060001 63.779999 72.139999 83.300003 95.220001 107.14 120.32 132.24001 137.39999 148.92 159.64 171.25999"
         y="152"
         id="tspan40">12 Вагонный парк</tspan><tspan
         x="0 7.96 19.48 40 50.099998 61.720001 72.300003 82.139999 93.300003 104.46 115.8 126.96 138.58 149.74001 159.67999 164.84 178.84 188.94 201.22 206.38 217.22 222.38 233.58 245.89999 257.10001 269.42001 274.57999 282.94 294.10001 305.62"
         y="190"
         id="tspan42">13 Грузооборот ПГК в 2020 году</tspan><tspan
         x="0 7.96 19.860001 40 54.52 64.459999 75.620003 83.980003 95.900002 101.06 112.26 124.58 135.78 148.10001 153.25999 161.62 172.78 184.3"
         y="226"
         id="tspan44">14 Итоги 2020 года</tspan><tspan
         x="0 7.96 19.4 40 52.400002 65.980003 79.559998 90.480003 100.6 110.54 122.46 133.3 145.22 158.39999 170.32001 175.48 186.64 196.58 207.42 218.34 228.28 233.44 245.36 256.07999 261.23999 272.07999 285.26001 295.10001 306.26001 317.10001 330.28 335.44 346.95999 357.67999 369.60001 381.12 392.04001 405.32001 417.23999 429.16 434.32001 447.34 460.57999 473.34 478.35999 491.89999 500.814 508.77399"
         y="264"
         id="tspan46">15 Эффективный ответ на вызовы пандемии COVID-19</tspan><tspan
         x="0 7.96 17.700001 40 53.240002 63.959999 75.879997 87.040001 97.879997 109.8 122.98 133.89999 139.06 149.78 160.94 172.28 185.46001 195.39999 207.32001 217.7 222.86 231.22 242.38 253.89999"
         y="300"
         id="tspan48">17 Основные события года</tspan><tspan
         x="0 11.2 23.52 40 51.259998 62.779999 74.400002 85.120003 95.959999 107.18 118.1 130.02 141.94 152.86 158.02 168.60001 179.32001 189.25999 200.42 212.34 222.88 234.8 245.64 258.82001 272.10001 277.26001 288.88 299.60001 309.44 320.28 332.20001 342.14001 354.06 364.98001"
         y="338"
         id="tspan50">20 Управление устойчивым развитием</tspan><tspan
         x="0 11.2 22.719999 40 53.02 62.959999 74.580002 85.300003 95.239998 106.16 114.52 126.44 136.98 147.89999 158.62 168.74001 180.66 191.58 196.74001 208.75999 219.67999 230.89999 242.82001 247.98 260.26001 271.42001 284.70001 296.22 306.94 318.85999 330.78"
         y="374"
         id="tspan52">23 Стратегические цели Компании</tspan><tspan
         x="0 10.96 22.860001 40 53.240002 64.580002 74.419998 85.580002 97.199997 102.36 113.98 127.16 139.08 150.24001 160.78 172.7 183.86 192.22 203.38 208.53999 219.7 229.82001 241.44 252.02 267 277.92001 289.84 301.76001"
         y="410"
         id="tspan54">24 Обзор рыночного окружения</tspan><tspan
         x="0 11.2 20.940001 40 53.240002 64.580002 74.419998 85.580002 97.199997 102.36 113.52 125.04 135.96001 147.58 158.3 170.32001 182.24001 193.39999 205.32001 217.24001 228.39999 240.32001 245.48 257 267.92001 278.29999 288.23999 299.16 310.38 319.89999 331.82001 342.98001 353.70001 363.64001"
         y="446"
         id="tspan56">27 Обзор операционной деятельности</tspan><tspan
         x="0 11.52 23.040001 40 54 65.620003 76.779999 87.699997 97.82 107.76 120.94 126.1 138.12 150.03999 163.62 175.24001 186.39999 197.24001 209.16 219 229.72 241.74001 253.66 265.57999 270.73999 284.73999 294.84"
         y="482"
         id="tspan58">33 Проекты цифровизации ПГК</tspan><tspan
         x="0 11.52 23.16 40 53 64.919998 75.639999 86.860001 98.779999 108.62 113.78 127.36 139.28 151.2 161.92 173.84 184.56 195.72 206.56 219.74001 230.10001 235.25999 246.88 257.79999 267.64001 278.22 289.44 298.95999 308.89999 319.62 329.56 340.72 351.56"
         y="518"
         id="tspan60">36 Анализ финансовых результатов </tspan><tspan
         x="40 51.919998 57.080002 70.660004 82.580002 94.5 105.22 117.14 127.86 139.02 149.86 161.02 169.38 180.53999 185.7 197.22 208.38 219.60001 230.75999 245.74001 256.66 268.57999 280.5"
         y="544"
         id="tspan62">и финансового положения</tspan><tspan
         x="0 11.52 21.26 40 52.279999 63.5 78.760002 89.300003 100.22 111.06 124.24 135.16 140.32001 151.94 162.86 172.7 183.28 194.5 204.02 213.96001 224.67999 234.62"
         y="580"
         id="tspan64">37 Ключевые результаты</tspan><tspan
         x="0 11.9 23.34 40 56.5 68.419998 80.339996 91.059998 102.98 113.7 124.86 135.7 146.42 156.8 161.96001 173.12 183.06 193.60001 204.52 214.46001 226.38 237.53999 248.25999 258.20001 267.72 272.88 284.39999 295.56 300.72 316.32001 329.34 345.84"
         y="616"
         id="tspan66">45 Финансовая отчетность по МСФО</tspan><tspan
         x="0 11.44 23.76 40 53.240002 63.959999 75.879997 87.040001 97.879997 109.8 122.98 133.89999 139.06 150.58 161.74001 171.86 182.58 192.42 203.14 213.08 224 235.22 247.14 252.3 262.14001 272.85999 278.01999 289.54001 294.70001 303.06 314.22 325.73999"
         y="652"
         id="tspan68">50 Основные показатели за 3 года</tspan></text><text
       transform="matrix(1,0,0,-1,693,865.4808)"
       style="font-variant:normal;font-weight:normal;font-stretch:normal;font-size:20px;font-family:'Prosto One';-inkscape-font-specification:ProstoOne-Regular;writing-mode:lr-tb;fill:#000000;fill-opacity:1;fill-rule:nonzero;stroke:none"
       id="text74"><tspan
         x="0 16.4 30.200001 60 75.900002 93.900002 109.7 126.5 144.5 160.3 176.7 190.8 208 224 240.8 258.79999 273 280 295.89999 312.70001 328.5 344.89999 360.89999 377.5 391.70001 408.5 425.70001"
         y="0"
         id="tspan72">02 КОРПОРАТИВНОЕ УПРАВЛЕНИЕ</tspan></text><text
       transform="matrix(1,0,0,-1,693,827.4808)"
       style="font-variant:normal;font-weight:300;font-stretch:normal;font-size:20px;font-family:'Rubik Light';-inkscape-font-specification:Rubik-Light;writing-mode:lr-tb;fill:#000000;fill-opacity:1;fill-rule:nonzero;stroke:none"
       id="text96"><tspan
         x="0 11.44 22.639999 60 73.019997 84.940002 95.660004 105.6 116.52 129.8 140.52 145.67999 155.8 166.96001 178.58 190.10001 201.25999 212.88 223.60001 233.53999 245.46001 256.29999 268.22 279.38 287.73999 298.89999 304.06 314.64001 326.16 337.78 348.5 359.34 370.56 381.48001 393.39999 405.32001"
         y="0"
         id="tspan76">52 Система корпоративного управления</tspan><tspan
         x="0 11.44 22.639999 60 74 85.620003 97.540001 109.46 121.48 133.39999 144.92 158.10001 163.25999 173.38 184.53999 196.16 207.67999 218.84 230.46001 241.17999 251.12 263.04001 273.88 285.79999 296.95999 305.32001 316.48001 321.64001 332.22 343.73999 355.35999 366.07999 376.92001 388.14001 399.06 410.98001 422.89999"
         y="38"
         id="tspan78">52 Принципы корпоративного управления</tspan><tspan
         x="0 11.44 23.34 60 73.019997 82.959999 94.580002 105.16 115.28 125.22 135.8 147.42 158.14 163.3 173.42 184.58 196.2 207.72 218.88 230.5 241.22 251.16 263.07999 273.92001 285.84 297 305.35999 316.51999 321.67999 332.26001 343.78 355.39999 366.12 376.95999 388.17999 399.10001 411.01999 422.94"
         y="76"
         id="tspan80">54 Структура корпоративного управления</tspan><tspan
         x="0 11.44 23.08 60 71.260002 81.980003 91.919998 102.64 113.48 125.4 138.58 150.5 155.66 165.78 176.5 188.02 199.94 209.88 220.60001 231.82001 236.98 248.89999 254.06 264.78 274.89999 286.92001 298.84 310 321.92001 332.84 344.45999 356.38 367.10001 377.48001 382.64001 393.35999 403.29999 414.92001 425.5 435.62 445.56 456.14001 467.76001"
         y="114"
         id="tspan82">56 Уставный капитал и акционерная структура</tspan><tspan
         x="0 11.44 21.18 60 73.019997 84.18 95.019997 105.94 115.88 121.04 132.56 144.48 156.10001 167.02 177.14 187.08 198.24001 209.86 221.02"
         y="152"
         id="tspan84">57 Совет директоров</tspan><tspan
         x="0 9.7399998 22.059999 60 74.519997 85.239998 96.760002 107.92 119.14 131.06 142.98 152.92 163.84 175.06 184.58 196.5 209.67999 220.60001 225.75999 236.92 248.53999 256.89999 267.62 279.54001 292.72 297.88 308.45999 319.98001 331.60001 342.32001 353.16 364.38 375.29999 387.22 399.14001"
         y="190"
         id="tspan86">70 Исполнительные органы управления</tspan><tspan
         x="0 9.7399998 19.48 60 73.239998 84.860001 93.220001 103.94 115.86 129.03999 134.2 144.32001 155.48 167.39999 177.34 188.96001 200.12 211.34"
         y="228"
         id="tspan88">77 Органы контроля</tspan><tspan
         x="0 9.7399998 21.18 60 71.260002 82.779999 94.400002 105.12 115.96 127.18 138.10001 150.02 161.94 172.86 178.02 189.64 201.56 212.28 222.39999 233.12 246.39999"
         y="266"
         id="tspan90">79 Управление рисками</tspan><tspan
         x="0 12.36 23.559999 60 74.519997 86.440002 100.02 111.18 122.8 136.08 146.8 158.82001 170.74001 181.89999 193.82001 205.74001 216.46001 226.84 232 243.52 254.67999 265.89999 277.82001 287.76001 299.67999 309.79999"
         y="304"
         id="tspan92">82 Информационная политика</tspan><tspan
         x="0 12.36 23.879999 60 74 85.620003 96.779999 106.72 118.64 129.48 140.64 152.16 163.08 175 185.72 195.66 206.5 218.42 229.34 234.5 244.62 255.78 267.39999 279.01999 289.60001 301.12 313.14001 325.06"
         y="342"
         id="tspan94">83 Противодействие коррупции</tspan></text><text
       transform="matrix(1,0,0,-1,693,393.4808)"
       style="font-variant:normal;font-weight:normal;font-stretch:normal;font-size:20px;font-family:'Prosto One';-inkscape-font-specification:ProstoOne-Regular;writing-mode:lr-tb;fill:#000000;fill-opacity:1;fill-rule:nonzero;stroke:none"
       id="text100"><tspan
         x="0 16.4 31.1 60 76.800003 93.199997 115.1 131.5 138.5 154.39999 172.39999 194.39999 210.8 227.60001 245"
         y="0"
         id="tspan98">03 НАША КОМАНДА</tspan></text><text
       transform="matrix(1,0,0,-1,693,355.4808)"
       style="font-variant:normal;font-weight:300;font-stretch:normal;font-size:20px;font-family:'Rubik Light';-inkscape-font-specification:Rubik-Light;writing-mode:lr-tb;fill:#000000;fill-opacity:1;fill-rule:nonzero;stroke:none"
       id="text116"><tspan
         x="0 12.36 23.799999 60 73.059998 82.900002 93.620003 105.54 118.82 129.98 141.5 152.42 164.34 175.06 185 195.84 207.75999 218.67999 223.84 234.56 239.72 249.56 260.28 272.20001 284.12 294.06 304.98001 316.60001 327.51999 338.23999 349.39999 360.23999 370.95999 382.88 394.79999 407.98001 421.26001 433.17999"
         y="0"
         id="tspan102">85 Взаимодействие с заинтересованными </tspan><tspan
         x="60 70.720001 80.660004 91.82 103.44 114.6 126.52 137.24001 150.52"
         y="28"
         id="tspan104">сторонами</tspan><tspan
         x="0 12.36 24.719999 60 74 85.620003 97.540001 109.46 121.48 133.39999 144.92 158.10001 163.25999 177.25999 187.36 199.64 204.8 216.32001 227.94 239.86 245.02 255.60001 267.12 278.73999 289.45999 300.29999 311.51999 322.44 334.35999 346.28 358.20001 363.35999 374.88 385.79999 397.42001 408.14001 419.29999 431.22 441.94 453.16 464.32001"
         y="66"
         id="tspan106">88 Принципы ПГК при управлении персоналом</tspan><tspan
         x="0 11.44 19.4 60 73.019997 84.18 96.199997 108.12 118.84 130.06 139.58 151.5 162.22 172.60001 177.75999 188.92 198.86 209.7 220.62 230.56 241.28 251.22 262.06 272.98001 284.89999 296.82001 307.98001 318.70001 328.64001"
         y="104"
         id="tspan108">91 Социальная ответственность</tspan><tspan
         x="0 11.06 22.58 60 73.239998 83.599998 95.220001 105.94 117.86 128.58 133.74001 143.67999 155.3 165.88 177.39999 188.12 193.28 205.2 210.36 221.88 233.5 244.66 257.94 271.12 286.5 297.72 308.64001 320.56 332.48001 343.20001 353.57999 358.73999 370.07999 381 390.84 402 413.51999 424.23999 434.95999 446.88 458.04001 468.76001 478.70001"
         y="142"
         id="tspan110">93 Охрана труда и промышленная безопасность</tspan><tspan
         x="0 11.44 22.879999 60 72.400002 82.519997 93.68 104.9 116.06 124.42 136.34 146.72 151.88 163.8 168.96001 180.58 191.3 203.32001 215.24001 226.39999 238.32001 249.03999 260.26001 269.78 281.70001 292.85999 303.78 308.94 320.85999 331.57999 343.10001 354.26001 365.48001 375 384.84 396 406.84 417.56 429.48001 441.39999 452.32001"
         y="180"
         id="tspan112">95 Экология и рациональное использование </tspan><tspan
         x="60 71.620003 82.540001 93.260002 103.84 115.46 126.18 137.34"
         y="208"
         id="tspan114">ресурсов</tspan></text><text
       transform="matrix(1,0,0,-1,1287,865.4808)"
       style="font-variant:normal;font-weight:normal;font-stretch:normal;font-size:20px;font-family:'Prosto One';-inkscape-font-specification:ProstoOne-Regular;writing-mode:lr-tb;fill:#000000;fill-opacity:1;fill-rule:nonzero;stroke:none"
       id="text120"><tspan
         x="0 16.4 31.6 60 76.800003 92.599998 109.8 126.4 144.39999 167.3 181.5 198.3 215.5"
         y="0"
         id="tspan118">04 ПРИЛОЖЕНИЯ</tspan></text><text
       transform="matrix(1,0,0,-1,1287,827.4808)"
       style="font-variant:normal;font-weight:300;font-stretch:normal;font-size:20px;font-family:'Rubik Light';-inkscape-font-specification:Rubik-Light;writing-mode:lr-tb;fill:#000000;fill-opacity:1;fill-rule:nonzero;stroke:none"
       id="text140"><tspan
         x="0 11.44 23.799999 60 73.019997 83.860001 94.779999 106.3 117.22 129.14 141.06 151.44 156.60001 167.75999 172.92 183.64 195.16 206.08 217.3 227.42 238.14 248.5 253.24001 258.39999 269.23999 274.39999 285.12 296.28 307.12 318.04001 329.66 345.04001 355.95999 367.88 379.79999 391.72 396.88 407 418.16 428.10001 439.26001 450.88 464.06 474.42001"
         y="0"
         id="tspan122">98 Cведения о сделках, в совершении которых </tspan><tspan
         x="60 71.919998 85.199997 96.120003 107.04 116.98 127.7 138.08 143.24001 153.08 163.8 175.72 187.64 197.58 208.5 220.12 231.03999 241.75999 252.92 263.76001 274.48001 286.39999 298.32001 309.48001 320.20001 330.14001 339.66 344.42001 349.57999 361.85999 373.48001 384.06 395.57999 407.5 420.67999 431.60001 436.76001 447.48001 459 469.92001 481.14001 491.26001"
         y="28"
         id="tspan124">имеется заинтересованность. Крупные сделки</tspan><tspan
         x="0 11.44 22.879999 60 71.980003 82.699997 92.82 104.04 119.3 129.84 140.75999 152.67999 164.60001 175.52 180.67999 191.94 203.46001 215.08 225.8 236.64 247.86 258.78 270.70001 282.62 293 298.16 309 320.92001 331.5 341.44 353.06 363.98001 375.89999 387.82001 398.73999 407.10001 418.26001 423.42001 434.14001 444.72 456.23999 468.16 478.10001 488.82001"
         y="66"
         id="tspan126">99 Заключение Управления внутреннего аудита </tspan><tspan
         x="60 71.160004 82.5 87.660004 98.239998 109.76 121.38 132.10001 142.94 154.16 165.08 177 188.92 200.84 206 217.62 229.53999 240.25999 250.38 261.10001 274.38 286.29999 291.45999 303.38 308.54001 319.38 331.29999 341.88 351.82001 363.44 374.35999 386.28 398.20001 409.12 422.39999 427.56 437.67999 448.84 460.76001 470.70001 482.32001 493.48001 504.70001 515.62"
         y="94"
         id="tspan128">об управлении рисками и внутреннем контроле </tspan><tspan
         x="60 73.239998 84.580002 100.48 111.4 122.12 132.06 142.89999 153.62 158.78 168.62 179.34 184.5 195.7 208.02 219.22 231.53999 236.7 245.06 256.22"
         y="122"
         id="tspan130">Общества за 2020 год</tspan><tspan
         x="0 7.96 20.280001 32.599998 60 70.099998 81.32 92.480003 103.2 113.92 124.64 136.25999 148.17999"
         y="160"
         id="tspan132">100 Глоссарий</tspan><tspan
         x="0 7.96 20.280001 31.48 60 72.279999 83.440002 95.360001 105.3 116.02 126.14 136.08 148 158.72 169.10001 174.25999 186.17999 198.10001 211.67999 222.84 234.46001 247.74001 258.45999 270.48001 282.39999 292.78 297.94 309.45999 320.67999 331.06 336.22 346.94 357.06 369.07999 381 392.16 404.07999 415 426.62 437.78 448.62"
         y="198"
         id="tspan134">102 Контактная информация для акционеров </tspan><tspan
         x="60 71.919998 77.080002 89 100.92 111.76 122.68 133.39999 143.34 154.5 166.12 177.28"
         y="226"
         id="tspan136">и инвесторов</tspan><tspan
         x="-1243.6801 -1188 -1177.9 -1166.74 -1155.22 -1144.0601 -1133.22 -1122.0601 -1110.14 -1104.98 -1093.8199 -1083.88 -1073.34 -1062.42 -1052.48 -1047.3199 -1036.12 -1023.8 -1012.6"
         y="-195.52"
         id="tspan138">8Годовой отчет 2020</tspan></text></g></svg>
