<?xml version="1.0" encoding="UTF-8" standalone="no"?>
<?xml-stylesheet type="text/css" href="main.css" ?>
<svg
   xmlns:dc="http://purl.org/dc/elements/1.1/"
   xmlns:cc="http://creativecommons.org/ns#"
   xmlns:rdf="http://www.w3.org/1999/02/22-rdf-syntax-ns#"
   xmlns:svg="http://www.w3.org/2000/svg"
   xmlns="http://www.w3.org/2000/svg"
   version="1.1"
   id="svg2"
   xml:space="preserve"
   width="2560"
   height="1440"
   viewBox="0 0 2560 1440"><metadata
     id="metadata8"><rdf:RDF><cc:Work
         rdf:about=""><dc:format>image/svg+xml</dc:format><dc:type
           rdf:resource="http://purl.org/dc/dcmitype/StillImage" /></cc:Work></rdf:RDF></metadata><defs
     id="defs6"><clipPath
       clipPathUnits="userSpaceOnUse"
       id="clipPath20"><path
         d="M 0,1080 H 1920 V 0 H 0 Z"
         id="path18" /></clipPath><clipPath
       clipPathUnits="userSpaceOnUse"
       id="clipPath156"><path
         d="M 0,0 H 1920 V 1080 H 0 Z"
         id="path154" /></clipPath><linearGradient
       x1="0"
       y1="0"
       x2="1"
       y2="0"
       gradientUnits="userSpaceOnUse"
       gradientTransform="matrix(1107.1107,211.19267,211.19267,-1107.1107,717.81945,613.03519)"
       spreadMethod="pad"
       id="linearGradient182"><stop
         style="stop-opacity:1;stop-color:#faaa2d"
         offset="0"
         id="stop178" /><stop
         style="stop-opacity:1;stop-color:#2960a1"
         offset="1"
         id="stop180" /></linearGradient><clipPath
       clipPathUnits="userSpaceOnUse"
       id="clipPath198"><path
         d="M 0,1080 H 1920 V 0 H 0 Z"
         id="path196" /></clipPath></defs><g
     id="g10"
     transform="matrix(1.3333333,0,0,-1.3333333,0,1440)"><g
       id="g12"><g
         id="g14"><g
           id="g16"
           clip-path="url(#clipPath20)"><path
             d="M 0,0 H 1920 V 1080 H 0 Z"
             style="fill:#ffffff;fill-opacity:1;fill-rule:nonzero;stroke:none"
             id="path22" /></g></g></g><text
       transform="matrix(1,0,0,-1,99,953.4)"
       style="font-variant:normal;font-weight:normal;font-stretch:normal;font-size:38px;font-family:'Prosto One';-inkscape-font-specification:ProstoOne-Regular;writing-mode:lr-tb;fill:#000000;fill-opacity:1;fill-rule:nonzero;stroke:none"
       id="text28"><tspan
         x="0 30.4 61.560001 86.639999 120.84 152.75999 184.67999 224.39 257.07001"
         y="0"
         id="tspan24">ВАГОННЫЙ </tspan><tspan
         x="0 31.92 63.080002 93.099998"
         y="45.599998"
         id="tspan26">ПАРК</tspan></text><text
       transform="matrix(1,0,0,-1,99,829.1)"
       style="font-variant:normal;font-weight:300;font-stretch:normal;font-size:20px;font-family:'Rubik Light';-inkscape-font-specification:Rubik-Light;writing-mode:lr-tb;fill:#000000;fill-opacity:1;fill-rule:nonzero;stroke:none"
       id="text50"><tspan
         x="0 14 25.16 30.32 41.939999 52.860001 62.700001 72.699997 83.919998 93.440002 103.38 114.1 124.04 134.75999 148.03999 153.2 164.39999 176.72 187.92 200.24001 205.39999 213.51801 224.67799 236.198 246.918 252.078 263.758 274.918 288.198 299.71799 310.43799 322.358 334.27802 344.65799 349.81799 359.65799 370.37799 382.298 394.21799 407.49799 418.21799 429.138 439.078"
         y="0"
         id="tspan30">По результатам 2020 года Компания занимает </tspan><tspan
         x="0 11.52 22.440001 34.060001 44.900002 56.060001 66.980003 72.139999 85.419998 96.339996 107.06 117 128.16 133.32001 144.03999 155.66 166.58 178.10001 190.02 195.17999 205.72 216.44 227.16 237.10001 249.02 262.20001 272.56 277.72 292.70001 303.53601 314.75601 325.67599 335.51599 347.436 358.59601 370.116 381.276 392.896 404.056 419.03601 430.95599 444.13599 454.496"
         y="26"
         id="tspan32">первое место среди частных железнодорожных </tspan><tspan
         x="0 11.16 22.68 33.599998 45.220001 55.939999 65.879997 77.040001 88.660004 99.82 110.66 115.82 127.34 138.5 143.66 153.278 164.23801 175.45799 187.37801 197.918 208.838 219.558 229.498 240.338 250.918 256.078 266.918 277.638 285.758 296.918 308.83801 319.99799 330.83801"
         y="52"
         id="tspan34">операторов по количеству вагонов </tspan><tspan
         x="0 10.84 16 27.16 38.68 49.599998 61.220001 73.139999 84.760002 95.919998 106.76 117.48 129.39999 141.32001 153.24001 158.39999 163.978 175.498 186.658 191.81799 203.338 214.058 225.978 237.89799 251.078 264.358 269.51801 280.23801 288.35599 299.276 311.19601 321.13599 331.85599 341.79599 352.63599 363.35599 368.51599 373.53601 387.216 398.51599 411.75601 422.716 427.17599 438.97601 449.01401 455.39401 460.15399"
         y="78"
         id="tspan36">в оперировании (по данным агентства INFOLine). </tspan><tspan
         x="0 13.52 25.440001 36.279999 47.200001 58.82 69.540001 81.459999 95.040001 106.96 118.98 130.89999 142.52 153.67999 164.52 175.24001 187.16 199.08 212.25999 224.17999 229.34 240.86 251.58 263.20001 273.32001 278.48001 290.39999 301.12 312.64001 323.59601 334.81601 344.336 354.17599 364.41599 375.336 385.276 395.996 406.37601"
         y="104"
         id="tspan38">Диверсифицированный парк используется </tspan><tspan
         x="0 11.52 22.74 33.119999 38.279999 48.220001 59.84 70.559998 82.480003 93.199997 104.72 115.88 127.5 137.44 149.36 160.98 172.14 182.98 193.10001 205.02 210.17999 221.7 233.32001 244.03999 254.16 264.10001 276.01999 286.56 297.48001 308.20001 318.32001 330.23999 335.39999 346.23999 356.95999 367.88 379.79999"
         y="130"
         id="tspan40">для транспортировки практически всей </tspan><tspan
         x="0 11.92 23.08 36.360001 47.279999 59.200001 69.32 80.540001 91.260002 101.2 111.78 123.4 136.58 141.74001 150.10001 161.338 171.918 181.758 192.918 203.758 208.498 213.658 224.37801 234.31799 245.478 250.638 262.15799 273.31799 283.15799 293.99799 304.95599 316.17599 326.556 337.47601 347.41599 352.57599 363.29599 374.45599 384.81601 396.436 407.15601 419.07599 429.45599 439.396 448.91599"
         y="156"
         id="tspan42">номенклатуры грузов, это позволяет сохранять </tspan><tspan
         x="0 10.24 20.959999 30.9 42.060001 53.98 64.519997 76.440002 87.279999 98.440002 109.16 119.1 128.62 133.78 145.3 156.02 171 181.92 187.08 198.60001 210.22 222.14 227.3 239.22 250.14 261.48001 272.70001 283.42001 291.53601 302.69601 314.216 325.836 337.75601 348.13599 358.07599 369.996 381.15601 393.07599"
         y="182"
         id="tspan44">устойчивость даже при неблагоприятной </tspan><tspan
         x="0 9.6199999 20.780001 32.700001 43.48 58.740002 70.660004 80.779999 90.720001 101.3 112.92 123.84 129 140.16 150.10001 161.62 172.45799 183.67799 193.198 205.118 218.298 228.658 233.81799 245.438 258.61801 270.53799 280.15601 291.31601 302.15601 306.896 312.056 322.896 328.056 337.996 349.15601 362.436 367.59601 378.13599 390.056 400.776 411.996 422.91599"
         y="208"
         id="tspan46">конъюнктуре отдельных рынков, в том числе </tspan><tspan
         x="0 10.84 16 26.24 36.959999 48.18 59.34 70.18 82.099998 92.480003 102.84 108 119.52 130.24001 142.16 153.67999 164.60001 177.88 189.8 201.72 206.88 219.89999 232.756 245.51601 250.536 264.07599 272.996 280.95599 290.996"
         y="234"
         id="tspan48">в условиях пандемии COVID-19.</tspan></text><text
       transform="matrix(1,0,0,-1,744,960.4)"
       style="font-variant:normal;font-weight:500;font-stretch:normal;font-size:28px;font-family:'Rubik Medium';-inkscape-font-specification:Rubik-Medium;writing-mode:lr-tb;fill:#000000;fill-opacity:1;fill-rule:nonzero;stroke:none"
       id="text54"><tspan
         x="0 19.236 35.251999 47.487999 64.092003 81.564003 99.036003 120.54 138.01199 144.396 161.532 177.548 194.74001 210.784 217.168 233.548 239.93201 255.948 273.08401 290.276 306.29199 322.672 339.58401 355.76801 373.23999 390.71201 408.18399 414.56799 431.70401 448.30801 454.69199 470.70801 487.31201 503.328 518.19598 534.79999 550.92798 568.40002 585.87201"
         y="0"
         id="tspan52">Вагонный парк в управлении по состоянию</tspan></text><text
       transform="matrix(1,0,0,-1,744,926.408)"
       style="font-variant:normal;font-weight:500;font-stretch:normal;font-size:28px;font-family:'Rubik Medium';-inkscape-font-specification:Rubik-Medium;writing-mode:lr-tb;fill:#000000;fill-opacity:1;fill-rule:nonzero;stroke:none"
       id="text58"><tspan
         x="0 17.472 33.487999 39.872002 57.091999 70.084 76.468002 94.080002 110.264 126.308 142.32401 159.06799 176.25999 192.388 198.772 216.132 234.584 251.944 270.396 276.78 289.01321 305.61719 323.22919 339.24521 345.62921 361.6452 378.24921 394.2652 409.13321 425.1492 441.52921 458.44119 474.56921 490.7532 505.62119 512.00519 524.99719 537.9892 555.65723 561.22638 574.21838 580.60242 595.4704 616.97443 632.99042 649.11841 665.33038 671.71442 688.09442 704.11041 716.34363 732.94757 750.41962 767.02362"
         y="0"
         id="tspan56">на 31 декабря 2020 года составляет 113,1 тысяч вагонов</tspan></text><text
       transform="matrix(1,0,0,-1,1527.4023,935.724)"
       style="font-variant:normal;font-weight:500;font-stretch:normal;font-size:16.324px;font-family:'Rubik Medium';-inkscape-font-specification:Rubik-Medium;writing-mode:lr-tb;fill:#000000;fill-opacity:1;fill-rule:nonzero;stroke:none"
       id="text62"><tspan
         x="0"
         y="0"
         id="tspan60">*</tspan></text><text
       transform="matrix(1,0,0,-1,744,496)"
       style="font-variant:normal;font-weight:bold;font-stretch:normal;font-size:20px;font-family:Rubik;-inkscape-font-specification:Rubik-Bold;writing-mode:lr-tb;fill:#000000;fill-opacity:1;fill-rule:nonzero;stroke:none"
       id="text66"><tspan
         x="0 11.58 25.139999 30.139999 41.720001 45.919998 56.959999 73.639999 85.5"
         y="0"
         id="tspan64">70,7 тыс.</tspan></text><text
       transform="matrix(1,0,0,-1,744,470)"
       style="font-variant:normal;font-weight:normal;font-stretch:normal;font-size:20px;font-family:Rubik;-inkscape-font-specification:Rubik-Regular;writing-mode:lr-tb;fill:#000000;fill-opacity:1;fill-rule:nonzero;stroke:none"
       id="text70"><tspan
         x="0 14.24 25.48 37.040001 47.959999 59.139999 70.139999 78.498001 89.938004 102.078"
         y="0"
         id="tspan68">Полувагоны</tspan></text><path
       d="m 744,364 h 290.959 v 85.5 H 744 Z"
       style="fill:#2960a1;fill-opacity:1;fill-rule:nonzero;stroke:none"
       id="path72" /><text
       transform="matrix(1,0,0,-1,744,290.5)"
       style="font-variant:normal;font-weight:bold;font-stretch:normal;font-size:20px;font-family:Rubik;-inkscape-font-specification:Rubik-Bold;writing-mode:lr-tb;fill:#000000;fill-opacity:1;fill-rule:nonzero;stroke:none"
       id="text76"><tspan
         x="0 10.08 23.639999 28.639999 40.220001 44.419998 55.459999 72.139999 84"
         y="0"
         id="tspan74">10,7 тыс.</tspan></text><text
       transform="matrix(1,0,0,-1,744,264.5)"
       style="font-variant:normal;font-weight:normal;font-stretch:normal;font-size:20px;font-family:Rubik;-inkscape-font-specification:Rubik-Regular;writing-mode:lr-tb;fill:#000000;fill-opacity:1;fill-rule:nonzero;stroke:none"
       id="text80"><tspan
         x="0 14.64 26.780001 37.779999 48 59.18 71.059998 83.199997"
         y="0"
         id="tspan78">Цистерны</tspan></text><path
       d="m 744,158.5 h 44.035 V 244 H 744 Z"
       style="fill:#2960a1;fill-opacity:1;fill-rule:nonzero;stroke:none"
       id="path82" /><text
       transform="matrix(1,0,0,-1,1203.7059,290.5)"
       style="font-variant:normal;font-weight:bold;font-stretch:normal;font-size:20px;font-family:Rubik;-inkscape-font-specification:Rubik-Bold;writing-mode:lr-tb;fill:#000000;fill-opacity:1;fill-rule:nonzero;stroke:none"
       id="text86"><tspan
         x="0 10.46 15.96 29.719999 33.919998 44.959999 61.639999 73.5"
         y="0"
         id="tspan84">7,4 тыс.</tspan></text><text
       transform="matrix(1,0,0,-1,1203.7059,264.5)"
       style="font-variant:normal;font-weight:normal;font-stretch:normal;font-size:20px;font-family:Rubik;-inkscape-font-specification:Rubik-Regular;writing-mode:lr-tb;fill:#000000;fill-opacity:1;fill-rule:nonzero;stroke:none"
       id="text90"><tspan
         x="0 14.56 25.74 39.34 50.52 62.66 72.879997 84.32 95.5 106.94 117.14"
         y="0"
         id="tspan88">Цементовозы</tspan></text><path
       d="m 1203.706,158.5 h 30.454 V 244 h -30.454 z"
       style="fill:#2960a1;fill-opacity:1;fill-rule:nonzero;stroke:none"
       id="path92" /><text
       transform="matrix(1,0,0,-1,1203.7059,496)"
       style="font-variant:normal;font-weight:bold;font-stretch:normal;font-size:20px;font-family:Rubik;-inkscape-font-specification:Rubik-Bold;writing-mode:lr-tb;fill:#000000;fill-opacity:1;fill-rule:nonzero;stroke:none"
       id="text96"><tspan
         x="0 10.08 20.540001 24.860001 34.939999 39.139999 50.18 66.860001 78.720001"
         y="0"
         id="tspan94">17,1 тыс.</tspan></text><text
       transform="matrix(1,0,0,-1,1203.7059,470)"
       style="font-variant:normal;font-weight:normal;font-stretch:normal;font-size:20px;font-family:Rubik;-inkscape-font-specification:Rubik-Regular;writing-mode:lr-tb;fill:#000000;fill-opacity:1;fill-rule:nonzero;stroke:none"
       id="text100"><tspan
         x="0 12.74 24.620001 38.68 48.900002 62.959999"
         y="0"
         id="tspan98">Крытые</tspan></text><path
       d="m 1203.706,364 h 70.373 v 85.5 h -70.373 z"
       style="fill:#2960a1;fill-opacity:1;fill-rule:nonzero;stroke:none"
       id="path102" /><text
       transform="matrix(1,0,0,-1,1456.9119,290.5)"
       style="font-variant:normal;font-weight:bold;font-stretch:normal;font-size:20px;font-family:Rubik;-inkscape-font-specification:Rubik-Bold;writing-mode:lr-tb;fill:#000000;fill-opacity:1;fill-rule:nonzero;stroke:none"
       id="text106"><tspan
         x="0 13.56 19.059999 32.82 37.02 48.060001 64.739998 76.599998"
         y="0"
         id="tspan104">0,4 тыс.</tspan></text><text
       transform="matrix(1,0,0,-1,1456.9119,264.5)"
       style="font-variant:normal;font-weight:normal;font-stretch:normal;font-size:20px;font-family:Rubik;-inkscape-font-specification:Rubik-Regular;writing-mode:lr-tb;fill:#000000;fill-opacity:1;fill-rule:nonzero;stroke:none"
       id="text110"><tspan
         x="0 15.86 28 40.139999 51.32 63.200001 74.199997 85.760002 97.199997 108.38 119.82 130.02"
         y="0"
         id="tspan108">Минераловозы</tspan></text><path
       d="m 1456.912,158.5 h 1.646 V 244 h -1.646 z"
       style="fill:#2960a1;fill-opacity:1;fill-rule:nonzero;stroke:none"
       id="path112" /><text
       transform="matrix(1,0,0,-1,1456.9119,496)"
       style="font-variant:normal;font-weight:bold;font-stretch:normal;font-size:20px;font-family:Rubik;-inkscape-font-specification:Rubik-Bold;writing-mode:lr-tb;fill:#000000;fill-opacity:1;fill-rule:nonzero;stroke:none"
       id="text116"><tspan
         x="0 12.94 18.459999 31.559999 35.759998 46.799999 63.48 75.339996"
         y="0"
         id="tspan114">5,6 тыс.</tspan></text><text
       transform="matrix(1,0,0,-1,1456.9119,470)"
       style="font-variant:normal;font-weight:normal;font-stretch:normal;font-size:20px;font-family:Rubik;-inkscape-font-specification:Rubik-Regular;writing-mode:lr-tb;fill:#000000;fill-opacity:1;fill-rule:nonzero;stroke:none"
       id="text120"><tspan
         x="0 14.24 25.799999 36.799999 47.02 61.279999 72.720001 84.599998 98.199997"
         y="0"
         id="tspan118">Платформы</tspan></text><path
       d="m 1456.912,364 h 23.046 v 85.5 h -23.046 z"
       style="fill:#2960a1;fill-opacity:1;fill-rule:nonzero;stroke:none"
       id="path122" /><text
       transform="matrix(1,0,0,-1,1738.4615,496)"
       style="font-variant:normal;font-weight:bold;font-stretch:normal;font-size:20px;font-family:Rubik;-inkscape-font-specification:Rubik-Bold;writing-mode:lr-tb;fill:#000000;fill-opacity:1;fill-rule:nonzero;stroke:none"
       id="text126"><tspan
         x="0 10.08 15.7 28.82 33.02 37.220001 48.259998 64.940002 76.800003"
         y="0"
         id="tspan124">1,2  тыс.</tspan></text><text
       transform="matrix(1,0,0,-1,1738.4615,470)"
       style="font-variant:normal;font-weight:normal;font-stretch:normal;font-size:20px;font-family:Rubik;-inkscape-font-specification:Rubik-Regular;writing-mode:lr-tb;fill:#000000;fill-opacity:1;fill-rule:nonzero;stroke:none"
       id="text130"><tspan
         x="0 14.24 26.120001 37.560001 48.52 60.66"
         y="0"
         id="tspan128">Прочие</tspan></text><path
       d="m 1738.461,364 h 4.938 v 85.5 h -4.938 z"
       style="fill:#2960a1;fill-opacity:1;fill-rule:nonzero;stroke:none"
       id="path132" /><text
       transform="matrix(1,0,0,-1,97.5,304)"
       style="font-variant:normal;font-weight:500;font-stretch:normal;font-size:28px;font-family:'Rubik Medium';-inkscape-font-specification:Rubik-Medium;writing-mode:lr-tb;fill:#000000;fill-opacity:1;fill-rule:nonzero;stroke:none"
       id="text148"><tspan
         x="0 20.440001 35.672001 54.487999 60.872002 81.311996 99.792 117.236 138.12399 157.584 176.76401 193.73199 213.164 232.39999 252.98 272.07599 289.51999 306.48801"
         y="0"
         id="tspan134">ПГК ПРЕДОСТАВЛЯЕТ </tspan><tspan
         x="0 27.243999 48.551998 67.031998 86.491997 105.308 126.616 147.924 154.308 172.1132 191.5732 214.3092 234.74921 255.32919 272.77319 290.58121 309.7612 316.1452 333.08521 352.2652 372.84521 390.23318 405.46521"
         y="33.992001"
         id="tspan136">ШИРОКИЙ КОМПЛЕКС УСЛУГ </tspan><tspan
         x="0 20.440001 39.900002 46.284 66.723999 84.167999 102.648 120.092 139.328 158.78799 176.90401 195.72 213.164 219.548 234.78 253.25999 270.64801 288.76401 308.224 327.45999 333.84399 352.66 372.09201 390.90799"
         y="67.984001"
         id="tspan138">ПО ПЕРЕВОЗКЕ ГРУЗОВ КАК </tspan><tspan
         x="0 20.58 41.888 62.776001 80.220001 98.699997 118.132 140.868 147.252 168.56 189 209.888 226.8252 246.0052 262.97321 281.45319 302.7612 324.06921 330.45319 349.68921 369.1492 375.5332 394.7692 413.94919 431.39319 449.95721"
         y="101.976"
         id="tspan140">ЛИДЕРАМ ИНДУСТРИИ ВО ВСЕХ </tspan><tspan
         x="0 18.816 39.396 67.283997 86.267998 103.712 122.948 147.756 166.32001 172.70399 191.884 209.328 224.56 247.29601 264.73999 285.17999 302.14801 321.57999 340.14401 346.52802 365.008 389.81601 410.25601 429.07199 448.504"
         y="135.968"
         id="tspan142">КЛЮЧЕВЫХ СЕГМЕНТАХ РЫНКА </tspan><tspan
         x="0 21.308001 27.691999 46.872002 65.351997 82.795998 103.684 124.124 141.56799 164.304 181.692 188.076 206.248 227.556 245.672 266.112 283.38519 302.56519 317.82239 325.2424 331.6264 348.59439 368.0264 386.84241"
         y="169.96001"
         id="tspan144">И СРЕДНЕМУ БИЗНЕСУ, ТАК </tspan><tspan
         x="0 21.308001 27.691999 45.863998 65.071999 85.652 103.096 120.54 126.924 149.66 167.104 187.68401 206.5 227.808 250.54401 256.92801 275.74399 296.32401 317.63199 335.07599 355.51599 372.48401 391.91599"
         y="203.952"
         id="tspan146">И БОЛЕЕ МЕЛКИМ КЛИЕНТАМ</tspan></text><g
       id="g150"><g
         id="g152"
         clip-path="url(#clipPath156)"><g
           id="g158"
           transform="translate(55.4,320.75)"><path
             d="m 0,0 c -1.4,1.9 -3.367,2.85 -5.9,2.85 -2.267,0 -4.084,-0.75 -5.45,-2.25 -1.367,-1.5 -2.05,-3.25 -2.05,-5.25 0,-2 0.666,-3.75 2,-5.25 1.333,-1.5 3,-2.25 5,-2.25 0.666,0 1.266,0.067 1.8,0.2 0.266,0.067 0.5,0.167 0.7,0.3 -0.267,-2 -1.15,-3.583 -2.65,-4.75 -1.5,-1.166 -3.117,-1.75 -4.85,-1.75 v -3.5 c 1.6,0 3.216,0.284 4.85,0.85 1.633,0.567 3.083,1.467 4.35,2.7 1.266,1.234 2.3,2.8 3.1,4.7 0.8,1.9 1.2,4.15 1.2,6.75 C 2.1,-4.117 1.4,-1.9 0,0 M 20,0 C 18.6,1.9 16.633,2.85 14.1,2.85 11.833,2.85 10.016,2.1 8.65,0.6 7.283,-0.9 6.6,-2.65 6.6,-4.65 c 0,-2 0.666,-3.75 2,-5.25 1.333,-1.5 3,-2.25 5,-2.25 0.666,0 1.266,0.067 1.8,0.2 0.266,0.067 0.5,0.167 0.7,0.3 -0.267,-2 -1.15,-3.583 -2.65,-4.75 -1.5,-1.166 -3.117,-1.75 -4.85,-1.75 v -3.5 c 1.6,0 3.216,0.284 4.85,0.85 1.633,0.567 3.083,1.467 4.35,2.7 1.266,1.234 2.3,2.8 3.1,4.7 0.8,1.9 1.2,4.15 1.2,6.75 0,2.533 -0.7,4.75 -2.1,6.65"
             style="fill:#faaa2d;fill-opacity:1;fill-rule:nonzero;stroke:none"
             id="path160" /></g></g></g><text
       transform="matrix(1,0,0,-1,739.5568,100)"
       style="font-variant:normal;font-weight:300;font-stretch:normal;font-size:16px;font-family:'Rubik Light';-inkscape-font-specification:Rubik-Light;writing-mode:lr-tb;fill:#000000;fill-opacity:1;fill-rule:nonzero;stroke:none"
       id="text164"><tspan
         x="0 7.1360002 17.247999 25.983999 33.855999 37.984001 46.448002 54.880001 63.616001 71.568001 80.143997 84.272003 93.487999 102.064 111.36 119.456 128.032 132.16 140.73599 144.864 154.39999 162.976 170.92799 179.664 187.75999 200.064 209.60001 220.224 224.35201 232.92799 242.224 251.15199 258.84479 267.7728 278.39679 282.52481 291.1008 300.07681 308.5408 320.52481 329.5968"
         y="0"
         id="tspan162">*Без учета парка с истекшим сроком службы</tspan></text><g
       id="g166"><g
         id="g168"><g
           id="g174"><g
             id="g176"><path
               d="m 1459.871,801.444 c -15.991,-14.948 -23.988,-36.031 -23.988,-63.254 v 0 -47.12 c 0,-25.129 7.756,-44.504 23.274,-58.113 v 0 c 15.515,-13.614 38.696,-20.418 69.537,-20.418 v 0 c 15.421,0 28.887,1.713 40.408,5.14 v 0 c 11.517,3.427 21.177,8.184 28.986,14.278 v 0 c 7.804,6.091 13.658,13.467 17.562,22.132 v 0 c 3.901,8.661 5.855,18.135 5.855,28.414 v 0 c 0,10.281 -1.906,19.75 -5.712,28.415 v 0 c -3.81,8.661 -9.423,16.036 -16.849,22.132 v 0 c -7.424,6.09 -16.562,10.851 -27.414,14.278 v 0 c -10.852,3.427 -23.229,5.14 -37.124,5.14 v 0 c -8.568,0 -16.233,-0.763 -22.989,-2.284 v 0 c -6.76,-1.526 -12.422,-3.142 -16.991,-4.854 v 0 c -5.525,-2.098 -10.281,-4.476 -14.279,-7.14 v 0 c 0,22.082 4.712,38.311 14.136,48.69 v 0 c 9.423,10.374 22.319,15.564 38.695,15.564 v 0 c 4.185,0 8.897,-0.335 14.136,-1 v 0 c 5.234,-0.669 10.659,-1.856 16.277,-3.57 v 0 c 5.613,-1.713 11.325,-4.047 17.134,-6.996 v 0 c 5.805,-2.954 11.374,-6.711 16.706,-11.28 v 0 l 12.851,17.134 c -10.852,9.326 -23.324,16.179 -37.409,20.562 v 0 c -14.092,4.376 -28.272,6.567 -42.551,6.567 v 0 c -30.842,0 -54.259,-7.474 -70.251,-22.417 m 33.841,-154.494 c -9.045,9.612 -13.565,23.367 -13.565,41.265 v 0 25.701 c 3.615,3.427 7.898,6.47 12.85,9.139 v 0 c 4.378,2.285 9.755,4.426 16.136,6.425 v 0 c 6.376,1.999 13.85,2.999 22.417,2.999 v 0 c 6.47,0 12.467,-1.192 17.991,-3.57 v 0 c 5.519,-2.383 10.325,-5.761 14.421,-10.138 v 0 c 4.092,-4.382 7.327,-9.665 9.71,-15.849 v 0 c 2.378,-6.189 3.569,-12.994 3.569,-20.419 v 0 c 0,-7.424 -1.191,-14.233 -3.569,-20.418 v 0 c -2.383,-6.188 -5.712,-11.471 -9.995,-15.849 v 0 c -4.284,-4.381 -9.424,-7.76 -15.421,-10.138 v 0 c -5.997,-2.383 -12.52,-3.569 -19.562,-3.569 v 0 c -14.278,0 -25.942,4.805 -34.982,14.421 m -228.198,170.486 c -12.565,-4.283 -23.417,-10.807 -32.555,-19.562 v 0 c -9.138,-8.759 -16.233,-19.753 -21.275,-32.983 v 0 c -5.047,-13.234 -7.568,-28.798 -7.568,-46.691 v 0 c 0,-17.897 2.521,-33.461 7.568,-46.691 v 0 c 5.042,-13.235 12.137,-24.229 21.275,-32.983 v 0 c 9.138,-8.759 19.99,-15.279 32.555,-19.562 v 0 c 12.565,-4.284 26.367,-6.425 41.408,-6.425 v 0 c 15.038,0 28.843,2.141 41.408,6.425 v 0 c 12.565,4.283 23.417,10.803 32.555,19.562 v 0 c 9.138,8.754 16.228,19.748 21.274,32.983 v 0 c 5.043,13.23 7.569,28.794 7.569,46.691 v 0 c 0,17.893 -2.526,33.457 -7.569,46.691 v 0 c -5.046,13.23 -12.136,24.224 -21.274,32.983 v 0 c -9.138,8.755 -19.99,15.279 -32.555,19.562 v 0 c -12.565,4.284 -26.37,6.425 -41.408,6.425 v 0 c -15.041,0 -28.843,-2.141 -41.408,-6.425 m 19.705,-180.196 c -7.046,3.141 -13.28,8.139 -18.706,14.993 v 0 c -5.425,6.854 -9.807,15.707 -13.135,26.558 v 0 c -3.334,10.852 -4.998,23.988 -4.998,39.409 v 0 c 0,15.421 1.664,28.557 4.998,39.409 v 0 c 3.328,10.852 7.71,19.704 13.135,26.558 v 0 c 5.426,6.854 11.66,11.851 18.706,14.992 v 0 c 7.041,3.141 14.278,4.712 21.703,4.712 v 0 c 7.424,0 14.658,-1.571 21.704,-4.712 v 0 c 7.041,-3.141 13.278,-8.138 18.705,-14.992 v 0 c 5.425,-6.854 9.802,-15.706 13.135,-26.558 v 0 c 3.329,-10.852 4.998,-23.988 4.998,-39.409 v 0 c 0,-15.421 -1.669,-28.557 -4.998,-39.409 v 0 c -3.333,-10.851 -7.71,-19.704 -13.135,-26.558 v 0 c -5.427,-6.854 -11.664,-11.852 -18.705,-14.993 v 0 c -7.046,-3.141 -14.28,-4.711 -21.704,-4.711 v 0 c -7.425,0 -14.662,1.57 -21.703,4.711 M 992.655,815.865 c -14.756,-5.332 -27.557,-12.663 -38.409,-21.989 v 0 l 12.851,-17.134 c 10.851,9.326 22.132,15.943 33.84,19.847 v 0 c 11.708,3.9 24.701,5.855 38.981,5.855 v 0 c 15.036,0 26.651,-3.191 34.839,-9.567 v 0 c 8.183,-6.381 12.279,-14.614 12.279,-24.702 v 0 c 0,-24.751 -13.805,-37.124 -41.407,-37.124 v 0 h -52.831 v -21.418 h 58.542 c 15.038,0 26.174,-3.097 33.412,-9.281 v 0 c 7.232,-6.189 10.851,-14.993 10.851,-26.416 v 0 c 0,-11.423 -4.524,-20.945 -13.564,-28.557 v 0 c -9.045,-7.616 -23.56,-11.423 -43.55,-11.423 v 0 c -14.278,0 -27.513,2.236 -39.694,6.712 v 0 c -12.186,4.47 -23.703,11.753 -34.554,21.845 v 0 l -14.278,-17.134 c 10.851,-10.092 24.13,-18.089 39.836,-23.988 v 0 c 15.707,-5.898 32.885,-8.852 51.546,-8.852 v 0 c 17.134,0 31.886,1.526 44.264,4.568 v 0 c 12.373,3.044 22.604,7.184 30.699,12.423 v 0 c 8.089,5.234 14.037,11.423 17.848,18.563 v 0 c 3.806,7.139 5.711,14.8 5.711,22.988 v 0 c 0,13.707 -4.047,24.795 -12.136,33.269 v 0 c -8.095,8.469 -19.277,14.515 -33.555,18.134 v 0 c 12.945,4.377 22.368,10.516 28.272,18.418 v 0 c 5.898,7.899 8.852,17.943 8.852,30.129 v 0 c 0,7.425 -1.856,14.372 -5.568,20.847 v 0 c -3.713,6.47 -9.282,12.088 -16.706,16.849 v 0 c -7.425,4.756 -16.662,8.468 -27.701,11.136 v 0 c -11.043,2.664 -23.894,3.998 -38.552,3.998 v 0 c -18.66,0 -35.366,-2.668 -50.118,-7.996 m 653.863,2.284 V 709.633 h 31.413 c 7.233,5.711 15.371,9.754 24.416,12.136 v 0 c 9.04,2.379 17.563,3.571 25.559,3.571 v 0 c 17.892,0 31.172,-4.048 39.837,-12.138 v 0 c 8.661,-8.093 12.993,-19.276 12.993,-33.554 v 0 c 0,-14.279 -4.426,-25.465 -13.278,-33.555 v 0 c -8.854,-8.094 -22.989,-12.137 -42.408,-12.137 v 0 c -13.707,0 -26.558,2.236 -38.552,6.712 v 0 c -11.994,4.47 -23.417,11.753 -34.268,21.845 v 0 l -14.28,-17.134 c 10.853,-10.092 24.083,-18.089 39.695,-23.988 v 0 c 15.609,-5.898 32.363,-8.852 50.261,-8.852 v 0 c 33.506,0 58.065,5.997 73.677,17.99 v 0 c 15.609,11.994 23.417,28.365 23.417,49.119 v 0 c 0,20.748 -7.666,37.124 -22.989,49.118 v 0 c -15.327,11.994 -39.078,17.991 -71.25,17.991 v 0 c -6.474,0 -12.328,-0.477 -17.562,-1.427 v 0 c -5.238,-0.955 -9.758,-1.906 -13.565,-2.856 v 0 c -4.381,-1.335 -8.281,-2.762 -11.708,-4.284 v 0 59.97 h 119.94 v 19.989 z m -760.95,0 -48.547,-34.268 12.851,-18.562 34.268,18.562 h 2.856 V 618.25 h 41.407 v 199.899 z m -111.657,0 -48.547,-34.268 12.851,-18.562 34.268,18.562 h 2.856 V 618.25 h 41.408 v 199.899 z"
               style="fill:url(#linearGradient182);stroke:none"
               id="path184" /></g></g></g></g><text
       transform="matrix(1,0,0,-1,43.32,1023)"
       style="font-variant:normal;font-weight:300;font-stretch:normal;font-size:20px;font-family:'Rubik Light';-inkscape-font-specification:Rubik-Light;writing-mode:lr-tb;fill:#000000;fill-opacity:1;fill-rule:nonzero;stroke:none"
       id="text188"><tspan
         x="0"
         y="0"
         id="tspan186">8</tspan></text><g
       id="g190"><g
         id="g192"><g
           id="g194"
           clip-path="url(#clipPath198)"><text
             transform="matrix(1,0,0,-1,99,1023)"
             style="font-variant:normal;font-weight:300;font-stretch:normal;font-size:20px;font-family:'Rubik Light';-inkscape-font-specification:Rubik-Light;writing-mode:lr-tb;fill:#000000;fill-opacity:1;fill-rule:nonzero;stroke:none"
             id="text202"><tspan
               x="0 13.24 18.4 28.02 39.18 52.459999 63.98 74.699997 86.620003 98.540001"
               y="0"
               id="tspan200">О компании</tspan></text></g></g></g></g></svg>
