<?xml version="1.0" encoding="UTF-8" standalone="no"?>
<?xml-stylesheet type="text/css" href="main.css" ?>
<svg
   xmlns:dc="http://purl.org/dc/elements/1.1/"
   xmlns:cc="http://creativecommons.org/ns#"
   xmlns:rdf="http://www.w3.org/1999/02/22-rdf-syntax-ns#"
   xmlns:svg="http://www.w3.org/2000/svg"
   xmlns="http://www.w3.org/2000/svg"
   version="1.1"
   id="svg2"
   xml:space="preserve"
   width="2560"
   height="1440"
   viewBox="0 0 2560 1440"><metadata
     id="metadata8"><rdf:RDF><cc:Work
         rdf:about=""><dc:format>image/svg+xml</dc:format><dc:type
           rdf:resource="http://purl.org/dc/dcmitype/StillImage" /></cc:Work></rdf:RDF></metadata><defs
     id="defs6"><clipPath
       clipPathUnits="userSpaceOnUse"
       id="clipPath20"><path
         d="M 0,1080 H 1920 V 0 H 0 Z"
         id="path18" /></clipPath></defs><g
     id="g10"
     transform="matrix(1.3333333,0,0,-1.3333333,0,1440)"><g
       id="g12"><g
         id="g14"><g
           id="g16"
           clip-path="url(#clipPath20)"><path
             d="M 0,0 H 1920 V 1080 H 0 Z"
             style="fill:#ffffff;fill-opacity:1;fill-rule:nonzero;stroke:none"
             id="path22" /></g></g></g><text
       transform="matrix(1,0,0,-1,99,915.22)"
       style="font-variant:normal;font-weight:300;font-stretch:normal;font-size:20px;font-family:'Rubik Light';-inkscape-font-specification:Rubik-Light;writing-mode:lr-tb;fill:#000000;fill-opacity:1;fill-rule:nonzero;stroke:none"
       id="text26"><tspan
         x="0 10.84 22.76 33.34 43.279999 54.900002 65.82 77.739998 89.660004 100.58 108.94 120.1 125.26 135.98 146.56 158.08 170 179.94 190.66 195.82001 209.82001 219.92 232.2 236.94 242.10001 252.82001 257.98001 267.92001 278.64001 288.76001 303.73999 314.66 319.82001 331.73999 342.89999 353.73999 364.45999 374.84 380 391.62 402.54001 414.06 424.78 434.89999 446.92001 458.84 469.22 474.38 488.38 499.54001 510.76001"
         y="0"
         id="tspan24">внутреннего аудита ПГК, а также новая редакция Поло</tspan></text><text
       transform="matrix(1,0,0,-1,620.92,915.22)"
       style="font-variant:normal;font-weight:300;font-stretch:normal;font-size:20px;font-family:'Rubik Light';-inkscape-font-specification:Rubik-Light;writing-mode:lr-tb;fill:#000000;fill-opacity:1;fill-rule:nonzero;stroke:none"
       id="text30"><tspan
         x="0"
         y="0"
         id="tspan28">-</tspan></text><text
       transform="matrix(1,0,0,-1,99,889.22)"
       style="font-variant:normal;font-weight:300;font-stretch:normal;font-size:20px;font-family:'Rubik Light';-inkscape-font-specification:Rubik-Light;writing-mode:lr-tb;fill:#000000;fill-opacity:1;fill-rule:nonzero;stroke:none"
       id="text34"><tspan
         x="0 14.98 25.9 37.82 49.740002 60.119999 65.279999 76.440002 81.599998 93.879997 105.04 118.32 130.24001 140.17999 151.10001 161.03999 171.96001 177.12 188.64 199.8 204.96001 215.67999 226.25999 237.78 249.7 259.64001 270.22"
         y="0"
         id="tspan32">жения о Комитете по аудиту.</tspan></text><text
       transform="matrix(1,0,0,-1,99,816.22)"
       style="font-variant:normal;font-weight:500;font-stretch:normal;font-size:28px;font-family:'Rubik Medium';-inkscape-font-specification:Rubik-Medium;writing-mode:lr-tb;fill:#000000;fill-opacity:1;fill-rule:nonzero;stroke:none"
       id="text40"><tspan
         x="0 17.332001 34.439999 51.632 67.620003 83.944 100.828 116.984 134.42799 151.87199 168.028 174.44 197.14799 216.3 241.276 260.73599"
         y="0"
         id="tspan36">Управление МСФО </tspan><tspan
         x="0 17.444 23.856001 40.18 57.624001 73.584 88.424004 105.616 121.772 139.216 156.66 172.81599 185.276 201.85201 208.26401 224.252 240.828 258.272 273.112 290.30399 306.88 323.76401"
         y="33.992001"
         id="tspan38">и внутреннего контроля</tspan></text><text
       transform="matrix(1,0,0,-1,99,746.22)"
       style="font-variant:normal;font-weight:300;font-stretch:normal;font-size:20px;font-family:'Rubik Light';-inkscape-font-specification:Rubik-Light;writing-mode:lr-tb;fill:#000000;fill-opacity:1;fill-rule:nonzero;stroke:none"
       id="text44"><tspan
         x="0 13.9 24.959999 36.380001 47.900002 58.52 68.260002 79.68 90.5 101.62 112.44 124.26 136.08 146.89999 160.08 164.72 169.78 180.84 191.46001 201.94 217.74001 228.56 239.17999 249.02 259.76001 270.88 281.16 296.32001 312.12 323.94 337.12 342.17999 352.92001 364.73999 375.22 385.06 396.57999 407.39999 419.22 431.04001 442.85999 454.67999 459.73999 469.76001 480.82001"
         y="0"
         id="tspan42">Подразделением, осуществляющим внутренний кон</tspan></text><text
       transform="matrix(1,0,0,-1,591.64,746.22)"
       style="font-variant:normal;font-weight:300;font-stretch:normal;font-size:20px;font-family:'Rubik Light';-inkscape-font-specification:Rubik-Light;writing-mode:lr-tb;fill:#000000;fill-opacity:1;fill-rule:nonzero;stroke:none"
       id="text48"><tspan
         x="0"
         y="0"
         id="tspan46">-</tspan></text><text
       transform="matrix(1,0,0,-1,99,720.22)"
       style="font-variant:normal;font-weight:300;font-stretch:normal;font-size:20px;font-family:'Rubik Light';-inkscape-font-specification:Rubik-Light;writing-mode:lr-tb;fill:#000000;fill-opacity:1;fill-rule:nonzero;stroke:none"
       id="text58"><tspan
         x="0 9.8400002 21.360001 32.419998 43.540001 52.959999 58.02 67.760002 78.379997 83.440002 96.919998 108.74 120.56 131.17999 143 153.62 164.67999 175.42 186.48 196.12 206.38 217.44 227.17999 237.46001 249.28 259.89999 269.73999 280.48001 291.29999 303.12 314.94 326 337.82001 342.88 354.29999 365.12 375.39999 385.23999 396.06 407.17999 416.60001 428.42001 439.48001 450.10001 459.94 469.35999 484.51999 489.57999 503.48001 513.47998 525.65997 530.40198"
         y="0"
         id="tspan50">троль за финансово-хозяйственной деятельностью ПГК, </tspan><tspan
         x="0 10.28 21.02 32.139999 42.419998 53.240002 63.080002 73.699997 83.980003 89.040001 100.2 111.62 123.14 133.75999 144.5 155.62 166.44 178.25999 190.08 200.89999 205.96001 221.46001 234.38 250.78 263.92001 268.98001 280.79999 285.85999 296.60001 308.42001 318.89999 328.73999 340.26001 351.07999 362.89999 374.72 385.54001 393.79999 404.85999 409.92001 419.94 431 442.82001 452.66 464.17999 475.23999 486.35999 496.64001"
         y="26"
         id="tspan52">является Управление МСФО и внутреннего контроля.</tspan><tspan
         x="0 13.02 24.940001 35.66 45.599998 56.52 69.800003 80.519997 85.68 96.519997 108.44 119.02 128.96001 140.58 151.5 163.42 175.34 186.25999 194.62 205.78 210.94 221.06 232.22 244.14 254.08 265.70001 276.85999 288.07999 298.45999 303.62 315.54001 320.70001 331.28 342.79999 354.42001 365.14001 375.98001 387.20001 398.12 410.04001 421.95999 432.34 437.5 449.12 461.04001 471.76001 481.88 492.60001 505.88 517.79999"
         y="65"
         id="tspan54">Система внутреннего контроля и управления рисками </tspan><tspan
         x="0 10.84 16 30 40.099998 52.380001 57.540001 69.059998 80.68 92.599998 102.44 113.28 124 135.92 146.64 151.8 162.96001 174.3 185.22 195.94 207.46001 218.38 228.92 240.84 250.78 260.29999 265.45999 277.07999 288 298.72 309.94 321.85999 331.70001 342.42001 354.44 366.35999 381.62 386.78 398.79999 409.72 420.94 431.85999 443.78 448.94 461.22 472.38 485.66 497.17999"
         y="91"
         id="tspan56">в ПГК призвана обеспечить реализацию целей Компа</tspan></text><text
       transform="matrix(1,0,0,-1,606.9,629.22)"
       style="font-variant:normal;font-weight:300;font-stretch:normal;font-size:20px;font-family:'Rubik Light';-inkscape-font-specification:Rubik-Light;writing-mode:lr-tb;fill:#000000;fill-opacity:1;fill-rule:nonzero;stroke:none"
       id="text62"><tspan
         x="0"
         y="0"
         id="tspan60">-</tspan></text><text
       transform="matrix(1,0,0,-1,99,603.22)"
       style="font-variant:normal;font-weight:300;font-stretch:normal;font-size:20px;font-family:'Rubik Light';-inkscape-font-specification:Rubik-Light;writing-mode:lr-tb;fill:#000000;fill-opacity:1;fill-rule:nonzero;stroke:none"
       id="text68"><tspan
         x="0 11.92 23.84 35.759998 40.919998 52.84 58 69.519997 80.68 92.199997 103.72 114.64 126.26 141.24001 151.96001 163.88 175.8 186.72 191.88 203.5 215.42 226.14 236.25999 247.42 258.26001 263.42001 275.34 286.06 291.22 302.73999 314.35999 326.28 337.20001 350.48001 361.70001 372.62 385.89999 397.06 410.34 415.5 427.01999 438.23999 448.62 453.78 464.5 474.44 485.60001 493.95999 505.12"
         y="0"
         id="tspan64">нии и поддержание рисков на приемлемом для этого </tspan><tspan
         x="0 10.58 22.200001 33.360001 44.200001 56.119999 67.040001 71.800003 76.959999 90.199997 102.12 112.84 118 128.72 139.94 150.52 165.5 177.42 187.36 192.52 206.10001 216.67999 228.60001 240.12 250.84 264.12 275.04001 286.95999 296.89999 308.06 321.34 326.5 338.01999 349.23999 359.62 364.78 375.94 387.28 398.20001 408.92001 420.44 431.35999 441.89999 452.82001 464.73999 476.66 487.04001 492.20001 504.12"
         y="26"
         id="tspan66">уровне. Она служит фундаментом для обеспечения не</tspan></text><text
       transform="matrix(1,0,0,-1,614.04,577.22)"
       style="font-variant:normal;font-weight:300;font-stretch:normal;font-size:20px;font-family:'Rubik Light';-inkscape-font-specification:Rubik-Light;writing-mode:lr-tb;fill:#000000;fill-opacity:1;fill-rule:nonzero;stroke:none"
       id="text72"><tspan
         x="0"
         y="0"
         id="tspan70">-</tspan></text><text
       transform="matrix(1,0,0,-1,99,551.22)"
       style="font-variant:normal;font-weight:300;font-stretch:normal;font-size:20px;font-family:'Rubik Light';-inkscape-font-specification:Rubik-Light;writing-mode:lr-tb;fill:#000000;fill-opacity:1;fill-rule:nonzero;stroke:none"
       id="text76"><tspan
         x="0 11.52 23.139999 34.060001 45.68 58.860001 69.699997 81.620003 92.779999 104.7 109.86 121.02 132.53999 143.46001 155.08 165.8 177.82001 189.74001 200.89999 212.82001 224.74001 235.89999 247.82001 252.98 264.5 275.42001 285.79999 295.73999 306.66 317.88 327.39999 339.32001 350.48001 361.20001 371.14001 383.06 388.22 402.22 412.32001 424.60001 429.34 434.5 446.01999 457.17999 467.89999 477.84 489 499.84 510.76001"
         y="0"
         id="tspan74">прерывной операционной деятельности ПГК, достовер</tspan></text><text
       transform="matrix(1,0,0,-1,621.38,551.22)"
       style="font-variant:normal;font-weight:300;font-stretch:normal;font-size:20px;font-family:'Rubik Light';-inkscape-font-specification:Rubik-Light;writing-mode:lr-tb;fill:#000000;fill-opacity:1;fill-rule:nonzero;stroke:none"
       id="text80"><tspan
         x="0"
         y="0"
         id="tspan78">-</tspan></text><text
       transform="matrix(1,0,0,-1,99,525.22)"
       style="font-variant:normal;font-weight:300;font-stretch:normal;font-size:20px;font-family:'Rubik Light';-inkscape-font-specification:Rubik-Light;writing-mode:lr-tb;fill:#000000;fill-opacity:1;fill-rule:nonzero;stroke:none"
       id="text84"><tspan
         x="0 11.92 23.08 33.799999 43.740002 55.66 60.82 71.739998 82.660004 87.82 101.4 113.32 125.24 135.96001 147.88 158.60001 169.75999 180.60001 191.75999 203.67999 208.84 220 229.94 240.48 251.39999 261.34 273.26001 284.42001 295.14001 305.07999 317 322.16 334.07999 339.23999 351.16 361.88 373.89999 384.82001 396.04001 406.95999 418.88 429.60001 434.76001 446.67999 457.39999 462.56 474.17999 484.89999 496.23999"
         y="0"
         id="tspan82">ности ее финансовой отчетности и нацелена на рабо</tspan></text><text
       transform="matrix(1,0,0,-1,606.4,525.22)"
       style="font-variant:normal;font-weight:300;font-stretch:normal;font-size:20px;font-family:'Rubik Light';-inkscape-font-specification:Rubik-Light;writing-mode:lr-tb;fill:#000000;fill-opacity:1;fill-rule:nonzero;stroke:none"
       id="text88"><tspan
         x="0"
         y="0"
         id="tspan86">-</tspan></text><text
       transform="matrix(1,0,0,-1,99,499.22)"
       style="font-variant:normal;font-weight:300;font-stretch:normal;font-size:20px;font-family:'Rubik Light';-inkscape-font-specification:Rubik-Light;writing-mode:lr-tb;fill:#000000;fill-opacity:1;fill-rule:nonzero;stroke:none"
       id="text100"><tspan
         x="0 9.9399996 20.52 25.68 37.200001 48.360001 53.52 65.040001 76.660004 88.580002 100.5 112.52 124.44 135.96001 146.53999 151.7 163.75999 175.10001 186.02 195.86 201.02 212.94 223.86 235.02 250 261.92001 273.44 284.16 296.07999 308 319.16 329.88 339.82001 350.73999 362.66 374.72 379.48001 384.64001 395.89999 406.44 418.35999 428.29999 441.48001 452.32001 463.04001 473.42001 478.57999 489.29999 499.23999 510.39999 515.14001"
         y="0"
         id="tspan90">ту по принципу «без неожиданностей». Учитывая это, </tspan><tspan
         x="0 11.26 22.780001 34.400002 45.119999 55.959999 67.18 78.099998 90.019997 101.94 112.86 118.02 128.86 142.03999 153.56 164.72 175.94 187.86 198.24001 209.16 219.10001 224.25999 234.98 246.2 257.12 268.64001 279.22 294.48001 310.38 322.29999 333.22 338.38 349.54001 359.48001 371 381.92001 393.14001 402.66 414.57999 427.76001 438.67999 443.84 457.42001 468 479.92001 490.04001 502.06 513.97998 525.90002"
         y="26"
         id="tspan92">Управление выполняет следующие отдельные функции </tspan><tspan
         x="0 11.92 17.08 26.92 37.639999 49.16 59.880001 70.419998 82.339996"
         y="52"
         id="tspan94">и задачи:</tspan><tspan
         x="594 601.59998 612 622.71997 633.88 645.40002 656.32001 668.23999 678.96002 688.90002 699.73999 711.65997 722.58002 727.73999 738.90002 750.52002 758.88 769.59998 781.52002 792.23999 805.52002 810.67999 821.26001 832.78003 844.40002 855.12 865.96002 877.17999 888.09998 900.02002 911.94 922.32001 927.47998 939.40002 944.56 956.17999 966.76001 976.88 988.03998 998.88 1010.04 1021.56 1032.28 1042.22 1053.0601 1063.64 1068.8 1082.8 1092.9 1105.1801"
         y="-462.07999"
         id="tspan96">• содействие органам управления и руководству ПГК </tspan><tspan
         x="612 622.84003 628 639.52002 650.67999 661.40002 671.34003 682.96002 694.12 705.03998 716.96002 728.88 740.79999 745.96002 757.88 763.03998 773.76001 784.91998 795.76001 806.67999 818.29999 833.67999 844.59998 856.52002 867.23999 877.17999 888.02002 899.17999 910.02002 920.73999 932.65997 944.58002 956.5 961.65997 972.38 984.29999 995.02002 1004.96 1015.88 1029.16 1042.34 1047.5 1058.34 1070.26"
         y="-436.07999"
         id="tspan98">в построении и совершенствовании системы вну</tspan></text><text
       transform="matrix(1,0,0,-1,1179.84,935.3)"
       style="font-variant:normal;font-weight:300;font-stretch:normal;font-size:20px;font-family:'Rubik Light';-inkscape-font-specification:Rubik-Light;writing-mode:lr-tb;fill:#000000;fill-opacity:1;fill-rule:nonzero;stroke:none"
       id="text104"><tspan
         x="0"
         y="0"
         id="tspan102">-</tspan></text><text
       transform="matrix(1,0,0,-1,711,909.3)"
       style="font-variant:normal;font-weight:300;font-stretch:normal;font-size:20px;font-family:'Rubik Light';-inkscape-font-specification:Rubik-Light;writing-mode:lr-tb;fill:#000000;fill-opacity:1;fill-rule:nonzero;stroke:none"
       id="text116"><tspan
         x="0 9.9399996 21.559999 32.48 44.400002 56.32 67.239998 75.599998 86.760002 91.919998 102.04 113.2 125.12 135.06 146.67999 157.84 169.06 179.44 184.60001 195.44 200.60001 213.84 225.17999 241.08 252 262.72 272.66 283.5 294.42001"
         y="0"
         id="tspan106">треннего контроля в Обществе;</tspan><tspan
         x="-18 -10.4 0 11.16 22.780001 31.139999 41.860001 53.779999 65.699997 75.540001 86.260002 98.279999 110.2 120.58 125.74 136.58 148.5 159.42 170.94 182.56 193.48 205.39999 217.32001 227.7 232.86 243.58 255.5 266.22 276.16 287.07999 300.35999 313.54001 318.70001 329.28 340.79999 352.42001 363.14001 373.98001 385.20001 396.12 408.04001 419.95999 430.34 435.5 447.12 459.04001 469.76001 479.88 490.60001 503.88 515.79999"
         y="26"
         id="tspan108">• организация внедрения системы управления рисками </tspan><tspan
         x="0 11.92 17.08 27.200001 38.360001 49.52 61.139999 72.660004 84.580002 96.5 107.22 119.24 131.16 143.08 148.24001 159.75999 170.67999 182.60001 193.32001 203.25999 214.10001 226.02 237.94 243.10001 253.82001 263.76001 275.38 285.95999 296.07999 306.01999 316.60001 328.22 340.14001 353.32001 363.67999 368.84 380.35999 391.51999 403.04001 414.66 425.38 435.22 446.73999 457.66 468.88 479.79999 491.72 503.64001 515.56"
         y="52"
         id="tspan110">и координации действий структурных подразделений </tspan><tspan
         x="0 10.84 16 26.719999 40.299999 51.220001 62.84 73.760002 78.919998 89.5 101.02 112.64 123.36 134.2 145.42 156.34 168.25999 180.17999 190.56 195.72 207.34 219.25999 229.98 240.10001 250.82001 264.10001 276.01999"
         y="78"
         id="tspan112">в сфере управления рисками;</tspan><tspan
         x="-18 -10.4 0 13.58 24.74 36.360001 49.639999 61.560001 73.18 84.339996 95.18 105.9 117.82 129.74001 140.66 145.82001 157.44 168.36 176.72 187.3 198.52 208.89999 220.52 232.44 243.60001 255.52 260.67999 271.84 281.78 292.32001 303.23999 313.17999 325.10001 336.26001 346.98001 356.92001 368.84 374 385.51999 396.67999 401.84 415.12 426.28 438.20001 450.12 460.06"
         y="104"
         id="tspan114">• формирование регулярной отчетности по монито</tspan></text><text
       transform="matrix(1,0,0,-1,1182.22,805.3)"
       style="font-variant:normal;font-weight:300;font-stretch:normal;font-size:20px;font-family:'Rubik Light';-inkscape-font-specification:Rubik-Light;writing-mode:lr-tb;fill:#000000;fill-opacity:1;fill-rule:nonzero;stroke:none"
       id="text120"><tspan
         x="0"
         y="0"
         id="tspan118">-</tspan></text><text
       transform="matrix(1,0,0,-1,711,779.3)"
       style="font-variant:normal;font-weight:300;font-stretch:normal;font-size:20px;font-family:'Rubik Light';-inkscape-font-specification:Rubik-Light;writing-mode:lr-tb;fill:#000000;fill-opacity:1;fill-rule:nonzero;stroke:none"
       id="text132"><tspan
         x="0 11.62 23.540001 35.459999 43.82 54.400002 59.560001 70.279999 80.220001 90.940002 100.88 111.46 122.18 132.89999 138.06 149.67999 161.60001 172.32001 182.44 193.60001 204.44 209.60001 221.52 226.67999 239.96001 250.88 262.5 273.66 285.17999 296.79999 308.72 319.10001 329.04001 340.95999 352.88 358.04001 369.56 380.72 385.88 396.45999 407.98001 419.60001 430.32001 441.16 452.38 463.29999 475.22 487.14001 502.39999"
         y="0"
         id="tspan122">рингу статуса рисков и мероприятий по управлению </tspan><tspan
         x="0 11.92 25.200001 37.119999 42.279999 53.119999 58.279999 71.519997 82.860001 98.760002 109.68 120.4 130.34 141.17999 152.10001"
         y="26"
         id="tspan124">ими в Обществе.</tspan><tspan
         x="-18 -5.7199998 5.4400001 18.719999 30.24 40.959999 52.880001 64.800003 75.18 80.339996 91.959999 102.88 113.6 124.82 136.74001 146.58 157.16 168.08 178.02 183.17999 195.10001 207.02 218.94 230.96001 242.88 253.60001 263.54001 275.45999 286.29999 296.88 301.62 306.78 318.29999 329.92001 340.84 352.35999 362.94 373.66 386.94 397.66 407.60001 419.22 431.14001 441.98001 452.70001 467.95999 483.85999 494.44 509.70001"
         y="65"
         id="tspan126">Компания реализует инициативу, предусматривающую </tspan><tspan
         x="-18 -7.2800002 4.6399999 15.36 25.299999 36.220001 49.5 60.220001 70.160004 82.080002 92.620003 103.54 114.26 124.38 135.53999 146.46001 151.62 163.24001 173.96001 184.67999 195.39999 208.67999 219.84 229.78 241.39999 252.32001 264.23999 276.16 287.07999 291.82001 296.98001 308.5 319.66 329.78 340.35999 353.64001 364.56 376.48001 386.42001 398.34 409.95999 421.12 431.95999 442.67999 454.60001 466.51999 477.44"
         y="91"
         id="tspan128">систематическое рассмотрение, документирование </tspan><tspan
         x="-18 -6.0799999 -0.92000002 9.6599998 20.879999 31.459999 42 57.380001 68.300003 80.220001 92.139999 103.06 108.22 118.94 130.86 141.58 151.52 162.44 175.72 188.89999 194.06 204.89999 216.82001 227.39999 237.34 248.96001 259.88 271.79999 283.72 294.64001 303 314.16 319.32001 329.44 340.60001 352.51999 362.45999 374.07999 385.23999 396.45999 406.84 411.60001 416.76001 429.82001 434.98001 445.10001 455.82001 466.35999"
         y="117"
         id="tspan130">и улучшение системы внутреннего контроля. В каче</tspan></text><text
       transform="matrix(1,0,0,-1,1188.28,662.3)"
       style="font-variant:normal;font-weight:300;font-stretch:normal;font-size:20px;font-family:'Rubik Light';-inkscape-font-specification:Rubik-Light;writing-mode:lr-tb;fill:#000000;fill-opacity:1;fill-rule:nonzero;stroke:none"
       id="text136"><tspan
         x="0"
         y="0"
         id="tspan134">-</tspan></text><text
       transform="matrix(1,0,0,-1,693,636.3)"
       style="font-variant:normal;font-weight:300;font-stretch:normal;font-size:20px;font-family:'Rubik Light';-inkscape-font-specification:Rubik-Light;writing-mode:lr-tb;fill:#000000;fill-opacity:1;fill-rule:nonzero;stroke:none"
       id="text144"><tspan
         x="0 10.72 20.66 31.5 42.419998 47.580002 58.740002 70.360001 82.279999 93.199997 105.12 115.06 126.98 138.60001 149.32001 154.48 166 177.22 187.60001 192.75999 203.48 215.10001 225.82001 236.66 248.58 259.5 271.42001 283.34 293.72 298.88 311.16 322.32001 335.60001 347.12 357.84 369.76001 381.67999 392.06 397.22 409.14001 419.85999 431.38 442.54001 453.76001 463.28 473.12 483.70001 494.62 504.56"
         y="0"
         id="tspan138">стве ориентира для сравнения Компания использует </tspan><tspan
         x="0 10.72 22.639999 33.360001 43.299999 54.220001 67.5 78.080002 83.239998 96.260002 109.5 121.6 134.84"
         y="26"
         id="tspan140">систему COSO.</tspan><tspan
         x="0 13.06 18.219999 29.42 41.740002 52.939999 65.260002 70.419998 78.779999 89.940002 101.46 112.04 117.2 128.03999 133.2 147.2 157.3 169.58 174.74001 186.25999 197.88 209.03999 220.56 231.72 242.94 257.92001 269.84 281.06 291.78 302.5 312.01999 317.17999 328.79999 339.51999 350.85999 362.01999 371.95999 382.67999 387.84 399.35999 410.51999 415.67999 429.26001 440.42001 452.04001 465.32001 477.23999 488.85999"
         y="65"
         id="tspan142">В 2020 году в ПГК продолжилась работа по формиро</tspan></text><text
       transform="matrix(1,0,0,-1,1193.02,571.3)"
       style="font-variant:normal;font-weight:300;font-stretch:normal;font-size:20px;font-family:'Rubik Light';-inkscape-font-specification:Rubik-Light;writing-mode:lr-tb;fill:#000000;fill-opacity:1;fill-rule:nonzero;stroke:none"
       id="text148"><tspan
         x="0"
         y="0"
         id="tspan146">-</tspan></text><text
       transform="matrix(1,0,0,-1,693,545.3)"
       style="font-variant:normal;font-weight:300;font-stretch:normal;font-size:20px;font-family:'Rubik Light';-inkscape-font-specification:Rubik-Light;writing-mode:lr-tb;fill:#000000;fill-opacity:1;fill-rule:nonzero;stroke:none"
       id="text156"><tspan
         x="0 10.84 21.559999 33.48 45.400002 60.66 65.82 76.540001 90.120003 103.7 114.62 124.74 134.67999 146.60001 157.44 169.36 180.52 192.44 197.60001 208.32001 220.24001 230.96001 240.89999 251.82001 265.10001 278.28 283.44 294.28 306.20001 316.78 326.72 338.34 349.26001 361.17999 373.10001 384.01999 392.38 403.54001 408.70001 418.82001 429.98001 441.89999 451.84 463.45999 474.62 485.84 496.22"
         y="0"
         id="tspan150">ванию эффективной системы внутреннего контроля </tspan><tspan
         x="0 11.92 17.08 27.66 39.18 50.799999 61.52 72.360001 83.580002 94.5 106.42 118.34 128.72 133.88 145.5 157.42 168.14 178.25999 188.98 202.25999 214.17999"
         y="26"
         id="tspan152">и управления рисками:</tspan><tspan
         x="0 7.5999999 18 29.52 40.439999 50.380001 61.099998 72.32 84.239998 94.080002 106 117.62 128.78 139.62 150.34 162.25999 167.42 178.94 190.56 201.72 213.74001 224.66 235.38 246.10001 251.25999 262.78 273.94 279.10001 289.94 303.12 313.5 324.34 335.56 346.48001 358.39999 370.32001 385.57999 390.73999 402.66 407.82001 418.98001 431 441.92001 453.84 463.95999 474.88 480.04001 491.66"
         y="65"
         id="tspan154">• детализирован процесс по выявлению и оценке ри</tspan></text><text
       transform="matrix(1,0,0,-1,1196.58,480.3)"
       style="font-variant:normal;font-weight:300;font-stretch:normal;font-size:20px;font-family:'Rubik Light';-inkscape-font-specification:Rubik-Light;writing-mode:lr-tb;fill:#000000;fill-opacity:1;fill-rule:nonzero;stroke:none"
       id="text160"><tspan
         x="0"
         y="0"
         id="tspan158">-</tspan></text><text
       transform="matrix(1,0,0,-1,711,454.3)"
       style="font-variant:normal;font-weight:300;font-stretch:normal;font-size:20px;font-family:'Rubik Light';-inkscape-font-specification:Rubik-Light;writing-mode:lr-tb;fill:#000000;fill-opacity:1;fill-rule:nonzero;stroke:none"
       id="text168"><tspan
         x="0 10.72 20.84 32 42.84 47.580002 52.740002 63.459999 74.300003 84.68 94.519997 105.24 117.16 129.08 142.25999 152.62 157.78 168.5 173.66 185 196.92 206.75999 218.67999 229.60001 240.32001 250.06 261.57999 273.20001 284.35999 296.38 307.29999 318.01999 328.73999 339.45999 352.73999 364.66 369.82001 382.10001 393.26001 406.54001 418.06 428.78 440.70001 452.62 464.54001"
         y="0"
         id="tspan162">сков, связанных с бизнес-процессами Компании;</tspan><tspan
         x="576 583.59998 594 603.84003 614.56 626.08002 637.23999 647.35999 657.94 671.21997 682.14001 694.06 704 715.91998 727.53998 738.70001 749.53998 760.26001 772.17999 785.35999 790.52002 801.85999 813.78003 823.62 835.53998 846.46002 857.17999 866.91998 878.44 890.06 901.21997 913.23999 924.15997 934.88 945.59998 958.78003 963.94 976.21997 987.38 1000.66 1012.18 1022.9 1034.8199 1046.74 1058.66"
         y="-507"
         id="tspan164">• задокументированы бизнес-процессы Компании </tspan><tspan
         x="594 604.71997 609.88 621.90002 632.82001 644.03998 653.56 668.82001 673.97998 685.14001 696.47998 707.40002 718.12 729.64001 740.56 751.09998 762.02002 773.94 785.85999 796.23999 801.40002 813.32001 823.67999 828.84003 840.35999 851.97998 863.14001 872.97998 884.59998 895.32001 905.85999 917.78003 928.94 939.65997 949.59998 961.52002 966.26001 971.41998 982.14001 992.08002 1002.8 1014.72 1026.24 1036.96 1048.58 1058.52 1070.4399 1080.28"
         y="-481"
         id="tspan166">с целью обеспечения их прозрачности, стандартиза</tspan></text><text
       transform="matrix(1,0,0,-1,1802,935.3)"
       style="font-variant:normal;font-weight:300;font-stretch:normal;font-size:20px;font-family:'Rubik Light';-inkscape-font-specification:Rubik-Light;writing-mode:lr-tb;fill:#000000;fill-opacity:1;fill-rule:nonzero;stroke:none"
       id="text172"><tspan
         x="0"
         y="0"
         id="tspan170">-</tspan></text><text
       transform="matrix(1,0,0,-1,1305,909.3)"
       style="font-variant:normal;font-weight:300;font-stretch:normal;font-size:20px;font-family:'Rubik Light';-inkscape-font-specification:Rubik-Light;writing-mode:lr-tb;fill:#000000;fill-opacity:1;fill-rule:nonzero;stroke:none"
       id="text180"><tspan
         x="0 12.02 23.940001 35.860001 41.02 52.939999 58.099998 69.620003 80.779999 90.720001 101.64 113.56 125.58 137.5 148.22 159.44 168.96001 180.88 192.03999 200.39999 211.56 216.72 228.34 239.25999 251.17999 263.10001 278.07999 290 301.92001 313.84 325.45999 337.38 349.29999 357.66 368.38"
         y="0"
         id="tspan174">ции и потенциального реинжиниринга;</tspan><tspan
         x="-18 -10.4 0 11.62 22.34 32.18 43.799999 54.52 65.860001 77.019997 86.959999 97.68 109.6 122.78 127.94 139.86 150.78 161.94 173.28 183.64 194.8 206.32001 218.24001 231.52 244.7 255.62 260.78 272.29999 283.92001 295.07999 303.44 315.06 325.78 339.06 352.34 365.51999 370.67999 382.20001 393.35999 398.51999 409.23999 421.16 433.07999 448.06 458.98001 470.89999 482.82001 498.07999"
         y="26"
         id="tspan176">• разработаны необходимые программы по снижению </tspan><tspan
         x="0 11.62 23.540001 34.259998 44.380001 55.540001 66.379997 71.540001 83.059998 94.220001 99.379997 110.9 122.52 134.44 145.36 158.64 169.86 180.78 194.06 207.24001 217.60001 222.75999 233.34 244.96001 256.12 266.95999 278.88 289.79999 301.72 306.45999 311.62 322.78 334.12 345.04001 355.76001 367.28 378.20001 388.73999 399.66 411.57999 422.73999 427.89999 439.82001 450.17999 455.34 466.17999"
         y="52"
         id="tspan178">рисков до приемлемых уровней, обеспечено их вы</tspan></text><text
       transform="matrix(1,0,0,-1,1784.36,857.3)"
       style="font-variant:normal;font-weight:300;font-stretch:normal;font-size:20px;font-family:'Rubik Light';-inkscape-font-specification:Rubik-Light;writing-mode:lr-tb;fill:#000000;fill-opacity:1;fill-rule:nonzero;stroke:none"
       id="text184"><tspan
         x="0"
         y="0"
         id="tspan182">-</tspan></text><text
       transform="matrix(1,0,0,-1,1305,831.3)"
       style="font-variant:normal;font-weight:300;font-stretch:normal;font-size:20px;font-family:'Rubik Light';-inkscape-font-specification:Rubik-Light;writing-mode:lr-tb;fill:#000000;fill-opacity:1;fill-rule:nonzero;stroke:none"
       id="text188"><tspan
         x="0 11.52 22.68 33.900002 45.82 56.740002 68.660004 80.580002 91.5"
         y="0"
         id="tspan186">полнение.</tspan></text><text
       transform="matrix(1,0,0,-1,1287,758.3)"
       style="font-variant:normal;font-weight:500;font-stretch:normal;font-size:28px;font-family:'Rubik Medium';-inkscape-font-specification:Rubik-Medium;writing-mode:lr-tb;fill:#000000;fill-opacity:1;fill-rule:nonzero;stroke:none"
       id="text192"><tspan
         x="0 20.860001 38.304001 54.627998 72.071999 89.655998 105.812 123.256 140.84"
         y="0"
         id="tspan190">Дивиденды</tspan></text><text
       transform="matrix(1,0,0,-1,1287,722.3)"
       style="font-variant:normal;font-weight:300;font-stretch:normal;font-size:20px;font-family:'Rubik Light';-inkscape-font-specification:Rubik-Light;writing-mode:lr-tb;fill:#000000;fill-opacity:1;fill-rule:nonzero;stroke:none"
       id="text196"><tspan
         x="0 12.56 23.48 38.860001 49.779999 61.700001 73.620003 84 89.160004 100.32 105.48 116.32 129.5 141.02 152.24001 162.96001 172.89999 183.82001 188.98 200.5 212.42 223.25999 235.17999 246.7 257.62 269.54001 281.06 292.22 303.06 308.22 319.38 330.10001 342.01999 353.17999 364.01999 377.20001 388.04001 398.76001 414.01999 423.95999 434.67999 445.06 450.22 462.14001 472.85999 478.01999 489.17999"
         y="0"
         id="tspan194">Решения о выплате дивидендов основываются на оп</tspan></text><text
       transform="matrix(1,0,0,-1,1787.7,722.3)"
       style="font-variant:normal;font-weight:300;font-stretch:normal;font-size:20px;font-family:'Rubik Light';-inkscape-font-specification:Rubik-Light;writing-mode:lr-tb;fill:#000000;fill-opacity:1;fill-rule:nonzero;stroke:none"
       id="text200"><tspan
         x="0"
         y="0"
         id="tspan198">-</tspan></text><text
       transform="matrix(1,0,0,-1,1287,696.3)"
       style="font-variant:normal;font-weight:300;font-stretch:normal;font-size:20px;font-family:'Rubik Light';-inkscape-font-specification:Rubik-Light;writing-mode:lr-tb;fill:#000000;fill-opacity:1;fill-rule:nonzero;stroke:none"
       id="text204"><tspan
         x="0 9.9399996 21.860001 35.139999 45.860001 57.080002 66.599998 78.519997 89.68 102.96 108.12 118.84 130 140.53999 151.46001 161.39999 172.12 184.03999 195.96001 207.88 213.03999 224.56 236.17999 248.10001 260.01999 272.04001 283.95999 295.48001 306.64001 317.48001 322.64001 333.35999 344.51999 355.85999 367.07999 382.34 393.85999 404.78 416.70001 428.62 439 444.16 456.07999 468 477.94 488.85999 500.48001"
         y="0"
         id="tspan202">тимальном сочетании принципов соблюдения интере</tspan></text><text
       transform="matrix(1,0,0,-1,1798.4,696.3)"
       style="font-variant:normal;font-weight:300;font-stretch:normal;font-size:20px;font-family:'Rubik Light';-inkscape-font-specification:Rubik-Light;writing-mode:lr-tb;fill:#000000;fill-opacity:1;fill-rule:nonzero;stroke:none"
       id="text208"><tspan
         x="0"
         y="0"
         id="tspan206">-</tspan></text><text
       transform="matrix(1,0,0,-1,1287,670.3)"
       style="font-variant:normal;font-weight:300;font-stretch:normal;font-size:20px;font-family:'Rubik Light';-inkscape-font-specification:Rubik-Light;writing-mode:lr-tb;fill:#000000;fill-opacity:1;fill-rule:nonzero;stroke:none"
       id="text220"><tspan
         x="0 10.72 21.879999 32.720001 37.880001 48.599998 58.720001 70.739998 82.660004 93.82 105.74 116.66 128.28 139.44 150.28 155.02 160.17999 171.34 182.67999 193.60001 204.32001 215.84 226.75999 237.3 248.22 260.14001 272.06 282.44 287.60001 299.12 310.28 320.22 331.84 342.76001 354.10001 366.01999 377.17999 387.89999 397.84 408.76001 420.67999 425.84 438.12 449.28 462.56 474.07999 484.79999 496.72 508.64001 520.56"
         y="0"
         id="tspan210">сов акционеров, обеспечения потребностей Компании </tspan><tspan
         x="0 10.84 16 27.620001 38.34 48.18 59.02 70.940002 80.879997 92.800003 104.72 109.46 114.62 125.34 130.5 140.44 151.16 161.28 176.25999 187.17999 192.34 203.86 215.02 225.86 239.03999 254.42 265.34 277.26001 289.17999 299.56 304.72 315.64001 326.56 331.72 343.64001 355.56 366.39999 377.32001 388.04001 397.98001 409.89999 421.92001 433.84 445 456.92001 468.84 480 491.92001"
         y="26"
         id="tspan212">в развитии, а также повышения ее инвестиционной </tspan><tspan
         x="0 11.52 23.139999 35.060001 45.900002 57.119999 68.040001 78.160004 88.879997 98.82 109.74 120.96 130.48 142.39999 153.56 164.28 174.22 186.14 190.89999 196.06 209.3 220.64 236.53999 247.46001 258.17999 268.12 278.95999 290.12 295.28 306.79999 318.01999 328.73999 340.66 352.57999 364.20001 374.78 385.70001 395.64001 400.79999 411.64001 424.82001 436.34 447.56 458.28 468.82001 480.73999 491.57999 502.29999 512.23999 521.76001"
         y="52"
         id="tspan214">привлекательности. Общество планирует выплачивать </tspan><tspan
         x="0 11.52 23.440001 34.279999 46.200001 57.720001 68.639999 80.559998 92.080002 105.26 110.42 121.14 131.98 143.14 155.06 168.34 173.5 184.22 194.34 206.36 218.28 229.44 241.36 252.28 263.89999 274.62 287.89999 293.06 304.98001 315.70001 320.85999 332.48001 343.39999 351.76001 362.34 373.56 383.94 395.56 407.48001 418.64001 430.56 435.72 446.88 457.60001 469.51999 480.67999 491.51999 502.44"
         y="78"
         id="tspan216">дивиденды своим акционерам на регулярной основе.</tspan><tspan
         x="0 13.06 18.219999 29.42 41.740002 52.939999 65.260002 70.419998 78.779999 89.940002 101.46 112.04 117.2 129.48 140.64 153.92 165.44 176.16 188.08 200 210.38 215.53999 226.38 239.56 251.08 262.29999 273.01999 282.95999 294.88 306.10001 316.82001 321.98001 333.5 345.42001 356.26001 368.17999 379.70001 390.62 402.54001 414.06 427.23999 432.39999 443.12 453.23999 465.26001 477.17999"
         y="104"
         id="tspan218">В 2020 году Компания выплатила дивиденды акцио</tspan></text><text
       transform="matrix(1,0,0,-1,1775.34,566.3)"
       style="font-variant:normal;font-weight:300;font-stretch:normal;font-size:20px;font-family:'Rubik Light';-inkscape-font-specification:Rubik-Light;writing-mode:lr-tb;fill:#000000;fill-opacity:1;fill-rule:nonzero;stroke:none"
       id="text224"><tspan
         x="0"
         y="0"
         id="tspan222">-</tspan></text><text
       transform="matrix(1,0,0,-1,1287,540.3)"
       style="font-variant:normal;font-weight:300;font-stretch:normal;font-size:20px;font-family:'Rubik Light';-inkscape-font-specification:Rubik-Light;writing-mode:lr-tb;fill:#000000;fill-opacity:1;fill-rule:nonzero;stroke:none"
       id="text228"><tspan
         x="0 11.92 22.84 34.459999 45.18 58.459999 63.619999 75.139999 86.300003 91.459999 103.38 113.32 124.48 132.84 143.56 156.84 162 173.2 185.52 193.48 204.92 210.08 223.66 235.58 247.5 258.22 270.14001 280.85999 292.01999 302.85999 314.01999 322.38 333.54001 338.70001 347.06 358.22 369.73999 380.45999 385.20001 390.35999 401.07999 406.23999 416.17999 426.89999 437.01999 452 462.92001 468.07999 479.60001 491.22"
         y="0"
         id="tspan226">нерам по итогам 2019 финансового года, а также про</tspan></text><text
       transform="matrix(1,0,0,-1,1789.38,540.3)"
       style="font-variant:normal;font-weight:300;font-stretch:normal;font-size:20px;font-family:'Rubik Light';-inkscape-font-specification:Rubik-Light;writing-mode:lr-tb;fill:#000000;fill-opacity:1;fill-rule:nonzero;stroke:none"
       id="text232"><tspan
         x="0"
         y="0"
         id="tspan230">-</tspan></text><text
       transform="matrix(1,0,0,-1,1287,514.3)"
       style="font-variant:normal;font-weight:300;font-stretch:normal;font-size:20px;font-family:'Rubik Light';-inkscape-font-specification:Rubik-Light;writing-mode:lr-tb;fill:#000000;fill-opacity:1;fill-rule:nonzero;stroke:none"
       id="text236"><tspan
         x="0 13.28 24.200001 39.18 49.759998 59.700001 70.860001 81.400002 93.32 106.5 117.42 122.58 134.10001 146.02 156.86 168.78 180.3 191.22 203.14 214.66 227.84 233 242.84 253.56 258.72 270.16 275.32001 288.60001 299.51999 310.23999 320.62 332.64001 343.56 354.39999 359.56 370.76001 383.07999 394.28 406.60001 411.76001 420.12 431.28 442.79999 453.51999 458.28 463.44 476.45999"
         y="0"
         id="tspan234">межуточные дивиденды за 9 месяцев 2020 года. Со</tspan></text><text
       transform="matrix(1,0,0,-1,1774.62,514.3)"
       style="font-variant:normal;font-weight:300;font-stretch:normal;font-size:20px;font-family:'Rubik Light';-inkscape-font-specification:Rubik-Light;writing-mode:lr-tb;fill:#000000;fill-opacity:1;fill-rule:nonzero;stroke:none"
       id="text240"><tspan
         x="0"
         y="0"
         id="tspan238">-</tspan></text><text
       transform="matrix(1,0,0,-1,1287,488.3)"
       style="font-variant:normal;font-weight:300;font-stretch:normal;font-size:20px;font-family:'Rubik Light';-inkscape-font-specification:Rubik-Light;writing-mode:lr-tb;fill:#000000;fill-opacity:1;fill-rule:nonzero;stroke:none"
       id="text246"><tspan
         x="0 10.84 22 32.119999 42.700001 54.220001 66.139999 79.32 91.239998 96.400002 108.02 118.74 128.58 141.86 152.78 164.39999 169.56 180.39999 193.58 205.10001 216.32001 227.03999 237.58 248.5 260.42001 272.34 285.51999 295.88 301.04001 312.56 324.48001 335.32001 347.23999 358.76001 369.67999 381.60001 393.12 404.28 415.12 420.28 431 442.16 452.88 462.82001 473.54001 484.38 496.29999 507.51999"
         y="0"
         id="tspan242">вокупный размер выплаченных дивидендов составил </tspan><tspan
         x="0 11.44 23.76 28.92 42.200001 53.419998 65.040001 76.559998 81.720001 93.339996 104.5 115.22 125.94 137.86 149.78 160.5 170.62 182.53999 192.89999 198.06 209.67999 220.25999 231.60001 242.82001 253.74001 265.66"
         y="26"
         id="tspan244">50 млрд российских рублей.</tspan></text><g
       id="g248"
       transform="translate(99,199.3999)"><path
         d="M 0,0 H 69"
         style="fill:none;stroke:#e9e9e9;stroke-width:1;stroke-linecap:butt;stroke-linejoin:miter;stroke-miterlimit:10;stroke-dasharray:none;stroke-opacity:1"
         id="path250" /></g><g
       id="g252"
       transform="translate(168,199.3999)"><path
         d="M 0,0 H 286"
         style="fill:none;stroke:#e9e9e9;stroke-width:1;stroke-linecap:butt;stroke-linejoin:miter;stroke-miterlimit:10;stroke-dasharray:none;stroke-opacity:1"
         id="path254" /></g><g
       id="g256"
       transform="translate(454,199.3999)"><path
         d="M 0,0 H 248"
         style="fill:none;stroke:#e9e9e9;stroke-width:1;stroke-linecap:butt;stroke-linejoin:miter;stroke-miterlimit:10;stroke-dasharray:none;stroke-opacity:1"
         id="path258" /></g><g
       id="g260"
       transform="translate(702,199.3999)"><path
         d="M 0,0 H 214"
         style="fill:none;stroke:#e9e9e9;stroke-width:1;stroke-linecap:butt;stroke-linejoin:miter;stroke-miterlimit:10;stroke-dasharray:none;stroke-opacity:1"
         id="path262" /></g><g
       id="g264"
       transform="translate(916,199.3999)"><path
         d="M 0,0 H 296"
         style="fill:none;stroke:#e9e9e9;stroke-width:1;stroke-linecap:butt;stroke-linejoin:miter;stroke-miterlimit:10;stroke-dasharray:none;stroke-opacity:1"
         id="path266" /></g><g
       id="g268"
       transform="translate(1212,199.3999)"><path
         d="M 0,0 H 284"
         style="fill:none;stroke:#e9e9e9;stroke-width:1;stroke-linecap:butt;stroke-linejoin:miter;stroke-miterlimit:10;stroke-dasharray:none;stroke-opacity:1"
         id="path270" /></g><g
       id="g272"
       transform="translate(1496,199.3999)"><path
         d="M 0,0 H 325"
         style="fill:none;stroke:#e9e9e9;stroke-width:1;stroke-linecap:butt;stroke-linejoin:miter;stroke-miterlimit:10;stroke-dasharray:none;stroke-opacity:1"
         id="path274" /></g><g
       id="g276"
       transform="translate(99,156.7)"><path
         d="M 0,0 H 69"
         style="fill:none;stroke:#e9e9e9;stroke-width:1;stroke-linecap:butt;stroke-linejoin:miter;stroke-miterlimit:10;stroke-dasharray:none;stroke-opacity:1"
         id="path278" /></g><g
       id="g280"
       transform="translate(168,156.7)"><path
         d="M 0,0 H 286"
         style="fill:none;stroke:#e9e9e9;stroke-width:1;stroke-linecap:butt;stroke-linejoin:miter;stroke-miterlimit:10;stroke-dasharray:none;stroke-opacity:1"
         id="path282" /></g><g
       id="g284"
       transform="translate(454,156.7)"><path
         d="M 0,0 H 248"
         style="fill:none;stroke:#e9e9e9;stroke-width:1;stroke-linecap:butt;stroke-linejoin:miter;stroke-miterlimit:10;stroke-dasharray:none;stroke-opacity:1"
         id="path286" /></g><g
       id="g288"
       transform="translate(702,156.7)"><path
         d="M 0,0 H 214"
         style="fill:none;stroke:#e9e9e9;stroke-width:1;stroke-linecap:butt;stroke-linejoin:miter;stroke-miterlimit:10;stroke-dasharray:none;stroke-opacity:1"
         id="path290" /></g><g
       id="g292"
       transform="translate(916,156.7)"><path
         d="M 0,0 H 296"
         style="fill:none;stroke:#e9e9e9;stroke-width:1;stroke-linecap:butt;stroke-linejoin:miter;stroke-miterlimit:10;stroke-dasharray:none;stroke-opacity:1"
         id="path294" /></g><g
       id="g296"
       transform="translate(1212,156.7)"><path
         d="M 0,0 H 284"
         style="fill:none;stroke:#e9e9e9;stroke-width:1;stroke-linecap:butt;stroke-linejoin:miter;stroke-miterlimit:10;stroke-dasharray:none;stroke-opacity:1"
         id="path298" /></g><g
       id="g300"
       transform="translate(1496,156.7)"><path
         d="M 0,0 H 325"
         style="fill:none;stroke:#e9e9e9;stroke-width:1;stroke-linecap:butt;stroke-linejoin:miter;stroke-miterlimit:10;stroke-dasharray:none;stroke-opacity:1"
         id="path302" /></g><text
       transform="matrix(1,0,0,-1,99,237.3999)"
       style="font-variant:normal;font-weight:500;font-stretch:normal;font-size:20px;font-family:'Rubik Medium';-inkscape-font-specification:Rubik-Medium;writing-mode:lr-tb;fill:#000000;fill-opacity:1;fill-rule:nonzero;stroke:none"
       id="text306"><tspan
         x="0 10.86 22.700001 279.73999 294.32001 305.85999 318.14001 330.60001 342.44 487.10001 502 514.46002 526.12 538.58002 551.14001 562.67999 575.14001 587.70001"
         y="0"
         id="tspan304">ГодПериодДивиденды</tspan></text><text
       transform="matrix(1,0,0,-1,557.98,211.3999)"
       style="font-variant:normal;font-weight:500;font-stretch:normal;font-size:20px;font-family:'Rubik Medium';-inkscape-font-specification:Rubik-Medium;writing-mode:lr-tb;fill:#000000;fill-opacity:1;fill-rule:nonzero;stroke:none"
       id="text312"><tspan
         x="0 12.46 23.879999 28.459999 39.880001 51.299999 64.040001 76.5 93.18 98.459999 103.04 115.32 126.72 138.66"
         y="0"
         id="tspan308">на акцию, руб.</tspan><tspan
         x="309.67999 324.57999 336 346.60001"
         y="-26"
         id="tspan310">Дата</tspan></text><text
       transform="matrix(1,0,0,-1,796.86,211.3999)"
       style="font-variant:normal;font-weight:500;font-stretch:normal;font-size:20px;font-family:'Rubik Medium';-inkscape-font-specification:Rubik-Medium;writing-mode:lr-tb;fill:#000000;fill-opacity:1;fill-rule:nonzero;stroke:none"
       id="text318"><tspan
         x="0 11.84 23.780001 36 47.48 59.139999 71.199997 82.739998 95.199997 107.66"
         y="0"
         id="tspan314">объявления</tspan><tspan
         x="211.52 225.2 236.60001 250.66 264.72 276.14001 280.72 293.17999 304.60001 316.16 328.62 340.04001 352.10001 363.64001 376.10001 388.56 403.85999"
         y="-26"
         id="tspan316">Сумма начисленных</tspan></text><text
       transform="matrix(1,0,0,-1,1039.4,211.3999)"
       style="font-variant:normal;font-weight:500;font-stretch:normal;font-size:20px;font-family:'Rubik Medium';-inkscape-font-specification:Rubik-Medium;writing-mode:lr-tb;fill:#000000;fill-opacity:1;fill-rule:nonzero;stroke:none"
       id="text324"><tspan
         x="0 12.56 25.02 36.68 49.139999 61.700001 73.239998 85.699997 98.260002 110.1 121.76 127.04 131.62 143.89999 155.3 167.24001"
         y="0"
         id="tspan320">дивидендов, руб.</tspan><tspan
         x="272.29999 287.20001 298.62 309.22 320.64001 325.22 340.45999 351.88 363.29999 373.89999 386.35999 397.92001 409.45999 420.88 432.29999 444.14001"
         y="-26"
         id="tspan322">Дата фактической</tspan></text><text
       transform="matrix(1,0,0,-1,1407.44,211.3999)"
       style="font-variant:normal;font-weight:500;font-stretch:normal;font-size:20px;font-family:'Rubik Medium';-inkscape-font-specification:Rubik-Medium;writing-mode:lr-tb;fill:#000000;fill-opacity:1;fill-rule:nonzero;stroke:none"
       id="text330"><tspan
         x="0 11.66 26.959999 39.18 51.240002 62.66 73.260002"
         y="0"
         id="tspan326">выплаты</tspan><tspan
         x="164.78 178.5 193.8 206.02 218.08 229.5 241.06 252.60001 265.06 276.89999 281.48001 293.94 305.35999 309.94 322.21799 331.478 335.51801 344.77802 357.15799 362.51801 374.89801 388.03799 400.418"
         y="-26"
         id="tspan328">Выплачено на 31.12.2020</tspan></text><text
       transform="matrix(1,0,0,-1,1623.06,211.3999)"
       style="font-variant:normal;font-weight:500;font-stretch:normal;font-size:20px;font-family:'Rubik Medium';-inkscape-font-specification:Rubik-Medium;writing-mode:lr-tb;fill:#000000;fill-opacity:1;fill-rule:nonzero;stroke:none"
       id="text334"><tspan
         x="0 11.66 16.24 31.92 36.5 48.34 58.939999 63.52 75.980003 87.400002 98.959999 111.42 122.84 134.89999 146.44 158.89999 171.36 186.66"
         y="0"
         id="tspan332">в % от начисленных</tspan></text><text
       transform="matrix(1,0,0,-1,99,168.6999)"
       style="font-variant:normal;font-weight:300;font-stretch:normal;font-size:20px;font-family:'Rubik Light';-inkscape-font-specification:Rubik-Light;writing-mode:lr-tb;fill:#000000;fill-opacity:1;fill-rule:nonzero;stroke:none"
       id="text344"><tspan
         x="0 11.2 23.52 34.720001 275.88 287.07999 299.39999 307.35999 318.79999 323.95999 332.32001 343.48001 554.97998 567.34003 575.29999 580.03998 591.56 713.32001 725.64001 737.28003 741.65997 753.97998 765.20001 769.96002 781.15997 793.47998 804.67999 940.32001 948.28003 958.02002 963.17999 975.5 987.82001 1000.14 1005.3 1017.62 1029.9399 1042.26 1047.42 1059.74 1072.0601 1084 1088.36 1100.6801 1294.14 1305.34 1317.28 1321.66 1333.98 1345.2 1349.96 1361.16 1373.48 1384.6801 1672.08 1680.04 1692.36 1704.6801 1707.1801"
         y="0"
         id="tspan336">20202019 год81,3506.05.202017 000 000 000,0020.05.2020100 %</tspan><tspan
         x="0 11.2 23.52 34.720001 207.12 218.56 223.72 237 247.92 258.64001 269.01999 281.04001 291.95999 302.79999 307.95999 319.16 331.48001 342.67999 355"
         y="42.700001"
         id="tspan338">20209 месяцев 2020 </tspan><tspan
         x="130.75999 142.67999 147.84 159.36 170.98 182.89999 194.24001 207.42 218.64 228.16 233.32001 244.84 256.45999 267.62 283 294.22 307.39999 317.76001 322.92001 334.14001 345.06"
         y="68.699997"
         id="tspan340">и прибыль прошлых лет</tspan><tspan
         x="552.03998 560 571.44 579.79999 583.59998 595.03998 718.79999 731.12 742.64001 746.03998 754 765.20001 769.96002 781.15997 793.47998 804.67999 934.97998 946.5 958.02002 963.17999 975.5 987.82001 1000.14 1005.3 1017.62 1029.9399 1042.26 1047.42 1059.74 1072.0601 1083.998 1088.358 1100.678 1303.04 1311 1322.64 1326.04 1334 1345.2 1349.96 1361.16 1373.48 1384.6801 1672.08 1680.04 1692.36 1704.6801 1707.1801"
         y="42.700001"
         id="tspan342">157,9104.12.202033 000 000 000,0016.12.2020100 %</tspan></text><text
       transform="matrix(1,0,0,-1,99,288.0999)"
       style="font-variant:normal;font-weight:500;font-stretch:normal;font-size:20px;font-family:'Rubik Medium';-inkscape-font-specification:Rubik-Medium;writing-mode:lr-tb;fill:#000000;fill-opacity:1;fill-rule:nonzero;stroke:none"
       id="text348"><tspan
         x="0 13.9 24.5 36.060001 47.599998 58.200001 62.779999 74.620003 79.199997 90.860001 106.16 118.38 130.44 141.86 152.46001 164 168.58 180.42 192.36 204.58 216.06 227.72 239.78 251.32001 263.78 276.23999 291.54001 302.82001 307.39999 314.62 327.07999 338.5 350.06 362.51999 373.94 386 397.54001 410 422.45999 437.76001 449.04001 456.26001 460.84 473.39999 485.85999 497.51999 509.98001 522.53998 534.08002 546.53998 559.09998 570.94"
         y="0"
         id="tspan346">Отчет о выплате объявленных (начисленных) дивидендов</tspan></text><g
       id="g350"
       transform="translate(221.1209,984)"><path
         d="M 0,0 -9.121,-10.047 0,-20.094 H 27.879 V -10.047 0 Z"
         style="fill:#f0f0f5;fill-opacity:1;fill-rule:nonzero;stroke:none"
         id="path352" /></g><text
       transform="matrix(1,0,0,-1,99,968.3599)"
       style="font-variant:normal;font-weight:300;font-stretch:normal;font-size:16px;font-family:'Rubik Light';-inkscape-font-specification:Rubik-Light;writing-mode:lr-tb;fill:#000000;fill-opacity:1;fill-rule:nonzero;stroke:none"
       id="text356"><tspan
         x="0 11.2 19.775999 28.208 36.784 45.759998 54.688 58.816002 68.351997 76.928001 81.056 89.632004 97.584 106.88 110.688"
         y="0"
         id="tspan354">Начало на стр. </tspan></text><text
       transform="matrix(1,0,0,-1,222.072,968.3599)"
       style="font-variant:normal;font-weight:500;font-stretch:normal;font-size:16px;font-family:'Rubik Medium';-inkscape-font-specification:Rubik-Medium;writing-mode:lr-tb;fill:#000000;fill-opacity:1;fill-rule:nonzero;stroke:none"
       id="text360"><tspan
         x="0 8.6879997"
         y="0"
         id="tspan358">79</tspan></text><text
       transform="matrix(1,0,0,-1,37.1601,1023)"
       style="font-variant:normal;font-weight:300;font-stretch:normal;font-size:20px;font-family:'Rubik Light';-inkscape-font-specification:Rubik-Light;writing-mode:lr-tb;fill:#000000;fill-opacity:1;fill-rule:nonzero;stroke:none"
       id="text364"><tspan
         x="0 12.36 61.84 74.120003 85.279999 96.900002 108.42 119.58 131.2 141.92 151.86 163.78 174.62 186.53999 197.7 208.62 213.78 224.36 235.88 247.5 258.22 269.06 280.28 291.20001 303.12 315.04001"
         y="0"
         id="tspan362">80Корпоративное управление</tspan></text></g></svg>
