<?xml version="1.0" encoding="UTF-8" standalone="no"?>
<?xml-stylesheet type="text/css" href="main.css" ?>
<svg
   xmlns:dc="http://purl.org/dc/elements/1.1/"
   xmlns:cc="http://creativecommons.org/ns#"
   xmlns:rdf="http://www.w3.org/1999/02/22-rdf-syntax-ns#"
   xmlns:svg="http://www.w3.org/2000/svg"
   xmlns="http://www.w3.org/2000/svg"
   version="1.1"
   id="svg2"
   xml:space="preserve"
   width="2560"
   height="1440"
   viewBox="0 0 2560 1440"><metadata
     id="metadata8"><rdf:RDF><cc:Work
         rdf:about=""><dc:format>image/svg+xml</dc:format><dc:type
           rdf:resource="http://purl.org/dc/dcmitype/StillImage" /></cc:Work></rdf:RDF></metadata><defs
     id="defs6"><clipPath
       clipPathUnits="userSpaceOnUse"
       id="clipPath20"><path
         d="M 0,1080 H 1920 V 0 H 0 Z"
         id="path18" /></clipPath><clipPath
       clipPathUnits="userSpaceOnUse"
       id="clipPath382"><path
         d="M 0,1080 H 1920 V 0 H 0 Z"
         id="path380" /></clipPath></defs><g
     id="g10"
     transform="matrix(1.3333333,0,0,-1.3333333,0,1440)"><g
       id="g12"><g
         id="g14"><g
           id="g16"
           clip-path="url(#clipPath20)"><path
             d="M 0,0 H 1920 V 1080 H 0 Z"
             style="fill:#ffffff;fill-opacity:1;fill-rule:nonzero;stroke:none"
             id="path22" /></g></g></g><text
       transform="matrix(1,0,0,-1,99,927.3)"
       style="font-variant:normal;font-weight:300;font-stretch:normal;font-size:20px;font-family:'Rubik Light';-inkscape-font-specification:Rubik-Light;writing-mode:lr-tb;fill:#000000;fill-opacity:1;fill-rule:nonzero;stroke:none"
       id="text34"><tspan
         x="0 10.72 20.66 31.379999 43.299999 55.32 67.239998 77.620003 87.980003 92.720001 97.879997 108.6 113.76 123.7 134.42 144.53999 159.52 170.44 175.60001 187.12 198.74001 209.89999 223.17999 236.36 251.74001 262.95999 273.88 285.79999 297.72 308.29999 323.56 328.72 340.64001 345.79999 355.41599 366.57599 379.85599 391.37601 402.59601 413.51599 423.134 433.854 445.77399 456.354 471.61401"
         y="0"
         id="tspan24">станциях, а также промышленную и комплексную </tspan><tspan
         x="0 11.22 22.379999 30.74 42.66 53.380001 63.32 75.239998 85.360001 94.739998 99.5 104.66 115.92 126.28 136.86 148.38 163.75999 174.67999 186.60001 198.52 209.44 214.60001 225.32001 237.24001 247.17999 257.76001 268.48001 280.5 292.42001 304.34 309.5 320.34 325.5 336.66 346.60001 358.22 368.94 379.66 390.88 402.79999 407.95999 421.23999 432.39999 447.38 458.29999 468.23999"
         y="26.200001"
         id="tspan26">логистику. Ухудшение ситуации в отрасли может </tspan><tspan
         x="0 11.16 21.280001 32 41.84 52.560001 62.5 72.019997 77.18 88.019997 99.239998 111.16 121.54 133.46001 145.38 156.3 161.46001 173.38 184.10001 189.25999 201.17999 211.89999 227.28 237.86 243.02 254.53999 265.45999 275.84 285.78 296.616 307.836 317.35599 329.276 340.436 351.15601 361.09601 370.616"
         y="52.400002"
         id="tspan28">оказать влияние на нашу деятельность.</tspan><tspan
         x="0 12.28 23.9 35.060001 48.34 59.259998 64.419998 74.360001 85.519997 93.639999 104.56 109.3 114.46 126.38 136.22 149.5 160.42 172.34 183.25999 195.17999 207.10001 218.02 223.17999 231.298 242.45799 253.17799 263.758 275.27802 285.99799 297.61801 308.33801 318.27802 329.11801 340.03799 351.95801 363.87799 377.05801 390.33801 402.258 407.418 418.578 430.198 438.55801 449.27802 461.198 471.918 485.198 497.11801"
         y="91.599998"
         id="tspan30">Кроме того, изменение государственными органами </tspan><tspan
         x="0 9.9399996 20.66 32.279999 44.200001 57.779999 68.940002 79.779999 84.940002 96.860001 107.58 112.74 122.978 133.698 144.918 155.498 163.858 175.778 180.938 194.17799 207.17799 220.418 225.578 237.638 250.198 269.33801 282.858 294.918 300.078 311.99799 317.15799 322.73599 334.65601 345.87601 356.996 363.37601 368.53601 379.07599 389.79599 400.51599 410.45599 422.37601 432.91599 444.836 455.996 466.91599 472.07599 483.996 493.836 507.116"
         y="117.8"
         id="tspan32">тарифов на услуги ОАО «РЖД» и (или) частичное изме</tspan></text><text
       transform="matrix(1,0,0,-1,617.036,809.5)"
       style="font-variant:normal;font-weight:300;font-stretch:normal;font-size:20px;font-family:'Rubik Light';-inkscape-font-specification:Rubik-Light;writing-mode:lr-tb;fill:#000000;fill-opacity:1;fill-rule:nonzero;stroke:none"
       id="text38"><tspan
         x="0"
         y="0"
         id="tspan36">-</tspan></text><text
       transform="matrix(1,0,0,-1,99,783.3)"
       style="font-variant:normal;font-weight:300;font-stretch:normal;font-size:20px;font-family:'Rubik Light';-inkscape-font-specification:Rubik-Light;writing-mode:lr-tb;fill:#000000;fill-opacity:1;fill-rule:nonzero;stroke:none"
       id="text42"><tspan
         x="0 11.92 22.84 34.759998 46.68 57.599998 62.759998 74.279999 85.440002 96.959999 107.198 117.918 127.858 139.778 153.058 166.23801 176.59801 181.758 193.778 204.698 216.618 227.778 238.618 251.798 262.15799 267.31799 278.83801 290.758 301.478 312.99799 323.71799 333.55801 344.71799 356.638 367.798 378.638 383.37799 388.53799 399.37799 404.53799 416.15799 426.87799 440.15799 450.27802 460.99799 471.358 476.51801 486.134"
         y="0"
         id="tspan40">нение допустимых ценовых диапазонов, в рамках ко</tspan></text><text
       transform="matrix(1,0,0,-1,596.294,783.3)"
       style="font-variant:normal;font-weight:300;font-stretch:normal;font-size:20px;font-family:'Rubik Light';-inkscape-font-specification:Rubik-Light;writing-mode:lr-tb;fill:#000000;fill-opacity:1;fill-rule:nonzero;stroke:none"
       id="text46"><tspan
         x="0"
         y="0"
         id="tspan44">-</tspan></text><text
       transform="matrix(1,0,0,-1,99,757.1)"
       style="font-variant:normal;font-weight:300;font-stretch:normal;font-size:20px;font-family:'Rubik Light';-inkscape-font-specification:Rubik-Light;writing-mode:lr-tb;fill:#000000;fill-opacity:1;fill-rule:nonzero;stroke:none"
       id="text50"><tspan
         x="0 9.9399996 21.1 32.720001 45.900002 56.259998 61.419998 74.660004 87.660004 100.9 106.06 118.12 130.67999 149.82001 163.34 175.39999 180.56 192.48 203.2 214.72 225.558 236.778 247.698 259.61801 270.77802 275.93799 287.45801 298.41599 309.63599 321.556 332.716 345.996 357.15601 367.69601 379.616 389.996 403.276 415.19601 420.35599 431.87601 443.03601 448.19601 460.116 469.95599 483.23599 494.15601 506.07599"
         y="0"
         id="tspan48">торых ОАО «РЖД» наделено полномочиями по измене</tspan></text><text
       transform="matrix(1,0,0,-1,615.996,757.1)"
       style="font-variant:normal;font-weight:300;font-stretch:normal;font-size:20px;font-family:'Rubik Light';-inkscape-font-specification:Rubik-Light;writing-mode:lr-tb;fill:#000000;fill-opacity:1;fill-rule:nonzero;stroke:none"
       id="text54"><tspan
         x="0"
         y="0"
         id="tspan52">-</tspan></text><text
       transform="matrix(1,0,0,-1,99,730.9)"
       style="font-variant:normal;font-weight:300;font-stretch:normal;font-size:20px;font-family:'Rubik Light';-inkscape-font-specification:Rubik-Light;writing-mode:lr-tb;fill:#000000;fill-opacity:1;fill-rule:nonzero;stroke:none"
       id="text60"><tspan
         x="0 11.92 23.84 39.099998 44.259998 54.84 66.459999 77.620003 88.459999 100.38 110.76 115.92 130.89999 141.73801 152.95799 163.87801 173.718 185.638 196.798 208.31799 219.478 231.09801 242.258 257.23801 269.15799 282.33801 292.698 297.858 307.798 318.51801 330.138 342.05801 355.638 366.798 377.638 382.37799 387.53799 399.45801 410.67801 422.59799 427.758 439.67801 449.51801 462.798 473.71799 485.638 496.55801 508.478 520.39801 531.31799"
         y="0"
         id="tspan56">нию уровня железнодорожных тарифов, или изменение </tspan><tspan
         x="0 13.24 26.24 39.48 44.639999 56.700001 69.260002 88.400002 101.92 113.98 119.14 129.08 139.8 151.42 163.34 176.92 188.08 198.92 204.08 214.92 220.08 230.66 240.78 251.5 261.34 272.06 283.98001 295.89999 309.07999 319.44 324.60001 336.12 347.73999 358.66 370.17999 381.01599 392.23599 402.95599 413.31601 418.47601 431.75601 442.91599 451.276 461.85599 471.79599 476.95599 488.87601 498.716 511.996"
         y="26.200001"
         id="tspan58">ОАО «РЖД» тарифов в указанных пределах могут изме</tspan></text><text
       transform="matrix(1,0,0,-1,621.916,704.7)"
       style="font-variant:normal;font-weight:300;font-stretch:normal;font-size:20px;font-family:'Rubik Light';-inkscape-font-specification:Rubik-Light;writing-mode:lr-tb;fill:#000000;fill-opacity:1;fill-rule:nonzero;stroke:none"
       id="text64"><tspan
         x="0"
         y="0"
         id="tspan62">-</tspan></text><text
       transform="matrix(1,0,0,-1,99,678.5)"
       style="font-variant:normal;font-weight:300;font-stretch:normal;font-size:20px;font-family:'Rubik Light';-inkscape-font-specification:Rubik-Light;writing-mode:lr-tb;fill:#000000;fill-opacity:1;fill-rule:nonzero;stroke:none"
       id="text74"><tspan
         x="0 11.92 23.84 33.779999 43.299999 48.459999 60.080002 70.800003 80.639999 93.919998 104.84 116.46 129.64 134.8 146.32001 157.53999 168.25999 178.2 189.12 204.10001 215.02 226.94 232.10001 241.94 252.66 257.82001 269.44 279.82001 291.34 296.5 306.73599 317.45599 328.67599 339.25601 345.85599 350.59601 355.75601 367.276 378.896 389.81601 401.336 412.496 423.216 433.15601 443.87601 454.716 465.936 476.31601 487.23599 500.51599 513.69598 524.05603"
         y="0"
         id="tspan66">нить размеры платежей за ряд услуг, предоставляемых </tspan><tspan
         x="0 10.72 21.879999 27.040001 37.759998 47.700001 58.860001 70.480003 81.639999 93.559998 106.74 111.9 125.14 138.14 151.38 156.53999 168.60001 181.16 200.3 213.82001 225.88 230.62 235.78 247.3 258.45999 269.29999 280.51999 292.44 302.82001 312.76001 322.28 327.44 339.35999 350.07999 355.23999 365.95999 376.54001 389.82001 403.10001 413.67999 418.84 430.45999 441.17999 451.89999 462.26001 473.42001 484.94 496.10001 506.94"
         y="26.200001"
         id="tspan68">со стороны ОАО «РЖД», повлиять на сумму расходов </tspan><tspan
         x="0 11.68 22.84 36.119999 47.639999 58.360001 70.279999 82.199997 94.120003 99.279999 111.2 121.92 127.08 138.60001 149.52 161.14 172.06 183.58 195.5 206.22 217.44 228.60001 238.72 249.44 261.45999 273.38 288.64001 293.79999 305.32001 316.04001 327.66 337.78 348.5 353.66 364.5 375.22 383.336 394.496 406.41599 417.57599 428.41599 433.15601 438.31601 449.03601 460.95599 472.87601 482.716 494.63599 504.57599 514.09601"
         y="52.400002"
         id="tspan70">Компании на передислокацию парка вагонов, снизить </tspan><tspan
         x="0 11.52 23.139999 35.060001 45.900002 57.119999 68.040001 78.160004 88.879997 98.82 109.658 120.878 130.39799 142.31799 153.478 164.198 174.138 183.658 188.81799 198.438 209.59801 222.87801 236.158 247.078 258.698 269.23801 280.15799 290.87799 300.99799 312.918 323.27802 328.43799 338.67599 349.396 360.616 371.776 382.616 394.53601 406.45599 411.19601 416.35599 427.87601 439.496 450.41599 461.936 473.15601 483.87601 492.23599"
         y="78.599998"
         id="tspan72">привлекательность коммерческих условий, предлага</tspan></text><text
       transform="matrix(1,0,0,-1,601.956,599.9)"
       style="font-variant:normal;font-weight:300;font-stretch:normal;font-size:20px;font-family:'Rubik Light';-inkscape-font-specification:Rubik-Light;writing-mode:lr-tb;fill:#000000;fill-opacity:1;fill-rule:nonzero;stroke:none"
       id="text78"><tspan
         x="0"
         y="0"
         id="tspan76">-</tspan></text><text
       transform="matrix(1,0,0,-1,99,573.7)"
       style="font-variant:normal;font-weight:300;font-stretch:normal;font-size:20px;font-family:'Rubik Light';-inkscape-font-specification:Rubik-Light;writing-mode:lr-tb;fill:#000000;fill-opacity:1;fill-rule:nonzero;stroke:none"
       id="text82"><tspan
         x="0 10.92 24.200001 37.380001 47.740002 52.900002 64.059998 75.580002 86.5 98.120003 108.84 118.78 129.94 141.56 152.28 165.56 177.48 182.64 197.62 208.45799 219.67799 230.59801 240.438 252.358 263.51801 275.03799 286.198 297.81799 308.978 323.95801 335.87799 347.03799 355.15601 366.31601 371.47601 382.996 394.15601 405.67599 416.51599 428.436 443.41599 455.336 466.496 474.61401 485.77399 490.93399 501.65399"
         y="0"
         id="tspan80">емых операторами железнодорожного подвижного со</tspan></text><text
       transform="matrix(1,0,0,-1,611.814,573.7)"
       style="font-variant:normal;font-weight:300;font-stretch:normal;font-size:20px;font-family:'Rubik Light';-inkscape-font-specification:Rubik-Light;writing-mode:lr-tb;fill:#000000;fill-opacity:1;fill-rule:nonzero;stroke:none"
       id="text86"><tspan
         x="0"
         y="0"
         id="tspan84">-</tspan></text><text
       transform="matrix(1,0,0,-1,99,547.5)"
       style="font-variant:normal;font-weight:300;font-stretch:normal;font-size:20px;font-family:'Rubik Light';-inkscape-font-specification:Rubik-Light;writing-mode:lr-tb;fill:#000000;fill-opacity:1;fill-rule:nonzero;stroke:none"
       id="text90"><tspan
         x="0 10.72 20.66 31.379999 42.220001 52.939999 58.099998 68.82 79.660004 90.82 102.74 116.02 121.18 131.89999 142.48 158.38 169.3 180.02 189.96001 200.8 211.38 226.64 242.53999 254.46001 267.73999 272.89999 284.82001 289.98001 301.5 312.66 322.60001 333.51999 345.44 357.45999 369.38 380.10001 391.32001 400.84 412.76001 425.94 439.22 444.38 454.5 465.72 477.64001 488.56"
         y="0"
         id="tspan88">става своим существующим и потенциальным клиен</tspan></text><text
       transform="matrix(1,0,0,-1,599.48,547.5)"
       style="font-variant:normal;font-weight:300;font-stretch:normal;font-size:20px;font-family:'Rubik Light';-inkscape-font-specification:Rubik-Light;writing-mode:lr-tb;fill:#000000;fill-opacity:1;fill-rule:nonzero;stroke:none"
       id="text94"><tspan
         x="0"
         y="0"
         id="tspan92">-</tspan></text><text
       transform="matrix(1,0,0,-1,99,521.3)"
       style="font-variant:normal;font-weight:300;font-stretch:normal;font-size:20px;font-family:'Rubik Light';-inkscape-font-specification:Rubik-Light;writing-mode:lr-tb;fill:#000000;fill-opacity:1;fill-rule:nonzero;stroke:none"
       id="text102"><tspan
         x="0 9.9399996 20.66 33.939999 38.68 43.84 55.759998 60.5 65.660004 75.779999 86.5 96.620003 101.78 112.5 123.72 134.64 146.16 156.88 166.82001 177.66 189.58 200.5 205.24001 210.39999 220.24001 230.96001 240.89999 252.52 263.67999 275.60001 286.17999 296.12 305.64001 310.79999 324.38 336.29999 348.22 358.94 370.85999 381.57999 392.73999 403.57999 414.73999 425.66 430.82001 441.54001 452.70001 463.42001 473.35999 484.51999 494.89999 506.82001 518.73999 529.65997"
         y="0"
         id="tspan96">там, и, как следствие, затронуть финансовое состояние </tspan><tspan
         x="0 11.92 17.08 28.24 39.759998 50.68 62.299999 73.019997 85.040001 96.959999 108.12 120.04 131.96001 145.14 156.06 161.22 172.84 183.75999 193.60001 203.59801 214.81799 224.338 234.278 244.998 254.938 268.11801 273.27802 287.27802 297.37799 309.65799"
         y="26.200001"
         id="tspan98">и операционные результаты ПГК.</tspan><tspan
         x="0 13.02 23.6 39.5 50.419998 61.139999 71.080002 81.919998 92.839996 104.76 116.68 127.84 138.75999 143.92 154.75999 165.98 177.89999 188.28 200.2 212.12 223.03999 228.2 240.12 250.84 256 267.51999 278.44 288.82001 298.76001 309.59601 320.81601 330.336 342.25601 353.41599 364.13599 374.07599 383.59601 388.75601 400.436 411.59601 424.87601 436.396 447.116 459.03601 470.95599 482.87601 488.03601 501.31601"
         y="65.400002"
         id="tspan100">Существенное влияние на деятельность Компании мо</tspan></text><text
       transform="matrix(1,0,0,-1,611.476,455.9)"
       style="font-variant:normal;font-weight:300;font-stretch:normal;font-size:20px;font-family:'Rubik Light';-inkscape-font-specification:Rubik-Light;writing-mode:lr-tb;fill:#000000;fill-opacity:1;fill-rule:nonzero;stroke:none"
       id="text106"><tspan
         x="0"
         y="0"
         id="tspan104">-</tspan></text><text
       transform="matrix(1,0,0,-1,99,429.7)"
       style="font-variant:normal;font-weight:300;font-stretch:normal;font-size:20px;font-family:'Rubik Light';-inkscape-font-specification:Rubik-Light;writing-mode:lr-tb;fill:#000000;fill-opacity:1;fill-rule:nonzero;stroke:none"
       id="text110"><tspan
         x="0 14.98 25.9 35.84 41 52.16 62.279999 73 82.839996 93.559998 103.5 113.02 118.18 130.10001 135.25999 145.98 156.89999 168.52 178.03999 188.96001 198.8 210.72 221.88 232.8 237.96001 248.53999 259.38 270.216 281.436 293.35599 303.896 314.81601 326.73599 338.65601 349.57599 354.73599 365.45599 375.396 386.556 398.47601 411.75601 422.91599 433.63599 443.57599 455.496 460.65601 470.496 481.216 492.73599 503.45599"
         y="0"
         id="tspan108">жет оказать и серьезное увеличение стоимости запас</tspan></text><text
       transform="matrix(1,0,0,-1,613.176,429.7)"
       style="font-variant:normal;font-weight:300;font-stretch:normal;font-size:20px;font-family:'Rubik Light';-inkscape-font-specification:Rubik-Light;writing-mode:lr-tb;fill:#000000;fill-opacity:1;fill-rule:nonzero;stroke:none"
       id="text114"><tspan
         x="0"
         y="0"
         id="tspan112">-</tspan></text><text
       transform="matrix(1,0,0,-1,99,403.5)"
       style="font-variant:normal;font-weight:300;font-stretch:normal;font-size:20px;font-family:'Rubik Light';-inkscape-font-specification:Rubik-Light;writing-mode:lr-tb;fill:#000000;fill-opacity:1;fill-rule:nonzero;stroke:none"
       id="text118"><tspan
         x="0 11.92 25.1 35.459999 40.619999 51.16 61.880001 72.599998 82.540001 93.459999 105.38 110.54 122.46 133.67999 145.60001 150.75999 162.38 173.3 186.58 197.74001 209.66 219.60001 230.32001 235.48 247 258.16 269.67999 280.51999 292.44 307.42001 319.34 330.5 338.616 349.776 354.936 365.65601 376.81601 387.53601 397.47601 408.19601 419.03601 429.75601 434.51599 439.67599 453.67599 463.776 476.056 481.216 492.056 497.216 508.37601"
         y="0"
         id="tspan116">ных частей или ремонта подвижного состава. ПГК в ос</tspan></text><text
       transform="matrix(1,0,0,-1,618.096,403.5)"
       style="font-variant:normal;font-weight:300;font-stretch:normal;font-size:20px;font-family:'Rubik Light';-inkscape-font-specification:Rubik-Light;writing-mode:lr-tb;fill:#000000;fill-opacity:1;fill-rule:nonzero;stroke:none"
       id="text122"><tspan
         x="0"
         y="0"
         id="tspan120">-</tspan></text><text
       transform="matrix(1,0,0,-1,99,377.3)"
       style="font-variant:normal;font-weight:300;font-stretch:normal;font-size:20px;font-family:'Rubik Light';-inkscape-font-specification:Rubik-Light;writing-mode:lr-tb;fill:#000000;fill-opacity:1;fill-rule:nonzero;stroke:none"
       id="text130"><tspan
         x="0 11.92 23.08 33.919998 45.84 57 70.279999 75.440002 86.959999 98.580002 110.5 121.66 133 144.62 155.53999 165.48 176.2 187.12 197.06 202.22 212.06 222.78 234.3 245.02 255.74001 267.66 280.84 291.76001 296.92001 307.45999 318.17999 328.89999 338.84 350.76001 355.92001 367.44 378.66 389.04001 394.20001 405.72 416.88 428.39999 439.23999 451.16 466.14001 478.06 489.22 497.33401 508.49399"
         y="0"
         id="tspan124">новном приобретает запасные части для подвижного </tspan><tspan
         x="0 10.72 21.879999 32.599998 42.540001 53.259998 64.099998 74.82 79.980003 90.559998 95.720001 106.44 116.38 127.54 139.16 150.32001 162.24001 174.16 186.08 196.44 201.60001 212.75999 224.38 232.74001 243.46001 255.38 267.29999 277.14001 287.85999 299.88 311.79999 323.72 328.88 340.79999 345.95999 357.88 368.60001 380.12 391.07599 402.29599 411.81601 421.65601 431.896 442.81601 452.75601 457.91599 468.15399 478.87399 490.09399 500.67401 509.034 520.95398"
         y="26.200001"
         id="tspan126">состава у сторонних организаций и использует услуги </tspan><tspan
         x="0 10.72 20.66 31.82 43.439999 54.599998 66.519997 78.440002 90.360001 100.72 105.88 117.04 128.66 137.02 147.74001 159.66 171.58 181.42 192.14 204.16 216.08 228 233.16 244.67999 255.89999 266.28 271.44 283.06 293.98001 307.26001 318.42001 330.34 340.28 351 356.16 366.88 377.72 388.88 399.79999 407.91599 419.07599 424.23599 435.75601 446.91599 458.436 469.276 481.19601 496.17599 508.09601"
         y="52.400002"
         id="tspan128">сторонних организаций для ремонта своего подвижно</tspan></text><text
       transform="matrix(1,0,0,-1,618.256,324.9)"
       style="font-variant:normal;font-weight:300;font-stretch:normal;font-size:20px;font-family:'Rubik Light';-inkscape-font-specification:Rubik-Light;writing-mode:lr-tb;fill:#000000;fill-opacity:1;fill-rule:nonzero;stroke:none"
       id="text134"><tspan
         x="0"
         y="0"
         id="tspan132">-</tspan></text><text
       transform="matrix(1,0,0,-1,99,298.7)"
       style="font-variant:normal;font-weight:300;font-stretch:normal;font-size:20px;font-family:'Rubik Light';-inkscape-font-specification:Rubik-Light;writing-mode:lr-tb;fill:#000000;fill-opacity:1;fill-rule:nonzero;stroke:none"
       id="text138"><tspan
         x="0 8.1199999 19.280001 24.440001 35.16 46.32 57.040001 66.980003 77.699997 88.540001 99.260002 104.02 109.18 121.46 133.08 144.24001 157.52 168.44 173.60001 183.53999 194.7 202.81799 213.73801 218.478 223.638 234.218 249.198 260.11801 270.83801 280.77802 291.93799 302.478 313.39801 325.31799 337.23801 348.15799 353.31799 363.258 374.87799 385.798 397.138 408.298 419.138 429.858 441.77802 453.698 465.61801 470.77802 480.89801 486.05801 495.99799 506.918"
         y="0"
         id="tspan136">го состава. Кроме того, ужесточение требований к тех</tspan></text><text
       transform="matrix(1,0,0,-1,616.278,298.7)"
       style="font-variant:normal;font-weight:300;font-stretch:normal;font-size:20px;font-family:'Rubik Light';-inkscape-font-specification:Rubik-Light;writing-mode:lr-tb;fill:#000000;fill-opacity:1;fill-rule:nonzero;stroke:none"
       id="text142"><tspan
         x="0"
         y="0"
         id="tspan140">-</tspan></text><text
       transform="matrix(1,0,0,-1,99,272.5)"
       style="font-variant:normal;font-weight:300;font-stretch:normal;font-size:20px;font-family:'Rubik Light';-inkscape-font-specification:Rubik-Light;writing-mode:lr-tb;fill:#000000;fill-opacity:1;fill-rule:nonzero;stroke:none"
       id="text150"><tspan
         x="0 11.92 23.84 34.380001 45.299999 56.02 65.639999 76.800003 90.080002 100.66 105.82 116.54 127.7 138.42 148.36 159.52 169.89999 181.82001 193.74001 209 214.16 222.52 233.758 244.338 254.17799 265.33801 276.17801 289.358 299.71799 304.87799 315.71799 326.43799 334.556 345.716 357.63599 368.79599 379.63599 384.79599 396.716 401.87601 413.79599 423.63599 436.91599 447.836 459.75601 470.67599 482.59601 494.51599 505.436"
         y="0"
         id="tspan144">ническому состоянию грузовых вагонов и изменение </tspan><tspan
         x="0 11.62 22.540001 37.52 49.439999 62.720001 73.440002 78.599998 86.720001 97.879997 108.6 119.18 130.7 141.42 153.03999 163.75999 173.7 184.53999 195.46001 207.38 219.3 230.46001 238.578 249.73801 254.89799 264.51801 275.67801 287.59799 297.53799 309.15799 320.11801 331.33801 341.71799 346.87799 356.71799 367.43799 372.59799 384.51801 394.87799 400.03799 409.978 420.89801 431.258 443.17801 455.09799 465.638 476.55801 487.27802 497.39801 509.31799 522.59802"
         y="26.200001"
         id="tspan146">режима государственного контроля за их техническим </tspan><tspan
         x="0 10.72 21.879999 32.599998 42.540001 53.700001 64.080002 76 87.919998 98.839996 112.12 117.28 130.56 141.72 156.7 167.62 177.56 182.72 192.66 203.38 213.5 228.48 239.39999 244.56 255.28 265.85999 281.76001 292.67999 303.39999 313.34 324.17999 335.10001 347.01999 358.94 372.12 385.39999 390.56 401.72 413.06 424.67999 435.39999 445.23999 456.39999 469.67999 474.84 486.35999"
         y="52.400002"
         id="tspan148">состоянием может также существенным образом по</tspan></text><text
       transform="matrix(1,0,0,-1,596.52,220.1)"
       style="font-variant:normal;font-weight:300;font-stretch:normal;font-size:20px;font-family:'Rubik Light';-inkscape-font-specification:Rubik-Light;writing-mode:lr-tb;fill:#000000;fill-opacity:1;fill-rule:nonzero;stroke:none"
       id="text154"><tspan
         x="0"
         y="0"
         id="tspan152">-</tspan></text><text
       transform="matrix(1,0,0,-1,99,193.9)"
       style="font-variant:normal;font-weight:300;font-stretch:normal;font-size:20px;font-family:'Rubik Light';-inkscape-font-specification:Rubik-Light;writing-mode:lr-tb;fill:#000000;fill-opacity:1;fill-rule:nonzero;stroke:none"
       id="text158"><tspan
         x="0 10.84 22.059999 33.98 44.360001 54.299999 63.82 68.980003 80.900002 91.620003 96.779999 108.4 119.32 129.16 139.158 150.37801 159.89799 169.838 180.558 190.498 203.67799 208.838 220.358 231.278 241.658 251.59801 262.436 273.65601 283.17599 295.09601 306.25601 316.97601 326.91599 338.836 343.996 355.91599 361.07599 372.59601 383.51599 395.13599 405.85599 417.37601 428.29599 438.41599 448.35599 460.276 471.116 484.29599 489.45599 501.07599 511.79599"
         y="0"
         id="tspan156">влиять на результаты деятельности и перспективы раз</tspan></text><text
       transform="matrix(1,0,0,-1,620.636,193.9)"
       style="font-variant:normal;font-weight:300;font-stretch:normal;font-size:20px;font-family:'Rubik Light';-inkscape-font-specification:Rubik-Light;writing-mode:lr-tb;fill:#000000;fill-opacity:1;fill-rule:nonzero;stroke:none"
       id="text162"><tspan
         x="0"
         y="0"
         id="tspan160">-</tspan></text><text
       transform="matrix(1,0,0,-1,99,167.7)"
       style="font-variant:normal;font-weight:300;font-stretch:normal;font-size:20px;font-family:'Rubik Light';-inkscape-font-specification:Rubik-Light;writing-mode:lr-tb;fill:#000000;fill-opacity:1;fill-rule:nonzero;stroke:none"
       id="text168"><tspan
         x="0 10.84 22.76 32.700001 44.619999 55 60.16 71.839996 83 96.279999 107.8 118.52 130.44 142.36 154.28"
         y="0"
         id="tspan164">вития Компании.</tspan><tspan
         x="594 607.06 612.21997 622.34003 633.06 643.59998 654.52002 665.23999 675.17999 686.02002 696.94 702.09998 714.02002 724.73999 736.65997 748 758.95801 770.17798 781.09802 792.01801 797.17798 807.89801 818.47803 834.37799 845.29797 856.01801 865.95801 876.79797 887.71802 899.638 911.55798 924.73798 935.09802 940.258 952.17798 962.89801 968.05798 978.89801 990.81799 1001.738 1017.118 1029.038 1039.958 1053.238 1058.3979 1070.0179 1083.198"
         y="-759.47998"
         id="tspan166">В качестве наиболее существенных на внешнем рын</tspan></text><text
       transform="matrix(1,0,0,-1,1194.118,927.18)"
       style="font-variant:normal;font-weight:300;font-stretch:normal;font-size:20px;font-family:'Rubik Light';-inkscape-font-specification:Rubik-Light;writing-mode:lr-tb;fill:#000000;fill-opacity:1;fill-rule:nonzero;stroke:none"
       id="text172"><tspan
         x="0"
         y="0"
         id="tspan170">-</tspan></text><text
       transform="matrix(1,0,0,-1,693,901.16)"
       style="font-variant:normal;font-weight:300;font-stretch:normal;font-size:20px;font-family:'Rubik Light';-inkscape-font-specification:Rubik-Light;writing-mode:lr-tb;fill:#000000;fill-opacity:1;fill-rule:nonzero;stroke:none"
       id="text176"><tspan
         x="0 9.6199999 20.540001 25.700001 37.32 49.240002 59.959999 69.580002 80.739998 91.580002 96.739998 110.02 123.2 128.36 139.2 152.38 163.89999 174.73801 185.95799 196.338 207.258 220.53799 225.698 235.638 246.558 251.298 256.45801 266.99799 276.93799 288.09799 293.258 303.978 314.81799 325.198 335.03799 345.758 357.67801 370.858 376.01801 386.73801 391.89801 403.05801 412.99799 423.71799 434.298 444.23801 454.95801 464.89801 475.73801"
         y="0"
         id="tspan174">ке рисков мы выделяем те, что связаны с отсутстви</tspan></text><text
       transform="matrix(1,0,0,-1,1180.658,901.16)"
       style="font-variant:normal;font-weight:300;font-stretch:normal;font-size:20px;font-family:'Rubik Light';-inkscape-font-specification:Rubik-Light;writing-mode:lr-tb;fill:#000000;fill-opacity:1;fill-rule:nonzero;stroke:none"
       id="text180"><tspan
         x="0"
         y="0"
         id="tspan178">-</tspan></text><text
       transform="matrix(1,0,0,-1,693,875.14)"
       style="font-variant:normal;font-weight:300;font-stretch:normal;font-size:20px;font-family:'Rubik Light';-inkscape-font-specification:Rubik-Light;writing-mode:lr-tb;fill:#000000;fill-opacity:1;fill-rule:nonzero;stroke:none"
       id="text186"><tspan
         x="0 10.92 24.200001 29.360001 40.080002 49.700001 60.860001 72.779999 83.940002 97.220001 109.14 119.68 130.60001 141.32001 150.938 162.09801 174.01801 179.17799 191.09801 196.258 206.978 218.138 230.158 242.078 252.798 264.01801 273.53799 285.45801 296.61801 308.53799 313.698 324.418 334.358 345.078 356.418 368.33801 379.55801 389.078 400.99799 412.15799 422.87799 432.81799 444.73801 449.89801 460.73801 465.89801 477.51801 487.89801 499.418 510.33801"
         y="0"
         id="tspan182">ем экономической и социальной стабильности в ряде </tspan><tspan
         x="0 8.1199999 19.280001 30 40.580002 52.099998 62.82 74.440002 85.160004 95.099998 105.94 110.68 115.84 126.68 131.84 141.45799 152.618 162.558 173.718 185.338 198.51801 208.87801 214.03799 229.418 241.338 252.95799 264.87799 276.798 287.51801 292.67801 304.198 315.81799 326.978 337.698 347.638 359.258 369.978 381.89801 392.61801 402.55801 413.39801 424.11801 429.27802 444.258 455.09601 466.31601 477.23599"
         y="26.02"
         id="tspan184">государств, в которых ширина пространства желез</tspan></text><text
       transform="matrix(1,0,0,-1,1180.076,849.12)"
       style="font-variant:normal;font-weight:300;font-stretch:normal;font-size:20px;font-family:'Rubik Light';-inkscape-font-specification:Rubik-Light;writing-mode:lr-tb;fill:#000000;fill-opacity:1;fill-rule:nonzero;stroke:none"
       id="text190"><tspan
         x="0"
         y="0"
         id="tspan188">-</tspan></text><text
       transform="matrix(1,0,0,-1,693,823.1)"
       style="font-variant:normal;font-weight:300;font-stretch:normal;font-size:20px;font-family:'Rubik Light';-inkscape-font-specification:Rubik-Light;writing-mode:lr-tb;fill:#000000;fill-opacity:1;fill-rule:nonzero;stroke:none"
       id="text206"><tspan
         x="0 11.92 23.08 34.599998 45.759998 57.380001 68.540001 83.519997 95.440002 106.6 118.52 123.68 133.298 144.25999 155.48 166.39999 178.32001 183.48 194.2 205.36 216.08 226.02 236.74001 247.58 258.79999 269.17999 280.10001 290.04001 295.20001 303.16 314.60001 325.79999 338.12 343.28 356.56 369.84 375 381.38 392.89999 403.62 414.84 425.76001 436.67999 441.84 451.78 462.5 472.62 487.60001 498.51999"
         y="0"
         id="tspan192">нодорожной колеи составляет 1520 мм (далее также </tspan><tspan
         x="0 15.34 20.5 32.560001 46.560001 58.18 69.339996 80.059998 90 101.62 112.34 124.26 134.98 144.92 155.75999 166.92 172.08 181.698 192.658 203.87801 214.798 226.718 231.87801 239.838 251.278 262.478 274.798 279.95801 293.23801 306.51801 318.578 323.31799 328.478 340.53799 353.55801 363.49799 375.11801 385.83801 397.758 410.93799 416.09799 425.716 436.67599 447.896 458.81601 470.73599 475.896 483.85599 495.29599 506.496 518.81598"
         y="26.02"
         id="tspan194">— «Пространство колеи 1520 мм», «Страны колеи 1520 </tspan><tspan
         x="0 13.28 26.559999 38.619999 45 49.759998 54.919998 67.940002 79.559998 90.480003 102 113.92 119.08 130.7 142.62 153.34 162.95799 174.118 184.95799 190.118 200.95799 206.118 216.838 226.778 237.938 249.858 255.01801 263.37799 274.616 285.19601 296.716 308.23599 319.15601 324.31601 334.25601 344.97601 355.09601 370.07599 380.996 386.15601 401.496 406.65601 416.27399 427.23401 438.45401 449.37399 460.71399 471.43399 483.354 495.27399 505.65399"
         y="52.040001"
         id="tspan196">мм»). Среди рисков в этой группе также — колебания </tspan><tspan
         x="0 10.84 16 29.280001 41.200001 52.82 63.98 74.82 85.980003 97.900002 103.06 113.78 123.398 134.558 146.478 157.638 170.918 182.838 192.45799 203.37801 208.118 213.278 224.118 237.298 247.138 260.31799 271.15799 281.87799 297.138 313.03799 324.95801 335.87799 341.03799 352.95801 362.798 376.078 386.99799 398.918 409.83801 421.758 433.67801 444.59799 449.758 460.478 471.99799 483.61801 494.77802 505.49799 516.21802"
         y="78.059998"
         id="tspan198">в мировой экономике, вызывающие изменение спроса </tspan><tspan
         x="0 11.92 22.639999 27.799999 38.959999 49.68 61.599998 72.760002 83.599998 95.519997 108.7 119.62 124.78 136.3 147.22 158.84 169.75999 180.60001 191.75999 201.60001 213.52 226.8 239.98 250.89999 256.06 267.57999 278.73999 283.89999 298.88 309.716 320.936 331.85599 341.69601 353.616 364.776 376.69601 381.85599 393.37601 404.53601 416.15601 427.31601 435.43399 446.354 451.51401 461.45401 472.61401 483.45401 494.17401 505.79401 518.974"
         y="104.08"
         id="tspan200">на основные перевозимые по железной дороге товары </tspan><tspan
         x="0 11.92 22.639999 27.799999 38.639999 50.560001 61.48 76.860001 88.779999 100.7 111.06 116.22 127.84 141.02 152.94 163.06 173.78 184.14 189.3 201.22 206.38 218 231.17999 243.10001 253.22 263.94 274.29999 279.45999 291.07999 301.45999 312.98001 323.70001 328.85999 341.88 351.82001 363.44 374.16 386.07999 391.23999 400.85599 411.81601 423.03601 433.95599 445.87601 451.03601 458.996 470.436 481.63599 493.95599 499.116 512.396 525.67603 530.41602"
         y="130.10001"
         id="tspan202">на внешних рынках и рынках ряда Стран колеи 1520 мм, </tspan><tspan
         x="0 10.84 21.68 32.599998 44.119999 55.040001 66.959999 78.879997 89.800003 94.959999 106.12 114.48 126.1 136.82001 148.74001 160.66 171.2 182.12 194.03999 205.96001 217.88 223.03999 233.16 243.74001 255.36 266.07999 278 289.62 300.78 311.62 322.34 334.26001 346.17999 356.56 361.72 372.56 383.28 391.396 402.556 414.47601 425.63599 436.47601 441.63599 453.15601 464.776 476.69601 488.616 499.336"
         y="156.12"
         id="tspan204">введение ограничений курсирования вагонов принад</tspan></text><text
       transform="matrix(1,0,0,-1,1203.856,666.98)"
       style="font-variant:normal;font-weight:300;font-stretch:normal;font-size:20px;font-family:'Rubik Light';-inkscape-font-specification:Rubik-Light;writing-mode:lr-tb;fill:#000000;fill-opacity:1;fill-rule:nonzero;stroke:none"
       id="text210"><tspan
         x="0"
         y="0"
         id="tspan208">-</tspan></text><text
       transform="matrix(1,0,0,-1,693,640.96)"
       style="font-variant:normal;font-weight:300;font-stretch:normal;font-size:20px;font-family:'Rubik Light';-inkscape-font-specification:Rubik-Light;writing-mode:lr-tb;fill:#000000;fill-opacity:1;fill-rule:nonzero;stroke:none"
       id="text214"><tspan
         x="0 11.22 22.139999 37.119999 49.040001 60.200001 70.919998 80.860001 92.779999 97.940002 110.5 121.66 132.38 143.10001 155.02 166.94 177.66 187.278 198.438 210.358 215.51801 232.01801 242.938 254.45799 265.37799 276.99799 287.71799 299.73801 311.65799 323.578 328.73801 340.65799 351.37799 356.53799 366.478 377.39801 389.01801 400.638 412.55801 422.49799 433.65799 445.27802 457.198 467.578 477.93799 483.09799 494.61801 505.854"
         y="0"
         id="tspan212">лежности Российской Федерации на территориях дру</tspan></text><text
       transform="matrix(1,0,0,-1,1208.96,640.96)"
       style="font-variant:normal;font-weight:300;font-stretch:normal;font-size:20px;font-family:'Rubik Light';-inkscape-font-specification:Rubik-Light;writing-mode:lr-tb;fill:#000000;fill-opacity:1;fill-rule:nonzero;stroke:none"
       id="text218"><tspan
         x="0"
         y="0"
         id="tspan216">-</tspan></text><text
       transform="matrix(1,0,0,-1,693,614.94)"
       style="font-variant:normal;font-weight:300;font-stretch:normal;font-size:20px;font-family:'Rubik Light';-inkscape-font-specification:Rubik-Light;writing-mode:lr-tb;fill:#000000;fill-opacity:1;fill-rule:nonzero;stroke:none"
       id="text222"><tspan
         x="0 8.3599997 20.280001 30.639999 35.799999 48.82 58.759998 70.379997 81.099998 93.019997 98.18 107.798 118.758 129.978 140.89799 152.81799 157.978 165.938 177.37801 188.578 200.89799 206.058 219.338 232.618"
         y="0"
         id="tspan220">гих Стран колеи 1520 мм.</tspan></text><text
       transform="matrix(1,0,0,-1,693,555.0601)"
       style="font-variant:normal;font-weight:500;font-stretch:normal;font-size:28px;font-family:'Rubik Medium';-inkscape-font-specification:Rubik-Medium;writing-mode:lr-tb;fill:#000000;fill-opacity:1;fill-rule:nonzero;stroke:none"
       id="text226"><tspan
         x="0 19.18 36.316002 52.5 70.363998 87.835999 109.228 126.7 142.912 159.09599 175.112 191.15601 208.62801 224.812 231.196 248.808 265.72 281.84799 288.23199 306.23318 322.83719 342.54919 359.68521 375.7012 393.17319 410.6452 428.11719 434.50119 451.69321 469.16519 485.18121 501.22519"
         y="0"
         id="tspan224">Специфические для Компании риски</tspan></text><text
       transform="matrix(1,0,0,-1,693,519.0428)"
       style="font-variant:normal;font-weight:500;font-stretch:normal;font-size:20px;font-family:'Rubik Medium';-inkscape-font-specification:Rubik-Medium;writing-mode:lr-tb;fill:#000000;fill-opacity:1;fill-rule:nonzero;stroke:none"
       id="text230"><tspan
         x="0 13.7 24.32 36.599998 48.040001 58.66 70.220001 79.139999 91.620003 103.2 114.76 126.2 137.66 150.14 162.62 167.17999 179.46001 191.94 203.38"
         y="0"
         id="tspan228">Стратегический риск</tspan></text><text
       transform="matrix(1,0,0,-1,693,493.0228)"
       style="font-variant:normal;font-weight:300;font-stretch:normal;font-size:20px;font-family:'Rubik Light';-inkscape-font-specification:Rubik-Light;writing-mode:lr-tb;fill:#000000;fill-opacity:1;fill-rule:nonzero;stroke:none"
       id="text242"><tspan
         x="0 11.68 22.84 34.759998 44.880001 55.459999 67.080002 78 89.919998 99.860001 111.78 124.96 135.88 141.03999 152.56 164.17999 175.10001 187.02 200.3 210.88 226.78 237.7 248.42 258.35999 269.20001 279.92001 285.07999 297 302.16 313.67999 324.60001 336.22 346.94 358.45999 369.38 379.5 389.44 401.35999 412.20001 425.38 430.54001 442.16 452.88 462.72 473.56 485.48001 495.42001 507.34 517.71997"
         y="0"
         id="tspan232">Конкурентные преимущества и перспективы развития </tspan><tspan
         x="0 11.68 22.84 36.119999 47.639999 58.360001 70.279999 82.199997 94.120003 99.279999 109.12 119.84 130.67999 142.60001 153.32001 163.7 173.64 178.8 189.96001 199.89999 205.06 214.67799 225.838 239.118 250.638 261.55801 271.49799 282.418 294.33801 306.358 318.27802 330.198 335.358 347.27802 352.43799 363.59799 375.11801 388.298 398.23801 408.95801 414.11801 424.23801 435.45801 450.71799 461.258 472.17801 483.01801 496.198 506.55801"
         y="26.02"
         id="tspan234">Компании зависят от компетенции и опыта ключевых </tspan><tspan
         x="0 13.28 24.200001 36.119999 47.040001 58.560001 73.540001 84.459999 96.080002 107.24 118.08 123.24 135.16 140.32001 152.24001 162.60001 167.75999 178.48 190 201.16 211.88 223.03999 234.38 246.3 257.45999 268.17999 278.12 290.04001 295.20001 306.72 318.34 330.26001 341.10001 352.32001 363.23999 373.35999 384.07999 394.01999 403.54001 408.28 413.44 424.01999 435.54001 446.45999 458.07999 473.06 484.98001 495.82001 506.54001 516.47998 526"
         y="52.040001"
         id="tspan236">менеджеров и их способности привлекать, удерживать </tspan><tspan
         x="0 11.92 17.08 30.360001 41.52 51.459999 63.380001 74.220001 86.139999 97.760002 108.92 119.76 130.48 140.42 149.94 155.10001 165.22 176.06 186.78 198 209.92 223.5 235.42 247.44 259.35999 270.98001 282.14001 292.98001 303.70001 315.62 327.54001 340.72 352.64001 357.79999 369.32001 380.23999 391.85999 402.57999 413.73999 425.66 436.38 447.60001"
         y="78.059998"
         id="tspan238">и мотивировать квалифицированный персонал.</tspan><tspan
         x="0 11.68 22.84 36.119999 48.040001 57.98 68.900002 78.839996 84 95.519997 106.68 111.84 122.56 132.5 144.12 154.84 164.78 175.7 184.06 195.98 206.52 217.44 228.16 237.778 248.938 262.21799 272.798 277.95801 289.478 300.698 311.418 323.33801 335.258 346.87799 358.03799 368.87799 379.59799 391.51801 403.43799 418.698 423.858 436.87799 448.03799 458.87799 469.798 479.73801 490.45801 495.61801 507.138"
         y="117.08"
         id="tspan240">Комитет по стратегическому планированию Совета ди</tspan></text><text
       transform="matrix(1,0,0,-1,1212.058,375.9428)"
       style="font-variant:normal;font-weight:300;font-stretch:normal;font-size:20px;font-family:'Rubik Light';-inkscape-font-specification:Rubik-Light;writing-mode:lr-tb;fill:#000000;fill-opacity:1;fill-rule:nonzero;stroke:none"
       id="text246"><tspan
         x="0"
         y="0"
         id="tspan244">-</tspan></text><text
       transform="matrix(1,0,0,-1,693,349.9228)"
       style="font-variant:normal;font-weight:300;font-stretch:normal;font-size:20px;font-family:'Rubik Light';-inkscape-font-specification:Rubik-Light;writing-mode:lr-tb;fill:#000000;fill-opacity:1;fill-rule:nonzero;stroke:none"
       id="text252"><tspan
         x="0 11.62 22.540001 32.66 42.599998 53.759998 65.379997 76.540001 87.379997 92.540001 104.16 115.08 123.44 133.438 144.658 155.03799 166.658 178.578 189.73801 194.89799 206.51801 217.23801 227.95799 238.67799 251.95799 262.67801 272.61801 284.23801 296.15799 306.99799 317.71799 328.638 338.578 343.73801 355.358 367.27802 377.99799 388.11801 400.03799 404.77802 409.93799 420.77802 431.99799 443.918 454.298 469.55801 485.45801 497.37799 508.298"
         y="0"
         id="tspan248">ректоров регулярно рассматривает риски, влияющие </tspan><tspan
         x="0 11.92 22.639999 27.799999 39.32 50.48 61.200001 71.139999 83.059998 98.040001 108.96 120.88 132.8 143.72 148.88 160.39999 171.358 182.578 190.698 201.858 212.578 224.198 235.358 245.89799 257.81799 270.99799 281.358 286.51801 298.53799 309.37601 320.59601 331.51599 343.436 348.59601 360.276 371.436 384.716 396.23599 406.95599 418.87601 430.79599 442.716 447.47601 452.63599 465.87601 476.59601 488.51599 499.67599"
         y="26.02"
         id="tspan250">на достижение долгосрочных целей Компании. Основ</tspan></text><text
       transform="matrix(1,0,0,-1,1203.516,323.9028)"
       style="font-variant:normal;font-weight:300;font-stretch:normal;font-size:20px;font-family:'Rubik Light';-inkscape-font-specification:Rubik-Light;writing-mode:lr-tb;fill:#000000;fill-opacity:1;fill-rule:nonzero;stroke:none"
       id="text256"><tspan
         x="0"
         y="0"
         id="tspan254">-</tspan></text><text
       transform="matrix(1,0,0,-1,693,297.8828)"
       style="font-variant:normal;font-weight:300;font-stretch:normal;font-size:20px;font-family:'Rubik Light';-inkscape-font-specification:Rubik-Light;writing-mode:lr-tb;fill:#000000;fill-opacity:1;fill-rule:nonzero;stroke:none"
       id="text260"><tspan
         x="0 11.92 23.08 35 40.16 50 60.720001 72.239998 82.959999 93.5 104.42 116.34 121.5 133.17799 144.338 157.618 169.53799 179.478 190.39799 200.338 211.058 216.218 226.59801 237.438 248.658 259.03799 269.95801 279.89801 290.61801 300.99799 306.15799 317.67801 328.83801 340.358 348.47601 359.63599 369.57599 380.73599 391.57599 401.69601 412.41599 417.57599 429.19601 440.116 449.73599 460.896 474.17599 485.09601"
         y="0"
         id="tspan258">ной задачей Комитета является подготовка рекомен</tspan></text><text
       transform="matrix(1,0,0,-1,1190.016,297.8828)"
       style="font-variant:normal;font-weight:300;font-stretch:normal;font-size:20px;font-family:'Rubik Light';-inkscape-font-specification:Rubik-Light;writing-mode:lr-tb;fill:#000000;fill-opacity:1;fill-rule:nonzero;stroke:none"
       id="text264"><tspan
         x="0"
         y="0"
         id="tspan262">-</tspan></text><text
       transform="matrix(1,0,0,-1,693,271.8628)"
       style="font-variant:normal;font-weight:300;font-stretch:normal;font-size:20px;font-family:'Rubik Light';-inkscape-font-specification:Rubik-Light;writing-mode:lr-tb;fill:#000000;fill-opacity:1;fill-rule:nonzero;stroke:none"
       id="text274"><tspan
         x="0 11.52 22.24 34.259998 46.18 58.099998 63.259998 76.279999 87.440002 98.279999 109.2 119.14 129.72 134.88 146.39999 158.32001 169.94 180.86 190.98 200.92 212.08 223.7 234.86 245.7 250.86 262.38 273.60001 283.98001 289.14001 300.66 312.28 324.20001 336.12 346.5 356.44 368.35999 378.73999 383.89999 394.62 408.20001 421.78 432.70001 442.82001 452.76001 464.67999 475.51999 487.44 500.62 510.98001"
         y="0"
         id="tspan266">даций Совету директоров для принятия эффективных </tspan><tspan
         x="0 10.72 20.66 32.279999 43 52.939999 63.860001 72.220001 84.139999 94.68 105.6 116.32 126.44 138.36 148.72 153.88 165.5 176.42 191.8 202.72 214.64 226.56 238.48 243.24001 248.39999 262.39999 273.56 285.17999 295.56 307.07999 318.23999 328.35999 333.51999 347.10001 358.26001 369.88 383.16 395.07999 406.70001 417.85999 428.70001 439.42001 451.34 463.26001 473.64001 478.79999 490.72"
         y="26.02"
         id="tspan268">стратегических решений. Порядок формирования и </tspan><tspan
         x="0 11.62 22.34 33.68 44.84 54.779999 67.959999 73.120003 84.800003 95.959999 109.24 121.16 131.10001 142.02 151.96001 162.67999 167.84 179.46001 190.38 198.218 209.438 220.158 233.438 244.358 256.27802 266.21799 278.138 289.37601 299.616 310.53601 320.47601 331.19601 341.57599 346.73599 357.45599 368.616 379.776 389.716 400.556 411.47601 421.41599 432.13599 442.07599 452.91599 463.496 478.75601 494.65601 506.57599 519.85602"
         y="52.040001"
         id="tspan270">работы Комитета регламентируется соответствующим </tspan><tspan
         x="0 11.52 22.48 33.700001 44.860001 59.84 70.760002 82.68 94.599998 105.52 118.8 123.54 128.7 139.28 149.22 160.06 170.98 182.60001 197.58 209.10001 220.02 231.94 243.86 257.04001 270.32001 275.48001 288.5 299.66 310.5 321.42001 331.35999 342.51999 355.79999 360.95999 372.48001 384.39999 396.01999 406.94 417.06 427 438.16 449.78 460.94 471.78 476.94 488.61401 499.77399"
         y="78.059998"
         id="tspan272">положением, утвержденным Советом директоров Ком</tspan></text><text
       transform="matrix(1,0,0,-1,1206.054,193.8028)"
       style="font-variant:normal;font-weight:300;font-stretch:normal;font-size:20px;font-family:'Rubik Light';-inkscape-font-specification:Rubik-Light;writing-mode:lr-tb;fill:#000000;fill-opacity:1;fill-rule:nonzero;stroke:none"
       id="text278"><tspan
         x="0"
         y="0"
         id="tspan276">-</tspan></text><text
       transform="matrix(1,0,0,-1,693,167.7828)"
       style="font-variant:normal;font-weight:300;font-stretch:normal;font-size:20px;font-family:'Rubik Light';-inkscape-font-specification:Rubik-Light;writing-mode:lr-tb;fill:#000000;fill-opacity:1;fill-rule:nonzero;stroke:none"
       id="text282"><tspan
         x="0 11.52 22.24 34.16 46.080002 58"
         y="0"
         id="tspan280">пании.</tspan></text><text
       transform="matrix(1,0,0,-1,1287,927.2628)"
       style="font-variant:normal;font-weight:500;font-stretch:normal;font-size:20px;font-family:'Rubik Medium';-inkscape-font-specification:Rubik-Medium;writing-mode:lr-tb;fill:#000000;fill-opacity:1;fill-rule:nonzero;stroke:none"
       id="text286"><tspan
         x="0 12.86 24.719999 38.799999 52.880001 64.440002 76.720001 88.300003 99.860001 111.3 122.76 135.24001 146.8 151.36 163.64 176.12 187.56 199.02"
         y="0"
         id="tspan284">Коммерческие риски</tspan></text><text
       transform="matrix(1,0,0,-1,1287,901.0828)"
       style="font-variant:normal;font-weight:300;font-stretch:normal;font-size:20px;font-family:'Rubik Light';-inkscape-font-specification:Rubik-Light;writing-mode:lr-tb;fill:#000000;fill-opacity:1;fill-rule:nonzero;stroke:none"
       id="text312"><tspan
         x="0 11.68 22.84 36.119999 47.639999 58.360001 70.279999 82.199997 92.580002 97.739998 109.66 120.58 131.3 142.22 152.16 157.32001 168.94 180.86 191.58 201.7 213.62 218.78 230.3 241.46001 251.39999 262.32001 273.94 285.85999 291.01999 301.14001 312.35999 327.62 338.16 349.07999 359.92001 373.10001 383.45999 388.62 398.73999 409.95999 421.88 432.79999 444.72 454.66 465.82001 476.66 481.39999"
         y="0"
         id="tspan288">Компания несет риски потери ключевых клиентов, </tspan><tspan
         x="0 10.72 15.88 25.82 36.540001 46.66 61.639999 72.559998 77.720001 89.339996 101.26 111.98 122.1 134.02 138.75999 143.92 154.64 165.48 175.86 185.7 196.42 208.34 220.25999 233.44 244.36 249.52 260.23999 271.39999 276.56 287.28 299.20001 311.12 326.10001 337.01999 348.94 360.85999 371.78 385.06 390.22 400.94 412.45999 424.07999 435.23999 445.95999 456.67999"
         y="26.18"
         id="tspan290">а также риски, связанные со снижением спроса </tspan><tspan
         x="0 11.92 22.639999 27.799999 38.040001 48.759998 59.98 70.559998 78.919998 90.839996"
         y="52.360001"
         id="tspan292">на услуги.</tspan><tspan
         x="0 13.06 18.219999 32.220001 42.32 54.599998 59.759998 70.919998 81.639999 92.220001 108.12 119.04 129.75999 139.7 150.53999 161.75999 172.14 183.06 193 203.72 214.10001 219.25999 230.88 241.25999 252.78 257.94 269.45999 281.07999 292.23999 303.16 313.28 323.22 334.38 345.22 350.38 361.22 366.38 378.39999 389.23599 400.45599 410.836 421.19601 426.35599 436.59601 447.31601 459.23599 470.45599 481.37601 493.29599 505.216 515.59601"
         y="91.540001"
         id="tspan294">В ПГК осуществляется ряд проектов в целях усиления </tspan><tspan
         x="0 10.72 21.559999 32.720001 44.639999 55 60.16 71.779999 84.959999 96.879997 108.04 118.58 130.5 143.67999 154.03999 159.2 170.72 181.88 191.72 203.64 215.66 227.58 239.5"
         y="117.72"
         id="tspan296">своих рыночных позиций:</tspan><tspan
         x="0 7.5999999 18 29.52 40.68 51.52 64.699997 80.080002 91 102.92 114.84 125.76 130.92 141.03999 152.25999 164.17999 175.10001 187.02 196.96001 208.12 219.28 230.89999 242.82001 253.74001 265.66 275.60001 287.51999 299.14001 310.29999 321.14001 331.85999 343.78 355.70001 366.85999 377.57999 387.51999 399.44"
         y="153.89999"
         id="tspan298">• повышение клиентоориентированности </tspan><tspan
         x="18 27.620001 38.779999 52.060001 65.339996 76.260002 87.879997 98.419998 109.34 120.06 129.67799 140.838 148.95799 160.118 165.278 176.618 187.838 198.998 209.118 219.838"
         y="180.08"
         id="tspan300">коммерческого блока;</tspan><tspan
         x="0 7.5999999 18 29.620001 40.34 50.18 61.02 72.940002 82.879997 94.800003 105.72 110.88 123.9 136.7 152.118 161.858 172.578 184.498 195.218 205.158 216.078 229.358 242.53799"
         y="216.25999"
         id="tspan302">• развитие CRM-системы;</tspan><tspan
         x="0 7.5999999 18 29.620001 40.34 50.18 61.799999 72.519997 83.860001 95.019997 104.96 115.08 125.8 130.96001 142.88 148.03999 159.66 170.58 181.3 192.52 204.44 214.28 225 237.02 248.94 259.32001 264.48001 276.39999 287.56 298.39999 311.57999 321.94 327.10001 338.62 350.23999 361.39999 372.92001 383.5 393.62 403.56 414.72 425.56 430.72 441.44"
         y="252.44"
         id="tspan304">• разработка и реализация новых продуктов с </tspan><tspan
         x="18 29.52 41.139999 53.060001 66.339996 77.260002 89.18 100.1 112.02 123.94 134.86 148.14 153.3 165.22 176.38 187.22 200.39999 210.75999 215.92 227.14 238.3 246.66 258.57999 269.29999 279.23999 291.16 301.70001 312.62 323.34 333.45999 345.38 355.73999 360.89999 370.84 381.76001 392.12 404.04001 414.99399 426.21399 437.37399 445.73401 457.65399 469.57401"
         y="278.62"
         id="tspan306">применением новых логистических технологий;</tspan><tspan
         x="0 7.5999999 18 27.84 38.560001 48.68 59.900002 75.160004 85.699997 96.620003 108.54 120.46 131.38 136.53999 148.06 159.01801 170.23801 178.358 189.51801 200.23801 211.858 223.01801 233.558 245.478 258.65799 269.01801 274.17801 283.798 294.95801 306.87799 316.81799 328.43799 339.15799 349.27802 359.21799 370.37799 381.21799 386.37799 397.09799 402.258 412.37799 423.59799 438.858 449.39801 460.31799 471.15799 484.33801 497.61801 509.53799"
         y="314.79999"
         id="tspan308">• заключение долгосрочных контрактов с ключевыми </tspan><tspan
         x="18 28.120001 39.34 51.259998 62.18 74.099998 84.040001 94.760002 108.04 119.96"
         y="340.98001"
         id="tspan310">клиентами.</tspan></text><text
       transform="matrix(1,0,0,-1,1287,507.9228)"
       style="font-variant:normal;font-weight:500;font-stretch:normal;font-size:20px;font-family:'Rubik Medium';-inkscape-font-specification:Rubik-Medium;writing-mode:lr-tb;fill:#000000;fill-opacity:1;fill-rule:nonzero;stroke:none"
       id="text316"><tspan
         x="0 17.860001 30.34 42.82 54.259998 66.739998 78.18 90.040001 101.74 117.1 128.66 133.22 145.5 157.98 169.42 180.88"
         y="0"
         id="tspan314">Финансовые риски</tspan></text><text
       transform="matrix(1,0,0,-1,1287,481.7428)"
       style="font-variant:normal;font-weight:300;font-stretch:normal;font-size:20px;font-family:'Rubik Light';-inkscape-font-specification:Rubik-Light;writing-mode:lr-tb;fill:#000000;fill-opacity:1;fill-rule:nonzero;stroke:none"
       id="text326"><tspan
         x="0 13.06 18.219999 28.459999 39.18 50.400002 61.560001 72.400002 84.32 94.699997 105.06 110.22 122.14 133.06 144.22 155.74001 167.36 178.28 189.8 200.638 211.858 222.778 234.698 246.618 257.77802 268.49799 278.43799 290.358 295.51801 307.43799 312.59799 323.31799 335.23801 347.15799 362.138 373.05801 384.978 396.89801 407.27802 412.43799 423.95801 434.79401 446.01401 457.17401 468.01401 479.17401 491.09399"
         y="0"
         id="tspan318">В условиях неопределенности и снижения деловой </tspan><tspan
         x="0 10.72 20.84 30.780001 42.700001 53.540001 65.459999 76.620003 87.339996 97.279999 109.2 113.94 119.1 129.94 143.12 152.96001 163.8 174.52 186.44 198.36 211.53999 221.89999 227.06 236.67799 247.838 259.45801 270.61801 282.53799 293.258 304.09799 316.01801 327.25601 337.496 348.216 359.37601 372.65601 377.396 382.556 393.396 398.556 409.75601 422.07599 433.276 445.59601 450.75601 458.87601 470.03601 481.556 492.13599"
         y="26.18"
         id="tspan320">активности, вызванных коронавирусом, в 2020 году </tspan><tspan
         x="0 10.84 24.02 35.639999 46.799999 57.52 68.739998 79.900002 85.059998 95.900002 107.12 119.04 129.42 141.34 153.25999 164.17999 169.34 182.92 194.84 206.75999 217.48 229.39999 240.12 251.28 262.12 275.29999 285.66 290.82001 302.44 314.35999 325.07999 334.69601 345.85599 356.69601 361.85599 373.776 384.496 389.65601 400.81601 412.336 423.25601 434.87601 445.59601 457.616 469.53601 480.69601 492.616 504.53601 515.11603 530.37598"
         y="52.360001"
         id="tspan322">выросло влияние финансовых рисков на операционную </tspan><tspan
         x="0 11.52 22.440001 32.82 42.759998 53.599998 64.82 74.339996 86.260002 97.419998 108.14 118.08 127.6 132.75999 144.438 155.59801 168.87801 180.39799 191.118 203.03799 214.95799 226.87801"
         y="78.540001"
         id="tspan324">деятельность Компании.</tspan></text><text
       transform="matrix(1,0,0,-1,1287,350.8428)"
       style="font-variant:normal;font-weight:500;font-stretch:normal;font-size:20px;font-family:'Rubik Medium';-inkscape-font-specification:Rubik-Medium;writing-mode:lr-tb;fill:#000000;fill-opacity:1;fill-rule:nonzero;stroke:none"
       id="text330"><tspan
         x="0 13.44 25.719999 37.279999 49.860001 62.34 72.959999 85.440002 100.8 113.28 117.84 130.12 142.60001 154.03999"
         y="0"
         id="tspan328">Кредитный риск</tspan></text><text
       transform="matrix(1,0,0,-1,1287,324.6628)"
       style="font-variant:normal;font-weight:300;font-stretch:normal;font-size:20px;font-family:'Rubik Light';-inkscape-font-specification:Rubik-Light;writing-mode:lr-tb;fill:#000000;fill-opacity:1;fill-rule:nonzero;stroke:none"
       id="text344"><tspan
         x="0 11.68 22.84 36.119999 47.639999 58.360001 70.279999 82.199997 92.580002 97.739998 109.36 120.28 128.64 138.638 149.858 160.23801 171.858 183.778 194.938 200.09801 211.258 221.198 231.918 243.138 254.058 269.03799 280.95801 291.798 302.51801 313.43799 323.37799 328.53799 340.45801 345.61801 356.198 367.71799 379.33801 390.05801 400.89801 412.11801 422.49799 433.418 443.358"
         y="0"
         id="tspan332">Компания регулярно отслеживает и управляет </tspan><tspan
         x="0 10.72 21.940001 32.860001 44.380001 54.959999 70.220001 86.120003 98.040001 111.32 123.24 128.39999 138.34 150.25999 161.78 172.5 185.78 197.7 202.86 212.98 224.60001 235.52 247.03999 258.95999 268.89999 280.82001 291.98001 300.09601 311.25601 316.41599 328.03601 339.95599 350.67599 360.79599 371.51599 376.336"
         y="26.18"
         id="tspan334">следующими типами кредитного риска: </tspan><tspan
         x="0 7.5999999 18 28.120001 39.740002 50.66 62.18 74.099998 84.040001 95.959999 109.14 121.06 126.22 137.84 149.75999 160.48 170.60001 175.75999 185.37801 196.53799 209.81799 223.09801 234.01801 245.638 256.17801 267.09799 277.81799 287.93799 299.858 310.21799 315.37799 324.996 336.15601 348.07599 358.01599 369.63599 380.35599 388.47601 399.396 411.31601 421.25601 432.41599 443.25601"
         y="65.360001"
         id="tspan336">• кредитный риск коммерческих контрагентов </tspan><tspan
         x="18 29.68 40.84 54.119999 65.639999 76.360001 88.279999 100.2 112.12"
         y="91.540001"
         id="tspan338">Компании;</tspan><tspan
         x="0 7.5999999 18 28.120001 39.740002 50.66 62.18 74.099998 84.040001 95.959999 109.14 121.06 126.22 137.84 149.75999 160.48 170.60001 175.75999 187.10001 197.82001 209.74001 219.358 230.51801 241.358 246.09801 251.258 262.09799 267.258 276.87799 288.03799 297.978 309.138 320.758 333.93799 344.298 349.45801 361.13599 372.29599 385.57599 397.09601 407.81601 419.73599 431.65601 442.03601"
         y="130.72"
         id="tspan340">• кредитный риск банков, в которых Компания </tspan><tspan
         x="18 29.620001 40.34 50.18 63.459999 74.379997 90.279999 101 111.92 121.86 127.02 138.53999 149.46001 161.38 172.3 187.28 199.2 212.38 223.3 228.46001 239.17999 250.8 261.72 273.23999 283.95999 293.89999 304.73999 315.45999"
         y="156.89999"
         id="tspan342">размещает денежные средства.</tspan></text><g
       id="g346"
       transform="translate(220.1209,984)"><path
         d="M 0,0 -9.121,-10.047 0,-20.094 H 27.879 V -10.047 0 Z"
         style="fill:#faaa2d;fill-opacity:1;fill-rule:nonzero;stroke:none"
         id="path348" /></g><text
       transform="matrix(1,0,0,-1,98,968.3599)"
       style="font-variant:normal;font-weight:300;font-stretch:normal;font-size:16px;font-family:'Rubik Light';-inkscape-font-specification:Rubik-Light;writing-mode:lr-tb;fill:#000000;fill-opacity:1;fill-rule:nonzero;stroke:none"
       id="text352"><tspan
         x="0 11.2 19.775999 28.208 36.784 45.759998 54.688 58.816002 68.351997 76.928001 81.056 89.632004 97.584 106.6864 110.4944"
         y="0"
         id="tspan350">Начало на стр. </tspan></text><text
       transform="matrix(1,0,0,-1,220.8784,968.3599)"
       style="font-variant:normal;font-weight:500;font-stretch:normal;font-size:16px;font-family:'Rubik Medium';-inkscape-font-specification:Rubik-Medium;writing-mode:lr-tb;fill:#ffffff;fill-opacity:1;fill-rule:nonzero;stroke:none"
       id="text356"><tspan
         x="0 8.7200003"
         y="0"
         id="tspan354">79</tspan></text><g
       id="g358"
       transform="translate(1818.8792,94.9844)"><path
         d="M 0,0 9.121,10.047 0,20.094 H -27.879 V 10.047 0 Z"
         style="fill:#faaa2d;fill-opacity:1;fill-rule:nonzero;stroke:none"
         id="path360" /></g><text
       transform="matrix(1,0,0,-1,1623,99.4401)"
       style="font-variant:normal;font-weight:300;font-stretch:normal;font-size:16px;font-family:'Rubik Light';-inkscape-font-specification:Rubik-Light;writing-mode:lr-tb;fill:#000000;fill-opacity:1;fill-rule:nonzero;stroke:none"
       id="text364"><tspan
         x="0 11.2 20.496 29.424 38.639999 47.408001 56.383999 68.367996 77.103996 86.639999 96.176003 104.912 109.04 118.576 127.152 131.28 139.856 147.808 156.9104 160.7184"
         y="0"
         id="tspan362">Продолжение на стр. </tspan></text><text
       transform="matrix(1,0,0,-1,1796.1024,99.4401)"
       style="font-variant:normal;font-weight:500;font-stretch:normal;font-size:16px;font-family:'Rubik Medium';-inkscape-font-specification:Rubik-Medium;writing-mode:lr-tb;fill:#ffffff;fill-opacity:1;fill-rule:nonzero;stroke:none"
       id="text368"><tspan
         x="0 10.512"
         y="0"
         id="tspan366">81</tspan></text><text
       transform="matrix(1,0,0,-1,37.1601,1023)"
       style="font-variant:normal;font-weight:300;font-stretch:normal;font-size:20px;font-family:'Rubik Light';-inkscape-font-specification:Rubik-Light;writing-mode:lr-tb;fill:#000000;fill-opacity:1;fill-rule:nonzero;stroke:none"
       id="text372"><tspan
         x="0 12.36"
         y="0"
         id="tspan370">80</tspan></text><g
       id="g374"><g
         id="g376"><g
           id="g378"
           clip-path="url(#clipPath382)"><text
             transform="matrix(1,0,0,-1,99,1023)"
             style="font-variant:normal;font-weight:300;font-stretch:normal;font-size:20px;font-family:'Rubik Light';-inkscape-font-specification:Rubik-Light;writing-mode:lr-tb;fill:#000000;fill-opacity:1;fill-rule:nonzero;stroke:none"
             id="text386"><tspan
               x="0 13.24 18.4 28.02 39.18 52.459999 63.98 74.699997 86.620003 98.540001"
               y="0"
               id="tspan384">О компании</tspan></text></g></g></g></g></svg>
