<?xml version="1.0" encoding="UTF-8" standalone="no"?>
<?xml-stylesheet type="text/css" href="main.css" ?>
<svg
   xmlns:dc="http://purl.org/dc/elements/1.1/"
   xmlns:cc="http://creativecommons.org/ns#"
   xmlns:rdf="http://www.w3.org/1999/02/22-rdf-syntax-ns#"
   xmlns:svg="http://www.w3.org/2000/svg"
   xmlns="http://www.w3.org/2000/svg"
   version="1.1"
   id="svg2"
   xml:space="preserve"
   width="2560"
   height="1440"
   viewBox="0 0 2560 1440"><metadata
     id="metadata8"><rdf:RDF><cc:Work
         rdf:about=""><dc:format>image/svg+xml</dc:format><dc:type
           rdf:resource="http://purl.org/dc/dcmitype/StillImage" /></cc:Work></rdf:RDF></metadata><defs
     id="defs6"><clipPath
       clipPathUnits="userSpaceOnUse"
       id="clipPath20"><path
         d="M 0,1080 H 1920 V 0 H 0 Z"
         id="path18" /></clipPath></defs><g
     id="g10"
     transform="matrix(1.3333333,0,0,-1.3333333,0,1440)"><g
       id="g12"><g
         id="g14"><g
           id="g16"
           clip-path="url(#clipPath20)"><path
             d="M 0,0 H 1920 V 1080 H 0 Z"
             style="fill:#ffffff;fill-opacity:1;fill-rule:nonzero;stroke:none"
             id="path22" /></g></g></g><text
       transform="matrix(1,0,0,-1,99,927.3)"
       style="font-variant:normal;font-weight:300;font-stretch:normal;font-size:20px;font-family:'Rubik Light';-inkscape-font-specification:Rubik-Light;writing-mode:lr-tb;fill:#000000;fill-opacity:1;fill-rule:nonzero;stroke:none"
       id="text26"><tspan
         x="0 10.72 20.66 31.379999 43.299999 55.32 67.239998 77.620003 87.980003 92.720001 97.879997 108.6 113.76 123.7 134.42 144.53999 159.52 170.44 175.60001 186.17999 196.89999 208.12 218.7 227.06 238.98 244.14 255.66 266.82001 271.98001 283.5 295.12 306.28 319.56 332.73999 348.12 359.34 370.26001 382.17999 394.10001 405.26001 417.17999 422.34 434.26001 439.42001 449.54001 460.70001"
         y="0"
         id="tspan24">станциях, а также услуги по промышленной и ком</tspan></text><text
       transform="matrix(1,0,0,-1,572.98,927.3)"
       style="font-variant:normal;font-weight:300;font-stretch:normal;font-size:20px;font-family:'Rubik Light';-inkscape-font-specification:Rubik-Light;writing-mode:lr-tb;fill:#000000;fill-opacity:1;fill-rule:nonzero;stroke:none"
       id="text30"><tspan
         x="0"
         y="0"
         id="tspan28">-</tspan></text><text
       transform="matrix(1,0,0,-1,99,901.1)"
       style="font-variant:normal;font-weight:300;font-stretch:normal;font-size:20px;font-family:'Rubik Light';-inkscape-font-specification:Rubik-Light;writing-mode:lr-tb;fill:#000000;fill-opacity:1;fill-rule:nonzero;stroke:none"
       id="text40"><tspan
         x="0 11.52 22.74 33.66 43.779999 54.5 66.419998 77.580002 89.5 94.660004 105.88 117.04 125.4 137.32001 148.03999 157.98 169.89999 180.02 190.94 195.7 200.86 212.12 222.48 233.06 244.58 259.95999 270.88 282.79999 294.72 305.64001 310.79999 321.51999 333.44 343.38 353.95999 364.67999 376.70001 388.62 400.54001 405.70001 416.54001 421.70001 432.85999 442.79999 454.42001 465.14001 475.85999 487.07999 499"
         y="0"
         id="tspan32">плексной логистике. Ухудшение ситуации в отрасли </tspan><tspan
         x="0 13.28 24.440001 39.419998 50.34 60.279999 65.440002 76.599998 86.720001 97.440002 107.28 118 127.94 137.46001 142.62 153.46001 164.67999 176.60001 186.98 198.89999 210.82001 221.74001 226.89999 238.82001 249.53999 254.7 266.62 277.34 292.72 303.29999 308.45999 319.98001 330.89999 341.28 351.22 362.14001 373.35999 382.88 394.79999 405.95999 416.67999 426.62 436.14001"
         y="26.200001"
         id="tspan34">может оказать влияние на нашу деятельность.</tspan><tspan
         x="0 12.28 23.9 35.060001 48.34 59.259998 64.419998 74.360001 85.519997 93.879997 105.04 109.78 114.94 126.86 136.7 149.98 160.89999 172.82001 183.74001 195.66 207.58 218.5 223.66 232.02 243.17999 253.89999 264.48001 276 286.72 298.34 309.06 319 329.84 340.76001 352.67999 364.60001 377.78 391.06 402.98001 408.14001 419.29999 430.92001 439.28 450 461.92001 472.64001 485.92001 497.84"
         y="65.400002"
         id="tspan36">Кроме того, изменение государственными органами </tspan><tspan
         x="0 9.9399996 20.66 32.279999 44.200001 57.779999 68.940002 79.779999 84.940002 96.860001 107.58 112.74 123.32 134.03999 145.25999 155.84 164.2 176.12 181.28 194.52 207.52 220.75999 225.92 237.98 250.53999 269.67999 283.20001 295.26001 300.42001 312.34 317.5 323.88 335.79999 347.01999 358.94 365.32001 370.48001 381.01999 391.73999 402.45999 412.39999 424.32001 434.85999 446.78 457.94 468.85999 474.01999 485.94 495.78 509.06"
         y="91.599998"
         id="tspan38">тарифов на услуги ОАО «РЖД» и (или) частичное изме</tspan></text><text
       transform="matrix(1,0,0,-1,618.98,809.5)"
       style="font-variant:normal;font-weight:300;font-stretch:normal;font-size:20px;font-family:'Rubik Light';-inkscape-font-specification:Rubik-Light;writing-mode:lr-tb;fill:#000000;fill-opacity:1;fill-rule:nonzero;stroke:none"
       id="text44"><tspan
         x="0"
         y="0"
         id="tspan42">-</tspan></text><text
       transform="matrix(1,0,0,-1,99,783.3)"
       style="font-variant:normal;font-weight:300;font-stretch:normal;font-size:20px;font-family:'Rubik Light';-inkscape-font-specification:Rubik-Light;writing-mode:lr-tb;fill:#000000;fill-opacity:1;fill-rule:nonzero;stroke:none"
       id="text48"><tspan
         x="0 11.92 22.84 34.759998 46.68 57.599998 62.759998 74.279999 85.440002 96.959999 107.54 118.26 128.2 140.12 153.39999 166.58 176.94 182.10001 194.12 205.03999 216.96001 228.12 238.96001 252.14 262.5 267.66 279.17999 291.10001 301.82001 313.34 324.06 333.89999 345.06 356.98001 368.14001 378.98001 383.72 388.88 399.72 404.88 416.5 427.22 440.5 450.62 461.34 471.70001 476.85999 486.98001"
         y="0"
         id="tspan46">нение допустимых ценовых диапазонов, в рамках ко</tspan></text><text
       transform="matrix(1,0,0,-1,597.14,783.3)"
       style="font-variant:normal;font-weight:300;font-stretch:normal;font-size:20px;font-family:'Rubik Light';-inkscape-font-specification:Rubik-Light;writing-mode:lr-tb;fill:#000000;fill-opacity:1;fill-rule:nonzero;stroke:none"
       id="text52"><tspan
         x="0"
         y="0"
         id="tspan50">-</tspan></text><text
       transform="matrix(1,0,0,-1,99,757.1)"
       style="font-variant:normal;font-weight:300;font-stretch:normal;font-size:20px;font-family:'Rubik Light';-inkscape-font-specification:Rubik-Light;writing-mode:lr-tb;fill:#000000;fill-opacity:1;fill-rule:nonzero;stroke:none"
       id="text56"><tspan
         x="0 9.9399996 21.1 32.720001 45.900002 56.259998 61.419998 74.660004 87.660004 100.9 106.06 118.12 130.67999 149.82001 163.34 175.39999 180.56 192.48 203.2 214.72 225.64 236.86 247.78 259.70001 270.85999 276.01999 287.54001 298.70001 309.92001 321.84 333 346.28 357.44 367.98001 379.89999 390.28 403.56 415.48001 420.64001 432.16 443.32001 448.48001 460.39999 470.23999 483.51999 494.44 506.35999"
         y="0"
         id="tspan54">торых ОАО «РЖД» наделено полномочиями по измене</tspan></text><text
       transform="matrix(1,0,0,-1,616.28,757.1)"
       style="font-variant:normal;font-weight:300;font-stretch:normal;font-size:20px;font-family:'Rubik Light';-inkscape-font-specification:Rubik-Light;writing-mode:lr-tb;fill:#000000;fill-opacity:1;fill-rule:nonzero;stroke:none"
       id="text60"><tspan
         x="0"
         y="0"
         id="tspan58">-</tspan></text><text
       transform="matrix(1,0,0,-1,99,730.9)"
       style="font-variant:normal;font-weight:300;font-stretch:normal;font-size:20px;font-family:'Rubik Light';-inkscape-font-specification:Rubik-Light;writing-mode:lr-tb;fill:#000000;fill-opacity:1;fill-rule:nonzero;stroke:none"
       id="text66"><tspan
         x="0 11.92 23.84 39.099998 44.259998 54.84 66.459999 77.620003 88.459999 100.38 110.76 115.92 130.89999 141.82001 153.03999 163.96001 173.8 185.72 196.88 208.39999 219.56 231.17999 242.34 257.32001 269.23999 282.42001 292.78 297.94 307.88 318.60001 330.22 342.14001 355.72 366.88 377.72 382.45999 387.62 399.54001 410.76001 422.67999 427.84 439.76001 449.60001 462.88 473.79999 485.72 496.64001 508.56 520.47998 531.40002"
         y="0"
         id="tspan62">нию уровня железнодорожных тарифов, или изменение </tspan><tspan
         x="0 13.24 26.24 39.48 44.639999 56.700001 69.260002 88.400002 101.92 113.98 119.14 129.08 139.8 151.42 163.34 176.92 188.08 198.92 204.08 214.92 220.08 230.66 240.78 251.5 261.34 272.06 283.98001 295.89999 309.07999 319.44 324.60001 336.12 347.73999 358.66 370.17999 381.10001 392.32001 403.04001 413.39999 418.56 431.84 443 451.35999 461.94 471.88 477.04001 488.95999 498.79999 512.08002"
         y="26.200001"
         id="tspan64">ОАО «РЖД» тарифов в указанных пределах могут изме</tspan></text><text
       transform="matrix(1,0,0,-1,622,704.7)"
       style="font-variant:normal;font-weight:300;font-stretch:normal;font-size:20px;font-family:'Rubik Light';-inkscape-font-specification:Rubik-Light;writing-mode:lr-tb;fill:#000000;fill-opacity:1;fill-rule:nonzero;stroke:none"
       id="text70"><tspan
         x="0"
         y="0"
         id="tspan68">-</tspan></text><text
       transform="matrix(1,0,0,-1,99,678.5)"
       style="font-variant:normal;font-weight:300;font-stretch:normal;font-size:20px;font-family:'Rubik Light';-inkscape-font-specification:Rubik-Light;writing-mode:lr-tb;fill:#000000;fill-opacity:1;fill-rule:nonzero;stroke:none"
       id="text80"><tspan
         x="0 11.92 23.84 33.779999 43.299999 48.459999 60.080002 70.800003 80.639999 93.919998 104.84 116.46 129.64 134.8 146.32001 157.53999 168.25999 178.2 189.12 204.10001 215.02 226.94 232.10001 241.94 252.66 257.82001 269.44 279.82001 291.34 296.5 307.07999 317.79999 329.01999 339.60001 347.95999 352.70001 357.85999 369.38 381 391.92001 403.44 414.60001 425.32001 435.26001 445.98001 456.82001 468.04001 478.42001 489.34 502.62 515.79999 526.15997"
         y="0"
         id="tspan72">нить размеры платежей за ряд услуг, предоставляемых </tspan><tspan
         x="0 10.72 21.879999 27.040001 37.759998 47.700001 58.860001 70.480003 81.639999 93.559998 106.74 111.9 125.14 138.14 151.38 156.53999 168.60001 181.16 200.3 213.82001 225.88 230.62 235.78 247.3 258.45999 269.29999 280.51999 292.44 302.82001 312.76001 322.28 327.44 339.35999 350.07999 355.23999 365.95999 376.54001 389.82001 403.10001 413.67999 418.84 430.45999 441.17999 451.89999 462.26001 473.42001 484.94 496.10001 506.94"
         y="26.200001"
         id="tspan74">со стороны ОАО «РЖД», повлиять на сумму расходов </tspan><tspan
         x="0 12.28 23.440001 36.720001 48.240002 58.959999 70.879997 82.800003 94.720001 99.879997 111.8 122.52 127.68 139.2 150.12 161.74001 172.66 184.17999 196.10001 206.82001 218.03999 229.2 239.32001 250.03999 262.06 273.98001 289.23999 294.39999 305.92001 316.64001 328.26001 338.38 349.10001 354.26001 365.10001 375.82001 384.17999 395.34 407.26001 418.42001 429.26001 434 439.16 449.88 461.79999 473.72 483.56 495.48001 505.42001 514.94"
         y="52.400002"
         id="tspan76">Компании на передислокацию парка вагонов, снизить </tspan><tspan
         x="0 11.52 23.139999 35.060001 45.900002 57.119999 68.040001 78.160004 88.879997 98.82 109.74 120.96 130.48 142.39999 153.56 164.28 174.22 183.74001 188.89999 199.02 210.17999 223.46001 236.74001 247.66 259.28 269.82001 280.73999 291.45999 301.57999 313.5 323.85999 329.01999 339.60001 350.32001 361.54001 372.70001 383.54001 395.45999 407.38 412.12 417.28 428.79999 440.42001 451.34 462.85999 474.07999 484.79999 493.16"
         y="78.599998"
         id="tspan78">привлекательность коммерческих условий, предлага</tspan></text><text
       transform="matrix(1,0,0,-1,602.88,599.9)"
       style="font-variant:normal;font-weight:300;font-stretch:normal;font-size:20px;font-family:'Rubik Light';-inkscape-font-specification:Rubik-Light;writing-mode:lr-tb;fill:#000000;fill-opacity:1;fill-rule:nonzero;stroke:none"
       id="text84"><tspan
         x="0"
         y="0"
         id="tspan82">-</tspan></text><text
       transform="matrix(1,0,0,-1,99,573.7)"
       style="font-variant:normal;font-weight:300;font-stretch:normal;font-size:20px;font-family:'Rubik Light';-inkscape-font-specification:Rubik-Light;writing-mode:lr-tb;fill:#000000;fill-opacity:1;fill-rule:nonzero;stroke:none"
       id="text88"><tspan
         x="0 10.92 24.200001 37.380001 47.740002 52.900002 64.059998 75.580002 86.5 98.120003 108.84 118.78 129.94 141.56 152.28 165.56 177.48 182.64 197.62 208.53999 219.75999 230.67999 240.52 252.44 263.60001 275.12 286.28 297.89999 309.06 324.04001 335.95999 347.12 355.48001 366.64001 371.79999 383.32001 394.48001 406 416.84 428.76001 443.73999 455.66 466.82001 475.17999 486.34 491.5 502.22"
         y="0"
         id="tspan86">емых операторами железнодорожного подвижного со</tspan></text><text
       transform="matrix(1,0,0,-1,612.38,573.7)"
       style="font-variant:normal;font-weight:300;font-stretch:normal;font-size:20px;font-family:'Rubik Light';-inkscape-font-specification:Rubik-Light;writing-mode:lr-tb;fill:#000000;fill-opacity:1;fill-rule:nonzero;stroke:none"
       id="text92"><tspan
         x="0"
         y="0"
         id="tspan90">-</tspan></text><text
       transform="matrix(1,0,0,-1,99,547.5)"
       style="font-variant:normal;font-weight:300;font-stretch:normal;font-size:20px;font-family:'Rubik Light';-inkscape-font-specification:Rubik-Light;writing-mode:lr-tb;fill:#000000;fill-opacity:1;fill-rule:nonzero;stroke:none"
       id="text96"><tspan
         x="0 10.72 20.66 31.379999 42.220001 52.939999 58.099998 68.82 79.660004 90.82 102.74 116.02 121.18 131.89999 142.48 158.38 169.3 180.02 189.96001 200.8 211.38 226.64 242.53999 254.46001 267.73999 272.89999 284.82001 289.98001 301.5 312.66 322.60001 333.51999 345.44 357.45999 369.38 380.10001 391.32001 400.84 412.76001 425.94 439.22 444.38 454.5 465.72 477.64001 488.56"
         y="0"
         id="tspan94">става своим существующим и потенциальным клиен</tspan></text><text
       transform="matrix(1,0,0,-1,599.48,547.5)"
       style="font-variant:normal;font-weight:300;font-stretch:normal;font-size:20px;font-family:'Rubik Light';-inkscape-font-specification:Rubik-Light;writing-mode:lr-tb;fill:#000000;fill-opacity:1;fill-rule:nonzero;stroke:none"
       id="text100"><tspan
         x="0"
         y="0"
         id="tspan98">-</tspan></text><text
       transform="matrix(1,0,0,-1,99,521.3)"
       style="font-variant:normal;font-weight:300;font-stretch:normal;font-size:20px;font-family:'Rubik Light';-inkscape-font-specification:Rubik-Light;writing-mode:lr-tb;fill:#000000;fill-opacity:1;fill-rule:nonzero;stroke:none"
       id="text108"><tspan
         x="0 9.9399996 20.66 33.939999 38.68 43.84 55.759998 60.5 65.660004 75.779999 86.5 96.620003 101.78 112.5 123.72 134.64 146.16 156.88 166.82001 177.66 189.58 200.5 205.24001 210.39999 220.24001 230.96001 240.89999 252.52 263.67999 275.60001 286.17999 296.12 305.64001 310.79999 324.38 336.29999 348.22 358.94 370.85999 381.57999 392.73999 403.57999 414.73999 425.66 430.82001 441.54001 452.70001 463.42001 473.35999 484.51999 494.89999 506.82001 518.73999 529.65997"
         y="0"
         id="tspan102">там, и, как следствие, затронуть финансовое состояние </tspan><tspan
         x="0 11.92 17.08 28.24 39.759998 50.68 62.299999 73.019997 85.040001 96.959999 108.12 120.04 131.96001 145.14 156.06 161.22 172.84 183.75999 193.60001 204.17999 215.39999 224.92 234.86 245.58 255.52 268.70001 273.85999 287.85999 297.95999 310.23999"
         y="26.200001"
         id="tspan104">и операционные результаты ПГК.</tspan><tspan
         x="0 13.02 23.6 39.5 50.419998 61.139999 71.080002 81.919998 92.839996 104.76 116.68 127.84 138.75999 143.92 154.75999 165.98 177.89999 188.28 200.2 212.12 223.03999 228.2 240.12 250.84 256 267.51999 278.44 288.82001 298.76001 309.67999 320.89999 330.42001 342.34 353.5 364.22 374.16 383.67999 388.84 401.12 412.28 425.56 437.07999 447.79999 459.72 471.64001 483.56 488.72 502"
         y="65.400002"
         id="tspan106">Существенное влияние на деятельность Компании мо</tspan></text><text
       transform="matrix(1,0,0,-1,612.16,455.9)"
       style="font-variant:normal;font-weight:300;font-stretch:normal;font-size:20px;font-family:'Rubik Light';-inkscape-font-specification:Rubik-Light;writing-mode:lr-tb;fill:#000000;fill-opacity:1;fill-rule:nonzero;stroke:none"
       id="text112"><tspan
         x="0"
         y="0"
         id="tspan110">-</tspan></text><text
       transform="matrix(1,0,0,-1,99,429.7)"
       style="font-variant:normal;font-weight:300;font-stretch:normal;font-size:20px;font-family:'Rubik Light';-inkscape-font-specification:Rubik-Light;writing-mode:lr-tb;fill:#000000;fill-opacity:1;fill-rule:nonzero;stroke:none"
       id="text116"><tspan
         x="0 14.98 25.9 35.84 41 52.16 62.279999 73 82.839996 93.559998 103.5 113.02 118.18 130.10001 135.25999 145.98 156.89999 168.52 178.03999 188.96001 198.8 210.72 221.88 232.8 237.96001 248.53999 259.38 270.29999 281.51999 293.44 303.98001 314.89999 326.82001 338.73999 349.66 354.82001 365.54001 375.48001 386.64001 398.56 411.84 423 433.72 443.66 455.57999 460.73999 470.57999 481.29999 492.82001 503.54001"
         y="0"
         id="tspan114">жет оказать и серьезное увеличение стоимости запас</tspan></text><text
       transform="matrix(1,0,0,-1,613.26,429.7)"
       style="font-variant:normal;font-weight:300;font-stretch:normal;font-size:20px;font-family:'Rubik Light';-inkscape-font-specification:Rubik-Light;writing-mode:lr-tb;fill:#000000;fill-opacity:1;fill-rule:nonzero;stroke:none"
       id="text120"><tspan
         x="0"
         y="0"
         id="tspan118">-</tspan></text><text
       transform="matrix(1,0,0,-1,99,403.5)"
       style="font-variant:normal;font-weight:300;font-stretch:normal;font-size:20px;font-family:'Rubik Light';-inkscape-font-specification:Rubik-Light;writing-mode:lr-tb;fill:#000000;fill-opacity:1;fill-rule:nonzero;stroke:none"
       id="text130"><tspan
         x="0 11.92 25.1 35.459999 40.619999 51.16 61.880001 72.599998 82.540001 93.459999 105.38 110.54 122.46 133.67999 145.60001 150.75999 162.38 173.3 186.58 197.74001 209.66 219.60001 230.32001 235.48 247 258.16 269.67999 280.51999 292.44 307.42001 319.34 330.5 338.85999 350.01999 355.17999 365.89999 377.06 387.78 397.72 408.44 419.28 430 434.76001 439.92001 453.92001 464.01999 476.29999 481.45999 492.29999"
         y="0"
         id="tspan122">ных частей или ремонта подвижного состава. ПГК в </tspan><tspan
         x="0 11.16 21.879999 33.799999 44.959999 55.799999 67.720001 78.879997 92.160004 97.32 108.84 120.46 132.38 143.53999 154.88 166.5 177.42 187.36 198.08 209 218.94 224.10001 233.94 244.66 256.17999 266.89999 277.62 289.54001 302.72 313.64001 318.79999 329.34 340.06 350.78 360.72 372.64001 377.79999 389.32001 400.54001 410.92001 416.07999 427.60001 438.76001 450.28 461.12 473.04001 488.01999 499.94 511.10001 519.46002 530.62"
         y="26.200001"
         id="tspan124">основном приобретает запасные части для подвижного </tspan><tspan
         x="0 10.72 21.879999 32.599998 42.540001 53.259998 64.099998 74.82 79.980003 90.559998 95.720001 106.44 116.38 127.54 139.16 150.32001 162.24001 174.16 186.08 196.44 201.60001 212.75999 224.38 232.74001 243.46001 255.38 267.29999 277.14001 287.85999 299.88 311.79999 323.72 328.88 340.79999 345.95999 357.88 368.60001 380.12 391.28 402.5 412.01999 421.85999 432.44 443.35999 453.29999 458.45999 469.04001 479.76001 490.98001 501.56 509.92001 521.84003"
         y="52.400002"
         id="tspan126">состава у сторонних организаций и использует услуги </tspan><tspan
         x="0 10.72 20.66 31.82 43.439999 54.599998 66.519997 78.440002 90.360001 100.72 105.88 117.04 128.66 137.02 147.74001 159.66 171.58 181.42 192.14 204.16 216.08 228 233.16 244.67999 255.89999 266.28 271.44 283.06 293.98001 307.26001 318.42001 330.34 340.28 351 356.16 366.88 377.72 388.88 399.79999 408.16 419.32001 424.48001 436 447.16 458.67999 469.51999 481.44 496.42001 508.34"
         y="78.599998"
         id="tspan128">сторонних организаций для ремонта своего подвижно</tspan></text><text
       transform="matrix(1,0,0,-1,618.5,324.9)"
       style="font-variant:normal;font-weight:300;font-stretch:normal;font-size:20px;font-family:'Rubik Light';-inkscape-font-specification:Rubik-Light;writing-mode:lr-tb;fill:#000000;fill-opacity:1;fill-rule:nonzero;stroke:none"
       id="text134"><tspan
         x="0"
         y="0"
         id="tspan132">-</tspan></text><text
       transform="matrix(1,0,0,-1,99,298.7)"
       style="font-variant:normal;font-weight:300;font-stretch:normal;font-size:20px;font-family:'Rubik Light';-inkscape-font-specification:Rubik-Light;writing-mode:lr-tb;fill:#000000;fill-opacity:1;fill-rule:nonzero;stroke:none"
       id="text138"><tspan
         x="0 8.3599997 19.52 24.68 35.400002 46.560001 57.279999 67.220001 77.940002 88.779999 99.5 104.26 109.42 121.7 133.32001 144.48 157.75999 168.67999 173.84 183.78 194.94 203.3 214.46001 219.2 224.36 234.94 249.92 260.84 271.56 281.5 292.66 303.20001 314.12 326.04001 337.95999 348.88 354.04001 363.98001 375.60001 386.51999 397.85999 409.01999 419.85999 430.57999 442.5 454.42001 466.34 471.5 481.62 486.78 496.72 507.64001"
         y="0"
         id="tspan136">го состава. Кроме того, ужесточение требований к тех</tspan></text><text
       transform="matrix(1,0,0,-1,617,298.7)"
       style="font-variant:normal;font-weight:300;font-stretch:normal;font-size:20px;font-family:'Rubik Light';-inkscape-font-specification:Rubik-Light;writing-mode:lr-tb;fill:#000000;fill-opacity:1;fill-rule:nonzero;stroke:none"
       id="text142"><tspan
         x="0"
         y="0"
         id="tspan140">-</tspan></text><text
       transform="matrix(1,0,0,-1,99,272.5)"
       style="font-variant:normal;font-weight:300;font-stretch:normal;font-size:20px;font-family:'Rubik Light';-inkscape-font-specification:Rubik-Light;writing-mode:lr-tb;fill:#000000;fill-opacity:1;fill-rule:nonzero;stroke:none"
       id="text150"><tspan
         x="0 11.92 23.84 34.380001 45.299999 56.02 66.139999 77.300003 90.580002 101.16 106.32 117.04 128.2 138.92 148.86 160.02 170.39999 182.32001 194.24001 209.5 214.66 223.02 234.64 245.22 255.06 266.22 277.06 290.23999 300.60001 305.76001 316.60001 327.32001 335.67999 346.84 358.76001 369.92001 380.76001 385.92001 397.84 403 414.92001 424.76001 438.04001 448.95999 460.88 471.79999 483.72 495.64001 506.56"
         y="0"
         id="tspan144">ническому состоянию грузовых вагонов и изменение </tspan><tspan
         x="0 11.62 22.540001 37.52 49.439999 62.720001 73.440002 78.599998 86.959999 98.120003 108.84 119.42 130.94 141.66 153.28 164 173.94 184.78 195.7 207.62 219.53999 230.7 239.06 250.22 255.38 265.5 276.66 288.57999 298.51999 310.14001 321.29999 332.51999 342.89999 348.06 357.89999 368.62 373.78 385.70001 396.06 401.22 411.16 422.07999 432.44 444.35999 456.28 466.82001 477.73999 488.45999 498.57999 510.5 523.78003"
         y="26.200001"
         id="tspan146">режима государственного контроля за их техническим </tspan><tspan
         x="0 10.72 21.879999 32.599998 42.540001 53.700001 64.080002 76 87.919998 98.839996 112.12 117.28 130.56 141.72 156.7 167.62 177.56 182.72 192.66 203.38 213.5 228.48 239.39999 244.56 255.28 265.85999 281.76001 292.67999 303.39999 313.34 324.17999 335.10001 347.01999 358.94 372.12 385.39999 390.56 401.72 413.06 424.67999 435.39999 445.23999 456.39999 469.67999 474.84 486.35999"
         y="52.400002"
         id="tspan148">состоянием может также существенным образом по</tspan></text><text
       transform="matrix(1,0,0,-1,596.52,220.1)"
       style="font-variant:normal;font-weight:300;font-stretch:normal;font-size:20px;font-family:'Rubik Light';-inkscape-font-specification:Rubik-Light;writing-mode:lr-tb;fill:#000000;fill-opacity:1;fill-rule:nonzero;stroke:none"
       id="text154"><tspan
         x="0"
         y="0"
         id="tspan152">-</tspan></text><text
       transform="matrix(1,0,0,-1,99,193.9)"
       style="font-variant:normal;font-weight:300;font-stretch:normal;font-size:20px;font-family:'Rubik Light';-inkscape-font-specification:Rubik-Light;writing-mode:lr-tb;fill:#000000;fill-opacity:1;fill-rule:nonzero;stroke:none"
       id="text158"><tspan
         x="0 10.84 22.059999 33.98 44.360001 54.299999 63.82 68.980003 80.900002 91.620003 96.779999 108.4 119.32 129.16 139.74001 150.96001 160.48 170.42 181.14 191.08 204.25999 209.42 220.94 231.86 242.24001 252.17999 263.10001 274.32001 283.84 295.76001 306.92001 317.64001 327.57999 339.5 344.66 356.57999 361.73999 373.26001 384.17999 395.79999 406.51999 418.04001 428.95999 439.07999 449.01999 460.94 471.78 484.95999 490.12 501.73999 512.46002"
         y="0"
         id="tspan156">влиять на результаты деятельности и перспективы раз</tspan></text><text
       transform="matrix(1,0,0,-1,621.3,193.9)"
       style="font-variant:normal;font-weight:300;font-stretch:normal;font-size:20px;font-family:'Rubik Light';-inkscape-font-specification:Rubik-Light;writing-mode:lr-tb;fill:#000000;fill-opacity:1;fill-rule:nonzero;stroke:none"
       id="text162"><tspan
         x="0"
         y="0"
         id="tspan160">-</tspan></text><text
       transform="matrix(1,0,0,-1,99,167.7)"
       style="font-variant:normal;font-weight:300;font-stretch:normal;font-size:20px;font-family:'Rubik Light';-inkscape-font-specification:Rubik-Light;writing-mode:lr-tb;fill:#000000;fill-opacity:1;fill-rule:nonzero;stroke:none"
       id="text168"><tspan
         x="0 10.84 22.76 32.700001 44.619999 55 60.16 72.440002 83.599998 96.879997 108.4 119.12 131.03999 142.96001 154.88"
         y="0"
         id="tspan164">вития Компании.</tspan><tspan
         x="594 607.06 612.21997 622.34003 633.06 643.59998 654.52002 665.23999 675.17999 686.02002 696.94 702.09998 714.02002 724.73999 736.65997 748 759.15997 770.38 781.29999 792.21997 797.38 808.09998 818.67999 834.58002 845.5 856.21997 866.15997 877 887.91998 899.84003 911.76001 924.94 935.29999 940.46002 952.38 963.09998 968.26001 979.09998 991.02002 1001.94 1017.32 1029.24 1040.16 1053.4399 1058.6 1070.22 1083.4"
         y="-759.47998"
         id="tspan166">В качестве наиболее существенных на внешнем рын</tspan></text><text
       transform="matrix(1,0,0,-1,1194.32,927.18)"
       style="font-variant:normal;font-weight:300;font-stretch:normal;font-size:20px;font-family:'Rubik Light';-inkscape-font-specification:Rubik-Light;writing-mode:lr-tb;fill:#000000;fill-opacity:1;fill-rule:nonzero;stroke:none"
       id="text172"><tspan
         x="0"
         y="0"
         id="tspan170">-</tspan></text><text
       transform="matrix(1,0,0,-1,693,901.16)"
       style="font-variant:normal;font-weight:300;font-stretch:normal;font-size:20px;font-family:'Rubik Light';-inkscape-font-specification:Rubik-Light;writing-mode:lr-tb;fill:#000000;fill-opacity:1;fill-rule:nonzero;stroke:none"
       id="text176"><tspan
         x="0 10.12 21.040001 26.200001 37.82 49.740002 60.459999 70.580002 81.739998 92.580002 97.739998 111.02 124.2 129.36 140.2 153.38 164.89999 175.82001 187.03999 197.42 208.34 221.62 226.78 236.72 247.64 252.38 257.54001 268.07999 278.01999 289.17999 294.34 305.06 315.89999 326.28 336.12 346.84 358.76001 371.94 377.10001 387.82001 392.98001 404.14001 414.07999 424.79999 435.38 445.32001 456.04001 465.98001 476.82001"
         y="0"
         id="tspan174">ке рисков мы выделяем те, что связаны с отсутстви</tspan></text><text
       transform="matrix(1,0,0,-1,1181.74,901.16)"
       style="font-variant:normal;font-weight:300;font-stretch:normal;font-size:20px;font-family:'Rubik Light';-inkscape-font-specification:Rubik-Light;writing-mode:lr-tb;fill:#000000;fill-opacity:1;fill-rule:nonzero;stroke:none"
       id="text180"><tspan
         x="0"
         y="0"
         id="tspan178">-</tspan></text><text
       transform="matrix(1,0,0,-1,693,875.14)"
       style="font-variant:normal;font-weight:300;font-stretch:normal;font-size:20px;font-family:'Rubik Light';-inkscape-font-specification:Rubik-Light;writing-mode:lr-tb;fill:#000000;fill-opacity:1;fill-rule:nonzero;stroke:none"
       id="text186"><tspan
         x="0 10.92 24.200001 29.360001 40.080002 50.200001 61.360001 73.279999 84.440002 97.720001 109.64 120.18 131.10001 141.82001 151.94 163.10001 175.02 180.17999 192.10001 197.25999 207.98 219.14 231.16 243.08 253.8 265.01999 274.54001 286.45999 297.62 309.54001 314.70001 325.42001 335.35999 346.07999 357.42001 369.34 380.56 390.07999 402 413.16 423.88 433.82001 445.73999 450.89999 461.73999 466.89999 478.51999 488.89999 500.42001 511.34"
         y="0"
         id="tspan182">ем экономической и социальной стабильности в ряде </tspan><tspan
         x="0 8.3599997 19.52 30.24 40.82 52.34 63.060001 74.68 85.400002 95.339996 106.18 110.92 116.08 126.92 132.08 142.2 153.36 163.3 174.46001 186.08 199.25999 209.62 214.78 230.16 242.08 253.7 265.62 277.54001 288.26001 293.42001 304.94 316.56 327.72 338.44 348.38 360 370.72 382.64001 393.35999 403.29999 414.14001 424.85999 430.01999 445 455.92001 467.14001 478.06"
         y="26.02"
         id="tspan184">государств, в которых ширина пространства желез</tspan></text><text
       transform="matrix(1,0,0,-1,1180.9,849.12)"
       style="font-variant:normal;font-weight:300;font-stretch:normal;font-size:20px;font-family:'Rubik Light';-inkscape-font-specification:Rubik-Light;writing-mode:lr-tb;fill:#000000;fill-opacity:1;fill-rule:nonzero;stroke:none"
       id="text190"><tspan
         x="0"
         y="0"
         id="tspan188">-</tspan></text><text
       transform="matrix(1,0,0,-1,693,823.1)"
       style="font-variant:normal;font-weight:300;font-stretch:normal;font-size:20px;font-family:'Rubik Light';-inkscape-font-specification:Rubik-Light;writing-mode:lr-tb;fill:#000000;fill-opacity:1;fill-rule:nonzero;stroke:none"
       id="text194"><tspan
         x="0 11.92 23.08 34.599998 45.759998 57.380001 68.540001 83.519997 95.440002 106.6 118.52 123.68 133.8 144.96001 156.17999 167.10001 179.02 184.17999 194.89999 206.06 216.78 226.72 237.44 248.28 259.5 269.88 280.79999 290.73999 295.89999 303.85999 315.29999 326.5 338.82001 343.98001 357.26001 370.54001 375.70001 382.07999 393.60001 404.32001 415.54001 426.45999 437.38 442.54001 452.48001 463.20001"
         y="0"
         id="tspan192">нодорожной колеи составляет 1520 мм (далее так</tspan></text><text
       transform="matrix(1,0,0,-1,1166.32,823.1)"
       style="font-variant:normal;font-weight:300;font-stretch:normal;font-size:20px;font-family:'Rubik Light';-inkscape-font-specification:Rubik-Light;writing-mode:lr-tb;fill:#000000;fill-opacity:1;fill-rule:nonzero;stroke:none"
       id="text198"><tspan
         x="0"
         y="0"
         id="tspan196">-</tspan></text><text
       transform="matrix(1,0,0,-1,693,797.08)"
       style="font-variant:normal;font-weight:300;font-stretch:normal;font-size:20px;font-family:'Rubik Light';-inkscape-font-specification:Rubik-Light;writing-mode:lr-tb;fill:#000000;fill-opacity:1;fill-rule:nonzero;stroke:none"
       id="text204"><tspan
         x="0 14.98 25.9 31.059999 46.400002 51.560001 63.619999 77.620003 89.239998 100.4 111.12 121.06 132.67999 143.39999 155.32001 166.03999 175.98 186.82001 197.98 203.14 213.25999 224.42 235.64 246.56 258.48001 263.64001 271.60001 283.04001 294.23999 306.56 311.72 325 338.28 350.34 355.07999 360.23999 372.29999 385.32001 395.26001 406.88 417.60001 429.51999 442.70001 447.85999 457.98001 469.14001 480.35999 491.28 503.20001"
         y="0"
         id="tspan200">же — «Пространство колеи 1520 мм», «Страны колеи </tspan><tspan
         x="0 7.96 19.4 30.6 42.919998 48.080002 61.360001 74.639999 86.699997 93.080002 97.839996 103 116.02 127.64 138.56 150.08 162 167.16 178.78 190.7 201.42 211.53999 222.7 233.53999 238.7 249.53999 254.7 265.42001 275.35999 286.51999 298.44 303.60001 311.95999 323.57999 334.16 345.67999 357.20001 368.12 373.28 383.22 393.94 404.06 419.04001 429.95999 435.12 450.45999 455.62 465.73999 476.89999 488.12"
         y="26.02"
         id="tspan202">1520 мм»). Среди рисков в этой группе также — коле</tspan></text><text
       transform="matrix(1,0,0,-1,1192.04,771.06)"
       style="font-variant:normal;font-weight:300;font-stretch:normal;font-size:20px;font-family:'Rubik Light';-inkscape-font-specification:Rubik-Light;writing-mode:lr-tb;fill:#000000;fill-opacity:1;fill-rule:nonzero;stroke:none"
       id="text208"><tspan
         x="0"
         y="0"
         id="tspan206">-</tspan></text><text
       transform="matrix(1,0,0,-1,693,745.04)"
       style="font-variant:normal;font-weight:300;font-stretch:normal;font-size:20px;font-family:'Rubik Light';-inkscape-font-specification:Rubik-Light;writing-mode:lr-tb;fill:#000000;fill-opacity:1;fill-rule:nonzero;stroke:none"
       id="text220"><tspan
         x="0 11.34 22.059999 33.98 45.900002 56.279999 61.439999 72.279999 77.440002 90.720001 102.64 114.26 125.42 136.25999 147.42 159.34 164.5 175.22 185.34 196.5 208.42 219.58 232.86 244.78 254.89999 265.82001 270.56 275.72 286.56 299.73999 309.57999 322.76001 333.60001 344.32001 359.57999 375.48001 387.39999 398.32001 403.48001 415.39999 425.23999 438.51999 449.44 461.35999 472.28 484.20001 496.12 507.04001"
         y="0"
         id="tspan210">бания в мировой экономике, вызывающие изменение </tspan><tspan
         x="0 10.72 22.24 33.860001 45.02 55.740002 66.459999 71.620003 83.540001 94.260002 99.419998 110.58 121.3 133.22 144.38 155.22 167.14 180.32001 191.24001 196.39999 207.92 218.84 230.46001 241.38 252.22 263.38 273.22 285.14001 298.42001 311.60001 322.51999 327.67999 339.20001 350.35999 355.51999 370.5 381.42001 392.64001 403.56 413.39999 425.32001 436.48001 448.39999 453.56 465.07999 476.23999 487.85999 499.01999 507.38 518.29999"
         y="26.02"
         id="tspan212">спроса на основные перевозимые по железной дороге </tspan><tspan
         x="0 9.9399996 21.1 31.940001 42.66 54.279999 67.459999 72.620003 84.540001 95.260002 100.42 111.26 123.18 134.10001 149.48 161.39999 173.32001 183.67999 188.84 200.46001 213.64 225.56 235.67999 246.39999 256.76001 261.92001 273.84 279 290.62 303.79999 315.72 325.84 336.56 346.92001 352.07999 363.70001 374.07999 385.60001 396.32001 401.48001 414.5 424.44 436.06 446.78 458.70001 463.85999 473.98001 485.14001 496.35999 507.28 519.20001"
         y="52.040001"
         id="tspan214">товары на внешних рынках и рынках ряда Стран колеи </tspan><tspan
         x="0 7.96 19.4 30.6 42.919998 48.080002 61.360001 74.639999 79.379997 84.540001 95.379997 106.22 117.14 128.66 139.58 151.5 163.42 174.34 179.5 190.66 199.02 210.64 221.36 233.28 245.2 255.74001 266.66 278.57999 290.5 302.42001 307.57999 317.70001 328.28 339.89999 350.62 362.54001 374.16 385.32001 396.16 406.88 418.79999 430.72 441.10001 446.26001 457.10001 467.82001 476.17999 487.34 499.26001 510.42001 521.26001"
         y="78.059998"
         id="tspan216">1520 мм, введение ограничений курсирования вагонов </tspan><tspan
         x="0 11.52 23.139999 35.060001 46.98 57.700001 69.220001 80.440002 91.360001 106.34 118.26 129.42 140.14 150.08 162 167.16 179.72 190.88 201.60001 212.32001 224.24001 236.16 246.88 257 268.16 280.07999 285.23999 301.73999 312.66 324.17999 335.10001 346.72 357.44 369.45999 381.38 393.29999 398.45999 410.38 421.10001 426.26001 436.20001 447.12 458.73999 470.35999 482.28 492.22"
         y="104.08"
         id="tspan218">принадлежности Российской Федерации на террито</tspan></text><text
       transform="matrix(1,0,0,-1,1196.38,640.96)"
       style="font-variant:normal;font-weight:300;font-stretch:normal;font-size:20px;font-family:'Rubik Light';-inkscape-font-specification:Rubik-Light;writing-mode:lr-tb;fill:#000000;fill-opacity:1;fill-rule:nonzero;stroke:none"
       id="text224"><tspan
         x="0"
         y="0"
         id="tspan222">-</tspan></text><text
       transform="matrix(1,0,0,-1,693,614.94)"
       style="font-variant:normal;font-weight:300;font-stretch:normal;font-size:20px;font-family:'Rubik Light';-inkscape-font-specification:Rubik-Light;writing-mode:lr-tb;fill:#000000;fill-opacity:1;fill-rule:nonzero;stroke:none"
       id="text228"><tspan
         x="0 11.62 23.540001 33.919998 44.279999 49.439999 60.959999 72.580002 83.160004 91.519997 103.44 113.8 118.96 131.98 141.92 153.53999 164.25999 176.17999 181.34 191.46001 202.62 213.84 224.75999 236.67999 241.84 249.8 261.23999 272.44 284.76001 289.92001 303.20001 316.48001"
         y="0"
         id="tspan226">риях других Стран колеи 1520 мм.</tspan></text><text
       transform="matrix(1,0,0,-1,693,555.0601)"
       style="font-variant:normal;font-weight:500;font-stretch:normal;font-size:28px;font-family:'Rubik Medium';-inkscape-font-specification:Rubik-Medium;writing-mode:lr-tb;fill:#000000;fill-opacity:1;fill-rule:nonzero;stroke:none"
       id="text232"><tspan
         x="0 19.152 36.259998 52.416 70.251999 87.695999 109.032 126.476 142.66 158.81599 174.804 190.79201 208.23599 224.392 230.804 248.388 265.272 281.34399 287.75601 306.51599 323.09201 342.776 359.884 375.87201 393.31601 410.76001 428.20401 434.616 451.80801 469.25201 485.23999 501.228"
         y="0"
         id="tspan230">Специфические для Компании риски</tspan></text><text
       transform="matrix(1,0,0,-1,693,519.0428)"
       style="font-variant:normal;font-weight:500;font-stretch:normal;font-size:20px;font-family:'Rubik Medium';-inkscape-font-specification:Rubik-Medium;writing-mode:lr-tb;fill:#000000;fill-opacity:1;fill-rule:nonzero;stroke:none"
       id="text236"><tspan
         x="0 13.68 24.280001 36.560001 47.98 58.580002 70.120003 79.019997 91.480003 103.04 114.58 126 137.42 149.88 162.34 166.92 179.2 191.66 203.08"
         y="0"
         id="tspan234">Стратегический риск</tspan></text><text
       transform="matrix(1,0,0,-1,693,493.0228)"
       style="font-variant:normal;font-weight:300;font-stretch:normal;font-size:20px;font-family:'Rubik Light';-inkscape-font-specification:Rubik-Light;writing-mode:lr-tb;fill:#000000;fill-opacity:1;fill-rule:nonzero;stroke:none"
       id="text248"><tspan
         x="0 12.28 23.440001 35.360001 45.48 56.060001 67.68 78.599998 90.519997 100.46 112.38 125.56 136.48 141.64 153.16 164.78 175.7 187.62 200.89999 211.48 227.38 238.3 249.02 258.95999 269.79999 280.51999 285.67999 297.60001 302.76001 314.28 325.20001 336.82001 347.54001 359.06 369.98001 380.10001 390.04001 401.95999 412.79999 425.98001 431.14001 442.76001 453.48001 463.32001 474.16 486.07999 496.01999 507.94 518.32001"
         y="0"
         id="tspan238">Конкурентные преимущества и перспективы развития </tspan><tspan
         x="0 12.28 23.440001 36.720001 48.240002 58.959999 70.879997 82.800003 94.720001 99.879997 109.72 120.44 131.28 143.2 153.92 164.3 174.24001 179.39999 190.56 200.5 205.66 215.78 226.94 240.22 251.74001 262.66 272.60001 283.51999 295.44 307.45999 319.38 331.29999 336.45999 348.38 353.54001 364.70001 376.22 389.39999 399.34 410.06 415.22 425.34 436.56 451.82001 462.35999 473.28 484.12 497.29999 507.66"
         y="26.02"
         id="tspan240">Компании зависят от компетенции и опыта ключевых </tspan><tspan
         x="0 13.28 24.200001 36.119999 47.040001 58.560001 73.540001 84.459999 96.080002 107.24 118.08 123.24 135.16 140.32001 152.24001 162.60001 167.75999 178.48 190 201.16 211.88 223.03999 234.38 246.3 257.45999 268.17999 278.12 290.04001 295.20001 306.72 318.34 330.26001 341.10001 352.32001 363.23999 373.35999 384.07999 394.01999 403.54001 408.28 413.44 424.01999 435.54001 446.45999 458.07999 473.06 484.98001 495.82001 506.54001 516.47998 526"
         y="52.040001"
         id="tspan242">менеджеров и их способности привлекать, удерживать </tspan><tspan
         x="0 11.92 17.08 30.360001 41.52 51.459999 63.380001 74.220001 86.139999 97.760002 108.92 119.76 130.48 140.42 149.94 155.10001 165.22 176.06 186.78 198 209.92 223.5 235.42 247.44 259.35999 270.98001 282.14001 292.98001 303.70001 315.62 327.54001 340.72 352.64001 357.79999 369.32001 380.23999 391.85999 402.57999 413.73999 425.66 436.38 447.60001"
         y="78.059998"
         id="tspan244">и мотивировать квалифицированный персонал.</tspan><tspan
         x="0 12.28 23.440001 36.720001 48.639999 58.580002 69.5 79.440002 84.599998 96.120003 107.28 112.44 123.16 133.10001 144.72 155.44 165.38 176.3 184.66 196.58 207.12 218.03999 228.75999 238.88 250.03999 263.32001 273.89999 279.06 290.57999 301.79999 312.51999 324.44 336.35999 347.98001 359.14001 369.98001 380.70001 392.62 404.54001 419.79999 424.95999 437.98001 449.14001 459.98001 470.89999 480.84 491.56 496.72 508.23999"
         y="117.08"
         id="tspan246">Комитет по стратегическому планированию Совета ди</tspan></text><text
       transform="matrix(1,0,0,-1,1213.16,375.9428)"
       style="font-variant:normal;font-weight:300;font-stretch:normal;font-size:20px;font-family:'Rubik Light';-inkscape-font-specification:Rubik-Light;writing-mode:lr-tb;fill:#000000;fill-opacity:1;fill-rule:nonzero;stroke:none"
       id="text252"><tspan
         x="0"
         y="0"
         id="tspan250">-</tspan></text><text
       transform="matrix(1,0,0,-1,693,349.9228)"
       style="font-variant:normal;font-weight:300;font-stretch:normal;font-size:20px;font-family:'Rubik Light';-inkscape-font-specification:Rubik-Light;writing-mode:lr-tb;fill:#000000;fill-opacity:1;fill-rule:nonzero;stroke:none"
       id="text258"><tspan
         x="0 11.62 22.540001 32.66 42.599998 53.759998 65.379997 76.540001 87.379997 92.540001 104.16 115.08 123.44 134.02 145.24001 155.62 167.24001 179.16 190.32001 195.48 207.10001 217.82001 228.53999 239.25999 252.53999 263.26001 273.20001 284.82001 296.73999 307.57999 318.29999 329.22 339.16 344.32001 355.94 367.85999 378.57999 388.70001 400.62 405.35999 410.51999 421.35999 432.57999 444.5 454.88 470.14001 486.04001 497.95999 508.88"
         y="0"
         id="tspan254">ректоров регулярно рассматривает риски, влияющие </tspan><tspan
         x="0 11.92 22.639999 27.799999 39.32 50.48 61.200001 71.139999 83.059998 98.040001 108.96 120.88 132.8 143.72 148.88 160.39999 171.56 182.78 191.14 202.3 213.02 224.64 235.8 246.34 258.26001 271.44 281.79999 286.95999 298.98001 309.89999 321.12 332.04001 343.95999 349.12 361.39999 372.56 385.84 397.35999 408.07999 420 431.92001 443.84 448.60001 453.76001 467 477.72 489.64001 500.79999"
         y="26.02"
         id="tspan256">на достижение долгосрочных целей Компании. Основ</tspan></text><text
       transform="matrix(1,0,0,-1,1204.64,323.9028)"
       style="font-variant:normal;font-weight:300;font-stretch:normal;font-size:20px;font-family:'Rubik Light';-inkscape-font-specification:Rubik-Light;writing-mode:lr-tb;fill:#000000;fill-opacity:1;fill-rule:nonzero;stroke:none"
       id="text262"><tspan
         x="0"
         y="0"
         id="tspan260">-</tspan></text><text
       transform="matrix(1,0,0,-1,693,297.8828)"
       style="font-variant:normal;font-weight:300;font-stretch:normal;font-size:20px;font-family:'Rubik Light';-inkscape-font-specification:Rubik-Light;writing-mode:lr-tb;fill:#000000;fill-opacity:1;fill-rule:nonzero;stroke:none"
       id="text266"><tspan
         x="0 11.92 23.08 35 40.16 50 60.720001 72.239998 82.959999 93.5 104.42 116.34 121.5 133.78 144.94 158.22 170.14 180.08 191 200.94 211.66 216.82001 227.2 238.03999 249.25999 259.64001 270.56 280.5 291.22 301.60001 306.76001 318.28 329.44 340.95999 349.32001 360.48001 370.42001 381.57999 392.42001 402.54001 413.26001 418.42001 430.04001 440.95999 451.07999 462.23999 475.51999 486.44"
         y="0"
         id="tspan264">ной задачей Комитета является подготовка рекомен</tspan></text><text
       transform="matrix(1,0,0,-1,1191.36,297.8828)"
       style="font-variant:normal;font-weight:300;font-stretch:normal;font-size:20px;font-family:'Rubik Light';-inkscape-font-specification:Rubik-Light;writing-mode:lr-tb;fill:#000000;fill-opacity:1;fill-rule:nonzero;stroke:none"
       id="text270"><tspan
         x="0"
         y="0"
         id="tspan268">-</tspan></text><text
       transform="matrix(1,0,0,-1,693,271.8628)"
       style="font-variant:normal;font-weight:300;font-stretch:normal;font-size:20px;font-family:'Rubik Light';-inkscape-font-specification:Rubik-Light;writing-mode:lr-tb;fill:#000000;fill-opacity:1;fill-rule:nonzero;stroke:none"
       id="text280"><tspan
         x="0 11.52 22.24 34.259998 46.18 58.099998 63.259998 76.279999 87.440002 98.279999 109.2 119.14 129.72 134.88 146.39999 158.32001 169.94 180.86 190.98 200.92 212.08 223.7 234.86 245.7 250.86 262.38 273.60001 283.98001 289.14001 300.66 312.28 324.20001 336.12 346.5 356.44 368.35999 378.73999 383.89999 394.62 408.20001 421.78 432.70001 442.82001 452.76001 464.67999 475.51999 487.44 500.62 510.98001"
         y="0"
         id="tspan272">даций Совету директоров для принятия эффективных </tspan><tspan
         x="0 10.72 20.66 32.279999 43 52.939999 63.860001 72.220001 84.139999 94.68 105.6 116.32 126.44 138.36 148.72 153.88 165.5 176.42 191.8 202.72 214.64 226.56 238.48 243.24001 248.39999 262.39999 273.56 285.17999 295.56 307.07999 318.23999 328.35999 333.51999 347.10001 358.26001 369.88 383.16 395.07999 406.70001 417.85999 428.70001 439.42001 451.34 463.26001 473.64001 478.79999 490.72"
         y="26.02"
         id="tspan274">стратегических решений. Порядок формирования и </tspan><tspan
         x="0 11.62 22.34 33.68 44.84 54.779999 67.959999 73.120003 85.400002 96.559998 109.84 121.76 131.7 142.62 152.56 163.28 168.44 180.06 190.98 199.34 210.56 221.28 234.56 245.48 257.39999 267.34 279.26001 290.88 301.45999 312.38 322.32001 333.04001 343.42001 348.57999 359.29999 370.45999 381.62 391.56 402.39999 413.32001 423.26001 433.98001 443.92001 454.76001 465.34 480.60001 496.5 508.42001 521.70001"
         y="52.040001"
         id="tspan276">работы Комитета регламентируется соответствующим </tspan><tspan
         x="0 11.52 22.68 33.900002 45.060001 60.040001 70.959999 82.879997 94.800003 105.72 119 123.74 128.89999 139.48 149.42 160.25999 171.17999 182.8 197.78 209.3 220.22 232.14 244.06 257.23999 270.51999 275.67999 288.70001 299.85999 310.70001 321.62 331.56 342.72 356 361.16 372.67999 384.60001 396.22 407.14001 417.26001 427.20001 438.35999 449.98001 461.14001 471.98001 477.14001 489.42001 500.57999"
         y="78.059998"
         id="tspan278">положением, утвержденным Советом директоров Ком</tspan></text><text
       transform="matrix(1,0,0,-1,1206.86,193.8028)"
       style="font-variant:normal;font-weight:300;font-stretch:normal;font-size:20px;font-family:'Rubik Light';-inkscape-font-specification:Rubik-Light;writing-mode:lr-tb;fill:#000000;fill-opacity:1;fill-rule:nonzero;stroke:none"
       id="text284"><tspan
         x="0"
         y="0"
         id="tspan282">-</tspan></text><text
       transform="matrix(1,0,0,-1,693,167.7828)"
       style="font-variant:normal;font-weight:300;font-stretch:normal;font-size:20px;font-family:'Rubik Light';-inkscape-font-specification:Rubik-Light;writing-mode:lr-tb;fill:#000000;fill-opacity:1;fill-rule:nonzero;stroke:none"
       id="text288"><tspan
         x="0 11.52 22.24 34.16 46.080002 58"
         y="0"
         id="tspan286">пании.</tspan></text><text
       transform="matrix(1,0,0,-1,1287,927.2628)"
       style="font-variant:normal;font-weight:500;font-stretch:normal;font-size:20px;font-family:'Rubik Medium';-inkscape-font-specification:Rubik-Medium;writing-mode:lr-tb;fill:#000000;fill-opacity:1;fill-rule:nonzero;stroke:none"
       id="text292"><tspan
         x="0 13.4 25.24 39.299999 53.360001 64.900002 77.18 88.739998 100.28 111.7 123.12 135.58 147.12 151.7 163.98 176.44 187.86 199.28"
         y="0"
         id="tspan290">Коммерческие риски</tspan></text><text
       transform="matrix(1,0,0,-1,1287,901.0828)"
       style="font-variant:normal;font-weight:300;font-stretch:normal;font-size:20px;font-family:'Rubik Light';-inkscape-font-specification:Rubik-Light;writing-mode:lr-tb;fill:#000000;fill-opacity:1;fill-rule:nonzero;stroke:none"
       id="text318"><tspan
         x="0 12.28 23.440001 36.720001 48.240002 58.959999 70.879997 82.800003 93.18 98.339996 110.26 121.18 131.89999 142.82001 152.75999 157.92 169.53999 181.46001 192.17999 202.3 214.22 219.38 230.89999 242.06 252 262.92001 274.54001 286.45999 291.62 301.73999 312.95999 328.22 338.76001 349.67999 360.51999 373.70001 384.06 389.22 399.34 410.56 422.48001 433.39999 445.32001 455.26001 466.42001 477.26001 482"
         y="0"
         id="tspan294">Компания несет риски потери ключевых клиентов, </tspan><tspan
         x="0 10.72 15.88 25.82 36.540001 46.66 61.639999 72.559998 77.720001 89.339996 101.26 111.98 122.1 134.02 138.75999 143.92 154.64 165.48 175.86 185.7 196.42 208.34 220.25999 233.44 244.36 249.52 260.23999 271.39999 276.56 287.28 299.20001 311.12 326.10001 337.01999 348.94 360.85999 371.78 385.06 390.22 400.94 412.45999 424.07999 435.23999 445.95999 456.67999"
         y="26.18"
         id="tspan296">а также риски, связанные со снижением спроса </tspan><tspan
         x="0 11.92 22.639999 27.799999 38.380001 49.099998 60.32 70.900002 79.260002 91.18"
         y="52.360001"
         id="tspan298">на услуги.</tspan><tspan
         x="0 13.06 18.219999 32.220001 42.32 54.599998 59.759998 70.919998 81.639999 92.220001 108.12 119.04 129.75999 139.7 150.53999 161.75999 172.14 183.06 193 203.72 214.10001 219.25999 230.88 241.25999 252.78 257.94 269.45999 281.07999 292.23999 303.16 313.28 323.22 334.38 345.22 350.38 361.22 366.38 378.39999 389.32001 400.54001 410.92001 421.28 426.44 437.01999 447.73999 459.66 470.88 481.79999 493.72 505.64001 516.02002"
         y="91.540001"
         id="tspan300">В ПГК осуществляется ряд проектов в целях усиления </tspan><tspan
         x="0 10.72 21.559999 32.720001 44.639999 55 60.16 71.779999 84.959999 96.879997 108.04 118.58 130.5 143.67999 154.03999 159.2 170.72 181.88 191.72 203.64 215.66 227.58 239.5"
         y="117.72"
         id="tspan302">своих рыночных позиций:</tspan><tspan
         x="0 7.5999999 18 29.52 40.68 51.52 64.699997 80.080002 91 102.92 114.84 125.76 130.92 141.03999 152.25999 164.17999 175.10001 187.02 196.96001 208.12 219.28 230.89999 242.82001 253.74001 265.66 275.60001 287.51999 299.14001 310.29999 321.14001 331.85999 343.78 355.70001 366.85999 377.57999 387.51999 399.44"
         y="153.89999"
         id="tspan304">• повышение клиентоориентированности </tspan><tspan
         x="18 28.120001 39.279999 52.560001 65.839996 76.760002 88.379997 98.919998 109.84 120.56 130.67999 141.84 150.2 161.36 166.52 177.86 189.08 200.24001 210.36 221.08"
         y="180.08"
         id="tspan306">коммерческого блока;</tspan><tspan
         x="0 7.5999999 18 29.620001 40.34 50.18 61.02 72.940002 82.879997 94.800003 105.72 110.88 123.9 136.7 152.3 162.03999 172.75999 184.67999 195.39999 205.34 216.25999 229.53999 242.72"
         y="216.25999"
         id="tspan308">• развитие CRM-системы;</tspan><tspan
         x="0 7.5999999 18 29.620001 40.34 50.18 61.799999 72.519997 83.860001 95.019997 104.96 115.08 125.8 130.96001 142.88 148.03999 159.66 170.58 181.3 192.52 204.44 214.28 225 237.02 248.94 259.32001 264.48001 276.39999 287.56 298.39999 311.57999 321.94 327.10001 338.62 350.23999 361.39999 372.92001 383.5 393.62 403.56 414.72 425.56 430.72 441.44"
         y="252.44"
         id="tspan310">• разработка и реализация новых продуктов с </tspan><tspan
         x="18 29.52 41.139999 53.060001 66.339996 77.260002 89.18 100.1 112.02 123.94 134.86 148.14 153.3 165.22 176.38 187.22 200.39999 210.75999 215.92 227.14 238.3 246.66 258.57999 269.29999 279.23999 291.16 301.70001 312.62 323.34 333.45999 345.38 355.73999 360.89999 370.84 381.76001 392.12 404.04001 415.20001 426.42001 437.57999 445.94 457.85999 469.78"
         y="278.62"
         id="tspan312">применением новых логистических технологий;</tspan><tspan
         x="0 7.5999999 18 27.84 38.560001 48.68 59.900002 75.160004 85.699997 96.620003 108.54 120.46 131.38 136.53999 148.06 159.22 170.44 178.8 189.96001 200.67999 212.3 223.46001 234 245.92 259.10001 269.45999 274.62 284.73999 295.89999 307.82001 317.76001 329.38 340.10001 350.22 360.16 371.32001 382.16 387.32001 398.04001 403.20001 413.32001 424.54001 439.79999 450.34 461.26001 472.10001 485.28 498.56 510.48001"
         y="314.79999"
         id="tspan314">• заключение долгосрочных контрактов с ключевыми </tspan><tspan
         x="18 28.120001 39.34 51.259998 62.18 74.099998 84.040001 94.760002 108.04 119.96"
         y="340.98001"
         id="tspan316">клиентами.</tspan></text><text
       transform="matrix(1,0,0,-1,1287,507.9228)"
       style="font-variant:normal;font-weight:500;font-stretch:normal;font-size:20px;font-family:'Rubik Medium';-inkscape-font-specification:Rubik-Medium;writing-mode:lr-tb;fill:#000000;fill-opacity:1;fill-rule:nonzero;stroke:none"
       id="text322"><tspan
         x="0 17.84 30.299999 42.759998 54.18 66.639999 78.059998 89.900002 101.56 116.86 128.39999 132.98 145.25999 157.72 169.14 180.56"
         y="0"
         id="tspan320">Финансовые риски</tspan></text><text
       transform="matrix(1,0,0,-1,1287,481.7428)"
       style="font-variant:normal;font-weight:300;font-stretch:normal;font-size:20px;font-family:'Rubik Light';-inkscape-font-specification:Rubik-Light;writing-mode:lr-tb;fill:#000000;fill-opacity:1;fill-rule:nonzero;stroke:none"
       id="text332"><tspan
         x="0 13.06 18.219999 28.799999 39.52 50.740002 61.900002 72.739998 84.660004 95.040001 105.4 110.56 122.48 133.39999 144.56 156.08 167.7 178.62 190.14 201.06 212.28 223.2 235.12 247.03999 258.20001 268.92001 278.85999 290.78 295.94 307.85999 313.01999 323.73999 335.66 347.57999 362.56 373.48001 385.39999 397.32001 407.70001 412.85999 424.38 435.29999 446.51999 457.67999 468.51999 479.67999 491.60001"
         y="0"
         id="tspan324">В условиях неопределенности и снижения деловой </tspan><tspan
         x="0 10.72 20.84 30.780001 42.700001 53.540001 65.459999 76.620003 87.339996 97.279999 109.2 113.94 119.1 129.94 143.12 152.96001 163.8 174.52 186.44 198.36 211.53999 221.89999 227.06 237.17999 248.34 259.95999 271.12 283.04001 293.76001 304.60001 316.51999 328.14001 338.72 349.44 360.60001 373.88 378.62 383.78 394.62 399.78 410.98001 423.29999 434.5 446.82001 451.98001 460.34 471.5 483.01999 493.60001"
         y="26.18"
         id="tspan326">активности, вызванных коронавирусом, в 2020 году </tspan><tspan
         x="0 10.84 24.02 35.639999 46.799999 57.52 68.739998 79.900002 85.059998 95.900002 107.12 119.04 129.42 141.34 153.25999 164.17999 169.34 182.92 194.84 206.75999 217.48 229.39999 240.12 251.28 262.12 275.29999 285.66 290.82001 302.44 314.35999 325.07999 335.20001 346.35999 357.20001 362.35999 374.28 385 390.16 401.32001 412.84 423.76001 435.38 446.10001 458.12 470.04001 481.20001 493.12 505.04001 515.62 530.88"
         y="52.360001"
         id="tspan328">выросло влияние финансовых рисков на операционную </tspan><tspan
         x="0 11.52 22.440001 32.82 42.759998 53.68 64.900002 74.419998 86.339996 97.5 108.22 118.16 127.68 132.84 145.12 156.28 169.56 181.08 191.8 203.72 215.64 227.56"
         y="78.540001"
         id="tspan330">деятельность Компании.</tspan></text><text
       transform="matrix(1,0,0,-1,1287,350.8428)"
       style="font-variant:normal;font-weight:500;font-stretch:normal;font-size:20px;font-family:'Rubik Medium';-inkscape-font-specification:Rubik-Medium;writing-mode:lr-tb;fill:#000000;fill-opacity:1;fill-rule:nonzero;stroke:none"
       id="text336"><tspan
         x="0 13.4 25.68 37.220001 49.779999 62.240002 72.839996 85.300003 100.6 113.06 117.64 129.92 142.38 153.8"
         y="0"
         id="tspan334">Кредитный риск</tspan></text><text
       transform="matrix(1,0,0,-1,1287,324.6628)"
       style="font-variant:normal;font-weight:300;font-stretch:normal;font-size:20px;font-family:'Rubik Light';-inkscape-font-specification:Rubik-Light;writing-mode:lr-tb;fill:#000000;fill-opacity:1;fill-rule:nonzero;stroke:none"
       id="text350"><tspan
         x="0 12.28 23.440001 36.720001 48.240002 58.959999 70.879997 82.800003 93.18 98.339996 109.96 120.88 129.24001 139.82001 151.03999 161.42 173.03999 184.96001 196.12 201.28 212.44 222.38 233.10001 244.32001 255.24001 270.22 282.14001 292.98001 303.70001 314.62 324.56 329.72 341.64001 346.79999 357.38 368.89999 380.51999 391.23999 402.07999 413.29999 423.67999 434.60001 444.54001"
         y="0"
         id="tspan338">Компания регулярно отслеживает и управляет </tspan><tspan
         x="0 10.72 21.940001 32.860001 44.380001 54.959999 70.220001 86.120003 98.040001 111.32 123.24 128.39999 138.34 150.25999 161.78 172.5 185.78 197.7 202.86 212.98 224.60001 235.52 247.03999 258.95999 268.89999 280.82001 291.98001 300.34 311.5 316.66 328.28 340.20001 350.92001 361.04001 371.76001 376.57999"
         y="26.18"
         id="tspan340">следующими типами кредитного риска: </tspan><tspan
         x="0 7.5999999 18 28.120001 39.740002 50.66 62.18 74.099998 84.040001 95.959999 109.14 121.06 126.22 137.84 149.75999 160.48 170.60001 175.75999 185.88 197.03999 210.32001 223.60001 234.52 246.14 256.67999 267.60001 278.32001 288.44 300.35999 310.72 315.88 326 337.16 349.07999 359.01999 370.64001 381.35999 389.72 400.64001 412.56 422.5 433.66 444.5"
         y="65.360001"
         id="tspan342">• кредитный риск коммерческих контрагентов </tspan><tspan
         x="18 30.280001 41.439999 54.720001 66.239998 76.959999 88.879997 100.8 112.72"
         y="91.540001"
         id="tspan344">Компании;</tspan><tspan
         x="0 7.5999999 18 28.120001 39.740002 50.66 62.18 74.099998 84.040001 95.959999 109.14 121.06 126.22 137.84 149.75999 160.48 170.60001 175.75999 187.10001 197.82001 209.74001 219.86 231.02 241.86 246.60001 251.75999 262.60001 267.76001 277.88 289.04001 298.98001 310.14001 321.76001 334.94 345.29999 350.45999 362.73999 373.89999 387.17999 398.70001 409.42001 421.34 433.26001 443.64001"
         y="130.72"
         id="tspan346">• кредитный риск банков, в которых Компания </tspan><tspan
         x="18 29.620001 40.34 50.18 63.459999 74.379997 90.279999 101 111.92 121.86 127.02 138.53999 149.46001 161.38 172.3 187.28 199.2 212.38 223.3 228.46001 239.17999 250.8 261.72 273.23999 283.95999 293.89999 304.73999 315.45999"
         y="156.89999"
         id="tspan348">размещает денежные средства.</tspan></text><g
       id="g352"
       transform="translate(220.1209,984)"><path
         d="M 0,0 -9.121,-10.047 0,-20.094 H 27.879 V -10.047 0 Z"
         style="fill:#f0f0f5;fill-opacity:1;fill-rule:nonzero;stroke:none"
         id="path354" /></g><text
       transform="matrix(1,0,0,-1,98,968.3599)"
       style="font-variant:normal;font-weight:300;font-stretch:normal;font-size:16px;font-family:'Rubik Light';-inkscape-font-specification:Rubik-Light;writing-mode:lr-tb;fill:#000000;fill-opacity:1;fill-rule:nonzero;stroke:none"
       id="text358"><tspan
         x="0 11.2 19.775999 28.208 36.784 45.759998 54.688 58.816002 68.351997 76.928001 81.056 89.632004 97.584 106.88 110.688"
         y="0"
         id="tspan356">Начало на стр. </tspan></text><text
       transform="matrix(1,0,0,-1,221.072,968.3599)"
       style="font-variant:normal;font-weight:500;font-stretch:normal;font-size:16px;font-family:'Rubik Medium';-inkscape-font-specification:Rubik-Medium;writing-mode:lr-tb;fill:#000000;fill-opacity:1;fill-rule:nonzero;stroke:none"
       id="text362"><tspan
         x="0 10.496"
         y="0"
         id="tspan360">81</tspan></text><g
       id="g364"
       transform="translate(1818.8792,94.9844)"><path
         d="M 0,0 9.121,10.047 0,20.094 H -27.879 V 10.047 0 Z"
         style="fill:#f0f0f5;fill-opacity:1;fill-rule:nonzero;stroke:none"
         id="path366" /></g><text
       transform="matrix(1,0,0,-1,1623,99.4401)"
       style="font-variant:normal;font-weight:300;font-stretch:normal;font-size:16px;font-family:'Rubik Light';-inkscape-font-specification:Rubik-Light;writing-mode:lr-tb;fill:#000000;fill-opacity:1;fill-rule:nonzero;stroke:none"
       id="text370"><tspan
         x="0 11.2 20.496 29.424 38.639999 47.568001 56.543999 68.528 77.264 86.800003 96.335999 105.072 109.2 118.736 127.312 131.44 140.01601 147.968 157.26401 161.07201"
         y="0"
         id="tspan368">Продолжение на стр. </tspan></text><text
       transform="matrix(1,0,0,-1,1796.456,99.4401)"
       style="font-variant:normal;font-weight:500;font-stretch:normal;font-size:16px;font-family:'Rubik Medium';-inkscape-font-specification:Rubik-Medium;writing-mode:lr-tb;fill:#000000;fill-opacity:1;fill-rule:nonzero;stroke:none"
       id="text374"><tspan
         x="0 10.496"
         y="0"
         id="tspan372">83</tspan></text><text
       transform="matrix(1,0,0,-1,37.7201,1023)"
       style="font-variant:normal;font-weight:300;font-stretch:normal;font-size:20px;font-family:'Rubik Light';-inkscape-font-specification:Rubik-Light;writing-mode:lr-tb;fill:#000000;fill-opacity:1;fill-rule:nonzero;stroke:none"
       id="text378"><tspan
         x="0 12.36 61.279999 73.559998 84.720001 96.339996 107.86 119.02 130.64 141.36 151.3 163.22 174.06 185.98 197.14 208.06 213.22 223.8 235.32001 246.94 257.66 268.5 279.72 290.64001 302.56 314.48001"
         y="0"
         id="tspan376">82Корпоративное управление</tspan></text></g></svg>
