<?xml version="1.0" encoding="UTF-8" standalone="no"?>
<?xml-stylesheet type="text/css" href="main.css" ?>
<svg
   xmlns:dc="http://purl.org/dc/elements/1.1/"
   xmlns:cc="http://creativecommons.org/ns#"
   xmlns:rdf="http://www.w3.org/1999/02/22-rdf-syntax-ns#"
   xmlns:svg="http://www.w3.org/2000/svg"
   xmlns="http://www.w3.org/2000/svg"
   version="1.1"
   id="svg2"
   xml:space="preserve"
   width="2560"
   height="1440"
   viewBox="0 0 2560 1440"><metadata
     id="metadata8"><rdf:RDF><cc:Work
         rdf:about=""><dc:format>image/svg+xml</dc:format><dc:type
           rdf:resource="http://purl.org/dc/dcmitype/StillImage" /></cc:Work></rdf:RDF></metadata><defs
     id="defs6"><clipPath
       clipPathUnits="userSpaceOnUse"
       id="clipPath20"><path
         d="M 0,1080 H 1920 V 0 H 0 Z"
         id="path18" /></clipPath><clipPath
       clipPathUnits="userSpaceOnUse"
       id="clipPath250"><path
         d="M 0,1080 H 1920 V 0 H 0 Z"
         id="path248" /></clipPath></defs><g
     id="g10"
     transform="matrix(1.3333333,0,0,-1.3333333,0,1440)"><g
       id="g12"><g
         id="g14"><g
           id="g16"
           clip-path="url(#clipPath20)"><path
             d="M 0,0 H 1920 V 1080 H 0 Z"
             style="fill:#ffffff;fill-opacity:1;fill-rule:nonzero;stroke:none"
             id="path22" /></g></g></g><text
       transform="matrix(1,0,0,-1,99,927.3)"
       style="font-variant:normal;font-weight:300;font-stretch:normal;font-size:20px;font-family:'Rubik Light';-inkscape-font-specification:Rubik-Light;writing-mode:lr-tb;fill:#000000;fill-opacity:1;fill-rule:nonzero;stroke:none"
       id="text114"><tspan
         x="0 10.72 20.66 31.379999 43.299999 55.32 67.239998 77.620003 87.980003 92.720001 97.879997 108.6 113.76 123.7 134.42 144.53999 159.52 170.44 175.60001 187.12 198.74001 209.89999 223.17999 236.36 251.74001 262.95999 273.88 285.79999 297.72 308.29999 323.56 328.72 340.64001 345.79999 355.41599 366.57599 379.85599 391.37601 402.59601 413.51599 423.134 433.854 445.77399 456.354 471.61401"
         y="0"
         id="tspan24">станциях, а также промышленную и комплексную </tspan><tspan
         x="0 11.22 22.379999 30.74 42.66 53.380001 63.32 75.239998 85.360001 94.739998 99.5 104.66 115.92 126.28 136.86 148.38 163.75999 174.67999 186.60001 198.52 209.44 214.60001 225.32001 237.24001 247.17999 257.76001 268.48001 280.5 292.42001 304.34 309.5 320.34 325.5 336.66 346.60001 358.22 368.94 379.66 390.88 402.79999 407.95999 421.23999 432.39999 447.38 458.29999 468.23999"
         y="26"
         id="tspan26">логистику. Ухудшение ситуации в отрасли может </tspan><tspan
         x="0 11.16 21.280001 32 41.84 52.560001 62.5 72.019997 77.18 88.019997 99.239998 111.16 121.54 133.46001 145.38 156.3 161.46001 173.38 184.10001 189.25999 201.17999 211.89999 227.28 237.86 243.02 254.53999 265.45999 275.84 285.78 296.616 307.836 317.35599 329.276 340.436 351.15601 361.09601 370.616"
         y="52"
         id="tspan28">оказать влияние на нашу деятельность.</tspan><tspan
         x="0 12.28 23.9 35.060001 48.34 59.259998 64.419998 74.360001 85.519997 93.639999 104.56 109.3 114.46 126.38 136.22 149.5 160.42 172.34 183.25999 195.17999 207.10001 218.02 223.17999 231.298 242.45799 253.17799 263.758 275.27802 285.99799 297.61801 308.33801 318.27802 329.11801 340.03799 351.95801 363.87799 377.05801 390.33801 402.258 407.418 418.578 430.198 438.55801 449.27802 461.198 471.918 485.198 497.11801"
         y="78"
         id="tspan30">Кроме того, изменение государственными органами </tspan><tspan
         x="0 9.9399996 20.66 32.279999 44.200001 57.779999 68.940002 79.779999 84.940002 96.860001 107.58 112.74 122.978 133.698 144.918 155.498 163.858 175.778 180.938 194.17799 207.17799 220.418 225.578 237.638 250.198 269.33801 282.858 294.918 300.078 311.99799 317.15799 322.73599 334.65601 345.87601 356.996 363.37601 368.53601 379.07599 389.79599 400.51599 410.45599 422.37601 432.91599 444.836 455.996 466.91599"
         y="104"
         id="tspan32">тарифов на услуги ОАО «РЖД» и (или) частичное </tspan><tspan
         x="0 11.92 21.76 35.040001 45.959999 57.880001 68.800003 80.720001 92.639999 103.56 108.72 120.24 131.39999 142.92 153.158 163.87801 173.81799 185.73801 199.01801 212.198 222.558 227.718 239.73801 250.658 262.578 273.73801 284.578 297.758 308.11801 313.27802 324.798 336.71799 347.43799 358.95801 369.67801 379.51801 390.67801 402.59799 413.758 424.59799 429.33801 434.49799 445.33801 450.49799 462.11801 472.83801 486.11801 496.23801 506.95801 517.31799"
         y="130"
         id="tspan34">изменение допустимых ценовых диапазонов, в рамках </tspan><tspan
         x="0 9.6199999 20.780001 30.719999 41.880001 53.5 66.68 77.040001 82.199997 95.440002 108.44 121.68 126.84 138.89999 151.46001 170.60001 184.12 196.17999 201.34 213.25999 223.98 235.5 246.338 257.55801 268.478 280.39801 291.55801 296.71799 308.23801 319.19601 330.41599 342.336 353.496 366.776 377.936 388.47601 400.396 410.776 424.056 435.97601 441.13599 452.65601 463.81601"
         y="156"
         id="tspan36">которых ОАО «РЖД» наделено полномочиями по </tspan><tspan
         x="0 11.92 21.76 35.040001 45.959999 57.880001 68.800003 80.720001 92.639999 107.9 113.06 123.64 135.25999 146.42 157.25999 169.17999 179.56 184.72 199.7 210.53799 221.758 232.67799 242.51801 254.438 265.59799 277.11801 288.27802 299.89801 311.05801 326.03799 337.95801 351.138 361.49799 366.65799 376.59799 387.31799 398.93799 410.858 424.43799 435.59799 446.43799 451.17801 456.33801 468.258 479.478 491.39801"
         y="182"
         id="tspan38">изменению уровня железнодорожных тарифов, или </tspan><tspan
         x="0 11.92 21.76 35.040001 45.959999 57.880001 68.800003 80.720001 92.639999 103.56 108.72 121.96 134.96001 148.2 153.36 165.42 177.98 197.12 210.64 222.7 227.86 237.8 248.52 260.14001 272.06 285.64001 296.79999 307.64001 312.79999 323.64001 328.79999 339.38 349.5 360.22 370.06 380.78 392.70001 404.62 417.79999 428.16 433.32001 444.84 456.45999 467.38 478.89999 489.73401 500.95401 511.67401 522.034"
         y="208"
         id="tspan40">изменение ОАО «РЖД» тарифов в указанных пределах </tspan><tspan
         x="0 13.28 24.440001 32.799999 43.380001 53.32 58.48 70.400002 80.239998 93.519997 104.44 116.36 128.28 138.22 147.74001 152.89999 164.52 175.24001 185.08 198.36 209.28 220.89999 234.08 239.24001 250.75999 261.98001 272.70001 282.64001 293.56 308.54001 319.45999 331.38 336.54001 346.38 357.10001 362.26001 373.88 384.26001 395.78 400.94 411.17401 421.89401 433.11401 443.694 450.29401 455.034"
         y="234"
         id="tspan42">могут изменить размеры платежей за ряд услуг, </tspan><tspan
         x="0 11.52 23.139999 34.060001 45.580002 56.740002 67.459999 77.400002 88.120003 98.959999 110.18 120.56 131.48 144.75999 157.94 168.3 173.46001 184.17999 195.34 200.5 211.22 221.16 232.32001 243.94 255.10001 267.01999 280.20001 285.35999 298.60001 311.60001 324.84 330 342.06 354.62 373.76001 387.28 399.34 404.07999 409.23999 420.76001 431.92001 442.76001 453.98001 465.89999 476.28 486.22 495.73999"
         y="260"
         id="tspan44">предоставляемых со стороны ОАО «РЖД», повлиять </tspan><tspan
         x="0 11.92 22.639999 27.799999 38.52 49.099998 62.380001 75.660004 86.239998 91.400002 103.02 113.74 124.46 134.82001 145.98 157.5 168.66 179.5 184.66 196.338 207.498 220.778 232.298 243.01801 254.938 266.858 278.77802 283.93799 295.858 306.578 311.73801 323.258 334.17801 345.798 356.71799 368.23801 380.15799 390.87799 402.09799 413.258 423.37799 434.09799 446.11801 458.03799 473.298"
         y="286"
         id="tspan46">на сумму расходов Компании на передислокацию </tspan><tspan
         x="0 11.52 22.24 33.860001 43.98 54.700001 59.860001 70.699997 81.419998 89.540001 100.7 112.62 123.78 134.62 139.36 144.52 155.24001 167.16 179.08 188.92 200.84 210.78 220.3 225.46001 236.98 248.60001 260.51999 271.35999 282.57999 293.5 303.62 314.34 324.28 335.116 346.336 355.85599 367.776 378.936 389.65601 399.59601 409.116"
         y="312"
         id="tspan48">парка вагонов, снизить привлекательность </tspan><tspan
         x="0 9.6199999 20.780001 34.060001 47.34 58.259998 69.879997 80.419998 91.339996 102.06 112.18 124.1 134.46001 139.62 149.858 160.578 171.798 182.95799 193.798 205.718 217.638 222.37801 227.53799 239.058 250.67799 261.59799 273.11801 284.33801 295.05801 303.418 314.138 325.05801 338.33801 351.51801 361.87799 367.03799 378.198 389.71799 400.638 412.258 422.978 432.918 444.078 455.698 466.418 479.698 491.61801"
         y="338"
         id="tspan50">коммерческих условий, предлагаемых операторами </tspan><tspan
         x="0 14.98 25.82 37.040001 47.959999 57.799999 69.720001 80.879997 92.400002 103.56 115.18 126.34 141.32001 153.24001 164.39999 172.51801 183.67799 188.838 200.358 211.51801 223.03799 233.87801 245.798 260.77802 272.698 283.858 291.978 303.138 308.298 319.01801 330.17801 340.89801 350.83801 361.55801 372.39801 383.11801 388.27802 398.99799 409.83801 420.99799 432.918 446.198"
         y="364"
         id="tspan52">железнодорожного подвижного состава своим </tspan><tspan
         x="0 10.72 21.299999 37.200001 48.119999 58.84 68.779999 79.620003 90.199997 105.46 121.36 133.28 146.56 151.72 163.64 168.8 180.32001 191.48 201.42 212.34 224.25999 236.28 248.2 258.92001 270.14001 279.66 291.57999 304.76001 318.04001 323.20001 333.32001 344.54001 356.45999 367.38 379.29999 389.23999 399.95999 413.23999 417.98001 423.14001 435.06 439.79999"
         y="390"
         id="tspan54">существующим и потенциальным клиентам, и, </tspan><tspan
         x="0 10.12 20.84 30.959999 36.119999 46.84 58.060001 68.980003 80.5 91.220001 101.16 112 123.92 134.84 139.58 144.74001 154.58 165.3 175.24001 186.86 198.02 209.94 220.52 230.46001 239.98 245.14 258.72 270.64001 282.56 293.28 305.20001 315.92001 327.07999 337.92001 349.07999 360 365.16 375.88 387.04001 397.76001 407.70001 418.85999 429.23999 441.16 453.07999 464"
         y="416"
         id="tspan56">как следствие, затронуть финансовое состояние </tspan><tspan
         x="0 11.92 17.08 28.24 39.759998 50.68 62.299999 73.019997 85.040001 96.959999 108.12 120.04 131.96001 145.14 156.06 161.22 172.84 183.75999 193.60001 203.59801 214.81799 224.338 234.278 244.998 254.938 268.11801 273.27802 287.27802 297.37799 309.65799"
         y="442"
         id="tspan58">и операционные результаты ПГК.</tspan><tspan
         x="0 13.02 23.6 39.5 50.419998 61.139999 71.080002 81.919998 92.839996 104.76 116.68 127.84 138.75999 143.92 154.75999 165.98 177.89999 188.28 200.2 212.12 223.03999 228.2 240.12 250.84 256 267.51999 278.44 288.82001 298.76001 309.59601 320.81601 330.336 342.25601 353.41599 364.13599 374.07599 383.59601 388.75601 400.436 411.59601 424.87601 436.396 447.116 459.03601 470.95599 482.87601"
         y="481"
         id="tspan60">Существенное влияние на деятельность Компании </tspan><tspan
         x="0 13.28 24.440001 39.419998 50.34 60.279999 65.440002 76.599998 86.720001 97.440002 107.28 118 127.94 137.46001 142.62 154.53999 159.7 170.42 181.34 192.96001 202.48 213.39999 223.24001 235.16 246.32001 257.23999 262.39999 272.98001 283.82001 294.65601 305.87601 317.79599 328.336 339.25601 351.17599 363.09601 374.01599 379.17599 389.896 399.836 410.996 422.91599 436.19601 447.35599 458.07599 468.01599 479.936"
         y="507"
         id="tspan62">может оказать и серьезное увеличение стоимости </tspan><tspan
         x="0 9.8400002 20.559999 32.080002 42.799999 53.52 65.440002 78.620003 88.980003 94.139999 104.68 115.4 126.12 136.06 146.98 158.89999 164.06 175.98 187.2 199.12 204.28 215.89999 226.82001 240.10001 251.25999 263.17999 273.12 283.84 289 300.51999 311.67999 323.20001 334.04001 345.95999 360.94 372.85999 384.01999 392.13599 403.29599 408.45599 419.17599 430.336 441.056 450.996 461.716 472.556 483.276 488.03601"
         y="533"
         id="tspan64">запасных частей или ремонта подвижного состава. </tspan><tspan
         x="0 14 24.1 36.380001 41.540001 52.380001 57.540001 68.699997 79.419998 91.339996 102.5 113.34 125.26 136.42 149.7 154.86 166.38 178 189.92 201.08 212.42 224.03999 234.96001 244.89999 255.62 266.54001 276.48001 281.64001 291.48001 302.20001 313.72 324.44 335.16 347.07999 360.26001 371.17999 376.34 386.88 397.60001 408.32001 418.26001 430.17999 435.34 446.85999 458.07999 468.45999"
         y="559"
         id="tspan66">ПГК в основном приобретает запасные части для </tspan><tspan
         x="0 11.52 22.68 34.200001 45.040001 56.959999 71.940002 83.860001 95.019997 103.14 114.3 119.46 130.17999 141.34 152.06 162 172.72 183.56 194.28 199.44 210.02 215.17999 225.89999 235.84 247 258.62 269.78 281.70001 293.62 305.54001 315.89999 321.06 332.22 343.84 352.20001 362.92001 374.84 386.76001 396.60001 407.32001 419.34 431.26001 443.17999"
         y="585"
         id="tspan68">подвижного состава у сторонних организаций </tspan><tspan
         x="0 11.92 17.08 29 39.720001 51.240002 62.200001 73.419998 82.940002 92.779999 103.018 113.938 123.878 129.03799 139.278 149.998 161.218 171.798 180.158 192.078 197.23801 207.95799 217.89799 229.058 240.67799 251.838 263.758 275.67801 287.59799 297.95801 303.11801 314.27802 325.89801 334.258 344.978 356.89801 368.81799 378.65799 389.37799 401.39801 413.31799 425.23801"
         y="611"
         id="tspan70">и использует услуги сторонних организаций </tspan><tspan
         x="0 11.52 22.74 33.119999 38.279999 49.900002 60.82 74.099998 85.260002 97.18 107.12 117.84 123 133.72 144.56 155.72 166.64 174.758 185.918 191.078 202.59801 213.758 225.278 236.118 248.03799 263.01801 274.93799 286.09799 294.21799 305.37799 310.53799 321.258 332.418 343.138 353.078 363.798 374.638 385.358 390.11801 395.27802 407.55801 419.17801 430.33801 443.61801 454.53799"
         y="637"
         id="tspan72">для ремонта своего подвижного состава. Кроме </tspan><tspan
         x="0 9.9399996 21.1 29.219999 40.139999 44.880001 50.040001 60.619999 75.599998 86.519997 97.239998 107.18 118.34 128.88 139.8 151.72 163.64 174.56 179.72 189.66 201.28 212.2 223.53999 234.7 245.53999 256.26001 268.17999 280.10001 292.01999 297.17999 307.29999 312.45999 322.39999 333.32001 343.67999 355.60001 367.51999 378.06 388.98001 399.70001 409.31601 420.47601 433.75601 444.336"
         y="663"
         id="tspan74">того, ужесточение требований к техническому </tspan><tspan
         x="0 10.72 21.879999 32.599998 42.540001 53.700001 64.080002 76 87.919998 103.18 108.34 116.7 127.938 138.51801 148.358 159.51801 170.358 183.53799 193.89799 199.058 209.89799 220.618 228.73801 239.89799 251.81799 262.978 273.81799 278.978 290.89801 296.05801 307.978 317.81799 331.09799 342.01801 353.93799 364.858 376.77802 388.698 399.61801 404.77802 416.39801 427.31799 442.298 454.21799 467.49799 478.21799"
         y="689"
         id="tspan76">состоянию грузовых вагонов и изменение режима </tspan><tspan
         x="0 8.1199999 19.280001 30 40.580002 52.099998 62.82 74.440002 85.160004 95.099998 105.94 116.86 128.78 140.7 151.86 159.978 171.138 176.298 185.918 197.078 208.998 218.938 230.558 241.51801 252.73801 263.11801 268.27802 278.11801 288.83801 293.99799 305.918 316.27802 321.43799 331.37799 342.298 352.65799 364.578 376.49799 387.03799 397.95801 408.67801 418.798 430.71799 443.99799"
         y="715"
         id="tspan78">государственного контроля за их техническим </tspan><tspan
         x="0 10.72 21.879999 32.599998 42.540001 53.700001 64.080002 76 87.919998 98.839996 112.12 117.28 130.56 141.72 156.7 167.62 177.56 182.72 192.66 203.38 213.5 228.48 239.39999 244.56 255.28 265.85999 281.76001 292.67999 303.39999 313.34 324.17999 335.10001 347.01999 358.94 372.12 385.39999 390.56 401.72 413.06 424.67999 435.39999 445.23999 456.39999 469.67999"
         y="741"
         id="tspan80">состоянием может также существенным образом </tspan><tspan
         x="0 11.52 22.68 33.52 44.740002 56.66 67.040001 76.980003 86.5 91.660004 103.58 114.3 119.46 131.08 142 151.84 161.838 173.058 182.578 192.51801 203.23801 213.17799 226.358 231.51801 243.03799 253.95799 264.33801 274.27802 285.116 296.336 305.85599 317.776 328.936 339.65601 349.59601 361.51599 366.67599 378.59601 383.75601 395.276 406.19601 417.81601 428.53601 440.056 450.97601 461.09601 471.03601 482.95599 493.79599 506.97601"
         y="767"
         id="tspan82">повлиять на результаты деятельности и перспективы </tspan><tspan
         x="0 11.62 22.34 32.18 43.02 54.939999 64.879997 76.800003 87.18 92.339996 104.018 115.178 128.45799 139.978 150.698 162.618 174.53799 186.45799"
         y="793"
         id="tspan84">развития Компании.</tspan><tspan
         x="594 607.06 612.21997 622.34003 633.06 643.59998 654.52002 665.23999 675.17999 686.02002 696.94 702.09998 714.02002 724.73999 736.65997 748 758.95801 770.17798 781.09802 792.01801 797.17798 807.89801 818.47803 834.37799 845.29797 856.01801 865.95801 876.79797 887.71802 899.638 911.55798 924.73798 935.09802 940.258 952.17798 962.89801 968.05798 978.89801 990.81799 1001.738 1017.118 1029.038 1039.958 1053.238 1058.3979 1070.0179 1083.198 1095.118 1104.734 1115.6541"
         y="-1.4210855e-13"
         id="tspan86">В качестве наиболее существенных на внешнем рынке </tspan><tspan
         x="594 605.62 617.53998 628.26001 637.88 649.03998 659.88 665.03998 678.32001 691.5 696.65997 707.5 720.67999 732.20001 743.03802 754.258 764.638 775.55798 788.83801 793.99799 803.93799 814.85797 819.59802 824.758 835.29797 845.23798 856.39801 861.55798 872.27802 883.11798 893.49799 903.33801 914.05798 925.97803 939.15802 944.31799 955.03802 960.198 971.35797 981.29797 992.01801 1002.598 1012.538 1023.258 1033.198 1044.038 1055.958 1066.8781 1080.158"
         y="26"
         id="tspan88">рисков мы выделяем те, что связаны с отсутствием </tspan><tspan
         x="594 604.71997 614.34003 625.5 637.41998 648.58002 661.85999 673.78003 684.32001 695.23999 705.96002 715.578 726.73798 738.65802 743.81799 755.73798 760.89801 771.61798 782.77802 794.79797 806.71802 817.43799 828.65802 838.17798 850.09802 861.258 873.17798 878.33801 889.05798 898.99799 909.71802 921.05798 932.97803 944.198 953.71802 965.638 976.79797 987.51801 997.45801 1009.378 1014.538 1025.3781"
         y="52"
         id="tspan90">экономической и социальной стабильности в </tspan><tspan
         x="594 605.62 616 627.52002 638.44 643.59998 651.71997 662.88 673.59998 684.17999 695.70001 706.41998 718.03998 728.76001 738.70001 749.53998 754.28003 759.44 770.28003 775.44 785.05798 796.21802 806.15802 817.31799 828.93799 842.11798 852.47803 857.638 873.01801 884.93799 896.55798 908.47803 920.39801 931.11798 936.27802 947.79797 959.41803 970.578 981.29797 991.23798 1002.858 1013.578 1025.498 1036.218 1046.158 1056.998 1067.718"
         y="78"
         id="tspan92">ряде государств, в которых ширина пространства </tspan><tspan
         x="594 608.97998 619.82001 631.03998 641.96002 651.79999 663.71997 674.88 686.40002 697.56 709.17999 720.34003 735.32001 747.23999 758.40002 770.32001 775.47998 785.09802 796.05798 807.27802 818.198 830.11798 835.27802 845.99799 857.15802 867.87799 877.81799 888.53802 899.37799 910.59802 920.97803 931.89801 941.83801 946.99799 954.95801 966.39801 977.59802 989.91803 995.078 1008.358 1021.638 1026.798 1033.178 1044.698 1055.418 1066.6379 1077.558 1088.478"
         y="104"
         id="tspan94">железнодорожной колеи составляет 1520 мм (далее </tspan><tspan
         x="594 603.94 614.65997 624.78003 639.76001 650.67999 655.84003 667.38 672.53998 684.59998 698.59998 710.21997 721.38 732.09998 742.03998 753.65997 764.38 776.29999 787.02002 796.96002 807.79999 818.96002 824.12 833.73798 844.698 855.91803 866.83801 878.758 883.91803 891.87799 903.31799 914.51801 926.83801 931.99799 945.27802 958.55798 970.61798 975.35797 980.51801 992.578 1005.598 1015.538 1027.158 1037.8781 1049.798 1062.978"
         y="130"
         id="tspan96">также – «Пространство колеи 1520 мм», «Страны </tspan><tspan
         x="594 603.62 614.58002 625.79999 636.71997 648.64001 653.79999 661.76001 673.20001 684.40002 696.71997 701.88 715.15997 728.44 740.5 746.88 751.64001 756.79999 769.82001 781.44 792.35999 803.88 815.79999 820.96002 832.58002 844.5 855.21997 864.836 875.99597 886.836 891.99597 902.836 907.99597 918.716 928.65601 939.81598 951.73602 956.896 965.25598 976.49597 987.07599 998.59601 1010.116 1021.036 1026.196 1036.136 1046.856 1056.976 1071.9561 1082.876"
         y="156"
         id="tspan98">колеи 1520 мм»). Среди рисков в этой группе также </tspan><tspan
         x="594 605.53998 610.70001 620.32001 631.28003 642.5 653.41998 664.76001 675.47998 687.40002 699.32001 709.70001 714.85999 725.70001 730.85999 744.14001 756.06 767.67999 778.84003 789.67999 800.84003 812.76001 817.91998 828.64001 838.258 849.41803 861.33801 872.49799 885.77802 897.698 907.31799 918.23798 922.97803 928.138 938.97803 952.15802 961.99799 975.17798 986.01801 996.73798 1011.998 1027.8979 1039.818 1050.738"
         y="182"
         id="tspan100">– колебания в мировой экономике, вызывающие </tspan><tspan
         x="594 605.91998 615.76001 629.03998 639.96002 651.88 662.79999 674.71997 686.64001 697.56 702.71997 713.44 724.96002 736.58002 747.73999 758.46002 769.17999 774.34003 786.26001 796.97998 802.14001 813.29999 824.02002 835.94 847.09998 857.94 869.85999 883.03998 893.96002 899.12 910.64001 921.56 933.17999 944.09998 954.94 966.09998 975.94 987.85999 1001.14 1014.32 1025.24 1030.4 1041.92 1053.08"
         y="208"
         id="tspan102">изменение спроса на основные перевозимые по </tspan><tspan
         x="594 608.97998 619.82001 631.03998 641.96002 651.79999 663.71997 674.88 686.79999 691.96002 703.47998 714.64001 726.26001 737.41998 745.53802 756.45801 761.61798 771.55798 782.71802 793.55798 804.27802 815.89801 829.078 834.23798 846.15802 856.87799 862.03802 872.87799 884.79797 895.71802 911.09802 923.01801 934.93799 945.29797 950.45801 962.078 975.258 987.17798 997.29797 1008.018 1018.378 1023.538 1035.458 1040.618 1052.238 1065.418 1077.338 1087.458 1098.178 1108.538"
         y="234"
         id="tspan104">железной дороге товары на внешних рынках и рынках </tspan><tspan
         x="594 605.62 616 627.52002 638.23999 643.40002 656.41998 666.35999 677.97998 688.70001 700.62 705.78003 715.39801 726.35797 737.578 748.49799 760.41803 765.578 773.53802 784.97803 796.17798 808.49799 813.65802 826.93799 840.21802 844.95801 850.11798 860.95801 871.79797 882.71802 894.23798 905.15802 917.078 928.99799 939.91803 945.078 956.23798 964.59802 976.21802 986.93799 998.85797 1010.778 1021.318 1032.238 1044.158 1056.078 1067.998"
         y="260"
         id="tspan106">ряда Стран колеи 1520 мм, введение ограничений </tspan><tspan
         x="594 604.12 614.70001 626.32001 637.03998 648.96002 660.58002 671.73999 682.58002 693.29999 705.21997 717.14001 727.52002 732.67999 743.52002 754.23999 762.35797 773.51801 785.43799 796.59802 807.43799 812.59802 824.11798 835.73798 847.65802 859.578 870.29797 881.81799 893.03802 903.95801 918.93799 930.85797 942.01801 952.73798 962.67798 974.59802 979.758 992.31799 1003.478 1014.198 1024.918 1036.838 1048.7581 1059.478 1069.0959 1080.256 1092.176"
         y="286"
         id="tspan108">курсирования вагонов принадлежности Российской </tspan><tspan
         x="594 610.5 621.41998 632.94 643.85999 655.47998 666.20001 678.21997 690.14001 702.06 707.21997 719.14001 729.85999 735.02002 744.96002 755.88 767.5 779.12 791.03998 800.97998 812.14001 823.76001 835.67999 846.06 856.41998 861.58002 873.09998 884.336 894.91602 903.276 915.19598 925.55603 930.716 943.73602 953.67603 965.29602 976.01599 987.93597"
         y="312"
         id="tspan110">Федерации на территориях других Стран </tspan><tspan
         x="594 603.62 614.58002 625.79999 636.71997 648.64001 653.79999 661.76001 673.20001 684.40002 696.71997 701.88 715.15997 728.44"
         y="338"
         id="tspan112">колеи 1520 мм.</tspan></text><text
       transform="matrix(1,0,0,-1,693,529.3)"
       style="font-variant:normal;font-weight:500;font-stretch:normal;font-size:28px;font-family:'Rubik Medium';-inkscape-font-specification:Rubik-Medium;writing-mode:lr-tb;fill:#000000;fill-opacity:1;fill-rule:nonzero;stroke:none"
       id="text118"><tspan
         x="0 19.18 36.316002 52.5 70.363998 87.835999 109.228 126.7 142.912 159.09599 175.112 191.15601 208.62801 224.812 231.196 248.808 265.72 281.84799 288.23199 306.23318 322.83719 342.54919 359.68521 375.7012 393.17319 410.6452 428.11719 434.50119 451.69321 469.16519 485.18121 501.22519"
         y="0"
         id="tspan116">Специфические для Компании риски</tspan></text><text
       transform="matrix(1,0,0,-1,693,493.3)"
       style="font-variant:normal;font-weight:500;font-stretch:normal;font-size:20px;font-family:'Rubik Medium';-inkscape-font-specification:Rubik-Medium;writing-mode:lr-tb;fill:#000000;fill-opacity:1;fill-rule:nonzero;stroke:none"
       id="text122"><tspan
         x="0 13.7 24.32 36.599998 48.040001 58.66 70.220001 79.139999 91.620003 103.2 114.76 126.2 137.66 150.14 162.62 167.17999 179.46001 191.94 203.38"
         y="0"
         id="tspan120">Стратегический риск</tspan></text><text
       transform="matrix(1,0,0,-1,693,467.3)"
       style="font-variant:normal;font-weight:300;font-stretch:normal;font-size:20px;font-family:'Rubik Light';-inkscape-font-specification:Rubik-Light;writing-mode:lr-tb;fill:#000000;fill-opacity:1;fill-rule:nonzero;stroke:none"
       id="text150"><tspan
         x="0 11.68 22.84 34.759998 44.880001 55.459999 67.080002 78 89.919998 99.860001 111.78 124.96 135.88 141.03999 152.56 164.17999 175.10001 187.02 200.3 210.88 226.78 237.7 248.42 258.35999 269.20001 279.92001 285.07999 297 302.16 313.67999 324.60001 336.22 346.94 358.45999 369.38 379.5 389.44 401.35999 412.20001 425.38 430.54001 442.16 452.88 462.72 473.56 485.48001 495.42001 507.34 517.71997"
         y="0"
         id="tspan124">Конкурентные преимущества и перспективы развития </tspan><tspan
         x="0 11.68 22.84 36.119999 47.639999 58.360001 70.279999 82.199997 94.120003 99.279999 109.12 119.84 130.67999 142.60001 153.32001 163.7 173.64 178.8 189.96001 199.89999 205.06 214.67799 225.838 239.118 250.638 261.55801 271.49799 282.418 294.33801 306.358 318.27802 330.198 335.358 347.27802 352.43799 363.59799 375.11801 388.298 398.23801 408.95801 414.11801 424.23801 435.45801 450.71799 461.258 472.17801 483.01801 496.198 506.55801"
         y="26"
         id="tspan126">Компании зависят от компетенции и опыта ключевых </tspan><tspan
         x="0 13.28 24.200001 36.119999 47.040001 58.560001 73.540001 84.459999 96.080002 107.24 118.08 123.24 135.16 140.32001 152.24001 162.60001 167.75999 178.48 190 201.16 211.88 223.03999 234.38 246.3 257.45999 268.17999 278.12 290.04001 295.20001 306.72 318.34 330.26001 341.10001 352.32001 363.23999 373.35999 384.07999 394.01999 403.54001 408.28 413.44 424.01999 435.54001 446.45999 458.07999 473.06 484.98001 495.82001 506.54001 516.47998 526"
         y="52"
         id="tspan128">менеджеров и их способности привлекать, удерживать </tspan><tspan
         x="0 11.92 17.08 30.360001 41.52 51.459999 63.380001 74.220001 86.139999 97.760002 108.92 119.76 130.48 140.42 149.94 155.10001 165.22 176.06 186.78 198 209.92 223.5 235.42 247.44 259.35999 270.98001 282.14001 292.98001 303.70001 315.62 327.54001 340.72 352.64001 357.79999 369.32001 380.23999 391.85999 402.57999 413.73999 425.66 436.38 447.60001"
         y="78"
         id="tspan130">и мотивировать квалифицированный персонал.</tspan><tspan
         x="0 11.68 22.84 36.119999 48.040001 57.98 68.900002 78.839996 84 95.519997 106.68 111.84 122.56 132.5 144.12 154.84 164.78 175.7 184.06 195.98 206.52 217.44 228.16 237.778 248.938 262.21799 272.798 277.95801 289.478 300.698 311.418 323.33801 335.258 346.87799 358.03799 368.87799 379.59799 391.51801 403.43799 418.698 423.858 436.87799 448.03799 458.87799 469.798 479.73801 490.45801"
         y="117"
         id="tspan132">Комитет по стратегическому планированию Совета </tspan><tspan
         x="0 11.52 23.440001 35.060001 45.98 56.099998 66.040001 77.199997 88.82 99.980003 110.82 115.98 127.6 138.52 146.88 156.87801 168.09801 178.478 190.09801 202.01801 213.17799 218.338 229.95799 240.67799 251.39799 262.11801 275.39801 286.11801 296.05801 307.67801 319.59799 330.43799 341.15799 352.078 362.01801 367.17801 378.798 390.71799 401.43799 411.55801 423.478 428.21799 433.37799 444.21799 455.43799 467.358 477.73801 492.99799 508.89801 520.81799 531.73798"
         y="143"
         id="tspan134">директоров регулярно рассматривает риски, влияющие </tspan><tspan
         x="0 11.92 22.639999 27.799999 39.32 50.48 61.200001 71.139999 83.059998 98.040001 108.96 120.88 132.8 143.72 148.88 160.39999 171.358 182.578 190.698 201.858 212.578 224.198 235.358 245.89799 257.81799 270.99799 281.358 286.51801 298.53799 309.37601 320.59601 331.51599 343.436 348.59601 360.276 371.436 384.716 396.23599 406.95599 418.87601 430.79599 442.716 447.47601"
         y="169"
         id="tspan136">на достижение долгосрочных целей Компании. </tspan><tspan
         x="0 13.24 23.959999 35.880001 47.040001 57.880001 69.800003 80.959999 92.879997 98.040001 107.88 118.6 130.12 140.84 151.38 162.3 174.22 179.38 191.058 202.218 215.498 227.418 237.358 248.278 258.21799 268.93799 274.09799 284.478 295.31799 306.53799 316.918 327.83801 337.77802 348.49799 358.87799 364.03799 375.55801 386.71799 398.23801 406.35599 417.51599 427.45599 438.616 449.45599 459.57599 470.29599"
         y="195"
         id="tspan138">Основной задачей Комитета является подготовка </tspan><tspan
         x="0 11.62 22.540001 32.16 43.32 56.599998 67.519997 79.440002 90.959999 101.68 113.7 125.62 137.53999 142.7 155.72 166.88 177.72 188.64 198.58 209.16 214.32001 225.84 237.75999 249.38 260.29999 270.42001 280.35999 291.51999 303.14001 314.29999 325.14001 330.29999 341.82001 353.04001 363.42001 368.57999 380.10001 391.72 403.64001 415.56 425.94 435.88 447.79999 458.17999"
         y="221"
         id="tspan140">рекомендаций Совету директоров для принятия </tspan><tspan
         x="0 10.72 24.299999 37.880001 48.799999 58.919998 68.860001 80.779999 91.620003 103.54 116.72 127.08 132.24001 142.96001 152.89999 164.52 175.24001 185.17999 196.10001 204.46001 216.38 226.92 237.84 248.56 258.67999 270.60001 280.95999 286.12 297.73999 308.66 324.04001 334.95999 346.88 358.79999 370.72 375.48001 380.64001 394.64001 405.79999 417.42001 427.79999 439.32001 450.48001 460.60001"
         y="247"
         id="tspan142">эффективных стратегических решений. Порядок </tspan><tspan
         x="0 13.58 24.74 36.360001 49.639999 61.560001 73.18 84.339996 95.18 105.9 117.82 129.74001 140.12 145.28 157.2 162.36 173.98 184.7 196.03999 207.2 217.14 230.32001 235.48 247.158 258.31799 271.59799 283.51801 293.45801 304.37799 314.31799 325.03799 330.198 341.81799 352.73801 360.57599 371.79599 382.51599 395.79599 406.716 418.63599 428.57599 440.496 451.73401 461.974 472.89401 482.83401 493.55399 503.93399"
         y="273"
         id="tspan144">формирования и работы Комитета регламентируется </tspan><tspan
         x="0 10.72 21.879999 33.040001 42.98 53.82 64.739998 74.68 85.400002 95.339996 106.18 116.76 132.02 147.92 159.84 173.12 178.254 189.774 200.73399 211.95399 223.114 238.09399 249.01401 260.93399 272.854 283.77399 297.05399 301.79401 306.92999 317.51001 327.45001 338.29001 349.20999 360.82999 375.81 387.32999 398.25 410.17001 422.09 435.26999 448.54999 453.68399 466.70401 477.86401 488.70401 499.62399 509.564 520.724 534.00403"
         y="299"
         id="tspan146">соответствующим положением, утвержденным Советом </tspan><tspan
         x="0 11.52 23.440001 35.060001 45.98 56.099998 66.040001 77.199997 88.82 99.980003 110.82 115.98 127.658 138.81799 152.09801 163.618 174.338 186.258 198.17799 210.09801"
         y="325"
         id="tspan148">директоров Компании.</tspan></text><text
       transform="matrix(1,0,0,-1,1287,927.3)"
       style="font-variant:normal;font-weight:500;font-stretch:normal;font-size:20px;font-family:'Rubik Medium';-inkscape-font-specification:Rubik-Medium;writing-mode:lr-tb;fill:#000000;fill-opacity:1;fill-rule:nonzero;stroke:none"
       id="text154"><tspan
         x="0 12.86 24.719999 38.799999 52.880001 64.440002 76.720001 88.300003 99.860001 111.3 122.76 135.24001 146.8 151.36 163.64 176.12 187.56 199.02"
         y="0"
         id="tspan152">Коммерческие риски</tspan></text><text
       transform="matrix(1,0,0,-1,1287,901.3)"
       style="font-variant:normal;font-weight:300;font-stretch:normal;font-size:20px;font-family:'Rubik Light';-inkscape-font-specification:Rubik-Light;writing-mode:lr-tb;fill:#000000;fill-opacity:1;fill-rule:nonzero;stroke:none"
       id="text180"><tspan
         x="0 11.68 22.84 36.119999 47.639999 58.360001 70.279999 82.199997 92.580002 97.739998 109.66 120.58 131.3 142.22 152.16 157.32001 168.94 180.86 191.58 201.7 213.62 218.78 230.3 241.46001 251.39999 262.32001 273.94 285.85999 291.01999 301.14001 312.35999 327.62 338.16 349.07999 359.92001 373.10001 383.45999 388.62 398.73999 409.95999 421.88 432.79999 444.72 454.66 465.82001 476.66 481.39999"
         y="0"
         id="tspan156">Компания несет риски потери ключевых клиентов, </tspan><tspan
         x="0 10.72 15.88 25.82 36.540001 46.66 61.639999 72.559998 77.720001 89.339996 101.26 111.98 122.1 134.02 138.75999 143.92 154.64 165.48 175.86 185.7 196.42 208.34 220.25999 233.44 244.36 249.52 260.23999 271.39999 276.56 287.28 299.20001 311.12 326.10001 337.01999 348.94 360.85999 371.78 385.06 390.22 400.94 412.45999 424.07999 435.23999 445.95999 456.67999 461.84 473.76001 484.48001"
         y="26"
         id="tspan158">а также риски, связанные со снижением спроса на </tspan><tspan
         x="0 10.24 20.959999 32.18 42.759998 51.119999 63.040001"
         y="52"
         id="tspan160">услуги.</tspan><tspan
         x="0 13.06 18.219999 32.220001 42.32 54.599998 59.759998 70.919998 81.639999 92.220001 108.12 119.04 129.75999 139.7 150.53999 161.75999 172.14 183.06 193 203.72 214.10001 219.25999 230.88 241.25999 252.78 257.94 269.45999 281.07999 292.23999 303.16 313.28 323.22 334.38 345.22 350.38 361.22 366.38 378.39999 389.23599 400.45599 410.836 421.19601 426.35599 436.59601 447.31601 459.23599 470.45599 481.37601 493.29599 505.216 515.59601"
         y="104"
         id="tspan162">В ПГК осуществляется ряд проектов в целях усиления </tspan><tspan
         x="0 10.72 21.559999 32.720001 44.639999 55 60.16 71.779999 84.959999 96.879997 108.04 118.58 130.5 143.67999 154.03999 159.2 170.72 181.88 191.72 203.64 215.66 227.58 239.5"
         y="130"
         id="tspan164">своих рыночных позиций:</tspan><tspan
         x="0 7.5999999 18 29.52 40.68 51.52 64.699997 80.080002 91 102.92 114.84 125.76 130.92 141.03999 152.25999 164.17999 175.10001 187.02 196.96001 208.12 219.28 230.89999 242.82001 253.74001 265.66 275.60001 287.51999 299.14001 310.29999 321.14001 331.85999 343.78 355.70001 366.85999 377.57999 387.51999 399.44"
         y="169"
         id="tspan166">• повышение клиентоориентированности </tspan><tspan
         x="18 27.620001 38.779999 52.060001 65.339996 76.260002 87.879997 98.419998 109.34 120.06 129.67799 140.838 148.95799 160.118 165.278 176.618 187.838 198.998 209.118 219.838"
         y="195"
         id="tspan168">коммерческого блока;</tspan><tspan
         x="0 7.5999999 18 29.620001 40.34 50.18 61.02 72.940002 82.879997 94.800003 105.72 110.88 123.9 136.7 152.118 161.858 172.578 184.498 195.218 205.158 216.078 229.358 242.53799"
         y="234"
         id="tspan170">• развитие CRM-системы;</tspan><tspan
         x="0 7.5999999 18 29.620001 40.34 50.18 61.799999 72.519997 83.860001 95.019997 104.96 115.08 125.8 130.96001 142.88 148.03999 159.66 170.58 181.3 192.52 204.44 214.28 225 237.02 248.94 259.32001 264.48001 276.39999 287.56 298.39999 311.57999 321.94 327.10001 338.62 350.23999 361.39999 372.92001 383.5 393.62 403.56 414.72 425.56 430.72 441.44"
         y="273"
         id="tspan172">• разработка и реализация новых продуктов с </tspan><tspan
         x="18 29.52 41.139999 53.060001 66.339996 77.260002 89.18 100.1 112.02 123.94 134.86 148.14 153.3 165.22 176.38 187.22 200.39999 210.75999 215.92 227.14 238.3 246.66 258.57999 269.29999 279.23999 291.16 301.70001 312.62 323.34 333.45999 345.38 355.73999 360.89999 370.84 381.76001 392.12 404.04001 414.99399 426.21399 437.37399 445.73401 457.65399 469.57401"
         y="299"
         id="tspan174">применением новых логистических технологий;</tspan><tspan
         x="0 7.5999999 18 27.84 38.560001 48.68 59.900002 75.160004 85.699997 96.620003 108.54 120.46 131.38 136.53999 148.06 159.01801 170.23801 178.358 189.51801 200.23801 211.858 223.01801 233.558 245.478 258.65799 269.01801 274.17801 283.798 294.95801 306.87799 316.81799 328.43799 339.15799 349.27802 359.21799 370.37799 381.21799 386.37799 397.09799 402.258 412.37799 423.59799 438.858 449.39801 460.31799 471.15799 484.33801 497.61801 509.53799"
         y="338"
         id="tspan176">• заключение долгосрочных контрактов с ключевыми </tspan><tspan
         x="18 28.120001 39.34 51.259998 62.18 74.099998 84.040001 94.760002 108.04 119.96"
         y="364"
         id="tspan178">клиентами.</tspan></text><text
       transform="matrix(1,0,0,-1,1287,485.3)"
       style="font-variant:normal;font-weight:500;font-stretch:normal;font-size:20px;font-family:'Rubik Medium';-inkscape-font-specification:Rubik-Medium;writing-mode:lr-tb;fill:#000000;fill-opacity:1;fill-rule:nonzero;stroke:none"
       id="text184"><tspan
         x="0 17.860001 30.34 42.82 54.259998 66.739998 78.18 90.040001 101.74 117.1 128.66 133.22 145.5 157.98 169.42 180.88"
         y="0"
         id="tspan182">Финансовые риски</tspan></text><text
       transform="matrix(1,0,0,-1,1287,459.3)"
       style="font-variant:normal;font-weight:300;font-stretch:normal;font-size:20px;font-family:'Rubik Light';-inkscape-font-specification:Rubik-Light;writing-mode:lr-tb;fill:#000000;fill-opacity:1;fill-rule:nonzero;stroke:none"
       id="text194"><tspan
         x="0 13.06 18.219999 28.459999 39.18 50.400002 61.560001 72.400002 84.32 94.699997 105.06 110.22 122.14 133.06 144.22 155.74001 167.36 178.28 189.8 200.638 211.858 222.778 234.698 246.618 257.77802 268.49799 278.43799 290.358 295.51801 307.43799 312.59799 323.31799 335.23801 347.15799 362.138 373.05801 384.978 396.89801 407.27802 412.43799 423.95801 434.79401 446.01401 457.17401 468.01401 479.17401 491.09399"
         y="0"
         id="tspan186">В условиях неопределенности и снижения деловой </tspan><tspan
         x="0 10.72 20.84 30.780001 42.700001 53.540001 65.459999 76.620003 87.339996 97.279999 109.2 113.94 119.1 129.94 143.12 152.96001 163.8 174.52 186.44 198.36 211.53999 221.89999 227.06 236.67799 247.838 259.45801 270.61801 282.53799 293.258 304.09799 316.01801 327.25601 337.496 348.216 359.37601 372.65601 377.396 382.556 393.396 398.556 409.75601 422.07599 433.276 445.59601 450.75601 458.87601 470.03601 481.556 492.13599"
         y="26"
         id="tspan188">активности, вызванных коронавирусом, в 2020 году </tspan><tspan
         x="0 10.84 24.02 35.639999 46.799999 57.52 68.739998 79.900002 85.059998 95.900002 107.12 119.04 129.42 141.34 153.25999 164.17999 169.34 182.92 194.84 206.75999 217.48 229.39999 240.12 251.28 262.12 275.29999 285.66 290.82001 302.44 314.35999 325.07999 334.69601 345.85599 356.69601 361.85599 373.776 384.496 389.65601 400.81601 412.336 423.25601 434.87601 445.59601 457.616 469.53601 480.69601 492.616 504.53601 515.11603 530.37598"
         y="52"
         id="tspan190">выросло влияние финансовых рисков на операционную </tspan><tspan
         x="0 11.52 22.440001 32.82 42.759998 53.599998 64.82 74.339996 86.260002 97.419998 108.14 118.08 127.6 132.75999 144.438 155.59801 168.87801 180.39799 191.118 203.03799 214.95799 226.87801"
         y="78"
         id="tspan192">деятельность Компании.</tspan></text><text
       transform="matrix(1,0,0,-1,1287,329.3)"
       style="font-variant:normal;font-weight:500;font-stretch:normal;font-size:20px;font-family:'Rubik Medium';-inkscape-font-specification:Rubik-Medium;writing-mode:lr-tb;fill:#000000;fill-opacity:1;fill-rule:nonzero;stroke:none"
       id="text198"><tspan
         x="0 13.44 25.719999 37.279999 49.860001 62.34 72.959999 85.440002 100.8 113.28 117.84 130.12 142.60001 154.03999"
         y="0"
         id="tspan196">Кредитный риск</tspan></text><text
       transform="matrix(1,0,0,-1,1287,303.3)"
       style="font-variant:normal;font-weight:300;font-stretch:normal;font-size:20px;font-family:'Rubik Light';-inkscape-font-specification:Rubik-Light;writing-mode:lr-tb;fill:#000000;fill-opacity:1;fill-rule:nonzero;stroke:none"
       id="text212"><tspan
         x="0 11.68 22.84 36.119999 47.639999 58.360001 70.279999 82.199997 92.580002 97.739998 109.36 120.28 128.64 138.638 149.858 160.23801 171.858 183.778 194.938 200.09801 211.258 221.198 231.918 243.138 254.058 269.03799 280.95801 291.798 302.51801 313.43799 323.37799 328.53799 340.45801 345.61801 356.198 367.71799 379.33801 390.05801 400.89801 412.11801 422.49799 433.418 443.358"
         y="0"
         id="tspan200">Компания регулярно отслеживает и управляет </tspan><tspan
         x="0 10.72 21.940001 32.860001 44.380001 54.959999 70.220001 86.120003 98.040001 111.32 123.24 128.39999 138.34 150.25999 161.78 172.5 185.78 197.7 202.86 212.98 224.60001 235.52 247.03999 258.95999 268.89999 280.82001 291.98001 300.09601 311.25601 316.41599 328.03601 339.95599 350.67599 360.79599 371.51599 376.336"
         y="26"
         id="tspan202">следующими типами кредитного риска: </tspan><tspan
         x="0 7.5999999 18 28.120001 39.740002 50.66 62.18 74.099998 84.040001 95.959999 109.14 121.06 126.22 137.84 149.75999 160.48 170.60001 175.75999 185.37801 196.53799 209.81799 223.09801 234.01801 245.638 256.17801 267.09799 277.81799 287.93799 299.858 310.21799 315.37799 324.996 336.15601 348.07599 358.01599 369.63599 380.35599 388.47601 399.396 411.31601 421.25601 432.41599 443.25601"
         y="65"
         id="tspan204">• кредитный риск коммерческих контрагентов </tspan><tspan
         x="18 29.68 40.84 54.119999 65.639999 76.360001 88.279999 100.2 112.12"
         y="91"
         id="tspan206">Компании;</tspan><tspan
         x="0 7.5999999 18 28.120001 39.740002 50.66 62.18 74.099998 84.040001 95.959999 109.14 121.06 126.22 137.84 149.75999 160.48 170.60001 175.75999 187.10001 197.82001 209.74001 219.358 230.51801 241.358 246.09801 251.258 262.09799 267.258 276.87799 288.03799 297.978 309.138 320.758 333.93799 344.298 349.45801 361.13599 372.29599 385.57599 397.09601 407.81601 419.73599 431.65601 442.03601"
         y="130"
         id="tspan208">• кредитный риск банков, в которых Компания </tspan><tspan
         x="18 29.620001 40.34 50.18 63.459999 74.379997 90.279999 101 111.92 121.86 127.02 138.53999 149.46001 161.38 172.3 187.28 199.2 212.38 223.3 228.46001 239.17999 250.8 261.72 273.23999 283.95999 293.89999 304.73999 315.45999"
         y="156"
         id="tspan210">размещает денежные средства.</tspan></text><g
       id="g214"
       transform="translate(220.1209,984)"><path
         d="M 0,0 -9.121,-10.047 0,-20.094 H 27.879 V -10.047 0 Z"
         style="fill:#faaa2d;fill-opacity:1;fill-rule:nonzero;stroke:none"
         id="path216" /></g><text
       transform="matrix(1,0,0,-1,98,968.3599)"
       style="font-variant:normal;font-weight:300;font-stretch:normal;font-size:16px;font-family:'Rubik Light';-inkscape-font-specification:Rubik-Light;writing-mode:lr-tb;fill:#000000;fill-opacity:1;fill-rule:nonzero;stroke:none"
       id="text220"><tspan
         x="0 11.2 19.775999 28.208 36.784 45.759998 54.688 58.816002 68.351997 76.928001 81.056 89.632004 97.584 106.6864 110.4944"
         y="0"
         id="tspan218">Начало на стр. </tspan></text><text
       transform="matrix(1,0,0,-1,220.8784,968.3599)"
       style="font-variant:normal;font-weight:500;font-stretch:normal;font-size:16px;font-family:'Rubik Medium';-inkscape-font-specification:Rubik-Medium;writing-mode:lr-tb;fill:#ffffff;fill-opacity:1;fill-rule:nonzero;stroke:none"
       id="text224"><tspan
         x="0 10.512"
         y="0"
         id="tspan222">82</tspan></text><g
       id="g226"
       transform="translate(1818.8792,94.9844)"><path
         d="M 0,0 9.121,10.047 0,20.094 H -27.879 V 10.047 0 Z"
         style="fill:#faaa2d;fill-opacity:1;fill-rule:nonzero;stroke:none"
         id="path228" /></g><text
       transform="matrix(1,0,0,-1,1623,99.4401)"
       style="font-variant:normal;font-weight:300;font-stretch:normal;font-size:16px;font-family:'Rubik Light';-inkscape-font-specification:Rubik-Light;writing-mode:lr-tb;fill:#000000;fill-opacity:1;fill-rule:nonzero;stroke:none"
       id="text232"><tspan
         x="0 11.2 20.496 29.424 38.639999 47.408001 56.383999 68.367996 77.103996 86.639999 96.176003 104.912 109.0256 118.5616 127.1376 131.25439 139.8304 147.78239 156.8864 160.6944"
         y="0"
         id="tspan230">Продолжение на стр. </tspan></text><text
       transform="matrix(1,0,0,-1,1796.04,99.4401)"
       style="font-variant:normal;font-weight:500;font-stretch:normal;font-size:16px;font-family:'Rubik Medium';-inkscape-font-specification:Rubik-Medium;writing-mode:lr-tb;fill:#ffffff;fill-opacity:1;fill-rule:nonzero;stroke:none"
       id="text236"><tspan
         x="0 10.512"
         y="0"
         id="tspan234">84</tspan></text><text
       transform="matrix(1,0,0,-1,37.5602,1023)"
       style="font-variant:normal;font-weight:300;font-stretch:normal;font-size:20px;font-family:'Rubik Light';-inkscape-font-specification:Rubik-Light;writing-mode:lr-tb;fill:#000000;fill-opacity:1;fill-rule:nonzero;stroke:none"
       id="text240"><tspan
         x="0 12.36"
         y="0"
         id="tspan238">83</tspan></text><g
       id="g242"><g
         id="g244"><g
           id="g246"
           clip-path="url(#clipPath250)"><text
             transform="matrix(1,0,0,-1,99,1023)"
             style="font-variant:normal;font-weight:300;font-stretch:normal;font-size:20px;font-family:'Rubik Light';-inkscape-font-specification:Rubik-Light;writing-mode:lr-tb;fill:#000000;fill-opacity:1;fill-rule:nonzero;stroke:none"
             id="text254"><tspan
               x="0 13.24 18.4 28.02 39.18 52.459999 63.98 74.699997 86.620003 98.540001"
               y="0"
               id="tspan252">О компании</tspan></text></g></g></g></g></svg>
