<?xml version="1.0" encoding="UTF-8" standalone="no"?>
<?xml-stylesheet type="text/css" href="main.css" ?>
<svg
   xmlns:dc="http://purl.org/dc/elements/1.1/"
   xmlns:cc="http://creativecommons.org/ns#"
   xmlns:rdf="http://www.w3.org/1999/02/22-rdf-syntax-ns#"
   xmlns:svg="http://www.w3.org/2000/svg"
   xmlns="http://www.w3.org/2000/svg"
   version="1.1"
   id="svg2"
   xml:space="preserve"
   width="2560"
   height="1440"
   viewBox="0 0 2560 1440"><metadata
     id="metadata8"><rdf:RDF><cc:Work
         rdf:about=""><dc:format>image/svg+xml</dc:format><dc:type
           rdf:resource="http://purl.org/dc/dcmitype/StillImage" /></cc:Work></rdf:RDF></metadata><defs
     id="defs6"><clipPath
       clipPathUnits="userSpaceOnUse"
       id="clipPath20"><path
         d="M 0,1080 H 1920 V 0 H 0 Z"
         id="path18" /></clipPath><clipPath
       clipPathUnits="userSpaceOnUse"
       id="clipPath38"><path
         d="M 0,0 H 1920 V 1080 H 0 Z"
         id="path36" /></clipPath><clipPath
       clipPathUnits="userSpaceOnUse"
       id="clipPath174"><path
         d="M 0,1080 H 1920 V 0 H 0 Z"
         id="path172" /></clipPath></defs><g
     id="g10"
     transform="matrix(1.3333333,0,0,-1.3333333,0,1440)"><g
       id="g12"><g
         id="g14"><g
           id="g16"
           clip-path="url(#clipPath20)"><path
             d="M 0,0 H 1920 V 1080 H 0 Z"
             style="fill:#ffffff;fill-opacity:1;fill-rule:nonzero;stroke:none"
             id="path22" /></g></g></g><path
       d="M 0,0 H 748 V 1080 H 0 Z"
       style="fill:#e8e8ed;fill-opacity:1;fill-rule:nonzero;stroke:none"
       id="path24" /><text
       transform="matrix(1,0,0,-1,97.5,134)"
       style="font-variant:normal;font-weight:500;font-stretch:normal;font-size:28px;font-family:'Rubik Medium';-inkscape-font-specification:Rubik-Medium;writing-mode:lr-tb;fill:#000000;fill-opacity:1;fill-rule:nonzero;stroke:none"
       id="text30"><tspan
         x="0 19.18 38.164001 57.596001 76.776001 93.744003 114.324 135.632 154.868 161.252 178.22 197.67999 214.64799 222.06799 228.452 247.26801 264.23599 283.69601 290.07999 309.26001 328.24399 347.67599 366.85599 383.82401 404.40399 425.71201 444.948"
         y="0"
         id="tspan26">СЧАСТЛИВ ТОТ, КТО СЧАСТЛИВ </tspan><tspan
         x="0 19.18 38.416 57.875999 75.32 96.627998 103.012 121.492 140.924 159.09599 178.556 195.524 214.98399 236.29201"
         y="33.992001"
         id="tspan28">СВОЕЙ РАБОТОЙ!</tspan></text><g
       id="g32"><g
         id="g34"
         clip-path="url(#clipPath38)"><g
           id="g40"
           transform="translate(55.4,150.75)"><path
             d="m 0,0 c -1.4,1.9 -3.367,2.85 -5.9,2.85 -2.267,0 -4.084,-0.75 -5.45,-2.25 -1.367,-1.5 -2.05,-3.25 -2.05,-5.25 0,-2 0.666,-3.75 2,-5.25 1.333,-1.5 3,-2.25 5,-2.25 0.666,0 1.266,0.067 1.8,0.2 0.266,0.067 0.5,0.167 0.7,0.3 -0.267,-2 -1.15,-3.583 -2.65,-4.75 -1.5,-1.166 -3.117,-1.75 -4.85,-1.75 v -3.5 c 1.6,0 3.216,0.284 4.85,0.85 1.633,0.567 3.083,1.467 4.35,2.7 1.266,1.234 2.3,2.8 3.1,4.7 0.8,1.9 1.2,4.15 1.2,6.75 C 2.1,-4.117 1.4,-1.9 0,0 M 20,0 C 18.6,1.9 16.633,2.85 14.1,2.85 11.833,2.85 10.016,2.1 8.65,0.6 7.283,-0.9 6.6,-2.65 6.6,-4.65 c 0,-2 0.666,-3.75 2,-5.25 1.333,-1.5 3,-2.25 5,-2.25 0.666,0 1.266,0.067 1.8,0.2 0.266,0.067 0.5,0.167 0.7,0.3 -0.267,-2 -1.15,-3.583 -2.65,-4.75 -1.5,-1.166 -3.117,-1.75 -4.85,-1.75 v -3.5 c 1.6,0 3.216,0.284 4.85,0.85 1.633,0.567 3.083,1.467 4.35,2.7 1.266,1.234 2.3,2.8 3.1,4.7 0.8,1.9 1.2,4.15 1.2,6.75 0,2.533 -0.7,4.75 -2.1,6.65"
             style="fill:#faaa2d;fill-opacity:1;fill-rule:nonzero;stroke:none"
             id="path42" /></g></g></g><text
       transform="matrix(1,0,0,-1,99,953.4)"
       style="font-variant:normal;font-weight:normal;font-stretch:normal;font-size:38px;font-family:'Prosto One';-inkscape-font-specification:ProstoOne-Regular;writing-mode:lr-tb;fill:#000000;fill-opacity:1;fill-rule:nonzero;stroke:none"
       id="text50"><tspan
         x="0 30.4 58.709999 89.870003 122.55 164.35001 198.55 231.61 258.59 291.26999 321.29001 348.07999 378.48001 411.16 438.14001"
         y="0"
         id="tspan44">ВЗАИМОДЕЙСТВИЕ </tspan><tspan
         x="0 30.02 43.32 71.629997 102.79 135.47 167.39 194.17999 221.16 251.17999 278.16 308.17999 342.38 372.78 403.94 435.85999 467.78 507.48999 549.28998 581.96997"
         y="45.599998"
         id="tspan46">С ЗАИНТЕРЕСОВАННЫМИ </tspan><tspan
         x="0 30.02 56.810001 91.010002 121.03 155.23 187.14999 218.31 260.10999"
         y="91.199997"
         id="tspan48">СТОРОНАМИ</tspan></text><text
       transform="matrix(1,0,0,-1,99,783.5001)"
       style="font-variant:normal;font-weight:300;font-stretch:normal;font-size:20px;font-family:'Rubik Light';-inkscape-font-specification:Rubik-Light;writing-mode:lr-tb;fill:#000000;fill-opacity:1;fill-rule:nonzero;stroke:none"
       id="text68"><tspan
         x="0 13.06 26.24 36.959999 46.900002 58.52 69.239998 81.160004 92 102.72 114.64 126.56 137.48 142.64 154.16 165.118 176.338 184.45799 195.618 206.338 217.95799 229.118 239.658 251.578 264.758 275.11801 280.27802 292.198 297.358 307.93799 318.77802 329.49799 344.478 356.39801 366.33801 377.17599 388.396 397.91599 409.836 423.01599 433.37601 438.53601 449.69601 459.63599 471.556 482.716 498.09601 509.01599 520.93597 532.85602 544.776"
         y="0"
         id="tspan52">Выстраивание долгосрочных и уважительных отношений </tspan><tspan
         x="0 10.72 21.879999 27.040001 37.759998 47.700001 58.619999 70.540001 80.660004 91.019997 101.98 113.2 124.72 135.64 147.25999 157.98 171.25999 183.17999 188.34 203.67999 208.84 216.67799 227.89799 238.618 249.45799 261.37799 274.55801 286.478 291.638 303.15799 314.77802 326.698 338.61801 350.638 362.55801 374.078 379.23801 389.95801 399.89801 411.51801 422.23801 432.17801 443.09799 451.45801 463.37799 475.298"
         y="26"
         id="tspan54">со стейкхолдерами — главный принцип стратегии </tspan><tspan
         x="0 11.22 23.139999 34.66 45.580002 57.200001 67.919998 77.860001 88.699997 99.419998 104.58 118.58 128.67999 140.96001 145.72 150.88 163.89999 175.06 186.39999 197.62 212.88 224.39999 235.32001 247.24001 259.16 270.07999 275.23999 287.16 299.07999 309.01999 319.94 331.56 342.48001 353.20001 364.35999 375.20001 380.35999 392.28 397.44 408.95999 420.12 430.06 441.67999 452.60001 463.94 475.85999 487.01999 497.73999 507.67999 518.59998 530.52002"
         y="52"
         id="tspan56">лидерства ПГК. Соблюдение интересов и потребностей </tspan><tspan
         x="0 9.8400002 20.559999 32.48 44.400002 54.34 65.260002 76.879997 87.800003 98.519997 109.68 120.52 131.24001 143.16 155.08 168.25999 178.62 183.78 194.5 204.44 215.60001 227.22 238.38 250.3 255.03999 260.20001 270.92001 276.07999 286.01999 296.73999 306.85999 321.84 332.76001 337.92001 349.84 360.20001 365.35999 376.07999 386.92001 398.07999 409 419.84 431.45999 442.38 455.66 466.57999 478.5 490.42001 501.57999 512.5"
         y="78"
         id="tspan58">заинтересованных сторон, а также их своевременное </tspan><tspan
         x="0 11.92 23.84 37.419998 48.580002 60.200001 73.480003 85.400002 97.019997 108.18 119.02 129.74001 141.66 153.58 164.5 169.66 180.88 191.8 206.78 218.7 228.64 233.8 244.64 249.8 260.95999 271.67999 283.60001 294.76001 305.60001 316.51999 321.67999 333.20001 344.12 354.5 364.44 375.276 386.496 396.01599 407.936 419.09601 429.81601 439.75601 451.67599"
         y="104"
         id="tspan60">информирование лежит в основе деятельности </tspan><tspan
         x="0 11.68 22.84 36.119999 47.639999 58.360001 70.279999 82.199997 94.120003 98.879997 104.04 117.56 128.78 139.16 144.32001 157.60001 168.32001 177.938 188.658 200.578 213.858 224.578 235.798 245.31799 257.23801 268.39801 273.55801 284.71799 294.65799 304.77802 316.39801 329.578 339.51801 350.67801 358.79599 369.95599 375.116 387.03601 392.19601 403.716 415.336 426.496 438.01599 448.59601 458.716 468.65601 480.57599 491.41599 503.336 514.49597 522.61401 533.77399"
         y="130"
         id="tspan62">Компании. Для максимально открытого и продуктивного </tspan><tspan
         x="0 10.84 20.68 31.4 43.32 56.599998 67.760002 79.279999 90.199997 102.12 112.84 122.78 133.62 145.53999 155.92 161.08 174.36 187.53999 192.7 203.24001 214.16 224.10001 233.716 244.87601 250.036 260.75601 271.97601 282.896 294.41599 304.65601 315.57599 328.85599 334.01599 347.29599 358.216 373.19601 384.716 395.29599 407.216 417.936 429.556 440.716 452.23599 464.15601 477.336 490.616"
         y="156"
         id="tspan64">взаимодействия мы четко следуем международным </tspan><tspan
         x="0 11.92 23.08 34.700001 47.98 58.700001 71.980003 77.139999 89.059998 94.220001 105.06 116.98 127.56 137.5 149.12 161.03999 170.658 181.81799 193.438 204.95799 216.118 227.73801 238.45799 248.39799 260.31799 271.15799 283.078 296.258 309.53799 314.698 325.418 335.358 346.078 357.99799 369.51801 380.23801 391.858 401.798 412.51801 425.798"
         y="182"
         id="tspan66">нормам и внутрикорпоративным стандартам.</tspan></text><text
       transform="matrix(1,0,0,-1,798,953.8201)"
       style="font-variant:normal;font-weight:500;font-stretch:normal;font-size:28px;font-family:'Rubik Medium';-inkscape-font-specification:Rubik-Medium;writing-mode:lr-tb;fill:#000000;fill-opacity:1;fill-rule:nonzero;stroke:none"
       id="text72"><tspan
         x="0 19.459999 35.476002 52.948002 69.552002 85.931999 103.404 124.908 141.092 147.476 162.48399 178.5 195.972 213.444 228.312 244.496 261.68799 277.87201 293.888 310.492 326.87201 342.888 360.35999 377.832 399.336 415.51999 421.90399 437.92001 452.78799 469.392 486.58401 503.18799 520.65997 542.164 548.54797 568.98798 584.21997 603.03601"
         y="0"
         id="tspan70">Основные заинтересованные стороны ПГК:</tspan></text><text
       transform="matrix(1,0,0,-1,798,915.1201)"
       style="font-variant:normal;font-weight:300;font-stretch:normal;font-size:20px;font-family:'Rubik Light';-inkscape-font-specification:Rubik-Light;writing-mode:lr-tb;fill:#000000;fill-opacity:1;fill-rule:nonzero;stroke:none"
       id="text92"><tspan
         x="0 7.5999999 18 28.719999 38.84 50.860001 62.779999 73.940002 85.860001 96.779999 108.4 121.58"
         y="0"
         id="tspan74">• акционеры;</tspan><tspan
         x="0 7.5999999 18 29.92 41.84 52.68 63.599998 74.32 84.260002 95.419998 107.04 120.22"
         y="39"
         id="tspan76">• инвесторы;</tspan><tspan
         x="0 7.5999999 18 28.120001 39.34 51.259998 62.18 74.099998 84.040001 97.220001 102.38 114.058 125.218 138.498 150.01801 160.73801 172.658 184.578 196.498"
         y="78"
         id="tspan78">• клиенты Компании;</tspan><tspan
         x="0 7.5999999 18 31.58 42.5 54.02 64.940002 76.559998 87.279999 98.5 108.02 119.94 133.12 144.03999 149.2 161.12 166.28 177.89999 188.82001 197.17999 209.10001 220.25999 232.17999 242.89999 254.12 263.64001 275.56 288.73999 299.66 304.82001 315.98001 327.60001 335.95999 346.67999 358.60001 371.78"
         y="117"
         id="tspan80">• федеральные и региональные органы </tspan><tspan
         x="18 28.84 40.060001 50.779999 61.5 71.440002 83.360001"
         y="143"
         id="tspan82">власти;</tspan><tspan
         x="495 502.60001 513 523.71997 534.88 544.82001 556.06 566.64001 578.15997 590.08002 602 612.12 624.03998 629.20001 640.87799 652.03802 665.31799 676.83801 687.55798 699.47803 711.39801 723.31799"
         y="0"
         id="tspan84">• сотрудники Компании;</tspan><tspan
         x="495 502.60001 513 524.52002 536.14001 547.29999 560.88 571.59998 582.76001 598.02002 607.85999 621.03998"
         y="39"
         id="tspan86">• профсоюзы;</tspan><tspan
         x="495 502.60001 513 524.52002 535.67999 546.40002 556.34003 567.06 577.90002 593.79999 605.71997 615.84003 627.76001 632.91998 644.84003 650 661.52002 672.67999 684.20001 695.82001 706.20001 717.71997 728.26001 740.17999 750.29999 762.21997"
         y="78"
         id="tspan88">• поставщики и подрядчики;</tspan><tspan
         x="495 502.60001 513 526.28003 537.20001 547.91998 557.85999 569.78003 582.96002 593.88 599.03998 609.76001 620.91998 632.08002 643.41998 659.32001 670.23999 680.96002 690.90002 701.73999 712.46002"
         y="117"
         id="tspan90">• местные сообщества.</tspan></text><text
       transform="matrix(1,0,0,-1,798,676.9098)"
       style="font-variant:normal;font-weight:500;font-stretch:normal;font-size:28px;font-family:'Rubik Medium';-inkscape-font-specification:Rubik-Medium;writing-mode:lr-tb;fill:#000000;fill-opacity:1;fill-rule:nonzero;stroke:none"
       id="text98"><tspan
         x="0 20.440001 37.043999 54.655998 71.848 87.863998 102.872 120.484 136.528 153.44 169.62399 187.09599 204.56799 220.696 227.08 247.52 262.75201 281.56799 288.98801 295.37201 311.75201 327.79599 344.70801 368.116 384.328 400.51199 417.98401 435.45599 456.95999 473.14401 479.52802 495.90799 502.29199 519.42798 536.62 553.224 571.02643 587.21039 603.22638 619.24237"
         y="0"
         id="tspan94">Подразделения ПГК, включенные в процесс </tspan><tspan
         x="0 16.379999 31.388 47.403999 64.875999 84.587997 101.192 118.804 134.98801 152.46001 168.476 183.34399 199.724 217.196 233.32401 239.70799 255.724 272.328 278.71201 294.728 309.59601 325.78 343.25201 359.29599 375.116 391.4624 408.37439 425.98639 442.17041 459.3624 475.37839 495.09039 512.56238"
         y="33.992001"
         id="tspan96">взаимодействия со стейкхолдерами:</tspan></text><text
       transform="matrix(1,0,0,-1,798,594.2098)"
       style="font-variant:normal;font-weight:300;font-stretch:normal;font-size:20px;font-family:'Rubik Light';-inkscape-font-specification:Rubik-Light;writing-mode:lr-tb;fill:#000000;fill-opacity:1;fill-rule:nonzero;stroke:none"
       id="text164"><tspan
         x="0 7.5999999 18 31.52 42.439999 53.959999 64.68 76.300003 86.239998 96.959999 110.24 121.16 133.08 143.02 148.17999 159.7 170.62 182.24001 193.16 204 215.16 225 236.16 246.28 251.44 262.95999 274.57999 285.73999 299.01999 312.20001 327.57999 338.79999 349.72 361.64001 373.56 386.73999 397.10001"
         y="0"
         id="tspan100">• Департамент перевозок промышленных </tspan><tspan
         x="18 26.360001 37.599998 48.18 58.02 69.18 80.019997 85.18 97.099998 102.26 113.4 127.4 141.39999"
         y="26"
         id="tspan102">грузов и ТНП;</tspan><tspan
         x="0 7.5999999 18 31.52 42.439999 53.959999 64.68 76.300003 86.239998 96.959999 110.24 121.16 133.08 143.02 148.17999 159.7 170.86 176.02 187.17999 197.3 208.02 217.86 228.58 240.5 252.42 267.67999 272.84 282.45599 293.616 306.896 318.41599 329.63599 340.556 350.17599 360.896 372.81601 385.996 396.35599"
         y="65"
         id="tspan104">• Департамент по оказанию комплексных </tspan><tspan
         x="18 29.219999 40.380001 48.740002 60.66 71.379997 81.32 93.239998 103.78 114.7 125.42 135.53999 147.46001 157.82001 162.98 173.218 183.938 195.158 205.73801 214.09801"
         y="91"
         id="tspan106">логистических услуг;</tspan><tspan
         x="0 7.5999999 18 31.52 42.439999 53.959999 64.68 76.300003 86.239998 96.959999 110.24 121.16 133.08 143.02 148.17999 159.7 170.86 176.02 187.64 198.36 209.7 220.86 230.8 241.72 246.88 257.60001 262.76001 274.67999 285.60001 299.17999 309.12 319.5 331.42001 344.60001 357.88 369.79999"
         y="130"
         id="tspan108">• Департамент по работе с нефтяными </tspan><tspan
         x="18 27.620001 38.779999 52.060001 63.580002 74.300003 86.220001 98.139999 108.52 121.8 133.72"
         y="156"
         id="tspan110">компаниями;</tspan><tspan
         x="0 7.5999999 18 31.52 42.439999 53.959999 64.68 76.300003 86.239998 96.959999 110.24 121.16 133.08 143.02 148.17999 159.7 170.86 176.02 187.64 198.36 209.7 220.86 230.8 241.72 246.88 257.60001 262.76001 274.28 285.89999 296.82001 308.34 319.85999 331.48001 343.39999 353.78 363.72 375.64001 386.01999 399.29999 411.22"
         y="195"
         id="tspan112">• Департамент по работе с предприятиями </tspan><tspan
         x="18 28.719999 38.66 50.279999 61.439999 73.360001 83.300003 94.139999 105.36 114.88 126.8 137.96001 149.88 155.03999 166.96001 172.12 182.48 194.39999 207.67999 219.60001 230.14 241.06 251.78 261.39801 272.55801 284.478 289.638 300.798 310.73801 322.358 333.078 343.798 355.01801 366.93799"
         y="221"
         id="tspan114">строительной и химической отрасли;</tspan><tspan
         x="0 7.5999999 18 31.52 42.439999 53.959999 64.68 76.300003 86.239998 96.959999 110.24 121.16 133.08 143.02 148.17999 159.7 170.86 176.02 187.64 198.36 209.7 220.86 230.8 241.72 246.88 257.60001 262.76001 274.28 285.89999 296.82001 308.34 319.85999 331.48001 343.39999 353.78 363.72 375.64001 386.01999 399.29999 411.22"
         y="260"
         id="tspan116">• Департамент по работе с предприятиями </tspan><tspan
         x="18 28.58 36.700001 47.66 58.880001 68.400002 80.32 91.480003 103.4 108.56 120.48 125.64 138.92 149.84 159.78 170.5 181.72 192.94 203.52 215.14 223.5 235.42 245.96001 256.88 267.60001 277.21799 288.37799 300.298 305.45801 316.61801 326.55801 338.17801 348.89801 359.61801 370.83801 382.758"
         y="286"
         id="tspan118">угольной и металлургической отрасли;</tspan><tspan
         x="0 7.5999999 18 31.52 42.439999 53.959999 64.68 76.300003 86.239998 96.959999 110.24 121.16 133.08 143.02 148.17999 159.7 171.32001 182.48 194.39999 204.24001 215.08 226.24001 237.75999 248.48 258.42001 269.26001 280.17999 292.10001 304.01999 315.17999 324.92001 334.53601 345.69601 358.97601 372.25601 383.17599 394.79599 405.336 416.25601 426.97601 436.59399 447.754 455.87601 467.03601"
         y="325"
         id="tspan120">• Департамент производственно-коммерческого </tspan><tspan
         x="18 28.58 39.119999 50.040001 59.98 70.699997 75.860001 87.779999 92.940002 103.78 113.62 124.34 136.25999 149.53999 160.7 172.32001 183.03999 193.75999 204.3 215.22 225.16 236.32001 247.16"
         y="351"
         id="tspan122">учета и взаиморасчетов;</tspan><tspan
         x="0 7.5999999 18 31.52 42.439999 53.959999 64.68 76.300003 86.239998 96.959999 110.24 121.16 133.08 143.02 148.17999 158.89999 170.06 181.58 193.2 204.36 215.2 226.36 241.34 252.86 263.78 275.70001 287.62 298 303.16 314.67999 325.84 333.95599 345.116 355.95599 367.116 378.73599 389.896 400.73599"
         y="390"
         id="tspan124">• Департамент сопровождения договоров;</tspan><tspan
         x="0 7.5999999 18 31.52 42.439999 53.959999 64.68 76.300003 86.239998 96.959999 110.24 121.16 133.08 143.02 148.17999 158.89999 168.51801 179.23801 190.758 201.67799 213.198 225.118 236.73801 247.89799 258.73801 269.45801 281.37799 293.298 303.67801"
         y="429"
         id="tspan126">• Департамент экспедирования;</tspan><tspan
         x="0 7.5999999 18 31.52 42.439999 53.959999 64.68 76.300003 86.239998 96.959999 110.24 121.16 133.08 143.02 148.17999 158.89999 168.51801 179.23801 190.758 201.978 212.558 223.278 233.218 243.938 255.95799 267.87799 279.798 284.95801 296.478 307.638 319.15799 329.99799 341.918 356.89801 368.81799 379.978 388.09601 399.25601"
         y="468"
         id="tspan128">• Департамент эксплуатации подвижного </tspan><tspan
         x="18 28.719999 39.880001 50.599998 60.540001 71.260002 82.099998 92.82"
         y="494"
         id="tspan130">состава;</tspan><tspan
         x="541.5 549.09998 559.5 573.02002 583.94 595.46002 606.17999 617.79999 627.73999 638.46002 651.73999 662.65997 674.58002 684.52002 689.67999 700.40002 710.01801 721.17798 733.09802 744.258 757.53802 769.45801 779.578 791.49799"
         y="0"
         id="tspan132">• Департамент экономики;</tspan><tspan
         x="541.5 549.09998 559.5 569.97998 581.5 593.12 603.84003 614.67999 625.90002 636.82001 648.73999 660.65997 671.58002 676.73999 687.46002 699.08002 710 721.91998 733.44 746.62 751.78003 763.29999 774.46002 785.97998 796.82001 808.73999 823.71997 835.64001 846.79999 854.91602 866.07599 871.23602 881.95599 893.11603 903.836 913.776 924.49597 935.336 946.05603"
         y="39"
         id="tspan134">• Управление аренды подвижного состава;</tspan><tspan
         x="541.5 549.09998 559.5 569.97998 581.5 593.12 603.84003 614.67999 625.90002 636.82001 648.73999 660.65997 671.58002 676.73999 687.90002 699.52002 707.88 718.59998 730.52002 742.44 752.28003 763 775.02002 786.94 798.85999 804.02002 813.85999 824.58002 834.70001 845.28003 856.79999 867.96002 878.08002"
         y="78"
         id="tspan136">• Управление организации закупок </tspan><tspan
         x="559.5 571.41998 576.58002 588.20001 599.12 609.84003 621.06 632.97998 642.82001 653.53998 665.56 677.47998 689.40002 694.56 705.70001 721.29999 735.58002"
         y="104"
         id="tspan138">и реализации ТМЦ;</tspan><tspan
         x="541.5 549.09998 559.5 569.97998 581.5 593.12 603.84003 614.67999 625.90002 636.82001 648.73999 660.65997 671.58002 676.73999 687.90002 699.52002 707.88 718.59998 730.52002 742.44 752.28003 763 775.02002 786.94 798.09998 810.02002 821.94 833.09998 841.21802 852.37799 857.53802 869.15802 879.87799 889.71802 900.55798 912.47803 922.41803 934.33801 944.71802 949.45801"
         y="143"
         id="tspan140">• Управление организационного развития, </tspan><tspan
         x="559.5 569.12 580.28003 593.56 605.08002 616 627.91998 638.64001 649.35999 661.38 673.29999 685.21997 690.38 702.29999 707.46002 718.67999 728.20001 736.31799 747.47803 757.41803"
         y="169"
         id="tspan142">компенсаций и льгот;</tspan><tspan
         x="541.5 549.09998 559.5 569.97998 581.5 593.12 603.84003 614.67999 625.90002 636.82001 648.73999 660.65997 671.58002 676.73999 688.26001 699.41998 704.58002 716.20001 726.91998 738.26001 749.41998 759.35999 770.28003 775.44 786.15997 791.32001 802.84003 813.76001 825.38 836.09998 847.26001 859.17999 869.90002 881.12 892.28003 905.56"
         y="208"
         id="tspan144">• Управление по работе с персоналом;</tspan><tspan
         x="541.5 549.09998 559.5 569.97998 581.5 593.12 603.84003 614.67999 625.90002 636.82001 648.73999 660.65997 671.58002 676.73999 688.26001 699.41998 710.94 722.28003 733.44 745.06 755.78003 760.52002 765.67999 776.84003 788.85999 799.78003 811.70001 821.82001 833.73999 838.90002 850.82001 855.97998 867.59998 878.32001 888.15997 899 910.91998 920.85999 932.78003 943.15997"
         y="247"
         id="tspan146">• Управление подбора, оценки и развития </tspan><tspan
         x="559.5 571.02002 581.94 593.56 604.28003 615.44 627.35999 638.08002 649.29999 660.02002"
         y="273"
         id="tspan148">персонала;</tspan><tspan
         x="541.5 549.09998 559.5 569.97998 581.5 593.12 603.84003 614.67999 625.90002 636.82001 648.73999 660.65997 671.58002 676.73999 687.46002 698.62 710.14001 721.76001 732.91998 743.76001 754.91998 769.90002 781.41998 792.34003 804.26001 816.17999 826.56 831.71997 842.44 853.96002 864.79602 876.01599 887.17603 897.29602"
         y="312"
         id="tspan150">• Управление сопровождения сделок </tspan><tspan
         x="559.5 571.41998 576.58002 588.5 600.41998 611.26001 622.17999 632.90002 642.84003 654.76001 666.78003 678.70001 690.62"
         y="338"
         id="tspan152">и инвестиций;</tspan><tspan
         x="541.5 549.09998 559.5 577.78003 589.40002 601.32001 612.84003 624.76001 635.29999 646.21997 656.94 667.06 678.97998 690.90002 696.06 707.58002 718.5 730.02002 740.73999 752.35999 762.29999 773.02002 786.29999 797.21997 809.14001 819.08002"
         y="377"
         id="tspan154">• Юридический департамент;</tspan><tspan
         x="541.5 549.09998 559.5 569.97998 581.5 593.12 603.84003 614.67999 625.90002 636.82001 648.73999 660.65997 671.58002 676.73999 686.35797 697.51801 709.138 720.65802 731.81799 743.43799 754.15802 764.09802 776.01801 786.85797 798.77802 811.95801 822.31799 827.47803 837.09601 848.25598 861.53601 874.81598 885.396 897.31598 909.23602 919.35602 930.07599 942.09601 954.01599 965.93597"
         y="416"
         id="tspan156">• Управление корпоративных коммуникаций;</tspan><tspan
         x="541.5 549.09998 559.5 569.97998 581.5 593.12 603.84003 614.67999 625.90002 636.82001 648.73999 660.65997 671.58002 676.73999 688.26001 699.41998 704.58002 715.41998 725.26001 735.97998 747.90002 761.17999 772.34003 783.85999 794.78003 806.70001 817.41998 827.35999 838.20001 850.12 865.38 870.53998 881.26001 886.41998 897.58002 909.20001 917.56 928.28003 940.20001 950.91998 964.20001 976.12"
         y="455"
         id="tspan158">• Управление по взаимодействию с органами </tspan><tspan
         x="559.5 567.62 578.78003 589.5 600.08002 611.59998 622.32001 633.94 644.65997 654.59998 665.44 676.35999 688.28003 700.20001 711.35999 723.28003 728.44 739.28003 750.5 761.21997 771.94 781.88 793.79999 798.96002 805.34003 816.59998 826.70001 839.76001 846.14001"
         y="481"
         id="tspan160">государственной власти (УГВ).</tspan><tspan
         x="-760.40002 -748.03998"
         y="-428.79999"
         id="tspan162">85</tspan></text><g
       id="g166"><g
         id="g168"><g
           id="g170"
           clip-path="url(#clipPath174)"><text
             transform="matrix(1,0,0,-1,99,1023)"
             style="font-variant:normal;font-weight:300;font-stretch:normal;font-size:20px;font-family:'Rubik Light';-inkscape-font-specification:Rubik-Light;writing-mode:lr-tb;fill:#000000;fill-opacity:1;fill-rule:nonzero;stroke:none"
             id="text178"><tspan
               x="0 13.24 18.4 28.02 39.18 52.459999 63.98 74.699997 86.620003 98.540001"
               y="0"
               id="tspan176">О компании</tspan></text></g></g></g></g></svg>
