<?xml version="1.0" encoding="UTF-8" standalone="no"?>
<?xml-stylesheet type="text/css" href="main.css" ?>
<svg
   xmlns:dc="http://purl.org/dc/elements/1.1/"
   xmlns:cc="http://creativecommons.org/ns#"
   xmlns:rdf="http://www.w3.org/1999/02/22-rdf-syntax-ns#"
   xmlns:svg="http://www.w3.org/2000/svg"
   xmlns="http://www.w3.org/2000/svg"
   version="1.1"
   id="svg2"
   xml:space="preserve"
   width="2560"
   height="1440"
   viewBox="0 0 2560 1440"><metadata
     id="metadata8"><rdf:RDF><cc:Work
         rdf:about=""><dc:format>image/svg+xml</dc:format><dc:type
           rdf:resource="http://purl.org/dc/dcmitype/StillImage" /></cc:Work></rdf:RDF></metadata><defs
     id="defs6"><clipPath
       clipPathUnits="userSpaceOnUse"
       id="clipPath20"><path
         d="M 0,1080 H 1920 V 0 H 0 Z"
         id="path18" /></clipPath><linearGradient
       x1="0"
       y1="0"
       x2="1"
       y2="0"
       gradientUnits="userSpaceOnUse"
       gradientTransform="matrix(846.74738,200.16261,200.16261,-846.74738,674.93052,95.824844)"
       spreadMethod="pad"
       id="linearGradient150"><stop
         style="stop-opacity:1;stop-color:#faaa2d"
         offset="0"
         id="stop146" /><stop
         style="stop-opacity:1;stop-color:#2960a1"
         offset="1"
         id="stop148" /></linearGradient><clipPath
       clipPathUnits="userSpaceOnUse"
       id="clipPath168"><path
         d="M 0,0 H 1920 V 1080 H 0 Z"
         id="path166" /></clipPath><clipPath
       clipPathUnits="userSpaceOnUse"
       id="clipPath190"><path
         d="M 0,1080 H 1920 V 0 H 0 Z"
         id="path188" /></clipPath></defs><g
     id="g10"
     transform="matrix(1.3333333,0,0,-1.3333333,0,1440)"><g
       id="g12"><g
         id="g14"><g
           id="g16"
           clip-path="url(#clipPath20)"><path
             d="M 0,0 H 1920 V 1080 H 0 Z"
             style="fill:#ffffff;fill-opacity:1;fill-rule:nonzero;stroke:none"
             id="path22" /></g></g></g><path
       d="M 0,0 H 633 V 1080 H 0 Z"
       style="fill:#e8e8ed;fill-opacity:1;fill-rule:nonzero;stroke:none"
       id="path24" /><text
       transform="matrix(1,0,0,-1,99,953.4)"
       style="font-variant:normal;font-weight:normal;font-stretch:normal;font-size:38px;font-family:'Prosto One';-inkscape-font-specification:ProstoOne-Regular;writing-mode:lr-tb;fill:#000000;fill-opacity:1;fill-rule:nonzero;stroke:none"
       id="text32"><tspan
         x="0 31.92 61.939999 94.620003 126.54 159.78999 192.47 224.39 264.10001 277.39999 309.32001 334.39999 364.60999"
         y="0"
         id="tspan26">ПРИНЦИПЫ ПГК </tspan><tspan
         x="0 31.92 61.939999 94.620003 107.92 138.13 170.05 200.07001 231.23 261.63 293.17001 320.14999 352.07001 384.75 417.42999"
         y="45.599998"
         id="tspan28">ПРИ УПРАВЛЕНИИ </tspan><tspan
         x="0 31.92 58.900002 88.919998 118.94 153.14 185.06 216.22 247.75999 281.95999"
         y="91.199997"
         id="tspan30">ПЕРСОНАЛОМ</tspan></text><text
       transform="matrix(1,0,0,-1,693,960.4)"
       style="font-variant:normal;font-weight:500;font-stretch:normal;font-size:28px;font-family:'Rubik Medium';-inkscape-font-specification:Rubik-Medium;writing-mode:lr-tb;fill:#000000;fill-opacity:1;fill-rule:nonzero;stroke:none"
       id="text36"><tspan
         x="0 19.18 34.048 50.652 66.667999 82.711998 97.580002 113.596 130.78799 146.804 153.188 170.32401 186.508 203.7 219.716 236.32001 253.79201 269.80801 286.72"
         y="0"
         id="tspan34">Структура персонала</tspan></text><text
       transform="matrix(1,0,0,-1,99,791.5001)"
       style="font-variant:normal;font-weight:300;font-stretch:normal;font-size:20px;font-family:'Rubik Light';-inkscape-font-specification:Rubik-Light;writing-mode:lr-tb;fill:#000000;fill-opacity:1;fill-rule:nonzero;stroke:none"
       id="text132"><tspan
         x="0 14 24.719999 40.099998 52.02 57.18 67.900002 79.059998 89 100.24 110.82 122.34 134.25999 146.17999 156.3 168.22 173.38 188.72 193.88 204.60001 214.53999 225.7 230.86 238.698 249.918 260.638 271.478 283.39801 296.578 308.49799 313.65799 324.37799 334.31799 345.93799 356.65799 366.59799 377.51801 385.87799 397.798 408.33801 419.258 429.978 440.09799 452.01801 463.93799"
         y="0"
         id="tspan38">Наши сотрудники — это главный стратегический </tspan><tspan
         x="0 11.62 22.540001 33.259998 43.84 55.459999 66.18 71.339996 83.019997 94.18 107.46 118.98 129.7 141.62 153.53999 165.46001 170.22 175.38 189.38 201 212.92 224.08 235.7 247.62 257.56 268.48001 278.42001 290.34 301.5 313.42001 318.57999 328.42001 339.14001 350.66 361.38 371.92001 382.84 394.76001 399.92001 413.92001 424.01999 436.29999"
         y="26"
         id="tspan40">ресурс Компании. Приоритетной задачей ПГК </tspan><tspan
         x="0 10.84 16 26.58 38.099998 49.720001 60.439999 71.279999 82.5 93.419998 105.34 117.26 129.17999 134.34 145.86 156.78 168.39999 179.12 190.28 202.2 212.92 224.14 235.3 248.58 253.74001 264.12 274.95999 286.17999 296.56 307.48001 317.42001 328.14001 338.51999 343.67999 354.26001 365.78 376.70001 388.32001 403.29999 414.01999 425.94 437.85999 448.78 453.51999"
         y="52"
         id="tspan42">в управлении персоналом является удержание, </tspan><tspan
         x="0 11.52 23.139999 35.060001 45.900002 57.119999 68.040001 78.580002 89.5 101.42 113.34 124.26 129.42 140.64 151.22 161.75999 177.14 189.06 199.42 204.58 215.3 226.82001 237.74001 249.75999 261.67999 272.39999 283.62 295.54001 306.26001 316.20001 327.35999 338.20001 342.94 348.10001 359.26001 370.60001 381.51999 392.23999 403.76001 414.67999 425.22 436.14001 448.06 459.98001 470.89999"
         y="78"
         id="tspan44">привлечение лучших специалистов, обеспечение </tspan><tspan
         x="0 11.92 22.280001 27.440001 38.959999 50.580002 61.740002 75.32 86.239998 96.959999 107.68 119.6 130.75999 142.67999 153.39999 164.62 174.14 186.06 197.22 205.338 216.498 221.658 233.278 243.998 253.838 264.67801 276.59799 286.53799 298.45801 308.83801"
         y="104"
         id="tspan46">их профессионального развития.</tspan><tspan
         x="0 15.6 28.780001 33.939999 44.66 55.82 67.160004 78.379997 93.639999 105.16 115.88 126.8 140.08 145.24001 156.75999 168.38 179.10001 189.94 200.66 205.82001 216.53999 227.38 238.53999 250.46001 260.82001 265.98001 277.60001 288.32001 299.66 310.82001 320.76001 332.67999 344.60001 354.216 365.37601 376.216 381.37601 392.216 397.37601 408.09601 421.67599 432.59601 444.216 455.13599"
         y="143"
         id="tspan48">Мы соблюдаем права своих работников в сфере </tspan><tspan
         x="0 9.9399996 21.18 31.76 43.279999 54 58.740002 63.900002 75.059998 86.580002 98.5 110.12 120.84 131.22 141.94 151.46001 156.62 168.53999 179.25999 184.42 196.03999 207.2 217.92 228.64 240.56 252.48 263.20001 272.81799 283.978 294.89801 300.05801 309.99799 321.23599 331.81601 343.336 354.496 365.336 376.496 387.41599"
         y="169"
         id="tspan50">труда, опираясь на российское трудовое </tspan><tspan
         x="0 11.92 17.08 25.440001 37.060001 47.779999 62.759998 74.279999 85 96.919998 107.64 117.258 128.418 139.338 144.498 154.338 165.058 174.67799 185.838 197.758 208.918 220.438 231.158 241.09801 251.938 263.15799 272.67801 283.39801 293.33801 304.17801 315.09601 319.836 324.996 338.056 348.776 359.69601 370.85599 382.19601 397.97601 408.556 423.81601"
         y="195"
         id="tspan52">и гражданское законодательство, Всеобщую </tspan><tspan
         x="0 11.52 22.440001 32.560001 43.779999 54.5 66.120003 76.839996 88.860001 100.78 116.04 121.2 132.72 144.34 155.06 165.89999 171.06 181.60001 192.438 203.658 214.81799 225.658 236.578 246.698 257.418 262.578 275.81799 289.05801 302.87601 307.616 312.776 323.496 328.65601 338.59601 349.31601 359.436 374.41599 385.336"
         y="221"
         id="tspan54">декларацию прав человека ООН, а также </tspan><tspan
         x="0 11.52 22.48 33.700001 44.860001 59.84 70.760002 82.68 94.599998 104.98 110.14 121.818 132.978 144.498 155.418 165.03799 175.758 186.478 191.638 201.258 212.418 224.03799 235.558 246.718 258.33801 269.05801 278.99799 290.918 301.758 313.67801 324.83801 336.758 341.918 352.638 362.578 374.49799 384.61801 396.53799"
         y="247"
         id="tspan56">положения Кодекса корпоративной этики </tspan><tspan
         x="0 11.68 22.84 36.119999 47.639999 58.360001 70.279999 82.199997 94.120003"
         y="273"
         id="tspan58">Компании.</tspan><tspan
         x="0 13.06 18.219999 29.42 41.740002 52.939999 65.260002 70.419998 78.540001 89.699997 101.22 111.8 116.96 128.64 139.8 153.08 165 174.94 185.86 195.8 206.96001 220.24001 225.39999 236.92 248.08 253.24001 263.35999 274.07999 285.60001 297.22 307.94 321.22"
         y="312"
         id="tspan60">В 2020 году Комитетом по кадрам </tspan><tspan
         x="0 11.92 17.08 27.92 39.080002 48.919998 60.84 71.559998 79.919998 91.540001 102.26 117.24 128.75999 139.67999 151.60001 163.52 173.89999 187.17999 192.34 206.34 216.44 228.72 233.88 244.46001 254.39999 265.23999 276.16 287.78 302.76001 314.28 325.20001 337.12 347.84 353 363.72 373.66 385.28 396 405.94 416.85999 425.22 437.14001 447.51999"
         y="338"
         id="tspan62">и вознаграждениям ПГК утверждена стратегия </tspan><tspan
         x="0 11.52 22.68 27.84 38.419998 49.939999 61.560001 72.279999 83.120003 94.339996 105.26 117.18 129.10001 144.36 149.52 161.03999 171.96001 183.58 194.3 205.46001 217.38 228.10001 239.32001 250.48 263.76001 268.92001 280.44 291.60001 296.76001 307.95999 320.28 331.48001 343 348.16 356.276 367.436 378.95599 389.67599 394.41599"
         y="364"
         id="tspan64">по управлению персоналом до 2023 года, </tspan><tspan
         x="0 9.6199999 20.780001 30.719999 41.880001 53.5 64.220001 74.599998 79.760002 91.68 102.4 113.92 125.54 136.25999 147.10001 158.32001 169.24001 181.16 191.88 197.03999 208.96001 219.67999 224.84 235.67999 248.86 259.57999 269.51999 281.14001 291.85999 303.78 314.62 325.34 337.26001 349.17999 360.10001 365.26001 375.98001 387.89999 398.62 408.56 419.48001 432.76001 445.94"
         y="390"
         id="tspan66">которая направлена на выстраивание системы </tspan><tspan
         x="0 10.72 24.299999 37.880001 48.799999 58.919998 68.860001 80.779999 91.620003 103.54 116.72 127.08 132.24001 143.08 152.92 163.64 175.56 188.84 200 211.16 221.10001 233.02 244.17999 259.56 270.48001 282.39999 294.32001 306.23999 311.39999 322.92001 334.14001 344.51999 349.67999 361.20001 372.35999 383.07999 393.01999 404.94 419.92001 430.84 442.76001 454.67999 465.06"
         y="416"
         id="tspan68">эффективных взаимоотношений для достижения </tspan><tspan
         x="0 10.72 20.66 32.279999 43 52.939999 63.860001 72.220001 84.139999 94.68 105.6 116.32 126.44 138.36 148.72 153.88 165.89999 176.73801 187.95799 198.87801 210.798 215.95799 227.638 238.798 252.078 263.59799 274.31799 286.23801 298.15799 310.078 314.83801 319.99799 331.69601 342.616 347.776 357.896 369.116 384.37601 394.91599 405.836 416.67599 427.836 439.75601"
         y="442"
         id="tspan70">стратегических целей Компании. Ее ключевой </tspan><tspan
         x="0 11.52 23.139999 35.060001 46.220001 57.84 69.760002 79.699997 90.620003 100.56 105.72 121.06 126.22 137.84 148.56 158.39999 169.24001 181.16 191.10001 203.02 213.94 219.10001 228.718 239.87801 253.158 264.67801 275.59799 285.53799 296.45801 308.37799 320.39801 332.31799 344.23801 349.39801 360.11801 371.27802 381.21799 392.45599 403.03601 414.556 426.47601 438.396 448.01401 459.17401 470.01401"
         y="468"
         id="tspan72">приоритет — развитие компетенций сотрудников </tspan><tspan
         x="0 11.92 17.08 27.66 37.779999 49.400002 60.32 71.839996 83.059998 93.980003 105.9 117.82 128.74001 133.89999 144.02 154.74001 166.25999 177.88 189.03999 199.88 211.03999 219.158 230.31799 235.478 247.09801 258.01801 267.858 278.77802 290.39801 301.23801 311.95801"
         y="494"
         id="tspan74">и укрепление кадрового резерва.</tspan><tspan
         x="594.12 608.12 618.84003 624 635.12 643.08002 648.23999 659.76001 670.67999 680.79999 691.52002 702.85999 714.47998 724.85999 730.02002 741.21997 753.53998 764.73999 777.06 782.21997 790.33801 801.49799 813.01801 823.73798 828.89801 839.61798 851.138 863.05798 873.77802 884.93799 895.47803 907.39801 918.11798 928.49799 933.65802 944.198 956.11798 966.83801 978.05798 988.97803 1000.898 1012.818 1023.978 1034.698 1044.6379 1054.158"
         y="-91.300003"
         id="tspan76">На 31 декабря 2020 года списочная численность </tspan><tspan
         x="594.12 604.84003 616 625.94 637.17999 647.76001 659.28003 671.20001 683.12 692.73798 703.89801 714.73798 719.89801 733.89801 743.99799 756.27802 761.43799 772.15802 783.31799 794.03802 803.97803 814.698 825.53802 837.45801 848.67798 859.39801 864.55798 876.078 881.23798 893.138 905.03802 916.67798 921.83801 932.37799 943.216 954.43597"
         y="-65.300003"
         id="tspan78">сотрудников ПГК составила 3 446 чел.</tspan><tspan
         x="594.12 607.17999 612.34003 624.02002 635.17999 648.46002 659.97998 670.70001 682.62 694.53998 706.46002 711.62 723.23999 733.96002 745.29999 756.46002 766.40002 777.12 792.38 802.32001 807.47998 818.20001 829.71997 840.64001 852.65997 864.58002 875.29999 886.52002 898.44 909.15997 919.09998 932.28003 937.44 949.06 959.78003 969.62 981.53998 992.70001 1000.816 1011.976 1017.136 1027.976 1039.136 1048.976 1060.5959 1071.316 1082.036 1091.976 1102.696 1107.436"
         y="-13.3"
         id="tspan80">В Компании работают специалисты разного возраста, </tspan><tspan
         x="594.12 605.46002 616.41998 627.64001 638.56 649.47998 654.64001 666.15997 677.11798 688.33801 699.49799 710.33801 722.258 734.17798 747.35797 752.51801 764.43799 774.27802 779.43799 791.35797 803.27802 813.638 818.79797 829.95801 839.89801 851.81799 862.97803 873.698 884.078 894.01801 904.73798 915.11798 920.27802 930.39801 935.55798 946.39801 957.55798 967.39801 979.01801 989.73798 1000.458 1010.398 1022.318 1033.478 1045.3979"
         y="12.7"
         id="tspan82">более половины из них относятся к возрастной </tspan><tspan
         x="594.12 604.23999 614.96002 624.90002 635.82001 643.94 655.09998 666.71997 678.64001 690.56 695.71997 707.23999 719.56 730.87799 742.31799 754.638 759.79797 771.01801 781.93799 791.87799 797.03802 808.95801 814.11798 826.03802 839.31799 850.23798 865.49799 875.43799 880.59802 891.43799 904.61798 915.33801 930.71802 941.638 952.55798 957.71802 968.87799 980.21802 991.83801 1002.558 1012.398 1023.558 1034.3979 1045.118 1057.038 1068.958"
         y="38.700001"
         id="tspan84">категории 30–50 лет и имеют высшее образование</tspan><tspan
         x="594.12 609.71997 622.90002 628.06 639.58002 651.20001 662.12 673.64001 684.79999 695.52002 705.46002 716.17999 727.02002 738.23999 748.62 759.53998 772.82001 777.97998 789.59998 800.32001 811.15997 823.08002 836.26001 847.17999 852.34003 863.17999 874.34003 884.17999 897.46002 908.62 923.59998 935.52002 946.67999 957.40002 967.34003 979.26001 984.41998 995.94 1007.16 1017.54 1022.7 1035.98 1046.5601 1061.54 1072.08 1084 1095.92 1101.08 1113"
         y="64.699997"
         id="tspan86">Мы предоставляем равные возможности для мужчин и </tspan><tspan
         x="594.12 609.09998 620.02002 631.94 647.84003 659.76001 671.67999 676.44 681.59998 695.59998 707.21997 719.14001 724.29999 735.82001 747.44 759.35999 771.28003 781.65997 791.59998 803.52002 815.44 820.59998 832.21997 843.14001 858.52002 869.44 881.35999 893.28003 905.20001 910.35999 921.52002 926.67999 938.59998 949.32001 961.23999 974.52002 985.44 990.59998 1002.52 1007.68 1017.8 1028.52 1040.14 1049.66 1060.58 1072.2 1084.12 1097.3 1107.66"
         y="90.699997"
         id="tspan88">женщин. При принятии решений о найме и карьерных </tspan><tspan
         x="594.12 606.03998 615.88 629.15997 640.08002 652 662.91998 674.84003 686.76001 697.14001 707.5 712.65997 724.17999 735.79999 746.71997 761.70001 773.21997 784.14001 789.29999 800.14001 810.85999 821.78003 829.896 841.05603 846.216 857.37598 869.396 880.31598 892.23602 904.15601 914.99597 925.716 936.63599 949.91602 955.07599 966.59601 978.216 989.37598 1002.956 1013.876 1024.5959 1035.316 1047.236 1058.396 1070.316 1081.036 1092.256 1104.176 1114.016 1127.296"
         y="116.7"
         id="tspan90">изменениях прежде всего оцениваем профессионализм </tspan><tspan
         x="594.12 604.84003 616 625.94 637.17999 647.76001 659.28003 671.20001 683.12 692.73798 703.89801 714.73798 719.47803 724.638 736.55798 746.91803 752.078 763.29797 775.21802 786.73798 797.65802 809.27802 819.99799 830.11798 842.03802 852.95801 858.11798 868.23798 878.95801 889.49799 900.41803 911.138 921.078 931.91803 942.638 947.37799 952.53802 963.698 975.31799 987.23798 998.15802 1010.078 1020.018 1030.738 1042.7581 1054.678 1069.938"
         y="142.7"
         id="tspan92">сотрудников, их лидерские качества, ориентацию </tspan><tspan
         x="594.12 606.03998 616.76001 621.91998 633.53998 644.46002 654.29999 664.29999 675.52002 685.03998 694.97998 705.70001 715.64001 720.79999 732.71997 737.88 748.46002 761.73999 772.65997 784.58002 796.5 807.41998 812.58002 824.20001 834.91998 846.26001 857.41998 867.35999 878.08002 888.02002 897.53998 902.70001 913.53998 918.70001 928.31598 939.47601 952.75598 963.47601 975.396 986.91602 997.836"
         y="168.7"
         id="tspan94">на результат и умение работать в команде.</tspan><tspan
         x="594.12 607.64001 618.59998 629.82001 640.20001 645.35999 660.34003 671.26001 683.17999 699.08002 711 722.91998 728.08002 738.91998 744.08002 754.79999 766.32001 778.23999 788.96002 800.12 810.65997 822.58002 833.73999 845.65997 850.82001 861.35999 873.28003 884 895.21997 906.14001 918.06 929.97998 941.14001 951.85999 961.79999 973.71997 978.88 990.40002 1001.32 1012.94 1023.66 1034.8199 1046.74 1057.46 1068.6801 1079.4"
         y="220.7"
         id="tspan96">Доля женщин в списочной численности персонала </tspan><tspan
         x="594.12 604.84003 616 626.71997 636.65997 647.38 658.21997 669.44 679.82001 690.73999 700.67999 705.84003 717.73999 729.26001 744.08002 748.84003 754 768 779.62 790.53998 801.38 814.56 829.94 840.85999 852.78003 864.70001 875.62 880.78003 890.396 901.35602 912.57599 924.49597 935.03601 945.95599 956.67603 966.61603 977.45599 988.17603 993.336 1006.616 1017.196 1032.176 1042.7159 1054.636 1066.556"
         y="246.7"
         id="tspan98">составляет 43%. Превышение количества мужчин </tspan><tspan
         x="594.12 604.84003 615.67999 626.06 635.90002 646.62 658.53998 669.70001 674.85999 685.58002 696.73999 701.90002 712.62 724.14001 735.06 747.08002 759 772.58002 784.5 794.11798 805.27802 817.198 822.35797 834.27802 844.99799 860.37799 872.29797 882.65802 887.81799 899.33801 910.95801 922.11798 934.03802 943.87799 954.71802 965.87799 977.39801 988.11798 998.05798 1008.898 1019.818 1031.738 1043.658 1056.838 1067.198"
         y="272.70001"
         id="tspan100">связано со спецификой наших производственных </tspan><tspan
         x="594.12 605.64001 616.85999 628.02002 643.91998 654.64001 666.15997 677.32001 687.44 692.59998 698.17798 709.698 721.31799 732.47803 745.758 758.93799 769.77802 780.93799 791.47803 803.39801 814.55798 824.29797 835.81799 847.43799 858.59802 870.11798 880.83801 892.45801 903.61798 914.15802 926.078 939.258 949.61798 954.77802 965.49799 975.43799 986.15802 998.078 1010.098 1022.018 1033.938"
         y="298.70001"
         id="tspan102">площадок (промывочно-пропарочных станций </tspan><tspan
         x="1188 1199.92 1205.08 1220.0601 1230.9 1242.12 1253.04 1262.88 1274.8 1285.96 1297.48 1308.64 1320.26 1331.42 1346.4 1358.3199 1371.5 1381.86 1387.02 1399.04 1409.96 1420.3199 1431.48 1442.3199 1448.7 1453.4399 1458.6 1470.52 1481.4399 1486.6 1498.12 1509.74 1520.66 1532.1801 1543.7 1554.656 1565.876 1576.5959 1584.9561 1595.676 1610.936 1626.8361 1638.756 1649.116"
         y="-91.300003"
         id="tspan104">и железнодорожных цехов), не предполагающих </tspan><tspan
         x="1188 1197.9399 1209.1801 1219.76 1231.28 1242 1247.16 1262.14 1273.0601 1284.98 1300.88 1312.8 1324.72"
         y="-65.300003"
         id="tspan106">труда женщин.</tspan><tspan
         x="1188 1199.4399 1211.8 1226.62 1231.78 1242.5 1253.66 1263.6 1274.84 1285.42 1296.9399 1308.86 1320.78 1330.3979 1341.558 1352.3979 1357.558 1371.558 1381.658 1393.938 1399.098 1411.0179 1424.298 1435.218 1450.478 1460.418 1465.578 1477.098 1488.2581 1498.978 1508.918 1520.078 1530.458 1542.3781 1554.298 1567.478 1579.3979 1584.558 1594.498 1605.736 1616.316 1627.8361 1638.996 1649.8361 1660.996 1672.916"
         y="-13.3"
         id="tspan108">98% сотрудников ПГК имеют постоянный трудовой </tspan><tspan
         x="1188 1197.62 1208.78 1220.7 1230.64 1242.26 1252.98 1263.1 1273.04 1278.2 1290.12 1295.28 1306.8 1317.7581 1328.978 1340.8979 1351.478 1366.738 1371.8979 1383.418 1395.038 1406.198 1417.718 1428.678 1439.8979 1454.8781 1466.798 1476.738 1487.576 1498.796 1508.316 1520.236 1531.396 1542.116 1552.056 1561.576 1566.736 1576.676 1587.916 1598.496 1610.016 1621.176 1632.016 1643.176 1651.296 1662.4561"
         y="12.7"
         id="tspan110">контракт и полную продолжительность трудового </tspan><tspan
         x="1188 1199.52 1211.4399 1221.8199 1226.58 1231.74 1242.9399 1257.76 1262.92 1272.86 1284.098 1294.678 1306.198 1317.358 1328.198 1341.3781 1351.738 1356.8979 1366.5179 1377.678 1389.598 1399.538 1411.158 1421.8781 1431.998 1441.938 1453.098 1463.938 1469.098 1478.938 1489.658 1499.778 1510.998 1526.2581 1536.798 1547.718 1559.6379 1572.818 1577.978 1589.8979 1600.618 1605.778 1616.498 1628.118 1639.278 1649.818 1661.738 1674.918 1685.278"
         y="38.700001"
         id="tspan112">дня. 2% трудовых контрактов заключены на срочных </tspan><tspan
         x="1188 1199.16 1209.88 1221.8 1232.96 1243.8 1254.52 1266.4399 1278.36 1288.74 1299.1 1303.86 1309.02 1322.08 1333.7 1344.62 1357.9 1368.8199 1380.74 1392.66 1405.84 1416.76 1421.92 1433.54 1444.26 1455.6 1466.76 1476.7 1488.62 1500.54 1510.66 1522.58 1527.74 1539.26 1550.88 1562.8 1573.64 1584.86 1595.78 1605.9 1616.62 1631.88 1641.8199 1652.54 1662.92"
         y="64.699997"
         id="tspan114">основаниях. Временные работники привлекаются </tspan><tspan
         x="1188 1199.52 1210.74 1221.12 1226.28 1237.8 1249.42 1260.58 1272.5 1282.34 1293.1801 1304.34 1315.86 1326.58 1336.52 1347.36 1358.08 1363.24 1374.76 1386.38 1397.54 1408.46 1418.58 1428.52 1440.4399 1453.62 1463.98 1469.14 1481.0601 1486.22 1497.84 1508.5601 1518.4 1529.5601 1540.4 1553.58 1563.9399 1569.1 1580.72 1591.4399 1602.78 1613.9399 1623.88 1628.62"
         y="90.699997"
         id="tspan116">для производства проектных и разовых работ, </tspan><tspan
         x="1188 1199.16 1207.52 1219.14 1229.86 1241.78 1253.7 1264.24 1275.16 1287.08 1299 1312.1801 1322.54 1327.7 1338.54 1349.7 1354.86 1365.7 1377.3199 1388.24 1401.52 1412.4399 1424.36 1436.28 1441.02 1446.1801 1456.9 1462.0601 1472 1482.72 1492.84 1507.8199 1518.74 1523.9 1533.74 1544.46 1557.74 1568.66 1584.5601 1595.48 1607.4 1619.3199 1629.7"
         y="116.7"
         id="tspan118">ограниченных во времени, а также замещения </tspan><tspan
         x="1188 1203.38 1213.3199 1224.04 1233.98 1245.9 1257.0601 1265.1801 1276.34 1281.5 1293.02 1303.9399 1315.5601 1326.28 1337.4399 1349.36 1360.08 1371.3 1382.02 1386.76 1391.92 1403.4399 1414.66 1426.58 1436.52 1447.358 1458.578 1468.098 1480.0179 1491.178 1496.338 1507.498 1517.438 1528.158 1538.738 1548.678 1559.3979 1569.338 1580.178 1590.7581 1606.0179 1621.918 1632.838 1640.9561 1652.116"
         y="142.7"
         id="tspan120">штатного персонала, длительно отсутствующего </tspan><tspan
         x="1188 1199.92 1210.64 1215.8 1225.64 1236.36 1245.98 1257.14 1269.0601 1280.98 1294.16 1304.52 1309.6801 1320.84 1331.5601 1343.48 1354.64 1365.48 1376.2 1388.12 1400.04 1410.42 1420.78"
         y="168.7"
         id="tspan122">на законных основаниях.</tspan><tspan
         x="1188 1202 1212.92 1223.64 1236.92 1248.08 1258.02 1269.64 1280.02 1285.1801 1297.1 1307.8199 1312.98 1323.7 1334.92 1346.08 1361.0601 1372.98 1386.16 1398.08 1403.24 1414.76 1425.98 1436.36 1441.52 1452.36 1463.08 1474 1482.116 1493.276 1498.436 1511.7159 1523.636 1535.256 1545.976 1551.136 1559.256 1570.416 1581.936 1587.0959 1599.016 1604.176 1615.696 1626.416 1638.3361 1649.856 1660.776 1674.056 1685.976 1700.994 1705.734"
         y="220.7"
         id="tspan124">Несмотря на сложный для всего мира год и пандемию, </tspan><tspan
         x="1188 1199.6801 1210.84 1224.12 1235.64 1246.36 1258.28 1270.2 1280.58 1285.74 1296.9 1308.42 1320.34 1331.5 1343.42 1348.58 1360.5 1370.34 1375.5 1387.02 1397.9399 1409.5601 1420.4 1433.58 1443.9399 1449.1 1459.3361 1470.056 1481.576 1492.496 1507.876 1519.796 1530.9561 1536.116 1547.276 1558.896 1567.256 1577.976 1589.896 1601.816 1611.656 1622.816 1633.656 1644.376 1655.5959 1666.316"
         y="246.7"
         id="tspan126">Компания одной из первых успешно организовала </tspan><tspan
         x="1188 1198.58 1210.1 1220.8199 1232.04 1242.96 1254.88 1266.8 1277.38 1292.64 1297.8 1309.42 1320.14 1331.48 1342.64 1352.58 1361.958 1366.698 1371.858 1383.0179 1394.358 1405.278 1415.998 1427.5179 1438.438 1448.978 1460.8979 1471.738 1476.8979 1488.238 1499.158 1508.998 1520.158 1531.678 1542.3979 1553.118 1565.038 1576.198 1586.918 1596.858 1606.3781 1611.538 1621.1541 1632.314 1645.594 1656.314 1668.234 1679.754 1692.934"
         y="272.70001"
         id="tspan128">удаленную работу, обеспечив безопасность команды </tspan><tspan
         x="1188 1198.72 1203.88 1214.6 1225.76 1236.12 1247.74 1258.46 1270.38 1281.3 1293.22 1305.14 1316.0601 1329.34 1334.5 1345.22 1358.8 1372.38 1383.3 1393.42 1403.36 1415.28 1426.12 1438.04 1449.2 1459.92 1469.86 1481.78 1486.9399 1498.5601 1509.28 1520.62 1531.78 1542.3199 1554.24 1564.6 1569.76 1581.28 1592.9 1604.0601 1616.08 1627 1637.72 1648.4399 1659.6 1670.4399"
         y="298.70001"
         id="tspan130">с сохранением эффективности рабочих процессов.</tspan></text><g
       id="g134"><g
         id="g136"><g
           id="g142"><g
             id="g144"><path
               d="m 1367.761,274.488 c -15.232,-14.238 -22.849,-34.319 -22.849,-60.248 v 0 -44.88 c 0,-23.936 7.387,-42.39 22.169,-55.352 v 0 c 14.777,-12.967 36.856,-19.448 66.232,-19.448 v 0 c 14.688,0 27.514,1.632 38.488,4.896 v 0 c 10.969,3.264 20.17,7.794 27.608,13.6 v 0 c 7.433,5.802 13.009,12.826 16.727,21.08 v 0 c 3.716,8.249 5.577,17.272 5.577,27.064 v 0 c 0,9.792 -1.816,18.811 -5.441,27.064 v 0 c -3.629,8.249 -8.975,15.275 -16.048,21.08 v 0 c -7.071,5.801 -15.776,10.336 -26.111,13.6 v 0 c -10.337,3.264 -22.126,4.896 -35.36,4.896 v 0 c -8.161,0 -15.461,-0.727 -21.897,-2.176 v 0 c -6.438,-1.453 -11.832,-2.992 -16.183,-4.624 v 0 c -5.262,-1.997 -9.792,-4.262 -13.6,-6.8 v 0 c 0,21.033 4.488,36.49 13.464,46.376 v 0 c 8.975,9.881 21.258,14.824 36.856,14.824 v 0 c 3.986,0 8.474,-0.319 13.464,-0.952 v 0 c 4.985,-0.638 10.153,-1.768 15.504,-3.4 v 0 c 5.346,-1.632 10.786,-3.855 16.32,-6.664 v 0 c 5.529,-2.814 10.833,-6.392 15.912,-10.744 v 0 l 12.24,16.32 c -10.336,8.882 -22.215,15.411 -35.632,19.584 v 0 c -13.422,4.17 -26.928,6.256 -40.528,6.256 v 0 c -29.376,0 -51.681,-7.119 -66.912,-21.352 m 32.231,-147.152 c -8.615,9.154 -12.919,22.257 -12.919,39.304 v 0 24.48 c 3.442,3.264 7.522,6.163 12.24,8.704 v 0 c 4.169,2.176 9.291,4.216 15.367,6.12 v 0 c 6.073,1.904 13.192,2.856 21.353,2.856 v 0 c 6.162,0 11.874,-1.135 17.136,-3.4 v 0 c 5.257,-2.269 9.834,-5.487 13.736,-9.656 v 0 c 3.897,-4.174 6.978,-9.206 9.248,-15.096 v 0 c 2.265,-5.895 3.399,-12.376 3.399,-19.448 v 0 c 0,-7.072 -1.134,-13.558 -3.399,-19.448 v 0 c -2.27,-5.894 -5.44,-10.927 -9.52,-15.096 v 0 c -4.08,-4.173 -8.976,-7.391 -14.688,-9.656 v 0 c -5.713,-2.27 -11.926,-3.4 -18.632,-3.4 v 0 c -13.601,0 -24.709,4.577 -33.321,13.736 M 727.48,288.224 c -14.055,-5.079 -26.249,-12.062 -36.584,-20.944 v 0 l 12.24,-16.32 c 10.335,8.883 21.08,15.185 32.231,18.904 v 0 c 11.152,3.714 23.528,5.576 37.129,5.576 v 0 c 14.322,0 25.385,-3.039 33.184,-9.112 v 0 c 7.794,-6.078 11.695,-13.918 11.695,-23.528 v 0 c 0,-23.574 -13.148,-35.36 -39.439,-35.36 v 0 h -50.32 v -20.4 h 55.759 c 14.323,0 24.931,-2.95 31.824,-8.84 v 0 c 6.89,-5.895 10.337,-14.28 10.337,-25.16 v 0 c 0,-10.88 -4.309,-19.95 -12.921,-27.2 v 0 c -8.614,-7.255 -22.439,-10.88 -41.48,-10.88 v 0 c -13.6,0 -26.205,2.129 -37.807,6.392 v 0 c -11.607,4.258 -22.576,11.195 -32.912,20.808 v 0 l -13.6,-16.32 c 10.336,-9.613 22.983,-17.23 37.944,-22.848 v 0 c 14.96,-5.618 31.322,-8.432 49.096,-8.432 v 0 c 16.32,0 30.371,1.454 42.16,4.352 v 0 c 11.785,2.899 21.53,6.843 29.24,11.832 v 0 c 7.705,4.985 13.37,10.88 17,17.68 v 0 c 3.625,6.8 5.439,14.097 5.439,21.896 v 0 c 0,13.056 -3.854,23.618 -11.559,31.688 v 0 c -7.71,8.067 -18.36,13.826 -31.96,17.272 v 0 c 12.329,4.169 21.305,10.018 26.928,17.544 v 0 c 5.619,7.523 8.432,17.09 8.432,28.696 v 0 c 0,7.072 -1.768,13.689 -5.305,19.856 v 0 c -3.536,6.162 -8.839,11.513 -15.912,16.048 v 0 c -7.071,4.53 -15.868,8.066 -26.383,10.608 v 0 c -10.519,2.537 -22.759,3.808 -36.72,3.808 v 0 c -17.774,0 -33.686,-2.542 -47.736,-7.616 m 527.266,2.176 -123.76,-125.392 V 143.52 h 133.28 V 100 h 39.441 v 43.52 h 23.119 v 19.04 h -23.119 V 290.4 Z m 6.8,-35.36 h 2.72 v -92.48 h -93.839 z M 1044.491,290.4 920.732,165.008 V 143.52 h 133.28 V 100 h 39.439 v 43.52 h 23.12 v 19.04 h -23.12 V 290.4 Z m 6.801,-35.36 h 2.72 v -92.48 h -93.841 z"
               style="fill:url(#linearGradient150);stroke:none"
               id="path152" /></g></g></g></g><text
       transform="matrix(1,0,0,-1,1579,152)"
       style="font-variant:normal;font-weight:500;font-stretch:normal;font-size:20px;font-family:'Rubik Medium';-inkscape-font-specification:Rubik-Medium;writing-mode:lr-tb;fill:#000000;fill-opacity:1;fill-rule:nonzero;stroke:none"
       id="text160"><tspan
         x="0 11.44 23.68 36.16 47.599998 59.459999 71.040001 83.519997 94.959999 106.48 111.04 122.62 135.10001 146.53999 158.62 170.17999 182.66 195.14 207 218.44 229.06 239.67999"
         y="0"
         id="tspan154">списочная численность </tspan><tspan
         x="0 11.44 23.299999 33.919998 45.779999 57.220001 69.800003 82.279999 94.760002 105.76 117.62 129.32001 133.88 148.48 159.36 172.8"
         y="26"
         id="tspan156">сотрудников ПГК </tspan><tspan
         x="0 12.48 23.92 28.4 40.700001 49.98 54.459999 67.040001 78.599998 90.059998 101.5 113.46 125.74 137.25999 141.74001 154.14 167.32001 179.72 192.89999 197.38 206.12 217.98 230.56"
         y="52"
         id="tspan158">на 31 декабря 2020 года</tspan></text><g
       id="g162"><g
         id="g164"
         clip-path="url(#clipPath168)"><g
           id="g170"
           transform="translate(1714,290.4)"><path
             d="m 0,0 h -120 c -11.046,0 -20,-8.954 -20,-20 0,-11.046 8.954,-20 20,-20 H 0 c 11.046,0 20,8.954 20,20 C 20,-8.954 11.046,0 0,0"
             style="fill:#e8e8ed;fill-opacity:1;fill-rule:nonzero;stroke:none"
             id="path172" /></g></g></g><text
       transform="matrix(1,0,0,-1,1596.6858,263.1183)"
       style="font-variant:normal;font-weight:500;font-stretch:normal;font-size:28px;font-family:'Rubik Medium';-inkscape-font-specification:Rubik-Medium;writing-mode:lr-tb;fill:#000000;fill-opacity:1;fill-rule:nonzero;stroke:none"
       id="text176"><tspan
         x="0 16.212 32.256001 49.167999 65.772003 82.152 98.335999"
         y="0"
         id="tspan174">человек</tspan></text><text
       transform="matrix(1,0,0,-1,37.1401,1023)"
       style="font-variant:normal;font-weight:300;font-stretch:normal;font-size:20px;font-family:'Rubik Light';-inkscape-font-specification:Rubik-Light;writing-mode:lr-tb;fill:#000000;fill-opacity:1;fill-rule:nonzero;stroke:none"
       id="text180"><tspan
         x="0 12.36"
         y="0"
         id="tspan178">88</tspan></text><g
       id="g182"><g
         id="g184"><g
           id="g186"
           clip-path="url(#clipPath190)"><text
             transform="matrix(1,0,0,-1,99,1023)"
             style="font-variant:normal;font-weight:300;font-stretch:normal;font-size:20px;font-family:'Rubik Light';-inkscape-font-specification:Rubik-Light;writing-mode:lr-tb;fill:#000000;fill-opacity:1;fill-rule:nonzero;stroke:none"
             id="text194"><tspan
               x="0 13.24 18.4 28.02 39.18 52.459999 63.98 74.699997 86.620003 98.540001"
               y="0"
               id="tspan192">О компании</tspan></text></g></g></g></g></svg>
