<?xml version="1.0" encoding="UTF-8" standalone="no"?>
<?xml-stylesheet type="text/css" href="main.css" ?>
<svg
   xmlns:dc="http://purl.org/dc/elements/1.1/"
   xmlns:cc="http://creativecommons.org/ns#"
   xmlns:rdf="http://www.w3.org/1999/02/22-rdf-syntax-ns#"
   xmlns:svg="http://www.w3.org/2000/svg"
   xmlns="http://www.w3.org/2000/svg"
   version="1.1"
   id="svg2"
   xml:space="preserve"
   width="2560"
   height="1440"
   viewBox="0 0 2560 1440"><metadata
     id="metadata8"><rdf:RDF><cc:Work
         rdf:about=""><dc:format>image/svg+xml</dc:format><dc:type
           rdf:resource="http://purl.org/dc/dcmitype/StillImage" /></cc:Work></rdf:RDF></metadata><defs
     id="defs6"><clipPath
       clipPathUnits="userSpaceOnUse"
       id="clipPath20"><path
         d="M 0,1080 H 1920 V 0 H 0 Z"
         id="path18" /></clipPath><linearGradient
       x1="0"
       y1="0"
       x2="1"
       y2="0"
       gradientUnits="userSpaceOnUse"
       gradientTransform="matrix(1002.0105,899.05261,899.05261,-1002.0105,677.38195,77.130463)"
       spreadMethod="pad"
       id="linearGradient282"><stop
         style="stop-opacity:1;stop-color:#faaa2d"
         offset="0"
         id="stop278" /><stop
         style="stop-opacity:1;stop-color:#2960a1"
         offset="1"
         id="stop280" /></linearGradient><clipPath
       clipPathUnits="userSpaceOnUse"
       id="clipPath300"><path
         d="M 0,0 H 1920 V 1080 H 0 Z"
         id="path298" /></clipPath><linearGradient
       x1="0"
       y1="0"
       x2="1"
       y2="0"
       gradientUnits="userSpaceOnUse"
       gradientTransform="matrix(1002.0105,899.05261,899.05261,-1002.0105,664.05017,77.130432)"
       spreadMethod="pad"
       id="linearGradient336"><stop
         style="stop-opacity:1;stop-color:#faaa2d"
         offset="0"
         id="stop332" /><stop
         style="stop-opacity:1;stop-color:#2960a1"
         offset="1"
         id="stop334" /></linearGradient><clipPath
       clipPathUnits="userSpaceOnUse"
       id="clipPath358"><path
         d="M 0,0 H 1920 V 1080 H 0 Z"
         id="path356" /></clipPath><clipPath
       clipPathUnits="userSpaceOnUse"
       id="clipPath380"><path
         d="M 0,1080 H 1920 V 0 H 0 Z"
         id="path378" /></clipPath></defs><g
     id="g10"
     transform="matrix(1.3333333,0,0,-1.3333333,0,1440)"><g
       id="g12"><g
         id="g14"><g
           id="g16"
           clip-path="url(#clipPath20)"><path
             d="M 0,0 H 1920 V 1080 H 0 Z"
             style="fill:#ffffff;fill-opacity:1;fill-rule:nonzero;stroke:none"
             id="path22" /></g></g></g><text
       transform="matrix(1,0,0,-1,99,953.8565)"
       style="font-variant:normal;font-weight:500;font-stretch:normal;font-size:28px;font-family:'Rubik Medium';-inkscape-font-specification:Rubik-Medium;writing-mode:lr-tb;fill:#000000;fill-opacity:1;fill-rule:nonzero;stroke:none"
       id="text26"><tspan
         x="0 16.968 33.152 49.195999 65.211998 81.424004 97.608002 113.624 128.492 143.36 149.744 165.78799 181.804 199.416 216.608 233.21201"
         y="0"
         id="tspan24">Текучесть кадров</tspan></text><text
       transform="matrix(1,0,0,-1,99,914.8565)"
       style="font-variant:normal;font-weight:300;font-stretch:normal;font-size:20px;font-family:'Rubik Light';-inkscape-font-specification:Rubik-Light;writing-mode:lr-tb;fill:#000000;fill-opacity:1;fill-rule:nonzero;stroke:none"
       id="text36"><tspan
         x="0 11.14 22.059999 32.18 42.759998 53.299999 64.220001 74.940002 84.879997 94.400002 99.559998 111.08 122 133.62 144.34 155.5 167.42 178.14 189.36 200.08 205.24001 216.08 221.24001 232.44 244.75999 255.96001 268.28 273.44 281.556 292.716 304.23599 314.81601 319.97601 331.496 342.65601 347.81601 358.53601 370.15601 380.87601 391.716 403.63599 414.556 426.47601 438.396 453.65601"
         y="0"
         id="tspan28">Текучесть персонала в 2020 году по сравнению </tspan><tspan
         x="0 10.72 15.88 27.08 39.400002 47.360001 58.439999 68.18 81.459999 86.620003 97.339996 109.26 121.18 131.02 142.94 154.16 164.88 175.60001 185.12 190.28 202.2 212.92 218.08 229.28 234.02 245.22 260.04001 265.20001 277.12 282.28 293 304.16 314.88 324.82001 335.54001 346.38 358.29999 369.51999 380.23999 385.39999 397.04001 401.78 413.22 418.38 433.20001 437.94"
         y="26"
         id="tspan30">с 2019-м снизилась на 2,2% и составила 6,5 %, </tspan><tspan
         x="0 10.54 20.48 31.639999 36.799999 47.18 58.02 69.239998 79.620003 90.540001 100.48 111.2 121.58 126.74 137.10001 148.25999 159.88 171.03999 186.42 198.34 211.62 216.78 228.3 239.46001 249.58 260.29999 270.14001 280.85999 290.79999 301.63599 312.85599 323.776 337.056 342.216 353.73599 364.95599 375.336 380.496 392.41599 403.13599 413.85599"
         y="52"
         id="tspan32">что является хорошим показателем для нас </tspan><tspan
         x="0 11.92 17.08 28.6 40.220001 52.139999 63.48 74.699997 86.620003 101.6 112.32 123.24 133.17999 143.89999 154.28 164.60001 174.72 179.88 191.8 203.32001 214.24001 224.96001 236.17999 245.7 257.62 268.78 280.70001 285.85999 297.78 308.94 320.56 333.84 344.76001 349.92001 356.29999 367.82001 379.13599 390.57599 405.396 411.776"
         y="78"
         id="tspan34">и приближается к идеальной норме (3–5%).</tspan></text><text
       transform="matrix(1,0,0,-1,99,776.8565)"
       style="font-variant:normal;font-weight:500;font-stretch:normal;font-size:28px;font-family:'Rubik Medium';-inkscape-font-specification:Rubik-Medium;writing-mode:lr-tb;fill:#000000;fill-opacity:1;fill-rule:nonzero;stroke:none"
       id="text40"><tspan
         x="0 20.440001 36.456001 52.639999 72.351997 78.736 96.208 102.592 119.196 137.00121 153.1852 170.6572 186.7012"
         y="0"
         id="tspan38">Наем и оценка</tspan></text><text
       transform="matrix(1,0,0,-1,99,737.8565)"
       style="font-variant:normal;font-weight:300;font-stretch:normal;font-size:20px;font-family:'Rubik Light';-inkscape-font-specification:Rubik-Light;writing-mode:lr-tb;fill:#000000;fill-opacity:1;fill-rule:nonzero;stroke:none"
       id="text50"><tspan
         x="0 14 25.620001 37.540001 48.380001 59.599998 70.519997 81.059998 91.980003 103.9 115.82 126.74 131.89999 143.42 154.34 165.96001 176.67999 187.84 199.75999 210.48 221.7 232.42 237.58 248.42 253.58 267.57999 277.67999 289.95999 295.12 306.64001 318.26001 329.42001 340.26001 351.42001 362.94 374.85999 384.79999 395.51999 405.89999 411.06 422.98001 433.70001 438.85999 450.01999 460.73999 472.66 483.82001 494.66 505.57999"
         y="0"
         id="tspan42">Привлечение персонала в ПГК проводится на основе </tspan><tspan
         x="0 11.52 22.74 33.459999 45.380001 57.299999 68.919998 80.080002 90.919998 101.64 113.56 125.48 135.86 141.02 151.56 162.39799 173.618 184.778 195.618 206.53799 217.078 227.998 238.718 248.838 260.758 271.11801 276.27802 287.89801 298.81799 309.53799 320.11801 331.73801 342.45801 353.61801 364.45801 369.61801 381.53799 386.698 397.858 409.37799 420.99799 431.918 443.43799 454.27399 465.49399 476.414 488.33401 500.254 510.634"
         y="26"
         id="tspan44">планирования человеческих ресурсов и определения </tspan><tspan
         x="0 10.12 21.34 36.599998 47.139999 58.060001 68.900002 82.080002 92.440002 97.599998 107.96 118.68 130.3 141.02 151.14 161.08 172 183.62 195.53999 206.25999 216.2 228.12 238.24001 243.39999 254.12 265.28 275.22 286.45599 297.03601 308.556 320.47601 332.396 342.01599 353.17599 364.01599 368.75601 373.91599 385.836 396.75601 407.91599 419.25601 429.616 440.776 452.29599 464.216 477.496 490.67599 501.03601"
         y="52"
         id="tspan46">ключевых характеристик сотрудников, необходимых </tspan><tspan
         x="0 11.52 22.74 33.119999 38.279999 49.119999 62.299999 73.82 84.779999 96 107.92 118.84 130.75999 142.67999 153.06 158.22 169.56 181.48 191.32001 203.24001 214.16 224.88 234.62 245.34 255.28 266.89999 277.62 287.56 298.48001 306.84 318.76001 330.67999 335.84 347.76001 352.92001 364.44 375.60001 386.44 399.62 415 425.92001 437.84 449.76001 460.14001 465.29999 476.01999"
         y="78"
         id="tspan48">для выполнения бизнес-стратегии и повышения эф</tspan></text><text
       transform="matrix(1,0,0,-1,588.6,659.8565)"
       style="font-variant:normal;font-weight:300;font-stretch:normal;font-size:20px;font-family:'Rubik Light';-inkscape-font-specification:Rubik-Light;writing-mode:lr-tb;fill:#000000;fill-opacity:1;fill-rule:nonzero;stroke:none"
       id="text54"><tspan
         x="0"
         y="0"
         id="tspan52">-</tspan></text><text
       transform="matrix(1,0,0,-1,99,633.8565)"
       style="font-variant:normal;font-weight:300;font-stretch:normal;font-size:20px;font-family:'Rubik Light';-inkscape-font-specification:Rubik-Light;writing-mode:lr-tb;fill:#000000;fill-opacity:1;fill-rule:nonzero;stroke:none"
       id="text58"><tspan
         x="0 13.58 24.5 34.619999 44.560001 56.48 67.32 79.239998 90.400002 101.12 111.06 122.98 128.14 139.75999 150.48 161.82001 172.98 182.92 196.10001 201.25999 212.938 224.09801 237.37801 248.89799 259.61801 271.53799 283.45801 295.37799 300.138 305.298 317.578 328.298 343.27802 354.798 367.978 379.89801 385.05801 395.77802 406.93799 416.87799 428.116 438.69601 450.216 462.13599 474.056 484.17599 489.336 499.17599"
         y="0"
         id="tspan56">фективности работы Компании. Каждый сотрудник за</tspan></text><text
       transform="matrix(1,0,0,-1,608.896,633.8565)"
       style="font-variant:normal;font-weight:300;font-stretch:normal;font-size:20px;font-family:'Rubik Light';-inkscape-font-specification:Rubik-Light;writing-mode:lr-tb;fill:#000000;fill-opacity:1;fill-rule:nonzero;stroke:none"
       id="text62"><tspan
         x="0"
         y="0"
         id="tspan60">-</tspan></text><text
       transform="matrix(1,0,0,-1,99,607.8565)"
       style="font-variant:normal;font-weight:300;font-stretch:normal;font-size:20px;font-family:'Rubik Light';-inkscape-font-specification:Rubik-Light;writing-mode:lr-tb;fill:#000000;fill-opacity:1;fill-rule:nonzero;stroke:none"
       id="text70"><tspan
         x="0 11.92 23.84 37.119999 47.84 58.759998 68.699997 73.860001 84.580002 95.419998 106.58 121.84 127 138.52 149.67999 159.52 171.44 183.46001 195.38 210.64 215.8 226.64 231.8 242.96001 254.58 262.94 273.66 285.57999 297.5 307.34 318.06 330.07999 342 353.92001 359.07999 369.92001 375.07999 385.79999 396.95999 408.12 418.06 428.89999 439.82001 449.76001 460.48001 470.42001 481.26001 493.17999 505.10001"
         y="0"
         id="tspan64">нимает свою позицию в организации в соответствии </tspan><tspan
         x="0 10.72 21.879999 27.040001 37.759998 48.599998 59.759998 71.68 84.959999 96.879997 102.04 113.96 124.68 135.52 148.7 158.82001 169.53999 182.82001 194.74001 199.48 204.64 215.48 226.64 236.48 249.75999 260.92001 275.89999 287.82001 298.98001 309.70001 319.64001 330.01999 343.29999 355.22 359.95999 365.12 376.28 387.79999 400.98001 410.92001 422.07999 435.35999 440.51999 452.44 457.60001 469.51999 482.79999 493.72 504.64001 514.58002"
         y="26"
         id="tspan66">со своими навыками, возможностями, опытом и имеет </tspan><tspan
         x="0 10.84 22 31.84 45.119999 56.279999 71.260002 83.18 94.339996 105.06 115 124.52 129.67999 140.52 145.67999 157.2 168.158 179.37801 191.298 202.45799 214.37801 219.53799 232.81799 243.73801 255.358 266.27802 271.43799 283.05801 293.77802 304.49799 314.61801 326.23801 339.418 349.358 358.87799 364.03799 374.758 385.59799 396.758 408.67801 413.83801 425.358 436.51801 446.45801 457.37799 469.298 481.31799"
         y="52"
         id="tspan68">возможность в полной мере раскрыть свой потенци</tspan></text><text
       transform="matrix(1,0,0,-1,592.238,555.8565)"
       style="font-variant:normal;font-weight:300;font-stretch:normal;font-size:20px;font-family:'Rubik Light';-inkscape-font-specification:Rubik-Light;writing-mode:lr-tb;fill:#000000;fill-opacity:1;fill-rule:nonzero;stroke:none"
       id="text74"><tspan
         x="0"
         y="0"
         id="tspan72">-</tspan></text><text
       transform="matrix(1,0,0,-1,99,529.8565)"
       style="font-variant:normal;font-weight:300;font-stretch:normal;font-size:20px;font-family:'Rubik Light';-inkscape-font-specification:Rubik-Light;writing-mode:lr-tb;fill:#000000;fill-opacity:1;fill-rule:nonzero;stroke:none"
       id="text78"><tspan
         x="0 10.72 21.940001 26.700001 31.860001 44.919998 50.080002 64.080002 74.18 86.459999 91.620003 102.34 113.5 124.84 136.06 151.32001 162.84 173.56 188.82001 198.75999 203.92 215.25999 225.98 237.2 247.92 259.84 270.56 275.72 289 299.92001 314.89999 326.42001 337 342.16 352 362.72 376 386.92001 402.82001 413.73999 425.66 437.57999 448.5 461.78 466.94 477.66"
         y="0"
         id="tspan76">ал. В ПГК соблюдают баланс между замещением су</tspan></text><text
       transform="matrix(1,0,0,-1,586.76,529.8565)"
       style="font-variant:normal;font-weight:300;font-stretch:normal;font-size:20px;font-family:'Rubik Light';-inkscape-font-specification:Rubik-Light;writing-mode:lr-tb;fill:#000000;fill-opacity:1;fill-rule:nonzero;stroke:none"
       id="text82"><tspan
         x="0"
         y="0"
         id="tspan80">-</tspan></text><text
       transform="matrix(1,0,0,-1,99,503.8565)"
       style="font-variant:normal;font-weight:300;font-stretch:normal;font-size:20px;font-family:'Rubik Light';-inkscape-font-specification:Rubik-Light;writing-mode:lr-tb;fill:#000000;fill-opacity:1;fill-rule:nonzero;stroke:none"
       id="text88"><tspan
         x="0 15.9 26.82 37.540001 47.48 58.32 68.900002 84.160004 100.06 111.98 122.34 127.5 138.34 149.06 159.17999 169.89999 181.82001 192.53999 204.46001 216.38 221.53999 232.38 244.3 254.88 264.82001 276.44 287.35999 299.28 311.20001 323.12 336.39999 348.32001 353.48001 363.60001 374.32001 386.23999 397.76001 409.67999 421.20001 431.92001 441.85999 452.57999 465.85999 477.78 482.94 494.85999"
         y="0"
         id="tspan84">ществующих вакансий внутренними кандидатами и </tspan><tspan
         x="0 11.52 23.139999 35.060001 45.900002 57.119999 68.040001 78.580002 89.5 101.42 113.34 124.26 137.53999 142.7 153.42 163.03799 173.758 185.278 196.198 207.81799 217.758 228.918 239.758 244.918 255.638 260.798 272.418 285.59799 297.51801 307.638 318.358 323.11801 328.27802 340.67801 350.61801 361.77802 366.93799 378.45801 389.61801 399.45801 410.298 421.254 432.474 442.854 453.77399 463.71399 468.87399 479.59399"
         y="26"
         id="tspan86">привлечением экспертов с рынка. Это позволяет со</tspan></text><text
       transform="matrix(1,0,0,-1,589.754,477.8565)"
       style="font-variant:normal;font-weight:300;font-stretch:normal;font-size:20px;font-family:'Rubik Light';-inkscape-font-specification:Rubik-Light;writing-mode:lr-tb;fill:#000000;fill-opacity:1;fill-rule:nonzero;stroke:none"
       id="text92"><tspan
         x="0"
         y="0"
         id="tspan90">-</tspan></text><text
       transform="matrix(1,0,0,-1,99,451.8565)"
       style="font-variant:normal;font-weight:300;font-stretch:normal;font-size:20px;font-family:'Rubik Light';-inkscape-font-specification:Rubik-Light;writing-mode:lr-tb;fill:#000000;fill-opacity:1;fill-rule:nonzero;stroke:none"
       id="text96"><tspan
         x="0 11.34 22.559999 37.82 49.34 60.060001 70 79.519997 84.68 96.599998 108.52 118.46 129.38 141 151.92 162.64 175.82001 180.98 191.7 202.86 212.8 224.03799 234.618 246.138 258.05801 269.978 279.59601 290.75601 301.59601 306.75601 318.67599 323.836 335.45599 346.17599 356.01599 366.85599 378.776 389.616 400.336 410.276 419.79599 424.95599 434.896 445.81601 450.97601 462.896 473.616 485.13599 496.75601 507.47601"
         y="0"
         id="tspan94">блюдать интересы сотрудников и развивать те направ</tspan></text><text
       transform="matrix(1,0,0,-1,617.316,451.8565)"
       style="font-variant:normal;font-weight:300;font-stretch:normal;font-size:20px;font-family:'Rubik Light';-inkscape-font-specification:Rubik-Light;writing-mode:lr-tb;fill:#000000;fill-opacity:1;fill-rule:nonzero;stroke:none"
       id="text100"><tspan
         x="0"
         y="0"
         id="tspan98">-</tspan></text><text
       transform="matrix(1,0,0,-1,99,425.8565)"
       style="font-variant:normal;font-weight:300;font-stretch:normal;font-size:20px;font-family:'Rubik Light';-inkscape-font-specification:Rubik-Light;writing-mode:lr-tb;fill:#000000;fill-opacity:1;fill-rule:nonzero;stroke:none"
       id="text122"><tspan
         x="0 11.22 22.139999 34.060001 45.98 56.360001 61.099998 66.260002 74.620003 86.139999 97.059998 102.22 113.56 125.48 135.32001 147.24001 158.16 168.88 179.46001 184.62 194.56 206.17999 217.10001 228.44 238.67599 249.59599 259.53601 270.25601 280.63599 285.79599 296.03601 306.75601 318.67599 329.896 341.81601 352.65601 363.37601 373.31601 382.836 387.996 397.61401 408.77399 422.05399 433.57401 444.49399 454.43399 465.354 477.27399 489.29401 501.21399 513.13397"
         y="0"
         id="tspan102">ления, где бизнесу требуется усиливать компетенции.</tspan><tspan
         x="0 13.06 18.219999 29.9 41.060001 54.34 65.860001 76.580002 88.5 100.42 112.34 117.5 128.22 139.38 149.22 160.74001 171.46001 183.38 194.10001 199.25999 211.17999 216.34 228.25999 238.98 250.5 261.45801 272.67801 282.198 292.03799 302.276 313.19601 323.13599 333.85599 344.23599 349.396 360.73599 372.65601 383.996 395.216 407.13599 418.29599 428.23599 439.15601 449.276 459.996"
         y="39"
         id="tspan104">В Компании создана и используется библиотека </tspan><tspan
         x="0 11.92 23.84 34.560001 44.5 55.740002 66.32 79.599998 90.519997 102.44 112.38 123.54 134.38 139.53999 150.7 162.72 173.64 185.56 195.67999 207.60001 212.75999 222.88 233.60001 245.52 257.04001 268.95999 280.48001 291.20001 301.14001 312.29999 323.14001 327.88 333.04001 343.57999 353.51999 364.67999 369.84 381.35999 392.51999 402.35999 413.20001 424.15601 435.37601 445.75601 456.67599 466.616 471.776 483.116 494.07401 505.29401 516.21399 527.13397"
         y="65"
         id="tspan106">инструментов оценки кандидатов, что позволяет более </tspan><tspan
         x="0 10.84 20.68 31.52 42.439999 57.82 68.739998 80.660004 92.580002 103.74 108.9 120.82 125.98 135.92 147.08 157.62 168.53999 179.08 191 202.16 207.32001 218.84 230.46001 242.38 254.3 266.22 279.5 290.22 300.16 309.67999 314.84 326.45999 337.38 352.76001 363.67999 375.60001 387.51999 397.89999 403.06 414.22 419.38 431.29999 442.01999 453.94 467.22 478.14001 482.88"
         y="91"
         id="tspan108">взвешенно и точечно принимать решения о найме, </tspan><tspan
         x="0 9.9399996 20.860001 34.139999 39.299999 50.02 60.740002 74.019997 87.199997 100.48 105.64 117.16 128.32001 139.16 152.34 167.72 178.44 188.82001 193.98 204.10001 214.82001 225.36 236.28 247 256.94 267.78 278.94 284.10001 295.62 306.78 318.29999 329.64001 340.79999 352.42001 363.14001 368.29999 379.14001 384.29999 396.22 406.94 422.32001 432.89999 438.06 447.67401 458.83401 472.11401 482.83401 494.754 506.27399 515.65399"
         y="117"
         id="tspan110">тем самым повышая качество подбора в нашу команду.</tspan><tspan
         x="0 13.06 18.219999 30.139999 40.860001 51.580002 61.52 72.68 83.059998 98.959999 110.88 122.8 127.96 141.24001 152.39999 165.67999 176.60001 188.52 198.46001 203.62 214.46001 219.62 229.23801 240.39799 253.67799 265.198 275.918 287.83801 299.758 311.67801 316.83801 328.758 340.27802 351.198 361.138 366.298 377.81799 389.43799 400.59799 412.61801 423.53799 434.258 444.978"
         y="156"
         id="tspan112">В настоящий момент в компании идет процесс </tspan><tspan
         x="0 10.72 21.559999 31.5 42.66 55.939999 66.660004 76.599998 88.519997 98.360001 109.08 121.1 133.02 144.94 150.10001 164.10001 176.438 186.17799 197.698 209.31799 220.478 232.498 243.418 254.138 264.858 276.01801 286.858 291.59799 296.758 307.59799 312.758 323.298 334.01801 344.73801 354.67801 366.59799 377.758 388.478 398.418 410.33801 415.49799 425.33801 436.05801 446.89801 457.81799 469.43799 484.81799 495.73801 507.65799"
         y="182"
         id="tspan114">автоматизации HR-процессов, в частности завершен </tspan><tspan
         x="0 11.52 22.440001 34.060001 44.900002 58.080002 70 75.160004 85.879997 95.82 106.54 118.06 123.22 134.84 145.56 155.39999 167.02 177.74001 189.08 200.24001 210.17999 220.3 232.22 237.38 248.53999 259.88 271.10001 281.82001 292.35999 304.28 317.45999 327.82001 332.98001 344.60001 355.51999 370.89999 381.82001 393.73999 405.66 417.57999 422.73999 434.66 445.38 450.54001 461.88 472.60001 482.44 493.35999"
         y="208"
         id="tspan116">первый этап разработки облачных решений на базе </tspan><tspan
         x="0 11.9 24.9 37 42.16 54.259998 65.959999 76.68 87.400002 98.32 108.16 118 123.16 133.918 144.638 155.358 162.53799 173.698 180.658 190.498 195.658 201.53799 213.638 225.03799 231.418"
         y="234"
         id="tspan118">SAP Success Factors (SF).</tspan><tspan
         x="0 15.6 28.780001 33.939999 45.560001 56.48 67.199997 78.419998 90.339996 100.18 110.418 121.338 134.618 139.778 151.298 162.918 174.078 182.438 194.058 204.778 218.058 231.338 241.918 247.078 258.698 269.418 279.258 290.09799 302.01801 311.95801 323.87799 334.258 339.418 349.53799 360.258 371.77802 383.39801 394.55801 405.39801 416.55801 424.67599 435.836 440.996 452.616 463.53601 473.37601 484.29599"
         y="273"
         id="tspan120">Мы реализуем программу развития кадрового резер</tspan></text><text
       transform="matrix(1,0,0,-1,594.916,152.8565)"
       style="font-variant:normal;font-weight:300;font-stretch:normal;font-size:20px;font-family:'Rubik Light';-inkscape-font-specification:Rubik-Light;writing-mode:lr-tb;fill:#000000;fill-opacity:1;fill-rule:nonzero;stroke:none"
       id="text126"><tspan
         x="0"
         y="0"
         id="tspan124">-</tspan></text><text
       transform="matrix(1,0,0,-1,99,126.8565)"
       style="font-variant:normal;font-weight:300;font-stretch:normal;font-size:20px;font-family:'Rubik Light';-inkscape-font-specification:Rubik-Light;writing-mode:lr-tb;fill:#000000;fill-opacity:1;fill-rule:nonzero;stroke:none"
       id="text136"><tspan
         x="0 10.84 21.559999 26.299999 31.459999 42.98 54.139999 63.98 74.82 85.779999 97 107.38 122.64 138.418 148.998 164.258 169.418 180.938 192.558 204.478 209.638 219.478 230.198 243.478 254.39799 270.298 281.21799 293.138 305.05801 316.978 322.138 332.978 343.698 353.81799 364.53799 376.45801 387.17801 399.09799 411.01801 416.17801 427.698 439.31799 451.23801 456.39801 467.918 479.53799 490.698 501.23801 513.15802 523.51801"
         y="0"
         id="tspan128">ва, позволяющую при замещении вакансий при прочих </tspan><tspan
         x="0 11.62 22.34 33.18 45.099998 58.279999 68.639999 73.800003 84.038002 94.758003 105.978 117.138 127.978 139.89799 150.278 160.638 165.798 176.95799 186.89799 198.418 209.138 219.978 230.698 240.638 250.158 255.31799 266.83801 278.45801 289.37799 300.89801 312.418 323.578 334.11801 344.05801 354.978 366.89801 378.81799 389.73801 394.89801 405.73801 417.65799 428.23801 438.17801 449.798 460.71799 472.638 484.55801 496.478 509.758"
         y="26"
         id="tspan130">равных условиях отдавать предпочтение внутренним </tspan><tspan
         x="594 604.12 614.84003 626.76001 638.28003 650.20001 661.71997 672.44 682.38 693.09998 706.38 711.12 716.28003 727.90002 738.62 749.34003 764.71997 776.64001 788.26001 798.64001 809.02002 814.17999 824.12 834.84003 844.96002 856.88 870.15997 875.32001 886.47998 897.82001 909.44 920.15997 930 941.15997 954.44 959.59998 970.44 981.59998 991.44 1004.72 1015.88 1030.86 1042.78 1053.9399 1064.66 1074.6 1086.52 1091.6801 1103.2 1114.42 1124.8"
         y="-834.47998"
         id="tspan132">кандидатам, расширяя таким образом возможности для </tspan><tspan
         x="594 605.62 616.78003 627.5 637.44 648.15997 653.32001 664.03998 675.20001 685.14001 696.38 706.96002 718.47998 730.40002 742.32001 752.44 763.15997 776.44 781.17999 786.34003 797.85999 809.02002 820.53998 830.47998 841.32001 852.23999 863.85999 875.38 887.29999 898.14001 913.52002 925.44 938.71997 943.88 954.59998 965.44 976.59998 988.52002 993.67999 1005.2 1016.82 1027.98 1041.5601 1052.48 1063.2 1073.92 1085.84"
         y="-808.47998"
         id="tspan134">роста сотрудникам, подтвердившим свой профессио</tspan></text><text
       transform="matrix(1,0,0,-1,1196,935.3365)"
       style="font-variant:normal;font-weight:300;font-stretch:normal;font-size:20px;font-family:'Rubik Light';-inkscape-font-specification:Rubik-Light;writing-mode:lr-tb;fill:#000000;fill-opacity:1;fill-rule:nonzero;stroke:none"
       id="text140"><tspan
         x="0"
         y="0"
         id="tspan138">-</tspan></text><text
       transform="matrix(1,0,0,-1,693,909.3365)"
       style="font-variant:normal;font-weight:300;font-stretch:normal;font-size:20px;font-family:'Rubik Light';-inkscape-font-specification:Rubik-Light;writing-mode:lr-tb;fill:#000000;fill-opacity:1;fill-rule:nonzero;stroke:none"
       id="text146"><tspan
         x="0 11.92 22.639999 33.860001 43.380001 55.299999 68.480003 80.400002 85.559998 96.139999 107.76 118.92 129.75999 140.67999 152.60001 162.12 167.28 179.2 184.36 195.98 206.89999 216.74001 226.73801 237.95799 247.478 257.418 268.138 278.078 289.99799 300.83801 312.758 323.918 334.638 344.578 354.09799"
         y="0"
         id="tspan142">нальный уровень и результативность.</tspan><tspan
         x="0 13.02 18.18 29.379999 41.700001 52.900002 65.220001 70.379997 78.5 89.660004 101.18 111.9 117.06 127.9 133.06 147.06 157.16 169.44 174.60001 186.22 197.14 207.86 219.08 231 240.84 251.078 261.99799 271.93799 282.65799 293.03799 298.198 308.138 318.858 328.978 343.95801 354.87799 360.03799 371.55801 383.17801 394.33801 402.698 414.31799 425.03799 438.31799 451.59799 462.31799 467.478 479.09799"
         y="39"
         id="tspan144">С 2020 года в ПГК реализуется также программа ре</tspan></text><text
       transform="matrix(1,0,0,-1,1183.018,870.3365)"
       style="font-variant:normal;font-weight:300;font-stretch:normal;font-size:20px;font-family:'Rubik Light';-inkscape-font-specification:Rubik-Light;writing-mode:lr-tb;fill:#000000;fill-opacity:1;fill-rule:nonzero;stroke:none"
       id="text150"><tspan
         x="0"
         y="0"
         id="tspan148">-</tspan></text><text
       transform="matrix(1,0,0,-1,693,844.3365)"
       style="font-variant:normal;font-weight:300;font-stretch:normal;font-size:20px;font-family:'Rubik Light';-inkscape-font-specification:Rubik-Light;writing-mode:lr-tb;fill:#000000;fill-opacity:1;fill-rule:nonzero;stroke:none"
       id="text154"><tspan
         x="0 11.22 22.379999 32.5 43.220001 55.240002 67.160004 79.080002 84.239998 94.959999 106.12 116.06 127.298 137.87801 149.39799 161.31799 173.23801 182.858 194.01801 204.858 210.01801 220.858 226.01801 237.53799 248.778 259.358 267.71799 279.638 290.55801 295.71799 307.33801 318.258 326.61801 338.53799 349.698 361.61801 374.798 379.55801 384.71799 397.77802 402.93799 414.55801 425.27802 438.55801 448.67801 459.39801 469.758 474.918 485.03799"
         y="0"
         id="tspan152">локации сотрудников в другие регионы. В рамках ка</tspan></text><text
       transform="matrix(1,0,0,-1,1188.758,844.3365)"
       style="font-variant:normal;font-weight:300;font-stretch:normal;font-size:20px;font-family:'Rubik Light';-inkscape-font-specification:Rubik-Light;writing-mode:lr-tb;fill:#000000;fill-opacity:1;fill-rule:nonzero;stroke:none"
       id="text158"><tspan
         x="0"
         y="0"
         id="tspan156">-</tspan></text><text
       transform="matrix(1,0,0,-1,693,818.3365)"
       style="font-variant:normal;font-weight:300;font-stretch:normal;font-size:20px;font-family:'Rubik Light';-inkscape-font-specification:Rubik-Light;writing-mode:lr-tb;fill:#000000;fill-opacity:1;fill-rule:nonzero;stroke:none"
       id="text162"><tspan
         x="0 11.62 21.139999 32.060001 43.68 55.599998 68.779999 79.139999 84.300003 95.82 106.74 118.36 129.28 142.56 153.48 169.38 180.3 192.22 204.14 216.06 221.22 232.896 244.056 257.336 268.85599 279.57599 291.496 303.41599 313.79599 318.95599 330.116 341.45599 352.37601 363.09601 374.616 385.53601 396.07599 407.996 418.836 429.556 440.47601 450.41599 455.57599 467.19601"
         y="0"
         id="tspan160">рьерных перемещений Компания обеспечивает ра</tspan></text><text
       transform="matrix(1,0,0,-1,1170.916,818.3365)"
       style="font-variant:normal;font-weight:300;font-stretch:normal;font-size:20px;font-family:'Rubik Light';-inkscape-font-specification:Rubik-Light;writing-mode:lr-tb;fill:#000000;fill-opacity:1;fill-rule:nonzero;stroke:none"
       id="text166"><tspan
         x="0"
         y="0"
         id="tspan164">-</tspan></text><text
       transform="matrix(1,0,0,-1,693,792.3365)"
       style="font-variant:normal;font-weight:300;font-stretch:normal;font-size:20px;font-family:'Rubik Light';-inkscape-font-specification:Rubik-Light;writing-mode:lr-tb;fill:#000000;fill-opacity:1;fill-rule:nonzero;stroke:none"
       id="text172"><tspan
         x="0 11.34 22.5 32.439999 44.360001 56.279999 66.400002 77.120003 82.279999 94.199997 105.12 116.28 127.62 137.98 149.14 160.66 172.58 185.86 199.03999 212.32001 217.48 227.09801 238.258 251.53799 265.11801 276.27802 287.89801 297.83801 309.758 322.93799 336.21799 341.37799 351.95801 363.578 374.73801 385.578 397.49799 408.418 421.698 426.858 437.09399 447.814 459.034 470.194 481.034 492.95401 504.87399"
         y="0"
         id="tspan168">ботника необходимым комфортным уровнем условий </tspan><tspan
         x="0 11.52 23.139999 34.299999 49.279999 61.200001 72.040001 82.760002 94.68 106.6 116.98 121.72 126.88 137.60001 142.75999 152.7 163.42 173.53999 188.52 199.44 204.60001 217.88 228.60001 238.53999 249.46001 261.07999 273 283.72 294.94 304.45999 316.38 327.54001 339.45999 344.62 356.14001 367.29999 380.57999 391.73999 407.64001 417.16 432.42001 437.57999 449.10001 460.72 472.64001 477.79999 489.32001"
         y="26"
         id="tspan170">проживания, а также материальной помощью при пе</tspan></text><text
       transform="matrix(1,0,0,-1,1193.24,766.3365)"
       style="font-variant:normal;font-weight:300;font-stretch:normal;font-size:20px;font-family:'Rubik Light';-inkscape-font-specification:Rubik-Light;writing-mode:lr-tb;fill:#000000;fill-opacity:1;fill-rule:nonzero;stroke:none"
       id="text176"><tspan
         x="0"
         y="0"
         id="tspan174">-</tspan></text><text
       transform="matrix(1,0,0,-1,693,740.3365)"
       style="font-variant:normal;font-weight:300;font-stretch:normal;font-size:20px;font-family:'Rubik Light';-inkscape-font-specification:Rubik-Light;writing-mode:lr-tb;fill:#000000;fill-opacity:1;fill-rule:nonzero;stroke:none"
       id="text184"><tspan
         x="0 11.62 22.540001 33.459999 43.299999 54.82 65.739998 70.5 75.660004 88.720001 93.879997 105.08 117.4 128.60001 140.92 146.08 154.198 165.358 176.87801 187.45799 192.618 204.53799 215.258 220.418 231.138 241.078 252.998 258.15799 270.17801 281.01599 292.23599 304.15601 309.31601 320.996 332.15601 345.436 356.95599 367.67599 379.59601 391.51599 401.896 407.056 418.57599 429.73599 439.67599 451.29599 462.01599 471.95599 483.87601 495.09601 505.81601"
         y="0"
         id="tspan178">реезде. В 2020 году на эти цели Компания потратила </tspan><tspan
         x="0 11.52 15.88 27.780001 32.939999 46.220001 57.439999 69.360001 74.519997 85.758003 96.337997 107.678 118.898 129.81799 141.73801"
         y="26"
         id="tspan180">4,4 млн рублей.</tspan><tspan
         x="0 13.52 24.74 35.119999 40.279999 51.799999 63.419998 75.339996 86.18 97.400002 108.32 118.86 129.78 141.7 153.62 164 169.16 180 191.92 202.84 218.22 230.14 242.06 252.42 257.57999 267.70001 278.42001 290.34 301.85999 313.78 325.29999 336.01999 345.95999 357.12 367.95999 373.12 386.39999 399.57999 404.73999 415.45999 425.57999 435.51999 447.44 458.28 470.20001 481.35999 486.51999 498.44"
         y="65"
         id="tspan182">Для привлечения внешних кандидатов мы активно ис</tspan></text><text
       transform="matrix(1,0,0,-1,1202.16,675.3365)"
       style="font-variant:normal;font-weight:300;font-stretch:normal;font-size:20px;font-family:'Rubik Light';-inkscape-font-specification:Rubik-Light;writing-mode:lr-tb;fill:#000000;fill-opacity:1;fill-rule:nonzero;stroke:none"
       id="text188"><tspan
         x="0"
         y="0"
         id="tspan186">-</tspan></text><text
       transform="matrix(1,0,0,-1,693,649.3365)"
       style="font-variant:normal;font-weight:300;font-stretch:normal;font-size:20px;font-family:'Rubik Light';-inkscape-font-specification:Rubik-Light;writing-mode:lr-tb;fill:#000000;fill-opacity:1;fill-rule:nonzero;stroke:none"
       id="text196"><tspan
         x="0 11.52 22.48 33.700001 43.220001 53.060001 63.299999 74.220001 87.5 92.660004 103.38 114.9 125.82 137.84 149.75999 160.48 171.7 183.62 193.46001 205.38 217 228.16 239 249.72 261.64001 273.56 286.73999 297.66 302.82001 314.34 325.56 336.28 346.22 359.79999 370.95999 382.57999 395.85999 409.04001 414.20001 425.72 436.94 447.32001 452.48001 464 475.16 487.07999 497.79999 507.92001 518.64001 523.38"
         y="0"
         id="tspan190">пользуем специализированные платформы для поиска, </tspan><tspan
         x="0 11.52 23.440001 34.16 44.099998 54.82 66.739998 78.760002 90.68 101.84 113.76 125.68 138.86 149.78 154.94 168.52 179.67999 191.3 204.58 215.3 225.24001 238.42 243.58 254.74001 266.76001 277.67999 289.60001 299.72 311.64001 316.39999 321.56 333.54001 344.26001 349.42001 360.14001 370.67999 381.60001 391.54001 396.70001 407.85999 419.38 429.32001 441.23999 454.51999 466.44 476.28 487 499.01999 510.94 522.85999"
         y="26"
         id="tspan192">дистанционные форматы оценки. За счет оптимизации </tspan><tspan
         x="0 11.62 22.34 33.68 44.84 54.779999 67.959999 73.120003 85.040001 90.199997 102.12 112.84 124.46 135.17999 151.08 163 173.84 184.56 196.48 208.39999 218.78 223.94 233.558 244.718 257.99799 269.51801 280.43799 290.37799 301.298 313.21799 325.23801 337.15799 349.078 354.23801 365.078 376.99799 387.578 397.51801 409.138 420.05801 431.978 443.89801 454.81799 466.73801 471.89801 482.61801 493.83801 504.418"
         y="52"
         id="tspan194">работы и наращивания компетенций внутренней служ</tspan></text><text
       transform="matrix(1,0,0,-1,1212.398,597.3365)"
       style="font-variant:normal;font-weight:300;font-stretch:normal;font-size:20px;font-family:'Rubik Light';-inkscape-font-specification:Rubik-Light;writing-mode:lr-tb;fill:#000000;fill-opacity:1;fill-rule:nonzero;stroke:none"
       id="text200"><tspan
         x="0"
         y="0"
         id="tspan198">-</tspan></text><text
       transform="matrix(1,0,0,-1,693,571.3365)"
       style="font-variant:normal;font-weight:300;font-stretch:normal;font-size:20px;font-family:'Rubik Light';-inkscape-font-specification:Rubik-Light;writing-mode:lr-tb;fill:#000000;fill-opacity:1;fill-rule:nonzero;stroke:none"
       id="text206"><tspan
         x="0 11.34 24.52 29.68 41.200001 52.360001 63.880001 75.220001 86.379997 98 108.72 113.88 125.4 136.32001 147.94 158.66 169.82001 181.74001 192.46001 203.67999 214.39999 219.56 230.14 241.66 252.38 263.60001 274.76001 285.48001 295 300.16 310.88 321.45999 337.35999 348.28 359 368.94 379.78 390.70001 402.62 414.54001 425.70001 430.85999 441.57999 452.73999 462.85999 474.48001 485.20001 495.14001 507.06 517 526.52002"
         y="0"
         id="tspan202">бы подбора персонала удалось существенно сократить </tspan><tspan
         x="0 10.72 22.34 33.5 43.619999 55.540001 60.700001 70.540001 81.260002 91.379997 103 116.18 126.12 138.03999 148.42 153.58 164.42 175.14 185.25999 195.98 207.89999 218.62 230.53999 242.46001 247.62 259.54001 270.26001 275.42001 285.54001 296.76001 312.01999 322.56 333.48001 344.32001 357.5 368.42001 373.57999 385.10001 396.056 407.276 422.25601 434.17599 445.336 456.056 465.996 477.91599"
         y="26"
         id="tspan204">сроки закрытия вакансий на ключевые должности.</tspan></text><text
       transform="matrix(1,0,0,-1,1287,655.35)"
       style="font-variant:normal;font-weight:500;font-stretch:normal;font-size:28px;font-family:'Rubik Medium';-inkscape-font-specification:Rubik-Medium;writing-mode:lr-tb;fill:#000000;fill-opacity:1;fill-rule:nonzero;stroke:none"
       id="text210"><tspan
         x="0 22.736 39.34 54.208 71.68 88.059998 104.076 121.94 139.412 155.53999 161.924 179.396 185.78 202.16 218.76401 233.772 251.244 267.26001 279.74799 296.94 312.95599 337.008 354.62 370.80399 388.276 405.74799"
         y="0"
         id="tspan208">Мотивация и вознаграждение</tspan></text><text
       transform="matrix(1,0,0,-1,1287,616.35)"
       style="font-variant:normal;font-weight:300;font-stretch:normal;font-size:20px;font-family:'Rubik Light';-inkscape-font-specification:Rubik-Light;writing-mode:lr-tb;fill:#000000;fill-opacity:1;fill-rule:nonzero;stroke:none"
       id="text220"><tspan
         x="0 14 24.1 36.380001 41.540001 52.119999 63.639999 74.477997 85.697998 96.078003 106.998 116.938 122.098 132.938 144.09801 155.618 167.23801 178.39799 189.118 199.838 213.118 218.278 229.118 240.278 250.118 262.03799 272.758 281.11801 292.73801 303.45801 318.43799 329.95801 340.87799 352.798 364.71799 375.09799 380.258 392.17801 397.33801 410.61801 421.77802 431.71799 443.638 454.478 465.198 477.21799 489.138 501.05801"
         y="0"
         id="tspan212">ПГК уделяет вопросам вознаграждения и мотивации </tspan><tspan
         x="0 11.16 21.879999 33.040001 44.380001 55.540001 66.459999 71.620003 82.459999 94.379997 106.3 119.58 130.3 142.22 154.14 165.06 170.22 181.06 186.22 197.84 208.56 221.84 231.96001 242.67999 253.03999 258.20001 268.32001 279.04001 290.56 302.17999 313.34 324.17999 335.34 347.26001 352.42001 363.14001 373.07999 384.70001 395.42001 405.35999 416.28 424.64001 436.56 448.48001 453.23999"
         y="26"
         id="tspan214">особое внимание в рамках кадровой стратегии. </tspan><tspan
         x="0 15.6 28.780001 33.939999 45.459999 57.080002 69 78.839996 90.760002 101.48 112.4 125.68 130.42 135.58 146.12 156.06 167.22 172.38 182.32001 193.03999 203.16 215.08 226 231.16 244.74001 255.46001 265.57999 275.51999 286.67999 298.29999 311.48001 316.22 321.38 331.5 342.22 352.34 357.5 368.34 379.5 390.34 401.56 412.48001 423.01999 433.94 445.85999 457.78 468.94 479.66 489.60001 499.12"
         y="52"
         id="tspan216">Мы признаем, что такие факторы, как вовлеченность </tspan><tspan
         x="0 11.62 22.34 33.68 44.84 54.779999 66.699997 78.620003 88.239998 99.400002 110.24 114.98 120.14 133.42 144.14 154.08 165 176.62 188.53999 199.25999 210.48 220 231.92 242.64 253.02 258.17999 270.10001 275.26001 287.17999 298.10001 311.38 322.10001 332.04001 342.95999 354.57999 366.5 377.22 388.44 397.95999 409.88 420.60001 430.98001 436.14001 449.42001 460.57999 470.51999"
         y="78"
         id="tspan218">работников, материальная и нематериальная моти</tspan></text><text
       transform="matrix(1,0,0,-1,1769.44,538.35)"
       style="font-variant:normal;font-weight:300;font-stretch:normal;font-size:20px;font-family:'Rubik Light';-inkscape-font-specification:Rubik-Light;writing-mode:lr-tb;fill:#000000;fill-opacity:1;fill-rule:nonzero;stroke:none"
       id="text224"><tspan
         x="0"
         y="0"
         id="tspan222">-</tspan></text><text
       transform="matrix(1,0,0,-1,1287,512.35)"
       style="font-variant:normal;font-weight:300;font-stretch:normal;font-size:20px;font-family:'Rubik Light';-inkscape-font-specification:Rubik-Light;writing-mode:lr-tb;fill:#000000;fill-opacity:1;fill-rule:nonzero;stroke:none"
       id="text238"><tspan
         x="0 10.84 21.559999 33.580002 45.5 55.880001 60.619999 65.779999 76.5 87.080002 102.98 113.9 124.62 134.56 145.39999 156.32001 168.24001 180.16 191.32001 196.48 207.64 219.16 230.78 241.7 253.22 264.056 275.276 285.65601 300.91599 310.85599 316.01599 327.936 338.65601 354.03601 364.616 369.776 380.936 392.45599 403.37601 414.996 425.716 437.73599 449.65601 460.81601 472.73599 484.65601 495.23599 510.496"
         y="0"
         id="tspan226">вация, существенно определяют нашу операционную </tspan><tspan
         x="0 10.72 24.299999 37.880001 48.799999 58.919998 68.860001 80.779999 91.620003 103.54 114.7 125.42 135.36 144.88"
         y="26"
         id="tspan228">эффективность.</tspan><tspan
         x="0 13.02 18.18 29.379999 41.700001 52.900002 65.220001 70.379997 78.5 89.660004 101.18 111.9 117.06 127.9 133.06 144.73801 155.89799 169.17799 180.698 191.418 203.338 215.258 227.17799 232.338 243.058 252.998 263.71799 275.33801 285.27802 296.43799 307.27802 317.99799 329.21799 340.37799 345.53799 357.05801 368.67801 380.59799 393.87799 404.798 416.71799 427.638 439.55801 451.478 462.39801"
         y="65"
         id="tspan230">С 2020 года в Компании стартовало применение </tspan><tspan
         x="0 10.72 22.639999 33.360001 43.299999 54.220001 67.5 80.68 85.839996 96.419998 107.94 119.56 130.28 141.12 152.34 163.25999 175.17999 187.10001 197.48 202.64 214.16 225.32001 230.48 242.5 253.336 264.556 274.936 288.216 293.37601 299.53601 315.13599 328.19601 340.79599 347.17599 351.91599 357.07599 368.59601 380.216 392.13599 404.056 416.07599 427.996 439.51599 452.69601"
         y="91"
         id="tspan232">системы управления по целям (MBO), принципы </tspan><tspan
         x="0 11.92 17.08 28.6 40.220001 50.939999 61.779999 73.699997 84.919998 95.639999 100.8 110.418 121.578 131.51801 142.67799 154.298 165.45799 177.37801 182.53799 193.87801 207.058 218.278 230.198 235.358 246.87801 258.49799 270.418 282.33801 292.71799 302.65799 315.83801 320.99799 331.83801 336.99799 348.198 360.51801 368.478 379.918 385.078 393.19601 404.35599 415.87601 425.25601 430.01599 435.17599 447.57599 457.51599 468.67599"
         y="117"
         id="tspan234">и правила которой были приняты в 2019 году. Это </tspan><tspan
         x="0 11.52 22.68 32.52 43.360001 54.32 65.540001 75.919998 86.839996 96.779999 101.94 112.66 123.5 133.88 143.72 154.44 164.38 173.89999 179.06 190.28 202.2 212.74001 224.66 237.84 249.75999 254.92 265.76001 275.88 287.10001 297.82001 309.34 314.5 326.12 336.84 348.17999 359.34 369.28 381.20001 393.12 403.23999 413.95999 419.12 429.84 435 446.51999 457.67999 468.39999 478.34"
         y="143"
         id="tspan236">позволяет связать личный вклад работника с дости</tspan></text><text
       transform="matrix(1,0,0,-1,1777.26,369.35)"
       style="font-variant:normal;font-weight:300;font-stretch:normal;font-size:20px;font-family:'Rubik Light';-inkscape-font-specification:Rubik-Light;writing-mode:lr-tb;fill:#000000;fill-opacity:1;fill-rule:nonzero;stroke:none"
       id="text242"><tspan
         x="0"
         y="0"
         id="tspan240">-</tspan></text><text
       transform="matrix(1,0,0,-1,1287,343.35)"
       style="font-variant:normal;font-weight:300;font-stretch:normal;font-size:20px;font-family:'Rubik Light';-inkscape-font-specification:Rubik-Light;writing-mode:lr-tb;fill:#000000;fill-opacity:1;fill-rule:nonzero;stroke:none"
       id="text256"><tspan
         x="0 14.98 25.9 37.82 49.740002 60.66 73.940002 79.099998 91.120003 101.958 113.178 124.098 136.01801 141.17799 155.17799 165.278 177.558"
         y="0"
         id="tspan244">жением целей ПГК.</tspan><tspan
         x="0 13.06 18.219999 29.42 41.740002 52.939999 65.260002 70.419998 78.540001 89.699997 101.22 111.8 116.96 130.24001 143.42 148.58 158.52 169.24001 179.36 194.34 205.25999 210.42 222.03999 232.96001 243.67999 254.89999 266.82001 276.66 287.82001 298.66 309.38 320.60001 332.51999 337.67999 349.20001 360.82001 371.98001 382.89999 393.01999 402.95999 408.12 419.64001 430.79999 435.95999 444.32001 455.94 466.85999 478.78"
         y="39"
         id="tspan246">В 2020 году мы также реализовали проект по грей-</tspan><tspan
         x="0 11.52 23.440001 35.060001 46.220001 57.060001 67.779999 79.699997 91.620003 106.88 112.04 122.76 134.67999 145.39999 155.34 166.25999 179.53999 192.72 197.88 209.39999 220.358 231.578 246.558 258.478 269.638 280.358 290.298 301.21799 313.138 317.87799 323.03799 334.95801 345.67801 356.21799 366.93799 376.87799 390.05801 401.978 407.138 417.978 423.138 434.33801 446.65799 454.61801 466.05801"
         y="65"
         id="tspan248">дированию системы должностей, начатый в 2019 </tspan><tspan
         x="0 8.1199999 19.280001 30.799999 40.18 44.939999 50.099998 62.080002 72.800003 77.959999 89.120003 99.839996 111.76 122.92 133.75999 144.34 149.5 160.34 170.17999 180.56 191.78 203.7 208.86 220.78 231.5 243.42 254.75999 265.71799 276.93799 287.858 298.77802 303.93799 315.55801 326.27802 336.99799 348.51801 360.138 371.298 382.01801 391.95801 403.578 414.298 426.21799 437.138 449.05801 460.978 471.55801 486.81799"
         y="91"
         id="tspan250">году. За основу взяли наиболее распространенную </tspan><tspan
         x="0 10.84 22 27.16 38 48.720001 59.639999 72.919998 78.080002 91.360001 103.28 114.9 125.82 130.98 144.25999 155.17999 165.12 176.28 187.8 198.758 209.978 221.138 229.498 241.418 256.67801 261.83801 275.83801 286.37601 296.47601 301.63599 314.91599 321.63599 332.79599 344.496 355.87601 360.63599 365.79599 379.03601 390.95599 401.67599 406.836 418.35599 429.51599 442.79599 453.95599 462.31601 473.03601 483.95599 493.896"
         y="117"
         id="tspan252">во всем мире методологию Hay Group. Она помогает </tspan><tspan
         x="0 11.16 22.68 33.599998 45.220001 55.939999 65.879997 77.800003 88.639999 100.56 111.72 116.88 127.46 138.98 150.60001 161.32001 172.16 183.38 193.75999 203.7 213.22 218.38 227.998 239.158 251.078 261.198 271.77802 283.39801 294.31799 306.23801 316.17801 327.33801 338.05801 349.578 360.73801 371.45801 382.61801 393.95801 405.87799 417.03799 427.758 437.698 447.21799 462.478 467.638 479.15799"
         y="143"
         id="tspan254">оперативно управлять конкурентоспособностью па</tspan></text><text
       transform="matrix(1,0,0,-1,1776.878,200.35)"
       style="font-variant:normal;font-weight:300;font-stretch:normal;font-size:20px;font-family:'Rubik Light';-inkscape-font-specification:Rubik-Light;writing-mode:lr-tb;fill:#000000;fill-opacity:1;fill-rule:nonzero;stroke:none"
       id="text260"><tspan
         x="0"
         y="0"
         id="tspan258">-</tspan></text><text
       transform="matrix(1,0,0,-1,1287,174.35)"
       style="font-variant:normal;font-weight:300;font-stretch:normal;font-size:20px;font-family:'Rubik Light';-inkscape-font-specification:Rubik-Light;writing-mode:lr-tb;fill:#000000;fill-opacity:1;fill-rule:nonzero;stroke:none"
       id="text264"><tspan
         x="0 9.6199999 20.540001 30.48 41.200001 46.360001 57.200001 68.360001 78.199997 90.120003 100.84 109.2 120.82 131.53999 146.52 158.03999 168.96001 180.88 192.8 203.17999 208.34 219.06 230.22 240.16 251.39799 261.978 273.49799 285.418 297.33801 307.45801 318.17801"
         y="0"
         id="tspan262">кета вознаграждения сотрудника.</tspan></text><g
       id="g266"><g
         id="g268"><g
           id="g274"><g
             id="g276"><path
               d="m 709.615,239.268 c -12.157,-11.364 -18.237,-27.392 -18.237,-48.087 v 0 -35.821 c 0,-19.105 5.896,-33.833 17.694,-44.179 v 0 c 11.795,-10.35 29.417,-15.523 52.863,-15.523 v 0 c 11.723,0 21.961,1.303 30.719,3.908 v 0 c 8.755,2.605 16.099,6.221 22.036,10.855 v 0 c 5.933,4.63 10.383,10.238 13.351,16.825 v 0 c 2.965,6.584 4.451,13.786 4.451,21.6 v 0 c 0,7.816 -1.448,15.014 -4.342,21.602 v 0 c -2.897,6.584 -7.165,12.192 -12.809,16.825 v 0 c -5.644,4.63 -12.591,8.25 -20.841,10.855 v 0 c -8.25,2.605 -17.66,3.908 -28.223,3.908 v 0 c -6.512,0 -12.341,-0.58 -17.476,-1.737 v 0 c -5.139,-1.16 -9.444,-2.388 -12.918,-3.69 v 0 c -4.199,-1.595 -7.815,-3.403 -10.855,-5.428 v 0 c 0,16.787 3.583,29.125 10.747,37.015 v 0 c 7.164,7.887 16.968,11.831 29.417,11.831 v 0 c 3.181,0 6.763,-0.254 10.746,-0.759 v 0 c 3.979,-0.509 8.104,-1.412 12.375,-2.714 v 0 c 4.267,-1.302 8.609,-3.077 13.025,-5.319 v 0 c 4.413,-2.245 8.647,-5.102 12.7,-8.575 v 0 l 9.77,13.026 c -8.25,7.089 -17.731,12.3 -28.44,15.631 v 0 c -10.712,3.327 -21.492,4.993 -32.347,4.993 v 0 c -23.447,0 -41.249,-5.682 -53.406,-17.042 m 25.726,-117.449 c -6.877,7.306 -10.313,17.764 -10.313,31.37 v 0 19.539 c 2.748,2.605 6.005,4.918 9.77,6.947 v 0 c 3.328,1.736 7.415,3.364 12.266,4.884 v 0 c 4.847,1.52 10.529,2.28 17.042,2.28 v 0 c 4.919,0 9.478,-0.906 13.678,-2.713 v 0 c 4.195,-1.812 7.849,-4.38 10.962,-7.708 v 0 c 3.111,-3.331 5.571,-7.347 7.382,-12.048 v 0 c 1.808,-4.706 2.714,-9.879 2.714,-15.524 v 0 c 0,-5.643 -0.906,-10.82 -2.714,-15.522 v 0 c -1.811,-4.704 -4.342,-8.721 -7.598,-12.048 v 0 c -3.257,-3.332 -7.164,-5.9 -11.724,-7.708 v 0 c -4.558,-1.81 -9.518,-2.713 -14.871,-2.713 v 0 c -10.854,0 -19.722,3.653 -26.594,10.964 m 168.029,130.15 v -82.498 h 23.88 c 5.499,4.342 11.687,7.415 18.562,9.227 v 0 c 6.873,1.808 13.351,2.713 19.431,2.713 v 0 c 13.601,0 23.697,-3.076 30.285,-9.227 v 0 c 6.583,-6.153 9.877,-14.653 9.877,-25.508 v 0 c 0,-10.855 -3.365,-19.359 -10.095,-25.509 v 0 c -6.729,-6.153 -17.476,-9.227 -32.239,-9.227 v 0 c -10.42,0 -20.19,1.699 -29.308,5.102 v 0 c -9.117,3.399 -17.802,8.935 -26.052,16.608 v 0 l -10.854,-13.026 c 8.25,-7.673 18.307,-13.752 30.176,-18.235 v 0 c 11.866,-4.485 24.604,-6.731 38.21,-6.731 v 0 c 25.471,0 44.141,4.559 56.01,13.678 v 0 c 11.866,9.118 17.802,21.563 17.802,37.34 v 0 c 0,15.773 -5.827,28.223 -17.476,37.341 v 0 c -11.652,9.118 -29.708,13.677 -54.165,13.677 v 0 c -4.922,0 -9.373,-0.364 -13.352,-1.085 v 0 c -3.982,-0.727 -7.419,-1.449 -10.312,-2.172 v 0 c -3.331,-1.014 -6.296,-2.1 -8.901,-3.256 v 0 45.59 h 91.181 v 15.198 z m -51.928,-126.46 c -2.968,-3.257 -4.45,-7.055 -4.45,-11.398 v 0 c 0,-4.342 1.445,-8.14 4.341,-11.398 v 0 c 2.894,-3.256 6.514,-4.884 10.855,-4.884 v 0 c 1.446,0 2.748,0.146 3.908,0.434 v 0 c 0.577,0.146 1.086,0.363 1.52,0.652 v 0 c -0.58,-4.342 -2.496,-7.778 -5.753,-10.313 v 0 c -3.257,-2.53 -6.768,-3.799 -10.53,-3.799 v 0 -7.598 c 3.474,0 6.982,0.617 10.53,1.845 v 0 c 3.545,1.232 6.693,3.186 9.444,5.861 v 0 c 2.747,2.681 4.993,6.08 6.729,10.205 v 0 c 1.737,4.124 2.606,9.009 2.606,14.653 v 0 c 0,5.499 -1.52,10.313 -4.559,14.437 v 0 c -3.04,4.125 -7.31,6.188 -12.809,6.188 v 0 c -4.922,0 -8.867,-1.628 -11.832,-4.885"
               style="fill:url(#linearGradient282);stroke:none"
               id="path284" /></g></g></g></g><text
       transform="matrix(1,0,0,-1,1080,152)"
       style="font-variant:normal;font-weight:500;font-stretch:normal;font-size:20px;font-family:'Rubik Medium';-inkscape-font-specification:Rubik-Medium;writing-mode:lr-tb;fill:#000000;fill-opacity:1;fill-rule:nonzero;stroke:none"
       id="text292"><tspan
         x="0 12.12 23.68 35.139999 46.580002 58.16 69.720001 81.160004 91.779999 102.4"
         y="0"
         id="tspan286">Текучесть </tspan><tspan
         x="0 12.24 23.799999 36.080002 47.52 59.380001 71.860001 83.300003 95.379997 106.82"
         y="26"
         id="tspan288">персонала </tspan><tspan
         x="0 11.7 16.26 28.66 41.84 54.240002 67.419998 71.980003 80.720001 92.580002 105.16"
         y="52"
         id="tspan290">в 2020 году</tspan></text><g
       id="g294"><g
         id="g296"
         clip-path="url(#clipPath300)"><g
           id="g302"
           transform="translate(1222.5,256.4626)"><path
             d="m 0,0 h -127.5 c -11.046,0 -20,-8.954 -20,-20 0,-11.046 8.954,-20 20,-20 H 0 c 11.046,0 20,8.954 20,20 C 20,-8.954 11.046,0 0,0"
             style="fill:#e8e8ed;fill-opacity:1;fill-rule:nonzero;stroke:none"
             id="path304" /></g></g></g><text
       transform="matrix(1,0,0,-1,1092.111,229.1822)"
       style="font-variant:normal;font-weight:500;font-stretch:normal;font-size:28px;font-family:'Rubik Medium';-inkscape-font-specification:Rubik-Medium;writing-mode:lr-tb;fill:#000000;fill-opacity:1;fill-rule:nonzero;stroke:none"
       id="text308"><tspan
         x="0 17.136 34.327999 50.931999 68.739998 84.924004 102.396 117.264"
         y="0"
         id="tspan306">процента</tspan></text><text
       transform="matrix(1,0,0,-1,1685,876.8344)"
       style="font-variant:normal;font-weight:500;font-stretch:normal;font-size:20px;font-family:'Rubik Medium';-inkscape-font-specification:Rubik-Medium;writing-mode:lr-tb;fill:#000000;fill-opacity:1;fill-rule:nonzero;stroke:none"
       id="text312"><tspan
         x="0 12.24 24.1 34.720001 47 58.439999 70.019997 81.580002 94.059998"
         y="0"
         id="tspan310">потрачено</tspan></text><text
       transform="matrix(1,0,0,-1,1685,850.8344)"
       style="font-variant:normal;font-weight:500;font-stretch:normal;font-size:20px;font-family:'Rubik Medium';-inkscape-font-specification:Rubik-Medium;writing-mode:lr-tb;fill:#000000;fill-opacity:1;fill-rule:nonzero;stroke:none"
       id="text318"><tspan
         x="0 12.48 23.92 28.48 40.720001 53 64.860001 73.779999 86.059998 97.5 111.58 125.66"
         y="0"
         id="tspan314">на программу</tspan><tspan
         x="0 12.28 23.74 35.82 47.68 59.139999 70.580002 83.339996 95.82"
         y="26"
         id="tspan316">релокации</tspan></text><g
       id="g320"><g
         id="g322"><g
           id="g328"><g
             id="g330"><path
               d="m 1591.196,975.505 -98.779,-100.081 v -17.151 h 106.378 v -34.736 h 31.479 v 34.736 h 18.453 v 15.197 h -18.453 v 102.035 z m 5.428,-28.223 h 2.171 V 873.47 h -74.899 z M 1372.279,975.505 1273.5,875.424 v -17.151 h 106.377 v -34.736 h 31.48 v 34.736 h 18.453 v 15.197 h -18.453 v 102.035 z m 5.427,-28.223 h 2.171 V 873.47 h -74.898 z m 71.62,-98.235 c -2.968,-3.258 -4.451,-7.057 -4.451,-11.398 v 0 c 0,-4.343 1.446,-8.141 4.342,-11.398 v 0 c 2.893,-3.257 6.513,-4.885 10.855,-4.885 v 0 c 1.445,0 2.747,0.146 3.908,0.435 v 0 c 0.577,0.146 1.085,0.363 1.52,0.65 v 0 c -0.581,-4.341 -2.497,-7.777 -5.754,-10.312 v 0 c -3.256,-2.53 -6.767,-3.799 -10.529,-3.799 v 0 -7.598 c 3.474,0 6.981,0.617 10.529,1.846 v 0 c 3.545,1.231 6.693,3.185 9.444,5.861 v 0 c 2.747,2.68 4.994,6.079 6.73,10.204 v 0 c 1.737,4.124 2.605,9.009 2.605,14.653 v 0 c 0,5.499 -1.52,10.313 -4.559,14.437 v 0 c -3.039,4.126 -7.31,6.188 -12.809,6.188 v 0 c -4.921,0 -8.867,-1.628 -11.831,-4.884"
               style="fill:url(#linearGradient336);stroke:none"
               id="path338" /></g></g></g></g><g
       id="g340"
       transform="translate(1818.8792,94.9844)"><path
         d="M 0,0 9.121,10.047 0,20.094 H -27.879 V 10.047 0 Z"
         style="fill:#faaa2d;fill-opacity:1;fill-rule:nonzero;stroke:none"
         id="path342" /></g><text
       transform="matrix(1,0,0,-1,1623,99.4401)"
       style="font-variant:normal;font-weight:300;font-stretch:normal;font-size:16px;font-family:'Rubik Light';-inkscape-font-specification:Rubik-Light;writing-mode:lr-tb;fill:#000000;fill-opacity:1;fill-rule:nonzero;stroke:none"
       id="text346"><tspan
         x="0 11.2 20.496 29.424 38.639999 47.408001 56.383999 68.367996 77.103996 86.639999 96.176003 104.912 109.04 118.576 127.152 131.28 139.856 147.808 156.9104 160.7184"
         y="0"
         id="tspan344">Продолжение на стр. </tspan></text><text
       transform="matrix(1,0,0,-1,1796.1024,99.4401)"
       style="font-variant:normal;font-weight:500;font-stretch:normal;font-size:16px;font-family:'Rubik Medium';-inkscape-font-specification:Rubik-Medium;writing-mode:lr-tb;fill:#ffffff;fill-opacity:1;fill-rule:nonzero;stroke:none"
       id="text350"><tspan
         x="0 9.8879995"
         y="0"
         id="tspan348">90</tspan></text><g
       id="g352"><g
         id="g354"
         clip-path="url(#clipPath358)"><g
           id="g360"
           transform="translate(1813,980)"><path
             d="m 0,0 h -117.687 c -11.046,0 -20,-8.954 -20,-20 0,-11.046 8.954,-20 20,-20 H 0 c 11.046,0 20,8.954 20,20 C 20,-8.954 11.046,0 0,0"
             style="fill:#e8e8ed;fill-opacity:1;fill-rule:nonzero;stroke:none"
             id="path362" /></g></g></g><text
       transform="matrix(1,0,0,-1,1695.6252,952.7198)"
       style="font-variant:normal;font-weight:500;font-stretch:normal;font-size:28px;font-family:'Rubik Medium';-inkscape-font-specification:Rubik-Medium;writing-mode:lr-tb;fill:#000000;fill-opacity:1;fill-rule:nonzero;stroke:none"
       id="text366"><tspan
         x="0 19.712 36.624001 54.096001 60.48 77.084 93.099998 109.844"
         y="0"
         id="tspan364">млн руб.</tspan></text><text
       transform="matrix(1,0,0,-1,37.6001,1023)"
       style="font-variant:normal;font-weight:300;font-stretch:normal;font-size:20px;font-family:'Rubik Light';-inkscape-font-specification:Rubik-Light;writing-mode:lr-tb;fill:#000000;fill-opacity:1;fill-rule:nonzero;stroke:none"
       id="text370"><tspan
         x="0 12.36"
         y="0"
         id="tspan368">89</tspan></text><g
       id="g372"><g
         id="g374"><g
           id="g376"
           clip-path="url(#clipPath380)"><text
             transform="matrix(1,0,0,-1,99,1023)"
             style="font-variant:normal;font-weight:300;font-stretch:normal;font-size:20px;font-family:'Rubik Light';-inkscape-font-specification:Rubik-Light;writing-mode:lr-tb;fill:#000000;fill-opacity:1;fill-rule:nonzero;stroke:none"
             id="text384"><tspan
               x="0 13.24 18.4 28.02 39.18 52.459999 63.98 74.699997 86.620003 98.540001"
               y="0"
               id="tspan382">О компании</tspan></text></g></g></g><text
       transform="matrix(1,0,0,-1,37.6001,1023)"
       style="font-variant:normal;font-weight:300;font-stretch:normal;font-size:20px;font-family:'Rubik Light';-inkscape-font-specification:Rubik-Light;writing-mode:lr-tb;fill:#000000;fill-opacity:1;fill-rule:nonzero;stroke:none"
       id="text388"><tspan
         x="0 12.36 61.400002 74.639999 79.800003 89.419998 100.58 113.86 125.38 136.10001 148.02 159.94"
         y="0"
         id="tspan386">89О компании</tspan></text></g></svg>
