<?xml version="1.0" encoding="UTF-8" standalone="no"?>
<?xml-stylesheet type="text/css" href="main.css" ?>
<svg
   xmlns:dc="http://purl.org/dc/elements/1.1/"
   xmlns:cc="http://creativecommons.org/ns#"
   xmlns:rdf="http://www.w3.org/1999/02/22-rdf-syntax-ns#"
   xmlns:svg="http://www.w3.org/2000/svg"
   xmlns="http://www.w3.org/2000/svg"
   version="1.1"
   id="svg2"
   xml:space="preserve"
   width="2560"
   height="1440"
   viewBox="0 0 2560 1440"><metadata
     id="metadata8"><rdf:RDF><cc:Work
         rdf:about=""><dc:format>image/svg+xml</dc:format><dc:type
           rdf:resource="http://purl.org/dc/dcmitype/StillImage" /></cc:Work></rdf:RDF></metadata><defs
     id="defs6"><clipPath
       clipPathUnits="userSpaceOnUse"
       id="clipPath20"><path
         d="M 0,1080 H 1920 V 0 H 0 Z"
         id="path18" /></clipPath></defs><g
     id="g10"
     transform="matrix(1.3333333,0,0,-1.3333333,0,1440)"><g
       id="g12"><g
         id="g14"><g
           id="g16"
           clip-path="url(#clipPath20)"><path
             d="M 0,0 H 1920 V 1080 H 0 Z"
             style="fill:#ffffff;fill-opacity:1;fill-rule:nonzero;stroke:none"
             id="path22" /></g></g></g><text
       transform="matrix(1,0,0,-1,99,953.8565)"
       style="font-variant:normal;font-weight:500;font-stretch:normal;font-size:28px;font-family:'Rubik Medium';-inkscape-font-specification:Rubik-Medium;writing-mode:lr-tb;fill:#000000;fill-opacity:1;fill-rule:nonzero;stroke:none"
       id="text26"><tspan
         x="0 16.940001 33.096001 49.084 65.043999 81.227997 97.384003 113.372 128.21201 143.052 149.464 165.452 181.44 199.024 216.216 232.79201"
         y="0"
         id="tspan24">Текучесть кадров</tspan></text><text
       transform="matrix(1,0,0,-1,99,914.5511)"
       style="font-variant:normal;font-weight:300;font-stretch:normal;font-size:20px;font-family:'Rubik Light';-inkscape-font-specification:Rubik-Light;writing-mode:lr-tb;fill:#000000;fill-opacity:1;fill-rule:nonzero;stroke:none"
       id="text32"><tspan
         x="0 11.14 22.059999 32.18 42.759998 53.299999 64.220001 74.940002 84.879997 94.400002 99.559998 111.08 122 133.62 144.34 155.5 167.42 178.14 189.36 200.08 205.24001 216.08 221.24001 232.44 244.75999 255.96001 268.28 273.44 281.79999 292.95999 304.48001 315.06 320.22 331.73999 342.89999 348.06 358.78 370.39999 381.12 391.95999 403.88 414.79999 426.72 438.64001 453.89999"
         y="0"
         id="tspan28">Текучесть персонала в 2020 году по сравнению </tspan><tspan
         x="0 10.72 15.88 27.08 39.400002 47.360001 58.439999 68.18 81.459999 86.620003 97.339996 109.26 121.18 131.02 142.94 154.16 164.88 175.60001 185.12 190.28 202.2 212.92 218.08 229.28 234.02 245.22 260.04001 265.20001 277.12 282.28 293 304.16 314.88 324.82001 335.54001 346.38 358.29999 369.51999 380.23999 385.39999 397.04001 401.78 413.22 418.38 433.20001"
         y="26.299999"
         id="tspan30">с 2019-м снизилась на 2,2% и составила 6,5 %.</tspan></text><text
       transform="matrix(1,0,0,-1,99,827.9403)"
       style="font-variant:normal;font-weight:500;font-stretch:normal;font-size:28px;font-family:'Rubik Medium';-inkscape-font-specification:Rubik-Medium;writing-mode:lr-tb;fill:#000000;fill-opacity:1;fill-rule:nonzero;stroke:none"
       id="text36"><tspan
         x="0 20.412001 36.987999 54.571999 71.288002 87.863998 105.056 111.468 128.912 135.32401 151.89999 169.73599 185.892 203.336 219.32401 235.312 241.724 258.832 274.98801 292.17999 308.168 324.74399 342.18799 358.17599 375.06"
         y="0"
         id="tspan34">Подбор и оценка персонала</tspan></text><text
       transform="matrix(1,0,0,-1,99,788.6349)"
       style="font-variant:normal;font-weight:300;font-stretch:normal;font-size:20px;font-family:'Rubik Light';-inkscape-font-specification:Rubik-Light;writing-mode:lr-tb;fill:#000000;fill-opacity:1;fill-rule:nonzero;stroke:none"
       id="text122"><tspan
         x="0 14 25.620001 37.540001 48.380001 59.599998 70.519997 81.059998 91.980003 103.9 115.82 126.74 131.89999 143.42 154.34 165.96001 176.67999 187.84 199.75999 210.48 221.7 232.42 237.58 248.42 253.58 267.57999 277.67999 289.95999 295.12 306.64001 318.26001 329.42001 340.26001 351.42001 362.94 374.85999 384.79999 395.51999 405.89999 411.06 422.98001 433.70001 438.85999 450.01999 460.73999 472.66 483.82001 494.66 505.57999"
         y="0"
         id="tspan38">Привлечение персонала в ПГК проводится на основе </tspan><tspan
         x="0 11.52 22.74 33.459999 45.380001 57.299999 68.919998 80.080002 90.919998 101.64 113.56 125.48 135.86 141.02 151.56 162.48 173.7 184.86 195.7 206.62 217.16 228.08 238.8 248.92 260.84 271.20001 276.35999 287.98001 298.89999 309.62 320.20001 331.82001 342.54001 353.70001 364.54001 369.70001 381.62 386.78 397.94 409.45999 421.07999 432 443.51999 454.44 465.66 476.57999 488.5 500.42001 510.79999"
         y="26.299999"
         id="tspan40">планирования человеческих ресурсов и определения </tspan><tspan
         x="0 10.12 21.34 36.599998 47.139999 58.060001 68.900002 82.080002 92.440002 97.599998 107.96 118.68 130.3 141.02 151.14 161.08 172 183.62 195.53999 206.25999 216.2 228.12 238.24001 243.39999 254.12 265.28 275.22 286.84 297.42001 308.94 320.85999 332.78 342.89999 354.06 364.89999 369.64001 374.79999 386.72 397.64001 408.79999 420.14001 430.5 441.66 453.17999 465.10001 478.38 491.56 501.92001"
         y="52.599998"
         id="tspan42">ключевых характеристик сотрудников, необходимых </tspan><tspan
         x="0 11.52 22.74 33.119999 38.279999 49.119999 62.299999 73.82 84.980003 96.199997 108.12 119.04 130.96001 142.88 153.25999 158.42 169.75999 181.67999 191.52 203.44 214.36 225.08 234.82001 245.53999 255.48 267.10001 277.82001 287.76001 298.67999 307.04001 318.95999 330.88 336.04001 347.95999 353.12 364.64001 375.79999 386.64001 399.82001 415.20001 426.12 438.04001 449.95999 460.34"
         y="78.900002"
         id="tspan44">для выполнения бизнес-стратегии и повышения </tspan><tspan
         x="0 10.72 24.299999 37.880001 48.799999 58.919998 68.860001 80.779999 91.620003 103.54 114.7 125.42 135.36 147.28 152.44 164.06 174.78 186.12 197.28 207.22 220.39999 225.56 237.84 249 262.28 273.79999 284.51999 296.44 308.35999 320.28 325.04001 330.20001 342.48001 353.20001 368.17999 379.70001 392.88 404.79999 409.95999 420.67999 431.84 441.78 453.39999 463.98001 475.5 487.42001 499.34 509.45999"
         y="105.2"
         id="tspan46">эффективности работы Компании. Каждый сотрудник </tspan><tspan
         x="0 9.8400002 20.559999 32.48 44.400002 57.68 68.400002 79.32 89.260002 94.419998 105.14 115.98 127.14 142.39999 147.56 159.08 170.24001 180.08 192 204.02 215.94 231.2 236.36 247.2 252.36 263.51999 275.14001 283.5 294.22 306.14001 318.06 327.89999 338.62 350.64001 362.56 374.48001 379.64001 390.48001 395.64001 406.35999 417.51999 428.67999 438.62 449.45999 460.38 470.32001 481.04001 490.98001 501.82001 513.73999 525.65997"
         y="131.5"
         id="tspan48">занимает свою позицию в организации в соответствии </tspan><tspan
         x="0 10.72 21.879999 27.040001 37.759998 48.599998 59.759998 71.68 84.959999 96.879997 102.04 113.96 124.68 135.52 148.7 158.82001 169.53999 182.82001 194.74001 199.48 204.64 215.48 226.64 236.48 249.75999 260.92001 275.89999 287.82001 298.98001 309.70001 319.64001 330.01999 343.29999 355.22 359.95999 365.12 376.28 387.79999 400.98001 410.92001 422.07999 435.35999 440.51999 452.44 457.60001 469.51999 482.79999 493.72 504.64001 514.58002"
         y="157.8"
         id="tspan50">со своими навыками, возможностями, опытом и имеет </tspan><tspan
         x="0 10.84 22 31.84 45.119999 56.279999 71.260002 83.18 94.339996 105.06 115 124.52 129.67999 140.52 145.67999 157.2 168.36 179.58 191.5 202.66 214.58 219.74001 233.02 243.94 255.56 266.48001 271.64001 283.26001 293.98001 304.70001 314.82001 326.44 339.62 349.56 359.07999 364.23999 374.95999 385.79999 396.95999 408.88 414.04001 425.56 436.72 446.66 457.57999 469.5 481.51999 493.44 504.16 515.38 520.14001"
         y="184.10001"
         id="tspan52">возможность в полной мере раскрыть свой потенциал. </tspan><tspan
         x="0 13.06 18.219999 32.220001 42.32 54.599998 59.759998 70.480003 81.639999 92.980003 104.2 119.46 130.98 141.7 156.96001 166.89999 172.06 183.39999 194.12 205.34 216.06 227.98 238.7 243.86 257.14001 268.06 283.04001 294.56 305.14001 310.29999 320.14001 330.85999 344.14001 355.06 370.95999 381.88 393.79999 405.72 416.64001 429.92001"
         y="210.39999"
         id="tspan54">В ПГК соблюдают баланс между замещением </tspan><tspan
         x="0 10.72 21.299999 37.200001 48.119999 58.84 68.779999 79.620003 90.199997 105.46 121.36 133.28 143.64 148.8 159.64 170.36 180.48 191.2 203.12 213.84 225.75999 237.67999 242.84 253.67999 265.60001 276.17999 286.12 297.73999 308.66 320.57999 332.5 344.42001 357.70001 369.62 374.78 384.89999 395.62 407.54001 419.06 430.98001 442.5 453.22 463.16 473.88 487.16 499.07999"
         y="236.7"
         id="tspan56">существующих вакансий внутренними кандидатами </tspan><tspan
         x="0 11.92 17.08 28.6 40.220001 52.139999 62.98 74.199997 85.120003 95.660004 106.58 118.5 130.42 141.34 154.62 159.78 170.5 180.62 191.34 202.86 213.78 225.39999 235.34 246.5 257.34 262.5 273.22 278.38 290 303.17999 315.10001 325.22 335.94 340.70001 345.85999 358.26001 368.20001 379.35999 384.51999 396.04001 407.20001 417.04001 427.88 439.04001 450.26001 460.64001 471.56 481.5"
         y="263"
         id="tspan58">и привлечением экспертов с рынка. Это позволяет </tspan><tspan
         x="0 10.72 21.879999 33.220001 44.439999 59.700001 71.220001 81.940002 91.879997 101.4 106.56 118.48 130.39999 140.34 151.25999 162.88 173.8 184.52 197.7 202.86 213.58 224.74001 234.67999 246.3 256.88 268.39999 280.32001 292.23999 302.35999 313.51999 324.35999 329.51999 341.44 346.60001 358.22 368.94 378.78 389.62 401.54001 412.38 423.10001 433.04001 442.56"
         y="289.29999"
         id="tspan60">соблюдать интересы сотрудников и развивать </tspan><tspan
         x="0 9.9399996 20.860001 26.02 37.939999 48.66 60.18 71.800003 82.519997 93.360001 104.58 115.5 127.42 139.34 149.72 154.46001 159.62 167.98 179.5 190.42 195.58 206.92 218.84 228.67999 240.60001 251.52 262.23999 272.82001 277.98001 287.92001 299.54001 310.45999 321.79999 332.38 343.29999 353.23999 363.95999 374.34 379.5 390.07999 400.79999 412.72 423.94 435.85999 446.70001 457.42001 467.35999 476.88"
         y="315.60001"
         id="tspan62">те направления, где бизнесу требуется усиливать </tspan><tspan
         x="0 10.12 21.280001 34.560001 46.080002 57 66.940002 77.860001 89.779999 101.8 113.72 125.64"
         y="341.89999"
         id="tspan64">компетенции.</tspan><tspan
         x="0 13.06 18.219999 30.5 41.66 54.939999 66.459999 77.18 89.099998 101.02 112.94 118.1 128.82001 139.98 149.82001 161.34 172.06 183.98 194.7 199.86 211.78 216.94 228.86 239.58 251.10001 262.26001 273.48001 283 292.84 303.42001 314.34 324.28 335 345.38 350.54001 361.88 373.79999 385.14001 396.35999 408.28 419.44 429.38 440.29999 450.42001 461.14001"
         y="377.20001"
         id="tspan66">В Компании создана и используется библиотека </tspan><tspan
         x="0 11.92 23.84 34.560001 44.5 56.119999 66.699997 79.980003 90.900002 102.82 112.76 123.92 134.75999 139.92 151.08 163.10001 174.02 185.94 196.06 207.98 213.14 223.25999 233.98 245.89999 257.42001 269.34 280.85999 291.57999 301.51999 312.67999 323.51999 328.26001 333.42001 343.95999 353.89999 365.06 370.22 381.73999 392.89999 402.73999 413.57999 424.73999 435.95999 446.34 457.26001 467.20001 472.35999 483.70001 494.85999 506.07999 517 527.91998"
         y="403.5"
         id="tspan68">инструментов оценки кандидатов, что позволяет более </tspan><tspan
         x="0 10.84 20.68 31.52 42.439999 57.82 68.739998 80.660004 92.580002 103.74 108.9 120.82 125.98 135.92 147.08 157.62 168.53999 179.08 191 202.16 207.32001 218.84 230.46001 242.38 254.3 266.22 279.5 290.22 300.16 309.67999 314.84 326.45999 337.38 352.76001 363.67999 375.60001 387.51999 397.89999 403.06 414.22 419.38 431.29999 442.01999 453.94 467.22 478.14001 482.88 488.04001 497.98001 508.89999 522.17999"
         y="429.79999"
         id="tspan70">взвешенно и точечно принимать решения о найме, тем </tspan><tspan
         x="0 10.72 21.440001 34.720001 47.900002 61.18 66.339996 77.860001 89.019997 99.860001 113.04 128.42 139.14 149.52 154.67999 164.8 175.52 186.06 196.98 207.7 217.64 228.48 239.64 244.8 256.32001 267.48001 279 290.34 301.5 313.12 323.84 329 339.84 345 356.92001 367.64001 383.01999 393.60001 398.76001 408.88 420.04001 433.32001 444.04001 455.95999 467.48001 478.06"
         y="456.10001"
         id="tspan72">самым повышая качество подбора в нашу команду.</tspan><tspan
         x="0 13.06 18.219999 30.139999 40.860001 51.580002 61.52 72.68 83.059998 98.959999 110.88 122.8 127.96 141.24001 152.39999 165.67999 176.60001 188.52 198.46001 203.62 214.46001 219.62 229.74001 240.89999 254.17999 265.70001 276.42001 288.34 300.26001 312.17999 317.34 329.26001 340.78 351.70001 361.64001 366.79999 378.32001 389.94 401.10001 413.12 424.04001 434.76001 445.48001"
         y="491.39999"
         id="tspan74">В настоящий момент в компании идет процесс </tspan><tspan
         x="0 10.72 21.559999 31.5 42.66 55.939999 66.660004 76.599998 88.519997 98.360001 109.08 121.1 133.02 144.94 150.10001 164.10001 176.89999 186.64 198.16 209.78 220.94 232.96001 243.88 254.60001 265.32001 276.48001 287.32001 292.06 297.22 308.06 313.22 323.76001 334.48001 345.20001 355.14001 367.06 378.22 388.94 398.88 410.79999 415.95999 425.79999 436.51999 447.35999 458.28 469.89999 485.28 496.20001 508.12"
         y="517.70001"
         id="tspan76">автоматизации HR-процессов, в частности завершен </tspan><tspan
         x="0 11.52 22.440001 34.060001 44.900002 58.080002 70 75.160004 85.879997 95.82 106.54 118.06 123.22 134.84 145.56 155.39999 167.02 177.74001 189.08 200.24001 210.17999 220.3 232.22 237.38 248.53999 259.88 271.10001 281.82001 292.35999 304.28 317.45999 327.82001 332.98001 344.60001 355.51999 370.89999 381.82001 393.73999 405.66 417.57999 422.73999 434.66 445.38 450.54001 461.88 472.60001 482.44 493.35999"
         y="544"
         id="tspan78">первый этап разработки облачных решений на базе </tspan><tspan
         x="0 12.1 25.1 37.66 42.82 54.919998 66.620003 77.339996 88.059998 98.980003 108.82 118.66 123.82 135.22 145.94 156.66 163.84 175 181.96001 191.8 196.96001 203.34 215.44 226.84 233.22"
         y="570.29999"
         id="tspan80">SAP Success Factors (SF).</tspan><tspan
         x="0 15.6 28.780001 33.939999 45.560001 56.48 67.199997 78.419998 90.339996 100.18 110.76 121.68 134.96001 140.12 151.64 163.25999 174.42 182.78 194.39999 205.12 218.39999 231.67999 242.25999 247.42 259.04001 269.76001 279.60001 290.44 302.35999 312.29999 324.22 334.60001 339.76001 349.88 360.60001 372.12 383.73999 394.89999 405.73999 416.89999 425.26001 436.42001 441.57999 453.20001 464.12 473.95999 484.88 496.5 507.34 518.06 522.79999"
         y="609.59998"
         id="tspan82">Мы реализуем программу развития кадрового резерва, </tspan><tspan
         x="0 11.52 22.68 32.52 43.360001 54.52 65.739998 76.120003 91.379997 107.28 117.86 133.12 138.28 149.8 161.42 173.34 178.5 188.34 199.06 212.34 223.25999 239.16 250.08 262 273.92001 285.84 291 301.84 312.56 322.67999 333.39999 345.32001 356.04001 367.95999 379.88 385.04001 396.56 408.17999 420.10001 425.26001 436.78 448.39999 459.56 470.10001 482.01999 492.38"
         y="635.90002"
         id="tspan84">позволяющую при замещении вакансий при прочих </tspan><tspan
         x="0 11.62 22.34 33.18 45.099998 58.279999 68.639999 73.800003 84.379997 95.099998 106.32 117.48 128.32001 140.24001 150.62 160.98 166.14 177.3 187.24001 198.75999 209.48 220.32001 231.03999 240.98 250.5 255.66 267.17999 278.79999 289.72 301.23999 312.76001 323.92001 334.45999 344.39999 355.32001 367.23999 379.16 390.07999 395.23999 406.07999 418 428.57999 438.51999 450.14001 461.06 472.98001 484.89999 496.82001 510.10001"
         y="662.20001"
         id="tspan86">равных условиях отдавать предпочтение внутренним </tspan><tspan
         x="0 10.12 20.84 32.759998 44.279999 56.200001 67.720001 78.440002 88.379997 99.099998 112.38 117.12 122.28 133.89999 144.62 155.34 170.72 182.64 194.25999 204.64 215.02 220.17999 230.12 240.84 250.96001 262.88 276.16 281.32001 292.48001 303.82001 315.44 326.16 336 347.16 360.44 365.60001 376.44 387.60001 397.44 410.72 421.88 436.85999 448.78 459.94 470.66 480.60001 492.51999"
         y="688.5"
         id="tspan88">кандидатам, расширяя таким образом возможности </tspan><tspan
         x="594 605.52002 616.73999 627.12 632.28003 643.90002 655.06 665.78003 675.71997 686.44 691.59998 702.32001 713.47998 723.41998 735.03998 745.62 757.14001 769.06 780.97998 791.09998 801.82001 815.09998 819.84003 825 836.52002 847.67999 859.20001 869.14001 879.97998 890.90002 902.52002 914.03998 925.96002 936.79999 952.17999 964.09998 977.38 982.53998 993.26001 1004.1 1015.26 1027.1801"
         y="-172.84"
         id="tspan90">для роста сотрудникам, подтвердившим свой </tspan><tspan
         x="594 605.52002 617.14001 628.29999 641.88 652.79999 663.52002 674.23999 686.15997 697.32001 709.23999 719.96002 731.17999 740.70001 752.62 765.79999 777.71997 782.88 793.46002 805.08002 816.23999 827.08002 838 849.91998 859.44 864.59998 876.52002 881.67999 893.29999 904.21997 914.06 924.64001 935.85999 945.38 955.32001 966.03998 975.97998 987.90002 998.73999 1010.66 1021.82 1032.54 1042.48 1052"
         y="-146.56"
         id="tspan92">профессиональный уровень и результативность.</tspan><tspan
         x="594 607.02002 612.17999 623.38 635.70001 646.90002 659.21997 664.38 672.73999 683.90002 695.41998 706.14001 711.29999 722.14001 727.29999 741.29999 751.40002 763.67999 768.84003 780.46002 791.38 802.09998 813.32001 825.23999 835.08002 845.65997 856.58002 866.52002 877.23999 887.62 892.78003 902.71997 913.44 923.56 938.53998 949.46002 954.62 966.14001 977.76001 988.91998 997.28003 1008.9 1019.62 1032.9 1046.1801 1056.9"
         y="-107.28"
         id="tspan94">С 2020 года в ПГК реализуется также программа </tspan><tspan
         x="594 605.62 616.53998 627.76001 638.91998 649.03998 659.76001 671.78003 683.70001 695.62 700.78003 711.5 722.65997 732.59998 744.21997 754.79999 766.32001 778.23999 790.15997 800.28003 811.44 822.28003 827.44 838.28003 843.44 854.96002 866.58002 877.15997 885.52002 897.44 908.35999 913.52002 925.14001 936.06 944.41998 956.34003 967.5 979.41998 992.59998 997.35999 1002.52 1015.58 1020.74 1032.36 1043.08 1056.36 1066.48 1077.2 1087.5601"
         y="-81"
         id="tspan96">релокации сотрудников в другие регионы. В рамках </tspan><tspan
         x="594 604.12 614.84003 626.46002 635.97998 646.90002 658.52002 670.44 683.62 693.97998 699.14001 710.65997 721.58002 733.20001 744.12 757.40002 768.32001 784.21997 795.14001 807.06 818.97998 830.90002 836.06 848.34003 859.5 872.78003 884.29999 895.02002 906.94 918.85999 929.23999 934.40002 945.56 956.90002 967.82001 978.53998 990.06 1000.98 1011.52 1023.44 1034.28 1045 1055.92 1065.86"
         y="-54.720001"
         id="tspan98">карьерных перемещений Компания обеспечивает </tspan><tspan
         x="594 605.62 616.34003 627.67999 638.84003 648.78003 660.70001 672.62 682.73999 693.46002 698.62 710.53998 721.46002 732.62 743.96002 754.32001 765.47998 777 788.91998 802.20001 815.38 828.65997 833.82001 843.94 855.09998 868.38 881.96002 893.12 904.73999 914.67999 926.59998 939.78003 953.06 958.21997 968.79999 980.41998 991.58002 1002.42 1014.34 1025.26 1038.54 1043.7 1054.28 1065 1076.22 1087.38 1098.22 1110.14 1122.0601"
         y="-28.440001"
         id="tspan100">работника необходимым комфортным уровнем условий </tspan><tspan
         x="594 605.52002 617.14001 628.29999 643.28003 655.20001 666.03998 676.76001 688.67999 700.59998 710.97998 715.71997 720.88 731.59998 736.76001 746.70001 757.41998 767.53998 782.52002 793.44 798.59998 811.88 822.59998 832.53998 843.46002 855.08002 867 877.71997 888.94 898.46002 910.38 921.53998 933.46002 938.62 950.14001 961.29999 974.58002 985.73999 1001.64 1011.16 1026.42 1031.58 1043.1 1054.72 1066.64"
         y="-2.1600001"
         id="tspan102">проживания, а также материальной помощью при </tspan><tspan
         x="594 605.52002 616.44 628.06 638.97998 649.90002 659.73999 671.26001 682.17999 686.94 692.09998 705.15997 710.32001 721.52002 733.84003 745.03998 757.35999 762.52002 770.88 782.03998 793.56 804.14001 809.29999 821.21997 831.94 837.09998 847.82001 857.76001 869.67999 874.84003 886.85999 897.78003 909 920.91998 926.08002 938.35999 949.52002 962.79999 974.32001 985.03998 996.96002 1008.88 1019.26 1024.42 1035.9399 1047.1 1057.04 1068.66 1079.38 1089.3199 1101.24 1112.46 1123.1801"
         y="24.120001"
         id="tspan104">переезде. В 2020 году на эти цели Компания потратила </tspan><tspan
         x="594 605.52002 609.88 621.78003 626.94 640.21997 651.44 663.35999 668.52002 680.14001 690.71997 702.06 713.28003 724.20001 736.12"
         y="50.400002"
         id="tspan106">4,4 млн рублей.</tspan><tspan
         x="594 607.52002 618.73999 629.12 634.28003 645.79999 657.41998 669.34003 680.17999 691.40002 702.32001 712.85999 723.78003 735.70001 747.62 758 763.15997 774 785.91998 796.84003 812.21997 824.14001 836.06 846.41998 851.58002 861.70001 872.41998 884.34003 895.85999 907.78003 919.29999 930.02002 939.96002 951.12 961.96002 967.12 980.40002 993.58002 998.73999 1009.46 1019.58 1029.52 1041.4399 1052.28 1064.2 1075.36"
         y="89.68"
         id="tspan108">Для привлечения внешних кандидатов мы активно </tspan><tspan
         x="594 605.91998 616.64001 628.15997 639.32001 650.53998 660.06 669.90002 680.47998 691.40002 704.67999 709.84003 720.56 732.08002 743 755.02002 766.94 777.65997 788.88 800.79999 810.64001 822.56 834.17999 845.34003 856.17999 866.90002 878.82001 890.73999 903.91998 914.84003 920 931.52002 942.73999 953.46002 963.40002 976.97998 988.14001 999.76001 1013.04 1026.22 1031.38 1042.9 1054.12 1064.5"
         y="115.96"
         id="tspan110">используем специализированные платформы для </tspan><tspan
         x="594 605.52002 616.67999 628.59998 639.32001 649.44 660.15997 664.90002 670.06 681.58002 693.5 704.21997 714.15997 724.88 736.79999 748.82001 760.73999 771.90002 783.82001 795.73999 808.91998 819.84003 825 838.58002 849.73999 861.35999 874.64001 885.35999 895.29999 908.47998 913.64001 924.79999 936.82001 947.73999 959.65997 969.78003 981.70001 986.46002 991.62 1003.6 1014.32 1019.48 1030.2 1040.74 1051.66 1061.6"
         y="142.24001"
         id="tspan112">поиска, дистанционные форматы оценки. За счет </tspan><tspan
         x="594 605.15997 616.67999 626.62 638.53998 651.82001 663.73999 673.58002 684.29999 696.32001 708.23999 720.15997 725.32001 736.94 747.65997 759 770.15997 780.09998 793.28003 798.44 810.35999 815.52002 827.44 838.15997 849.78003 860.5 876.40002 888.32001 899.15997 909.88 921.79999 933.71997 944.09998 949.26001 959.38 970.53998 983.82001 995.34003 1006.26 1016.2 1027.12 1039.04 1051.0601 1062.98 1074.9"
         y="168.52"
         id="tspan114">оптимизации работы и наращивания компетенций </tspan><tspan
         x="594 604.84003 616.76001 627.34003 637.28003 648.90002 659.82001 671.73999 683.65997 694.58002 706.5 711.65997 722.38 733.59998 744.17999 759.15997 770.5 783.67999 788.84003 800.35999 811.52002 823.03998 834.38 845.53998 857.15997 867.88 873.03998 884.56 895.47998 907.09998 917.82001 928.97998 940.90002 951.62 962.84003 973.56 978.71997 989.29999 1000.82 1011.54 1022.76 1033.92 1044.64 1054.16"
         y="194.8"
         id="tspan116">внутренней службы подбора персонала удалось </tspan><tspan
         x="594 604.71997 615.29999 631.20001 642.12 652.84003 662.78003 673.62 684.53998 696.46002 708.38 719.53998 724.70001 735.41998 746.58002 756.70001 768.32001 779.03998 788.97998 800.90002 810.84003 820.35999 825.52002 836.23999 847.85999 859.02002 869.14001 881.06 886.21997 896.06 906.78003 916.90002 928.52002 941.70001 951.64001 963.56 973.94 979.09998 989.94 1000.66 1010.78 1021.5 1033.42 1044.14 1056.0601 1067.98"
         y="221.08"
         id="tspan118">существенно сократить сроки закрытия вакансий </tspan><tspan
         x="594 605.91998 616.64001 621.79999 631.91998 643.14001 658.40002 668.94 679.85999 690.70001 703.88 714.79999 719.96002 731.47998 742.64001 753.85999 768.84003 780.76001 791.91998 802.64001 812.58002 824.5"
         y="247.36"
         id="tspan120">на ключевые должности.</tspan></text><text
       transform="matrix(1,0,0,-1,693,480.7371)"
       style="font-variant:normal;font-weight:500;font-stretch:normal;font-size:28px;font-family:'Rubik Medium';-inkscape-font-specification:Rubik-Medium;writing-mode:lr-tb;fill:#000000;fill-opacity:1;fill-rule:nonzero;stroke:none"
       id="text126"><tspan
         x="0 22.708 39.284 54.124001 71.568001 87.891998 103.88 121.716 139.16 155.23199 161.644 179.088 185.5 201.82401 218.39999 233.38 250.82401 266.81201 279.272 296.46399 312.452 336.42001 354.004 370.16 387.604 405.048"
         y="0"
         id="tspan124">Мотивация и вознаграждение</tspan></text><text
       transform="matrix(1,0,0,-1,693,441.4496)"
       style="font-variant:normal;font-weight:300;font-stretch:normal;font-size:20px;font-family:'Rubik Light';-inkscape-font-specification:Rubik-Light;writing-mode:lr-tb;fill:#000000;fill-opacity:1;fill-rule:nonzero;stroke:none"
       id="text212"><tspan
         x="0 14 24.1 36.380001 41.540001 52.119999 63.639999 74.559998 85.779999 96.160004 107.08 117.02 122.18 133.02 144.17999 155.7 167.32001 178.48 189.2 199.92 213.2 218.36 229.2 240.36 250.2 262.12 272.84 281.20001 292.82001 303.54001 318.51999 330.04001 340.95999 352.88 364.79999 375.17999 380.34 392.26001 397.42001 410.70001 421.85999 431.79999 443.72 454.56 465.28 477.29999 489.22 501.14001"
         y="0"
         id="tspan128">ПГК уделяет вопросам вознаграждения и мотивации </tspan><tspan
         x="0 11.16 21.879999 33.040001 44.380001 55.540001 66.459999 71.620003 82.459999 94.379997 106.3 119.58 130.3 142.22 154.14 165.06 170.22 181.06 186.22 197.84 208.56 221.84 231.96001 242.67999 253.03999 258.20001 268.32001 279.04001 290.56 302.17999 313.34 324.17999 335.34 347.26001 352.42001 363.14001 373.07999 384.70001 395.42001 405.35999 416.28 424.64001 436.56 448.48001 453.23999"
         y="26.280001"
         id="tspan130">особое внимание в рамках кадровой стратегии. </tspan><tspan
         x="0 15.6 28.780001 33.939999 45.459999 57.080002 69 78.839996 90.760002 101.48 112.4 125.68 130.42 135.58 146.12 156.06 167.22 172.38 182.32001 193.03999 203.16 215.08 226 231.16 244.74001 255.46001 265.57999 275.51999 286.67999 298.29999 311.48001 316.22 321.38 331.5 342.22 352.34 357.5 368.34 379.5 390.34 401.56 412.48001 423.01999 433.94 445.85999 457.78 468.94 479.66 489.60001 499.12"
         y="52.560001"
         id="tspan132">Мы признаем, что такие факторы, как вовлеченность </tspan><tspan
         x="0 11.62 22.34 33.68 44.84 54.779999 66.699997 78.620003 88.739998 99.900002 110.74 115.48 120.64 133.92 144.64 154.58 165.5 177.12 189.03999 199.75999 210.98 220.5 232.42 243.14 253.52 258.67999 270.60001 275.76001 287.67999 298.60001 311.88 322.60001 332.54001 343.45999 355.07999 367 377.72 388.94 398.45999 410.38 421.10001 431.48001"
         y="78.839996"
         id="tspan134">работников, материальная и нематериальная </tspan><tspan
         x="0 13.28 24.440001 34.380001 46.299999 57.139999 67.860001 79.879997 91.800003 102.18 106.92 112.08 122.8 133.38 149.28 160.2 170.92 180.86 191.7 202.62 214.53999 226.46001 237.62 242.78 253.94 265.45999 277.07999 288 299.51999 310.44 321.66 332.04001 347.29999 357.23999 362.39999 374.32001 385.04001 400.42001 411"
         y="105.12"
         id="tspan136">мотивация, существенно определяют нашу </tspan><tspan
         x="0 11.16 22.68 33.599998 45.220001 55.939999 67.959999 79.879997 91.040001 102.96 114.88 125.46 140.72 145.88 156.60001 170.17999 183.75999 194.67999 204.8 214.74001 226.66 237.5 249.42 260.57999 271.29999 281.23999 290.76001"
         y="131.39999"
         id="tspan138">операционную эффективность.</tspan><tspan
         x="0 13.02 18.18 29.379999 41.700001 52.900002 65.220001 70.379997 78.739998 89.900002 101.42 112.14 117.3 128.14 133.3 145.58 156.74001 170.02 181.53999 192.25999 204.17999 216.10001 228.02 233.17999 243.89999 253.84 264.56 276.17999 286.12 297.28 308.12 318.84 330.06 341.22 346.38 357.89999 369.51999 381.44 394.72 405.64001 417.56 428.48001 440.39999 452.32001 463.23999"
         y="170.67999"
         id="tspan140">С 2020 года в Компании стартовало применение </tspan><tspan
         x="0 10.72 22.639999 33.360001 43.299999 54.220001 67.5 80.68 85.839996 96.419998 107.94 119.56 130.28 141.12 152.34 163.25999 175.17999 187.10001 197.48 202.64 214.16 225.32001 230.48 242.5 253.42 264.64001 275.01999 288.29999 293.04001 298.20001 309.72 321.34 333.26001 345.17999 357.20001 369.12 380.64001 393.82001 398.98001 410.89999 416.06 427.57999 439.20001 449.92001 460.76001 472.67999 483.89999 494.62"
         y="196.96001"
         id="tspan142">системы управления по целям, принципы и правила </tspan><tspan
         x="0 10.12 21.280001 31.219999 42.380001 54 65.160004 77.080002 82.239998 93.580002 106.76 117.98 129.89999 135.06 146.58 158.2 170.12 182.03999 192.42 202.36 215.53999 220.7 231.53999 236.7 247.89999 260.22 268.17999 279.62 284.78 293.14001 304.29999 315.82001 326.39999 331.16 336.32001 348.72 358.66 369.82001 374.98001 386.5 397.66 407.5 418.34 429.5 440.72 451.10001 462.01999 471.95999"
         y="223.24001"
         id="tspan144">которой были приняты в 2019 году. Это позволяет </tspan><tspan
         x="0 10.72 21.559999 31.940001 41.779999 52.5 62.439999 71.959999 77.120003 88.339996 100.26 110.8 122.72 135.89999 147.82001 152.98 163.82001 173.94 185.16 195.88 207.39999 212.56 224.17999 234.89999 246.24001 257.39999 267.34 279.26001 291.17999 301.29999 312.01999 317.17999 327.89999 333.06 344.57999 355.73999 366.45999 376.39999 388.32001 403.29999 414.22 426.14001 438.06 448.98001 462.26001"
         y="249.52"
         id="tspan146">связать личный вклад работника с достижением </tspan><tspan
         x="0 12.02 22.940001 34.16 45.080002 57 62.16 76.160004 86.260002 98.540001"
         y="275.79999"
         id="tspan148">целей ПГК.</tspan><tspan
         x="0 13.06 18.219999 29.42 41.740002 52.939999 65.260002 70.419998 78.779999 89.940002 101.46 112.04 117.2 130.48 143.66 148.82001 158.75999 169.48 179.60001 194.58 205.5 210.66 222.28 233.2 243.92 255.14 267.06 276.89999 288.06 298.89999 309.62 320.84 332.76001 337.92001 349.44 361.06 372.22 383.14001 393.26001 403.20001 408.35999 419.88 431.04001 436.20001 444.56 456.17999 467.10001 479.01999"
         y="315.07999"
         id="tspan150">В 2020 году мы также реализовали проект по грей-</tspan><tspan
         x="0 11.52 23.440001 35.060001 46.220001 57.060001 67.779999 79.699997 91.620003 106.88 112.04 122.76 134.67999 145.39999 155.34 166.25999 179.53999 192.72 197.88 209.39999 220.56 231.78 246.75999 258.67999 269.84 280.56 290.5 301.42001 313.34 318.07999 323.23999 335.16 345.88 356.42001 367.14001 377.07999 390.26001 402.17999 407.34 418.17999 423.34 434.54001 446.85999 454.82001 466.26001"
         y="341.35999"
         id="tspan152">дированию системы должностей, начатый в 2019 </tspan><tspan
         x="594 602.35999 613.52002 625.03998 635.62 640.38 645.53998 657.52002 668.23999 673.40002 684.56 695.28003 707.20001 718.35999 729.20001 739.78003 744.94 755.78003 765.62 776 787.21997 799.14001 804.29999 816.21997 826.94 838.85999 850.20001 861.35999 872.58002 883.5 894.41998 899.58002 911.20001 921.91998 932.64001 944.15997 955.78003 966.94 977.65997 987.59998 999.21997 1009.94 1021.86 1032.78 1044.7 1056.62 1067.2 1082.46"
         y="-519.94"
         id="tspan154">году. За основу взяли наиболее распространенную </tspan><tspan
         x="594 604.84003 616 621.15997 632 642.71997 653.64001 666.91998 672.08002 685.35999 697.28003 708.90002 719.82001 724.97998 738.26001 749.17999 759.12 770.28003 781.79999 792.96002 804.17999 815.34003 823.70001 835.62 850.88 856.03998 870.03998 880.76001 891.40002 896.56 909.84003 916.79999 927.96002 939.65997 951.28003 956.03998 961.20001 974.44 986.35999 997.08002 1002.24 1013.76 1024.92 1038.2 1049.36 1057.72 1068.4399 1079.36 1089.3"
         y="-493.94"
         id="tspan156">во всем мире методологию Hay Group. Она помогает </tspan><tspan
         x="594 605.15997 616.67999 627.59998 639.21997 649.94 659.88 671.79999 682.64001 694.56 705.71997 710.88 721.46002 732.97998 744.59998 755.32001 766.15997 777.38 787.76001 797.70001 807.21997 812.38 822.5 833.65997 845.58002 855.70001 866.28003 877.90002 888.82001 900.73999 910.67999 921.84003 932.56 944.08002 955.23999 965.96002 977.12 988.46002 1000.38 1011.54 1022.26 1032.2 1041.72 1056.98 1062.14 1073.66 1084.38 1094.5 1105.42 1115.36 1126.08"
         y="-467.94"
         id="tspan158">оперативно управлять конкурентоспособностью пакета </tspan><tspan
         x="594 604.84003 616 625.84003 637.76001 648.47998 656.84003 668.46002 679.17999 694.15997 705.67999 716.59998 728.52002 740.44 750.82001 755.97998 766.70001 777.85999 787.79999 799.41998 810 821.52002 833.44 845.35999 855.47998 866.20001"
         y="-441.94"
         id="tspan160">вознаграждения сотрудника.</tspan><tspan
         x="594 607.06 618.21997 628.06 639.97998 650.70001 659.06 670.67999 681.40002 696.38 707.90002 718.82001 730.73999 742.65997 753.58002 758.73999 769.46002 780.62 790.56 802.17999 812.76001 824.28003 836.20001 848.12 858.23999 868.96002 874.12 883.96002 894.67999 905.52002 917.44 928.15997 940.08002 950.02002 955.17999 966.34003 976.28003 981.44 993.06 1003.98 1013.82 1024.4 1035.62 1045.14 1055.08 1065.8 1075.74 1086.9 1097.74"
         y="-402.94"
         id="tspan162">Вознаграждение сотрудника зависит от результатов </tspan><tspan
         x="594 604.91998 613.28003 624.44 629.59998 639.53998 651.15997 661.73999 673.26001 683.97998 689.14001 701.06 706.21997 719.79999 730.96002 742.58002 755.85999 767.78003 779.40002 789.97998 800.90002 810.84003 821.56 831.94 837.09998 849.02002 858.85999 864.02002 875.53998 886.38 896.96002 907.32001 912.47998 923.02002 933.73999 944.46002 954.40002 965.32001 977.23999 982.06 987.21997 998.73999 1009.9 1020.62 1030.5601 1041.72 1052.1 1064.02 1075.9399 1087.1 1099.02"
         y="-376.94"
         id="tspan164">его труда и формируется из двух частей: постоянной </tspan><tspan
         x="594 605.91998 611.08002 622.59998 633.52002 645.14001 656.06 669.34003 680.26001 692.17999 704.09998 715.26001 727.17999 731.94 737.09998 751.09998 762.02002 773.64001 784.47998 795.20001 805.58002 810.73999 821.90002 833.41998 845.03998 855.96002 867.47998 878.40002 889.62 900 910.91998 920.85999 931.58002 941.96002 947.12 958.64001 970.56 981.28003 992.79999 1003.52 1013.36 1024.52 1036.4399 1047.6 1060.88 1065.62"
         y="-350.94"
         id="tspan166">и переменной. Первая определяется диапазоном, </tspan><tspan
         x="594 603.84003 614.56 624.67999 636.29999 647.21997 658.73999 669.96002 680.88 692.79999 704.71997 717.90002 731.17999 736.34003 746.17999 756.90002 762.06 773.58002 784.73999 795.96002 810.94 822.85999 834.02002 844.73999 854.67999 866.59998 879.78003 893.06 898.21997 906.58002 918.20001 929.12 941.03998 952.56 963.71997 977 982.15997 992.88 1004.4 1015.32 1027.34 1039.26 1049.98 1061.2 1073.12 1083.84 1093.78 1104.5 1109.26"
         y="-324.94"
         id="tspan168">закрепленным за должностным грейдом специалиста. </tspan><tspan
         x="594 608.52002 618.46002 629.62 637.97998 649.14001 659.97998 671.14001 682.06 687.21997 697.06 708.97998 719.70001 730.23999 741.15997 753.08002 765 775.91998 781.08002 790.91998 801.64001 812.47998 824.40002 835.12 847.03998 856.97998 862.14001 873.29999 883.23999 888.40002 898.97998 910.59998 921.76001 932.59998 944.52002 954.90002 960.06 970.17999 981.02002 991.73999 1002.96 1014.88 1028.46 1040.38 1050.5 1061.22 1073.24 1085.16 1097.08"
         y="-298.94"
         id="tspan170">Итоговое значение зависит от уровня квалификации </tspan><tspan
         x="594 605.91998 611.08002 622.59998 633.76001 644.97998 659.96002 671.88 683.03998 693.76001 703.70001 715.62 728.79999 739.15997 744.32001 755.47998 766.82001 777.20001 787.03998 797.76001 809.67999 821.59998 832.76001 843.47998 853.41998 864.34003 876.26001 881.02002 886.17999 899.23999 909.17999 920.34003 931.96002 942.67999 953.06 958.21997 968.76001 979.47998 990.20001 1000.14 1009.66 1014.82 1030.16 1035.3199 1046.84 1058.46 1069.38 1082.66 1094.58 1104.96"
         y="-272.94"
         id="tspan172">и должностных обязанностей. Вторая часть — премия </tspan><tspan
         x="594 605.52002 616.67999 621.84003 633.46002 644.38 654.21997 664.79999 676.02002 685.53998 695.47998 706.20001 716.14001 726.85999 740.14001 745.29999 756.14001 769.32001 780.84003 792 803.21997 815.14001 826.06 837.97998 849.90002 860.28003 865.44 877.46002 888.38 899.59998 910.52002 922.44 927.59998 938.32001 949.47998 959.41998 971.03998 981.62 993.14001 1005.06 1016.98 1027.1 1037.8199 1051.1 1063.02 1067.78"
         y="-246.94"
         id="tspan174">по результатам выполнения целей сотрудниками. </tspan><tspan
         x="594 607.23999 619.15997 629.88 635.03998 644.88 655.59998 666.44 678.35999 689.08002 701 710.94 716.09998 727.26001 737.20001 742.35999 753.97998 764.90002 774.73999 785.32001 796.53998 806.06 816 826.71997 836.65997 847.82001 858.65997 863.82001 875.44 886.15997 897.5 908.65997 918.59998 931.78003 936.94 947.65997 958.82001 968.76001 980.38 990.96002 1002.48 1014.4 1026.3199 1036.4399 1047.16"
         y="-220.94"
         id="tspan176">Она зависит от результатов работы сотрудника </tspan><tspan
         x="594 603.84003 614.56 619.71997 629.84003 640.56 651.78003 662.70001 674.62 686.14001 696.85999 708.47998 720.40002 733.58002 745.5 750.65997 762.17999 773.09998 784.71997 796.64001 807.79999 819.32001 824.08002 829.23999 841.79999 852.52002 863.85999 875.02002 884.96002 896.88 908.79999 918.91998 930.84003 936 945.94 956.65997 966.78003 981.76001 992.67999 997.84003 1011.12 1022.28 1030.64 1041.22 1051.16"
         y="-194.94"
         id="tspan178">за календарный период. Работники также могут </tspan><tspan
         x="594 605.52002 616.67999 627.90002 638.47998 649.02002 660.94 670.88 680.40002 685.56 696.47998 708 719.91998 731.84003 743 753.84003 765.46002 776.38 789.65997 800.58002 812.5 824.41998 837.59998 848.52002 853.67999 865.20001 876.82001 887.73999 901.02002 912.94 924.85999 930.02002 939.85999 950.58002 955.73999 966.58002 979.76001 991.28003 1002.44 1013.66 1025.58 1036.5 1048.42 1060.34 1071.26"
         y="-168.94"
         id="tspan180">получить единовременные премии за выполнение </tspan><tspan
         x="594 604.84003 615.56 630.53998 642.46002 655.64001 666 671.15997 681 691.71997 703.23999 713.96002 724.5 729.65997 741.58002 746.73999 757.58002 770.76001 782.28003 793 808.26001 824.15997 836.08002 847 852.15997 863.67999 874.84003 885.56 895.5 907.41998 922.40002 933.32001 945.23999 957.15997 967.53998 972.70001 983.53998 988.70001 1000.32 1011.04 1022.38 1033.54 1043.48 1054.4"
         y="-142.94"
         id="tspan182">важных задач и выдающие достижения в работе.</tspan><tspan
         x="594 607.06 612.21997 623.41998 635.73999 646.94 659.26001 664.41998 672.78003 683.94 695.46002 706.03998 711.20001 721.78003 726.94 738.46002 749.90002 764.71997 769.88 780.59998 792.12 803.03998 815.06 826.97998 837.70001 848.91998 860.84003 871.56 881.5 892.65997 903.5 908.65997 920.94 932.09998 945.38 956.90002 967.62 979.53998 991.46002 1003.38 1008.54 1019.88 1033.0601 1044.28"
         y="-103.94"
         id="tspan184">В 2020 году у 39% специалистов Компании был </tspan><tspan
         x="594 605.52002 616.44 628.06 638.97998 649.70001 662.97998 674.14001 684.08002 695.70001 706.62 718.53998 723.70001 735.21997 746.38 757.59998 772.58002 784.5 795.65997 806.38 816.32001 828.23999 839.40002 851.32001 856.47998 867.64001 877.76001 888.97998 899.70001 911.21997 916.38 927.90002 939.06 944.21997 956.14001 966.08002 977.23999 985.59998 996.32001 1009.6 1014.76 1025.48 1037.4 1048.12 1059.34 1071.26 1081.1 1091.8199"
         y="-77.940002"
         id="tspan186">пересмотрен должностной оклад по итогам анализа </tspan><tspan
         x="594 604.58002 616.20001 627.35999 638.20001 650.12 660.5 665.65997 676.82001 688.34003 699.56 710.28003 720.21997 733.40002 738.56 749.28003 760.44 771.96002 783.12 793.84003 803.78003 814.5 825.34003 837.26001 850.53998 863.71997 874.08002 879.23999 890.76001 901.91998 913.14001 928.12 940.03998 951.20001 961.91998 971.85999 982.78003 994.70001 999.85999 1011.78 1022.5 1027.66 1039.28 1052.46 1064.38 1074.5 1085.42"
         y="-51.939999"
         id="tspan188">уровня оплаты сопоставимых должностей на рынке </tspan><tspan
         x="594 603.94 615.56 626.14001 637.65997 648.38 653.12 658.28003 669.79999 681.41998 692.58002 706.15997 717.08002 727.79999 738.52002 750.44 761.59998 773.52002 784.23999 795.46002 804.97998 816.90002 830.08002 840.44 845.59998 855.71997 866.88 880.15997 891.67999 902.59998 912.53998 923.46002 935.38 947.40002 959.32001 971.23999 975.97998 981.14001 992.65997 1004.28 1015.44 1026.36 1036.48 1046.42 1058.34 1069.5 1081.42"
         y="-25.940001"
         id="tspan190">труда, профессиональных компетенций, проектной </tspan><tspan
         x="594 604.71997 614.84003 624.78003 636.70001 647.53998 659.46002 670.62 681.34003 691.28003 703.20001 708.35999 720.28003 725.44 736.96002 748.12 758.84003 768.78003 780.70001 789.06 800.97998 811.56 821.5 834.67999 845.03998 850.20001 861.82001 872.73999 882.58002 893.15997 904.38 913.90002 923.84003 934.56 944.5 955.65997 966.5"
         y="0.059999999"
         id="tspan192">активности и достигнутых результатов.</tspan><tspan
         x="594 607.06 612.21997 622.94 634.85999 645.58002 655.52002 666.44 679.71997 690.29999 695.46002 707.38 718.29999 731.58002 742.29999 752.23999 763.15997 774.78003 786.70001 797.41998 808.64001 818.15997 830.08002 841.23999 853.15997 858.32001 871.59998 882.76001 892.70001 904.62 915.46002 926.17999 938.20001 950.12 962.03998 967.20001 979.47998 990.64001 1003.92 1015.44 1026.16 1038.08 1050 1061.92"
         y="39.060001"
         id="tspan194">В систему нематериальной мотивации Компании </tspan><tspan
         x="594 604.84003 614.96002 626.17999 641.44 651.97998 662.90002 674.82001 688 693.15997 703.88 715.03998 727.06 738.97998 749.70001 760.91998 770.44 782.35999 795.53998 806.46002 811.62 824.90002 835.82001 847.44 858.59998 870.12 881.73999 893.65997 904.03998 913.97998 925.90002 936.28003 941.02002 946.17999 957.34003 968.96002 980.88 991.79999 1003.72 1013.66 1025.58 1037.2 1048.36 1059.2 1069.92 1081.84 1093.76 1106.9399 1117.86"
         y="65.059998"
         id="tspan196">включены социальные мероприятия, ориентированные </tspan><tspan
         x="594 605.91998 616.64001 621.79999 633.41998 644.58002 655.29999 665.23999 670.40002 681.62 692.78003 703.15997 714.38 723.90002 735.82001 746.97998 757.70001 767.64001 779.56 784.71997 795.44 806.59998 816.53998 828.15997 838.73999 850.26001 862.17999 874.09998 884.21997 895.38 906.21997 910.96002 916.12 926.70001 937.91998 948.5 959.03998 974.41998 985.34003 997.26001 1009.18 1020.1 1025.26 1036.88 1047.6 1058.9399 1070.1 1080.64 1092.5601 1102.92"
         y="91.059998"
         id="tspan198">на рост лояльности сотрудников, улучшение рабочих </tspan><tspan
         x="594 604.58002 615.29999 626.52002 637.67999 648.52002 660.44 672.35999 677.09998 682.26001 693.78003 704.94 715.78003 728.96002 744.34003 755.26001 767.17999 779.09998 790.02002 795.17999 806.79999 817.71997 827.56 838.14001 849.35999 858.88 868.82001 879.53998 889.47998 901.40002 912.23999 924.15997 935.32001 946.03998 955.97998 967.90002 973.06 983 994.62 1005.2 1016.72 1027.4399"
         y="117.06"
         id="tspan200">условий, повышение результативности труда </tspan><tspan
         x="594 605.91998 611.08002 622.59998 633.76001 645.28003 657.20001 667.58002 677.52002 689.44 700.35999 705.52002 715.64001 726.79999 738.41998 749.94 761.09998 772.71997 783.44 793.38 805.29999 816.14001 828.06 839.21997 847.58002 858.73999 863.90002 875.41998 886 896.35999 907.08002 912.23999 922.35999 933.52002 946.79999 957.52002 969.44 980.96002 994.14001"
         y="143.06"
         id="tspan202">и поднятие корпоративного духа команды.</tspan><tspan
         x="594 608 618.58002 629.91998 641.14001 653.06 663.59998 675.52002 686.67999 697.59998 702.76001 714.28003 725.90002 737.82001 747.65997 759.58002 770.29999 782.21997 794.14001 805.06 810.21997 820.06 830.78003 841.5 852.71997 863.29999 871.65997 876.82001 888.03998 898.62 909.15997 924.53998 936.46002 946.82001 951.97998 963.59998 974.32001 985.65997 996.82001 1006.76 1018.68 1030.6 1040.72 1051.88 1062.72 1067.88 1078.26 1089.1 1100.3199 1110.7"
         y="182.06"
         id="tspan204">Публичное признание заслуг лучших работников явля-</tspan><tspan
         x="594 604.91998 614.85999 625.58002 635.96002 641.12 651.84003 662.56 675.84003 687 698.91998 704.08002 715.70001 726.41998 737.14001 748.65997 760.28003 771.44 782.15997 792.09998 803.71997 814.44 826.35999 837.28003 849.20001 861.12 872.28003 884.20001 889.35999 902.94 914.09998 925.71997 939 950.15997 962.08002 967.23999 979.15997 990.08002 1003.36 1014.08 1024.02 1034.9399 1046.5601 1058.48 1069.2 1080.42 1089.9399 1101.86 1113.02 1124.9399"
         y="208.06"
         id="tspan206">ется самой распространенной формой нематериальной </tspan><tspan
         x="594 607.28003 618.44 628.38 640.29999 651.14001 661.85999 673.88 685.79999 697.71997 702.47998 707.64001 720.70001 725.85999 737.06 749.38 760.58002 772.90002 778.06 788.64001 798.58002 809.41998 820.34003 831.96002 846.94 858.46002 869.38 881.29999 892.46002 897.62 911.62 922.78003 934 945.15997 960.14001 971.06 982.97998 994.90002 1005.82 1010.98 1022.14 1027.3 1038.14 1050.0601 1061.58 1072.3 1082.66"
         y="234.06"
         id="tspan208">мотивации. В 2020 утверждено Положение о видах </tspan><tspan
         x="594 605.91998 616.84003 630.12 640.84003 650.78003 661.70001 673.32001 685.23999 695.96002 707.17999 716.70001 728.62 739.78003 748.14001 759.29999 764.46002 775.97998 787.14001 798.29999 814.20001 825.82001 836.73999 848.65997 860.58002 870.96002 876.12 888.03998 893.20001 905.12 915.84003 924.20001 935.82001 946.53998 958.06 968.78003 979.14001"
         y="260.06"
         id="tspan210">нематериального поощрения и наградах.</tspan></text><g
       id="g214"
       transform="translate(1818.8792,94.9844)"><path
         d="M 0,0 9.121,10.047 0,20.094 H -27.879 V 10.047 0 Z"
         style="fill:#f0f0f5;fill-opacity:1;fill-rule:nonzero;stroke:none"
         id="path216" /></g><text
       transform="matrix(1,0,0,-1,1623,99.4401)"
       style="font-variant:normal;font-weight:300;font-stretch:normal;font-size:16px;font-family:'Rubik Light';-inkscape-font-specification:Rubik-Light;writing-mode:lr-tb;fill:#000000;fill-opacity:1;fill-rule:nonzero;stroke:none"
       id="text220"><tspan
         x="0 11.2 20.496 29.424 38.639999 47.568001 56.543999 68.528 77.264 86.800003 96.335999 105.072 109.2 118.736 127.312 131.44 140.01601 147.968 157.26401 161.07201"
         y="0"
         id="tspan218">Продолжение на стр. </tspan></text><text
       transform="matrix(1,0,0,-1,1796.456,99.4401)"
       style="font-variant:normal;font-weight:500;font-stretch:normal;font-size:16px;font-family:'Rubik Medium';-inkscape-font-specification:Rubik-Medium;writing-mode:lr-tb;fill:#000000;fill-opacity:1;fill-rule:nonzero;stroke:none"
       id="text224"><tspan
         x="0 9.8719997"
         y="0"
         id="tspan222">90</tspan></text><text
       transform="matrix(1,0,0,-1,37.6001,1023)"
       style="font-variant:normal;font-weight:300;font-stretch:normal;font-size:20px;font-family:'Rubik Light';-inkscape-font-specification:Rubik-Light;writing-mode:lr-tb;fill:#000000;fill-opacity:1;fill-rule:nonzero;stroke:none"
       id="text228"><tspan
         x="0 12.36 61.400002 75.400002 86.120003 101.5 112.22 117.38 127.5 138.66 151.94 162.66 174.58 186.10001"
         y="0"
         id="tspan226">89Наша команда</tspan></text></g></svg>
