<?xml version="1.0" encoding="UTF-8" standalone="no"?>
<?xml-stylesheet type="text/css" href="main.css" ?>
<svg
   xmlns:dc="http://purl.org/dc/elements/1.1/"
   xmlns:cc="http://creativecommons.org/ns#"
   xmlns:rdf="http://www.w3.org/1999/02/22-rdf-syntax-ns#"
   xmlns:svg="http://www.w3.org/2000/svg"
   xmlns="http://www.w3.org/2000/svg"
   version="1.1"
   id="svg2"
   xml:space="preserve"
   width="2560"
   height="1440"
   viewBox="0 0 2560 1440"><metadata
     id="metadata8"><rdf:RDF><cc:Work
         rdf:about=""><dc:format>image/svg+xml</dc:format><dc:type
           rdf:resource="http://purl.org/dc/dcmitype/StillImage" /></cc:Work></rdf:RDF></metadata><defs
     id="defs6"><clipPath
       clipPathUnits="userSpaceOnUse"
       id="clipPath20"><path
         d="M 0,1080 H 1920 V 0 H 0 Z"
         id="path18" /></clipPath><clipPath
       clipPathUnits="userSpaceOnUse"
       id="clipPath228"><path
         d="M 0,1080 H 1920 V 0 H 0 Z"
         id="path226" /></clipPath></defs><g
     id="g10"
     transform="matrix(1.3333333,0,0,-1.3333333,0,1440)"><g
       id="g12"><g
         id="g14"><g
           id="g16"
           clip-path="url(#clipPath20)"><path
             d="M 0,0 H 1920 V 1080 H 0 Z"
             style="fill:#ffffff;fill-opacity:1;fill-rule:nonzero;stroke:none"
             id="path22" /></g></g></g><text
       transform="matrix(1,0,0,-1,99,953.8201)"
       style="font-variant:normal;font-weight:500;font-stretch:normal;font-size:28px;font-family:'Rubik Medium';-inkscape-font-specification:Rubik-Medium;writing-mode:lr-tb;fill:#000000;fill-opacity:1;fill-rule:nonzero;stroke:none"
       id="text26"><tspan
         x="0 19.431999 35.476002 53.34 70.811996 87.416 104.888 121.072 138.26401 159.76801 166.15199 183.62399 190.008 207.48 224.952 241.332 257.51599 273.53201 288.39999 305.004 322.19601"
         y="0"
         id="tspan24">Акционеры и инвесторы</tspan></text><text
       transform="matrix(1,0,0,-1,99,914.8201)"
       style="font-variant:normal;font-weight:300;font-stretch:normal;font-size:20px;font-family:'Rubik Light';-inkscape-font-specification:Rubik-Light;writing-mode:lr-tb;fill:#000000;fill-opacity:1;fill-rule:nonzero;stroke:none"
       id="text48"><tspan
         x="0 14 24.92 36.540001 47.380001 58.099998 68.480003 73.639999 82 93.239998 103.82 113.66 124.82 135.66 146.38 156.75999 161.92 171.53799 182.698 195.978 207.498 218.218 230.138 242.058 252.438 257.59799 268.31799 279.478 290.81799 302.03799 317.298 328.81799 339.53799 350.45801 360.39801 365.55801 377.478 382.638 392.478 403.198 419.09799 431.01801 446.918 457.638 468.55801 478.49799"
         y="0"
         id="tspan28">Первая грузовая компания соблюдает и защищает </tspan><tspan
         x="0 9.8400002 20.559999 30.18 41.34 53.259998 65.18 78.360001 89.279999 94.440002 106.36 118.28 128.22 139.14 150.75999 161.67999 172.39999 185.58 190.74001 201.46001 211.58 223.60001 235.52 246.67999 258.60001 269.51999 281.14001 292.29999 303.14001 307.88 313.04001 323.76001 328.92001 338.85999 349.57999 359.70001 374.67999 385.60001 390.76001 401.48001 411.42001 423.04001 433.95999 447.23999 459.16 469.10001 479.82001 490.20001"
         y="26"
         id="tspan30">законные интересы акционеров, а также стремится </tspan><tspan
         x="0 11.52 22.68 33.52 46.700001 62.080002 72.800003 82.739998 92.260002 97.419998 109.34 121.26 132.10001 143.02 153.74001 163.67999 175.60001 187.62 199.53999 210.7 222.62 234.53999 245.12 260.38 265.54001 277.06 288.67999 300.60001 311.44 322.66 333.57999 343.70001 354.42001 364.35999 375.19601 386.41599 395.936 407.85599 419.01599 429.73599 439.67599 449.19601 453.95599"
         y="52"
         id="tspan32">повышать инвестиционную привлекательность. </tspan><tspan
         x="0 13.06 26.24 36.959999 46.900002 58.52 69.239998 81.160004 92 102.72 114.64 126.56 137.48 142.64 154.16 165.78 176.94 186.78 198.39999 209.12 219.66 231.58 244.75999 255.12 260.28 271.12 280.95999 291.67999 303.60001 316.88 328.04001 339.20001 349.14001 361.06 372.22 387.60001 398.51999 410.44 422.35999 434.28"
         y="78"
         id="tspan34">Выстраивание прозрачных взаимоотношений </tspan><tspan
         x="0 10.72 15.88 26.6 36.720001 48.740002 60.66 71.82 83.739998 94.660004 106.28 117 130.28 142.2 147.36 159.28 164.44 176.36 188.28 199.12 210.03999 220.75999 230.7 241.86 253.48 264.20001 277.48001 289.39999 294.56 304.94 315.78 327 337.38 348.29999 358.23999 368.95999 379.34 384.5 394.62 405.84 421.10001 431.64001 442.56 453.39999 466.57999 479.85999"
         y="104"
         id="tspan36">с акционерами и инвесторами является ключевым </tspan><tspan
         x="0 11.92 22.639999 34.16 45.779999 56.5 67.339996 78.559998 89.480003 101.4 113.32 124.24 137.52 142.67999 154.3 165.02 176.36 187.52 197.46001 210.64 215.8 227.478 238.638 251.918 263.43799 274.15799 286.078 297.99799 309.918 314.67801 319.83801 332.89801 338.05801 349.21799 359.93799 371.858 383.01801 393.858 404.77802"
         y="130"
         id="tspan38">направлением работы Компании. В основе </tspan><tspan
         x="0 10.72 21.879999 31.82 43.060001 53.639999 65.160004 77.080002 89 99.540001 110.46 121.18 131.12 141.96001 152.67999 157.84 169.06 179.98 194.96001 206.88 216.82001 221.98 233.89999 245.82001 259.39999 270.56 282.17999 295.45999 306.17999 318.20001 330.12 341.28 353.20001 365.12 375.84 386.22 391.38 402.89999 414.51999 425.67999 435.51999 447.14001 457.85999 468.39999 480.32001 491.48001 502.20001 512.14001 521.65997"
         y="156"
         id="tspan40">сотрудничества лежит информационная прозрачность </tspan><tspan
         x="0 11.92 17.08 27.799999 38.639999 49.799999 60.720001 71.559998 83.18 94.099998 107.38 118.3 130.22 142.14 153.3 164.22 169.38 181 191.72 202.44 212.56 224.17999 237.36 247.3 259.22 270.14001 275.29999 287.22 299.14001 312.72 323.88 335.5 348.78 359.5 371.51999 383.44 395.35999 400.10001 405.26001 416.78 427.73599 438.95599 450.87601 462.03601 472.95599"
         y="182"
         id="tspan42">и своевременное раскрытие информации, полное </tspan><tspan
         x="0 11.52 23.139999 34.060001 45.580002 56.740002 67.459999 77.400002 88.120003 98.959999 110.18 121.1 133.02 144.94 155.86 161.02 171.74001 182.58 193.5 205.02 215.94 227.86 239.78 251.7 256.85999 268.01999 273.17999 284.79999 295.72 305.56 315.556 326.776 336.29599 346.23599 356.95599 366.896 377.616 387.97601 393.13599 404.65601 415.57599 425.95599 435.896 446.73401 457.95401 467.474 479.39401 490.55399 501.27399 511.21399 523.13397"
         y="208"
         id="tspan44">предоставление сведений о результатах деятельности </tspan><tspan
         x="0 11.92 17.08 28.6 39.82 50.540001 62.459999 73.18 83.540001 88.699997 100.32 111.04 120.88 131.72 143.64 153.58 165.5 175.88 181.03999 192.38 204.3 214.14 226.06 236.98 247.7 258.42001"
         y="234"
         id="tspan46">и планах развития бизнеса.</tspan></text><text
       transform="matrix(1,0,0,-1,99,620.8201)"
       style="font-variant:normal;font-weight:500;font-stretch:normal;font-size:28px;font-family:'Rubik Medium';-inkscape-font-specification:Rubik-Medium;writing-mode:lr-tb;fill:#000000;fill-opacity:1;fill-rule:nonzero;stroke:none"
       id="text52"><tspan
         x="0 18.816 35.728001 53.200001 69.384003 86.856003 101.724 123.228 129.612 147.084 153.468 170.604 186.62 203.812 218.67999 236.15199 252.336 269.52802"
         y="0"
         id="tspan50">Клиенты и партнеры</tspan></text><text
       transform="matrix(1,0,0,-1,99,581.8201)"
       style="font-variant:normal;font-weight:300;font-stretch:normal;font-size:20px;font-family:'Rubik Light';-inkscape-font-specification:Rubik-Light;writing-mode:lr-tb;fill:#000000;fill-opacity:1;fill-rule:nonzero;stroke:none"
       id="text84"><tspan
         x="0 14 24.1 36.380001 41.540001 53.060001 64.68 75.599998 87.120003 98.279999 109 118.94 129.66 140.5 151.72 162.10001 173.02 182.96001 188.12 198.358 209.078 220.298 230.87801 239.23801 251.158 256.31799 267.83801 278.99799 284.15799 295.31799 306.83801 317.758 329.37799 341.298 352.918 364.078 374.918 385.638 397.55801 409.478 424.73801"
         y="0"
         id="tspan54">ПГК предоставляет услуги по оперированию </tspan><tspan
         x="0 10.12 21.360001 31.940001 43.459999 55.380001 66.300003 78.220001 93.599998 105.52 118.8 123.96 135.58 146.74001 157.46001 168.17999 180.10001 192.02 202.74001 212.86 224.78 238.06 243.22 254.74001 266.35999 277.51999 290.79999 303.98001 319.35999 330.57999 341.5 353.42001 365.34 378.51999 391.79999"
         y="26"
         id="tspan56">крупнейшим российским промышленным </tspan><tspan
         x="0 11.92 17.08 28.6 39.759998 51.099998 64.279999 75.120003 85.839996 101.1 117 128.92 142.2 147.36 156.978 168.138 181.418 192.938 203.658 215.578 227.498 237.87801 251.158 255.89799 261.05801 271.77802 283.39801 294.31799 305.83801 317.758 328.67801 341.95801 352.53799 357.698 369.61801 374.77802 388.05801 398.77802 409.99799 421.15799 434.43799 445.01801 450.17801 461.51801 473.43799 483.27802 495.198 506.11801 516.83801 526.21198 530.97198"
         y="52"
         id="tspan58">и добывающим компаниям, среднему и малому бизнесу. </tspan><tspan
         x="0 13.24 24.58 40.48 51.400002 62.119999 72.059998 82.900002 94.059998 99.220001 109.94 121.16 132.08 143.60001 153.838 164.758 174.698 179.858 189.978 201.198 213.118 224.03799 235.95799 245.89799 257.05801 269.078 279.99799 291.918 301.858 313.478 325.39801 335.93799 347.858 359.01801 370.93799 376.09799 385.716 396.87601 408.79599 420.81601 431.73599 443.25601 455.276 467.19601 479.116 483.85599"
         y="78"
         id="tspan60">Общество следует клиентоцентричной концепции, </tspan><tspan
         x="0 11.52 22.74 33.459999 45.380001 56.540001 69.82 80.739998 92.360001 104.28 115.44 120.6 131.44 144.62 156.24001 166.96001 178.3 189.02 198.96001 212.14 222.98 233.7 244.08 249.24001 260.39999 271.92001 281.85999 293.78 307.06 317.78 329 338.51999 350.44 363.62 374.54001 379.70001 391.32001 402.23999 417.62 428.54001 440.45999 452.38 462.76001"
         y="104"
         id="tspan62">планомерно вырабатывая оптимальные решения </tspan><tspan
         x="0 11.52 22.68 27.84 38.419998 49.939999 61.099998 71.940002 83.160004 94.080002 104.02 114.86 126.02 137.64 148.56 160.48 172.39999 187.66 192.82001 204.34 215.5 225.44 237.06 247.98 259.32001 271.23999 282.39999 293.12 303.06 313.98001 325.89999 331.06 342.57999 353.29999 364.92001 374.85999 386.78 397.70001 409.32001 420.48001 431.32001"
         y="130"
         id="tspan64">по удовлетворению потребностей партнеров </tspan><tspan
         x="0 11.92 17.08 28.700001 39.419998 49.259998 60.099998 72.019997 82.860001 93.580002 103.96 109.12 121.04 132.2 143.03999 156.22 167.14 172.3 185.58 196.74001 208.25999 219.09801 230.31799 242.23801 247.39799 258.23801 268.078 278.798 290.71799 303.99799 315.15799 326.67801 337.59799 349.51801 360.23801 370.17801 381.01801 392.93799 403.31799 408.078 413.23801 424.914 436.07401 449.354 460.87399 471.59399 483.51401 495.43399 505.814"
         y="156"
         id="tspan66">и развивая новые модели взаимодействия. Компания </tspan><tspan
         x="0 10.84 21.76 33.279999 44.200001 54.139999 59.299999 70.459999 80.400002 90.519997 102.14 115.32 125.26 138.44 150.36 155.52 167.03999 178.96001 189.67999 200.89999 212.06 220.42 225.58 236.3 241.46001 251.58 262.79999 274.72 285.64001 297.56 307.5 318.22 331.5 343.42001 348.57999 360.5 365.66 373.776 384.936 394.87601 406.03601 416.87601 427.59601 432.75601 444.09601 457.276 467.996 477.936 489.556 500.716"
         y="182"
         id="tspan68">ведет открытый диалог с клиентами и готова быстро </tspan><tspan
         x="0 11.62 22.540001 33.259998 41.619999 53.540001 65.160004 76.32 87.160004 97.879997 107.82 117.34 122.5 134.42 145.14 150.3 163.58 174.5 186.42 196.8 212.06 227.96001 239.88 250.8 261.51999 271.89999 277.06 287.29599 298.01599 309.23599 320.396 331.23599 343.15601 353.53601 358.69601 370.31601 383.496 395.41599 405.53601 416.25601 420.996 426.15601 437.31601 447.25601 458.09601 469.01599 479.556 490.276 500.216 509.73599"
         y="208"
         id="tspan70">реагировать на меняющиеся условия рынка, отвечать </tspan><tspan
         x="0 11.92 22.639999 27.799999 38.52 48.639999 58.580002 69.160004 79.879997 91.099998 100.62 112.54 125.72 136.64 141.8 151.64 162.36 173.88 185.5 196.66 207.38 220.56 225.32001 230.48 241.74001 253.25999 264.42001 275.26001 286.48001 297.39999 307.34 318.17999 329.34 340.95999 351.88 363.79999 375.72 386.88 397.60001 407.54001 417.06 422.22 432.06 442.78 452.89999 463.62 473.45999 484 495.92001 505.534 516.69397 527.534"
         y="234"
         id="tspan72">на актуальные запросы. Удовлетворенность заказчиков </tspan><tspan
         x="0 11.54 16.700001 28.620001 40.540001 52.060001 63.98 74.099998 84.82 94.760002 105.92 117.54 122.7 133.42 147 160.58 171.5 181.62 191.56 203.48 214.32001 226.24001 237.39999 248.12 258.06 269.98001 275.14001 287.06 297.78 313.16 324.07999 336 341.16 352.78 363.5 374.84 386 395.94 409.12 413.88 419.04001 432.28 443.79999 454.72 466.34 477.06 487 498.16 509.78"
         y="260"
         id="tspan74">– индикатор эффективности нашей работы. Оператор </tspan><tspan
         x="0 11.62 22.540001 30.9 40.900002 52.119999 62.5 74.120003 86.040001 97.199997 102.36 113.88 125.5 136.66 147.5 158.66 170.17999 182.10001 192.03999 197.2 208.36 219.88 231.5 242.66 253.38 266.56 271.72 283.23999 294.39999 304.34 315.95999 326.88 338.22 350.14001 360.07999 370.91599 382.13599 393.056 404.97601 410.13599 420.37601 431.09601 442.31601 452.896 459.49399 464.23401"
         y="286"
         id="tspan76">регулярно проводит опросы потребителей услуг, </tspan><tspan
         x="0 9.6199999 20.780001 32.700001 46.279999 57.200001 68.82 79.739998 91.660004 103.68 115.6 127.52 132.67999 144.60001 149.75999 161.28 172.118 183.338 194.498 205.338 218.51801 229.438 234.59801 245.438 256.15799 266.09799 277.71799 288.638 299.17801 311.09799 315.83801 320.99799 331.83801 342.758 354.27802 365.198 375.138 380.298 391.81799 403.43799 414.358 424.298 435.21799 447.138 456.978 468.89801 480.05801 491.978 503.89801 514.47803 529.73798"
         y="312"
         id="tspan78">конференции и деловые встречи, ведет претензионную </tspan><tspan
         x="0 11.62 22.34 33.68 44.84 54.779999 64.160004 68.900002 74.059998 87.339996 98.260002 110.18 121.1 132.62 147.60001 158.52 170.14 183.32001 188.48 202.48 212.58 224.86 230.02 241.94 252.66 263.01999 274.17999 285.70001 296.07999 306.01999 316.73999 327.12 332.28 343.12 348.28 359.79999 370.95999 381.67999 391.62 402.78 413.16 425.07999 437 448.16 461.44"
         y="338"
         id="tspan80">работу, менеджеры ПГК находятся в постоянном </tspan><tspan
         x="0 9.6199999 20.780001 32.700001 42.639999 53.360001 63.48 73.419998 84.339996 89.5 100.22 105.38 115.5 126.72 138.64 149.56 161.48 171.42 182.14 195.42 207.34"
         y="364"
         id="tspan82">контакте с клиентами.</tspan></text><text
       transform="matrix(1,0,0,-1,693,953.8201)"
       style="font-variant:normal;font-weight:500;font-stretch:normal;font-size:28px;font-family:'Rubik Medium';-inkscape-font-specification:Rubik-Medium;writing-mode:lr-tb;fill:#000000;fill-opacity:1;fill-rule:nonzero;stroke:none"
       id="text88"><tspan
         x="0 19.18 35.784 50.652 67.255997 83.272003 100.884 118.356 135.828 151.87199"
         y="0"
         id="tspan86">Сотрудники</tspan></text><text
       transform="matrix(1,0,0,-1,693,914.8201)"
       style="font-variant:normal;font-weight:300;font-stretch:normal;font-size:20px;font-family:'Rubik Light';-inkscape-font-specification:Rubik-Light;writing-mode:lr-tb;fill:#000000;fill-opacity:1;fill-rule:nonzero;stroke:none"
       id="text130"><tspan
         x="0 11.68 22.84 36.119999 46.84 58.759998 70.279999 81 86.160004 96.540001 107.38 118.6 128.98 139.89999 149.84 160.56 170.94 176.10001 186.48 198 209.62 220.78 234.06 239.22 250.89799 262.05801 275.33801 286.858 297.578 309.49799 321.418 333.33801 338.078 343.23801 354.39801 365.73801 376.65799 387.37799 398.89801 409.81799 420.358 432.27802 443.11801 453.83801 469.09799 484.99799 496.918 510.198"
         y="0"
         id="tspan90">Команда является ядром Компании, обеспечивающим </tspan><tspan
         x="0 10.92 21.84 27 37.240002 47.959999 57.900002 69.059998 80.980003 91.519997 103.44 114.28 127.46 139.38 144.53999 156.16 167.32001 178.03999 187.98 193.14 205.06 210.22 220.94 230.88 241.60001 252.94 264.85999 276.07999 285.60001 297.51999 308.10001 323.35999 328.51999 340.04001 350.95999 361.34 371.28 382.116 393.336 402.85599 414.776 425.936 436.65601 446.59601 456.116 460.87601"
         y="26"
         id="tspan92">ее устойчивый рост и стабильную деятельность. </tspan><tspan
         x="0 13.06 24.58 35.16 48.439999 58.98 70.900002 81.739998 92.459999 102.84 108 119.62 130.34 141.67999 152.84 162.78 173.5 178.66 189.38 194.53999 204.66 215.38 226.89999 238.52 249.24001 262.51999 274.44 279.60001 290.32001 301.48001 312.20001 322.14001 332.85999 343.70001 354.92001 365.29999 376.22 386.16 391.32001 402.48001 413.20001 425.12 436.28 447.12 457.70001"
         y="52"
         id="tspan94">Вдумчивая работа с кадрами составляет основу </tspan><tspan
         x="0 10.72 21.879999 33.900002 45.82 56.540001 67.760002 77.279999 89.199997 100.36 105.52 116.68 126.62 137.46001 148.38 158.32001 169.03999 178.98 189.82001 200.74001 212.66 224.58 235.74001 243.858 255.01801 260.17801 270.758 282.27802 293.89801 304.61801 315.45801 326.67801 337.59799 349.51801 361.43799 371.81799 376.978 388.31799 400.23801 410.078 421.99799 432.918 443.638 454.798 468.078 472.83801 477.99799 491.99799 502.09799 514.37799"
         y="78"
         id="tspan96">социально ответственного управления бизнесом. ПГК </tspan><tspan
         x="0 11.52 23.139999 34.060001 45.580002 56.799999 67.519997 75.879997 86.599998 97.519997 107.46 112.62 123.34 134.17999 145.34 157.25999 170.53999 175.7 186.42 197.58 207.52 218.758 229.338 240.858 252.778 264.698 274.81799 285.53799 298.81799 303.978 315.49799 326.65799 337.37799 347.31799 358.478 370.39801 382.31799 395.49799 406.418 411.578 421.814 432.534 443.754 454.914 465.754 477.67401 488.05399"
         y="104"
         id="tspan98">предлагает своим сотрудникам достойные условия </tspan><tspan
         x="0 9.9399996 21.18 31.76 43.279999 54 58.740002 63.900002 75.519997 86.440002 97.160004 108.38 120.3 130.14 140.37801 151.298 161.23801 166.39799 177.918 189.53799 200.698 209.058 220.67799 231.39799 244.67799 257.95801 271.138 276.298 287.81799 298.978 304.138 315.65799 326.81799 337.978 353.87799 365.49799 376.418 388.33801 400.258 415.51801"
         y="130"
         id="tspan100">труда, реализует программы по поощрению </tspan><tspan
         x="0 11.92 17.08 28.700001 39.419998 50.139999 65.519997 77.440002 89.059998 99.980003 111.9 123.82 139.08 144.24001 153.858 165.01801 178.298 189.81799 200.73801 210.67799 221.59801 233.51801 245.53799 257.45801 269.37799 274.11801 279.27802 291.198 301.918 313.53799 324.258 340.15799 352.078 362.918 373.638 384.55801 394.49799 399.65799 410.37799 421.53799 433.55801 445.478 456.198 467.418 476.93799 488.858 499.43799 514.698"
         y="156"
         id="tspan102">и расширению компетенций, наращивает социальную </tspan><tspan
         x="0 11.52 22.68 34.200001 45.720001 56.639999 68.260002 83.239998 93.360001 102.738 107.498 112.658 128.258 141.438 146.59801 156.438 167.158 179.078 190.998 200.938 211.858 223.478 234.39799 245.118 256.27802 267.11801 277.83801 289.758 302.93799 308.09799 318.93799 324.09799 334.336 345.056 356.97601 368.19601 379.116 391.03601 402.95599 414.87601"
         y="182"
         id="tspan104">поддержку. Мы заинтересованы в усилении </tspan><tspan
         x="0 9.6199999 20.780001 34.060001 44.779999 56.700001 68.220001 81.400002 86.139999 91.300003 102.82 113.98 124.82 138 153.38 164.3 176.22 188.14 200.06 205.22 216.06 227.22 238.06 249.28 260.20001 270.73999 281.66 293.57999 305.5 316.66 327.38 337.32001 349.23999 354.39999 365.32001 376.23999 381.39999 391.98001 402.51999 413.23999 423.95999 433.89999 445.82001 457.73999 467.354 478.51401 489.354"
         y="208"
         id="tspan106">команды, повышении вовлеченности ее участников </tspan><tspan
         x="0 11.92 22.639999 27.799999 38.639999 49.360001 60.279999 70.639999 75.800003 86.519997 96.459999 107.18 118.7 129.42 139.78 144.94 156.56 167.28 178.62 189.78 200.32001 211.24001 219.358 230.51801 235.67799 247.198 258.81799 269.978 281.99799 292.918 303.638 314.358 325.078 329.83801 334.99799 348.51801 359.73801 370.11801 375.27802 385.99799 395.93799 407.09799 415.216 426.37601"
         y="234"
         id="tspan108">на всех этапах рабочего процесса. Для этого </tspan><tspan
         x="0 11.16 22.68 33.599998 45.220001 55.939999 65.879997 77.040001 88.660004 93.82 105.44 116.16 126.88 142.25999 154.17999 165.8 176.17999 187.10001 197.03999 202.2 213.03999 224.2 234.03999 247.32001 258.48001 273.45999 285.38 296.54001 307.26001 317.20001 329.12 334.28 345.44 356.78 367.35999 377.89999 388.82001 400.73999 412.66 423.04001 428.20001 439.04001 450.95999 461.54001 471.48001 483.10001 495.01999"
         y="260"
         id="tspan110">оператор расширяет возможности обучения внутри </tspan><tspan
         x="0 11.68 22.84 36.119999 47.639999 58.360001 70.279999 82.199997 94.120003 98.860001 104.02 114.86 126.78 137.7 149.22 160.84 171.22 182.14 192.08 197.24001 208.75999 220.38 231.53999 242.46001 252.58 262.51999 275.70001 280.44 285.60001 296.32001 307.84 319 329.72 340.88 352.22 362.94 372.88 383.72 394.29999 409.56 425.45999 437.38 448.29999"
         y="286"
         id="tspan112">Компании, внедряет проекты, способствующие </tspan><tspan
         x="0 11.52 23.139999 34.299999 47.880001 58.799999 69.519997 80.239998 92.160004 103.32 115.24 125.96 137.17999 146.7 158.62 169.78 183.06 193.64 198.8 210.42 221.58 232.3 242.24001 251.618 256.358 261.51801 272.23801 277.39801 287.33801 298.05801 308.17801 323.15799 334.078 339.23801 350.758 362.37799 374.298 385.138 396.358 407.27802 417.39801 428.11801 439.03799 448.978 454.138 464.858 476.77802 487.99799 497.51801 509.43799 522.61798 533.53802"
         y="312"
         id="tspan114">профессиональному росту, а также привлекает сильные </tspan><tspan
         x="0 10.12 20.84 32.360001 43.98 57.16 61.900002 67.059998 78.68 89.400002 99.239998 110.76 121.598 132.81799 143.198 158.45799 174.358 186.278 197.198 202.358 214.37801 225.298 237.218 249.138 260.298 271.01801 280.95801 292.87799 298.03799 312.03799 322.138 334.418"
         y="338"
         id="tspan116">кадры, разделяющие ценности ПГК.</tspan><tspan
         x="0 14.52 26.440001 40.02 51.18 62.799999 76.080002 88 99.620003 110.78 121.62 132.34 144.25999 156.17999 167.10001 172.25999 182.98 194.14 204.08 215.31799 225.89799 237.418 249.338 261.258 270.87799 282.03799 292.87799 298.03799 309.198 314.358 325.87799 336.798 347.17801 357.11801 367.95599 379.17599 388.69601 400.616 411.776 422.496 432.436 444.35599"
         y="390"
         id="tspan118">Информирование сотрудников о деятельности </tspan><tspan
         x="0 11.16 22.5 38.400002 49.32 60.040001 69.980003 80.82 91.540001 96.699997 107.24 118.16 129.78 140.7 150.53999 155.7 165.31799 176.478 188.09801 199.618 210.778 222.39799 233.118 243.058 254.978 265.81799 277.73801 290.918 302.83801 307.99799 318.71799 329.43799 341.358 351.298 356.45801 368.37799 373.53799 384.258 395.418 407.43799 419.358 430.078 441.298 450.81799 462.73801 475.918 486.83801"
         y="416"
         id="tspan120">общества через корпоративный сайт и социальные </tspan><tspan
         x="0 10.72 21.639999 31.58 43.5 48.240002 53.400002 64.120003 69.279999 79.220001 89.940002 100.06 115.04 125.96 131.12 142.74001 153.66 162.02 172.01801 183.23801 193.618 205.23801 217.158 230.338 241.258 246.418 257.258 267.978 277.918 289.53799 300.45801 310.99799 322.918 328.078 338.798 343.95801 355.19601 365.776 375.396 386.556 397.396 408.556 420.07599 430.79599 440.73599 451.57599 462.73599 476.01599 481.17599 495.17599 505.276 517.55603"
         y="442"
         id="tspan122">сети, а также регулярные встречи с руководством ПГК </tspan><tspan
         x="0 11.92 22.639999 27.799999 38.959999 50.880001 62.099998 72.82 84.739998 96.660004 106.4 111.56 123.48 128.64 139.8 153.198 164.418 175.138 187.058 198.978 208.718 220.23801 231.45799 242.618 258.51801 269.23801 280.758 290.87799 301.59799 311.95801 317.11801 328.638 339.798 349.638 360.478 371.436 382.65601 393.03601 408.29599 418.23599 423.396 434.91599 445.87601 457.09601 467.67599 478.216 488.936 498.87601 508.396"
         y="468"
         id="tspan124">на онлайн- и офлайн-площадках позволяют получать </tspan><tspan
         x="0 11.16 22.5 34.119999 44.84 54.779999 66.699997 77.279999 92.540001 97.699997 108.42 119.26 129.64 139.48 149 154.16 165 170.16 181.78 192.7 203.42 214.64 224.16 236.08 247.24001 260.51999 265.67999 276.51999 288.14001 299.06 312.34 323.26001 335.17999 347.10001 352.26001 364.17999 369.34 378.95599 390.116 401.73599 413.35599 424.276 434.396 444.336 456.25601 467.87601 479.03601 489.87601 500.59601 510.53601 520.05603"
         y="494"
         id="tspan126">обратную связь в реальном времени и корректировать </tspan><tspan
         x="0 10.84 22.76 33.34 43.279999 54.900002 65.82 77.739998 89.660004 104.92 120.18 125.34 136.86 147.81799 159.03799 170.95799 180.89799 192.81799 202.938 213.51801 218.67799 229.39799 234.558 245.138 255.67799 266.59799 276.53799 287.698 300.978 306.138 317.65799 328.81799 338.758 350.37799 361.298 372.638 384.55801 395.71799 406.43799 416.37799 427.298 439.21799 444.37799 453.99399 465.15399 478.43399 489.15399 501.07401 512.59399 525.77399 530.534"
         y="520"
         id="tspan128">внутреннюю политику с учетом потребностей команды. </tspan></text><text
       transform="matrix(1,0,0,-1,693,334.8201)"
       style="font-variant:normal;font-weight:500;font-stretch:normal;font-size:28px;font-family:'Rubik Medium';-inkscape-font-specification:Rubik-Medium;writing-mode:lr-tb;fill:#000000;fill-opacity:1;fill-rule:nonzero;stroke:none"
       id="text134"><tspan
         x="0 19.459999 36.652 49.139999 65.155998 82.627998 104.132 110.516 122.752 139.356 155.37199 171.388 189 205.01601 222.20799 238.224 253.092 269.47198 285.65601 303.12799 320.60001 337.20401 354.67599 361.06 377.44 394.35199 410.36801 426.384 441.25201"
         y="0"
         id="tspan132">Органы государственной власти</tspan></text><text
       transform="matrix(1,0,0,-1,693,295.8201)"
       style="font-variant:normal;font-weight:300;font-stretch:normal;font-size:20px;font-family:'Rubik Light';-inkscape-font-specification:Rubik-Light;writing-mode:lr-tb;fill:#000000;fill-opacity:1;fill-rule:nonzero;stroke:none"
       id="text160"><tspan
         x="0 13.52 24.440001 34.82 44.759998 55.599998 66.82 76.339996 88.260002 99.419998 110.14 120.08 129.60001 134.75999 148.75999 158.86 171.14 175.88 181.03999 191.16 201.88 212 217.16 228.38 243.64 254.98 266.14001 278.06 283.22 293.34 304.57599 315.15601 326.67599 338.59601 349.75601 361.67599 366.836 377.996 389.616 397.97601 408.69601 420.616 432.53601 442.37601 453.09601 465.116 477.03601 488.95599 493.69601"
         y="0"
         id="tspan136">Деятельность ПГК, как любой крупной организации, </tspan><tspan
         x="0 11.92 22.84 34.459999 45.18 55.02 66.639999 79.82 90.660004 102.58 113.74 118.9 129.62 140.46001 150.84 160.67999 171.39999 183.32001 194.03999 199.2 209.92 215.08 227 237.72 249.24001 260.198 271.418 283.33801 294.258 306.17801 318.09799 329.01801 342.298 347.45801 357.39801 369.01801 379.93799 391.27802 402.43799 413.27802 423.99799 435.918 447.83801 459.758"
         y="26"
         id="tspan138">неразрывно связана с исполнением требований </tspan><tspan
         x="0 8.1199999 19.280001 30 40.580002 52.099998 62.82 74.440002 85.160004 95.099998 105.94 116.86 128.78 140.7 151.86 159.978 171.138 176.298 187.918 198.838 207.198 217.198 228.418 240.338 251.95799 263.11801 273.95801 284.67801 296.59799 308.51801 318.89801 323.65799 328.81799 339.29599 350.81601 362.436 373.15601 383.996 395.216 406.13599 418.056 429.97601 440.896"
         y="52"
         id="tspan140">государственного регулирования. Управление </tspan><tspan
         x="0 11.52 22.68 27.84 38.68 48.52 59.240002 71.160004 84.440002 95.599998 107.12 118.04 129.96001 140.67999 150.62 161.46001 173.38 188.64 193.8 204.52 209.67999 220.84 232.46001 240.82001 251.53999 263.45999 274.17999 287.45999 299.38 304.54001 312.65601 323.81601 334.53601 345.116 356.63599 367.35599 378.97601 389.69601 399.63599 410.47601 421.396 433.31601 445.23599 456.396 468.31601"
         y="78"
         id="tspan142">по взаимодействию с органами государственной </tspan><tspan
         x="0 10.84 22.059999 32.779999 43.5 53.439999 65.360001 70.519997 82.139999 93.059998 101.42 111.418 122.638 133.01801 144.638 156.558 167.718 172.87801 183.59801 194.758 204.698 215.938 226.51801 238.03799 249.95799 261.87799 272.418 283.138 294.05801 303.99799 309.15799 319.87799 325.03799 336.55801 348.17801 359.09799 370.61801 381.33801 391.27802 401.99799 412.83801 424.758 434.698 445.534 456.754 467.134 480.414 492.33401"
         y="104"
         id="tspan144">власти регулярно сотрудничает с представителями </tspan><tspan
         x="0 8.1199999 19.280001 30 40.720001 50.66 61.900002 72.480003 82.599998 92.540001 103.12 114.74 119.9 131.52 142.24001 152.08 164 177.17999 187.53999 192.7 203.28 214.89999 226.06 236.89999 248.82001 259.73999 271.66 276.82001 288.34 299.56 309.94 315.10001 326.72 337.64001 353.01999 363.94 375.85999 387.78 398.16"
         y="130"
         id="tspan146">госструктур разных уровней для решения </tspan><tspan
         x="0 10.84 22 33.52 45.139999 56.299999 67.019997 78.18 89.019997 93.760002 98.919998 110.08 121.42 132.34 143.06 154.58 165.5 176.03999 187.96001 198.8 209.52 224.78 240.67999 252.60001 262.95999 268.12 278.84 288.78 299.5 310.84 322.76001 333.98001 343.5 355.42001 366.57999 377.29999 387.23999 396.76001 401.92001 412.76001 423.67999 435.20001 446.12 458.04001 469.95999 480.34"
         y="156"
         id="tspan148">вопросов, обеспечивающих стабильность ведения </tspan><tspan
         x="0 11.34 23.26 33.099998 45.02 55.939999 66.660004 77.379997 82.540001 94.459999 99.620003 110.54 118.658 129.81799 134.978 145.698 159.278 172.858 183.778 193.89799 203.838 215.758 226.59801 238.51801 249.67799 260.59799 265.758 277.37799 288.09799 297.93799 308.77802 320.698 330.638 342.55801 353.478 358.23801 363.39801 375.07599 386.23599 399.51599 411.03601 421.75601 433.67599 445.59601 455.97601"
         y="182"
         id="tspan150">бизнеса и его эффективное развитие. Компания </tspan><tspan
         x="594 605.91998 616.46002 627.03998 636.65997 647.82001 658.53998 670.46002 682.38 692.32001 703.15997 714.38 723.90002 735.82001 746.97998 752.14001 764.06 774.78003 786.29999 797.258 808.47803 820.39801 830.77802 841.698 851.638 856.79797 866.73798 878.35797 889.27802 900.61798 911.77802 922.61798 933.33801 945.258 957.17798 967.55798 972.71802 984.23798 995.15802 1007.078 1017.798 1027.738 1038.578 1049.158 1064.418 1080.318 1091.238 1099.354 1110.514"
         y="-665.47998"
         id="tspan152">неукоснительно исполняет требования действующего </tspan><tspan
         x="594 603.84003 614.56 624.17999 635.34003 647.26001 658.41998 669.94 680.65997 690.59998 701.43799 712.65802 722.17798 732.89801 742.83801 753.67798 764.39801 769.55798 781.47803 786.638 797.17798 808.09802 818.03802 827.65802 838.81799 843.97803 854.698 865.91803 876.83801 888.35797 898.59601 909.51599 919.45599 924.61603 936.23602 947.15601 956.776 967.93597 981.216 992.13599 1004.056 1015.576 1026.296 1038.316 1050.236 1060.616 1073.896"
         y="-639.47998"
         id="tspan154">законодательства и четко следует рекомендациям </tspan><tspan
         x="594 605.62 616.53998 624.90002 634.90002 646.12 656.5 666.44 677.59998 689.21997 700.38 711.21997 715.96002 721.12 731.84003 742.67999 753.84003 764.76001 775.59998 787.21997 798.14001 811.41998 822.34003 834.26001 846.17999 857.34003 862.5 874.02002 885.64001 896.56 908.08002 919.23999 929.96002 939.90002 950.62 961.46002 972.67999 983.06 993.97998 1003.92 1009.08 1019.92 1030.84 1042.36 1053.52 1066.8 1077.52 1087.46 1098.3 1109.02 1122.3"
         y="-613.47998"
         id="tspan156">регуляторов, своевременно предоставляет ведомствам </tspan><tspan
         x="594 603.94 615.56 626.47998 637.82001 648.40002 663.65997 679.43799 690.01801 705.27802 715.99799 726.37799 731.53802 743.45801 755.37799 768.95801 780.11798 791.73798 805.01801 815.73798 827.758 839.67798 854.93799 860.09802 871.258 876.41803 887.138 897.97803 909.138 920.05798 931.97803 937.138 948.758 959.47803 970.81799 981.97803 991.91803 1002.838"
         y="-587.47998"
         id="tspan158">требующуюся информацию о своей работе.</tspan></text><text
       transform="matrix(1,0,0,-1,1287,823.3)"
       style="font-variant:normal;font-weight:500;font-stretch:normal;font-size:28px;font-family:'Rubik Medium';-inkscape-font-specification:Rubik-Medium;writing-mode:lr-tb;fill:#000000;fill-opacity:1;fill-rule:nonzero;stroke:none"
       id="text164"><tspan
         x="0 20.440001 37.043999 53.060001 67.928001 83.944 100.324 123.704 141.17599 157.22 174.692 181.076 198.548 204.93201 222.06799 238.672 256.284 273.47601 289.604 307.216 323.42801 340.89999 356.944"
         y="0"
         id="tspan162">Поставщики и подрядчики</tspan></text><text
       transform="matrix(1,0,0,-1,1287,784.3)"
       style="font-variant:normal;font-weight:300;font-stretch:normal;font-size:20px;font-family:'Rubik Light';-inkscape-font-specification:Rubik-Light;writing-mode:lr-tb;fill:#000000;fill-opacity:1;fill-rule:nonzero;stroke:none"
       id="text188"><tspan
         x="0 9.9799995 20.700001 30.639999 41.799999 53.720001 64.260002 76.18 87.019997 98.18 108.9 118.84 128.36 133.52 144.86 156.78 166.62 178.53999 189.46001 200.17999 209.92 221.44 233.06 244.22 256.23999 267.16 277.88 288.60001 299.76001 310.60001 315.76001 327.436 338.59601 351.87601 363.396 374.116 386.03601 397.95599 409.87601"
         y="0"
         id="tspan166">Устойчивость бизнес-процессов Компании </tspan><tspan
         x="0 11.92 22.84 34.360001 45.52 56.240002 67.860001 78.779999 90.300003 101.02 110.96 121.8 132.72 144.64 156.56 167.72 172.88 182.72 193.44 204.28 216.2 226.92 238.84 248.78 253.94 265.10001 275.04001 280.20001 290.32001 301.04001 311.57999 322.5 333.22 343.16 354 364.72 369.88 381.79999"
         y="26"
         id="tspan168">непосредственно зависит от качества и </tspan><tspan
         x="0 10.72 21.559999 32.720001 43.639999 54.48 66.099998 77.019997 90.300003 101.22 113.14 125.06 136.22 144.338 155.498 160.658 172.17799 183.798 194.718 206.23801 217.39799 228.118 238.058 248.778 259.61801 270.83801 281.758 293.67801 305.59799 315.978 321.138 332.65799 343.81799 354.53799 364.478 375.198 386.03799 401.93799 413.858 423.978 434.698 447.978 459.89801"
         y="52"
         id="tspan170">своевременного предоставления поставщиками </tspan><tspan
         x="0 11.92 17.08 28.6 39.759998 51.279999 62.900002 73.279999 84.800003 96.720001 109.9 123.18 135.10001 140.25999 151.42 163.03999 171.39999 182.12 194.03999 205.96001 215.8 226.52 238.53999 250.46001 260.84 274.12 286.04001 291.20001 301.436 312.15601 323.37601 333.95599 342.31601 347.47601 359.396 364.556 374.496 385.65601 396.496 407.216 418.836 429.996 440.836 445.59601"
         y="78"
         id="tspan172">и подрядными организациями услуг и товаров. </tspan><tspan
         x="0 13.24 24.58 40.48 51.400002 62.119999 72.059998 82.900002 94.059998 99.220001 109.8 121.32 132.158 143.37801 153.758 164.67799 174.618 179.778 191.298 202.918 214.838 225.558 235.498 246.218 257.43799 266.95801 278.87799 290.03799 300.95801 306.11801 316.95801 328.87799 340.798 354.078 364.798 376.71799 388.638 399.55801 404.71799 416.23801 427.858 439.01801 449.858 460.77802 472.298 483.21799 495.138 507.05801 522.31799"
         y="104"
         id="tspan174">Общество уделяет пристальное внимание проведению </tspan><tspan
         x="0 11.52 23.139999 34.299999 44.139999 55.759998 66.480003 77.019997 88.940002 102.12 112.48 117.64 127.258 138.418 150.338 160.45799 171.03799 182.658 193.37801 205.298 218.478 228.838 233.998 245.51801 257.138 268.298 280.31799 291.23801 302.758 313.33801 324.95801 330.11801 342.03799 347.198 357.918 369.078 378.918 390.43799 401.15799 412.078 422.01801 427.17801 437.414 448.134 459.354 470.51401 481.354 493.27399 503.65399"
         y="130"
         id="tspan176">прозрачных конкурсных процедур и создает условия </tspan><tspan
         x="0 11.52 22.74 33.119999 38.279999 49.900002 60.619999 71.459999 83.379997 94.540001 102.66 113.82 118.98 130.5 141.66 152.38 162.32001 172.89999 184.42 195.14 200.3 210.42 215.58 226.16 236.7 247.42 258.14001 268.07999 280 295.26001 300.42001 311.26001 316.42001 326.26001 336.98001 347.10001 357.67999 369.20001 379.32001 390.04001 400.39999 405.56 415.17599 426.336 439.616 451.13599 461.85599 473.776 485.69601 496.07599 509.35599 514.09601"
         y="156"
         id="tspan178">для равного доступа к участию в закупках компаниям, </tspan><tspan
         x="0 11.16 21.1 31.940001 42.860001 53.400002 64.120003 79.379997 95.279999 107.2 120.48 125.64 135.87801 146.59801 156.53799 167.258 179.17799 190.338 201.17799 212.39799 223.31799 235.23801 247.158 260.33801 273.61801 278.77802 288.71799 300.33801 311.258 322.59799 333.758 344.59799 355.31799 367.23801 379.15799 389.53799 402.81799 407.578 412.73801 427.258 439.17801 452.758 463.918 475.53799 488.81799 499.53799 511.55801 523.47803 533.85797"
         y="182"
         id="tspan180">отвечающим установленным требованиям. Информация </tspan><tspan
         x="0 11.16 16.32 27.84 39.459999 50.619999 61.459999 72.620003 84.139999 96.059998 109.34 122.52 132.88 138.03999 147.658 158.81799 170.73801 180.858 191.438 203.058 213.778 224.498 234.858 240.01801 251.938 262.65799 273.01801 284.17801 295.698 307.61801 317.55801 328.27802 338.65799 343.81799 354.65799 359.81799 370.978 380.918 391.03799 402.65799 415.83801 425.77802 436.93799 450.21799 455.37799 466.89801 478.05801 488.77802 498.71799 509.298 520.81799 531.73798"
         y="208"
         id="tspan182">о проводимых конкурсах находится в открытом доступе </tspan><tspan
         x="0 11.92 22.639999 27.799999 38.52 49.240002 61.16 71.099998 82.019997 87.18 101.18 111.28 123.56 128.3 133.46001 144.17999 154.89999 168.17999 180.10001 185.25999 196.78 208.39999 219.56 231.58 242.5 254.02 264.60001 276.22 289.39999 294.56 306.07999 317.70001 328.85999 339.22 350.38 361.89999 372.28 382.22"
         y="234"
         id="tspan184">на сайте ПГК, сами процедуры проходят </tspan><tspan
         x="0 11.92 22.639999 27.799999 38.32 49.540001 60.459999 70.580002 80.519997 92.139999 103.3 115.22 127.14 138.3 150.22 155.38 166.89999 178.12 189.28 205.17999 215.89999 227.42 237.03799 247.95799 253.118 263.95801 269.11801 279.83801 291.758 302.478 312.418 323.33801 336.61801 347.53799 352.698 364.59601 377.59601 389.69601 394.85599 406.95599 419.75601 435.17599"
         y="260"
         id="tspan186">на электронной площадке в системе SAP SRM.</tspan></text><text
       transform="matrix(1,0,0,-1,1287,464.3)"
       style="font-variant:normal;font-weight:500;font-stretch:normal;font-size:28px;font-family:'Rubik Medium';-inkscape-font-specification:Rubik-Medium;writing-mode:lr-tb;fill:#000000;fill-opacity:1;fill-rule:nonzero;stroke:none"
       id="text192"><tspan
         x="0 22.736 38.919998 54.936001 69.804001 87.276001 108.78 124.964 131.34801 147.364 163.968 180.57201 197.31599 220.63721 236.8212 252.8372 267.7052 284.08521"
         y="0"
         id="tspan190">Местные сообщества</tspan></text><text
       transform="matrix(1,0,0,-1,1287,425.3)"
       style="font-variant:normal;font-weight:300;font-stretch:normal;font-size:20px;font-family:'Rubik Light';-inkscape-font-specification:Rubik-Light;writing-mode:lr-tb;fill:#000000;fill-opacity:1;fill-rule:nonzero;stroke:none"
       id="text218"><tspan
         x="0 14 25.16 36.68 48.299999 59.02 68.860001 80.379997 91.218002 102.438 113.358 125.278 137.198 147.578 152.73801 166.73801 176.838 189.118 194.278 205.89799 216.618 227.338 238.858 249.81799 261.03799 272.198 287.17801 298.09799 310.01801 323.198 328.358 339.198 344.358 355.978 366.698 376.53799 388.45801 401.638 411.99799 417.15799 428.77802 439.698 448.05801 459.978 471.138 483.05801 493.77802 504.138"
         y="0"
         id="tspan194">Подразделения ПГК расположены в разных регионах </tspan><tspan
         x="0 12.56 23.719999 34.439999 45.16 57.080002 69 73.739998 78.900002 89.620003 94.779999 104.72 115.44 125.56 140.53999 151.46001 156.62 166.46001 177.17999 182.34 193.578 204.158 215.498 226.418 241.39799 252.558 265.83801 270.59799 275.758 288.81799 298.65799 309.37799 321.298 334.578 345.73801 357.258 368.17801 380.09799 390.81799 400.758 411.59799 423.51801 434.43799"
         y="26"
         id="tspan196">России, а также за рубежом. Взаимодействие </tspan><tspan
         x="0 10.72 15.88 29.16 40.080002 50.799999 60.740002 72.660004 85.839996 99.120003 111.04 116.2 126.92 138.08 149.24001 160.58 176.48 187.39999 198.12 208.06 218.89999 229.62 242.89999 254.82001 259.98001 270.35999 281.20001 292.42001 302.79999 313.72 323.66 334.38 344.76001 349.92001 359.76001 371.67999 382.39999 392.94 404.85999 418.14001 431.32001 444.60001"
         y="52"
         id="tspan198">с местными сообществами является значимым </tspan><tspan
         x="0 11.52 22.68 32.799999 43.52 53.360001 64.080002 74.019997 84.860001 96.080002 107 120.28 125.44 136.16 147.32001 159.34 171.25999 181.98 193.2 202.72 214.64 225.8 237.72 242.88 254.39999 265.35599 276.57599 288.496 298.436 310.35599 320.47601 332.396 337.556 348.716 360.056 375.95599 386.87601 397.59601 407.53601 418.37601 429.09601 433.85599"
         y="78"
         id="tspan200">показателем социальной политики общества. </tspan><tspan
         x="0 11.68 22.84 36.119999 47.639999 58.360001 70.279999 82.199997 92.580002 97.739998 109.26 120.88 131.8 143.32001 154.48 165.2 175.14 185.86 196.7 207.92 218.3 229.22 239.16 244.32001 255.94 266.66 278 289.16 299.70001 311.62 322.54001 327.70001 340.98001 351.89999 362.62 372.56 383.28 388.01999 393.17999 403.89999 415.06 426.39999 437.62 452.88 464.39999 475.12 486.04001 495.98001"
         y="104"
         id="tspan202">Компания предоставляет рабочие места, соблюдает </tspan><tspan
         x="0 11.92 22.639999 33.860001 45.02 53.139999 64.300003 75.139999 88.32 99.239998 104.4 114.34 125.96 136.88 148.22 159.38 170.22 180.94 192.86 204.78 215.16 219.89999 225.06 236.22 247.56 258.48001 269.20001 280.72 291.64001 302.17999 314.10001 324.94 335.66 346.57999 356.51999 361.67999 373.20001 384.82001 395.98001 409.26001 422.44 437.82001 449.04001 459.95999 471.88 483.79999 494.38 509.64001"
         y="130"
         id="tspan204">налоговые требования, обеспечивает промышленную </tspan><tspan
         x="0 11.92 17.08 27.799999 37.419998 48.380001 59.599998 70.760002 79.120003 91.040001 101.58 112.5 123.22 133.34 143.92 159.17999 164.34 175.67999 186.60001 196.44 207.60001 219.12 229.84 240.56 252.48 263.64001 274.35999 284.29999 293.82001 298.98001 309.82001 314.98001 326.60001 337.51999 345.88 357.79999 368.95999 380.88 391.60001 401.95999"
         y="156"
         id="tspan206">и экологическую безопасность в регионах </tspan><tspan
         x="0 11.52 23.139999 35.060001 45.779999 56.360001 66.300003 77.019997 86.959999 97.800003 109.72 120.1 124.84 130 141.16 152.78 161.14 171.86 183.78 195.7 205.53999 215.778 226.698 236.638 241.798 253.138 264.358 275.078 283.19601 294.35599 304.29599 315.13599 326.29599 337.91599 349.836 359.776 370.616 381.836 391.35599 403.276 416.45599 427.37601 432.53601 444.056 455.67599 466.836 477.75601 487.87601 497.81601 510.996 515.75598"
         y="182"
         id="tspan208">присутствия, организует благотворительные проекты. </tspan><tspan
         x="0 13.24 24.76 35.68 47.299999 58.02 67.959999 79.120003 90.739998 95.900002 106.74 119.92 130.64 140.58 152.2 162.92 174.84 185.67999 196.39999 207.32001 217.25999 222.42 233.58 243.52 253.64 265.26001 278.44 288.38 301.56 312.48001 317.64001 327.25601 338.41599 351.69601 364.97601 375.556 387.47601 399.396 409.51599 420.23599 432.25601 444.17599 456.09601"
         y="208"
         id="tspan210">Оператор выстраивает открытые коммуникации </tspan><tspan
         x="0 10.72 15.88 27.040001 38.380001 54.279999 65.199997 75.919998 85.860001 96.699997 107.62 119.54 131.46001 142.62 153.34 163.28 172.8 187.81799 192.558 197.718 209.338 220.258 228.618 238.618 249.838 260.21799 271.83801 283.758 294.918 300.078 311.99799 323.918 337.49799 348.65799 360.27802 373.55801 385.478 396.716 407.29599 417.67599 422.836 433.996"
         y="234"
         id="tspan212">с общественностью, регулярно информируя о </tspan><tspan
         x="0 11.62 22.540001 32.380001 42.380001 53.599998 63.119999 73.059998 83.779999 93.720001 104.44 114.8 119.96 130.67999 141.52 152.67999 163.60001 175.52 180.67999 192.2 203.12 213.5 223.44 234.278 245.498 255.01801 266.93799 278.09799 288.81799 298.758 310.67801"
         y="260"
         id="tspan214">результатах своей деятельности.</tspan><tspan
         x="-1249.4 -1237.04"
         y="-597.70001"
         id="tspan216">89</tspan></text><g
       id="g220"><g
         id="g222"><g
           id="g224"
           clip-path="url(#clipPath228)"><text
             transform="matrix(1,0,0,-1,99,1023)"
             style="font-variant:normal;font-weight:300;font-stretch:normal;font-size:20px;font-family:'Rubik Light';-inkscape-font-specification:Rubik-Light;writing-mode:lr-tb;fill:#000000;fill-opacity:1;fill-rule:nonzero;stroke:none"
             id="text232"><tspan
               x="0 13.24 18.4 28.02 39.18 52.459999 63.98 74.699997 86.620003 98.540001"
               y="0"
               id="tspan230">О компании</tspan></text></g></g></g></g></svg>
