<?xml version="1.0" encoding="UTF-8" standalone="no"?>
<?xml-stylesheet type="text/css" href="main.css" ?>
<svg
   xmlns:dc="http://purl.org/dc/elements/1.1/"
   xmlns:cc="http://creativecommons.org/ns#"
   xmlns:rdf="http://www.w3.org/1999/02/22-rdf-syntax-ns#"
   xmlns:svg="http://www.w3.org/2000/svg"
   xmlns="http://www.w3.org/2000/svg"
   version="1.1"
   id="svg2"
   xml:space="preserve"
   width="2560"
   height="1440"
   viewBox="0 0 2560 1440"><metadata
     id="metadata8"><rdf:RDF><cc:Work
         rdf:about=""><dc:format>image/svg+xml</dc:format><dc:type
           rdf:resource="http://purl.org/dc/dcmitype/StillImage" /></cc:Work></rdf:RDF></metadata><defs
     id="defs6"><clipPath
       clipPathUnits="userSpaceOnUse"
       id="clipPath20"><path
         d="M 0,1080 H 1920 V 0 H 0 Z"
         id="path18" /></clipPath><linearGradient
       x1="0"
       y1="0"
       x2="1"
       y2="0"
       gradientUnits="userSpaceOnUse"
       gradientTransform="matrix(518.34033,518.34033,518.34033,-518.34033,845.09404,-63.970154)"
       spreadMethod="pad"
       id="linearGradient182"><stop
         style="stop-opacity:1;stop-color:#0c50a8"
         offset="0"
         id="stop176" /><stop
         style="stop-opacity:1;stop-color:#0c50a8"
         offset="0.4854273"
         id="stop178" /><stop
         style="stop-opacity:1;stop-color:#fdb73e"
         offset="1"
         id="stop180" /></linearGradient><clipPath
       clipPathUnits="userSpaceOnUse"
       id="clipPath200"><path
         d="M 0,0 H 1920 V 1080 H 0 Z"
         id="path198" /></clipPath></defs><g
     id="g10"
     transform="matrix(1.3333333,0,0,-1.3333333,0,1440)"><g
       id="g12"><g
         id="g14"><g
           id="g16"
           clip-path="url(#clipPath20)"><path
             d="M 0,0 H 1920 V 1080 H 0 Z"
             style="fill:#ffffff;fill-opacity:1;fill-rule:nonzero;stroke:none"
             id="path22" /></g></g></g><path
       d="M 0,0 H 633 V 1080 H 0 Z"
       style="fill:#f0f0f5;fill-opacity:1;fill-rule:nonzero;stroke:none"
       id="path24" /><text
       transform="matrix(1,0,0,-1,99,953.4)"
       style="font-variant:normal;font-weight:normal;font-stretch:normal;font-size:38px;font-family:'Prosto One';-inkscape-font-specification:ProstoOne-Regular;writing-mode:lr-tb;fill:#000000;fill-opacity:1;fill-rule:nonzero;stroke:none"
       id="text32"><tspan
         x="0 31.92 61.939999 94.620003 126.54 159.78999 192.47 224.39 264.10001 277.39999 309.32001 334.39999 364.60999"
         y="0"
         id="tspan26">ПРИНЦИПЫ ПГК </tspan><tspan
         x="0 31.92 61.939999 94.620003 107.92 138.13 170.05 200.07001 231.23 261.63 293.17001 320.14999 352.07001 384.75 417.42999"
         y="45.599998"
         id="tspan28">ПРИ УПРАВЛЕНИИ </tspan><tspan
         x="0 31.92 58.900002 88.919998 118.94 153.14 185.06 216.22 247.75999 281.95999"
         y="91.199997"
         id="tspan30">ПЕРСОНАЛОМ</tspan></text><text
       transform="matrix(1,0,0,-1,693,960.4)"
       style="font-variant:normal;font-weight:500;font-stretch:normal;font-size:28px;font-family:'Rubik Medium';-inkscape-font-specification:Rubik-Medium;writing-mode:lr-tb;fill:#000000;fill-opacity:1;fill-rule:nonzero;stroke:none"
       id="text36"><tspan
         x="0 19.152 33.992001 51.183998 67.143997 83.132004 97.972 113.932 131.12399 147.112 153.40919 170.5172 186.6732 203.8652 219.8532 236.4292 253.8732 269.86121 286.74521"
         y="0"
         id="tspan34">Структура персонала</tspan></text><text
       transform="matrix(1,0,0,-1,99,791.5001)"
       style="font-variant:normal;font-weight:300;font-stretch:normal;font-size:20px;font-family:'Rubik Light';-inkscape-font-specification:Rubik-Light;writing-mode:lr-tb;fill:#000000;fill-opacity:1;fill-rule:nonzero;stroke:none"
       id="text114"><tspan
         x="0 14 24.719999 40.099998 52.02 57.18 67.900002 79.059998 89 100.62 111.2 122.72 134.64 146.56 156.67999 168.60001 173.75999 189.10001 194.25999 204.98 214.92 226.08 231.24001 239.60001 250.82001 261.54001 272.38 284.29999 297.48001 309.39999 314.56 325.28 335.22 346.84 357.56 367.5 378.42001 386.78 398.70001 409.23999 420.16 430.88 441 452.92001 464.84"
         y="0"
         id="tspan38">Наши сотрудники — это главный стратегический </tspan><tspan
         x="0 11.62 22.540001 33.259998 43.84 55.459999 66.18 71.339996 83.620003 94.779999 108.06 119.58 130.3 142.22 154.14 166.06 170.82001 175.98 189.98 201.60001 213.52 224.67999 236.3 248.22 258.16 269.07999 279.01999 290.94 302.10001 314.01999 319.17999 329.01999 339.73999 351.26001 361.98001 372.51999 383.44 395.35999 400.51999 414.51999 424.62 436.89999"
         y="26"
         id="tspan40">ресурс Компании. Приоритетной задачей ПГК </tspan><tspan
         x="0 10.84 16 26.58 38.099998 49.720001 60.439999 71.279999 82.5 93.419998 105.34 117.26 129.17999 134.34 145.86 156.78 168.39999 179.12 190.28 202.2 212.92 224.14 235.3 248.58 253.74001 264.12 274.95999 286.17999 296.56 307.48001 317.42001 328.14001 338.51999 343.67999 354.26001 365.78 376.70001 388.32001 403.29999 414.01999 425.94 437.85999 448.78 453.51999"
         y="52"
         id="tspan42">в управлении персоналом является удержание, </tspan><tspan
         x="0 11.52 23.139999 35.060001 45.900002 57.119999 68.040001 78.580002 89.5 101.42 113.34 124.26 129.42 140.64 151.22 161.75999 177.14 189.06 199.42 204.58 215.3 226.82001 237.74001 249.75999 261.67999 272.39999 283.62 295.54001 306.26001 316.20001 327.35999 338.20001 342.94 348.10001 359.26001 370.60001 381.51999 392.23999 403.76001 414.67999 425.22 436.14001 448.06 459.98001 470.89999"
         y="78"
         id="tspan44">привлечение лучших специалистов, обеспечение </tspan><tspan
         x="0 11.92 22.280001 27.440001 38.959999 50.580002 61.740002 75.32 86.239998 96.959999 107.68 119.6 130.75999 142.67999 153.39999 164.62 174.14 186.06 197.22 205.58 216.74001 221.89999 233.52 244.24001 254.08 264.92001 276.84 286.78 298.70001 309.07999"
         y="104"
         id="tspan46">их профессионального развития.</tspan><tspan
         x="0 15.6 28.780001 33.939999 44.66 55.82 67.160004 78.379997 93.639999 105.16 115.88 126.8 140.08 145.24001 156.75999 168.38 179.10001 189.94 200.66 205.82001 216.53999 227.38 238.53999 250.46001 260.82001 265.98001 277.60001 288.32001 299.66 310.82001 320.76001 332.67999 344.60001 354.72 365.88 376.72 381.88 392.72 397.88 408.60001 422.17999 433.10001 444.72 455.64001"
         y="143"
         id="tspan48">Мы соблюдаем права своих работников в сфере </tspan><tspan
         x="0 9.9399996 21.559999 32.139999 43.66 54.380001 59.119999 64.279999 75.440002 86.959999 98.879997 110.5 121.22 131.60001 142.32001 151.84 157 168.92 179.64 184.8 196.42 207.58 218.3 229.02 240.94 252.86 263.57999 273.70001 284.85999 295.78 300.94 310.88 322.5 333.07999 344.60001 355.76001 366.60001 377.76001 388.67999"
         y="169"
         id="tspan50">труда, опираясь на российское трудовое </tspan><tspan
         x="0 11.92 17.08 25.440001 37.060001 47.779999 62.759998 74.279999 85 96.919998 107.64 117.76 128.92 139.84 145 154.84 165.56 175.67999 186.84 198.75999 209.92 221.44 232.16 242.10001 253.02 264.23999 273.76001 284.48001 294.42001 305.26001 316.42001 321.16 326.32001 339.38 350.10001 361.01999 372.17999 383.51999 399.42001 410 425.26001"
         y="195"
         id="tspan52">и гражданское законодательство, Всеобщую </tspan><tspan
         x="0 11.52 22.440001 32.560001 43.779999 54.5 66.120003 76.839996 88.860001 100.78 116.04 121.2 132.72 144.34 155.06 165.89999 171.06 181.60001 192.52 203.74001 214.89999 225.74001 236.66 246.78 257.5 262.66 275.89999 289.14001 303.14001 307.88 313.04001 323.76001 328.92001 338.85999 349.57999 359.70001 374.67999 385.60001"
         y="221"
         id="tspan54">декларацию прав человека ООН, а также </tspan><tspan
         x="0 11.52 22.68 33.900002 45.060001 60.040001 70.959999 82.879997 94.800003 105.18 110.34 122.62 133.78 145.3 156.22 166.34 177.06 187.78 192.94 203.06 214.22 225.84 237.36 248.52 260.14001 270.85999 280.79999 292.72 303.56 315.48001 326.64001 338.56 343.72 354.44 364.38 376.29999 386.42001 398.34"
         y="247"
         id="tspan56">положения Кодекса корпоративной этики </tspan><tspan
         x="0 12.28 23.440001 36.720001 48.240002 58.959999 70.879997 82.800003 94.720001"
         y="273"
         id="tspan58">Компании.</tspan><tspan
         x="0 13.06 18.219999 29.42 41.740002 52.939999 65.260002 70.419998 78.779999 89.940002 101.46 112.04 117.2 129.48 140.64 153.92 165.84 175.78 186.7 196.64 207.8 221.08 226.24001 237.75999 248.92 254.08 264.20001 274.92001 286.44 298.06 308.78 322.06"
         y="312"
         id="tspan60">В 2020 году Комитетом по кадрам </tspan><tspan
         x="0 11.92 17.08 27.92 39.080002 48.919998 60.84 71.559998 79.919998 91.540001 102.26 117.24 128.75999 139.67999 151.60001 163.52 173.89999 187.17999 192.34 206.34 216.44 228.72 233.88 244.46001 254.39999 265.23999 276.16 287.78 302.76001 314.28 325.20001 337.12 347.84 353 363.72 373.66 385.28 396 405.94 416.85999 425.22 437.14001 447.51999"
         y="338"
         id="tspan62">и вознаграждениям ПГК утверждена стратегия </tspan><tspan
         x="0 11.52 22.68 27.84 38.419998 49.939999 61.560001 72.279999 83.120003 94.339996 105.26 117.18 129.10001 144.36 149.52 161.03999 171.96001 183.58 194.3 205.46001 217.38 228.10001 239.32001 250.48 263.76001 268.92001 280.44 291.60001 296.76001 307.95999 320.28 331.48001 343 348.16 356.51999 367.67999 379.20001 389.92001 394.66"
         y="364"
         id="tspan64">по управлению персоналом до 2023 года, </tspan><tspan
         x="0 10.12 21.280001 31.219999 42.380001 54 64.720001 75.099998 80.260002 92.18 102.9 114.42 126.04 136.75999 147.60001 158.82001 169.74001 181.66 192.38 197.53999 209.46001 220.17999 225.34 236.17999 249.36 260.07999 270.01999 281.64001 292.35999 304.28 315.12 325.84 337.76001 349.67999 360.60001 365.76001 376.48001 388.39999 399.12 409.06 419.98001 433.26001 446.44"
         y="390"
         id="tspan66">которая направлена на выстраивание системы </tspan><tspan
         x="0 10.72 24.299999 37.880001 48.799999 58.919998 68.860001 80.779999 91.620003 103.54 116.72 127.08 132.24001 143.08 152.92 163.64 175.56 188.84 200 211.16 221.10001 233.02 244.17999 259.56 270.48001 282.39999 294.32001 306.23999 311.39999 322.92001 334.14001 344.51999 349.67999 361.20001 372.35999 383.07999 393.01999 404.94 419.92001 430.84 442.76001 454.67999 465.06"
         y="416"
         id="tspan68">эффективных взаимоотношений для достижения </tspan><tspan
         x="0 10.72 20.66 32.279999 43 52.939999 63.860001 72.220001 84.139999 94.68 105.6 116.32 126.44 138.36 148.72 153.88 165.89999 176.82001 188.03999 198.96001 210.88 216.03999 228.32001 239.48 252.75999 264.28 275 286.92001 298.84 310.76001 315.51999 320.67999 332.51999 343.44 348.60001 358.72 369.94 385.20001 395.73999 406.66 417.5 428.66 440.57999"
         y="442"
         id="tspan70">стратегических целей Компании. Ее ключевой </tspan><tspan
         x="0 11.52 23.139999 35.060001 46.220001 57.84 69.760002 79.699997 90.620003 100.56 105.72 121.06 126.22 137.84 148.56 158.39999 169.24001 181.16 191.10001 203.02 213.94 219.10001 229.22 240.38 253.66 265.17999 276.10001 286.04001 296.95999 308.88 320.89999 332.82001 344.73999 349.89999 360.62 371.78 381.72 393.34 403.92001 415.44 427.35999 439.28 449.39999 460.56 471.39999"
         y="468"
         id="tspan72">приоритет — развитие компетенций сотрудников </tspan><tspan
         x="0 11.92 17.08 27.66 37.779999 49.400002 60.32 71.839996 83.059998 93.980003 105.9 117.82 128.74001 133.89999 144.02 154.74001 166.25999 177.88 189.03999 199.88 211.03999 219.39999 230.56 235.72 247.34 258.26001 268.10001 279.01999 290.64001 301.48001 312.20001"
         y="494"
         id="tspan74">и укрепление кадрового резерва.</tspan><tspan
         x="594.12 608.12 618.84003 624 635.12 643.08002 648.23999 659.76001 670.67999 680.79999 691.52002 702.85999 714.47998 724.85999 730.02002 741.21997 753.53998 764.73999 777.06 782.21997 790.58002 801.73999 813.26001 823.97998 829.14001 839.85999 851.38 863.29999 874.02002 885.17999 895.71997 907.64001 918.35999 928.73999 933.90002 944.44 956.35999 967.08002 978.29999 989.21997 1001.14 1013.06 1024.22 1034.9399 1044.88 1054.4"
         y="-91.300003"
         id="tspan76">На 31 декабря 2020 года списочная численность </tspan><tspan
         x="594.12 604.84003 616 625.94 637.56 648.14001 659.65997 671.58002 683.5 693.62 704.78003 715.62 720.78003 734.78003 744.88 757.15997 762.32001 773.03998 784.20001 794.91998 804.85999 815.58002 826.41998 838.34003 849.56 860.28003 865.44 876.96002 882.12 894.02002 905.91998 917.56 922.71997 933.26001 944.17999 955.40002"
         y="-65.260002"
         id="tspan78">сотрудников ПГК составила 3 446 чел.</tspan><tspan
         x="594.12 607.17999 612.34003 624.62 635.78003 649.06 660.58002 671.29999 683.21997 695.14001 707.06 712.21997 723.84003 734.56 745.90002 757.06 767 777.71997 792.97998 802.91998 808.08002 818.79999 830.32001 841.23999 853.26001 865.17999 875.90002 887.12 899.03998 909.76001 919.70001 932.88 938.03998 949.65997 960.38 970.21997 982.14001 993.29999 1001.66 1012.82 1017.98 1028.8199 1039.98 1049.8199 1061.4399 1072.16 1082.88 1092.8199 1103.54 1108.28"
         y="-26.219999"
         id="tspan80">В Компании работают специалисты разного возраста, </tspan><tspan
         x="594.12 605.46002 616.62 627.84003 638.76001 649.67999 654.84003 666.35999 677.52002 688.73999 699.90002 710.73999 722.65997 734.58002 747.76001 752.91998 764.84003 774.67999 779.84003 791.76001 803.67999 814.03998 819.20001 830.35999 840.29999 852.21997 863.38 874.09998 884.47998 894.41998 905.14001 915.52002 920.67999 930.79999 935.96002 946.79999 957.96002 967.79999 979.41998 990.14001 1000.86 1010.8 1022.72 1033.88 1045.8"
         y="-0.18000001"
         id="tspan82">более половины из них относятся к возрастной </tspan><tspan
         x="594.12 604.23999 614.96002 624.90002 635.82001 644.17999 655.34003 666.96002 678.88 690.79999 695.96002 707.47998 719.79999 731.11798 742.55798 754.87799 760.03802 771.258 782.17798 792.11798 797.27802 809.198 814.35797 826.27802 839.55798 850.47803 865.73798 875.67798 880.83801 891.67798 904.85797 915.578 930.95801 941.87799 952.79797 957.95801 969.11798 980.45801 992.078 1002.798 1012.638 1023.798 1034.6379 1045.358 1057.278 1069.198 1080.118"
         y="25.860001"
         id="tspan84">категории 30–50 лет и имеют высшее образование.</tspan><tspan
         x="594.12 609.71997 622.90002 628.06 639.58002 651.20001 662.12 673.64001 684.79999 695.52002 705.46002 716.17999 727.02002 738.23999 748.62 759.53998 772.82001 777.97998 789.59998 800.32001 811.15997 823.08002 836.26001 847.17999 852.34003 863.17999 874.34003 884.17999 897.46002 908.62 923.59998 935.52002 946.67999 957.40002 967.34003 979.26001 984.41998 995.94 1007.16 1017.54 1022.7 1035.98 1046.5601 1061.54 1072.08 1084 1095.92"
         y="64.900002"
         id="tspan86">Мы предоставляем равные возможности для мужчин </tspan><tspan
         x="594.12 606.03998 611.20001 626.17999 637.09998 649.02002 664.91998 676.84003 688.76001 693.52002 698.67999 712.67999 724.29999 736.21997 741.38 752.90002 764.52002 776.44 788.35999 798.73999 808.67999 820.59998 832.52002 837.67999 849.29999 860.21997 875.59998 886.52002 898.44 910.35999 922.28003 927.44 938.59998 943.76001 955.67999 966.40002 978.32001 991.59998 1002.52 1007.68 1019.6 1024.76 1034.88 1045.6 1057.22 1066.74 1077.66 1089.28 1101.2 1114.38 1124.74"
         y="90.940002"
         id="tspan88">и женщин. При принятии решений о найме и карьерных </tspan><tspan
         x="594.12 606.03998 615.88 629.15997 640.08002 652 662.91998 674.84003 686.76001 697.14001 707.5 712.65997 724.17999 735.79999 746.71997 761.70001 773.21997 784.14001 789.29999 800.14001 810.85999 821.78003 830.14001 841.29999 846.46002 857.62 869.64001 880.56 892.47998 904.40002 915.23999 925.96002 936.88 950.15997 955.32001 966.84003 978.46002 989.62 1003.2 1014.12 1024.84 1035.5601 1047.48 1058.64 1070.5601 1081.28 1092.5 1104.42 1114.26 1127.54"
         y="116.98"
         id="tspan90">изменениях прежде всего оцениваем профессионализм </tspan><tspan
         x="594.12 604.84003 616 625.94 637.56 648.14001 659.65997 671.58002 683.5 693.62 704.78003 715.62 720.35999 725.52002 737.44 747.79999 752.96002 764.17999 776.09998 787.62 798.53998 810.15997 820.88 831 842.91998 853.84003 859 869.12 879.84003 890.38 901.29999 912.02002 921.96002 932.79999 943.52002 948.26001 953.41998 964.58002 976.20001 988.12 999.03998 1010.96 1020.9 1031.62 1043.64 1055.5601 1070.8199"
         y="143.02"
         id="tspan92">сотрудников, их лидерские качества, ориентацию </tspan><tspan
         x="594.12 606.03998 616.76001 621.91998 633.53998 644.46002 654.29999 664.88 676.09998 685.62 695.56 706.28003 716.21997 721.38 733.29999 738.46002 749.03998 762.32001 773.23999 785.15997 797.08002 808 813.15997 824.78003 835.5 846.84003 858 867.94 878.65997 888.59998 898.12 903.28003 914.12 919.28003 929.40002 940.56 953.84003 964.56 976.47998 988 998.91998"
         y="169.06"
         id="tspan94">на результат и умение работать в команде.</tspan><tspan
         x="594.12 607.64001 618.79999 630.02002 640.40002 645.56 660.53998 671.46002 683.38 699.28003 711.20001 723.12 728.28003 739.12 744.28003 755 766.52002 778.44 789.15997 800.32001 810.85999 822.78003 833.94 845.85999 851.02002 861.56 873.47998 884.20001 895.41998 906.34003 918.26001 930.17999 941.34003 952.06 962 973.91998 979.08002 990.59998 1001.52 1013.14 1023.86 1035.02 1046.9399 1057.66 1068.88 1079.6"
         y="208.10001"
         id="tspan96">Доля женщин в списочной численности персонала </tspan><tspan
         x="594.12 604.84003 616 626.71997 636.65997 647.38 658.21997 669.44 679.82001 690.73999 700.67999 705.84003 717.73999 729.26001 744.08002 748.84003 754 768 779.62 790.53998 801.38 814.56 829.94 840.85999 852.78003 864.70001 875.62 880.78003 890.90002 902.06 913.28003 925.20001 935.73999 946.65997 957.38 967.32001 978.15997 988.88 994.03998 1007.32 1017.9 1032.88 1043.42 1055.34 1067.26"
         y="234.14"
         id="tspan98">составляет 43%. Превышение количества мужчин </tspan><tspan
         x="594.12 604.84003 615.67999 626.06 635.90002 646.62 658.53998 669.70001 674.85999 685.58002 696.73999 701.90002 712.62 724.14001 735.06 747.08002 759 772.58002 784.5 794.62 805.78003 817.70001 822.85999 834.78003 845.5 860.88 872.79999 883.15997 888.32001 899.84003 911.46002 922.62 934.53998 944.38 955.21997 966.38 977.90002 988.62 998.56 1009.4 1020.32 1032.24 1044.16 1057.34 1067.7"
         y="260.17999"
         id="tspan100">связано со спецификой наших производственных </tspan><tspan
         x="594.12 605.64001 616.85999 628.02002 643.91998 654.64001 666.15997 677.32001 687.44 692.59998 698.97998 710.5 722.12 733.28003 746.56 759.73999 770.58002 781.73999 792.28003 804.20001 815.35999 825.09998 836.62 848.23999 859.40002 870.91998 881.64001 893.26001 904.41998 914.96002 926.88 940.06 950.41998 955.58002 966.29999 976.23999 986.96002 998.88 1010.9 1022.82 1034.74"
         y="286.22"
         id="tspan102">площадок (промывочно-пропарочных станций </tspan><tspan
         x="1188 1199.92 1205.08 1220.0601 1230.98 1242.2 1253.12 1262.96 1274.88 1286.04 1297.5601 1308.72 1320.34 1331.5 1346.48 1358.4 1371.58 1381.9399 1387.1 1399.12 1410.04 1420.4 1431.5601 1442.4 1448.78 1453.52 1458.6801 1470.6 1481.52 1486.6801 1498.2 1509.8199 1520.74 1532.26 1543.78 1554.9399 1566.16 1576.88 1585.24 1595.96 1611.22 1627.12 1639.04 1649.4 1654.5601 1664.5 1676.12 1686.7 1698.22 1708.9399"
         y="-91.279999"
         id="tspan104">и железнодорожных цехов), не предполагающих труда </tspan><tspan
         x="1188 1202.98 1213.9 1225.8199 1241.72 1253.64 1265.5601"
         y="-64.699997"
         id="tspan106">женщин.</tspan><tspan
         x="1188 1199.4399 1211.8 1226.62 1231.78 1242.5 1253.66 1263.6 1275.22 1285.8 1297.3199 1309.24 1321.16 1331.28 1342.4399 1353.28 1358.4399 1372.4399 1382.54 1394.8199 1399.98 1411.9 1425.1801 1436.1 1451.36 1461.3 1466.46 1477.98 1489.14 1499.86 1509.8 1520.96 1531.34 1543.26 1555.1801 1568.36 1580.28 1585.4399 1595.38 1607 1617.58 1629.1 1640.26 1651.1 1662.26 1674.1801"
         y="-22.120001"
         id="tspan108">98% сотрудников ПГК имеют постоянный трудовой </tspan><tspan
         x="1188 1198.12 1209.28 1221.2 1231.14 1242.76 1253.48 1263.6 1273.54 1278.7 1290.62 1295.78 1307.3 1318.46 1329.6801 1341.6 1352.1801 1367.4399 1372.6 1384.12 1395.74 1406.9 1418.42 1429.58 1440.8 1455.78 1467.7 1477.64 1488.5601 1499.78 1509.3 1521.22 1532.38 1543.1 1553.04 1562.5601 1567.72 1577.66 1589.28 1599.86 1611.38 1622.54 1633.38 1644.54 1652.9 1664.0601 1669.22 1680.74 1692.66 1703.04 1707.8"
         y="4.46"
         id="tspan110">контракт и полную продолжительность трудового дня. </tspan><tspan
         x="1188 1199.2 1214.02 1219.1801 1229.12 1240.74 1251.3199 1262.84 1274 1284.84 1298.02 1308.38 1313.54 1323.66 1334.8199 1346.74 1356.6801 1368.3 1379.02 1389.14 1399.08 1410.24 1421.08 1426.24 1436.08 1446.8 1456.92 1468.14 1483.4 1493.9399 1504.86 1516.78 1529.96 1535.12 1547.04 1557.76 1562.92 1573.64 1585.26 1596.42 1606.96 1618.88 1632.0601 1642.42 1647.58 1658.74 1669.46 1681.38"
         y="31.040001"
         id="tspan112">2% трудовых контрактов заключены на срочных осно</tspan></text><text
       transform="matrix(1,0,0,-1,1791.54,760.4601)"
       style="font-variant:normal;font-weight:300;font-stretch:normal;font-size:20px;font-family:'Rubik Light';-inkscape-font-specification:Rubik-Light;writing-mode:lr-tb;fill:#000000;fill-opacity:1;fill-rule:nonzero;stroke:none"
       id="text118"><tspan
         x="0"
         y="0"
         id="tspan116">-</tspan></text><text
       transform="matrix(1,0,0,-1,1287,733.8801)"
       style="font-variant:normal;font-weight:300;font-stretch:normal;font-size:20px;font-family:'Rubik Light';-inkscape-font-specification:Rubik-Light;writing-mode:lr-tb;fill:#000000;fill-opacity:1;fill-rule:nonzero;stroke:none"
       id="text122"><tspan
         x="0 10.84 21.559999 33.48 45.400002 55.779999 66.139999 70.900002 76.059998 89.120003 100.74 111.66 124.94 135.86 147.78 159.7 172.88 183.8 188.96001 200.58 211.3 222.64 233.8 243.74001 255.66 267.57999 277.70001 289.62 294.78 306.29999 317.92001 329.84 340.67999 351.89999 362.82001 372.94 383.66 398.92001 408.85999 419.57999 429.95999 435.12 446.64001 457.85999 468.23999 473.39999 484.92001 496.54001"
         y="0"
         id="tspan120">ваниях. Временные работники привлекаются для про</tspan></text><text
       transform="matrix(1,0,0,-1,1794.7,733.8801)"
       style="font-variant:normal;font-weight:300;font-stretch:normal;font-size:20px;font-family:'Rubik Light';-inkscape-font-specification:Rubik-Light;writing-mode:lr-tb;fill:#000000;fill-opacity:1;fill-rule:nonzero;stroke:none"
       id="text126"><tspan
         x="0"
         y="0"
         id="tspan124">-</tspan></text><text
       transform="matrix(1,0,0,-1,1287,707.3001)"
       style="font-variant:normal;font-weight:300;font-stretch:normal;font-size:20px;font-family:'Rubik Light';-inkscape-font-specification:Rubik-Light;writing-mode:lr-tb;fill:#000000;fill-opacity:1;fill-rule:nonzero;stroke:none"
       id="text136"><tspan
         x="0 11.92 21.76 32.599998 43.759998 55.279999 66 75.940002 86.779999 97.5 102.66 114.18 125.8 136.96001 147.88 158 167.94 179.86 193.03999 203.39999 208.56 220.48 225.64 237.25999 247.98 257.82001 268.98001 279.82001 293 303.35999 308.51999 320.14001 330.85999 342.20001 353.35999 363.29999 368.04001 373.20001 384.35999 392.72 404.34 415.06 426.98001 438.89999 449.44 460.35999 472.28 484.20001 497.38 507.73999"
         y="0"
         id="tspan128">изводства проектных и разовых работ, ограниченных </tspan><tspan
         x="0 10.84 22 27.16 38 49.619999 60.540001 73.82 84.739998 96.660004 108.58 113.32 118.48 129.2 134.36 144.3 155.02 165.14 180.12 191.03999 196.2 206.03999 216.75999 230.03999 240.96001 256.85999 267.78 279.70001 291.62 302 307.16 322.54001 332.48001 343.20001 353.14001 365.06 376.22 384.57999 395.73999 400.89999 412.42001 423.34 434.95999 445.67999 456.84 468.76001 479.48001 490.70001 501.42001 506.16"
         y="26.58"
         id="tspan130">во времени, а также замещения штатного персонала, </tspan><tspan
         x="0 11.52 22.74 34.66 44.599998 55.52 66.739998 76.260002 88.18 99.339996 104.5 115.66 125.6 136.32001 146.89999 156.84 167.56 177.5 188.34 198.92 214.17999 230.08 241 249.36 260.51999 265.67999 277.60001 288.32001 293.48001 303.32001 314.04001 324.16 335.32001 347.23999 359.16 372.34 382.70001 387.85999 399.01999 409.73999 421.66 432.82001 443.66 454.38 466.29999 478.22 488.60001 498.95999"
         y="53.16"
         id="tspan132">длительно отсутствующего на законных основаниях.</tspan><tspan
         x="0 14 24.92 35.639999 48.919998 60.080002 70.019997 81.639999 92.019997 97.18 109.1 119.82 124.98 135.7 146.92 158.08 173.06 184.98 198.16 210.08 215.24001 226.75999 237.98 248.36 253.52 264.35999 275.07999 286 294.35999 305.51999 310.67999 323.95999 335.88 347.5 358.22 363.38 374.57999 386.89999 398.10001 410.42001 415.57999 423.94 435.10001 446.62 451.78 463.70001 468.85999 480.38 491.10001"
         y="95.739998"
         id="tspan134">Несмотря на сложный для всего мира 2020 год и пан</tspan></text><text
       transform="matrix(1,0,0,-1,1790.02,611.5601)"
       style="font-variant:normal;font-weight:300;font-stretch:normal;font-size:20px;font-family:'Rubik Light';-inkscape-font-specification:Rubik-Light;writing-mode:lr-tb;fill:#000000;fill-opacity:1;fill-rule:nonzero;stroke:none"
       id="text140"><tspan
         x="0"
         y="0"
         id="tspan138">-</tspan></text><text
       transform="matrix(1,0,0,-1,1287,584.9801)"
       style="font-variant:normal;font-weight:300;font-stretch:normal;font-size:20px;font-family:'Rubik Light';-inkscape-font-specification:Rubik-Light;writing-mode:lr-tb;fill:#000000;fill-opacity:1;fill-rule:nonzero;stroke:none"
       id="text144"><tspan
         x="0 11.52 22.440001 35.720001 47.639999 62.900002 67.639999 72.800003 85.080002 96.239998 109.52 121.04 131.75999 143.67999 155.60001 165.98 171.14 182.3 193.82001 205.74001 216.89999 228.82001 233.98 245.89999 255.74001 260.89999 272.42001 283.34 294.95999 305.79999 318.98001 329.34 334.5 345.07999 355.79999 367.32001 378.23999 393.62 405.54001 416.70001 421.85999 433.01999 444.64001 453 463.72 475.64001"
         y="0"
         id="tspan142">демию, Компания одной из первых успешно органи</tspan></text><text
       transform="matrix(1,0,0,-1,1774.56,584.9801)"
       style="font-variant:normal;font-weight:300;font-stretch:normal;font-size:20px;font-family:'Rubik Light';-inkscape-font-specification:Rubik-Light;writing-mode:lr-tb;fill:#000000;fill-opacity:1;fill-rule:nonzero;stroke:none"
       id="text148"><tspan
         x="0"
         y="0"
         id="tspan146">-</tspan></text><text
       transform="matrix(1,0,0,-1,1287,558.4001)"
       style="font-variant:normal;font-weight:300;font-stretch:normal;font-size:20px;font-family:'Rubik Light';-inkscape-font-specification:Rubik-Light;writing-mode:lr-tb;fill:#000000;fill-opacity:1;fill-rule:nonzero;stroke:none"
       id="text154"><tspan
         x="0 9.8400002 21 31.84 42.560001 53.779999 64.5 69.660004 80.239998 91.760002 102.48 113.7 124.62 136.53999 148.46001 159.03999 174.3 179.46001 191.08 201.8 213.14 224.3 234.24001 244.82001 249.56 254.72 265.88 277.22 288.14001 298.85999 310.38 321.29999 331.84 343.76001 354.60001 359.76001 371.10001 382.01999 391.85999 403.01999 414.54001 425.26001 435.98001 447.89999 459.06 469.78 479.72 489.23999"
         y="0"
         id="tspan150">зовала удаленную работу, обеспечив безопасность </tspan><tspan
         x="0 10.12 21.280001 34.560001 45.279999 57.200001 68.720001 81.900002 87.059998 97.779999 102.94 113.66 124.82 135.17999 146.8 157.52 169.44 180.36 192.28 204.2 215.12 228.39999 233.56 244.28 257.85999 271.44 282.35999 292.48001 302.42001 314.34 325.17999 337.10001 348.26001 358.98001 368.92001 380.84 386 397.62 408.34 419.67999 430.84 441.38 453.29999 463.66 468.82001 480.34 491.95999"
         y="26.58"
         id="tspan152">команды с сохранением эффективности рабочих про</tspan></text><text
       transform="matrix(1,0,0,-1,1790.12,531.8201)"
       style="font-variant:normal;font-weight:300;font-stretch:normal;font-size:20px;font-family:'Rubik Light';-inkscape-font-specification:Rubik-Light;writing-mode:lr-tb;fill:#000000;fill-opacity:1;fill-rule:nonzero;stroke:none"
       id="text158"><tspan
         x="0"
         y="0"
         id="tspan156">-</tspan></text><text
       transform="matrix(1,0,0,-1,1287,505.2401)"
       style="font-variant:normal;font-weight:300;font-stretch:normal;font-size:20px;font-family:'Rubik Light';-inkscape-font-specification:Rubik-Light;writing-mode:lr-tb;fill:#000000;fill-opacity:1;fill-rule:nonzero;stroke:none"
       id="text162"><tspan
         x="0 12.02 22.940001 33.66 44.380001 55.540001 66.379997"
         y="0"
         id="tspan160">цессов.</tspan></text><g
       id="g164"><g
         id="g166"><g
           id="g172"><g
             id="g174"><path
               d="m 1367.761,274.488 c -15.232,-14.238 -22.849,-34.319 -22.849,-60.248 v 0 -44.88 c 0,-23.936 7.387,-42.39 22.169,-55.352 v 0 c 14.777,-12.967 36.856,-19.448 66.232,-19.448 v 0 c 14.688,0 27.514,1.632 38.488,4.896 v 0 c 10.969,3.264 20.17,7.794 27.608,13.6 v 0 c 7.433,5.802 13.009,12.826 16.727,21.08 v 0 c 3.716,8.249 5.577,17.272 5.577,27.064 v 0 c 0,9.792 -1.816,18.811 -5.441,27.064 v 0 c -3.629,8.249 -8.975,15.275 -16.048,21.08 v 0 c -7.071,5.801 -15.776,10.336 -26.111,13.6 v 0 c -10.337,3.264 -22.126,4.896 -35.36,4.896 v 0 c -8.161,0 -15.461,-0.727 -21.897,-2.176 v 0 c -6.438,-1.453 -11.832,-2.992 -16.183,-4.624 v 0 c -5.262,-1.997 -9.792,-4.262 -13.6,-6.8 v 0 c 0,21.033 4.488,36.49 13.464,46.376 v 0 c 8.975,9.881 21.258,14.824 36.856,14.824 v 0 c 3.986,0 8.474,-0.319 13.464,-0.952 v 0 c 4.985,-0.638 10.153,-1.768 15.504,-3.4 v 0 c 5.346,-1.632 10.786,-3.855 16.32,-6.664 v 0 c 5.529,-2.814 10.833,-6.392 15.912,-10.744 v 0 l 12.24,16.32 c -10.336,8.882 -22.215,15.411 -35.632,19.584 v 0 c -13.422,4.17 -26.928,6.256 -40.528,6.256 v 0 c -29.376,0 -51.681,-7.119 -66.912,-21.352 m 32.231,-147.152 c -8.615,9.154 -12.919,22.257 -12.919,39.304 v 0 24.48 c 3.442,3.264 7.522,6.163 12.24,8.704 v 0 c 4.169,2.176 9.291,4.216 15.367,6.12 v 0 c 6.073,1.904 13.192,2.856 21.353,2.856 v 0 c 6.162,0 11.874,-1.135 17.136,-3.4 v 0 c 5.257,-2.269 9.834,-5.487 13.736,-9.656 v 0 c 3.897,-4.174 6.978,-9.206 9.248,-15.096 v 0 c 2.265,-5.895 3.399,-12.376 3.399,-19.448 v 0 c 0,-7.072 -1.134,-13.558 -3.399,-19.448 v 0 c -2.27,-5.894 -5.44,-10.927 -9.52,-15.096 v 0 c -4.08,-4.173 -8.976,-7.391 -14.688,-9.656 v 0 c -5.713,-2.27 -11.926,-3.4 -18.632,-3.4 v 0 c -13.601,0 -24.709,4.577 -33.321,13.736 M 727.48,288.224 c -14.055,-5.079 -26.249,-12.062 -36.584,-20.944 v 0 l 12.24,-16.32 c 10.335,8.883 21.08,15.185 32.231,18.904 v 0 c 11.152,3.714 23.528,5.576 37.129,5.576 v 0 c 14.322,0 25.385,-3.039 33.184,-9.112 v 0 c 7.794,-6.078 11.695,-13.918 11.695,-23.528 v 0 c 0,-23.574 -13.148,-35.36 -39.439,-35.36 v 0 h -50.32 v -20.4 h 55.759 c 14.323,0 24.931,-2.95 31.824,-8.84 v 0 c 6.89,-5.895 10.337,-14.28 10.337,-25.16 v 0 c 0,-10.88 -4.309,-19.95 -12.921,-27.2 v 0 c -8.614,-7.255 -22.439,-10.88 -41.48,-10.88 v 0 c -13.6,0 -26.205,2.129 -37.807,6.392 v 0 c -11.607,4.258 -22.576,11.195 -32.912,20.808 v 0 l -13.6,-16.32 c 10.336,-9.613 22.983,-17.23 37.944,-22.848 v 0 c 14.96,-5.618 31.322,-8.432 49.096,-8.432 v 0 c 16.32,0 30.371,1.454 42.16,4.352 v 0 c 11.785,2.899 21.53,6.843 29.24,11.832 v 0 c 7.705,4.985 13.37,10.88 17,17.68 v 0 c 3.625,6.8 5.439,14.097 5.439,21.896 v 0 c 0,13.056 -3.854,23.618 -11.559,31.688 v 0 c -7.71,8.067 -18.36,13.826 -31.96,17.272 v 0 c 12.329,4.169 21.305,10.018 26.928,17.544 v 0 c 5.619,7.523 8.432,17.09 8.432,28.696 v 0 c 0,7.072 -1.768,13.689 -5.305,19.856 v 0 c -3.536,6.162 -8.839,11.513 -15.912,16.048 v 0 c -7.071,4.53 -15.868,8.066 -26.383,10.608 v 0 c -10.519,2.537 -22.759,3.808 -36.72,3.808 v 0 c -17.774,0 -33.686,-2.542 -47.736,-7.616 m 527.266,2.176 -123.76,-125.392 V 143.52 h 133.28 V 100 h 39.441 v 43.52 h 23.119 v 19.04 h -23.119 V 290.4 Z m 6.8,-35.36 h 2.72 v -92.48 h -93.839 z M 1044.491,290.4 920.732,165.008 V 143.52 h 133.28 V 100 h 39.439 v 43.52 h 23.12 v 19.04 h -23.12 V 290.4 Z m 6.801,-35.36 h 2.72 v -92.48 h -93.841 z"
               style="fill:url(#linearGradient182);stroke:none"
               id="path184" /></g></g></g></g><text
       transform="matrix(1,0,0,-1,1579,152)"
       style="font-variant:normal;font-weight:500;font-stretch:normal;font-size:20px;font-family:'Rubik Medium';-inkscape-font-specification:Rubik-Medium;writing-mode:lr-tb;fill:#000000;fill-opacity:1;fill-rule:nonzero;stroke:none"
       id="text192"><tspan
         x="0 11.42 23.639999 36.099998 47.52 59.360001 70.919998 83.379997 94.800003 106.28 110.86 122.42 134.88 146.3 158.36 169.89999 182.36 194.82001 206.66 218.08 228.67999 239.28"
         y="0"
         id="tspan186">списочная численность </tspan><tspan
         x="0 11.42 23.26 33.860001 46.139999 57.540001 70.099998 82.559998 95.019997 106.44 118.28 129.94 134.52 149.10001 159.96001 173.36"
         y="26"
         id="tspan188">сотрудников ПГК </tspan><tspan
         x="0 12.46 23.879999 28.426001 40.706001 49.966 54.509998 67.07 78.610001 90.029999 101.45 113.39 125.67 137.14999 141.696 154.076 167.216 179.59599 192.73599 197.28 206.17999 218.02 230.58"
         y="52"
         id="tspan190">на 31 декабря 2020 года</tspan></text><g
       id="g194"><g
         id="g196"
         clip-path="url(#clipPath200)"><g
           id="g202"
           transform="translate(1714,290.4)"><path
             d="m 0,0 h -120 c -11.046,0 -20,-8.954 -20,-20 0,-11.046 8.954,-20 20,-20 H 0 c 11.046,0 20,8.954 20,20 C 20,-8.954 11.046,0 0,0"
             style="fill:#f0f0f5;fill-opacity:1;fill-rule:nonzero;stroke:none"
             id="path204" /></g></g></g><text
       transform="matrix(1,0,0,-1,1596.7415,263.1183)"
       style="font-variant:normal;font-weight:500;font-stretch:normal;font-size:28px;font-family:'Rubik Medium';-inkscape-font-specification:Rubik-Medium;writing-mode:lr-tb;fill:#000000;fill-opacity:1;fill-rule:nonzero;stroke:none"
       id="text208"><tspan
         x="0 16.184 32.34 49.223999 65.800003 82.124001 98.279999"
         y="0"
         id="tspan206">человек</tspan></text><text
       transform="matrix(1,0,0,-1,37.6201,1023)"
       style="font-variant:normal;font-weight:300;font-stretch:normal;font-size:20px;font-family:'Rubik Light';-inkscape-font-specification:Rubik-Light;writing-mode:lr-tb;fill:#000000;fill-opacity:1;fill-rule:nonzero;stroke:none"
       id="text212"><tspan
         x="0 11.44 61.380001 75.379997 86.099998 101.48 112.2 117.36 127.48 138.64 151.92 162.64 174.56 186.08"
         y="0"
         id="tspan210">90Наша команда</tspan></text></g></svg>
