<?xml version="1.0" encoding="UTF-8" standalone="no"?>
<?xml-stylesheet type="text/css" href="main.css" ?>
<svg
   xmlns:dc="http://purl.org/dc/elements/1.1/"
   xmlns:cc="http://creativecommons.org/ns#"
   xmlns:rdf="http://www.w3.org/1999/02/22-rdf-syntax-ns#"
   xmlns:svg="http://www.w3.org/2000/svg"
   xmlns="http://www.w3.org/2000/svg"
   version="1.1"
   id="svg2"
   xml:space="preserve"
   width="2560"
   height="1440"
   viewBox="0 0 2560 1440"><metadata
     id="metadata8"><rdf:RDF><cc:Work
         rdf:about=""><dc:format>image/svg+xml</dc:format><dc:type
           rdf:resource="http://purl.org/dc/dcmitype/StillImage" /></cc:Work></rdf:RDF></metadata><defs
     id="defs6"><clipPath
       clipPathUnits="userSpaceOnUse"
       id="clipPath20"><path
         d="M 0,1080 H 1920 V 0 H 0 Z"
         id="path18" /></clipPath><linearGradient
       x1="0"
       y1="0"
       x2="1"
       y2="0"
       gradientUnits="userSpaceOnUse"
       gradientTransform="matrix(552.42749,208.74496,208.74496,-552.42749,674.56251,734.84575)"
       spreadMethod="pad"
       id="linearGradient196"><stop
         style="stop-opacity:1;stop-color:#faaa2d"
         offset="0"
         id="stop192" /><stop
         style="stop-opacity:1;stop-color:#2960a1"
         offset="1"
         id="stop194" /></linearGradient><clipPath
       clipPathUnits="userSpaceOnUse"
       id="clipPath206"><path
         d="M 0,0 H 1920 V 1080 H 0 Z"
         id="path204" /></clipPath><clipPath
       clipPathUnits="userSpaceOnUse"
       id="clipPath240"><path
         d="M 0,1080 H 1920 V 0 H 0 Z"
         id="path238" /></clipPath></defs><g
     id="g10"
     transform="matrix(1.3333333,0,0,-1.3333333,0,1440)"><g
       id="g12"><g
         id="g14"><g
           id="g16"
           clip-path="url(#clipPath20)"><path
             d="M 0,0 H 1920 V 1080 H 0 Z"
             style="fill:#ffffff;fill-opacity:1;fill-rule:nonzero;stroke:none"
             id="path22" /></g></g></g><g
       id="g24"
       transform="translate(220.1209,984)"><path
         d="M 0,0 -9.121,-10.047 0,-20.094 H 27.879 V -10.047 0 Z"
         style="fill:#faaa2d;fill-opacity:1;fill-rule:nonzero;stroke:none"
         id="path26" /></g><text
       transform="matrix(1,0,0,-1,98,968.3599)"
       style="font-variant:normal;font-weight:300;font-stretch:normal;font-size:16px;font-family:'Rubik Light';-inkscape-font-specification:Rubik-Light;writing-mode:lr-tb;fill:#000000;fill-opacity:1;fill-rule:nonzero;stroke:none"
       id="text30"><tspan
         x="0 11.2 19.775999 28.208 36.784 45.759998 54.688 58.816002 68.351997 76.928001 81.056 89.632004 97.584 106.6864 110.4944"
         y="0"
         id="tspan28">Начало на стр. </tspan></text><text
       transform="matrix(1,0,0,-1,220.8784,968.3599)"
       style="font-variant:normal;font-weight:500;font-stretch:normal;font-size:16px;font-family:'Rubik Medium';-inkscape-font-specification:Rubik-Medium;writing-mode:lr-tb;fill:#ffffff;fill-opacity:1;fill-rule:nonzero;stroke:none"
       id="text34"><tspan
         x="0 10.512"
         y="0"
         id="tspan32">89</tspan></text><text
       transform="matrix(1,0,0,-1,99,920.3)"
       style="font-variant:normal;font-weight:300;font-stretch:normal;font-size:20px;font-family:'Rubik Light';-inkscape-font-specification:Rubik-Light;writing-mode:lr-tb;fill:#000000;fill-opacity:1;fill-rule:nonzero;stroke:none"
       id="text120"><tspan
         x="0 13.06 24.219999 34.060001 45.98 56.700001 65.059998 76.68 87.400002 102.38 113.9 124.82 136.74001 148.66 159.58 164.74001 175.46001 186.62 196.56 207.798 218.37801 229.89799 241.81799 253.73801 263.858 274.578 279.73801 289.578 300.298 311.138 323.05801 333.77802 345.698 355.638 360.798 371.95801 381.89801 387.05801 398.67801 409.59799 419.43799 429.436 440.65601 450.17599 460.116 470.836 480.776 491.936 502.776"
         y="0"
         id="tspan36">Вознаграждение сотрудника зависит от результатов </tspan><tspan
         x="0 10.92 19.040001 30.200001 35.360001 45.299999 56.540001 67.120003 78.639999 89.360001 94.519997 106.44 111.6 125.18 136.34 147.96001 161.24001 173.16 184.39799 194.638 205.558 215.498 226.218 236.59801 241.758 253.67799 263.51801 268.67801 280.198 291.03799 301.61801 311.978 317.138 327.67801 338.39801 349.11801 359.05801 369.978 381.89801 386.71799 391.87799 403.39801 414.55801 425.27802 435.21799 446.37799 456.758 468.67801 480.59799 491.758 503.67801"
         y="26"
         id="tspan38">его труда и формируется из двух частей: постоянной </tspan><tspan
         x="0 11.92 17.08 28.6 39.52 51.139999 62.060001 75.339996 86.260002 98.18 110.1 121.26 133.17999 137.94 143.10001 157.10001 168.02 179.64 190.48 201.2 211.58 216.74001 227.89999 239.42 251.03999 261.95999 273.48001 284.31601 295.53601 305.91599 316.836 326.776 337.496 347.87601 353.03601 364.556 376.47601 387.19601 398.716 409.436 419.276 430.436 442.35599 453.51599 466.79599 471.53601"
         y="52"
         id="tspan40">и переменной. Первая определяется диапазоном, </tspan><tspan
         x="0 9.8400002 20.559999 30.68 42.299999 53.220001 64.739998 75.959999 86.879997 98.800003 110.72 123.9 137.17999 142.34 152.17999 162.89999 168.06 179.58 190.53799 201.758 216.73801 228.658 239.81799 250.53799 260.478 272.39801 285.578 298.858 304.01801 312.37799 323.99799 334.918 346.83801 358.358 369.51801 382.798 387.95801 398.67801 410.198 421.11801 433.138 445.05801 455.77802 466.99799 478.918 489.638 499.578 510.298 515.05798"
         y="78"
         id="tspan42">закрепленным за должностным грейдом специалиста. </tspan><tspan
         x="0 14.52 24.459999 35.619999 43.740002 54.900002 65.739998 76.900002 87.82 92.980003 102.82 114.74 125.46 136 146.92 158.84 170.75999 181.67999 186.84 196.67999 207.39999 218.24001 230.16 240.88 252.8 262.73999 267.89999 279.06 289 294.16 304.73999 316.35999 327.51999 338.35999 350.28 360.66 365.82001 375.94 386.78 397.5 408.72 420.64001 434.22 446.14001 456.26001 466.98001 479 490.92001 502.84"
         y="104"
         id="tspan44">Итоговое значение зависит от уровня квалификации </tspan><tspan
         x="0 11.92 17.08 28.6 39.560001 50.779999 65.760002 77.68 88.839996 99.559998 109.5 121.42 134.60001 144.96001 150.12 161.28 172.62 183 192.84 203.56 215.48 227.39999 238.56 249.28 259.22 270.14001 282.06 286.82001 291.98001 305.04001 314.98001 326.14001 337.76001 348.48001 358.85999 364.01999 374.56 385.28 396 405.94 415.45999 420.62 435.95999"
         y="130"
         id="tspan46">и должностных обязанностей. Вторая часть — </tspan><tspan
         x="0 11.52 23.139999 34.060001 47.34 59.259998 69.639999 74.800003 86.32 97.480003 102.64 114.26 125.18 135.02 145.01801 156.23801 165.758 175.698 186.418 196.358 207.078 220.358 225.51801 236.358 249.53799 261.05801 272.01599 283.23599 295.15601 306.07599 317.996 329.91599 340.29599 345.45599 355.57599 366.29599 377.91599 387.85599 401.03601 406.19601 418.216 429.05399 440.27399 451.194 463.11401"
         y="156"
         id="tspan48">премия по результатам выполнения карты целей </tspan><tspan
         x="0 15.6 28.66 41.5 46.259998 51.419998 64.660004 76.580002 87.300003 92.459999 102.3 113.02 123.86 135.78 146.5 158.42 168.36 173.52 184.67999 194.62 199.78 211.39999 222.32001 232.16 242.158 253.37801 262.89801 272.83801 283.55801 293.49799 304.65799 315.49799 320.65799 332.27802 342.99799 354.33801 365.49799 375.43799 388.61801 393.77802 404.49799 415.65799 425.59799 436.836 447.41599 458.936 470.85599 482.776 492.896 503.616"
         y="182"
         id="tspan50">МВО. Она зависит от результатов работы сотрудника </tspan><tspan
         x="0 9.8400002 20.559999 25.719999 35.84 46.560001 57.779999 68.699997 80.620003 92.139999 102.86 114.48 126.4 139.58 151.5 156.66 168.17999 179.10001 190.72 202.64 213.8 225.32001 230.08 235.24001 247.8 258.51999 269.85999 281.01999 290.95999 302.88 314.79999 324.92001 336.84 342 351.94 362.66 372.78 387.76001 398.67999 403.84 417.12 428.28 436.64001 447.22 457.16"
         y="208"
         id="tspan52">за календарный период. Работники также могут </tspan><tspan
         x="0 11.52 22.48 33.700001 44.279999 54.82 66.739998 76.68 86.199997 91.360001 102.28 113.8 125.72 137.64 148.8 159.64 171.25999 182.17999 195.46001 206.38 218.3 230.22 243.39999 254.32001 259.48001 271 282.62 293.54001 306.82001 318.73999 330.66 335.82001 345.66 356.38 361.54001 372.38 385.56 397.07999 408.034 419.254 431.17401 442.09399 454.01401 465.93399 476.854"
         y="234"
         id="tspan54">получить единовременные премии за выполнение </tspan><tspan
         x="0 10.84 21.559999 36.540001 48.459999 61.639999 72 77.160004 87 97.720001 109.24 119.96 130.5 135.66 147.58 152.74001 163.58 176.75999 188.28 199 214.25999 230.16 242.08 253 258.16 269.67999 280.84 291.56 301.5 313.42001 328.39999 339.32001 351.23999 363.16 373.54001 378.70001 389.54001 394.70001 406.32001 417.04001 428.38 439.54001 449.48001 460.39999"
         y="260"
         id="tspan56">важных задач и выдающие достижения в работе.</tspan><tspan
         x="0 13.06 18.219999 29.42 41.740002 52.939999 65.260002 70.419998 78.540001 89.699997 101.22 111.8 116.96 127.54 132.7 144.22 155.66 170.48 175.64 186.36 197.88 208.8 220.82001 232.74001 243.46001 254.67999 266.60001 277.32001 287.26001 298.42001 309.26001 314.42001 326.09601 337.25601 350.53601 362.056 372.776 384.69601 396.616 408.53601 413.69601 425.03601 438.216 449.436"
         y="299"
         id="tspan58">В 2020 году у 39% специалистов Компании был </tspan><tspan
         x="0 11.52 22.440001 34.060001 44.98 55.700001 68.980003 80.139999 90.080002 101.7 112.62 124.54 129.7 141.22 152.17799 163.39799 178.37801 190.298 201.45799 212.17799 222.118 234.03799 245.198 257.11801 262.27802 273.43799 283.55801 294.77802 305.49799 317.01801 322.17801 333.698 344.858 350.01801 361.93799 371.87799 383.03799 391.39801 402.11801 415.39801 420.55801 431.27802 443.198 453.918 465.138 477.05801 486.89801 497.61801"
         y="325"
         id="tspan60">пересмотрен должностной оклад по итогам анализа </tspan><tspan
         x="0 10.58 22.200001 33.360001 44.200001 56.119999 66.5 71.660004 82.82 94.339996 105.56 116.28 126.22 139.39999 144.56 155.28 166.44 177.96001 189.12 199.84 209.78 220.5 231.34 243.25999 256.54001 269.72 280.07999 285.23999 296.76001 307.716 318.936 333.91599 345.836 356.996 367.716 377.65601 388.57599 400.496 405.65601 417.57599 428.29599 433.45599 445.07599 458.25601 470.17599 479.79401 490.71399"
         y="351"
         id="tspan62">уровня оплаты сопоставимых должностей на рынке </tspan><tspan
         x="0 9.9399996 21.18 31.76 43.279999 54 58.740002 63.900002 75.419998 87.040001 98.199997 111.78 122.7 133.42 144.14 156.06 167.22 179.14 189.86 201.08 210.60001 222.52 235.7 246.06 251.22 260.836 271.996 285.276 296.79599 307.716 317.65601 328.57599 340.496 352.51599 364.436 376.35599 381.09601 386.25601 397.776 409.396 420.556 431.47601 441.59601 451.53601 463.45599 474.616 486.53601"
         y="377"
         id="tspan64">труда, профессиональных компетенций, проектной </tspan><tspan
         x="0 10.72 20.84 30.780001 42.700001 53.540001 65.459999 76.620003 87.339996 97.279999 109.2 114.36 126.28 131.44 142.96001 154.12 164.84 174.78 186.7 195.06 206.98 217.56 227.5 240.67999 251.03999 256.20001 267.82001 278.73999 288.57999 298.57599 309.79599 319.31601 329.25601 339.97601 349.91599 361.07599 371.91599"
         y="403"
         id="tspan66">активности и достигнутых результатов.</tspan><tspan
         x="0 13.06 18.219999 28.940001 40.860001 51.580002 61.52 72.440002 85.720001 96.300003 101.46 113.38 124.3 137.58 148.3 158.24001 169.16 180.78 192.7 203.42 214.64 224.16 236.08 247.24001 259.16 264.32001 277.60001 288.76001 298.70001 310.62 321.45999 332.17999 344.20001 356.12 368.04001 373.20001 384.87601 396.03601 409.31601 420.836 431.556 443.47601 455.396 467.31601"
         y="442"
         id="tspan68">В систему нематериальной мотивации Компании </tspan><tspan
         x="0 10.84 20.959999 32.18 47.439999 57.98 68.900002 80.82 94 99.160004 109.88 121.04 133.06 144.98 155.7 166.92 176.44 188.36 201.53999 212.46001 217.62 230.89999 241.82001 253.44 264.60001 276.12 287.73999 299.66 310.04001 319.98001 331.89999 342.28 347.01999 352.17999 363.34 374.95999 386.88 397.79999 409.72 419.66 431.57999 443.20001 454.35999 465.20001 475.92001 487.84 499.76001 512.94 523.85999"
         y="468"
         id="tspan70">включены социальные мероприятия, ориентированные </tspan><tspan
         x="0 11.92 22.639999 27.799999 39.419998 50.580002 61.299999 71.239998 76.400002 87.620003 98.779999 109.16 120.38 129.89999 141.82001 152.98 163.7 173.64 185.56 190.72 201.44 212.60001 222.53999 233.778 244.358 255.87801 267.798 279.71799 289.33801 300.49799 311.33801 316.078 321.23801 331.23599 342.45599 353.03601 363.57599 378.95599 389.87601 401.79599 413.716 424.63599 429.79599 441.41599 452.13599 463.47601 474.63599 485.17599 497.09601 507.45599"
         y="494"
         id="tspan72">на рост лояльности сотрудников, улучшение рабочих </tspan><tspan
         x="0 10.24 20.959999 32.18 43.34 54.18 66.099998 78.019997 82.760002 87.919998 99.440002 110.6 121.44 134.62 150 160.92 172.84 184.75999 195.67999 200.84 212.46001 223.38 233.22 243.218 254.438 263.95801 273.89801 284.61801 294.55801 306.478 317.31799 329.23801 340.39801 351.11801 361.05801 372.978 378.138 388.078 399.31601 409.896 421.41599 432.13599"
         y="520"
         id="tspan74">условий, повышение результативности труда </tspan><tspan
         x="0 11.92 17.08 28.6 39.759998 51.279999 63.200001 73.580002 83.519997 95.440002 106.36 111.52 121.138 132.298 143.918 155.438 166.59801 178.218 188.938 198.87801 210.798 221.638 233.558 244.718 252.838 263.99799 269.15799 280.67801 291.258 301.61801 312.33801 317.49799 327.116 338.276 351.556 362.276 374.19601 385.716 398.896"
         y="546"
         id="tspan76">и поднятие корпоративного духа команды.</tspan><tspan
         x="0 14 24.58 35.919998 47.139999 59.060001 69.599998 81.519997 92.68 103.6 108.76 120.28 131.89999 143.82001 153.66 165.58 176.3 188.22 200.14 211.06 216.22 226.06 236.78 247.5 258.72 269.29999 277.66 282.82001 294.04001 304.62 315.16 330.54001 342.45999 352.82001 357.98001 369.60001 380.32001 391.66 402.82001 412.76001 424.67999 436.60001 446.21399 457.37399 468.21399 473.37399 483.754 494.59399 505.814 516.19397"
         y="585"
         id="tspan78">Публичное признание заслуг лучших работников явля-</tspan><tspan
         x="0 10.92 20.860001 31.58 41.959999 47.119999 57.84 68.559998 81.839996 93 104.92 110.08 121.7 132.42 143.14 154.66 166.28 177.44 188.16 198.10001 209.72 220.44 232.36 243.28 255.2 267.12 278.28 290.20001 295.35999 308.94 320.10001 331.72 345 356.16 368.07999 373.23999 385.16 396.07999 409.35999 420.07999 430.01999 440.94 452.56 464.48001 475.20001 486.42001 495.94 507.85999 519.02002 530.94"
         y="611"
         id="tspan80">ется самой распространенной формой нематериальной </tspan><tspan
         x="0 13.28 24.440001 34.380001 46.299999 57.139999 67.860001 79.879997 91.800003 103.72 108.48 113.64 126.7 131.86 143.06 155.38 166.58 178.89999 184.06 194.64 204.58 215.42 226.34 237.96001 252.94 264.45999 275.38 287.29999 298.45999 303.62 317.62 328.57599 339.79599 350.95599 365.936 376.85599 388.776 400.69601 411.616 416.776 427.936 433.09601 443.936 455.85599 467.37601 478.09601 488.45599"
         y="637"
         id="tspan82">мотивации. В 2020 утверждено Положение о видах </tspan><tspan
         x="0 11.92 22.84 36.119999 46.84 56.779999 67.699997 79.32 91.239998 101.96 113.18 122.7 134.62 145.78 153.89799 165.058 170.218 181.73801 192.89799 204.058 219.95799 231.578 242.498 254.418 266.33801 276.71799 281.87799 293.798 298.95801 310.87799 321.59799 329.95801 341.578 352.298 363.81799 374.53799 384.89801"
         y="663"
         id="tspan84">нематериального поощрения и наградах.</tspan><tspan
         x="0 13.02 18.18 28.76 39.299999 50.220001 60.16 71.32 84.599998 89.760002 100.92 109.28 120.9 131.62 143.53999 155.46001 166 176.92 188.84 200.75999 211.14 216.3 227.14 232.3 243.82001 254.53999 266.45999 277.98001 288.89999 302.17999 314.10001 329.35999 334.51999 346.44 357.16 362.32001 373.54001 385.45999 396 407.92001 421.10001 432.01999 437.17999 446.79401 457.95401 469.87399 479.814 490.534 500.65399 510.59399 523.77399"
         y="702"
         id="tspan86">С учетом ограничения в пандемию на личные контакты </tspan><tspan
         x="0 11.92 17.08 28.700001 39.419998 50.759998 61.919998 71.860001 82.440002 87.599998 98.440002 103.6 114.76 128.34 140.25999 150.98 161.89999 167.06 177.89999 183.06 194.25999 206.58 217.78 230.10001 235.25999 243.37801 254.53799 266.05801 276.638 281.798 292.638 297.798 309.47601 320.63599 333.91599 345.436 356.15601 368.07599 379.996 391.91599 397.07599 407.79599 418.95599 428.79599 440.31601 451.03601 462.25601 474.17599"
         y="728"
         id="tspan88">и работу в офисе в 2020 году в Компании создали </tspan><tspan
         x="0 10.84 22.76 34.380001 44.32 54.900002 65.620003 76.839996 86.360001 98.279999 108.86 124.12 129.28 141.56 153.48 165.39999 173.75999 184.34 189.5 199.44 210.67799 221.258 232.778 243.938 254.778 265.93799 277.858 283.01801 293.73801 304.95801 315.67801 326.51801 339.698 344.858 350.436 362.056 372.776 382.616 395.896 406.81601 422.716 433.63599 445.556 456.276"
         y="754"
         id="tspan90">виртуальную Книгу трудовой славы (размещена </tspan><tspan
         x="0 11.92 22.639999 27.799999 37.419998 48.580002 60.200001 71.720001 82.879997 94.5 105.22 115.16 127.08 137.92 149.84 161 174.28 179.44 190.96001 202.12 213.74001 223.67999 234.39999 245.62 255.658 262.03799 266.798 271.95801 285.01801 290.17801 301.698 313.31799 324.478 335.39801 345.51801 355.45801 366.37799 371.53799 383.05801 394.67801 406.59799 418.51801 428.89801 440.11801 452.03799 457.198 467.77802 478.31799 489.03799 499.758 509.698 521.61798 532.53802"
         y="780"
         id="tspan92">на корпоративном портале). В проекте приняли участие </tspan><tspan
         x="0 11.2 20.940001 26.1 36.82 47.98 57.919998 69.160004 79.739998 91.260002 103.18 115.1 124.718 135.87801 146.718"
         y="806"
         id="tspan94">27 сотрудников.</tspan><tspan
         x="594 608 619.15997 632.44 644.35999 657.64001 668.79999 673.96002 684.67999 694.62 705.78003 713.90002 724.81799 729.55798 734.71802 742.67798 754.578 766.89801 772.05798 783.67798 794.39801 805.73798 816.89801 826.83801 838.758 850.67798 860.29797 871.45801 882.29797 887.45801 898.79797 911.97803 923.198 935.11798 940.27802 951.79797 962.95801 974.11798 990.01801 1001.638 1012.558 1024.478 1037.658"
         y="493"
         id="tspan96">Помимо этого, 140 работников были поощрены </tspan><tspan
         x="594 603.62 614.78003 626.40002 637.91998 649.08002 660.70001 671.41998 681.35999 693.28003 704.12 716.03998 729.21997 742.5 754.41998 759.58002 771.5 782.21997 790.58002 802.20001 812.91998 824.44 835.15997 848.44 860.35999 865.09998 870.26001 881.41998 892.94 904.85999 916.78003 921.94 932.65997 943.82001 953.76001 964.99597 975.57599 987.09601 999.01599 1010.936 1021.056 1026.2159 1037.736 1048.694 1059.9139 1070.494 1081.0341 1092.954 1104.174"
         y="519"
         id="tspan98">корпоративными наградами, один сотрудник получил </tspan><tspan
         x="594 605.91998 616.64001 625 636.23999 646.82001 658.34003 670.26001 683.44 695.35999 700.52002 710.35999 722.28003 733 743.12 748.28003 760.34003 774.34003 785.5 796.03998 806.96002 816.90002 828.82001 842 853.91998 859.08002 874.06 884.89801 896.11798 907.03802 916.87799 928.79797 939.95801 951.47803 962.638 974.258 985.41803 1000.398 1012.318 1024.238 1034.358 1046.418 1051.158 1056.318 1067.838 1078.218 1088.158 1097.678 1102.838 1118.178"
         y="545"
         id="tspan100">нагрудный знак «Почетный железнодорожник», пять — </tspan><tspan
         x="594 605.34003 616.56 627.28003 635.40002 646.56 658.08002 668.79999 680.41998 692.34003 703.5 714.21997 724.15997 733.67999 738.84003 752.12 764.03998 775.96002 787.88 798.59998 808.53998 820.15997 830.88 836.03998 845.97998 857.59998 868.32001 880.23999 890.96002 902.47998 913.64001 925.26001 935.20001 945.91998 951.08002 963.64001 974.79999 985.52002 996.23999 1008.16 1020.08 1030.8 1040.416 1051.576 1063.496"
         y="571"
         id="tspan102">благодарность министра транспорта Российской </tspan><tspan
         x="594 610.5 621.41998 632.94 643.85999 655.47998 666.20001 678.21997 690.14001 702.06"
         y="597"
         id="tspan104">Федерации.</tspan><tspan
         x="594 609.59998 622.78003 627.94 637.88 648.59998 658.71997 673.70001 684.62 689.78003 701.29999 712.46002 722.29999 733.82001 745.44 756.15997 767 778.21997 788.59998 799.52002 812.79999 817.96002 828.67999 840.20001 851.12 863.14001 875.06 885.78003 897 908.91998 919.64001 929.58002 940.73999 951.58002 956.73999 967.46002 978.62 983.78003 993.62 1005.54 1016.26 1026.8 1038.72 1052 1065.1801 1078.46 1090.38"
         y="636"
         id="tspan106">Мы также поздравляем специалистов со значимыми </tspan><tspan
         x="594 605.52002 616.23999 626.17999 636.90002 650.17999 662.09998 667.26001 678.79999 683.96002 694.08002 699.23999 714.5 725.84003 737.76001 748.97998 759.90002 770.28003 783.56 788.71997 800.34003 811.06 822.40002 833.56 843.5 855.41998 867.34003 877.46002 889.38 894.53998 906.06 917.01599 928.23602 938.81598 949.35602 960.07599 975.336 985.276 990.43597 1001.956 1012.876 1024.796 1035.7159 1050.696 1062.616 1075.796 1086.7159"
         y="662"
         id="tspan108">датами – к юбилеям работники получают денежные </tspan><tspan
         x="594 605.52002 617.14001 628.06 641.34003 653.26001 665.17999 669.94 675.09998 688.15997 693.32001 704.52002 716.84003 728.03998 740.35999 745.52002 753.638 764.79797 776.31799 786.89801 792.05798 803.97803 814.698 819.85797 830.578 840.51801 852.43799 857.59802 869.61798 880.45801 891.67798 903.59802 908.758 920.09802 933.27802 944.49799 955.65802 960.81799 972.33801 983.49799 993.43799 1005.058 1015.778 1026.318 1037.238 1049.158 1060.318"
         y="688"
         id="tspan110">премии. В 2020 году на эти цели было потрачено </tspan><tspan
         x="594 601.96002 606.70001 617.90002 623.06 636.34003 647.56 659.47998 664.64001 675.87799 686.45801 697.79797 709.01801 719.93799 731.85797"
         y="714"
         id="tspan112">1,2 млн рублей.</tspan><tspan
         x="594 608 621 634.23999 639.40002 651.46002 665.46002 675.56 687.84003 699.90002 705.06 716.97998 727.70001 740.97998 751.90002 763.52002 774.44 786.35999 797.52002 802.67999 814.20001 825.35999 836.88 848.40002 859.32001 870.94 885.91998 897.84003 908.67999 919.40002 929.34003 938.85999 944.02002 955.94 961.09998 972.71997 983.44 993.28003 1004.12 1016.04 1026.88 1037.6 1047.54 1057.0601"
         y="753"
         id="tspan114">ПАО «ПГК» намерено поддерживать и развивать </tspan><tspan
         x="594 604.71997 616.64001 627.35999 637.29999 648.21997 661.5 672.08002 677.23999 689.15997 700.08002 713.35999 724.08002 734.02002 744.94 756.56 768.47998 779.20001 790.41998 799.94 811.85999 823.02002 831.138 842.29797 847.45801 858.29797 869.45801 879.29797 891.21802 901.93799 910.29797 921.91803 932.638 947.61798 959.138 970.05798 981.97803 993.89801 1004.278 1009.438 1020.278 1025.438 1037.058 1047.778 1061.058 1071.178 1081.8979 1092.2581"
         y="779"
         id="tspan116">систему нематериального вознаграждения в рамках </tspan><tspan
         x="594 604.58002 614.52002 625.35999 636.28003 647.90002 662.88 674.40002 685.32001 697.23999 709.15997 720.32001 732.23999 737.40002 751.40002 763.73798 773.47803 784.198 794.138 805.758 816.47803 826.41803 837.33801 845.698 857.61798 869.53802"
         y="805"
         id="tspan118">утвержденной HR-стратегии.</tspan></text><text
       transform="matrix(1,0,0,-1,1287,912.8201)"
       style="font-variant:normal;font-weight:500;font-stretch:normal;font-size:28px;font-family:'Rubik Medium';-inkscape-font-specification:Rubik-Medium;writing-mode:lr-tb;fill:#000000;fill-opacity:1;fill-rule:nonzero;stroke:none"
       id="text124"><tspan
         x="0 19.18 35.784 53.647999 71.120003 87.136002 104.048 118.916 136.388 152.40401 168.532 174.916 191.52 206.388 222.76801 238.952 253.82001 269.836 284.70401 301.08401 317.26801 334.73999 352.21201 368.81601 384.832 399.70001"
         y="0"
         id="tspan122">Социальная ответственность</tspan></text><text
       transform="matrix(1,0,0,-1,1287,873.8201)"
       style="font-variant:normal;font-weight:300;font-stretch:normal;font-size:20px;font-family:'Rubik Light';-inkscape-font-specification:Rubik-Light;writing-mode:lr-tb;fill:#000000;fill-opacity:1;fill-rule:nonzero;stroke:none"
       id="text174"><tspan
         x="0 15.6 28.780001 33.939999 45.099998 56.439999 67.360001 78.080002 89.599998 100.52 111.06 122.98 133.82001 144.53999 155.46001 168.74001 173.89999 184.62 195.46001 206.62 218.53999 228.89999 234.06 244.78 255.94 265.88 277.116 287.69601 299.216 311.13599 323.056 332.67599 343.836 354.67599 359.836 370.67599 381.396 392.31601 404.23599"
         y="0"
         id="tspan126">Мы обеспечиваем своих сотрудников всей </tspan><tspan
         x="0 11.92 22.84 34 45.34 55.700001 66.860001 78.379997 90.300003 103.58 114.74 126.66 131.82001 142.53999 153.7 165.72 177.64 188.36 199.58 209.10001 221.02 232.17999 244.10001 249.25999 260.78 271.94 283.45999 294.98001 305.89999 317.51999 332.5 342.116 353.276 365.19601 370.35599 381.19601 386.35599 397.07599 408.23599 419.396 429.336 440.17599 451.09601 461.03601 471.75601 481.69601 492.53601 504.45599 516.37598"
         y="26"
         id="tspan128">необходимой социальной поддержкой в соответствии </tspan><tspan
         x="0 10.72 15.88 25.82 37.439999 48.360001 59.700001 70.860001 81.699997 92.419998 104.34 116.26 126.64 139.92 151.84 157 168.62 179.78 190.5 201.22 213.14 225.06 235.78 245.39799 256.55801 264.67801 275.83801 280.99799 290.83801 301.55801 311.17599 322.336 334.25601 345.41599 356.936 367.65601 377.59601 388.436 399.65601 409.17599 419.896 429.836 440.67599 451.396 456.13599 461.29599 472.01599 477.17599 487.116 497.836 507.95599 522.93597 533.85602"
         y="52"
         id="tspan130">с требованиями российского законодательства, а также </tspan><tspan
         x="0 11.62 22.540001 33.259998 44.48 56.400002 66.239998 76.477997 87.398003 100.678 105.838 117.178 128.138 139.358 148.87801 164.258 175.418 186.338 191.498 201.118 212.078 223.298 235.218 245.758 256.67801 267.39801 277.33801 288.17801 299.33801 304.49799 316.01801 327.17801 338.698 349.65601 360.87601 372.79599 384.716 394.65601 405.496 416.716 426.23599 438.15601 451.336 461.69601"
         y="78"
         id="tspan132">реализуем большое количество дополнительных </tspan><tspan
         x="0 11.52 23.139999 34.299999 42.66 54.279999 65 78.279999 91.559998 96.300003 101.46 113.38 124.1 135.62 147.24001 157.96001 168.8 180.02 190.94 202.86 214.78 227.96001 238.32001 243.48 255.39999 266.12 271.28 282 293.16 303 314.51999 325.23999 337.16 349.07999 360 365.16 378.44 389.16 398.776 409.496 421.41599 434.69601 445.41599 456.63599 466.15601 478.07599 489.23599"
         y="104"
         id="tspan134">программ, направленных на создание максимально </tspan><tspan
         x="0 9.6199999 20.780001 34.060001 47.639999 58.799999 70.419998 80.360001 92.279999 105.46 115.82 120.98 131.218 141.938 153.158 164.31799 175.158 187.078 198.998 204.158 215.67799 226.89799 237.278 242.438 254.058 264.77802 276.11801 287.27802 297.21799 310.39801 315.55801 327.478 332.638 344.15799 355.77802 366.93799 380.51801 391.43799 402.15799 412.87799 424.798 435.95801 447.87799 458.59799 469.81799 479.33801 491.258 502.418 510.534 521.69397"
         y="130"
         id="tspan136">комфортных условий для работы и профессионального </tspan><tspan
         x="0 11.62 22.34 32.18 43.02 54.939999 64.879997 76.800003 87.18 92.339996 101.958 113.118 126.398 137.118 149.03799 160.558 173.73801"
         y="156"
         id="tspan138">развития команды.</tspan><tspan
         x="0 12.84 23.68 34.900002 45.279999 55.66 66.379997 75.900002 81.059998 92.220001 102.16 113 123.92 133.86 144.58 154.52 165.36 176.28 188.2 200.12 213.3 226.58 231.74001 243.36 254.08 265.42001 276.57999 286.51999 297.67999 309.20001 319.92001 329.85999 340.69601 351.91599 362.836 376.116 380.85599 386.01599 400.01599 410.116 422.396 427.556 438.13599 449.65601 460.49399 471.71399 482.09399 493.01401 502.95401"
         y="195"
         id="tspan140">Являясь ответственным работодателем, ПГК уделяет </tspan><tspan
         x="0 11.34 22.299999 33.52 43.040001 58.419998 69.580002 80.5 85.660004 96.5 108.42 120.34 133.62 144.34 156.25999 168.17999 179.10001 184.25999 194.98 206.14 218.16 230.08 240.8 252.02 261.54001 273.45999 284.62 296.54001 301.70001 313.22 324.38 335.89999 347.42001 358.34 369.95999 384.94 394.556 405.47601 410.63599 422.25601 432.97601 444.31601 455.47601 465.41599 477.336 489.25601 498.87399 510.034 520.87402"
         y="221"
         id="tspan142">большое внимание социальной поддержке работников </tspan><tspan
         x="0 11.92 17.08 27.620001 38.84 49.759998 61.68 72.839996 83.68 88.839996 100.76 111.12 116.28 127 137.92 151.2 162.12 174.03999"
         y="247"
         id="tspan144">и членов их семей.</tspan><tspan
         x="0 14 24.719999 36.240002 47.860001 58.580002 69.419998 80.639999 91.559998 103.48 115.4 125.78 139.06 150.98 156.14 168.06 173.22 185.24001 196.078 207.298 217.67799 230.95799 242.87801 248.03799 258.758 269.918 281.93799 293.858 304.578 315.798 325.31799 337.23801 348.39801 360.31799 365.478 376.99799 387.95599 399.17599 411.09601 421.03601 432.95599 443.07599 454.996"
         y="286"
         id="tspan146">Направлениями и целями социальной политики </tspan><tspan
         x="0 9.6199999 20.780001 34.060001 45.580002 56.299999 68.220001 80.139999 92.059998 97.220001 107.6 118.44 129.66 140.03999 155.3 165.24001 175.96001 186.34"
         y="312"
         id="tspan148">компании являются:</tspan><tspan
         x="0 11.52 23.139999 34.060001 45.580002 56.740002 67.459999 77.400002 88.120003 98.959999 110.18 121.1 133.02 144.94 155.86 161.02 171.74001 182.89999 194.92 206.84 217.56 228.78 238.3 250.22 263.39999 273.76001 278.92001 290.14001 299.66 307.776 318.936 328.87601 334.03601 345.95599 351.116 360.73599 371.896 385.17599 396.69601 407.616 419.53601 430.25601 440.97601 452.996 464.91599 476.836"
         y="351"
         id="tspan150">предоставление социальных льгот и компенсаций;</tspan><tspan
         x="0 7.5999999 18 29.16 40.5 51.419998 62.139999 73.660004 84.580002 95.120003 106.04 117.96 129.88 140.8 145.96001 154.32001 165.03999 176.66 187.38 199.3 209.24001 221.16 233.08 238.24001 248.08 258.79999 274.70001 286.62 302.51999 313.44 325.35999 337.28 348.44 359.16 369.10001 381.01999 386.17999 397.70001 409.32001 421.23999"
         y="390"
         id="tspan152">• обеспечение гарантий защищенности при </tspan><tspan
         x="18 28.84 40 49.84 61.759998 73.68 83.800003 95.720001 106.88 117.72 128.64 140.56 152.48 164.39999 169.56 181.48 192.39999 203.92 215.53999 226.46001 237.98 248.82001 260.73999 272.26001 283.17999 295.10001 307.01999 320.20001 330.56 335.72 346.88 358.22 368.60001 378.44 389.16 399.10001 409.93399 421.15399 430.67401 441.39401 451.33401 462.17401"
         y="416"
         id="tspan154">возникновении непредвиденных обязательств;</tspan><tspan
         x="0 7.5999999 18 29.16 40.779999 49.139999 59.860001 71.779999 83.699997 93.540001 104.26 116.28 128.2 138.58 143.74001 153.86 163.858 175.078 184.59801 194.53799 205.118 216.73801 228.658 239.81799 249.558 262.83801 273.55801 284.27802 294.99799 306.15799 316.99799 330.17801 340.53799 345.698 357.61801 362.77802 373.49799 385.01801 396.17801 407.798 417.73801 429.65799 440.49799 452.418 465.59799 475.95801"
         y="455"
         id="tspan156">• организация культурно-массовых и спортивных </tspan><tspan
         x="18 31.280001 42.200001 53.82 64.980003 76.5 88.120003 100.04 110.42 120.36 132.28 144.2"
         y="481"
         id="tspan158">мероприятий;</tspan><tspan
         x="0 7.5999999 18 29.52 41.139999 52.299999 65.879997 77.800003 89.019997 99.739998 109.86 119.8 131.72 141.84 152.56 157.72 167.56 178.28 189.62 200.578 211.798 222.718 233.558 244.278 255.198 268.478 279.638 290.358 300.298 312.21799 317.37799 329.298 334.45801 345.61801 355.978 367.59799 378.31799 390.23801 400.95801 406.11801 415.95801 427.478 438.638 450.258 461.418 472.258 481.77802 492.15799"
         y="520"
         id="tspan160">• профилактика заболеваемости и охрана здоровья;</tspan><tspan
         x="0 7.5999999 18 31.58 42.740002 54.360001 67.639999 79.559998 91.18 102.34 113.18 123.9 135.82001 147.74001 158.66 163.82001 175.16 186.38 197.10001 205.218 216.37801 227.89799 239.51801 251.438 261.81799 271.758 283.67801 294.83801 302.95599 314.116 319.276 329.996 341.15601 353.17599 365.09601 375.81601 387.03601 396.556 408.47601 419.63599"
         y="559"
         id="tspan162">• формирование благоприятного социально-</tspan><tspan
         x="18 29.52 40.240002 52.16 62.52 73.480003 84.699997 95.860001 104.22 116.14 126.68 137.60001 148.32001 157.938 169.09801 177.218 188.37801 193.53799 203.658 214.87801 226.798 240.078 250.798 260.73801 271.45801"
         y="585"
         id="tspan164">психологического климата.</tspan><tspan
         x="0 14 24.1 36.380001 41.540001 52.700001 64.220001 76.139999 87.300003 99.220001 104.38 116.3 126.14 131.3 142.82001 153.74001 165.36 176.2 189.38 199.74001 204.89999 216.42 227.58 238.3 249.52 260.44 265.60001 276.76001 288.10001 298.88 309.26001 320.10001 331.32001 342.23999 354.16 366.07999 376.45999 381.62 392.78 397.94 409.85999 420.57999 431.12 441.84 453.06 463.98001"
         y="624"
         id="tspan166">ПГК одной из первых после объявления о начале </tspan><tspan
         x="0 11.52 22.24 34.16 45.68 56.599998 69.879997 81.800003 93.720001 98.879997 111.9 124.758 137.51801 142.53799 156.078 164.998 172.95799 184.39799 189.558 201.078 211.998 223.618 234.53799 245.37801 256.216 267.436 278.15601 283.31601 294.65601 305.616 316.836 326.35599 341.73599 352.31601 367.57599 372.73599 383.276 393.996 404.716 414.65601 424.17599"
         y="650"
         id="tspan168">пандемии COVID-19 перевела большую часть </tspan><tspan
         x="0 11.62 22.34 33.68 44.84 54.779999 66.699997 78.620003 88.239998 99.400002 110.24 115.4 127.32 138.03999 143.2 154.72 166.64 177.36 187.3 198.02 209.94 221.96001 233.88 245.03999 256.95999 268.88 282.06 293.98001 299.14001 310.76001 321.67999 336.66 348.57999 361.85999 367.01999 378.64001 389.35999 400.70001 411.85999 421.79999 434.98001 439.73999"
         y="676"
         id="tspan170">работников на дистанционный режим работы. </tspan><tspan
         x="0 13.06 18.219999 28.940001 40.099998 51.259998 61.200001 72.040001 82.959999 92.900002 103.62 113.56 124.4 136.32001 148.24001 153.39999 164.12 169.28 180.89999 191.62 201.46001 213.08 223.8 235.14 246.3 256.23999 266.95999 278.88 290.79999 301.95999 313.88 319.04001 332.32001 343.48001 355 365.836 377.056 386.57599 401.836 406.996 417.57599 429.09601 440.716 451.436 462.276 473.496 483.87601 494.79599 508.07599 519.23602"
         y="702"
         id="tspan172">В соответствии с разработанной моделью управляемой</tspan></text><text
       transform="matrix(1,0,0,-1,693,612.9001)"
       style="font-variant:normal;font-weight:500;font-stretch:normal;font-size:20px;font-family:'Rubik Medium';-inkscape-font-specification:Rubik-Medium;writing-mode:lr-tb;fill:#000000;fill-opacity:1;fill-rule:nonzero;stroke:none"
       id="text178"><tspan
         x="0 11.96 27.32 39.400002 51.880001 56.439999 68.68 80.540001 92.400002 109.1 121.38 132.94 145.42 160.78 165.34 176.338 188.198 200.478 212.718 224.578 236.858 248.298 258.918 271.39801 283.09799 295.578 310.93799 325.01801 337.49799 342.05801 354.53799 365.978 374.89801 387.17801 398.61801 411.198 422.638 436.71799"
         y="0"
         id="tspan176">были поощрены корпоративными наградами</tspan></text><g
       id="g180"><g
         id="g182"><g
           id="g188"><g
             id="g190"><path
               d="m 1084.48,936.992 c -12.854,-4.382 -23.954,-11.056 -33.302,-20.011 v 0 c -9.347,-8.959 -16.605,-20.206 -21.763,-33.739 v 0 c -5.162,-13.538 -7.74,-29.459 -7.74,-47.762 v 0 c 0,-18.307 2.578,-34.228 7.74,-47.761 v 0 c 5.158,-13.538 12.416,-24.784 21.763,-33.74 v 0 c 9.348,-8.96 20.448,-15.628 33.302,-20.01 v 0 c 12.853,-4.382 26.97,-6.573 42.357,-6.573 v 0 c 15.382,0 29.505,2.191 42.357,6.573 v 0 c 12.853,4.382 23.954,11.05 33.302,20.01 v 0 c 9.348,8.956 16.601,20.202 21.763,33.74 v 0 c 5.157,13.533 7.741,29.454 7.741,47.761 v 0 c 0,18.303 -2.584,34.224 -7.741,47.762 v 0 c -5.162,13.533 -12.415,24.78 -21.763,33.739 v 0 c -9.348,8.955 -20.449,15.629 -33.302,20.011 v 0 c -12.852,4.381 -26.975,6.573 -42.357,6.573 v 0 c -15.387,0 -29.504,-2.192 -42.357,-6.573 m 20.157,-184.327 c -7.208,3.213 -13.584,8.325 -19.134,15.336 v 0 c -5.551,7.011 -10.033,16.066 -13.438,27.167 v 0 c -3.409,11.101 -5.112,24.538 -5.112,40.312 v 0 c 0,15.774 1.703,29.212 5.112,40.313 v 0 c 3.405,11.1 7.887,20.156 13.438,27.166 v 0 c 5.55,7.011 11.926,12.123 19.134,15.337 v 0 c 7.201,3.213 14.605,4.82 22.2,4.82 v 0 c 7.595,0 14.994,-1.607 22.201,-4.82 v 0 c 7.203,-3.214 13.584,-8.326 19.134,-15.337 v 0 c 5.55,-7.01 10.028,-16.066 13.437,-27.166 v 0 c 3.406,-11.101 5.112,-24.539 5.112,-40.313 v 0 c 0,-15.774 -1.706,-29.211 -5.112,-40.312 v 0 c -3.409,-11.101 -7.887,-20.156 -13.437,-27.167 v 0 c -5.55,-7.011 -11.931,-12.123 -19.134,-15.336 v 0 c -7.207,-3.213 -14.606,-4.821 -22.201,-4.821 v 0 c -7.595,0 -14.999,1.608 -22.2,4.821 M 926.446,937.722 793.531,803.055 V 779.978 H 936.67 v -46.739 h 42.356 v 46.739 h 24.83 v 20.448 h -24.83 v 137.296 z m 7.302,-37.976 h 2.922 v -99.32 H 835.888 Z M 727.66,937.722 678,902.668 l 13.145,-18.989 35.054,18.989 h 2.922 V 733.239 h 42.357 v 204.483 z"
               style="fill:url(#linearGradient196);stroke:none"
               id="path198" /></g></g></g></g><g
       id="g200"><g
         id="g202"
         clip-path="url(#clipPath206)"><g
           id="g208"
           transform="translate(869.3333,699.5)"><path
             d="m 0,0 h -163.333 c -11.046,0 -20,-8.954 -20,-20 0,-11.046 8.954,-20 20,-20 H 0 c 11.046,0 20,8.954 20,20 C 20,-8.954 11.046,0 0,0"
             style="fill:#e8e8ed;fill-opacity:1;fill-rule:nonzero;stroke:none"
             id="path210" /></g></g></g><text
       transform="matrix(1,0,0,-1,705.2917,672.2213)"
       style="font-variant:normal;font-weight:500;font-stretch:normal;font-size:28px;font-family:'Rubik Medium';-inkscape-font-specification:Rubik-Medium;writing-mode:lr-tb;fill:#000000;fill-opacity:1;fill-rule:nonzero;stroke:none"
       id="text214"><tspan
         x="0 17.191999 33.208 49.952 66.556 81.424004 98.896004 116.368 131.7652 148.3692"
         y="0"
         id="tspan212">работников</tspan></text><g
       id="g216"
       transform="translate(1818.8792,94.9844)"><path
         d="M 0,0 9.121,10.047 0,20.094 H -27.879 V 10.047 0 Z"
         style="fill:#faaa2d;fill-opacity:1;fill-rule:nonzero;stroke:none"
         id="path218" /></g><text
       transform="matrix(1,0,0,-1,1623,99.4401)"
       style="font-variant:normal;font-weight:300;font-stretch:normal;font-size:16px;font-family:'Rubik Light';-inkscape-font-specification:Rubik-Light;writing-mode:lr-tb;fill:#000000;fill-opacity:1;fill-rule:nonzero;stroke:none"
       id="text222"><tspan
         x="0 11.2 20.496 29.424 38.639999 47.408001 56.383999 68.367996 77.103996 86.639999 96.176003 104.912 109.04 118.576 127.152 131.28 139.856 147.808 156.9104 160.7184"
         y="0"
         id="tspan220">Продолжение на стр. </tspan></text><text
       transform="matrix(1,0,0,-1,1796.1024,99.4401)"
       style="font-variant:normal;font-weight:500;font-stretch:normal;font-size:16px;font-family:'Rubik Medium';-inkscape-font-specification:Rubik-Medium;writing-mode:lr-tb;fill:#ffffff;fill-opacity:1;fill-rule:nonzero;stroke:none"
       id="text226"><tspan
         x="0 9.8879995"
         y="0"
         id="tspan224">91</tspan></text><text
       transform="matrix(1,0,0,-1,37.6201,1023)"
       style="font-variant:normal;font-weight:300;font-stretch:normal;font-size:20px;font-family:'Rubik Light';-inkscape-font-specification:Rubik-Light;writing-mode:lr-tb;fill:#000000;fill-opacity:1;fill-rule:nonzero;stroke:none"
       id="text230"><tspan
         x="0 11.44"
         y="0"
         id="tspan228">90</tspan></text><g
       id="g232"><g
         id="g234"><g
           id="g236"
           clip-path="url(#clipPath240)"><text
             transform="matrix(1,0,0,-1,99,1023)"
             style="font-variant:normal;font-weight:300;font-stretch:normal;font-size:20px;font-family:'Rubik Light';-inkscape-font-specification:Rubik-Light;writing-mode:lr-tb;fill:#000000;fill-opacity:1;fill-rule:nonzero;stroke:none"
             id="text244"><tspan
               x="0 13.24 18.4 28.02 39.18 52.459999 63.98 74.699997 86.620003 98.540001"
               y="0"
               id="tspan242">О компании</tspan></text></g></g></g></g></svg>
