<?xml version="1.0" encoding="UTF-8" standalone="no"?>
<?xml-stylesheet type="text/css" href="main.css" ?>
<svg
   xmlns:dc="http://purl.org/dc/elements/1.1/"
   xmlns:cc="http://creativecommons.org/ns#"
   xmlns:rdf="http://www.w3.org/1999/02/22-rdf-syntax-ns#"
   xmlns:svg="http://www.w3.org/2000/svg"
   xmlns="http://www.w3.org/2000/svg"
   version="1.1"
   id="svg2"
   xml:space="preserve"
   width="2560"
   height="1440"
   viewBox="0 0 2560 1440"><metadata
     id="metadata8"><rdf:RDF><cc:Work
         rdf:about=""><dc:format>image/svg+xml</dc:format><dc:type
           rdf:resource="http://purl.org/dc/dcmitype/StillImage" /></cc:Work></rdf:RDF></metadata><defs
     id="defs6"><clipPath
       clipPathUnits="userSpaceOnUse"
       id="clipPath20"><path
         d="M 0,1080 H 1920 V 0 H 0 Z"
         id="path18" /></clipPath><clipPath
       clipPathUnits="userSpaceOnUse"
       id="clipPath60"><path
         d="M 0,0 H 1920 V 1080 H 0 Z"
         id="path58" /></clipPath></defs><g
     id="g10"
     transform="matrix(1.3333333,0,0,-1.3333333,0,1440)"><g
       id="g12"><g
         id="g14"><g
           id="g16"
           clip-path="url(#clipPath20)"><path
             d="M 0,0 H 1920 V 1080 H 0 Z"
             style="fill:#ffffff;fill-opacity:1;fill-rule:nonzero;stroke:none"
             id="path22" /></g></g></g><text
       transform="matrix(1,0,0,-1,99,953.4)"
       style="font-variant:normal;font-weight:normal;font-stretch:normal;font-size:38px;font-family:'Prosto One';-inkscape-font-specification:ProstoOne-Regular;writing-mode:lr-tb;fill:#000000;fill-opacity:1;fill-rule:nonzero;stroke:none"
       id="text30"><tspan
         x="0 34.200001 63.27 93.290001 124.45 156.37 187.53 200.83 227.62 257.64001 287.85001 320.91 352.07001"
         y="0"
         id="tspan24">ОХРАНА ТРУДА </tspan><tspan
         x="0 32.68 45.98 77.900002 107.92 142.12 183.92 223.63 265.23999 296.78 323.76001 355.67999 387.60001 418.76001 449.16"
         y="45.599998"
         id="tspan26">И ПРОМЫШЛЕННАЯ </tspan><tspan
         x="0 29.83 56.810001 85.120003 119.32 151.24001 182.39999 212.42 244.34 278.54001 308.56 335.35001"
         y="91.199997"
         id="tspan28">БЕЗОПАСНОСТЬ</tspan></text><text
       transform="matrix(1,0,0,-1,99,772.2801)"
       style="font-variant:normal;font-weight:300;font-stretch:normal;font-size:32px;font-family:'Rubik Light';-inkscape-font-specification:Rubik-Light;writing-mode:lr-tb;fill:#000000;fill-opacity:1;fill-rule:nonzero;stroke:none"
       id="text46"><tspan
         x="0 21.184 39.327999 56.799999 73.952003 92.384003 109.856 126.72 144.192 163.26401 182.336 199.808 208.064 226.20799 243.67999 259.42401 277.28 295.71201 312.86401 330.01599 349.08801 366.944 384.09601 400 419.07199"
         y="0"
         id="tspan32">Обеспечение безопасности </tspan><tspan
         x="0 17.152 35.007999 50.911999 69.503998 86.431999 104.864 123.936 143.008 159.2 177.056 194.39999 202.65601 218.84801 236.70399 257.952 276.384 293.53601 312.608 331.67999 350.75201 358.336"
         y="38.400002"
         id="tspan34">сотрудников компании, </tspan><tspan
         x="0 17.152 35.007999 51.584 70.176003 87.328003 106.4 123.872 142.944 162.01601 179.48801 187.744 205.60001 221.79201 240.384 257.31201 281.28 298.43201 322.84799 348.28799 365.76001 384.832"
         y="76.800003"
         id="tspan36">сохранение окружающей </tspan><tspan
         x="0 18.431999 37.023998 56.096001 74.688004 92.543999 110.976 130.048 147.90401 166.976 175.23199 192.384 210.976 228.448 246.88 267.96799"
         y="115.2"
         id="tspan38">природной среды </tspan><tspan
         x="0 19.072001 27.327999 45.183998 63.327999 80.800003 97.952003 116.384 133.856 150.72 168.192 187.26401 206.336 223.808 232.064 250.20799 267.67999 283.42401 300.57599 317.92001 335.07199 353.664 372.73599 391.80801 410.88 428.73599 447.80801"
         y="153.60001"
         id="tspan40">и обеспечение безаварийной </tspan><tspan
         x="0 18.591999 35.743999 53.888 71.744003 87.648003 108.736 116.992 135.424 154.01601 171.87199 190.944 206.688 224.032 241.888 260.32001 277.47198 293.37601 310.72 327.87201 336.12799 360.672 368.92801 388 405.15201 429.76001 448.832"
         y="192"
         id="tspan42">работы производства — наши </tspan><tspan
         x="0 13.376 31.327999 48.48 65.823997 84.896004 105.984 123.456 131.71201 147.45599 164.608 183.03999 200.192 217.056 236.12801"
         y="230.39999"
         id="tspan44">главные задачи.</tspan></text><text
       transform="matrix(1,0,0,-1,98.5,134)"
       style="font-variant:normal;font-weight:500;font-stretch:normal;font-size:28px;font-family:'Rubik Medium';-inkscape-font-specification:Rubik-Medium;writing-mode:lr-tb;fill:#000000;fill-opacity:1;fill-rule:nonzero;stroke:none"
       id="text52"><tspan
         x="0 18.143999 35.560001 53.647999 73.108002 93.519997 112.924 132.076 152.48801 171.948 191.10001 208.03999 225.70799 232.12 253.62399"
         y="0"
         id="tspan48">БЕЗОПАСНОСТЬ — </tspan><tspan
         x="0 20.412001 39.816002 46.228001 66.639999 84.056 102.508 121.716 141.17599 163.884 170.29601 193.004 210.42 229.57201 246.51199 263.92801 271.43201"
         y="33.992001"
         id="tspan50">НА ПЕРВОМ МЕСТЕ! </tspan></text><g
       id="g54"><g
         id="g56"
         clip-path="url(#clipPath60)"><g
           id="g62"
           transform="translate(56.4,150.75)"><path
             d="m 0,0 c -1.4,1.9 -3.367,2.85 -5.9,2.85 -2.267,0 -4.084,-0.75 -5.45,-2.25 -1.367,-1.5 -2.05,-3.25 -2.05,-5.25 0,-2 0.666,-3.75 2,-5.25 1.333,-1.5 3,-2.25 5,-2.25 0.666,0 1.266,0.067 1.8,0.2 0.266,0.067 0.5,0.167 0.7,0.3 -0.267,-2 -1.15,-3.583 -2.65,-4.75 -1.5,-1.166 -3.117,-1.75 -4.85,-1.75 v -3.5 c 1.6,0 3.216,0.284 4.85,0.85 1.633,0.567 3.083,1.467 4.35,2.7 1.266,1.234 2.3,2.8 3.1,4.7 0.8,1.9 1.2,4.15 1.2,6.75 C 2.1,-4.117 1.4,-1.9 0,0 M 20,0 C 18.6,1.9 16.633,2.85 14.1,2.85 11.833,2.85 10.016,2.1 8.65,0.6 7.283,-0.9 6.6,-2.65 6.6,-4.65 c 0,-2 0.666,-3.75 2,-5.25 1.333,-1.5 3,-2.25 5,-2.25 0.666,0 1.266,0.067 1.8,0.2 0.266,0.067 0.5,0.167 0.7,0.3 -0.267,-2 -1.15,-3.583 -2.65,-4.75 -1.5,-1.166 -3.117,-1.75 -4.85,-1.75 v -3.5 c 1.6,0 3.216,0.284 4.85,0.85 1.633,0.567 3.083,1.467 4.35,2.7 1.266,1.234 2.3,2.8 3.1,4.7 0.8,1.9 1.2,4.15 1.2,6.75 0,2.533 -0.7,4.75 -2.1,6.65"
             style="fill:#fdb73e;fill-opacity:1;fill-rule:nonzero;stroke:none"
             id="path64" /></g></g></g><text
       transform="matrix(1,0,0,-1,693,961.3)"
       style="font-variant:normal;font-weight:300;font-stretch:normal;font-size:20px;font-family:'Rubik Light';-inkscape-font-specification:Rubik-Light;writing-mode:lr-tb;fill:#000000;fill-opacity:1;fill-rule:nonzero;stroke:none"
       id="text96"><tspan
         x="0 13.52 24.24 36.16 48.080002 59.240002 70.160004 75.32 87.239998 97.959999 109.48 121.1 131.82001 142.66 153.88 164.8 176.72 188.64 199.56 204.72 215.10001 225.94 237.16 247.53999 258.45999 268.39999 279.12 289.5 294.66 305.82001 317.34 329.26001 341.17999 354.45999 359.62 371.54001 381.38 386.54001 397.38 408.10001 423.07999 435 445.92001 457.84 473.22 485.14001 495.5"
         y="0"
         id="tspan66">Данное направление является одним из важнейших </tspan><tspan
         x="0 10.72 15.88 25.82 36.98 47.52 57.639999 69.559998 74.720001 84.559998 96.18 107.1 119.02 130.94 141.32001 146.48 160.06 171.22 182.84 196.12 208.03999 219.66 230.82001 241.66 252.38 264.29999 276.22 286.60001 291.76001 303.38 314.29999 325.82001 336.39999 346.34 357.06 369.07999 381 392.92001 398.07999 410.35999 421.51999 434.79999 446.32001 457.04001 468.95999 480.88 492.79999 497.56"
         y="26"
         id="tspan68">с точки зрения формирования репутации Компании. </tspan><tspan
         x="0 13.06 18.219999 32.220001 42.32 54.599998 59.759998 70.480003 81.639999 91.480003 103 113.72 125.64 136.36 141.52 153.44 158.60001 169.32001 182.89999 196.48 207.39999 217.52 227.46001 239.38 250.22 262.14001 273.29999 278.45999 292.04001 302.62 314.54001 324.66 336.67999 348.60001 359.76001 371.67999 383.60001 395.22 405.79999 416.72 426.66"
         y="52"
         id="tspan70">В ПГК создана и эффективно функционирует </tspan><tspan
         x="0 10.72 22.639999 33.360001 43.299999 54.220001 67.5 78.220001 83.379997 93.959999 105.48 117.1 127.82 138.66 149.88 160.8 172.72 184.64 195.02 200.17999 211.34 221.7 233.32001 244.03999 255.96001 267.12 279.04001 284.20001 294.14001 305.76001 316.34 327.85999 338.57999 343.32001 348.48001 360 371.62 382.78 396.06 409.23999 424.62 435.84 446.76001 458.67999 470.60001 481.76001 493.67999 498.42001"
         y="78"
         id="tspan72">система управления охраной труда, промышленной, </tspan><tspan
         x="0 11.52 22.68 37.66 48.380001 60 71.919998 83.080002 95 100.16 112.08 117.24 127.96 138.08 149.24001 160.46001 171.62 179.98 191.89999 202.44 213.36 224.08 234.2 245.36 257.28 262.44 273.78 284.70001 294.54001 305.70001 317.22 327.94 338.66 350.57999 361.73999 372.45999 382.39999 394.32001 399.07999 404.23999 416.07999 427"
         y="104"
         id="tspan74">пожарной и экологической безопасности. Ее </tspan><tspan
         x="0 11.16 21.879999 33.799999 44.959999 55.799999 67.720001 80.900002 91.82 96.980003 108.5 120.12 132.03999 143.96001 155.98 167.89999 179.42 192.60001 197.75999 213.10001 218.25999 229.10001 242.28 253.8 264.95999 276.17999 288.10001 299.01999 310.94 322.85999 333.78 338.94 352.94 364.10001 375.32001 387.23999 397.17999 409.10001 419.22 431.14001"
         y="130"
         id="tspan76">основные принципы — выполнение Политики </tspan><tspan
         x="0 10.84 16 27.16 38.5 49.720001 60.439999 71.160004 81.099998 93.019997 98.18 109.34 119.7 131.32001 142.03999 153.96001 167.14 172.3 182.24001 193.86 204.44 215.96001 226.67999 231.42 236.58 248.10001 259.72 270.88 284.16 297.34 312.72 323.94 334.85999 346.78 358.70001 369.85999 381.78 386.51999 391.67999 403.20001 414.35999 429.34 440.06 451.67999 463.60001 474.76001 486.67999"
         y="156"
         id="tspan78">в области охраны труда, промышленной, пожарной </tspan><tspan
         x="0 11.92 17.08 27.799999 37.919998 49.080002 60.299999 71.459999 79.82 91.739998 102.28 113.2 123.92 134.03999 145.2 157.12 162.28 173.62 184.53999 194.38 205.53999 217.06 227.78 238.5 250.42 261.57999 272.29999 282.23999 294.16 299.32001 311.23999 316.39999 324.76001 336.38 347.10001 362.07999 373.60001 384.32001 396.23999 406.95999 417.07999 428.23999 440.16"
         y="182"
         id="tspan80">и экологической безопасности и гражданской </tspan><tspan
         x="0 11.16 22.5 33.66 45.279999 56.439999 68.360001 81.540001 86.279999 91.440002 102.96 114.58 125.5 137.02 147.60001 159.12 170.74001 181.66 196.64 208.16 219.08 231 242.92 253.84 259 270.92001 276.07999 287.29999 299.22 309.34 320.17999 332.10001 343.62 354.34 366.35999 378.28 388.66 393.82001 404.35999 415.98001 426.89999 436.73999 447.57999 460.76001 471.29999 482.01999 493.94 505.85999 519.03998 529.40002"
         y="208"
         id="tspan82">обороны, предупреждение и ликвидация чрезвычайных </tspan><tspan
         x="0 10.72 22.639999 32.580002 43.16 53.880001 65.900002 77.82 89.739998 94.480003 99.639999 110.36 121.52 131.88 143.5 154.22 166.14 177.06 188.98 200.89999 211.82001 216.98 231.96001 243.88 253.72 265.64001 277.56 282.72 294.64001 299.79999 309.64001 321.16 332.32001 343.94 355.10001 365.94 375.45999 385.84 391 401.72 412.88 422.82001 434.44 445.01999 456.54001 468.45999 480.38 490.5 501.66 512.5 517.23999"
         y="234"
         id="tspan84">ситуаций, сохранение жизни и здоровья сотрудников, </tspan><tspan
         x="0 11.92 22.84 34.360001 45.52 57.040001 67.620003 83.519997 94.440002 106.36 118.28 129.2 134.25999 144.98 156.2 166.78 177.32001 188.03999 198.96001 209.8 214.862 226.382 238.002 249.162 261.082 270.922 281.76199 292.922 304.44199 315.16199 325.10199 335.94199 346.862 358.78201 370.702 381.862 390.22198 401.38199 406.44199 416.38199 428.00201 438.72198 449.56201 462.84201 473.56201 483.50201 495.422 505.26199 518.54199 529.26202 534.00201"
         y="260"
         id="tspan86">недопущение случаев производственного травматизма, </tspan><tspan
         x="0 10.54 22.16 33.080002 42.919998 53.759998 66.940002 77.480003 88.199997 100.12 112.04 125.22 135.58 140.74001 152.25999 163.88 175.03999 186.96001 197.67999 213.06 223.98 234.7 244.64 255.48 267.39999 279.32001 284.06 289.22 299.94 310.06 321.22 332.44 343.60001 351.95999 363.88 374.42001 385.34 396.06 406.17999 418.10001 428.45999"
         y="286"
         id="tspan88">чрезвычайных происшествий, экологических </tspan><tspan
         x="0 10.12 20.84 30.780001 41.5 52.220001 62.16 73.779999 84.940002 98.519997 103.26 108.42 119 130.22 140.8 151.34 166.72 177.64 189.56 201.48 212.39999 217.56 228.14 238.86 250.08 261.23999 272.07999 284 295.92001 301.07999 311.01999 322.64001 333.22 344.73999 355.45999 360.62 371.34 382.5 392.44 404.06 414.64001 426.16 438.07999 450 460.12 471.28 482.12"
         y="312"
         id="tspan90">катастроф, улучшение условий труда сотрудников </tspan><tspan
         x="0 11.92 17.08 28.6 39.759998 50.599998 63.779999 79.160004 90.080002 102 113.92 124.84 130 140.12 150.7 161.92 171.44 181.38 191.96001 203.58 216.75999 221.92 233.25999 244.17999 254.02 265.17999 276.70001 287.42001 298.14001 310.06 321.22 331.94 341.88 353.79999 358.95999 370.48001 381.64001 386.79999 397.51999 408.67999 420.01999 431.23999 446.5 458.01999 468.94 480.85999 492.78 508.04001"
         y="338"
         id="tspan92">и повышение культуры безопасности по соблюдению </tspan><tspan
         x="0 9.9399996 21.559999 32.48 43.82 54.98 65.82 76.540001 88.459999 100.38 112.3 117.46 128.8 139.72 149.56 160.72 172.24001 182.96001 193.67999 205.60001 216.75999 227.48 237.42 249.34 254.5 264.44 276.06 286.64001 298.16 308.88"
         y="364"
         id="tspan94">требований безопасности труда.</tspan></text><text
       transform="matrix(1,0,0,-1,693,524.3)"
       style="font-variant:normal;font-weight:500;font-stretch:normal;font-size:28px;font-family:'Rubik Medium';-inkscape-font-specification:Rubik-Medium;writing-mode:lr-tb;fill:#000000;fill-opacity:1;fill-rule:nonzero;stroke:none"
       id="text100"><tspan
         x="0 19.459999 35.251999 52.444 68.431999 85.875999 101.864 108.276 123.116 140.308 156.26801 173.85201"
         y="0"
         id="tspan98">Охрана труда</tspan></text><text
       transform="matrix(1,0,0,-1,693,485.3)"
       style="font-variant:normal;font-weight:300;font-stretch:normal;font-size:20px;font-family:'Rubik Light';-inkscape-font-specification:Rubik-Light;writing-mode:lr-tb;fill:#000000;fill-opacity:1;fill-rule:nonzero;stroke:none"
       id="text190"><tspan
         x="0 12.64 23.559999 33.400002 44.560001 56.080002 66.800003 77.519997 89.440002 102.62 113.54 118.7 130.62 135.78 145.62 157.14 168.3 179.92 191.08 201.92 215.10001 226.02 231.17999 241.75999 252.48 263.70001 274.85999 285.70001 297.62 308 313.16 323.10001 334.72 345.29999 356.82001 367.54001 372.70001 383.07999 393.92001 405.14001 415.51999 430.78 440.72 451.44 461.82001"
         y="0"
         id="tspan102">Безопасные и здоровые условия труда являются </tspan><tspan
         x="0 11.92 22.84 28 37.939999 49.099998 60.32 69.839996 79.959999 91.120003 96.279999 109.56 120.72 132.34 143.06 154.28 163.8 175.72 186.88 196.62 211.88 223.5 235.42 246.94 258.85999 269.39999 280.32001 291.04001 301.16 313.07999 326.35999 331.51999 342.67999 354.01999 364.39999 374.23999 384.95999 394.89999 405.82001 417.04001 426.56 437.28 447.22 458.06 469.22 482.5 487.23999"
         y="26"
         id="tspan104">не только морально-юридическим обязательством, </tspan><tspan
         x="0 11.92 23.08 28.24 40.16 45.32 56.48 68 79.620003 90.339996 101.18 112.7 125.88 136.72 147.44 162.7 172.64 177.8 188.52 199.44 210.78 221.16 226.32001 237.03999 247.16 258.32001 270.23999 281.39999 294.67999 306.60001 317.14001 328.06 338.78 348.89999 360.82001 365.57999 370.73999 385.26001 397.17999 408.01999 418.94 429.66 439.60001 451.51999 463.54001 475.45999 487.38"
         y="52"
         id="tspan106">но и оправдывают себя экономически. Инвестиции </tspan><tspan
         x="0 10.84 16 27.16 37.52 49.139999 59.860001 71.779999 82.360001 87.519997 97.459999 109.08 119.66 131.17999 141.89999 147.06 158.58 169.74001 179.58 190.42 201.58 212.8 223.17999 238.44 248.38 253.53999 265.45999 275.29999 286.64001 297.56 312.54001 323.26001 333.20001 342.72 347.88 358.42001 369.34 380.56 391.72 402.56 413.48001 424.01999 434.94 445.66 455.78 467.70001 478.06"
         y="78"
         id="tspan108">в охрану труда позволяют избежать человеческих </tspan><tspan
         x="0 10.72 20.66 32.279999 43 54.52 65.239998 77.160004 89.080002 101 106.16 118.08 123.24 133.08 143.8 159.7 171.62 181.56 193.48 203.42 212.94 218.10001 228.82001 239.53999 252.82001 263.98001 274.89999 280.06 292.07999 303 314.92001 326.84 338 348.92001 353.66 358.82001 369.35999 379.29999 390.45999 395.62 406.20001 411.35999 423.28 434 444.72 449.88 460.79999 471.51999 481.45999 490.98001 495.72 500.88 516.21997"
         y="104"
         id="tspan110">страданий и защитить самое ценное, что у нас есть, — </tspan><tspan
         x="0 11.92 22.639999 38.02 48.939999 54.099998 63.939999 75.459999 86.620003 98.239998 109.4 120.24 129.75999 140.67999 145.84 157.75999 162.92 177.89999 189.82001 199.66 211.58 221.10001 225.86 231.02 243.66 254.58 264.42001 275.57999 287.10001 297.82001 308.54001 320.45999 331.62 342.34 352.28 361.79999 366.95999 378.88 389.60001 394.76001 406.28 417.89999 429.06 440.98001 450.82001 461.66 472.82001 484.34 495.06 505 515.84003 526.76001"
         y="130"
         id="tspan112">наше здоровье и жизнь. Безопасность на производстве </tspan><tspan
         x="0 10.38 21.219999 32.439999 42.82 53.740002 63.68 74.400002 84.779999 89.940002 101.28 112.2 122.04 132.62 143.34 154.56 165.72 176.56 188.48 201.66 214.94 220.10001 231.62 243.24001 255.16 266.32001 277.94 289.85999 299.79999 310.72 320.66 331.82001 345.10001 350.26001 361.78 373 383.38 388.54001 402.54001 412.64001 424.92001 429.67999"
         y="156"
         id="tspan114">является безусловным приоритетом для ПГК. </tspan><tspan
         x="0 13.06 18.219999 28.940001 38.880001 50.5 61.419998 74.699997 85.919998 96.839996 108.76 120.68 132.60001 137.75999 149.28 160.44 171.16 181.10001 193.02 208 218.92 230.84 242.75999 253.14 258.29999 270.22 280.79999 292.01999 302.94 313.78 324.94 333.29999 344.45999 349.62 359.56 371.17999 381.89999 392.73999 406.01999 416.73999 426.67999 438.60001 448.44 461.72 472.44"
         y="182"
         id="tspan116">В стремлении достижения нулевого травматизма </tspan><tspan
         x="0 12.28 23.440001 36.720001 48.240002 58.959999 70.879997 82.800003 93.18 98.339996 109.86 121.02 131.74001 141.67999 152.84 163.22 175.14 187.06 198.22 203.38 213.96001 225.17999 235.75999 246.3 261.67999 272.39999 283.32001 293.26001 298.42001 309.14001 321.06 331.78 341.72 352.64001 365.92001 376.5 381.66 392.23999 403.76001 415.38 426.10001 436.94 448.16 459.07999 471 482.92001 493.29999"
         y="208"
         id="tspan118">Компания постоянно улучшает систему управления </tspan><tspan
         x="0 11.16 21.52 33.139999 43.860001 55.779999 66.940002 78.860001 84.019997 93.959999 105.58 116.16 127.68 138.39999 143.56 155.48 160.64 172.16 183.78 194.94 208.22 221.39999 236.78 248 258.92001 270.84 282.76001 293.92001 305.84 311 322.34 333.26001 343.10001 354.26001 365.78 376.5 387.22 399.14001 410.29999 421.01999 430.95999 442.88"
         y="234"
         id="tspan120">охраной труда и промышленной безопасности.</tspan><tspan
         x="0 13.06 18.219999 29.42 41.740002 52.939999 65.260002 70.419998 78.779999 89.940002 101.46 112.04 117.2 130.48 143.66 148.82001 160.74001 171.46001 182 192.72 203.94 215.86 221.02 232.64 243.56 254.28 265.5 277.42001 287.26001 298.42001 309.26001 322.44 333.28 344 353.94 363.45999 368.62 382.62 394.23999 405.39999 413.76001 425.38 436.10001 449.38 462.66 473.23999"
         y="273"
         id="tspan122">В 2020 году мы начали реализовывать Программу </tspan><tspan
         x="0 11.62 22.34 32.18 43.02 54.939999 64.879997 76.800003 87.18 92.339996 105.92 116.5 128.42 138.53999 150.56 162.48 173.64 185.56 196.28 207.5 217.02 228.94 240.10001 248.46001 259.62 264.78 276.70001 287.42001 298.94 310.56 321.28 332.12 343.34 354.26001 366.17999 378.10001 388.48001 393.64001 404.98001 415.89999 425.73999 436.89999 448.42001 459.14001 469.85999 481.78 492.94 503.66 513.59998 525.52002"
         y="299"
         id="tspan124">развития функционального направления безопасности </tspan><tspan
         x="0 9.9399996 21.559999 32.139999 43.66 54.380001 59.540001 70.260002 75.419998 86 96.540001 107.46 117.4 128.56 141.84 147 156.84 167.56 179.08 189.8 200.34 205.5 218.52 228.46001 240.08 250.8 260.73999 271.66 280.01999 291.94 303.85999 312.69601 323.896 336.216 347.41599 358.936 363.69601 368.85599 381.25601 391.19601 402.35599"
         y="325"
         id="tspan126">труда с учетом задач Стратегии-2023. Это </tspan><tspan
         x="0 11.52 23.139999 34.299999 45.82 56.98 68.199997 83.18 95.099998 105.04 115.96 127.18 136.7 148.62 161.8 173.72 178.88 190.39999 202.02 213.17999 224.10001 234.22 244.16 249.32001 260.84 272 277.16 289.07999 298.92001 312.20001 323.12 335.04001 345.95999 357.88 369.79999 385.06 390.22 400.94 412.10001 421.94 433.85999 444.57999 456.5 468.42001 478.79999"
         y="351"
         id="tspan128">продолжительный проект по изменению сознания </tspan><tspan
         x="0 10.84 16 26.84 38 49.52 61.139999 72.300003 83.019997 93.739998 104.1 109.26 120.78 131.94 143.46001 153.82001 164.98 176.5 187.22 192.38 202.5 207.66 219 229.92 239.75999 250.92 262.44 273.16 283.88 295.79999 306.95999 317.67999 327.62 339.54001 344.70001 354.64001 366.26001 376.84 388.35999 399.07999 404.23999 415.07999 420.23999 433.51999 444.23999 454.95999 470.34 480.28 491 502.34 513.06 523.41998"
         y="377"
         id="tspan130">в вопросах подхода к безопасности труда в масштабах </tspan><tspan
         x="594 604.84003 615.56 626.47998 638.40002 643.56 655.84003 667 680.28003 691.79999 702.52002 714.44 726.35999 738.28003 743.02002 748.17999 758.12 769.73999 780.65997 792 802.58002 817.84003 833.73999 845.65997 857.58002 862.73999 873.58002 885.20001 896.12 909.40002 920.32001 932.23999 944.15997 949.32001 961.23999 966.40002 976.97998 987.70001 999.62 1010.84 1022.76 1034.6801 1039.84 1051.76 1062.48 1067.64 1078.48 1089.2 1100.12 1110.48"
         y="-476"
         id="tspan132">всей Компании, требующий времени и усилий на всех </tspan><tspan
         x="594 604.58002 616.20001 627.35999 638.20001 650.12 660.5 670.85999 676.02002 686.59998 698.12 709.73999 720.46002 731.29999 742.52002 753.44 765.35999 777.28003 787.65997 792.82001 806.82001 816.91998 829.20001 833.96002 839.12 853.12 864.73999 875.90002 884.26001 895.88 906.59998 919.88 933.15997 943.88 949.03998 960.65997 971.38 981.21997 992.06 1003.98 1013.92 1025.84 1036.22"
         y="-450"
         id="tspan134">уровнях управления ПГК. Программа развития </tspan><tspan
         x="594 605.52002 616.67999 627.40002 637.34003 648.96002 660.12 671.03998 682.96002 693.67999 698.84003 710.76001 721.47998 726.64001 737.79999 748.52002 760.44 771.59998 782.44 793.35999 798.52002 809.35999 821.28003 832.20001 843.71997 855.34003 866.26001 878.17999 890.09998 900.47998 905.64001 916.47998 921.64001 932.56 947.53998 958.46002 969.97998 981.90002 992.82001 1003.66 1015.58 1026.16 1041.42 1046.58 1058.2 1068.92 1080.26 1091.42 1101.36 1111.9399"
         y="-424"
         id="tspan136">построена на основе внедрения в ежедневную работу </tspan><tspan
         x="594 604.71997 615.88 625.82001 637.44 648.02002 659.53998 671.46002 683.38 693.5 704.65997 715.5 720.65997 730.78003 742 757.26001 767.79999 778.71997 789.56 802.73999 813.09998 818.26001 830.17999 842.09998 852.82001 862.76001 874.38 884.96002 898.23999 909.15997 921.08002 931.02002 942.17999 953.02002 958.17999 969.52002 980.44 990.28003 1001.44 1012.96 1023.68 1034.4 1046.3199 1057.48 1068.2 1078.14 1090.0601 1094.8"
         y="-398"
         id="tspan138">сотрудников ключевых инструментов безопасности, </tspan><tspan
         x="594 605.91998 616.64001 628.15997 639.78003 650.5 661.34003 672.56 683.47998 695.40002 707.32001 720.5 730.85999 736.02002 747.94 758.65997 763.82001 774.40002 785.91998 797.53998 808.26001 819.09998 830.32001 841.23999 853.15997 865.08002 876 881.15997 892.78003 904.70001 915.41998 925.53998 936.26001 949.53998 961.46002 966.62 978.53998 983.70001 997.28003 1008.44 1020.06 1033.34 1045.26 1056.88 1068.04 1078.88 1089.6 1101.52 1113.4399 1124.36"
         y="-372"
         id="tspan140">направленных на управление рисками и формирование </tspan><tspan
         x="594 605.34003 616.26001 626.09998 637.26001 648.78003 659.5 670.21997 682.14001 693.29999 701.65997 712.82001 717.97998 729.5 740.65997 751.5 762.41998 773.94 784.85999 796.78003 808.70001 819.08002 823.84003 829 842.23999 854.15997 864.88 870.03998 879.97998 890.70001 900.82001 915.79999 926.71997 931.88 942.71997 952.84003 964.06 979.32001 989.85999 1000.58 1011.5 1021.44"
         y="-346"
         id="tspan142">безопасного поведения. Она также включает </tspan><tspan
         x="594 604.12 615.28003 627.20001 639.21997 650.14001 661.65997 673.67999 685.59998 700.85999 706.02002 716.59998 727.32001 737.26001 748.41998 760.34003 770.88 782.79999 793.64001 804.79999 813.15997 824.32001 829.47998 841.09998 851.82001 861.65997 872.5 884.41998 894.35999 906.28003 916.65997 921.40002 926.56 937.90002 948.62 958.46002 970.38 982 992.58002 1007.84 1023.74 1034.3199 1049.58 1060.3 1070.6801"
         y="-320"
         id="tspan144">концепцию устойчивого развития, базирующуюся </tspan><tspan
         x="594 605.91998 616.64001 621.79999 633.71997 644.64001 655.79999 667.14001 677.5 688.65997 700.17999 712.09998 725.38 736.53998 747.26001 757.20001 769.12 774.28003 785 796.15997 807.5 818.71997 833.97998 845.5 856.21997 866.15997 875.67999 880.84003 892.17999 902.90002 914.12 924.84003 936.76001 947.47998 952.64001 965.91998 976.84003 991.82001 1003.34 1013.92 1019.08 1030.7 1041.62 1057 1067.92 1079.84 1091.76 1102.6801 1115.96"
         y="-294"
         id="tspan146">на необходимости соблюдать баланс между решением </tspan><tspan
         x="594 604.71997 615.88 627.90002 639.82001 650.53998 661.76001 671.28003 683.20001 696.38 706.73999 711.90002 723.82001 728.97998 739.70001 749.82001 760.97998 772.90002 784.06 797.34003 809.26001 819.79999 830.71997 841.44 851.56 863.47998 873.84003 879 890.52002 902.14001 913.29999 924.64001 935.85999 946.78003 960.06 965.21997 977.14001 982.29999 993.02002 1004.18 1014.54 1026.16 1036.88 1048.8 1059.72 1071.64 1083.5601 1094.48 1107.76"
         y="-268"
         id="tspan148">социальных и экономических проблем и сохранением </tspan><tspan
         x="594 605.52002 617.14001 629.06 640.67999 651.84003 663.35999 675.28003 686.44 698.35999 703.52002 714.23999 725.85999 736.78003 748.29999 761.47998 766.23999 771.40002 785.40002 797.02002 808.17999 816.53998 828.15997 838.88 852.15997 865.44 876.15997 881.32001 892.47998 902.84003 913.67999 924.40002 934.34003 947.52002 958.35999 969.08002 980 989.94 995.09998 1005.94 1016.66 1027.58 1032.74 1044.36 1055.08 1066.42 1077.58 1088.12 1100.04 1110.96"
         y="-242"
         id="tspan150">природной среды. Программа охватывает все рабочие </tspan><tspan
         x="594 607.28003 618.20001 628.91998 638.85999 649.58002 654.32001 659.47998 673.06 684.21997 694.34003 704.91998 715.64001 720.79999 732.41998 743.14001 752.97998 763.82001 775.73999 785.67999 797.59998 807.97998 813.14001 823.85999 835.38 846.29999 857.52002 868.23999 880.15997 885.32001 897.23999 907.96002 913.12 923.84003 935.06 945.97998 957.5 968.08002 983.34003 999.23999 1011.16 1021.52 1026.6801 1038.3 1049.02 1058.86 1070.38 1081.3 1092.52 1103.24 1113.6"
         y="-216"
         id="tspan152">места, фокус развития сделан на следующих разделах:</tspan><tspan
         x="594 601.59998 612 622.71997 636.29999 649.88 660.79999 670.91998 680.85999 692.78003 703.62 715.53998 728.71997 740.64001 745.79999 757.41998 769.34003 780.06 790.17999 799.91998 813.20001 824.12 836.03998 846.96002 858.47998 873.46002 886.73999 897.65997 909.58002 919.52002"
         y="-177"
         id="tspan154">• эффективный риск-менеджмент;</tspan><tspan
         x="594 601.59998 612 623.62 634.34003 644.17999 655.02002 666.94 676.88 688.79999 699.71997 704.88 715 725.58002 736.79999 746.32001 756.26001 766.84003 778.46002 791.64001 796.79999 808.14001 819.06 828.90002 840.06 851.58002 862.29999 873.02002 884.94 896.09998 906.82001 916.76001 928.67999 933.84003 943.78003 955.40002 965.97998 977.5 988.21997"
         y="-151"
         id="tspan156">• развитие культуры безопасности труда;</tspan><tspan
         x="594 601.59998 612 622.71997 636.29999 649.88 660.79999 670.91998 680.85999 692.78003 703.62 715.53998 726.26001 736.64001 741.79999 752.52002 764.44 775.15997 785.09998 796.02002 809.29999 820.02002 825.17999 835.76001 847.28003 858.90002 869.62 880.46002 891.67999 902.59998 914.52002 926.44 936.82001 941.97998 953.14001 963.5 975.12 985.84003 997.76001 1008.92 1020.84"
         y="-125"
         id="tspan158">• эффективная система управления охраной </tspan><tspan
         x="612 621.94 633.56 644.14001 655.65997 666.38 671.53998 677.91998 690.94 702.20001 715.44 726.58002 732.96002"
         y="-99"
         id="tspan160">труда (СУОТ).</tspan><tspan
         x="594 607.02002 618.64001 629.56 641.08002 653 658.15997 669.67999 681.29999 692.46002 703.29999 714.21997 725.73999 736.65997 748.58002 760.5 773.67999 784.03998 789.20001 800.03998 805.20001 816.40002 828.71997 839.91998 852.23999 857.40002 865.76001 876.91998 888.44 899.02002 904.17999 917.46002 928.38 940 951.15997 962.67999 974.29999 986.21997 996.59998 1006.54 1018.46 1030.38 1035.54 1048.8199 1059.98 1074.96 1086.88 1098.04"
         y="-60"
         id="tspan162">Среди проведенных в 2020 году мероприятий можно </tspan><tspan
         x="594 604.84003 618.02002 629.53998 640.46002 651.67999 663.59998 673.53998 683.06 688.21997 698.94 710.15997 721.08002 732.59998 743.17999 758.44 774.34003 786.26001 797.17999"
         y="-34"
         id="tspan164">выделить следующие:</tspan><tspan
         x="594 601.59998 612 623.62 634.34003 644.17999 655.79999 666.52002 677.85999 689.02002 698.96002 709.67999 721.59998 732.32001 737.47998 750.76001 761.67999 771.62 782.78003 794.29999 806.21997 816.34003 827.06 832.21997 843.73999 854.90002 860.06 870.64001 882.15997 893.78003 904.5 915.34003 926.56 937.47998 949.40002 961.32001 976.58002"
         y="5"
         id="tspan166">• разработана методика по управлению </tspan><tspan
         x="612 623.52002 635.14001 646.29999 659.88 670.79999 681.52002 692.23999 704.15997 715.32001 727.23999 737.96002 749.17999 758.70001 770.62 783.79999 797.08002 809 814.15997 825.78003 837.70001 848.41998 858.53998 869.26001 882.53998 894.46002"
         y="31"
         id="tspan168">профессиональными рисками;</tspan><tspan
         x="594 601.59998 612 623.52002 635.14001 646.29999 657.14001 668.06 679.58002 690.5 702.41998 713.14001 718.29999 729.46002 741.47998 752.40002 764.32001 774.44 785.15997 790.32001 801.94 813.85999 824.58002 834.70001 845.85999 856.70001"
         y="57"
         id="tspan170">• проведена оценка рисков;</tspan><tspan
         x="594 601.59998 612 623.52002 635.14001 646.29999 657.14001 668.06 679.58002 690.5 702.41998 713.14001 718.29999 729.02002 739.73999 753.02002 764.17999 774.90002 784.84003 796 806.38 816.32001 827.23999 838.46002 847.97998 859.90002 870.62 881 886.15997 897.32001 909.34003 920.26001 932.17999 942.29999 953.02002 958.17999 968.76001 980.38 991.53998 1002.38 1014.3 1024.6801 1029.84 1039.96 1050.54 1061.76 1071.28 1081.22 1091.8 1103.42 1116.6"
         y="83"
         id="tspan172">• проведена самостоятельная оценка уровня культуры </tspan><tspan
         x="612 623.34003 634.26001 644.09998 655.26001 666.78003 677.5 688.21997 700.14001 711.29999 722.02002 731.96002 743.88 749.03998 763.03998 776.03998 789.28003 794.44 806.5 820.5 830.59998 842.88 854.94"
         y="109"
         id="tspan174">безопасности ПАО «ПГК»;</tspan><tspan
         x="594 601.59998 612 623.52002 635.14001 646.29999 657.14001 668.06 679.58002 690.5 702.41998 707.58002 719.20001 729.58002 741.09998 746.26001 759.53998 770.46002 782.08002 793.23999 804.76001 816.38 828.29999 838.67999 848.62 860.53998 872.46002 877.62 889.14001 900.29999 905.46002 916.62 927.96002 938.53998 949.08002 960 971.91998 983.84003 999.09998"
         y="135"
         id="tspan176">• проведен ряд мероприятий по обучению </tspan><tspan
         x="612 622.71997 634.23999 645.15997 657.17999 669.09998 679.82001 691.03998 702.96002 713.67999 723.62 734.78003 745.62 750.78003 762.40002 774.32001 785.03998 795.15997 804.90002 818.17999 829.09998 841.02002 851.94 863.46002 878.44 891.71997 902.64001 914.56 924.5 935.08002 940.23999 951.08002 956.23999 967.40002 978.73999 989.96002 1000.68 1011.4 1021.34 1033.26"
         y="161"
         id="tspan178">специалистов риск-менеджменту в области </tspan><tspan
         x="612 622.91998 634.71997 645.44 649.90002 656.85999 668.02002 679.82001 697.38 708.29999 720.09998 727.28003 732.02002 737.17999 749 759.91998 770.64001 775.14001 782.32001 794.14001 799.29999 810.02002 821.82001 833.41998 838.58002 848.41998 859.14001 866.34003 877.26001 884.44 895.08002 900.23999 906.62 918.46002 932.46002 944.56 950.94"
         y="187"
         id="tspan180">environment, health and safety (EHS);</tspan><tspan
         x="594 601.59998 612 623.52002 635.14001 646.29999 657.14001 668.06 679.58002 690.5 702.41998 713.58002 718.73999 729.90002 741.23999 751.82001 762.35999 773.28003 785.20001 797.12 808.03998 813.20001 824.71997 835.88 841.03998 851.15997 861.73999 873.35999 884.08002 894.65997 899.82001 911.88 923.14001 934.65997 946.28003 957 967.84003 979.06 989.97998 1001.9 1013.82 1024.74"
         y="213"
         id="tspan182">• проведено обучение по курсу «Управление </tspan><tspan
         x="612 623.52002 634.67999 649.65997 660.38 672 683.91998 697.09998 710.38 722.29999 727.46002 739.08002 751 761.71997 771.84003 782.56 795.84003 807.76001 819.82001 824.56 829.71997 840.88 850.82001 862.44 873.15997 884.5 895.65997 905.59998 916.32001 928.23999 941.41998 946.58002 958.09998 969.71997 980.44 990.56 1000.5 1012.42 1022.96 1033.88 1044.6 1054.72 1066.64 1077.5601"
         y="239"
         id="tspan184">пожарными рисками», отработаны практические </tspan><tspan
         x="612 623.91998 634.64001 645.47998 658.65997 668.78003 680.70001 685.85999 697.38 708.53998 713.70001 725.62 737.14001 748.06 759.97998 769.91998 781.84003 795.41998 807.34003 817.46002 828.17999 840.20001 852.12 864.03998 869.20001 881.12 886.28003 896.85999 908.38 920 930.71997 941.56 952.78003 963.70001 975.62 987.53998 1002.8 1007.96 1019.58 1031.5 1042.22 1052.34 1063.0601 1076.34 1088.26"
         y="265"
         id="tspan186">навыки по идентификации и управлению рисками </tspan><tspan
         x="612 623.91998 634.64001 639.79999 650.96002 662.29999 673.08002 684 694.12 704.06 714.78003 725.14001 730.29999 744.29999 754.40002 766.67999 771.44 776.59998 790.59998 802.21997 813.38 824.21997 835.14001 846.65997 857.58002 869.5 874.65997 884.78003 895.94 907.85999 917.97998 928.56 940.17999 950.90002 956.06 967.97998 978.70001 983.85999 995.08002 1005.66 1016.2 1031.58 1042.16 1057.42 1062.58 1074.2 1084.92 1096.26 1107.42 1117.36 1127.9399"
         y="291"
         id="tspan188">на объектах ПГК. Проведен конкурс на лучшую работу </tspan></text><g
       id="g192"
       transform="translate(1811.8792,95.9063)"><path
         d="M 0,0 9.121,10.047 0,20.094 H -27.879 V 10.047 0 Z"
         style="fill:#f0f0f5;fill-opacity:1;fill-rule:nonzero;stroke:none"
         id="path194" /></g><text
       transform="matrix(1,0,0,-1,1616,100.36)"
       style="font-variant:normal;font-weight:300;font-stretch:normal;font-size:16px;font-family:'Rubik Light';-inkscape-font-specification:Rubik-Light;writing-mode:lr-tb;fill:#000000;fill-opacity:1;fill-rule:nonzero;stroke:none"
       id="text198"><tspan
         x="0 11.2 20.496 29.424 38.639999 47.568001 56.543999 68.528 77.264 86.800003 96.335999 105.072 109.2 118.736 127.312 131.44 140.01601 147.968 157.26401 161.07201"
         y="0"
         id="tspan196">Продолжение на стр. </tspan></text><text
       transform="matrix(1,0,0,-1,1789.456,100.36)"
       style="font-variant:normal;font-weight:500;font-stretch:normal;font-size:16px;font-family:'Rubik Medium';-inkscape-font-specification:Rubik-Medium;writing-mode:lr-tb;fill:#000000;fill-opacity:1;fill-rule:nonzero;stroke:none"
       id="text202"><tspan
         x="0 9.7600002"
         y="0"
         id="tspan200">96</tspan></text><text
       transform="matrix(1,0,0,-1,38.0602,1023)"
       style="font-variant:normal;font-weight:300;font-stretch:normal;font-size:20px;font-family:'Rubik Light';-inkscape-font-specification:Rubik-Light;writing-mode:lr-tb;fill:#000000;fill-opacity:1;fill-rule:nonzero;stroke:none"
       id="text206"><tspan
         x="0 11.44 60.939999 74.940002 85.660004 101.04 111.76 116.92 127.04 138.2 151.48 162.2 174.12 185.64"
         y="0"
         id="tspan204">95Наша команда</tspan></text></g></svg>
