<?xml version="1.0" encoding="UTF-8" standalone="no"?>
<?xml-stylesheet type="text/css" href="main.css" ?>
<svg
   xmlns:dc="http://purl.org/dc/elements/1.1/"
   xmlns:cc="http://creativecommons.org/ns#"
   xmlns:rdf="http://www.w3.org/1999/02/22-rdf-syntax-ns#"
   xmlns:svg="http://www.w3.org/2000/svg"
   xmlns="http://www.w3.org/2000/svg"
   version="1.1"
   id="svg2"
   xml:space="preserve"
   width="2560"
   height="1440"
   viewBox="0 0 2560 1440"><metadata
     id="metadata8"><rdf:RDF><cc:Work
         rdf:about=""><dc:format>image/svg+xml</dc:format><dc:type
           rdf:resource="http://purl.org/dc/dcmitype/StillImage" /></cc:Work></rdf:RDF></metadata><defs
     id="defs6"><clipPath
       clipPathUnits="userSpaceOnUse"
       id="clipPath20"><path
         d="M 0,1080 H 1920 V 0 H 0 Z"
         id="path18" /></clipPath><clipPath
       clipPathUnits="userSpaceOnUse"
       id="clipPath198"><path
         d="M 0,0 H 1920 V 1080 H 0 Z"
         id="path196" /></clipPath><clipPath
       clipPathUnits="userSpaceOnUse"
       id="clipPath214"><path
         d="M 0,0 H 1920 V 1080 H 0 Z"
         id="path212" /></clipPath><clipPath
       clipPathUnits="userSpaceOnUse"
       id="clipPath230"><path
         d="M 0,0 H 1920 V 1080 H 0 Z"
         id="path228" /></clipPath><clipPath
       clipPathUnits="userSpaceOnUse"
       id="clipPath246"><path
         d="M 0,0 H 1920 V 1080 H 0 Z"
         id="path244" /></clipPath><clipPath
       clipPathUnits="userSpaceOnUse"
       id="clipPath262"><path
         d="M 0,0 H 1920 V 1080 H 0 Z"
         id="path260" /></clipPath><clipPath
       clipPathUnits="userSpaceOnUse"
       id="clipPath278"><path
         d="M 0,0 H 1920 V 1080 H 0 Z"
         id="path276" /></clipPath><clipPath
       clipPathUnits="userSpaceOnUse"
       id="clipPath306"><path
         d="M 0,0 H 1920 V 1080 H 0 Z"
         id="path304" /></clipPath><clipPath
       clipPathUnits="userSpaceOnUse"
       id="clipPath326"><path
         d="M 0,0 H 1920 V 1080 H 0 Z"
         id="path324" /></clipPath><clipPath
       clipPathUnits="userSpaceOnUse"
       id="clipPath346"><path
         d="M 0,0 H 1920 V 1080 H 0 Z"
         id="path344" /></clipPath><linearGradient
       x1="0"
       y1="0"
       x2="1"
       y2="0"
       gradientUnits="userSpaceOnUse"
       gradientTransform="matrix(356.25156,412.72144,412.72144,-356.25156,803.70142,578.61697)"
       spreadMethod="pad"
       id="linearGradient410"><stop
         style="stop-opacity:1;stop-color:#faaa2d"
         offset="0"
         id="stop406" /><stop
         style="stop-opacity:1;stop-color:#2960a1"
         offset="1"
         id="stop408" /></linearGradient><clipPath
       clipPathUnits="userSpaceOnUse"
       id="clipPath430"><path
         d="M 0,0 H 1920 V 1080 H 0 Z"
         id="path428" /></clipPath><clipPath
       clipPathUnits="userSpaceOnUse"
       id="clipPath452"><path
         d="M 0,1080 H 1920 V 0 H 0 Z"
         id="path450" /></clipPath></defs><g
     id="g10"
     transform="matrix(1.3333333,0,0,-1.3333333,0,1440)"><g
       id="g12"><g
         id="g14"><g
           id="g16"
           clip-path="url(#clipPath20)"><path
             d="M 0,0 H 1920 V 1080 H 0 Z"
             style="fill:#ffffff;fill-opacity:1;fill-rule:nonzero;stroke:none"
             id="path22" /></g></g></g><path
       d="m 1287,0 h 633 v 1080 h -633 z"
       style="fill:#e8e8ed;fill-opacity:1;fill-rule:nonzero;stroke:none"
       id="path24" /><text
       transform="matrix(1,0,0,-1,1356,953.8201)"
       style="font-variant:normal;font-weight:500;font-stretch:normal;font-size:28px;font-family:'Rubik Medium';-inkscape-font-specification:Rubik-Medium;writing-mode:lr-tb;fill:#000000;fill-opacity:1;fill-rule:nonzero;stroke:none"
       id="text30"><tspan
         x="0 19.236 25.620001 42.98 61.431999 78.792 97.244003 103.628 115.864 132.468 150.08 166.09599 172.48 192.192 213.696 220.08 237.216 254.408 271.01199 287.392 303.4332 320.34521 337.8172"
         y="0"
         id="tspan26">В 2020 году мы провели </tspan><tspan
         x="0 16.016001 32.928001 49.112 66.723999 82.739998 106.148 129.528 147 163.18401 169.56799 189.28 205.464 222.65601 239.25999 256.396 273.58801 291.06 307.18799 322.056 339.52802 355.65601"
         y="33.992001"
         id="tspan28">следующие мероприятия:</tspan></text><text
       transform="matrix(1,0,0,-1,1356,867.8201)"
       style="font-variant:normal;font-weight:300;font-stretch:normal;font-size:20px;font-family:'Rubik Light';-inkscape-font-specification:Rubik-Light;writing-mode:lr-tb;fill:#000000;fill-opacity:1;fill-rule:nonzero;stroke:none"
       id="text64"><tspan
         x="0 7.5999999 18 29.52 41.139999 52.299999 63.139999 73.980003 85.199997 97.120003 102.28 113.9 124.82 134.438 145.59801 157.51801 168.23801 178.17799 189.418 199.998 210.118 222.138 234.058 249.31799 254.478 265.638 276.17801 288.09799 298.81799 308.758 320.67801 333.858 344.21799"
         y="0"
         id="tspan32">• провели реконструкцию очистных </tspan><tspan
         x="18 28.719999 39.880001 51.040001 62.279999 72.860001 87.839996 98.760002 110.68 122.6 134.52 139.67999 153.67999 167.67999 180.7 185.86 199.10001 209.82001 220.74001 232.66 244.67999 257.85999 262.60001 267.76001 278.29999 288.23999 299.39999 304.56 316.07999 327.23999 337.07999 347.92001 358.87601 370.09601 382.01599 393.23599 404.396"
         y="26"
         id="tspan34">сооружений ППС Осенцы, что позволило </tspan><tspan
         x="18 28.719999 40.639999 52.560001 62.400002 74.32 84.260002 93.779999 98.940002 109.78 120.94 130.78 142.3 153.22 165.14 175.86 185.8 196.64 208.56 219.48 224.64 236.56 247.28 252.44 263.16 273.10001 286.38 297.54001 308.26001 321.84 332.76001 344.38 356.29999 369.48001 381.39999 386.56 397.39999 408.56 418.39999 429.92001 440.5 450.85999"
         y="52"
         id="tspan36">снизить воздействие на атмосферный воздух </tspan><tspan
         x="18 29.92 35.080002 46.599998 57.759998 68.599998 81.779999 92.5 104.42 114.36 123.88 129.03999 139.16 149.88 160.42 171.34 182.06 192 202.84 214 219.16 230.32001 240.86 252.78 263.5 273.44 283.56 295.48001 300.64001 311.35999 321.29999 332.45999 343 354.92001 368.10001 378.45999 383.62 394.45999 405.62 417.14001"
         y="78"
         id="tspan38">и повысить качество очистки сточных вод;</tspan><tspan
         x="0 7.5999999 18 29.92 40.639999 51.18 61.900002 73.120003 85.040001 90.199997 101.82 112.74 122.358 133.51801 145.438 156.158 166.09801 177.338 187.918 198.03799 210.058 221.978 237.23801 242.39799 256.39801 270.39801 283.418 288.578 300.258 311.418 324.698 336.03799 347.95801 359.87799 370.59799 380.53799 391.258 401.37799 412.09799 422.478"
         y="117"
         id="tspan40">• начали реконструкцию ППС Комбинатская </tspan><tspan
         x="18 28.719999 33.880001 45.900002 56.740002 67.959999 77.480003 92.739998 97.900002 108.62 120.54 132.46001 147.44 158.36 170.28 182.2 192.58 197.74001 208.66 219.58 224.74001 235.58 246.74001 256.57999 268.10001 279.01999 290.94 301.66 311.60001 322.44 334.35999 344.73999"
         y="143"
         id="tspan42">с целью снижения ее воздействия </tspan><tspan
         x="18 29.92 40.639999 45.799999 56.52 66.459999 79.739998 90.900002 101.62 115.2 126.12 137.74001 149.66 162.84 174.75999 179.92 190.75999 201.92 211.75999 223.28 233.86 244.22"
         y="169"
         id="tspan44">на атмосферный воздух;</tspan><tspan
         x="0 7.5999999 18 28.719999 39.560001 49.5 60.66 73.940002 84.660004 94.599998 106.52 116.36 128.28 139.89999 151.06 161.89999 172.62 183.84 195.75999 200.92 212.53999 223.25999 234.60001 245.75999 256.29999 267.22 278.14001 283.29999 296.57999 307.5 318.22 328.16 339.32001 344.48001 355.20001 364.81601 375.776 386.996 398.15601 406.51599 417.23599 421.97601"
         y="208"
         id="tspan46">• автоматизировали рабочее место эколога, </tspan><tspan
         x="18 28.540001 38.48 49.639999 54.799999 66.32 77.480003 87.32 98.160004 109.12 120.34 132.25999 143.48 154.64 159.8 171.32001 182.48 193.32001 206.5 217.22 229.14 239.08 248.60001 253.75999 264.34 275.95999 287.12 297.95999 308.88 320.79999 330.32001 335.48001 345.09601 356.25601 368.17599 378.116 389.73599 400.69601 411.91599 422.29599"
         y="234"
         id="tspan48">что позволило повысить уровень контроля </tspan><tspan
         x="18 31.280001 42.439999 54.360001 66.279999 76.220001 87.379997 99 110.92 122.84 131.2 141.92 146.996 158.916 163.994 174.714 185.87399 196.59399 206.534 217.694 228.07401 239.994 251.914 262.29401 267.37 278.53 288.89001 300.51001 311.23001 323.14999 336.32999 341.40601 352.56601 362.686 373.92599 384.50601 399.48599 410.20599 425.466 441.366 452.28601 464.20599"
         y="260"
         id="tspan50">мониторинга и состояния охраны окружающей </tspan><tspan
         x="18 28.719999 40.34 51.259998 62.779999 75.959999 80.699997 85.860001 97.480003 108.4 119.12 127.48 139.39999 151.02 162.17999 173.02 183.74001 193.67999 203.2 208.36 219.2 224.36 235.98 246.89999 261.88 273.79999 287.07999 298 303.16 314.78 325.70001 336.42001 347.64001 357.16 369.07999 380.23999 388.35599 399.51599"
         y="286"
         id="tspan52">среды, реагировать в режиме реального </tspan><tspan
         x="18 28.84 40.459999 51.380001 64.660004 75.580002 87.5 99.419998"
         y="312"
         id="tspan54">времени;</tspan><tspan
         x="0 7.5999999 18 29.219999 41.139999 51.259998 62.099998 74.019997 85.540001 97.459999 109.08 120.24 131.08 141.8 153.02 164.94 170.10001 182.02 192.74001 202.358 213.51801 225.03799 236.258 247.17799 259.09799 271.01801 284.198 296.11801 301.27802 311.858 327.758 338.67801 350.298 361.638"
         y="351"
         id="tspan56">• ликвидировали накопленный ущерб </tspan><tspan
         x="18 29.52 41.139999 52.060001 63.580002 76.760002 88.279999 98.860001 114.76 126.68 139.96001 151.88 157.03999 167.75999 178.92 190.25999 200.98 210.92 221.75999 232.67999 244.60001 256.51999 268.44 278.56 289.28 302.56 314.48001"
         y="377"
         id="tspan58">предыдущими собственниками </tspan><tspan
         x="18 29.52 41.139999 52.299999 64.220001 74.059998 84.900002 96.059998 107.58 118.3 128.24001 139.08 150 161.92 173.84 187.02 197.38 202.53999 213.7 225.03999 235.82001 246.74001 256.85999 266.79999 277.95999 288.79999 293.95999 305.12 315.23999 326.47601 337.056 352.03601 362.75601 378.01599 393.91599 404.836 416.75601"
         y="403"
         id="tspan60">производственных объектов окружающей </tspan><tspan
         x="18 28.719999 40.34 51.259998 62.779999 73.699997 78.860001 89.699997 94.860001 106.48 117.2 127.04 140.32001 151.24001 162.86 173.78 178.94 186.89999 198.42 209.86 222.17999 224.67999"
         y="429"
         id="tspan62">среде в размере 1350 м</tspan></text><text
       transform="matrix(1,0,0,-1,1593.9567,445.4801)"
       style="font-variant:normal;font-weight:300;font-stretch:normal;font-size:11.66px;font-family:'Rubik Light';-inkscape-font-specification:Rubik-Light;writing-mode:lr-tb;fill:#000000;fill-opacity:1;fill-rule:nonzero;stroke:none"
       id="text68"><tspan
         x="0"
         y="0"
         id="tspan66">3</tspan></text><text
       transform="matrix(1,0,0,-1,1600.6727,438.8201)"
       style="font-variant:normal;font-weight:300;font-stretch:normal;font-size:20px;font-family:'Rubik Light';-inkscape-font-specification:Rubik-Light;writing-mode:lr-tb;fill:#000000;fill-opacity:1;fill-rule:nonzero;stroke:none"
       id="text86"><tspan
         x="0"
         y="0"
         id="tspan70">;</tspan><tspan
         x="-244.67999 -237.08 -226.67999 -215.16 -203.53999 -192.38 -181.53999 -170.7 -159.48 -147.56 -142.39999 -130.88 -119.26 -108.54 -98.419998 -88.480003 -76.559998 -66.019997 -55.099998 -44.380001 -34.259998 -23.68 -8.4200001 -3.26 7.9000001 19.24 29.82 40.360001 51.080002 66.339996 82.115997 92.695999 107.956 113.116 123.836 134.756 145.476 156.196 168.116 183.37601"
         y="39"
         id="tspan72">• провели практическую обучающую сессию </tspan><tspan
         x="-226.67999 -214.62 -195.72 -186.10001 -175.14 -163.92 -153.2 -148.03999 -136.52 -125.36 -120.2 -108.68 -97.519997 -82.540001 -71.82 -60.200001 -48.279999 -37.119999 -25.200001 -20.040001 -8.1199999 -2.96 7.7600002 17.378 28.337999 39.557999 50.717999 59.077999 70.998001 81.538002 92.458 103.178 112.798 123.958 135.87801"
         y="65"
         id="tspan74">«Школа по пожарной и экологической </tspan><tspan
         x="-226.67999 -215.34 -204.42 -194.58 -183.42 -171.89999 -161.17999 -150.46001 -138.53999 -127.38 -116.66 -106.72 -94.800003 -82.739998 -78 -72.839996 -62 -56.84 -47.222 -36.062 -26.122 -14.962 -3.342 7.8179998 19.738001 24.898001 36.417999 48.037998 59.958 71.877998 82.258003 93.477997 105.398 110.558 121.138 131.67799 142.39799 153.118 163.058 174.978 185.89799"
         y="91"
         id="tspan76">безопасности», в которой приняли участие </tspan><tspan
         x="-226.67999 -215.34 -204.38 -193.16 -182.24001 -171.32001 -166.16 -154.64 -142.32001 -137.16 -125.922 -115.342 -105.722 -94.561996 -83.722 -72.561996 -61.042 -49.122002 -39.181999 -28.341999 -17.122 -6.2020001 5.7179999 10.878 22.798 27.958 38.678001 50.198002 61.118 73.138 85.057999 95.778 106.998 118.918 129.638 139.578 150.73801 161.578"
         y="117"
         id="tspan78">более 30 руководителей и специалистов </tspan><tspan
         x="-226.67999 -215 -203.84 -190.56 -179.03999 -168.32001 -156.39999 -144.48 -132.56 -127.8 -122.64 -109.58 -104.42 -92.800003 -81.879997 -72.040001 -62.042 -50.821999 -41.301998 -31.362 -20.642 -10.702 0.21799999 5.3779998 16.098 27.257999 37.198002 48.436001 59.015999 70.536003 82.456001 94.375999 104.496 116.416"
         y="143"
         id="tspan80">Компании. В результате сотрудники </tspan><tspan
         x="-226.67999 -216.56 -205.84 -195.3 -184.38 -173.66 -163.72 -152.88 -141.96001 -130.03999 -118.12 -106.96 -101.8 -90.279999 -79.120003 -68.279999 -55.099998 -44.380001 -32.459999 -21.24 -9.3199997 -4.1599998 6.4200001 18.040001 29.200001 40.040001 50.959999 62.880001 72.400002 77.559998 89.480003 100.2 111.04 124.22 133.836 144.996 155.836"
         y="169"
         id="tspan82">качественно повысили уровень навыков </tspan><tspan
         x="-226.67999 -214.75999 -209.60001 -199.98 -188.82001 -175.53999 -164.02 -153.10001 -143.16 -132.24001 -120.32 -108.3 -96.379997 -84.459999"
         y="195"
         id="tspan84">и компетенций.</tspan></text><text
       transform="matrix(1,0,0,-1,99.4108,343.8999)"
       style="font-variant:normal;font-weight:500;font-stretch:normal;font-size:28px;font-family:'Rubik Medium';-inkscape-font-specification:Rubik-Medium;writing-mode:lr-tb;fill:#000000;fill-opacity:1;fill-rule:nonzero;stroke:none"
       id="text90"><tspan
         x="0 20.888 38.360001 55.832001 71.848 91.559998 109.032 125.076 141.092 147.476 164.612 181.216 196.084 213.276 229.46001 246.20399 263.116 279.29999 296.772 314.24399 330.37201 336.75601 353.13599 369.73999 387.35199"
         y="0"
         id="tspan88">Динамика потребления воды</tspan></text><g
       id="g92"
       transform="translate(99,217.2)"><path
         d="M 0,0 H 257"
         style="fill:none;stroke:#e9e9e9;stroke-width:1;stroke-linecap:butt;stroke-linejoin:miter;stroke-miterlimit:10;stroke-dasharray:none;stroke-opacity:1"
         id="path94" /></g><g
       id="g96"
       transform="translate(356,217.2)"><path
         d="M 0,0 H 135"
         style="fill:none;stroke:#e9e9e9;stroke-width:1;stroke-linecap:butt;stroke-linejoin:miter;stroke-miterlimit:10;stroke-dasharray:none;stroke-opacity:1"
         id="path98" /></g><g
       id="g100"
       transform="translate(491,217.2)"><path
         d="M 0,0 H 135"
         style="fill:none;stroke:#e9e9e9;stroke-width:1;stroke-linecap:butt;stroke-linejoin:miter;stroke-miterlimit:10;stroke-dasharray:none;stroke-opacity:1"
         id="path102" /></g><g
       id="g104"
       transform="translate(626,217.2)"><path
         d="M 0,0 H 135"
         style="fill:none;stroke:#e9e9e9;stroke-width:1;stroke-linecap:butt;stroke-linejoin:miter;stroke-miterlimit:10;stroke-dasharray:none;stroke-opacity:1"
         id="path106" /></g><g
       id="g108"
       transform="translate(761,217.2)"><path
         d="M 0,0 H 135"
         style="fill:none;stroke:#e9e9e9;stroke-width:1;stroke-linecap:butt;stroke-linejoin:miter;stroke-miterlimit:10;stroke-dasharray:none;stroke-opacity:1"
         id="path110" /></g><g
       id="g112"
       transform="translate(896,217.2)"><path
         d="M 0,0 H 135"
         style="fill:none;stroke:#e9e9e9;stroke-width:1;stroke-linecap:butt;stroke-linejoin:miter;stroke-miterlimit:10;stroke-dasharray:none;stroke-opacity:1"
         id="path114" /></g><g
       id="g116"
       transform="translate(1031,217.2)"><path
         d="M 0,0 H 135"
         style="fill:none;stroke:#e9e9e9;stroke-width:1;stroke-linecap:butt;stroke-linejoin:miter;stroke-miterlimit:10;stroke-dasharray:none;stroke-opacity:1"
         id="path118" /></g><g
       id="g120"
       transform="translate(1166,217.2)"><path
         d="M 0,0 H 61.205"
         style="fill:none;stroke:#e9e9e9;stroke-width:1;stroke-linecap:butt;stroke-linejoin:miter;stroke-miterlimit:10;stroke-dasharray:none;stroke-opacity:1"
         id="path122" /></g><g
       id="g124"
       transform="translate(99,174.5)"><path
         d="M 0,0 H 257"
         style="fill:none;stroke:#e9e9e9;stroke-width:1;stroke-linecap:butt;stroke-linejoin:miter;stroke-miterlimit:10;stroke-dasharray:none;stroke-opacity:1"
         id="path126" /></g><g
       id="g128"
       transform="translate(356,174.5)"><path
         d="M 0,0 H 135"
         style="fill:none;stroke:#e9e9e9;stroke-width:1;stroke-linecap:butt;stroke-linejoin:miter;stroke-miterlimit:10;stroke-dasharray:none;stroke-opacity:1"
         id="path130" /></g><g
       id="g132"
       transform="translate(491,174.5)"><path
         d="M 0,0 H 135"
         style="fill:none;stroke:#e9e9e9;stroke-width:1;stroke-linecap:butt;stroke-linejoin:miter;stroke-miterlimit:10;stroke-dasharray:none;stroke-opacity:1"
         id="path134" /></g><g
       id="g136"
       transform="translate(626,174.5)"><path
         d="M 0,0 H 135"
         style="fill:none;stroke:#e9e9e9;stroke-width:1;stroke-linecap:butt;stroke-linejoin:miter;stroke-miterlimit:10;stroke-dasharray:none;stroke-opacity:1"
         id="path138" /></g><g
       id="g140"
       transform="translate(761,174.5)"><path
         d="M 0,0 H 135"
         style="fill:none;stroke:#e9e9e9;stroke-width:1;stroke-linecap:butt;stroke-linejoin:miter;stroke-miterlimit:10;stroke-dasharray:none;stroke-opacity:1"
         id="path142" /></g><g
       id="g144"
       transform="translate(896,174.5)"><path
         d="M 0,0 H 135"
         style="fill:none;stroke:#e9e9e9;stroke-width:1;stroke-linecap:butt;stroke-linejoin:miter;stroke-miterlimit:10;stroke-dasharray:none;stroke-opacity:1"
         id="path146" /></g><g
       id="g148"
       transform="translate(1031,174.5)"><path
         d="M 0,0 H 135"
         style="fill:none;stroke:#e9e9e9;stroke-width:1;stroke-linecap:butt;stroke-linejoin:miter;stroke-miterlimit:10;stroke-dasharray:none;stroke-opacity:1"
         id="path150" /></g><g
       id="g152"
       transform="translate(1166,174.5)"><path
         d="M 0,0 H 61.205"
         style="fill:none;stroke:#e9e9e9;stroke-width:1;stroke-linecap:butt;stroke-linejoin:miter;stroke-miterlimit:10;stroke-dasharray:none;stroke-opacity:1"
         id="path154" /></g><g
       id="g156"
       transform="translate(356,261.2)"><path
         d="M 0,0 H 135"
         style="fill:none;stroke:#faaa2d;stroke-width:4;stroke-linecap:butt;stroke-linejoin:miter;stroke-miterlimit:10;stroke-dasharray:none;stroke-opacity:1"
         id="path158" /></g><g
       id="g160"
       transform="translate(491,261.2)"><path
         d="M 0,0 H 135"
         style="fill:none;stroke:#faaa2d;stroke-width:4;stroke-linecap:butt;stroke-linejoin:miter;stroke-miterlimit:10;stroke-dasharray:none;stroke-opacity:1"
         id="path162" /></g><g
       id="g164"
       transform="translate(626,261.2)"><path
         d="M 0,0 H 135"
         style="fill:none;stroke:#faaa2d;stroke-width:4;stroke-linecap:butt;stroke-linejoin:miter;stroke-miterlimit:10;stroke-dasharray:none;stroke-opacity:1"
         id="path166" /></g><g
       id="g168"
       transform="translate(761,261.2)"><path
         d="M 0,0 H 135"
         style="fill:none;stroke:#e8e8ed;stroke-width:4;stroke-linecap:butt;stroke-linejoin:miter;stroke-miterlimit:10;stroke-dasharray:none;stroke-opacity:1"
         id="path170" /></g><g
       id="g172"
       transform="translate(896,261.2)"><path
         d="M 0,0 H 135"
         style="fill:none;stroke:#e8e8ed;stroke-width:4;stroke-linecap:butt;stroke-linejoin:miter;stroke-miterlimit:10;stroke-dasharray:none;stroke-opacity:1"
         id="path174" /></g><g
       id="g176"
       transform="translate(1031,261.2)"><path
         d="M 0,0 H 135"
         style="fill:none;stroke:#e8e8ed;stroke-width:4;stroke-linecap:butt;stroke-linejoin:miter;stroke-miterlimit:10;stroke-dasharray:none;stroke-opacity:1"
         id="path178" /></g><text
       transform="matrix(1,0,0,-1,99,273.2)"
       style="font-variant:normal;font-weight:300;font-stretch:normal;font-size:20px;font-family:'Rubik Light';-inkscape-font-specification:Rubik-Light;writing-mode:lr-tb;fill:#000000;fill-opacity:1;fill-rule:nonzero;stroke:none"
       id="text182"><tspan
         x="0"
         y="0"
         id="tspan180"> </tspan></text><text
       transform="matrix(1,0,0,-1,532.92,273.2)"
       style="font-variant:normal;font-weight:500;font-stretch:normal;font-size:20px;font-family:'Rubik Medium';-inkscape-font-specification:Rubik-Medium;writing-mode:lr-tb;fill:#000000;fill-opacity:1;fill-rule:nonzero;stroke:none"
       id="text186"><tspan
         x="0 12.4 25.58 37.98"
         y="0"
         id="tspan184">2020</tspan></text><text
       transform="matrix(1,0,0,-1,939.9,273.2)"
       style="font-variant:normal;font-weight:500;font-stretch:normal;font-size:20px;font-family:'Rubik Medium';-inkscape-font-specification:Rubik-Medium;writing-mode:lr-tb;fill:#000000;fill-opacity:1;fill-rule:nonzero;stroke:none"
       id="text190"><tspan
         x="0 12.4 25.58 34.860001"
         y="0"
         id="tspan188">2019</tspan></text><g
       id="g192"><g
         id="g194"
         clip-path="url(#clipPath198)"><g
           id="g200"
           transform="translate(435.25,248.2)"><path
             d="m 0,0 h -23.5 c -5.523,0 -10,-4.477 -10,-10 0,-5.523 4.477,-10 10,-10 H 0 c 5.523,0 10,4.477 10,10 C 10,-4.477 5.523,0 0,0"
             style="fill:#faaa2d;fill-opacity:1;fill-rule:nonzero;stroke:none"
             id="path202" /></g></g></g><text
       transform="matrix(1,0,0,-1,418.718,232.5999)"
       style="font-variant:normal;font-weight:bold;font-stretch:normal;font-size:16px;font-family:Rubik;-inkscape-font-specification:Rubik-Bold;writing-mode:lr-tb;fill:#ffffff;fill-opacity:1;fill-rule:nonzero;stroke:none"
       id="text206"><tspan
         x="0"
         y="0"
         id="tspan204">1</tspan></text><g
       id="g208"><g
         id="g210"
         clip-path="url(#clipPath214)"><g
           id="g216"
           transform="translate(570.25,248.2)"><path
             d="m 0,0 h -23.5 c -5.523,0 -10,-4.477 -10,-10 0,-5.523 4.477,-10 10,-10 H 0 c 5.523,0 10,4.477 10,10 C 10,-4.477 5.523,0 0,0"
             style="fill:#2960a1;fill-opacity:1;fill-rule:nonzero;stroke:none"
             id="path218" /></g></g></g><text
       transform="matrix(1,0,0,-1,552.5021,232.5999)"
       style="font-variant:normal;font-weight:bold;font-stretch:normal;font-size:16px;font-family:Rubik;-inkscape-font-specification:Rubik-Bold;writing-mode:lr-tb;fill:#ffffff;fill-opacity:1;fill-rule:nonzero;stroke:none"
       id="text222"><tspan
         x="0"
         y="0"
         id="tspan220">2</tspan></text><g
       id="g224"><g
         id="g226"
         clip-path="url(#clipPath230)"><g
           id="g232"
           transform="translate(705.25,248.2)"><path
             d="m 0,0 h -23.5 c -5.523,0 -10,-4.477 -10,-10 0,-5.523 4.477,-10 10,-10 H 0 c 5.523,0 10,4.477 10,10 C 10,-4.477 5.523,0 0,0"
             style="fill:#9ea3aa;fill-opacity:1;fill-rule:nonzero;stroke:none"
             id="path234" /></g></g></g><text
       transform="matrix(1,0,0,-1,687.4301,232.5999)"
       style="font-variant:normal;font-weight:bold;font-stretch:normal;font-size:16px;font-family:Rubik;-inkscape-font-specification:Rubik-Bold;writing-mode:lr-tb;fill:#ffffff;fill-opacity:1;fill-rule:nonzero;stroke:none"
       id="text238"><tspan
         x="0"
         y="0"
         id="tspan236">3</tspan></text><g
       id="g240"><g
         id="g242"
         clip-path="url(#clipPath246)"><g
           id="g248"
           transform="translate(840.25,248.2)"><path
             d="m 0,0 h -23.5 c -5.523,0 -10,-4.477 -10,-10 0,-5.523 4.477,-10 10,-10 H 0 c 5.523,0 10,4.477 10,10 C 10,-4.477 5.523,0 0,0"
             style="fill:#faaa2d;fill-opacity:1;fill-rule:nonzero;stroke:none"
             id="path250" /></g></g></g><text
       transform="matrix(1,0,0,-1,823.718,232.5999)"
       style="font-variant:normal;font-weight:bold;font-stretch:normal;font-size:16px;font-family:Rubik;-inkscape-font-specification:Rubik-Bold;writing-mode:lr-tb;fill:#ffffff;fill-opacity:1;fill-rule:nonzero;stroke:none"
       id="text254"><tspan
         x="0"
         y="0"
         id="tspan252">1</tspan></text><g
       id="g256"><g
         id="g258"
         clip-path="url(#clipPath262)"><g
           id="g264"
           transform="translate(975.25,248.2)"><path
             d="m 0,0 h -23.5 c -5.523,0 -10,-4.477 -10,-10 0,-5.523 4.477,-10 10,-10 H 0 c 5.523,0 10,4.477 10,10 C 10,-4.477 5.523,0 0,0"
             style="fill:#2960a1;fill-opacity:1;fill-rule:nonzero;stroke:none"
             id="path266" /></g></g></g><text
       transform="matrix(1,0,0,-1,957.5021,232.5999)"
       style="font-variant:normal;font-weight:bold;font-stretch:normal;font-size:16px;font-family:Rubik;-inkscape-font-specification:Rubik-Bold;writing-mode:lr-tb;fill:#ffffff;fill-opacity:1;fill-rule:nonzero;stroke:none"
       id="text270"><tspan
         x="0"
         y="0"
         id="tspan268">2</tspan></text><g
       id="g272"><g
         id="g274"
         clip-path="url(#clipPath278)"><g
           id="g280"
           transform="translate(1110.25,248.2)"><path
             d="m 0,0 h -23.5 c -5.523,0 -10,-4.477 -10,-10 0,-5.523 4.477,-10 10,-10 H 0 c 5.523,0 10,4.477 10,10 C 10,-4.477 5.523,0 0,0"
             style="fill:#9ea3aa;fill-opacity:1;fill-rule:nonzero;stroke:none"
             id="path282" /></g></g></g><text
       transform="matrix(1,0,0,-1,1092.4301,232.5999)"
       style="font-variant:normal;font-weight:bold;font-stretch:normal;font-size:16px;font-family:Rubik;-inkscape-font-specification:Rubik-Bold;writing-mode:lr-tb;fill:#ffffff;fill-opacity:1;fill-rule:nonzero;stroke:none"
       id="text286"><tspan
         x="0"
         y="0"
         id="tspan284">3</tspan></text><text
       transform="matrix(1,0,0,-1,1193.2781,231.7199)"
       style="font-variant:normal;font-weight:300;font-stretch:normal;font-size:16px;font-family:'Rubik Light';-inkscape-font-specification:Rubik-Light;writing-mode:lr-tb;fill:#000000;fill-opacity:1;fill-rule:nonzero;stroke:none"
       id="text290"><tspan
         x="0 11.616 19.488001 30.112"
         y="0"
         id="tspan288">Изм.</tspan></text><text
       transform="matrix(1,0,0,-1,99,186.5)"
       style="font-variant:normal;font-weight:300;font-stretch:normal;font-size:20px;font-family:'Rubik Light';-inkscape-font-specification:Rubik-Light;writing-mode:lr-tb;fill:#000000;fill-opacity:1;fill-rule:nonzero;stroke:none"
       id="text294"><tspan
         x="0 13.06 24.219999 35.740002 46.900002 58.419998 69.580002 79.519997 91.139999 102.06 113.4 124.62 135.53999 147.46001 159.38 170.3 175.46001 185.58 196.16 207.5 212.25999 217.42 291.94 299.89999 311.34 319.29999 324.45999 334.20001 345.64001 432.17999 440.14001 452.45999 457.62 467.35999 477.10001 557.5 568.70001 581.02002 592.21997 597.38 608.82001 620.34003 691.06 702.26001 714.58002 726.47998 731.64001 744 755.64001 834.62 842.58002 854.47998 859.64001 871.53998 882.97998 966.38 977.58002 985.53998 996.97998 1002.14 1013.26 1021.22"
         y="0"
         id="tspan292">Водопотребление куб. м191 75510 777202 532204 86014 455219 315</tspan></text><text
       transform="matrix(1,0,0,-1,1188.78,186.5)"
       style="font-variant:normal;font-weight:500;font-stretch:normal;font-size:20px;font-family:'Rubik Medium';-inkscape-font-specification:Rubik-Medium;writing-mode:lr-tb;fill:#faaa2d;fill-opacity:1;fill-rule:nonzero;stroke:none"
       id="text298"><tspan
         x="0 9.6000004 22.74"
         y="0"
         id="tspan296">-8%</tspan></text><g
       id="g300"><g
         id="g302"
         clip-path="url(#clipPath306)"><g
           id="g308"
           transform="translate(132.5,143)"><path
             d="m 0,0 h -23.5 c -5.523,0 -10,-4.477 -10,-10 0,-5.523 4.477,-10 10,-10 H 0 c 5.523,0 10,4.477 10,10 C 10,-4.477 5.523,0 0,0"
             style="fill:#faaa2d;fill-opacity:1;fill-rule:nonzero;stroke:none"
             id="path310" /></g></g></g><text
       transform="matrix(1,0,0,-1,115.968,127.4)"
       style="font-variant:normal;font-weight:bold;font-stretch:normal;font-size:16px;font-family:Rubik;-inkscape-font-specification:Rubik-Bold;writing-mode:lr-tb;fill:#ffffff;fill-opacity:1;fill-rule:nonzero;stroke:none"
       id="text314"><tspan
         x="0"
         y="0"
         id="tspan312">1</tspan></text><text
       transform="matrix(1,0,0,-1,152.5,126)"
       style="font-variant:normal;font-weight:300;font-stretch:normal;font-size:20px;font-family:'Rubik Light';-inkscape-font-specification:Rubik-Light;writing-mode:lr-tb;fill:#000000;fill-opacity:1;fill-rule:nonzero;stroke:none"
       id="text318"><tspan
         x="0 14 25.620001 36.779999 48.700001 58.540001 69.379997 80.540001 92.059998 102.78 112.72 123.56 134.48 146.39999 158.32001 169.48 180.39999 190.39999 201.92 213.08 223.02 234.64 245.56 256.89999 268.12 279.04001 290.95999 302.88 313.79999"
         y="0"
         id="tspan316">Производственное потребление </tspan></text><g
       id="g320"><g
         id="g322"
         clip-path="url(#clipPath326)"><g
           id="g328"
           transform="translate(569.2039,143)"><path
             d="m 0,0 h -23.5 c -5.523,0 -10,-4.477 -10,-10 0,-5.523 4.477,-10 10,-10 H 0 c 5.523,0 10,4.477 10,10 C 10,-4.477 5.523,0 0,0"
             style="fill:#2960a1;fill-opacity:1;fill-rule:nonzero;stroke:none"
             id="path330" /></g></g></g><text
       transform="matrix(1,0,0,-1,551.4559,127.4)"
       style="font-variant:normal;font-weight:bold;font-stretch:normal;font-size:16px;font-family:Rubik;-inkscape-font-specification:Rubik-Bold;writing-mode:lr-tb;fill:#ffffff;fill-opacity:1;fill-rule:nonzero;stroke:none"
       id="text334"><tspan
         x="0"
         y="0"
         id="tspan332">2</tspan></text><text
       transform="matrix(1,0,0,-1,589.2039,126)"
       style="font-variant:normal;font-weight:300;font-stretch:normal;font-size:20px;font-family:'Rubik Light';-inkscape-font-specification:Rubik-Light;writing-mode:lr-tb;fill:#000000;fill-opacity:1;fill-rule:nonzero;stroke:none"
       id="text338"><tspan
         x="0 13.24 24.58 40.48 51.400002 61.759998 72.919998 82.760002 93.139999 105.06 115.78 125.72 136.56 147.48 159.39999 171.32001 182.48 193.39999 203.39999 214.92 226.08 236.02 247.64 258.56 269.89999 281.12 292.04001 303.95999 315.88 326.79999"
         y="0"
         id="tspan336">Общехозяйственное потребление </tspan></text><g
       id="g340"><g
         id="g342"
         clip-path="url(#clipPath346)"><g
           id="g348"
           transform="translate(1018.9073,143)"><path
             d="m 0,0 h -23.5 c -5.523,0 -10,-4.477 -10,-10 0,-5.523 4.477,-10 10,-10 H 0 c 5.523,0 10,4.477 10,10 C 10,-4.477 5.523,0 0,0"
             style="fill:#9ea3aa;fill-opacity:1;fill-rule:nonzero;stroke:none"
             id="path350" /></g></g></g><text
       transform="matrix(1,0,0,-1,1001.0874,127.4)"
       style="font-variant:normal;font-weight:bold;font-stretch:normal;font-size:16px;font-family:Rubik;-inkscape-font-specification:Rubik-Bold;writing-mode:lr-tb;fill:#ffffff;fill-opacity:1;fill-rule:nonzero;stroke:none"
       id="text354"><tspan
         x="0"
         y="0"
         id="tspan352">3</tspan></text><text
       transform="matrix(1,0,0,-1,1038.9073,126)"
       style="font-variant:normal;font-weight:300;font-stretch:normal;font-size:20px;font-family:'Rubik Light';-inkscape-font-specification:Rubik-Light;writing-mode:lr-tb;fill:#000000;fill-opacity:1;fill-rule:nonzero;stroke:none"
       id="text392"><tspan
         x="0 14.52 24.459999 35.619999 43.740002 54.900002 64.900002 76.419998 87.580002 97.519997 109.14 120.06 131.39999 142.62 153.53999 165.46001 177.38"
         y="0"
         id="tspan356">Итого потребление</tspan><tspan
         x="-939.90002 -925.90002 -915.79999 -903.52002 -898.35999 -886.44 -875.71997 -864.20001 -853.23999 -842.02002 -832.5 -822.65997 -812.422 -801.50201 -791.56201 -786.40198 -775.56201 -764.40198 -752.88202 -742.302 -737.14203 -725.62201 -714.40198 -704.02197 -698.862 -687.34198 -675.72198 -664.56201 -652.64203 -642.802 -631.96198 -620.802 -609.28198 -598.56201 -588.62201 -577.78198 -566.862 -554.94202 -543.02197 -531.862 -519.94202"
         y="-835.29999"
         id="tspan358">ПГК использует воду для производственной </tspan><tspan
         x="-939.90002 -928.38 -917.46002 -907.08002 -897.14001 -886.29999 -875.08002 -865.56 -853.64001 -842.47998 -831.76001 -821.82001 -809.90002 -804.73999 -792.82001 -787.65997 -776.14001 -764.91998 -754.53998 -749.38 -739.76202 -728.60199 -715.32202 -702.04199 -691.46198 -679.54199 -668.82202 -657.60199 -648.08197 -636.16199 -625.00201 -615.26202 -603.922 -590.742 -580.802 -569.64203 -558.802 -545.62201 -535.26202 -530.10199 -518.18201 -507.60199 -492.62201 -481.10199"
         y="-809.29999"
         id="tspan360">деятельности и для коммунально-бытовых нужд.</tspan><tspan
         x="-939.90002 -925.90002 -915.17999 -899.79999 -887.88 -882.71997 -871.56 -860.84003 -848.91998 -837.76001 -826.91998 -815 -801.82001 -790.90002 -785.73999 -775.90002 -765.17999 -753.65997 -742.94 -732.40002 -720.47998 -715.32001 -703.79999 -692.64001 -687.47998 -675.56 -664.84003 -653.32001 -642.36401 -631.14398 -621.62402 -611.784 -600.62402 -589.784 -579.06403 -567.14398 -555.224 -539.96399 -534.80402 -523.96399 -512.80402 -501.284 -489.36401 -476.18399 -465.82401"
         y="-770.29999"
         id="tspan362">Наши основные задачи по использованию водных </tspan><tspan
         x="-939.90002 -928.28003 -917.35999 -906.64001 -896.06 -884.44 -873.71997 -862.56 -851.71997 -846.56 -835.71997 -825.59998 -814.38 -799.12 -788.58002 -777.85999 -762.59998 -752.65997"
         y="-744.29999"
         id="tspan364">ресурсов включают:</tspan><tspan
         x="-939.90002 -932.29999 -921.90002 -910.38 -898.76001 -887.84003 -876.32001 -865.15997 -854.44 -844.5 -833.78003 -822.94 -811.71997 -800.79999 -788.88 -776.96002 -766.03998 -760.88 -749.53998 -738.62 -728.78003 -717.62 -706.09998 -695.38 -684.65997 -672.73999 -661.58002 -649.65997 -644.5 -632.97998 -621.06 -611.12 -601.59998 -590.67999 -579.84003 -568.67999 -556.76001 -551.59998 -540.76001 -529.59998 -518.08002 -504.89999"
         y="-705.29999"
         id="tspan366">• предоставление безопасной питьевой воды </tspan><tspan
         x="-921.90002 -910.38 -899.15997 -888.78003 -883.62 -871.70001 -860.97998 -845.59998 -833.67999 -823.32001 -818.15997 -807.44 -796.28003 -786.34003 -775.10199 -764.52197 -753.00201 -741.08197 -729.16199 -719.54199 -708.38202 -697.54199"
         y="-679.29999"
         id="tspan368">для наших сотрудников;</tspan><tspan
         x="-939.90002 -932.29999 -921.90002 -911.32001 -899.79999 -889.08002 -877.85999 -866.94 -855.02002 -843.09998 -832.17999 -827.02002 -816.17999 -805.02002 -793.5 -780.32001 -775.15997 -763.23999 -758.08002 -746.85999 -737.34003 -725.82001 -715.09998 -709.94 -698.02002 -687.29999 -682.14001 -670.62 -659 -647.84003 -635.91998 -626.08002 -615.23999 -604.08002 -592.56 -581.84003 -571.90002 -561.06 -550.14001 -538.21997 -526.29999 -513.12 -502.76001"
         y="-640.29999"
         id="tspan370">• удаление воды и льда на производственных </tspan><tspan
         x="-921.90002 -910.38 -899.15997 -888 -872.09998 -861.38 -849.85999 -839.73999 -829.02002 -818.65997 -813.5 -801.58002 -796.41998 -785.70001 -774.53998 -764.70001 -753.17999 -742.46002 -730.53998 -718.62 -707.70001 -702.53998 -691.82001 -681.88 -671.15997 -659.82001 -647.90002 -636.67999 -627.15997 -615.23999 -602.06 -591.70001 -586.53998 -574.62 -569.46002 -558.12 -547.20001 -537.35999 -526.20001 -514.67999 -503.95999 -493.23999 -481.32001 -468.14001 -457.78"
         y="-614.29999"
         id="tspan372">площадках и создание стабильных и безопасных </tspan><tspan
         x="-921.90002 -911.65997 -900.94 -889.71997 -878.56 -867.71997 -855.79999 -843.88 -838.71997 -827.09998 -816.38 -805.03998 -793.88 -783.94 -770.76001"
         y="-588.29999"
         id="tspan374">условий работы;</tspan><tspan
         x="-939.90002 -932.29999 -921.90002 -913.53998 -902.82001 -891.20001 -880.47998 -868.56 -858.62 -846.70001 -831.44 -826.28003 -816.34003 -805.17999 -797.06 -786.14001 -781.40002 -776.23999 -765.70001 -755.76001 -744.59998 -739.44 -728.59998 -717.44 -707.59998 -696.76001 -685.14001 -674.41998 -658.52002 -647.79999 -636.88 -623.59998 -612.88 -602.5 -597.34003 -586.5 -581.34003 -570.41998 -559.70001 -549.76001 -538.84003 -528.12 -518.17999 -507.34 -496.42001 -484.5 -472.57999 -462 -446.73999"
         y="-549.29999"
         id="tspan376">• гарантию того, что возвращаемая в естественную </tspan><tspan
         x="-921.90002 -911.17999 -899.56 -888.64001 -877.12 -866.53998 -861.38 -850.53998 -839.38 -827.85999 -817.14001 -811.97998 -800.64001 -789.71997 -779.88 -768.71997 -757.20001 -746.47998 -735.76001 -723.84003 -713.12 -707.96002 -696.03998 -690.88 -680.15997 -669 -657.84003 -647.90002 -637.06 -626.14001 -616.20001 -605.47998 -595.53998 -584.70001 -574.46399 -563.54401 -553.604"
         y="-523.29999"
         id="tspan378">среду вода безопасна и соответствует </tspan><tspan
         x="-921.90002 -911.65997 -900.94 -891 -880.28003 -868.35999 -857.20001 -846.35999 -835.14001 -824.21997 -812.29999 -800.38 -787.20001 -773.91998 -768.76001 -758.64001 -747.02002 -735.09998 -725.15997 -714.23999 -702.62 -690.70001 -680.32001 -667.03998 -661.88 -651.76001 -641.03998 -630.5 -619.58002 -608.85999 -598.91998 -588.08002 -577.35999"
         y="-497.29999"
         id="tspan380">установленным критериям качества.</tspan><tspan
         x="-939.90002 -926.84003 -921.67999 -910.47998 -898.15997 -886.96002 -874.64001 -869.47998 -862.88 -858.12 -852.96002 -841.79999 -830.46002 -814.56 -802.64001 -790.71997 -785.56 -774.40002 -763.06 -752.28003 -741.35999 -728.08002 -722.91998 -711.40002 -700.23999 -690.29999 -678.67999 -667.76001 -656.41998 -645.20001 -634.28003 -622.35999 -610.44 -600.06 -594.90002 -584.53998 -573.58398 -562.36401 -551.20398 -539.68402 -527.76398 -516.604 -504.68399 -499.52399 -487.604 -482.444 -474.32599 -463.16599 -451.54599 -441.16599 -430.62601 -419.70599 -407.78601"
         y="-458.29999"
         id="tspan382">В 2020 г. общий объем потребления холодной и горячей </tspan><tspan
         x="-939.90002 -929.06 -917.90002 -906.38 -893.20001 -888.03998 -877.20001 -872.03998 -858.03998 -847.94 -835.65997 -830.5 -819.78003 -807.85999 -795.94 -786.09998 -774.17999 -762.96002 -752.23999 -741.85999 -736.70001 -724.78003 -714.06 -708.90002 -696.53998 -695.70001 -680.88 -675.71997 -664.20001 -653.03998 -647.88 -637.15997 -625.53998 -614.82001 -603.97998 -592.06 -581.14001 -569.21997 -557.29999 -542.03998 -536.88 -526.15997 -521 -509.79999 -497.48001 -489.51999 -478.07999 -472.92001 -464.802 -453.642 -442.12201 -430.96201 -417.68201 -412.922"
         y="-432.29999"
         id="tspan384">воды в ПГК снизился на 8 % по сравнению с 2019 годом. </tspan><tspan
         x="-939.90002 -928.21997 -917.06 -903.78003 -892.26001 -881.53998 -869.62 -857.70001 -847.32001 -842.15997 -830.23999 -825.08002 -814.23999 -809.08002 -797.73999 -787.15997 -775.64001 -765.06 -749.15997 -738.23999 -724.96002 -719.79999 -708.28003 -697.06 -686.34003 -674.41998 -662.5 -651.26398 -641.02399 -630.104 -620.164 -615.00403 -605.00403 -593.784 -583.20398 -572.664 -557.284 -546.56403 -536.62402 -527.104 -521.94397 -511.224 -499.30399 -488.58401 -478.64401 -467.724 -454.444 -443.86401"
         y="-406.29999"
         id="tspan386">Компания и в будущем планирует улучшать систему </tspan><tspan
         x="-939.90002 -926.62 -915.46002 -903.53998 -891.62 -881.67999 -870.52002 -858.90002 -846.97998 -835.06 -826.70001 -815.97998 -810.82001 -799.29999 -788.08002 -777.70001 -772.53998 -762.922 -751.76202 -739.84198 -729.90198 -718.28198 -707.32202 -696.10199 -685.72198 -680.56201 -670.44202 -659.72198 -649.18201 -638.26202 -627.54199 -617.60199 -606.76202 -596.04199 -590.88202 -578.96198 -573.802 -562.64203 -551.302 -540.52197 -529.60199 -516.32202 -505.60199"
         y="-380.29999"
         id="tspan388">мониторинга для контроля качества и объема </tspan><tspan
         x="-939.90002 -928.38 -917.21997 -907.28003 -895.65997 -884.73999 -873.40002 -862.17999 -851.26001 -839.34003 -827.41998 -817.03998 -811.88 -801.03998 -789.88 -778.35999 -765.17999"
         y="-354.29999"
         id="tspan390">потребления воды.</tspan></text><g
       id="g394"><g
         id="g396"><g
           id="g402"><g
             id="g404"><path
               d="m 906.654,972.24 c -20.519,-5.176 -37.375,-12.307 -50.57,-21.405 v 0 c -13.203,-9.098 -22.927,-20.068 -29.165,-32.911 v 0 c -6.246,-12.843 -9.365,-26.94 -9.365,-42.275 v 0 c 0,-20.336 6.329,-37.46 18.998,-51.373 v 0 c 12.658,-13.914 30.41,-23.546 53.246,-28.897 v 0 c -13.563,-2.861 -25.687,-7.141 -36.39,-12.844 v 0 c -10.703,-5.711 -19.984,-12.76 -27.827,-21.138 v 0 c -7.851,-8.386 -13.83,-17.843 -17.927,-28.362 v 0 C 803.549,722.508 801.5,711.178 801.5,699.054 v 0 c 0,-15.343 3.654,-29.968 10.97,-43.881 v 0 c 7.309,-13.914 18.462,-26.138 33.446,-36.657 v 0 c 14.984,-10.527 33.713,-18.914 56.189,-25.151 v 0 C 924.581,587.128 950.802,584 980.771,584 v 0 c 29.967,0 56.188,3.128 78.664,9.365 v 0 c 22.476,6.237 41.206,14.624 56.19,25.151 v 0 c 14.983,10.519 26.129,22.743 33.445,36.657 v 0 c 7.308,13.913 10.971,28.538 10.971,43.881 v 0 c 0,12.124 -2.058,23.454 -6.155,33.981 v 0 c -4.105,10.519 -10.083,19.976 -17.927,28.362 v 0 c -7.851,8.378 -17.216,15.427 -28.094,21.138 v 0 c -10.886,5.703 -22.928,9.983 -36.122,12.844 v 0 c 22.827,5.351 40.579,14.983 53.246,28.897 v 0 c 12.66,13.913 18.997,31.037 18.997,51.373 v 0 c 0,15.335 -3.127,29.432 -9.364,42.275 v 0 c -6.246,12.843 -15.971,23.813 -29.166,32.911 v 0 c -13.202,9.098 -30.059,16.229 -50.57,21.405 v 0 c -20.519,5.168 -45.218,7.76 -74.115,7.76 v 0 c -28.898,0 -53.606,-2.592 -74.117,-7.76 m 13.914,-142.881 c -13.379,11.949 -20.068,27.376 -20.068,46.29 v 0 c 0,20.334 6.689,36.564 20.068,48.697 v 0 c 13.378,12.124 33.445,18.194 60.203,18.194 v 0 c 26.756,0 46.824,-6.07 60.202,-18.194 v 0 c 13.378,-12.133 20.068,-28.363 20.068,-48.697 v 0 c 0,-18.914 -6.69,-34.341 -20.068,-46.29 v 0 c -13.378,-11.957 -33.446,-17.926 -60.202,-17.926 v 0 c -26.758,0 -46.825,5.969 -60.203,17.926 M 908.259,643.133 c -15.878,14.448 -23.813,33.086 -23.813,55.921 v 0 c 0,21.406 8.027,39.24 24.081,53.513 v 0 c 16.054,14.265 40.135,21.406 72.244,21.406 v 0 c 32.107,0 56.188,-7.141 72.242,-21.406 v 0 c 16.055,-14.273 24.082,-32.107 24.082,-53.513 v 0 c 0,-22.835 -7.944,-41.473 -23.814,-55.921 v 0 c -15.878,-14.449 -40.051,-21.673 -72.51,-21.673 v 0 c -32.468,0 -56.641,7.224 -72.512,21.673"
               style="fill:url(#linearGradient410);stroke:none"
               id="path412" /></g></g></g></g><text
       transform="matrix(1,0,0,-1,801.5,526.3)"
       style="font-variant:normal;font-weight:500;font-stretch:normal;font-size:20px;font-family:'Rubik Medium';-inkscape-font-specification:Rubik-Medium;writing-mode:lr-tb;fill:#000000;fill-opacity:1;fill-rule:nonzero;stroke:none"
       id="text416"><tspan
         x="0 13.74 18.299999 30.700001 43.880001 56.279999 69.459999 74.019997 82.760002 94.620003 107.2 118.64 123.2 134.89999 146.75999 159.34 171.2 183.44 195.3 205.92 218.2 229.75999 241.72 253.8 265.35999 277.84 290.32001"
         y="0"
         id="tspan414">В 2020 году водопотребление</tspan></text><text
       transform="matrix(1,0,0,-1,801.5,500.3)"
       style="font-variant:normal;font-weight:500;font-stretch:normal;font-size:20px;font-family:'Rubik Medium';-inkscape-font-specification:Rubik-Medium;writing-mode:lr-tb;fill:#000000;fill-opacity:1;fill-rule:nonzero;stroke:none"
       id="text422"><tspan
         x="0 12.24 24.1 28.66 40.099998 52.380001 63.82 75.519997 88 99.559998 112.04 124.52 141.24001 145.8 157.24001 161.8 174.2 187.38 196.66 209.02 213.58 222.31799 234.17799 246.758 258.61801 272.698 277.258 288.698 301.17801 313.65799 324.37799 336.858 348.93799 360.798 372.23801 382.858"
         y="0"
         id="tspan418">по сравнению с 2019 годом снизилось </tspan><tspan
         x="0 12.48 23.92 28.48 41.619999 42.459999 58.16 63.459999 68.019997 80.599998 92.459999 97.019997 109.42 122.6 135 139.56 151.98 164.60001 177 181.56 193.64 206.12 216.74001 229.02 240.88"
         y="26"
         id="tspan420">на 8 %, до 202 532 литров</tspan></text><g
       id="g424"><g
         id="g426"
         clip-path="url(#clipPath430)"><g
           id="g432"
           transform="translate(1217,980)"><path
             d="m 0,0 h -151 c -11.046,0 -20,-8.954 -20,-20 0,-11.046 8.954,-20 20,-20 H 0 c 11.046,0 20,8.954 20,20 C 20,-8.954 11.046,0 0,0"
             style="fill:#e8e8ed;fill-opacity:1;fill-rule:nonzero;stroke:none"
             id="path434" /></g></g></g><text
       transform="matrix(1,0,0,-1,1066.8771,952.7192)"
       style="font-variant:normal;font-weight:500;font-stretch:normal;font-size:28px;font-family:'Rubik Medium';-inkscape-font-specification:Rubik-Medium;writing-mode:lr-tb;fill:#000000;fill-opacity:1;fill-rule:nonzero;stroke:none"
       id="text438"><tspan
         x="0 17.136 34.327999 50.931999 68.739998 84.924004 102.396 117.264 133.868"
         y="0"
         id="tspan436">процентов</tspan></text><text
       transform="matrix(1,0,0,-1,38.0802,1023)"
       style="font-variant:normal;font-weight:300;font-stretch:normal;font-size:20px;font-family:'Rubik Light';-inkscape-font-specification:Rubik-Light;writing-mode:lr-tb;fill:#000000;fill-opacity:1;fill-rule:nonzero;stroke:none"
       id="text442"><tspan
         x="0 11.2"
         y="0"
         id="tspan440">96</tspan></text><g
       id="g444"><g
         id="g446"><g
           id="g448"
           clip-path="url(#clipPath452)"><text
             transform="matrix(1,0,0,-1,99,1023)"
             style="font-variant:normal;font-weight:300;font-stretch:normal;font-size:20px;font-family:'Rubik Light';-inkscape-font-specification:Rubik-Light;writing-mode:lr-tb;fill:#000000;fill-opacity:1;fill-rule:nonzero;stroke:none"
             id="text456"><tspan
               x="0 13.24 18.4 28.02 39.18 52.459999 63.98 74.699997 86.620003 98.540001"
               y="0"
               id="tspan454">О компании</tspan></text></g></g></g></g></svg>
