<?xml version="1.0" encoding="UTF-8" standalone="no"?>
<?xml-stylesheet type="text/css" href="main.css" ?>
<svg
   xmlns:dc="http://purl.org/dc/elements/1.1/"
   xmlns:cc="http://creativecommons.org/ns#"
   xmlns:rdf="http://www.w3.org/1999/02/22-rdf-syntax-ns#"
   xmlns:svg="http://www.w3.org/2000/svg"
   xmlns="http://www.w3.org/2000/svg"
   version="1.1"
   id="svg2"
   xml:space="preserve"
   width="2560"
   height="1440"
   viewBox="0 0 2560 1440"><metadata
     id="metadata8"><rdf:RDF><cc:Work
         rdf:about=""><dc:format>image/svg+xml</dc:format><dc:type
           rdf:resource="http://purl.org/dc/dcmitype/StillImage" /></cc:Work></rdf:RDF></metadata><defs
     id="defs6"><clipPath
       clipPathUnits="userSpaceOnUse"
       id="clipPath20"><path
         d="M 0,1080 H 1920 V 0 H 0 Z"
         id="path18" /></clipPath><clipPath
       clipPathUnits="userSpaceOnUse"
       id="clipPath60"><path
         d="M 0,0 H 1920 V 1080 H 0 Z"
         id="path58" /></clipPath><clipPath
       clipPathUnits="userSpaceOnUse"
       id="clipPath218"><path
         d="M 0,1080 H 1920 V 0 H 0 Z"
         id="path216" /></clipPath></defs><g
     id="g10"
     transform="matrix(1.3333333,0,0,-1.3333333,0,1440)"><g
       id="g12"><g
         id="g14"><g
           id="g16"
           clip-path="url(#clipPath20)"><path
             d="M 0,0 H 1920 V 1080 H 0 Z"
             style="fill:#ffffff;fill-opacity:1;fill-rule:nonzero;stroke:none"
             id="path22" /></g></g></g><text
       transform="matrix(1,0,0,-1,99,953.4)"
       style="font-variant:normal;font-weight:normal;font-stretch:normal;font-size:38px;font-family:'Prosto One';-inkscape-font-specification:ProstoOne-Regular;writing-mode:lr-tb;fill:#000000;fill-opacity:1;fill-rule:nonzero;stroke:none"
       id="text30"><tspan
         x="0 34.200001 63.27 93.290001 124.45 156.37 187.53 200.83 227.62 257.64001 287.85001 320.91 352.07001"
         y="0"
         id="tspan24">ОХРАНА ТРУДА </tspan><tspan
         x="0 32.68 45.98 77.900002 107.92 142.12 183.92 223.63 265.23999 296.78 323.76001 355.67999 387.60001 418.76001 449.16"
         y="45.599998"
         id="tspan26">И ПРОМЫШЛЕННАЯ </tspan><tspan
         x="0 29.83 56.810001 85.120003 119.32 151.24001 182.39999 212.42 244.34 278.54001 308.56 335.35001"
         y="91.199997"
         id="tspan28">БЕЗОПАСНОСТЬ</tspan></text><text
       transform="matrix(1,0,0,-1,99,772.2801)"
       style="font-variant:normal;font-weight:300;font-stretch:normal;font-size:32px;font-family:'Rubik Light';-inkscape-font-specification:Rubik-Light;writing-mode:lr-tb;fill:#000000;fill-opacity:1;fill-rule:nonzero;stroke:none"
       id="text46"><tspan
         x="0 21.184 39.327999 56.799999 73.952003 92.384003 109.856 126.72 144.192 163.26401 182.336 199.808 208.064 226.20799 243.67999 259.42401 277.28 295.71201 312.86401 330.01599 349.08801 366.944 384.09601 400 419.07199"
         y="0"
         id="tspan32">Обеспечение безопасности </tspan><tspan
         x="0 17.152 35.007999 50.911999 68.896004 85.823997 104.256 123.328 142.39999 157.7888 175.64481 192.9888 201.2448 216.6368 234.4928 255.7408 274.17279 291.3248 310.39679 329.46881 348.5408 356.12479"
         y="38.400002"
         id="tspan34">сотрудников компании, </tspan><tspan
         x="0 17.152 35.007999 51.584 70.176003 87.328003 106.4 123.872 142.944 162.01601 179.48801 187.744 205.60001 221.79201 239.7728 256.70081 280.66879 297.8208 322.23679 347.67679 365.1488 384.22079"
         y="76.800003"
         id="tspan36">сохранение окружающей </tspan><tspan
         x="0 18.431999 37.023998 56.096001 74.688004 92.543999 110.976 130.048 147.90401 166.976 175.23199 192.384 210.976 228.448 246.88 267.96799"
         y="115.2"
         id="tspan38">природной среды </tspan><tspan
         x="0 19.072001 27.327999 45.183998 63.327999 80.800003 97.952003 116.384 133.856 150.72 168.192 187.26401 206.336 223.808 232.064 250.20799 267.67999 283.42401 300.57599 317.92001 335.07199 353.664 372.73599 391.80801 410.88 428.73599 447.80801"
         y="153.60001"
         id="tspan40">и обеспечение безаварийной </tspan><tspan
         x="0 18.591999 35.743999 53.888 71.744003 87.648003 108.736 116.992 135.424 154.01601 171.87199 190.944 206.688 224.032 241.888 260.32001 277.47198 293.37601 310.72 327.87201 336.12799 360.672 368.92801 388 405.15201 429.76001 448.832"
         y="192"
         id="tspan42">работы производства — наши </tspan><tspan
         x="0 12.544 30.496 47.647999 64.991997 84.064003 105.152 122.624 130.88 146.62399 163.776 182.20799 199.36 216.224 235.29601"
         y="230.39999"
         id="tspan44">главные задачи.</tspan></text><text
       transform="matrix(1,0,0,-1,98.5,134)"
       style="font-variant:normal;font-weight:500;font-stretch:normal;font-size:28px;font-family:'Rubik Medium';-inkscape-font-specification:Rubik-Medium;writing-mode:lr-tb;fill:#000000;fill-opacity:1;fill-rule:nonzero;stroke:none"
       id="text52"><tspan
         x="0 18.172001 35.616001 53.731998 73.192001 93.632004 113.064 132.244 152.68401 172.144 191.32401 208.29201 225.98801 232.37199 253.87601"
         y="0"
         id="tspan48">БЕЗОПАСНОСТЬ — </tspan><tspan
         x="0 20.440001 39.872002 46.256001 66.695999 84.139999 102.62 121.856 141.31599 164.052 170.436 193.172 210.44521 229.6252 246.5932 264.0372 271.56921"
         y="33.992001"
         id="tspan50">НА ПЕРВОМ МЕСТЕ! </tspan></text><g
       id="g54"><g
         id="g56"
         clip-path="url(#clipPath60)"><g
           id="g62"
           transform="translate(56.4,150.75)"><path
             d="m 0,0 c -1.4,1.9 -3.367,2.85 -5.9,2.85 -2.267,0 -4.084,-0.75 -5.45,-2.25 -1.367,-1.5 -2.05,-3.25 -2.05,-5.25 0,-2 0.666,-3.75 2,-5.25 1.333,-1.5 3,-2.25 5,-2.25 0.666,0 1.266,0.067 1.8,0.2 0.266,0.067 0.5,0.167 0.7,0.3 -0.267,-2 -1.15,-3.583 -2.65,-4.75 -1.5,-1.166 -3.117,-1.75 -4.85,-1.75 v -3.5 c 1.6,0 3.216,0.284 4.85,0.85 1.633,0.567 3.083,1.467 4.35,2.7 1.266,1.234 2.3,2.8 3.1,4.7 0.8,1.9 1.2,4.15 1.2,6.75 C 2.1,-4.117 1.4,-1.9 0,0 M 20,0 C 18.6,1.9 16.633,2.85 14.1,2.85 11.833,2.85 10.016,2.1 8.65,0.6 7.283,-0.9 6.6,-2.65 6.6,-4.65 c 0,-2 0.666,-3.75 2,-5.25 1.333,-1.5 3,-2.25 5,-2.25 0.666,0 1.266,0.067 1.8,0.2 0.266,0.067 0.5,0.167 0.7,0.3 -0.267,-2 -1.15,-3.583 -2.65,-4.75 -1.5,-1.166 -3.117,-1.75 -4.85,-1.75 v -3.5 c 1.6,0 3.216,0.284 4.85,0.85 1.633,0.567 3.083,1.467 4.35,2.7 1.266,1.234 2.3,2.8 3.1,4.7 0.8,1.9 1.2,4.15 1.2,6.75 0,2.533 -0.7,4.75 -2.1,6.65"
             style="fill:#faaa2d;fill-opacity:1;fill-rule:nonzero;stroke:none"
             id="path64" /></g></g></g><text
       transform="matrix(1,0,0,-1,693,961.3)"
       style="font-variant:normal;font-weight:300;font-stretch:normal;font-size:20px;font-family:'Rubik Light';-inkscape-font-specification:Rubik-Light;writing-mode:lr-tb;fill:#000000;fill-opacity:1;fill-rule:nonzero;stroke:none"
       id="text96"><tspan
         x="0 13.52 24.24 36.16 48.080002 59.240002 70.160004 75.32 87.239998 97.959999 109.48 121.1 131.82001 142.66 153.88 164.8 176.72 188.64 199.56 204.72 215.10001 225.94 237.16 247.53999 258.45999 268.39999 279.12 289.5 294.66 305.82001 317.34 329.26001 341.17999 354.45999 359.62 371.54001 381.38 386.54001 397.38 408.10001 423.07999 435 445.92001 457.84 473.22 485.14001 495.5"
         y="0"
         id="tspan66">Данное направление является одним из важнейших </tspan><tspan
         x="0 10.72 15.88 25.82 36.98 47.52 57.639999 69.559998 74.720001 84.559998 96.18 107.1 119.02 130.94 141.32001 146.48 160.06 171.22 182.84 196.12 208.03999 219.66 230.82001 241.66 252.38 264.29999 276.22 286.60001 291.76001 303.38 314.29999 325.82001 336.39999 346.34 357.06 369.07999 381 392.92001 398.07999 409.75601 420.91599 434.19601 445.716 456.436 468.35599 480.276 492.19601 496.95599"
         y="26"
         id="tspan68">с точки зрения формирования репутации Компании. </tspan><tspan
         x="0 13.06 18.219999 32.220001 42.32 54.599998 59.759998 70.480003 81.639999 91.480003 103 113.72 125.64 136.36 141.52 153.44 158.60001 169.32001 182.89999 196.48 207.39999 217.52 227.46001 239.38 250.22 262.14001 273.29999 278.45999 291.65601 302.23599 314.15601 324.276 336.29599 348.216 359.37601 371.29599 383.216 394.45599 404.69601 415.616 425.556"
         y="52"
         id="tspan70">В ПГК создана и эффективно функционирует </tspan><tspan
         x="0 10.72 22.639999 33.360001 43.299999 54.220001 67.5 78.220001 83.379997 93.959999 105.48 117.1 127.82 138.66 149.88 160.8 172.72 184.64 195.02 200.17999 211.34 221.7 233.32001 244.03999 255.96001 267.12 279.04001 284.20001 294.14001 305.37601 315.95599 327.47601 338.19601 342.936 348.09601 359.616 371.23599 382.396 395.67599 408.85599 424.23599 435.45599 446.37601 458.29599 470.216 481.37601 493.29599 498.03601"
         y="78"
         id="tspan72">система управления охраной труда, промышленной, </tspan><tspan
         x="0 11.52 22.68 37.66 48.380001 60 71.919998 83.080002 95 100.16 112.08 117.24 127.96 137.578 148.53799 159.758 170.918 179.278 191.198 201.73801 212.658 223.37801 232.998 244.158 256.078 261.23801 272.578 283.49799 293.33801 304.49799 316.01801 326.73801 337.45801 349.37799 360.53799 371.258 381.198 393.11801 397.87799 403.03799 414.73599 425.65601"
         y="104"
         id="tspan74">пожарной и экологической безопасности. Ее </tspan><tspan
         x="0 11.16 21.879999 33.799999 44.959999 55.799999 67.720001 80.900002 91.82 96.980003 108.5 120.12 132.03999 143.96001 155.98 167.89999 179.42 192.60001 197.75999 213.10001 218.25999 229.10001 242.28 253.8 264.758 275.978 287.89801 298.81799 310.73801 322.65799 333.578 338.73801 352.73801 363.69601 374.91599 386.836 396.776 408.69601 418.81601 430.73599"
         y="130"
         id="tspan76">основные принципы — выполнение Политики </tspan><tspan
         x="0 10.84 16 27.16 38.5 49.720001 60.439999 71.160004 81.099998 93.019997 98.18 109.34 119.7 131.32001 142.03999 153.96001 167.14 172.3 182.24001 193.478 204.058 215.578 226.298 231.03799 236.198 247.718 259.33801 270.49799 283.77802 296.95801 312.33801 323.55801 334.478 346.39801 358.31799 369.478 381.39801 386.138 391.298 402.81799 413.978 428.95801 439.67801 451.298 463.21799 474.37799 486.298"
         y="156"
         id="tspan78">в области охраны труда, промышленной, пожарной </tspan><tspan
         x="0 11.92 17.08 27.799999 37.419998 48.380001 59.599998 70.760002 79.120003 91.040001 101.58 112.5 123.22 132.838 143.998 155.918 161.078 172.418 183.338 193.17799 204.338 215.858 226.578 237.298 249.218 260.37799 271.09799 281.03799 292.95801 298.11801 310.03799 315.198 323.55801 335.17801 345.89801 360.87799 372.39801 383.11801 395.03799 405.758 415.37601 426.53601 438.45599"
         y="182"
         id="tspan80">и экологической безопасности и гражданской </tspan><tspan
         x="0 11.16 22.5 33.66 45.279999 56.439999 68.360001 81.540001 86.279999 91.440002 102.96 114.58 125.5 137.02 147.60001 159.12 170.74001 181.66 196.64 208.16 219.08 231 242.92 253.84 259 270.92001 276.07999 287.29999 299.22 309.34 320.17999 332.10001 343.62 354.34 366.35999 378.28 388.66 393.82001 404.35999 415.98001 426.89999 436.73999 447.57999 460.76001 471.29999 482.01999 493.94 505.85999 519.03998 529.40002"
         y="208"
         id="tspan82">обороны, предупреждение и ликвидация чрезвычайных </tspan><tspan
         x="0 10.72 22.639999 32.580002 43.16 53.880001 65.900002 77.82 89.739998 94.480003 99.639999 110.36 121.52 131.88 143.5 154.22 166.14 177.06 188.98 200.89999 211.82001 216.98 231.96001 243.88 253.72 265.64001 277.56 282.72 294.64001 299.79999 309.64001 321.16 332.32001 343.94 355.10001 365.94 375.45999 385.84 391 401.72 412.88 422.82001 434.056 444.63599 456.15601 468.07599 479.996 489.61401 500.77399 511.61401 516.354"
         y="234"
         id="tspan84">ситуаций, сохранение жизни и здоровья сотрудников, </tspan><tspan
         x="0 11.92 22.84 34.360001 45.52 57.040001 67.620003 83.519997 94.440002 106.36 118.28 129.2 134.34 145.06 156.28 166.86 177.39999 188.12 199.03999 209.88 215.022 226.54201 238.162 249.32201 261.242 271.082 281.922 293.082 304.60199 315.32199 325.26199 336.10199 347.022 358.94199 370.862 382.022 390.14001 401.29999 406.44199 416.38199 428.00201 438.72198 449.56201 462.84201 473.56201 483.50201 495.422 505.26199 518.54199 529.26202 534.00201"
         y="260"
         id="tspan86">недопущение случаев производственного травматизма, </tspan><tspan
         x="0 10.54 22.16 33.080002 42.919998 53.759998 66.940002 77.480003 88.199997 100.12 112.04 125.22 135.58 140.74001 152.25999 163.88 175.03999 186.96001 197.67999 213.06 223.98 234.7 244.64 255.48 267.39999 279.32001 284.06 289.22 299.94 309.556 320.51599 331.73599 342.896 351.25601 363.17599 373.716 384.63599 395.35599 405.47601 417.396 427.75601"
         y="286"
         id="tspan88">чрезвычайных происшествий, экологических </tspan><tspan
         x="0 10.12 20.84 30.780001 41.5 52.220001 62.16 73.779999 84.940002 98.279999 103.02 108.18 118.18 129.39999 139.98 150.52 165.89999 176.82001 188.74001 200.66 211.58 216.74001 226.978 237.698 248.918 260.078 270.918 282.83801 294.758 299.918 309.858 321.09601 331.67599 343.19601 353.91599 359.07599 369.79599 380.95599 390.896 402.13599 412.716 424.23599 436.15601 448.07599 457.694 468.854 479.694"
         y="312"
         id="tspan90">катастроф, улучшение условий труда сотрудников </tspan><tspan
         x="0 11.92 17.08 28.6 39.759998 50.599998 63.779999 79.160004 90.080002 102 113.92 124.84 130 140.12 150.118 161.338 170.858 180.798 191.37801 202.998 216.17799 221.338 232.67799 243.59801 253.438 264.59799 276.11801 286.83801 297.55801 309.478 320.638 331.358 341.298 353.21799 358.37799 369.89801 381.05801 386.21799 396.93799 408.09799 419.43799 430.65799 445.918 457.43799 468.358 480.27802 492.198 507.45801"
         y="338"
         id="tspan92">и повышение культуры безопасности по соблюдению </tspan><tspan
         x="0 9.9399996 21.559999 32.48 43.82 54.98 65.82 76.540001 88.459999 100.38 112.3 117.46 128.8 139.72 149.56 160.72 172.24001 182.96001 193.67999 205.60001 216.75999 227.48 237.42 249.34 254.5 264.44 275.67599 286.25601 297.776 308.496"
         y="364"
         id="tspan94">требований безопасности труда.</tspan></text><text
       transform="matrix(1,0,0,-1,693,524.3)"
       style="font-variant:normal;font-weight:500;font-stretch:normal;font-size:28px;font-family:'Rubik Medium';-inkscape-font-specification:Rubik-Medium;writing-mode:lr-tb;fill:#000000;fill-opacity:1;fill-rule:nonzero;stroke:none"
       id="text100"><tspan
         x="0 19.459999 35.279999 52.472 68.487999 85.959999 101.976 108.36 123.228 139.82919 155.8452 173.4572"
         y="0"
         id="tspan98">Охрана труда</tspan></text><text
       transform="matrix(1,0,0,-1,693,485.3)"
       style="font-variant:normal;font-weight:300;font-stretch:normal;font-size:20px;font-family:'Rubik Light';-inkscape-font-specification:Rubik-Light;writing-mode:lr-tb;fill:#000000;fill-opacity:1;fill-rule:nonzero;stroke:none"
       id="text192"><tspan
         x="0 12.64 23.559999 33.400002 44.560001 56.080002 66.800003 77.519997 89.440002 102.62 113.54 118.7 130.62 135.78 145.62 157.14 168.3 179.92 191.08 201.92 215.10001 226.02 231.17999 241.418 252.138 263.358 274.51801 285.358 297.27802 307.65799 312.81799 322.758 333.996 344.57599 356.09601 366.81601 371.97601 382.35599 393.19601 404.41599 414.79599 430.056 439.996 450.716 461.09601"
         y="0"
         id="tspan102">Безопасные и здоровые условия труда являются </tspan><tspan
         x="0 11.92 22.84 28 37.939999 48.900002 60.119999 69.639999 79.260002 90.419998 95.580002 108.86 120.02 131.64 142.36 153.58 163.10001 175.02 186.17999 195.92 211.17999 222.8 234.72 246.24001 258.16 268.70001 279.62 290.34 300.45999 312.38 325.66 330.82001 341.98001 353.32001 363.70001 373.54001 384.26001 394.20001 405.03601 416.25601 425.776 436.496 446.436 457.276 468.436 481.716 486.45599"
         y="26"
         id="tspan104">не только морально-юридическим обязательством, </tspan><tspan
         x="0 11.92 23.08 28.24 40.16 45.32 56.48 68 79.620003 90.339996 101.18 112.7 125.88 136.72 147.44 162.7 172.64 177.8 188.52 199.44 210.78 221.16 226.32001 237.03999 246.658 257.81799 269.73801 280.89801 294.17801 306.09799 316.638 327.55801 338.27802 348.39801 360.31799 365.078 370.23801 384.758 396.67801 407.51801 418.43799 429.15799 439.09799 451.01801 463.03799 474.95801 486.87799"
         y="52"
         id="tspan106">но и оправдывают себя экономически. Инвестиции </tspan><tspan
         x="0 10.84 16 27.16 37.52 49.139999 59.860001 71.779999 82.360001 87.519997 97.459999 108.698 119.278 130.798 141.51801 146.67799 158.198 169.358 179.198 190.03799 200.998 212.218 222.59801 237.858 247.798 252.95799 264.87799 274.71799 286.05801 296.978 311.95801 322.67801 332.61801 342.138 347.298 357.83801 368.67599 379.896 391.056 401.896 412.81601 423.35599 434.276 444.996 455.116 467.03601 477.396"
         y="78"
         id="tspan108">в охрану труда позволяют избежать человеческих </tspan><tspan
         x="0 10.72 20.66 32.279999 43 54.52 65.239998 77.160004 89.080002 101 106.16 118.08 123.24 133.08 143.8 159.7 171.62 181.56 193.48 203.42 212.94 218.10001 228.82001 239.53999 252.82001 263.98001 274.89999 280.06 292.07999 303 314.92001 326.84 338 348.92001 353.66 358.82001 369.35999 379.29999 390.45999 395.62 406.20001 411.35999 423.28 434 444.72 449.88 460.79999 471.51999 481.45999 490.98001 495.72 500.88 516.21997"
         y="104"
         id="tspan110">страданий и защитить самое ценное, что у нас есть, — </tspan><tspan
         x="0 11.92 22.639999 38.02 48.939999 54.099998 63.939999 75.459999 86.620003 98.239998 109.4 120.24 129.75999 140.67999 145.84 157.75999 162.92 177.89999 189.82001 199.66 211.58 221.10001 225.86 231.02 243.66 254.58 264.42001 275.57999 287.10001 297.82001 308.54001 320.45999 331.62 342.34 352.28 361.79999 366.95999 378.88 389.60001 394.76001 406.28 417.89999 429.06 440.98001 450.82001 461.66 472.82001 484.34 495.06 505 515.84003 526.76001"
         y="130"
         id="tspan112">наше здоровье и жизнь. Безопасность на производстве </tspan><tspan
         x="0 10.38 21.219999 32.439999 42.82 53.740002 63.68 74.400002 84.779999 89.940002 101.28 112.2 122.04 132.278 142.998 154.218 165.37801 176.218 188.138 201.31799 214.59801 219.758 231.278 242.89799 254.81799 265.978 277.59799 289.51801 299.45801 310.37799 320.31799 331.478 344.758 349.918 361.43799 372.65799 383.03799 388.198 402.198 412.298 424.578 429.33801"
         y="156"
         id="tspan114">является безусловным приоритетом для ПГК. </tspan><tspan
         x="0 13.06 18.219999 28.940001 38.880001 50.5 61.419998 74.699997 85.919998 96.839996 108.76 120.68 132.60001 137.75999 149.28 160.44 171.16 181.10001 193.02 208 218.92 230.84 242.75999 253.14 258.29999 270.22 280.216 291.436 302.35599 313.19601 324.35599 332.47601 343.63599 348.79599 358.73599 370.35599 381.07599 391.91599 405.19601 415.91599 425.85599 437.776 447.616 460.896 471.616"
         y="182"
         id="tspan116">В стремлении достижения нулевого травматизма </tspan><tspan
         x="0 11.68 22.84 36.119999 47.639999 58.360001 70.279999 82.199997 92.580002 97.739998 109.26 120.42 131.14 141.08 152.24001 162.62 174.53999 186.46001 197.62 202.78 212.778 223.998 234.578 245.118 260.49799 271.21799 282.138 292.078 297.23801 307.95801 319.87799 330.59799 340.53799 351.45801 364.73801 375.31799 380.478 391.05801 402.578 414.198 424.918 435.758 446.978 457.89801 469.81799 481.73801 492.11801"
         y="208"
         id="tspan118">Компания постоянно улучшает систему управления </tspan><tspan
         x="0 11.16 21.52 33.139999 43.860001 55.779999 66.940002 78.860001 84.019997 93.959999 105.198 115.778 127.298 138.01801 143.17799 155.09801 160.258 171.778 183.39799 194.558 207.838 221.01801 236.39799 247.618 258.53799 270.45801 282.37799 293.53799 305.45801 310.61801 321.95801 332.87799 342.71799 353.87799 365.39801 376.11801 386.83801 398.758 409.918 420.638 430.578 442.49799"
         y="234"
         id="tspan120">охраной труда и промышленной безопасности.</tspan><tspan
         x="0 13.06 18.219999 29.42 41.740002 52.939999 65.260002 70.419998 78.540001 89.699997 101.22 111.8 116.96 130.24001 143.42 148.58 160.5 171.22 181.75999 192.48 203.7 215.62 220.78 232.39999 243.32001 254.03999 265.26001 277.17999 287.01999 298.17999 309.01999 322.20001 333.04001 343.76001 353.70001 363.22 368.38 382.38 394 405.16 413.51999 425.14001 435.85999 449.14001 462.42001 473"
         y="273"
         id="tspan122">В 2020 году мы начали реализовывать Программу </tspan><tspan
         x="0 11.62 22.34 32.18 43.02 54.939999 64.879997 76.800003 87.18 92.339996 105.538 116.118 128.03799 138.158 150.17799 162.09801 173.258 185.17799 195.89799 207.118 216.638 228.558 239.718 247.838 258.99799 264.15799 276.078 286.798 298.31799 309.93799 320.65799 331.49799 342.71799 353.638 365.55801 377.478 387.858 393.01801 404.358 415.27802 425.11801 436.27802 447.798 458.51801 469.23801 481.15799 492.31799 503.03799 512.97803 524.89801"
         y="299"
         id="tspan124">развития функционального направления безопасности </tspan><tspan
         x="0 9.9399996 21.18 31.76 43.279999 54 59.16 69.879997 75.040001 85.620003 96.160004 107.08 117.02 128.17999 141.46001 146.62 156.46001 167.17999 178.7 189.42 199.96001 205.12 218.14 228.08 239.7 250.42 260.35999 271.28 279.64001 291.56 303.48001 312.31601 323.51599 335.836 347.03601 358.556 363.31601 368.47601 380.87601 390.81601 401.97601"
         y="325"
         id="tspan126">труда с учетом задач Стратегии-2023. Это </tspan><tspan
         x="0 11.52 23.139999 34.299999 45.82 56.779999 68 82.980003 94.900002 104.84 115.678 126.898 136.418 148.338 161.51801 173.438 178.59801 190.118 201.73801 212.89799 223.81799 233.938 243.87801 249.03799 260.55801 271.71799 276.87799 288.798 298.638 311.918 322.83801 334.758 345.67801 357.59799 369.51801 384.77802 389.93799 400.65799 411.81799 421.65799 433.578 444.298 456.21799 468.138 478.51801"
         y="351"
         id="tspan128">продолжительный проект по изменению сознания </tspan><tspan
         x="0 10.84 16 26.84 38 49.52 61.139999 72.300003 83.019997 93.739998 104.1 109.26 120.78 131.94 143.46001 153.82001 164.98 176.5 187.22 192.38 202.5 207.66 219 229.92 239.75999 250.92 262.44 273.16 283.88 295.79999 306.95999 317.67999 327.62 339.54001 344.70001 354.64001 365.87601 376.45599 387.97601 398.69601 403.85599 414.69601 419.85599 433.13599 443.85599 454.57599 469.95599 479.896 490.616 501.95599 512.67603 523.03601"
         y="377"
         id="tspan130">в вопросах подхода к безопасности труда в масштабах </tspan><tspan
         x="594 604.84003 615.56 626.47998 638.40002 643.56 655.23999 666.40002 679.67999 691.20001 701.91998 713.84003 725.76001 737.67999 742.41998 747.58002 757.52002 769.14001 780.06 791.40002 801.97998 817.23999 833.14001 845.06 856.97998 862.14001 872.97998 884.59998 895.52002 908.79999 919.71997 931.64001 943.56 948.71997 960.64001 965.79999 976.034 986.75403 998.67401 1009.894 1021.814 1033.734 1038.894 1050.814 1061.5341 1066.694 1077.5341 1088.254 1099.174 1109.5341"
         y="-476"
         id="tspan132">всей Компании, требующий времени и усилий на всех </tspan><tspan
         x="594 604.58002 616.20001 627.35999 638.20001 650.12 660.5 670.85999 676.02002 686.59998 698.12 709.73999 720.46002 731.29999 742.52002 753.44 765.35999 777.28003 787.65997 792.82001 806.82001 816.91998 829.20001 833.96002 839.12 853.12 864.73999 875.90002 884.26001 895.88 906.59998 919.88 933.15997 943.88 949.03998 960.65997 971.38 981.21997 992.06 1003.98 1013.92 1025.84 1036.22"
         y="-450"
         id="tspan134">уровнях управления ПГК. Программа развития </tspan><tspan
         x="594 605.52002 616.67999 627.40002 637.34003 648.96002 660.12 671.03998 682.96002 693.67999 698.84003 710.76001 721.47998 726.64001 737.79999 748.52002 760.44 771.59998 782.44 793.35999 798.52002 809.35999 821.28003 832.20001 843.71997 855.34003 866.26001 878.17999 890.09998 900.47998 905.64001 916.47998 921.64001 932.56 947.53998 958.46002 969.97998 981.90002 992.82001 1003.66 1015.58 1026.16 1041.42 1046.58 1058.2 1068.92 1080.26 1091.42 1101.36 1111.9399"
         y="-424"
         id="tspan136">построена на основе внедрения в ежедневную работу </tspan><tspan
         x="594 604.71997 615.88 625.82001 637.06 647.64001 659.15997 671.08002 683 692.62 703.78003 714.62 719.78003 729.90002 741.12 756.38 766.91998 777.84003 788.67999 801.85999 812.21997 817.38 829.29999 841.21997 851.94 861.88 873.11603 883.69598 896.97601 907.896 919.81598 929.75598 940.91602 951.75598 956.91602 968.25598 979.17603 989.01599 1000.176 1011.696 1022.416 1033.136 1045.056 1056.2159 1066.936 1076.876 1088.796 1093.536"
         y="-398"
         id="tspan138">сотрудников ключевых инструментов безопасности, </tspan><tspan
         x="594 605.91998 616.64001 628.15997 639.78003 650.5 661.34003 672.56 683.47998 695.40002 707.32001 720.5 730.85999 736.02002 747.94 758.65997 763.82001 774.40002 785.91998 797.53998 808.26001 819.09998 830.32001 841.23999 853.15997 865.08002 876 881.15997 892.78003 904.70001 915.41998 925.53998 936.26001 949.53998 961.46002 966.62 978.53998 983.70001 997.28003 1008.44 1020.06 1033.34 1045.26 1056.88 1068.04 1078.88 1089.6 1101.52 1113.4399 1124.36"
         y="-372"
         id="tspan140">направленных на управление рисками и формирование </tspan><tspan
         x="594 605.34003 616.26001 626.09998 637.26001 648.78003 659.5 670.21997 682.14001 693.29999 701.41803 712.578 717.73798 729.258 740.41803 751.258 762.17798 773.698 784.61798 796.53802 808.45801 818.83801 823.59802 828.758 841.99799 853.91803 864.638 869.79797 879.73798 890.45801 900.578 915.55798 926.47803 931.638 942.47803 952.59802 963.81799 979.078 989.61798 1000.338 1011.258 1021.198"
         y="-346"
         id="tspan142">безопасного поведения. Она также включает </tspan><tspan
         x="594 603.62 614.78003 626.70001 638.71997 649.64001 661.15997 673.17999 685.09998 700.35999 705.52002 715.758 726.47803 736.41803 747.578 759.49799 770.03802 781.95801 792.79797 803.95801 812.078 823.23798 828.39801 840.01801 850.73798 860.578 871.41803 883.33801 893.27802 905.198 915.578 920.31799 925.47803 936.81799 947.53802 957.37799 969.29797 980.53601 991.11603 1006.376 1022.156 1032.736 1047.996 1058.7159 1069.0959"
         y="-320"
         id="tspan144">концепцию устойчивого развития, базирующуюся </tspan><tspan
         x="594 605.91998 616.64001 621.79999 633.71997 644.64001 655.79999 667.14001 677.5 688.65997 700.17999 712.09998 725.38 736.53998 747.26001 757.20001 769.12 774.28003 785 796.15997 807.5 818.71997 833.97998 845.5 856.21997 866.15997 875.67999 880.84003 892.17999 902.90002 914.12 924.84003 936.76001 947.47998 952.64001 965.91998 976.84003 991.82001 1003.34 1013.92 1019.08 1030.7 1041.62 1057 1067.92 1079.84 1091.76 1102.6801 1115.96"
         y="-294"
         id="tspan146">на необходимости соблюдать баланс между решением </tspan><tspan
         x="594 604.71997 615.88 627.90002 639.82001 650.53998 661.76001 671.28003 683.20001 696.38 706.73999 711.90002 723.82001 728.97998 739.70001 749.31799 760.47803 772.39801 783.55798 796.83801 808.758 819.29797 830.21802 840.93799 851.05798 862.97803 873.33801 878.49799 890.01801 901.638 912.79797 924.138 935.35797 946.27802 959.55798 964.71802 976.638 981.79797 992.51801 1003.678 1014.038 1025.658 1036.3781 1048.298 1059.218 1071.1379 1083.058 1093.978 1107.2581"
         y="-268"
         id="tspan148">социальных и экономических проблем и сохранением </tspan><tspan
         x="594 605.52002 617.14001 629.06 640.67999 651.84003 663.35999 675.28003 686.44 698.35999 703.52002 714.23999 725.85999 736.78003 748.29999 761.47998 766.23999 771.40002 785.40002 797.02002 808.17999 816.53998 828.15997 838.88 852.15997 865.44 876.15997 881.32001 892.47998 902.84003 913.67999 924.40002 934.34003 947.52002 958.35999 969.08002 980 989.94 995.09998 1005.94 1016.66 1027.58 1032.74 1044.36 1055.08 1066.42 1077.58 1088.12 1100.04 1110.96"
         y="-242"
         id="tspan150">природной среды. Программа охватывает все рабочие </tspan><tspan
         x="594 607.28003 618.20001 628.91998 638.85999 649.58002 654.32001 659.47998 673.06 684.21997 694.34003 704.578 715.29797 720.45801 732.078 742.79797 752.638 763.47803 775.39801 785.33801 797.258 807.638 812.79797 823.51801 835.03802 845.87598 857.09601 867.81598 879.73602 884.896 896.81598 907.53601 912.69598 923.41602 934.63599 945.55603 957.07599 967.65601 982.91602 998.81598 1010.736 1021.096 1026.256 1037.876 1048.5959 1058.436 1069.9561 1080.7939 1092.014 1102.734 1113.094"
         y="-216"
         id="tspan152">места, фокус развития сделан на следующих разделах:</tspan><tspan
         x="594 601.59998 612 622.71997 636.29999 649.88 660.79999 670.91998 680.85999 692.78003 703.62 715.53998 728.71997 740.64001 745.79999 757.41998 769.34003 780.06 789.23798 798.97803 812.258 823.17798 835.09802 846.01801 857.53802 872.51801 885.79797 896.71802 908.638 918.578"
         y="-177"
         id="tspan154">• эффективный риск-менеджмент;</tspan><tspan
         x="594 601.59998 612 623.62 634.34003 644.17999 655.02002 666.94 676.88 688.79999 699.71997 704.88 715 724.99799 736.21802 745.73798 755.67798 766.258 777.87799 791.05798 796.21802 807.55798 818.47803 828.31799 839.47803 850.99799 861.71802 872.43799 884.35797 895.51801 906.23798 916.17798 928.09802 933.258 943.198 954.43597 965.01599 976.53601 987.25598"
         y="-151"
         id="tspan156">• развитие культуры безопасности труда;</tspan><tspan
         x="594 601.59998 612 622.71997 636.29999 649.88 660.79999 670.91998 680.85999 692.78003 703.62 715.53998 726.26001 736.64001 741.79999 752.52002 764.44 775.15997 785.09998 796.02002 809.29999 820.02002 825.17999 835.76001 847.28003 858.90002 869.62 880.46002 891.67999 902.59998 914.52002 926.44 936.82001 941.97998 953.14001 963.5 975.12 985.84003 997.76001 1008.92 1020.84"
         y="-125"
         id="tspan158">• эффективная система управления охраной </tspan><tspan
         x="612 621.94 633.17999 643.76001 655.28003 666 671.15997 676.89801 689.91803 701.01801 714.258 725.39801 731.77802"
         y="-99"
         id="tspan160">труда (СУОТ).</tspan><tspan
         x="594 607.02002 618.64001 629.56 641.08002 653 658.15997 669.67999 681.29999 692.46002 703.29999 714.21997 725.73999 736.65997 748.58002 760.5 773.67999 784.03998 789.20001 800.03998 805.20001 816.40002 828.71997 839.91998 852.23999 857.40002 865.51599 876.67603 888.19598 898.776 903.93597 917.216 928.13599 939.75598 950.91602 962.43597 974.05603 985.97601 996.35602 1006.296 1018.216 1030.136 1035.296 1048.576 1059.736 1074.7159 1086.636 1097.796"
         y="-60"
         id="tspan162">Среди проведенных в 2020 году мероприятий можно </tspan><tspan
         x="594 604.84003 618.02002 629.53998 640.38 651.59998 663.52002 673.46002 682.97998 688.14001 698.85999 710.08002 721 732.52002 743.09998 758.35999 774.26001 786.17999 797.09998"
         y="-34"
         id="tspan164">выделить следующие:</tspan><tspan
         x="594 601.59998 612 623.62 634.34003 644.17999 655.79999 666.52002 677.85999 689.02002 698.96002 709.67999 721.59998 732.32001 737.47998 750.76001 761.67999 771.62 782.78003 794.29999 806.21997 816.34003 827.06 832.21997 843.73999 854.90002 860.06 870.64001 882.15997 893.78003 904.5 915.34003 926.56 937.47998 949.40002 961.32001 976.58002"
         y="5"
         id="tspan166">• разработана методика по управлению </tspan><tspan
         x="612 623.52002 635.14001 646.29999 659.88 670.79999 681.52002 692.23999 704.15997 715.32001 727.23999 737.96002 749.17999 758.70001 770.62 783.79999 797.08002 809 814.15997 825.78003 837.70001 848.41998 858.53998 869.26001 882.53998 894.46002"
         y="31"
         id="tspan168">профессиональными рисками;</tspan><tspan
         x="594 601.59998 612 623.52002 635.14001 646.29999 657.14001 668.06 679.58002 690.5 702.41998 713.14001 718.29999 729.46002 741.47998 752.40002 764.32001 774.44 785.15997 790.32001 801.94 813.85999 824.58002 834.198 845.35797 856.198"
         y="57"
         id="tspan170">• проведена оценка рисков;</tspan><tspan
         x="594 601.59998 612 623.52002 635.14001 646.29999 657.14001 668.06 679.58002 690.5 702.41998 713.14001 718.29999 729.02002 739.73999 753.02002 764.17999 774.90002 784.84003 796 806.38 816.32001 827.15802 838.37799 847.89801 859.81799 870.53802 880.91803 886.078 897.23798 909.258 920.17798 932.09802 942.21802 952.93799 958.09802 968.67798 980.29797 991.45801 1002.298 1014.218 1024.598 1029.7581 1039.8781 1049.876 1061.0959 1070.616 1080.556 1091.136 1102.756 1115.936"
         y="83"
         id="tspan172">• проведена самостоятельная оценка уровня культуры </tspan><tspan
         x="612 623.34003 634.26001 644.09998 655.26001 666.78003 677.5 688.21997 700.14001 711.29999 722.02002 731.96002 743.88 749.03998 763.03998 776.03998 789.28003 794.44 806.5 820.5 830.59998 842.88 854.94"
         y="109"
         id="tspan174">безопасности ПАО «ПГК»;</tspan><tspan
         x="594 601.59998 612 623.52002 635.14001 646.29999 657.14001 668.06 679.58002 690.5 702.41998 707.58002 719.20001 729.58002 741.09998 746.26001 759.53998 770.46002 782.08002 793.23999 804.76001 816.38 828.29999 838.67999 848.62 860.53998 872.46002 877.62 889.14001 900.29999 905.46002 916.62 927.96002 938.53998 949.08002 960 971.91998 983.84003 999.09998"
         y="135"
         id="tspan176">• проведен ряд мероприятий по обучению </tspan><tspan
         x="612 622.71997 634.23999 645.15997 657.17999 669.09998 679.82001 691.03998 702.96002 713.67999 723.62 734.78003 745.62 750.78003 762.40002 774.32001 785.03998 794.21802 803.95801 817.23798 828.15802 840.078 850.99799 862.51801 877.49799 890.77802 901.698 913.61798 923.55798 934.138 939.29797 950.138 955.29797 966.45801 977.79797 989.01801 999.73798 1010.458 1020.398 1032.318"
         y="161"
         id="tspan178">специалистов риск-менеджменту в области </tspan><tspan
         x="612 622.91998 634.44 645.15997 649.62 656.34003 667.5 679.29999 696.85999 707.78003 719.41998 726.59998 731.34003 736.5 748.32001 759.23999 769.96002 774.46002 781.64001 793.46002 798.62 809.34003 821.14001 832.73999 837.90002 847.73999 858.35797 865.33801 876.17798 883.35797 893.45801 898.61798 904.776 916.61603 930.61603 942.19598 948.57599"
         y="187"
         id="tspan180">environment, health and safety (EHS);</tspan><tspan
         x="594 601.59998 612 623.52002 635.14001 646.29999 657.14001 668.06 679.58002 690.5 702.41998 713.58002 718.73999 729.90002 741.23999 751.82001 762.35999 773.28003 785.20001 797.12 808.03998 813.20001 824.71997 835.88 841.03998 851.15997 861.73999 873.35999 884.08002 894.65997 899.82001 911.88 922.35602 933.87598 945.49597 956.216 967.05603 978.276 989.19598 1001.116 1013.036 1023.956"
         y="213"
         id="tspan182">• проведено обучение по курсу «Управление </tspan><tspan
         x="612 623.52002 634.67999 649.65997 660.38 672 683.91998 697.09998 710.38 722.29999 727.46002 739.08002 751 761.71997 771.84003 782.56 795.84003 807.76001 819.82001 824.56 829.71997 840.88 850.82001 862.44 873.15997 884.5 895.65997 905.59998 916.32001 928.23999 941.41998 946.58002 958.09998 969.71997 980.44 990.56 1000.5 1012.42 1022.96 1033.88 1044.6 1054.72 1066.64 1077.5601"
         y="239"
         id="tspan184">пожарными рисками», отработаны практические </tspan><tspan
         x="612 623.91998 634.64001 645.47998 658.65997 668.78003 680.70001 685.85999 697.38 708.53998 713.70001 725.62 737.14001 748.06 759.97998 769.91998 781.84003 795.41998 807.34003 817.46002 828.17999 840.20001 852.12 864.03998 869.20001 881.12 886.28003 896.85999 908.38 920 930.71997 941.56 952.78003 963.70001 975.62 987.53998 1002.8 1007.96 1019.58 1031.5 1042.22 1052.34 1063.0601 1076.34 1088.26"
         y="265"
         id="tspan186">навыки по идентификации и управлению рисками </tspan><tspan
         x="612 623.91998 634.64001 639.79999 650.96002 662.29999 673.08002 684 694.12 704.06 714.78003 725.14001 730.29999 744.29999 754.40002 766.67999 771.44 776.59998 790.59998 802.21997 813.38 824.21997 835.14001 846.65997 857.58002 869.5 874.65997 884.276 895.43597 907.35602 917.47601 928.05603 939.67603 950.396 955.55603 967.47601 978.19598 983.35602 994.57599 1005.156 1015.696 1031.076 1041.656 1056.916"
         y="291"
         id="tspan188">на объектах ПГК. Проведен конкурс на лучшую </tspan><tspan
         x="612 623.62 634.34003 645.67999 656.84003 666.78003 677.35999 682.52002 693.23999 704.85999 715.78003 727.29999 739.21997 744.38 755.09998 766.62 777.53998 789.56 801.47998 812.20001 823.41998 835.34003 846.06 856 867.15997 878 882.73999 887.90002 899.06 909 919.84003 930.76001 940.70001 951.41998 961.35999 972.20001 983.12 995.03998 1006.96 1020.14 1030.5"
         y="317"
         id="tspan190">работу среди специалистов, ответственных </tspan></text><g
       id="g194"
       transform="translate(1482.8792,95.9063)"><path
         d="M 0,0 9.121,10.047 0,20.094 H -27.879 V 10.047 0 Z"
         style="fill:#faaa2d;fill-opacity:1;fill-rule:nonzero;stroke:none"
         id="path196" /></g><text
       transform="matrix(1,0,0,-1,1287,100.36)"
       style="font-variant:normal;font-weight:300;font-stretch:normal;font-size:16px;font-family:'Rubik Light';-inkscape-font-specification:Rubik-Light;writing-mode:lr-tb;fill:#000000;fill-opacity:1;fill-rule:nonzero;stroke:none"
       id="text200"><tspan
         x="0 11.2 20.496 29.424 38.639999 47.408001 56.383999 68.367996 77.103996 86.639999 96.176003 104.912 109.04 118.576 127.152 131.28 139.856 147.808 156.9104 160.7184"
         y="0"
         id="tspan198">Продолжение на стр. </tspan></text><text
       transform="matrix(1,0,0,-1,1460.1024,100.36)"
       style="font-variant:normal;font-weight:500;font-stretch:normal;font-size:16px;font-family:'Rubik Medium';-inkscape-font-specification:Rubik-Medium;writing-mode:lr-tb;fill:#ffffff;fill-opacity:1;fill-rule:nonzero;stroke:none"
       id="text204"><tspan
         x="0 9.8879995"
         y="0"
         id="tspan202">97</tspan></text><text
       transform="matrix(1,0,0,-1,38.0802,1023)"
       style="font-variant:normal;font-weight:300;font-stretch:normal;font-size:20px;font-family:'Rubik Light';-inkscape-font-specification:Rubik-Light;writing-mode:lr-tb;fill:#000000;fill-opacity:1;fill-rule:nonzero;stroke:none"
       id="text208"><tspan
         x="0 11.2"
         y="0"
         id="tspan206">96</tspan></text><g
       id="g210"><g
         id="g212"><g
           id="g214"
           clip-path="url(#clipPath218)"><text
             transform="matrix(1,0,0,-1,99,1023)"
             style="font-variant:normal;font-weight:300;font-stretch:normal;font-size:20px;font-family:'Rubik Light';-inkscape-font-specification:Rubik-Light;writing-mode:lr-tb;fill:#000000;fill-opacity:1;fill-rule:nonzero;stroke:none"
             id="text222"><tspan
               x="0 13.24 18.4 28.02 39.18 52.459999 63.98 74.699997 86.620003 98.540001"
               y="0"
               id="tspan220">О компании</tspan></text></g></g></g></g></svg>
