<?xml version="1.0" encoding="UTF-8" standalone="no"?>
<?xml-stylesheet type="text/css" href="main.css" ?>
<svg
   xmlns:dc="http://purl.org/dc/elements/1.1/"
   xmlns:cc="http://creativecommons.org/ns#"
   xmlns:rdf="http://www.w3.org/1999/02/22-rdf-syntax-ns#"
   xmlns:svg="http://www.w3.org/2000/svg"
   xmlns="http://www.w3.org/2000/svg"
   version="1.1"
   id="svg2"
   xml:space="preserve"
   width="2560"
   height="1440"
   viewBox="0 0 2560 1440"><metadata
     id="metadata8"><rdf:RDF><cc:Work
         rdf:about=""><dc:format>image/svg+xml</dc:format><dc:type
           rdf:resource="http://purl.org/dc/dcmitype/StillImage" /></cc:Work></rdf:RDF></metadata><defs
     id="defs6"><clipPath
       clipPathUnits="userSpaceOnUse"
       id="clipPath20"><path
         d="M 0,1080 H 1920 V 0 H 0 Z"
         id="path18" /></clipPath><clipPath
       clipPathUnits="userSpaceOnUse"
       id="clipPath196"><path
         d="M 0,0 H 1920 V 1080 H 0 Z"
         id="path194" /></clipPath><clipPath
       clipPathUnits="userSpaceOnUse"
       id="clipPath212"><path
         d="M 0,0 H 1920 V 1080 H 0 Z"
         id="path210" /></clipPath><clipPath
       clipPathUnits="userSpaceOnUse"
       id="clipPath228"><path
         d="M 0,0 H 1920 V 1080 H 0 Z"
         id="path226" /></clipPath><clipPath
       clipPathUnits="userSpaceOnUse"
       id="clipPath244"><path
         d="M 0,0 H 1920 V 1080 H 0 Z"
         id="path242" /></clipPath><clipPath
       clipPathUnits="userSpaceOnUse"
       id="clipPath260"><path
         d="M 0,0 H 1920 V 1080 H 0 Z"
         id="path258" /></clipPath><clipPath
       clipPathUnits="userSpaceOnUse"
       id="clipPath276"><path
         d="M 0,0 H 1920 V 1080 H 0 Z"
         id="path274" /></clipPath><clipPath
       clipPathUnits="userSpaceOnUse"
       id="clipPath304"><path
         d="M 0,0 H 1920 V 1080 H 0 Z"
         id="path302" /></clipPath><clipPath
       clipPathUnits="userSpaceOnUse"
       id="clipPath324"><path
         d="M 0,0 H 1920 V 1080 H 0 Z"
         id="path322" /></clipPath><clipPath
       clipPathUnits="userSpaceOnUse"
       id="clipPath344"><path
         d="M 0,0 H 1920 V 1080 H 0 Z"
         id="path342" /></clipPath><linearGradient
       x1="0"
       y1="0"
       x2="1"
       y2="0"
       gradientUnits="userSpaceOnUse"
       gradientTransform="matrix(364.40817,399.07785,399.07785,-364.40817,793.91312,580.629)"
       spreadMethod="pad"
       id="linearGradient410"><stop
         style="stop-opacity:1;stop-color:#0c50a8"
         offset="0"
         id="stop404" /><stop
         style="stop-opacity:1;stop-color:#0c50a8"
         offset="0.4854273"
         id="stop406" /><stop
         style="stop-opacity:1;stop-color:#fdb73e"
         offset="1"
         id="stop408" /></linearGradient><clipPath
       clipPathUnits="userSpaceOnUse"
       id="clipPath430"><path
         d="M 0,0 H 1920 V 1080 H 0 Z"
         id="path428" /></clipPath></defs><g
     id="g10"
     transform="matrix(1.3333333,0,0,-1.3333333,0,1440)"><g
       id="g12"><g
         id="g14"><g
           id="g16"
           clip-path="url(#clipPath20)"><path
             d="M 0,0 H 1920 V 1080 H 0 Z"
             style="fill:#ffffff;fill-opacity:1;fill-rule:nonzero;stroke:none"
             id="path22" /></g></g></g><path
       d="m 1287,0 h 633 v 1080 h -633 z"
       style="fill:#f0f0f5;fill-opacity:1;fill-rule:nonzero;stroke:none"
       id="path24" /><text
       transform="matrix(1,0,0,-1,1356,953.8201)"
       style="font-variant:normal;font-weight:500;font-stretch:normal;font-size:28px;font-family:'Rubik Medium';-inkscape-font-specification:Rubik-Medium;writing-mode:lr-tb;fill:#000000;fill-opacity:1;fill-rule:nonzero;stroke:none"
       id="text30"><tspan
         x="0 19.208 25.620001 42.952 61.348 78.68 97.075996 103.488 115.948 132.524 150.108 166.06799 172.48 192.164 213.584 219.996 237.104 254.29601 270.87201 287.19601 303.35199 320.23599 337.67999"
         y="0"
         id="tspan26">В 2020 году мы провели </tspan><tspan
         x="0 15.988 32.872002 49.028 66.612 82.571999 105.924 129.276 146.72 162.87601 169.28799 188.972 205.12801 222.32001 238.896 256.004 273.19601 290.64001 306.71201 321.552 338.996 355.06799"
         y="33.992001"
         id="tspan28">следующие мероприятия:</tspan></text><text
       transform="matrix(1,0,0,-1,1356,867.8201)"
       style="font-variant:normal;font-weight:300;font-stretch:normal;font-size:20px;font-family:'Rubik Light';-inkscape-font-specification:Rubik-Light;writing-mode:lr-tb;fill:#000000;fill-opacity:1;fill-rule:nonzero;stroke:none"
       id="text62"><tspan
         x="0 7.5999999 18 29.52 41.139999 52.299999 63.139999 74.059998 85.580002 96.5 108.42 119.14 124.3 135.92 146.84 156.96001 168.12 180.03999 190.75999 200.7 212.32001 222.89999 233.02 245.03999 256.95999 267.34 272.5 283.66 294.20001 306.12 316.84 326.78 338.70001 351.88 362.23999"
         y="0"
         id="tspan32">• проведена реконструкция очистных </tspan><tspan
         x="18 28.719999 39.880001 51.040001 62.66 73.239998 88.220001 99.139999 111.06 122.98 134.89999 140.06 154.06 168.06 181.08 186.24001 199.48 210.2 221.12 233.03999 245.06 258.23999 262.98001 268.14001 278.67999 288.62 299.78 304.94 316.45999 327.62 337.45999 348.29999 359.45999 370.67999 382.60001 393.82001 404.98001"
         y="26"
         id="tspan34">сооружений ППС Осенцы, что позволило </tspan><tspan
         x="18 29.52 40.68 51.52 64.699997 75.419998 87.339996 97.279999 106.8 111.96 122.08 132.8 143.34 154.25999 164.98 174.92 185.75999 196.92 202.08 213.24001 223.78 235.7 246.42 256.35999 266.48001 278.39999 283.56 294.28 304.22 315.38 325.92001 337.84 351.01999 361.38 366.54001 377.38 388.54001 400.06"
         y="52"
         id="tspan36">повысить качество очистки сточных вод;</tspan><tspan
         x="0 7.5999999 18 29.52 41.139999 52.299999 63.82 74.980003 86.199997 101.18 112.1 124.02 134.74001 139.89999 151.52 162.44 172.56 183.72 195.64 206.36 216.3 227.92 238.5 248.62 260.64001 272.56 282.94 288.10001 302.10001 316.10001 329.12"
         y="91"
         id="tspan38">• продолжена реконструкция ППС </tspan><tspan
         x="18 30.280001 41.439999 54.720001 66.059998 77.980003 89.900002 100.62 110.56 121.28 131.39999 142.56 154.48 159.64 170.36 175.52 187.53999 198.46001 209.67999 219.2 234.46001 239.62 250.34 262.26001 274.17999 289.16 300.07999 312 323.92001 334.29999 339.45999 350.38 361.29999"
         y="117"
         id="tspan40">Комбинатской с целью снижения ее </tspan><tspan
         x="18 28.84 40 49.84 61.360001 72.279999 84.199997 94.919998 104.86 115.7 127.62 138 143.16 155.08 165.8 170.96001 182.12 192.24001 203.86 214.44 229.42 240.14 255.39999 271.29999 281.88 297.14001 302.29999 313.01999 324.64001 335.56 347.07999 357.66"
         y="143"
         id="tspan42">воздействия на окружающую среду;</tspan><tspan
         x="0 7.5999999 18 28.84 40.759998 51.68 63.200001 74.82 85.739998 97.660004 108.38 113.54 124.26 136.17999 146.89999 156.84 167.75999 181.03999 191.75999 196.92 207.64 218.48 228.42 239.58 252.86 263.57999 273.51999 285.44 295.28 307.20001 318.82001 329.98001 340.82001 351.54001 363.45999 375.38 386.54001 394.89999 406.06"
         y="182"
         id="tspan44">• внедрена система автоматизированного </tspan><tspan
         x="18 29.620001 40.34 51.68 62.84 73.379997 84.300003 92.660004 103.82 108.98 122.26 133.17999 143.89999 153.84 164.56 169.72 180.44 190.56 201.72 212.94 224.10001 232.46001 243.17999 247.92 253.08 264.60001 275.76001 285.60001 296.44 307.60001 318.82001 329.20001 344.45999 360.35999 371.07999 381.45999"
         y="208"
         id="tspan46">рабочего места эколога, позволяющая </tspan><tspan
         x="18 28.120001 39.279999 51.200001 61.139999 72.760002 83.919998 95.139999 107.06 118.68 129.84 140.67999 151.39999 161.34 170.86 176.02 187.53999 198.7 208.82001 219.53999 229.38 240.10001 250.03999 260.95999 272.17999 284.10001 289.26001 302.54001 313.70001 325.62 337.54001 347.48001 358.64001 370.26001 382.17999 394.10001 402.45999 413.17999"
         y="234"
         id="tspan48">контролировать показатели мониторинга </tspan><tspan
         x="18 29.92 35.080002 45.799999 56.959999 67.68 77.620003 88.779999 99.160004 111.08 123 133.38 138.53999 149.7 160.06 171.67999 182.39999 194.32001 207.5 212.66 223.82001 233.94 245.56 256.14001 271.12 281.84 297.10001 313 323.92001 335.84 341 351.72 363.34 374.26001 385.78 398.95999"
         y="260"
         id="tspan50">и состояния охраны окружающей среды </tspan><tspan
         x="18 29.92 35.080002 46.700001 57.619999 68.339996 76.699997 88.620003 100.24 111.4 122.24 132.96001 142.89999 152.42 157.58 168.42 173.58 185.2 196.12 211.10001 223.02 236.3 247.22 252.38 264 274.92001 285.64001 296.85999 306.38 318.29999 329.45999 337.82001 348.98001 354.14001 364.98001 376.60001 387.51999 400.79999 411.72 423.64001 435.56"
         y="286"
         id="tspan52">и реагировать в режиме реального времени;</tspan><tspan
         x="0 7.5999999 18 29.219999 41.139999 51.259998 62.099998 74.019997 85.540001 97.459999 109.08 120.24 131.08 141.8 153.72 158.88 170.8 181.52 191.64 202.8 214.32001 225.53999 236.46001 248.38 260.29999 273.48001 285.39999 290.56 301.14001 317.04001 327.95999 339.57999 350.92001"
         y="325"
         id="tspan54">• ликвидирован накопленный ущерб </tspan><tspan
         x="18 29.52 41.139999 52.060001 63.580002 76.760002 88.279999 98.860001 114.76 126.68 139.96001 151.88 157.03999 167.75999 178.92 190.25999 200.98 210.92 221.75999 232.67999 244.60001 256.51999 268.44 278.56 289.28 302.56 314.48001"
         y="351"
         id="tspan56">предыдущими собственниками </tspan><tspan
         x="18 29.52 41.139999 52.299999 64.220001 74.059998 84.900002 96.059998 107.58 118.3 128.24001 139.08 150 161.92 173.84 187.02 197.38 202.53999 213.7 225.03999 235.82001 246.74001 256.85999 266.79999 277.95999 288.79999 293.95999 305.12 315.23999 326.85999 337.44 352.42001 363.14001 378.39999 394.29999 405.22 417.14001"
         y="377"
         id="tspan58">производственных объектов окружающей </tspan><tspan
         x="18 28.719999 40.34 51.259998 62.779999 73.699997 78.860001 89.699997 94.860001 106.48 117.2 127.04 140.32001 151.24001 162.86 173.78 178.94 186.89999 198.42 209.86 222.17999 224.67999"
         y="403"
         id="tspan60">среде в размере 1350 м</tspan></text><text
       transform="matrix(1,0,0,-1,1593.9567,471.4801)"
       style="font-variant:normal;font-weight:300;font-stretch:normal;font-size:11.66px;font-family:'Rubik Light';-inkscape-font-specification:Rubik-Light;writing-mode:lr-tb;fill:#000000;fill-opacity:1;fill-rule:nonzero;stroke:none"
       id="text66"><tspan
         x="0"
         y="0"
         id="tspan64">3</tspan></text><text
       transform="matrix(1,0,0,-1,1600.6727,464.8201)"
       style="font-variant:normal;font-weight:300;font-stretch:normal;font-size:20px;font-family:'Rubik Light';-inkscape-font-specification:Rubik-Light;writing-mode:lr-tb;fill:#000000;fill-opacity:1;fill-rule:nonzero;stroke:none"
       id="text88"><tspan
         x="0"
         y="0"
         id="tspan68">;</tspan><tspan
         x="-244.67999 -237.08 -226.67999 -215.16 -203.53999 -192.38 -181.53999 -170.62 -159.10001 -148.17999 -136.25999 -125.54 -120.38 -108.86 -97.239998 -86.519997 -76.400002 -66.459999 -54.540001 -44 -33.080002 -22.360001 -12.24 -1.52 8.8599997 14.02 25.18 36.52 47.099998 57.639999 68.360001 83.620003 99.519997 110.24 120.62 125.78 136.5 147.42 158.14 168.86 180.78 191.16"
         y="39"
         id="tspan70">• проведена практическая обучающая сессия </tspan><tspan
         x="-226.67999 -214.62 -195.72 -185.60001 -174.44 -163.22 -152.5 -147.34 -135.82001 -124.66 -119.5 -107.98 -96.82 -81.839996 -71.120003 -59.5 -47.580002 -36.419998 -24.5 -19.34 -7.4200001 -2.26 8.46 18.58 29.74 40.959999 52.119999 60.48 72.400002 82.940002 93.860001 104.58 114.7 125.86 137.78"
         y="65"
         id="tspan72">«Школа по пожарной и экологической </tspan><tspan
         x="-226.67999 -215.34 -204.42 -194.58 -183.42 -171.89999 -161.17999 -150.46001 -138.53999 -127.38 -116.66 -106.72 -94.800003 -82.739998 -77.580002 -66.059998 -54.84 -44.459999 -39.299999 -27.68 -17.1 -6.98 4.1799998 15.02 26.18 37.700001 49.619999 59.560001 70.480003 81.699997 92.620003 104.54"
         y="91"
         id="tspan74">безопасности» для руководителей </tspan><tspan
         x="-226.67999 -214.75999 -209.60001 -198.88 -187.36 -176.44 -164.42 -152.5 -141.78 -130.56 -118.64 -107.92 -97.980003 -86.82 -75.980003 -70.82 -59.98 -49.259998 -38.34 -27.98 -22.82 -11.3 0.31999999 11.48 23.4 33.240002 44.080002 55.240002 66.760002 77.480003 87.419998 98.260002 109.18 121.1 133.02 146.2 156.56"
         y="117"
         id="tspan76">и специалистов всех производственных </tspan><tspan
         x="-226.67999 -214.75999 -209.60001 -197.67999 -186.75999 -175.24001 -163.62 -152.46001 -140.53999 -130.7 -119.86 -108.7 -97.18 -86.459999 -76.519997 -65.68 -54.759998 -42.84 -30.92 -17.74 -7.3800001 -2.22 8.9399996 20.280001 31.059999 41.98 52.099998 62.040001 73.199997 84.040001 89.199997 101.48 112.64 125.92 137.44 148.16 160.08 172 183.92 188.67999"
         y="143"
         id="tspan78">и непроизводственных объектов Компании. </tspan><tspan
         x="-226.67999 -213.62 -208.46001 -196.94 -186.22 -174.3 -162.38 -151.22 -139.3 -134.14 -123.42 -112.5 -101.78 -91.059998 -79.139999 -67.220001 -62.060001 -50.540001 -38.919998 -27 -15.08 -4.6999998 6.52 18.440001 23.6 34.18 44.720001 55.439999 66.160004 76.099998 88.019997 98.940002 104.1 115.44 126.6 137.82001 148.74001 159.66"
         y="169"
         id="tspan80">В данной сессии приняли участие более </tspan><tspan
         x="-226.67999 -215.16 -202.84 -197.67999 -186.06 -175.48 -165.36 -154.2 -143.36 -132.2 -120.68 -108.76 -98.82 -87.900002 -76.68 -65.760002 -53.84 -48.68 -36.759998 -31.6 -20.879999 -9.3599997 1.5599999 13.58 25.5 36.220001 47.439999 59.360001 70.080002 80.019997 91.18 102.02 106.78 111.94 125.94 137.10001 142.25999 154.17999 164.12 175.28 183.64 194.36 207.64"
         y="195"
         id="tspan82">30 руководителей и специалистов. По итогам </tspan><tspan
         x="-226.67999 -215.96001 -205.03999 -194.32001 -183.60001 -171.67999 -159.75999 -154.60001 -143.88 -132.72 -122.78 -111.16 -100.58 -89.059998 -77.139999 -65.220001 -55.099998 -43.18 -38.02 -24.02 -13.92 -1.64 3.52 13.64 24.360001 34.900002 45.82 56.540001 66.480003 77.32 88.239998 100.16 112.08 123.24"
         y="221"
         id="tspan84">сессии сотрудники ПГК качественно </tspan><tspan
         x="-226.67999 -215.16 -204 -193.16 -179.98 -169.25999 -157.34 -146.12 -134.2 -129.03999 -118.46 -106.84 -95.68 -84.839996 -73.919998 -62 -52.48 -47.32 -35.400002 -24.68 -13.84 -0.66000003 9.46 20.620001 31.459999 36.619999 48.540001 53.700001 63.82 74.980003 88.260002 99.779999 110.7 120.64 131.56 143.48 155.5 167.42 179.34"
         y="247"
         id="tspan86">повысили уровень навыков и компетенций.</tspan></text><text
       transform="matrix(1,0,0,-1,99.4108,343.8999)"
       style="font-variant:normal;font-weight:500;font-stretch:normal;font-size:28px;font-family:'Rubik Medium';-inkscape-font-specification:Rubik-Medium;writing-mode:lr-tb;fill:#000000;fill-opacity:1;fill-rule:nonzero;stroke:none"
       id="text92"><tspan
         x="0 20.860001 38.304001 55.748001 71.736 91.419998 108.864 124.852 140.84 147.252 164.36 180.936 195.776 212.968 229.12399 245.84 262.724 278.88 296.32401 313.76801 329.84 336.25201 352.57599 369.15201 386.73599"
         y="0"
         id="tspan90">Динамика потребления воды</tspan></text><g
       id="g94"
       transform="translate(99,217.2)"><path
         d="M 0,0 H 257"
         style="fill:none;stroke:#e9e9e9;stroke-width:1;stroke-linecap:butt;stroke-linejoin:miter;stroke-miterlimit:10;stroke-dasharray:none;stroke-opacity:1"
         id="path96" /></g><g
       id="g98"
       transform="translate(356,217.2)"><path
         d="M 0,0 H 135"
         style="fill:none;stroke:#e9e9e9;stroke-width:1;stroke-linecap:butt;stroke-linejoin:miter;stroke-miterlimit:10;stroke-dasharray:none;stroke-opacity:1"
         id="path100" /></g><g
       id="g102"
       transform="translate(491,217.2)"><path
         d="M 0,0 H 135"
         style="fill:none;stroke:#e9e9e9;stroke-width:1;stroke-linecap:butt;stroke-linejoin:miter;stroke-miterlimit:10;stroke-dasharray:none;stroke-opacity:1"
         id="path104" /></g><g
       id="g106"
       transform="translate(626,217.2)"><path
         d="M 0,0 H 135"
         style="fill:none;stroke:#e9e9e9;stroke-width:1;stroke-linecap:butt;stroke-linejoin:miter;stroke-miterlimit:10;stroke-dasharray:none;stroke-opacity:1"
         id="path108" /></g><g
       id="g110"
       transform="translate(761,217.2)"><path
         d="M 0,0 H 135"
         style="fill:none;stroke:#e9e9e9;stroke-width:1;stroke-linecap:butt;stroke-linejoin:miter;stroke-miterlimit:10;stroke-dasharray:none;stroke-opacity:1"
         id="path112" /></g><g
       id="g114"
       transform="translate(896,217.2)"><path
         d="M 0,0 H 135"
         style="fill:none;stroke:#e9e9e9;stroke-width:1;stroke-linecap:butt;stroke-linejoin:miter;stroke-miterlimit:10;stroke-dasharray:none;stroke-opacity:1"
         id="path116" /></g><g
       id="g118"
       transform="translate(1031,217.2)"><path
         d="M 0,0 H 135"
         style="fill:none;stroke:#e9e9e9;stroke-width:1;stroke-linecap:butt;stroke-linejoin:miter;stroke-miterlimit:10;stroke-dasharray:none;stroke-opacity:1"
         id="path120" /></g><g
       id="g122"
       transform="translate(1166,217.2)"><path
         d="M 0,0 H 61.205"
         style="fill:none;stroke:#e9e9e9;stroke-width:1;stroke-linecap:butt;stroke-linejoin:miter;stroke-miterlimit:10;stroke-dasharray:none;stroke-opacity:1"
         id="path124" /></g><g
       id="g126"
       transform="translate(99,174.5)"><path
         d="M 0,0 H 257"
         style="fill:none;stroke:#e9e9e9;stroke-width:1;stroke-linecap:butt;stroke-linejoin:miter;stroke-miterlimit:10;stroke-dasharray:none;stroke-opacity:1"
         id="path128" /></g><g
       id="g130"
       transform="translate(356,174.5)"><path
         d="M 0,0 H 135"
         style="fill:none;stroke:#e9e9e9;stroke-width:1;stroke-linecap:butt;stroke-linejoin:miter;stroke-miterlimit:10;stroke-dasharray:none;stroke-opacity:1"
         id="path132" /></g><g
       id="g134"
       transform="translate(491,174.5)"><path
         d="M 0,0 H 135"
         style="fill:none;stroke:#e9e9e9;stroke-width:1;stroke-linecap:butt;stroke-linejoin:miter;stroke-miterlimit:10;stroke-dasharray:none;stroke-opacity:1"
         id="path136" /></g><g
       id="g138"
       transform="translate(626,174.5)"><path
         d="M 0,0 H 135"
         style="fill:none;stroke:#e9e9e9;stroke-width:1;stroke-linecap:butt;stroke-linejoin:miter;stroke-miterlimit:10;stroke-dasharray:none;stroke-opacity:1"
         id="path140" /></g><g
       id="g142"
       transform="translate(761,174.5)"><path
         d="M 0,0 H 135"
         style="fill:none;stroke:#e9e9e9;stroke-width:1;stroke-linecap:butt;stroke-linejoin:miter;stroke-miterlimit:10;stroke-dasharray:none;stroke-opacity:1"
         id="path144" /></g><g
       id="g146"
       transform="translate(896,174.5)"><path
         d="M 0,0 H 135"
         style="fill:none;stroke:#e9e9e9;stroke-width:1;stroke-linecap:butt;stroke-linejoin:miter;stroke-miterlimit:10;stroke-dasharray:none;stroke-opacity:1"
         id="path148" /></g><g
       id="g150"
       transform="translate(1031,174.5)"><path
         d="M 0,0 H 135"
         style="fill:none;stroke:#e9e9e9;stroke-width:1;stroke-linecap:butt;stroke-linejoin:miter;stroke-miterlimit:10;stroke-dasharray:none;stroke-opacity:1"
         id="path152" /></g><g
       id="g154"
       transform="translate(1166,174.5)"><path
         d="M 0,0 H 61.205"
         style="fill:none;stroke:#e9e9e9;stroke-width:1;stroke-linecap:butt;stroke-linejoin:miter;stroke-miterlimit:10;stroke-dasharray:none;stroke-opacity:1"
         id="path156" /></g><g
       id="g158"
       transform="translate(356,261.2)"><path
         d="M 0,0 H 135"
         style="fill:none;stroke:#fdb73e;stroke-width:4;stroke-linecap:butt;stroke-linejoin:miter;stroke-miterlimit:10;stroke-dasharray:none;stroke-opacity:1"
         id="path160" /></g><g
       id="g162"
       transform="translate(491,261.2)"><path
         d="M 0,0 H 135"
         style="fill:none;stroke:#fdb73e;stroke-width:4;stroke-linecap:butt;stroke-linejoin:miter;stroke-miterlimit:10;stroke-dasharray:none;stroke-opacity:1"
         id="path164" /></g><g
       id="g166"
       transform="translate(626,261.2)"><path
         d="M 0,0 H 135"
         style="fill:none;stroke:#fdb73e;stroke-width:4;stroke-linecap:butt;stroke-linejoin:miter;stroke-miterlimit:10;stroke-dasharray:none;stroke-opacity:1"
         id="path168" /></g><g
       id="g170"
       transform="translate(761,261.2)"><path
         d="M 0,0 H 135"
         style="fill:none;stroke:#f0f0f5;stroke-width:4;stroke-linecap:butt;stroke-linejoin:miter;stroke-miterlimit:10;stroke-dasharray:none;stroke-opacity:1"
         id="path172" /></g><g
       id="g174"
       transform="translate(896,261.2)"><path
         d="M 0,0 H 135"
         style="fill:none;stroke:#f0f0f5;stroke-width:4;stroke-linecap:butt;stroke-linejoin:miter;stroke-miterlimit:10;stroke-dasharray:none;stroke-opacity:1"
         id="path176" /></g><g
       id="g178"
       transform="translate(1031,261.2)"><path
         d="M 0,0 H 135"
         style="fill:none;stroke:#f0f0f5;stroke-width:4;stroke-linecap:butt;stroke-linejoin:miter;stroke-miterlimit:10;stroke-dasharray:none;stroke-opacity:1"
         id="path180" /></g><text
       transform="matrix(1,0,0,-1,99,273.2)"
       style="font-variant:normal;font-weight:300;font-stretch:normal;font-size:20px;font-family:'Rubik Light';-inkscape-font-specification:Rubik-Light;writing-mode:lr-tb;fill:#000000;fill-opacity:1;fill-rule:nonzero;stroke:none"
       id="text184"><tspan
         x="0"
         y="0"
         id="tspan182"> </tspan></text><text
       transform="matrix(1,0,0,-1,532.98,273.2)"
       style="font-variant:normal;font-weight:500;font-stretch:normal;font-size:20px;font-family:'Rubik Medium';-inkscape-font-specification:Rubik-Medium;writing-mode:lr-tb;fill:#000000;fill-opacity:1;fill-rule:nonzero;stroke:none"
       id="text188"><tspan
         x="0 12.38 25.52 37.900002 406.95999 419.34 432.48001 441.73999"
         y="0"
         id="tspan186">20202019</tspan></text><g
       id="g190"><g
         id="g192"
         clip-path="url(#clipPath196)"><g
           id="g198"
           transform="translate(435.25,248.2)"><path
             d="m 0,0 h -23.5 c -5.523,0 -10,-4.477 -10,-10 0,-5.523 4.477,-10 10,-10 H 0 c 5.523,0 10,4.477 10,10 C 10,-4.477 5.523,0 0,0"
             style="fill:#fdb73e;fill-opacity:1;fill-rule:nonzero;stroke:none"
             id="path200" /></g></g></g><text
       transform="matrix(1,0,0,-1,418.774,232.5999)"
       style="font-variant:normal;font-weight:bold;font-stretch:normal;font-size:16px;font-family:Rubik;-inkscape-font-specification:Rubik-Bold;writing-mode:lr-tb;fill:#ffffff;fill-opacity:1;fill-rule:nonzero;stroke:none"
       id="text204"><tspan
         x="0"
         y="0"
         id="tspan202">1</tspan></text><g
       id="g206"><g
         id="g208"
         clip-path="url(#clipPath212)"><g
           id="g214"
           transform="translate(570.25,248.2)"><path
             d="m 0,0 h -23.5 c -5.523,0 -10,-4.477 -10,-10 0,-5.523 4.477,-10 10,-10 H 0 c 5.523,0 10,4.477 10,10 C 10,-4.477 5.523,0 0,0"
             style="fill:#0c50a8;fill-opacity:1;fill-rule:nonzero;stroke:none"
             id="path216" /></g></g></g><text
       transform="matrix(1,0,0,-1,552.55,232.5999)"
       style="font-variant:normal;font-weight:bold;font-stretch:normal;font-size:16px;font-family:Rubik;-inkscape-font-specification:Rubik-Bold;writing-mode:lr-tb;fill:#ffffff;fill-opacity:1;fill-rule:nonzero;stroke:none"
       id="text220"><tspan
         x="0"
         y="0"
         id="tspan218">2</tspan></text><g
       id="g222"><g
         id="g224"
         clip-path="url(#clipPath228)"><g
           id="g230"
           transform="translate(705.25,248.2)"><path
             d="m 0,0 h -23.5 c -5.523,0 -10,-4.477 -10,-10 0,-5.523 4.477,-10 10,-10 H 0 c 5.523,0 10,4.477 10,10 C 10,-4.477 5.523,0 0,0"
             style="fill:#9ea3aa;fill-opacity:1;fill-rule:nonzero;stroke:none"
             id="path232" /></g></g></g><text
       transform="matrix(1,0,0,-1,687.478,232.5999)"
       style="font-variant:normal;font-weight:bold;font-stretch:normal;font-size:16px;font-family:Rubik;-inkscape-font-specification:Rubik-Bold;writing-mode:lr-tb;fill:#ffffff;fill-opacity:1;fill-rule:nonzero;stroke:none"
       id="text236"><tspan
         x="0"
         y="0"
         id="tspan234">3</tspan></text><g
       id="g238"><g
         id="g240"
         clip-path="url(#clipPath244)"><g
           id="g246"
           transform="translate(840.25,248.2)"><path
             d="m 0,0 h -23.5 c -5.523,0 -10,-4.477 -10,-10 0,-5.523 4.477,-10 10,-10 H 0 c 5.523,0 10,4.477 10,10 C 10,-4.477 5.523,0 0,0"
             style="fill:#fdb73e;fill-opacity:1;fill-rule:nonzero;stroke:none"
             id="path248" /></g></g></g><text
       transform="matrix(1,0,0,-1,823.774,232.5999)"
       style="font-variant:normal;font-weight:bold;font-stretch:normal;font-size:16px;font-family:Rubik;-inkscape-font-specification:Rubik-Bold;writing-mode:lr-tb;fill:#ffffff;fill-opacity:1;fill-rule:nonzero;stroke:none"
       id="text252"><tspan
         x="0"
         y="0"
         id="tspan250">1</tspan></text><g
       id="g254"><g
         id="g256"
         clip-path="url(#clipPath260)"><g
           id="g262"
           transform="translate(975.25,248.2)"><path
             d="m 0,0 h -23.5 c -5.523,0 -10,-4.477 -10,-10 0,-5.523 4.477,-10 10,-10 H 0 c 5.523,0 10,4.477 10,10 C 10,-4.477 5.523,0 0,0"
             style="fill:#0c50a8;fill-opacity:1;fill-rule:nonzero;stroke:none"
             id="path264" /></g></g></g><text
       transform="matrix(1,0,0,-1,957.55,232.5999)"
       style="font-variant:normal;font-weight:bold;font-stretch:normal;font-size:16px;font-family:Rubik;-inkscape-font-specification:Rubik-Bold;writing-mode:lr-tb;fill:#ffffff;fill-opacity:1;fill-rule:nonzero;stroke:none"
       id="text268"><tspan
         x="0"
         y="0"
         id="tspan266">2</tspan></text><g
       id="g270"><g
         id="g272"
         clip-path="url(#clipPath276)"><g
           id="g278"
           transform="translate(1110.25,248.2)"><path
             d="m 0,0 h -23.5 c -5.523,0 -10,-4.477 -10,-10 0,-5.523 4.477,-10 10,-10 H 0 c 5.523,0 10,4.477 10,10 C 10,-4.477 5.523,0 0,0"
             style="fill:#9ea3aa;fill-opacity:1;fill-rule:nonzero;stroke:none"
             id="path280" /></g></g></g><text
       transform="matrix(1,0,0,-1,1092.478,232.5999)"
       style="font-variant:normal;font-weight:bold;font-stretch:normal;font-size:16px;font-family:Rubik;-inkscape-font-specification:Rubik-Bold;writing-mode:lr-tb;fill:#ffffff;fill-opacity:1;fill-rule:nonzero;stroke:none"
       id="text284"><tspan
         x="0"
         y="0"
         id="tspan282">3</tspan></text><text
       transform="matrix(1,0,0,-1,1193.278,231.7199)"
       style="font-variant:normal;font-weight:300;font-stretch:normal;font-size:16px;font-family:'Rubik Light';-inkscape-font-specification:Rubik-Light;writing-mode:lr-tb;fill:#000000;fill-opacity:1;fill-rule:nonzero;stroke:none"
       id="text288"><tspan
         x="0 11.616 19.488001 30.112"
         y="0"
         id="tspan286">Изм.</tspan></text><text
       transform="matrix(1,0,0,-1,99,186.5)"
       style="font-variant:normal;font-weight:300;font-stretch:normal;font-size:20px;font-family:'Rubik Light';-inkscape-font-specification:Rubik-Light;writing-mode:lr-tb;fill:#000000;fill-opacity:1;fill-rule:nonzero;stroke:none"
       id="text292"><tspan
         x="0 13.06 24.219999 35.740002 46.900002 58.419998 69.580002 79.519997 91.139999 102.06 113.4 124.62 135.53999 147.46001 159.38 170.3 175.03999 180.2 190.32001 200.89999 212.24001 217 222.16 285.92001 297.92001 309.92001 321.92001 327.07999 339.07999 351.07999 432.16 440.12 452.44 457.60001 467.34 477.07999 557.47998 568.67999 581 592.20001 597.35999 608.79999 620.32001 691.03998 702.23999 714.56 726.46002 731.62 743.97998 755.62 834.59998 842.56 854.46002 859.62 871.52002 882.96002 966.35999 977.56 985.52002 996.96002 1002.12 1013.24 1021.2"
         y="0"
         id="tspan290">Водопотребление, куб. м191 75510 777202 532204 86014 455219 315</tspan></text><text
       transform="matrix(1,0,0,-1,1188.78,186.5)"
       style="font-variant:normal;font-weight:500;font-stretch:normal;font-size:20px;font-family:'Rubik Medium';-inkscape-font-specification:Rubik-Medium;writing-mode:lr-tb;fill:#fdb73e;fill-opacity:1;fill-rule:nonzero;stroke:none"
       id="text296"><tspan
         x="0 9.6199999 22.74"
         y="0"
         id="tspan294">-8%</tspan></text><g
       id="g298"><g
         id="g300"
         clip-path="url(#clipPath304)"><g
           id="g306"
           transform="translate(132.5,143)"><path
             d="m 0,0 h -23.5 c -5.523,0 -10,-4.477 -10,-10 0,-5.523 4.477,-10 10,-10 H 0 c 5.523,0 10,4.477 10,10 C 10,-4.477 5.523,0 0,0"
             style="fill:#fdb73e;fill-opacity:1;fill-rule:nonzero;stroke:none"
             id="path308" /></g></g></g><text
       transform="matrix(1,0,0,-1,116.024,127.4)"
       style="font-variant:normal;font-weight:bold;font-stretch:normal;font-size:16px;font-family:Rubik;-inkscape-font-specification:Rubik-Bold;writing-mode:lr-tb;fill:#ffffff;fill-opacity:1;fill-rule:nonzero;stroke:none"
       id="text312"><tspan
         x="0"
         y="0"
         id="tspan310">1</tspan></text><text
       transform="matrix(1,0,0,-1,152.5,126)"
       style="font-variant:normal;font-weight:300;font-stretch:normal;font-size:20px;font-family:'Rubik Light';-inkscape-font-specification:Rubik-Light;writing-mode:lr-tb;fill:#000000;fill-opacity:1;fill-rule:nonzero;stroke:none"
       id="text316"><tspan
         x="0 14 25.620001 36.779999 48.700001 58.540001 69.379997 80.540001 92.059998 102.78 112.72 123.56 134.48 146.39999 158.32001 169.48 180.39999 190.39999 201.92 213.08 223.02 234.64 245.56 256.89999 268.12 279.04001 290.95999 302.88 313.79999"
         y="0"
         id="tspan314">Производственное потребление </tspan></text><g
       id="g318"><g
         id="g320"
         clip-path="url(#clipPath324)"><g
           id="g326"
           transform="translate(569.084,143)"><path
             d="m 0,0 h -23.5 c -5.523,0 -10,-4.477 -10,-10 0,-5.523 4.477,-10 10,-10 H 0 c 5.523,0 10,4.477 10,10 C 10,-4.477 5.523,0 0,0"
             style="fill:#0c50a8;fill-opacity:1;fill-rule:nonzero;stroke:none"
             id="path328" /></g></g></g><text
       transform="matrix(1,0,0,-1,551.384,127.4)"
       style="font-variant:normal;font-weight:bold;font-stretch:normal;font-size:16px;font-family:Rubik;-inkscape-font-specification:Rubik-Bold;writing-mode:lr-tb;fill:#ffffff;fill-opacity:1;fill-rule:nonzero;stroke:none"
       id="text332"><tspan
         x="0"
         y="0"
         id="tspan330">2</tspan></text><text
       transform="matrix(1,0,0,-1,589.084,126)"
       style="font-variant:normal;font-weight:300;font-stretch:normal;font-size:20px;font-family:'Rubik Light';-inkscape-font-specification:Rubik-Light;writing-mode:lr-tb;fill:#000000;fill-opacity:1;fill-rule:nonzero;stroke:none"
       id="text336"><tspan
         x="0 13.24 24.58 40.48 51.400002 61.759998 72.919998 82.760002 93.139999 105.06 115.78 125.72 136.56 147.48 159.39999 171.32001 182.48 193.39999 203.39999 214.92 226.08 236.02 247.64 258.56 269.89999 281.12 292.04001 303.95999 315.88 326.79999"
         y="0"
         id="tspan334">Общехозяйственное потребление </tspan></text><g
       id="g338"><g
         id="g340"
         clip-path="url(#clipPath344)"><g
           id="g346"
           transform="translate(1018.6675,143)"><path
             d="m 0,0 h -23.5 c -5.523,0 -10,-4.477 -10,-10 0,-5.523 4.477,-10 10,-10 H 0 c 5.523,0 10,4.477 10,10 C 10,-4.477 5.523,0 0,0"
             style="fill:#9ea3aa;fill-opacity:1;fill-rule:nonzero;stroke:none"
             id="path348" /></g></g></g><text
       transform="matrix(1,0,0,-1,1000.8955,127.4)"
       style="font-variant:normal;font-weight:bold;font-stretch:normal;font-size:16px;font-family:Rubik;-inkscape-font-specification:Rubik-Bold;writing-mode:lr-tb;fill:#ffffff;fill-opacity:1;fill-rule:nonzero;stroke:none"
       id="text352"><tspan
         x="0"
         y="0"
         id="tspan350">3</tspan></text><text
       transform="matrix(1,0,0,-1,1038.6675,126)"
       style="font-variant:normal;font-weight:300;font-stretch:normal;font-size:20px;font-family:'Rubik Light';-inkscape-font-specification:Rubik-Light;writing-mode:lr-tb;fill:#000000;fill-opacity:1;fill-rule:nonzero;stroke:none"
       id="text390"><tspan
         x="0 14.52 24.459999 35.619999 43.98 55.139999 65.139999 76.660004 87.82 97.760002 109.38 120.3 131.64 142.86 153.78 165.7 177.62"
         y="0"
         id="tspan354">Итого потребление</tspan><tspan
         x="-939.65997 -925.65997 -915.56 -903.28003 -898.12 -886.20001 -875.47998 -863.96002 -852.79999 -841.58002 -832.06 -822.21997 -811.64001 -800.71997 -790.78003 -785.62 -774.78003 -763.62 -752.09998 -741.52002 -736.35999 -724.84003 -713.62 -703.23999 -698.08002 -686.56 -674.94 -663.78003 -651.85999 -642.02002 -631.17999 -620.02002 -608.5 -597.78003 -587.84003 -577 -566.08002 -554.15997 -542.23999 -531.08002 -519.15997"
         y="-835.29999"
         id="tspan356">ПГК использует воду для производственной </tspan><tspan
         x="-939.65997 -928.14001 -917.21997 -906.84003 -896.90002 -885.97998 -874.76001 -865.23999 -853.32001 -842.15997 -831.44 -821.5 -809.58002 -804.41998 -792.5 -787.34003 -775.82001 -764.59998 -754.21997 -749.06 -738.94 -727.78003 -714.5 -701.21997 -690.64001 -678.71997 -668 -656.78003 -647.26001 -635.34003 -624.17999 -614.44 -603.09998 -589.91998 -579.97998 -568.82001 -557.97998 -544.79999 -534.44 -529.28003 -517.35999 -506.78 -491.79999 -480.28"
         y="-809.29999"
         id="tspan358">деятельности и для коммунально-бытовых нужд.</tspan><tspan
         x="-939.65997 -925.65997 -914.94 -899.56 -887.64001 -882.47998 -871.32001 -860.59998 -848.67999 -837.52002 -826.67999 -814.76001 -801.58002 -790.65997 -785.5 -775.65997 -764.94 -753.41998 -742.70001 -732.15997 -720.23999 -715.08002 -703.56 -692.40002 -687.23999 -675.32001 -664.59998 -653.08002 -641.91998 -630.70001 -621.17999 -611.34003 -600.17999 -589.34003 -578.62 -566.70001 -554.78003 -539.52002 -534.35999 -523.52002 -512.35999 -500.84 -488.92001 -475.73999 -465.38"
         y="-770.29999"
         id="tspan360">Наши основные задачи по использованию водных </tspan><tspan
         x="-939.65997 -928.03998 -917.12 -906.40002 -895.82001 -884.20001 -873.47998 -862.32001 -851.47998 -846.32001 -835.47998 -825.35999 -814.14001 -798.88 -788.34003 -777.62 -762.35999 -752.41998"
         y="-744.29999"
         id="tspan362">ресурсов включают:</tspan><tspan
         x="-939.65997 -932.06 -921.65997 -910.14001 -898.52002 -887.59998 -876.08002 -864.91998 -854.20001 -844.26001 -833.53998 -822.70001 -811.47998 -800.56 -788.64001 -776.71997 -765.79999 -760.64001 -749.29999 -738.38 -728.53998 -717.38 -705.85999 -695.14001 -684.41998 -672.5 -661.34003 -649.41998 -644.26001 -632.73999 -620.82001 -610.88 -601.35999 -590.44 -579.59998 -568.44 -556.52002 -551.35999 -540.52002 -529.35999 -517.84003 -504.66"
         y="-705.29999"
         id="tspan364">• предоставление безопасной питьевой воды </tspan><tspan
         x="-921.65997 -910.14001 -898.91998 -888.53998 -883.38 -871.46002 -860.73999 -845.35999 -833.44 -823.08002 -817.91998 -807.20001 -796.03998 -786.09998 -774.47998 -763.90002 -752.38 -740.46002 -728.53998 -718.41998 -707.26001 -696.41998"
         y="-679.29999"
         id="tspan366">для наших сотрудников;</tspan><tspan
         x="-939.65997 -932.06 -921.65997 -911.08002 -899.56 -888.84003 -877.62 -866.70001 -854.78003 -842.85999 -831.94 -826.78003 -815.94 -804.78003 -793.26001 -780.08002 -774.91998 -763 -757.84003 -746.62 -737.09998 -725.58002 -714.85999 -709.70001 -697.78003 -687.06 -681.90002 -670.38 -658.76001 -647.59998 -635.67999 -625.84003 -615 -603.84003 -592.32001 -581.59998 -571.65997 -560.82001 -549.90002 -537.97998 -526.06 -512.88 -502.51999"
         y="-640.29999"
         id="tspan368">• удаление воды и льда на производственных </tspan><tspan
         x="-921.65997 -910.14001 -898.91998 -887.76001 -871.85999 -861.14001 -849.62 -839.5 -828.78003 -818.41998 -813.26001 -801.34003 -796.17999 -785.46002 -774.29999 -764.46002 -752.94 -742.21997 -730.29999 -718.38 -707.46002 -702.29999 -691.58002 -681.64001 -670.91998 -659.58002 -647.65997 -636.44 -626.91998 -615 -601.82001 -591.46002 -586.29999 -574.38 -569.21997 -557.88 -546.96002 -537.12 -525.96002 -514.44 -503.72 -493 -481.07999 -467.89999 -457.54001"
         y="-614.29999"
         id="tspan370">площадках и создание стабильных и безопасных </tspan><tspan
         x="-921.65997 -911.08002 -900.35999 -889.14001 -877.97998 -867.14001 -855.21997 -843.29999 -838.14001 -826.52002 -815.79999 -804.46002 -793.29999 -783.35999 -770.17999"
         y="-588.29999"
         id="tspan372">условий работы;</tspan><tspan
         x="-939.65997 -932.06 -921.65997 -913.29999 -902.58002 -890.96002 -880.23999 -868.32001 -858.38 -846.46002 -831.20001 -826.03998 -816.09998 -804.94 -796.58002 -785.41998 -780.67999 -775.52002 -764.97998 -755.03998 -743.88 -738.71997 -727.88 -716.71997 -706.88 -696.03998 -684.41998 -673.70001 -657.79999 -647.08002 -636.15997 -622.88 -612.15997 -601.78003 -596.62 -585.78003 -580.62 -569.70001 -558.97998 -549.03998 -538.12 -527.40002 -517.46002 -506.62 -495.70001 -483.78 -471.85999 -461.28 -446.01999"
         y="-549.29999"
         id="tspan374">• гарантию того, что возвращаемая в естественную </tspan><tspan
         x="-921.65997 -910.94 -899.32001 -888.40002 -876.88 -866.29999 -861.14001 -850.29999 -839.14001 -827.62 -816.90002 -811.73999 -800.40002 -789.47998 -779.64001 -768.47998 -756.96002 -746.23999 -735.52002 -723.59998 -712.88 -707.71997 -695.79999 -690.64001 -679.91998 -668.76001 -657.59998 -647.65997 -636.82001 -625.90002 -615.96002 -605.23999 -595.29999 -584.46002 -573.88 -562.96002 -553.02002"
         y="-523.29999"
         id="tspan376">среду вода безопасна и соответствует </tspan><tspan
         x="-921.65997 -911.08002 -900.35999 -890.41998 -879.70001 -867.78003 -856.62 -845.78003 -834.56 -823.64001 -811.71997 -799.79999 -786.62 -773.34003 -768.17999 -758.06 -746.44 -734.52002 -724.58002 -713.65997 -702.03998 -690.12 -679.73999 -666.46002 -661.29999 -651.17999 -640.46002 -629.91998 -619 -608.28003 -598.34003 -587.5 -576.78003"
         y="-497.29999"
         id="tspan378">установленным критериям качества.</tspan><tspan
         x="-939.65997 -926.59998 -921.47998 -910.28003 -897.96002 -886.76001 -874.44 -869.31799 -860.95801 -856.198 -851.078 -839.91803 -828.578 -812.67798 -800.758 -788.83801 -783.71802 -772.55798 -761.21802 -750.43799 -739.51801 -726.23798 -721.11798 -709.59802 -698.43799 -688.49799 -676.87799 -665.95801 -654.61798 -643.39801 -632.47803 -620.55798 -608.638 -598.258 -593.138 -582.77802 -571.61798 -560.39801 -549.23798 -537.71802 -525.79797 -514.638 -502.71799 -497.59799 -485.67801 -480.55801 -472.198 -461.03799 -449.418 -439.03799 -428.49799 -417.578 -405.65799"
         y="-458.29999"
         id="tspan380">В 2020 г. общий объем потребления холодной и горячей </tspan><tspan
         x="-939.65997 -928.82001 -917.65997 -906.14001 -892.96002 -887.79999 -876.96002 -871.79999 -857.79999 -847.70001 -835.41998 -830.26001 -819.53998 -807.62 -795.70001 -785.85999 -773.94 -762.71997 -752 -741.62 -736.46002 -724.53998 -713.82001 -708.65997 -696.29999 -695.46002 -680.64001 -675.47998 -663.96002 -652.79999 -647.64001 -636.91998 -625.29999 -614.58002 -603.73999 -591.82001 -580.90002 -568.97998 -557.06 -541.79999 -536.64001 -525.91998 -520.76001 -509.56 -497.23999 -489.28 -477.84 -472.67999 -464.32001 -453.16 -441.64001 -430.48001 -417.20001 -412.44"
         y="-432.29999"
         id="tspan382">воды в ПГК снизился на 8 % по сравнению с 2019 годом. </tspan><tspan
         x="-939.65997 -927.38 -916.21997 -902.94 -891.41998 -880.70001 -868.78003 -856.85999 -846.47998 -841.32001 -829.40002 -824.23999 -813.40002 -808.23999 -796.90002 -786.32001 -774.79999 -764.21997 -748.32001 -737.40002 -724.12 -718.96002 -707.44 -696.21997 -685.5 -673.58002 -661.65997 -650.03998 -639.46002 -628.53998 -618.59998 -613.44 -602.85999 -591.64001 -581.06 -570.52002 -555.14001 -544.41998 -534.47998 -524.96002 -519.79999 -509.07999 -497.16 -486.44 -476.5 -465.57999 -452.29999 -441.72"
         y="-406.29999"
         id="tspan384">Компания и в будущем планирует улучшать систему </tspan><tspan
         x="-939.65997 -926.38 -915.21997 -903.29999 -891.38 -881.44 -870.28003 -858.65997 -846.73999 -834.82001 -826.46002 -815.73999 -810.58002 -799.06 -787.84003 -777.46002 -772.29999 -762.17999 -751.02002 -739.09998 -729.15997 -717.53998 -706.38 -695.15997 -684.78003 -679.62 -669.5 -658.78003 -648.23999 -637.32001 -626.59998 -616.65997 -605.82001 -595.09998 -589.94 -578.02002 -572.85999 -561.70001 -550.35999 -539.58002 -528.65997 -515.38 -504.66"
         y="-380.29999"
         id="tspan386">мониторинга для контроля качества и объема </tspan><tspan
         x="-939.65997 -928.14001 -916.97998 -907.03998 -895.41998 -884.5 -873.15997 -861.94 -851.02002 -839.09998 -827.17999 -816.79999 -811.64001 -800.79999 -789.64001 -778.12 -764.94"
         y="-354.29999"
         id="tspan388">потребления воды.</tspan></text><g
       id="g392"><g
         id="g394"><g
           id="g400"><g
             id="g402"><path
               d="m 906.654,972.24 c -20.519,-5.176 -37.375,-12.307 -50.57,-21.405 v 0 c -13.203,-9.098 -22.927,-20.068 -29.165,-32.911 v 0 c -6.246,-12.843 -9.365,-26.94 -9.365,-42.275 v 0 c 0,-20.336 6.329,-37.46 18.998,-51.373 v 0 c 12.658,-13.914 30.41,-23.546 53.246,-28.897 v 0 c -13.563,-2.861 -25.687,-7.141 -36.39,-12.844 v 0 c -10.703,-5.711 -19.984,-12.76 -27.827,-21.138 v 0 c -7.851,-8.386 -13.83,-17.843 -17.927,-28.362 v 0 C 803.549,722.508 801.5,711.178 801.5,699.054 v 0 c 0,-15.343 3.654,-29.968 10.97,-43.881 v 0 c 7.309,-13.914 18.462,-26.138 33.446,-36.657 v 0 c 14.984,-10.527 33.713,-18.914 56.189,-25.151 v 0 C 924.581,587.128 950.802,584 980.771,584 v 0 c 29.967,0 56.188,3.128 78.664,9.365 v 0 c 22.476,6.237 41.206,14.624 56.19,25.151 v 0 c 14.983,10.519 26.129,22.743 33.445,36.657 v 0 c 7.308,13.913 10.971,28.538 10.971,43.881 v 0 c 0,12.124 -2.058,23.454 -6.155,33.981 v 0 c -4.105,10.519 -10.083,19.976 -17.927,28.362 v 0 c -7.851,8.378 -17.216,15.427 -28.094,21.138 v 0 c -10.886,5.703 -22.928,9.983 -36.122,12.844 v 0 c 22.827,5.351 40.579,14.983 53.246,28.897 v 0 c 12.66,13.913 18.997,31.037 18.997,51.373 v 0 c 0,15.335 -3.127,29.432 -9.364,42.275 v 0 c -6.246,12.843 -15.971,23.813 -29.166,32.911 v 0 c -13.202,9.098 -30.059,16.229 -50.57,21.405 v 0 c -20.519,5.168 -45.218,7.76 -74.115,7.76 v 0 c -28.898,0 -53.606,-2.592 -74.117,-7.76 m 13.914,-142.881 c -13.379,11.949 -20.068,27.376 -20.068,46.29 v 0 c 0,20.334 6.689,36.564 20.068,48.697 v 0 c 13.378,12.124 33.445,18.194 60.203,18.194 v 0 c 26.756,0 46.824,-6.07 60.202,-18.194 v 0 c 13.378,-12.133 20.068,-28.363 20.068,-48.697 v 0 c 0,-18.914 -6.69,-34.341 -20.068,-46.29 v 0 c -13.378,-11.957 -33.446,-17.926 -60.202,-17.926 v 0 c -26.758,0 -46.825,5.969 -60.203,17.926 M 908.259,643.133 c -15.878,14.448 -23.813,33.086 -23.813,55.921 v 0 c 0,21.406 8.027,39.24 24.081,53.513 v 0 c 16.054,14.265 40.135,21.406 72.244,21.406 v 0 c 32.107,0 56.188,-7.141 72.242,-21.406 v 0 c 16.055,-14.273 24.082,-32.107 24.082,-53.513 v 0 c 0,-22.835 -7.944,-41.473 -23.814,-55.921 v 0 c -15.878,-14.449 -40.051,-21.673 -72.51,-21.673 v 0 c -32.468,0 -56.641,7.224 -72.512,21.673"
               style="fill:url(#linearGradient410);stroke:none"
               id="path412" /></g></g></g></g><text
       transform="matrix(1,0,0,-1,801.5,526.3)"
       style="font-variant:normal;font-weight:500;font-stretch:normal;font-size:20px;font-family:'Rubik Medium';-inkscape-font-specification:Rubik-Medium;writing-mode:lr-tb;fill:#000000;fill-opacity:1;fill-rule:nonzero;stroke:none"
       id="text416"><tspan
         x="0 13.72 18.299999 30.68 43.82 56.200001 69.339996 73.919998 82.82 94.660004 107.22 118.62 123.2 134.86 146.7 159.25999 171.10001 183.32001 195.16 205.75999 218.03999 229.58 241.52 253.58 265.12 277.57999 290.04001"
         y="0"
         id="tspan414">В 2020 году водопотребление</tspan></text><text
       transform="matrix(1,0,0,-1,801.5,500.3)"
       style="font-variant:normal;font-weight:500;font-stretch:normal;font-size:20px;font-family:'Rubik Medium';-inkscape-font-specification:Rubik-Medium;writing-mode:lr-tb;fill:#000000;fill-opacity:1;fill-rule:nonzero;stroke:none"
       id="text422"><tspan
         x="0 12.22 24.059999 28.639999 40.060001 52.34 63.759998 75.419998 87.879997 99.419998 111.88 124.34 141.02 145.60001 157.02 161.60001 173.98 187.12 196.38 208.72 213.3 222.2 234.03999 246.60001 258.44 272.5 277.07999 288.5 300.95999 313.42001 324.12 336.57999 348.64001 360.48001 371.89999 382.5"
         y="0"
         id="tspan418">по сравнению с 2019 годом снизилось </tspan><tspan
         x="0 12.46 23.879999 28.459999 41.580002 42.419998 58.099998 63.380001 67.959999 80.519997 92.360001 96.940002 109.32 122.46 134.84 139.42 151.82001 164.42 176.8 181.38 193.44 205.89999 216.5 228.78 240.62"
         y="26"
         id="tspan420">на 8 %, до 202 532 литров</tspan></text><g
       id="g424"><g
         id="g426"
         clip-path="url(#clipPath430)"><g
           id="g432"
           transform="translate(1217,980)"><path
             d="m 0,0 h -151 c -11.046,0 -20,-8.954 -20,-20 0,-11.046 8.954,-20 20,-20 H 0 c 11.046,0 20,8.954 20,20 C 20,-8.954 11.046,0 0,0"
             style="fill:#f0f0f5;fill-opacity:1;fill-rule:nonzero;stroke:none"
             id="path434" /></g></g></g><text
       transform="matrix(1,0,0,-1,1066.9747,952.7192)"
       style="font-variant:normal;font-weight:500;font-stretch:normal;font-size:28px;font-family:'Rubik Medium';-inkscape-font-specification:Rubik-Medium;writing-mode:lr-tb;fill:#000000;fill-opacity:1;fill-rule:nonzero;stroke:none"
       id="text438"><tspan
         x="0 17.108 34.299999 50.875999 68.711998 84.867996 102.312 117.152 133.728"
         y="0"
         id="tspan436">процентов</tspan></text><text
       transform="matrix(1,0,0,-1,38.0802,1023)"
       style="font-variant:normal;font-weight:300;font-stretch:normal;font-size:20px;font-family:'Rubik Light';-inkscape-font-specification:Rubik-Light;writing-mode:lr-tb;fill:#000000;fill-opacity:1;fill-rule:nonzero;stroke:none"
       id="text442"><tspan
         x="0 11.2 60.919998 74.919998 85.639999 101.02 111.74 116.9 127.02 138.17999 151.46001 162.17999 174.10001 185.62"
         y="0"
         id="tspan440">96Наша команда</tspan></text></g></svg>
