<?xml version="1.0" encoding="UTF-8" standalone="no"?>
<?xml-stylesheet type="text/css" href="main.css" ?>
<svg
   xmlns:dc="http://purl.org/dc/elements/1.1/"
   xmlns:cc="http://creativecommons.org/ns#"
   xmlns:rdf="http://www.w3.org/1999/02/22-rdf-syntax-ns#"
   xmlns:svg="http://www.w3.org/2000/svg"
   xmlns="http://www.w3.org/2000/svg"
   version="1.1"
   id="svg2"
   xml:space="preserve"
   width="2560"
   height="1440"
   viewBox="0 0 2560 1440"><metadata
     id="metadata8"><rdf:RDF><cc:Work
         rdf:about=""><dc:format>image/svg+xml</dc:format><dc:type
           rdf:resource="http://purl.org/dc/dcmitype/StillImage" /></cc:Work></rdf:RDF></metadata><defs
     id="defs6"><clipPath
       clipPathUnits="userSpaceOnUse"
       id="clipPath20"><path
         d="M 0,1080 H 1920 V 0 H 0 Z"
         id="path18" /></clipPath><clipPath
       clipPathUnits="userSpaceOnUse"
       id="clipPath46"><path
         d="M 0,0 H 1920 V 1080 H 0 Z"
         id="path44" /></clipPath><clipPath
       clipPathUnits="userSpaceOnUse"
       id="clipPath68"><path
         d="M 0,1080 H 1920 V 0 H 0 Z"
         id="path66" /></clipPath></defs><g
     id="g10"
     transform="matrix(1.3333333,0,0,-1.3333333,0,1440)"><g
       id="g12"><g
         id="g14"><g
           id="g16"
           clip-path="url(#clipPath20)"><path
             d="M 0,0 H 1920 V 1080 H 0 Z"
             style="fill:#ffffff;fill-opacity:1;fill-rule:nonzero;stroke:none"
             id="path22" /></g></g></g><text
       transform="matrix(1,0,0,-1,1227.0001,802.1)"
       style="font-variant:normal;font-weight:300;font-stretch:normal;font-size:20px;font-family:'Rubik Light';-inkscape-font-specification:Rubik-Light;writing-mode:lr-tb;fill:#000000;fill-opacity:1;fill-rule:nonzero;stroke:none"
       id="text34"><tspan
         x="0 11.44 22.879999 50 63.02 73.860001 84.779999 96.300003 107.22 119.14 131.06 141.44 146.60001 157.75999 162.92 173.64 185.16 195.998 207.218 217.338 228.058 238.418 243.158 248.31799 259.15799 264.31799 275.03799 286.198 297.03799 307.95801 319.578 334.95801 345.87799 357.798 369.71799 381.638 386.798 396.41599 407.57599 417.51599 428.67599 440.29599 453.47601 463.836 468.996 480.91599 494.19601 505.116 516.03601 525.97601 536.69598 547.07599"
         y="0"
         id="tspan24">99 Cведения о сделках, в совершении которых имеется </tspan><tspan
         x="50 59.84 70.559998 82.480003 94.400002 104.34 115.26 126.88 137.8 148.52 159.67999 170.52 181.24001 193.16 205.08 216.24001 226.96001 236.89999 246.42 251.17999 256.34 268.62 279.858 290.43799 301.95801 313.87799 327.05801 337.978 343.138 353.858 365.37799 376.216 387.436 397.556"
         y="28"
         id="tspan26">заинтересованность. Крупные сделки</tspan><tspan
         x="0 7.96 20.280001 32.599998 50 57.5 68.720001 79.879997 90.599998 101.32 112.04 123.66 135.58"
         y="66"
         id="tspan28">100 Глоссарий</tspan><tspan
         x="0 7.96 20.280001 31.48 50 61.68 72.839996 84.760002 94.699997 105.42 115.54 125.48 137.39999 148.12 158.5 163.66 175.58 187.5 201.08 212.24001 223.86 237.14 247.86 259.88 271.79999 282.17999 287.34 298.85999 310.07999 320.45999 325.62 336.34 346.45999 358.48001 370.39999 381.56 393.48001 404.39999 416.01999 427.17999 438.01999"
         y="104"
         id="tspan30">102 Контактная информация для акционеров </tspan><tspan
         x="50 61.919998 67.080002 79 90.919998 101.76 112.68 123.4 133.34 144.5 156.12 167.28"
         y="132"
         id="tspan32">и инвесторов</tspan></text><text
       transform="matrix(1,0,0,-1,1227.0001,940.8)"
       style="font-variant:normal;font-weight:normal;font-stretch:normal;font-size:56px;font-family:'Prosto One';-inkscape-font-specification:ProstoOne-Regular;writing-mode:lr-tb;fill:#7c002f;fill-opacity:1;fill-rule:nonzero;stroke:none"
       id="text38"><tspan
         x="0 47.32 91.0448 139.2328 185.5056 233.7552 298.23361 337.71921 385.03922 433.03119"
         y="0"
         id="tspan36">ПРИЛОЖЕНИЯ</tspan></text><g
       id="g40"><g
         id="g42"
         clip-path="url(#clipPath46)"><g
           id="g48"
           transform="translate(-67.2933,89.994)"><path
             d="m 0,0 c 68.703,0 130.099,17.794 184.15,53.422 54.051,35.609 96.573,87.362 127.586,155.24 30.993,67.878 46.509,148.326 46.509,241.344 0,93.018 -15.516,173.466 -46.509,241.344 C 280.723,759.228 238.201,810.961 184.15,846.589 130.099,882.198 68.703,900.012 0,900.012 c -69.567,0 -131.356,-17.814 -185.407,-53.423 -54.051,-35.628 -96.593,-87.361 -127.586,-155.239 -31.013,-67.878 -46.509,-148.326 -46.509,-241.344 0,-93.018 15.496,-173.466 46.509,-241.344 C -282,140.784 -239.458,89.031 -185.407,53.422 -131.356,17.794 -69.567,0 0,0 m 0,111.873 c -71.237,0 -128.018,28.911 -170.323,86.733 -42.326,57.822 -63.479,141.609 -63.479,251.4 0,109.771 21.153,193.578 63.479,251.4 42.305,57.822 99.086,86.733 170.323,86.733 70.392,0 126.741,-28.911 169.066,-86.733 42.306,-57.822 63.479,-141.629 63.479,-251.4 0,-109.791 -21.173,-193.578 -63.479,-251.4 C 126.741,140.784 70.392,111.873 0,111.873 M 1184.336,334.362 H 1017.155 V 525.426 H 898.997 V 334.362 H 560.864 L 992.015,889.956 H 856.259 L 406.253,314.25 V 226.26 H 895.226 V 10.056 h 121.929 V 226.26 h 167.181 z"
             style="fill:#faaa2d;fill-opacity:1;fill-rule:nonzero;stroke:none"
             id="path50" /></g></g></g><g
       id="g52"
       transform="translate(1227,102.0508)"><path
         d="M 0,0 H 594"
         style="fill:none;stroke:#dbdede;stroke-width:4;stroke-linecap:butt;stroke-linejoin:miter;stroke-miterlimit:4;stroke-dasharray:none;stroke-opacity:1"
         id="path54" /></g><text
       transform="matrix(1,0,0,-1,37.6001,1023)"
       style="font-variant:normal;font-weight:300;font-stretch:normal;font-size:20px;font-family:'Rubik Light';-inkscape-font-specification:Rubik-Light;writing-mode:lr-tb;fill:#000000;fill-opacity:1;fill-rule:nonzero;stroke:none"
       id="text58"><tspan
         x="0 11.44"
         y="0"
         id="tspan56">98</tspan></text><g
       id="g60"><g
         id="g62"><g
           id="g64"
           clip-path="url(#clipPath68)"><text
             transform="matrix(1,0,0,-1,99,1023)"
             style="font-variant:normal;font-weight:300;font-stretch:normal;font-size:20px;font-family:'Rubik Light';-inkscape-font-specification:Rubik-Light;writing-mode:lr-tb;fill:#000000;fill-opacity:1;fill-rule:nonzero;stroke:none"
             id="text72"><tspan
               x="0 13.24 18.4 28.02 39.18 52.459999 63.98 74.699997 86.620003 98.540001"
               y="0"
               id="tspan70">О компании</tspan></text></g></g></g></g></svg>
