<?xml version="1.0" encoding="UTF-8" standalone="no"?>
<?xml-stylesheet type="text/css" href="main.css" ?>
<svg
   xmlns:dc="http://purl.org/dc/elements/1.1/"
   xmlns:cc="http://creativecommons.org/ns#"
   xmlns:rdf="http://www.w3.org/1999/02/22-rdf-syntax-ns#"
   xmlns:svg="http://www.w3.org/2000/svg"
   xmlns="http://www.w3.org/2000/svg"
   version="1.1"
   id="svg2"
   xml:space="preserve"
   width="2560"
   height="1440"
   viewBox="0 0 2560 1440"><metadata
     id="metadata8"><rdf:RDF><cc:Work
         rdf:about=""><dc:format>image/svg+xml</dc:format><dc:type
           rdf:resource="http://purl.org/dc/dcmitype/StillImage" /></cc:Work></rdf:RDF></metadata><defs
     id="defs6"><clipPath
       clipPathUnits="userSpaceOnUse"
       id="clipPath20"><path
         d="M 0,1080 H 1920 V 0 H 0 Z"
         id="path18" /></clipPath><clipPath
       clipPathUnits="userSpaceOnUse"
       id="clipPath312"><path
         d="M 0,1080 H 1920 V 0 H 0 Z"
         id="path310" /></clipPath></defs><g
     id="g10"
     transform="matrix(1.3333333,0,0,-1.3333333,0,1440)"><g
       id="g12"><g
         id="g14"><g
           id="g16"
           clip-path="url(#clipPath20)"><path
             d="M 0,0 H 1920 V 1080 H 0 Z"
             style="fill:#ffffff;fill-opacity:1;fill-rule:nonzero;stroke:none"
             id="path22" /></g></g></g><text
       transform="matrix(1,0,0,-1,99,953.4)"
       style="font-variant:normal;font-weight:normal;font-stretch:normal;font-size:38px;font-family:'Prosto One';-inkscape-font-specification:ProstoOne-Regular;writing-mode:lr-tb;fill:#000000;fill-opacity:1;fill-rule:nonzero;stroke:none"
       id="text28"><tspan
         x="0 30.02 60.419998 87.400002 120.46 147.44 179.36 212.03999 242.44 255.74001 289.94 303.23999 333.26001 366.32001 393.29999 424.84 455.04999 486.20999 515.28003 524.96997 538.27002 568.66998 581.96997 611.98999 646.19 676.59003 703.57001 733.59003 775.20001 802.17999 834.09998 866.78003 899.46002 912.76001 942.96997 977.16998 1003.96 1038.16 1068.1801 1107.89 1136.96 1150.26 1182.9399 1224.74 1251.72 1278.7 1305.49 1335.51 1365.91"
         y="0"
         id="tspan24">CВЕДЕНИЯ О СДЕЛКАХ, В СОВЕРШЕНИИ КОТОРЫХ ИМЕЕТСЯ </tspan><tspan
         x="0 28.309999 59.470001 92.150002 124.07 150.86 177.84 207.86 234.84 264.85999 299.06 329.45999 360.62 392.54001 424.45999 458.66 488.67999 515.46997 545.48999 554.98999 568.28998 598.5 628.52002 658.72998 690.65002 722.57001 762.28003 789.26001 802.56 832.58002 865.64001 892.62 924.15997 954.37"
         y="45.599998"
         id="tspan26">ЗАИНТЕРЕСОВАННОСТЬ. КРУПНЫЕ СДЕЛКИ</tspan></text><text
       transform="matrix(1,0,0,-1,99,821.6201)"
       style="font-variant:normal;font-weight:500;font-stretch:normal;font-size:28px;font-family:'Rubik Medium';-inkscape-font-specification:Rubik-Medium;writing-mode:lr-tb;fill:#000000;fill-opacity:1;fill-rule:nonzero;stroke:none"
       id="text38"><tspan
         x="0 19.459999 34.327999 50.540001 66.723999 81.592003 87.975998 104.58 110.964 125.972 141.98801 158.032 174.944 198.35201 214.564 230.748 248.22 265.69199 287.19601 303.01599"
         y="0"
         id="tspan30">Отчет о заключенных </tspan><tspan
         x="0 20.440001 39.872002 59.332001 65.716003 82.935997 103.376 118.608 137.424 154.644 161.028 177.408 183.79201 201.15199 219.604 236.964 255.416 261.79999 274.0332 290.63721 308.24921 324.2652 330.6492 346.66519 364.27719 380.3212 397.23318 413.27719 429.29321 445.11319 452.5332"
         y="34.888"
         id="tspan32">ПАО «ПГК» в 2020 году сделках, </tspan><tspan
         x="0 16.379999 22.764 38.779999 55.383999 71.764 87.947998 105.14 127.82 144.004 161.476 178.948 196.42 202.804 218.2012 234.80521 249.6732 266.27719 283.46921 304.97321 320.79321 327.17719 344.6492 364.36121 380.5452 396.72919 411.5972 427.61319 443.74121"
         y="69.776001"
         id="tspan34">в совершении которых имеется </tspan><tspan
         x="0 15.008 31.024 48.495998 65.968002 80.835999 97.019997 114.212 130.396 146.412 163.01601 179.396 195.412 212.884 230.356 246.96001 262.97601 277.84399"
         y="104.664"
         id="tspan36">заинтересованность</tspan></text><text
       transform="matrix(1,0,0,-1,99,677.116)"
       style="font-variant:normal;font-weight:300;font-stretch:normal;font-size:20px;font-family:'Rubik Light';-inkscape-font-specification:Rubik-Light;writing-mode:lr-tb;fill:#000000;fill-opacity:1;fill-rule:nonzero;stroke:none"
       id="text42"><tspan
         x="0 13.02 24.540001 35.380001 46.599998 56.220001 67.379997 79.300003 84.040001 89.199997 100.04 105.2 115.92 127.08 137.92 148.84 160.46001 175.84 186.75999 198.67999 210.60001 222.52 227.67999 237.298 248.45799 258.39801 269.55801 281.17801 292.33801 304.258 309.418 321.33801 334.61801 345.53799 356.45801 366.39801 377.11801 387.49799 392.65799 402.49799 413.21799 425.138 437.05801 446.99799 457.918 469.53799 480.45801 491.17801"
         y="0"
         id="tspan40">Сделкой, в совершении которой имеется заинтересо</tspan></text><text
       transform="matrix(1,0,0,-1,601.338,677.116)"
       style="font-variant:normal;font-weight:300;font-stretch:normal;font-size:20px;font-family:'Rubik Light';-inkscape-font-specification:Rubik-Light;writing-mode:lr-tb;fill:#000000;fill-opacity:1;fill-rule:nonzero;stroke:none"
       id="text46"><tspan
         x="0"
         y="0"
         id="tspan44">-</tspan></text><text
       transform="matrix(1,0,0,-1,99,650.236)"
       style="font-variant:normal;font-weight:300;font-stretch:normal;font-size:20px;font-family:'Rubik Light';-inkscape-font-specification:Rubik-Light;writing-mode:lr-tb;fill:#000000;fill-opacity:1;fill-rule:nonzero;stroke:none"
       id="text52"><tspan
         x="0 10.84 21.559999 33.48 45.400002 56.560001 67.279999 77.220001 86.739998 91.480003 96.639999 108.16 119.78 131.7 141.53999 153.46001 164.17999 175.10001 185.03999 195.75999 206.14 211.3 222.02 233.53999 244.37801 255.59801 265.71799 276.43799 281.17801 286.33801 297.17801 302.33801 313.05801 324.21799 335.05801 345.978 357.59799 372.978 383.89801 395.81799 407.73801 419.65799 424.81799 434.436 445.59601 455.53601 466.69601 478.31601 489.47601 501.396"
         y="0"
         id="tspan48">ванность, признается сделка, в совершении которой </tspan><tspan
         x="0 10.84 16 26.719999 37.880001 49.040001 58.98 69.82 80.739998 90.68 101.4 111.34 122.18 134.10001 146.02 151.17999 161.89999 167.06 180.64 191.56 203.08 214 225.62 236.34 247.56 257.07999 269 282.17999 295.45999 300.62 310.45999 321.17999 330.79599 341.95599 353.87601 365.03601 378.31601 383.47601 395.53601 408.776 420.116 425.276 435.996 446.116 458.13599 470.056 481.216 493.13599 504.056"
         y="26.879999"
         id="tspan50">в соответствии с федеральным законом «Об акционер</tspan></text><text
       transform="matrix(1,0,0,-1,614.676,623.356)"
       style="font-variant:normal;font-weight:300;font-stretch:normal;font-size:20px;font-family:'Rubik Light';-inkscape-font-specification:Rubik-Light;writing-mode:lr-tb;fill:#000000;fill-opacity:1;fill-rule:nonzero;stroke:none"
       id="text56"><tspan
         x="0"
         y="0"
         id="tspan54">-</tspan></text><text
       transform="matrix(1,0,0,-1,99,596.476)"
       style="font-variant:normal;font-weight:300;font-stretch:normal;font-size:20px;font-family:'Rubik Light';-inkscape-font-specification:Rubik-Light;writing-mode:lr-tb;fill:#000000;fill-opacity:1;fill-rule:nonzero;stroke:none"
       id="text62"><tspan
         x="0 11.92 25.1 35.459999 40.619999 51.779999 63.119999 79.019997 89.940002 100.66 110.6 121.44 132.16 142.52 154.58 159.74001 171.66 184.94 195.86 206.78 216.72 227.44 237.82001 242.98 252.82001 263.54001 275.45999 287.38 297.32001 308.23999 319.85999 330.78 341.5 352.66 363.5 374.22 386.14001 398.06 409.22 419.94 429.88 439.39999 444.56 455.10001 466.32001 477.23999 489.16 499.88"
         y="0"
         id="tspan58">ных обществах» имеется заинтересованность члена </tspan><tspan
         x="0 13.02 24.18 35.02 45.939999 55.880001 66.599998 71.760002 83.279999 95.199997 106.82 117.74 127.86 137.8 148.96001 160.58 171.74001 182.58 187.74001 200.98 212.32001 228.22 239.14 249.86 259.79999 270.64001 281.35999 286.10001 291.26001 302.17999 313.70001 325.62 337.54001 348.496 359.716 371.63599 382.17599 394.09601 405.25601 413.37601 424.53601 429.69601 441.616 452.336 463.85599 474.814 486.034 497.95401"
         y="26.879999"
         id="tspan60">Совета директоров Общества, единоличного исполни</tspan></text><text
       transform="matrix(1,0,0,-1,608.874,569.596)"
       style="font-variant:normal;font-weight:300;font-stretch:normal;font-size:20px;font-family:'Rubik Light';-inkscape-font-specification:Rubik-Light;writing-mode:lr-tb;fill:#000000;fill-opacity:1;fill-rule:nonzero;stroke:none"
       id="text66"><tspan
         x="0"
         y="0"
         id="tspan64">-</tspan></text><text
       transform="matrix(1,0,0,-1,99,542.716)"
       style="font-variant:normal;font-weight:300;font-stretch:normal;font-size:20px;font-family:'Rubik Light';-inkscape-font-specification:Rubik-Light;writing-mode:lr-tb;fill:#000000;fill-opacity:1;fill-rule:nonzero;stroke:none"
       id="text70"><tspan
         x="0 9.9399996 20.780001 32 41.52 53.439999 64.599998 72.720001 83.879997 89.040001 100.2 111.82 120.18 130.89999 142.82001 153.53999 158.7 164.838 172.31799 183.23801 195.158 206.078 217.698 228.418 239.638 249.158 261.078 272.23801 280.358 291.51801 296.67801 308.198 320.11801 331.73801 342.65799 352.77802 362.71799 373.87799 385.49799 396.21799 402.59799 407.33801 412.49799 423.03799 434.258 445.17801 457.09799 467.81799 472.978 482.59399 493.556"
         y="0"
         id="tspan68">тельного органа (Генерального директора), члена кол</tspan></text><text
       transform="matrix(1,0,0,-1,603.776,542.716)"
       style="font-variant:normal;font-weight:300;font-stretch:normal;font-size:20px;font-family:'Rubik Light';-inkscape-font-specification:Rubik-Light;writing-mode:lr-tb;fill:#000000;fill-opacity:1;fill-rule:nonzero;stroke:none"
       id="text74"><tspan
         x="0"
         y="0"
         id="tspan72">-</tspan></text><text
       transform="matrix(1,0,0,-1,693,829.076)"
       style="font-variant:normal;font-weight:300;font-stretch:normal;font-size:20px;font-family:'Rubik Light';-inkscape-font-specification:Rubik-Light;writing-mode:lr-tb;fill:#000000;fill-opacity:1;fill-rule:nonzero;stroke:none"
       id="text78"><tspan
         x="0 11.22 22.139999 30.5 42.419998 53.139999 64.360001 73.879997 85.800003 96.959999 105.078 116.238 121.398 133.31799 144.03799 155.558 166.51801 177.73801 189.658 201.578 211.51801 222.358 233.578 243.09801 255.01801 266.17801 274.298 285.45801 290.61801 301.77802 313.39801 321.758 332.478 344.39801 355.11801 360.27802 366.41599 380.41599 392.03601 402.75601 413.59601 424.81601 435.73599 447.65601 459.57599 469.15601 475.53601 480.69601 493.936"
         y="0"
         id="tspan76">легиального исполнительного органа (Правления) Об</tspan></text><text
       transform="matrix(1,0,0,-1,1198.276,829.076)"
       style="font-variant:normal;font-weight:300;font-stretch:normal;font-size:20px;font-family:'Rubik Light';-inkscape-font-specification:Rubik-Light;writing-mode:lr-tb;fill:#000000;fill-opacity:1;fill-rule:nonzero;stroke:none"
       id="text82"><tspan
         x="0"
         y="0"
         id="tspan80">-</tspan></text><text
       transform="matrix(1,0,0,-1,693,803.036)"
       style="font-variant:normal;font-weight:300;font-stretch:normal;font-size:20px;font-family:'Rubik Light';-inkscape-font-specification:Rubik-Light;writing-mode:lr-tb;fill:#000000;fill-opacity:1;fill-rule:nonzero;stroke:none"
       id="text88"><tspan
         x="0 15.9 26.82 37.540001 47.48 58.32 69.040001 74.199997 86.120003 97.339996 109.26 114.42 125.64 137.56 149.58 160.3 165.03999 170.2 180.58 191.42 202.64 213.02 228.28 244.17999 255.10001 263.21799 274.37799 285.09799 295.478 300.638 310.25601 321.41599 333.336 343.276 354.896 365.85599 377.07599 388.996 400.23599 410.81601 426.07599 441.97601 453.896 467.17599 472.336 483.556 495.47601 507.496 518.65601 531.93597"
         y="0"
         id="tspan84">щества или лица, являющегося контролирующим лицом </tspan><tspan
         x="0 13.24 24.58 40.48 51.400002 62.119999 72.059998 82.900002 93.620003 98.360001 103.52 114.74 126.66 138 149.16 154.32001 165.53999 177.46001 189.48 200.2 204.94 210.10001 222.02 235.3 246.22 261.48001 277.38 288.29999 296.41599 307.57599 312.73599 324.25601 335.87601 346.59601 357.436 368.59601 373.75601 385.276 395.996 406.836 417.556 427.496 437.01599 442.17599 455.41599 466.75601 482.65601"
         y="26.040001"
         id="tspan86">Общества, либо лица, имеющего право давать Обще</tspan></text><text
       transform="matrix(1,0,0,-1,1186.576,776.996)"
       style="font-variant:normal;font-weight:300;font-stretch:normal;font-size:20px;font-family:'Rubik Light';-inkscape-font-specification:Rubik-Light;writing-mode:lr-tb;fill:#000000;fill-opacity:1;fill-rule:nonzero;stroke:none"
       id="text92"><tspan
         x="0"
         y="0"
         id="tspan90">-</tspan></text><text
       transform="matrix(1,0,0,-1,693,750.956)"
       style="font-variant:normal;font-weight:300;font-stretch:normal;font-size:20px;font-family:'Rubik Light';-inkscape-font-specification:Rubik-Light;writing-mode:lr-tb;fill:#000000;fill-opacity:1;fill-rule:nonzero;stroke:none"
       id="text98"><tspan
         x="0 10.72 20.66 31.5 42.080002 47.240002 58.400002 69.739998 80.120003 89.959999 100.68 110.62 121.458 132.67799 142.198 154.118 167.298 178.218 183.37801 194.89799 206.118 216.498 221.658 233.578 244.498 252.616 263.776 268.936 279.51599 289.63599 300.35599 310.19601 320.91599 332.836 344.75601 355.13599"
         y="0"
         id="tspan94">ству обязательные для него указания.</tspan><tspan
         x="0 13.02 24.540001 35.380001 46.599998 56.720001 67.440002 72.18 77.339996 88.18 93.339996 104.06 115.22 126.06 136.98 148.60001 163.98 174.89999 186.82001 198.74001 210.66 215.82001 225.438 236.59801 246.53799 257.698 269.31799 280.478 292.39801 297.55801 309.478 322.758 333.67801 344.59799 354.53799 365.258 375.638 380.798 390.638 401.358 413.27802 425.198 435.138 446.05801 457.67801 468.59799 479.31799"
         y="39.040001"
         id="tspan96">Сделка, в совершении которой имеется заинтересо</tspan></text><text
       transform="matrix(1,0,0,-1,1183.478,711.916)"
       style="font-variant:normal;font-weight:300;font-stretch:normal;font-size:20px;font-family:'Rubik Light';-inkscape-font-specification:Rubik-Light;writing-mode:lr-tb;fill:#000000;fill-opacity:1;fill-rule:nonzero;stroke:none"
       id="text102"><tspan
         x="0"
         y="0"
         id="tspan100">-</tspan></text><text
       transform="matrix(1,0,0,-1,693,685.876)"
       style="font-variant:normal;font-weight:300;font-stretch:normal;font-size:20px;font-family:'Rubik Light';-inkscape-font-specification:Rubik-Light;writing-mode:lr-tb;fill:#000000;fill-opacity:1;fill-rule:nonzero;stroke:none"
       id="text114"><tspan
         x="0 10.84 21.559999 33.48 45.400002 56.560001 67.279999 77.220001 86.739998 91.480003 96.639999 108.56 119.48 124.64 134.58 146.2 157.12 168.46001 178.698 189.618 199.558 204.718 215.87801 227.218 237.59801 247.438 258.15799 268.09799 278.936 290.15601 299.67599 311.59601 322.75601 330.87601 342.03601 347.19601 358.716 370.336 381.25601 392.776 403.616 414.336 425.95599 437.87601 447.81601 458.65399 469.87399 479.39401 491.314 502.474 510.59399 521.75403"
         y="0"
         id="tspan104">ванность, не требует обязательного предварительного </tspan><tspan
         x="0 10.72 21.879999 29.719999 40.939999 51.66 62.380001 74.300003 84.68 89.839996 101.76 112.48 117.64 128.56 139.48 144.64 155.36 166.52 177.36 188.28 199.89999 215.28 226.2 238.12 250.03999 260.95999 265.70001 270.85999 280.70001 291.42001 296.57999 308.5 319.22 329.34 340.56 355.82001 366.35999 377.28 389.20001 401.12 412.04001 425.32001 430.48001 441.20001 452.42001 463 473.54001 484.26001 495.17999 506.01999 510.76001"
         y="26.040001"
         id="tspan106">согласия на ее совершение, за исключением случаев, </tspan><tspan
         x="0 10.24 20.959999 30.9 41.619999 53.540001 64.699997 75.540001 86.760002 97.68 109.6 121.52 134.7 145.06 150.144 163.724 174.644 186.164 197.084 208.70399 219.424 230.644 240.164 252.084 265.26401 278.54401 283.63 293.47 304.19 313.81 324.97 336.89001 348.04999 361.32999 366.41599 378.47601 391.716 403.056 408.142 418.862 428.98199 441.00201 452.922 464.082 476.00201 486.922 498.54199 510.46201 523.64203 534.00201"
         y="52.080002"
         id="tspan108">установленных федеральным законом «Об акционерных </tspan><tspan
         x="0 11.16 22.5 38.400002 49.32 60.040001 69.980003 80.82 91.540001 101.9 113.96"
         y="78.120003"
         id="tspan110">обществах».</tspan><tspan
         x="0 14 24.719999 29.879999 40.599998 52.119999 62.959999 74.18 84.300003 93.678001 98.417999 103.578 114.418 119.578 130.298 141.45799 152.298 163.218 174.838 190.218 201.138 213.058 224.978 236.89799 242.058 251.67799 262.83801 272.77802 283.93799 295.55801 306.71799 318.638 323.798 335.71799 348.99799 359.918 370.83801 380.77802 391.49799 401.87799 407.03799 416.87799 427.59799 439.51801 451.43799 461.37799 472.298 483.918"
         y="117.16"
         id="tspan112">На сделку, в совершении которой имеется заинтере</tspan></text><text
       transform="matrix(1,0,0,-1,1187.838,568.716)"
       style="font-variant:normal;font-weight:300;font-stretch:normal;font-size:20px;font-family:'Rubik Light';-inkscape-font-specification:Rubik-Light;writing-mode:lr-tb;fill:#000000;fill-opacity:1;fill-rule:nonzero;stroke:none"
       id="text118"><tspan
         x="0"
         y="0"
         id="tspan116">-</tspan></text><text
       transform="matrix(1,0,0,-1,693,542.676)"
       style="font-variant:normal;font-weight:300;font-stretch:normal;font-size:20px;font-family:'Rubik Light';-inkscape-font-specification:Rubik-Light;writing-mode:lr-tb;fill:#000000;fill-opacity:1;fill-rule:nonzero;stroke:none"
       id="text130"><tspan
         x="0 10.72 21.879999 32.720001 43.439999 55.360001 67.279999 78.440002 89.160004 99.099998 108.62 113.36 118.52 130.03999 141.2 146.36 157.28 168.2 173.36 184.08 195.24001 206.08 217 228.62 244 254.92 266.84 278.76001 289.14001 294.29999 307.57999 318.73999 333.72 344.64001 354.57999 359.73999 371.07999 384.26001 394.20001 403.72 408.88 420.39999 431.35599 442.57599 453.15601 463.69601 474.616 486.53601 497.69601"
         y="0"
         id="tspan120">сованность, до ее совершения может быть получено </tspan><tspan
         x="594 604.71997 615.88 623.71997 634.94 645.65997 656.38 668.29999 679.21997 684.38 697.40002 708.56 719.40002 730.32001 740.26001 750.97998 756.14001 767.65997 779.58002 791.20001 802.12 812.23999 822.17999 833.34003 844.96002 856.12 866.96002 872.12 885.35999 896.70001 912.59998 923.52002 934.23999 944.17999 955.02002 965.73999 970.90002 982.82001 994.03998 1005.96 1011.12 1024.36 1035.7 1051.6 1062.52 1070.634 1081.7939"
         y="-286.35999"
         id="tspan122">согласие Совета директоров Общества или Общего </tspan><tspan
         x="594 604.71997 615.88 627.21997 638.84003 649.56 661.47998 673.40002 683.78003 688.94 699.65997 709.78003 721.79999 733.71997 744.88 756.79999 767.71997 779.34003 790.5 801.34003 806.5 817.34003 822.5 833.21997 844.38 855.53998 865.47998 876.32001 887.23999 897.17999 907.90002 917.84003 928.67999 940.59998 952.52002 957.67999 968.40002 973.56 987.14001 998.06 1009.58 1020.5 1032.12 1042.84 1054.0601 1063.58 1075.5 1088.6801 1101.96"
         y="-259.76001"
         id="tspan124">собрания акционеров в соответствии с федеральным </tspan><tspan
         x="594 603.84003 614.56 624.17999 635.34003 647.26001 658.41998 671.70001 676.85999 688.91998 702.15997 713.5 718.65997 729.38 739.5 751.52002 763.44 774.59998 786.52002 797.44 809.06 820.97998 834.15997 844.52002 849.67999 860.84003 872.17999 888.08002 899 909.71997 919.65997 930.5 941.21997 951.58002 963.64001 968.79999 980.32001 991.47998 996.64001 1006.58 1018.2 1029.12 1040.46 1051.62 1062.46 1073.1801 1085.1 1097.02 1112.28"
         y="-233.16"
         id="tspan126">законом «Об акционерных обществах» по требованию </tspan><tspan
         x="594 604.91998 616.44 628.35999 640.28003 651.23999 662.46002 674.38 684.91998 696.84003 708 716.11798 727.27802 732.43799 744.35797 755.078 766.59802 777.55798 788.77802 800.698 812.61798 822.55798 833.39801 844.61798 854.138 866.05798 877.21802 885.33801 896.49799 901.65802 912.81799 924.43799 932.79797 943.51801 955.43799 966.15802 970.89801 976.05798 986.59802 997.81799 1008.738 1020.658 1031.3781 1036.538 1050.538 1062.158 1072.8781"
         y="-206.56"
         id="tspan128">единоличного исполнительного органа, члена Прав</tspan></text><text
       transform="matrix(1,0,0,-1,1776.718,749.236)"
       style="font-variant:normal;font-weight:300;font-stretch:normal;font-size:20px;font-family:'Rubik Light';-inkscape-font-specification:Rubik-Light;writing-mode:lr-tb;fill:#000000;fill-opacity:1;fill-rule:nonzero;stroke:none"
       id="text134"><tspan
         x="0"
         y="0"
         id="tspan132">-</tspan></text><text
       transform="matrix(1,0,0,-1,1287,722.636)"
       style="font-variant:normal;font-weight:300;font-stretch:normal;font-size:20px;font-family:'Rubik Light';-inkscape-font-specification:Rubik-Light;writing-mode:lr-tb;fill:#000000;fill-opacity:1;fill-rule:nonzero;stroke:none"
       id="text142"><tspan
         x="0 11.22 22.139999 34.060001 45.98 56.360001 61.52 74.760002 86.099998 102 112.92 123.64 133.58 144.42 155.14 159.88 165.03999 175.58 186.8 197.72 209.64 220.36 225.52 238.53999 249.7 260.54001 271.45999 281.39999 292.12 297.28 308.79999 320.72 332.34 343.26001 353.38 363.32001 374.48001 386.10001 397.26001 408.10001 413.26001 426.5 437.84 453.73999 464.66 475.38 485.32001 496.16 506.88"
         y="0"
         id="tspan136">ления Общества, члена Совета директоров Общества </tspan><tspan
         x="0 11.92 23.139999 35.060001 40.220001 50.939999 61.060001 73.080002 85 96.160004 108.08 119 130.62 141.34 146.5 152.88 163.60001 173.72 185.74001 197.66 208.82001 220.74001 231.66 243.28 254.44 265.28 271.66 276.39999 281.56 292.72 304.06 315.28 326 337.51999 348.23999 363.5 379.39999 390.32001 398.436 409.59601 414.75601 426.67599 437.59601 442.75601 456.03601 466.95599 478.87601 489.79599 500.716"
         y="26.6"
         id="tspan138">или акционера (акционеров), обладающего не менее </tspan><tspan
         x="0 10.54 21.459999 34.740002 39.900002 47.860001 53.02 58.458 69.617996 81.138 93.057999 104.978 117.458 123.838 128.998 140.51801 152.138 163.298 175.31799 186.23801 198.158 208.09801 219.258 232.53799 237.698 245.81599 256.776 267.996 279.15601 289.87601 300.45599 315.716 331.616 343.53601 353.896 359.056 369.776 379.896 391.91599 403.836 415.75601 420.91599 434.15601 445.496 461.396 472.31601 483.03601 492.97601 503.81601 514.53601"
         y="53.200001"
         id="tspan140">чем 1 (одним) процентом голосующих акций Общества.</tspan></text><text
       transform="matrix(1,0,0,-1,1287,608.9282)"
       style="font-variant:normal;font-weight:500;font-stretch:normal;font-size:28px;font-family:'Rubik Medium';-inkscape-font-specification:Rubik-Medium;writing-mode:lr-tb;fill:#000000;fill-opacity:1;fill-rule:nonzero;stroke:none"
       id="text146"><tspan
         x="0 18.816 35.419998 51.436001 68.571999 86.043999 107.548 123.732 130.116 146.132 163.744 179.7852 196.6972 212.7412"
         y="0"
         id="tspan144">Крупные сделки</tspan></text><text
       transform="matrix(1,0,0,-1,1287,569.3322)"
       style="font-variant:normal;font-weight:300;font-stretch:normal;font-size:20px;font-family:'Rubik Light';-inkscape-font-specification:Rubik-Light;writing-mode:lr-tb;fill:#000000;fill-opacity:1;fill-rule:nonzero;stroke:none"
       id="text152"><tspan
         x="0 13.06 18.219999 29.379999 39.32 49.860001 60.779999 70.720001 82.639999 93.800003 107.08 112.24 123.76 134.67999 146.3 158.22 169.38 180.89999 191.82001 196.98 207.10001 218.338 228.918 240.438 252.358 265.53799 275.89801 281.05801 291.77802 303.298 314.13599 325.35599 336.51599 346.63599 351.79599 365.03601 376.37601 392.276 403.19601 413.91599 423.85599 434.69601 445.85599 459.13599"
         y="0"
         id="tspan148">В отчетном периоде крупных сделок Обществом </tspan><tspan
         x="0 11.92 22.84 28 38.720001 49.880001 60.720001 71.639999 83.260002 98.639999 109.36 120.58 131.74001 142.46001 151.98"
         y="26.6"
         id="tspan150">не совершалось.</tspan></text><text
       transform="matrix(1,0,0,-1,99,453.2922)"
       style="font-variant:normal;font-weight:500;font-stretch:normal;font-size:20px;font-family:'Rubik Medium';-inkscape-font-specification:Rubik-Medium;writing-mode:lr-tb;fill:#000000;fill-opacity:1;fill-rule:nonzero;stroke:none"
       id="text156"><tspan
         x="0 13.74 18.299999 30.700001 43.880001 56.279999 69.459999 74.019997 82.760002 94.620003 107.2 118.64 123.2 135.16 150.52 162.60001 174.03999 178.60001 189.32001 200.75999 212.22 224.3 241.02 252.60001 264.16 276.64001 288.07999 292.64001 304.5 317.07999 329.56 341 345.56 357 369.57999 381.03601 393.116 404.57599 416.01599 421.31601 425.87601 437.57599 442.13599 453.57599 465.436 477.13599 488.69601 500.97601 517.17603 528.73602 541.216 553.69598 566.17603 570.73602 581.73401 593.59399 604.21399 616.07397 628.354 640.21399 652.69397 657.25403 669.73401 683.81403 695.27197 707.35199 718.79199 730.23199 740.85199 745.41199 756.13202 767.57202 780.052 792.53198 803.15198 814.71198 826.992 838.552 849.992 861.85199 873.552 884.992 897.47198 909.95203 921.81201 933.25201 943.87201 954.492"
         y="0"
         id="tspan154">В 2020 году была заключена одна сделка, в совершении которой имелась заинтересованность:</tspan></text><g
       id="g158"
       transform="translate(99,364)"><path
         d="M 0,0 H 217"
         style="fill:none;stroke:#e6e7e8;stroke-width:1;stroke-linecap:butt;stroke-linejoin:miter;stroke-miterlimit:10;stroke-dasharray:none;stroke-opacity:1"
         id="path160" /></g><g
       id="g162"
       transform="translate(316,364)"><path
         d="M 0,0 H 632"
         style="fill:none;stroke:#e6e7e8;stroke-width:1;stroke-linecap:butt;stroke-linejoin:miter;stroke-miterlimit:10;stroke-dasharray:none;stroke-opacity:1"
         id="path164" /></g><g
       id="g166"
       transform="translate(948,364)"><path
         d="M 0,0 H 510.75"
         style="fill:none;stroke:#e6e7e8;stroke-width:1;stroke-linecap:butt;stroke-linejoin:miter;stroke-miterlimit:10;stroke-dasharray:none;stroke-opacity:1"
         id="path168" /></g><g
       id="g170"
       transform="translate(1458.75,364)"><path
         d="M 0,0 H 363"
         style="fill:none;stroke:#e6e7e8;stroke-width:1;stroke-linecap:butt;stroke-linejoin:miter;stroke-miterlimit:10;stroke-dasharray:none;stroke-opacity:1"
         id="path172" /></g><text
       transform="matrix(1,0,0,-1,99,398)"
       style="font-variant:normal;font-weight:500;font-stretch:normal;font-size:18px;font-family:'Rubik Medium';-inkscape-font-specification:Rubik-Medium;writing-mode:lr-tb;fill:#000000;fill-opacity:1;fill-rule:nonzero;stroke:none"
       id="text176"><tspan
         x="0 12.366 23.598"
         y="0"
         id="tspan174">Вид</tspan></text><text
       transform="matrix(1,0,0,-1,99,372.008)"
       style="font-variant:normal;font-weight:500;font-stretch:normal;font-size:18px;font-family:'Rubik Medium';-inkscape-font-specification:Rubik-Medium;writing-mode:lr-tb;fill:#000000;fill-opacity:1;fill-rule:nonzero;stroke:none"
       id="text182"><tspan
         x="0 10.296 21.618 31.931999 42.804001 53.118"
         y="0"
         id="tspan178">сделки</tspan><tspan
         x="217.008 229.338 239.634 254.62801 265.03201 275.328 284.88599 295.41599 305.82001 317.052 328.284 342.108"
         y="-25.992001"
         id="tspan180">Существенные</tspan></text><text
       transform="matrix(1,0,0,-1,316.008,372.008)"
       style="font-variant:normal;font-weight:500;font-stretch:normal;font-size:18px;font-family:'Rubik Medium';-inkscape-font-specification:Rubik-Medium;writing-mode:lr-tb;fill:#000000;fill-opacity:1;fill-rule:nonzero;stroke:none"
       id="text190"><tspan
         x="0 9.9540005 20.25 31.122 41.796001 52.326 63.557999 73.926003 78.029999 88.325996 99.648003 109.9602 120.8322 131.14619"
         y="0"
         id="tspan184">условия сделки</tspan><tspan
         x="631.99799 645.22803 656.46002 667.90802 678.45599 683.22601 687.33002 698.56201 711.23401 721.638 736.68597 751.67822 762.08221 772.48621 776.59021 786.23822 796.53418 807.76617 818.99823 828.55621 838.96021 850.01221 860.4162 870.71222 881.38623 891.9162 902.21222 913.44421 924.67621 935.35022 945.64618 955.20422 964.76221"
         y="-25.992001"
         id="tspan186">Лицо, имеющее заинтересованность </tspan><tspan
         x="631.99799 642.52802 646.63202 656.92798 667.60199 678.13202 688.53601 699.58801 714.16803 724.57202 735.80402 747.03601 758.26801 762.37201 772.66803 783.98999 794.30219 805.17419 815.48822"
         y="0"
         id="tspan188">в совершении сделки</tspan></text><text
       transform="matrix(1,0,0,-1,1142.7217,377.994)"
       style="font-variant:normal;font-weight:500;font-stretch:normal;font-size:10.494px;font-family:'Rubik Medium';-inkscape-font-specification:Rubik-Medium;writing-mode:lr-tb;fill:#000000;fill-opacity:1;fill-rule:nonzero;stroke:none"
       id="text194"><tspan
         x="0"
         y="0"
         id="tspan192">1</tspan></text><text
       transform="matrix(1,0,0,-1,1458.75,398)"
       style="font-variant:normal;font-weight:500;font-stretch:normal;font-size:18px;font-family:'Rubik Medium';-inkscape-font-specification:Rubik-Medium;writing-mode:lr-tb;fill:#000000;fill-opacity:1;fill-rule:nonzero;stroke:none"
       id="text200"><tspan
         x="0 12.51 23.562 31.59 41.886002 53.118 57.222 67.517998 78.533997 89.585999 99.882004 110.412 121.284 131.688 142.92 154.15199 164.52 169.28999 173.394 184.41 195.46201 206.694 217.92599 228.29401 238.82401 253.40401 264.63599 275.86801 279.97198 291.02399 301.42801 316.008 326.41199 337.64401 348.87601 359.28"
         y="0"
         id="tspan196">Орган управления, принявший решение </tspan><tspan
         x="0 10.674 14.778 25.073999 35.748001 43.254002 54.125999 64.421997 74.718002 85.949997 97.181999 101.286 112.518 122.814 126.918 137.214 147.888 158.418 168.82201 179.87399 194.45399 204.858 216.09 227.32201 237.726 241.83 252.12601 263.448 273.75839 284.6304 294.9444"
         y="25.992001"
         id="tspan198">о согласии на совершение сделки</tspan></text><text
       transform="matrix(1,0,0,-1,98.994,338.186)"
       style="font-variant:normal;font-weight:300;font-stretch:normal;font-size:18px;font-family:'Rubik Light';-inkscape-font-specification:Rubik-Light;writing-mode:lr-tb;fill:#000000;fill-opacity:1;fill-rule:nonzero;stroke:none"
       id="text208"><tspan
         x="0 12.168 22.212 29.52 39.563999 49.32 59.363998 69.821999"
         y="0"
         id="tspan202">Договор </tspan><tspan
         x="0 10.044 14.688 25.056 35.514 45.341999 55.709999 65.753998 75.402 84.348 93.996002 103.752 113.85 123.678 134.40601 145.134 155.862"
         y="25.992001"
         id="tspan204">о предоставлении </tspan><tspan
         x="0 8.8559999 18.504 29.232 41.183998 51.228001"
         y="51.984001"
         id="tspan206">займов</tspan></text><text
       transform="matrix(1,0,0,-1,316.002,338.204)"
       style="font-variant:normal;font-weight:500;font-stretch:normal;font-size:18px;font-family:'Rubik Medium';-inkscape-font-specification:Rubik-Medium;writing-mode:lr-tb;fill:#000000;fill-opacity:1;fill-rule:nonzero;stroke:none"
       id="text212"><tspan
         x="0 12.33 21.888 32.562 43.613998 54.287998 65.519997 79.344002 83.447998 89.458199 99.988197 113.8122 121.6782 132.3522 143.67419 154.34821 165.3642 176.4162 187.64819 198.3222 209.0862 220.1382 230.54221 240.1002 250.39619 259.95419 270.26639 281.1384 291.86639 298.38239 302.48639 312.78241 324.1044 334.4184 345.29041 355.6044 366.8364"
         y="0"
         id="tspan210">Стороны (выгодоприобретатели) сделки:</tspan></text><text
       transform="matrix(1,0,0,-1,692.4324,338.204)"
       style="font-variant:normal;font-weight:300;font-stretch:normal;font-size:18px;font-family:'Rubik Light';-inkscape-font-specification:Rubik-Light;writing-mode:lr-tb;fill:#000000;fill-opacity:1;fill-rule:nonzero;stroke:none"
       id="text218"><tspan
         x="0 12.6 24.299999 36.216 40.860001 51.714001 64.314003 73.403999 84.456001 95.309998 99.954002 105.696 116.478 126.126 136.854 148.806 158.85001 169.218 178.866 188.62199 198.45 209.26801 215.00999 219.276"
         y="0"
         id="tspan214">ПАО «ПГК» (Займодавец), </tspan><tspan
         x="-376.43039 -364.5144 -352.59839 -340.6824 -336.03839 -325.18439 -314.4024 -302.64841 -291.34439 -280.29239 -269.43839 -264.7944 -259.0524 -248.2704 -238.62241 -228.7944 -216.84241 -202.53239 -191.8044 -183.2562 -177.51421"
         y="25.992001"
         id="tspan216">ООО «ЗВРК» (Заемщик).</tspan></text><text
       transform="matrix(1,0,0,-1,316.002,286.22)"
       style="font-variant:normal;font-weight:500;font-stretch:normal;font-size:18px;font-family:'Rubik Medium';-inkscape-font-specification:Rubik-Medium;writing-mode:lr-tb;fill:#000000;fill-opacity:1;fill-rule:nonzero;stroke:none"
       id="text222"><tspan
         x="0 13.14 24.191999 34.596001 45.917999 58.59 68.994003 78.552002 82.655998 92.952003 104.274 114.5862 125.4582 135.7722 147.0042 151.95419"
         y="0"
         id="tspan220">Предмет сделки: </tspan></text><text
       transform="matrix(1,0,0,-1,472.0602,286.22)"
       style="font-variant:normal;font-weight:300;font-stretch:normal;font-size:18px;font-family:'Rubik Light';-inkscape-font-specification:Rubik-Light;writing-mode:lr-tb;fill:#000000;fill-opacity:1;fill-rule:nonzero;stroke:none"
       id="text230"><tspan
         x="0 10.782 20.43 31.158001 43.110001 53.153999 63.521999 73.169998 82.926003 92.753998 103.572 108.216 118.26 128.466 137.808 146.664 155.8782 165.70621 174.65221 184.3002 193.6422 198.28619 208.65421 219.1122 228.9402 239.3082 249.3522 259.00021 267.9462 277.59421 287.35019 298.07819 307.0242 315.59219 320.23621 331.01819 340.6662 350.4942 362.4462 376.7562 387.48419 396.59219 406.1142"
         y="0"
         id="tspan224">Займодавец обязуется предоставить Заемщику </tspan><tspan
         x="-156.0582 -147.20219 -137.5542 -127.7262 -115.7742 -107.5122 -98.656197 -89.008202 -78.280197 -66.328201 -54.466202 -50.200199 -45.556198 -35.908199 -31.2642 -20.482201 -10.8342 -1.0062 10.9458 25.2558 35.983799 45.091801 49.735802 59.7798 69.985802 79.327797 88.1838 97.396202 107.2242 116.1702 125.8182 135.1602 139.8042 149.5602 159.3882 169.84621 180.5742 190.09621 199.04221 207.6102 212.2542 221.1102 230.75819 240.5862 252.53819 260.8002 269.65619 279.3042 290.0322 301.98419 313.84619 318.4902 328.24619 332.8902 343.25821 353.30219 363.76019 373.1022 383.47021 392.1282 401.95621"
         y="25.992001"
         id="tspan226">заем/займы, а Заемщик обязуется вернуть заем/займы в порядке </tspan><tspan
         x="-156.0582 -145.3302 -140.6862 -129.95821 -120.3102 -115.6662 -106.4502 -96.8022 -86.704201 -76.660202 -66.904198 -56.176201 -46.834202 -37.510201 -33.244202 -28.600201 -19.386 -9.7379999 -0.792 8.8559999 19.584 29.628 39.383999 49.481998 59.310001 70.038002 80.765999 92.627998 101.952 106.596 116.964 127.008 134.31419 144.3582 154.1142 164.1582 174.6162 184.6602 196.6122"
         y="51.984001"
         id="tspan228">и на условиях, установленных договором.</tspan></text><text
       transform="matrix(1,0,0,-1,316.002,208.244)"
       style="font-variant:normal;font-weight:500;font-stretch:normal;font-size:18px;font-family:'Rubik Medium';-inkscape-font-specification:Rubik-Medium;writing-mode:lr-tb;fill:#000000;fill-opacity:1;fill-rule:nonzero;stroke:none"
       id="text234"><tspan
         x="0 13.14 24.191999 34.866001 46.313999 56.717999 67.949997 77.508003 88.739998 99.036003 109.404 113.508 123.804 133.362 143.658 154.188 164.502 174.798"
         y="0"
         id="tspan232">Процентная ставка:</tspan></text><text
       transform="matrix(1,0,0,-1,500.394,208.244)"
       style="font-variant:normal;font-weight:300;font-stretch:normal;font-size:18px;font-family:'Rubik Light';-inkscape-font-specification:Rubik-Light;writing-mode:lr-tb;fill:#000000;fill-opacity:1;fill-rule:nonzero;stroke:none"
       id="text238"><tspan
         x="0 11.088 24.426001 29.07 36.376202 46.4202 56.7882 66.832199 76.588203 88.450203 97.7742"
         y="0"
         id="tspan236">0% годовых.</tspan></text><text
       transform="matrix(1,0,0,-1,316.002,182.252)"
       style="font-variant:normal;font-weight:500;font-stretch:normal;font-size:18px;font-family:'Rubik Medium';-inkscape-font-specification:Rubik-Medium;writing-mode:lr-tb;fill:#000000;fill-opacity:1;fill-rule:nonzero;stroke:none"
       id="text242"><tspan
         x="0 12.33 23.004 33.534 44.208 54.521999 64.818001 75.834 87.066002 97.362 107.73 111.834 122.13 132.42599 145.09801 157.77 168.06599 172.17 181.81799 192.114 203.34599 216.01801 226.692 237.222"
         y="0"
         id="tspan240">Совокупная сумма займов:</tspan></text><text
       transform="matrix(1,0,0,-1,562.818,182.252)"
       style="font-variant:normal;font-weight:300;font-stretch:normal;font-size:18px;font-family:'Rubik Light';-inkscape-font-specification:Rubik-Light;writing-mode:lr-tb;fill:#000000;fill-opacity:1;fill-rule:nonzero;stroke:none"
       id="text246"><tspan
         x="0 10.728 20.556 25.200001 35.405998 45.27 55.368 65.195999 75.024002 79.667999 90.377998 100.458 110.826 115.47 127.422 137.52 148.248 152.892 163.0062 172.5282 182.73421"
         y="0"
         id="tspan244">не более 423 млн руб.</tspan></text><text
       transform="matrix(1,0,0,-1,316.002,156.26)"
       style="font-variant:normal;font-weight:500;font-stretch:normal;font-size:18px;font-family:'Rubik Medium';-inkscape-font-specification:Rubik-Medium;writing-mode:lr-tb;fill:#000000;fill-opacity:1;fill-rule:nonzero;stroke:none"
       id="text250"><tspan
         x="0 12.33 23.382 34.056 44.369999 48.473999 59.004002 69.678001 79.325996 89.856003 100.908 111.204 120.762 131.058"
         y="0"
         id="tspan248">Срок возврата:</tspan></text><text
       transform="matrix(1,0,0,-1,456.654,156.26)"
       style="font-variant:normal;font-weight:300;font-stretch:normal;font-size:18px;font-family:'Rubik Light';-inkscape-font-specification:Rubik-Light;writing-mode:lr-tb;fill:#000000;fill-opacity:1;fill-rule:nonzero;stroke:none"
       id="text254"><tspan
         x="0 10.728 20.556 25.200001 35.568001 45.612 54.467999 64.835999 75.564003 85.391998 95.220001 99.863998 109.8702 117.0342 120.0942 127.2582 137.3382 141.62219 151.70219 162.79021 172.87019 181.9062"
         y="0"
         id="tspan252">не позднее 31.12.2029.</tspan></text><text
       transform="matrix(1,0,0,-1,948,338.258)"
       style="font-variant:normal;font-weight:500;font-stretch:normal;font-size:18px;font-family:'Rubik Medium';-inkscape-font-specification:Rubik-Medium;writing-mode:lr-tb;fill:#000000;fill-opacity:1;fill-rule:nonzero;stroke:none"
       id="text258"><tspan
         x="0 12.204 23.076 33.48 44.712002 48.816002 61.146 71.82 82.349998 92.753998 102.312 112.608 116.712 128.034 139.26601 150.31799 160.722 171.036 180.59399 191.26801 202.32001 212.994 223.524 227.62801 240.858 252.09 262.38599 273.61801 284.85001 288.95401 301.32001 305.94241 318.2724"
         y="0"
         id="tspan256">Член Совета директоров Лисин В.С.</tspan></text><text
       transform="matrix(1,0,0,-1,948,312.266)"
       style="font-variant:normal;font-weight:300;font-stretch:normal;font-size:18px;font-family:'Rubik Light';-inkscape-font-specification:Rubik-Light;writing-mode:lr-tb;fill:#000000;fill-opacity:1;fill-rule:nonzero;stroke:none"
       id="text270"><tspan
         x="0 11.916 21.563999 32.292 42.335999 52.091999 61.740002 72.468002 83.195999 92.538002 97.181999 106.038 115.686 126.414 137.142 146.088 155.916 166.37399 176.202 185.85001 195.894 205.64999 215.298 226.026 236.754 246.798 256.44601 265.392 276.12 280.76401 291.492 301.32001 305.96399 316.332 326.79001 337.51801 347.27399 357.31799 367.686 377.02802 385.974 395.62201 404.96399 409.608 419.36401 424.008 433.65601 444.384 454.48199 464.004"
         y="0"
         id="tspan260">Основания заинтересованности не приводятся в силу </tspan><tspan
         x="0 10.368 14.652 19.296 28.062 38.807999 43.091999 53.459999 58.104 70.704002 80.568001 90.666 100.71 114.192 124.02 134.748 145.476 154.81799 159.46201 170.838 180.48599 191.214 200.32201 209.97 214.614 225.918 235.96201 245.61 255.258 265.98599 276.71399 281.358 291.40201 300.34799 304.992 315.35999 326.10239 329.16241 336.32639 346.4064 350.6904 360.77039 371.8584 379.0224 389.73239 394.3764 414.69839 419.34241 430.0524 440.34839 451.05841 459.66061 472.26059"
         y="25.992001"
         id="tspan262">п. 70.3 Положения Банка России от 30.12.2014 № 454-П </tspan><tspan
         x="0 10.854 22.77 27.414 37.872002 47.52 57.167999 66.276001 76.734001 88.596001 97.542 108.27 118.998 123.642 134.37 145.09801 157.32001 167.364 177.82201 189.774 199.422 210.24001 220.968 231.696 236.34 245.98801 257.94 268.668 277.61401 287.44199 298.17001 307.116 316.76401 328.716 339.444 344.08801 353.73599 365.68799 376.41599 386.064 395.71201 406.44 416.48401 427.21201 437.94 449.802 459.12601"
         y="51.984001"
         id="tspan264">«О раскрытии информации эмитентами эмиссионных </tspan><tspan
         x="0 10.818 20.646 31.374001 42.102001 53.964001 63.287998 67.931999 78.138 87.660004 99.612 109.26 116.784 127.638 131.976 136.62 147.078 156.726 165.582 177.534 187.362 197.82001 202.464 212.112 222.48 232.23241 242.3304 251.4384 262.16641 266.81039 276.4584 286.50241 296.15039 305.09641 314.74438 324.5004 334.59839 343.9404 353.7684 362.71439 367.3584 378.1026 382.02661 392.7366 406.07458"
         y="77.975998"
         id="tspan266">ценных бумаг»: размер сделки составляет 0,4% </tspan><tspan
         x="0 10.044 18.99 23.634001 33.389999 43.037998 53.136002 66.870003 75.816002 87.678001 92.321999 102.528 112.176 122.274 131.922 142.64999 152.298"
         y="103.968"
         id="tspan268">от валюты баланса</tspan></text><text
       transform="matrix(1,0,0,-1,948.0001,182.498)"
       style="font-variant:normal;font-weight:300;font-stretch:normal;font-size:9.328px;font-family:'Rubik Light';-inkscape-font-specification:Rubik-Light;writing-mode:lr-tb;fill:#000000;fill-opacity:1;fill-rule:nonzero;stroke:none"
       id="text274"><tspan
         x="0"
         y="0"
         id="tspan272">1</tspan></text><text
       transform="matrix(1,0,0,-1,951.7125,177.17)"
       style="font-variant:normal;font-weight:300;font-stretch:normal;font-size:16px;font-family:'Rubik Light';-inkscape-font-specification:Rubik-Light;writing-mode:lr-tb;fill:#000000;fill-opacity:1;fill-rule:nonzero;stroke:none"
       id="text280"><tspan
         x="0 10.88 20.416 30.032 38.959999 43.088001 52.304001 61.599998 71.136002 79.008003 88.543999 97.120003 105.856 113.808 122.384 130.688 134.81599 142.688 151.26401 160.8 170.336 178.28799 187.024 196.32001 205.056 213.632 222.56 231.23199 239.808 249.34399 258.88 269.42401 280.048"
         y="0"
         id="tspan276">Лицо признается заинтересованным </tspan><tspan
         x="-3.7119999 5.8239999 14.4 18.528 27.743999 36.32 44.271999 52.736 56.863998 65.440002 74.367996 83.040001 91.776001 101.072 113.376 122.112 131.64799 141.18401 149.48801 153.616 162.192 171.408 180.0784 189.0544 197.15041 206.6864"
         y="20"
         id="tspan278">на дату совершения сделки.</tspan></text><text
       transform="matrix(1,0,0,-1,1458.75,338.17)"
       style="font-variant:normal;font-weight:500;font-stretch:normal;font-size:18px;font-family:'Rubik Medium';-inkscape-font-specification:Rubik-Medium;writing-mode:lr-tb;fill:#000000;fill-opacity:1;fill-rule:nonzero;stroke:none"
       id="text284"><tspan
         x="0 12.33 23.004 33.534 43.938 53.495998 57.599998 68.921997 80.153999 91.206001 101.61 111.924 121.482 132.15601 143.20799 153.882"
         y="0"
         id="tspan282">Совет директоров</tspan></text><text
       transform="matrix(1,0,0,-1,1458.75,312.178)"
       style="font-variant:normal;font-weight:300;font-stretch:normal;font-size:18px;font-family:'Rubik Light';-inkscape-font-specification:Rubik-Light;writing-mode:lr-tb;fill:#000000;fill-opacity:1;fill-rule:nonzero;stroke:none"
       id="text288"><tspan
         x="0 5.0219998 15.39 25.848 35.891998 44.838001 54.882 63.540001 73.403999 83.501999 88.146004 98.190002 107.136 111.78 121.86 132.6042 135.6642 142.8282 149.9922 154.2762 164.3562 175.4442 185.5242 196.6122 201.2562 221.5782 226.2222 233.3862 244.4742 254.32021"
         y="0"
         id="tspan286">(протокол от 20.11.2020 № 106)</tspan></text><text
       transform="matrix(1,0,0,-1,1476.0188,126)"
       style="font-variant:normal;font-weight:500;font-stretch:normal;font-size:20px;font-family:'Rubik Medium';-inkscape-font-specification:Rubik-Medium;writing-mode:lr-tb;fill:#000000;fill-opacity:1;fill-rule:nonzero;stroke:none"
       id="text292"><tspan
         x="0 8.5600004 20.120001 32.599998 44.16 56.439999 67.879997 79.959999 90.580002 103.06 118.42 130.89999 135.254 147.834 160.314 172.59399 184.15401 195.614 206.23399 218.09399 230.37399 234.728 249.328 263.20801 277.108 281.46201 293.76199 308.362 319.242 332.68201"
         y="0"
         id="tspan290">Генеральный директор ПАО «ПГК»</tspan></text><text
       transform="matrix(1,0,0,-1,1476.0188,100)"
       style="font-variant:normal;font-weight:500;font-stretch:normal;font-size:20px;font-family:'Rubik Medium';-inkscape-font-specification:Rubik-Medium;writing-mode:lr-tb;fill:#000000;fill-opacity:1;fill-rule:nonzero;stroke:none"
       id="text296"><tspan
         x="0 13.7 18.98 35.119999 40.5 45.060001 58.5 69.940002 82.220001 93.660004 104.28 115.72 127.28"
         y="0"
         id="tspan294">С.М. Каратаев</tspan></text><text
       transform="matrix(1,0,0,-1,98.9988,100)"
       style="font-variant:normal;font-weight:300;font-stretch:normal;font-size:20px;font-family:'Rubik Light';-inkscape-font-specification:Rubik-Light;writing-mode:lr-tb;fill:#000000;fill-opacity:1;fill-rule:nonzero;stroke:none"
       id="text302"><tspan
         x="0 14 25.620001 36.540001 48.060001 58.779999 68.720001 79.440002 90.279999 101.5 112.42 124.34 136.25999 149.44 161.36 166.52 177.67999 187.62 198.16 209.08 219.02 224.17999 234.75999 244.7 255.53999 266.45999 278.07999 293.06 304.57999 315.5 327.42001 332.57999 345.60001 356.76001 367.60001 378.51999 388.45999 399.62 412.89999 418.06 429.57999 441.5 453.12 464.04001 474.16 484.10001 495.26001 506.88 518.03998 528.88 534.03998 548.03998 561.03998 574.28003 579.44 591.5 605.5 615.59998 627.88 639.94 645.09998 657.35199 669.612 681.87201 694.13202 706.39203 708.75201 713.51202 724.71198 737.03198 748.23199 756.19202 766.51202 772.09003 783.60999 795.22998 806.39001 816.33002 827.48999 837.10999 848.07001 859.28998 864.45001 875.60999 885.54999 890.71002 902.77002 914.83002 926.888 938.948 951.008 965.86798 970.62799 981.828 994.14801 1005.348 1013.308 1018.468 1041.048 1053.108 1065.168 1077.228 1083.608"
         y="0"
         id="tspan298">Представленный отчет утвержден Советом директоров ПАО «ПГК» _____ .2021 (протокол от ______.2021 №___).</tspan><tspan
         x="-60.939999 -49.5"
         y="-923"
         id="tspan300">99</tspan></text><g
       id="g304"><g
         id="g306"><g
           id="g308"
           clip-path="url(#clipPath312)"><text
             transform="matrix(1,0,0,-1,99,1023)"
             style="font-variant:normal;font-weight:300;font-stretch:normal;font-size:20px;font-family:'Rubik Light';-inkscape-font-specification:Rubik-Light;writing-mode:lr-tb;fill:#000000;fill-opacity:1;fill-rule:nonzero;stroke:none"
             id="text316"><tspan
               x="0 13.24 18.4 28.02 39.18 52.459999 63.98 74.699997 86.620003 98.540001"
               y="0"
               id="tspan314">О компании</tspan></text></g></g></g><text
       transform="matrix(1,0,0,-1,38.0602,1023)"
       style="font-variant:normal;font-weight:300;font-stretch:normal;font-size:20px;font-family:'Rubik Light';-inkscape-font-specification:Rubik-Light;writing-mode:lr-tb;fill:#000000;fill-opacity:1;fill-rule:nonzero;stroke:none"
       id="text320"><tspan
         x="0 11.44"
         y="0"
         id="tspan318">99</tspan></text></g></svg>
