<?xml version="1.0" encoding="utf-8"?>
<!-- Generator: Adobe Illustrator 14.0.0, SVG Export Plug-In  -->
<!DOCTYPE svg PUBLIC "-//W3C//DTD SVG 1.1//EN" "http://www.w3.org/Graphics/SVG/1.1/DTD/svg11.dtd" [
	<!ENTITY ns_flows "http://ns.adobe.com/Flows/1.0/">
]>
<svg version="1.1"
	 xmlns="http://www.w3.org/2000/svg" xmlns:xlink="http://www.w3.org/1999/xlink" xmlns:a="http://ns.adobe.com/AdobeSVGViewerExtensions/3.0/"
	 x="0px" y="0px" width="37px" height="61px" viewBox="0 0 37 61" enable-background="new 0 0 37 61" xml:space="preserve">
<defs>
</defs>
<path d="M0,16.997V0h2v10.151L11.676,0h2.478L6.871,7.433l7.599,9.565h-2.402L5.535,8.769L2,12.436V17H0V16.997z"/>
<rect x="18" y="20" width="2" height="17"/>
<rect x="18" y="35" width="16" height="2"/>
<rect x="18" y="27" width="15" height="2"/>
<rect y="20" width="2" height="17"/>
<rect y="40" width="2" height="15"/>
<rect x="32" y="40" width="2" height="15"/>
<rect x="13" y="20" width="2" height="17"/>
<rect x="18" y="20" width="16" height="2"/>
<rect x="2" y="27" width="11" height="2"/>
<polygon points="37,57 35,57 35,57 0,57 0,55 37,55 "/>
<polygon points="33,61 35,61 37,57 35,57 "/>
<g>
	<path d="M26,1.7c4.025,0,7.3,3.05,7.3,6.8s-3.274,6.8-7.3,6.8s-7.3-3.05-7.3-6.8S21.975,1.7,26,1.7 M26,0c-4.971,0-9,3.806-9,8.5
		s4.029,8.5,9,8.5s9-3.806,9-8.5S30.971,0,26,0L26,0z"/>
</g>
</svg>
