<svg width="160" height="600" viewBox="0 0 160 600" fill="none" xmlns="http://www.w3.org/2000/svg">
<path d="M55.7725 76.3066H52.4209V71H44.0928V76.3066H40.7412V67.9531H41.833C43.5765 63.3236 44.6937 58.1523 45.1846 52.4395H53.665V67.9531H55.7725V76.3066ZM50.2119 67.9531V55.4736H48.1045C47.8929 57.5303 47.5501 59.6673 47.0762 61.8848C46.6107 64.0938 46.0605 66.1165 45.4258 67.9531H50.2119ZM58.9082 71.2539C58.0195 71.2539 57.2747 71.1354 56.6738 70.8984V67.8262C57.2917 68.0716 57.9307 68.1943 58.5908 68.1943C59.6064 68.1943 60.3893 67.2507 60.9395 65.3633L56.1787 52.4395H59.7969L62.1582 59.6885C62.3529 60.3571 62.4756 60.9284 62.5264 61.4023H62.6279L62.8057 60.5391L62.9961 59.6885L65.0146 52.4395H68.5059L64.3672 65.5664C63.707 67.64 62.9495 69.1084 62.0947 69.9717C61.2484 70.8265 60.1862 71.2539 58.9082 71.2539ZM80.4014 65.0967C80.4014 66.9756 79.9189 68.4313 78.9541 69.4639C77.9977 70.488 76.6266 71 74.8408 71H70.1562V52.4395H78.9668V55.4482H73.6094V59.6885H74.7012C76.5801 59.6885 77.9977 60.1413 78.9541 61.0469C79.9189 61.9525 80.4014 63.3024 80.4014 65.0967ZM73.6094 68.0039H74.6758C76.1738 68.0039 76.9229 67.0771 76.9229 65.2236C76.9229 64.335 76.7324 63.696 76.3516 63.3066C75.9792 62.9089 75.3444 62.71 74.4473 62.71H73.6094V68.0039ZM91.6113 71L90.5449 66.3154H85.708L84.6416 71H81.1885L85.7842 52.3633H90.4688L95.0771 71H91.6113ZM89.8975 63.2559L88.9072 58.9395C88.848 58.6771 88.7126 58.0212 88.501 56.9717C88.2979 55.9137 88.1751 55.207 88.1328 54.8516C88.0228 55.5794 87.8831 56.3835 87.7139 57.2637C87.5446 58.1354 87.1045 60.1328 86.3936 63.2559H89.8975ZM96.7148 52.4395H99.9141V62.6338C99.9141 63.6917 99.8337 64.737 99.6729 65.7695H99.8125L105.475 52.4395H109.715V71H106.541V60.8311C106.541 59.5785 106.638 58.4782 106.833 57.5303H106.668L100.98 71H96.7148V52.4395ZM107.849 46.8408C107.679 48.2627 107.214 49.3037 106.452 49.9639C105.699 50.624 104.586 50.9541 103.113 50.9541C101.674 50.9541 100.595 50.6325 99.876 49.9893C99.1566 49.3376 98.7292 48.2881 98.5938 46.8408H101.399C101.493 47.6872 101.67 48.2585 101.933 48.5547C102.203 48.8509 102.622 48.999 103.189 48.999C103.748 48.999 104.163 48.8298 104.434 48.4912C104.713 48.1527 104.899 47.6025 104.992 46.8408H107.849ZM112.762 69.2607C112.762 68.6006 112.935 68.0885 113.282 67.7246C113.638 67.3607 114.162 67.1787 114.856 67.1787C115.55 67.1787 116.075 67.3607 116.431 67.7246C116.786 68.0801 116.964 68.5921 116.964 69.2607C116.964 69.9209 116.778 70.4329 116.405 70.7969C116.041 71.1608 115.525 71.3428 114.856 71.3428C114.171 71.3428 113.65 71.1608 113.295 70.7969C112.939 70.4245 112.762 69.9124 112.762 69.2607ZM58.2607 107.307H54.9092V102H46.5811V107.307H43.2295V98.9531H44.3213C46.0648 94.3236 47.182 89.1523 47.6729 83.4395H56.1533V98.9531H58.2607V107.307ZM52.7002 98.9531V86.4736H50.5928C50.3812 88.5303 50.0384 90.6673 49.5645 92.8848C49.099 95.0938 48.5488 97.1165 47.9141 98.9531H52.7002ZM69.0898 102L68.0234 97.3154H63.1865L62.1201 102H58.667L63.2627 83.3633H67.9473L72.5557 102H69.0898ZM67.376 94.2559L66.3857 89.9395C66.3265 89.6771 66.1911 89.0212 65.9795 87.9717C65.7764 86.9137 65.6536 86.207 65.6113 85.8516C65.5013 86.5794 65.3617 87.3835 65.1924 88.2637C65.0231 89.1354 64.583 91.1328 63.8721 94.2559H67.376ZM74.1934 83.4395H78.9287C80.8584 83.4395 82.2633 83.8161 83.1436 84.5693C84.0238 85.3141 84.4639 86.5033 84.4639 88.1367C84.4639 89.2116 84.2311 90.113 83.7656 90.8408C83.3001 91.5602 82.6654 91.9961 81.8613 92.1484V92.2754C82.9108 92.5378 83.6683 93.0286 84.1338 93.748C84.5993 94.4674 84.832 95.4238 84.832 96.6172C84.832 98.3014 84.3792 99.6217 83.4736 100.578C82.5765 101.526 81.3451 102 79.7793 102H74.1934V83.4395ZM77.4434 90.9043H79.0303C79.7581 90.9043 80.2702 90.7096 80.5664 90.3203C80.8626 89.931 81.0107 89.3512 81.0107 88.5811C81.0107 87.8109 80.8415 87.2607 80.5029 86.9307C80.1644 86.5921 79.6312 86.4229 78.9033 86.4229H77.4434V90.9043ZM77.4434 93.7861V98.9785H79.1826C79.902 98.9785 80.4352 98.7585 80.7822 98.3184C81.1377 97.8783 81.3154 97.1969 81.3154 96.2744C81.3154 94.6156 80.5876 93.7861 79.1318 93.7861H77.4434ZM96.1562 102L95.0898 97.3154H90.2529L89.1865 102H85.7334L90.3291 83.3633H95.0137L99.6221 102H96.1562ZM94.4424 94.2559L93.4521 89.9395C93.3929 89.6771 93.2575 89.0212 93.0459 87.9717C92.8428 86.9137 92.7201 86.207 92.6777 85.8516C92.5677 86.5794 92.4281 87.3835 92.2588 88.2637C92.0895 89.1354 91.6494 91.1328 90.9385 94.2559H94.4424ZM101.26 83.4395H104.459V93.6338C104.459 94.6917 104.379 95.737 104.218 96.7695H104.357L110.02 83.4395H114.26V102H111.086V91.8311C111.086 90.5785 111.183 89.4782 111.378 88.5303H111.213L105.525 102H101.26V83.4395ZM112.394 77.8408C112.224 79.2627 111.759 80.3037 110.997 80.9639C110.244 81.624 109.131 81.9541 107.658 81.9541C106.219 81.9541 105.14 81.6325 104.421 80.9893C103.701 80.3376 103.274 79.2881 103.139 77.8408H105.944C106.037 78.6872 106.215 79.2585 106.478 79.5547C106.748 79.8509 107.167 79.999 107.734 79.999C108.293 79.999 108.708 79.8298 108.979 79.4912C109.258 79.1527 109.444 78.6025 109.537 77.8408H112.394ZM33.1621 133H29.7344V117.474H25.1514V133H21.6982V114.439H33.1621V133ZM49.2217 123.694C49.2217 126.767 48.6462 129.128 47.4951 130.778C46.3441 132.429 44.6979 133.254 42.5566 133.254C40.4069 133.254 38.7565 132.433 37.6055 130.791C36.4544 129.141 35.8789 126.767 35.8789 123.669C35.8789 120.597 36.4544 118.244 37.6055 116.61C38.7565 114.968 40.4154 114.147 42.582 114.147C44.7233 114.147 46.3652 114.973 47.5078 116.623C48.6504 118.265 49.2217 120.622 49.2217 123.694ZM39.4082 123.694C39.4082 125.81 39.6748 127.423 40.208 128.531C40.7412 129.64 41.5241 130.194 42.5566 130.194C44.6387 130.194 45.6797 128.028 45.6797 123.694C45.6797 119.361 44.6471 117.194 42.582 117.194C41.5326 117.194 40.7412 117.749 40.208 118.857C39.6748 119.958 39.4082 121.57 39.4082 123.694ZM69.8262 133H66.373V124.862H61.8154V133H58.3623V114.439H61.8154V121.815H66.373V114.439H69.8262V133ZM85.8857 123.694C85.8857 126.767 85.3102 129.128 84.1592 130.778C83.0081 132.429 81.362 133.254 79.2207 133.254C77.071 133.254 75.4206 132.433 74.2695 130.791C73.1185 129.141 72.543 126.767 72.543 123.669C72.543 120.597 73.1185 118.244 74.2695 116.61C75.4206 114.968 77.0794 114.147 79.2461 114.147C81.3874 114.147 83.0293 114.973 84.1719 116.623C85.3145 118.265 85.8857 120.622 85.8857 123.694ZM76.0723 123.694C76.0723 125.81 76.3389 127.423 76.8721 128.531C77.4053 129.64 78.1882 130.194 79.2207 130.194C81.3027 130.194 82.3438 128.028 82.3438 123.694C82.3438 119.361 81.3112 117.194 79.2461 117.194C78.1966 117.194 77.4053 117.749 76.8721 118.857C76.3389 119.958 76.0723 121.57 76.0723 123.694ZM88.6025 114.439H93.3379C95.2676 114.439 96.6725 114.816 97.5527 115.569C98.4329 116.314 98.873 117.503 98.873 119.137C98.873 120.212 98.6403 121.113 98.1748 121.841C97.7093 122.56 97.0745 122.996 96.2705 123.148V123.275C97.32 123.538 98.0775 124.029 98.543 124.748C99.0085 125.467 99.2412 126.424 99.2412 127.617C99.2412 129.301 98.7884 130.622 97.8828 131.578C96.9857 132.526 95.7542 133 94.1885 133H88.6025V114.439ZM91.8525 121.904H93.4395C94.1673 121.904 94.6794 121.71 94.9756 121.32C95.2718 120.931 95.4199 120.351 95.4199 119.581C95.4199 118.811 95.2507 118.261 94.9121 117.931C94.5736 117.592 94.0404 117.423 93.3125 117.423H91.8525V121.904ZM91.8525 124.786V129.979H93.5918C94.3112 129.979 94.8444 129.758 95.1914 129.318C95.5469 128.878 95.7246 128.197 95.7246 127.274C95.7246 125.616 94.9967 124.786 93.541 124.786H91.8525ZM114.552 123.694C114.552 126.767 113.976 129.128 112.825 130.778C111.674 132.429 110.028 133.254 107.887 133.254C105.737 133.254 104.087 132.433 102.936 130.791C101.785 129.141 101.209 126.767 101.209 123.669C101.209 120.597 101.785 118.244 102.936 116.61C104.087 114.968 105.745 114.147 107.912 114.147C110.053 114.147 111.695 114.973 112.838 116.623C113.98 118.265 114.552 120.622 114.552 123.694ZM104.738 123.694C104.738 125.81 105.005 127.423 105.538 128.531C106.071 129.64 106.854 130.194 107.887 130.194C109.969 130.194 111.01 128.028 111.01 123.694C111.01 119.361 109.977 117.194 107.912 117.194C106.863 117.194 106.071 117.749 105.538 118.857C105.005 119.958 104.738 121.57 104.738 123.694ZM117.269 114.439H120.468V124.634C120.468 125.692 120.387 126.737 120.227 127.77H120.366L126.028 114.439H130.269V133H127.095V122.831C127.095 121.578 127.192 120.478 127.387 119.53H127.222L121.534 133H117.269V114.439ZM128.402 108.841C128.233 110.263 127.768 111.304 127.006 111.964C126.253 112.624 125.14 112.954 123.667 112.954C122.228 112.954 121.149 112.632 120.43 111.989C119.71 111.338 119.283 110.288 119.147 108.841H121.953C122.046 109.687 122.224 110.258 122.486 110.555C122.757 110.851 123.176 110.999 123.743 110.999C124.302 110.999 124.716 110.83 124.987 110.491C125.267 110.153 125.453 109.603 125.546 108.841H128.402ZM133.315 131.261C133.315 130.601 133.489 130.089 133.836 129.725C134.191 129.361 134.716 129.179 135.41 129.179C136.104 129.179 136.629 129.361 136.984 129.725C137.34 130.08 137.518 130.592 137.518 131.261C137.518 131.921 137.331 132.433 136.959 132.797C136.595 133.161 136.079 133.343 135.41 133.343C134.725 133.343 134.204 133.161 133.849 132.797C133.493 132.424 133.315 131.912 133.315 131.261Z" fill="white"/>
</svg>
