<svg width="970" height="250" viewBox="0 0 970 250" fill="none" xmlns="http://www.w3.org/2000/svg">
<path d="M71.3164 124.613H64.6133V114H47.957V124.613H41.2539V107.906H43.4375C46.9245 98.6471 49.1589 88.3047 50.1406 76.8789H67.1016V107.906H71.3164V124.613ZM60.1953 107.906V82.9473H55.9805C55.5573 87.0605 54.8717 91.3346 53.9238 95.7695C52.9928 100.188 51.8926 104.233 50.623 107.906H60.1953ZM77.5879 114.508C75.8105 114.508 74.321 114.271 73.1191 113.797V107.652C74.3548 108.143 75.6328 108.389 76.9531 108.389C78.9844 108.389 80.5501 106.501 81.6504 102.727L72.1289 76.8789H79.3652L84.0879 91.377C84.4772 92.7142 84.7227 93.8568 84.8242 94.8047H85.0273L85.3828 93.0781L85.7637 91.377L89.8008 76.8789H96.7832L88.5059 103.133C87.1855 107.28 85.6706 110.217 83.9609 111.943C82.2682 113.653 80.1439 114.508 77.5879 114.508ZM120.574 102.193C120.574 105.951 119.609 108.863 117.68 110.928C115.767 112.976 113.025 114 109.453 114H100.084V76.8789H117.705V82.8965H106.99V91.377H109.174C112.932 91.377 115.767 92.2826 117.68 94.0938C119.609 95.9049 120.574 98.6048 120.574 102.193ZM106.99 108.008H109.123C112.119 108.008 113.617 106.154 113.617 102.447C113.617 100.67 113.236 99.3919 112.475 98.6133C111.73 97.8177 110.46 97.4199 108.666 97.4199H106.99V108.008ZM142.994 114L140.861 104.631H131.188L129.055 114H122.148L131.34 76.7266H140.709L149.926 114H142.994ZM139.566 98.5117L137.586 89.8789C137.467 89.3542 137.197 88.0423 136.773 85.9434C136.367 83.8275 136.122 82.4141 136.037 81.7031C135.817 83.1589 135.538 84.7669 135.199 86.5273C134.861 88.2708 133.98 92.2656 132.559 98.5117H139.566ZM153.201 76.8789H159.6V97.2676C159.6 99.3835 159.439 101.474 159.117 103.539H159.396L170.721 76.8789H179.201V114H172.854V93.6621C172.854 91.1569 173.048 88.9564 173.438 87.0605H173.107L161.732 114H153.201V76.8789ZM175.469 65.6816C175.13 68.5254 174.199 70.6074 172.676 71.9277C171.169 73.248 168.943 73.9082 165.998 73.9082C163.12 73.9082 160.962 73.265 159.523 71.9785C158.085 70.6751 157.23 68.5762 156.959 65.6816H162.57C162.757 67.3743 163.112 68.5169 163.637 69.1094C164.178 69.7018 165.016 69.998 166.15 69.998C167.268 69.998 168.097 69.6595 168.639 68.9824C169.197 68.3053 169.57 67.2051 169.756 65.6816H175.469ZM185.295 110.521C185.295 109.201 185.642 108.177 186.336 107.449C187.047 106.721 188.096 106.357 189.484 106.357C190.872 106.357 191.922 106.721 192.633 107.449C193.344 108.16 193.699 109.184 193.699 110.521C193.699 111.842 193.327 112.866 192.582 113.594C191.854 114.322 190.822 114.686 189.484 114.686C188.113 114.686 187.072 114.322 186.361 113.594C185.65 112.849 185.295 111.825 185.295 110.521ZM239.707 124.613H233.004V114H216.348V124.613H209.645V107.906H211.828C215.315 98.6471 217.549 88.3047 218.531 76.8789H235.492V107.906H239.707V124.613ZM228.586 107.906V82.9473H224.371C223.948 87.0605 223.262 91.3346 222.314 95.7695C221.383 100.188 220.283 104.233 219.014 107.906H228.586ZM261.365 114L259.232 104.631H249.559L247.426 114H240.52L249.711 76.7266H259.08L268.297 114H261.365ZM257.938 98.5117L255.957 89.8789C255.839 89.3542 255.568 88.0423 255.145 85.9434C254.738 83.8275 254.493 82.4141 254.408 81.7031C254.188 83.1589 253.909 84.7669 253.57 86.5273C253.232 88.2708 252.352 92.2656 250.93 98.5117H257.938ZM271.572 76.8789H281.043C284.902 76.8789 287.712 77.6322 289.473 79.1387C291.233 80.6283 292.113 83.0065 292.113 86.2734C292.113 88.4232 291.648 90.2259 290.717 91.6816C289.786 93.1204 288.516 93.9922 286.908 94.2969V94.5508C289.007 95.0755 290.522 96.0573 291.453 97.4961C292.384 98.9349 292.85 100.848 292.85 103.234C292.85 106.603 291.944 109.243 290.133 111.156C288.339 113.052 285.876 114 282.744 114H271.572V76.8789ZM278.072 91.8086H281.246C282.702 91.8086 283.726 91.4193 284.318 90.6406C284.911 89.862 285.207 88.7025 285.207 87.1621C285.207 85.6217 284.868 84.5215 284.191 83.8613C283.514 83.1842 282.448 82.8457 280.992 82.8457H278.072V91.8086ZM278.072 97.5723V107.957H281.551C282.99 107.957 284.056 107.517 284.75 106.637C285.461 105.757 285.816 104.394 285.816 102.549C285.816 99.2311 284.361 97.5723 281.449 97.5723H278.072ZM315.498 114L313.365 104.631H303.691L301.559 114H294.652L303.844 76.7266H313.213L322.43 114H315.498ZM312.07 98.5117L310.09 89.8789C309.971 89.3542 309.701 88.0423 309.277 85.9434C308.871 83.8275 308.626 82.4141 308.541 81.7031C308.321 83.1589 308.042 84.7669 307.703 86.5273C307.365 88.2708 306.484 92.2656 305.062 98.5117H312.07ZM325.705 76.8789H332.104V97.2676C332.104 99.3835 331.943 101.474 331.621 103.539H331.9L343.225 76.8789H351.705V114H345.357V93.6621C345.357 91.1569 345.552 88.9564 345.941 87.0605H345.611L334.236 114H325.705V76.8789ZM347.973 65.6816C347.634 68.5254 346.703 70.6074 345.18 71.9277C343.673 73.248 341.447 73.9082 338.502 73.9082C335.624 73.9082 333.466 73.265 332.027 71.9785C330.589 70.6751 329.734 68.5762 329.463 65.6816H335.074C335.26 67.3743 335.616 68.5169 336.141 69.1094C336.682 69.7018 337.52 69.998 338.654 69.998C339.771 69.998 340.601 69.6595 341.143 68.9824C341.701 68.3053 342.074 67.2051 342.26 65.6816H347.973ZM67.2031 176H60.3477V144.947H51.1816V176H44.2754V138.879H67.2031V176ZM99.3223 157.389C99.3223 163.533 98.1712 168.256 95.8691 171.557C93.5671 174.857 90.2747 176.508 85.9922 176.508C81.6927 176.508 78.3919 174.866 76.0898 171.582C73.7878 168.281 72.6367 163.533 72.6367 157.338C72.6367 151.193 73.7878 146.488 76.0898 143.221C78.3919 139.937 81.7096 138.295 86.043 138.295C90.3255 138.295 93.6094 139.945 95.8945 143.246C98.1797 146.53 99.3223 151.244 99.3223 157.389ZM79.6953 157.389C79.6953 161.62 80.2285 164.845 81.2949 167.062C82.3613 169.28 83.9271 170.389 85.9922 170.389C90.1562 170.389 92.2383 166.055 92.2383 157.389C92.2383 148.722 90.1732 144.389 86.043 144.389C83.944 144.389 82.3613 145.497 81.2949 147.715C80.2285 149.915 79.6953 153.14 79.6953 157.389ZM103.309 165.031V159.09H116.08V165.031H103.309ZM144.137 176H137.23V159.725H128.115V176H121.209V138.879H128.115V153.631H137.23V138.879H144.137V176ZM176.256 157.389C176.256 163.533 175.105 168.256 172.803 171.557C170.501 174.857 167.208 176.508 162.926 176.508C158.626 176.508 155.326 174.866 153.023 171.582C150.721 168.281 149.57 163.533 149.57 157.338C149.57 151.193 150.721 146.488 153.023 143.221C155.326 139.937 158.643 138.295 162.977 138.295C167.259 138.295 170.543 139.945 172.828 143.246C175.113 146.53 176.256 151.244 176.256 157.389ZM156.629 157.389C156.629 161.62 157.162 164.845 158.229 167.062C159.295 169.28 160.861 170.389 162.926 170.389C167.09 170.389 169.172 166.055 169.172 157.389C169.172 148.722 167.107 144.389 162.977 144.389C160.878 144.389 159.295 145.497 158.229 147.715C157.162 149.915 156.629 153.14 156.629 157.389ZM181.689 138.879H191.16C195.02 138.879 197.829 139.632 199.59 141.139C201.35 142.628 202.23 145.007 202.23 148.273C202.23 150.423 201.765 152.226 200.834 153.682C199.903 155.12 198.633 155.992 197.025 156.297V156.551C199.124 157.076 200.639 158.057 201.57 159.496C202.501 160.935 202.967 162.848 202.967 165.234C202.967 168.603 202.061 171.243 200.25 173.156C198.456 175.052 195.993 176 192.861 176H181.689V138.879ZM188.189 153.809H191.363C192.819 153.809 193.843 153.419 194.436 152.641C195.028 151.862 195.324 150.702 195.324 149.162C195.324 147.622 194.986 146.521 194.309 145.861C193.632 145.184 192.565 144.846 191.109 144.846H188.189V153.809ZM188.189 159.572V169.957H191.668C193.107 169.957 194.173 169.517 194.867 168.637C195.578 167.757 195.934 166.394 195.934 164.549C195.934 161.231 194.478 159.572 191.566 159.572H188.189ZM233.588 157.389C233.588 163.533 232.437 168.256 230.135 171.557C227.833 174.857 224.54 176.508 220.258 176.508C215.958 176.508 212.658 174.866 210.355 171.582C208.053 168.281 206.902 163.533 206.902 157.338C206.902 151.193 208.053 146.488 210.355 143.221C212.658 139.937 215.975 138.295 220.309 138.295C224.591 138.295 227.875 139.945 230.16 143.246C232.445 146.53 233.588 151.244 233.588 157.389ZM213.961 157.389C213.961 161.62 214.494 164.845 215.561 167.062C216.627 169.28 218.193 170.389 220.258 170.389C224.422 170.389 226.504 166.055 226.504 157.389C226.504 148.722 224.439 144.389 220.309 144.389C218.21 144.389 216.627 145.497 215.561 147.715C214.494 149.915 213.961 153.14 213.961 157.389ZM239.021 138.879H245.42V159.268C245.42 161.383 245.259 163.474 244.938 165.539H245.217L256.541 138.879H265.021V176H258.674V155.662C258.674 153.157 258.868 150.956 259.258 149.061H258.928L247.553 176H239.021V138.879ZM261.289 127.682C260.951 130.525 260.02 132.607 258.496 133.928C256.99 135.248 254.764 135.908 251.818 135.908C248.941 135.908 246.783 135.265 245.344 133.979C243.905 132.675 243.05 130.576 242.779 127.682H248.391C248.577 129.374 248.932 130.517 249.457 131.109C249.999 131.702 250.837 131.998 251.971 131.998C253.088 131.998 253.917 131.66 254.459 130.982C255.018 130.305 255.39 129.205 255.576 127.682H261.289ZM271.115 172.521C271.115 171.201 271.462 170.177 272.156 169.449C272.867 168.721 273.917 168.357 275.305 168.357C276.693 168.357 277.742 168.721 278.453 169.449C279.164 170.16 279.52 171.184 279.52 172.521C279.52 173.842 279.147 174.866 278.402 175.594C277.674 176.322 276.642 176.686 275.305 176.686C273.934 176.686 272.893 176.322 272.182 175.594C271.471 174.849 271.115 173.825 271.115 172.521Z" fill="white"/>
</svg>
