<svg width="970" height="250" viewBox="0 0 970 250" fill="none" xmlns="http://www.w3.org/2000/svg">
<path d="M71.3164 124.613H64.6133V114H47.957V124.613H41.2539V107.906H43.4375C46.9245 98.6471 49.1589 88.3047 50.1406 76.8789H67.1016V107.906H71.3164V124.613ZM60.1953 107.906V82.9473H55.9805C55.5573 87.0605 54.8717 91.3346 53.9238 95.7695C52.9928 100.188 51.8926 104.233 50.623 107.906H60.1953ZM77.5879 114.508C75.8105 114.508 74.321 114.271 73.1191 113.797V107.652C74.3548 108.143 75.6328 108.389 76.9531 108.389C78.9844 108.389 80.5501 106.501 81.6504 102.727L72.1289 76.8789H79.3652L84.0879 91.377C84.4772 92.7142 84.7227 93.8568 84.8242 94.8047H85.0273L85.3828 93.0781L85.7637 91.377L89.8008 76.8789H96.7832L88.5059 103.133C87.1855 107.28 85.6706 110.217 83.9609 111.943C82.2682 113.653 80.1439 114.508 77.5879 114.508ZM120.574 102.193C120.574 105.951 119.609 108.863 117.68 110.928C115.767 112.976 113.025 114 109.453 114H100.084V76.8789H117.705V82.8965H106.99V91.377H109.174C112.932 91.377 115.767 92.2826 117.68 94.0938C119.609 95.9049 120.574 98.6048 120.574 102.193ZM106.99 108.008H109.123C112.119 108.008 113.617 106.154 113.617 102.447C113.617 100.67 113.236 99.3919 112.475 98.6133C111.73 97.8177 110.46 97.4199 108.666 97.4199H106.99V108.008ZM142.994 114L140.861 104.631H131.188L129.055 114H122.148L131.34 76.7266H140.709L149.926 114H142.994ZM139.566 98.5117L137.586 89.8789C137.467 89.3542 137.197 88.0423 136.773 85.9434C136.367 83.8275 136.122 82.4141 136.037 81.7031C135.817 83.1589 135.538 84.7669 135.199 86.5273C134.861 88.2708 133.98 92.2656 132.559 98.5117H139.566ZM153.201 76.8789H159.6V97.2676C159.6 99.3835 159.439 101.474 159.117 103.539H159.396L170.721 76.8789H179.201V114H172.854V93.6621C172.854 91.1569 173.048 88.9564 173.438 87.0605H173.107L161.732 114H153.201V76.8789ZM175.469 65.6816C175.13 68.5254 174.199 70.6074 172.676 71.9277C171.169 73.248 168.943 73.9082 165.998 73.9082C163.12 73.9082 160.962 73.265 159.523 71.9785C158.085 70.6751 157.23 68.5762 156.959 65.6816H162.57C162.757 67.3743 163.112 68.5169 163.637 69.1094C164.178 69.7018 165.016 69.998 166.15 69.998C167.268 69.998 168.097 69.6595 168.639 68.9824C169.197 68.3053 169.57 67.2051 169.756 65.6816H175.469ZM185.295 110.521C185.295 109.201 185.642 108.177 186.336 107.449C187.047 106.721 188.096 106.357 189.484 106.357C190.872 106.357 191.922 106.721 192.633 107.449C193.344 108.16 193.699 109.184 193.699 110.521C193.699 111.842 193.327 112.866 192.582 113.594C191.854 114.322 190.822 114.686 189.484 114.686C188.113 114.686 187.072 114.322 186.361 113.594C185.65 112.849 185.295 111.825 185.295 110.521ZM239.707 124.613H233.004V114H216.348V124.613H209.645V107.906H211.828C215.315 98.6471 217.549 88.3047 218.531 76.8789H235.492V107.906H239.707V124.613ZM228.586 107.906V82.9473H224.371C223.948 87.0605 223.262 91.3346 222.314 95.7695C221.383 100.188 220.283 104.233 219.014 107.906H228.586ZM261.365 114L259.232 104.631H249.559L247.426 114H240.52L249.711 76.7266H259.08L268.297 114H261.365ZM257.938 98.5117L255.957 89.8789C255.839 89.3542 255.568 88.0423 255.145 85.9434C254.738 83.8275 254.493 82.4141 254.408 81.7031C254.188 83.1589 253.909 84.7669 253.57 86.5273C253.232 88.2708 252.352 92.2656 250.93 98.5117H257.938ZM271.572 76.8789H281.043C284.902 76.8789 287.712 77.6322 289.473 79.1387C291.233 80.6283 292.113 83.0065 292.113 86.2734C292.113 88.4232 291.648 90.2259 290.717 91.6816C289.786 93.1204 288.516 93.9922 286.908 94.2969V94.5508C289.007 95.0755 290.522 96.0573 291.453 97.4961C292.384 98.9349 292.85 100.848 292.85 103.234C292.85 106.603 291.944 109.243 290.133 111.156C288.339 113.052 285.876 114 282.744 114H271.572V76.8789ZM278.072 91.8086H281.246C282.702 91.8086 283.726 91.4193 284.318 90.6406C284.911 89.862 285.207 88.7025 285.207 87.1621C285.207 85.6217 284.868 84.5215 284.191 83.8613C283.514 83.1842 282.448 82.8457 280.992 82.8457H278.072V91.8086ZM278.072 97.5723V107.957H281.551C282.99 107.957 284.056 107.517 284.75 106.637C285.461 105.757 285.816 104.394 285.816 102.549C285.816 99.2311 284.361 97.5723 281.449 97.5723H278.072ZM315.498 114L313.365 104.631H303.691L301.559 114H294.652L303.844 76.7266H313.213L322.43 114H315.498ZM312.07 98.5117L310.09 89.8789C309.971 89.3542 309.701 88.0423 309.277 85.9434C308.871 83.8275 308.626 82.4141 308.541 81.7031C308.321 83.1589 308.042 84.7669 307.703 86.5273C307.365 88.2708 306.484 92.2656 305.062 98.5117H312.07ZM325.705 76.8789H332.104V97.2676C332.104 99.3835 331.943 101.474 331.621 103.539H331.9L343.225 76.8789H351.705V114H345.357V93.6621C345.357 91.1569 345.552 88.9564 345.941 87.0605H345.611L334.236 114H325.705V76.8789ZM347.973 65.6816C347.634 68.5254 346.703 70.6074 345.18 71.9277C343.673 73.248 341.447 73.9082 338.502 73.9082C335.624 73.9082 333.466 73.265 332.027 71.9785C330.589 70.6751 329.734 68.5762 329.463 65.6816H335.074C335.26 67.3743 335.616 68.5169 336.141 69.1094C336.682 69.7018 337.52 69.998 338.654 69.998C339.771 69.998 340.601 69.6595 341.143 68.9824C341.701 68.3053 342.074 67.2051 342.26 65.6816H347.973ZM67.2031 176H60.3477V144.947H51.1816V176H44.2754V138.879H67.2031V176ZM99.3223 157.389C99.3223 163.533 98.1712 168.256 95.8691 171.557C93.5671 174.857 90.2747 176.508 85.9922 176.508C81.6927 176.508 78.3919 174.866 76.0898 171.582C73.7878 168.281 72.6367 163.533 72.6367 157.338C72.6367 151.193 73.7878 146.488 76.0898 143.221C78.3919 139.937 81.7096 138.295 86.043 138.295C90.3255 138.295 93.6094 139.945 95.8945 143.246C98.1797 146.53 99.3223 151.244 99.3223 157.389ZM79.6953 157.389C79.6953 161.62 80.2285 164.845 81.2949 167.062C82.3613 169.28 83.9271 170.389 85.9922 170.389C90.1562 170.389 92.2383 166.055 92.2383 157.389C92.2383 148.722 90.1732 144.389 86.043 144.389C83.944 144.389 82.3613 145.497 81.2949 147.715C80.2285 149.915 79.6953 153.14 79.6953 157.389ZM140.531 176H133.625V159.725H124.51V176H117.604V138.879H124.51V153.631H133.625V138.879H140.531V176ZM172.65 157.389C172.65 163.533 171.499 168.256 169.197 171.557C166.895 174.857 163.603 176.508 159.32 176.508C155.021 176.508 151.72 174.866 149.418 171.582C147.116 168.281 145.965 163.533 145.965 157.338C145.965 151.193 147.116 146.488 149.418 143.221C151.72 139.937 155.038 138.295 159.371 138.295C163.654 138.295 166.938 139.945 169.223 143.246C171.508 146.53 172.65 151.244 172.65 157.389ZM153.023 157.389C153.023 161.62 153.557 164.845 154.623 167.062C155.689 169.28 157.255 170.389 159.32 170.389C163.484 170.389 165.566 166.055 165.566 157.389C165.566 148.722 163.501 144.389 159.371 144.389C157.272 144.389 155.689 145.497 154.623 147.715C153.557 149.915 153.023 153.14 153.023 157.389ZM178.084 138.879H187.555C191.414 138.879 194.224 139.632 195.984 141.139C197.745 142.628 198.625 145.007 198.625 148.273C198.625 150.423 198.16 152.226 197.229 153.682C196.298 155.12 195.028 155.992 193.42 156.297V156.551C195.519 157.076 197.034 158.057 197.965 159.496C198.896 160.935 199.361 162.848 199.361 165.234C199.361 168.603 198.456 171.243 196.645 173.156C194.85 175.052 192.387 176 189.256 176H178.084V138.879ZM184.584 153.809H187.758C189.214 153.809 190.238 153.419 190.83 152.641C191.423 151.862 191.719 150.702 191.719 149.162C191.719 147.622 191.38 146.521 190.703 145.861C190.026 145.184 188.96 144.846 187.504 144.846H184.584V153.809ZM184.584 159.572V169.957H188.062C189.501 169.957 190.568 169.517 191.262 168.637C191.973 167.757 192.328 166.394 192.328 164.549C192.328 161.231 190.872 159.572 187.961 159.572H184.584ZM229.982 157.389C229.982 163.533 228.831 168.256 226.529 171.557C224.227 174.857 220.935 176.508 216.652 176.508C212.353 176.508 209.052 174.866 206.75 171.582C204.448 168.281 203.297 163.533 203.297 157.338C203.297 151.193 204.448 146.488 206.75 143.221C209.052 139.937 212.37 138.295 216.703 138.295C220.986 138.295 224.27 139.945 226.555 143.246C228.84 146.53 229.982 151.244 229.982 157.389ZM210.355 157.389C210.355 161.62 210.889 164.845 211.955 167.062C213.021 169.28 214.587 170.389 216.652 170.389C220.816 170.389 222.898 166.055 222.898 157.389C222.898 148.722 220.833 144.389 216.703 144.389C214.604 144.389 213.021 145.497 211.955 147.715C210.889 149.915 210.355 153.14 210.355 157.389ZM235.416 138.879H241.814V159.268C241.814 161.383 241.654 163.474 241.332 165.539H241.611L252.936 138.879H261.416V176H255.068V155.662C255.068 153.157 255.263 150.956 255.652 149.061H255.322L243.947 176H235.416V138.879ZM257.684 127.682C257.345 130.525 256.414 132.607 254.891 133.928C253.384 135.248 251.158 135.908 248.213 135.908C245.335 135.908 243.177 135.265 241.738 133.979C240.299 132.675 239.445 130.576 239.174 127.682H244.785C244.971 129.374 245.327 130.517 245.852 131.109C246.393 131.702 247.231 131.998 248.365 131.998C249.482 131.998 250.312 131.66 250.854 130.982C251.412 130.305 251.785 129.205 251.971 127.682H257.684ZM267.51 172.521C267.51 171.201 267.857 170.177 268.551 169.449C269.262 168.721 270.311 168.357 271.699 168.357C273.087 168.357 274.137 168.721 274.848 169.449C275.559 170.16 275.914 171.184 275.914 172.521C275.914 173.842 275.542 174.866 274.797 175.594C274.069 176.322 273.036 176.686 271.699 176.686C270.328 176.686 269.287 176.322 268.576 175.594C267.865 174.849 267.51 173.825 267.51 172.521Z" fill="white"/>
</svg>
