<svg width="728" height="90" viewBox="0 0 728 90" fill="none" xmlns="http://www.w3.org/2000/svg">
<path d="M37.2393 44.7354H32.9854V38H22.415V44.7354H18.1611V34.1328H19.5469C21.7598 28.2568 23.1777 21.6934 23.8008 14.4424H34.5645V34.1328H37.2393V44.7354ZM30.1816 34.1328V18.2935H27.5068C27.2383 20.9038 26.8032 23.6162 26.2017 26.4307C25.6108 29.2344 24.9126 31.8018 24.1069 34.1328H30.1816ZM41.2192 38.3223C40.0913 38.3223 39.146 38.1719 38.3833 37.8711V33.9717C39.1675 34.2832 39.9785 34.439 40.8164 34.439C42.1055 34.439 43.0991 33.2412 43.7974 30.8457L37.7549 14.4424H42.3472L45.3442 23.6431C45.5913 24.4917 45.7471 25.2168 45.8115 25.8184H45.9404L46.166 24.7227L46.4077 23.6431L48.9697 14.4424H53.4009L48.1479 31.1035C47.3101 33.7354 46.3486 35.5991 45.2637 36.6948C44.1895 37.7798 42.8413 38.3223 41.2192 38.3223ZM68.499 30.5073C68.499 32.8921 67.8867 34.7397 66.6621 36.0503C65.4482 37.3501 63.708 38 61.4414 38H55.4956V14.4424H66.6782V18.2612H59.8784V23.6431H61.2642C63.6489 23.6431 65.4482 24.2178 66.6621 25.3672C67.8867 26.5166 68.499 28.23 68.499 30.5073ZM59.8784 34.1973H61.2319C63.1333 34.1973 64.084 33.021 64.084 30.6685C64.084 29.5405 63.8423 28.7295 63.3589 28.2354C62.8862 27.7305 62.0806 27.478 60.9419 27.478H59.8784V34.1973ZM82.7271 38L81.3735 32.0542H75.2344L73.8809 38H69.498L75.3311 14.3457H81.2769L87.126 38H82.7271ZM80.5518 28.1709L79.2949 22.6924C79.2197 22.3594 79.0479 21.5269 78.7793 20.1948C78.5215 18.8521 78.3657 17.9551 78.312 17.5039C78.1724 18.4277 77.9951 19.4482 77.7803 20.5654C77.5654 21.6719 77.0068 24.207 76.1045 28.1709H80.5518ZM89.2046 14.4424H93.2651V27.3813C93.2651 28.7241 93.1631 30.0508 92.959 31.3613H93.1362L100.323 14.4424H105.705V38H101.676V25.0933C101.676 23.5034 101.8 22.1069 102.047 20.9038H101.837L94.6187 38H89.2046V14.4424ZM103.336 7.33643C103.121 9.14111 102.53 10.4624 101.563 11.3003C100.607 12.1382 99.1948 12.5571 97.3257 12.5571C95.4995 12.5571 94.1299 12.1489 93.2168 11.3325C92.3037 10.5054 91.7612 9.17334 91.5894 7.33643H95.1504C95.2686 8.41064 95.4941 9.13574 95.8271 9.51172C96.1709 9.8877 96.7026 10.0757 97.4224 10.0757C98.1313 10.0757 98.6577 9.86084 99.0015 9.43115C99.356 9.00146 99.5923 8.30322 99.7104 7.33643H103.336ZM109.572 35.7925C109.572 34.9546 109.792 34.3047 110.232 33.8428C110.684 33.3809 111.35 33.1499 112.23 33.1499C113.111 33.1499 113.777 33.3809 114.229 33.8428C114.68 34.2939 114.905 34.9438 114.905 35.7925C114.905 36.6304 114.669 37.2803 114.196 37.7422C113.734 38.2041 113.079 38.4351 112.23 38.4351C111.36 38.4351 110.7 38.2041 110.249 37.7422C109.797 37.2695 109.572 36.6196 109.572 35.7925ZM144.103 44.7354H139.849V38H129.278V44.7354H125.024V34.1328H126.41C128.623 28.2568 130.041 21.6934 130.664 14.4424H141.428V34.1328H144.103V44.7354ZM137.045 34.1328V18.2935H134.37C134.102 20.9038 133.667 23.6162 133.065 26.4307C132.474 29.2344 131.776 31.8018 130.97 34.1328H137.045ZM157.847 38L156.494 32.0542H150.354L149.001 38H144.618L150.451 14.3457H156.397L162.246 38H157.847ZM155.672 28.1709L154.415 22.6924C154.34 22.3594 154.168 21.5269 153.899 20.1948C153.642 18.8521 153.486 17.9551 153.432 17.5039C153.292 18.4277 153.115 19.4482 152.9 20.5654C152.686 21.6719 152.127 24.207 151.225 28.1709H155.672ZM164.325 14.4424H170.335C172.784 14.4424 174.567 14.9204 175.685 15.8765C176.802 16.8218 177.36 18.3311 177.36 20.4043C177.36 21.7686 177.065 22.9126 176.474 23.8364C175.883 24.7495 175.078 25.3027 174.057 25.4961V25.6572C175.389 25.9902 176.351 26.6133 176.941 27.5264C177.532 28.4395 177.828 29.6533 177.828 31.168C177.828 33.3057 177.253 34.9814 176.104 36.1953C174.965 37.3984 173.402 38 171.415 38H164.325V14.4424ZM168.45 23.917H170.464C171.388 23.917 172.038 23.6699 172.414 23.1758C172.79 22.6816 172.978 21.9458 172.978 20.9683C172.978 19.9907 172.763 19.2925 172.333 18.8735C171.903 18.4438 171.227 18.229 170.303 18.229H168.45V23.917ZM168.45 27.5747V34.165H170.657C171.57 34.165 172.247 33.8857 172.688 33.3271C173.139 32.7686 173.364 31.9038 173.364 30.7329C173.364 28.6274 172.44 27.5747 170.593 27.5747H168.45ZM192.201 38L190.847 32.0542H184.708L183.354 38H178.972L184.805 14.3457H190.75L196.6 38H192.201ZM190.025 28.1709L188.769 22.6924C188.693 22.3594 188.521 21.5269 188.253 20.1948C187.995 18.8521 187.839 17.9551 187.786 17.5039C187.646 18.4277 187.469 19.4482 187.254 20.5654C187.039 21.6719 186.48 24.207 185.578 28.1709H190.025ZM198.678 14.4424H202.739V27.3813C202.739 28.7241 202.637 30.0508 202.433 31.3613H202.61L209.796 14.4424H215.178V38H211.15V25.0933C211.15 23.5034 211.273 22.1069 211.521 20.9038H211.311L204.092 38H198.678V14.4424ZM212.81 7.33643C212.595 9.14111 212.004 10.4624 211.037 11.3003C210.081 12.1382 208.668 12.5571 206.799 12.5571C204.973 12.5571 203.604 12.1489 202.69 11.3325C201.777 10.5054 201.235 9.17334 201.063 7.33643H204.624C204.742 8.41064 204.968 9.13574 205.301 9.51172C205.645 9.8877 206.176 10.0757 206.896 10.0757C207.605 10.0757 208.131 9.86084 208.475 9.43115C208.83 9.00146 209.066 8.30322 209.184 7.33643H212.81ZM34.6289 78H30.2783V58.2935H24.4614V78H20.0786V54.4424H34.6289V78ZM55.0122 66.189C55.0122 70.0884 54.2817 73.0854 52.8208 75.1802C51.3599 77.2749 49.2705 78.3223 46.5527 78.3223C43.8242 78.3223 41.7295 77.2803 40.2686 75.1963C38.8076 73.1016 38.0771 70.0884 38.0771 66.1567C38.0771 62.2573 38.8076 59.271 40.2686 57.1978C41.7295 55.1138 43.835 54.0718 46.585 54.0718C49.3027 54.0718 51.3867 55.1191 52.8369 57.2139C54.2871 59.2979 55.0122 62.2896 55.0122 66.189ZM42.5566 66.189C42.5566 68.8745 42.895 70.9209 43.5718 72.3281C44.2485 73.7354 45.2422 74.439 46.5527 74.439C49.1953 74.439 50.5166 71.689 50.5166 66.189C50.5166 60.689 49.2061 57.939 46.585 57.939C45.2529 57.939 44.2485 58.6426 43.5718 60.0498C42.895 61.4463 42.5566 63.4927 42.5566 66.189ZM57.542 71.0391V67.2686H65.647V71.0391H57.542ZM83.4521 78H79.0693V67.6714H73.2847V78H68.9019V54.4424H73.2847V63.8042H79.0693V54.4424H83.4521V78ZM103.835 66.189C103.835 70.0884 103.105 73.0854 101.644 75.1802C100.183 77.2749 98.0938 78.3223 95.376 78.3223C92.6475 78.3223 90.5527 77.2803 89.0918 75.1963C87.6309 73.1016 86.9004 70.0884 86.9004 66.1567C86.9004 62.2573 87.6309 59.271 89.0918 57.1978C90.5527 55.1138 92.6582 54.0718 95.4082 54.0718C98.126 54.0718 100.21 55.1191 101.66 57.2139C103.11 59.2979 103.835 62.2896 103.835 66.189ZM91.3799 66.189C91.3799 68.8745 91.7183 70.9209 92.395 72.3281C93.0718 73.7354 94.0654 74.439 95.376 74.439C98.0186 74.439 99.3398 71.689 99.3398 66.189C99.3398 60.689 98.0293 57.939 95.4082 57.939C94.0762 57.939 93.0718 58.6426 92.395 60.0498C91.7183 61.4463 91.3799 63.4927 91.3799 66.189ZM107.284 54.4424H113.294C115.743 54.4424 117.526 54.9204 118.644 55.8765C119.761 56.8218 120.319 58.3311 120.319 60.4043C120.319 61.7686 120.024 62.9126 119.433 63.8364C118.842 64.7495 118.037 65.3027 117.016 65.4961V65.6572C118.348 65.9902 119.31 66.6133 119.9 67.5264C120.491 68.4395 120.787 69.6533 120.787 71.168C120.787 73.3057 120.212 74.9814 119.062 76.1953C117.924 77.3984 116.361 78 114.374 78H107.284V54.4424ZM111.409 63.917H113.423C114.347 63.917 114.997 63.6699 115.373 63.1758C115.749 62.6816 115.937 61.9458 115.937 60.9683C115.937 59.9907 115.722 59.2925 115.292 58.8735C114.862 58.4438 114.186 58.229 113.262 58.229H111.409V63.917ZM111.409 67.5747V74.165H113.616C114.529 74.165 115.206 73.8857 115.646 73.3271C116.098 72.7686 116.323 71.9038 116.323 70.7329C116.323 68.6274 115.399 67.5747 113.552 67.5747H111.409ZM140.219 66.189C140.219 70.0884 139.489 73.0854 138.028 75.1802C136.567 77.2749 134.478 78.3223 131.76 78.3223C129.031 78.3223 126.937 77.2803 125.476 75.1963C124.015 73.1016 123.284 70.0884 123.284 66.1567C123.284 62.2573 124.015 59.271 125.476 57.1978C126.937 55.1138 129.042 54.0718 131.792 54.0718C134.51 54.0718 136.594 55.1191 138.044 57.2139C139.494 59.2979 140.219 62.2896 140.219 66.189ZM127.764 66.189C127.764 68.8745 128.102 70.9209 128.779 72.3281C129.456 73.7354 130.449 74.439 131.76 74.439C134.402 74.439 135.724 71.689 135.724 66.189C135.724 60.689 134.413 57.939 131.792 57.939C130.46 57.939 129.456 58.6426 128.779 60.0498C128.102 61.4463 127.764 63.4927 127.764 66.189ZM143.667 54.4424H147.728V67.3813C147.728 68.7241 147.626 70.0508 147.422 71.3613H147.599L154.786 54.4424H160.167V78H156.139V65.0933C156.139 63.5034 156.263 62.1069 156.51 60.9038H156.3L149.082 78H143.667V54.4424ZM157.799 47.3364C157.584 49.1411 156.993 50.4624 156.026 51.3003C155.07 52.1382 153.658 52.5571 151.789 52.5571C149.962 52.5571 148.593 52.1489 147.68 51.3325C146.767 50.5054 146.224 49.1733 146.052 47.3364H149.613C149.731 48.4106 149.957 49.1357 150.29 49.5117C150.634 49.8877 151.166 50.0757 151.885 50.0757C152.594 50.0757 153.121 49.8608 153.464 49.4312C153.819 49.0015 154.055 48.3032 154.173 47.3364H157.799ZM164.035 75.7925C164.035 74.9546 164.255 74.3047 164.695 73.8428C165.146 73.3809 165.812 73.1499 166.693 73.1499C167.574 73.1499 168.24 73.3809 168.691 73.8428C169.143 74.2939 169.368 74.9438 169.368 75.7925C169.368 76.6304 169.132 77.2803 168.659 77.7422C168.197 78.2041 167.542 78.4351 166.693 78.4351C165.823 78.4351 165.163 78.2041 164.711 77.7422C164.26 77.2695 164.035 76.6196 164.035 75.7925Z" fill="white"/>
</svg>
