<svg width="250" height="250" viewBox="0 0 250 250" fill="none" xmlns="http://www.w3.org/2000/svg">
<path d="M17 205H124.153C129.039 205 133 208.961 133 213.847V229.305H25.8475C20.9611 229.305 17 225.344 17 220.457V205Z" fill="white"/>
<path d="M23.9133 222.833C23.4082 222.833 22.985 222.766 22.6434 222.631V220.885C22.9946 221.024 23.3577 221.094 23.7329 221.094C24.3101 221.094 24.7551 220.558 25.0677 219.485L22.362 212.14H24.4184L25.7604 216.26C25.871 216.64 25.9408 216.965 25.9696 217.234H26.0274L26.1284 216.743L26.2366 216.26L27.3838 212.14H29.368L27.0158 219.601C26.6406 220.779 26.2101 221.614 25.7243 222.104C25.2433 222.59 24.6396 222.833 23.9133 222.833ZM35.7751 214.637C35.7751 215.291 35.5803 215.834 35.1906 216.267C34.8058 216.695 34.2503 216.984 33.5239 217.133V217.191C34.3128 217.287 34.9237 217.552 35.3566 217.984C35.7943 218.413 36.0132 218.985 36.0132 219.702C36.0132 220.673 35.7005 221.438 35.0752 221.996C34.4547 222.554 33.6081 222.833 32.5355 222.833C31.4003 222.833 30.5152 222.667 29.8803 222.335V220.618C30.5922 221.012 31.3498 221.21 32.153 221.21C33.4133 221.21 34.0434 220.659 34.0434 219.557C34.0434 219.057 33.8606 218.677 33.4951 218.417C33.1343 218.153 32.598 218.02 31.8861 218.02H31.179V216.412H31.8139C32.5114 216.412 33.0261 216.291 33.358 216.051C33.6899 215.805 33.8558 215.428 33.8558 214.918C33.8558 214.509 33.7452 214.196 33.5239 213.98C33.3027 213.759 32.9828 213.648 32.5643 213.648C31.9246 213.648 31.3185 213.908 30.7461 214.427L29.8153 213.114C30.2915 212.705 30.7749 212.417 31.2656 212.248C31.7562 212.075 32.3022 211.989 32.9034 211.989C33.7741 211.989 34.4691 212.232 34.9886 212.717C35.5129 213.198 35.7751 213.838 35.7751 214.637ZM43.9787 222.689H42.0162V218.064H39.426V222.689H37.4634V212.14H39.426V216.332H42.0162V212.14H43.9787V222.689ZM50.8404 222.689L50.2343 220.026H47.4853L46.8792 222.689H44.9167L47.5286 212.097H50.191L52.8101 222.689H50.8404ZM49.8663 218.287L49.3035 215.834C49.2699 215.685 49.1929 215.312 49.0727 214.716C48.9572 214.115 48.8875 213.713 48.8634 213.511C48.8009 213.925 48.7215 214.382 48.6253 214.882C48.5291 215.377 48.279 216.513 47.8749 218.287H49.8663ZM53.7409 212.14H55.5591V217.934C55.5591 218.535 55.5134 219.129 55.422 219.716H55.5014L58.7194 212.14H61.1292V222.689H59.3254V216.909C59.3254 216.197 59.3807 215.572 59.4914 215.033H59.3976L56.1652 222.689H53.7409V212.14ZM60.0686 208.958C59.9724 209.766 59.7078 210.358 59.2749 210.733C58.8468 211.108 58.2143 211.296 57.3773 211.296C56.5596 211.296 55.9463 211.113 55.5375 210.748C55.1286 210.377 54.8857 209.781 54.8087 208.958H56.4033C56.4562 209.439 56.5572 209.764 56.7063 209.932C56.8602 210.101 57.0983 210.185 57.4206 210.185C57.7381 210.185 57.9738 210.089 58.1277 209.896C58.2864 209.704 58.3923 209.391 58.4452 208.958H60.0686ZM66.2304 222.689H64.275V213.865H62.2548V212.14H68.2506V213.865H66.2304V222.689ZM74.1382 222.689H69.3834V212.14H74.1382V213.836H71.3459V216.347H73.9362V218.049H71.3459V220.972H74.1382V222.689ZM85.1486 219.334C85.1486 220.402 84.8744 221.229 84.326 221.816C83.7825 222.398 83.0033 222.689 81.9883 222.689H79.3259V212.14H84.3333V213.85H81.2884V216.26H81.909C82.9768 216.26 83.7825 216.517 84.326 217.032C84.8744 217.547 85.1486 218.314 85.1486 219.334ZM81.2884 220.986H81.8945C82.7459 220.986 83.1716 220.459 83.1716 219.406C83.1716 218.901 83.0634 218.538 82.8469 218.316C82.6353 218.09 82.2745 217.977 81.7646 217.977H81.2884V220.986ZM93.7851 217.4C93.7851 219.146 93.4581 220.488 92.8039 221.426C92.1497 222.364 91.2141 222.833 89.9972 222.833C88.7754 222.833 87.8374 222.366 87.1832 221.433C86.5291 220.495 86.202 219.146 86.202 217.386C86.202 215.639 86.5291 214.302 87.1832 213.374C87.8374 212.441 88.7802 211.974 90.0116 211.974C91.2286 211.974 92.1617 212.443 92.8111 213.381C93.4605 214.314 93.7851 215.654 93.7851 217.4ZM88.2078 217.4C88.2078 218.603 88.3593 219.519 88.6624 220.149C88.9654 220.779 89.4103 221.094 89.9972 221.094C91.1805 221.094 91.7721 219.863 91.7721 217.4C91.7721 214.937 91.1853 213.706 90.0116 213.706C89.4151 213.706 88.9654 214.021 88.6624 214.651C88.3593 215.276 88.2078 216.193 88.2078 217.4ZM101.844 222.689H99.882V213.865H98.3018C98.0854 216.298 97.8689 218.309 97.6525 219.896C97.5082 220.911 97.246 221.655 96.866 222.126C96.4908 222.597 95.9882 222.833 95.358 222.833C94.9684 222.833 94.6486 222.78 94.3984 222.674V221.051C94.5427 221.109 94.7207 221.137 94.9324 221.137C95.2017 221.137 95.4062 220.926 95.5456 220.503C95.6899 220.079 95.8511 219.129 96.0291 217.653C96.2118 216.176 96.4018 214.338 96.5991 212.14H101.844V222.689ZM109.464 219.334C109.464 220.397 109.182 221.222 108.62 221.808C108.057 222.395 107.258 222.689 106.224 222.689H103.713V212.14H105.676V216.26H106.181C108.369 216.26 109.464 217.285 109.464 219.334ZM105.676 220.986H106.166C107.042 220.986 107.48 220.459 107.48 219.406C107.48 218.896 107.371 218.53 107.155 218.309C106.943 218.088 106.58 217.977 106.065 217.977H105.676V220.986ZM117.004 220.957H119.284V212.14H121.246V222.689H110.813V212.14H112.775V220.957H115.055V212.14H117.004V220.957ZM127.862 222.689H123.108V212.14H127.862V213.836H125.07V216.347H127.66V218.049H125.07V220.972H127.862V222.689Z" fill="#0090D7"/>
</svg>
