<svg width="300" height="50" viewBox="0 0 300 50" fill="none" xmlns="http://www.w3.org/2000/svg">
<g clip-path="url(#clip0_4016_2881)">
<path d="M234.708 15H227V34.1709H234.708C235.729 34.1787 236.711 33.7845 237.44 33.0747C238.168 32.3648 238.584 31.3972 238.596 30.3836V18.8459C238.596 17.8272 238.189 16.8501 237.464 16.129C236.739 15.408 235.756 15.0019 234.73 15M230.85 30.3836V18.8459H232.79C233.043 18.8449 233.292 18.8935 233.526 18.9889C233.759 19.0843 233.97 19.2245 234.149 19.4016C234.327 19.5786 234.468 19.789 234.564 20.0205C234.66 20.252 234.709 20.5001 234.708 20.7505V28.4496C234.711 28.7026 234.664 28.9535 234.568 29.1881C234.473 29.4226 234.331 29.636 234.152 29.8158C233.973 29.9957 233.76 30.1385 233.525 30.2359C233.29 30.3334 233.038 30.3836 232.783 30.3836H230.85Z" fill="white"/>
<path d="M281.157 16.9193C281.155 16.4147 281.354 15.9298 281.711 15.5703C282.067 15.2108 282.552 15.0058 283.06 15H285V32.2956C285 32.8033 284.798 33.2904 284.437 33.6501C284.076 34.0098 283.586 34.2129 283.075 34.2148H281.157V16.9193Z" fill="white"/>
<path d="M264.619 25.4535C263.731 26.3343 262.612 26.9487 261.388 27.2263C261.586 27.4637 261.723 27.7447 261.788 28.0457C261.853 28.3468 261.844 28.6589 261.762 28.9558C261.68 29.2528 261.527 29.5258 261.317 29.7518C261.106 29.9778 260.844 30.1502 260.553 30.2545C260.261 30.3588 259.948 30.3918 259.641 30.3508C259.334 30.3099 259.041 30.1961 258.787 30.0191C258.534 29.8421 258.327 29.6072 258.183 29.334C258.041 29.0609 257.966 28.7575 257.966 28.4497V27.3875H254.063V32.2956C254.079 32.7983 254.291 33.2752 254.654 33.6253C255.018 33.9754 255.504 34.1711 256.011 34.1709H259.869C260.915 34.172 261.942 33.8923 262.842 33.3612C263.741 32.8302 264.479 32.0676 264.978 31.1542C265.477 30.2407 265.718 29.2103 265.675 28.172C265.633 27.1337 265.309 26.1261 264.737 25.2557L264.589 25.4023" fill="white"/>
<path d="M257.936 20.7652C257.936 20.4069 258.035 20.0555 258.224 19.7503C258.413 19.445 258.684 19.1979 259.006 19.0364V15H254.063V21.8201H257.929L257.936 20.7652Z" fill="white"/>
<path d="M244.393 22.5893V15H242.49C241.979 14.9981 241.488 15.1974 241.124 15.5544C240.761 15.9114 240.554 16.3969 240.55 16.9046V21.8347H242.49C243.206 21.8176 243.9 22.0807 244.423 22.5673" fill="white"/>
<path d="M252.139 21.8201V16.9193C252.135 16.4102 251.929 15.9231 251.566 15.5638C251.203 15.2045 250.711 15.0019 250.199 15H248.266V22.5893C248.791 22.106 249.483 21.8434 250.199 21.8567L252.139 21.8201Z" fill="white"/>
<path d="M267.644 34.1708H269.569C269.823 34.1717 270.075 34.1228 270.311 34.0267C270.546 33.9307 270.76 33.7895 270.94 33.6112C271.12 33.4329 271.263 33.221 271.361 32.9877C271.459 32.7543 271.509 32.5041 271.509 32.2515V27.3873H267.644V34.1708Z" fill="white"/>
<path d="M271.479 21.8201V16.9193C271.479 16.2044 271.756 15.5169 272.254 15H271.479C270.459 15.0097 269.483 15.4191 268.765 16.1393C268.046 16.8595 267.644 17.8322 267.644 18.8459V22.5893C268.166 22.1072 268.856 21.8446 269.569 21.8567L271.479 21.8201Z" fill="white"/>
<path d="M275.411 27.3874H275.352V32.2955C275.352 32.8052 275.556 33.2942 275.918 33.6553C276.28 34.0164 276.771 34.2202 277.285 34.2221H279.217V25.4315C278.792 26.0461 278.224 26.5504 277.562 26.9022C276.899 27.2539 276.162 27.4429 275.411 27.4533" fill="white"/>
<path d="M259.869 15V18.8459C260.368 18.8476 260.848 19.0404 261.208 19.3842C261.567 19.728 261.78 20.1964 261.801 20.6918C261.822 21.1872 261.649 21.6716 261.32 22.0441C260.99 22.4167 260.529 22.6486 260.031 22.6918H250.199C249.945 22.6908 249.694 22.7396 249.46 22.8352C249.225 22.9309 249.012 23.0715 248.833 23.2492C248.653 23.4268 248.511 23.6379 248.413 23.8704C248.316 24.1028 248.266 24.352 248.266 24.6038V30.3836H246.304C245.791 30.3836 245.3 30.1814 244.937 29.8214C244.575 29.4615 244.371 28.9733 244.371 28.4643V24.6038C244.371 24.0966 244.169 23.6103 243.808 23.2518C243.446 22.8932 242.957 22.6918 242.446 22.6918H240.521V30.3836C240.533 31.3959 240.946 32.3629 241.671 33.0747C242.396 33.7864 243.374 34.1856 244.394 34.1855H248.266C249.293 34.1855 250.278 33.7804 251.004 33.0591C251.731 32.3378 252.139 31.3596 252.139 30.3396V26.4937H259.869C261.316 26.3963 262.673 25.7655 263.676 24.7252C264.678 23.6848 265.253 22.31 265.287 20.8705C265.321 19.4311 264.812 18.0309 263.86 16.9448C262.908 15.8587 261.582 15.165 260.142 15H259.869Z" fill="white"/>
<path d="M258.821 27.3582V28.4204C258.821 28.6885 258.929 28.9456 259.119 29.1352C259.31 29.3248 259.569 29.4313 259.839 29.4313C260.117 29.4355 260.387 29.3326 260.59 29.1441C260.794 28.9557 260.916 28.6963 260.931 28.4204C260.945 28.1534 260.852 27.8917 260.672 27.6926C260.493 27.4936 260.241 27.3733 259.972 27.3582H258.821Z" fill="white"/>
<path d="M246.643 34.9619V35.9655C246.642 36.1661 246.7 36.3625 246.812 36.5299C246.923 36.6973 247.082 36.828 247.268 36.9054C247.454 36.9828 247.66 37.0034 247.858 36.9647C248.056 36.9259 248.238 36.8295 248.381 36.6877C248.524 36.5459 248.621 36.365 248.66 36.1682C248.699 35.9715 248.678 35.7676 248.6 35.5826C248.522 35.3976 248.39 35.2398 248.222 35.1293C248.053 35.0187 247.856 34.9605 247.654 34.9619H246.643Z" fill="white"/>
<path d="M243.781 34.9619V35.9655C243.78 36.1658 243.838 36.362 243.949 36.5291C244.06 36.6963 244.219 36.8271 244.404 36.9047C244.59 36.9823 244.795 37.0034 244.993 36.9653C245.191 36.927 245.373 36.8314 245.516 36.6903C245.659 36.5492 245.757 36.3691 245.797 36.1728C245.837 35.9765 245.817 35.7728 245.74 35.5877C245.664 35.4026 245.533 35.2442 245.365 35.1328C245.198 35.0214 245.001 34.962 244.799 34.9619H243.781Z" fill="white"/>
<path d="M267.644 24.6038C267.644 24.0966 267.846 23.6103 268.207 23.2518C268.568 22.8932 269.058 22.6918 269.569 22.6918H273.471C273.985 22.7287 274.492 22.5615 274.881 22.227C275.27 21.8925 275.51 21.418 275.547 20.908C275.584 20.398 275.416 19.8943 275.079 19.5075C274.742 19.1208 274.265 18.8828 273.751 18.8459H272.423V16.9193C272.423 16.4227 272.616 15.9453 272.963 15.5874C273.31 15.2295 273.783 15.019 274.282 15H275.352C276.376 15 277.357 15.4034 278.082 16.1217C278.807 16.84 279.215 17.8145 279.217 18.8312V22.6918C279.215 23.7093 278.807 24.6845 278.083 25.4039C277.358 26.1234 276.376 26.5284 275.352 26.5304H267.644V24.6038Z" fill="white"/>
</g>
<defs>
<clipPath id="clip0_4016_2881">
<rect width="58" height="22" fill="white" transform="translate(227 15)"/>
</clipPath>
</defs>
</svg>
