<svg width="300" height="250" viewBox="0 0 300 250" fill="none" xmlns="http://www.w3.org/2000/svg">
<path d="M33.3242 49.7148H29.7148V44H20.7461V49.7148H17.1367V40.7188H18.3125C20.1901 35.7331 21.3932 30.1641 21.9219 24.0117H31.0547V40.7188H33.3242V49.7148ZM27.3359 40.7188V27.2793H25.0664C24.8385 29.4941 24.4694 31.7956 23.959 34.1836C23.4577 36.5625 22.8652 38.7409 22.1816 40.7188H27.3359ZM36.7012 44.2734C35.7441 44.2734 34.9421 44.1458 34.2949 43.8906V40.582C34.9603 40.8464 35.6484 40.9785 36.3594 40.9785C37.4531 40.9785 38.2962 39.9622 38.8887 37.9297L33.7617 24.0117H37.6582L40.2012 31.8184C40.4108 32.5384 40.543 33.1536 40.5977 33.6641H40.707L40.8984 32.7344L41.1035 31.8184L43.2773 24.0117H47.0371L42.5801 38.1484C41.8691 40.3815 41.0534 41.9629 40.1328 42.8926C39.2214 43.8132 38.0775 44.2734 36.7012 44.2734ZM59.8477 37.6426C59.8477 39.666 59.3281 41.2337 58.2891 42.3457C57.2591 43.4486 55.7826 44 53.8594 44H48.8145V24.0117H58.3027V27.252H52.5332V31.8184H53.709C55.7324 31.8184 57.2591 32.306 58.2891 33.2812C59.3281 34.2565 59.8477 35.7103 59.8477 37.6426ZM52.5332 40.7734H53.6816C55.2949 40.7734 56.1016 39.7754 56.1016 37.7793C56.1016 36.8223 55.8965 36.1341 55.4863 35.7148C55.0853 35.2865 54.4017 35.0723 53.4355 35.0723H52.5332V40.7734ZM71.9199 44L70.7715 38.9551H65.5625L64.4141 44H60.6953L65.6445 23.9297H70.6895L75.6523 44H71.9199ZM70.0742 35.6602L69.0078 31.0117C68.944 30.7292 68.7982 30.0228 68.5703 28.8926C68.3516 27.7533 68.2194 26.9922 68.1738 26.6094C68.0553 27.3932 67.9049 28.2591 67.7227 29.207C67.5404 30.1458 67.0664 32.2969 66.3008 35.6602H70.0742ZM77.416 24.0117H80.8613V34.9902C80.8613 36.1296 80.7747 37.2552 80.6016 38.3672H80.752L86.8496 24.0117H91.416V44H87.998V33.0488C87.998 31.6999 88.1029 30.515 88.3125 29.4941H88.1348L82.0098 44H77.416V24.0117ZM89.4062 17.9824C89.224 19.5137 88.7227 20.6348 87.9023 21.3457C87.0911 22.0566 85.8926 22.4121 84.3066 22.4121C82.7572 22.4121 81.5951 22.0658 80.8203 21.373C80.0456 20.6712 79.5853 19.541 79.4395 17.9824H82.4609C82.5612 18.8939 82.7526 19.5091 83.0352 19.8281C83.3268 20.1471 83.778 20.3066 84.3887 20.3066C84.9902 20.3066 85.4368 20.1243 85.7285 19.7598C86.0293 19.3952 86.2298 18.8027 86.3301 17.9824H89.4062ZM94.6973 42.127C94.6973 41.416 94.8841 40.8646 95.2578 40.4727C95.6406 40.0807 96.2057 39.8848 96.9531 39.8848C97.7005 39.8848 98.2656 40.0807 98.6484 40.4727C99.0312 40.8555 99.2227 41.4069 99.2227 42.127C99.2227 42.8379 99.0221 43.3893 98.6211 43.7812C98.2292 44.1732 97.6732 44.3691 96.9531 44.3691C96.2148 44.3691 95.6543 44.1732 95.2715 43.7812C94.8887 43.3802 94.6973 42.8288 94.6973 42.127ZM123.996 49.7148H120.387V44H111.418V49.7148H107.809V40.7188H108.984C110.862 35.7331 112.065 30.1641 112.594 24.0117H121.727V40.7188H123.996V49.7148ZM118.008 40.7188V27.2793H115.738C115.51 29.4941 115.141 31.7956 114.631 34.1836C114.13 36.5625 113.537 38.7409 112.854 40.7188H118.008ZM135.658 44L134.51 38.9551H129.301L128.152 44H124.434L129.383 23.9297H134.428L139.391 44H135.658ZM133.812 35.6602L132.746 31.0117C132.682 30.7292 132.536 30.0228 132.309 28.8926C132.09 27.7533 131.958 26.9922 131.912 26.6094C131.794 27.3932 131.643 28.2591 131.461 29.207C131.279 30.1458 130.805 32.2969 130.039 35.6602H133.812ZM141.154 24.0117H146.254C148.332 24.0117 149.845 24.4173 150.793 25.2285C151.741 26.0306 152.215 27.3112 152.215 29.0703C152.215 30.2279 151.964 31.1986 151.463 31.9824C150.962 32.7572 150.278 33.2266 149.412 33.3906V33.5273C150.542 33.8099 151.358 34.3385 151.859 35.1133C152.361 35.888 152.611 36.918 152.611 38.2031C152.611 40.0169 152.124 41.4388 151.148 42.4688C150.182 43.4896 148.856 44 147.17 44H141.154V24.0117ZM144.654 32.0508H146.363C147.147 32.0508 147.699 31.8411 148.018 31.4219C148.337 31.0026 148.496 30.3783 148.496 29.5488C148.496 28.7194 148.314 28.127 147.949 27.7715C147.585 27.4069 147.01 27.2246 146.227 27.2246H144.654V32.0508ZM144.654 35.1543V40.7461H146.527C147.302 40.7461 147.876 40.5091 148.25 40.0352C148.633 39.5612 148.824 38.8275 148.824 37.834C148.824 36.0475 148.04 35.1543 146.473 35.1543H144.654ZM164.807 44L163.658 38.9551H158.449L157.301 44H153.582L158.531 23.9297H163.576L168.539 44H164.807ZM162.961 35.6602L161.895 31.0117C161.831 30.7292 161.685 30.0228 161.457 28.8926C161.238 27.7533 161.106 26.9922 161.061 26.6094C160.942 27.3932 160.792 28.2591 160.609 29.207C160.427 30.1458 159.953 32.2969 159.188 35.6602H162.961ZM170.303 24.0117H173.748V34.9902C173.748 36.1296 173.661 37.2552 173.488 38.3672H173.639L179.736 24.0117H184.303V44H180.885V33.0488C180.885 31.6999 180.99 30.515 181.199 29.4941H181.021L174.896 44H170.303V24.0117ZM182.293 17.9824C182.111 19.5137 181.609 20.6348 180.789 21.3457C179.978 22.0566 178.779 22.4121 177.193 22.4121C175.644 22.4121 174.482 22.0658 173.707 21.373C172.932 20.6712 172.472 19.541 172.326 17.9824H175.348C175.448 18.8939 175.639 19.5091 175.922 19.8281C176.214 20.1471 176.665 20.3066 177.275 20.3066C177.877 20.3066 178.324 20.1243 178.615 19.7598C178.916 19.3952 179.117 18.8027 179.217 17.9824H182.293ZM31.1094 78H27.418V61.2793H22.4824V78H18.7637V58.0117H31.1094V78ZM48.4043 67.9785C48.4043 71.2871 47.7845 73.8301 46.5449 75.6074C45.3053 77.3848 43.5326 78.2734 41.2266 78.2734C38.9115 78.2734 37.1341 77.3893 35.8945 75.6211C34.6549 73.8438 34.0352 71.2871 34.0352 67.9512C34.0352 64.6426 34.6549 62.1087 35.8945 60.3496C37.1341 58.5814 38.9206 57.6973 41.2539 57.6973C43.5599 57.6973 45.3281 58.5859 46.5586 60.3633C47.7891 62.1315 48.4043 64.6699 48.4043 67.9785ZM37.8359 67.9785C37.8359 70.2572 38.123 71.9935 38.6973 73.1875C39.2715 74.3815 40.1146 74.9785 41.2266 74.9785C43.4688 74.9785 44.5898 72.6452 44.5898 67.9785C44.5898 63.3118 43.4779 60.9785 41.2539 60.9785C40.1237 60.9785 39.2715 61.5755 38.6973 62.7695C38.123 63.9544 37.8359 65.6908 37.8359 67.9785ZM50.5508 72.0938V68.8945H57.4277V72.0938H50.5508ZM72.5352 78H68.8164V69.2363H63.9082V78H60.1895V58.0117H63.9082V65.9551H68.8164V58.0117H72.5352V78ZM89.8301 67.9785C89.8301 71.2871 89.2103 73.8301 87.9707 75.6074C86.7311 77.3848 84.9583 78.2734 82.6523 78.2734C80.3372 78.2734 78.5599 77.3893 77.3203 75.6211C76.0807 73.8438 75.4609 71.2871 75.4609 67.9512C75.4609 64.6426 76.0807 62.1087 77.3203 60.3496C78.5599 58.5814 80.3464 57.6973 82.6797 57.6973C84.9857 57.6973 86.7539 58.5859 87.9844 60.3633C89.2148 62.1315 89.8301 64.6699 89.8301 67.9785ZM79.2617 67.9785C79.2617 70.2572 79.5488 71.9935 80.123 73.1875C80.6973 74.3815 81.5404 74.9785 82.6523 74.9785C84.8945 74.9785 86.0156 72.6452 86.0156 67.9785C86.0156 63.3118 84.9036 60.9785 82.6797 60.9785C81.5495 60.9785 80.6973 61.5755 80.123 62.7695C79.5488 63.9544 79.2617 65.6908 79.2617 67.9785ZM92.7559 58.0117H97.8555C99.9336 58.0117 101.447 58.4173 102.395 59.2285C103.342 60.0306 103.816 61.3112 103.816 63.0703C103.816 64.2279 103.566 65.1986 103.064 65.9824C102.563 66.7572 101.88 67.2266 101.014 67.3906V67.5273C102.144 67.8099 102.96 68.3385 103.461 69.1133C103.962 69.888 104.213 70.918 104.213 72.2031C104.213 74.0169 103.725 75.4388 102.75 76.4688C101.784 77.4896 100.458 78 98.7715 78H92.7559V58.0117ZM96.2559 66.0508H97.9648C98.7487 66.0508 99.3001 65.8411 99.6191 65.4219C99.9382 65.0026 100.098 64.3783 100.098 63.5488C100.098 62.7194 99.9154 62.127 99.5508 61.7715C99.1862 61.4069 98.612 61.2246 97.8281 61.2246H96.2559V66.0508ZM96.2559 69.1543V74.7461H98.1289C98.9036 74.7461 99.4779 74.5091 99.8516 74.0352C100.234 73.5612 100.426 72.8275 100.426 71.834C100.426 70.0475 99.6419 69.1543 98.0742 69.1543H96.2559ZM120.701 67.9785C120.701 71.2871 120.081 73.8301 118.842 75.6074C117.602 77.3848 115.829 78.2734 113.523 78.2734C111.208 78.2734 109.431 77.3893 108.191 75.6211C106.952 73.8438 106.332 71.2871 106.332 67.9512C106.332 64.6426 106.952 62.1087 108.191 60.3496C109.431 58.5814 111.217 57.6973 113.551 57.6973C115.857 57.6973 117.625 58.5859 118.855 60.3633C120.086 62.1315 120.701 64.6699 120.701 67.9785ZM110.133 67.9785C110.133 70.2572 110.42 71.9935 110.994 73.1875C111.568 74.3815 112.411 74.9785 113.523 74.9785C115.766 74.9785 116.887 72.6452 116.887 67.9785C116.887 63.3118 115.775 60.9785 113.551 60.9785C112.421 60.9785 111.568 61.5755 110.994 62.7695C110.42 63.9544 110.133 65.6908 110.133 67.9785ZM123.627 58.0117H127.072V68.9902C127.072 70.1296 126.986 71.2552 126.812 72.3672H126.963L133.061 58.0117H137.627V78H134.209V67.0488C134.209 65.6999 134.314 64.515 134.523 63.4941H134.346L128.221 78H123.627V58.0117ZM135.617 51.9824C135.435 53.5137 134.934 54.6348 134.113 55.3457C133.302 56.0566 132.104 56.4121 130.518 56.4121C128.968 56.4121 127.806 56.0658 127.031 55.373C126.257 54.6712 125.796 53.541 125.65 51.9824H128.672C128.772 52.8939 128.964 53.5091 129.246 53.8281C129.538 54.1471 129.989 54.3066 130.6 54.3066C131.201 54.3066 131.648 54.1243 131.939 53.7598C132.24 53.3952 132.441 52.8027 132.541 51.9824H135.617ZM140.908 76.127C140.908 75.416 141.095 74.8646 141.469 74.4727C141.852 74.0807 142.417 73.8848 143.164 73.8848C143.911 73.8848 144.477 74.0807 144.859 74.4727C145.242 74.8555 145.434 75.4069 145.434 76.127C145.434 76.8379 145.233 77.3893 144.832 77.7812C144.44 78.1732 143.884 78.3691 143.164 78.3691C142.426 78.3691 141.865 78.1732 141.482 77.7812C141.1 77.3802 140.908 76.8288 140.908 76.127Z" fill="white"/>
</svg>
