<svg width="300" height="250" viewBox="0 0 300 250" fill="none" xmlns="http://www.w3.org/2000/svg">
<path d="M22 203H146.703C152.39 203 157 207.61 157 213.297V231.286H32.2966C26.6099 231.286 22 226.676 22 220.989V203Z" fill="white"/>
<path d="M36.4951 219.821C36.4951 220.833 36.2354 221.617 35.7158 222.173C35.2008 222.724 34.4626 223 33.501 223H30.9785V213.006H35.7227V214.626H32.8379V216.909H33.4258C34.4375 216.909 35.2008 217.153 35.7158 217.641C36.2354 218.128 36.4951 218.855 36.4951 219.821ZM32.8379 221.387H33.4121C34.2188 221.387 34.6221 220.888 34.6221 219.89C34.6221 219.411 34.5195 219.067 34.3145 218.857C34.1139 218.643 33.7721 218.536 33.2891 218.536H32.8379V221.387ZM43.249 216.082C43.249 217.144 42.9801 217.96 42.4424 218.529C41.9092 219.094 41.1367 219.377 40.125 219.377H39.6602V223H37.8008V213.006H40.3369C42.2783 213.006 43.249 214.031 43.249 216.082ZM39.6602 217.764H40.0156C40.4714 217.764 40.8109 217.638 41.0342 217.388C41.2575 217.137 41.3691 216.727 41.3691 216.157C41.3691 215.633 41.2666 215.246 41.0615 214.995C40.8564 214.74 40.5397 214.612 40.1113 214.612H39.6602V217.764ZM51.3906 217.989C51.3906 219.644 51.0807 220.915 50.4609 221.804C49.8411 222.692 48.9548 223.137 47.8018 223.137C46.6442 223.137 45.7555 222.695 45.1357 221.811C44.516 220.922 44.2061 219.644 44.2061 217.976C44.2061 216.321 44.516 215.054 45.1357 214.175C45.7555 213.291 46.6488 212.849 47.8154 212.849C48.9684 212.849 49.8525 213.293 50.4678 214.182C51.083 215.066 51.3906 216.335 51.3906 217.989ZM46.1064 217.989C46.1064 219.129 46.25 219.997 46.5371 220.594C46.8242 221.191 47.2458 221.489 47.8018 221.489C48.9229 221.489 49.4834 220.323 49.4834 217.989C49.4834 215.656 48.9274 214.489 47.8154 214.489C47.2503 214.489 46.8242 214.788 46.5371 215.385C46.25 215.977 46.1064 216.845 46.1064 217.989ZM59.0264 223H57.167V218.618H54.7129V223H52.8535V213.006H54.7129V216.978H57.167V213.006H59.0264V223ZM60.7969 213.006H62.5195V218.495C62.5195 219.065 62.4762 219.628 62.3896 220.184H62.4648L65.5137 213.006H67.7969V223H66.0879V217.524C66.0879 216.85 66.1403 216.257 66.2451 215.747H66.1562L63.0938 223H60.7969V213.006ZM75.0088 216.082C75.0088 217.144 74.7399 217.96 74.2021 218.529C73.6689 219.094 72.8965 219.377 71.8848 219.377H71.4199V223H69.5605V213.006H72.0967C74.0381 213.006 75.0088 214.031 75.0088 216.082ZM71.4199 217.764H71.7754C72.2311 217.764 72.5706 217.638 72.7939 217.388C73.0173 217.137 73.1289 216.727 73.1289 216.157C73.1289 215.633 73.0264 215.246 72.8213 214.995C72.6162 214.74 72.2995 214.612 71.8711 214.612H71.4199V217.764ZM76.8613 223.137C76.3828 223.137 75.9818 223.073 75.6582 222.945V221.291C75.9909 221.423 76.335 221.489 76.6904 221.489C77.2373 221.489 77.6589 220.981 77.9551 219.965L75.3916 213.006H77.3398L78.6113 216.909C78.7161 217.269 78.7822 217.577 78.8096 217.832H78.8643L78.96 217.367L79.0625 216.909L80.1494 213.006H82.0293L79.8008 220.074C79.4453 221.191 79.0374 221.981 78.5771 222.446C78.1214 222.907 77.5495 223.137 76.8613 223.137ZM82.918 213.006H84.6406V218.495C84.6406 219.065 84.5973 219.628 84.5107 220.184H84.5859L87.6348 213.006H89.918V223H88.209V217.524C88.209 216.85 88.2614 216.257 88.3662 215.747H88.2773L85.2148 223H82.918V213.006ZM88.9131 209.991C88.8219 210.757 88.5713 211.317 88.1611 211.673C87.7555 212.028 87.1562 212.206 86.3633 212.206C85.5885 212.206 85.0075 212.033 84.6201 211.687C84.2327 211.336 84.0026 210.771 83.9297 209.991H85.4404C85.4906 210.447 85.5863 210.755 85.7275 210.914C85.8734 211.074 86.099 211.153 86.4043 211.153C86.7051 211.153 86.9284 211.062 87.0742 210.88C87.2246 210.698 87.3249 210.401 87.375 209.991H88.9131ZM94.751 223H92.8984V214.64H90.9844V213.006H96.665V214.64H94.751V223ZM102.243 223H97.7383V213.006H102.243V214.612H99.5977V216.991H102.052V218.604H99.5977V221.373H102.243V223ZM110.474 214.489C109.94 214.489 109.519 214.801 109.209 215.426C108.904 216.05 108.751 216.918 108.751 218.03C108.751 220.345 109.355 221.503 110.562 221.503C111.091 221.503 111.645 221.334 112.224 220.997V222.651C111.736 222.975 111.112 223.137 110.351 223.137C109.225 223.137 108.359 222.69 107.753 221.797C107.151 220.899 106.851 219.639 106.851 218.017C106.851 216.394 107.16 215.13 107.78 214.223C108.405 213.316 109.271 212.862 110.378 212.862C110.743 212.862 111.091 212.912 111.424 213.013C111.761 213.113 112.121 213.288 112.504 213.539L111.889 215.05C111.684 214.909 111.465 214.781 111.232 214.667C111 214.549 110.747 214.489 110.474 214.489ZM118.144 223H113.639V213.006H118.144V214.612H115.498V216.991H117.952V218.604H115.498V221.373H118.144V223ZM119.6 213.006H121.322V218.495C121.322 219.065 121.279 219.628 121.192 220.184H121.268L124.316 213.006H126.6V223H124.891V217.524C124.891 216.85 124.943 216.257 125.048 215.747H124.959L121.896 223H119.6V213.006ZM125.595 209.991C125.504 210.757 125.253 211.317 124.843 211.673C124.437 212.028 123.838 212.206 123.045 212.206C122.27 212.206 121.689 212.033 121.302 211.687C120.914 211.336 120.684 210.771 120.611 209.991H122.122C122.172 210.447 122.268 210.755 122.409 210.914C122.555 211.074 122.781 211.153 123.086 211.153C123.387 211.153 123.61 211.062 123.756 210.88C123.906 210.698 124.007 210.401 124.057 209.991H125.595ZM134.495 223H132.636V219.124C131.998 219.516 131.353 219.712 130.701 219.712C129.949 219.712 129.366 219.484 128.951 219.028C128.541 218.568 128.336 217.928 128.336 217.107V213.006H130.195V216.697C130.195 217.176 130.266 217.524 130.407 217.743C130.553 217.962 130.79 218.071 131.118 218.071C131.392 218.071 131.649 218.026 131.891 217.935C132.132 217.839 132.381 217.711 132.636 217.552V213.006H134.495V223ZM140.996 223L140.422 220.478H137.817L137.243 223H135.384L137.858 212.965H140.381L142.862 223H140.996ZM140.073 218.83L139.54 216.506C139.508 216.365 139.435 216.011 139.321 215.446C139.212 214.877 139.146 214.496 139.123 214.305C139.064 214.697 138.989 215.13 138.897 215.604C138.806 216.073 138.569 217.148 138.187 218.83H140.073ZM147.06 214.489C146.526 214.489 146.105 214.801 145.795 215.426C145.49 216.05 145.337 216.918 145.337 218.03C145.337 220.345 145.941 221.503 147.148 221.503C147.677 221.503 148.231 221.334 148.81 220.997V222.651C148.322 222.975 147.698 223.137 146.937 223.137C145.811 223.137 144.945 222.69 144.339 221.797C143.737 220.899 143.437 219.639 143.437 218.017C143.437 216.394 143.746 215.13 144.366 214.223C144.991 213.316 145.856 212.862 146.964 212.862C147.328 212.862 147.677 212.912 148.01 213.013C148.347 213.113 148.707 213.288 149.09 213.539L148.475 215.05C148.27 214.909 148.051 214.781 147.818 214.667C147.586 214.549 147.333 214.489 147.06 214.489Z" fill="#0090D7"/>
</svg>
